P2
92
112
255
0 0 0 0 0 0 0 0 0 0 0 0 0 0 0 0 0 0 0 0 0 0 1 8 11 13 18 25 31 38 44 51 51 47 51 51 54 55 56 58 59 64 64 62 57 60 57 56 49 52 56 55 54 57 53 51 47 49 47 46 46 42 37 32 32 29 25 21 12 6 1 3 2 0 0 0 0 0 0 0 0 0 0 0 0 0 0 0 0 0 0 0 0 0 0 0 0 0 0 0 0 0 0 0 0 0 0 0 0 0 0 0 1 9 12 13 21 28 32 37 45 50 53 58 57 55 57 55 62 64 63 64 69 70 72 70 68 66 65 65 61 61 63 66 64 64 63 59 55 53 54 48 52 48 44 38 35 34 32 27 22 12 6 6 3 2 0 0 0 0 0 0 0 0 0 0 0 0 0 0 0 0 0 0 0 0 0 0 0 0 0 0 0 0 0 0 0 0 0 0 0 0 0 5 10 16 23 28 34 41 47 52 56 61 61 62 63 60 60 62 68 68 69 71 69 75 77 75 74 74 75 75 72 72 73 73 72 73 70 68 65 63 61 57 55 55 49 47 43 40 38 35 28 21 9 8 4 4 0 0 0 0 0 0 0 0 0 0 0 0 0 0 0 0 0 0 0 0 0 0 0 0 0 0 0 0 0 0 0 0 0 0 0 1 11 17 23 28 37 40 45 50 53 60 63 62 65 67 65 65 65 69 72 73 75 75 74 79 81 80 79 79 80 81 80 78 82 81 79 79 73 73 68 69 67 63 63 62 56 54 52 46 41 39 34 30 17 11 9 5 4 0 3 2 1 0 0 0 0 0 0 0 0 0 0 0 0 0 0 0 0 0 0 0 0 0 0 0 0 0 0 0 0 0 2 12 21 29 32 40 48 51 53 59 62 61 62 63 65 65 71 69 71 72 76 77 83 82 81 82 84 85 83 82 82 83 84 83 85 87 87 85 81 76 76 73 73 73 71 69 69 60 61 51 43 44 42 33 25 18 18 12 7 2 5 3 1 0 0 0 0 0 0 0 0 0 0 0 0 0 0 0 0 0 0 0 0 0 0 0 0 0 0 1 5 7 11 22 30 36 43 50 54 57 59 64 62 61 60 60 63 66 69 73 73 77 81 83 85 90 89 86 87 90 90 87 86 87 85 83 88 88 90 90 88 82 80 78 79 80 75 74 71 66 63 58 51 48 43 40 34 31 27 22 13 5 5 6 0 0 0 0 0 0 0 0 0 0 0 0 0 0 0 0 0 0 0 0 0 0 0 0 0 0 3 7 14 14 23 31 38 48 54 56 57 58 61 62 61 61 62 62 63 69 70 73 75 80 82 81 88 90 94 92 94 93 91 89 89 89 86 85 86 86 89 88 91 85 82 84 85 82 79 76 72 70 64 60 56 50 48 46 42 40 40 30 19 15 11 3 0 0 0 0 0 0 0 0 0 0 0 0 0 0 0 0 0 0 0 0 0 0 0 0 0 0 7 15 23 26 33 40 50 55 55 56 57 58 62 61 61 62 62 61 64 70 72 72 77 80 83 82 87 90 92 90 93 94 91 90 88 89 87 87 86 88 91 89 90 89 84 83 84 84 81 78 74 72 65 61 56 58 51 48 48 45 47 42 32 23 21 7 0 0 0 0 0 0 0 0 0 0 0 0 0 0 0 0 0 0 0 0 0 0 0 0 0 9 17 24 32 32 41 47 54 58 58 57 57 59 61 60 59 63 63 63 65 67 73 74 77 82 80 83 86 89 88 92 94 93 91 89 87 85 86 84 85 87 89 89 89 89 87 83 83 81 82 80 75 72 69 65 64 63 56 51 48 50 48 46 39 29 19 14 2 0 0 0 0 0 0 0 0 0 0 0 0 0 0 0 0 0 0 0 0 0 0 3 13 16 25 32 34 37 47 53 56 57 55 57 56 59 59 60 59 63 66 66 66 68 73 73 77 78 80 83 84 85 87 90 91 91 89 87 87 84 84 84 85 88 88 89 89 86 87 84 80 80 80 79 78 76 73 68 67 67 63 55 52 51 49 50 46 35 28 19 8 0 0 0 0 0 0 0 0 0 0 0 0 0 0 0 0 0 0 0 0 0 3 12 16 20 29 33 38 44 53 53 55 54 53 55 54 56 60 61 62 63 64 66 69 69 73 73 76 76 78 80 84 83 84 90 88 88 86 84 83 83 81 81 85 86 88 85 87 84 83 83 81 78 79 78 76 77 73 70 69 68 67 63 59 55 55 53 48 42 32 28 20 7 0 0 0 0 0 0 0 0 0 0 0 0 0 0 0 0 0 0 0 0 6 16 20 29 34 39 43 47 52 55 57 55 57 56 59 58 59 61 62 64 63 64 67 70 71 74 73 76 77 78 82 83 83 86 86 86 83 83 80 80 81 80 84 84 86 83 84 83 83 82 80 81 81 79 77 76 77 72 71 71 70 69 65 60 57 55 52 45 38 30 29 18 1 0 0 0 0 0 0 0 0 0 0 0 0 0 0 0 0 0 0 3 10 17 29 36 43 43 48 50 51 54 55 54 55 57 60 59 60 61 61 62 63 64 66 67 69 71 72 73 76 76 79 79 79 80 83 82 81 80 79 79 79 78 77 81 81 81 81 81 81 83 80 80 82 81 81 79 77 74 74 73 72 69 68 65 58 55 54 48 43 35 28 22 14 0 0 0 0 0 0 0 0 0 0 0 0 0 0 0 0 0 0 9 11 21 31 37 41 47 50 53 54 53 54 55 57 58 59 59 59 59 60 60 62 62 63 63 67 68 69 72 73 74 77 81 80 80 80 80 78 78 77 76 76 77 77 77 78 77 79 80 80 80 79 78 77 80 79 80 77 73 73 76 74 73 68 66 62 55 53 52 42 38 29 23 22 6 1 0 0 0 0 0 0 0 0 0 0 0 0 0 0 0 7 8 16 22 29 35 44 48 51 54 55 54 54 56 57 58 57 58 56 56 57 57 60 59 60 62 63 65 66 69 70 71 75 76 77 78 78 76 75 75 75 72 72 73 73 75 77 76 76 76 77 78 75 78 77 77 77 79 78 74 73 74 74 74 71 66 62 58 54 49 40 35 31 23 22 13 8 0 0 0 0 0 0 0 0 0 0 0 0 0 0 0 4 8 15 26 31 40 45 48 49 51 55 52 54 56 56 57 55 56 56 55 54 54 56 56 59 59 63 63 63 65 67 68 70 74 75 77 76 73 74 73 72 71 71 72 72 73 73 74 75 75 75 74 73 74 75 74 73 74 75 75 71 72 72 70 69 70 61 58 52 48 40 34 29 25 22 14 12 2 0 0 0 0 0 0 0 0 0 0 0 0 0 3 3 9 15 26 33 38 45 46 45 48 52 52 54 54 55 54 53 52 52 52 52 53 52 53 56 57 57 60 61 62 64 65 69 72 73 73 74 72 73 71 68 68 68 68 68 70 70 73 72 70 73 72 72 71 71 71 71 69 69 71 72 70 68 67 68 67 64 57 53 48 42 32 34 27 24 18 14 6 0 0 0 0 0 0 0 0 0 0 0 0 0 4 9 12 18 25 32 36 39 42 44 48 49 50 52 52 53 52 51 49 50 50 50 50 50 52 52 54 57 56 59 59 62 64 66 69 70 71 71 70 68 68 68 65 65 63 64 65 66 66 67 67 67 68 70 69 67 67 67 66 68 68 69 70 67 63 65 64 62 59 53 46 39 33 33 33 21 19 12 10 2 0 0 0 0 0 0 0 0 0 0 0 0 8 9 16 19 26 29 36 38 42 46 46 48 51 49 51 49 49 48 47 47 48 47 49 49 49 50 50 52 53 54 56 59 59 63 64 66 66 67 66 65 64 64 61 60 60 61 62 62 62 63 63 64 64 65 67 64 64 65 63 64 65 66 66 66 62 63 62 59 59 54 48 39 35 31 28 27 19 13 9 6 0 0 0 0 0 0 0 0 0 0 0 0 10 11 17 19 23 27 34 40 43 45 48 47 48 47 47 48 46 46 46 46 45 44 46 46 47 46 47 50 50 50 53 55 57 56 59 62 61 62 61 59 59 58 58 57 55 55 58 56 59 58 60 60 59 60 61 60 62 61 60 63 63 62 62 62 63 61 61 59 56 52 47 42 36 32 27 22 21 14 8 5 1 0 0 0 0 0 0 0 0 0 0 3 10 12 16 17 22 27 32 39 42 45 47 48 47 45 44 45 44 41 44 44 43 42 42 42 43 43 43 45 46 46 49 50 51 50 56 58 57 54 57 55 55 55 52 53 51 52 53 53 54 53 54 53 53 53 55 55 56 56 57 59 60 61 61 59 60 60 60 57 54 50 43 41 36 31 25 23 22 16 10 8 2 0 0 0 0 0 0 0 0 0 2 5 9 13 16 20 19 26 32 36 39 43 45 46 44 43 42 41 42 41 39 40 39 40 39 38 38 39 38 39 39 41 43 43 46 48 48 52 49 51 52 52 51 52 51 49 48 48 49 49 49 50 50 49 51 51 50 51 51 51 52 53 55 56 59 58 57 59 58 55 52 51 40 37 37 29 24 23 20 18 14 8 3 0 0 0 0 0 0 0 0 0 2 5 10 15 14 17 18 23 29 33 39 41 42 43 43 38 38 38 39 38 33 36 35 35 35 33 32 34 34 33 33 36 36 38 39 41 42 45 45 46 46 48 48 46 47 46 44 45 44 45 46 45 46 45 47 46 46 46 46 46 47 48 50 51 52 54 54 55 59 55 49 50 42 35 34 29 24 22 20 16 15 8 2 0 0 0 0 0 0 0 0 0 1 6 12 14 12 12 15 22 25 33 35 38 40 39 38 37 36 35 34 32 29 33 30 29 30 29 26 28 28 28 27 34 34 35 35 35 38 40 39 40 40 42 43 41 42 42 41 40 40 41 40 40 40 42 43 44 43 41 42 42 42 43 47 47 46 49 51 51 54 52 50 46 43 36 32 26 25 23 16 19 15 10 0 0 0 0 0 0 0 0 0 0 2 9 13 12 12 12 19 22 24 30 35 36 38 35 35 33 33 32 30 28 25 28 27 25 24 22 21 20 22 23 23 24 29 30 29 31 34 35 35 35 37 37 38 38 38 38 35 34 36 36 37 36 37 40 39 39 39 38 39 40 40 42 43 43 43 46 46 48 52 48 46 44 41 37 32 27 23 27 18 14 17 9 0 0 0 0 0 0 0 0 0 1 8 13 12 11 12 15 18 21 24 27 33 35 35 33 31 30 29 27 26 22 24 22 22 21 22 21 19 18 18 18 21 21 24 25 26 28 27 30 29 32 31 34 35 35 33 34 31 32 31 34 32 33 33 37 34 36 34 35 35 39 38 40 42 43 44 46 45 45 48 47 43 41 39 34 32 25 26 18 21 15 14 10 0 0 0 0 0 0 0 0 0 3 8 10 12 14 13 12 15 18 23 27 30 32 32 32 27 26 24 22 22 18 19 19 19 16 19 17 17 18 20 19 20 21 21 24 23 28 27 28 26 27 27 29 31 30 31 29 28 29 29 29 28 29 28 32 31 33 33 34 33 34 36 39 40 42 42 42 44 44 46 48 46 41 35 32 31 25 22 21 16 18 13 14 2 2 0 0 0 0 0 0 0 3 9 11 13 13 13 13 15 18 23 27 30 30 30 27 23 21 20 18 16 15 15 18 18 15 17 17 16 16 19 18 20 20 20 20 23 23 24 24 23 25 24 25 25 26 28 26 25 27 25 26 26 24 24 28 30 29 30 30 30 32 34 36 38 41 43 41 41 42 45 46 45 44 37 30 29 23 20 22 16 19 14 13 4 3 0 0 0 0 0 0 0 4 8 11 13 15 11 13 17 20 23 26 27 27 26 24 19 18 16 14 12 16 13 15 15 14 15 16 15 16 15 16 17 19 19 19 20 21 21 22 20 22 22 21 22 22 24 22 22 23 22 23 23 21 22 24 26 27 27 26 27 29 31 34 35 39 40 40 40 39 40 45 45 42 40 32 25 24 18 20 20 19 19 11 9 0 0 0 0 0 0 0 0 3 8 13 13 12 12 16 18 21 21 23 26 25 24 19 17 15 13 11 12 13 13 13 14 13 13 14 14 13 15 13 14 16 15 18 19 18 19 18 17 17 20 20 20 21 20 19 18 19 19 19 19 20 20 20 22 22 24 23 23 28 28 32 32 33 36 38 38 40 38 39 41 40 39 32 25 22 19 16 18 15 21 12 9 1 0 0 0 0 0 0 0 4 7 13 12 15 12 18 19 22 21 22 25 23 21 16 14 12 11 9 10 9 10 11 12 13 14 12 12 12 13 13 13 14 16 16 17 17 19 15 14 15 16 16 18 17 16 14 15 16 17 17 16 17 16 18 19 20 20 20 20 25 26 28 30 31 36 36 37 40 39 38 40 39 37 34 24 18 16 15 14 15 14 13 8 5 0 0 0 0 0 0 0 2 7 10 11 15 15 21 21 21 21 23 24 21 19 14 12 10 10 8 8 9 11 11 11 11 11 11 11 12 13 12 11 13 13 14 13 14 15 13 11 11 13 12 13 11 11 10 10 12 13 11 13 11 12 13 14 16 15 15 16 17 20 22 24 30 30 32 33 37 39 40 39 36 37 32 25 15 14 11 11 12 13 10 11 6 0 0 0 0 0 0 0 4 8 12 13 15 18 22 21 21 21 23 22 18 18 12 10 9 8 6 6 9 9 9 10 8 9 7 7 7 6 6 6 5 7 7 10 8 10 11 7 6 6 6 4 5 3 3 5 8 8 6 9 8 8 8 11 13 9 9 10 14 16 20 19 24 24 26 27 30 34 39 39 38 33 31 25 16 14 14 9 6 13 9 22 17 4 0 0 0 0 0 0 8 9 9 15 18 20 24 25 21 21 21 20 17 14 8 8 8 7 4 5 6 7 7 9 6 4 5 7 6 2 4 3 4 3 4 4 1 3 5 6 0 0 0 0 0 0 0 0 2 3 3 6 5 5 4 7 9 7 6 8 10 13 17 13 15 16 19 21 21 27 29 36 35 32 27 22 16 15 14 8 5 8 13 22 23 8 0 0 0 0 0 0 7 5 9 11 14 20 26 25 21 20 20 18 15 9 6 6 6 6 4 4 5 7 7 5 3 2 1 0 0 0 0 0 0 0 0 0 0 0 0 0 0 0 0 0 0 0 0 0 0 0 0 2 3 5 3 3 4 5 6 6 10 18 15 8 24 13 15 20 14 21 23 27 31 29 26 22 13 14 13 2 4 9 17 21 24 15 2 0 0 0 0 0 0 2 8 10 12 19 22 24 17 18 16 15 12 5 4 4 4 5 0 0 4 2 3 1 0 0 0 0 0 0 0 0 3 0 0 0 0 0 0 0 0 0 0 0 0 0 0 0 0 0 0 1 4 5 5 3 3 4 8 9 15 20 14 9 15 16 11 18 11 22 17 17 26 26 26 20 13 11 15 0 6 14 19 23 18 18 3 3 0 0 0 0 0 3 10 7 13 17 21 19 16 15 16 12 9 5 3 2 3 3 0 1 2 0 0 0 0 0 0 0 4 0 0 0 0 0 0 0 0 0 0 0 0 0 0 0 0 0 0 0 0 0 2 3 6 6 7 8 4 8 4 10 16 22 15 11 11 11 11 13 11 22 21 13 20 28 30 21 18 14 19 4 11 19 20 21 17 18 10 5 0 0 0 2 0 8 14 4 11 17 20 17 12 13 13 13 7 2 1 2 0 0 0 0 0 0 0 0 0 0 0 0 0 0 0 0 0 0 0 0 0 0 0 0 0 0 0 0 0 0 0 0 0 0 0 3 6 8 7 9 6 6 6 10 12 18 20 14 12 14 14 20 17 23 21 20 18 31 34 27 21 22 17 13 16 25 22 24 28 22 13 0 3 0 3 5 0 2 13 3 11 16 18 13 10 12 14 7 4 2 1 0 0 0 0 0 0 0 0 0 0 0 0 0 0 0 0 0 3 1 0 0 0 0 0 0 0 0 0 0 0 0 0 0 0 0 1 4 7 6 7 8 10 9 8 11 14 17 19 20 15 10 12 17 21 21 23 25 26 29 38 34 26 31 23 24 25 29 21 28 28 24 12 0 0 0 5 3 0 0 7 5 10 17 19 14 15 16 16 10 5 4 1 1 0 0 0 0 0 0 0 0 0 0 0 0 0 0 0 1 1 0 0 0 0 0 0 0 0 0 0 0 0 0 0 0 0 0 0 0 0 0 1 0 5 7 6 8 10 14 17 20 19 17 22 21 23 23 22 25 26 30 37 36 27 30 27 34 31 28 26 31 32 20 7 0 0 0 8 6 5 1 7 10 12 15 17 13 14 18 17 12 6 5 0 0 0 0 0 0 0 0 0 0 0 0 0 2 3 5 2 3 5 2 0 0 0 0 0 0 0 0 0 0 0 0 0 0 0 0 0 0 0 0 3 0 0 0 0 0 0 4 7 13 18 24 27 25 22 19 16 16 16 20 24 26 23 22 19 34 33 21 29 32 31 19 2 0 0 0 7 8 10 9 11 14 15 13 19 13 13 18 18 11 7 5 2 0 0 0 0 0 0 0 0 0 0 0 0 1 6 5 3 1 1 0 0 0 0 0 0 0 0 0 0 0 0 0 0 0 0 1 4 0 0 0 5 0 0 0 0 0 0 0 0 0 7 11 14 16 20 12 12 18 16 20 25 17 25 26 17 21 24 18 28 31 31 21 0 0 0 2 1 6 15 15 16 20 18 13 21 16 18 22 17 7 5 3 0 0 0 0 0 0 0 0 0 0 0 0 0 0 0 0 0 0 0 0 0 0 0 0 0 0 0 0 0 0 0 0 0 0 0 0 5 0 0 0 0 0 0 0 2 13 0 1 0 0 0 0 8 22 21 12 13 35 26 13 31 26 28 42 32 31 23 12 24 29 32 19 4 0 0 2 2 3 10 17 20 31 17 11 18 11 15 19 12 3 4 3 3 2 0 0 0 0 0 0 0 0 0 0 0 0 0 0 0 0 0 0 0 0 0 0 0 0 0 0 0 0 0 0 0 5 1 0 5 11 0 0 0 0 0 0 11 9 0 0 0 0 0 0 16 33 29 5 11 23 24 12 34 30 36 44 42 34 31 22 15 32 45 29 12 0 0 0 0 5 6 14 23 37 15 7 13 8 16 23 9 5 0 6 5 2 0 0 0 0 0 0 0 0 0 0 0 0 0 0 0 0 0 0 2 1 8 3 0 0 0 0 0 0 0 0 2 10 2 0 3 4 0 1 0 6 13 0 2 14 0 10 3 8 15 0 8 26 29 17 13 20 23 17 50 38 51 50 47 25 33 26 22 37 47 35 19 6 0 0 0 5 10 9 20 31 11 2 7 8 19 18 6 3 0 0 5 0 0 0 1 0 0 0 0 0 0 0 0 0 0 0 2 0 0 0 4 5 13 9 0 0 0 0 0 0 3 6 4 13 8 0 0 3 7 12 22 16 25 13 14 15 10 12 10 14 24 16 15 15 23 25 21 22 25 22 45 56 57 55 44 27 39 38 33 41 49 41 19 18 0 7 2 7 11 15 14 21 7 0 5 14 23 21 14 5 13 4 0 0 0 0 3 0 0 0 0 0 0 0 0 0 0 0 0 2 2 6 8 12 13 10 0 0 0 0 0 0 1 8 7 13 15 15 5 15 16 15 22 25 27 24 21 24 24 28 28 28 27 28 20 16 20 27 28 29 32 33 43 54 53 48 44 32 43 44 37 46 50 47 26 21 16 3 8 10 17 25 11 6 7 0 15 19 23 21 17 3 6 1 0 0 0 0 0 0 0 0 0 0 0 0 8 12 9 13 14 9 18 15 14 13 14 9 4 0 0 0 0 0 0 5 8 9 15 18 21 21 20 22 27 30 34 35 35 30 32 37 38 37 30 30 29 25 27 26 32 35 35 38 43 49 51 45 47 44 46 55 46 51 55 55 34 20 27 2 7 14 22 26 6 0 15 6 16 21 28 24 21 16 9 4 0 0 1 4 7 6 0 0 1 2 0 1 11 18 18 22 20 13 17 22 15 13 10 9 8 3 0 1 0 2 0 4 11 11 16 21 21 24 21 21 23 22 33 31 30 29 30 34 34 33 33 31 33 33 33 33 34 41 40 42 47 54 56 53 48 55 49 63 57 62 69 67 45 23 26 5 6 21 24 29 17 3 10 8 15 21 32 32 22 17 13 2 0 0 8 6 9 10 6 3 4 6 5 6 17 20 20 17 21 18 17 27 22 14 13 12 9 6 6 7 5 5 5 7 11 14 19 25 28 32 28 27 28 30 38 35 31 32 37 31 35 34 40 35 35 35 34 37 39 42 45 47 52 57 61 59 50 56 52 71 62 68 70 72 51 31 19 15 7 17 24 34 26 17 7 13 12 25 34 35 27 21 13 9 11 11 8 10 16 12 14 8 8 4 19 17 23 21 30 25 22 22 20 23 23 20 16 19 14 8 9 11 12 11 10 13 13 16 20 23 33 32 33 30 27 33 40 36 31 31 34 34 44 42 54 48 39 35 32 38 40 41 45 48 51 57 60 60 54 56 56 74 63 70 69 69 57 33 21 14 9 16 21 33 31 23 15 17 8 16 31 29 28 25 18 13 15 17 13 4 9 14 18 16 13 12 16 24 28 24 32 31 28 24 23 20 25 24 21 23 19 12 10 13 15 18 19 15 13 17 20 24 29 33 40 34 32 31 35 41 38 37 38 40 57 52 56 53 43 39 36 37 42 42 44 47 50 55 60 61 56 54 57 72 65 69 64 66 59 31 25 11 7 19 23 35 30 25 23 23 16 19 28 27 27 23 21 16 16 13 12 5 11 16 21 23 17 14 15 25 26 29 33 34 31 28 27 21 23 27 22 24 19 14 12 14 20 22 16 12 10 13 20 27 29 32 38 38 30 27 25 40 48 43 42 44 56 58 53 49 44 41 41 39 41 43 45 49 49 54 56 59 60 53 62 75 69 60 61 70 67 29 22 12 7 22 26 31 29 24 26 32 20 24 32 30 25 22 19 18 16 12 12 13 11 14 27 27 26 15 18 23 26 33 34 34 34 29 26 24 25 27 23 25 19 15 16 17 24 21 13 12 18 21 18 27 32 34 40 37 31 27 29 34 46 47 46 49 54 53 51 49 46 42 40 42 43 44 47 48 50 53 56 57 64 57 64 73 66 59 74 83 74 33 20 17 9 27 35 33 30 21 27 33 27 25 32 28 23 20 17 18 15 13 13 19 18 15 18 22 21 19 21 27 28 33 34 34 34 32 31 25 24 24 25 24 19 16 16 19 24 20 15 19 24 26 22 23 29 33 38 39 36 28 38 38 45 46 49 47 53 54 53 49 47 44 42 42 43 45 46 47 49 52 54 56 63 61 68 58 59 69 81 90 80 31 23 21 18 36 43 37 37 18 28 32 26 21 27 25 22 17 17 17 15 14 17 19 23 19 16 17 18 19 21 28 31 32 32 34 33 32 29 24 23 25 26 25 18 17 16 18 21 23 21 25 27 25 24 22 28 34 36 39 37 34 38 38 42 47 49 47 54 56 55 51 47 45 43 42 42 43 46 47 50 50 53 54 57 63 70 61 65 68 77 87 68 37 26 26 20 43 45 40 38 25 33 34 24 20 23 21 19 14 14 13 12 14 16 19 20 23 18 17 18 20 21 24 28 29 30 32 32 31 27 23 25 27 25 25 17 13 15 17 19 19 19 21 24 22 25 24 28 33 35 37 38 38 36 36 38 43 41 45 51 55 53 49 46 43 42 40 41 42 44 46 48 49 50 50 56 60 66 63 66 69 75 73 53 38 31 31 24 47 51 44 36 33 28 28 25 18 22 19 15 13 10 8 9 11 13 16 18 20 19 18 18 16 19 21 26 28 28 29 28 28 24 24 25 25 26 23 18 10 8 11 14 14 15 18 21 22 25 25 28 30 31 32 37 35 37 33 34 36 37 40 46 48 47 46 43 42 40 39 39 40 41 44 47 48 48 50 52 61 60 65 66 69 62 56 53 38 40 26 31 41 43 44 34 30 20 21 23 17 19 15 13 9 7 4 7 10 11 11 14 16 15 14 15 15 18 21 23 26 26 26 25 24 21 24 24 27 24 23 19 13 8 11 12 12 13 16 21 23 25 26 25 27 30 30 31 31 32 28 30 32 35 37 41 40 43 42 40 39 39 37 37 39 41 43 44 46 45 49 52 52 54 54 56 57 47 52 55 40 43 31 35 48 44 37 30 24 27 15 19 13 16 12 8 6 2 1 4 5 5 7 8 12 8 9 11 13 16 20 20 23 23 24 24 23 22 23 24 24 24 20 21 12 8 9 12 13 14 15 21 23 24 21 23 21 25 27 26 26 28 25 29 30 35 34 39 39 40 41 41 39 37 37 35 36 39 40 41 43 44 46 52 50 52 56 44 39 38 52 56 47 38 39 22 48 45 39 25 26 31 17 15 8 14 9 5 2 2 0 2 2 3 4 6 6 2 5 8 10 14 17 18 20 21 22 20 22 23 23 24 20 19 15 19 15 9 8 11 15 14 15 22 21 22 18 19 17 19 23 24 23 25 22 24 29 32 33 35 37 38 37 37 37 36 35 33 34 36 39 40 41 43 45 49 53 48 49 40 30 30 52 57 48 40 46 12 42 41 40 30 30 30 17 12 6 11 6 5 0 0 0 3 0 1 3 3 1 0 3 5 8 13 14 17 17 16 19 19 20 23 24 22 19 14 11 13 14 13 10 12 16 16 18 19 18 17 18 18 15 15 19 21 22 22 22 23 26 26 30 33 33 34 33 32 33 32 33 32 32 33 38 40 39 42 44 47 48 42 40 43 27 32 55 61 48 40 39 14 32 36 31 30 29 25 17 11 4 10 7 3 1 0 0 1 1 2 2 0 0 0 0 3 7 12 11 13 16 16 16 16 20 23 23 22 9 0 4 9 12 14 13 12 15 14 13 6 4 10 16 18 16 13 17 19 18 22 24 24 25 27 28 31 31 33 31 31 31 30 32 33 32 29 36 38 39 41 44 40 38 37 36 43 33 40 58 58 45 38 39 16 34 32 26 22 28 20 17 10 1 8 8 5 0 0 0 0 1 4 1 0 0 0 0 2 5 8 11 11 17 16 15 15 18 23 23 15 4 0 3 5 12 14 12 13 14 11 12 6 5 7 14 17 17 17 17 20 18 19 23 23 24 26 27 28 28 33 31 31 31 28 32 32 32 31 34 37 39 38 43 35 36 35 34 34 41 44 59 55 40 43 36 19 30 38 23 16 28 19 19 10 2 5 7 6 1 0 0 1 3 4 0 0 0 0 0 0 4 6 10 11 13 15 15 15 17 24 20 12 8 7 11 11 7 10 11 14 14 14 16 18 18 14 12 15 14 18 21 24 20 19 20 21 21 23 23 23 25 28 29 31 30 30 30 31 30 32 32 36 38 40 42 32 35 33 34 29 32 44 57 51 43 48 35 24 29 40 33 15 18 16 17 13 1 3 7 4 1 0 1 1 6 3 0 0 0 0 0 0 0 5 9 8 9 13 14 16 17 22 19 8 7 10 12 15 8 9 10 13 12 18 19 22 22 18 16 14 10 16 24 28 25 23 22 22 19 22 21 23 22 26 29 29 30 31 27 27 30 32 32 35 38 42 40 32 32 34 42 38 38 42 53 47 42 43 32 32 23 40 36 23 9 6 7 13 3 1 8 2 1 1 3 0 4 0 2 0 0 0 0 0 0 4 8 7 10 12 14 16 14 17 12 2 0 3 6 10 10 10 12 10 11 17 20 22 20 18 19 18 15 21 30 32 28 24 19 20 15 22 25 21 22 25 29 29 31 30 24 24 30 34 33 35 38 41 36 30 32 34 42 44 39 39 49 41 36 35 33 36 25 32 33 24 8 4 3 1 2 2 6 4 2 3 3 3 4 0 2 0 0 0 0 0 0 0 3 8 11 13 15 16 14 9 5 2 1 0 2 6 11 10 11 10 12 17 19 22 21 19 22 21 23 21 26 25 22 22 22 23 21 18 19 21 24 26 28 29 28 25 20 23 29 33 33 35 39 43 32 29 34 36 40 45 40 37 42 31 31 27 35 25 33 26 26 16 7 10 9 1 1 1 2 5 5 3 3 4 6 1 5 3 0 0 4 0 0 0 1 6 8 12 14 13 8 7 7 7 9 9 11 11 15 7 3 5 13 18 16 22 23 20 20 21 20 17 15 18 20 22 23 28 28 25 22 22 25 30 32 28 26 25 25 26 30 35 34 36 40 41 31 28 33 37 40 46 38 35 30 25 26 27 36 9 29 23 24 16 16 15 13 8 0 3 3 4 6 5 6 6 7 2 6 5 0 0 0 0 0 0 0 2 8 7 7 9 8 7 4 2 8 14 10 16 14 6 7 11 15 14 19 21 25 21 21 17 10 9 10 14 13 16 23 28 28 26 26 26 29 30 29 25 22 21 27 28 31 37 38 39 42 39 31 29 32 36 41 43 32 27 27 19 22 31 39 14 11 18 21 19 23 17 14 10 0 2 3 5 6 6 9 8 9 5 6 7 6 0 0 2 2 3 1 1 3 2 7 10 11 13 14 12 12 16 12 11 12 14 17 21 25 17 15 20 24 22 20 19 16 15 17 18 21 17 21 29 30 28 29 30 31 30 27 23 23 24 29 31 34 39 41 41 44 36 31 30 33 31 34 33 26 28 20 16 25 34 35 18 6 0 14 20 27 19 13 12 0 3 2 6 8 8 11 10 11 8 8 7 8 2 1 3 4 7 7 6 5 5 7 11 13 15 18 18 19 19 17 17 20 22 22 25 31 25 19 20 19 19 19 21 22 19 17 19 26 25 26 28 31 32 33 33 33 28 27 27 28 28 35 35 38 41 43 42 45 35 29 31 35 25 25 31 29 24 17 15 27 32 25 22 11 0 0 14 25 25 11 14 4 2 5 8 10 9 12 13 13 12 13 10 9 6 5 6 5 5 9 11 10 8 9 13 16 19 21 21 24 24 19 21 22 27 27 29 34 29 26 27 25 24 24 22 24 20 15 17 24 27 29 31 31 32 35 34 32 29 30 32 32 32 37 39 42 44 44 43 45 34 31 34 35 26 23 30 27 27 18 18 29 32 23 25 14 4 0 5 10 23 13 13 13 0 10 9 13 12 15 14 15 15 14 14 12 11 12 11 10 11 13 15 12 11 13 15 18 22 22 26 27 22 16 18 24 25 28 29 31 32 27 31 31 26 22 24 26 20 13 17 24 27 29 31 32 30 33 34 34 31 33 36 35 37 39 42 45 45 44 43 44 35 34 37 31 20 21 27 30 31 22 23 30 32 21 23 19 9 0 3 5 5 6 5 15 0 9 9 14 15 16 14 17 15 14 14 13 12 13 15 13 15 16 18 17 14 16 20 22 25 20 23 26 21 21 22 25 28 27 30 34 33 34 39 34 34 29 26 29 21 19 24 29 29 29 30 34 31 34 36 36 35 35 39 38 41 42 43 45 46 43 46 42 35 37 32 21 15 21 30 31 31 23 25 30 32 22 19 20 14 4 4 13 5 4 0 0 0 0 11 15 14 17 18 17 15 14 13 13 13 15 17 16 16 18 20 20 18 21 24 26 28 23 19 21 16 18 23 24 29 31 35 38 37 36 38 38 36 32 29 29 29 32 36 37 38 35 35 35 32 34 37 39 38 39 41 41 44 45 43 46 46 46 48 42 38 36 31 19 18 26 32 31 30 25 26 32 35 21 10 17 15 7 3 18 13 7 1 0 0 0 10 16 16 18 18 18 17 14 16 16 17 17 21 18 20 21 23 23 24 25 26 26 29 28 23 24 22 22 26 27 34 34 39 41 37 36 38 37 37 36 37 37 37 38 40 40 40 39 41 41 37 34 38 38 39 41 42 45 46 46 45 48 48 47 49 40 41 35 30 23 21 30 36 30 29 25 27 32 38 17 9 11 15 9 5 16 20 10 6 0 0 0 9 15 16 17 18 18 17 16 18 18 19 19 22 20 22 22 25 28 28 27 28 27 31 28 25 26 27 30 32 33 33 36 39 42 38 36 37 37 37 41 41 43 43 43 44 45 42 43 41 43 41 39 41 37 39 42 44 47 48 48 49 50 50 49 48 41 43 36 32 23 26 32 38 30 29 25 28 33 34 7 14 11 13 7 10 12 22 16 10 4 0 0 5 14 17 17 18 18 19 17 21 21 22 22 23 22 23 25 28 31 31 30 31 31 33 30 30 30 33 36 38 39 37 36 38 40 36 35 37 40 39 40 43 47 46 47 48 49 47 46 44 44 43 42 44 44 44 45 48 46 48 49 50 50 51 51 46 43 44 38 32 26 28 36 36 31 30 25 27 28 25 0 14 18 14 8 6 10 22 17 12 8 5 0 2 12 17 16 18 18 20 21 21 23 23 24 24 23 24 26 27 30 30 32 33 33 33 32 33 34 35 38 41 40 38 35 36 38 37 35 38 40 40 40 41 45 45 47 48 50 49 50 49 48 47 47 47 47 49 49 51 48 49 51 51 53 52 53 45 47 43 40 33 28 33 41 36 31 27 21 19 20 17 0 7 18 15 10 7 5 20 20 15 11 8 1 0 9 17 16 19 19 22 24 22 24 25 25 26 24 25 25 26 28 28 32 31 29 30 33 30 30 30 33 36 37 34 35 36 37 39 39 40 40 40 42 43 43 44 43 46 49 48 47 50 49 49 50 51 50 51 51 52 50 50 52 53 55 54 53 45 49 42 43 33 31 34 38 30 25 20 14 16 15 5 0 0 9 15 12 9 0 18 24 19 13 11 4 1 6 16 18 18 22 24 24 26 24 26 26 26 25 25 26 24 26 24 28 26 26 27 28 27 28 30 31 33 33 34 34 36 38 38 39 41 39 36 37 37 36 37 38 42 43 43 46 47 47 46 50 51 51 52 51 52 52 51 53 55 57 56 51 48 49 44 45 37 30 31 31 21 18 11 6 8 7 1 0 0 0 3 6 8 1 7 23 21 14 11 8 3 2 15 20 21 25 26 26 26 26 28 26 27 25 26 24 23 21 22 22 21 23 23 24 26 27 29 31 30 28 30 29 32 34 37 39 43 43 39 38 35 32 28 32 32 35 37 41 43 45 45 48 50 51 50 51 50 51 50 52 54 57 58 49 52 49 46 45 38 31 34 22 12 10 3 3 3 4 0 0 0 0 0 0 0 0 0 13 16 13 7 6 0 3 11 23 24 26 27 26 27 26 23 23 23 23 25 23 20 18 18 21 22 21 26 24 24 24 23 25 24 26 26 22 22 23 27 33 36 35 33 31 28 28 28 28 25 27 29 32 37 39 39 41 44 46 46 45 48 48 49 50 51 53 55 48 54 48 49 45 37 31 36 17 11 8 2 1 4 4 0 0 0 0 0 0 0 0 0 0 4 0 2 3 0 4 8 24 27 28 31 29 28 23 19 19 21 19 21 24 20 19 23 26 29 26 26 24 23 22 19 20 21 20 22 20 18 19 20 23 22 22 20 19 20 25 26 29 31 33 33 32 35 34 36 36 41 41 43 43 45 47 49 49 49 52 48 49 52 48 48 44 36 36 34 16 12 5 1 3 3 3 0 0 0 0 0 0 0 0 0 0 0 0 0 5 0 0 8 22 27 30 29 29 27 23 22 22 22 19 19 24 23 24 26 29 31 28 26 23 23 23 22 21 24 24 25 22 21 20 20 22 19 21 22 25 25 30 32 35 40 41 42 38 39 39 38 39 41 43 44 44 45 46 47 49 50 52 43 48 48 48 47 45 36 36 30 16 14 4 3 4 2 4 0 0 0 0 0 0 0 0 0 0 0 0 0 5 0 0 9 22 27 27 30 27 26 23 22 24 23 23 24 27 27 29 29 31 32 33 32 30 30 27 25 23 25 25 25 23 23 22 23 21 22 24 27 27 29 34 37 37 43 42 42 40 41 41 40 40 39 43 44 46 45 47 48 49 52 50 43 51 49 49 45 45 35 38 25 15 12 5 4 4 2 4 0 0 0 0 0 0 0 0 0 0 0 0 0 2 1 0 4 23 25 27 27 25 25 25 24 27 26 26 28 30 28 28 27 29 29 30 31 31 28 25 21 19 19 22 23 23 27 27 28 29 30 30 33 32 32 35 36 38 41 42 42 40 44 45 45 45 43 46 45 47 46 45 46 48 51 50 46 55 53 48 45 45 36 37 23 14 10 6 3 5 4 2 0 0 0 0 0 0 0 0 0 0 0 0 0 0 3 0 0 24 22 26 27 26 27 26 25 26 26 28 28 29 26 24 20 18 21 23 25 24 22 19 15 14 17 20 23 26 29 30 33 34 33 34 32 32 30 31 31 32 34 34 37 40 43 46 48 49 48 49 49 51 49 48 49 49 53 50 50 57 56 44 44 45 37 34 18 14 6 5 5 4 4 1 0 0 0 0 0 0 0 0 0 0 0 0 0 0 3 0 0 17 24 26 29 29 29 28 27 26 24 27 28 26 24 20 20 19 21 22 21 22 21 19 17 17 19 22 23 25 27 30 31 32 31 32 32 31 30 28 30 30 34 36 39 42 44 46 50 48 50 52 51 52 53 52 52 51 56 53 51 61 55 42 44 47 39 27 16 12 6 4 6 4 3 0 0 0 0 0 0 0 0 0 0 0 0 0 0 0 0 2 0 11 24 26 28 29 31 30 31 28 26 27 27 26 25 23 23 23 25 24 22 21 22 21 21 22 23 26 27 30 30 30 33 34 34 32 33 30 33 30 33 34 38 40 41 44 46 46 48 49 52 53 53 52 54 54 54 55 59 54 54 63 52 41 44 48 37 22 15 9 6 6 5 3 5 0 0 0 0 0 0 0 0 0 0 0 0 0 0 0 0 0 0 9 18 25 24 27 29 33 30 30 31 30 27 29 27 28 26 27 27 29 27 27 25 25 24 26 27 30 32 35 38 36 38 36 36 36 33 33 34 33 35 38 41 44 48 49 49 50 50 50 54 54 55 54 55 55 55 57 62 55 55 65 54 41 45 50 30 19 15 10 5 5 7 6 4 0 0 0 0 0 0 0 0 0 0 0 0 0 0 0 0 0 0 9 11 23 23 24 27 30 30 31 32 32 29 29 30 31 29 28 29 31 32 34 32 31 30 27 30 30 30 34 39 38 37 36 36 37 37 36 40 38 39 41 44 48 49 51 53 52 52 53 56 56 56 55 55 55 58 61 63 57 58 64 54 41 44 49 23 16 13 7 6 5 7 7 4 2 0 0 0 0 0 0 0 0 0 0 0 0 0 0 0 0 0 6 11 20 23 24 23 26 31 31 32 33 31 30 33 33 31 30 30 30 32 34 34 35 34 32 32 32 31 34 35 38 38 37 37 38 40 41 43 44 44 44 48 50 51 53 53 54 55 55 56 58 55 54 56 57 60 61 64 57 59 65 54 41 45 41 18 14 7 5 7 6 6 6 4 0 0 0 0 0 0 0 0 0 0 0 0 0 0 0 0 0 0 4 7 20 21 26 22 23 28 33 31 33 31 31 31 34 31 31 31 31 32 33 32 34 35 33 33 33 33 35 36 37 40 40 39 40 42 43 43 44 45 46 50 50 52 54 56 55 56 57 58 58 57 55 57 59 60 61 66 54 58 65 55 41 43 33 18 11 4 6 6 7 4 6 5 0 0 0 0 0 0 0 0 0 0 0 0 0 0 0 0 0 0 2 6 20 22 23 21 21 25 30 31 33 31 31 31 32 31 30 30 31 30 32 32 30 31 31 32 35 35 35 37 37 40 39 41 39 41 42 43 44 47 48 49 51 52 53 54 54 57 56 56 57 57 56 58 60 60 60 68 52 56 65 55 40 39 28 15 7 4 5 5 4 5 4 5 0 0 0 0 0 0 0 0 0 0 0 0 0 0 0 0 0 0 0 4 18 24 21 23 21 20 27 29 30 31 31 30 28 30 28 28 28 29 29 31 29 29 30 29 33 33 34 34 35 39 37 39 41 40 42 43 45 45 48 47 49 50 52 52 52 56 56 55 56 58 57 59 59 59 60 67 53 55 65 54 39 35 26 12 2 5 4 3 4 5 4 4 0 0 0 0 0 0 0 0 0 0 0 0 0 0 0 0 0 0 0 0 17 25 23 20 20 21 24 25 28 29 30 27 28 28 26 24 24 23 26 26 27 27 27 29 30 31 31 31 33 35 36 38 40 41 41 42 43 45 45 45 47 48 51 52 54 56 55 55 54 56 57 59 57 58 61 65 52 57 64 54 33 34 24 8 4 6 4 3 4 5 4 4 0 0 0 0 0 0 0 0 0 0 0 0 0 0 0 0 0 0 0 0 13 26 25 21 18 19 21 22 25 26 27 26 24 26 25 21 20 19 20 21 21 24 24 26 27 26 29 28 31 32 33 36 37 40 38 42 40 41 42 43 45 49 51 53 54 55 53 54 54 55 57 57 55 56 61 63 51 57 64 51 29 31 20 9 3 6 5 4 3 4 5 4 0 0 0 0 0 0 0 0 0 0 0 0 0 0 0 0 0 0 0 0 5 25 25 22 19 19 18 19 20 24 24 25 24 22 22 20 18 18 17 17 19 20 22 24 25 26 27 25 27 28 29 31 34 36 37 38 39 40 40 42 46 50 51 53 52 54 54 53 53 56 55 54 53 54 62 62 50 59 63 48 29 28 18 10 4 5 6 3 3 3 3 5 0 0 0 0 0 0 0 0 0 0 0 0 0 0 0 0 0 0 0 0 0 24 24 21 22 19 16 16 18 18 20 21 24 21 19 18 17 17 17 16 18 19 19 22 23 25 23 25 23 26 27 28 31 33 35 38 39 43 44 44 48 50 52 52 55 55 54 54 55 54 53 53 52 55 60 59 51 60 62 48 27 24 17 10 5 6 7 5 3 4 2 4 0 0 0 0 0 0 0 0 0 0 0 0 0 0 0 0 0 0 0 0 0 22 22 21 23 22 18 16 15 16 16 19 23 20 19 18 17 18 16 18 16 18 19 21 21 22 21 21 22 22 26 27 30 32 35 38 41 44 46 45 49 52 56 55 57 55 54 54 56 51 52 52 52 56 61 57 53 62 64 44 23 24 15 11 3 6 6 5 4 4 2 3 0 0 0 0 0 0 0 0 0 0 0 0 0 0 0 0 0 0 0 0 0 11 23 21 21 24 22 19 17 15 18 18 22 20 21 21 18 18 18 19 20 17 19 20 21 19 20 21 23 23 23 28 30 32 36 39 41 44 46 51 52 55 57 58 57 54 52 53 53 49 50 52 55 59 63 54 56 63 65 39 20 25 16 11 1 3 4 3 4 1 3 2 0 0 0 0 0 0 0 0 0 0 0 0 0 0 0 0 0 0 0 0 0 3 16 24 22 22 23 24 20 18 20 20 22 22 24 23 21 21 22 22 23 20 21 20 21 22 23 24 25 26 28 31 34 34 38 40 43 48 49 52 55 57 56 57 54 51 49 50 52 51 50 55 57 60 59 52 58 64 63 34 19 25 15 12 0 0 1 1 1 0 0 2 0 0 0 0 0 0 0 0 0 0 0 0 0 0 0 0 0 0 0 0 0 3 11 16 22 22 23 25 25 22 23 21 22 22 24 27 27 26 27 25 26 27 26 24 25 26 27 29 29 31 34 37 40 40 43 47 48 53 55 55 58 58 57 54 52 50 50 51 52 54 54 56 58 58 55 54 58 63 61 32 15 24 13 12 0 0 0 0 0 0 0 0 0 0 0 0 0 0 0 0 0 0 0 0 0 0 0 0 0 0 0 0 0 0 10 12 14 25 22 25 27 26 27 25 24 26 27 31 32 31 30 33 31 31 32 29 30 30 33 34 37 40 41 43 46 46 48 53 54 56 57 58 59 56 54 51 51 51 51 54 54 55 56 59 58 54 53 55 56 63 58 35 15 20 13 9 0 0 0 0 0 0 0 0 0 0 0 0 0 0 0 0 0 0 0 0 0 0 0 0 0 0 0 0 0 0 7 12 11 25 24 25 27 29 31 31 29 30 30 32 34 36 33 37 37 36 38 35 36 37 39 40 42 45 47 49 51 52 53 56 58 55 56 57 56 56 50 51 52 52 53 55 54 57 58 58 55 51 53 54 59 64 57 36 13 17 12 7 0 0 0 0 0 0 0 0 0 0 0 0 0 0 0 0 0 0 0 0 0 0 0 0 0 0 0 0 0 0 8 9 11 25 26 27 28 28 32 34 34 32 32 33 36 38 39 37 39 42 41 41 42 41 44 44 48 50 51 53 54 54 55 56 54 55 55 56 56 52 50 51 53 54 54 56 55 57 58 55 48 49 54 55 60 65 60 36 10 17 7 7 0 0 0 0 0 0 0 0 0 0 0 0 0 0 0 0 0 0 0 0 0 0 0 0 0 0 0 0 0 0 9 5 9 25 28 29 30 29 33 35 34 36 34 34 38 37 38 39 40 42 43 44 44 47 47 50 51 55 55 55 55 55 55 54 54 54 54 54 51 49 51 53 54 56 54 55 56 57 56 49 47 49 54 57 61 63 61 33 7 13 4 5 0 0 0 0 0 0 0 0 0 0 0 0 0 0 0 0 0 0 0 0 0 0 0 0 0 0 0 0 0 0 6 6 9 25 27 29 31 32 33 36 35 37 37 38 38 39 39 39 41 44 46 47 45 50 50 54 55 56 56 55 54 55 55 56 55 54 52 50 52 53 55 55 55 55 53 54 54 56 50 46 48 51 55 58 62 62 59 28 6 10 2 2 0 0 0 0 0 0 0 0 0 0 0 0 0 0 0 0 0 0 0 0 0 0 0 0 0 0 0 0 0 0 3 8 8 23 27 30 32 33 35 38 38 38 38 38 42 43 43 42 41 41 46 47 48 52 52 53 54 55 56 56 55 58 57 56 56 52 55 54 56 55 56 54 55 52 51 53 50 50 51 47 50 55 56 58 59 62 55 23 1 8 0 0 0 0 0 0 0 0 0 0 0 0 0 0 0 0 0 0 0 0 0 0 0 0 0 0 0 0 0 0 0 0 0 5 9 21 26 30 32 33 34 38 40 43 43 42 43 46 44 44 44 44 44 44 46 49 50 53 55 57 58 59 57 56 58 56 55 56 57 55 57 55 54 51 52 49 50 51 52 50 50 50 51 56 55 57 56 62 47 15 0 6 0 0 0 0 0 0 0 0 0 0 0 0 0 