P2
92
112
255
0 0 0 0 0 0 0 0 0 0 0 0 0 0 0 0 0 0 0 0 0 0 0 0 0 0 0 0 0 0 0 0 0 0 0 0 0 0 0 0 0 0 0 0 0 0 0 0 0 0 0 0 0 0 0 0 0 0 0 0 0 0 0 0 0 0 0 0 0 0 0 0 0 0 0 0 0 0 0 0 0 0 0 0 0 0 0 0 0 0 0 0 0 0 0 0 0 0 0 0 0 0 0 0 0 0 0 0 0 0 0 0 0 0 0 0 0 0 0 0 0 0 0 0 0 0 0 0 0 0 0 3 5 3 7 8 5 2 1 0 0 0 0 0 0 0 0 0 0 0 0 0 0 0 0 0 0 0 0 0 0 0 0 0 0 0 0 0 0 0 0 0 0 0 0 0 0 0 0 0 0 0 0 0 0 0 0 0 0 0 0 0 0 0 0 0 0 0 0 0 0 0 0 0 0 0 0 0 0 0 0 0 0 0 0 0 0 0 4 11 12 12 18 19 17 18 21 21 18 16 14 12 8 8 3 2 1 0 0 0 0 0 0 0 0 0 0 0 0 0 0 0 0 0 0 0 0 0 0 0 0 0 0 0 0 0 0 0 0 0 0 0 0 0 0 0 0 0 0 0 0 0 0 0 0 0 0 0 0 0 0 0 0 0 0 0 0 0 0 0 0 0 0 0 0 0 0 0 3 16 21 23 28 30 31 32 30 31 32 28 28 23 22 23 18 12 11 10 7 7 5 5 6 5 3 3 1 0 0 0 0 0 0 0 0 0 0 0 0 0 0 0 0 0 0 0 0 0 0 0 0 0 0 0 0 0 0 0 0 0 0 0 0 0 0 0 0 0 0 0 0 0 0 0 0 0 0 0 0 0 0 0 0 0 0 0 0 0 4 15 20 26 29 28 31 34 35 37 36 35 35 34 31 30 29 30 29 24 19 17 15 14 14 13 13 13 11 11 9 8 5 4 2 0 0 0 0 0 0 0 0 0 0 0 0 0 0 0 0 0 0 0 0 0 0 0 0 0 0 0 0 0 0 0 0 0 0 0 0 0 0 0 0 0 0 0 0 0 0 0 0 0 0 0 0 0 0 0 7 17 25 30 33 37 37 39 39 41 40 44 45 43 42 41 38 35 35 36 34 32 27 23 18 17 17 17 17 16 15 16 15 15 10 10 9 7 3 0 0 0 0 0 0 0 0 0 0 0 0 0 0 0 0 0 0 0 0 0 0 0 0 0 0 0 0 0 0 0 0 0 0 0 0 0 0 0 0 0 0 0 0 0 0 0 0 0 0 0 6 14 19 28 31 35 34 35 37 33 39 40 43 47 49 50 48 49 46 44 42 39 35 33 29 28 25 24 21 18 18 14 13 16 13 14 12 13 10 11 9 4 0 0 0 0 0 0 0 0 0 0 0 0 0 0 0 0 0 0 0 0 0 0 0 0 0 0 0 0 0 0 0 0 0 0 0 0 0 0 0 0 0 0 0 0 0 0 0 0 0 7 18 27 33 35 37 38 38 40 43 41 42 42 42 45 50 51 48 50 47 46 44 42 39 35 31 29 25 24 22 23 18 16 13 13 11 10 7 9 11 9 8 4 4 0 0 0 0 0 0 0 0 0 0 0 0 0 0 0 0 0 0 0 0 0 0 0 0 0 0 0 0 0 0 0 0 0 0 0 0 0 0 0 0 0 0 0 0 0 0 3 12 20 27 33 37 37 37 39 41 44 49 47 49 48 47 43 43 43 42 42 38 37 35 32 34 29 29 27 27 23 21 22 16 13 11 12 8 2 3 3 0 3 3 0 0 0 0 0 0 0 0 0 0 0 0 0 0 0 0 0 0 0 0 0 0 0 0 0 0 0 0 0 0 0 0 0 0 0 0 0 0 0 0 0 0 0 0 0 0 4 9 20 26 30 33 37 40 39 38 40 40 41 42 45 47 46 46 45 44 39 36 38 35 35 37 31 29 29 27 28 26 23 20 18 18 12 8 8 2 0 0 0 0 0 0 0 0 0 0 0 0 0 0 0 0 0 0 0 0 0 0 0 0 0 0 0 0 0 0 0 0 0 0 0 0 0 0 0 0 0 0 0 0 0 0 0 0 0 0 0 3 13 22 31 36 35 36 42 42 40 45 43 43 41 40 38 34 29 32 32 32 32 29 32 34 34 30 29 29 28 29 28 25 23 22 18 19 13 4 2 1 0 0 0 0 0 0 0 0 0 0 0 0 0 0 0 0 0 0 0 0 0 0 0 0 0 0 0 0 0 0 0 0 0 0 0 0 0 0 0 0 0 0 0 0 0 0 0 0 0 0 7 17 26 32 33 38 41 45 46 48 49 49 47 43 42 37 34 33 29 30 30 27 27 26 28 28 28 27 27 27 26 24 22 24 21 17 20 15 13 4 6 2 0 0 0 0 0 0 0 0 0 0 0 0 0 0 0 0 0 0 0 0 0 0 0 0 0 0 0 0 0 0 0 0 0 0 0 0 0 0 0 0 0 0 0 0 0 0 0 0 0 8 20 28 34 35 39 41 45 47 45 45 43 38 34 37 37 35 34 37 33 32 32 28 27 25 24 22 24 21 20 19 20 20 20 24 19 16 22 18 9 10 7 4 0 0 0 0 0 0 0 0 0 0 0 0 0 0 0 0 0 0 0 0 0 0 0 0 0 0 0 0 0 0 0 0 0 0 0 0 0 0 0 0 0 0 0 0 0 0 0 0 10 22 29 39 37 39 40 45 46 46 44 41 38 37 39 37 34 34 36 35 33 31 32 25 21 19 22 23 18 21 18 16 17 17 18 21 21 20 22 19 10 12 15 2 1 1 0 0 0 0 0 0 0 0 0 0 0 0 0 0 0 0 0 0 0 0 0 0 0 0 0 0 0 0 0 0 0 0 0 0 0 0 0 0 0 0 0 0 0 0 0 8 19 30 35 38 38 41 44 45 44 44 42 38 38 42 39 35 37 35 33 29 27 25 25 19 18 18 20 15 12 17 15 16 20 17 17 23 23 21 24 18 12 18 16 6 8 6 0 0 0 0 0 0 0 0 0 0 0 0 0 0 0 0 0 0 0 0 0 0 0 0 0 0 0 0 0 0 0 0 0 0 0 0 0 0 0 0 0 0 0 0 7 18 26 34 38 41 43 40 42 43 46 41 40 42 43 44 43 39 41 34 28 24 21 20 20 16 17 18 13 9 12 14 16 16 17 15 19 26 18 23 23 15 18 21 15 10 14 8 2 0 0 0 0 0 0 0 0 0 0 0 0 0 0 0 0 0 0 0 0 0 0 0 0 0 0 0 0 0 0 0 0 0 0 0 0 0 0 0 0 0 0 6 20 28 33 38 41 42 38 37 40 44 43 43 47 44 45 41 39 34 30 28 24 21 22 21 17 16 18 14 11 10 16 15 11 15 14 17 24 20 17 22 19 19 19 19 13 14 17 12 8 6 0 0 0 0 0 0 0 0 0 0 0 0 0 0 0 0 0 0 0 0 0 0 0 0 0 0 0 0 0 0 0 0 0 0 0 0 0 0 0 0 7 23 30 32 36 40 38 38 36 40 44 41 43 44 43 40 37 35 33 29 26 21 21 23 23 21 17 15 13 12 12 11 17 13 14 15 17 22 23 15 20 19 18 18 17 17 14 17 18 14 14 10 4 0 0 0 0 0 0 0 0 0 0 0 0 0 0 0 0 0 0 0 0 0 0 0 0 0 0 0 0 0 0 0 0 0 0 0 0 0 0 7 21 33 36 37 39 40 38 35 40 44 43 45 46 41 40 34 35 30 26 25 23 24 25 25 21 19 17 13 12 14 14 15 14 15 17 13 18 21 16 17 19 16 18 19 16 14 16 19 18 17 15 11 5 4 0 0 0 0 0 0 0 0 0 0 0 0 2 0 0 0 0 0 0 0 0 0 0 0 0 0 0 0 0 0 0 0 0 0 0 0 8 20 34 43 44 42 38 37 36 36 38 40 43 44 38 30 24 24 24 23 25 26 28 26 26 24 17 18 15 13 14 14 15 12 15 14 13 14 19 16 11 19 18 13 20 18 11 17 18 19 16 17 16 10 12 10 2 0 0 0 0 0 0 0 0 1 3 5 6 2 0 0 0 0 0 0 0 0 0 0 0 0 0 0 0 0 0 0 0 0 0 3 15 29 42 45 42 39 37 33 33 34 35 40 38 33 26 21 22 21 23 24 26 28 26 24 22 16 14 16 15 16 13 14 12 10 11 11 12 14 17 12 12 20 13 15 20 16 13 17 19 14 17 20 15 13 14 13 8 1 0 0 0 0 0 0 0 3 9 8 10 9 5 0 0 0 0 0 0 0 0 0 0 0 0 0 0 0 0 0 0 0 0 12 26 38 45 44 39 35 34 30 30 27 26 31 26 23 20 17 18 20 23 25 24 24 22 21 18 15 14 15 15 14 14 11 10 9 11 12 13 17 17 12 17 16 12 17 18 12 13 19 15 13 19 17 17 14 14 15 11 7 2 0 0 0 0 0 0 6 8 15 15 14 13 5 0 0 0 0 0 0 0 0 0 0 0 0 0 0 0 0 0 0 9 23 39 42 44 40 36 32 30 24 22 20 22 23 21 21 19 19 18 19 18 18 15 16 17 15 18 17 18 16 15 13 11 9 9 10 11 10 14 16 12 13 17 12 12 17 13 11 17 15 9 16 19 16 15 15 19 15 13 11 7 0 0 0 0 0 5 7 12 17 23 20 21 12 4 0 0 0 0 0 0 0 0 0 0 0 0 0 0 0 0 8 20 38 44 43 38 33 30 26 23 17 12 13 20 20 21 22 19 17 13 14 14 10 11 15 13 17 16 17 16 14 6 8 7 7 2 7 8 9 11 11 7 12 13 9 13 12 7 11 14 9 10 15 16 15 14 17 18 16 14 12 8 3 0 0 0 0 2 9 17 17 23 23 27 16 12 1 0 0 0 0 0 0 0 0 0 0 0 0 0 0 0 17 34 44 40 37 37 31 27 22 18 12 9 13 14 17 18 15 16 13 11 10 10 10 16 16 18 16 13 12 9 6 3 5 1 4 3 5 7 6 7 3 7 10 5 4 9 7 5 12 7 6 10 14 13 14 16 17 17 16 13 13 10 7 2 0 0 0 0 13 17 23 24 26 27 27 14 13 0 0 0 0 0 0 0 0 0 0 0 0 0 0 9 30 43 38 35 33 31 25 23 15 8 1 4 10 12 15 15 9 9 7 7 8 8 12 13 12 14 9 8 7 0 0 1 0 1 0 0 1 0 3 3 0 5 1 0 1 5 2 3 4 3 8 11 11 10 13 16 15 18 16 14 11 14 9 8 2 0 0 0 10 16 26 25 31 27 30 26 18 12 0 0 0 0 0 0 0 0 0 0 0 0 2 21 42 42 35 32 29 26 21 15 10 0 0 2 9 15 12 8 6 8 9 6 7 7 7 3 3 5 1 0 0 0 0 0 0 0 0 0 0 0 0 0 0 0 0 0 1 0 0 2 1 4 7 8 8 11 14 14 13 16 15 14 14 13 11 10 7 3 2 0 1 17 24 29 32 31 32 32 30 20 3 0 0 0 0 0 0 0 0 0 0 0 16 40 43 40 34 30 28 20 15 11 5 0 0 2 5 9 5 6 8 6 3 0 0 0 0 0 0 0 0 0 0 0 0 0 0 0 0 0 0 0 0 0 0 0 0 0 0 0 0 1 2 4 3 5 7 10 10 10 12 12 14 14 13 14 13 12 10 9 7 6 0 15 22 33 32 37 32 39 39 28 16 0 0 0 0 0 0 0 0 0 0 9 32 49 42 37 32 25 21 12 11 8 0 0 0 5 4 5 3 5 2 0 0 0 0 0 0 0 0 0 0 0 0 0 0 0 0 0 0 0 0 0 0 0 0 0 0 0 0 0 0 1 2 3 3 6 6 6 6 7 9 9 11 12 13 14 14 13 12 12 9 13 5 9 22 31 38 38 37 38 45 35 30 3 0 0 0 0 0 0 0 0 2 23 48 51 42 36 29 20 14 9 10 4 0 0 1 6 7 2 3 2 0 0 0 0 0 0 0 0 0 0 0 0 0 0 0 0 0 0 0 0 0 0 0 0 0 0 0 0 0 0 0 2 2 2 3 4 3 4 5 5 6 7 8 10 12 13 16 14 15 13 12 15 14 8 22 31 38 42 41 38 45 47 40 12 0 0 0 0 0 0 0 0 20 41 53 50 43 34 23 17 12 6 13 4 1 2 6 5 6 3 2 0 0 0 0 0 0 0 0 0 0 0 0 0 0 0 0 0 0 0 0 0 0 0 0 0 0 0 0 0 0 0 0 1 2 3 2 1 1 2 4 4 4 5 7 8 11 13 15 16 17 16 14 15 19 12 20 30 40 44 46 43 46 51 50 29 0 0 0 0 0 0 0 10 34 50 56 50 42 32 22 14 8 6 13 4 0 5 5 9 6 7 1 3 2 1 0 0 0 0 0 0 0 0 0 0 0 0 0 0 0 0 0 0 0 0 0 0 0 1 0 0 1 0 0 1 0 1 0 0 1 1 2 3 3 5 6 7 9 12 14 16 18 18 15 18 20 19 18 30 41 47 48 48 50 48 55 46 12 0 0 0 0 0 1 20 42 54 59 49 44 34 24 19 9 13 11 3 1 5 7 11 8 5 5 6 7 6 3 0 0 0 0 0 3 2 2 1 1 1 1 3 2 3 3 2 3 0 0 1 1 1 1 2 1 1 0 2 2 2 1 2 3 2 3 3 4 6 6 8 8 8 13 16 18 18 20 19 24 20 22 32 40 47 56 56 52 51 54 58 24 0 0 0 0 0 12 29 53 57 60 51 47 40 29 20 10 17 10 5 6 7 11 11 11 7 8 6 6 3 1 3 8 9 11 10 11 11 11 11 12 11 9 9 6 7 7 6 5 5 2 3 3 3 4 5 5 3 3 4 4 4 5 5 4 5 5 5 6 6 7 10 9 10 11 14 18 19 21 23 26 25 23 33 39 47 58 62 54 57 56 61 40 1 0 0 0 0 16 42 56 59 62 54 48 42 29 16 13 18 13 9 9 11 14 15 15 10 9 5 4 9 12 16 18 17 16 16 18 17 16 15 16 13 12 13 10 9 10 9 7 7 7 5 5 6 5 7 7 4 5 6 5 5 5 6 7 6 7 6 6 8 8 9 9 11 11 14 18 20 18 26 30 31 25 31 42 49 55 63 65 61 58 57 53 9 0 0 0 4 26 46 57 63 58 57 46 40 26 20 15 19 19 14 11 14 17 18 18 12 11 10 15 19 21 22 21 19 20 20 21 21 20 16 15 15 13 14 13 14 12 11 9 10 7 9 9 7 9 9 6 7 6 6 5 6 6 7 8 8 9 6 8 10 9 9 10 10 11 13 17 20 18 26 30 36 30 33 42 51 56 64 67 66 59 56 56 22 0 0 0 12 35 53 63 66 62 52 44 42 30 23 17 28 23 18 12 16 19 21 19 15 17 19 21 22 22 22 22 18 19 18 19 17 16 15 12 13 12 11 11 12 11 9 8 11 9 9 11 12 11 11 5 7 4 5 5 6 7 7 7 9 7 7 8 10 10 9 9 10 10 12 15 18 20 24 30 36 35 37 41 55 57 62 67 69 66 56 50 38 0 0 0 16 42 60 68 68 64 51 50 49 37 30 20 35 28 19 13 16 20 22 18 19 19 19 20 20 20 20 19 15 13 14 13 10 10 10 10 8 9 5 6 6 6 5 7 8 6 9 9 11 12 10 4 5 3 1 4 3 2 4 5 5 3 6 7 7 10 10 8 8 9 10 14 16 19 22 30 37 37 43 44 54 60 61 62 71 70 57 51 44 5 0 0 23 52 61 73 69 63 53 57 53 43 31 26 35 31 19 14 16 19 21 18 18 20 19 15 18 18 15 12 8 7 6 4 2 1 4 2 1 3 0 0 0 0 0 4 4 0 2 2 4 5 6 0 0 0 0 0 0 0 0 1 0 1 3 2 5 6 6 5 3 7 8 12 15 16 19 29 36 40 45 46 55 63 64 59 64 69 59 52 43 14 0 2 30 52 69 75 67 64 57 60 56 46 30 30 36 32 16 16 17 20 19 17 18 16 16 11 17 17 12 8 10 10 10 8 8 6 1 0 0 0 0 0 0 0 0 0 0 0 0 0 0 0 0 0 0 0 0 0 0 0 0 0 0 0 0 0 0 2 7 7 6 6 6 7 10 14 15 26 34 42 46 51 57 62 65 60 55 68 62 54 39 17 0 6 33 59 76 68 66 67 60 59 57 48 33 33 37 32 16 18 18 19 17 16 15 14 14 11 15 23 21 16 16 6 3 0 0 0 0 0 0 0 0 0 0 0 0 0 0 0 0 0 0 0 0 0 0 0 0 0 0 0 0 0 0 0 0 0 0 0 0 1 4 6 4 9 10 6 11 21 32 43 47 54 60 64 69 61 55 60 63 52 40 21 0 13 36 64 77 66 67 67 60 54 59 50 42 34 39 31 17 18 16 18 15 17 16 10 11 12 9 12 10 1 0 0 0 0 0 0 0 0 0 0 0 0 0 0 0 0 0 0 0 0 0 0 0 0 0 0 0 0 0 0 0 0 0 0 0 0 0 0 0 0 0 1 1 9 11 8 4 16 30 42 50 57 60 66 70 67 54 52 59 53 41 19 0 13 49 68 75 64 70 65 59 54 65 55 47 40 36 32 17 14 16 17 16 17 11 6 11 9 5 8 8 3 0 0 0 0 0 0 0 0 0 0 0 0 0 0 0 0 0 0 0 0 0 0 0 0 0 0 0 0 0 0 0 0 0 0 0 0 0 0 0 0 0 0 0 5 8 10 5 8 26 39 52 58 64 69 72 66 58 47 52 51 44 16 0 21 59 68 74 63 73 63 62 56 66 62 45 46 33 25 12 14 16 15 18 15 4 5 11 8 8 6 3 0 0 0 0 0 0 0 0 0 0 0 0 0 0 0 0 0 0 0 0 0 0 0 0 0 0 0 0 0 0 0 0 0 0 0 0 0 0 0 0 0 0 0 0 2 5 7 10 3 19 35 50 61 66 69 72 67 59 45 49 45 44 18 0 26 59 68 74 66 71 64 63 57 67 63 50 42 28 15 12 18 14 18 15 10 2 7 12 9 2 0 0 4 0 3 8 3 0 0 0 0 0 0 0 0 0 0 0 0 0 0 0 0 0 0 0 0 0 0 0 0 0 0 0 0 0 0 0 0 0 0 0 0 0 0 0 0 6 2 9 0 8 26 50 64 67 70 72 67 59 51 45 41 45 16 0 19 58 65 73 66 67 67 61 59 63 64 56 36 14 10 7 15 9 24 0 4 0 0 13 9 0 15 26 30 19 26 35 22 2 0 0 0 0 0 0 0 0 0 0 0 0 0 0 0 0 0 0 0 0 0 0 0 0 0 0 0 0 0 0 0 0 1 5 2 0 0 0 0 3 4 1 0 0 16 45 65 68 73 70 64 59 54 42 42 42 19 0 15 57 65 72 66 66 64 61 56 64 66 53 27 3 3 7 6 11 0 0 1 0 6 18 12 2 15 28 24 12 23 23 12 0 0 0 0 0 0 0 0 0 0 0 0 0 0 0 0 0 0 0 0 0 0 0 0 0 2 0 0 0 1 2 5 6 10 8 5 4 1 0 0 0 11 7 8 0 1 37 60 69 75 70 62 62 52 43 39 37 17 0 21 58 66 70 68 65 62 58 56 65 62 44 13 0 3 3 9 14 0 0 5 0 12 20 25 14 28 41 45 33 31 32 19 0 0 0 0 0 0 0 0 0 0 0 0 0 0 0 0 0 0 0 0 0 0 0 0 12 26 0 0 15 2 4 12 14 19 17 12 12 12 11 7 0 0 10 18 0 3 39 56 66 74 69 62 62 54 41 37 38 15 0 31 61 64 66 69 66 59 56 56 63 55 34 3 0 0 0 24 19 0 18 0 0 22 39 36 33 39 48 56 24 22 19 12 0 0 0 0 0 0 0 0 0 3 8 9 0 4 3 0 0 0 0 0 0 0 0 2 12 29 16 35 21 3 0 5 10 14 17 15 16 16 20 17 0 0 8 6 0 9 31 51 62 70 72 61 61 55 42 35 37 14 0 36 64 61 65 67 66 59 55 56 60 48 23 0 0 0 8 25 9 0 14 0 0 28 45 38 36 31 40 39 17 7 7 6 0 0 0 0 0 0 0 0 0 10 5 0 0 0 0 0 0 0 0 0 0 0 0 1 13 13 24 33 28 0 1 6 11 3 2 13 14 17 24 30 2 0 22 10 0 2 18 35 64 68 71 62 58 53 43 36 33 11 0 41 64 57 64 67 64 55 56 55 48 39 13 0 0 3 6 25 0 0 5 0 4 29 42 35 32 30 35 16 4 0 0 0 0 0 0 0 0 0 0 0 0 7 0 0 0 0 0 0 0 0 0 0 0 0 0 0 5 2 14 23 11 1 0 6 6 6 0 1 10 11 26 34 8 4 24 17 9 4 6 27 56 60 70 63 56 50 44 36 32 10 0 36 63 52 60 65 61 51 55 55 34 32 0 0 0 5 9 19 0 0 6 0 8 24 37 28 30 24 17 0 1 0 0 0 0 0 0 0 0 0 0 0 0 11 0 2 0 0 0 0 0 0 0 0 0 0 0 0 1 5 8 7 7 2 0 0 0 0 0 0 0 7 23 33 10 11 32 23 9 8 3 21 50 50 66 61 54 49 44 37 29 7 0 28 58 54 57 66 57 51 50 52 30 23 0 0 0 8 14 12 0 10 22 8 10 19 40 32 23 19 0 0 0 0 0 0 0 0 0 0 0 0 0 0 0 12 4 0 0 0 0 0 0 0 1 0 0 0 0 0 1 7 7 2 9 1 0 0 0 0 0 0 1 7 18 27 20 13 33 15 4 11 0 16 42 41 61 57 53 48 43 38 23 1 0 14 52 53 59 64 51 50 45 46 28 9 0 0 0 9 12 12 0 21 34 17 12 18 32 29 18 11 2 0 0 0 0 0 0 0 0 0 0 4 0 0 0 0 6 0 0 0 0 0 0 0 6 6 1 0 0 0 3 5 4 3 11 8 5 3 2 1 0 2 4 9 16 16 12 8 16 6 2 0 0 10 25 32 49 54 51 44 42 35 19 0 0 0 45 55 60 60 47 47 39 33 32 2 2 0 0 0 0 0 0 22 37 19 13 15 25 21 17 13 11 5 9 9 6 0 0 0 0 0 0 2 0 0 0 3 9 0 0 1 0 0 0 0 0 7 2 0 0 0 0 0 2 1 4 5 7 9 4 5 1 0 2 5 11 13 5 0 0 0 7 0 0 0 8 21 33 45 49 40 42 33 16 0 0 0 32 58 59 58 44 42 34 28 29 0 0 0 0 0 0 0 0 17 26 14 12 18 24 18 18 21 17 12 8 6 2 0 0 0 0 0 3 0 0 0 0 11 3 0 0 4 0 0 0 0 0 3 5 0 0 0 0 0 0 0 2 5 7 7 6 2 0 0 0 4 8 12 2 0 0 0 6 0 0 0 0 15 26 37 44 39 38 31 12 0 0 0 17 55 57 56 45 35 30 21 16 0 0 0 0 0 0 0 0 1 14 8 16 22 22 14 14 17 14 11 4 0 0 0 0 0 0 0 5 0 0 0 0 11 0 0 4 1 0 0 0 0 0 2 2 3 0 0 0 0 0 0 0 0 3 5 7 5 2 3 4 5 7 9 1 0 0 0 1 0 0 0 0 16 27 31 40 41 32 32 10 0 0 0 4 55 51 57 41 33 23 20 13 0 0 0 0 0 0 0 0 0 17 7 18 24 25 16 12 11 10 5 0 0 0 0 1 1 0 1 2 0 0 0 6 0 0 0 8 0 1 0 0 0 0 2 0 0 0 0 0 0 1 0 0 0 0 2 3 4 5 6 8 8 11 11 0 0 0 0 0 0 0 0 0 16 30 29 36 40 27 25 10 0 0 0 0 53 47 57 36 33 21 19 17 0 0 0 0 0 0 0 0 0 15 9 8 22 24 19 17 14 11 6 3 3 3 0 0 0 1 0 2 0 0 0 2 0 0 0 3 0 0 3 0 0 0 0 0 0 0 0 0 0 2 3 3 0 0 3 2 5 5 8 9 10 13 13 7 0 0 0 0 0 0 0 0 14 29 22 26 31 21 25 4 0 0 0 0 45 47 53 39 30 14 15 14 0 0 0 0 0 0 0 0 0 6 11 5 9 21 17 16 12 11 6 3 1 0 0 0 0 0 0 0 0 0 0 0 0 0 0 0 0 2 2 0 0 0 0 0 0 0 0 0 0 0 3 3 2 2 2 3 4 5 7 10 11 14 17 8 0 0 0 0 0 0 0 0 12 29 18 24 21 17 20 0 0 0 0 0 33 46 43 44 21 5 11 13 0 0 0 0 0 0 0 0 0 0 10 9 9 8 6 6 8 7 3 3 2 1 0 0 2 0 3 0 0 0 0 0 0 1 1 1 2 3 4 7 0 0 0 0 0 0 0 0 0 0 0 0 1 1 3 2 2 3 6 9 12 16 16 9 0 0 0 0 0 0 0 0 10 26 17 26 19 19 17 0 0 0 0 0 18 44 32 44 14 1 5 10 0 0 0 0 0 0 0 0 0 0 9 11 10 9 3 0 0 0 0 0 0 0 0 0 0 0 0 0 0 0 0 0 0 1 1 4 1 0 3 7 0 0 0 0 0 0 0 0 0 0 0 0 0 0 0 0 0 1 5 11 12 16 11 0 0 0 0 0 0 0 0 0 8 21 14 17 17 18 11 0 0 0 0 0 4 35 25 32 11 6 4 4 0 0 0 0 0 0 0 0 0 0 0 12 11 7 6 0 0 0 0 0 0 0 0 0 0 0 0 0 0 0 0 0 0 5 1 2 0 0 0 0 0 0 0 0 0 0 0 0 0 0 0 0 0 0 0 0 0 0 5 8 5 7 3 0 0 0 0 0 0 0 0 0 2 12 7 7 14 18 8 0 0 0 0 0 0 16 13 21 13 12 6 1 0 0 0 0 0 0 0 0 0 0 4 0 8 3 1 0 0 0 0 0 0 0 0 0 0 0 0 0 0 0 0 0 0 0 6 0 0 0 0 0 0 0 0 0 0 0 0 0 0 0 0 0 0 0 0 0 0 0 0 1 2 8 9 9 0 0 0 0 0 0 0 0 0 0 3 4 8 14 4 0 0 0 0 0 3 1 3 18 14 10 11 0 0 0 0 0 0 0 0 0 0 0 4 4 1 0 0 0 0 0 0 0 0 0 0 0 0 0 0 0 0 0 0 0 0 0 4 0 0 0 0 0 0 0 0 0 0 0 0 0 0 0 0 0 0 0 0 0 0 0 0 4 3 2 9 13 0 0 0 0 0 0 0 0 0 0 0 3 9 11 0 0 0 0 0 0 3 0 0 11 16 7 11 4 0 0 0 0 0 0 0 0 0 0 0 0 0 0 0 0 0 0 0 0 0 0 0 0 0 0 0 0 0 0 0 0 0 0 0 0 0 0 0 0 0 0 0 0 0 0 0 0 0 0 0 0 0 0 0 0 0 0 0 5 1 0 0 3 7 0 0 4 0 0 0 0 0 0 0 5 8 5 0 0 0 0 0 0 0 0 0 9 14 8 7 9 0 0 0 0 0 0 0 0 0 0 2 1 2 1 0 0 0 0 0 0 0 0 0 0 0 0 0 0 0 0 0 0 0 0 0 0 0 0 0 0 0 0 0 0 0 0 0 0 0 0 0 0 0 0 0 0 0 0 0 6 1 0 0 0 0 0 0 0 0 0 0 0 0 0 0 2 9 0 0 0 0 0 0 0 0 0 0 13 20 14 9 9 0 0 0 0 0 0 0 0 0 0 2 1 5 6 6 3 0 0 0 0 0 0 0 0 0 0 0 3 4 0 0 0 0 0 0 0 0 0 0 0 0 0 0 0 0 0 0 0 0 0 0 0 0 0 0 0 0 0 0 0 0 0 0 0 0 0 0 0 0 0 0 0 0 0 0 4 10 0 0 0 0 0 0 0 0 0 0 15 24 25 15 4 0 0 0 0 0 0 0 0 0 0 0 0 0 0 0 0 0 0 0 0 0 0 0 0 0 0 2 8 4 0 0 0 0 0 0 0 0 0 0 0 0 0 0 0 0 0 0 0 0 0 0 0 0 0 0 0 0 0 0 0 0 0 0 0 0 0 0 0 0 0 0 0 0 0 0 8 12 0 0 0 0 0 0 0 0 0 0 11 30 26 19 3 0 0 1 0 0 0 0 0 1 2 0 0 4 6 6 7 0 0 0 0 0 0 2 1 0 3 9 10 4 0 0 0 0 0 0 0 0 0 0 0 0 0 0 0 0 0 0 0 0 0 0 0 0 0 0 0 0 0 0 0 6 7 1 0 0 0 0 0 0 0 0 0 0 0 0 9 12 0 0 0 0 0 0 0 0 0 0 3 33 30 13 6 0 4 8 0 0 0 0 0 3 6 7 9 14 16 16 15 11 10 13 13 14 8 6 2 2 10 15 12 0 0 0 0 0 0 0 0 0 0 0 0 0 0 0 0 0 0 0 0 0 0 0 0 0 0 1 3 3 3 1 0 0 0 0 0 0 0 0 0 0 0 0 0 0 0 0 12 0 0 0 0 0 0 0 0 0 0 0 0 27 29 16 14 3 9 10 0 0 0 0 0 2 7 9 10 12 15 19 20 22 21 22 18 15 8 7 8 13 21 17 12 1 0 0 0 0 2 5 4 0 0 0 0 0 0 0 0 0 0 0 0 0 0 0 0 0 0 5 7 11 11 9 4 1 0 0 0 0 0 0 0 0 0 0 0 0 0 6 5 0 0 0 0 0 0 0 0 0 0 0 0 12 28 15 21 13 7 10 0 0 0 0 0 3 6 11 10 13 17 24 27 27 27 21 19 11 7 10 16 23 28 21 13 7 6 11 17 17 16 12 6 3 1 1 0 0 0 0 0 0 0 0 0 0 0 0 0 0 0 4 5 7 11 10 10 6 4 1 0 0 0 0 0 0 0 0 0 0 0 5 0 0 0 0 0 0 0 0 0 0 0 2 0 9 29 27 29 22 5 11 0 0 0 0 2 5 6 11 14 17 25 26 29 27 28 23 18 13 11 18 21 28 30 27 21 20 22 21 26 27 25 17 9 2 1 3 0 2 4 5 0 0 0 2 0 0 0 1 3 2 1 3 4 5 9 9 10 6 6 2 0 0 0 0 0 1 0 0 0 0 4 2 0 0 0 0 0 0 0 0 0 0 0 0 0 5 31 40 37 22 7 17 0 0 0 0 4 6 8 12 18 24 27 27 28 29 28 26 20 18 18 22 25 29 27 27 26 24 27 29 33 33 31 23 10 5 7 8 7 8 13 19 14 14 12 10 7 6 6 8 10 9 8 7 7 8 10 10 7 4 4 2 0 0 0 0 0 2 0 0 0 0 9 0 0 0 0 0 0 0 0 0 0 0 0 0 3 2 30 43 42 23 16 28 0 1 0 3 4 6 11 13 20 26 27 28 29 29 29 27 23 23 25 25 29 29 28 26 28 30 29 34 35 33 28 19 11 12 12 13 12 18 19 22 20 19 17 14 13 11 12 12 13 14 12 10 10 10 9 6 5 4 3 1 0 0 0 0 0 1 0 0 0 3 12 0 0 0 0 0 0 0 0 0 0 0 0 0 5 0 21 35 39 27 31 35 5 0 3 4 6 8 13 17 21 24 27 27 29 30 31 30 27 27 28 29 29 28 30 27 31 33 32 30 30 27 25 17 9 13 13 13 12 16 14 13 13 12 15 16 18 14 15 13 14 14 15 15 12 12 9 4 4 4 1 1 0 0 0 0 0 0 0 0 0 8 9 0 0 0 0 0 0 0 0 0 0 0 0 0 2 0 18 22 38 31 34 37 15 0 4 6 10 11 16 19 22 24 26 27 30 32 33 33 31 30 30 30 30 28 33 31 32 33 29 26 25 21 15 10 3 8 9 9 12 8 4 2 3 2 9 12 20 20 17 15 14 15 17 17 15 16 10 6 3 3 2 0 0 0 2 0 2 0 0 0 0 11 8 0 0 0 0 0 0 0 0 0 0 0 0 0 0 2 11 23 31 35 32 38 20 0 4 9 9 14 16 22 22 24 26 27 33 35 35 34 33 33 31 31 32 30 35 35 33 27 26 23 18 10 6 7 4 3 4 2 5 0 0 0 0 0 0 1 10 16 19 16 15 13 15 17 17 14 10 5 4 4 4 0 0 1 4 1 4 7 1 0 4 10 0 0 0 0 0 0 0 0 0 0 0 0 0 0 0 0 3 14 29 21 30 35 24 3 10 10 10 14 17 22 23 25 26 32 32 37 38 35 32 36 31 31 32 32 36 36 27 27 19 11 6 1 0 3 2 1 1 0 2 0 0 0 0 0 0 0 0 4 11 15 13 13 12 14 14 12 12 4 6 5 3 3 0 2 4 4 8 5 3 0 1 0 0 0 0 0 0 0 0 0 0 0 0 0 0 0 0 0 0 0 17 19 20 25 20 9 14 13 12 15 18 22 23 24 25 32 35 40 39 37 35 37 33 33 33 32 33 28 24 19 0 0 0 0 0 0 0 0 0 0 0 0 0 0 0 0 0 0 0 0 0 8 11 11 9 13 12 12 12 7 8 7 5 3 2 4 5 7 5 1 0 0 0 0 0 0 0 0 0 0 0 0 0 0 0 0 0 0 0 0 0 0 0 8 16 22 12 12 18 15 15 17 18 23 24 25 25 30 36 41 40 38 38 38 34 34 32 28 22 21 8 0 0 0 0 0 0 0 0 0 0 0 0 0 0 0 0 0 0 0 0 0 0 0 0 2 7 10 9 11 12 8 9 8 6 2 4 7 7 11 3 0 0 0 0 0 0 0 0 0 0 0 0 0 0 0 0 0 0 0 0 0 0 0 0 0 6 14 0 9 19 20 18 19 22 22 26 26 27 33 37 40 41 38 37 35 31 32 25 17 10 0 0 0 0 0 0 0 0 0 0 0 0 0 0 0 0 0 0 0 0 0 0 0 0 0 0 0 4 9 10 8 11 9 9 10 7 4 5 9 8 10 0 0 0 0 1 0 0 0 0 0 0 0 0 0 0 0 0 0 0 0 0 0 0 0 0 0 0 3 0 0 24 25 21 23 22 24 24 25 28 32 37 42 44 41 38 34 25 24 16 4 0 0 0 0 0 0 0 0 0 0 0 0 0 0 0 0 0 0 0 0 0 0 0 0 0 0 0 0 0 4 8 8 9 9 12 10 5 6 4 6 5 4 0 0 0 0 0 0 0 0 0 0 0 0 0 0 0 0 0 0 0 0 0 0 0 0 0 0 0 0 0 0 27 28 23 26 23 23 24 26 27 31 35 41 44 41 37 31 18 18 9 0 0 0 0 0 0 0 0 0 0 0 0 0 0 0 0 0 0 0 0 0 0 0 0 0 0 0 0 0 0 2 6 7 10 10 12 9 3 6 0 2 5 3 0 0 0 0 0 0 0 0 0 0 0 0 0 0 0 0 0 0 0 0 0 0 0 0 0 0 0 0 0 0 23 27 24 26 26 25 27 27 30 32 35 41 43 41 34 24 16 10 0 0 3 0 0 0 0 0 0 0 0 0 0 0 0 0 0 0 0 0 0 0 0 0 0 0 0 0 0 0 0 2 5 9 11 12 12 6 4 4 0 4 9 0 0 0 0 0 0 0 0 0 0 0 0 0 0 0 0 0 0 0 0 0 0 0 0 0 0 0 0 0 0 0 2 23 22 28 27 27 28 31 32 31 33 39 41 36 29 21 16 12 8 19 19 12 6 1 0 1 3 1 0 0 0 0 0 3 4 1 0 0 0 0 0 0 0 0 0 0 0 0 0 2 6 8 12 12 9 4 6 2 1 6 10 0 0 0 0 0 0 0 0 0 0 0 0 0 0 0 0 0 0 0 0 0 0 0 0 0 0 0 0 0 0 0 0 18 17 29 27 27 29 31 32 30 32 35 38 33 24 20 16 18 22 32 34 30 21 10 13 3 5 6 3 0 2 0 3 10 9 0 0 0 0 0 0 0 0 1 4 9 6 1 1 4 5 8 11 12 9 5 7 0 3 11 5 0 0 0 0 0 0 0 0 0 0 0 0 0 0 0 0 0 0 0 0 0 0 0 0 0 0 0 0 0 0 0 0 5 14 24 27 27 27 30 30 29 29 32 32 31 22 15 14 22 25 34 39 33 30 25 20 16 13 12 8 3 5 4 6 6 5 2 0 0 0 0 0 0 3 7 9 12 9 5 4 5 5 6 11 12 7 6 4 1 4 15 0 0 0 0 0 0 0 0 0 0 0 0 0 0 0 0 0 0 0 0 0 0 0 0 0 0 0 0 0 0 0 0 0 0 12 17 27 27 27 29 28 27 24 27 28 24 19 13 14 18 26 31 34 31 29 24 21 16 11 7 6 0 0 0 0 0 0 0 0 0 0 0 0 0 6 8 12 11 10 5 4 3 4 7 9 9 5 8 1 4 8 13 0 0 0 0 0 0 0 0 0 0 0 0 0 0 0 0 0 0 0 0 0 0 0 0 0 0 0 0 0 0 0 0 0 0 0 13 23 27 26 28 27 26 25 23 24 19 18 13 15 19 27 27 27 28 27 25 22 19 11 4 0 0 0 0 0 0 0 0 0 0 0 0 0 0 3 6 9 7 7 2 2 1 4 7 8 6 8 4 2 6 12 2 0 0 0 0 0 0 0 0 0 0 0 0 0 0 0 0 0 0 0 0 0 0 0 0 0 0 0 0 0 0 0 0 0 0 0 7 16 24 25 27 28 27 25 22 21 18 16 12 16 22 23 24 24 20 24 21 19 15 8 0 0 0 0 0 0 0 0 0 0 0 0 0 0 0 1 4 4 5 4 1 3 0 4 8 7 7 7 2 5 8 16 0 0 0 0 0 0 0 0 0 0 0 0 0 0 0 0 0 0 0 0 0 0 0 0 0 0 0 0 0 0 0 0 0 0 0 0 0 9 20 25 26 26 29 24 21 17 18 16 15 17 19 22 21 19 16 16 15 14 9 0 0 0 0 0 0 0 0 0 0 0 0 0 0 0 0 0 0 1 2 3 2 2 2 6 5 5 8 1 3 8 11 15 0 0 0 0 0 0 0 0 0 0 0 0 0 0 0 0 0 0 0 0 0 0 0 0 0 0 0 0 0 0 0 0 0 0 0 0 0 0 8 23 26 26 27 27 20 19 17 20 16 19 18 17 18 16 15 15 12 11 5 0 0 0 0 0 0 0 0 0 0 0 0 0 0 0 0 0 0 0 0 1 0 2 3 5 3 6 7 1 5 10 14 4 0 0 0 0 0 0 0 0 0 0 0 0 0 0 0 0 0 0 0 0 0 0 0 0 0 0 0 0 0 0 0 0 0 0 0 0 0 0 0 14 25 26 26 27 23 19 21 21 19 23 23 17 18 14 14 14 10 9 2 0 0 0 0 0 0 0 0 0 0 0 0 0 0 0 0 0 0 0 0 0 1 4 4 4 3 7 5 3 6 13 13 0 0 0 0 0 0 0 0 0 0 0 0 0 0 0 0 0 0 0 0 0 0 0 0 0 0 0 0 0 0 0 0 0 0 0 0 0 0 0 0 5 19 26 25 27 23 19 23 22 21 24 22 19 19 14 11 10 10 8 4 0 0 0 0 0 0 0 0 0 0 0 0 0 0 0 0 0 0 0 0 1 5 4 4 4 8 6 3 8 10 14 3 0 0 0 0 0 0 0 0 0 0 0 0 0 0 0 0 0 0 0 0 0 0 0 0 0 0 0 0 0 0 0 0 0 0 0 0 0 0 0 0 0 10 21 24 26 25 23 23 23 23 24 21 20 17 16 13 8 9 8 4 6 2 0 2 1 4 4 6 4 6 4 4 2 0 0 0 0 0 0 0 1 5 5 6 7 9 3 3 9 12 11 0 0 0 0 0 0 0 0 0 0 0 0 0 0 0 0 0 0 0 0 0 0 0 0 0 0 0 0 0 0 0 0 0 0 0 0 0 0 0 0 0 0 5 13 24 25 25 24 25 22 24 27 23 24 20 16 14 10 6 8 7 11 10 9 10 13 13 14 14 11 11 7 7 4 0 0 0 0 0 0 1 1 6 7 5 7 8 1 7 9 14 0 0 0 0 0 0 0 0 0 0 0 0 0 0 0 0 0 0 0 0 0 0 0 0 0 0 0 0 0 0 0 0 0 0 0 0 0 0 0 0 0 0 0 5 4 20 22 22 23 23 24 23 27 25 25 23 20 18 13 10 12 12 14 14 18 17 19 19 17 17 16 14 12 10 7 5 3 3 5 7 6 5 7 9 7 6 8 3 3 8 11 6 0 0 0 0 0 0 0 0 0 0 0 0 0 0 0 0 0 0 0 0 0 0 0 0 0 0 0 0 0 0 0 0 0 0 0 0 0 0 0 0 0 0 0 6 0 15 19 20 21 22 22 25 26 24 25 25 21 19 17 12 14 16 18 18 18 18 19 20 18 20 17 16 12 11 9 10 9 9 11 9 11 11 12 11 10 9 7 1 7 9 8 0 0 0 0 0 0 0 0 0 0 0 0 0 0 0 0 0 0 0 0 0 0 0 0 0 0 0 0 0 0 0 0 0 0 0 0 0 0 0 0 0 0 0 0 6 3 6 17 18 19 20 21 23 25 25 25 27 24 22 18 16 17 18 20 19 18 21 19 21 19 20 15 16 11 10 12 10 9 13 12 11 10 12 13 13 10 9 7 1 7 8 2 0 0 0 0 0 0 0 0 0 0 0 0 0 0 0 0 0 0 0 0 0 0 0 0 0 0 0 0 0 0 0 0 0 0 0 0 0 0 0 0 0 0 0 0 9 5 7 13 14 17 20 21 22 27 25 27 27 27 25 23 22 17 16 17 22 17 17 17 16 17 15 11 11 8 5 6 4 7 7 9 9 9 12 13 12 10 11 8 3 6 6 0 0 0 0 0 0 0 0 0 0 0 0 0 0 0 0 0 0 0 0 0 0 0 0 0 0 0 0 0 0 0 0 0 0 0 0 0 0 0 0 0 0 0 0 0 13 8 7 17 12 15 18 19 20 25 27 27 28 28 26 24 24 19 16 17 20 14 14 11 10 13 8 7 7 6 4 2 2 2 4 6 8 12 11 12 11 11 11 15 8 5 7 1 0 0 0 0 0 0 0 0 0 0 0 0 0 0 0 0 0 0 0 0 0 0 0 0 0 0 0 0 0 0 0 0 0 0 0 0 0 0 0 0 2 5 0 0 13 17 9 20 18 13 16 18 19 22 26 26 30 27 27 25 21 16 14 19 15 12 10 5 4 6 4 2 2 0 0 0 0 1 6 9 12 12 10 12 10 13 8 13 16 9 6 3 0 0 0 0 0 0 0 0 0 0 0 0 0 0 0 0 0 0 0 0 0 0 0 0 0 0 0 0 0 0 0 0 0 0 0 0 0 0 0 0 9 0 0 6 13 21 17 23 20 20 14 17 17 20 21 25 27 28 27 27 21 17 14 14 12 8 3 0 0 0 0 0 0 0 0 0 0 4 5 7 13 13 11 12 13 12 5 11 21 18 4 3 0 0 0 0 0 0 0 0 0 0 0 0 0 0 0 0 0 0 0 0 0 0 0 0 0 0 0 0 0 0 0 0 0 0 0 0 0 0 0 0 6 0 4 0 13 24 29 27 25 25 22 19 17 19 19 22 23 27 27 27 23 17 15 12 11 6 0 0 0 0 0 0 0 0 0 0 0 5 3 6 11 10 10 12 13 10 6 11 20 21 17 2 0 0 0 0 0 0 0 0 0 0 0 0 0 0 0 0 0 0 0 0 0 0 0 0 0 0 0 0 0 0 0 0 0 0 0 0 0 0 0 7 0 2 1 0 13 35 35 27 30 28 28 25 23 20 20 22 20 20 24 25 20 16 11 10 8 3 0 0 0 0 0 0 0 0 0 0 0 4 6 9 9 10 9 11 12 7 8 11 16 22 23 12 0 0 0 0 0 0 0 0 0 0 0 0 0 0 0 0 0 0 0 0 0 0 0 0 0 0 0 0 0 0 0 0 0 0 0 0 0 0 6 0 0 11 0 0 15 46 33 29 36 30 32 30 28 26 22 23 21 20 19 22 19 16 12 10 6 2 0 0 0 0 0 0 0 0 0 0 0 3 8 9 9 8 9 11 14 4 9 13 12 17 22 24 0 0 2 0 0 0 0 0 0 0 0 0 0 0 0 0 0 0 0 0 0 0 0 0 0 0 0 0 0 0 0 0 0 0 0 0 0 0 0 0 4 6 0 0 23 42 34 31 40 37 34 33 31 30 27 26 23 21 20 21 19 16 11 8 6 0 0 0 0 0 0 0 0 0 0 0 0 3 5 7 8 8 10 13 12 6 10 13 13 12 19 28 13 0 0 0 0 0 0 0 0 0 0 0 0 0 0 0 0 0 0 0 0 0 0 0 0 0 0 0 0 0 0 0 0 0 0 0 0 1 0 0 5 0 0 0 23 38 38 24 40 41 39 36 32 34 30 29 28 26 23 20 19 19 13 12 7 3 1 0 0 0 0 0 0 0 0 0 2 4 7 8 8 11 13 13 7 5 12 13 14 8 19 21 21 23 0 0 0 0 0 0 0 0 0 0 0 0 0 0 0 0 0 0 0 0 0 0 0 0 0 0 0 0 0 0 0 0 0 0 0 0 0 0 0 0 0 0 18 36 40 25 37 43 40 39 36 35 33 34 33 31 28 24 21 20 18 15 12 9 5 4 3 1 1 0 2 1 2 4 4 7 6 9 11 12 14 13 3 3 13 13 10 9 18 16 20 29 10 0 0 0 0 0 0 0 0 0 0 0 0 0 0 0 0 0 0 0 0 0 0 0 0 0 0 0 0 0 0 0 0 0 0 0 0 0 0 0 0 0 12 33 37 28 33 43 42 39 38 34 35 36 35 34 32 30 26 21 18 16 14 13 8 7 8 4 6 7 7 7 5 4 3 6 8 12 10 13 13 9 2 5 12 12 4 10 19 13 16 29 11 0 0 0 0 0 0 0 4 8 0 2 0 0 0 0 0 2 3 4 