P2
92
112
255
0 0 0 0 0 0 0 0 0 0 0 0 0 0 0 0 0 0 0 0 0 0 0 0 0 0 0 0 0 0 0 0 0 0 0 0 0 0 0 0 0 0 0 0 0 0 0 0 0 0 0 0 0 0 0 0 0 0 0 0 0 0 0 0 0 0 0 0 0 0 0 0 0 0 0 0 0 0 0 0 0 0 0 0 0 0 0 0 0 0 0 0 0 0 0 0 0 0 0 0 0 0 0 0 0 0 0 0 0 0 0 0 0 0 0 0 0 0 0 0 0 0 0 0 0 0 0 0 0 0 0 0 0 0 0 0 0 0 0 0 0 0 0 0 0 0 0 0 0 0 0 0 0 0 0 0 0 0 0 0 0 0 0 0 0 0 0 0 0 0 0 0 0 0 0 0 0 0 0 0 0 0 0 0 0 0 0 0 0 0 0 0 0 0 0 0 0 0 0 0 0 0 0 0 0 0 0 0 0 0 0 0 0 0 0 0 0 0 0 0 0 0 0 0 0 0 0 0 0 0 0 0 0 0 0 0 0 0 0 0 0 0 0 0 0 0 0 0 0 0 0 0 0 0 0 0 0 0 0 0 0 0 0 0 0 0 0 0 0 0 0 0 0 0 0 0 0 0 0 0 0 0 0 0 0 0 0 0 0 0 0 0 0 0 0 0 0 0 0 0 0 0 0 0 0 0 0 0 0 0 0 0 0 0 0 0 0 0 0 0 0 0 0 0 0 0 0 0 0 0 0 0 0 0 0 0 0 0 0 0 0 0 0 0 0 0 0 0 0 0 0 0 0 0 0 0 0 0 0 0 0 0 0 0 0 0 0 0 0 0 0 0 0 0 0 0 0 0 0 0 0 0 0 0 0 0 0 0 0 0 0 0 0 0 0 0 0 0 0 0 0 0 0 0 0 0 0 0 0 0 0 0 0 0 0 0 0 0 0 0 0 0 0 0 0 0 0 0 0 0 0 0 0 0 0 0 0 0 0 0 0 0 0 0 0 0 0 0 0 0 0 0 0 0 0 0 0 0 0 0 0 0 0 0 0 0 0 0 0 0 0 0 0 0 0 0 0 0 0 0 0 0 0 0 0 0 0 0 0 0 0 0 0 0 0 0 0 0 0 0 0 0 0 0 0 0 0 0 0 0 0 0 0 0 0 0 0 0 0 0 0 0 0 0 0 0 0 0 0 0 0 0 0 0 0 0 0 0 0 0 0 0 0 0 0 0 0 0 0 0 0 0 0 0 0 0 0 0 0 0 0 0 0 0 0 0 0 0 0 0 0 0 0 0 0 0 0 0 0 0 0 0 0 0 0 0 0 0 0 0 0 0 0 0 0 0 0 0 0 0 0 0 0 0 0 0 0 0 0 0 0 0 0 0 0 0 0 0 0 0 0 0 0 0 0 0 0 0 0 0 0 0 0 0 0 0 0 0 0 0 0 0 0 0 0 0 0 0 0 0 0 0 0 0 0 0 0 0 0 0 0 0 0 0 0 0 0 0 0 0 0 0 0 0 0 0 0 0 0 0 0 0 0 0 0 0 0 0 0 0 0 0 0 0 0 0 0 0 0 0 0 0 0 0 0 0 0 0 0 0 0 0 0 0 0 0 0 0 0 0 0 0 0 0 0 0 0 0 0 0 0 0 0 0 0 0 0 0 0 0 0 0 0 0 0 0 0 0 0 0 0 0 0 0 0 0 0 0 0 0 0 0 0 0 0 0 0 0 0 0 0 0 0 0 0 0 0 0 0 0 0 0 0 0 0 0 0 0 0 0 0 0 0 0 0 0 0 0 0 0 0 0 0 0 0 0 0 0 0 0 0 0 0 0 0 0 0 0 0 0 0 0 0 0 0 0 0 0 0 0 0 0 0 0 0 0 0 0 0 0 0 0 0 0 0 0 0 0 0 0 0 0 0 0 0 0 0 0 0 0 0 0 0 0 0 0 0 0 0 0 0 0 0 0 0 0 0 0 0 0 0 0 0 0 0 0 0 0 0 0 0 0 0 0 0 0 0 0 0 0 0 0 0 0 0 0 0 0 0 0 0 0 0 0 0 0 0 0 0 0 0 0 0 0 0 0 0 0 0 0 0 0 0 0 0 0 0 0 0 0 0 0 0 0 0 0 0 0 0 0 0 0 0 0 0 0 0 0 0 0 0 0 0 0 0 0 0 0 0 0 0 0 0 0 0 0 0 0 0 0 0 0 0 0 0 0 0 0 0 0 0 0 0 0 0 0 0 0 0 0 0 0 0 0 0 0 0 0 0 0 0 0 0 0 0 0 0 0 0 0 0 0 0 0 0 0 0 0 0 0 0 0 0 0 0 0 0 0 0 0 0 0 0 0 0 0 0 0 0 0 0 0 0 0 0 0 0 0 0 0 0 0 0 0 0 0 0 0 0 0 0 0 0 0 0 0 0 0 0 0 0 0 0 0 0 0 0 0 0 0 0 0 0 0 0 0 0 0 0 0 0 0 0 0 0 0 0 0 0 0 0 0 0 0 0 0 0 0 0 0 0 0 0 0 0 0 0 0 0 0 0 0 0 0 0 0 0 0 0 0 0 0 0 0 0 0 0 0 0 0 0 0 0 0 0 0 0 0 0 0 0 0 0 0 0 0 0 0 0 0 0 0 0 0 0 0 0 0 0 0 0 0 0 0 0 0 0 0 0 0 0 0 0 0 0 0 0 0 0 0 0 0 0 0 0 0 0 0 0 0 0 0 0 0 0 0 0 0 0 0 0 0 0 0 0 0 0 0 0 0 0 0 0 0 0 0 0 0 0 0 0 0 0 0 0 0 0 0 0 0 0 0 0 0 0 0 0 0 0 0 0 0 0 0 0 0 0 0 0 0 0 0 0 0 0 0 0 0 0 0 0 0 0 0 0 0 0 0 0 0 0 0 0 0 0 0 0 0 0 0 0 0 0 0 0 0 0 0 0 0 0 0 0 0 0 0 0 0 0 0 0 0 0 0 0 0 0 0 0 0 0 2 4 6 8 5 3 1 0 0 0 0 0 0 0 0 0 0 0 0 0 0 0 0 0 0 0 0 0 0 0 0 0 0 0 0 0 0 0 0 0 0 0 0 0 0 0 0 0 0 0 0 0 0 0 0 0 0 0 0 0 0 0 0 0 0 0 0 0 0 0 0 0 0 0 0 0 0 0 0 0 0 0 0 0 0 0 0 0 0 3 8 8 10 11 14 14 13 9 8 8 3 2 1 0 0 0 0 0 0 0 0 0 0 0 0 0 0 0 0 0 0 0 0 0 0 0 0 0 0 0 0 0 0 0 0 0 0 0 0 0 0 0 0 0 0 0 0 0 0 0 0 0 0 0 0 0 0 0 0 0 0 0 0 0 0 0 0 0 0 0 0 0 0 0 0 0 0 0 7 4 10 14 16 15 15 16 19 19 19 18 19 20 15 14 14 11 7 5 4 1 0 1 0 0 0 0 0 0 0 0 0 0 0 0 0 0 0 0 0 0 0 0 0 0 0 0 0 0 0 0 0 0 0 0 0 0 0 0 0 0 0 0 0 0 0 0 0 0 0 0 0 0 0 0 0 0 0 0 0 0 0 0 0 0 0 3 5 5 11 12 16 15 21 25 23 22 24 21 25 28 26 27 30 28 25 22 23 19 17 15 13 10 6 7 5 3 3 0 0 0 0 0 0 0 0 0 0 0 0 0 0 0 0 0 0 0 0 0 0 0 0 0 0 0 0 0 0 0 0 0 0 0 0 0 0 0 0 0 0 0 0 0 0 0 0 0 0 0 0 0 0 0 0 0 0 6 10 10 9 14 21 24 21 27 30 32 30 29 29 30 32 31 32 34 33 31 31 28 27 25 23 19 19 17 13 10 7 6 5 2 2 0 0 0 0 0 0 0 0 0 0 0 0 0 0 0 0 0 0 0 0 0 0 0 0 0 0 0 0 0 0 0 0 0 0 0 0 0 0 0 0 0 0 0 0 0 0 0 0 0 0 0 0 0 0 4 8 12 12 13 17 24 28 30 30 35 35 36 33 34 35 35 34 35 35 34 34 31 31 31 30 27 26 25 23 22 18 15 10 6 6 4 5 3 0 0 0 0 0 0 0 0 0 0 0 0 0 0 0 0 0 0 0 0 0 0 0 0 0 0 0 0 0 0 0 0 0 0 0 0 0 0 0 0 0 0 0 0 0 0 0 0 0 0 1 4 9 12 15 14 16 18 25 32 33 36 36 39 37 37 35 35 38 38 37 36 35 34 34 32 32 33 32 31 28 26 26 25 21 20 17 10 9 4 5 4 2 0 0 0 0 0 0 0 0 0 0 0 0 0 0 0 0 0 0 0 0 0 0 0 0 0 0 0 0 0 0 0 0 0 0 0 0 0 0 0 0 0 0 0 0 0 0 0 0 2 6 11 16 16 16 18 21 28 33 35 38 38 40 39 39 37 37 39 38 39 38 36 36 34 31 33 32 31 31 30 27 25 26 26 23 22 20 17 12 11 4 4 2 1 0 0 0 0 0 0 0 0 0 0 0 0 0 0 0 0 0 0 0 0 0 0 0 0 0 0 0 0 0 0 0 0 0 0 0 0 0 0 0 0 0 0 0 0 0 0 7 8 13 17 17 18 22 25 32 37 37 37 38 38 37 39 36 36 37 37 38 37 36 35 36 34 32 33 33 29 30 28 27 26 25 26 23 22 22 20 19 14 9 4 2 3 3 1 0 0 0 0 0 0 0 0 0 0 0 0 0 0 0 0 0 0 0 0 0 0 0 0 0 0 0 0 0 0 0 0 0 0 0 0 0 0 0 0 0 0 0 6 10 12 18 19 20 27 31 35 38 36 38 37 37 37 36 35 35 35 35 33 32 33 34 33 34 33 30 32 31 29 28 27 26 26 25 23 23 20 20 21 20 18 13 9 5 4 4 6 3 0 0 0 0 0 0 0 0 0 0 0 0 0 0 0 0 0 0 0 0 0 0 0 0 0 0 0 0 0 0 0 0 0 0 0 0 0 0 0 0 0 7 8 10 16 20 25 34 34 36 39 38 37 37 36 34 33 34 32 32 32 32 31 30 31 32 29 30 30 29 30 29 27 24 25 24 24 23 22 21 19 18 17 18 18 14 12 9 6 5 6 6 6 0 0 0 0 0 0 0 0 0 0 0 0 0 0 0 0 0 0 0 0 0 0 0 0 0 0 0 0 0 0 0 0 0 0 0 0 0 0 0 3 10 10 14 24 29 37 38 38 39 38 38 35 34 35 32 32 32 31 30 28 29 28 29 28 29 27 28 26 26 27 26 24 22 23 20 21 19 19 19 17 16 15 14 13 13 12 7 6 7 3 6 4 0 0 0 0 0 0 0 0 0 0 0 0 0 0 0 0 0 0 0 0 0 0 0 0 0 0 0 0 0 0 0 0 0 0 0 0 0 3 4 10 15 15 25 33 40 40 39 40 38 36 35 32 31 32 31 32 30 29 27 27 26 26 26 23 26 23 23 21 23 23 22 20 19 19 19 16 17 15 15 13 12 12 11 8 11 9 6 5 5 3 4 4 1 0 0 0 0 0 0 0 0 0 0 0 0 0 0 0 0 0 0 0 0 0 0 0 0 0 0 0 0 0 0 0 0 0 0 0 0 6 10 15 21 27 33 40 40 40 38 36 36 34 32 30 30 29 29 27 28 26 26 26 24 22 22 21 22 21 21 18 17 20 17 17 13 15 15 11 14 11 10 10 8 8 7 5 6 5 3 0 2 4 2 1 2 0 0 0 0 0 0 0 0 0 0 0 0 0 0 0 0 0 0 0 0 0 0 0 0 0 0 0 0 0 0 0 0 0 0 0 5 11 17 22 27 34 39 41 39 37 36 33 33 32 30 29 27 25 27 23 24 23 23 23 21 21 20 19 17 18 16 15 14 16 13 11 8 10 7 6 7 5 4 4 2 2 1 1 1 0 0 0 0 3 2 1 0 0 0 0 0 0 0 0 0 0 0 0 0 0 0 0 0 0 0 0 0 0 0 0 0 0 0 0 0 0 0 0 0 0 0 2 15 20 21 29 32 39 40 38 35 35 32 30 30 29 28 26 25 23 22 20 19 22 20 19 18 19 17 17 13 13 14 11 11 11 9 4 3 0 0 0 0 0 0 0 0 0 0 0 0 0 0 0 0 0 2 0 0 0 0 0 0 0 0 0 0 0 0 0 0 0 0 0 0 0 0 0 0 0 0 0 0 0 0 0 0 0 0 0 0 0 0 17 22 22 26 31 36 39 37 33 31 30 28 27 27 25 22 21 20 16 17 15 15 16 16 17 17 18 16 14 12 12 11 8 8 5 2 2 0 0 0 0 0 0 0 0 0 0 0 0 0 0 0 0 0 0 0 0 0 0 0 0 0 0 0 0 0 0 0 0 0 0 0 0 0 0 0 0 0 0 0 0 0 0 0 0 0 0 0 0 0 0 16 26 24 25 30 34 37 37 31 26 25 24 24 21 18 17 16 13 11 9 9 10 10 13 13 15 15 14 16 14 12 12 10 10 6 4 1 0 0 0 0 0 0 0 0 0 0 0 0 0 0 0 0 0 0 0 0 0 0 0 0 0 0 0 0 0 0 0 0 0 0 0 0 0 0 0 0 0 0 0 0 0 0 0 0 0 0 0 0 0 0 13 26 28 25 29 32 35 33 31 24 21 20 19 17 14 10 9 6 3 3 3 2 3 6 9 12 13 15 15 17 14 14 13 11 11 8 5 2 0 0 0 0 0 0 0 0 0 0 0 0 0 0 0 0 0 0 0 0 0 0 0 0 0 0 0 0 0 0 0 0 0 0 0 0 0 0 0 0 0 0 0 0 0 0 0 0 0 0 0 0 1 9 24 30 24 29 31 34 31 27 24 16 16 14 13 9 5 2 0 0 0 0 0 0 0 1 6 10 14 17 18 18 16 16 15 12 11 9 7 1 0 0 0 0 0 0 0 0 0 0 0 0 0 0 0 0 0 0 0 0 0 0 0 0 0 0 0 0 0 0 0 0 0 0 0 0 0 0 0 0 0 0 0 0 0 0 0 0 0 0 0 0 6 19 32 25 27 32 37 30 24 23 19 17 11 10 5 0 0 0 0 0 0 0 0 0 0 0 5 9 15 19 19 20 18 19 18 14 11 12 6 2 0 0 0 0 0 0 0 0 0 0 0 0 0 0 0 0 0 0 0 0 0 0 0 0 0 0 0 0 0 0 0 0 0 0 0 0 0 0 0 0 2 0 0 0 0 0 0 0 0 0 0 3 12 26 27 27 31 37 34 21 22 19 17 13 6 3 0 0 0 0 0 0 0 0 0 0 0 0 1 8 14 20 18 16 19 18 16 12 9 13 6 0 0 0 0 0 0 0 0 0 0 0 0 0 0 0 0 0 0 0 0 0 0 0 0 0 0 0 0 0 0 0 0 0 0 0 0 0 0 0 0 0 3 0 0 0 0 0 0 0 0 0 0 4 20 28 27 29 35 36 24 20 21 17 13 5 2 0 0 0 0 0 0 0 0 0 0 0 0 0 0 0 8 12 14 10 13 12 11 8 7 10 4 0 0 0 0 0 0 0 0 0 0 0 0 0 0 0 0 0 0 0 0 0 0 0 0 0 0 0 0 0 0 0 0 0 0 0 0 0 0 0 0 0 0 0 0 0 0 0 0 0 0 0 0 6 24 29 30 34 35 28 22 21 19 14 7 3 3 1 0 0 0 0 0 0 0 0 0 0 0 0 0 0 1 5 7 3 6 5 2 1 2 3 0 0 0 0 0 0 0 0 0 0 0 0 0 0 0 0 0 0 0 0 0 0 0 0 0 0 0 0 0 0 0 0 0 0 0 0 0 0 0 0 0 0 0 0 0 0 0 0 0 0 0 0 0 10 24 32 35 35 32 24 22 18 14 8 10 3 3 0 0 0 0 0 0 0 0 0 0 0 0 0 0 0 0 0 1 0 0 0 0 0 0 0 0 0 0 0 0 0 0 0 0 0 0 0 0 0 0 0 0 0 0 0 0 0 0 0 0 0 0 0 0 0 0 0 0 0 0 0 0 0 0 0 0 0 0 0 0 0 0 0 0 0 0 0 0 12 28 33 35 37 26 23 20 11 10 9 6 0 0 0 0 0 0 0 0 0 0 0 0 0 0 0 0 0 0 0 0 0 0 0 0 0 0 0 0 0 0 0 0 0 0 0 0 0 0 0 0 0 0 0 0 0 0 0 0 0 0 0 0 0 0 0 0 0 0 0 0 0 0 0 0 0 0 0 0 0 0 0 0 0 0 0 0 0 0 0 0 16 31 33 34 39 22 18 13 8 8 3 0 0 0 0 0 0 0 0 0 0 0 0 0 0 0 0 0 0 0 0 0 0 0 0 0 0 0 0 0 0 0 0 0 0 0 0 0 0 0 0 0 0 0 0 0 0 0 0 0 0 0 0 0 0 0 0 0 0 0 0 0 0 0 0 0 0 0 0 0 0 0 0 0 0 0 0 0 0 0 0 2 21 33 33 38 36 15 16 6 0 2 0 0 0 0 0 0 0 0 0 0 0 0 0 0 0 0 0 0 0 4 2 0 0 0 0 0 0 0 0 0 0 0 0 0 0 0 0 0 0 0 0 0 0 0 0 0 0 0 0 0 0 0 0 0 0 0 0 0 0 0 0 0 0 0 0 0 0 0 0 0 0 0 0 0 0 0 0 0 0 0 0 7 23 34 37 40 28 19 14 2 0 0 0 0 0 0 0 0 0 0 0 0 0 0 0 0 0 1 0 0 0 6 5 0 0 0 0 0 0 0 0 0 0 0 0 0 0 0 0 0 0 0 0 0 0 0 0 0 0 0 0 0 0 0 0 0 0 0 0 0 0 0 0 0 0 0 0 0 0 0 0 0 0 0 0 0 0 0 0 0 0 0 0 11 25 37 36 32 26 16 3 0 0 0 0 0 0 0 0 0 2 3 3 6 2 4 6 6 4 2 0 0 0 7 6 0 0 0 0 0 0 0 0 0 0 0 0 0 0 0 0 0 0 0 0 0 0 0 0 0 0 0 0 0 0 0 0 0 0 0 0 0 0 0 0 0 0 0 0 0 0 0 0 0 0 0 0 0 0 0 0 0 0 0 0 15 29 37 29 28 21 2 0 0 0 0 0 0 0 6 14 15 16 16 11 5 5 0 0 0 0 0 0 0 0 8 9 0 0 0 0 0 0 0 0 0 0 0 0 0 0 0 0 0 0 0 0 0 0 0 0 0 0 0 0 0 0 0 0 0 0 0 0 0 0 0 0 0 0 0 0 0 0 0 0 0 0 0 0 0 0 0 0 0 0 0 0 15 33 32 23 24 3 0 0 2 9 0 0 0 5 16 21 13 9 1 0 0 1 0 9 0 0 2 0 6 2 6 14 1 0 0 0 0 0 0 0 0 0 0 0 0 0 0 0 0 0 0 0 4 0 0 0 0 0 0 0 0 0 0 0 0 0 0 0 0 0 0 0 0 0 0 0 0 0 0 0 0 0 0 0 0 0 0 0 0 0 0 0 12 33 28 24 11 3 4 6 17 15 7 7 11 12 13 13 4 2 0 0 0 0 0 6 0 0 10 10 3 5 12 11 1 0 0 0 0 0 0 0 0 0 0 0 0 0 0 0 6 0 0 0 4 3 5 7 7 4 0 0 0 0 0 0 0 0 0 0 0 0 0 0 0 0 0 0 0 0 0 0 0 0 0 0 0 0 0 0 0 0 0 0 14 35 32 21 15 12 20 19 30 27 27 29 25 20 21 21 12 7 0 0 0 0 0 0 2 10 15 17 13 17 12 11 2 4 1 0 0 0 0 0 0 0 0 0 0 0 0 1 0 0 0 0 4 9 7 10 5 9 10 9 8 0 0 0 0 0 0 0 0 0 0 0 0 0 0 0 0 0 0 0 0 0 0 0 0 0 0 0 0 0 0 0 20 40 31 19 22 23 35 41 43 45 47 40 35 30 17 24 1 0 1 7 0 0 0 0 5 16 25 24 24 22 12 7 3 8 4 0 0 0 0 0 0 0 0 0 0 0 0 5 0 0 0 0 0 4 0 8 4 0 7 7 13 5 6 0 0 0 0 0 0 0 0 0 0 0 0 0 0 0 0 0 0 0 0 0 0 0 0 0 0 0 0 0 18 42 34 29 32 43 48 56 54 53 43 38 40 24 12 4 0 0 7 17 20 15 20 8 11 16 26 21 27 19 19 16 10 15 2 0 0 0 0 0 6 0 0 0 4 0 6 0 0 0 0 0 0 0 16 0 0 7 6 4 7 7 7 9 1 0 0 0 0 0 0 0 0 0 0 0 0 0 0 0 0 0 0 0 0 0 0 0 0 0 0 0 21 44 37 40 43 53 58 54 56 43 33 50 33 14 23 17 3 6 17 22 27 33 32 21 33 30 35 32 32 27 27 22 18 15 8 2 2 2 0 0 6 4 0 8 6 7 14 6 5 0 4 2 0 7 3 0 0 1 6 1 12 14 10 8 7 0 0 0 0 0 0 0 0 0 0 0 0 0 0 0 0 0 0 0 0 0 0 0 0 0 0 0 24 48 43 45 50 56 60 57 46 29 34 47 29 30 32 39 21 27 33 25 31 36 33 28 33 41 43 41 36 34 31 25 19 19 13 11 7 1 0 0 3 12 14 18 11 13 8 7 16 2 20 17 0 11 9 9 8 0 10 4 9 22 21 10 5 5 0 0 0 0 0 0 0 0 0 0 0 0 0 0 0 0 0 0 0 0 0 0 0 0 0 11 30 51 46 49 52 60 61 44 39 30 17 29 38 36 40 41 40 40 43 43 40 47 42 33 36 51 41 46 39 34 31 27 24 17 15 16 9 8 4 3 4 11 17 22 19 17 21 18 25 17 29 28 18 11 11 15 11 14 14 13 9 22 24 16 6 9 0 0 0 0 0 0 0 0 0 0 0 0 0 0 0 0 0 0 0 0 0 0 0 0 1 15 43 55 45 48 53 63 43 45 47 18 38 44 49 37 45 51 43 47 53 48 50 47 47 44 50 48 45 47 42 37 30 29 27 19 16 13 11 11 9 9 8 12 19 21 24 25 26 25 30 33 34 33 27 24 24 22 24 25 25 23 18 19 24 22 10 8 1 0 0 0 0 0 0 0 0 0 0 0 0 0 0 0 0 0 0 0 0 0 0 0 1 12 49 62 46 45 58 51 46 55 49 40 51 56 58 57 51 50 53 52 53 47 55 51 52 53 52 46 47 47 45 36 32 30 25 22 18 12 13 12 11 14 14 14 17 23 30 26 30 26 28 32 33 32 36 32 35 31 32 32 32 27 26 21 21 23 19 7 3 0 0 0 0 0 0 0 0 0 0 0 0 0 0 0 0 0 0 0 0 0 11 11 10 10 40 65 49 47 53 45 52 52 51 54 56 54 60 53 56 50 53 51 54 50 54 52 57 52 50 48 49 49 44 37 31 29 21 22 22 14 15 14 12 14 19 14 18 21 31 29 33 29 33 36 31 36 39 39 40 38 35 35 37 37 32 30 25 23 24 18 4 0 0 0 0 0 0 0 0 0 0 0 0 0 0 0 0 0 0 0 0 13 24 18 22 9 34 63 47 44 47 50 47 51 55 53 59 53 56 52 55 52 50 52 52 54 52 52 55 54 51 45 49 48 41 33 27 29 21 21 19 11 18 10 11 11 19 22 19 24 27 29 32 34 33 36 34 38 37 40 42 41 38 36 38 41 37 36 28 26 27 23 9 0 0 0 0 0 0 0 0 0 0 0 0 0 0 0 0 0 2 0 0 25 40 37 39 15 30 61 46 37 51 53 54 55 59 55 60 57 58 54 53 50 49 49 50 54 51 50 54 53 50 45 46 42 39 32 28 29 21 20 14 9 12 10 6 10 17 22 22 22 29 26 31 33 35 33 36 36 39 38 38 36 36 35 35 37 36 34 30 28 25 23 9 0 0 0 0 0 0 0 0 0 0 0 0 0 0 0 0 9 7 0 0 31 42 36 59 27 21 60 47 42 53 54 55 56 58 56 56 56 55 52 51 50 49 48 50 51 50 49 52 51 47 42 44 39 38 31 30 23 19 13 8 7 4 7 5 8 11 17 16 21 30 25 27 32 32 33 37 35 35 35 35 34 30 33 32 33 34 30 28 27 22 17 8 0 0 0 0 0 0 0 0 0 0 0 0 0 0 0 0 21 15 0 0 40 40 30 59 37 6 49 49 44 50 53 51 54 55 52 52 52 52 48 49 49 48 49 48 48 49 50 50 50 44 40 39 36 34 27 22 19 11 7 2 0 0 1 2 7 8 12 9 15 24 24 26 28 29 31 35 33 33 33 32 31 30 31 31 32 32 29 26 26 20 13 4 0 0 0 0 0 0 0 0 0 0 0 0 0 0 0 0 33 31 6 26 55 60 29 50 34 0 40 45 42 48 51 51 50 51 50 50 49 49 46 44 46 47 47 47 47 48 47 47 47 44 38 34 31 29 22 15 8 9 4 0 0 0 0 0 0 0 4 6 10 18 21 26 26 29 28 31 32 31 31 29 29 29 29 29 31 30 29 25 24 16 10 0 0 0 0 0 0 0 0 0 0 0 0 0 0 0 0 0 50 46 1 33 73 71 41 39 32 4 37 40 41 45 49 49 47 47 48 47 46 44 46 44 44 45 45 46 46 44 44 47 43 43 32 27 29 24 19 10 0 1 2 0 0 0 0 0 0 0 0 0 5 12 17 21 24 25 27 30 29 28 28 26 27 26 27 26 27 27 27 24 18 11 4 0 0 0 0 0 0 0 0 0 0 0 0 0 0 0 0 0 64 49 0 25 73 80 43 34 26 16 34 34 36 42 46 46 46 45 45 46 42 43 44 43 42 44 43 44 44 41 41 43 39 36 28 25 30 23 10 8 0 0 0 0 0 0 0 0 0 0 0 0 3 5 8 16 19 20 24 26 26 26 25 24 26 23 26 23 24 24 25 25 14 8 0 0 0 0 0 0 0 0 0 0 0 0 0 0 0 0 0 0 69 49 0 24 66 78 45 29 17 18 28 34 34 39 45 44 44 45 43 42 43 41 42 42 43 42 42 42 40 38 39 37 28 30 23 25 27 9 0 0 0 1 0 0 0 0 0 0 0 0 0 0 2 2 8 15 15 17 20 23 23 23 23 21 23 22 21 26 21 22 23 22 14 2 0 0 0 0 0 0 0 0 0 0 0 0 0 0 0 0 0 0 71 68 9 38 60 71 48 22 15 12 22 26 33 39 43 44 42 43 41 41 41 40 41 40 41 41 42 41 38 38 37 30 23 25 23 25 19 2 0 0 0 0 0 0 0 0 0 0 0 0 0 0 0 0 14 13 14 13 19 21 20 22 18 18 19 19 19 21 20 21 20 22 14 0 0 0 0 0 0 0 0 0 0 0 0 0 0 0 0 0 0 0 58 84 26 55 55 62 55 18 24 5 17 23 32 36 42 43 42 42 41 40 40 40 38 39 38 38 39 39 35 37 34 27 21 21 24 21 13 0 0 2 0 0 0 0 0 0 0 0 0 0 0 0 0 0 7 9 15 11 13 16 17 18 15 17 16 16 17 19 19 19 20 14 14 0 0 0 0 0 0 0 0 0 0 0 0 0 0 0 0 0 0 0 29 79 33 61 58 54 58 20 21 9 10 16 32 37 41 41 40 41 40 39 39 38 38 38 38 38 39 38 34 35 29 22 15 19 22 9 0 0 0 2 0 0 0 0 0 0 0 0 0 0 0 0 0 0 6 12 15 13 10 15 17 14 14 15 14 15 15 17 17 12 18 13 13 0 0 0 0 0 0 0 0 0 0 0 0 0 0 0 0 0 0 0 4 76 37 58 71 53 61 24 15 12 6 10 32 37 39 39 38 40 39 38 40 39 38 38 38 39 37 34 33 28 22 19 16 16 16 3 0 0 0 0 0 0 0 0 0 0 0 0 0 0 0 0 0 0 5 11 15 14 8 13 15 17 14 13 15 15 15 16 12 11 9 13 9 0 0 0 0 0 0 0 0 0 0 0 0 0 0 0 0 0 0 0 0 66 53 56 82 50 58 26 13 17 6 4 27 32 36 37 37 37 38 39 37 40 40 39 38 37 34 33 28 22 17 17 12 6 2 0 0 0 0 0 0 0 0 0 0 0 0 0 0 0 0 0 0 0 0 4 13 9 4 12 13 14 13 12 17 13 13 13 11 13 9 10 6 0 0 0 0 0 0 0 0 0 0 0 0 0 0 0 0 0 0 0 0 48 61 65 85 56 47 35 13 10 12 3 22 31 33 37 33 37 38 40 40 40 39 38 37 35 33 30 26 17 20 21 14 8 0 0 0 0 0 0 0 0 0 0 0 0 0 0 0 0 0 0 0 0 0 0 10 2 0 7 12 12 10 11 14 13 10 17 12 9 11 6 3 0 0 0 0 0 0 0 0 0 0 0 0 0 0 0 0 0 0 0 0 29 63 73 94 68 43 42 20 9 10 1 14 28 27 31 32 38 39 41 41 40 40 40 38 34 32 24 22 15 12 20 16 13 0 0 0 0 0 0 0 0 0 0 0 0 0 0 0 0 0 0 0 0 0 0 3 0 0 3 9 13 12 7 13 14 10 13 15 9 13 4 0 0 0 0 0 0 0 0 0 0 0 0 0 0 0 0 0 0 0 0 0 8 61 70 96 76 42 47 24 15 6 0 11 24 25 29 32 40 40 43 42 42 40 41 36 33 29 24 21 18 16 13 12 0 0 0 0 0 0 0 0 0 0 0 0 0 0 0 0 0 0 0 0 0 0 0 0 0 0 0 4 12 9 13 12 15 12 7 16 11 13 5 0 0 0 0 0 0 0 0 0 0 0 0 0 0 0 0 0 0 0 0 0 0 48 69 89 78 49 51 26 20 5 0 6 19 19 31 37 42 42 44 44 45 41 42 36 31 28 24 22 26 30 23 9 0 0 0 0 0 0 0 0 0 0 0 0 0 0 0 0 0 0 0 0 0 0 0 0 0 0 0 4 9 9 10 13 14 13 9 16 12 10 4 0 0 0 0 0 0 0 0 0 0 0 0 0 0 0 0 0 0 0 0 0 0 25 67 83 81 55 56 34 20 11 0 0 10 19 30 38 43 45 44 46 47 42 40 38 33 30 30 27 33 32 19 0 0 0 0 0 0 0 0 0 0 0 0 0 0 0 0 0 0 0 0 0 0 0 0 0 0 0 0 2 5 8 6 12 15 13 13 14 13 11 2 0 0 0 0 0 0 0 0 0 0 0 0 0 0 0 0 0 0 0 0 0 0 11 42 82 72 61 57 43 21 9 0 0 9 22 26 35 43 46 48 48 47 45 41 37 35 32 34 32 34 21 0 0 0 0 0 0 0 0 0 0 0 0 0 0 0 0 0 0 0 0 0 0 0 0 0 0 1 0 0 0 2 6 8 12 15 15 15 16 11 9 4 0 0 0 0 0 0 0 0 0 0 0 0 0 0 0 0 0 0 0 0 0 0 4 21 72 72 60 58 50 16 2 0 0 8 16 28 39 45 45 46 49 47 46 43 38 38 36 36 31 21 4 0 0 0 0 0 0 0 0 0 0 0 0 0 0 0 0 0 0 0 0 0 0 0 0 0 0 1 0 0 0 1 3 10 14 18 17 15 13 9 10 3 0 0 0 0 0 0 0 0 0 0 0 0 0 0 0 0 0 0 0 0 0 0 0 20 37 68 65 57 46 4 0 0 0 5 13 23 38 44 41 46 50 48 47 44 41 39 36 32 19 7 0 0 0 0 0 0 0 0 0 0 0 0 0 0 0 0 0 0 0 0 0 0 0 0 0 0 0 0 0 0 0 2 5 7 14 20 18 15 14 7 3 1 0 0 0 0 0 0 0 0 0 0 0 0 0 0 0 0 0 0 0 0 0 0 0 6 26 32 48 50 39 0 0 1 1 3 16 26 36 38 43 47 49 46 46 45 44 40 34 22 10 2 0 0 0 0 0 0 0 0 0 0 0 0 0 0 0 0 0 0 0 0 0 0 0 0 0 0 0 0 0 0 1 3 6 11 14 20 22 17 13 4 0 0 0 0 0 0 0 0 0 0 0 0 0 0 0 0 0 0 0 0 0 0 0 0 0 0 17 19 19 43 28 0 0 0 2 2 6 23 34 37 45 48 50 48 45 46 43 40 26 8 9 0 0 0 0 0 0 0 0 0 0 0 0 0 0 0 0 0 0 0 0 0 0 0 0 0 0 0 0 0 0 0 3 7 9 11 13 24 21 17 12 2 3 0 0 0 0 0 0 0 0 0 0 0 0 0 0 0 0 0 0 0 0 0 0 0 0 0 0 17 11 34 28 0 0 0 3 1 6 18 30 39 48 49 48 50 45 48 43 30 14 5 2 0 0 0 0 0 0 0 0 0 0 0 0 0 0 0 0 0 0 0 0 0 0 0 0 0 0 0 0 0 0 5 7 12 11 15 17 20 21 18 17 1 1 0 0 0 0 0 0 0 0 0 0 0 0 0 0 0 0 0 0 0 0 0 0 0 0 0 0 0 18 18 13 0 0 0 0 0 5 17 33 40 45 48 50 50 48 45 44 24 8 6 0 0 0 0 0 0 0 0 0 0 0 0 0 0 0 0 0 0 0 0 0 0 0 0 0 0 0 0 0 0 0 8 13 15 16 16 18 24 20 16 13 0 6 0 0 0 0 0 0 0 0 0 0 0 0 0 0 0 0 0 0 0 0 0 0 0 0 0 0 0 0 8 3 0 0 0 0 0 3 13 29 39 43 50 51 48 50 43 42 19 8 4 0 0 0 0 0 0 0 0 0 0 0 0 0 0 0 0 0 0 0 0 0 0 0 0 0 0 0 0 0 0 0 5 12 20 18 13 16 24 19 18 5 3 1 0 0 0 0 0 0 0 0 0 0 0 0 0 0 0 0 0 0 0 0 0 0 0 0 0 0 0 0 0 0 0 0 0 0 0 4 13 36 38 46 51 48 50 48 46 35 15 2 0 0 0 0 0 0 0 0 0 0 0 0 8 3 0 0 0 0 0 0 0 0 0 0 0 0 0 0 0 0 0 0 0 7 21 19 17 12 21 17 17 7 4 0 0 0 0 0 0 0 0 0 0 0 0 0 0 0 0 0 0 0 0 0 0 0 0 0 0 0 0 0 0 0 0 0 0 0 0 0 16 34 37 50 49 43 52 43 40 27 10 0 0 0 0 0 0 0 0 0 0 0 0 2 5 2 0 0 0 0 0 0 0 0 0 0 0 0 0 0 0 0 0 0 0 4 17 18 21 9 18 11 15 9 4 1 0 0 0 0 0 0 0 0 0 0 0 0 0 0 0 0 0 0 0 0 0 0 0 0 0 0 0 0 0 0 0 0 0 0 0 3 17 30 38 48 47 43 51 43 33 28 7 1 0 0 0 0 0 0 0 0 0 0 9 14 15 9 0 6 1 6 8 2 0 0 0 0 0 0 0 0 0 0 0 0 0 5 16 14 18 7 13 11 10 4 5 2 0 0 0 0 0 0 0 0 0 0 0 0 0 0 0 0 0 0 0 0 0 0 0 0 0 0 0 0 0 0 0 0 0 0 0 3 8 30 42 40 45 44 46 44 32 28 0 3 0 1 2 0 0 0 3 0 8 21 24 25 25 18 12 14 13 15 16 10 0 0 0 0 0 0 0 0 0 0 0 0 0 6 15 16 13 11 10 10 9 0 0 3 0 0 0 0 0 0 0 0 0 0 0 0 0 0 0 0 0 0 0 0 0 0 0 0 0 0 0 0 0 0 0 0 0 0 0 3 10 32 31 37 48 39 46 43 33 24 1 7 1 1 7 2 1 2 10 8 13 23 20 33 30 23 21 16 16 12 11 2 0 0 0 0 1 1 0 0 0 0 0 0 0 1 11 15 8 13 9 9 7 3 0 1 0 0 0 0 0 0 0 0 0 0 0 0 0 0 0 0 0 0 0 0 0 0 0 0 0 0 0 0 0 0 0 0 0 0 0 0 6 21 27 36 41 38 44 39 30 27 8 10 3 4 2 0 10 20 24 10 20 28 15 33 30 26 21 17 18 15 6 3 5 3 11 14 15 14 13 0 0 0 0 0 0 0 6 11 7 12 0 4 5 4 0 0 0 0 0 0 0 0 0 0 0 0 0 0 0 0 0 0 0 0 0 0 0 0 0 0 0 0 0 0 0 0 0 0 0 0 0 0 4 16 21 35 36 35 40 32 31 26 11 15 4 11 15 22 26 31 28 20 10 22 10 28 20 28 25 15 11 11 1 7 7 8 11 13 16 17 19 14 6 0 0 0 0 0 0 8 7 13 2 4 1 4 0 0 0 0 0 0 0 0 0 0 0 0 0 0 0 0 0 0 0 0 0 0 0 0 0 0 0 0 0 0 0 0 0 0 0 0 0 0 0 10 23 28 31 31 36 32 27 26 16 19 12 20 30 36 33 34 33 24 12 12 8 16 11 13 16 0 0 0 0 0 0 0 0 4 7 9 15 16 9 6 0 0 0 0 0 2 0 5 7 2 0 0 0 0 0 0 0 0 0 0 0 0 0 0 0 0 0 0 0 0 0 0 0 0 0 0 0 0 0 0 0 0 0 0 0 0 0 0 0 0 0 6 19 25 28 27 33 31 23 24 16 16 16 26 38 37 34 34 35 29 20 16 16 13 2 3 0 0 0 0 0 0 0 0 0 1 3 6 13 11 12 4 1 0 0 0 0 0 0 0 0 0 0 0 0 0 0 0 0 0 0 0 0 0 0 0 0 0 0 0 0 0 0 0 0 0 0 0 0 0 0 0 0 0 0 0 0 0 0 0 0 0 0 2 17 20 19 27 31 25 28 23 14 19 22 29 39 34 30 32 33 23 21 16 15 7 0 0 0 0 0 0 0 0 0 0 0 0 0 5 4 7 13 7 2 0 0 0 0 0 0 0 0 0 0 0 0 0 0 0 0 0 0 0 0 0 0 0 0 0 0 0 0 0 0 0 0 0 0 0 0 0 0 0 0 0 0 0 0 0 0 0 0 0 0 0 13 16 17 19 29 22 23 26 19 18 30 35 38 33 28 25 22 15 17 11 7 0 0 0 0 0 0 0 0 0 0 0 0 0 0 0 3 4 12 10 8 0 0 0 0 0 0 0 0 0 0 0 0 0 0 0 0 0 0 0 0 0 0 0 0 0 0 0 0 0 0 0 0 0 0 0 0 0 0 0 0 0 0 0 0 0 0 0 0 0 0 0 8 16 13 18 21 23 22 26 24 24 29 35 41 33 24 17 21 21 14 7 0 0 0 0 0 0 0 0 0 0 0 0 0 0 0 0 0 4 10 10 10 0 0 0 0 0 0 0 0 0 0 0 0 0 0 0 0 0 0 0 0 0 0 0 0 0 0 0 0 0 0 0 0 0 0 0 0 0 0 0 0 0 0 0 0 0 0 0 0 0 0 0 4 14 16 9 22 18 23 23 25 33 30 35 42 31 24 29 36 21 11 3 0 0 0 0 0 0 0 0 0 0 0 0 0 0 0 0 2 2 7 2 4 0 0 0 0 0 0 0 0 0 0 0 0 0 0 0 0 0 0 0 0 0 0 0 0 0 0 0 0 0 0 0 0 0 0 0 0 0 0 0 0 0 0 0 0 0 0 0 0 0 0 0 0 12 13 9 15 19 21 23 23 31 35 36 37 36 34 33 34 18 10 2 0 0 0 0 0 0 0 0 0 0 0 0 0 0 0 0 0 0 0 0 0 0 0 0 0 0 0 0 0 0 0 0 0 0 0 0 0 0 0 0 0 0 0 0 0 0 0 0 0 0 0 0 0 0 0 0 0 0 0 0 0 0 0 0 0 0 0 0 0 0 0 0 0 3 16 6 7 11 20 17 29 22 33 37 39 40 32 31 25 14 10 5 0 0 0 0 0 0 0 0 0 0 0 0 0 0 0 0 0 0 0 0 0 0 0 0 0 0 0 0 0 0 0 0 0 0 0 0 0 0 0 0 0 0 0 0 0 0 0 0 0 0 0 0 0 0 0 0 0 0 0 0 0 0 0 0 0 0 0 0 0 0 0 0 0 0 14 4 0 0 7 14 13 18 22 29 33 32 25 27 23 14 12 10 0 0 0 0 0 0 0 0 0 0 0 0 0 0 0 0 0 1 0 0 0 0 0 0 0 0 0 0 0 0 0 0 0 0 0 0 0 0 0 0 0 0 0 0 0 0 0 0 0 0 0 0 0 0 0 0 0 0 0 0 0 0 0 0 0 0 0 0 0 0 0 0 0 0 7 3 0 0 0 5 0 11 12 21 25 24 18 15 14 7 9 0 0 0 0 0 0 0 0 0 0 0 0 0 0 0 0 0 0 0 0 0 0 0 0 0 0 0 0 0 0 0 0 0 0 0 0 0 0 0 0 0 0 0 0 0 0 0 0 0 0 0 0 0 0 0 0 0 0 0 0 0 0 0 0 0 0 0 0 0 0 6 0 0 0 0 4 6 0 0 0 0 0 0 11 12 19 19 15 11 11 9 1 0 0 0 0 0 0 0 0 0 0 0 0 0 0 0 0 0 0 0 0 0 0 0 0 0 0 0 0 0 0 0 0 0 0 0 0 0 0 0 0 0 0 0 0 0 0 0 0 0 0 0 0 0 0 0 0 0 0 0 0 0 0 0 0 0 0 0 0 0 0 12 0 0 0 0 0 0 0 0 0 0 0 0 7 7 11 16 12 8 3 3 0 0 0 0 0 0 0 0 0 0 0 0 0 0 0 0 0 0 0 0 0 0 0 0 0 0 0 0 0 0 0 0 0 0 0 0 0 0 0 0 0 0 0 0 0 0 0 0 0 0 0 0 0 0 0 0 0 0 0 0 0 0 0 0 0 0 0 0 0 0 6 24 1 0 0 0 0 0 0 0 0 0 0 0 0 0 5 8 3 0 0 1 0 0 0 0 0 0 0 0 0 0 0 0 0 0 0 0 0 0 0 0 0 0 0 0 0 0 0 0 0 0 0 0 0 0 0 0 0 0 0 0 0 0 0 0 0 0 0 0 0 0 0 0 0 0 0 0 0 0 0 0 0 0 0 0 0 0 0 0 0 4 26 23 31 17 5 0 0 0 0 0 0 0 0 0 0 0 5 4 0 0 0 0 0 0 0 0 0 0 0 0 0 0 0 0 0 0 0 0 0 0 0 0 0 0 0 0 0 0 0 0 0 0 0 0 0 0 0 0 0 0 0 0 0 0 0 0 0 0 0 0 0 0 0 0 0 0 0 0 0 0 0 0 0 0 0 3 0 2 0 0 0 28 14 25 61 34 10 0 0 0 0 0 0 0 0 0 0 0 3 0 0 0 0 0 0 0 0 0 0 0 0 0 0 0 0 0 0 0 0 0 0 0 0 0 0 0 0 0 0 0 0 0 0 0 0 0 0 0 0 0 0 0 0 0 0 0 0 0 0 0 0 0 0 0 0 0 0 0 0 0 0 0 0 0 0 0 1 0 2 1 0 0 19 17 11 41 59 53 14 0 0 0 0 0 0 0 0 0 0 0 1 0 0 0 0 0 0 0 0 0 0 0 0 0 0 0 0 0 0 0 0 0 0 0 0 0 0 0 0 0 0 0 0 0 0 0 0 0 0 0 0 0 0 0 0 0 0 0 0 0 0 0 0 0 0 0 0 0 0 0 0 0 0 0 0 0 0 0 1 4 4 0 5 18 4 17 29 42 62 56 29 19 0 0 0 0 0 0 0 0 0 0 0 0 0 0 0 0 0 0 0 0 0 0 0 0 0 0 0 0 0 0 0 0 0 0 0 0 0 0 0 0 0 0 0 0 0 0 0 0 0 0 0 0 2 0 0 0 0 0 0 0 0 0 0 0 0 0 0 0 0 0 0 0 0 0 0 0 0 0 5 8 1 8 27 0 1 36 32 46 61 47 40 39 11 0 0 0 0 0 0 0 0 0 0 0 0 0 0 0 0 0 0 0 0 0 0 0 0 0 0 0 0 0 0 0 0 0 0 0 0 0 0 0 0 0 0 0 0 0 0 0 0 10 0 0 2 6 0 0 0 0 0 0 0 0 0 0 0 0 0 0 0 0 0 0 0 0 0 0 0 0 3 7 0 29 12 0 19 42 35 47 54 47 37 50 28 0 0 0 0 0 0 0 0 0 0 0 0 0 0 0 0 0 0 0 0 0 0 0 0 0 0 0 0 0 0 0 0 0 0 0 0 0 0 0 0 0 0 0 0 0 0 0 6 14 10 0 0 14 0 0 0 0 0 0 0 0 0 0 0 0 0 0 0 0 0 0 0 0 0 0 0 0 6 0 19 20 0 0 24 43 35 37 53 44 39 44 48 25 9 0 0 0 0 0 0 0 0 0 0 0 0 0 0 0 0 0 0 0 0 0 0 0 0 0 0 0 0 0 0 0 0 0 0 0 0 0 0 0 0 0 0 0 0 0 11 15 26 6 0 0 10 0 0 0 0 0 0 0 0 0 0 0 0 0 0 0 0 0 0 0 0 0 0 0 3 16 28 0 0 14 23 46 32 23 49 50 36 36 50 52 21 12 0 0 0 0 0 0 0 0 0 0 0 0 0 0 0 0 0 0 0 0 0 0 0 0 0 0 0 0 0 0 0 0 0 0 0 0 0 0 0 0 0 0 0 10 12 5 22 18 0 0 0 0 0 0 0 0 0 0 0 0 0 0 0 0 0 0 0 0 0 0 0 5 0 12 29 20 13 5 21 24 31 39 23 9 48 50 39 28 47 57 42 27 3 0 0 0 0 0 0 0 0 0 0 0 0 0 0 0 0 0 0 0 0 0 0 0 0 0 0 0 0 0 0 0 0 0 0 0 0 0 0 0 0 0 7 13 9 0 18 13 5 0 0 0 0 0 0 0 0 0 0 0 0 0 0 0 0 0 0 0 0 13 15 5 26 32 29 26 29 28 38 30 25 25 29 0 38 48 40 24 45 52 51 38 28 0 0 0 0 0 0 0 0 0 0 0 0 0 0 0 0 0 0 0 0 0 0 0 0 0 0 0 0 0 0 0 0 0 0 0 0 0 0 0 0 1 11 16 3 0 14 8 13 1 0 0 0 0 0 0 0 0 0 0 0 0 0 0 0 0 0 0 