P2
92
112
255
20 20 20 21 22 20 22 21 20 17 14 12 10 5 3 0 0 0 4 8 12 9 14 17 17 32 33 35 39 32 37 37 35 47 44 41 40 49 37 39 45 39 41 43 36 44 38 41 41 23 19 15 9 5 5 6 4 0 0 0 0 0 0 0 0 0 0 0 0 0 0 0 3 13 18 22 26 26 27 26 25 26 25 24 25 24 25 24 24 25 24 25 21 20 21 21 21 21 21 18 16 12 10 7 2 0 0 0 2 1 5 14 17 16 21 25 27 31 44 44 44 45 39 47 35 45 46 33 34 46 40 43 45 43 33 41 40 38 41 46 40 34 30 20 10 16 14 17 10 4 0 0 0 0 0 0 0 0 0 0 0 0 0 0 0 0 10 18 22 26 27 26 26 25 26 25 25 24 25 24 23 25 25 25 20 20 21 21 20 20 18 14 10 7 2 0 0 0 0 0 0 3 6 15 19 19 24 32 35 39 46 47 46 44 36 39 40 44 39 32 35 40 37 40 45 42 31 34 41 43 40 39 33 44 36 17 15 20 23 22 11 7 1 0 1 2 0 0 0 0 0 0 0 0 0 0 0 0 0 6 18 22 27 28 27 26 26 26 25 26 24 25 24 25 25 24 21 20 21 20 21 18 13 7 3 0 0 0 0 0 0 0 0 7 13 18 23 24 23 30 41 40 46 42 45 42 34 36 45 34 33 30 30 39 33 38 41 45 31 29 40 46 40 31 25 43 36 16 25 24 28 24 12 4 6 5 1 1 0 0 0 0 0 0 0 0 0 0 0 0 0 0 0 16 23 27 26 27 27 25 26 25 25 24 25 24 25 24 21 20 21 20 17 8 5 1 0 0 0 0 0 0 0 0 6 18 22 23 27 29 35 35 36 38 38 43 38 37 29 30 36 39 23 26 36 30 28 29 41 42 28 25 36 48 34 21 16 36 31 21 27 30 29 23 13 8 9 8 5 4 0 0 0 0 0 0 0 0 0 0 0 0 0 0 0 0 16 26 26 28 26 26 26 26 26 23 25 24 25 24 21 20 20 16 10 2 0 0 0 0 0 0 0 0 0 5 15 27 33 35 36 39 44 47 46 40 36 38 36 33 26 27 28 28 26 22 28 33 21 21 37 37 23 16 30 43 31 16 12 29 29 25 25 26 28 23 17 11 9 10 4 3 2 3 0 0 0 0 0 0 0 0 0 0 0 0 0 0 0 19 26 27 27 26 27 25 26 25 26 22 25 24 20 20 19 10 3 0 0 0 0 0 0 0 0 0 9 16 26 31 35 38 41 46 46 47 47 39 30 32 32 30 25 21 30 23 20 20 24 29 19 18 32 33 20 8 19 33 27 13 16 30 29 24 21 22 27 25 16 13 14 10 4 2 1 0 2 0 0 0 0 0 0 0 0 1 0 0 0 0 0 0 20 27 29 27 27 26 27 26 25 23 26 23 19 21 9 0 0 0 0 0 0 0 0 0 2 11 21 29 33 33 38 40 44 44 46 46 41 40 31 20 20 17 17 16 20 23 16 14 23 24 22 16 28 28 18 4 12 28 31 15 22 29 27 21 18 24 29 25 18 17 18 10 7 4 1 0 0 2 3 1 0 0 0 0 0 0 2 0 0 0 0 0 0 21 29 26 28 27 25 26 26 24 25 23 22 15 2 0 0 0 0 0 0 1 1 3 13 24 27 29 26 32 34 38 40 42 43 43 36 34 30 23 16 12 7 18 19 16 13 10 18 25 15 16 23 20 14 7 14 25 30 20 20 26 22 22 24 28 26 25 20 19 18 14 15 12 5 0 2 3 3 5 4 3 0 0 0 0 0 0 0 0 0 0 0 1 24 27 28 26 27 26 27 23 25 23 19 6 0 0 1 0 0 1 4 0 11 19 27 29 29 32 30 32 33 29 32 33 32 26 26 17 12 10 9 7 2 7 18 14 3 8 14 20 16 16 18 15 14 12 15 22 23 20 15 22 25 28 27 27 26 24 23 21 20 19 17 15 10 8 7 8 7 5 6 10 6 1 0 0 0 0 0 0 0 0 0 0 7 26 30 27 28 28 26 25 24 23 10 0 0 3 0 0 2 5 9 14 17 20 21 26 32 35 39 37 35 34 32 31 31 22 18 17 7 4 0 4 4 3 8 12 6 5 15 13 15 11 14 15 15 12 14 19 17 18 22 22 25 26 28 26 23 25 26 27 25 23 21 19 10 9 11 9 13 11 12 10 11 8 3 0 0 0 0 0 0 0 0 0 0 13 28 29 27 28 25 25 25 25 5 0 3 0 0 3 5 4 9 14 19 24 27 32 32 29 33 29 28 27 21 18 13 9 5 5 1 0 0 2 0 0 6 6 7 5 13 10 12 12 17 19 16 13 19 21 20 25 29 20 20 19 23 23 32 36 35 32 29 25 23 18 14 13 14 11 14 10 14 15 11 11 11 8 5 4 0 0 0 0 0 0 0 0 18 29 29 28 28 25 26 26 2 2 2 0 1 1 7 6 12 17 17 17 21 25 31 26 27 29 28 29 24 19 13 8 0 0 2 0 0 0 3 0 5 7 8 6 12 11 13 15 20 22 16 17 21 22 19 22 24 16 13 21 28 35 36 35 36 34 30 26 22 18 16 15 19 20 21 20 16 15 12 14 12 9 14 10 2 1 0 0 0 0 0 0 0 22 29 30 28 27 25 26 0 0 1 0 2 6 7 10 21 21 20 16 21 23 21 20 23 16 16 18 21 16 16 11 11 6 4 3 3 3 5 3 9 11 11 15 16 20 17 22 25 24 21 19 22 21 15 23 21 19 21 29 30 36 37 33 33 36 32 29 26 27 21 19 21 17 15 19 18 22 19 17 15 17 14 13 9 7 6 0 0 0 0 0 0 1 23 30 29 27 26 26 0 4 5 3 8 11 17 19 18 14 16 20 19 22 23 26 28 22 17 14 12 10 11 12 12 13 14 11 9 11 15 15 16 19 20 22 25 28 28 24 26 28 26 19 22 24 21 23 23 22 24 26 30 34 36 33 33 42 36 31 30 24 22 20 20 18 23 22 19 25 22 19 22 18 17 15 16 12 6 9 1 0 0 0 0 0 8 26 30 28 27 26 3 7 6 9 11 15 23 22 21 27 30 28 25 25 23 23 21 21 20 17 15 13 13 12 14 15 19 20 20 22 23 25 29 31 35 33 36 41 39 32 31 32 28 22 30 30 23 26 26 21 22 23 27 28 30 34 35 39 35 33 31 23 22 19 17 14 14 18 21 27 26 22 25 21 18 18 20 19 12 8 8 8 0 0 0 0 0 9 29 30 28 29 4 4 6 13 18 20 21 22 21 24 29 31 28 29 26 25 19 18 17 19 18 18 17 23 21 24 25 28 27 30 33 35 39 44 45 46 48 47 46 40 37 37 32 30 34 30 26 24 22 21 20 24 27 31 32 35 34 36 33 28 24 20 14 14 14 15 12 14 17 18 20 22 24 23 22 20 20 16 17 13 11 9 10 0 0 0 0 0 9 27 30 28 5 8 21 23 23 26 23 28 33 32 32 27 24 25 20 22 19 17 17 21 23 21 23 29 29 32 31 32 32 39 41 45 51 57 57 56 58 56 53 49 49 48 45 42 42 38 33 30 30 27 25 29 28 29 32 34 33 34 32 29 25 20 17 12 12 12 8 4 7 10 12 16 18 19 20 18 19 21 15 15 17 12 8 7 0 0 0 0 0 8 30 28 13 23 32 32 32 32 37 37 35 32 26 17 15 16 16 17 16 15 18 22 24 26 29 32 34 35 36 39 43 46 50 55 60 64 65 64 62 62 62 60 59 57 55 51 49 45 44 40 38 34 30 29 27 26 28 29 28 29 31 31 28 22 19 18 10 10 9 5 4 7 8 15 19 15 22 16 18 20 22 18 13 21 11 7 8 0 0 0 0 0 15 29 23 29 34 32 39 43 41 39 37 35 27 18 13 10 11 16 17 18 21 25 26 27 33 34 35 39 42 47 50 55 59 62 66 68 68 68 66 64 65 63 65 63 62 58 55 52 50 47 41 39 37 33 31 29 32 34 33 34 32 31 26 23 19 15 9 9 4 0 4 1 4 8 14 12 13 22 26 26 28 29 23 16 19 12 11 4 0 0 0 0 0 24 26 31 32 35 39 41 35 33 29 26 22 17 16 14 14 14 15 18 23 25 28 30 38 40 43 47 50 54 58 62 64 66 67 68 67 67 66 66 65 66 65 63 62 60 58 56 53 49 45 42 40 37 35 37 38 37 36 36 33 31 27 25 20 14 11 7 4 2 0 0 0 5 5 7 6 12 20 29 27 28 28 22 18 19 13 11 1 0 0 0 0 10 26 30 32 38 39 41 34 32 31 21 14 15 15 15 17 18 20 24 25 31 34 38 45 48 50 54 58 60 63 64 65 65 65 66 65 65 65 64 64 64 63 64 62 61 58 56 54 48 45 42 40 41 41 40 42 39 37 36 34 31 26 23 20 17 12 10 3 0 0 0 0 0 0 0 0 1 7 16 20 25 30 27 24 14 21 12 6 0 0 0 0 0 37 40 41 44 41 40 32 27 23 18 12 13 17 17 19 23 26 27 31 35 39 44 50 53 53 58 59 61 63 62 63 62 62 63 62 62 60 61 61 60 61 61 61 60 59 56 56 51 46 46 43 41 42 41 43 42 42 40 39 37 35 32 26 23 20 13 8 6 0 0 0 0 0 0 0 1 6 17 21 27 29 27 30 22 15 20 10 8 0 0 0 0 37 45 48 48 43 45 34 29 24 22 18 22 22 21 24 25 29 35 37 42 46 48 53 54 55 57 58 59 59 59 60 59 59 58 57 57 57 58 57 57 57 57 57 56 55 55 54 55 51 51 49 47 46 43 42 42 42 44 42 41 40 38 37 34 29 24 19 11 7 2 0 0 0 0 0 0 5 16 26 28 32 26 27 32 23 23 14 12 0 0 0 0 41 48 46 45 42 38 26 23 20 21 24 23 23 26 30 33 36 43 43 48 50 51 53 54 54 55 55 54 56 55 55 55 54 53 53 53 52 53 53 52 53 52 52 52 51 52 51 52 50 50 50 50 49 47 46 46 43 43 41 40 42 43 43 41 36 31 27 19 13 7 2 0 0 0 0 0 0 9 23 27 21 32 27 24 34 26 18 9 5 1 0 0 37 44 46 41 36 29 25 26 25 26 25 25 29 34 37 40 44 47 50 51 52 51 52 52 51 51 51 52 51 50 50 50 49 48 49 48 48 47 48 48 48 47 48 48 48 48 48 48 46 45 47 47 46 45 45 45 46 46 46 40 41 41 43 44 43 38 33 28 20 16 10 4 0 0 0 0 0 4 13 22 25 17 26 26 26 30 25 11 6 4 2 1 39 42 34 33 30 24 25 24 25 29 28 33 36 39 40 46 51 53 51 52 51 49 49 49 48 48 48 47 47 46 46 46 45 44 45 45 44 43 43 44 43 44 43 44 44 44 43 43 44 44 45 45 45 45 45 45 44 43 45 44 44 42 42 41 42 39 37 32 27 21 17 10 3 0 0 0 0 3 9 15 20 24 14 26 25 26 28 21 5 0 1 0 41 43 37 34 30 29 30 29 29 31 34 40 41 40 45 52 54 53 50 50 49 46 46 45 44 44 44 43 43 43 43 43 42 42 41 41 39 39 39 40 40 40 40 40 39 40 39 40 41 40 42 41 41 43 45 45 44 43 43 43 43 44 45 41 39 39 38 34 31 26 22 17 10 2 0 0 0 0 8 12 18 25 19 19 28 23 23 21 13 0 0 0 43 43 40 35 35 32 36 32 29 39 39 40 43 43 50 54 53 50 49 46 45 44 43 42 41 41 40 39 40 39 39 39 39 39 38 37 36 37 36 36 37 37 36 36 35 35 36 36 37 37 37 40 39 40 42 43 44 44 42 42 41 42 44 41 40 38 37 36 35 31 28 23 19 8 0 0 0 0 3 9 12 19 23 20 29 29 27 21 14 2 0 0 36 42 42 40 35 35 39 35 33 38 39 39 43 45 50 52 50 48 46 44 43 41 40 39 38 38 37 37 37 37 36 36 36 36 35 35 34 34 33 34 34 34 33 34 33 33 33 33 33 34 34 35 36 37 38 39 40 41 42 41 41 42 41 40 39 38 36 36 36 34 33 29 24 20 7 0 0 0 0 4 5 14 22 28 30 35 32 23 16 9 0 0 47 48 45 42 35 33 36 38 37 37 39 41 42 48 51 49 48 45 43 42 40 37 36 35 35 35 36 35 34 34 34 34 34 34 34 33 33 31 32 32 31 32 31 31 32 30 30 31 30 32 31 32 33 34 35 36 37 39 38 40 40 39 40 37 37 37 36 34 36 36 35 33 28 21 15 3 0 0 0 0 5 13 26 29 33 33 33 31 19 11 3 0 45 51 45 38 37 40 39 38 37 42 41 43 45 49 49 46 46 43 41 40 38 35 33 34 33 34 33 33 33 34 32 33 33 32 31 32 32 31 31 30 31 30 28 29 29 28 28 29 28 30 30 31 33 32 34 34 34 36 36 37 38 39 38 37 37 37 36 36 36 39 40 36 31 27 20 8 3 1 0 0 0 6 17 26 32 34 31 34 28 15 8 0 45 45 41 40 42 39 39 38 43 42 41 44 47 48 48 44 43 42 40 37 36 33 32 33 32 32 31 31 31 32 32 32 32 31 30 30 30 29 30 29 29 29 28 27 28 27 27 29 28 28 29 30 31 31 32 32 32 34 35 36 37 37 37 37 38 36 37 37 38 40 40 40 35 30 25 16 4 4 0 0 1 0 6 22 34 35 31 33 26 20 11 0 47 43 40 40 42 44 40 38 37 40 41 43 44 46 47 43 43 40 37 36 34 32 32 32 32 31 31 30 30 32 30 32 31 31 30 30 31 30 29 30 28 28 28 27 28 26 26 27 28 28 28 29 31 31 31 31 32 33 34 35 35 36 36 35 37 38 37 40 41 41 40 40 37 33 30 22 10 0 0 0 0 4 6 11 25 30 30 34 26 20 19 3 44 43 44 43 42 43 38 36 41 42 41 43 42 45 45 43 40 38 37 34 35 33 33 32 32 32 31 31 31 31 31 31 31 32 31 32 31 31 30 29 28 27 28 28 28 27 26 28 28 28 27 29 31 31 32 33 33 34 35 35 35 35 36 36 38 39 39 40 41 42 42 41 38 34 34 26 15 4 0 0 1 3 7 10 17 27 28 32 28 21 16 9 42 44 47 43 46 39 39 41 42 41 41 43 44 44 43 41 39 36 35 35 34 33 33 32 32 32 32 32 33 31 31 32 33 34 34 33 33 33 31 30 29 30 28 29 29 29 27 27 28 28 28 30 31 32 32 33 32 35 36 36 37 38 38 37 39 40 42 40 43 44 42 43 39 36 34 29 22 8 0 0 0 5 8 14 12 16 28 25 24 20 12 4 37 42 45 44 43 41 39 44 40 42 42 42 43 43 40 38 38 35 35 35 34 34 34 33 32 32 34 32 32 33 33 34 34 35 34 35 33 33 33 31 30 30 29 29 30 29 29 29 30 30 30 32 33 31 33 34 34 35 37 37 38 39 40 39 41 41 41 43 44 44 43 43 38 36 35 31 26 16 0 0 3 0 12 16 14 14 25 28 18 17 6 2 33 38 39 39 41 40 44 43 43 46 42 40 43 40 40 37 36 35 34 34 34 34 32 33 32 33 32 32 33 33 34 36 36 37 36 36 35 34 33 32 31 31 31 29 31 31 31 31 33 32 33 34 34 33 35 37 36 37 39 40 39 41 42 41 42 42 42 44 44 43 44 42 38 36 34 34 26 20 5 0 5 5 9 20 16 16 17 26 21 17 4 0 31 35 36 42 38 38 42 43 45 43 39 41 42 39 39 36 34 33 34 33 34 33 33 33 34 34 35 35 33 34 36 36 37 37 36 37 36 35 35 33 33 32 32 32 32 32 31 34 33 35 35 36 36 37 39 39 40 38 41 43 43 43 43 43 44 43 43 44 41 44 42 41 38 36 33 34 29 22 10 1 1 8 10 14 20 17 19 24 16 21 6 0 33 38 39 39 31 39 41 43 40 37 41 41 39 38 37 34 33 33 33 32 35 34 33 35 35 36 35 36 35 37 37 38 39 38 39 38 37 37 37 34 36 34 34 34 33 34 33 35 35 36 38 37 38 40 41 42 42 42 44 45 45 45 45 45 45 44 42 43 42 44 42 40 39 35 34 33 30 24 15 4 7 2 8 15 15 23 18 27 15 15 9 0 34 38 37 31 33 38 37 39 36 38 41 40 39 37 35 33 32 32 31 32 33 34 33 36 35 36 37 37 38 38 40 40 41 41 40 41 40 38 38 36 37 36 35 35 34 35 34 35 36 37 38 39 40 42 44 44 45 46 47 47 48 47 48 49 48 47 45 46 46 45 44 40 40 37 34 34 32 29 19 3 7 5 4 12 15 20 26 22 10 14 6 1 27 30 26 24 32 30 39 39 39 36 39 40 40 35 34 34 31 32 30 32 34 33 34 37 36 37 40 40 40 41 42 43 44 43 43 42 42 41 40 39 37 37 36 36 35 35 35 36 38 40 39 41 43 44 47 48 49 50 50 50 51 51 52 51 52 52 49 49 49 49 48 45 42 37 36 35 34 32 23 5 6 7 5 7 14 17 20 26 5 7 3 0 18 26 16 21 22 27 37 37 33 34 37 39 38 34 33 34 33 31 31 32 32 36 37 39 40 39 42 44 43 44 46 46 47 45 47 45 45 44 42 43 39 37 36 37 35 36 37 39 39 41 42 44 45 47 50 51 52 52 53 52 53 52 52 51 53 53 50 49 49 50 50 48 44 38 34 35 34 34 23 11 8 5 5 4 9 12 17 21 8 3 2 0 17 19 15 17 14 28 29 30 27 28 36 39 37 34 34 33 31 32 32 33 37 39 43 44 45 45 46 47 47 48 49 48 50 48 48 49 47 46 45 43 40 38 36 37 36 36 36 40 39 40 41 42 43 46 49 50 52 51 51 50 50 49 50 50 51 52 53 50 49 50 49 49 44 40 37 37 33 33 26 12 12 1 4 3 8 5 12 15 6 0 0 0 17 14 14 13 12 23 23 23 24 27 36 38 37 35 33 33 31 34 34 37 39 42 46 47 46 47 46 46 46 48 49 48 49 50 49 49 48 47 45 43 42 40 39 37 38 38 37 38 37 40 38 38 41 42 45 43 45 47 46 47 47 49 49 48 51 52 51 52 51 50 49 47 45 38 37 37 33 32 28 12 16 1 4 0 10 4 4 12 2 0 0 0 13 11 12 5 10 15 16 20 21 27 35 37 36 34 32 32 33 34 34 37 38 40 42 42 41 41 40 40 40 41 41 42 43 44 43 45 44 43 43 41 40 38 36 36 36 35 35 36 35 37 36 36 38 40 39 36 39 40 39 39 41 43 46 45 49 48 49 50 49 50 46 45 44 42 36 36 35 30 27 13 18 5 1 0 6 5 7 7 0 0 0 0 11 5 3 0 5 8 10 19 17 26 33 35 33 31 28 29 29 30 29 31 29 33 33 30 28 28 27 25 25 24 24 26 29 31 31 33 36 35 36 38 35 36 33 33 33 30 31 31 27 28 26 28 28 31 30 28 28 30 30 29 33 36 35 34 38 36 41 42 42 42 44 44 40 42 36 32 33 30 26 15 14 4 0 0 1 0 11 3 0 0 0 0 4 0 0 0 3 0 6 16 16 24 28 31 26 24 21 20 20 20 18 19 19 18 18 12 11 9 11 9 8 7 4 8 10 13 13 17 21 21 25 30 30 33 30 29 29 27 28 26 25 22 20 22 19 18 20 16 15 15 14 13 14 17 16 18 20 23 24 25 28 28 30 34 35 35 32 31 27 29 26 18 12 1 0 0 0 0 3 0 0 0 0 0 0 0 0 0 0 0 4 11 13 21 23 25 19 16 13 8 5 8 8 10 9 5 5 1 0 0 0 0 0 0 0 0 0 0 0 6 2 11 13 19 22 24 24 24 23 23 24 21 22 19 16 14 9 9 9 2 0 0 0 0 0 0 0 0 0 0 2 4 6 9 12 17 19 24 25 22 22 29 26 17 18 0 0 0 0 0 0 0 0 0 0 0 0 0 0 0 0 0 2 8 10 17 17 21 16 9 3 0 0 0 0 0 0 0 0 0 0 0 0 0 0 0 0 0 0 0 0 0 0 0 3 8 14 15 17 18 21 19 20 19 19 16 11 9 3 1 0 0 0 0 0 0 0 0 0 0 0 0 0 0 0 0 0 0 6 9 16 13 11 21 23 16 17 0 0 0 0 0 0 0 0 0 0 0 0 0 0 0 0 0 0 2 8 14 14 14 10 0 0 0 0 0 0 0 0 0 0 0 0 0 0 0 0 0 0 0 0 0 0 0 0 0 0 0 5 9 12 13 14 16 17 17 16 10 7 1 0 0 0 0 0 0 0 0 0 0 0 0 0 0 0 0 0 0 0 0 0 0 3 6 6 13 17 14 15 0 0 0 0 0 0 0 0 0 0 0 0 0 0 0 0 0 0 0 7 10 13 8 0 0 0 0 0 0 0 0 0 0 0 0 0 0 0 0 0 0 0 0 0 0 0 0 0 0 0 0 0 3 6 9 10 12 15 13 11 5 1 0 0 0 0 0 0 0 0 0 0 0 0 0 0 0 0 0 0 0 0 0 0 0 0 0 1 12 14 11 10 0 0 0 0 0 0 0 0 0 0 0 0 0 0 0 0 0 0 0 6 9 9 3 0 0 0 0 0 0 0 0 0 0 0 0 0 0 0 0 0 0 0 0 0 0 0 0 0 0 0 0 0 0 0 5 7 11 13 13 9 4 0 0 0 0 0 0 0 0 0 0 0 0 0 0 0 0 0 0 0 0 0 0 0 0 0 0 0 11 16 10 11 0 0 0 0 0 0 0 0 0 0 0 0 0 0 0 0 0 0 0 2 10 10 0 0 0 0 0 0 0 0 0 0 0 0 0 0 0 0 0 0 0 0 0 0 0 0 0 0 0 0 0 0 0 0 3 8 13 15 12 8 1 0 0 0 0 0 0 0 0 0 0 0 0 0 0 0 0 0 0 0 0 0 0 0 0 0 0 3 13 19 10 12 0 0 0 0 0 0 0 0 0 0 0 0 0 0 0 0 0 0 0 0 6 8 2 0 0 0 0 0 0 0 0 0 0 0 0 0 0 0 0 0 0 0 0 0 0 0 0 0 0 0 0 0 0 0 1 5 12 15 15 9 4 0 0 0 0 0 0 0 0 0 0 0 0 0 0 0 0 0 0 0 0 0 0 0 0 0 0 6 13 18 13 13 0 0 0 0 0 0 0 0 0 0 0 0 0 0 0 0 0 0 0 0 4 6 2 0 0 0 0 0 0 0 0 0 0 0 0 0 0 0 0 0 0 0 0 0 0 0 0 0 0 0 0 0 0 0 2 13 20 21 22 16 9 1 0 0 0 0 0 0 0 0 0 0 0 0 0 0 0 0 0 0 0 0 0 0 0 0 0 6 12 16 13 15 0 0 0 0 0 0 0 0 0 0 0 0 0 0 0 0 0 0 0 0 2 5 0 0 0 0 0 0 0 0 0 0 0 0 0 0 0 0 0 0 0 0 0 0 0 0 0 0 0 0 0 0 0 0 3 15 24 27 25 19 10 3 0 0 0 0 0 0 0 0 0 0 0 0 0 0 0 0 0 0 0 0 0 0 0 0 0 5 12 17 14 16 3 0 0 0 0 0 0 0 0 0 0 0 0 0 0 0 0 0 0 1 4 6 3 0 0 0 0 0 0 0 0 0 0 0 0 0 0 0 0 0 0 0 0 0 0 0 0 0 0 0 0 0 0 0 7 17 26 33 29 24 13 6 0 0 0 0 0 0 0 0 0 0 0 0 0 0 0 0 0 0 0 0 0 0 0 0 0 5 11 16 13 15 3 0 0 0 0 0 0 0 0 0 0 0 0 0 0 0 0 0 0 0 4 5 4 0 0 0 0 0 0 0 0 0 0 0 0 0 0 0 0 0 0 0 0 0 0 0 0 0 0 0 0 0 0 1 10 21 29 32 30 27 15 6 2 0 0 0 0 0 0 0 0 0 0 0 0 0 0 0 0 0 0 0 0 0 0 0 0 7 12 15 10 16 3 0 0 0 0 0 0 0 0 0 0 0 0 0 0 0 0 0 0 0 6 11 8 2 0 0 0 0 0 0 0 0 0 0 0 0 0 0 0 0 0 0 0 0 0 0 0 0 0 0 0 0 0 7 14 23 31 30 31 27 17 7 1 0 0 0 0 0 0 0 0 0 0 0 0 0 0 0 0 0 0 0 0 0 0 0 4 10 11 14 13 12 3 0 0 0 0 0 0 0 0 0 0 0 0 0 0 0 0 0 0 0 5 17 12 7 1 0 0 0 0 0 0 0 0 0 0 0 0 0 0 0 0 0 0 0 0 0 0 0 0 0 0 0 1 10 17 24 31 33 33 27 20 12 6 0 0 0 0 0 0 0 0 0 0 0 0 0 0 0 0 0 0 0 0 0 0 2 9 14 15 17 12 11 0 0 0 0 0 0 0 0 0 0 0 0 0 0 0 0 0 0 0 0 4 18 13 7 6 3 0 0 0 0 0 0 0 0 0 0 0 0 0 0 0 0 0 0 0 0 0 0 0 4 5 2 6 11 17 24 30 33 36 31 21 14 10 2 0 0 0 0 0 0 0 0 0 0 0 0 0 0 0 0 0 0 0 0 0 4 12 15 19 21 14 8 0 0 0 0 0 0 0 0 0 0 0 0 0 0 0 0 0 0 0 0 2 14 14 11 9 6 3 0 0 0 0 0 0 0 0 0 0 0 0 0 0 0 0 0 0 0 0 0 3 7 8 8 8 10 16 21 29 32 35 32 25 15 13 9 4 0 0 0 0 0 0 0 0 0 0 0 0 0 0 0 0 0 0 0 5 8 12 15 20 21 13 6 0 0 0 0 0 0 0 0 0 0 0 2 0 0 0 0 0 0 0 0 0 13 16 15 8 4 7 6 3 0 0 0 0 0 0 0 0 0 0 0 0 0 0 0 0 0 0 5 9 11 15 14 12 11 14 21 25 31 35 32 25 19 16 13 10 7 6 4 0 0 0 0 0 0 0 0 0 0 0 0 0 0 0 3 7 10 14 16 19 20 12 2 0 0 0 0 0 0 0 0 0 0 0 6 0 0 0 0 0 0 0 0 0 11 14 14 12 9 12 11 11 5 2 1 0 0 0 0 0 0 0 0 0 0 0 0 0 1 2 10 14 17 17 16 13 10 15 21 26 31 35 34 28 20 18 15 13 13 14 12 9 4 4 1 0 0 0 0 0 0 0 0 0 3 6 8 12 15 14 17 20 20 11 2 0 0 0 0 0 0 0 0 0 0 0 9 0 0 0 0 0 0 0 0 0 8 10 13 15 16 15 16 18 16 11 11 9 9 7 2 1 1 0 2 4 7 8 8 7 8 10 16 18 20 19 17 15 11 15 22 27 32 37 35 32 24 20 16 16 15 18 19 15 12 12 10 10 9 6 6 7 7 9 8 8 9 12 14 17 20 20 21 20 23 12 3 0 0 0 0 0 0 0 0 0 0 0 14 3 0 0 0 0 0 0 0 0 4 10 13 16 15 18 17 19 19 17 17 15 15 14 12 10 11 9 11 12 14 14 14 15 15 16 18 20 20 19 19 16 15 18 23 29 35 39 40 36 31 25 20 19 16 22 22 20 21 21 20 19 18 17 15 16 17 15 16 15 18 17 20 20 23 23 22 21 20 10 2 0 0 0 0 0 0 0 0 0 0 0 21 11 2 6 0 0 0 0 0 0 0 10 12 13 12 17 17 18 19 18 19 18 19 18 17 16 17 16 17 20 21 21 20 18 17 17 20 21 20 20 20 19 19 21 28 32 38 41 44 40 34 31 24 21 17 21 22 22 25 26 27 26 27 24 24 23 23 22 22 20 20 22 19 23 24 24 22 20 19 7 1 0 0 0 0 0 0 0 0 0 0 0 28 11 8 20 0 0 0 0 0 0 0 7 9 10 11 14 16 18 18 20 20 20 22 22 22 22 20 21 21 23 22 21 22 20 21 19 22 22 20 19 21 24 26 26 31 34 40 44 45 43 40 37 28 23 19 17 19 21 24 27 28 28 31 30 30 29 28 26 26 27 26 25 23 25 25 25 21 19 20 5 0 0 0 0 0 0 0 0 0 0 0 0 33 14 8 24 3 0 0 0 0 0 0 4 6 9 11 14 15 18 17 21 21 23 23 23 23 21 22 22 22 23 22 21 21 21 21 20 21 20 17 19 25 29 29 32 34 38 41 44 45 45 41 39 33 25 19 14 9 13 16 23 26 28 30 32 33 31 32 30 30 29 29 28 26 26 27 23 21 21 17 2 0 0 0 0 0 0 0 0 0 0 0 0 38 20 6 27 15 0 0 0 0 0 0 1 4 8 10 13 15 16 17 19 22 22 24 23 23 23 20 22 21 23 23 19 21 19 17 17 18 18 18 22 29 31 33 37 41 42 47 48 46 47 44 39 33 28 22 16 10 5 8 14 20 25 25 30 31 31 33 31 32 32 32 30 28 27 27 23 21 20 13 1 0 0 0 0 0 0 0 0 0 0 0 0 37 28 9 28 21 1 0 0 0 0 0 0 4 8 9 12 13 17 17 19 20 23 23 22 23 23 19 19 20 22 21 17 17 15 14 14 15 18 21 26 31 34 37 42 45 48 54 55 53 48 47 44 35 30 25 18 16 6 3 5 10 16 22 25 28 28 32 32 32 32 31 30 28 27 25 21 18 20 10 0 0 0 0 0 0 0 0 4 0 0 1 0 32 31 17 27 20 4 0 0 0 0 0 0 0 6 7 10 12 14 16 17 19 20 20 23 21 20 18 16 19 18 13 6 6 4 6 8 11 18 21 27 31 33 41 44 48 50 57 59 58 48 48 46 39 28 22 20 14 8 3 4 9 11 17 21 24 27 29 31 31 31 28 28 27 25 23 20 17 18 7 0 0 0 0 0 0 0 0 10 0 3 6 0 25 23 28 35 21 3 0 0 0 0 0 0 0 3 4 6 11 12 14 15 18 19 19 20 18 17 16 10 13 14 4 0 0 0 0 3 2 14 17 22 26 32 41 46 46 49 52 58 60 52 45 45 39 28 19 17 13 5 4 3 9 10 12 16 19 24 25 29 28 28 26 25 24 22 21 19 15 17 5 0 0 0 0 0 0 0 3 17 5 1 11 4 27 26 34 36 23 2 0 0 0 0 0 0 0 0 1 4 6 10 11 13 15 18 18 17 15 14 14 8 7 8 0 0 0 0 0 4 0 9 10 11 14 20 31 38 43 44 44 47 54 49 38 37 30 23 15 12 10 5 1 1 4 9 8 10 16 19 22 25 25 24 23 21 20 19 17 17 13 16 3 2 0 0 0 0 0 0 7 22 10 4 11 10 27 39 35 32 29 2 0 0 0 0 0 0 0 0 0 0 3 5 8 10 15 14 16 14 14 13 13 8 4 2 0 0 0 0 0 5 0 0 3 5 3 2 6 18 28 32 32 35 41 36 28 25 16 10 8 3 6 7 0 1 3 7 4 7 9 15 17 20 19 21 19 17 16 16 14 15 13 14 3 6 0 0 0 0 0 0 11 27 17 11 12 11 33 41 38 29 32 0 0 0 0 0 0 0 0 0 0 0 0 1 4 9 11 13 12 11 12 13 10 6 1 0 0 0 3 5 1 0 0 0 0 0 0 0 0 0 0 9 14 20 23 20 11 10 5 2 5 0 0 4 0 0 7 9 7 5 6 9 11 15 15 17 16 15 13 13 11 12 13 10 3 10 0 0 1 0 0 0 16 31 26 17 12 9 49 49 38 32 26 0 0 0 0 0 0 0 0 0 0 0 0 0 0 5 8 8 7 10 10 9 5 1 0 0 0 0 3 8 6 0 0 0 0 0 0 0 0 0 0 0 0 0 0 0 0 0 0 0 0 0 0 0 0 1 9 11 10 7 6 4 5 9 11 12 12 13 10 9 7 10 13 4 4 13 0 0 3 0 4 0 19 34 30 26 15 10 60 52 41 36 26 2 0 0 0 0 0 0 0 0 0 0 0 0 0 0 4 3 2 7 8 6 3 1 1 5 4 2 4 9 11 10 0 0 0 0 0 0 0 0 0 0 0 0 0 0 0 0 0 0 0 0 0 0 0 5 11 13 11 9 6 4 1 4 6 9 9 10 7 6 6 10 14 3 9 14 0 0 3 3 11 4 21 37 34 29 22 15 58 49 35 36 26 1 0 0 0 0 0 0 0 0 0 0 0 0 0 0 0 0 0 5 6 3 2 0 4 11 10 4 8 12 17 20 10 0 0 0 0 0 0 0 0 0 0 0 0 0 0 0 0 0 0 0 0 0 2 10 14 15 14 9 9 4 2 2 3 5 8 7 7 5 7 9 14 0 12 16 0 0 0 6 18 11 23 41 37 31 30 15 52 40 35 37 17 3 0 0 0 0 0 0 0 0 0 0 0 0 0 0 0 0 0 1 2 1 0 2 8 12 11 10 12 15 22 23 20 7 0 0 0 0 0 0 0 0 0 0 0 0 0 0 0 0 0 0 1 4 11 13 17 18 18 14 9 6 4 1 1 5 6 6 7 5 9 10 12 0 17 13 0 0 0 14 23 17 28 41 43 29 36 28 46 36 39 30 12 8 3 0 0 0 0 0 0 0 0 0 0 0 0 0 0 0 0 0 0 0 0 5 10 13 15 18 19 20 23 26 27 18 4 0 0 0 0 0 0 0 0 0 0 0 0 0 0 0 0 3 10 16 17 14 15 19 21 20 15 7 7 2 2 3 5 5 5 7 11 15 10 1 20 10 0 0 0 20 30 23 28 42 49 37 30 39 38 39 42 22 11 14 2 0 0 0 0 0 0 0 0 0 0 0 0 0 0 0 0 0 0 0 4 8 12 13 18 25 24 23 27 29 31 28 15 6 1 0 0 0 0 0 0 0 0 0 0 0 0 3 8 16 20 20 22 16 11 17 18 20 18 11 6 3 4 3 4 7 5 8 14 17 8 5 20 7 0 0 0 26 34 29 26 44 52 45 29 38 44 45 31 21 17 13 0 0 0 0 0 0 0 0 0 0 0 0 0 0 0 0 0 0 0 0 8 10 12 17 22 25 27 26 30 32 35 34 29 18 10 8 5 0 0 0 0 0 0 0 2 8 10 12 19 23 21 23 22 21 13 13 15 16 18 11 9 4 3 4 6 9 6 11 16 18 7 11 19 0 0 0 0 25 35 33 26 42 52 50 29 37 45 34 29 28 24 8 0 0 0 0 0 0 0 0 0 0 0 0 0 0 0 0 0 0 0 1 9 8 11 19 22 23 26 28 31 32 35 36 31 27 17 9 11 3 1 3 5 5 8 9 8 12 14 16 20 20 19 23 21 20 15 11 10 12 12 12 11 9 6 7 8 10 10 14 21 19 10 14 14 0 0 0 3 17 36 38 28 35 53 57 37 28 35 31 34 32 23 2 0 0 0 0 0 0 0 0 0 0 0 0 0 0 0 0 0 0 0 2 8 7 10 13 16 20 23 23 24 25 28 29 27 25 20 10 10 9 7 7 8 10 10 8 7 9 10 14 13 15 13 14 13 10 6 2 0 3 7 11 13 12 10 10 12 8 15 17 25 17 11 16 6 0 0 0 4 14 28 39 29 34 49 57 53 29 33 33 38 29 13 2 0 0 0 0 0 0 0 0 0 1 0 0 0 0 0 0 0 0 0 1 5 4 4 0 2 6 9 5 6 5 10 11 12 11 7 4 0 2 0 4 4 6 5 3 1 2 2 6 7 6 7 7 1 0 0 0 0 2 6 10 14 13 14 14 12 11 17 21 25 14 16 10 0 0 0 0 7 13 20 36 35 28 47 53 59 47 34 35 34 18 8 1 0 0 0 0 0 0 0 0 0 0 0 0 1 0 2 3 2 2 1 3 3 0 0 0 0 0 0 0 0 0 0 0 0 0 0 0 0 0 0 0 0 0 0 0 0 0 0 0 0 0 0 0 0 0 0 0 0 6 9 12 15 15 20 18 13 13 19 24 19 10 18 3 0 0 0 0 7 15 20 24 36 26 38 57 57 59 37 31 21 12 5 0 0 0 1 0 0 0 0 0 0 0 0 0 1 1 4 5 4 4 4 2 0 0 0 0 0 0 0 0 0 0 0 0 0 0 0 0 0 0 0 0 0 0 0 0 0 0 0 0 0 0 0 0 0 0 0 0 0 3 7 12 13 18 21 18 14 15 20 22 8 10 3 0 0 0 0 0 0 13 17 29 23 34 27 49 60 57 31 19 10 4 0 0 0 6 8 0 0 0 0 0 0 0 0 0 0 2 5 8 7 3 3 0 0 0 0 0 0 0 0 0 0 0 0 0 0 0 0 0 0 0 0 0 0 0 0 0 0 0 0 0 0 0 0 0 0 0 4 10 5 2 5 12 14 19 20 17 13 15 22 13 4 5 0 0 0 0 0 0 0 13 16 26 26 29 26 35 54 60 16 8 2 0 0 0 1 8 3 0 0 0 0 0 0 0 0 0 0 0 1 5 6 1 2 0 0 0 0 0 0 0 0 0 0 0 0 0 0 0 0 0 0 0 0 0 0 0 0 0 0 0 0 0 0 0 0 0 0 0 7 13 11 9 10 13 18 17 17 13 13 16 15 0 1 0 0 0 0 0 0 0 0 0 18 18 28 29 24 27 43 53 7 5 0 0 0 0 2 0 0 0 0 0 0 0 0 0 0 0 0 0 0 0 4 1 1 0 1 5 6 2 2 0 0 0 0 0 0 0 0 0 0 0 0 0 0 0 0 0 0 0 0 0 0 0 0 0 0 0 0 1 12 16 19 18 18 17 18 15 14 10 12 14 1 0 0 0 0 0 0 0 0 0 0 0 10 18 18 32 29 21 29 43 7 6 0 0 0 0 0 0 0 0 0 0 0 0 0 0 0 0 0 0 0 0 0 2 0 0 4 10 13 13 11 7 7 4 0 0 0 0 0 0 0 0 0 0 0 0 0 0 0 0 0 0 0 0 0 0 0 0 2 8 15 18 21 21 23 19 17 14 11 8 12 4 0 0 0 0 0 0 0 0 0 0 0 0 0 18 16 26 36 29 22 30 4 0 0 0 0 0 0 0 0 0 0 0 0 0 0 0 0 0 0 0 0 0 0 0 0 3 7 11 15 15 15 14 13 16 7 6 1 0 0 0 0 0 0 0 0 0 0 0 0 0 0 0 0 0 0 0 0 4 9 14 16 21 22 22 22 19 17 12 9 8 4 0 0 0 0 0 0 0 0 0 0 0 0 0 0 3 18 20 29 38 26 22 0 0 0 0 0 0 0 0 0 0 0 0 0 0 0 0 0 0 0 0 0 0 0 0 0 3 5 11 13 13 16 19 19 18 14 9 10 5 2 1 0 1 1 1 3 4 0 0 0 0 0 0 0 0 0 0 3 8 14 17 21 23 21 20 22 18 16 11 8 5 0 0 0 0 0 0 0 0 0 0 0 0 0 0 0 0 6 21 24 30 36 28 0 0 0 0 0 0 0 0 0 0 0 0 0 0 0 0 0 0 0 0 0 0 0 0 0 0 2 6 11 16 15 18 19 16 17 10 6 5 3 2 1 0 0 0 0 0 0 0 0 0 0 0 0 0 0 1 5 8 15 18 21 22 21 20 22 20 16 11 7 0 0 0 0 0 0 0 0 0 0 0 0 0 0 0 0 0 0 5 21 22 29 31 0 0 0 0 0 0 0 0 0 0 0 0 0 0 0 0 0 0 0 0 0 0 0 0 0 0 0 2 7 13 16 15 14 13 10 8 2 0 0 0 0 0 0 0 0 0 0 0 0 0 0 0 0 0 0 1 6 11 14 19 21 21 20 21 22 20 16 9 0 0 0 0 0 0 0 0 0 0 0 0 0 0 0 0 0 0 0 0 3 18 18 28 0 0 0 0 0 0 0 0 0 0 0 0 0 0 0 0 0 0 0 0 0 0 0 0 0 0 0 0 2 8 11 14 13 8 5 0 0 0 0 0 0 0 0 0 0 0 0 0 0 0 0 0 0 0 0 2 9 13 17 19 21 21 22 23 23 19 14 3 0 0 0 0 0 0 0 0 0 0 0 0 0 0 0 0 0 0 0 0 0 0 9 14 0 0 0 0 0 0 0 0 0 0 0 0 0 0 0 0 0 0 0 0 0 0 0 0 0 0 0 0 1 3 6 9 10 7 3 0 0 0 0 0 0 0 0 0 0 0 0 0 0 0 0 0 0 0 0 5 10 15 18 21 21 23 25 24 22 16 7 0 0 0 0 0 0 0 0 0 0 0 0 0 0 0 0 0 0 0 0 0 0 0 0 5 0 0 0 0 0 0 0 0 0 0 0 0 0 0 0 0 0 0 0 0 0 0 0 0 0 0 0 0 0 2 4 6 7 8 2 1 0 0 0 0 0 0 0 0 0 0 0 0 0 0 0 0 0 0 5 10 14 17 20 25 23 27 28 26 19 8 2 0 0 0 0 0 0 0 0 0 0 0 0 0 0 0 0 0 0 0 0 0 0 0 0 0 0 0 0 0 0 0 0 0 0 0 0 0 0 0 0 0 0 0 0 0 0 0 0 0 0 0 0 0 0 5 8 7 10 10 7 4 2 0 0 0 0 0 0 0 0 0 0 0 0 0 0 0 0 7 10 16 17 20 25 27 28 29 29 21 12 3 0 0 0 0 0 0 0 0 0 0 0 0 0 0 0 0 0 0 0 0 0 0 0 0 0 0 0 0 0 0 0 0 0 0 0 0 0 0 0 0 0 0 0 0 0 0 0 0 0 0 0 0 0 0 0 6 8 12 14 14 13 10 12 6 5 0 0 0 0 0 0 0 0 0 0 0 2 6 11 15 16 22 23 27 30 33 32 31 26 13 6 2 2 0 0 0 0 0 0 0 0 0 0 0 0 0 0 0 0 0 0 0 0 0 0 0 0 0 0 0 0 0 0 0 0 0 0 0 0 0 0 0 0 0 0 0 0 0 0 0 0 0 0 0 0 0 0 3 11 17 20 21 23 22 23 21 19 15 11 11 5 3 2 4 3 4 5 9 12 16 19 22 25 28 31 34 34 36 34 28 21 7 4 6 0 0 0 0 0 0 0 0 0 0 0 0 0 0 0 0 0 0 0 0 0 0 0 0 0 0 0 0 0 0 0 0 0 0 0 0 0 0 0 0 0 0 0 0 0 0 0 0 0 0 0 0 0 0 0 0 6 18 23 24 28 31 33 33 31 28 24 24 22 20 19 22 22 20 21 21 24 26 28 29 33 36 36 38 38 37 31 23 13 3 8 4 0 0 0 0 0 0 0 0 0 0 0 0 0 0 0 0 0 0 0 0 0 0 0 0 0 0 0 0 0 0 0 0 0 0 0 0 0 0 0 0 0 0 0 0 0 0 0 0 0 0 0 0 0 0 0 0 0 7 19 25 29 30 38 40 42 39 33 37 36 36 36 36 37 35 36 34 34 35 37 37 38 38 38 39 35 32 23 12 4 6 2 0 0 0 0 0 0 0 0 0 0 0 0 0 0 0 0 0 0 0 0 0 0 0 0 0 0 0 0 0 0 0 0 0 0 0 0 0 0 0 0 0 0 0 0 0 0 0 0 0 0 0 0 0 0 0 0 0 0 0 9 20 29 29 36 41 47 47 43 46 46 47 46 45 45 42 44 43 42 42 42 42 40 41 39 38 31 25 14 3 5 7 0 0 0 0 0 0 0 0 0 0 0 0 0 0 0 0 0 0 0 0 0 0 0 0 0 0 0 0 0 0 0 0 0 0 0 0 0 0 0 0 0 0 0 0 0 0 0 0 0 0 0 0 0 0 0 0 0 0 0 0 0 11 24 29 33 32 38 44 47 47 48 49 48 46 44 41 43 42 41 44 42 41 40 37 36 31 22 10 4 2 6 0 0 0 0 0 0 0 0 0 0 0 0 0 0 0 0 0 0 0 0 0 0 0 0 0 0 0 0 0 0 0 0 0 0 0 0 0 0 0 0 0 0 0 0 0 0 0 0 0 0 0 0 0 0 0 0 0 0 0 0 0 0 0 10 20 25 27 32 38 39 41 43 41 42 41 40 40 41 38 39 39 38 35 33 31 24 14 8 0 0 1 0 0 0 0 0 0 0 0 0 0 0 0 0 0 0 0 0 0 0 0 0 0 0 0 0 0 0 0 0 0 0 0 0 0 0 0 0 0 0 0 0 0 0 0 0 0 0 0 0 0 0 0 0 0 0 0 0 0 0 0 0 0 0 0 0 1 9 18 23 26 28 27 29 31 35 34 31 32 31 30 26 28 25 23 19 15 4 0 0 0 0 0 0 0 0 0 0 0 0 0 0 0 0 0 0 0 0 0 0 0 0 0 0 0 0 0 0 0 0 0 0 0 0 0 0 0 0 0 0 0 0 0 0 0 0 0 0 0 0 0 0 0 0 0 0 0 0 0 0 0 0 0 0 0 0 0 0 0 0 0 5 9 13 14 13 15 19 21 21 19 16 12 10 10 6 4 0 0 0 0 0 0 0 0 0 0 0 0 0 0 0 0 0 0 0 0 0 0 0 0 0 0 0 0 0 0 0 0 0 0 0 0 0 0 0 0 0 0 0 0 0 0 0 0 0 0 0 0 0 0 0 0 0 0 0 0 0 0 0 0 0 0 0 0 0 0 0 0 0 0 0 0 0 0 0 0 0 0 0 0 0 0 0 0 0 0 0 0 0 0 0 0 0 0 0 0 0 0 0 0 0 0 0 0 0 0 0 0 0 0 0 0 0 0 0 0 0 0 0 0 0 0 0 0 0 0 0 0 0 0 0 0 0 0 0 0 0 0 0 0 0 0 0 0 0 0 0 0 0 0 0 0 0 0 0 0 0 0 0 0 0 0 0 0 0 0 0 0 0 0 0 0 0 0 0 0 0 0 0 0 0 0 0 0 0 0 0 0 0 0 0 0 0 0 0 0 0 0 0 0 0 0 0 0 0 0 0 0 0 0 0 0 0 0 0 0 0 0 