P2
92
112
255
20 20 20 21 22 20 22 21 20 17 14 12 10 5 3 0 0 0 4 8 11 9 14 17 17 31 33 35 39 32 37 37 35 48 44 42 40 49 38 39 45 39 42 43 36 44 38 41 41 23 19 15 9 6 5 6 4 0 0 0 0 0 0 0 0 0 0 0 0 0 0 0 3 13 18 22 26 26 27 26 25 26 25 25 25 24 25 24 24 26 24 25 21 20 21 21 21 21 21 18 16 12 10 7 2 0 0 0 2 1 5 13 16 16 21 25 26 31 44 44 44 45 39 47 35 45 46 33 35 47 40 43 45 43 34 41 40 38 42 46 40 35 30 20 10 16 14 17 10 4 0 0 0 0 0 0 0 0 0 0 0 0 0 0 0 0 10 18 22 26 27 26 26 25 26 25 25 24 25 24 24 25 25 25 20 20 21 21 20 20 18 14 10 7 2 0 0 0 0 0 0 2 6 15 18 18 24 32 35 39 46 46 46 44 36 39 40 44 40 32 36 41 37 41 45 42 32 34 41 43 41 39 33 44 36 17 15 20 23 22 11 7 1 0 1 2 0 0 0 0 0 0 0 0 0 0 0 0 0 6 18 22 27 28 27 26 27 26 25 26 24 25 24 25 25 24 21 20 21 20 21 18 13 7 3 0 0 0 0 0 0 0 0 6 13 18 22 24 23 30 40 40 46 42 45 42 34 36 45 34 33 30 31 39 33 38 41 46 31 29 41 46 40 31 25 43 36 17 25 24 28 24 12 4 6 5 1 1 0 0 0 0 0 0 0 0 0 0 0 0 0 0 0 16 23 27 26 27 27 26 26 25 25 24 25 24 25 24 21 20 21 20 17 8 5 1 0 0 0 0 0 0 0 0 6 17 21 23 26 28 34 34 36 38 38 43 38 37 29 30 36 39 24 26 36 30 28 29 41 43 28 25 37 48 34 21 16 36 32 21 27 30 29 23 14 8 9 8 5 4 0 0 0 0 0 0 0 0 0 0 0 0 0 0 0 0 16 26 26 28 26 26 26 26 26 23 25 24 25 24 21 20 20 16 10 2 0 0 0 0 0 0 0 0 0 5 14 26 32 34 35 39 44 47 45 40 36 38 36 33 26 27 28 28 26 22 28 33 21 21 38 37 24 17 31 43 32 16 13 29 29 26 25 26 29 23 17 11 9 10 5 3 2 3 0 0 0 0 0 0 0 0 0 0 0 0 0 0 0 19 27 28 27 26 27 26 27 25 26 23 25 24 20 20 19 10 3 0 0 0 0 0 0 0 0 0 9 16 25 31 35 38 41 46 45 46 47 39 30 32 32 30 25 22 30 23 20 20 24 29 20 18 33 34 21 9 19 34 27 14 16 31 29 24 22 23 27 25 16 13 14 10 4 2 1 1 2 0 0 0 0 0 0 0 0 1 0 0 0 0 0 0 20 27 29 27 27 26 27 26 25 23 26 23 19 21 9 0 0 0 0 0 0 0 0 0 2 11 20 29 33 33 37 40 44 44 45 45 41 40 31 20 20 17 18 16 20 23 16 15 23 24 22 16 28 28 19 4 13 28 31 15 22 30 27 21 18 25 29 25 18 17 18 10 7 4 1 1 0 3 3 1 0 0 0 0 0 0 2 0 0 0 0 0 0 21 29 26 28 27 25 26 26 24 25 23 23 15 2 0 0 0 0 0 0 1 1 3 13 24 26 29 25 31 34 37 40 42 42 43 36 34 30 23 16 12 7 18 19 16 13 10 18 24 15 16 24 21 14 7 14 25 30 20 20 26 22 22 24 28 26 25 21 19 18 14 16 12 5 0 2 3 3 5 4 3 0 0 0 0 0 0 0 0 0 0 0 1 24 28 28 26 27 26 28 24 25 23 19 6 0 0 0 0 0 1 3 0 11 19 26 29 29 31 30 31 33 29 32 32 32 26 25 16 12 10 8 7 2 6 18 14 3 8 14 20 16 16 18 15 14 12 15 22 23 20 15 22 25 29 27 27 26 24 23 21 20 19 17 15 10 8 8 8 7 5 7 10 6 1 0 0 0 0 0 0 0 0 0 0 6 26 31 27 28 28 26 25 25 23 10 0 0 3 0 0 2 5 9 14 17 20 21 25 31 35 38 36 35 34 32 31 30 22 18 17 7 4 0 4 4 3 8 12 6 5 15 13 15 11 14 15 15 12 14 19 18 18 22 22 25 26 28 26 23 25 26 27 25 24 22 19 10 9 11 9 14 11 12 11 11 8 3 0 0 0 0 0 0 0 0 0 0 12 28 30 28 28 25 25 25 25 5 0 3 0 0 3 5 4 9 14 19 24 26 31 31 29 32 29 28 27 20 17 13 8 5 5 1 0 0 2 0 0 6 6 6 5 13 10 12 12 17 19 16 13 19 21 20 25 29 20 20 19 23 23 32 36 35 32 29 25 24 19 14 13 15 12 15 10 14 15 12 12 11 8 5 4 0 0 0 0 0 0 0 0 18 29 30 28 28 26 26 26 2 2 2 0 1 1 7 6 12 17 17 17 21 24 30 26 27 29 28 29 24 18 12 8 0 0 2 0 0 0 3 0 5 7 8 6 12 11 13 15 20 22 16 17 21 22 19 22 24 16 13 21 28 35 36 35 36 35 30 26 23 18 16 15 20 21 21 20 16 16 12 14 12 10 15 10 2 1 0 0 0 0 0 0 0 21 29 30 28 27 25 26 0 0 1 0 2 6 7 10 21 21 20 16 21 23 21 20 23 16 16 18 20 16 16 11 11 6 4 2 2 3 4 3 9 11 11 14 16 20 17 22 25 24 21 19 22 21 15 23 21 19 21 29 30 36 37 33 33 36 32 29 26 27 22 20 21 17 15 19 19 23 19 17 15 17 14 14 9 7 6 0 0 0 0 0 0 0 23 30 29 27 26 26 0 4 5 3 8 11 17 19 18 14 16 20 19 22 23 26 28 22 17 14 12 10 11 12 12 13 14 11 9 11 15 15 16 19 20 22 25 27 28 23 26 28 26 19 22 24 21 23 23 22 24 26 30 34 36 33 33 42 36 31 30 25 22 20 21 18 23 23 19 25 22 19 22 18 17 16 16 12 7 9 1 0 0 0 0 0 8 26 30 28 27 26 3 7 6 9 11 15 23 22 20 27 30 28 25 25 23 23 21 21 20 17 15 13 13 12 14 15 19 20 19 22 23 25 29 30 35 32 36 40 39 32 31 32 28 22 31 30 23 26 26 21 21 23 27 28 30 34 35 39 35 33 31 23 22 19 17 14 14 18 21 27 26 22 26 21 18 18 21 19 12 8 9 8 0 0 0 0 0 9 29 30 28 29 4 4 6 13 18 20 21 22 21 24 29 31 28 29 26 25 19 18 17 19 18 18 18 23 21 24 24 28 27 29 33 35 39 43 44 46 48 47 46 40 37 37 32 30 34 30 26 24 21 21 20 24 27 31 32 35 34 36 33 28 24 20 14 14 14 15 12 15 17 18 20 23 25 24 23 21 20 16 17 13 11 9 10 0 0 0 0 0 9 27 30 28 5 7 21 23 23 26 23 28 32 32 32 28 24 25 21 22 20 16 17 21 23 21 23 29 29 32 31 32 32 39 41 44 51 57 57 56 57 56 52 48 48 47 44 42 42 38 33 29 30 27 25 29 28 29 32 34 33 34 32 29 25 20 17 13 13 12 8 5 7 10 13 16 18 19 20 19 19 22 16 15 17 12 8 7 0 0 0 0 0 8 30 28 13 23 32 32 32 32 37 37 35 32 26 17 15 16 16 17 16 15 18 22 24 26 29 32 34 35 36 39 42 46 49 54 59 63 64 63 62 61 62 59 59 57 55 51 49 45 44 40 38 34 30 29 27 26 28 29 28 29 31 32 28 23 19 18 10 10 9 5 4 7 8 15 19 15 22 16 18 20 22 18 13 21 11 7 8 0 0 0 0 0 15 29 23 29 34 32 39 43 41 39 37 35 27 18 13 10 12 16 17 18 22 25 26 27 33 34 36 39 42 47 50 55 59 61 66 68 67 67 66 63 65 63 64 62 62 58 55 52 50 47 41 39 36 32 31 29 32 34 33 34 32 31 26 23 19 15 9 9 4 0 4 1 4 8 14 12 13 22 26 26 28 29 23 16 19 12 10 4 0 0 0 0 0 24 25 31 32 35 39 41 35 33 29 26 22 17 17 15 14 14 16 19 23 26 28 30 38 40 43 47 50 54 58 62 63 66 66 67 66 66 66 65 65 65 65 63 62 60 58 56 53 49 45 42 40 37 35 37 38 37 35 36 33 31 27 25 20 14 11 7 4 2 0 0 0 5 5 7 6 12 20 29 27 28 28 22 18 19 13 11 0 0 0 0 0 9 25 30 32 38 39 41 34 32 31 21 15 16 16 15 18 18 20 25 25 31 34 38 45 48 50 54 58 60 63 64 65 65 65 65 64 64 65 64 64 63 63 64 62 62 58 57 54 48 45 42 40 41 41 40 42 39 37 36 34 31 26 24 20 17 12 10 3 0 0 0 0 0 0 0 0 1 7 17 20 25 30 27 23 14 21 12 6 0 0 0 0 0 37 40 41 44 41 40 32 27 23 18 13 14 17 18 19 24 26 27 31 35 39 44 50 53 54 59 60 61 63 62 63 62 62 62 61 61 60 61 60 60 61 61 61 60 59 56 56 51 46 46 43 41 42 41 43 42 42 40 39 37 35 32 26 23 20 13 8 6 0 0 0 0 0 0 0 1 6 17 21 27 29 27 30 22 15 20 10 7 0 0 0 0 37 45 48 48 43 45 34 29 24 23 18 22 22 22 24 26 29 35 37 42 46 48 53 55 55 58 59 59 59 59 60 59 59 58 57 57 57 58 56 57 57 56 57 56 56 55 54 55 51 51 49 47 46 43 42 42 42 44 43 41 40 38 37 34 28 24 19 11 7 2 0 0 0 0 0 0 5 16 26 28 32 26 27 31 23 23 14 11 0 0 0 0 41 48 46 46 42 38 26 23 20 21 25 23 23 26 31 33 37 43 43 49 51 51 54 54 54 55 55 54 56 55 55 54 54 53 53 52 52 53 53 52 53 52 52 52 52 52 51 52 50 50 51 51 49 47 46 46 42 43 42 40 42 43 43 41 36 31 27 19 13 7 2 0 0 0 0 0 0 8 23 28 22 32 27 24 34 25 18 9 5 1 0 0 37 44 46 41 36 29 25 26 26 26 26 26 29 34 37 40 44 48 50 52 52 52 52 52 52 52 52 52 51 50 50 50 49 48 48 48 47 47 48 48 48 47 48 49 48 48 49 48 46 45 47 48 47 45 45 45 46 46 46 40 41 41 43 44 43 38 33 28 20 16 10 4 0 0 0 0 0 4 13 22 25 17 26 26 26 30 25 11 6 4 2 1 39 42 34 33 30 24 26 24 25 30 28 33 36 39 41 47 51 54 51 52 51 49 49 49 48 48 48 48 47 46 46 46 45 44 44 44 43 43 43 44 43 44 43 44 44 44 43 44 44 44 45 46 45 45 45 45 44 43 45 44 44 42 42 41 42 39 37 32 27 21 17 10 3 0 0 0 0 3 9 14 20 24 14 26 24 26 28 21 5 0 1 0 41 43 37 34 30 29 30 29 29 31 34 40 41 40 45 52 55 53 51 50 49 47 46 45 45 45 44 43 43 44 43 43 42 42 41 41 39 39 39 40 40 40 40 40 39 40 39 40 41 40 42 41 41 43 45 45 44 43 43 43 43 44 45 41 38 39 38 34 31 26 22 17 10 2 0 0 0 0 8 12 18 25 19 19 28 23 23 21 12 0 0 0 42 43 40 35 35 32 37 32 29 40 39 40 43 43 51 54 53 51 50 46 46 44 44 42 41 41 40 39 40 39 39 39 39 39 38 37 36 37 36 36 37 37 36 36 35 35 36 36 37 37 38 40 39 41 42 43 44 44 42 43 41 43 44 41 40 38 37 36 35 31 28 23 19 8 0 0 0 0 3 9 12 19 23 20 29 29 26 21 13 2 0 0 35 42 43 40 35 36 39 35 33 38 39 39 43 45 50 52 50 48 47 44 43 42 40 39 38 38 38 37 37 37 36 36 36 36 36 35 34 34 34 34 34 34 33 34 33 33 33 33 34 34 34 35 36 37 38 39 40 41 42 41 41 42 41 40 38 38 36 35 36 33 33 29 23 20 7 0 0 0 0 4 5 14 22 28 30 35 32 23 16 9 0 0 46 48 45 42 35 34 37 38 37 37 39 41 43 49 51 50 48 46 44 43 40 38 37 35 36 36 36 35 35 34 34 35 34 34 34 33 33 31 32 32 31 32 31 31 32 30 31 31 30 32 32 32 33 34 35 36 37 39 38 40 40 39 40 37 37 36 36 34 35 36 35 33 28 21 15 3 0 0 0 0 5 13 26 29 32 32 33 31 18 11 3 0 45 51 45 38 37 40 40 39 38 42 41 44 46 49 49 46 46 44 42 40 38 35 34 34 34 34 33 33 33 34 33 33 33 32 31 32 32 31 31 30 31 30 28 29 29 28 28 29 29 30 30 31 33 32 34 34 34 35 36 37 38 39 38 37 36 36 36 36 36 38 40 36 30 27 20 8 3 1 0 0 0 6 17 26 32 33 31 34 28 14 8 0 44 45 42 40 42 39 39 38 43 42 42 45 47 48 49 44 44 42 40 37 37 33 33 33 32 33 31 31 31 32 32 32 32 31 31 30 30 30 30 29 29 29 28 27 28 28 27 29 28 28 29 30 31 31 32 32 32 34 35 36 37 37 37 37 38 36 37 37 38 40 40 40 35 30 25 15 4 3 0 0 1 0 6 21 34 35 31 33 26 19 10 0 47 43 40 41 42 44 40 39 38 40 41 43 45 47 47 43 43 41 38 36 34 32 32 32 32 32 32 30 30 32 30 32 31 31 30 30 31 30 29 30 28 28 28 27 28 26 26 27 28 28 28 29 31 31 31 31 32 33 34 35 34 36 36 35 37 38 37 40 41 41 40 40 37 33 29 22 10 0 0 0 0 4 5 11 25 29 30 34 26 19 18 2 44 43 44 44 42 43 38 36 41 43 41 44 43 45 46 43 41 39 37 34 35 33 33 32 33 32 31 31 31 31 31 31 31 32 31 32 31 31 30 30 28 28 28 28 28 27 26 28 28 28 27 29 31 31 32 33 33 34 35 35 35 35 36 36 38 39 39 40 41 42 42 41 38 34 34 26 15 4 0 0 1 3 7 10 17 27 28 32 28 20 16 8 42 44 47 43 46 40 39 42 43 41 41 43 44 44 43 41 40 37 35 35 34 33 33 32 32 32 32 32 33 31 31 32 33 35 34 33 33 33 31 31 29 30 28 29 29 29 27 27 28 28 28 30 31 32 32 33 32 35 36 36 37 38 38 37 39 40 42 40 43 44 42 43 38 36 34 29 21 8 0 0 0 5 8 14 12 15 28 24 24 19 12 4 37 42 45 44 43 41 39 44 41 42 42 42 43 43 41 39 38 35 35 36 35 34 34 33 32 32 34 32 32 33 33 34 34 35 34 35 33 33 33 31 30 30 29 29 30 29 29 29 30 30 30 31 33 31 33 34 34 35 37 37 38 39 40 39 41 41 41 43 44 44 43 43 38 36 34 31 25 15 0 0 3 0 12 16 14 14 25 28 17 16 6 1 33 38 39 40 41 40 44 43 44 47 42 41 43 40 41 38 36 36 34 34 35 34 33 33 32 33 32 32 33 33 34 36 36 37 36 36 35 34 33 32 31 31 31 30 31 31 31 31 33 32 33 34 34 33 35 37 36 37 39 40 39 41 42 41 42 42 42 44 44 43 44 42 38 35 34 34 26 20 5 0 5 5 9 20 16 16 17 26 21 17 4 0 31 35 36 42 38 38 43 43 45 43 40 42 42 40 39 36 35 33 34 33 34 34 33 33 34 34 35 35 33 34 36 37 37 37 36 37 36 36 35 34 33 32 32 32 32 32 31 34 33 35 35 36 36 37 39 39 40 38 41 43 43 43 43 43 44 43 43 44 41 44 42 41 38 36 33 33 29 22 9 1 1 8 10 14 20 17 19 24 16 21 6 0 33 38 39 39 31 39 42 43 40 38 42 42 39 38 37 35 33 33 33 32 35 34 33 35 35 36 36 36 35 37 37 38 39 38 39 38 37 37 37 34 36 34 34 34 33 34 33 35 35 36 38 37 38 40 41 42 42 42 43 45 45 45 45 45 45 44 42 43 42 44 42 40 39 35 33 33 30 24 15 4 7 2 8 15 15 23 18 27 15 15 9 0 34 38 37 31 33 38 37 39 36 39 41 40 40 37 35 33 32 32 32 33 33 34 33 36 35 36 38 37 38 38 40 40 41 41 40 41 40 38 38 37 37 36 35 35 34 35 34 35 36 37 38 39 40 42 44 44 45 46 47 47 48 47 48 49 47 47 45 46 46 45 45 40 40 37 34 34 32 28 19 2 6 5 4 12 16 20 26 22 10 14 5 0 27 30 26 24 32 30 39 39 39 36 39 40 40 35 34 34 31 32 31 32 34 34 34 37 37 37 40 40 41 41 42 43 44 43 43 42 42 41 40 39 37 37 36 36 35 35 35 36 38 40 39 41 43 44 47 48 49 50 50 50 51 51 51 51 52 52 49 49 49 49 48 45 42 37 35 34 34 32 23 5 6 7 5 7 14 17 20 25 5 7 3 0 18 26 16 21 22 27 37 37 33 34 37 39 38 34 33 34 33 32 31 32 33 36 37 39 40 40 42 44 43 45 46 46 47 45 46 45 45 44 42 43 39 37 36 37 35 36 37 39 39 41 42 44 45 47 50 51 52 52 53 52 52 52 52 51 53 53 50 49 49 50 50 48 44 38 34 35 34 34 23 11 8 4 5 4 9 11 17 21 8 2 2 0 17 19 15 17 14 28 29 30 27 28 37 39 37 34 34 33 31 32 32 34 37 39 43 44 45 45 46 48 47 49 49 48 50 48 48 49 47 46 45 43 40 38 36 37 36 36 36 40 39 40 41 42 43 46 49 50 52 51 51 50 49 49 50 50 51 52 53 50 49 49 49 50 44 40 37 36 32 33 26 12 12 1 4 3 8 5 12 15 5 0 0 0 17 13 14 14 13 23 23 23 24 27 36 38 37 35 33 33 31 34 34 37 39 42 46 47 46 47 46 47 46 48 49 48 50 50 49 49 48 47 45 43 42 40 39 37 38 37 36 38 37 40 38 38 41 42 45 43 45 47 46 47 47 48 49 48 51 52 51 52 51 50 49 47 45 38 37 37 33 32 28 12 16 1 4 0 10 4 4 12 1 0 0 0 13 11 11 5 10 15 16 20 21 27 35 37 36 34 32 32 33 34 34 37 38 40 42 41 40 41 40 40 40 41 42 42 43 44 43 45 45 44 43 41 40 38 36 36 36 35 35 36 35 37 35 36 38 39 39 36 39 40 39 39 41 43 46 45 49 48 49 50 49 50 46 45 44 42 36 36 35 30 27 13 17 4 1 0 6 5 7 7 0 0 0 0 11 5 2 0 5 8 10 19 16 26 33 35 33 31 28 29 28 29 29 31 29 32 33 30 28 28 27 25 26 25 24 27 29 32 31 33 36 35 36 38 35 36 32 32 32 30 30 31 27 27 26 28 28 30 30 28 28 30 29 29 33 36 34 34 38 36 41 42 42 42 44 44 40 42 36 32 33 30 26 15 14 4 0 0 1 0 12 3 0 0 0 0 4 0 0 0 3 0 6 16 15 24 28 31 26 23 21 20 19 20 18 19 19 18 18 12 11 9 11 9 8 8 4 8 10 13 14 17 21 22 25 30 30 32 30 29 29 26 28 26 24 22 19 21 18 18 20 16 15 15 14 13 14 17 16 17 20 23 24 25 28 28 30 34 35 35 32 31 28 30 26 18 12 1 0 0 0 0 3 0 0 0 0 0 0 0 0 0 0 0 4 12 12 21 23 25 19 16 13 8 5 8 8 9 8 5 5 1 0 0 0 0 0 0 0 0 0 0 0 6 3 11 14 19 22 24 24 24 23 23 23 20 21 18 16 14 9 9 9 1 0 0 0 0 0 0 0 0 0 0 2 4 6 9 12 17 19 24 25 22 22 29 26 17 18 0 0 0 0 0 0 0 0 0 0 0 0 0 0 0 0 0 2 9 10 17 17 21 16 9 3 0 0 0 0 0 0 0 0 0 0 0 0 0 0 0 0 0 0 0 0 0 0 0 3 8 14 15 17 17 20 19 20 19 18 16 10 8 2 1 0 0 0 0 0 0 0 0 0 0 0 0 0 0 0 0 0 0 7 9 16 13 12 21 23 16 18 0 0 0 0 0 0 0 0 0 0 0 0 0 0 0 0 0 0 2 8 14 14 14 9 0 0 0 0 0 0 0 0 0 0 0 0 0 0 0 0 0 0 0 0 0 0 0 0 0 0 0 5 8 11 13 14 15 17 17 15 10 7 0 0 0 0 0 0 0 0 0 0 0 0 0 0 0 0 0 0 0 0 0 0 0 3 6 6 14 17 14 15 0 0 0 0 0 0 0 0 0 0 0 0 0 0 0 0 0 0 0 7 10 13 8 0 0 0 0 0 0 0 0 0 0 0 0 0 0 0 0 0 0 0 0 0 0 0 0 0 0 0 0 0 3 6 8 9 12 14 13 11 5 1 0 0 0 0 0 0 0 0 0 0 0 0 0 0 0 0 0 0 0 0 0 0 0 0 0 1 12 14 11 11 0 0 0 0 0 0 0 0 0 0 0 0 0 0 0 0 0 0 0 6 9 9 2 0 0 0 0 0 0 0 0 0 0 0 0 0 0 0 0 0 0 0 0 0 0 0 0 0 0 0 0 0 0 0 5 7 11 13 13 8 3 0 0 0 0 0 0 0 0 0 0 0 0 0 0 0 0 0 0 0 0 0 0 0 0 0 0 0 11 16 10 11 0 0 0 0 0 0 0 0 0 0 0 0 0 0 0 0 0 0 0 2 10 10 0 0 0 0 0 0 0 0 0 0 0 0 0 0 0 0 0 0 0 0 0 0 0 0 0 0 0 0 0 0 0 0 3 7 12 14 11 7 1 0 0 0 0 0 0 0 0 0 0 0 0 0 0 0 0 0 0 0 0 0 0 0 0 0 0 4 14 19 10 12 0 0 0 0 0 0 0 0 0 0 0 0 0 0 0 0 0 0 0 0 5 7 2 0 0 0 0 0 0 0 0 0 0 0 0 0 0 0 0 0 0 0 0 0 0 0 0 0 0 0 0 0 0 0 1 5 12 15 14 9 3 0 0 0 0 0 0 0 0 0 0 0 0 0 0 0 0 0 0 0 0 0 0 0 0 0 0 6 13 18 14 13 0 0 0 0 0 0 0 0 0 0 0 0 0 0 0 0 0 0 0 0 4 6 1 0 0 0 0 0 0 0 0 0 0 0 0 0 0 0 0 0 0 0 0 0 0 0 0 0 0 0 0 0 0 0 2 12 20 21 21 16 8 1 0 0 0 0 0 0 0 0 0 0 0 0 0 0 0 0 0 0 0 0 0 0 0 0 0 7 13 17 13 15 0 0 0 0 0 0 0 0 0 0 0 0 0 0 0 0 0 0 0 0 2 5 0 0 0 0 0 0 0 0 0 0 0 0 0 0 0 0 0 0 0 0 0 0 0 0 0 0 0 0 0 0 0 0 3 15 24 27 25 19 10 3 0 0 0 0 0 0 0 0 0 0 0 0 0 0 0 0 0 0 0 0 0 0 0 0 0 5 13 18 14 16 3 0 0 0 0 0 0 0 0 0 0 0 0 0 0 0 0 0 0 1 4 6 3 0 0 0 0 0 0 0 0 0 0 0 0 0 0 0 0 0 0 0 0 0 0 0 0 0 0 0 0 0 0 0 7 16 26 33 28 23 12 5 0 0 0 0 0 0 0 0 0 0 0 0 0 0 0 0 0 0 0 0 0 0 0 0 0 6 11 17 13 15 3 0 0 0 0 0 0 0 0 0 0 0 0 0 0 0 0 0 0 0 4 5 4 0 0 0 0 0 0 0 0 0 0 0 0 0 0 0 0 0 0 0 0 0 0 0 0 0 0 0 0 0 0 1 10 21 28 32 30 27 15 6 2 0 0 0 0 0 0 0 0 0 0 0 0 0 0 0 0 0 0 0 0 0 0 0 0 7 13 15 10 16 3 0 0 0 0 0 0 0 0 0 0 0 0 0 0 0 0 0 0 0 7 11 8 1 0 0 0 0 0 0 0 0 0 0 0 0 0 0 0 0 0 0 0 0 0 0 0 0 0 0 0 0 0 8 14 23 31 30 31 27 17 7 1 0 0 0 0 0 0 0 0 0 0 0 0 0 0 0 0 0 0 0 0 0 0 0 4 10 12 15 13 12 3 0 0 0 0 0 0 0 0 0 0 0 0 0 0 0 0 0 0 0 5 17 12 7 1 0 0 0 0 0 0 0 0 0 0 0 0 0 0 0 0 0 0 0 0 0 0 0 0 0 0 0 2 10 17 24 31 33 33 28 20 12 6 0 0 0 0 0 0 0 0 0 0 0 0 0 0 0 0 0 0 0 0 0 0 3 9 14 15 18 12 12 0 0 0 0 0 0 0 0 0 0 0 0 0 0 0 0 0 0 0 0 4 18 13 7 5 2 0 0 0 0 0 0 0 0 0 0 0 0 0 0 0 0 0 0 0 0 0 0 0 4 5 3 6 11 17 24 30 33 36 31 21 14 10 2 0 0 0 0 0 0 0 0 0 0 0 0 0 0 0 0 0 0 0 0 0 4 12 15 19 21 14 8 0 0 0 0 0 0 0 0 0 0 0 0 0 0 0 0 0 0 0 0 2 15 15 11 9 6 3 0 0 0 0 0 0 0 0 0 0 0 0 0 0 0 0 0 0 0 0 0 3 8 8 8 8 10 16 21 29 32 36 32 25 15 14 9 4 0 0 0 0 0 0 0 0 0 0 0 0 0 0 0 0 0 0 0 6 8 12 16 20 21 13 6 0 0 0 0 0 0 0 0 0 0 0 2 0 0 0 0 0 0 0 0 0 14 17 15 8 4 7 6 3 0 0 0 0 0 0 0 0 0 0 0 0 0 0 0 0 0 1 5 9 11 15 14 12 11 14 21 25 32 35 32 25 19 16 14 10 7 6 5 0 0 0 0 0 0 0 0 0 0 0 0 0 0 0 3 7 10 14 16 19 20 12 2 0 0 0 0 0 0 0 0 0 0 0 6 0 0 0 0 0 0 0 0 0 11 14 14 12 9 12 11 11 5 2 1 0 0 0 0 0 0 0 0 0 0 0 0 0 1 2 10 14 17 17 16 13 10 15 21 26 31 35 34 28 20 18 15 14 13 14 13 9 4 4 2 0 0 0 0 0 0 0 0 0 3 6 8 12 15 14 17 20 20 11 2 0 0 0 0 0 0 0 0 0 0 0 9 0 0 0 0 0 0 0 0 0 8 10 13 16 16 15 16 18 16 11 11 9 9 7 2 1 0 0 2 4 7 8 8 7 8 11 16 18 20 19 17 15 11 15 22 27 32 37 35 32 24 20 16 16 16 19 19 15 12 13 11 10 9 6 7 7 7 9 9 8 9 12 14 17 20 20 21 20 23 12 3 0 0 0 0 0 0 0 0 0 0 0 14 3 0 0 0 0 0 0 0 0 4 10 13 16 16 18 17 19 19 17 17 15 15 14 12 10 11 9 11 13 14 14 15 15 15 16 19 20 20 19 19 16 14 18 23 29 35 39 40 36 31 26 20 20 16 22 22 21 21 21 20 20 18 17 15 16 18 16 16 15 18 17 20 20 23 23 22 21 20 10 2 0 0 0 0 0 0 0 0 0 0 0 21 11 2 6 0 0 0 0 0 0 0 10 12 13 13 17 17 18 19 18 20 18 19 18 17 16 17 16 17 20 21 21 20 18 17 17 20 21 20 20 20 19 19 21 28 31 38 41 44 40 35 31 25 21 18 22 23 23 25 26 27 26 27 24 24 24 23 22 22 20 20 22 20 23 24 24 22 20 19 7 1 0 0 0 0 0 0 0 0 0 0 0 28 11 8 20 0 0 0 0 0 0 0 7 9 10 11 14 16 18 18 20 20 20 21 22 22 22 20 21 21 23 22 21 22 20 21 19 22 22 20 19 21 24 26 26 31 34 39 44 45 43 40 37 28 23 19 17 19 22 24 27 28 28 31 30 30 29 28 26 27 27 25 25 23 25 25 25 21 19 20 5 0 0 0 0 0 0 0 0 0 0 0 0 34 14 8 24 3 0 0 0 0 0 0 4 6 9 11 14 15 18 17 21 21 23 23 23 23 21 22 22 22 23 22 21 21 21 21 20 21 20 17 19 25 29 29 31 34 38 41 44 45 45 41 39 33 25 19 15 9 13 16 23 26 28 30 32 33 31 32 30 30 29 29 28 26 26 27 23 21 21 17 2 0 0 0 0 0 0 0 0 0 0 0 0 39 20 6 27 15 0 0 0 0 0 0 1 5 8 11 13 15 16 17 19 22 22 24 23 23 23 20 21 21 22 23 19 21 19 17 17 18 18 18 22 29 31 33 37 41 41 47 48 46 47 44 39 33 29 23 16 10 5 8 14 20 25 25 30 31 31 33 31 32 32 32 30 28 27 27 23 20 19 13 1 0 0 0 0 0 0 0 0 0 0 0 0 37 28 9 28 21 1 0 0 0 0 0 0 4 8 9 12 13 17 17 19 20 22 23 22 22 22 19 19 20 21 21 17 17 15 14 14 15 18 21 26 31 34 37 41 45 48 53 55 52 48 47 44 35 31 25 19 16 7 3 5 10 16 22 25 28 28 32 32 32 32 30 30 28 27 25 21 18 20 10 0 0 0 0 0 0 0 0 4 0 0 1 0 32 31 17 27 20 4 0 0 0 0 0 0 0 6 8 10 12 14 16 17 19 20 20 23 20 20 18 16 18 18 13 6 6 4 6 8 11 18 21 27 30 33 41 44 48 50 57 59 58 48 48 47 39 29 22 20 14 8 4 4 9 11 17 21 24 27 28 31 31 31 28 28 26 25 23 20 17 18 7 0 0 0 0 0 0 0 0 10 0 3 6 0 25 23 29 35 21 3 0 0 0 0 0 0 0 4 4 6 11 12 14 15 18 19 19 20 18 17 16 9 13 14 4 0 0 0 0 3 1 14 17 22 26 32 41 46 46 49 52 58 59 52 45 45 39 28 19 17 13 6 4 3 9 10 12 16 19 24 25 29 28 27 26 25 24 22 21 19 15 17 5 0 0 0 0 0 0 0 3 17 4 0 10 4 27 26 34 36 23 2 0 0 0 0 0 0 0 0 1 4 6 10 11 13 15 18 18 17 14 14 14 7 7 7 0 0 0 0 0 4 0 9 10 11 13 19 30 38 42 44 44 47 53 49 38 37 30 23 16 12 10 5 1 1 4 9 8 10 16 19 22 24 24 24 23 21 20 19 17 17 13 16 3 2 0 0 0 0 0 0 7 22 10 4 11 9 27 39 35 32 29 2 0 0 0 0 0 0 0 0 0 0 3 5 8 10 15 14 16 13 13 13 13 7 3 2 0 0 0 0 0 5 0 0 3 5 3 2 5 17 28 32 32 35 41 36 28 25 16 10 8 3 6 7 0 1 3 7 4 7 9 15 17 20 19 20 19 17 16 16 14 15 13 14 3 6 0 0 0 0 0 0 11 27 17 10 11 10 33 41 38 29 31 0 0 0 0 0 0 0 0 0 0 0 0 1 4 9 11 13 12 11 12 12 9 6 0 0 0 0 3 4 0 0 0 0 0 0 0 0 0 0 0 9 14 20 23 20 12 10 5 2 5 0 0 5 0 0 7 9 7 5 6 8 11 14 15 16 16 15 13 13 11 12 13 10 3 10 0 0 1 0 0 0 16 30 26 17 11 9 48 49 38 32 26 0 0 0 0 0 0 0 0 0 0 0 0 0 0 4 8 8 7 10 10 9 5 1 0 0 0 0 2 7 6 0 0 0 0 0 0 0 0 0 0 0 0 0 0 0 0 0 0 0 0 0 0 0 0 1 9 11 10 7 6 4 5 9 11 12 12 13 10 9 7 10 14 4 5 13 0 0 3 0 4 0 19 34 30 25 15 10 60 51 41 35 26 2 0 0 0 0 0 0 0 0 0 0 0 0 0 0 4 3 2 7 9 6 3 0 1 5 3 2 4 8 11 9 0 0 0 0 0 0 0 0 0 0 0 0 0 0 0 0 0 0 0 0 0 0 0 5 11 13 11 9 6 4 1 4 6 9 9 10 7 7 6 10 14 3 9 14 0 0 4 3 11 4 21 37 33 29 22 15 58 49 35 36 26 1 0 0 0 0 0 0 0 0 0 0 0 0 0 0 0 0 0 5 6 4 2 0 4 10 9 4 8 11 16 19 10 0 0 0 0 0 0 0 0 0 0 0 0 0 0 0 0 0 0 0 0 0 3 11 14 15 14 9 8 4 2 2 3 5 8 7 7 5 7 9 14 0 13 16 0 0 0 6 17 11 23 41 37 31 29 15 51 40 35 37 17 3 0 0 0 0 0 0 0 0 0 0 0 0 0 0 0 0 0 2 3 2 0 2 7 11 11 9 12 15 21 23 20 7 0 0 0 0 0 0 0 0 0 0 0 0 0 0 0 0 0 0 1 5 11 13 17 19 19 14 9 6 4 1 1 5 6 6 7 5 9 10 12 0 17 13 0 0 0 14 23 17 28 41 43 29 35 28 46 36 39 30 12 8 3 0 0 0 0 0 0 0 0 0 0 0 0 0 0 0 0 0 0 0 0 5 9 13 14 18 18 20 23 26 26 18 4 0 0 0 0 0 0 0 0 0 0 0 0 0 0 0 0 3 10 16 17 14 15 19 21 20 15 8 7 2 2 3 6 5 6 7 11 15 10 2 20 10 0 0 0 20 30 23 28 42 49 37 30 39 37 39 42 22 11 14 2 0 0 0 0 0 0 0 0 0 0 0 0 0 0 0 0 0 0 0 4 8 12 13 18 24 24 23 26 29 30 27 15 6 0 0 0 0 0 0 0 0 0 0 0 0 0 3 8 16 20 20 22 16 11 17 18 20 19 11 6 3 4 3 5 7 5 8 14 17 8 5 20 7 0 1 0 25 34 29 25 44 51 45 29 38 44 45 31 21 17 13 0 0 0 0 0 0 0 0 0 0 0 0 0 0 0 0 0 0 0 0 8 10 12 17 21 25 26 26 29 32 34 33 29 18 10 8 4 0 0 0 0 0 0 0 2 8 10 12 19 23 22 23 22 21 13 13 15 16 19 12 9 4 4 5 6 10 6 11 16 19 8 11 20 0 0 0 0 25 35 33 26 42 52 50 29 37 45 34 29 28 24 8 0 0 0 0 0 0 0 0 0 0 0 0 0 0 0 0 0 0 0 1 9 8 11 19 22 23 26 28 30 31 34 36 31 26 17 9 11 3 1 3 5 6 9 9 9 12 14 16 20 20 19 23 21 20 15 11 10 12 13 12 11 9 6 7 8 10 10 15 21 19 10 14 14 0 0 0 3 17 36 38 28 35 53 57 36 28 35 31 34 32 23 2 0 0 0 0 0 0 0 0 0 0 0 0 0 0 0 0 0 0 0 2 8 7 10 13 16 20 23 23 24 25 28 29 28 25 20 10 10 9 7 8 8 10 10 8 7 9 10 14 13 15 13 15 13 11 6 2 0 3 7 11 13 12 11 10 13 8 15 17 25 17 12 16 6 0 0 0 4 13 28 39 29 34 49 56 53 29 33 33 38 29 13 2 0 0 0 0 0 0 0 0 0 1 0 0 0 0 0 0 0 0 0 1 4 4 4 0 2 6 9 5 7 5 10 11 12 11 7 5 0 2 0 4 4 6 5 2 1 2 2 6 7 6 7 7 1 0 0 0 0 2 6 10 14 13 14 14 12 11 17 22 26 14 16 10 0 0 0 0 7 12 19 36 34 28 47 53 59 47 34 35 34 18 8 1 0 0 0 0 0 0 0 0 0 0 0 0 1 0 2 3 1 2 1 2 2 0 0 0 0 0 0 0 0 0 0 0 0 0 0 0 0 0 0 0 0 0 0 0 0 0 0 0 0 0 0 0 0 0 0 0 0 7 10 12 15 15 20 18 13 13 19 24 19 11 18 3 0 0 0 0 7 14 20 24 36 26 38 57 57 59 37 31 21 12 5 0 0 0 1 0 0 0 0 0 0 0 0 0 1 1 4 5 4 3 3 1 0 0 0 0 0 0 0 0 0 0 0 0 0 0 0 0 0 0 0 0 0 0 0 0 0 0 0 0 0 0 0 0 0 0 0 0 0 3 7 12 13 18 21 18 14 15 20 22 8 10 3 0 0 0 0 0 0 13 17 29 23 33 27 49 59 57 31 19 10 4 0 0 0 6 8 0 0 0 0 0 0 0 0 0 0 2 5 8 7 3 3 0 0 0 0 0 0 0 0 0 0 0 0 0 0 0 0 0 0 0 0 0 0 0 0 0 0 0 0 0 0 0 0 0 0 0 4 10 5 2 5 12 14 19 20 17 13 15 22 13 4 5 0 0 0 0 0 0 0 13 16 26 26 29 26 35 54 60 16 8 2 0 0 0 1 8 2 0 0 0 0 0 0 0 0 0 0 0 1 5 7 1 3 0 0 0 0 0 0 0 0 0 0 0 0 0 0 0 0 0 0 0 0 0 0 0 0 0 0 0 0 0 0 0 0 0 0 0 7 13 11 9 10 13 18 17 17 13 13 16 15 0 1 0 0 0 0 0 0 0 0 0 18 18 27 29 25 27 43 53 7 5 0 0 0 0 2 0 0 0 0 0 0 0 0 0 0 0 0 0 0 0 4 1 1 0 1 5 6 2 2 0 0 0 0 0 0 0 0 0 0 0 0 0 0 0 0 0 0 0 0 0 0 0 0 0 0 0 0 1 12 16 19 18 18 17 18 15 14 10 12 14 1 0 0 0 0 0 0 0 0 0 0 0 10 18 18 32 29 22 29 43 7 5 0 0 0 0 0 0 0 0 0 0 0 0 0 0 0 0 0 0 0 0 0 2 0 0 4 10 13 13 11 6 7 4 0 0 0 0 0 0 0 0 0 0 0 0 0 0 0 0 0 0 0 0 0 0 0 0 2 8 15 18 21 21 23 19 17 14 11 9 12 4 0 0 0 0 0 0 0 0 0 0 0 0 0 18 16 26 36 29 23 30 4 0 0 0 0 0 0 0 0 0 0 0 0 0 0 0 0 0 0 0 0 0 0 0 0 3 7 11 15 15 15 14 13 16 7 6 0 0 0 0 0 0 0 0 0 0 0 0 0 0 0 0 0 0 0 0 0 4 9 14 17 21 22 22 22 19 17 12 9 8 5 0 0 0 0 0 0 0 0 0 0 0 0 0 0 3 18 20 30 38 27 22 0 0 0 0 0 0 0 0 0 0 0 0 0 0 0 0 0 0 0 0 0 0 0 0 0 3 6 11 13 13 16 18 19 18 14 8 9 5 2 1 0 1 1 1 3 4 0 0 0 0 0 0 0 0 0 0 4 8 14 17 21 23 21 20 22 19 16 11 8 5 0 0 0 0 0 0 0 0 0 0 0 0 0 0 0 0 6 21 24 30 36 28 0 0 0 0 0 0 0 0 0 0 0 0 0 0 0 0 0 0 0 0 0 0 0 0 0 0 2 6 11 16 15 17 19 16 17 10 6 5 2 2 1 0 0 0 0 0 0 0 0 0 0 0 0 0 0 1 5 8 15 18 21 22 21 20 22 20 16 11 7 0 0 0 0 0 0 0 0 0 0 0 0 0 0 0 0 0 0 5 22 22 30 31 0 0 0 0 0 0 0 0 0 0 0 0 0 0 0 0 0 0 0 0 0 0 0 0 0 0 0 3 7 13 16 15 14 12 10 7 2 0 0 0 0 0 0 0 0 0 0 0 0 0 0 0 0 0 0 2 6 12 15 20 21 21 20 21 22 20 16 9 0 0 0 0 0 0 0 0 0 0 0 0 0 0 0 0 0 0 0 0 3 18 18 28 0 0 0 0 0 0 0 0 0 0 0 0 0 0 0 0 0 0 0 0 0 0 0 0 0 0 0 1 2 8 11 14 12 8 4 0 0 0 0 0 0 0 0 0 0 0 0 0 0 0 0 0 0 0 0 2 9 13 17 19 21 21 22 23 23 19 14 3 0 0 0 0 0 0 0 0 0 0 0 0 0 0 0 0 0 0 0 0 0 0 10 15 0 0 0 0 0 0 0 0 0 0 0 0 0 0 0 0 0 0 0 0 0 0 0 0 0 0 0 0 1 3 6 8 9 7 3 0 0 0 0 0 0 0 0 0 0 0 0 0 0 0 0 0 0 0 0 6 10 15 18 21 21 23 25 24 22 16 7 0 0 0 0 0 0 0 0 0 0 0 0 0 0 0 0 0 0 0 0 0 0 0 0 5 0 0 0 0 0 0 0 0 0 0 0 0 0 0 0 0 0 0 0 0 0 0 0 0 0 0 0 0 0 2 4 6 7 8 2 1 0 0 0 0 0 0 0 0 0 0 0 0 0 0 0 0 0 0 6 10 14 17 20 25 23 27 28 26 19 8 2 0 0 0 0 0 0 0 0 0 0 0 0 0 0 0 0 0 0 0 0 0 0 0 0 0 0 0 0 0 0 0 0 0 0 0 0 0 0 0 0 0 0 0 0 0 0 0 0 0 0 0 0 0 0 5 7 7 10 10 7 4 2 0 0 0 0 0 0 0 0 0 0 0 0 0 0 0 1 7 10 16 17 20 25 27 28 29 29 21 12 3 0 0 0 0 0 0 0 0 0 0 0 0 0 0 0 0 0 0 0 0 0 0 0 0 0 0 0 0 0 0 0 0 0 0 0 0 0 0 0 0 0 0 0 0 0 0 0 0 0 0 0 0 0 0 0 6 8 12 14 14 13 10 12 6 5 0 0 0 0 0 0 0 0 0 0 0 2 6 11 15 17 22 23 27 30 33 32 31 26 13 6 2 2 0 0 0 0 0 0 0 0 0 0 0 0 0 0 0 0 0 0 0 0 0 0 0 0 0 0 0 0 0 0 0 0 0 0 0 0 0 0 0 0 0 0 0 0 0 0 0 0 0 0 0 0 0 0 3 11 17 20 21 23 22 23 21 19 15 11 11 5 3 2 4 3 4 5 9 12 16 19 22 25 28 31 33 34 36 34 28 20 7 4 6 0 0 0 0 0 0 0 0 0 0 0 0 0 0 0 0 0 0 0 0 0 0 0 0 0 0 0 0 0 0 0 0 0 0 0 0 0 0 0 0 0 0 0 0 0 0 0 0 0 0 0 0 0 0 0 0 6 18 23 24 28 31 33 33 31 28 24 24 22 20 19 22 22 20 21 22 24 26 28 29 33 35 36 38 37 37 31 23 13 3 8 4 0 0 0 0 0 0 0 0 0 0 0 0 0 0 0 0 0 0 0 0 0 0 0 0 0 0 0 0 0 0 0 0 0 0 0 0 0 0 0 0 0 0 0 0 0 0 0 0 0 0 0 0 0 0 0 0 0 7 19 25 29 30 38 40 42 39 33 37 36 36 36 36 37 35 36 34 34 35 37 37 38 38 38 39 35 32 23 12 3 6 2 0 0 0 0 0 0 0 0 0 0 0 0 0 0 0 0 0 0 0 0 0 0 0 0 0 0 0 0 0 0 0 0 0 0 0 0 0 0 0 0 0 0 0 0 0 0 0 0 0 0 0 0 0 0 0 0 0 0 0 9 21 29 29 36 41 47 46 43 46 46 47 46 45 45 41 44 42 42 42 42 42 40 41 39 38 31 25 14 3 5 7 0 0 0 0 0 0 0 0 0 0 0 0 0 0 0 0 0 0 0 0 0 0 0 0 0 0 0 0 0 0 0 0 0 0 0 0 0 0 0 0 0 0 0 0 0 0 0 0 0 0 0 0 0 0 0 0 0 0 0 0 0 11 24 29 33 32 38 44 47 47 48 48 48 46 44 41 43 42 41 44 42 41 40 37 36 31 22 10 4 2 6 0 0 0 0 0 0 0 0 0 0 0 0 0 0 0 0 0 0 0 0 0 0 0 0 0 0 0 0 0 0 0 0 0 0 0 0 0 0 0 0 0 0 0 0 0 0 0 0 0 0 0 0 0 0 0 0 0 0 0 0 0 0 0 10 20 25 27 32 37 39 41 43 41 42 41 40 40 41 38 39 39 38 35 33 31 24 14 7 0 0 1 0 0 0 0 0 0 0 0 0 0 0 0 0 0 0 0 0 0 0 0 0 0 0 0 0 0 0 0 0 0 0 0 0 0 0 0 0 0 0 0 0 0 0 0 0 0 0 0 0 0 0 0 0 0 0 0 0 0 0 0 0 0 0 0 0 1 9 18 23 26 28 27 28 31 34 34 30 31 31 30 26 28 25 23 19 15 4 0 0 0 0 0 0 0 0 0 0 0 0 0 0 0 0 0 0 0 0 0 0 0 0 0 0 0 0 0 0 0 0 0 0 0 0 0 0 0 0 0 0 0 0 0 0 0 0 0 0 0 0 0 0 0 0 0 0 0 0 0 0 0 0 0 0 0 0 0 0 0 0 0 5 9 13 14 13 15 19 21 21 19 16 12 10 10 6 3 0 0 0 0 0 0 0 0 0 0 0 0 0 0 0 0 0 0 0 0 0 0 0 0 0 0 0 0 0 0 0 0 0 0 0 0 0 0 0 0 0 0 0 0 0 0 0 0 0 0 0 0 0 0 0 0 0 0 0 0 0 0 0 0 0 0 0 0 0 0 0 0 0 0 0 0 0 0 0 0 0 0 0 0 0 0 0 0 0 0 0 0 0 0 0 0 0 0 0 0 0 0 0 0 0 0 0 0 0 0 0 0 0 0 0 0 0 0 0 0 0 0 0 0 0 0 0 0 0 0 0 0 0 0 0 0 0 0 0 0 0 0 0 0 0 0 0 0 0 0 0 0 0 0 0 0 0 0 0 0 0 0 0 0 0 0 0 0 0 0 0 0 0 0 0 0 0 0 0 0 0 0 0 0 0 0 0 0 0 0 0 0 0 0 0 0 0 0 0 0 0 0 0 0 0 0 0 0 0 0 0 0 0 0 0 0 0 0 0 0 0 0 