P2
92
112
255
23 23 22 23 23 23 24 24 23 25 23 26 25 26 28 27 28 28 29 29 29 29 34 35 41 44 45 50 48 49 51 53 57 58 58 61 62 60 60 65 67 67 72 76 77 79 79 80 78 77 75 74 71 69 62 58 52 46 40 40 39 39 40 37 38 39 38 37 37 35 36 34 34 33 32 34 32 34 32 32 33 31 31 31 30 32 32 31 32 31 32 31 22 22 22 22 23 23 24 25 24 24 25 26 27 26 28 27 30 29 29 31 32 36 40 43 46 49 48 48 51 53 58 60 63 65 64 67 71 67 69 75 77 80 83 84 86 86 89 85 84 83 81 78 76 74 73 68 64 58 50 46 42 42 41 39 40 39 41 38 39 38 37 35 34 36 34 33 34 33 32 31 33 32 32 32 31 31 32 31 31 31 32 31 22 23 23 23 24 23 24 24 24 25 25 28 27 28 28 28 29 32 32 39 40 44 46 48 47 48 49 53 61 63 66 68 70 73 73 78 81 79 81 84 85 88 91 89 92 90 92 94 93 89 89 86 80 79 78 72 72 66 65 58 51 44 43 40 40 37 39 41 38 39 38 35 37 35 35 36 33 33 34 32 32 33 33 32 30 31 32 31 31 32 31 31 22 23 22 24 23 23 24 25 25 26 26 27 28 27 29 28 31 37 41 44 46 48 49 49 48 53 59 65 70 72 78 79 79 81 84 87 88 90 87 89 92 94 92 92 94 94 96 97 97 95 95 94 91 89 84 79 75 71 71 66 62 57 47 43 41 42 39 40 39 41 40 38 37 36 36 36 35 34 35 34 33 32 34 32 31 32 32 31 31 32 32 32 22 23 23 23 24 25 23 25 26 25 28 28 28 28 29 33 39 44 46 49 46 51 48 53 57 62 72 75 79 83 85 88 87 89 92 92 93 93 94 94 94 95 95 98 94 95 97 99 98 96 96 95 96 96 93 89 81 79 78 71 67 67 58 52 45 44 42 39 40 40 39 39 39 39 37 37 37 35 37 35 34 33 34 33 32 32 33 32 31 31 31 32 22 23 23 23 23 25 26 25 27 27 26 30 26 31 34 41 43 46 47 47 46 47 55 63 68 78 82 85 85 88 91 93 93 94 97 97 97 98 97 98 99 97 97 99 98 99 98 99 98 97 99 99 97 96 97 94 88 86 86 77 74 70 67 63 58 48 43 43 37 37 38 39 39 39 39 38 38 36 37 36 35 34 34 33 32 34 33 32 30 32 31 32 22 21 23 24 23 25 26 26 28 28 29 30 30 36 42 43 43 42 43 45 50 55 66 73 81 84 87 89 92 93 95 97 98 99 100 100 100 100 100 100 102 100 100 100 100 99 99 99 99 97 98 99 97 95 94 92 92 89 89 83 80 78 70 72 65 54 49 43 40 33 36 37 41 39 41 40 40 38 38 38 37 36 34 34 34 34 34 31 34 31 30 32 22 23 22 24 24 26 27 27 28 28 30 32 36 41 43 44 38 39 41 50 58 70 77 80 84 88 88 94 96 97 99 100 100 99 101 101 102 103 104 102 103 101 101 101 100 99 99 98 97 97 97 96 97 95 91 89 90 85 88 84 79 78 79 79 69 61 53 48 42 37 34 38 40 41 39 43 42 40 39 39 39 34 36 35 34 34 34 34 33 32 31 32 22 23 24 24 25 26 27 29 29 29 32 36 40 42 38 37 35 40 49 62 71 79 79 83 86 91 91 95 98 98 99 100 100 102 102 104 106 106 107 105 102 102 101 100 99 98 99 97 97 96 94 93 94 94 89 85 86 84 83 79 79 81 80 81 75 68 60 53 44 40 35 35 38 39 39 42 43 41 42 39 39 37 37 35 35 35 33 34 33 33 32 32 22 22 23 25 25 27 28 28 29 28 36 38 36 32 33 29 35 47 61 72 75 78 83 86 90 92 94 97 98 97 100 97 102 102 105 105 107 108 107 105 102 101 99 99 98 96 95 95 94 94 94 92 91 91 88 83 84 84 82 79 79 81 80 81 75 70 68 62 49 44 40 34 34 40 40 39 41 39 41 40 40 38 38 35 36 35 34 35 32 34 32 31 21 23 24 23 27 27 26 27 27 32 34 33 28 29 25 28 39 60 70 74 80 82 84 88 90 92 95 96 96 97 98 99 100 102 106 106 105 106 106 104 102 98 97 97 95 95 94 93 92 91 92 92 90 88 89 84 83 83 84 83 82 80 77 80 77 74 74 70 60 53 46 37 30 36 40 37 38 36 39 41 41 40 39 37 36 36 35 34 32 33 32 33 21 24 23 24 28 25 27 23 25 29 29 27 23 24 22 37 57 69 73 78 83 85 88 89 87 91 91 93 93 94 96 98 98 101 103 103 102 103 102 101 98 97 96 93 91 91 92 89 90 89 89 89 90 87 87 85 85 84 84 84 83 80 79 79 81 78 78 73 67 60 53 44 36 32 34 37 37 35 36 40 43 41 41 39 39 36 36 35 33 33 33 32 23 23 24 26 23 25 19 22 25 28 24 22 14 12 26 55 68 72 79 80 82 86 85 87 88 88 89 90 90 92 94 94 95 98 99 99 98 98 96 95 94 93 92 91 89 89 88 87 87 85 86 86 86 85 85 83 83 83 84 83 83 82 80 78 82 82 79 76 72 64 55 51 44 36 24 29 36 34 33 36 41 41 40 40 40 37 37 37 34 33 33 34 22 24 24 26 21 19 19 20 23 24 17 11 8 20 48 66 72 77 78 81 83 84 84 84 85 85 87 88 89 90 90 90 91 93 93 94 92 91 90 88 89 88 87 87 85 86 84 83 83 84 83 83 84 82 80 81 82 81 82 83 80 82 80 80 80 80 82 77 73 63 56 55 50 45 30 24 32 31 32 32 38 41 40 41 39 38 38 37 36 35 33 34 21 22 22 22 18 14 19 23 22 17 12 0 11 43 60 69 75 77 77 79 80 81 81 82 82 82 83 85 85 85 87 86 86 88 87 87 87 86 84 84 84 84 83 82 81 81 81 81 80 80 81 80 81 79 77 77 80 79 78 80 79 80 78 80 80 77 78 79 72 64 59 55 52 49 42 28 23 24 28 30 35 39 37 40 41 39 39 38 36 37 34 32 22 18 21 15 15 14 19 21 15 10 6 5 33 56 66 73 75 74 75 77 77 78 79 80 80 79 79 80 81 82 82 81 82 82 82 81 80 80 79 80 80 81 80 80 78 78 77 78 76 75 76 76 78 77 76 76 78 78 77 77 77 77 77 77 78 76 76 77 74 65 60 55 51 51 47 38 19 20 23 25 29 36 37 36 38 38 39 38 38 36 36 35 18 19 18 14 10 14 16 13 10 7 0 22 49 61 70 73 71 72 75 75 75 76 75 77 76 76 76 77 76 78 78 77 77 78 76 76 75 76 75 76 76 76 76 76 75 75 75 73 73 72 72 73 72 73 72 73 73 74 74 73 75 74 73 73 75 73 73 73 73 67 62 53 54 50 47 47 27 14 16 16 20 26 35 36 34 37 37 39 39 37 36 35 18 20 16 12 13 17 12 11 9 3 9 37 54 65 70 69 68 69 71 72 72 71 72 72 73 73 74 75 74 75 75 74 74 73 74 71 71 71 72 72 72 73 73 71 71 71 71 69 70 69 69 70 70 69 70 69 70 70 70 70 70 71 69 70 71 71 69 71 71 67 62 54 52 53 49 45 40 13 11 10 9 16 26 33 34 33 33 34 37 37 37 37 17 14 14 8 13 16 14 10 8 6 26 45 59 69 67 66 67 69 69 69 69 68 69 68 69 69 70 71 71 71 70 70 70 70 69 68 67 67 69 69 69 70 69 68 67 66 67 66 66 65 66 67 65 65 66 66 66 66 66 67 67 67 65 66 66 65 67 67 69 65 62 55 50 51 50 47 41 27 8 6 4 3 16 24 28 33 31 32 32 34 36 35 16 15 8 11 16 19 11 7 5 16 38 53 64 66 64 66 66 66 66 65 65 65 66 65 65 66 65 66 67 66 67 67 67 67 66 66 66 66 66 67 67 66 65 64 63 63 61 61 63 62 60 62 61 61 62 62 61 61 62 62 62 63 62 62 61 63 62 65 64 64 59 55 47 47 49 47 44 31 11 5 3 0 1 13 22 31 29 29 28 29 32 33 13 11 8 16 22 20 13 6 9 26 44 57 64 63 63 64 64 63 62 62 62 61 62 63 64 62 64 63 63 63 64 64 64 64 64 64 64 63 65 64 64 62 61 60 59 59 58 57 57 58 57 57 58 57 59 58 57 58 58 58 59 60 59 59 58 59 58 60 61 61 56 53 46 46 46 46 47 30 14 8 0 0 0 4 17 24 26 27 28 25 27 30 12 7 10 18 23 19 14 7 16 33 51 59 63 61 61 61 60 58 59 57 59 58 58 59 60 60 60 61 60 60 62 61 62 62 61 62 61 60 61 61 59 59 57 57 56 56 54 54 52 53 53 52 53 52 54 52 55 55 55 54 54 55 55 54 54 55 55 53 56 58 56 53 46 44 45 45 45 36 15 9 0 0 0 0 8 23 25 27 28 24 26 29 7 9 17 21 21 18 9 10 23 38 56 60 60 57 57 59 56 54 54 56 55 56 55 54 56 56 56 56 56 57 58 57 58 58 57 57 58 57 57 56 56 54 53 52 51 50 50 49 50 49 48 50 51 50 49 50 51 52 51 51 51 51 51 49 49 50 53 52 54 53 53 53 46 42 43 44 42 39 21 8 0 0 0 0 1 19 27 28 27 26 27 26 7 10 23 19 19 16 8 14 27 44 57 58 57 55 53 54 52 50 50 49 52 50 51 52 52 52 51 51 51 51 54 53 54 53 53 52 53 53 52 52 51 50 49 50 46 46 46 45 45 45 45 46 45 47 47 46 47 49 47 48 47 47 46 45 44 45 47 49 52 51 50 49 47 43 40 41 39 39 29 8 0 0 0 0 0 5 26 29 28 29 25 22 7 12 20 19 17 16 9 23 30 49 57 56 54 51 50 49 48 47 46 45 46 45 45 46 47 47 45 46 47 47 48 49 49 48 48 48 47 47 47 47 47 45 45 44 42 42 41 41 41 40 41 41 43 41 43 44 43 44 44 44 43 40 41 42 41 42 43 45 46 48 48 47 45 41 39 39 38 41 36 14 1 0 0 0 0 0 16 31 30 29 23 23 7 14 19 21 18 7 13 24 36 50 55 53 51 49 46 45 43 43 42 39 40 40 40 41 41 41 41 40 42 41 42 44 43 44 44 43 43 43 43 43 42 39 40 40 39 39 37 38 37 38 38 38 39 39 40 39 40 41 41 39 40 36 37 38 38 38 40 42 42 43 43 44 42 39 34 36 35 37 40 23 5 0 0 0 0 0 10 29 32 30 26 21 9 15 22 21 11 6 14 27 42 50 52 48 48 45 43 39 39 38 37 35 33 34 35 36 36 36 36 37 38 37 38 39 39 39 39 38 39 38 37 38 36 36 36 35 35 35 34 34 33 34 36 35 35 36 36 36 38 37 37 36 35 34 34 32 32 33 36 38 39 38 41 38 38 37 31 30 32 36 36 28 6 0 0 0 0 0 1 26 33 29 28 22 7 17 20 20 8 7 18 29 43 50 50 47 46 43 40 36 36 34 33 32 30 31 30 32 33 32 33 34 33 34 35 34 34 35 35 35 35 34 33 35 32 32 32 31 31 31 32 30 30 30 31 32 32 33 34 33 33 34 35 32 32 30 30 29 28 30 32 34 33 36 36 35 32 31 29 25 30 35 32 29 10 2 0 0 0 0 0 19 34 30 27 23 12 15 19 15 4 5 19 30 43 48 46 46 43 39 37 34 33 30 30 29 27 26 26 28 29 29 29 30 30 31 31 31 30 31 32 30 31 31 31 31 29 29 30 28 28 28 28 28 27 28 28 29 29 29 31 30 30 31 30 28 28 25 25 24 25 25 27 29 31 32 33 31 31 27 25 20 26 31 30 28 10 3 0 0 0 0 0 18 32 33 28 20 6 11 12 8 0 4 23 35 42 47 45 44 41 34 33 31 30 27 26 26 24 24 25 26 26 26 28 28 27 29 28 28 28 29 29 28 29 28 28 28 27 26 26 26 26 26 25 25 25 26 26 26 26 26 28 27 27 28 26 26 23 23 22 19 21 22 24 25 26 29 29 26 25 25 24 19 21 27 27 23 14 0 2 1 0 0 0 17 31 35 28 23 0 7 7 3 1 7 28 34 42 44 45 42 36 33 30 29 29 26 25 22 24 24 21 24 25 25 26 26 26 27 27 27 27 27 28 26 28 28 27 26 25 24 24 24 24 23 23 22 23 24 24 25 24 25 25 24 26 26 24 24 23 20 20 20 17 20 21 22 24 23 25 23 20 20 21 19 21 22 23 20 10 3 0 0 1 0 0 15 31 36 26 22 0 2 3 1 2 10 27 33 39 45 44 39 36 33 28 28 26 26 24 23 23 21 21 23 26 27 26 26 26 27 27 27 26 27 27 26 27 26 26 24 24 23 23 22 23 21 21 21 23 23 23 23 25 26 25 23 25 24 23 22 20 19 18 19 17 18 20 20 20 21 20 19 17 18 18 19 22 21 19 18 11 4 0 0 0 0 0 14 33 35 29 23 0 0 1 0 2 10 23 30 40 43 42 37 37 32 28 26 26 24 24 23 21 20 22 25 25 28 27 27 27 27 28 27 28 27 27 28 26 25 25 24 23 23 22 22 22 21 20 22 22 22 23 23 23 25 24 24 23 25 24 23 20 19 18 18 18 18 18 19 17 18 17 18 14 16 15 19 21 21 20 15 12 2 0 0 0 0 0 13 32 35 30 24 0 0 0 1 3 12 23 30 39 43 41 37 34 30 28 25 26 24 24 22 21 21 23 24 27 29 29 28 28 29 28 30 29 28 28 27 28 26 25 25 23 22 22 22 21 20 21 22 22 23 22 23 23 24 24 22 24 25 25 24 21 21 18 19 19 19 19 19 17 16 15 15 14 13 13 16 21 21 20 14 11 1 0 0 0 0 0 17 31 35 33 24 0 1 0 1 3 12 25 29 40 44 38 36 32 31 27 24 25 24 24 23 23 23 24 26 28 30 29 30 29 28 30 30 31 29 29 29 28 28 26 25 25 22 23 22 21 19 20 21 21 21 21 21 22 23 23 24 26 25 25 23 23 22 21 18 20 18 17 16 18 15 15 13 12 11 11 14 19 20 19 16 9 3 0 0 0 0 0 14 34 34 32 25 0 0 0 1 6 12 24 28 42 43 37 36 33 31 27 25 24 27 24 25 24 23 26 27 30 30 30 30 30 30 31 32 32 33 32 31 29 29 27 27 25 24 22 23 22 19 19 20 18 19 19 21 22 22 23 25 26 26 28 25 25 24 22 18 20 19 17 16 17 16 15 11 9 10 9 11 16 19 17 15 10 2 0 0 0 0 0 8 25 37 34 27 1 0 0 6 2 12 19 28 41 44 37 35 33 31 27 25 24 23 26 24 24 23 26 28 29 30 30 31 29 32 32 33 32 32 31 31 28 28 27 25 24 21 19 19 20 17 17 17 19 18 19 18 21 21 23 23 26 27 27 27 27 26 23 21 23 18 16 12 15 14 14 9 6 9 8 10 12 17 17 12 9 1 0 0 0 0 0 2 22 33 34 30 2 0 3 7 2 10 13 32 42 45 40 36 31 30 28 27 25 24 24 24 25 23 24 25 26 29 28 28 29 30 32 32 30 30 31 29 29 27 25 25 22 20 17 17 16 16 15 15 16 16 18 17 18 21 21 25 25 27 26 27 28 26 23 23 21 18 15 13 13 10 11 10 5 7 7 7 9 18 13 12 7 0 0 0 0 0 0 1 13 29 33 29 3 3 8 2 1 6 14 34 39 37 38 35 31 28 25 24 23 19 17 19 21 23 21 23 26 28 27 25 27 29 30 31 29 29 30 28 27 26 23 23 21 19 17 15 14 13 12 11 12 14 16 17 17 19 20 24 26 25 26 26 26 26 23 22 22 15 14 14 11 9 9 9 7 6 4 6 7 13 12 10 6 0 0 0 0 0 0 1 10 23 28 30 4 4 3 2 0 5 16 34 37 33 34 32 29 22 22 18 19 16 12 11 15 19 17 19 22 26 26 24 24 26 29 29 29 27 28 27 25 23 21 22 20 15 13 12 11 11 8 8 9 13 16 16 18 21 22 23 25 27 26 25 27 25 22 23 21 15 14 12 9 8 8 7 6 7 2 4 5 8 10 10 4 2 0 0 0 0 0 0 11 18 26 25 3 0 1 1 0 5 16 30 36 35 31 25 22 12 11 8 8 12 8 6 8 13 12 12 14 18 22 20 21 23 25 27 27 26 27 27 23 20 19 18 15 13 9 8 9 8 7 7 11 14 16 17 20 22 26 25 27 26 24 23 26 25 25 22 20 16 14 12 10 9 8 9 6 5 3 2 3 6 6 7 3 0 0 0 0 0 0 0 10 14 25 21 4 0 0 1 0 6 14 29 31 32 26 20 13 6 1 0 0 0 0 0 0 4 5 7 9 12 18 16 16 19 24 24 26 25 26 25 22 18 15 14 10 8 5 3 5 4 6 8 12 15 17 20 22 22 25 26 27 26 27 24 22 23 23 23 21 21 15 14 11 9 10 10 7 4 1 1 1 4 6 1 0 0 0 0 0 0 0 0 8 12 24 20 5 0 0 0 0 1 10 24 27 27 23 18 5 4 5 0 0 0 0 0 0 0 0 0 1 6 11 8 17 20 22 23 23 23 24 19 19 15 8 8 4 1 0 0 0 0 3 5 9 13 15 16 19 23 24 23 23 20 21 18 14 15 18 21 22 20 19 16 13 12 10 7 5 2 1 1 0 0 3 0 0 0 0 0 0 0 0 0 8 14 20 21 6 0 0 0 0 0 7 22 22 26 21 14 4 0 0 0 0 0 0 0 0 0 0 0 0 0 0 4 7 10 17 21 24 20 17 15 15 9 0 2 0 0 0 0 0 0 0 0 0 4 7 7 5 14 21 18 21 22 22 19 24 23 26 22 20 21 18 19 16 14 9 7 1 0 0 0 0 0 0 0 0 0 0 0 0 0 0 0 7 24 22 21 1 0 0 2 0 0 9 23 24 30 27 15 3 0 0 0 0 0 0 0 0 0 0 0 0 0 0 0 0 0 0 9 19 19 13 12 7 0 0 0 0 0 0 0 0 0 0 0 0 0 0 0 0 0 1 3 3 3 6 10 11 11 14 11 10 10 4 8 12 11 7 0 0 0 0 0 0 0 0 0 0 0 0 0 0 0 0 2 11 23 25 21 0 0 0 8 0 0 7 24 28 28 24 14 7 0 0 0 0 0 0 0 0 0 0 0 0 0 0 0 0 3 14 18 20 15 17 16 1 0 0 0 0 0 0 0 0 0 0 0 0 0 0 0 0 0 0 0 0 0 1 4 11 15 13 9 9 6 2 4 6 6 1 0 0 0 0 0 0 0 0 0 0 0 0 0 0 0 8 8 11 24 23 21 0 0 0 7 0 0 7 19 26 26 18 17 12 0 0 0 0 0 0 0 0 0 0 0 0 0 1 4 0 9 19 22 24 18 21 17 0 0 0 0 0 0 0 0 0 0 0 0 0 0 0 0 0 0 0 0 0 0 0 0 0 2 8 13 18 9 12 12 6 7 3 2 0 0 0 0 0 0 0 0 0 0 0 0 0 2 10 8 18 24 21 21 7 0 0 6 0 0 9 14 19 24 23 18 9 5 0 0 0 0 0 0 0 0 0 0 0 0 2 5 5 17 26 25 29 20 12 8 10 0 0 0 0 0 0 0 0 0 0 0 0 0 0 0 0 0 0 0 0 0 0 0 1 3 0 3 20 7 2 4 2 0 2 0 0 0 0 0 0 0 0 0 0 0 0 0 4 14 16 13 15 22 21 20 3 0 0 7 0 0 2 7 14 19 19 14 4 0 0 0 0 0 0 0 0 0 0 0 0 0 0 1 0 9 14 17 19 23 21 1 4 0 0 0 0 0 0 0 0 0 0 0 0 0 0 0 0 0 0 0 0 0 2 5 5 7 4 0 13 11 0 3 1 2 4 8 9 6 2 0 0 0 0 0 0 0 0 0 1 15 14 16 16 19 14 16 0 0 0 0 0 0 1 3 6 13 14 6 0 0 0 0 0 0 0 0 0 0 0 0 0 0 0 0 0 0 0 8 13 21 26 10 0 0 2 1 0 0 0 0 0 0 0 0 0 0 0 0 0 0 0 18 1 0 0 0 7 10 2 0 8 12 10 4 2 3 6 7 9 9 8 2 0 0 0 0 0 0 0 0 1 7 8 10 14 14 19 12 6 0 0 0 0 0 0 1 0 0 0 0 0 0 0 0 0 0 0 0 0 0 0 0 0 0 0 0 0 0 0 0 12 19 21 4 0 0 0 0 0 0 0 0 0 0 0 0 0 0 0 0 0 0 0 15 8 0 5 9 18 22 11 0 14 20 19 8 5 4 10 12 5 6 6 1 0 0 0 0 0 0 0 0 0 4 7 9 10 11 17 18 5 0 0 0 0 0 0 0 0 0 0 0 0 0 0 0 0 0 0 0 0 0 0 0 0 0 0 0 0 0 0 4 8 7 14 0 0 0 0 0 0 0 0 0 0 0 0 0 0 0 0 0 0 0 0 8 0 0 13 29 31 23 13 0 13 28 29 20 9 0 6 7 1 2 5 1 0 0 0 0 0 0 0 0 7 6 10 10 7 5 16 20 3 1 0 2 0 0 0 0 0 0 4 7 0 0 0 0 0 0 0 0 0 0 0 0 0 0 0 0 0 0 0 5 6 9 17 0 0 0 0 0 0 0 0 0 0 0 0 0 0 0 0 0 0 0 0 0 0 0 0 0 14 13 10 6 12 22 24 21 0 0 6 7 1 0 6 0 0 0 0 0 0 0 0 0 15 11 10 8 6 6 18 16 2 2 0 0 0 1 0 0 0 0 1 0 7 1 0 0 0 0 0 0 0 0 0 0 0 0 0 0 0 0 0 20 11 13 27 3 0 0 0 0 0 3 0 0 0 0 0 0 0 0 0 0 0 0 0 0 0 0 0 0 2 7 10 9 5 15 13 11 1 0 0 0 0 0 0 2 0 0 0 0 0 0 0 3 16 16 6 14 11 16 25 21 5 5 0 0 0 0 0 2 1 10 9 3 3 8 1 0 0 0 0 0 0 0 0 0 0 0 0 0 0 0 6 13 17 21 25 11 0 0 0 0 1 7 0 0 0 0 0 0 0 0 0 0 0 0 0 0 0 7 0 0 0 10 8 3 0 12 15 5 6 1 0 0 0 0 0 0 0 0 0 0 0 0 0 7 14 19 19 20 21 25 34 31 12 1 0 0 0 2 0 7 10 16 15 16 9 13 11 5 1 3 2 2 1 6 5 5 14 10 5 1 0 0 14 21 24 28 20 14 3 0 0 4 6 11 0 0 0 0 0 0 0 0 0 3 7 0 0 0 4 8 5 9 14 18 8 0 0 0 12 8 9 10 4 2 0 0 0 0 0 0 0 0 0 0 2 6 13 23 28 18 16 18 31 27 23 5 0 0 0 3 3 13 17 20 19 19 14 14 12 7 2 5 4 6 10 10 8 10 10 0 0 0 0 10 22 32 32 32 25 17 8 0 0 4 8 5 2 0 0 0 0 0 0 0 6 8 8 11 5 0 7 10 11 16 20 22 22 8 0 0 7 9 10 9 2 2 0 0 0 0 0 0 0 0 0 0 0 4 13 19 24 11 9 15 26 21 22 7 0 0 0 1 7 15 18 20 20 17 15 15 12 9 9 11 10 8 11 12 9 5 6 1 0 0 1 10 18 29 32 28 23 17 7 0 0 0 6 6 4 7 0 0 0 0 0 0 7 4 7 14 13 7 18 22 26 25 27 28 26 20 3 0 4 6 3 4 0 0 0 0 0 0 0 0 0 0 0 0 0 0 12 14 17 8 13 22 31 23 21 5 0 3 0 0 11 17 17 19 19 17 10 13 12 10 10 9 9 8 9 10 6 0 10 6 3 1 0 7 15 30 34 27 19 10 6 0 3 1 9 9 8 1 0 0 0 0 0 1 3 5 13 13 15 10 27 28 29 29 30 26 25 22 11 4 0 4 3 0 0 3 0 0 0 0 0 0 0 0 0 0 0 0 8 11 15 11 19 29 33 23 19 3 0 1 2 0 9 14 19 15 17 14 6 7 5 4 5 5 9 8 9 14 6 0 9 0 0 0 0 4 20 32 33 22 13 6 5 6 1 7 7 12 8 0 0 0 0 0 1 6 11 5 12 14 16 10 20 27 27 27 30 27 24 23 14 18 3 6 9 5 0 4 0 0 0 0 0 0 0 0 0 0 0 0 7 10 18 14 20 33 33 26 21 12 0 0 6 0 2 10 15 15 14 12 6 8 7 6 9 8 12 13 12 10 7 0 0 1 0 1 3 12 28 30 26 15 9 5 3 7 6 6 4 2 4 0 0 1 0 0 0 5 13 6 13 19 14 15 15 21 21 22 24 26 26 23 16 16 11 3 11 4 0 0 0 0 0 0 0 0 0 0 0 0 0 0 10 18 20 15 26 31 35 27 22 15 0 0 6 0 0 8 8 17 12 12 2 5 9 9 10 12 11 14 9 2 7 0 0 2 0 3 9 17 22 21 19 8 9 7 4 7 8 3 3 2 0 2 1 1 1 0 1 5 4 6 6 20 16 16 18 13 15 21 20 23 22 25 18 13 16 6 3 4 0 0 0 0 0 0 0 0 0 0 0 0 0 0 13 18 17 20 28 34 35 33 29 19 2 0 6 0 0 4 8 7 15 9 2 3 6 8 7 9 10 7 2 6 4 3 0 5 1 4 9 13 14 16 10 11 13 8 8 12 10 7 3 1 0 1 4 1 2 3 3 8 7 8 9 4 17 16 17 17 9 17 22 25 25 24 21 12 13 14 0 0 1 0 0 0 0 0 0 0 0 0 0 0 0 0 8 14 14 19 29 33 39 34 43 31 15 8 5 3 0 0 6 6 9 13 8 0 6 6 5 7 2 1 4 5 5 11 0 0 2 5 7 10 9 7 11 15 13 9 10 13 11 11 9 1 4 0 0 3 1 5 3 7 16 15 16 13 10 16 16 18 16 11 23 24 25 24 19 17 12 15 6 0 0 0 0 0 0 0 0 0 0 0 0 0 0 0 2 13 8 19 30 37 43 28 36 44 31 17 9 2 5 0 0 8 6 6 14 4 1 4 2 0 0 0 0 3 7 4 2 0 0 4 4 6 5 10 13 13 11 9 12 12 11 14 8 11 4 3 0 0 5 0 0 9 15 19 20 26 17 10 19 15 18 17 13 24 23 22 19 18 14 9 7 0 0 0 0 0 0 0 0 0 0 0 0 1 0 0 5 12 6 19 33 48 39 25 26 30 41 38 20 0 2 0 0 2 10 8 5 7 0 0 0 0 0 0 2 5 3 0 0 0 0 0 0 4 9 13 16 12 12 15 12 11 10 9 12 14 10 3 8 0 0 2 1 10 13 19 26 25 29 18 10 15 13 19 12 12 21 19 16 17 15 1 2 0 0 0 0 0 0 0 0 0 0 0 0 1 0 0 8 7 11 22 41 40 32 25 27 29 33 28 25 23 7 9 9 6 5 13 6 0 0 0 0 0 0 2 5 2 0 0 0 0 0 0 0 4 10 13 10 13 13 17 14 9 8 11 15 15 10 16 2 1 0 3 6 5 12 19 25 29 28 25 20 9 13 15 17 10 10 16 16 14 8 1 0 0 0 0 0 0 0 0 0 0 0 0 0 0 1 11 6 15 16 31 33 34 27 28 27 31 28 18 12 2 0 0 0 4 1 0 4 0 0 0 0 0 0 0 0 0 0 0 0 0 0 0 1 0 1 6 9 13 14 16 9 8 13 13 11 12 14 9 10 1 0 3 3 6 6 19 24 27 27 25 20 17 8 8 9 16 9 4 12 7 7 0 0 1 0 0 0 0 0 0 0 0 0 0 0 0 13 18 17 23 18 22 32 34 23 27 28 33 35 27 19 12 0 0 0 0 7 10 2 0 0 3 2 0 0 1 2 0 0 0 0 0 0 0 0 0 2 5 3 4 0 0 0 5 7 7 9 9 13 12 10 7 0 1 1 6 5 9 25 23 25 24 19 14 10 9 10 9 10 11 0 4 4 3 2 2 0 0 0 0 0 0 0 0 0 0 2 13 9 19 18 11 14 27 34 28 23 28 25 33 40 35 24 9 0 0 0 2 3 0 4 4 1 0 0 0 0 0 0 0 0 0 0 0 0 0 0 0 2 7 5 4 6 9 10 8 9 8 9 11 12 10 7 7 3 0 2 6 10 5 2 16 24 23 21 18 14 11 13 13 6 0 0 0 0 0 0 0 0 0 0 0 0 0 0 0 0 0 0 0 5 18 15 7 19 28 30 25 24 30 20 27 39 35 25 11 4 0 0 2 5 2 1 0 0 0 0 0 0 0 0 0 0 0 0 0 0 0 0 0 0 0 2 2 7 10 10 9 7 9 10 11 8 8 6 6 8 2 5 11 15 14 9 0 4 7 6 5 0 0 0 1 3 3 2 0 0 0 0 0 0 0 0 0 0 0 0 0 0 0 0 3 9 19 13 13 23 29 27 19 26 29 18 25 40 39 24 12 0 0 0 0 4 2 0 0 0 0 0 0 0 0 0 0 0 0 0 0 0 0 0 0 0 3 0 0 6 7 8 8 2 7 9 9 5 6 5 5 6 6 11 14 16 14 13 7 5 11 11 15 14 11 9 5 7 10 9 5 6 0 0 0 0 0 0 0 0 0 0 0 0 0 0 6 7 16 12 20 28 28 21 21 27 23 19 25 34 40 33 12 1 0 0 0 3 0 0 0 0 0 0 0 0 0 0 0 0 0 0 0 0 0 0 0 0 0 0 0 0 0 0 0 0 0 3 3 0 3 2 2 3 8 11 15 15 15 13 8 7 6 8 9 6 3 4 3 3 2 4 0 0 0 0 0 0 0 0 0 0 0 0 0 2 0 0 10 8 16 14 23 28 24 17 24 27 21 16 22 27 42 37 19 5 0 0 0 3 0 0 0 0 0 0 0 0 0 0 0 0 0 0 0 0 0 0 0 0 0 0 0 0 0 0 0 0 0 0 0 0 0 0 1 5 7 7 8 6 8 9 5 3 3 1 2 6 12 10 9 5 7 7 6 1 0 0 0 0 0 0 0 0 0 0 0 2 0 6 12 13 18 18 23 25 18 18 25 22 19 16 19 24 37 40 25 6 0 0 0 2 1 1 2 0 0 0 0 0 0 0 0 0 0 0 0 0 0 0 0 0 0 0 0 0 0 0 0 0 0 0 0 0 0 0 5 3 4 3 3 0 1 3 5 2 0 0 0 0 0 0 3 6 7 7 2 0 0 0 0 0 0 0 0 0 0 0 0 1 0 14 12 14 20 20 19 20 18 19 22 17 17 16 16 20 30 40 28 10 2 0 0 2 3 3 2 1 0 0 0 0 0 0 0 0 0 0 0 0 0 0 0 0 0 0 0 0 0 0 0 0 0 0 0 0 0 0 1 0 0 5 7 3 1 3 9 7 0 0 0 0 0 0 0 3 3 2 3 0 0 0 0 0 0 0 0 0 0 0 0 0 3 14 14 14 20 21 22 16 18 20 16 14 16 15 15 17 25 33 30 12 5 1 1 4 7 6 5 3 0 0 0 0 0 0 0 0 0 0 0 0 0 0 0 0 0 0 0 0 0 0 0 0 0 0 0 0 0 0 0 0 0 5 10 13 10 12 11 8 5 0 0 0 0 0 0 0 2 2 1 0 0 0 0 0 0 0 0 0 0 0 0 4 7 16 17 15 19 23 17 17 18 16 11 14 15 10 11 14 21 29 28 17 7 5 4 6 9 8 7 7 3 0 0 3 4 7 7 6 2 0 0 0 0 0 0 0 0 0 0 0 0 0 0 0 0 0 0 0 0 0 0 0 0 6 12 17 19 19 18 14 10 2 0 0 0 0 0 0 0 2 3 3 1 0 0 0 0 0 0 0 0 0 1 5 12 15 18 15 17 17 14 14 15 10 11 14 13 9 8 10 15 20 25 14 15 8 8 8 10 9 7 9 7 3 4 8 9 10 11 10 9 7 5 3 0 0 0 0 0 0 0 0 0 0 0 0 0 5 3 0 0 0 0 0 0 6 14 17 19 22 21 18 13 9 10 7 7 5 0 0 1 6 7 4 4 1 0 0 0 0 0 0 1 2 4 5 14 15 13 12 11 11 12 16 9 10 11 12 15 9 9 8 12 18 25 16 18 19 12 12 13 12 10 9 10 6 8 15 13 13 15 13 13 13 14 13 14 12 10 5 0 0 0 0 0 0 0 0 0 3 8 7 8 7 7 6 8 13 14 13 15 18 20 17 15 15 16 13 8 10 6 5 6 7 9 6 4 1 0 0 0 1 2 2 3 5 4 4 16 12 7 8 10 8 14 9 9 10 11 12 13 9 9 7 14 18 25 20 23 26 20 17 16 15 11 13 15 12 9 14 14 14 12 14 16 17 17 18 19 19 16 14 11 6 3 0 0 0 0 0 0 0 6 8 11 13 16 16 17 20 16 12 12 16 18 19 17 17 16 15 10 12 12 8 10 10 11 6 3 4 0 0 0 2 4 3 4 6 1 5 13 6 5 7 6 11 8 8 9 12 9 11 12 7 10 5 14 19 23 23 26 34 27 21 25 19 16 19 18 14 11 13 14 13 12 15 16 16 17 19 19 21 20 15 12 10 9 6 3 0 0 0 0 1 4 8 11 14 18 19 20 20 18 14 14 14 14 15 17 15 13 12 9 11 11 9 12 13 10 6 4 3 3 1 0 2 4 4 5 3 0 0 10 3 4 9 6 9 8 8 8 10 12 11 11 9 8 8 13 17 22 22 27 37 35 25 30 27 21 21 21 17 9 13 13 11 10 11 13 13 14 16 14 18 17 12 9 9 7 8 6 3 0 0 0 2 2 7 10 11 11 14 16 17 14 13 12 11 9 12 13 13 12 6 6 9 9 9 13 13 10 5 3 1 4 2 1 2 3 7 2 1 0 0 1 0 3 2 6 4 8 7 10 10 10 12 12 8 8 8 12 19 20 21 26 36 40 30 31 32 27 22 21 17 11 10 11 9 5 6 4 5 7 10 12 12 9 10 6 7 7 6 8 5 1 0 0 2 4 4 6 7 5 7 8 11 8 6 7 5 6 10 13 11 12 7 3 10 9 8 13 10 7 3 0 2 3 2 3 3 2 6 3 0 0 0 0 0 0 3 3 6 7 9 8 10 10 11 11 8 8 9 9 17 20 21 26 34 39 35 33 33 30 25 21 14 7 7 4 0 0 0 0 0 0 0 4 1 4 3 2 1 3 1 2 3 0 0 0 0 0 2 0 1 0 0 2 4 3 3 5 7 6 9 8 9 12 9 8 12 10 11 12 10 5 1 1 2 2 2 3 3 2 6 4 1 0 0 0 0 4 3 5 6 7 10 9 9 9 9 12 7 9 9 8 14 19 20 23 30 39 34 30 35 29 24 18 8 0 0 0 0 0 0 0 0 0 0 0 0 0 0 0 0 0 0 0 0 0 0 0 0 0 0 0 0 0 0 3 4 6 8 11 11 11 10 10 14 16 12 12 17 13 11 11 9 2 0 0 2 0 1 3 3 3 6 4 2 0 0 1 0 5 2 7 7 7 10 9 10 8 10 12 8 10 8 8 13 18 19 22 28 36 36 28 32 29 24 21 8 0 0 0 0 0 0 0 0 0 0 0 0 0 0 0 0 0 0 0 0 0 0 0 0 0 0 0 0 0 0 4 5 7 10 9 10 9 10 10 15 16 13 13 13 10 7 7 8 1 0 0 0 0 3 2 4 4 6 4 0 0 3 0 1 5 3 7 7 9 8 10 7 9 8 10 8 9 9 10 9 16 17 21 29 31 35 26 29 29 26 25 17 0 0 0 0 0 0 0 0 0 0 0 0 0 0 0 0 0 0 0 0 0 0 0 0 0 0 0 0 0 0 0 0 0 0 1 0 0 0 0 4 4 2 6 9 6 2 6 2 3 0 1 4 4 4 3 2 4 7 3 0 0 4 0 1 5 5 7 8 8 8 9 7 9 7 10 6 9 9 9 10 11 16 19 29 30 31 28 24 29 25 26 27 10 0 0 0 0 0 0 0 0 0 0 0 0 0 0 0 0 0 0 0 0 0 0 0 0 0 0 0 0 0 0 0 0 1 2 1 0 2 5 9 3 4 8 13 8 7 8 7 6 4 4 6 8 6 5 0 5 2 1 0 1 3 0 3 4 6 7 9 8 7 7 8 7 7 9 7 8 9 8 9 8 16 18 24 29 28 28 23 24 26 24 25 21 6 4 4 1 0 1 4 3 2 0 0 0 0 0 0 0 0 0 0 0 6 6 6 4 6 8 7 8 11 8 7 4 5 5 6 5 10 13 14 11 8 14 15 9 8 9 8 7 5 4 5 8 5 1 2 4 1 0 0 2 1 1 3 6 7 7 9 8 7 8 9 7 8 6 7 8 9 9 8 8 11 17 19 26 27 24 22 21 21 23 22 21 11 2 5 10 11 10 8 7 9 7 6 8 11 8 6 2 2 0 0 0 0 1 4 2 5 4 5 7 9 12 14 11 11 14 11 10 10 12 13 12 10 14 14 10 9 10 9 7 3 3 4 6 2 1 1 1 0 2 1 2 2 1 3 6 8 8 9 7 7 6 6 8 7 7 8 8 9 6 9 7 11 17 16 21 25 23 19 17 16 19 19 16 13 5 4 5 11 7 6 8 6 7 9 9 11 10 12 17 17 13 4 3 3 7 5 4 6 5 6 7 11 13 13 13 14 17 11 12 10 11 10 9 11 12 10 7 9 9 7 5 3 4 4 5 0 0 1 0 0 5 0 0 2 2 3 9 7 8 9 8 7 8 5 6 8 7 7 8 7 7 7 10 10 16 13 18 18 22 19 12 9 13 14 10 11 7 2 3 3 6 1 4 2 1 2 2 5 4 3 4 7 9 7 10 10 9 8 5 5 3 4 9 9 10 12 14 13 14 12 11 10 10 8 9 8 6 5 5 5 5 4 4 3 2 3 2 0 0 0 0 3 4 0 0 3 4 5 9 7 8 9 6 7 7 6 7 7 9 7 5 7 5 7 7 11 14 14 12 12 15 19 10 3 6 7 5 6 7 1 1 0 0 0 0 0 0 0 0 0 0 0 0 0 0 0 1 2 3 0 0 2 3 1 7 6 8 9 10 9 8 9 6 6 9 7 6 6 4 0 0 3 1 4 2 1 1 0 0 0 0 0 0 8 1 0 0 3 2 7 5 8 7 9 7 6 6 5 5 6 7 6 4 5 6 5 8 10 22 14 9 7 13 13 11 1 0 3 2 3 7 1 0 0 0 0 0 0 0 0 0 0 0 0 0 0 0 0 0 0 0 0 0 0 0 0 1 1 4 5 3 3 2 3 4 3 5 4 2 2 1 0 0 0 2 4 2 1 0 0 0 0 0 0 0 11 0 0 0 4 4 7 5 6 6 8 6 5 7 7 4 5 6 4 3 4 5 5 4 18 24 13 7 7 5 14 8 4 0 0 1 1 5 4 2 0 0 0 0 0 0 0 0 0 0 0 0 0 0 0 0 0 0 0 0 0 0 0 0 0 0 1 0 2 2 4 7 4 6 3 1 1 0 1 0 1 2 2 1 1 0 0 0 0 0 0 0 11 1 0 0 0 0 6 5 7 5 7 4 6 6 4 7 4 8 2 2 2 5 2 0 23 20 9 10 3 1 9 5 0 0 0 0 0 4 6 4 4 2 1 0 0 0 0 0 0 0 0 0 0 0 0 0 0 0 0 0 0 0 0 0 0 0 1 2 4 4 6 7 5 4 1 1 0 0 0 0 2 3 2 0 0 0 0 0 0 0 0 0 6 8 0 0 0 0 0 5 7 4 4 5 4 6 4 5 4 4 2 2 1 0 0 2 25 10 7 10 0 0 4 2 0 0 0 0 0 1 6 6 7 6 6 9 4 0 0 0 0 0 0 0 0 0 0 0 0 0 0 0 0 0 0 1 5 6 6 9 9 6 7 8 8 6 4 0 0 0 2 1 2 2 2 1 0 0 0 0 0 0 0 0 0 12 3 0 0 0 0 0 7 4 5 5 3 5 5 3 5 3 1 1 0 0 0 14 30 4 2 1 0 0 2 0 0 0 0 0 0 0 6 7 12 15 15 17 15 12 8 2 0 0 0 0 0 0 0 0 0 0 0 0 4 8 11 14 16 15 14 13 13 13 13 14 11 9 4 3 1 2 3 2 3 3 1 2 0 0 0 0 0 0 0 0 0 11 9 0 0 0 0 0 0 4 5 4 4 5 4 4 4 2 0 0 0 0 0 26 24 0 0 0 0 4 2 0 0 0 0 0 0 0 1 5 12 17 22 24 27 23 18 14 12 6 3 2 4 8 9 12 14 13 11 15 14 18 19 23 24 22 23 20 21 22 21 18 17 12 9 8 4 6 4 3 2 2 0 2 0 0 0 0 0 0 0 0 0 11 7 3 0 0 0 0 0 0 3 3 5 4 6 5 4 4 0 0 0 0 0 30 9 0 0 0 2 10 12 0 0 0 0 0 0 0 0 2 6 12 16 23 25 28 28 28 25 25 22 17 16 17 17 18 19 20 20 24 23 25 26 28 27 27 27 25 26 25 23 21 18 13 12 10 7 6 4 3 0 0 0 1 0 0 0 0 0 0 0 0 0 12 1 7 0 0 0 0 0 0 0 1 5 3 4 6 4 5 0 0 0 0 1 22 0 0 0 0 8 21 19 0 0 0 0 0 0 0 0 0 0 4 9 18 23 28 30 31 31 29 32 30 25 21 19 20 21 22 25 27 29 29 30 30 30 28 28 27 24 24 21 21 18 12 8 7 6 4 3 1 0 0 0 0 0 0 0 0 0 0 0 0 0 4 1 2 8 0 0 0 0 0 0 0 0 5 2 3 5 4 0 0 0 0 0 7 0 0 0 0 10 32 24 1 0 0 0 0 0 0 0 0 0 0 4 12 20 24 30 25 28 28 29 29 28 28 26 29 30 28 29 30 31 30 33 33 32 29 27 26 22 23 20 16 13 10 5 3 3 2 0 0 0 0 0 0 0 0 0 0 0 0 0 0 0 0 0 0 9 0 0 0 0 0 0 0 0 0 2 3 3 2 0 0 0 0 0 0 0 0 0 0 14 37 22 0 0 0 0 0 0 0 0 0 0 0 0 4 14 18 24 23 23 24 24 26 24 26 25 27 28 26 29 28 32 31 33 32 31 26 24 23 20 18 15 12 8 6 3 1 0 0 0 0 0 0 0 0 0 0 0 0 0 0 0 0 0 0 0 0 7 4 0 0 0 0 0 0 0 0 0 0 3 1 0 0 0 0 0 0 0 0 0 0 12 41 23 0 0 0 0 0 0 0 0 0 0 0 0 0 6 12 17 20 16 20 22 23 21 21 20 21 24 27 28 29 31 31 30 27 28 24 22 19 17 13 11 8 6 3 0 0 0 0 0 0 0 0 0 0 0 0 0 0 0 2 0 2 0 0 0 0 0 6 0 0 0 0 0 0 0 0 0 0 0 0 0 0 0 0 0 0 0 0 0 0 9 39 24 1 0 0 0 0 0 0 0 0 0 0 0 0 0 6 10 15 14 16 18 19 20 18 19 20 22 24 25 26 27 28 27 25 23 21 19 16 14 10 8 6 3 0 0 0 0 0 0 0 0 0 0 0 0 0 0 0 9 4 0 5 0 4 0 0 0 0 0 0 0 0 0 0 0 0 0 0 0 0 0 0 0 0 0 0 0 0 0 0 6 40 25 2 0 0 0 0 0 0 0 0 0 0 0 0 0 0 1 8 12 12 13 12 17 15 17 16 18 17 17 19 21 21 24 20 19 14 14 11 7 6 5 1 0 0 0 0 0 0 0 0 0 0 0 0 0 1 3 0 16 4 5 7 0 7 0 0 0 0 0 0 0 0 0 0 0 0 0 0 0 0 0 0 0 0 0 0 0 0 0 0 12 37 31 5 0 0 0 0 0 0 0 0 0 0 0 0 0 0 0 0 3 5 6 7 8 9 12 11 12 10 11 10 13 13 14 13 11 9 6 2 0 0 0 0 0 0 0 0 0 0 0 0 0 0 0 0 0 6 5 0 19 5 7 11 0 15 0 0 0 0 0 0 0 0 0 0 0 0 0 0 0 0 0 0 0 0 0 0 0 0 0 0 17 32 33 9 0 0 0 0 0 0 0 0 0 0 0 0 0 0 0 0 0 0 0 0 0 1 0 3 3 3 5 3 2 3 3 0 0 0 0 0 0 0 0 0 0 0 0 0 0 0 0 0 0 0 0 0 0 10 5 3 18 6 7 12 5 19 0 0 0 0 0 0 0 0 0 0 0 0 0 0 0 0 0 0 0 0 0 0 0 0 0 2 21 20 28 21 0 0 0 0 0 0 0 0 0 0 0 0 0 0 0 0 0 0 0 0 0 0 0 0 0 0 0 0 0 0 0 0 0 0 0 0 0 0 0 0 0 0 0 0 0 0 0 0 0 0 0 0 3 14 3 12 15 5 11 14 14 14 0 0 0 0 0 0 0 0 0 0 0 0 0 0 0 0 0 0 0 0 0 0 0 5 0 0 21 14 15 28 13 0 0 0 0 0 0 0 0 0 0 0 0 0 0 0 0 0 0 0 0 0 0 0 0 0 0 0 0 0 0 0 0 0 0 0 0 0 0 0 0 0 0 0 0 0 0 0 0 1 0 0 6 13 4 14 10 5 14 18 19 6 0 0 0 0 0 0 0 0 0 0 0 0 0 0 0 0 0 0 0 0 0 0 0 4 2 0 16 12 5 31 25 0 0 0 0 0 0 0 0 0 0 0 0 0 0 0 0 0 0 0 0 0 0 0 0 0 0 0 0 0 0 0 0 0 0 0 0 0 0 0 0 0 0 0 0 0 0 0 0 1 0 1 9 11 8 16 5 10 17 18 15 0 0 0 0 0 0 0 0 0 0 0 0 0 0 0 0 0 