P2
92
112
255
0 0 0 0 0 0 0 0 0 0 0 0 0 0 0 0 0 0 0 0 0 9 0 0 0 0 0 0 0 0 0 0 0 0 5 0 0 0 0 0 0 0 0 0 0 0 0 0 0 0 0 0 0 0 0 0 0 0 0 0 0 0 0 0 0 0 0 0 0 0 0 0 0 0 0 0 0 0 0 0 0 0 0 0 0 0 0 0 0 0 0 0 0 0 0 0 0 0 0 0 0 0 0 0 0 0 0 0 0 0 0 0 0 2 0 0 0 0 0 0 0 0 2 0 2 6 10 1 3 5 0 1 0 0 0 0 0 0 0 0 0 0 0 0 0 0 0 0 0 0 0 0 0 0 0 0 0 0 0 0 0 0 0 0 0 0 0 0 0 0 0 0 0 0 0 0 0 0 0 0 0 0 0 0 0 0 0 0 0 0 0 0 0 0 0 0 0 0 0 0 0 0 0 0 1 0 0 0 0 4 6 2 0 7 14 12 17 12 8 13 17 9 8 11 12 2 2 1 4 1 4 0 0 2 2 0 0 0 0 0 0 0 0 0 0 0 0 0 0 0 0 0 0 0 0 0 0 0 0 0 0 0 0 0 0 0 0 0 0 0 0 0 0 0 0 0 0 0 0 0 0 0 0 0 0 0 0 0 0 0 0 0 0 0 0 0 0 1 6 2 7 10 12 10 15 23 26 27 25 21 30 33 28 25 26 24 17 16 11 5 10 15 10 9 16 15 8 3 0 0 0 0 0 0 0 0 0 0 0 0 0 0 0 0 0 0 0 0 0 0 0 0 0 0 0 0 0 0 0 0 0 0 0 0 0 0 0 0 0 0 0 0 0 0 0 0 0 0 0 0 0 0 0 0 0 0 0 0 0 11 10 11 17 18 21 26 34 37 39 36 38 42 48 44 43 41 38 34 34 24 21 20 24 17 14 27 21 18 13 12 6 2 1 3 9 2 1 1 0 0 0 0 0 0 0 0 0 0 0 0 0 0 0 0 0 0 0 0 0 0 0 0 0 0 0 0 0 0 0 0 0 0 0 0 0 0 0 0 0 0 0 0 0 0 0 0 0 0 0 7 7 16 17 20 31 31 37 47 47 52 46 48 57 54 54 48 51 47 47 43 38 33 31 34 34 31 31 34 30 28 25 19 15 15 15 20 16 14 13 5 3 0 0 5 1 0 0 0 0 0 0 0 0 0 0 0 0 0 0 0 0 0 0 0 0 0 0 0 0 0 0 0 0 0 0 0 0 0 0 0 0 0 0 0 0 0 0 0 0 0 2 13 18 20 32 36 40 47 50 54 56 55 53 58 60 54 52 56 58 49 49 45 43 42 41 49 46 44 46 46 46 41 42 29 27 28 27 29 23 23 18 14 16 12 10 10 11 4 0 0 0 0 0 0 0 0 0 0 0 0 0 0 0 0 0 0 0 0 0 0 0 0 0 0 0 0 0 0 0 0 0 0 0 0 0 0 0 0 0 0 0 1 18 19 19 32 40 44 50 52 54 55 55 57 53 58 60 58 61 64 62 57 56 54 49 51 53 55 54 55 53 54 54 49 48 42 42 35 36 34 35 28 22 23 20 20 16 15 17 9 7 2 0 0 0 0 0 0 0 0 0 0 0 0 0 0 0 0 0 0 0 0 0 0 0 0 0 0 0 0 0 0 0 0 0 0 0 0 0 0 0 0 6 17 19 17 24 42 47 48 53 54 55 56 60 56 57 61 60 63 66 65 63 67 64 59 59 60 59 58 61 61 62 60 56 53 50 50 45 42 41 41 40 36 30 29 24 28 22 22 21 15 19 15 11 2 0 0 0 0 0 0 0 0 0 0 0 0 0 0 0 0 0 0 0 0 0 0 0 0 0 0 0 0 0 0 0 0 0 0 0 0 4 10 17 20 17 19 36 49 50 50 58 62 60 63 63 61 68 65 66 69 70 68 70 73 70 66 65 65 62 66 67 68 71 66 62 56 60 55 52 48 46 45 43 41 37 34 31 32 28 26 27 22 24 21 18 12 5 0 0 0 0 0 0 0 0 0 0 0 0 0 0 0 0 0 0 0 0 0 0 0 0 0 0 0 0 0 0 0 0 0 0 8 10 21 21 18 16 31 49 52 52 59 63 66 67 70 67 70 75 71 72 75 71 78 76 76 71 70 68 69 69 75 77 75 76 70 67 64 65 63 58 51 50 47 47 44 41 38 37 36 31 30 31 25 23 24 20 19 12 10 0 0 0 0 0 0 0 0 0 0 0 0 0 0 0 0 0 0 0 0 0 0 0 0 0 0 0 0 0 0 0 0 0 17 18 21 21 19 31 46 56 56 59 67 68 72 72 72 74 76 80 75 75 79 79 82 78 78 74 77 72 77 79 80 80 79 78 75 72 69 68 66 61 55 54 50 52 46 47 40 40 41 37 33 32 28 26 23 19 23 14 14 7 1 0 0 0 0 0 0 0 0 0 0 0 0 0 0 0 0 0 0 0 0 0 0 0 0 0 0 0 0 0 0 15 18 20 21 24 28 47 54 57 59 64 72 73 76 78 76 77 77 81 78 79 85 83 83 79 80 77 80 80 84 84 82 83 83 83 81 77 75 71 70 62 60 54 54 54 50 48 46 44 44 43 40 35 33 30 25 23 21 17 17 12 8 0 0 0 0 0 0 0 0 0 0 0 0 0 0 0 0 0 0 0 0 0 0 0 0 0 0 0 0 0 5 21 15 21 26 34 46 53 56 58 63 69 73 75 79 78 76 79 78 79 82 83 85 84 83 81 83 81 86 84 86 85 84 82 83 84 80 77 75 74 69 65 63 58 58 55 52 51 51 47 45 45 46 43 39 33 26 28 22 17 20 15 13 7 0 0 0 0 0 0 0 0 0 0 0 0 0 0 0 0 0 0 0 0 0 0 0 0 0 0 0 0 17 20 19 27 38 48 52 54 56 56 65 71 75 76 77 75 75 78 79 80 83 84 82 84 83 83 82 83 83 84 85 84 83 82 82 80 79 77 74 73 69 69 63 62 60 58 57 55 51 48 48 46 49 45 41 38 32 30 24 20 20 15 15 12 7 0 0 0 0 0 0 0 0 0 0 0 0 0 0 0 0 0 0 0 0 0 0 0 0 0 0 9 23 21 25 39 49 52 53 56 53 58 70 73 74 73 72 75 75 78 78 79 80 79 80 81 81 81 80 79 81 81 83 82 81 79 79 78 80 77 72 72 68 67 63 63 61 62 60 56 54 50 49 48 46 44 41 40 38 34 24 20 18 17 15 14 13 2 0 0 0 0 0 0 0 0 0 0 0 0 0 0 0 0 0 0 0 0 0 0 0 0 0 16 23 24 31 50 53 52 54 55 53 66 70 69 69 72 70 74 74 76 75 75 77 76 77 77 77 77 78 76 77 79 79 80 79 79 76 77 76 75 72 67 69 63 64 61 63 61 59 57 55 55 51 49 48 44 43 40 38 37 30 24 21 14 13 14 17 10 2 0 0 0 0 0 0 0 0 0 0 0 0 0 0 0 0 0 0 0 0 0 0 0 10 14 24 28 40 55 51 50 55 57 59 68 66 65 69 70 72 73 72 71 72 72 73 73 73 74 73 73 74 74 74 77 76 77 76 76 74 73 74 73 70 66 67 64 62 59 62 60 56 57 53 51 51 49 46 45 43 39 38 37 31 28 22 18 11 14 17 16 7 0 0 0 0 0 0 0 0 0 0 0 0 0 0 0 0 0 0 0 0 0 0 7 17 17 22 34 45 54 48 53 58 58 64 65 63 64 70 70 70 70 71 68 69 68 68 69 70 70 70 70 70 72 71 72 72 70 71 70 69 69 68 68 65 63 63 61 58 57 57 56 54 54 50 50 49 48 44 43 43 39 35 35 31 32 27 21 11 12 15 17 13 1 0 0 0 0 0 0 0 0 0 0 0 0 0 0 0 0 0 0 0 0 4 13 22 24 20 42 46 52 52 55 59 61 65 63 62 67 69 68 67 65 67 65 65 64 64 66 66 66 66 67 66 67 68 66 67 67 66 66 65 64 65 63 61 59 59 58 57 55 53 53 54 49 50 46 45 46 43 43 43 39 35 35 29 29 29 28 15 8 14 17 15 8 0 0 0 0 0 0 0 0 0 0 0 0 0 0 0 0 0 0 0 0 9 17 24 29 31 43 46 54 55 57 60 63 63 61 63 67 66 65 65 64 65 63 63 62 62 63 63 61 63 65 63 62 64 63 64 65 61 62 63 60 63 60 58 56 56 56 56 56 52 50 51 47 46 43 43 41 42 41 41 38 36 34 31 27 27 29 19 10 12 12 18 11 0 0 0 0 0 0 0 0 0 0 0 0 0 0 0 0 0 0 0 4 16 19 26 31 36 45 47 52 57 59 60 62 60 59 62 63 63 64 63 62 62 60 61 60 60 59 59 59 60 61 60 59 60 60 61 60 60 59 59 56 59 59 57 53 53 54 53 53 50 50 49 47 44 43 43 40 38 41 39 35 36 35 28 28 28 25 22 14 12 9 15 14 5 0 0 0 0 0 0 0 0 0 0 0 0 0 0 0 0 0 0 11 17 23 29 32 41 48 46 52 56 59 59 57 58 60 60 61 61 62 61 58 60 58 58 58 57 56 56 57 57 57 57 58 54 55 58 58 57 57 56 53 56 56 55 50 49 51 51 50 48 46 46 45 43 43 40 39 38 38 37 35 34 32 27 28 28 25 21 17 13 6 10 14 8 2 0 0 0 0 0 0 0 0 0 0 0 0 0 0 0 0 0 18 17 27 28 32 38 46 47 51 53 58 55 55 59 59 58 58 59 59 58 54 56 55 54 53 54 53 52 53 53 53 54 54 51 51 53 54 53 53 54 51 52 54 52 47 48 48 48 47 46 45 42 42 39 38 37 36 36 32 34 33 30 27 26 25 25 27 21 17 14 7 7 10 10 3 0 0 0 0 0 0 0 0 0 0 0 0 0 0 0 0 5 22 18 25 25 31 35 43 45 52 52 55 52 57 56 56 56 55 53 55 52 51 50 48 48 50 49 49 48 49 49 50 50 49 48 48 48 51 49 49 49 47 47 51 49 46 45 44 43 44 44 43 39 39 35 33 32 31 32 27 29 30 25 25 24 23 19 23 22 19 15 7 3 5 13 4 0 0 0 0 0 0 0 0 0 0 0 0 0 0 0 0 9 23 16 19 25 31 33 44 48 48 48 53 50 56 52 51 51 48 49 50 49 46 45 43 44 45 45 43 44 45 43 45 45 43 43 45 43 47 47 46 44 45 43 48 47 43 42 40 38 42 42 39 35 36 31 29 28 27 24 23 25 26 23 21 21 22 17 17 19 15 16 11 3 2 8 13 0 0 0 0 0 0 0 0 0 0 0 0 0 0 1 0 9 21 16 19 22 32 35 47 48 45 46 51 48 51 47 45 46 46 48 46 43 41 40 40 40 40 40 38 38 38 35 36 36 35 35 38 38 40 43 42 41 43 39 44 42 38 36 34 30 33 34 32 29 29 26 23 21 19 17 16 16 17 16 17 15 15 15 14 16 13 12 10 6 0 5 13 0 0 0 0 0 0 0 0 0 0 0 0 0 0 2 0 7 19 13 18 28 32 36 47 50 44 45 48 43 44 44 42 43 43 42 39 38 36 35 36 36 36 31 32 28 25 22 23 27 29 29 31 34 35 38 39 38 38 34 38 35 32 29 24 19 21 22 22 19 19 17 15 14 11 10 8 6 6 8 10 9 7 9 11 11 13 12 8 6 0 1 9 0 0 0 0 0 0 0 0 0 0 0 0 0 0 0 0 3 15 9 21 32 29 36 47 46 44 43 42 39 39 40 37 38 37 37 34 31 29 28 27 25 25 20 21 15 16 14 15 21 23 26 26 28 29 32 38 36 33 30 32 27 27 24 15 12 12 13 10 6 4 7 5 3 2 1 1 0 0 1 0 0 2 8 7 9 9 14 7 6 0 0 1 1 0 0 0 0 0 0 0 0 0 0 0 0 0 0 0 0 15 13 20 27 24 37 46 40 42 37 39 36 34 37 36 32 31 28 23 19 20 17 14 13 14 12 12 12 9 11 11 16 18 22 23 23 25 26 34 32 28 24 25 21 20 15 6 2 3 5 0 0 0 0 0 0 0 0 0 0 0 0 0 0 0 4 3 6 7 12 7 6 0 0 0 0 0 0 0 0 0 0 0 0 0 0 0 0 0 3 0 0 15 20 21 24 25 37 41 36 36 35 35 34 31 33 28 22 23 17 15 12 9 8 4 6 8 12 10 13 11 11 11 11 13 17 18 17 21 22 29 28 23 20 17 15 12 5 0 0 0 0 0 0 0 0 0 0 0 0 0 0 0 0 0 0 0 0 0 4 2 9 4 5 0 0 0 0 0 0 0 0 0 0 0 0 0 0 0 0 0 2 0 0 12 24 18 24 28 36 34 36 32 34 31 32 27 26 21 16 14 9 6 8 5 5 3 5 9 11 13 15 15 17 18 16 15 16 15 14 14 17 23 23 17 13 9 6 3 0 0 0 0 0 1 0 0 0 0 0 0 0 0 0 0 0 0 0 0 0 0 2 1 4 2 4 0 0 0 0 0 0 0 0 0 0 0 0 0 0 0 0 0 1 0 1 11 24 19 25 30 33 33 34 29 35 26 24 20 20 17 15 12 11 12 8 6 3 4 4 6 7 10 10 15 18 20 21 16 17 15 13 12 13 17 14 6 0 0 0 0 0 0 0 0 0 0 0 0 0 0 0 0 0 0 0 0 0 3 1 0 0 0 2 2 1 0 0 2 0 0 0 0 0 0 0 0 0 0 0 0 0 0 0 0 0 0 5 7 22 19 28 32 29 30 31 30 28 22 21 19 21 20 17 18 17 16 9 7 10 8 6 5 10 12 12 10 8 5 6 4 9 4 3 0 3 6 0 0 0 0 0 0 0 0 0 0 0 0 0 0 0 0 0 0 0 0 0 0 0 0 0 0 0 0 0 0 0 0 0 0 0 0 0 0 0 0 0 0 0 0 0 0 0 0 0 0 0 0 3 8 20 16 24 30 21 28 30 24 22 17 19 16 12 13 12 11 7 2 4 6 7 7 7 10 16 15 7 3 0 0 0 0 0 0 0 0 1 6 3 0 0 0 0 0 0 0 0 0 0 0 0 0 0 0 0 0 0 0 0 0 0 0 0 0 0 0 0 0 0 0 0 0 0 0 0 0 0 0 0 0 0 0 0 0 0 0 0 0 0 0 0 8 18 14 19 24 17 28 21 21 16 16 22 15 6 10 7 1 0 0 0 0 0 1 0 0 0 0 0 0 0 0 0 0 0 0 0 0 0 0 0 0 0 0 0 0 0 0 0 0 0 0 0 0 0 0 0 0 0 0 0 0 0 0 0 0 0 0 0 0 0 0 0 0 0 0 0 0 0 0 0 0 0 0 0 0 0 0 0 0 0 0 0 5 18 8 17 18 15 22 20 18 18 20 25 3 6 9 3 0 0 2 0 0 0 0 0 0 0 0 0 0 0 0 0 0 0 0 0 0 0 0 0 0 0 0 0 0 0 0 0 0 0 0 0 0 0 0 0 0 0 0 0 0 0 0 0 0 0 0 0 0 0 0 0 0 0 0 0 0 0 0 0 0 0 0 0 0 0 0 0 0 0 0 0 0 18 9 11 17 16 27 18 19 23 21 3 3 15 9 0 0 1 0 0 0 0 0 0 0 0 0 0 0 0 0 0 0 0 0 0 0 0 0 0 0 0 0 0 0 0 0 0 0 0 0 0 0 0 0 0 0 0 0 0 0 0 0 0 0 0 0 0 0 0 0 0 0 0 0 0 0 0 0 0 0 0 0 0 0 0 0 0 0 0 0 0 0 22 6 6 19 13 27 17 22 20 10 0 13 13 0 0 0 0 0 0 0 0 0 0 0 0 0 0 0 0 0 3 0 0 0 0 0 0 0 0 0 0 0 0 0 0 0 0 0 0 0 0 0 0 0 0 0 0 0 0 0 0 0 0 0 0 0 0 0 0 0 0 0 0 0 0 0 0 0 0 0 0 0 0 0 0 0 0 0 0 0 0 0 16 0 3 17 13 11 21 14 16 0 1 6 0 0 0 0 0 0 0 0 0 0 0 0 0 0 0 0 0 0 0 0 0 0 0 0 0 0 0 0 0 0 0 0 0 0 0 0 0 0 0 0 0 0 0 0 0 0 0 0 0 0 0 0 0 0 0 0 0 0 0 0 0 0 0 0 0 0 0 0 0 0 0 0 0 0 0 0 0 0 0 3 5 0 5 15 2 8 19 5 5 0 5 4 0 0 0 0 0 0 0 0 0 0 0 0 0 0 0 0 0 0 0 0 0 0 0 0 0 0 0 0 0 0 0 0 0 0 0 0 0 0 0 0 0 0 0 0 0 0 0 0 0 0 0 0 0 0 0 0 0 0 0 0 0 0 0 0 0 0 0 0 0 0 0 0 0 0 0 0 0 0 5 0 3 0 10 15 0 14 12 3 0 6 5 4 2 5 0 0 0 0 0 0 0 0 0 0 0 0 0 0 0 0 0 0 0 0 0 0 0 0 0 0 0 0 0 0 0 0 0 0 0 0 0 0 0 0 0 0 0 0 0 0 0 0 0 0 0 0 0 0 0 0 0 0 0 0 0 0 0 0 0 0 0 0 0 0 0 0 0 0 5 20 30 9 18 5 20 19 0 19 6 7 0 14 9 9 14 7 0 0 0 0 0 0 0 0 0 0 0 0 0 0 0 0 0 0 0 0 0 0 0 0 0 0 0 0 0 0 0 0 0 0 0 0 0 0 0 0 0 0 0 0 0 0 0 0 0 0 0 0 0 0 0 0 0 0 0 0 0 0 0 0 0 0 0 0 0 0 0 0 0 1 24 31 35 27 26 14 24 6 1 21 11 14 0 17 22 11 9 6 0 0 0 0 0 0 0 0 0 2 0 0 2 0 0 0 0 0 0 0 0 0 0 0 0 0 0 0 0 0 0 0 0 0 0 0 0 0 0 0 0 0 0 0 0 0 0 0 0 0 0 0 0 0 0 0 0 0 0 0 0 0 2 5 4 0 0 0 0 0 0 0 0 17 24 7 19 31 16 28 17 0 0 18 19 23 0 23 21 7 6 7 7 0 0 0 0 0 12 3 2 8 14 4 7 9 0 0 0 16 7 2 0 0 0 0 0 0 0 0 0 0 0 3 2 0 0 0 0 0 0 0 0 0 0 0 0 0 0 0 0 0 0 0 0 0 0 0 0 0 0 0 0 6 19 14 2 0 0 0 0 0 0 0 0 15 6 0 1 19 17 39 12 3 0 15 13 17 0 22 17 5 15 10 9 3 0 5 7 18 23 19 19 18 24 23 11 18 0 5 2 25 18 9 0 0 0 0 0 0 0 3 8 0 0 2 9 0 0 0 0 0 0 0 0 3 0 5 0 0 0 0 0 0 0 0 0 0 0 0 0 0 0 0 1 14 28 24 6 0 0 0 3 0 0 0 0 19 2 0 8 19 12 38 15 8 2 18 7 12 0 13 15 14 21 21 13 9 19 25 26 33 29 33 31 28 33 31 17 18 2 12 19 27 22 2 0 0 0 0 0 0 0 0 1 0 0 0 8 0 0 0 0 0 0 1 13 13 3 7 0 0 0 0 0 0 0 0 0 0 0 0 0 0 0 4 5 20 24 27 16 0 0 0 3 0 0 0 0 19 10 24 23 37 23 27 19 14 2 25 10 11 0 4 1 22 21 24 26 21 31 31 35 40 38 34 37 36 37 31 29 7 3 0 7 9 1 0 0 0 0 0 0 0 0 0 0 0 0 0 8 0 0 0 0 0 0 5 16 20 12 10 7 0 0 0 3 0 0 0 0 0 0 0 0 0 4 12 8 14 12 21 23 0 0 0 1 0 0 0 0 28 20 33 42 55 49 34 27 23 12 27 17 12 0 8 0 33 26 23 31 35 35 37 39 40 37 34 40 38 36 34 35 10 13 14 18 23 13 0 3 0 0 0 0 0 5 0 0 5 0 1 10 10 0 0 3 0 0 4 10 14 13 13 10 6 6 10 14 11 6 0 0 0 0 0 0 0 7 11 12 6 2 10 24 9 0 0 0 0 0 0 9 32 21 25 43 59 52 45 34 26 21 31 18 20 12 17 10 34 27 27 35 43 44 40 43 42 43 45 47 42 40 41 37 18 35 30 43 43 24 22 17 11 1 0 0 8 14 0 0 5 8 7 13 18 8 0 4 7 2 6 9 12 12 14 14 17 16 19 20 18 14 0 0 0 0 0 0 0 5 7 17 6 3 5 22 21 0 0 0 0 0 0 17 34 19 28 33 50 41 55 38 24 21 31 21 21 14 13 23 36 32 27 39 45 47 47 49 52 53 56 52 48 43 45 36 28 48 40 55 39 35 33 21 13 0 0 3 4 14 7 13 2 18 22 19 27 12 5 0 12 6 7 15 17 17 18 19 20 19 20 22 21 18 0 5 2 1 0 0 0 3 7 22 9 3 0 17 30 0 0 0 0 0 0 32 33 23 38 29 45 29 45 26 22 23 32 23 18 17 5 25 35 41 30 45 48 50 52 57 59 60 59 54 50 46 42 34 40 48 49 58 40 49 40 20 10 0 15 11 0 1 15 22 12 28 35 30 35 15 18 0 11 12 11 20 22 24 25 25 25 24 22 21 23 19 3 9 3 0 0 0 0 6 3 20 13 0 0 9 30 0 0 0 0 0 0 36 32 21 52 34 43 33 36 19 21 21 30 21 15 19 1 22 32 43 33 50 51 53 53 59 59 60 57 54 52 49 42 27 55 44 55 47 50 50 39 18 4 4 18 19 1 0 13 21 32 26 36 37 40 19 20 9 3 21 19 23 27 32 30 26 27 23 21 21 20 19 4 4 1 0 2 0 0 6 1 19 18 3 0 1 26 0 0 0 0 0 0 42 33 20 54 45 38 35 27 27 23 15 24 21 13 21 7 14 31 41 33 46 49 53 53 56 55 57 57 56 54 45 41 36 56 41 54 47 54 48 34 21 12 17 16 18 9 0 5 21 40 30 28 39 43 28 16 23 2 12 24 27 34 36 36 30 28 25 24 19 18 15 1 1 0 0 2 0 0 1 2 11 17 2 0 0 21 0 0 0 0 0 0 48 32 26 54 52 38 28 26 29 31 6 24 19 13 20 15 15 23 39 30 41 49 49 53 51 53 54 57 56 53 42 32 54 46 48 45 53 52 43 29 27 31 24 13 7 15 12 0 16 35 36 28 30 43 35 17 22 18 0 19 28 38 38 39 35 31 27 24 18 16 10 0 0 0 0 0 0 0 0 0 4 9 6 0 0 16 0 0 0 0 0 0 51 28 33 56 47 49 20 27 36 32 10 14 17 13 18 18 16 20 30 24 40 46 47 49 48 51 55 55 53 41 40 38 48 40 42 49 51 44 37 30 34 39 26 10 1 13 17 10 11 21 31 33 23 28 29 17 15 25 13 0 25 37 38 40 37 33 30 25 16 13 8 0 0 0 0 0 0 0 0 0 0 3 7 0 0 8 0 0 0 0 0 0 48 29 41 57 43 51 19 20 33 25 18 0 14 10 13 18 12 23 24 21 32 40 46 42 43 49 51 49 42 36 33 44 33 32 32 45 36 33 33 28 32 27 17 0 2 6 14 22 16 8 10 24 24 10 19 18 8 17 18 3 4 30 37 36 36 31 27 24 15 16 1 0 0 0 0 0 0 0 0 0 0 2 2 0 0 1 0 0 0 0 0 0 42 31 48 52 41 47 27 6 29 18 7 0 5 9 8 18 9 21 28 21 28 34 36 38 38 43 39 31 28 30 31 32 19 20 31 29 29 31 27 14 14 7 0 0 0 0 4 15 14 10 2 2 13 12 5 16 6 5 13 12 0 7 23 29 30 24 22 17 12 4 0 0 0 0 1 0 0 0 0 0 0 0 0 0 0 0 0 0 0 0 0 0 23 32 54 46 46 40 30 15 14 21 3 0 5 1 3 13 10 12 25 25 24 30 29 37 34 28 25 14 22 17 21 10 19 19 29 25 29 25 16 0 0 0 0 0 0 0 0 0 4 10 0 0 0 0 0 0 0 0 3 13 0 0 4 10 15 16 15 10 3 0 0 0 0 0 0 0 0 0 0 0 0 0 0 0 0 0 0 0 0 0 0 0 10 21 59 41 50 34 35 23 14 16 0 0 3 0 0 2 8 3 14 23 16 25 25 28 25 22 18 18 15 5 6 3 10 9 17 16 11 2 0 0 0 0 0 0 0 0 0 0 0 0 0 0 0 0 0 0 0 0 0 0 0 0 0 0 0 0 0 0 0 0 0 0 0 0 0 0 0 0 0 0 0 0 0 0 0 0 0 0 0 0 0 0 0 3 60 43 42 32 35 24 15 23 0 0 0 0 0 0 0 0 0 0 0 3 9 13 14 14 12 7 0 1 0 0 0 0 0 0 0 0 0 0 0 0 0 0 0 0 0 0 0 0 0 0 0 0 0 0 0 0 0 0 0 0 0 0 0 0 0 0 0 0 0 0 0 0 0 0 0 0 0 0 0 0 0 0 0 0 0 0 0 0 0 0 0 0 48 52 35 29 31 21 14 19 0 0 0 0 0 0 0 0 4 6 6 5 12 13 9 0 0 0 0 0 0 0 0 0 0 0 0 0 0 0 0 0 0 0 0 0 0 0 0 0 0 0 0 0 0 0 0 0 0 0 0 0 0 0 0 0 0 0 0 0 0 0 0 0 0 0 0 0 0 0 0 0 0 0 0 0 0 0 0 0 0 0 0 0 25 56 40 26 33 17 18 15 0 0 0 0 0 0 1 0 5 7 5 0 0 0 0 0 0 0 0 0 0 0 0 0 0 0 0 0 0 0 0 0 0 0 0 0 0 0 0 0 0 0 0 0 0 0 0 0 0 0 0 0 0 0 0 0 0 0 0 0 0 0 0 0 0 0 0 0 0 0 0 0 0 0 0 0 0 0 0 0 0 0 0 0 0 48 47 24 30 14 16 11 0 0 0 0 0 0 0 0 0 0 0 0 0 0 0 0 0 0 0 4 0 0 0 0 0 0 0 0 0 0 0 0 0 0 0 0 0 0 0 0 0 0 0 0 0 0 0 0 0 0 0 0 0 0 0 0 0 0 0 0 0 0 0 0 0 0 0 0 0 0 0 0 0 0 0 0 0 0 0 0 0 0 0 0 0 25 44 27 29 18 19 13 1 0 0 0 0 0 0 0 0 0 0 0 0 0 0 0 0 0 0 1 0 0 0 0 0 0 0 0 0 0 0 0 0 0 0 0 0 0 0 0 0 0 0 0 0 0 0 0 0 0 0 0 0 0 0 0 0 0 0 0 0 0 0 0 0 0 0 0 0 0 0 0 0 0 0 0 0 0 0 0 0 0 0 0 0 0 27 32 25 17 23 18 10 0 0 0 0 0 0 0 0 0 0 0 0 2 6 7 11 3 2 0 0 0 0 0 0 0 0 0 0 0 0 0 0 0 0 0 0 0 0 0 0 0 0 0 0 0 0 0 0 0 0 0 0 0 0 0 0 0 0 0 0 0 0 0 0 0 0 0 0 0 0 0 0 0 0 0 0 0 0 0 0 0 0 0 0 0 0 23 25 17 18 18 4 0 0 0 0 0 0 0 0 0 0 0 2 2 1 1 0 2 0 0 0 0 0 0 0 0 0 0 0 0 0 0 0 0 0 0 0 0 0 0 0 0 0 0 0 0 0 0 0 0 0 0 0 0 0 0 0 0 0 0 0 0 0 0 0 0 0 0 0 0 0 0 0 0 0 0 0 0 0 0 0 0 0 0 0 0 0 3 18 13 13 15 0 0 0 0 0 0 0 0 0 0 0 0 0 0 0 0 0 0 0 0 0 0 0 0 0 0 0 0 0 0 0 0 0 0 0 0 0 0 0 0 0 0 0 0 0 0 0 0 0 0 0 0 0 0 0 0 0 0 0 0 0 0 0 0 0 0 0 0 0 0 0 0 0 0 0 0 0 0 0 0 0 0 0 0 0 0 0 0 0 0 6 2 0 0 0 0 0 0 0 0 0 1 0 0 0 0 0 0 0 0 0 0 0 0 0 0 0 0 0 0 0 0 0 0 0 0 0 0 0 0 0 0 0 0 0 0 0 0 0 0 0 0 0 0 0 0 0 0 0 0 0 0 0 0 0 0 0 0 0 0 0 0 0 0 0 0 0 0 0 0 0 0 0 0 0 0 0 0 0 0 0 0 0 0 0 0 0 0 0 0 0 0 0 4 0 3 5 0 0 2 0 0 1 0 0 0 0 0 0 0 0 0 0 0 0 0 0 0 0 0 0 0 0 0 0 0 0 0 0 0 0 0 0 0 0 0 0 0 0 0 0 0 0 0 0 0 0 0 0 0 0 0 0 0 0 0 0 0 0 0 0 0 0 0 0 0 0 0 0 0 0 0 0 0 0 0 0 0 0 0 0 0 0 0 0 2 3 5 11 4 4 4 0 0 0 0 0 0 0 0 0 0 0 0 0 0 0 0 0 0 0 0 0 0 0 0 0 0 0 0 0 0 0 0 0 0 0 0 0 0 0 0 0 0 0 0 0 0 0 0 0 0 0 0 0 0 0 0 0 0 0 0 0 0 0 0 0 0 0 0 0 0 0 0 0 0 0 0 0 0 0 0 0 0 0 0 0 0 6 1 11 0 4 3 0 0 0 0 0 0 0 0 0 0 0 0 0 0 0 0 0 0 0 0 0 0 0 0 0 0 0 0 0 0 0 0 0 0 0 0 0 0 0 0 0 0 0 0 0 0 0 0 0 0 0 0 0 0 0 0 0 0 0 0 0 0 0 0 0 0 0 0 0 0 0 0 0 0 0 0 0 0 0 0 0 0 0 0 0 0 7 4 10 0 3 0 0 0 0 0 0 0 0 0 0 0 0 0 0 0 0 0 0 0 0 0 0 0 0 0 0 0 0 0 0 0 0 0 0 0 0 0 0 0 0 0 0 0 0 0 0 0 0 0 0 0 0 0 0 0 0 0 0 0 0 0 0 0 0 0 0 0 0 0 0 0 0 0 0 0 0 0 0 0 0 0 0 0 0 0 0 0 6 3 7 0 1 0 0 0 0 0 0 0 0 0 0 0 0 0 0 0 0 0 0 0 0 0 0 0 0 0 0 0 0 0 0 0 0 0 0 0 0 0 0 0 0 0 0 0 0 0 0 0 0 0 0 0 0 0 0 0 0 0 0 0 0 0 0 0 0 0 0 0 0 0 0 0 0 0 0 0 0 0 0 0 0 0 0 0 0 0 0 0 7 3 0 0 0 0 0 0 0 0 0 0 0 0 0 0 0 0 0 0 0 0 0 0 0 0 0 0 0 0 0 0 0 0 0 0 0 0 0 0 0 0 0 0 0 0 0 0 0 0 0 0 0 0 0 0 0 0 0 0 0 0 0 0 0 0 0 0 0 0 0 0 0 0 0 0 0 0 0 0 0 0 0 0 0 0 0 0 0 0 0 0 2 3 0 0 0 0 0 0 0 0 0 0 0 0 0 0 0 0 0 0 0 0 0 0 0 0 0 0 0 0 0 0 0 0 0 0 0 0 0 0 0 0 0 0 0 0 0 0 0 0 0 0 0 0 0 0 0 0 0 0 0 0 0 0 0 0 0 0 0 0 0 0 0 0 0 0 0 0 0 0 0 0 0 0 0 0 0 0 0 0 0 0 0 1 0 0 0 0 0 0 0 0 0 0 0 0 0 0 0 0 0 0 0 0 0 0 0 0 0 0 0 0 0 0 0 0 0 0 0 0 0 0 0 0 0 0 0 0 0 0 0 0 0 0 0 0 0 0 0 0 0 0 0 0 0 0 0 0 0 0 0 0 0 0 0 0 0 0 0 0 0 0 0 0 0 0 0 0 0 0 0 0 0 0 0 0 0 0 0 0 0 0 0 0 0 0 0 0 0 0 4 0 0 0 0 0 0 0 0 0 0 0 0 0 0 0 0 0 0 0 0 0 0 0 0 0 0 0 0 0 0 0 0 0 0 0 0 0 0 0 0 0 0 0 0 0 0 0 0 0 0 0 0 0 0 0 0 0 0 0 0 0 0 0 0 0 0 0 0 0 0 0 0 0 0 0 0 0 0 0 0 0 0 0 0 0 0 0 0 0 0 0 0 0 0 0 0 0 0 0 0 0 0 0 0 0 0 0 0 0 0 0 0 0 0 0 0 0 0 0 0 0 0 0 0 0 0 0 0 0 0 0 0 0 0 0 0 0 0 0 0 0 0 0 0 0 0 0 0 0 0 0 0 0 0 0 0 0 0 0 0 0 0 0 0 0 0 0 0 0 0 0 0 0 0 0 0 0 1 0 0 0 0 6 0 0 0 0 2 0 2 5 0 0 0 0 0 0 0 0 0 0 0 0 0 0 0 0 0 0 0 0 0 0 0 0 0 0 0 0 0 0 0 0 0 0 0 0 0 0 0 0 0 0 0 0 0 0 0 0 0 0 0 0 0 0 0 0 0 0 0 0 0 0 0 0 0 0 0 0 0 0 0 0 0 0 0 0 0 2 1 1 0 0 0 7 10 11 13 4 18 11 8 16 8 0 2 0 1 0 0 3 3 6 0 0 2 0 3 0 0 0 0 0 0 0 0 0 0 0 0 0 0 0 0 0 0 0 0 0 0 0 0 0 0 0 0 0 0 0 0 0 0 0 0 0 0 0 0 0 0 0 0 0 0 0 0 0 0 0 0 0 0 0 0 0 0 0 0 0 0 9 1 0 0 0 0 0 13 13 20 11 25 17 12 15 6 0 4 0 12 2 0 7 0 6 0 0 0 0 0 0 0 0 0 0 0 0 0 0 0 0 0 0 0 0 0 0 0 0 0 0 0 0 0 0 0 0 0 0 0 0 0 0 0 0 0 0 0 0 0 0 0 0 0 0 0 0 0 0 0 0 0 0 0 0 0 0 0 0 0 0 5 9 8 1 2 0 9 6 15 15 13 12 16 8 5 5 5 2 0 0 5 4 0 11 4 10 0 0 0 0 0 0 0 0 0 0 0 0 0 0 0 0 0 0 0 0 0 0 0 0 0 0 0 0 0 0 0 0 0 0 0 0 0 0 0 0 0 0 0 0 0 0 0 0 0 0 0 0 0 0 0 0 0 0 0 0 0 0 0 0 0 0 1 12 6 4 8 10 15 16 19 18 12 10 9 2 0 5 0 2 6 0 8 5 1 16 7 13 2 1 0 0 0 0 0 0 0 0 0 0 0 0 0 0 0 0 0 0 0 0 0 0 0 0 0 0 0 0 0 0 0 0 0 0 0 0 0 0 0 0 0 0 0 0 0 0 0 0 0 0 0 0 0 0 0 0 0 0 0 0 0 0 0 2 0 13 10 3 2 14 11 21 21 21 18 11 16 7 7 14 4 6 8 0 3 0 0 4 8 8 3 0 0 0 0 0 0 0 0 0 0 0 0 0 0 0 0 0 0 0 0 0 0 0 0 0 0 0 0 0 0 0 0 0 0 0 0 0 0 0 0 0 0 0 0 0 0 0 0 0 0 0 0 0 0 0 0 0 0 0 0 0 0 0 0 0 0 2 7 4 6 5 11 25 24 22 19 17 22 14 9 18 11 7 5 0 3 2 0 4 10 3 3 0 0 0 0 0 0 0 0 0 0 0 0 0 0 0 0 0 0 0 0 0 0 0 0 0 0 0 0 0 0 0 0 0 0 0 0 0 0 0 0 0 0 0 0 0 0 0 0 0 0 0 0 0 0 0 0 0 0 0 0 0 0 0 0 0 0 0 2 1 4 5 15 25 23 25 20 20 17 25 10 23 17 10 3 0 0 0 1 3 7 1 6 0 0 0 0 0 0 0 0 0 0 0 0 0 0 0 0 0 0 0 0 0 0 0 0 0 0 0 0 0 0 0 0 0 0 0 0 0 0 0 0 0 0 0 0 0 0 0 0 0 0 0 0 0 0 0 0 0 0 0 0 0 0 0 0 0 0 0 0 1 0 5 18 23 24 24 24 25 23 25 15 21 14 9 14 4 5 0 4 12 6 7 4 0 0 0 0 0 0 0 0 0 0 0 0 0 0 0 0 0 0 0 0 0 0 0 0 0 0 0 0 0 0 0 0 0 0 0 0 0 0 0 0 0 0 0 0 0 0 0 0 0 0 0 0 0 0 0 0 0 0 0 0 0 0 0 0 0 0 0 0 0 0 0 9 14 17 18 22 27 15 19 9 18 18 13 10 14 6 6 8 11 13 14 2 0 0 0 0 0 0 0 0 0 0 0 0 0 0 0 0 0 0 0 0 0 0 0 0 0 0 0 0 0 0 0 0 0 0 0 0 0 0 0 0 0 0 0 0 0 0 0 0 0 0 0 0 0 0 0 0 0 0 0 0 0 0 0 0 0 0 0 0 0 0 0 0 0 8 12 13 17 6 10 6 6 19 10 11 12 10 2 8 10 17 6 3 0 0 0 0 0 0 0 0 0 0 0 0 0 0 0 0 0 0 0 0 0 0 0 0 0 0 0 0 0 0 0 0 0 0 0 0 0 0 0 0 0 0 0 0 0 0 0 0 0 0 0 0 0 0 0 0 0 0 0 0 0 0 0 0 0 0 0 0 0 0 0 0 0 1 0 3 1 0 0 0 0 20 8 10 12 3 4 1 6 10 1 0 0 0 0 0 0 0 0 0 0 0 0 0 0 0 0 0 0 0 0 0 0 0 0 0 0 0 0 0 0 0 0 0 0 0 0 0 0 0 0 0 0 0 0 0 0 0 0 0 0 0 0 0 0 0 0 0 0 0 0 0 0 0 0 0 0 0 0 0 0 0 0 0 0 0 0 0 0 0 0 0 2 19 7 10 6 4 0 0 0 5 0 0 0 0 0 0 0 0 0 0 0 0 0 0 0 0 0 0 0 0 0 0 0 0 0 0 0 0 0 0 0 0 0 0 0 0 0 0 0 0 0 0 0 0 0 0 0 0 0 0 0 0 0 0 0 0 0 0 0 0 0 0 0 0 0 0 0 0 0 0 0 0 0 0 0 0 0 0 0 0 0 0 1 12 12 8 3 0 2 0 0 0 0 0 0 0 0 0 0 0 0 0 0 0 0 0 0 0 0 0 0 0 0 0 0 0 0 0 0 0 0 0 0 0 0 0 0 0 0 0 0 0 0 0 0 0 0 0 0 0 0 0 0 0 0 0 0 0 0 0 0 0 0 0 0 0 0 0 0 0 0 0 0 0 0 0 0 0 0 0 0 0 0 0 0 8 6 9 0 0 0 0 0 0 0 0 0 0 0 0 0 0 0 0 0 0 0 0 0 0 0 0 0 0 0 0 0 0 0 0 0 0 0 0 0 0 0 0 0 0 0 0 0 0 0 0 0 0 0 0 0 0 0 0 0 0 0 0 0 0 0 0 0 0 0 0 0 0 0 0 0 0 0 0 0 0 0 0 0 0 0 0 0 0 0 0 0 0 4 6 0 0 0 0 0 0 0 0 0 0 0 0 0 0 0 0 0 0 0 0 0 0 0 0 0 0 0 0 0 0 0 0 0 0 0 0 0 0 0 0 0 0 0 0 0 0 0 0 0 0 0 0 0 0 0 0 0 0 0 0 0 0 0 0 0 0 0 0 0 0 0 0 0 0 0 0 0 0 0 0 0 0 0 0 0 0 0 0 0 0 0 0 0 0 0 0 0 0 0 0 0 0 0 0 0 0 0 0 0 0 0 0 0 0 0 0 0 0 0 0 0 0 0 0 0 0 0 0 0 0 0 0 0 0 0 0 0 0 0 0 0 0 0 0 0 0 0 0 0 0 0 0 0 0 0 0 0 0 0 0 0 0 0 0 0 0 0 0 0 0 0 0 0 0 0 0 0 0 0 0 0 0 0 0 0 0 0 0 0 0 0 0 0 0 0 0 0 0 0 0 0 0 0 0 0 0 0 0 0 0 0 0 0 0 0 0 0 0 0 0 0 0 0 0 0 0 0 0 0 0 0 0 0 0 0 0 0 0 0 0 0 0 0 0 0 0 0 0 0 0 0 0 0 0 0 0 0 0 0 0 0 0 0 0 0 0 0 0 0 0 0 0 0 0 0 0 0 0 0 0 0 0 0 0 0 0 0 0 0 0 0 0 0 0 0 0 0 0 0 0 0 0 0 0 0 0 0 0 0 0 0 0 0 0 0 0 0 0 0 0 0 0 0 0 0 0 0 0 0 0 0 1 0 12 2 0 0 0 0 0 0 0 0 0 0 0 0 0 0 0 0 0 0 0 0 0 0 0 0 0 0 0 0 0 0 0 0 0 0 0 0 0 0 0 0 0 0 0 0 0 0 0 0 0 0 0 0 0 0 0 0 0 0 0 0 0 0 0 0 0 0 0 0 0 0 0 0 0 0 0 0 0 0 0 0 0 0 0 0 0 0 0 0 0 11 25 6 0 0 0 0 0 0 0 0 0 0 0 0 0 0 0 0 0 0 0 0 0 0 0 0 0 0 0 0 0 0 0 0 0 0 0 0 0 0 0 0 0 0 0 0 0 0 0 0 0 0 0 0 0 0 0 0 0 0 0 0 0 0 0 0 0 0 0 0 0 0 0 0 0 0 0 0 0 0 0 0 0 0 0 0 0 0 0 2 6 24 35 12 0 0 0 0 0 0 0 0 0 0 0 0 0 0 0 0 0 0 0 0 0 0 0 0 0 0 0 0 0 0 0 0 0 0 0 0 0 0 0 0 0 0 0 0 0 0 0 0 0 0 0 0 0 0 0 0 0 0 0 0 0 0 0 0 2 0 0 0 0 0 0 0 0 0 0 0 0 0 0 0 0 0 0 0 0 0 0 0 21 38 41 14 0 0 0 0 0 0 0 0 0 0 0 0 0 0 0 0 0 0 0 0 0 0 0 0 0 0 0 0 0 0 0 0 0 0 0 0 0 0 0 0 0 0 0 0 0 0 0 0 0 0 0 0 0 0 0 0 0 0 0 0 0 0 0 0 0 1 0 0 0 0 0 0 0 0 0 0 0 0 0 0 0 0 0 0 0 0 3 9 33 54 34 12 2 0 0 0 0 0 0 0 0 0 0 0 0 0 0 0 0 0 0 0 0 0 0 0 0 0 0 0 0 0 0 0 0 0 0 0 0 0 0 0 0 0 0 0 0 0 0 0 0 0 0 0 0 0 0 0 0 0 0 0 0 0 0 0 0 6 0 0 0 0 0 0 0 0 0 0 0 0 0 0 0 0 0 0 2 6 11 28 48 58 34 7 0 0 0 0 0 0 0 0 0 0 0 0 0 0 0 0 0 0 0 0 0 0 0 0 0 0 0 0 0 0 0 0 0 0 0 0 0 0 0 0 0 0 0 0 0 0 0 0 0 0 0 0 0 0 0 0 0 0 0 0 0 0 0 0 0 3 0 0 0 0 0 0 0 0 0 0 0 0 0 0 0 0 0 21 17 20 22 35 67 44 42 7 0 0 0 0 0 0 0 0 0 0 0 0 0 0 0 0 0 0 0 0 0 0 0 0 0 0 0 0 0 0 0 0 0 0 0 0 0 0 0 0 0 0 0 0 0 0 0 0 0 0 0 0 0 0 0 0 0 0 0 0 0 0 0 0 0 0 7 0 0 0 0 0 0 0 1 1 0 0 0 0 4 9 23 36 27 27 26 51 73 40 40 10 0 0 0 0 0 0 0 0 0 0 0 0 0 0 0 0 0 0 0 0 0 0 0 0 0 0 0 0 0 0 0 0 0 0 0 0 0 0 0 0 0 0 0 0 0 0 0 0 0 0 0 0 0 0 0 0 0 0 0 0 0 0 0 0 9 0 7 0 0 4 1 0 0 0 0 0 0 0 1 11 19 21 34 34 31 33 40 77 65 52 27 5 0 0 0 0 0 0 0 0 0 0 0 0 0 0 0 0 0 0 0 0 0 0 0 0 0 0 0 0 0 0 0 0 0 0 0 0 0 0 0 0 0 0 0 0 0 0 0 0 0 0 0 0 0 0 0 0 0 0 0 0 0 0 0 0 13 12 16 15 0 0 0 12 13 10 10 7 13 11 9 15 11 18 31 37 51 52 62 91 56 62 17 0 0 0 0 0 0 0 0 0 0 0 0 0 0 0 0 0 0 0 0 0 0 0 0 0 0 0 0 0 0 0 0 0 0 0 0 0 0 0 0 0 0 0 0 0 0 0 0 0 0 0 0 0 0 0 0 0 0 0 0 0 0 0 0 8 15 18 28 44 28 6 8 23 32 35 35 44 51 13 17 21 15 31 40 63 72 66 80 87 62 56 14 9 0 0 0 0 0 0 0 0 0 0 0 0 0 0 0 0 0 0 0 0 0 0 0 0 0 0 0 0 0 0 0 0 0 0 0 0 0 0 0 0 0 0 0 0 0 0 0 0 0 0 0 0 0 0 0 0 0 0 0 0 0 0 0 9 14 22 29 49 36 3 0 15 31 37 40 40 57 18 16 20 30 49 64 90 77 72 88 70 73 43 9 14 0 0 0 0 0 0 0 0 0 0 0 0 0 0 0 0 0 0 0 0 0 0 0 0 0 0 0 0 0 0 0 0 0 0 0 0 0 0 0 0 0 0 0 0 0 0 0 0 0 0 0 0 0 0 0 0 0 0 0 0 0 0 0 15 21 24 19 41 46 15 0 0 29 34 42 41 44 33 44 49 70 67 82 79 63 70 80 69 79 30 8 8 0 0 0 0 0 0 0 0 0 0 0 0 0 0 0 0 0 0 0 0 0 0 0 0 0 0 0 0 0 0 0 0 0 0 0 0 0 0 0 0 0 0 0 0 0 0 0 0 0 0 0 0 0 0 0 0 0 0 0 0 0 0 0 19 19 28 18 28 40 33 6 7 36 59 56 46 41 44 59 63 59 59 65 58 56 72 66 82 66 27 15 0 0 0 0 0 0 0 0 0 0 0 0 0 0 0 0 0 0 0 0 0 0 0 0 0 0 0 0 0 0 0 0 0 0 0 0 0 0 0 0 0 0 0 0 0 0 0 0 0 0 0 0 0 0 0 0 0 0 0 0 0 0 0 0 24 19 31 26 23 32 33 13 7 19 57 76 64 35 