P2
92
112
255
0 0 0 0 0 0 0 0 0 0 0 0 0 0 0 0 0 0 0 0 0 0 0 0 5 2 0 0 0 2 0 0 0 0 0 0 0 0 0 0 0 0 0 0 0 0 0 0 0 0 0 0 0 0 0 0 0 0 0 0 0 0 4 5 1 4 0 4 2 3 0 0 0 0 0 0 0 0 0 0 0 0 0 0 0 0 0 0 0 0 0 0 0 0 0 0 0 0 0 0 0 0 0 0 0 0 0 0 0 0 0 0 0 0 0 0 0 0 0 0 0 0 0 0 0 0 0 0 0 0 0 0 0 0 0 0 0 0 0 0 0 0 0 0 0 0 0 0 0 0 0 0 0 2 3 6 8 7 7 7 10 6 4 2 1 0 0 0 0 0 0 0 0 0 0 0 0 0 0 0 0 0 0 0 0 0 0 0 0 0 0 0 0 0 0 0 0 0 0 0 0 0 0 0 1 0 0 0 0 0 0 0 0 0 0 0 0 0 0 0 0 0 0 0 0 0 0 0 0 0 0 0 0 0 0 0 0 0 0 0 0 0 0 0 0 9 3 6 8 10 14 9 12 8 7 6 0 0 3 0 0 0 0 0 0 0 0 0 0 0 0 0 0 0 0 0 0 0 0 0 0 0 0 0 0 0 0 0 0 0 0 0 0 0 0 0 4 1 1 0 0 0 0 0 0 0 0 0 0 0 0 0 0 0 0 0 0 0 0 0 0 0 0 0 0 0 0 0 0 0 0 0 0 0 0 0 0 1 9 6 6 14 11 12 10 11 7 6 3 5 8 0 0 0 0 0 0 0 0 0 0 0 0 0 0 0 0 0 0 0 0 0 0 0 0 0 0 0 0 0 0 0 0 0 0 0 0 0 6 3 0 0 0 0 0 0 0 0 0 0 0 0 0 0 0 0 0 0 0 0 0 0 0 0 0 0 0 0 0 0 0 0 0 0 0 0 0 0 0 0 2 2 8 9 10 8 13 14 12 11 6 9 9 3 1 1 0 0 0 0 0 0 0 0 0 0 0 0 0 0 0 0 0 0 0 0 0 0 0 0 0 0 0 0 0 0 0 0 0 1 8 4 0 0 0 0 0 0 0 0 0 0 0 0 0 0 0 0 0 0 0 0 0 0 0 0 0 0 0 0 0 0 0 0 0 0 0 0 0 0 0 0 1 0 4 7 7 8 13 10 14 14 16 14 7 4 1 3 0 0 0 0 0 0 0 0 0 0 0 0 0 0 0 0 0 0 0 0 0 0 0 0 0 0 0 0 0 0 0 0 4 2 11 7 4 2 0 0 0 0 0 0 0 0 0 0 0 0 0 0 0 0 0 0 0 0 0 0 0 0 0 0 0 0 0 0 0 0 0 0 0 0 0 0 0 0 0 5 4 10 11 4 16 17 20 10 11 5 5 7 0 2 0 0 0 0 0 0 0 0 0 0 0 0 0 0 0 0 0 0 0 0 0 0 0 0 0 0 0 0 4 7 4 7 12 9 7 0 0 0 0 0 0 0 0 0 0 0 0 0 0 0 0 0 0 0 0 0 0 0 0 0 0 0 0 0 0 0 0 0 0 0 0 0 0 0 0 0 0 0 0 10 6 6 12 14 17 16 13 14 7 7 6 0 0 0 0 0 0 0 0 0 0 0 0 0 0 0 0 0 0 0 0 0 0 0 0 0 0 0 0 2 8 7 8 11 11 5 5 0 0 0 0 0 0 0 0 0 0 0 0 0 0 0 0 0 0 0 0 0 0 0 0 0 0 0 0 0 0 0 0 0 0 0 0 0 0 0 0 0 0 0 0 1 4 8 13 14 17 13 14 18 13 8 9 1 3 0 0 0 0 0 0 0 0 0 0 0 0 0 0 0 0 0 0 0 0 0 0 0 0 0 0 2 3 9 19 7 6 0 1 0 0 0 0 0 0 0 0 0 0 0 0 0 0 0 0 0 0 0 0 0 0 0 0 0 0 0 0 0 0 0 0 0 0 0 0 0 0 0 0 0 0 0 0 0 6 0 7 15 14 16 11 16 17 11 8 4 8 2 0 0 0 0 0 0 0 0 0 0 0 0 0 0 0 0 0 0 0 0 0 0 0 0 0 7 3 21 14 0 6 0 2 0 0 0 0 0 0 0 0 0 0 0 0 0 0 0 0 0 0 0 0 0 0 0 0 0 0 0 0 0 0 0 0 0 0 0 0 0 0 0 0 0 0 0 0 0 5 0 1 4 6 10 14 15 13 6 14 4 12 7 3 1 0 0 0 0 0 0 0 0 0 0 0 0 0 0 0 0 0 6 4 1 1 4 3 9 9 17 1 0 7 6 0 0 0 0 0 0 0 0 0 0 0 0 0 0 0 0 0 0 0 0 0 0 0 0 0 0 0 0 0 0 0 0 0 0 0 0 0 0 0 0 0 0 0 0 0 0 2 2 1 1 0 7 11 12 9 7 12 3 5 6 3 1 0 0 0 0 0 0 0 0 0 0 0 0 0 0 0 0 6 8 5 3 8 10 9 11 11 7 5 0 14 0 2 3 2 0 0 0 0 0 0 0 0 0 0 0 0 0 0 0 0 0 0 0 0 0 0 0 0 0 0 0 0 1 0 0 0 0 0 0 0 0 0 0 0 0 0 0 0 0 3 0 0 8 9 3 2 5 11 10 4 7 1 1 0 0 0 0 0 0 0 0 0 0 0 0 0 0 2 9 7 6 10 8 18 16 17 15 9 2 1 8 6 0 5 15 6 0 5 0 0 0 0 0 0 0 0 0 0 0 0 0 0 0 0 0 0 0 0 0 0 0 0 0 0 0 0 0 0 0 0 0 0 0 0 0 0 0 0 0 0 0 0 0 0 5 1 0 0 2 9 8 8 8 0 2 0 0 0 0 0 0 0 0 0 0 0 0 4 8 10 7 2 11 14 19 19 14 23 15 4 0 6 11 0 0 14 17 6 5 6 0 0 0 0 0 0 0 0 0 0 0 0 0 0 0 0 0 0 0 0 0 0 0 0 0 0 0 0 0 0 0 0 0 0 0 0 0 0 0 0 0 0 0 0 0 0 0 0 0 0 2 7 0 8 8 2 0 0 0 0 0 0 0 0 0 0 0 0 0 14 13 12 0 6 13 16 21 17 16 19 8 2 0 10 3 0 6 14 12 10 9 6 3 0 0 0 0 0 0 0 0 0 0 0 0 0 0 0 0 0 0 0 0 0 0 0 0 0 0 0 0 0 0 0 0 0 0 0 0 0 0 0 0 0 0 0 0 0 0 0 0 0 2 0 0 0 0 0 0 0 0 0 0 0 0 0 0 0 0 0 7 12 19 8 2 13 20 21 22 20 19 7 3 0 1 9 3 4 13 7 15 15 11 9 10 0 0 0 0 0 0 0 0 0 0 0 0 0 0 0 0 0 0 0 0 0 0 0 0 0 0 0 0 0 0 0 0 0 0 0 2 0 0 0 0 0 0 0 2 0 0 0 0 0 0 0 0 0 0 0 0 0 0 0 0 0 0 0 0 0 0 2 9 10 10 14 15 20 22 22 26 18 13 10 3 0 7 13 3 7 15 10 14 13 14 17 6 2 0 0 0 0 0 0 0 0 0 0 0 0 0 0 0 0 0 0 0 0 0 0 0 0 0 0 0 0 0 0 0 0 0 0 0 0 0 0 0 0 0 0 2 1 0 0 0 0 0 0 0 0 0 0 0 0 0 0 0 0 0 0 0 0 0 7 9 10 11 28 21 20 25 29 27 18 12 9 0 0 9 14 8 10 13 11 13 10 16 19 5 3 2 0 0 0 0 0 0 0 0 0 0 0 0 0 0 0 0 0 0 0 0 0 0 0 0 0 0 0 0 0 0 0 0 0 0 0 0 0 0 0 0 0 2 0 0 0 0 0 0 0 0 0 0 0 0 0 0 0 0 0 0 0 0 0 0 7 17 8 21 33 21 26 37 32 28 17 7 6 0 7 16 11 16 12 10 16 16 11 11 13 13 4 0 0 0 0 0 0 0 0 0 0 0 0 0 0 0 0 0 0 0 0 0 0 0 0 0 0 0 0 0 0 0 0 0 0 0 0 0 0 0 0 0 0 0 0 0 0 0 0 0 0 0 0 0 0 0 0 0 0 0 0 0 0 0 0 0 5 20 16 19 28 28 37 40 40 22 12 6 9 5 12 19 13 17 11 10 19 17 9 10 16 10 6 0 0 0 0 0 0 0 0 0 0 0 0 0 0 0 0 0 0 0 0 0 0 0 0 0 0 0 0 0 0 0 0 0 0 0 0 0 0 0 0 0 0 0 0 0 2 0 0 0 0 0 0 0 0 0 0 0 0 0 0 0 0 0 1 2 7 19 19 15 32 33 38 41 36 17 13 6 17 11 16 15 19 18 12 11 18 11 14 15 14 7 2 1 0 0 0 0 0 0 0 0 0 0 0 0 0 0 0 0 0 0 0 0 0 0 0 0 0 0 0 0 0 0 0 0 0 0 0 0 0 0 0 0 0 0 0 0 3 0 0 0 0 0 0 0 0 0 0 0 0 0 0 0 0 0 0 3 12 19 18 15 34 29 43 47 25 16 12 14 21 15 17 16 20 16 15 15 17 9 16 13 13 10 6 3 0 0 0 0 0 0 0 0 0 0 0 0 0 0 0 0 0 0 0 0 0 0 0 0 0 0 0 0 0 0 0 0 0 0 0 0 0 0 0 0 0 0 0 0 0 0 0 0 0 0 0 0 0 0 1 0 0 0 0 0 0 0 0 7 17 18 19 23 28 31 49 38 21 9 16 21 17 21 16 15 17 15 14 16 16 13 15 10 11 15 9 4 0 0 0 0 0 0 0 0 0 0 0 0 0 0 0 0 0 0 0 0 0 0 0 0 0 0 0 0 0 0 0 0 0 0 0 0 0 0 0 0 0 0 0 0 0 0 2 0 0 0 0 0 0 0 0 0 0 0 0 0 0 0 1 7 17 21 18 25 22 43 41 38 20 11 21 19 16 19 12 13 16 13 14 19 13 15 17 10 14 13 12 10 6 3 2 0 0 0 0 2 0 0 0 0 0 0 0 0 0 0 0 0 0 0 0 0 0 0 0 0 0 0 0 0 0 0 0 0 0 0 0 0 0 0 0 0 0 0 0 1 0 0 2 0 0 2 2 0 0 0 0 0 0 0 6 6 19 29 13 22 25 44 33 31 17 13 20 13 21 14 9 14 14 11 18 18 14 18 16 11 15 14 9 9 9 9 7 2 2 3 3 7 5 2 0 0 0 0 0 0 0 0 0 0 0 0 0 0 0 0 0 0 0 0 0 0 0 0 0 0 0 0 0 0 0 0 0 0 0 0 0 7 1 0 4 1 1 6 6 0 0 0 0 0 0 0 6 11 24 22 14 16 24 30 29 25 17 10 15 13 22 5 12 11 12 12 18 12 17 16 13 10 11 10 10 10 10 12 12 6 5 4 8 7 7 6 3 0 1 2 0 0 0 0 0 0 0 0 0 0 0 0 0 0 0 0 0 0 0 0 0 0 0 0 0 0 0 0 0 0 0 0 0 9 11 0 0 4 10 13 6 0 4 3 0 0 0 0 1 18 21 13 16 15 26 19 23 19 16 8 13 18 14 4 9 10 10 13 15 11 14 13 11 9 8 5 8 8 9 10 10 7 5 10 7 9 8 8 6 0 3 2 0 0 0 0 0 0 0 0 0 0 0 0 0 0 0 0 0 0 0 0 0 0 0 0 0 0 0 0 0 0 0 0 0 8 14 6 3 7 16 20 5 1 3 3 4 0 0 1 2 8 23 7 17 18 19 16 14 23 14 10 12 19 11 3 6 7 5 13 13 14 10 12 10 5 5 4 4 6 9 10 8 5 6 9 9 11 8 7 5 1 4 4 1 0 0 0 0 0 0 0 0 0 0 0 0 0 0 0 0 0 0 0 0 0 0 0 0 0 0 0 0 0 0 0 0 6 8 11 7 9 16 13 7 5 2 1 4 7 5 9 1 8 13 9 9 20 13 16 14 22 12 8 11 15 12 3 3 3 5 11 13 13 10 11 4 4 7 7 3 2 4 5 3 5 5 5 7 10 7 5 5 2 5 5 2 2 2 0 0 0 0 0 0 0 0 0 0 0 0 0 0 0 0 0 0 0 0 0 0 0 0 0 0 0 0 0 5 8 13 13 10 14 17 7 8 5 3 7 4 8 12 12 0 9 5 9 10 20 18 12 14 14 16 8 16 12 13 2 3 3 4 6 10 13 8 4 2 3 5 3 0 0 0 0 0 0 0 2 0 2 5 1 2 3 6 5 5 2 5 2 0 1 0 0 0 0 0 0 0 0 0 0 0 0 0 0 0 0 0 0 0 0 0 0 0 0 0 0 4 9 14 22 19 21 17 11 15 6 5 9 6 9 13 17 2 0 3 14 15 16 17 13 9 13 17 16 18 16 7 1 3 0 3 6 8 14 7 5 4 4 1 0 1 0 0 0 0 0 0 0 0 0 1 1 0 0 2 2 3 5 7 6 4 3 0 0 0 0 0 0 0 0 0 0 0 0 0 0 0 0 0 0 0 0 0 0 0 0 4 3 3 10 13 22 28 22 21 18 12 7 6 13 16 15 15 23 1 0 6 17 18 16 13 15 7 28 21 21 14 17 5 1 3 2 2 6 9 9 5 5 4 2 0 1 2 0 0 0 0 0 0 0 0 0 0 0 0 0 0 0 0 3 5 6 7 6 6 0 0 0 0 0 0 0 0 0 0 0 0 0 0 0 0 0 0 0 0 0 0 0 5 7 10 12 15 21 27 27 27 27 9 11 12 13 21 20 24 23 5 0 6 12 15 13 16 7 19 31 21 18 22 16 2 0 4 3 3 6 7 4 6 7 4 1 0 0 0 0 0 0 0 0 0 0 0 0 0 0 0 0 0 0 0 0 0 2 4 7 7 3 0 0 0 0 0 0 0 0 0 0 0 0 0 0 0 0 0 0 0 0 0 0 7 8 14 21 23 24 28 31 33 32 16 15 8 15 24 23 27 22 4 3 6 12 7 13 13 8 27 19 21 24 23 12 0 0 2 3 3 7 5 4 8 7 3 0 0 0 0 0 0 0 0 0 0 0 0 0 0 0 0 0 0 0 0 0 0 0 3 6 8 3 2 0 0 0 0 0 0 0 0 0 0 0 0 0 0 0 0 0 0 0 0 0 5 10 17 23 25 25 29 33 39 39 23 10 13 14 24 26 26 23 0 0 4 11 2 11 5 10 17 17 31 31 16 8 0 0 0 2 5 7 3 7 5 0 0 0 0 0 0 0 0 0 0 0 0 0 0 0 0 0 0 0 0 0 0 0 0 0 0 6 7 4 3 2 0 0 0 0 0 0 0 0 0 0 0 0 0 0 0 0 0 0 0 0 2 10 19 24 26 30 29 36 42 43 32 8 17 23 21 24 26 21 1 0 0 4 5 7 0 11 17 31 38 26 10 5 0 0 0 2 7 4 3 6 0 0 0 0 0 0 0 0 0 0 0 0 0 0 0 0 0 0 0 0 0 0 0 0 0 0 3 9 10 7 7 3 0 0 0 0 0 0 0 0 0 0 0 0 0 0 0 0 0 0 0 0 0 9 16 24 26 30 31 35 46 43 39 19 18 25 27 24 27 20 0 9 8 7 9 0 3 11 28 38 35 18 5 2 0 0 0 3 5 5 2 0 0 0 0 0 0 0 0 0 0 0 0 0 0 0 0 0 0 0 0 0 0 0 0 0 1 4 7 11 11 10 10 7 4 0 0 0 0 0 0 0 0 0 0 0 0 0 0 0 0 0 0 0 1 6 11 21 28 29 30 34 45 46 39 30 23 24 25 28 29 25 3 12 8 14 4 0 10 24 31 38 29 13 2 2 0 0 0 3 4 5 1 0 0 0 0 0 0 0 0 0 0 0 0 0 0 0 0 0 0 0 0 0 0 0 0 1 9 8 11 12 10 12 10 9 6 4 0 0 0 0 0 0 0 0 0 0 0 0 0 0 0 0 0 0 0 6 8 16 24 29 31 35 46 49 37 34 32 25 27 29 32 31 11 14 10 8 6 7 19 28 38 36 24 7 0 0 0 0 1 2 4 2 0 0 0 0 0 0 0 0 0 0 0 0 0 0 0 0 0 0 0 0 0 0 0 0 0 3 12 10 9 13 10 13 10 8 6 3 0 0 0 0 0 0 0 0 0 0 0 0 0 0 0 0 0 0 0 1 6 14 21 29 31 38 44 50 42 35 33 30 32 23 39 31 10 17 6 6 10 13 24 37 40 30 22 0 0 0 0 1 2 1 2 0 0 0 0 0 0 0 0 0 0 0 0 0 0 0 0 0 0 0 0 0 0 0 0 0 0 5 11 11 12 12 9 10 7 6 5 2 0 0 0 0 0 0 0 0 0 0 0 0 0 0 0 0 0 0 0 0 1 14 19 28 30 38 43 51 40 37 29 31 27 30 33 41 12 10 7 11 11 18 32 40 47 24 8 0 0 0 0 2 1 1 0 0 0 0 0 0 0 0 0 0 0 0 0 0 0 0 0 0 0 0 0 0 0 0 0 0 0 4 9 10 12 12 8 8 5 2 1 0 0 0 0 0 0 0 0 0 0 0 0 0 0 0 0 0 0 0 0 0 0 9 17 24 30 38 44 53 36 34 29 25 25 29 34 41 16 11 12 16 16 25 34 46 37 17 8 0 0 0 0 4 3 0 0 0 0 0 0 0 0 0 0 0 0 0 0 0 0 0 0 0 0 0 0 0 0 0 0 0 0 4 8 9 7 10 5 1 0 0 0 0 0 0 0 0 0 0 0 0 0 0 0 0 0 0 0 0 0 0 0 0 0 4 12 19 29 39 44 52 38 29 24 27 19 26 34 42 11 12 9 12 22 26 40 36 23 17 4 0 0 0 2 4 1 0 0 0 0 0 0 0 0 0 0 0 0 0 0 0 0 0 0 0 0 0 0 0 0 0 0 0 0 1 7 6 2 3 0 0 0 0 0 0 0 0 0 0 0 0 0 0 0 0 0 0 0 0 0 0 0 0 0 0 0 0 12 15 24 41 43 48 43 27 23 18 19 20 30 39 15 9 13 13 23 33 32 24 20 15 0 0 0 2 3 2 0 0 0 0 0 0 0 0 0 0 0 0 0 0 0 0 0 0 0 0 0 0 0 0 0 0 0 2 8 3 7 6 0 0 0 0 0 0 0 0 0 0 0 0 0 0 0 0 0 0 0 0 0 0 0 0 0 0 0 0 0 0 7 13 25 36 44 44 43 31 22 16 14 18 26 36 22 16 18 16 26 27 28 22 14 2 0 0 2 5 4 4 0 0 0 0 0 0 0 0 0 0 0 0 0 0 0 0 0 0 0 0 0 0 0 0 0 1 2 8 12 7 7 4 0 0 0 0 0 0 0 0 0 0 0 0 0 0 0 0 0 0 0 0 0 0 0 0 0 0 0 0 0 0 4 7 22 36 43 42 39 35 24 13 14 16 26 33 17 20 21 18 23 24 19 13 4 0 0 2 5 8 4 3 0 0 0 0 0 0 0 0 0 0 0 0 0 0 0 0 0 0 0 0 0 0 0 0 0 7 11 15 12 8 6 2 0 0 0 0 0 0 0 0 0 0 0 0 0 0 0 0 0 0 0 0 0 0 0 0 0 0 0 0 0 0 0 4 18 35 38 43 35 33 30 19 10 13 25 30 12 13 20 18 22 21 13 1 0 0 3 6 10 10 5 1 0 0 2 2 2 0 0 0 0 0 0 0 0 0 0 0 0 0 0 0 0 0 0 0 2 13 16 22 16 12 8 2 0 0 0 0 0 0 0 0 0 0 0 0 0 0 0 0 0 0 0 0 0 0 0 0 0 0 0 0 0 0 0 3 17 36 31 41 36 31 30 24 9 9 21 33 12 11 11 12 17 9 2 0 0 2 10 9 16 11 7 4 5 6 7 9 4 0 0 0 0 0 2 0 0 0 0 0 0 1 0 0 0 0 0 1 9 18 21 25 20 15 10 0 0 0 0 0 0 0 0 0 0 0 0 0 0 0 0 0 0 0 0 0 0 0 0 0 0 0 0 0 0 1 1 3 13 29 30 33 38 36 29 27 15 9 15 30 15 8 9 12 7 5 0 2 0 9 8 13 19 12 10 7 10 13 9 6 0 0 0 0 0 0 12 1 0 0 0 0 0 10 2 0 0 0 7 13 15 21 23 25 23 17 12 0 0 0 0 0 0 0 0 0 0 0 0 0 0 0 0 0 0 0 0 0 0 0 0 0 0 0 0 0 2 4 3 5 14 23 29 30 31 38 28 26 20 16 13 26 13 11 6 9 6 3 1 0 5 12 11 16 18 14 13 14 13 14 7 2 0 0 0 0 2 2 0 6 5 2 10 6 3 4 3 1 0 6 16 20 23 25 24 27 25 15 10 0 0 0 0 0 0 0 0 0 0 0 0 0 0 0 0 0 0 0 0 0 0 0 0 0 0 0 0 0 0 7 4 7 12 23 23 31 27 31 28 28 21 20 12 29 7 11 4 6 5 6 3 2 13 13 15 19 18 15 16 19 19 13 8 8 5 11 10 12 14 11 11 10 14 19 20 21 11 8 9 11 13 16 21 23 28 28 24 27 22 13 9 0 0 0 0 0 0 0 0 0 0 0 0 0 0 0 0 0 0 0 0 0 0 0 0 0 0 0 0 0 0 5 6 8 16 21 21 26 28 30 24 26 18 18 15 29 6 5 13 8 7 4 2 13 15 12 18 18 17 16 18 21 17 17 14 18 24 25 21 25 26 20 21 20 21 22 21 21 16 16 14 17 17 21 22 26 30 27 24 25 20 10 5 0 0 0 0 0 0 2 4 0 0 0 0 0 0 0 0 0 0 0 0 0 0 0 0 0 0 0 0 0 2 8 8 8 16 18 21 20 25 26 20 21 17 19 16 20 0 1 14 8 10 8 6 12 9 10 15 19 16 17 17 17 18 20 21 26 30 32 33 35 35 34 32 32 29 28 25 24 20 21 23 21 20 24 24 29 28 23 23 23 19 7 6 0 0 1 0 0 0 1 5 0 0 0 0 0 0 0 0 0 0 0 0 4 1 0 0 0 0 5 3 0 1 12 11 8 17 17 19 20 14 22 15 18 20 20 14 17 0 0 7 0 6 11 9 8 4 2 13 18 19 17 15 18 21 26 30 33 35 40 38 40 38 38 37 33 31 30 30 31 29 28 28 26 24 28 24 26 25 20 21 19 20 8 4 0 0 0 0 0 0 3 6 5 6 5 1 0 6 3 0 0 0 0 0 0 5 6 4 6 5 4 9 7 4 8 11 9 16 20 14 19 12 15 13 15 16 16 14 16 0 2 9 0 0 3 9 4 0 0 9 17 21 20 18 21 25 31 32 35 36 38 39 42 40 41 38 37 34 31 33 32 33 29 27 28 27 27 21 20 25 22 16 15 17 9 0 0 0 0 2 1 0 5 4 12 11 14 14 10 11 10 7 0 1 0 2 1 4 8 9 9 13 11 11 11 10 9 7 9 12 18 16 14 10 9 6 10 7 8 15 24 0 6 10 0 0 0 2 0 0 0 6 15 17 17 18 18 25 29 31 32 34 36 36 34 36 36 36 36 34 32 33 33 32 28 27 26 26 24 19 16 23 20 10 9 11 3 0 0 0 0 3 2 2 5 4 9 12 12 19 16 15 17 14 10 9 8 7 2 4 7 8 10 15 15 11 12 14 13 5 7 11 13 14 13 3 7 0 8 8 7 12 25 0 4 4 0 0 0 0 0 0 0 4 12 13 11 13 14 18 25 25 28 29 31 32 33 34 34 35 35 32 32 31 31 30 26 26 24 23 18 16 15 20 12 6 7 6 0 0 0 0 0 0 0 2 7 8 6 13 13 17 15 15 17 15 14 13 14 13 10 8 6 8 10 12 13 11 11 11 13 7 3 10 11 10 8 0 1 0 1 2 4 11 15 0 7 1 0 0 0 0 0 0 0 3 9 8 6 9 11 14 20 20 22 26 28 31 32 31 34 33 32 29 30 28 27 26 25 25 20 19 13 10 10 10 5 5 9 0 0 0 0 0 0 0 0 0 7 10 6 11 12 16 18 18 17 16 18 14 16 16 16 16 11 8 10 12 11 10 10 10 9 7 1 8 8 6 4 0 0 0 0 0 3 4 11 0 7 3 0 0 0 0 0 0 0 1 6 4 1 5 5 10 14 18 16 20 24 25 28 29 30 30 29 28 27 26 26 24 21 19 16 16 5 4 3 1 0 0 1 0 0 0 0 0 0 0 0 0 4 3 8 11 11 15 17 17 16 14 15 17 14 15 15 17 13 11 10 8 10 8 9 7 9 5 2 6 5 5 1 0 0 0 0 0 4 2 9 0 5 8 0 0 0 0 0 0 0 0 2 0 0 1 3 5 10 13 13 16 20 21 25 24 26 24 28 25 22 24 20 20 16 14 12 11 0 0 1 0 0 0 0 0 0 0 0 0 0 0 0 0 0 0 2 10 9 9 14 15 16 14 17 14 14 17 14 12 10 10 9 7 8 7 6 5 9 5 2 6 5 0 0 0 0 0 0 0 2 2 9 0 1 7 0 6 0 0 0 0 0 0 0 0 0 0 0 1 4 5 8 12 13 17 20 21 23 25 24 23 21 19 14 15 13 9 7 2 0 0 0 0 0 0 0 0 0 0 0 0 0 0 0 0 0 0 0 3 7 8 7 10 11 11 16 13 13 13 12 9 7 6 5 4 6 4 6 6 8 4 0 5 4 0 0 0 0 0 0 0 2 1 10 0 0 5 7 9 0 0 0 0 0 0 0 0 0 0 0 0 2 1 2 4 9 13 16 18 20 18 19 21 17 15 11 9 9 3 1 0 0 0 0 0 0 0 0 0 0 0 0 0 0 0 0 0 0 0 0 1 3 7 5 6 10 10 11 11 10 8 7 4 5 3 2 1 5 4 3 5 6 2 0 4 4 0 0 0 0 0 0 0 2 6 10 0 0 3 20 7 0 0 0 0 0 0 0 0 0 0 0 0 0 0 0 2 4 6 11 16 17 14 15 15 10 9 6 3 3 0 0 0 0 0 0 0 0 0 0 0 0 0 0 0 0 0 0 0 0 0 0 0 1 2 4 5 8 7 10 8 7 5 4 0 1 3 2 0 3 4 1 3 3 0 0 5 3 0 0 0 0 0 0 0 7 6 0 0 0 3 20 5 0 0 0 0 0 0 0 0 0 0 0 0 0 0 0 0 1 4 6 10 10 12 12 10 7 7 4 1 0 0 0 0 0 0 0 0 0 0 0 0 0 0 0 0 0 0 0 0 0 0 0 0 0 2 2 6 6 6 4 5 3 0 0 0 0 0 0 0 2 2 0 3 0 0 2 4 2 0 0 0 0 0 0 3 7 2 0 0 0 0 16 1 0 0 0 0 0 0 0 0 0 0 0 0 0 0 0 0 2 3 3 5 7 8 6 5 6 4 0 0 0 0 0 2 4 0 0 0 0 0 0 0 0 0 0 0 0 0 0 0 0 0 0 0 0 0 1 5 2 3 1 3 1 0 0 0 0 0 0 0 0 0 0 2 0 0 2 2 1 0 0 0 0 0 4 1 0 9 3 0 0 0 11 1 0 0 0 0 0 0 0 0 0 0 0 0 0 0 0 0 0 1 1 6 6 7 7 5 2 3 0 0 0 0 0 0 5 0 0 0 0 0 4 0 0 0 0 0 0 0 0 0 0 0 0 0 0 0 4 3 2 0 1 1 0 0 0 0 0 0 0 0 0 0 1 1 0 0 2 0 2 0 0 0 0 0 7 1 2 12 3 0 0 0 16 5 0 0 0 0 0 0 0 0 0 0 0 0 0 0 0 0 0 0 2 3 4 7 6 2 0 0 0 0 0 0 0 0 0 0 0 0 0 2 3 0 0 0 0 0 0 0 0 0 0 0 0 0 0 2 6 3 1 0 0 0 0 0 0 0 0 0 0 0 0 0 0 1 0 0 0 0 1 0 0 0 0 0 11 0 4 11 5 0 0 0 10 17 0 1 0 0 0 0 0 0 0 0 0 0 0 0 0 0 0 0 2 3 3 5 3 0 0 0 0 0 0 0 0 0 0 0 0 0 0 0 0 0 0 0 0 0 0 0 0 0 0 0 0 0 1 6 6 1 1 0 0 0 0 0 0 0 0 0 0 0 0 0 0 0 0 0 0 0 0 0 0 0 0 3 7 0 11 8 0 0 0 0 2 22 7 2 6 0 0 0 0 0 0 0 0 0 0 0 0 0 0 0 0 2 2 4 0 0 0 0 0 0 0 0 0 0 0 0 0 0 0 0 0 0 0 0 0 0 0 0 0 0 0 0 0 2 4 7 4 2 1 0 0 0 0 0 0 0 0 0 0 0 0 0 0 0 0 0 0 0 0 0 0 0 0 9 0 0 14 1 0 0 0 0 0 18 15 5 6 0 0 0 0 0 0 0 0 0 0 0 0 0 0 0 0 2 5 0 0 0 0 0 0 0 0 0 0 0 0 0 0 0 0 0 0 0 0 0 0 0 0 0 0 0 0 0 0 4 5 6 4 3 1 0 0 0 0 0 0 0 0 0 0 0 0 0 0 0 0 0 0 0 0 0 0 0 0 10 0 0 13 0 0 0 0 0 0 12 19 11 0 0 0 0 0 0 0 0 0 0 0 0 0 0 0 0 1 3 3 0 0 0 0 0 0 0 0 0 0 0 0 0 0 0 0 0 0 0 0 0 0 0 0 0 0 0 0 0 0 0 6 4 3 1 1 0 0 0 0 0 0 0 0 0 0 0 0 0 0 0 0 0 0 2 2 0 0 0 0 13 0 6 11 0 0 0 0 0 0 4 17 14 5 0 0 0 0 0 0 0 0 0 0 0 0 0 0 0 2 4 3 0 0 0 0 0 0 0 0 0 0 0 0 0 0 0 0 0 0 0 0 0 0 0 0 0 0 0 0 0 0 0 2 2 4 3 0 0 0 0 0 0 0 0 0 0 2 0 0 0 0 0 0 0 0 6 4 0 0 0 0 8 2 12 5 0 0 0 0 0 0 0 11 10 10 0 0 0 0 0 0 0 0 0 0 0 0 0 0 1 2 3 0 0 1 0 0 2 0 0 0 0 0 0 0 0 0 0 0 0 0 0 0 0 0 0 0 0 0 0 0 0 1 2 4 2 4 3 0 2 0 0 0 0 0 0 0 0 2 0 0 0 0 0 0 0 3 7 9 0 0 0 0 4 8 13 0 0 0 0 0 0 0 0 2 8 13 6 0 0 0 0 1 0 0 0 0 0 0 0 0 2 4 3 2 2 1 0 5 1 2 0 1 1 4 5 2 4 1 0 0 0 0 0 0 0 0 0 0 0 0 0 0 2 0 4 5 2 4 7 1 0 0 0 0 0 0 0 0 0 2 0 0 1 0 1 0 5 6 8 9 0 0 0 0 6 14 4 0 0 0 0 0 0 0 0 0 1 10 6 0 0 0 0 2 0 1 0 0 0 0 0 0 1 3 2 4 1 3 2 4 2 0 3 5 8 6 6 4 3 0 0 0 0 0 0 0 0 0 0 0 0 0 0 0 0 0 2 6 4 7 7 0 2 0 0 0 0 0 0 0 0 2 1 1 2 3 0 0 9 9 13 6 0 0 0 0 11 14 0 0 0 0 0 0 0 0 0 0 0 0 0 0 0 0 0 3 3 2 0 0 0 0 0 0 2 3 3 3 2 1 0 4 1 3 3 2 4 1 0 0 0 0 0 0 0 0 0 0 0 0 0 0 0 0 0 0 0 0 0 3 4 8 3 1 0 1 0 0 0 0 0 0 0 5 2 2 4 4 0 2 14 12 12 6 0 0 1 0 16 6 0 0 0 0 0 0 0 0 0 0 0 0 0 0 0 0 2 4 4 4 2 0 0 0 0 1 2 2 2 3 1 0 3 1 1 2 0 0 0 0 0 0 0 0 0 0 0 0 0 0 0 0 0 0 0 0 0 0 0 0 0 0 0 4 3 2 3 0 0 0 0 0 0 0 2 6 2 3 2 4 0 3 15 12 15 2 0 9 7 1 16 0 0 0 0 0 0 0 0 0 0 0 0 0 0 0 0 0 3 5 5 6 3 0 0 0 1 3 2 4 6 4 0 0 2 0 0 0 0 0 0 0 0 0 0 0 0 0 0 0 0 0 0 0 0 0 0 0 0 0 0 0 0 0 0 1 1 4 2 1 1 1 0 0 0 0 3 7 2 3 3 5 0 4 17 14 15 1 6 16 10 9 13 0 0 0 0 0 0 0 0 0 0 0 0 0 0 0 0 0 8 6 7 5 4 1 0 3 3 3 8 8 9 3 5 0 0 0 0 0 0 0 0 0 0 0 0 0 0 0 0 0 0 0 0 0 0 0 0 0 0 0 0 0 0 0 0 0 0 0 3 1 1 4 0 0 0 2 4 7 3 3 2 3 0 9 19 20 15 2 15 22 10 18 4 0 0 0 0 0 0 0 0 0 0 0 0 0 0 0 0 0 9 8 6 6 4 1 3 4 5 4 11 10 7 7 6 0 0 0 0 0 0 0 0 0 0 0 0 0 0 0 1 0 0 0 0 0 0 0 0 0 0 0 0 0 0 0 0 0 0 0 3 3 0 4 1 1 2 5 7 8 4 5 4 3 1 15 20 26 13 6 23 24 13 21 0 0 0 0 0 0 0 0 0 0 0 0 0 0 0 0 0 0 13 9 7 8 8 3 5 6 7 9 12 11 8 6 4 0 0 0 0 0 0 2 4 0 0 0 0 0 4 1 6 5 3 0 0 0 0 0 0 0 0 0 0 0 0 0 0 0 0 0 1 1 2 5 3 3 4 6 9 7 4 4 5 5 3 19 21 22 12 12 26 18 18 13 0 0 0 0 0 0 0 0 0 0 0 0 0 0 0 0 0 0 13 11 10 7 12 7 6 7 11 11 14 10 11 7 6 0 0 0 0 0 0 0 0 0 0 0 0 0 0 0 0 0 0 0 0 0 0 0 0 0 0 0 0 0 0 0 0 0 0 0 1 0 0 6 5 4 8 7 11 9 5 4 7 6 7 21 21 18 11 9 19 19 20 0 0 0 0 0 0 0 0 0 0 0 0 0 0 0 0 0 0 0 15 13 11 10 14 10 8 9 11 11 13 11 10 6 3 0 0 0 0 0 0 0 0 0 0 0 0 0 0 0 0 0 0 0 0 0 0 0 0 0 0 0 0 0 0 0 0 0 0 1 3 0 0 3 5 3 7 10 8 10 5 5 7 7 8 17 18 15 10 10 20 23 12 0 0 0 0 0 0 0 0 0 0 0 0 0 0 0 0 0 0 0 15 17 13 12 15 14 10 10 11 12 14 12 11 7 1 0 0 0 0 0 0 0 0 0 0 0 0 0 0 0 0 0 0 0 0 0 0 0 0 0 0 0 0 0 0 0 0 0 6 6 3 0 2 3 4 6 7 11 9 9 6 4 8 7 7 13 13 12 7 13 21 26 2 0 0 0 0 0 0 0 0 0 0 0 0 0 0 0 0 0 0 0 18 19 14 15 14 18 13 12 12 15 14 16 12 7 4 1 0 0 0 0 0 0 0 0 0 0 0 0 0 0 0 0 0 0 0 0 0 0 0 0 0 0 0 0 0 0 1 3 9 10 6 1 5 3 4 5 8 10 8 7 7 6 10 5 6 7 9 8 6 14 21 19 0 0 0 0 0 0 0 0 0 0 0 0 0 0 0 0 0 0 0 0 20 18 18 16 16 19 14 13 16 17 17 16 12 7 6 5 2 2 4 1 4 3 4 6 0 0 0 0 0 0 0 0 0 0 0 0 0 0 0 0 0 0 0 0 1 1 6 11 18 15 8 2 5 4 3 4 7 10 8 8 7 8 9 3 5 7 9 9 5 15 17 0 0 0 0 0 0 0 0 0 0 0 0 0 0 0 0 0 0 0 0 0 20 17 20 20 18 19 17 14 16 18 19 16 13 11 8 7 6 9 9 9 9 9 10 10 9 7 6 2 0 0 0 0 0 0 0 0 0 0 0 0 0 0 0 3 6 6 9 16 22 18 9 4 3 5 2 5 8 9 11 7 7 10 5 0 3 6 13 3 0 0 0 0 0 0 0 0 0 0 0 0 0 0 0 0 0 0 0 0 0 0 0 0 21 18 20 21 21 18 17 15 14 14 19 14 13 9 9 7 8 8 10 8 7 10 11 11 16 16 20 15 9 5 0 0 0 0 0 0 0 0 0 0 0 1 7 11 11 7 11 14 19 19 12 5 1 4 5 4 7 10 9 7 6 10 0 0 4 7 16 0 0 0 0 0 0 0 0 0 0 0 0 0 0 0 0 0 0 0 0 0 0 0 0 2 22 20 19 20 21 17 18 15 14 14 16 13 11 11 9 6 7 7 6 4 6 6 6 6 7 11 14 12 11 7 6 5 3 0 0 0 0 0 0 0 0 5 7 10 8 9 11 9 17 17 12 6 4 1 5 5 4 9 6 4 7 5 0 2 4 12 11 0 0 0 0 0 0 0 0 0 0 0 0 0 0 0 0 0 0 0 0 0 0 0 0 7 23 22 18 22 22 22 18 15 13 14 15 11 13 11 8 7 3 8 1 1 5 4 7 7 6 4 7 2 6 1 5 3 5 4 1 0 0 0 0 0 0 1 3 6 7 8 6 9 14 13 13 6 3 2 5 5 2 4 7 3 7 0 0 2 7 15 0 0 0 0 0 0 0 0 0 0 0 0 0 0 0 0 0 0 0 0 0 0 0 0 0 15 26 23 19 21 23 21 18 16 13 11 12 10 10 9 7 5 3 7 5 4 3 4 5 7 7 6 5 2 4 1 5 6 8 9 8 7 4 0 0 0 0 0 1 3 6 3 4 9 12 12 11 8 4 4 6 3 3 3 3 7 3 0 0 4 11 13 0 0 0 0 0 0 0 0 0 0 0 0 0 0 0 0 0 0 0 0 0 0 0 0 0 21 26 22 19 21 22 18 18 16 14 12 8 9 8 9 6 2 3 4 7 7 3 3 4 5 3 3 0 1 1 0 1 1 3 2 4 3 2 0 0 0 0 0 0 5 5 3 5 7 8 13 9 7 7 5 5 3 2 2 4 7 0 0 2 6 14 1 0 0 0 0 0 0 0 0 0 0 0 0 0 0 0 0 0 0 0 0 0 0 0 0 0 25 27 23 19 21 21 19 20 17 14 11 9 8 6 8 6 3 3 7 7 10 8 7 8 6 5 5 3 2 1 0 0 0 0 0 1 2 4 4 2 2 4 3 6 6 6 8 7 7 8 10 9 7 7 6 4 3 3 4 5 4 0 0 3 8 14 0 0 0 0 0 0 0 0 0 0 0 0 0 0 0 0 0 0 0 0 0 0 0 0 0 0 28 26 24 20 20 19 19 18 18 14 10 11 9 7 7 7 6 3 7 10 13 14 11 13 11 12 15 14 12 9 7 5 3 3 3 2 4 8 8 8 6 9 10 9 9 8 10 12 8 11 11 9 7 8 6 6 3 3 6 6 0 0 0 1 11 1 0 0 0 0 0 0 0 0 0 0 0 0 0 0 0 0 0 0 0 0 0 0 0 0 0 15 29 28 23 21 20 20 20 17 17 14 12 10 10 7 4 8 8 6 7 10 13 14 12 13 16 17 18 18 16 17 12 14 10 9 10 11 11 10 9 8 9 11 14 10 10 10 12 10 10 11 12 8 7 7 5 5 4 5 6 4 0 0 1 1 11 0 0 0 0 0 0 0 0 0 0 0 0 0 0 0 0 0 0 0 0 0 0 0 0 0 17 17 26 29 23 19 20 20 19 18 17 16 13 8 7 3 4 7 6 8 7 9 12 14 13 13 15 20 19 21 20 21 18 18 17 15 17 16 16 13 11 10 11 11 13 10 9 13 13 11 10 10 9 9 3 5 2 5 2 5 5 0 8 5 0 4 0 0 0 0 0 0 0 0 0 0 0 0 0 0 0 0 0 0 0 0 0 0 0 0 4 13 24 8 30 30 26 20 22 19 20 18 18 14 12 7 7 2 0 5 5 5 6 6 11 13 13 12 13 16 19 19 21 22 22 23 20 19 19 18 15 14 13 10 11 11 12 9 10 11 12 12 8 9 6 8 1 2 0 3 5 4 4 0 10 22 5 6 0 0 0 0 0 0 0 0 0 0 0 0 0 0 0 0 0 0 0 0 0 0 0 12 9 23 28 25 31 27 25 22 21 20 18 18 19 13 11 8 5 1 0 2 1 5 2 5 7 9 9 9 10 13 16 17 20 20 20 19 19 19 17 16 15 13 11 10 10 10 11 8 8 9 11 11 6 7 4 3 2 0 0 3 5 4 1 0 8 20 24 8 0 0 0 0 0 0 0 0 0 0 0 0 0 0 0 0 0 0 0 0 0 0 13 10 22 37 45 24 25 26 25 24 19 19 18 15 16 12 8 8 5 1 0 0 0 1 1 2 4 5 8 9 8 11 14 15 17 18 16 15 17 14 14 14 13 11 9 8 8 8 7 4 4 8 7 7 2 2 0 0 0 0 0 2 4 4 2 0 8 15 25 18 0 0 0 0 0 0 0 0 0 0 0 0 0 0 0 0 0 0 0 0 0 8 20 18 43 52 50 19 15 26 26 23 21 18 15 16 12 10 10 9 6 2 0 1 1 0 0 0 1 3 5 7 6 8 8 10 8 11 12 10 10 7 7 8 7 5 4 3 4 5 4 0 1 5 1 2 0 0 0 0 0 0 1 0 3 7 2 0 7 19 23 7 0 0 0 0 0 0 0 0 0 0 0 0 0 0 0 0 0 0 0 0 9 27 29 38 59 69 48 8 5 26 24 23 21 18 15 12 10 8 9 10 2 3 1 2 0 0 0 0 0 0 1 5 3 2 3 2 5 4 6 4 3 2 0 0 0 0 0 0 0 2 0 0 0 0 0 0 0 0 0 0 0 0 0 1 1 8 8 2 7 19 28 0 0 0 0 0 0 0 0 0 0 0 0 0 0 0 0 0 0 0 0 2 23 32 33 59 75 73 45 0 0 22 23 20 20 19 13 9 6 8 6 8 5 4 2 1 0 0 0 0 0 0 0 2 0 0 0 0 2 1 0 0 0 0 0 0 0 0 0 0 0 0 0 0 0 0 0 0 0 0 0 0 0 0 0 0 1 3 13 12 10 21 13 0 0 0 0 0 0 0 0 0 0 0 0 0 0 0 0 0 0 1 2 18 32 39 48 73 89 68 45 0 0 20 19 18 20 18 12 9 6 5 5 5 4 5 2 2 0 0 0 0 0 0 0 0 0 0 0 0 0 0 0 0 0 0 0 0 0 0 0 0 0 0 0 0 0 0 0 0 0 0 0 0 0 0 0 3 1 1 11 21 20 24 0 0 2 11 0 0 0 0 0 0 0 0 0 0 0 0 0 0 0 14 16 27 42 53 65 86 92 59 48 0 2 13 18 16 18 17 11 8 6 4 3 3 4 4 2 2 1 0 2 0 0 0 0 0 0 0 0 0 0 0 0 0 0 0 0 0 0 0 0 0 0 0 0 0 0 0 0 0 0 0 0 0 0 0 0 4 2 4 10 19 32 24 0 0 0 17 8 0 0 0 0 0 0 0 0 0 0 0 0 0 0 41 40 49 68 76 79 97 93 59 46 0 8 9 17 14 16 15 9 7 6 3 2 2 1 4 3 4 1 0 0 0 0 0 0 0 0 0 0 0 0 0 0 0 0 0 0 0 0 0 0 0 0 0 0 0 0 0 0 0 0 0 0 0 0 0 0 5 3 4 10 13 37 19 3 0 0 9 23 0 0 0 0 0 0 0 0 0 0 0 0 0 0 79 81 85 92 100 100 102 89 60 40 4 13 8 14 15 14 11 10 7 2 3 1 0 1 0 2 4 2 1 0 0 0 0 0 0 0 0 0 0 0 0 0 0 0 0 0 0 0 0 0 0 0 0 0 0 0 0 0 0 0 0 0 0 0 0 3 5 4 5 10 13 31 17 1 0 11 23 29 13 0 0 0 0 0 0 0 0 0 0 0 0 0 88 95 103 106 105 102 99 85 63 38 5 11 16 9 14 12 9 8 5 2 0 1 0 1 0 0 2 4 2 1 1 1 0 0 0 0 0 0 0 0 0 0 0 0 0 0 0 0 0 0 0 0 0 0 0 0 0 0 0 0 0 0 0 0 1 4 4 6 9 10 15 18 12 4 0 1 25 52 40 7 0 0 0 0 0 0 0 0 0 0 0 0 96 97 95 102 106 98 97 81 65 43 10 0 27 7 10 10 8 6 3 1 0 0 0 0 1 0 2 5 6 3 3 3 0 0 0 0 0 0 0 0 0 0 0 0 0 0 0 0 0 0 0 0 0 0 0 0 0 0 0 0 0 0 0 0 2 2 4 7 13 14 14 7 3 7 1 0 19 43 73 46 0 0 0 0 0 0 0 0 0 0 0 0 93 86 94 100 106 95 88 71 70 53 22 0 21 14 5 10 6 4 1 0 0 0 0 0 0 0 0 5 5 5 5 4 3 1 2 0 0 0 0 0 0 0 0 0 0 0 0 0 0 0 0 0 0 0 0 0 0 0 0 0 0 0 1 0 3 2 5 8 13 19 10 1 0 0 6 0 17 42 66 80 45 0 0 0 0 0 0 0 0 0 0 0 80 76 87 87 99 94 81 70 64 63 31 0 5 22 2 8 7 2 2 2 0 0 0 0 0 0 0 1 4 4 7 6 5 4 3 2 2 0 0 1 0 0 0 0 0 0 0 0 0 0 0 0 0 0 0 0 0 0 0 0 2 0 1 0 2 3 7 7 11 21 6 1 0 0 9 9 17 46 61 79 80 45 12 0 0 0 0 0 0 0 0 0 76 80 82 82 93 88 77 69 58 66 36 7 0 20 7 1 8 3 1 3 0 0 0 0 0 0 0 0 0 3 5 4 6 4 4 4 5 4 3 3 5 2 3 1 1 0 2 0 1 0 0 0 0 0 1 0 0 0 1 0 1 0 1 0 3 4 9 9 10 19 7 2 0 0 8 21 21 45 58 78 81 65 51 25 0 0 0 0 0 0 0 0 