P2
92
112
255
0 0 0 0 0 0 0 0 0 0 0 0 0 0 0 0 0 0 0 0 0 0 0 0 0 0 0 0 0 0 0 0 0 0 0 0 0 0 0 0 0 0 0 0 0 0 0 0 0 0 0 0 0 0 0 0 0 0 0 0 0 0 0 0 0 0 0 0 0 0 0 0 0 0 0 0 0 0 0 0 0 0 0 0 0 0 0 0 0 0 0 0 0 0 0 0 0 0 0 0 0 0 0 0 0 0 0 0 0 0 0 0 0 0 0 0 0 0 0 0 0 0 0 0 0 0 0 0 0 0 0 0 0 0 0 0 0 0 0 0 0 0 0 0 0 0 0 0 0 0 0 0 0 0 0 0 0 0 0 0 0 0 0 0 0 0 0 0 0 0 0 0 0 0 0 0 0 0 0 0 0 0 0 0 0 0 0 0 0 0 0 0 0 0 0 0 0 0 0 0 0 0 0 0 0 0 0 0 0 0 0 0 0 0 0 0 0 0 0 0 0 0 0 0 0 0 0 0 0 0 0 0 0 0 0 0 0 0 0 0 0 0 0 0 0 0 0 0 0 0 0 0 0 0 0 0 0 0 0 0 0 0 0 0 0 0 0 0 0 0 0 0 0 0 0 0 0 0 0 0 0 0 0 0 0 0 0 0 0 0 0 0 0 0 0 0 0 0 0 0 0 0 0 0 0 0 0 0 0 0 0 0 0 0 0 0 0 0 0 0 1 0 2 0 5 4 3 2 2 0 0 0 0 0 0 0 0 0 0 0 0 0 0 0 0 0 0 0 0 0 0 0 0 0 0 0 0 0 0 0 0 0 0 0 0 0 0 0 0 0 0 0 0 0 0 0 0 0 0 0 0 0 0 0 0 0 0 0 0 0 0 0 0 0 0 0 0 0 0 0 0 0 1 2 2 5 5 5 9 10 7 11 15 13 14 15 19 19 16 16 17 14 12 9 10 7 9 6 6 0 0 0 0 0 0 0 0 0 0 0 0 0 0 0 0 0 0 0 0 0 0 0 0 0 0 0 0 0 0 0 0 0 0 0 0 0 0 0 0 0 0 0 0 0 0 0 0 0 0 0 0 0 0 0 0 0 0 0 0 4 8 8 13 12 14 16 16 15 16 18 20 21 22 23 31 29 26 30 33 30 27 31 28 27 26 26 24 23 26 22 22 21 15 17 16 9 6 0 0 0 0 0 0 0 0 0 0 0 0 0 0 0 0 0 0 0 0 0 0 0 0 0 0 0 0 0 0 0 0 0 0 0 0 0 0 0 0 0 0 0 0 0 0 0 0 0 0 0 2 6 9 15 21 22 24 25 27 29 30 29 27 30 30 31 35 34 41 43 40 41 44 36 39 39 36 37 33 38 37 36 39 31 34 33 31 35 30 27 23 13 9 6 4 0 0 0 0 0 0 0 0 0 0 0 0 0 0 0 0 0 0 0 0 0 0 0 0 0 0 0 0 0 0 0 0 0 0 0 0 0 0 0 0 0 0 0 0 0 0 6 15 21 23 28 32 35 34 36 38 40 42 39 41 41 41 43 43 46 50 51 49 49 48 44 47 47 47 45 44 50 46 44 45 41 44 42 44 47 43 43 39 32 25 17 11 7 5 0 0 0 0 0 0 0 0 0 0 0 0 0 0 0 0 0 0 0 0 0 0 0 0 0 0 0 0 0 0 0 0 0 0 0 0 0 0 0 0 0 0 0 10 20 25 28 33 36 40 40 42 42 43 45 46 49 48 49 52 52 52 55 58 59 57 55 56 52 54 53 53 53 53 54 54 52 51 52 51 51 52 55 52 53 50 48 44 36 22 13 11 11 0 0 0 0 0 0 0 0 0 0 0 0 0 0 0 0 0 0 0 0 0 0 0 0 0 0 0 0 0 0 0 0 0 0 0 0 0 0 0 0 0 12 23 30 32 37 40 40 42 42 44 47 49 51 52 53 54 56 57 58 57 61 62 61 60 59 58 58 57 58 59 62 60 61 58 55 56 57 60 58 59 57 56 58 57 55 54 53 45 28 18 15 15 0 0 0 0 0 0 0 0 0 0 0 0 0 0 0 0 0 0 0 0 0 0 0 0 0 0 0 0 0 0 0 0 0 0 0 0 0 0 0 16 25 32 35 37 41 41 41 43 45 46 48 51 54 56 54 59 58 58 60 60 62 63 62 62 63 61 62 61 61 63 64 66 64 63 59 63 63 63 64 63 66 65 63 62 61 61 60 59 54 35 23 21 15 0 0 0 0 0 0 0 0 0 0 0 0 0 0 0 0 0 0 0 0 0 0 0 0 0 0 0 0 0 0 0 0 0 0 0 0 0 17 26 32 35 35 38 40 41 42 44 44 47 48 50 54 55 55 58 59 59 59 61 62 63 63 63 64 63 64 61 64 64 64 67 66 68 65 69 69 71 72 70 70 75 71 67 67 68 67 64 64 58 46 30 23 13 0 0 0 0 0 0 0 0 0 0 0 0 0 0 0 0 0 0 0 0 0 0 0 0 0 0 0 0 0 0 0 0 0 0 0 17 26 31 35 35 36 38 40 40 43 45 43 47 51 51 53 55 52 59 58 59 60 59 62 61 61 62 61 63 63 62 63 64 63 66 68 69 71 74 74 74 77 75 76 75 76 72 69 72 71 69 68 68 60 52 28 28 16 0 0 0 0 0 0 0 0 0 0 0 0 0 0 0 0 0 0 0 0 0 0 0 0 0 0 0 0 0 0 0 0 0 17 27 31 35 34 38 37 39 38 42 41 43 44 45 50 50 50 52 51 55 58 56 58 57 59 60 60 63 60 60 62 62 62 64 66 64 67 69 70 77 77 80 81 82 80 80 79 77 71 75 74 72 72 73 69 68 51 30 30 15 0 0 0 0 0 0 0 0 0 0 0 0 0 0 0 0 0 0 0 0 0 0 0 0 0 0 0 0 0 0 0 15 25 32 34 36 36 38 37 37 38 40 41 43 44 45 48 47 49 50 51 53 56 56 55 56 58 58 60 61 60 61 59 62 62 63 65 64 66 71 73 76 80 81 80 85 82 85 83 79 75 76 76 73 72 75 75 72 70 51 28 30 7 0 0 0 0 0 0 0 0 0 0 0 0 0 0 0 0 0 0 0 0 0 0 0 0 0 0 0 0 0 13 22 31 33 34 36 36 36 36 34 36 37 39 40 42 41 44 44 46 49 49 50 52 51 56 53 56 57 57 58 58 59 60 60 62 64 64 65 67 70 73 74 76 79 79 83 83 86 85 82 77 76 73 77 74 75 77 73 76 71 46 26 25 3 0 0 0 0 0 0 0 0 0 0 0 0 0 0 0 0 0 0 0 0 0 0 0 0 0 0 0 4 22 29 33 33 34 36 36 35 34 32 35 35 37 38 40 38 42 43 43 45 47 48 48 48 52 53 53 54 55 54 57 59 59 60 60 63 61 61 64 67 67 71 71 73 76 78 80 83 82 81 77 79 74 77 78 76 77 76 77 75 73 39 28 23 0 0 0 0 0 0 0 0 0 0 0 0 0 0 0 0 0 0 0 0 0 0 0 0 0 0 0 13 25 32 32 32 33 35 35 35 33 32 35 34 35 36 36 38 38 41 40 42 42 44 44 47 49 50 51 49 50 52 53 56 57 56 59 60 60 58 61 63 64 64 66 67 71 72 75 75 79 77 76 78 77 76 79 77 77 76 80 77 75 68 35 31 13 0 0 0 0 0 0 0 0 0 0 0 0 0 0 0 0 0 0 0 0 0 0 0 0 0 2 18 28 31 30 32 32 33 32 33 31 32 31 33 33 33 34 36 36 36 38 38 40 40 43 46 46 48 46 46 48 49 51 54 54 55 57 57 56 56 56 59 60 62 64 64 69 71 71 72 75 74 74 75 78 77 79 80 80 76 78 82 74 77 57 33 28 0 0 0 0 0 0 0 0 0 0 0 0 0 0 0 0 0 0 0 0 0 0 0 0 0 8 22 31 31 29 32 30 32 31 31 31 30 29 30 30 31 31 33 33 33 36 35 37 38 38 45 42 43 43 43 44 46 46 49 51 51 50 52 53 54 54 55 56 59 59 61 64 67 68 69 69 72 72 72 77 77 77 80 82 80 77 80 81 76 71 47 33 19 0 0 0 0 0 0 0 0 0 0 0 0 0 0 0 0 0 0 0 0 0 0 0 0 11 26 31 29 29 29 29 31 31 30 29 29 27 29 28 29 29 29 31 30 32 32 33 35 36 40 40 38 39 41 41 44 42 43 44 46 45 48 50 50 49 49 53 54 55 59 60 65 64 69 66 67 70 70 72 77 78 80 81 83 82 78 79 81 76 64 41 30 5 0 0 0 0 0 0 0 0 0 0 0 0 0 0 0 0 0 0 0 0 0 0 1 16 28 30 29 27 29 30 31 29 28 27 28 27 27 26 26 27 28 26 29 30 31 32 31 33 36 36 36 36 38 38 38 39 38 39 40 41 42 45 45 46 46 49 49 51 55 56 60 62 66 65 66 68 68 69 75 76 78 81 82 85 83 80 81 79 74 54 37 13 0 0 0 0 0 0 0 0 0 0 0 0 0 0 0 0 0 0 0 0 0 0 5 19 26 27 28 25 26 28 28 28 25 26 25 25 24 23 24 25 25 24 25 27 28 29 29 28 32 32 32 33 34 36 34 35 34 37 37 38 40 41 41 42 44 46 45 48 50 53 54 60 61 62 63 63 66 67 71 75 75 78 83 84 85 83 78 85 75 65 44 20 0 0 0 0 0 0 0 0 0 0 0 0 0 0 0 0 0 0 0 0 0 0 9 20 23 25 26 23 23 25 25 25 23 23 22 22 21 21 21 21 24 22 23 22 24 25 27 26 28 26 29 29 30 31 32 31 32 32 33 34 37 37 37 39 39 41 44 43 46 47 49 53 56 57 59 59 62 65 68 70 74 75 82 83 85 87 81 80 81 73 54 25 0 0 0 0 0 0 0 0 0 0 0 0 0 0 0 0 0 0 0 0 0 0 8 17 23 25 23 21 21 21 22 21 19 21 18 18 18 18 18 17 19 20 19 19 19 19 21 22 25 24 25 26 25 25 27 27 28 27 28 30 32 33 32 33 35 37 40 39 42 46 47 48 53 55 54 57 59 63 65 67 71 74 79 83 85 87 85 80 80 78 62 34 0 0 0 0 0 0 0 0 0 0 0 0 0 0 0 0 0 0 0 0 0 0 6 16 23 22 20 18 19 17 17 18 17 16 16 15 15 13 14 13 15 16 15 16 16 15 18 20 20 20 20 22 20 23 22 22 23 24 24 26 28 29 29 29 31 33 36 37 38 42 44 44 48 52 50 53 54 59 60 64 69 73 77 81 83 84 85 82 78 80 64 40 2 0 7 0 0 0 0 0 0 0 0 0 0 0 0 0 0 0 0 0 0 0 9 18 20 19 15 16 16 15 14 13 13 12 10 11 10 9 9 12 10 11 12 12 12 12 15 16 15 19 16 18 16 20 19 18 17 20 21 22 24 25 25 26 29 30 32 34 34 37 40 40 44 48 48 51 52 55 58 61 66 71 74 77 83 82 83 83 81 77 69 37 8 0 7 0 0 0 0 0 0 0 0 0 0 0 0 0 0 0 0 0 0 0 11 16 18 14 13 14 13 14 10 9 9 8 6 7 6 7 7 8 8 8 7 8 9 9 11 11 12 13 12 15 14 15 15 16 15 16 18 17 19 21 23 22 26 26 29 31 31 33 37 39 39 42 46 49 48 51 53 57 63 68 71 75 80 80 81 81 83 77 69 39 9 5 9 0 0 0 0 0 0 0 0 0 0 0 0 0 0 0 0 0 0 0 9 15 15 13 12 12 11 10 6 5 3 3 1 2 2 2 1 2 1 2 4 5 5 5 8 7 8 10 10 13 12 12 11 12 13 12 15 17 15 17 19 19 21 22 22 25 26 29 33 35 36 36 41 43 44 46 51 52 59 65 69 73 78 77 79 80 80 80 67 40 10 5 10 0 0 0 0 0 0 0 0 0 0 0 0 0 0 0 0 0 0 0 10 15 16 13 13 11 9 6 1 0 0 0 0 0 0 0 0 0 0 0 0 0 0 0 4 5 5 7 9 11 11 10 10 9 10 10 12 14 12 14 16 16 18 18 19 20 20 25 28 30 32 34 37 40 40 45 48 50 56 62 66 71 75 75 77 79 79 78 67 39 12 4 7 0 0 0 0 0 0 0 0 0 0 0 0 0 0 0 0 0 0 0 13 15 16 12 11 7 3 0 0 0 0 0 0 0 0 0 0 0 0 0 0 0 0 0 0 2 3 3 7 9 8 8 8 7 9 8 9 9 11 9 10 12 11 10 10 11 13 20 22 24 28 31 32 36 38 41 46 48 54 57 64 68 71 73 74 76 76 78 63 39 6 4 1 0 0 0 0 0 0 0 0 0 0 0 0 0 0 0 0 0 0 2 16 16 14 11 9 4 0 0 0 0 0 0 0 0 0 0 0 0 0 0 0 0 0 0 0 0 0 3 5 6 7 6 6 6 5 7 7 6 8 4 9 6 5 6 5 7 8 12 15 16 20 25 26 29 33 36 42 47 51 53 61 65 70 72 72 73 75 78 63 31 5 0 0 0 0 0 0 0 0 0 0 0 0 0 0 0 0 0 0 0 0 3 15 17 13 6 3 3 0 0 0 0 0 0 0 0 0 0 0 0 0 0 0 0 0 0 0 0 0 1 4 2 6 3 3 3 4 5 6 2 4 0 3 3 0 2 1 1 2 6 9 11 13 19 20 25 26 31 36 45 49 50 57 65 69 71 72 72 74 77 64 25 0 0 0 0 0 0 0 0 0 0 0 0 0 0 0 0 0 0 0 0 0 0 14 15 12 4 4 1 0 0 0 0 0 0 0 0 0 0 0 0 0 0 0 0 0 0 0 0 0 0 2 3 3 2 2 2 3 5 2 1 0 1 0 2 0 0 0 0 0 0 2 7 7 12 17 20 22 24 30 36 48 50 54 64 67 69 70 71 73 77 64 18 0 0 0 0 0 0 0 0 0 0 0 0 0 0 0 0 0 0 0 0 0 0 12 13 5 3 4 0 0 0 0 0 0 0 0 0 0 0 0 0 0 0 0 0 0 0 0 0 0 0 0 1 0 0 0 0 2 2 0 0 0 0 0 0 0 0 0 0 0 0 0 0 0 0 5 8 10 15 18 26 37 51 54 61 65 70 70 69 73 76 61 12 0 0 0 0 0 0 0 0 0 0 0 0 0 0 0 0 0 0 0 0 0 0 10 9 1 3 4 0 0 0 0 0 0 0 0 0 0 0 0 0 0 0 0 0 0 0 0 0 0 0 0 0 0 0 0 0 0 0 0 0 0 0 0 0 0 0 0 0 0 0 0 0 0 0 0 0 0 0 3 8 19 37 54 58 63 68 69 67 70 75 57 5 0 0 0 0 0 0 0 0 0 0 0 0 0 0 0 0 0 0 0 0 0 0 8 3 4 2 0 0 0 0 0 0 0 0 0 0 0 0 0 0 0 0 0 0 0 0 0 0 0 0 0 0 0 0 0 0 0 0 0 0 0 0 0 0 0 0 0 0 0 0 0 0 0 0 0 0 0 0 0 0 0 22 42 56 60 65 65 68 68 77 51 0 0 0 0 0 0 0 0 0 0 0 0 0 0 0 0 0 0 0 0 0 0 0 6 0 4 2 0 0 0 0 0 0 0 0 0 0 0 0 0 0 0 0 0 0 0 0 0 0 0 0 0 0 0 0 0 0 0 0 0 0 0 0 0 0 0 0 0 0 0 0 0 0 0 0 0 0 0 0 0 0 0 7 21 44 58 62 63 64 70 72 41 0 0 0 0 0 0 0 0 0 0 0 0 0 0 0 0 0 0 0 0 0 0 0 2 2 5 2 0 0 0 0 0 0 0 0 0 0 0 0 0 0 0 0 0 0 0 0 0 0 0 0 0 0 0 0 0 0 0 0 0 0 0 0 0 0 0 0 0 0 0 0 0 0 0 0 0 0 0 0 0 0 0 0 8 22 44 59 58 62 69 70 28 0 0 0 0 0 0 0 0 0 0 0 0 0 0 0 0 0 0 0 0 0 0 0 2 6 11 0 0 0 0 0 0 0 0 0 0 0 0 0 0 0 0 0 0 0 0 0 0 0 0 0 0 0 0 0 0 0 0 0 0 0 0 0 0 0 0 0 0 0 0 0 0 0 0 0 1 0 0 0 0 0 0 0 5 9 28 42 60 60 68 61 16 0 0 0 0 0 0 0 0 0 0 0 0 0 0 0 0 0 0 0 0 0 0 0 4 11 13 0 0 0 0 0 0 0 0 0 0 0 0 0 0 0 0 0 0 0 0 0 0 0 0 0 0 0 0 0 0 0 0 0 0 0 0 0 0 0 0 0 0 0 0 0 0 0 0 0 0 2 6 5 4 2 0 3 4 5 24 25 53 58 65 49 4 0 0 0 0 0 0 0 0 0 0 0 1 0 0 0 0 0 0 0 0 0 0 0 6 15 12 0 0 0 0 0 0 0 0 0 0 0 0 0 0 0 0 0 0 0 0 0 0 0 0 0 0 0 0 0 0 0 0 0 0 0 0 0 0 0 0 0 0 0 0 0 0 0 0 0 0 0 4 9 9 8 6 10 9 5 21 21 34 55 60 35 0 0 0 0 0 0 0 0 0 0 0 8 1 0 0 0 0 0 0 0 0 0 0 0 7 17 10 0 0 0 0 0 0 0 0 0 0 0 0 0 0 0 0 0 0 0 0 0 0 0 0 0 0 0 0 0 0 3 0 3 3 0 0 0 0 0 0 0 0 0 0 0 0 0 0 0 0 0 0 0 7 9 11 14 13 11 21 22 29 51 53 22 0 0 0 0 0 0 0 0 0 0 0 6 2 6 2 0 0 0 0 0 0 0 0 0 1 10 1 0 0 0 0 0 0 0 0 0 0 0 0 0 0 0 0 0 0 0 0 0 0 0 0 0 0 1 3 1 8 10 10 11 13 8 1 0 0 0 0 0 0 0 0 0 0 0 0 0 0 0 0 0 0 5 10 16 16 13 27 26 33 48 48 13 0 0 0 0 0 0 0 0 0 0 0 5 18 17 14 14 5 0 0 0 0 0 0 0 6 8 1 0 0 0 0 0 0 0 0 0 0 0 0 0 0 0 0 0 0 0 0 0 0 0 0 0 0 2 3 2 9 12 13 16 19 15 5 0 0 0 0 0 0 0 0 0 0 0 0 0 0 0 0 0 0 10 3 17 21 21 27 31 38 49 43 6 0 0 0 0 0 0 0 0 0 0 0 9 28 24 18 23 16 0 0 0 0 0 0 0 9 11 7 5 2 5 1 3 0 0 0 0 2 9 0 0 0 0 0 0 0 0 0 0 0 0 0 0 0 0 3 4 12 11 14 17 22 22 10 0 0 0 0 0 0 0 0 0 0 0 0 0 0 0 0 0 0 16 8 7 28 27 33 36 43 50 38 1 0 0 0 0 0 0 0 0 0 0 8 12 33 29 22 29 20 8 0 0 0 0 0 0 18 21 7 5 9 10 1 2 1 0 0 0 6 11 0 0 0 0 0 0 0 0 0 0 0 0 0 0 0 0 0 0 6 10 11 15 20 22 7 0 0 0 0 0 0 0 0 0 0 0 0 0 0 0 0 0 0 0 20 0 20 33 33 37 49 51 37 0 0 0 0 0 0 0 0 0 0 0 18 22 36 30 23 32 33 19 5 0 0 0 0 0 21 24 7 11 17 22 7 3 12 3 0 0 3 10 0 0 0 0 0 0 0 0 0 0 0 0 0 0 0 0 0 0 9 15 16 17 23 26 17 0 0 0 0 0 0 0 3 11 0 0 0 0 0 0 0 5 0 0 11 10 15 30 36 39 51 48 39 0 0 0 0 0 0 0 3 12 3 0 21 34 42 40 27 33 37 30 13 0 0 0 0 2 24 26 9 19 16 19 13 10 13 0 0 3 13 7 0 0 0 0 0 0 4 0 0 0 0 0 0 0 0 0 1 0 5 17 22 24 27 21 20 0 0 0 0 0 0 0 5 15 0 0 0 0 0 0 3 4 0 0 0 13 16 23 32 41 52 49 34 0 0 0 0 0 0 5 0 2 4 0 20 43 51 50 40 41 41 37 17 0 0 0 0 4 23 26 18 31 22 18 16 15 14 6 8 24 22 9 0 0 0 0 0 0 4 0 0 0 0 0 0 0 5 3 2 6 10 18 29 30 23 22 30 17 0 0 0 0 0 0 0 7 2 8 0 0 0 11 8 12 8 0 14 18 21 28 30 39 47 38 31 0 0 0 0 0 0 8 4 11 16 0 19 45 63 55 55 48 40 32 22 4 0 0 0 11 16 18 26 24 24 22 21 18 11 8 13 23 20 11 0 0 0 0 0 5 4 0 0 0 0 0 0 1 12 11 6 3 13 19 29 32 21 25 22 24 7 0 0 0 0 0 0 0 0 6 4 1 6 20 20 13 20 9 23 25 28 33 34 38 46 33 23 0 0 0 0 0 12 13 14 29 28 2 20 40 59 52 65 51 38 25 14 9 0 0 0 15 20 18 25 28 29 26 25 17 15 21 25 23 9 6 7 0 0 0 0 7 11 0 0 0 0 0 0 8 15 12 9 8 13 20 31 33 26 22 22 18 24 6 2 2 0 0 0 0 0 0 0 10 9 18 24 25 23 22 35 36 36 31 41 47 46 28 16 0 0 0 0 5 26 16 12 37 17 18 18 34 46 51 69 57 37 21 1 2 0 0 0 19 24 24 28 32 26 25 24 22 20 26 29 30 14 11 4 3 0 4 13 6 10 2 5 0 0 0 2 13 16 14 9 10 15 19 27 30 33 23 23 18 23 28 21 5 6 4 0 0 0 0 0 3 12 16 21 25 26 29 47 44 41 28 42 51 55 31 11 0 0 0 9 19 47 27 20 48 17 18 11 31 31 51 75 68 46 22 3 0 0 0 4 24 23 25 28 30 27 25 25 24 23 26 34 35 26 26 15 10 8 16 18 10 8 9 3 5 1 5 10 14 14 15 10 10 14 19 25 25 30 28 30 22 27 30 28 14 11 11 4 7 17 7 2 12 20 14 14 29 27 36 38 43 49 30 43 49 54 33 9 0 0 0 31 42 62 34 29 48 20 23 7 24 24 48 70 65 45 25 8 0 0 0 9 22 21 22 26 28 27 29 27 27 26 26 25 32 34 31 26 23 24 22 19 14 12 9 8 8 11 12 12 15 14 14 11 15 14 19 27 24 26 30 30 27 29 30 35 32 22 16 10 12 16 24 24 27 33 33 26 29 35 41 43 42 50 42 46 48 52 31 9 0 0 15 45 51 76 42 43 47 14 15 6 15 16 44 62 53 34 20 6 0 0 0 11 21 18 21 24 29 27 27 29 31 28 29 23 23 26 26 23 24 26 21 23 17 16 17 15 16 15 14 14 14 14 13 12 18 20 24 25 24 27 30 32 31 32 35 35 37 34 28 21 17 22 23 37 41 39 38 35 33 36 44 46 44 47 44 42 43 45 24 10 3 0 19 59 58 80 50 55 49 6 7 9 9 12 39 51 48 25 15 4 0 0 0 9 21 19 22 23 29 25 26 27 32 28 27 24 25 21 21 18 20 22 22 21 20 16 18 17 23 18 14 12 16 14 11 14 17 22 26 27 24 24 26 32 30 33 34 38 39 38 32 31 29 30 34 39 37 36 34 33 36 37 41 45 47 44 36 34 35 37 26 13 5 0 16 59 62 83 45 55 41 8 3 3 8 0 25 48 45 18 5 2 0 0 0 7 18 18 20 21 25 23 23 24 28 27 26 22 25 21 19 19 20 22 22 19 15 16 16 19 25 21 13 11 17 16 11 15 16 22 27 27 24 23 25 30 30 32 33 36 41 40 36 32 33 29 28 31 28 29 32 33 35 37 40 42 46 43 37 33 35 36 29 15 12 0 25 53 66 82 47 58 27 13 0 0 6 0 12 48 43 17 2 0 0 0 0 4 17 15 17 17 20 21 20 22 23 22 22 20 20 22 19 19 22 19 21 18 17 17 17 23 23 14 1 6 15 15 11 13 17 21 27 26 16 23 29 30 30 32 33 37 40 41 36 35 35 32 32 31 31 26 32 32 34 35 39 40 45 42 35 33 33 33 32 11 10 0 18 55 66 79 53 56 16 13 0 0 6 0 2 35 37 21 4 0 0 0 0 2 12 13 14 13 16 18 15 17 20 18 17 18 15 18 18 18 19 18 17 20 17 15 20 22 15 0 0 2 7 13 11 12 17 24 20 17 7 14 32 29 28 31 31 33 36 38 37 35 34 35 36 32 32 28 31 29 32 34 36 37 41 38 31 30 30 32 30 6 1 0 16 49 63 75 61 34 12 6 0 0 5 0 0 22 31 30 15 0 0 0 0 0 11 12 12 14 13 14 11 13 16 11 13 11 11 14 16 17 17 17 15 17 16 18 21 17 4 0 0 6 7 5 10 10 15 17 4 1 11 10 30 29 26 30 30 29 32 32 35 31 33 33 35 31 29 27 27 29 31 32 34 36 38 31 26 27 28 30 21 6 0 0 11 38 59 67 59 8 17 0 0 0 1 0 0 7 26 30 22 5 0 0 0 0 10 9 10 14 12 12 10 11 11 9 10 12 12 14 14 16 17 14 12 15 12 16 15 9 1 0 0 2 14 7 8 8 13 12 3 0 9 9 21 24 23 29 29 23 26 29 32 31 30 29 32 29 27 25 25 24 28 29 29 32 31 28 22 24 27 28 15 0 0 0 13 34 55 59 38 6 19 0 0 0 0 0 0 0 27 41 26 19 7 0 0 0 7 8 10 12 11 11 12 10 10 10 9 12 12 12 15 12 14 11 11 10 8 9 12 9 4 7 5 4 9 10 6 6 12 10 7 4 9 11 11 15 17 30 26 22 20 25 29 26 28 28 27 28 25 24 22 23 26 28 27 30 30 25 19 23 24 28 5 0 0 0 13 34 55 45 28 7 14 0 0 0 0 0 0 0 19 46 36 27 24 0 0 0 6 6 6 10 11 10 12 10 10 10 10 11 9 12 12 10 11 10 11 7 6 5 11 12 7 5 1 0 6 10 9 7 6 4 0 1 8 7 4 7 12 24 18 24 17 18 24 22 25 26 25 27 26 22 18 22 25 27 27 28 30 23 16 21 25 23 0 0 0 0 16 39 52 29 18 6 3 0 0 0 0 0 0 3 17 37 36 32 34 0 0 0 5 9 5 11 12 9 9 11 9 12 11 9 9 10 11 9 11 10 10 6 5 3 8 9 7 0 0 0 0 6 3 7 1 0 0 0 0 0 0 1 4 10 13 21 17 13 18 19 22 24 22 22 22 19 18 18 24 24 27 26 26 18 15 17 25 15 0 0 0 18 32 47 44 15 6 0 2 0 0 0 0 0 0 0 22 25 33 26 33 11 0 0 0 6 6 9 12 10 9 11 10 12 12 10 10 7 10 9 9 11 8 5 5 4 6 6 0 0 0 0 0 0 0 0 0 0 0 0 0 0 0 0 0 0 4 14 18 11 13 16 19 21 17 18 17 17 16 18 23 23 25 24 20 13 15 19 26 7 0 0 12 29 37 47 21 7 0 0 0 0 0 10 0 0 0 0 11 27 32 22 30 19 0 0 0 5 7 8 10 10 10 10 12 11 10 11 11 10 11 10 8 10 7 7 7 3 4 6 0 0 0 0 0 0 0 0 0 0 0 0 0 0 0 0 0 0 0 14 20 13 11 14 16 19 19 16 17 16 18 17 22 22 26 22 17 11 14 24 24 4 0 1 20 39 37 49 11 1 0 0 0 0 0 11 6 0 0 0 10 25 36 28 27 28 0 0 0 0 8 10 9 11 8 13 15 12 8 16 14 10 13 11 11 9 9 8 3 4 6 4 5 5 0 0 0 0 0 0 0 0 0 0 0 0 0 0 0 0 4 17 20 16 11 11 12 18 19 18 20 14 19 17 21 21 23 21 12 9 21 26 16 1 4 5 35 47 46 57 14 0 0 0 0 0 0 0 9 0 0 0 7 20 22 21 25 25 0 0 0 0 5 11 12 16 10 14 18 9 0 14 17 13 13 14 13 11 8 2 0 0 9 7 8 9 0 0 0 0 0 0 0 0 0 0 0 0 0 0 0 4 13 23 23 22 12 10 13 18 21 20 22 18 19 19 19 21 22 21 13 16 22 28 6 0 9 26 45 55 55 58 25 0 0 0 0 0 0 0 1 1 0 0 0 5 8 3 5 4 0 0 0 0 4 11 13 16 13 13 16 13 4 4 16 17 15 16 13 9 3 0 0 0 0 8 12 9 0 0 0 0 0 0 0 0 0 0 0 0 0 0 8 17 22 25 26 22 16 13 12 14 19 23 24 23 22 19 17 21 21 24 19 23 25 23 0 0 13 40 42 53 58 57 23 0 0 0 0 0 0 0 0 0 0 0 0 0 0 0 0 0 0 0 0 0 1 11 13 15 15 15 14 19 13 10 13 17 16 14 10 7 5 2 5 8 3 7 11 4 0 0 0 0 0 0 0 0 0 0 0 0 0 0 11 18 22 24 26 26 18 14 9 11 18 24 27 27 24 22 20 23 21 26 23 26 25 16 0 10 20 37 49 56 62 57 7 0 0 0 0 0 0 1 2 0 0 0 0 0 0 0 0 0 0 0 0 0 0 8 11 14 14 16 14 15 15 15 16 15 13 12 7 4 2 3 7 10 7 2 3 1 0 0 0 0 2 0 0 0 0 0 0 0 3 0 6 9 14 16 23 23 20 14 8 10 15 23 31 30 27 24 22 24 24 26 24 27 22 11 8 22 21 36 51 54 65 33 0 0 0 0 0 0 0 0 6 1 0 0 0 0 0 0 0 0 0 0 0 0 0 9 9 15 14 18 18 15 16 18 14 14 12 10 5 4 0 3 4 8 7 3 2 0 0 5 1 8 11 4 0 0 2 0 0 6 13 6 0 0 0 7 12 18 18 13 8 8 13 21 30 30 28 26 24 23 25 27 29 25 18 7 14 32 17 30 44 36 41 16 0 0 0 0 0 0 0 0 3 6 0 0 0 0 0 0 0 0 0 0 0 0 1 8 11 13 15 14 17 16 17 19 14 14 7 7 6 0 0 0 4 4 4 2 2 1 3 7 11 9 16 13 7 2 8 6 8 12 18 12 8 3 5 7 9 3 12 7 5 7 6 20 25 29 28 25 27 25 25 31 29 23 17 4 14 31 23 22 33 26 30 3 0 0 0 0 0 0 0 0 0 0 0 0 2 0 0 0 0 0 0 0 0 0 0 5 8 11 12 14 12 16 15 18 13 12 5 5 3 0 0 0 0 2 3 3 4 5 9 9 14 9 16 21 16 9 11 7 10 13 17 16 20 16 19 19 12 10 6 5 2 0 0 11 19 28 29 25 28 29 23 31 28 20 16 2 10 16 13 13 22 27 16 0 0 0 0 0 0 0 0 0 0 0 0 0 0 0 0 0 0 0 0 0 0 0 0 0 5 10 9 15 12 15 16 18 15 15 7 4 0 0 0 0 0 1 5 4 3 0 5 6 13 9 12 14 13 6 7 5 4 8 13 12 13 21 20 24 16 15 8 4 0 0 0 0 17 28 30 26 26 26 21 29 25 22 13 5 4 0 0 3 5 8 0 0 0 0 0 0 0 0 0 0 0 0 0 0 0 0 0 0 0 0 0 0 0 0 0 1 0 5 7 11 11 16 15 17 17 13 9 4 0 0 0 0 0 0 0 0 0 0 2 7 9 6 10 8 10 7 10 5 0 0 6 8 7 11 15 19 16 15 9 7 0 0 0 0 14 26 32 25 27 26 20 28 25 23 15 6 0 0 0 0 0 0 0 0 0 0 0 0 0 0 0 0 0 0 0 0 0 0 0 0 0 0 0 0 0 0 0 0 1 5 7 10 13 17 17 19 18 13 11 5 1 0 0 0 0 0 0 0 0 0 0 6 6 5 4 1 4 3 0 0 0 0 0 0 0 0 0 4 9 10 7 7 0 0 0 0 12 25 30 26 28 25 21 30 24 23 16 7 0 0 0 0 0 0 0 0 0 0 0 0 0 0 0 0 0 0 0 0 0 0 0 0 0 0 0 0 0 0 0 0 2 5 7 14 17 20 18 22 19 17 12 8 5 0 0 0 0 0 0 0 0 0 0 0 1 1 0 0 0 0 0 0 0 0 0 0 0 0 0 0 0 1 1 0 0 0 0 0 12 22 26 28 29 23 24 24 19 10 9 3 0 0 0 0 0 0 0 0 0 0 0 0 0 0 0 0 0 0 0 0 0 0 0 0 0 0 0 0 0 0 0 5 4 9 11 17 16 20 18 20 24 21 15 10 0 0 0 0 0 0 0 0 0 2 0 5 0 0 0 0 0 0 0 0 0 0 0 0 0 0 0 1 7 2 0 0 0 0 0 1 15 16 23 25 23 18 22 25 16 6 0 0 0 0 0 0 0 0 0 0 0 0 0 0 0 0 0 0 0 0 0 0 0 0 0 0 0 0 0 0 0 0 0 8 10 10 14 17 15 18 20 21 24 23 18 12 3 0 0 0 0 0 0 0 1 7 2 3 2 1 1 0 0 0 0 0 3 0 1 5 10 13 20 22 23 12 0 5 0 1 1 5 16 13 24 21 19 16 20 25 16 5 0 0 0 0 0 0 0 0 0 0 0 0 0 0 0 0 0 0 0 0 0 0 0 0 0 0 0 0 0 0 0 0 4 7 15 13 14 12 16 15 13 20 21 24 18 14 9 0 0 0 3 0 0 3 9 6 9 9 9 8 6 2 2 0 1 6 9 5 7 13 18 24 30 30 27 24 13 12 5 5 10 8 18 15 19 18 16 17 21 28 15 0 0 0 0 0 0 0 0 0 0 0 0 0 0 0 0 0 0 0 0 0 0 0 0 0 0 0 0 0 0 0 0 0 5 8 10 11 12 10 10 8 6 9 12 19 16 10 7 0 0 5 7 8 0 1 9 8 8 3 9 10 8 6 9 2 6 8 5 3 8 18 24 25 26 27 28 29 30 22 15 20 12 11 16 19 18 11 13 18 20 23 15 0 0 0 0 0 0 0 0 0 0 0 0 0 0 0 0 0 0 0 0 0 0 0 0 0 0 0 0 0 0 0 0 0 4 7 10 8 10 6 9 9 8 9 13 13 16 8 7 5 0 6 8 13 4 4 1 0 0 0 0 0 3 0 7 2 5 11 9 10 13 14 18 22 26 29 31 35 37 32 31 32 22 14 21 22 22 9 14 18 20 17 13 0 0 0 0 0 0 0 0 0 0 0 0 0 0 0 0 0 0 0 0 0 0 0 0 0 0 0 0 0 0 0 0 0 5 11 12 8 12 7 9 14 11 13 17 15 19 16 16 15 13 9 10 13 10 9 9 3 2 0 0 0 0 0 2 4 6 10 11 13 14 14 19 23 31 34 37 37 41 34 37 35 29 19 20 23 21 14 20 15 22 16 13 0 0 0 0 0 0 0 0 0 0 0 0 0 0 0 0 0 0 0 0 0 0 0 0 0 0 0 0 0 0 0 0 0 6 15 16 14 15 11 12 15 16 17 19 18 20 21 23 25 27 22 21 19 19 18 22 15 15 11 12 16 9 3 4 8 9 10 11 15 18 21 28 31 36 35 36 41 38 35 42 38 35 23 18 21 17 18 23 21 22 16 8 0 0 0 0 0 0 0 0 0 0 0 0 0 0 0 0 0 0 0 0 0 0 0 0 0 0 0 0 0 0 0 0 0 10 14 16 16 21 15 18 18 22 21 18 23 20 24 26 28 33 35 33 30 28 29 27 24 21 20 17 25 19 10 8 9 12 14 16 17 21 25 32 35 39 35 36 41 41 39 40 40 36 28 18 16 13 14 20 25 21 13 1 0 0 0 0 0 0 0 0 0 0 0 0 0 0 0 0 0 0 0 0 0 0 0 0 0 0 0 0 0 0 0 0 0 21 18 17 17 20 18 21 21 26 24 23 26 28 28 27 30 34 36 37 35 32 34 34 31 27 23 25 21 14 9 7 6 9 9 15 17 21 22 27 28 33 37 36 39 40 40 34 35 30 25 19 13 11 17 19 27 20 11 0 0 0 0 0 0 0 0 0 0 0 0 0 0 0 0 0 0 0 0 0 0 0 0 0 0 0 0 0 0 0 0 0 0 28 23 18 17 14 19 20 19 27 23 21 23 26 27 25 27 28 34 37 37 32 30 28 27 25 24 20 18 13 8 5 5 4 5 10 6 15 12 13 16 24 31 32 33 35 32 30 34 30 26 19 15 14 19 20 24 15 6 0 0 0 0 0 0 0 0 0 0 0 0 0 0 0 0 0 0 0 0 0 0 0 0 0 0 0 0 0 0 0 0 0 0 32 33 22 18 12 14 15 15 18 17 16 15 19 18 19 20 23 27 31 30 29 27 24 20 18 15 10 6 7 4 3 5 5 7 9 9 14 12 15 21 25 28 31 33 34 33 35 35 29 23 18 14 17 19 21 19 10 3 0 0 0 0 0 0 0 0 0 0 0 0 0 0 0 0 0 0 0 0 0 0 0 0 0 0 0 0 0 0 0 0 0 0 32 40 31 19 18 13 15 14 14 14 12 13 14 13 10 10 22 23 27 31 31 29 26 26 24 20 14 13 10 11 8 5 4 7 9 9 15 19 20 25 26 26 32 32 34 35 38 32 24 20 15 12 19 15 22 16 3 7 0 0 0 0 0 0 0 0 0 0 0 0 0 0 0 0 0 0 0 0 0 0 0 0 0 0 0 0 0 0 0 1 0 0 30 41 37 20 15 15 14 12 15 15 9 9 14 14 10 12 24 26 30 29 32 32 30 29 28 24 23 18 14 15 15 13 12 13 14 14 19 23 26 30 29 32 33 33 31 34 31 32 23 19 14 15 15 12 18 14 1 11 0 2 0 0 0 0 0 0 0 0 0 0 0 0 0 0 0 0 0 0 0 0 0 0 0 0 0 0 0 0 0 0 0 0 34 43 45 27 20 14 16 14 11 13 9 7 15 10 8 11 20 26 32 33 34 36 34 33 31 30 27 23 20 19 20 19 21 23 21 24 26 30 33 33 33 34 38 32 34 34 28 28 25 20 11 16 16 12 18 8 7 10 1 7 0 0 3 0 0 0 0 0 0 0 0 0 0 0 0 0 0 0 0 0 0 0 0 0 0 0 0 0 0 0 0 0 29 44 48 35 26 16 11 15 11 14 13 10 13 14 9 11 17 26 31 36 38 37 38 38 37 38 34 29 26 27 24 22 25 27 23 27 31 31 36 35 38 33 38 32 36 32 30 27 24 17 13 15 15 15 18 6 14 9 11 7 0 0 2 0 0 0 0 0 0 0 0 0 0 0 0 0 0 0 0 0 0 0 0 0 0 0 0 0 1 0 0 0 26 51 54 43 31 20 9 11 12 10 7 10 11 11 14 16 16 23 27 37 39 38 40 41 40 42 36 36 36 35 31 30 30 31 31 28 31 30 35 34 37 34 32 28 27 26 23 21 16 13 13 17 15 16 13 6 20 13 19 6 0 0 1 0 0 0 0 0 0 0 0 0 0 0 0 0 0 0 0 0 0 0 0 0 0 0 0 0 0 0 1 10 30 51 57 48 38 28 13 11 6 12 10 9 9 12 13 17 12 17 23 30 35 32 36 36 37 38 37 39 38 35 36 33 36 33 35 31 31 32 33 33 37 38 33 29 25 27 22 17 15 14 14 15 16 18 9 13 20 17 25 4 0 1 0 0 0 0 0 0 0 0 0 0 0 0 0 0 0 0 0 0 0 0 0 0 0 0 0 0 0 4 6 12 31 48 55 50 42 36 17 9 10 7 8 7 3 13 11 11 14 15 20 26 35 32 33 29 34 34 31 35 35 27 30 30 31 31 36 31 32 32 30 34 33 36 31 28 21 23 18 14 14 12 14 14 14 13 12 16 24 22 24 4 0 6 0 0 0 0 0 0 0 0 0 0 0 0 0 0 0 0 0 0 0 0 0 0 0 0 0 0 3 8 12 6 21 51 55 58 47 42 27 13 11 5 8 6 5 8 12 4 6 10 14 22 30 32 29 31 31 29 29 33 30 29 29 30 32 30 36 34 31 33 28 31 32 29 29 24 23 18 17 12 11 10 11 14 11 20 16 20 27 25 21 0 4 14 0 0 0 0 0 0 0 0 0 0 0 0 0 0 0 0 0 0 0 0 0 0 0 0 0 0 8 8 6 1 15 54 58 57 54 45 38 19 10 10 8 6 6 6 10 0 6 8 9 18 22 30 28 31 29 24 26 28 28 28 27 29 27 30 28 31 29 28 27 26 30 25 24 24 18 14 13 11 10 6 11 11 11 21 18 21 30 30 21 0 8 17 4 0 0 0 0 0 0 0 0 0 0 0 0 0 0 0 0 0 0 0 0 0 0 0 0 0 11 9 1 0 8 54 59 60 57 45 39 30 16 8 9 9 9 6 9 4 2 6 7 9 13 23 25 25 20 21 23 25 25 24 24 22 21 23 23 24 24 24 20 24 27 21 16 18 17 10 11 9 7 8 11 6 18 26 15 30 33 27 16 0 6 15 12 0 0 0 0 0 0 0 0 0 0 0 0 0 0 0 0 0 0 0 0 0 0 0 0 0 8 14 0 0 6 49 57 64 58 49 40 39 26 13 6 11 9 5 5 5 0 4 3 3 13 12 21 20 16 19 20 18 22 19 19 17 16 17 18 17 18 17 15 18 16 17 11 13 10 10 12 11 3 6 10 9 20 25 22 38 35 24 17 0 0 11 14 0 0 0 0 0 0 0 0 0 0 0 0 0 0 0 0 0 0 0 0 0 0 0 0 0 8 13 0 0 7 46 55 65 60 58 43 44 36 23 13 8 9 6 7 4 1 1 1 0 9 9 15 15 16 18 19 12 17 17 15 13 9 14 10 12 13 12 14 13 9 14 9 11 6 9 9 8 6 7 9 17 23 26 29 41 30 25 15 0 0 3 11 3 0 0 0 0 0 0 0 0 0 0 0 0 0 0 0 0 0 0 0 0 0 0 0 0 7 6 12 11 1 45 54 63 63 61 51 44 42 34 22 18 10 1 6 4 2 2 0 0 1 7 9 12 13 15 14 12 11 11 11 11 5 9 7 9 9 10 10 5 3 8 4 7 7 8 5 6 7 11 13 21 24 34 36 41 29 26 15 0 0 0 8 1 0 0 0 0 0 0 0 0 0 0 0 0 0 0 0 0 0 0 0 0 0 0 0 0 2 18 25 11 6 41 51 62 65 63 61 50 45 40 32 25 15 6 7 5 4 2 2 0 0 3 3 8 9 15 11 12 9 13 6 8 7 5 5 10 6 7 7 4 2 4 0 4 5 6 5 8 9 11 18 21 34 40 42 38 30 37 18 0 0 0 3 9 0 0 0 0 0 0 0 0 0 0 0 0 0 0 0 0 0 0 0 0 0 0 0 0 7 34 22 10 13 48 39 57 64 65 62 60 48 44 43 34 23 16 7 6 8 9 5 4 0 0 0 3 9 14 9 15 10 12 9 9 10 10 7 9 6 5 3 5 2 3 0 3 2 6 7 9 11 16 20 30 43 44 42 35 28 46 26 0 0 0 0 6 5 0 0 0 0 0 0 0 0 0 0 0 0 0 0 0 0 0 0 0 0 0 0 0 18 40 10 12 23 50 43 48 59 62 63 62 57 48 47 44 34 27 17 11 8 8 7 6 5 1 0 4 8 10 7 15 12 8 9 8 6 10 7 3 6 2 7 6 1 1 4 2 5 7 10 12 15 21 26 39 51 46 39 36 19 34 26 0 0 2 0 0 11 0 0 0 0 0 0 0 0 0 0 0 0 0 0 0 0 0 0 0 0 0 0 0 22 38 2 22 33 42 48 47 52 56 64 61 58 53 49 49 39 37 31 20 15 11 9 10 8 8 8 6 3 3 10 11 12 8 12 8 9 8 11 8 6 6 7 4 5 4 6 5 9 10 13 20 21 27 38 47 52 44 40 34 22 24 21 7 9 14 0 0 8 1 0 0 0 0 0 0 0 0 0 0 0 0 0 0 0 0 0 0 0 0 0 0 23 30 19 30 35 36 48 43 52 55 56 60 59 58 56 50 47 47 43 31 27 21 15 11 11 12 13 15 10 7 9 12 13 14 11 13 13 9 11 9 12 10 7 5 10 8 8 8 10 13 15 23 27 39 47 49 52 43 40 30 23 21 0 18 17 26 8 0 6 5 0 0 0 0 0 0 0 0 0 0 0 0 0 0 0 0 0 0 0 0 0 0 26 33 40 34 30 32 42 47 42 54 59 55 56 59 60 56 52 51 53 44 36 34 28 20 17 14 13 15 17 17 19 17 14 17 14 16 19 18 16 16 14 15 16 10 13 11 12 12 13 19 25 30 40 47 49 49 50 49 44 28 26 9 0 14 11 28 18 0 0 4 0 0 0 0 0 0 0 0 0 0 0 0 0 0 0 0 0 0 0 0 0 0 26 36 40 42 28 33 34 43 45 42 54 56 59 59 60 61 60 53 57 54 46 42 39 40 29 27 22 21 19 17 22 22 19 23 20 18 21 23 22 18 18 22 18 14 15 15 19 16 22 23 32 39 46 48 49 50 52 45 59 43 21 0 0 11 10 16 21 6 0 0 0 0 0 0 0 0 0 0 0 0 0 0 0 0 0 0 0 0 0 0 0 0 25 37 43 48 33 26 29 29 48 42 40 52 56 60 62 60 60 57 56 51 53 48 43 42 43 41 35 37 33 27 26 24 25 24 23 24 23 21 25 21 27 23 21 17 19 20 23 26 31 34 42 43 48 47 50 51 48 38 54 54 22 0 0 3 13 9 13 17 11 0 0 0 0 0 0 0 0 0 0 0 0 0 0 0 0 0 0 0 0 0 0 0 29 38 49 44 38 21 27 22 36 47 40 43 51 57 58 62 64 62 62 58 55 54 53 49 51 52 49 47 47 46 39 33 29 30 25 26 27 25 27 25 26 24 22 23 23 25 28 31 39 40 43 44 46 49 51 49 46 46 55 38 8 8 0 10 8 23 8 26 32 0 0 0 0 0 0 0 0 0 0 0 0 