P2
92
112
255
0 0 0 0 0 0 0 0 0 0 0 0 0 0 0 0 0 0 0 0 0 0 0 0 0 0 0 0 0 0 0 0 0 0 0 0 0 0 0 0 0 0 0 0 0 0 0 0 0 0 0 0 0 0 0 0 0 0 0 0 0 0 0 0 0 0 0 0 0 0 0 0 0 0 0 0 0 0 0 0 0 0 0 0 0 0 0 0 0 0 0 0 0 0 0 0 0 0 0 0 0 0 0 0 0 0 0 0 0 0 0 0 0 0 0 0 0 0 0 0 0 0 0 0 0 0 0 0 0 0 0 0 0 0 0 0 0 0 0 0 0 0 0 0 0 0 0 0 0 0 0 0 0 0 0 0 0 0 0 0 0 0 0 0 0 0 0 0 0 0 0 0 0 0 0 0 0 0 0 0 0 0 0 0 0 0 0 0 0 0 0 0 0 0 0 0 0 0 0 0 0 0 0 0 0 0 0 0 0 0 0 0 0 0 0 0 0 0 0 0 0 0 0 0 0 0 0 0 0 0 0 0 0 0 0 0 0 0 0 0 0 0 0 0 0 0 0 0 0 0 0 0 0 0 0 0 0 0 0 0 0 0 0 0 0 0 0 0 0 0 0 0 0 0 0 0 0 0 0 0 0 0 0 0 0 0 0 0 0 0 0 0 0 0 0 0 0 0 0 0 0 0 0 0 0 0 0 0 0 0 0 0 0 0 0 0 0 0 0 0 0 0 0 0 0 0 0 0 0 0 0 0 0 0 0 0 0 0 0 0 0 0 0 0 0 0 0 0 0 0 0 0 0 0 0 0 0 0 0 0 0 0 0 0 0 0 0 0 0 0 0 0 0 0 0 0 0 0 0 0 0 0 0 0 0 0 0 0 0 0 0 0 0 0 0 0 0 0 0 0 0 0 0 0 0 0 0 0 0 0 0 0 0 0 0 0 0 0 0 0 0 0 0 0 0 0 0 0 0 0 0 0 0 0 0 0 0 0 0 0 0 0 0 0 0 0 0 0 0 0 0 0 0 0 0 0 0 0 0 0 0 0 0 0 0 0 0 0 0 0 0 0 0 0 0 0 0 0 0 0 0 0 0 0 0 0 0 0 0 0 0 0 0 0 0 0 0 0 0 0 0 0 0 0 0 0 0 0 0 0 0 0 0 0 0 0 0 0 0 0 0 0 0 0 0 0 0 0 0 0 0 0 0 0 0 0 0 0 0 0 0 0 0 0 0 0 0 0 0 0 0 0 0 0 0 0 0 0 0 0 0 0 0 0 0 0 0 0 0 0 0 0 0 0 0 0 0 0 0 0 0 0 0 0 0 0 0 0 0 0 0 0 0 0 0 0 0 0 0 0 0 0 0 0 0 0 0 0 0 0 0 0 0 0 0 0 0 0 0 0 0 0 0 0 0 0 0 0 0 0 0 0 0 0 0 0 0 0 0 0 0 0 0 0 0 0 0 0 0 0 0 0 0 0 0 0 0 0 0 0 0 0 0 0 0 0 0 0 0 0 0 0 0 0 0 0 0 0 0 0 0 0 0 0 0 0 0 0 0 0 0 0 0 0 0 0 0 0 0 0 0 0 0 0 0 0 0 0 0 0 0 0 0 0 0 0 0 0 0 0 0 0 0 0 0 0 0 0 0 0 0 0 0 0 0 0 0 0 0 0 0 0 0 0 0 0 0 0 0 0 0 0 0 0 0 0 0 0 0 0 0 0 0 0 0 0 0 0 0 0 0 0 0 0 0 0 0 0 0 0 0 0 0 0 0 0 0 0 0 0 0 0 0 0 0 0 0 0 0 0 0 0 0 0 0 0 0 0 0 0 0 0 0 0 0 0 0 0 0 0 0 0 0 0 0 0 0 0 0 0 0 0 0 0 0 0 0 0 0 0 0 0 0 0 0 0 0 0 0 0 0 0 0 0 0 0 0 0 0 0 0 0 0 0 0 0 0 0 0 0 0 0 0 0 0 0 0 0 0 0 0 0 0 0 0 0 0 0 0 0 0 0 0 0 0 0 0 0 0 0 0 0 0 0 0 0 0 0 0 0 0 0 0 0 0 0 0 0 0 0 0 0 0 0 0 0 0 0 0 0 0 0 0 0 0 0 0 0 0 0 0 0 0 0 0 0 0 0 0 0 0 0 0 0 0 0 0 0 0 0 0 0 0 0 0 0 0 0 0 0 0 0 0 0 0 0 0 0 0 0 0 0 0 0 0 0 0 0 0 0 0 0 0 0 0 0 0 0 0 0 0 0 0 0 0 0 0 0 0 0 0 0 0 0 0 0 0 0 0 0 0 0 0 0 0 0 0 0 0 0 0 0 0 0 0 0 0 0 0 0 0 0 0 0 0 0 0 0 0 0 0 0 0 0 0 0 0 0 0 0 0 0 0 0 0 0 0 0 0 0 0 0 0 0 0 0 0 0 0 0 0 0 0 0 0 0 0 0 0 0 0 0 0 0 0 0 0 0 0 0 0 0 0 0 0 0 0 0 0 0 0 0 0 0 0 0 0 0 0 0 0 0 0 0 0 0 0 0 0 0 0 0 0 0 0 0 0 0 0 0 0 0 0 0 0 0 0 0 0 0 0 0 0 0 0 0 0 0 0 0 0 0 0 0 0 0 0 0 0 0 0 0 0 0 0 0 0 0 0 0 0 0 0 0 0 0 0 0 0 0 0 0 0 0 0 0 0 0 0 0 0 0 0 0 0 0 0 0 0 0 0 0 0 0 0 0 0 0 0 0 0 0 0 0 0 0 0 0 0 0 0 0 0 0 0 0 0 0 0 0 0 0 0 0 0 0 0 0 0 0 0 0 0 0 0 0 0 0 0 0 0 0 0 0 0 0 0 0 0 0 0 0 0 0 0 2 0 2 0 0 0 0 0 0 0 0 0 0 0 0 0 0 0 0 0 0 0 0 0 0 0 0 0 0 0 0 0 0 0 0 0 0 0 0 0 0 0 0 0 0 0 0 0 0 0 0 0 0 0 0 0 0 0 0 0 0 0 0 0 0 0 0 0 0 0 0 0 0 0 0 0 0 0 0 0 0 0 0 0 0 0 0 0 0 0 0 0 0 1 4 0 0 0 0 0 0 0 0 0 0 0 0 0 0 0 0 0 0 0 0 0 0 0 0 0 0 0 0 0 0 0 0 0 0 0 0 0 0 0 0 0 0 0 0 0 0 0 0 0 0 0 0 0 0 0 0 0 0 0 0 0 0 0 0 0 0 0 0 0 0 0 0 0 0 0 0 0 0 0 0 0 0 0 0 0 0 0 0 2 2 2 5 0 1 0 0 0 0 0 0 0 0 0 0 0 0 0 0 0 0 0 0 0 0 0 0 0 0 0 0 0 0 0 0 0 0 0 0 0 0 0 0 0 0 0 0 0 0 0 0 0 0 0 0 0 0 0 0 0 0 0 0 0 0 0 0 0 0 0 0 0 0 0 0 0 0 0 0 0 0 0 0 0 2 2 1 0 0 0 0 0 0 1 0 1 3 0 0 0 0 0 0 0 0 0 0 0 0 0 0 0 0 0 0 0 0 0 0 0 0 0 0 0 0 0 0 0 0 0 0 0 0 0 0 0 0 0 0 0 0 0 0 0 0 0 0 0 0 0 0 0 0 0 0 0 0 0 0 0 0 0 0 0 0 0 0 0 0 0 0 0 0 0 0 2 4 9 6 6 1 2 2 1 1 0 2 5 2 0 0 0 0 0 0 0 0 0 0 0 0 0 0 0 0 0 0 0 0 0 0 0 0 0 0 0 0 0 0 0 0 0 0 0 0 0 0 0 0 0 0 0 0 0 0 0 0 0 0 0 0 0 0 0 0 0 0 0 0 0 0 0 0 0 0 0 0 0 0 0 0 0 0 0 0 0 0 0 0 0 5 5 6 2 2 0 0 0 3 2 0 0 0 0 0 0 0 0 0 0 0 0 0 0 0 0 0 0 0 0 0 0 0 0 0 0 0 0 0 0 0 0 0 0 0 0 0 0 0 0 0 0 0 0 0 0 0 0 0 0 0 0 0 0 0 0 0 0 0 0 0 0 0 0 0 0 0 0 0 0 0 0 0 0 0 0 2 0 2 2 6 6 1 8 9 7 1 1 0 0 2 0 3 0 0 0 0 0 0 0 0 0 0 0 0 0 0 0 0 0 0 0 0 0 0 0 0 0 0 0 0 0 0 0 0 0 0 0 0 0 0 0 0 0 0 0 0 0 0 0 0 0 0 0 0 0 0 0 0 0 0 0 0 0 0 0 0 0 0 0 0 0 0 0 0 0 0 0 7 8 6 8 7 6 5 7 9 14 7 4 0 1 0 0 1 0 0 0 0 0 0 0 0 0 0 0 0 0 0 0 0 0 0 0 0 0 0 0 0 0 0 0 0 0 0 0 0 0 0 0 0 0 0 0 0 0 0 0 0 0 0 0 0 0 0 0 0 0 0 0 0 0 0 0 0 0 0 0 0 0 0 0 0 0 0 4 1 0 1 0 6 10 8 7 6 4 1 4 7 12 9 5 0 0 0 0 0 0 0 0 0 0 0 0 0 0 0 0 0 0 0 0 0 0 0 0 0 0 0 0 0 0 0 0 0 0 0 0 0 0 0 0 0 0 0 0 0 0 0 0 0 0 0 0 0 0 0 0 0 0 0 0 0 0 0 0 0 0 0 0 0 0 0 0 0 0 0 2 2 3 5 2 4 6 9 8 7 5 6 4 6 8 11 3 0 1 0 0 0 0 0 0 0 0 0 0 0 0 0 0 0 0 0 0 0 0 0 0 0 0 0 0 0 0 0 0 0 0 0 0 0 0 0 0 0 0 0 0 0 0 0 0 0 0 0 0 0 0 0 0 0 0 0 0 0 0 0 0 0 0 0 3 1 0 0 0 0 0 1 5 8 10 9 8 6 8 9 10 9 5 7 9 10 10 8 6 3 2 1 0 0 0 0 0 0 0 0 0 0 0 0 0 0 0 0 0 0 0 0 0 0 0 0 0 0 0 0 0 0 0 0 0 0 0 0 0 0 0 0 0 0 0 0 0 0 0 0 0 0 0 0 0 0 0 0 0 0 0 0 0 0 3 2 7 8 8 5 2 0 5 5 5 10 11 10 12 9 7 10 14 12 12 10 10 14 12 11 7 6 3 1 0 0 0 0 0 0 0 0 0 0 0 0 0 0 0 0 0 0 0 0 0 0 0 0 0 0 0 0 0 0 0 0 0 0 0 0 0 0 0 0 0 0 0 0 0 0 0 0 0 0 0 0 0 0 0 0 0 0 0 0 0 0 3 10 10 14 14 13 8 13 14 12 9 13 12 13 14 13 13 10 13 16 15 14 9 8 17 13 7 5 5 6 0 0 1 0 0 0 0 0 0 0 0 0 0 0 0 0 0 0 0 0 0 0 0 0 0 0 0 0 0 0 0 0 0 0 0 0 0 0 0 0 0 0 0 0 0 0 0 0 0 0 0 0 0 0 0 0 0 0 0 0 0 0 5 8 14 14 16 13 15 19 18 16 17 18 20 17 16 17 17 15 13 18 15 16 11 13 14 16 9 2 7 10 0 0 0 0 0 0 0 0 0 0 0 0 0 0 0 0 0 0 0 0 0 0 0 0 0 0 0 0 0 0 0 0 0 0 0 0 0 0 0 0 0 0 0 0 0 0 0 0 0 0 0 0 0 0 0 0 0 0 3 6 3 2 6 8 13 15 16 14 19 21 18 19 22 23 23 24 21 20 20 16 15 18 18 17 14 14 14 14 17 8 6 10 3 0 0 0 0 0 0 0 0 0 0 0 0 0 0 0 0 0 0 0 0 0 0 0 0 0 0 0 0 0 0 0 0 0 0 0 0 0 0 0 0 0 0 0 0 0 0 0 0 0 0 0 0 0 0 0 0 2 4 2 2 2 4 8 11 15 16 19 20 20 21 24 24 24 25 25 23 24 25 22 20 20 19 17 15 11 10 13 15 9 6 9 5 0 0 0 0 0 0 0 0 0 0 0 0 0 0 0 0 0 0 0 0 0 0 0 0 0 0 0 0 0 0 0 0 0 0 0 0 0 0 0 0 0 0 0 0 0 0 0 0 0 0 0 0 0 0 0 0 3 4 2 3 4 7 10 11 16 18 21 21 21 24 26 27 25 24 24 26 27 28 26 25 23 19 19 14 13 13 14 13 12 8 7 5 0 0 0 0 0 0 0 0 0 0 0 0 0 0 0 0 0 0 0 0 0 0 0 0 0 0 0 0 0 0 0 0 0 0 0 0 0 0 2 1 0 0 0 0 0 0 0 0 0 0 0 0 0 0 1 1 3 4 4 7 9 11 11 12 16 18 20 22 23 26 26 27 28 28 24 28 30 30 31 27 25 20 19 17 12 11 13 12 10 10 9 2 0 0 0 0 0 0 0 0 0 0 0 0 0 0 0 0 0 0 0 0 0 0 0 0 0 0 0 0 0 0 0 0 0 0 0 1 0 3 2 1 2 2 4 1 3 3 0 0 0 0 0 1 1 2 1 3 5 6 7 9 12 13 13 15 16 20 20 24 26 26 27 29 29 30 28 30 31 32 33 29 25 23 21 18 11 14 15 14 9 7 11 9 0 0 0 0 0 0 0 0 0 0 0 0 0 0 0 0 0 0 0 0 0 0 0 0 0 0 1 0 0 0 0 0 0 1 3 3 4 6 4 3 6 6 7 6 5 3 2 4 3 4 4 5 4 4 5 7 8 9 10 12 13 14 15 18 19 24 24 27 29 29 31 34 33 35 36 35 34 35 34 32 29 27 25 19 15 12 18 16 9 8 14 8 0 0 0 0 0 0 0 0 0 0 0 0 0 0 0 0 0 0 0 0 0 0 1 3 1 2 1 0 0 0 0 0 0 1 4 6 5 7 9 8 8 9 9 9 7 6 7 7 9 9 8 9 8 9 10 10 11 11 11 14 14 19 21 25 25 27 30 32 35 35 37 38 39 38 40 41 38 39 36 35 30 29 26 25 17 14 18 17 14 7 15 12 5 0 0 0 0 0 0 0 0 0 0 0 0 0 0 0 0 0 0 0 0 0 3 4 4 4 3 0 1 0 0 0 4 5 5 6 9 10 11 12 13 15 13 12 13 11 12 12 12 10 10 11 12 13 13 13 14 15 17 18 20 24 27 31 33 35 36 38 41 41 41 42 40 41 41 44 43 42 40 36 31 30 27 26 20 15 16 15 13 11 14 16 7 0 0 0 0 0 0 0 0 0 0 0 0 0 0 0 0 0 0 0 0 0 4 5 6 5 3 2 4 2 3 5 7 8 8 10 13 14 15 16 19 19 18 16 15 16 17 16 16 17 17 16 17 18 18 20 22 23 25 26 29 32 34 35 37 39 40 43 43 45 42 42 43 44 43 44 46 44 41 39 34 31 30 26 25 20 16 15 8 14 13 14 9 0 0 0 0 0 0 0 0 0 0 0 0 0 0 0 0 0 0 0 0 1 6 6 8 6 4 4 5 6 7 9 10 11 13 13 15 16 20 20 21 22 22 22 21 19 20 21 22 22 24 23 25 26 25 28 28 29 31 31 32 36 36 37 39 40 42 44 46 45 44 44 45 46 47 46 46 46 42 40 37 33 33 27 25 24 20 18 11 11 16 18 12 2 0 0 0 0 0 0 0 0 0 0 0 0 0 0 0 0 0 0 0 2 7 8 9 8 5 5 5 9 9 10 12 13 15 16 18 19 22 24 24 25 26 26 27 26 24 24 25 27 27 28 28 29 29 31 32 31 33 34 35 38 37 40 42 44 46 47 47 46 47 46 46 46 48 48 49 46 44 40 38 34 33 27 27 24 23 21 15 5 12 19 20 0 0 0 0 0 0 0 0 0 0 0 0 0 0 0 0 0 0 0 0 6 8 11 9 7 7 5 8 9 10 12 11 14 13 15 18 19 20 23 25 26 27 26 27 26 28 28 27 27 28 31 31 31 31 32 32 32 34 37 38 39 42 44 44 46 46 44 46 47 47 45 44 45 46 48 47 44 42 39 36 30 30 24 21 20 20 24 15 5 6 15 20 8 0 0 0 0 0 0 0 0 0 0 0 0 0 0 0 0 0 0 0 7 9 12 9 8 6 3 3 4 6 8 10 15 13 14 14 11 16 18 16 19 21 25 24 24 26 28 28 29 28 30 32 33 34 34 34 34 38 39 40 42 44 47 47 49 47 49 48 49 50 47 46 44 49 49 48 46 43 41 34 32 29 27 21 20 21 22 19 8 5 10 20 9 0 0 0 0 0 0 0 0 0 0 0 0 0 0 0 0 0 0 3 9 10 12 9 6 2 1 3 5 10 14 14 17 15 19 17 16 20 26 26 27 27 26 26 27 28 28 27 28 27 30 31 34 35 34 36 37 39 39 42 42 44 46 45 44 44 46 46 49 48 48 43 36 42 41 42 41 39 37 37 32 37 37 31 22 23 25 23 17 8 7 14 11 0 0 0 0 0 0 0 0 0 0 0 0 0 0 0 0 0 0 8 12 11 11 7 4 3 3 3 2 5 9 14 17 15 17 13 12 12 12 11 16 13 13 15 13 15 16 21 19 20 20 22 27 30 32 33 35 37 37 40 41 40 42 40 38 36 35 34 37 42 42 39 31 33 31 33 32 31 30 24 22 23 26 26 19 10 15 21 17 11 10 12 16 0 0 0 0 0 0 0 0 0 0 0 0 0 0 0 0 0 2 11 15 15 11 8 7 3 2 2 2 3 4 8 11 11 15 15 15 13 15 18 19 15 13 14 16 17 18 21 20 20 19 18 18 23 27 30 31 35 35 38 39 43 47 43 42 40 43 40 42 45 43 45 37 31 33 34 35 33 34 32 23 22 26 25 22 15 11 17 11 4 16 13 8 8 0 0 0 0 0 0 0 0 0 0 0 0 0 0 0 0 6 15 20 16 13 10 8 2 3 3 6 10 14 20 24 25 28 27 27 27 25 26 29 22 22 20 19 17 19 21 19 21 16 16 14 15 23 31 33 36 37 36 37 35 41 41 36 34 42 44 43 46 46 44 37 31 34 33 35 32 34 34 34 32 34 34 29 28 19 19 18 13 15 17 0 2 0 0 0 0 0 0 0 0 0 0 0 0 0 0 0 0 8 20 22 16 13 10 5 2 4 6 11 14 15 19 19 20 22 23 23 23 23 24 24 23 22 21 21 18 19 17 18 17 14 15 12 14 19 28 31 32 33 32 35 37 33 36 35 35 36 43 40 40 41 38 37 34 34 34 35 34 33 33 35 32 32 32 33 31 23 15 15 21 10 26 0 0 0 0 0 0 0 0 0 0 0 0 0 0 0 0 0 0 15 23 21 16 12 9 2 2 3 5 7 7 10 12 15 17 18 19 21 23 22 23 25 25 25 23 21 18 17 15 16 13 12 13 12 14 17 18 26 30 39 37 38 45 44 39 37 33 35 35 32 31 29 26 27 21 17 17 20 24 21 24 25 29 29 30 29 30 28 21 19 22 13 21 0 0 0 6 0 0 0 0 0 0 0 0 0 0 0 0 0 0 21 26 20 24 12 6 4 1 1 2 1 4 8 10 12 14 13 15 20 22 26 26 26 25 25 25 21 21 18 14 13 10 9 11 13 13 15 19 14 26 27 39 31 31 24 30 29 24 24 23 21 34 19 14 13 5 5 4 4 3 6 10 14 20 22 24 25 27 30 25 21 25 19 19 4 0 0 10 0 0 0 0 0 0 0 0 0 0 0 0 0 0 16 22 27 20 9 5 4 0 0 0 0 1 2 2 4 10 10 9 11 14 17 19 20 20 19 20 18 15 16 13 13 12 7 6 3 5 6 7 13 20 23 33 33 31 25 13 18 26 17 22 18 19 20 16 7 7 5 1 5 7 8 9 13 12 19 17 17 25 33 29 24 24 28 24 4 0 0 0 5 10 4 0 0 0 0 0 0 0 0 0 0 2 10 6 17 12 9 5 0 0 0 0 0 0 1 0 0 5 4 6 4 5 8 8 11 10 12 18 10 8 8 9 6 7 2 1 0 1 1 14 10 25 24 36 33 26 23 15 14 12 8 19 16 17 13 12 0 0 0 0 3 7 11 7 12 14 17 18 13 20 23 25 28 27 28 21 1 0 0 0 3 30 24 17 0 0 0 0 0 0 0 0 0 2 10 6 11 7 0 11 0 0 0 0 0 0 0 0 0 0 0 0 0 0 6 0 0 0 4 4 7 5 3 4 1 0 0 0 0 0 0 3 8 14 17 22 25 29 21 6 0 9 10 18 15 13 17 18 15 1 5 8 12 3 7 4 8 11 9 13 11 14 24 35 36 31 28 22 5 7 9 18 23 27 41 22 0 0 0 0 0 0 0 0 0 0 12 7 17 7 0 1 0 0 0 0 0 0 0 0 0 0 9 6 6 0 0 0 3 0 0 0 0 0 0 0 2 3 0 0 0 1 0 5 7 13 22 25 28 35 35 18 6 13 20 25 23 24 25 25 29 21 2 13 5 13 3 11 10 9 10 11 16 23 36 42 43 35 32 34 10 12 13 38 46 37 49 32 0 10 12 2 0 0 0 0 0 1 7 0 10 0 0 0 0 0 0 0 0 0 0 0 0 0 0 0 0 0 0 0 0 0 0 2 6 0 0 0 1 1 2 3 0 1 0 8 6 18 26 28 30 33 37 22 0 3 11 23 19 18 25 26 24 23 12 18 11 10 0 3 10 20 12 8 11 19 30 32 43 38 45 42 15 18 15 49 51 45 57 42 0 11 0 2 0 0 0 0 0 5 13 7 11 0 5 7 0 0 0 0 0 0 0 0 0 0 0 0 2 0 0 0 0 1 0 0 2 3 1 14 22 17 20 12 14 5 9 8 16 22 26 27 30 26 22 10 0 0 1 15 7 6 3 9 12 16 15 0 5 0 2 0 8 11 7 7 17 6 21 32 45 46 47 41 27 23 23 54 47 48 57 38 0 7 3 0 0 0 0 0 0 7 10 5 16 1 4 8 0 0 0 0 0 0 0 0 0 0 0 1 1 4 0 0 0 0 0 2 1 3 9 24 20 26 33 28 23 11 4 7 10 16 23 16 11 10 12 2 0 0 0 0 0 1 4 5 10 8 13 1 9 8 10 1 2 9 11 22 33 19 32 53 56 50 44 45 31 27 31 53 66 43 65 30 2 16 0 2 8 0 0 0 0 9 9 5 13 2 9 15 0 0 0 0 0 0 0 0 0 0 0 4 0 0 0 0 0 0 0 0 0 0 1 4 8 28 17 18 15 10 7 8 5 12 17 7 7 5 11 0 0 0 0 0 0 0 4 0 7 0 10 8 11 14 17 1 16 20 19 34 43 40 45 58 66 56 51 52 40 37 44 52 81 47 65 29 12 13 16 10 1 0 0 0 0 12 7 0 4 0 1 10 0 0 0 0 0 0 0 0 0 0 0 0 0 0 0 0 0 0 0 0 0 0 9 0 0 15 16 14 21 12 9 0 5 12 20 9 11 6 0 8 0 0 0 0 0 0 1 0 0 0 8 0 2 6 16 14 30 23 22 34 45 48 50 56 61 70 57 48 47 44 47 59 88 57 61 37 6 24 20 3 0 0 0 0 0 7 5 0 0 0 0 8 0 0 0 0 0 0 0 0 0 0 0 0 0 0 0 0 0 0 0 2 0 0 6 10 10 23 15 23 15 11 0 0 7 16 21 16 9 9 0 8 0 0 0 0 1 0 3 10 0 0 0 0 3 4 12 16 22 24 22 30 44 58 63 61 62 72 62 41 57 49 44 67 81 63 54 40 4 31 15 1 0 0 0 0 0 6 5 0 0 0 0 0 0 0 0 0 0 0 0 0 0 0 0 0 0 0 0 0 0 0 0 0 0 0 0 10 6 13 15 17 16 0 0 0 7 13 15 14 9 10 6 2 8 0 0 0 0 0 9 7 5 1 0 0 10 7 14 22 21 25 27 33 49 67 68 63 74 73 67 44 57 47 39 82 75 66 51 40 4 25 11 0 4 2 0 0 0 2 1 0 0 0 0 0 0 0 0 0 0 0 0 0 0 0 0 0 0 0 0 0 0 0 0 0 0 4 0 8 18 0 20 10 19 8 0 0 6 8 17 13 12 6 3 3 9 0 2 0 0 3 5 0 4 0 0 2 3 12 16 21 25 29 33 42 55 63 66 63 76 73 61 49 61 39 41 75 66 59 53 36 11 15 19 2 14 19 17 11 0 2 3 0 0 0 0 0 0 0 0 0 0 0 0 0 0 0 0 0 0 0 0 0 0 0 0 0 0 22 6 0 2 1 6 2 12 5 2 0 2 4 14 11 8 5 3 4 8 0 5 0 2 0 7 5 0 3 7 6 5 12 20 19 29 34 38 44 49 53 64 61 71 72 61 51 51 39 56 63 65 55 53 23 27 9 34 15 28 26 25 24 9 4 1 0 0 0 0 0 0 0 0 0 0 0 0 0 0 0 0 0 0 0 0 0 0 0 0 2 0 11 0 0 7 8 0 0 3 0 4 0 0 0 11 14 7 5 7 8 10 3 4 7 5 7 2 12 7 11 13 14 9 12 20 21 29 33 37 42 50 55 59 63 66 66 61 54 45 50 66 55 67 53 44 11 24 10 38 24 14 33 39 40 30 13 15 2 0 0 0 0 0 0 0 0 0 0 0 0 0 0 0 0 0 0 0 0 0 0 2 6 0 0 0 0 0 2 0 0 0 2 5 2 0 0 7 13 9 6 5 7 8 10 4 10 12 10 7 5 6 14 17 18 12 14 20 20 24 33 39 42 48 51 56 59 64 59 59 56 55 61 54 58 68 52 28 6 9 0 31 28 4 12 20 29 14 16 16 2 0 0 0 0 0 0 0 0 0 0 0 0 0 0 0 0 0 0 0 0 0 1 6 5 4 0 1 0 0 0 0 0 0 5 8 5 0 0 4 12 11 7 3 3 7 11 6 8 16 18 12 10 10 11 12 12 10 16 22 28 33 40 42 47 48 54 59 60 64 62 60 58 62 64 42 61 60 47 17 7 0 0 0 14 0 0 10 20 14 9 0 0 0 0 0 0 0 0 0 0 0 0 0 0 0 0 0 0 0 0 0 0 0 3 8 11 10 4 3 2 1 0 2 3 4 5 9 9 6 3 6 12 13 14 8 6 8 10 6 8 18 19 19 16 23 18 18 16 22 26 30 32 35 40 42 44 48 54 58 58 66 63 62 58 61 53 55 63 51 44 16 14 0 0 0 10 8 0 0 0 0 0 0 0 0 0 0 0 0 0 0 0 0 0 0 0 0 0 0 0 0 0 0 3 8 10 12 14 12 11 10 7 2 2 0 2 10 9 9 12 11 11 8 14 19 20 18 12 9 11 11 13 18 23 26 26 20 22 22 21 26 35 37 37 39 41 42 42 49 52 54 56 66 56 54 52 58 59 62 60 53 41 15 15 0 0 0 0 14 6 0 0 0 0 0 0 0 0 0 0 0 0 0 0 0 0 0 0 0 0 0 0 0 0 1 6 12 15 20 18 17 13 14 13 11 6 0 2 13 17 15 14 15 16 16 17 21 24 25 18 14 18 17 19 24 29 30 30 28 26 25 26 33 35 39 39 40 41 39 46 50 52 54 55 64 56 49 49 64 62 61 48 57 31 11 16 0 0 0 0 6 7 1 0 0 0 0 0 0 0 0 0 0 0 0 0 0 0 0 0 0 0 0 0 0 0 7 13 18 21 23 18 14 15 18 18 12 13 7 6 14 19 22 24 18 21 25 29 28 31 32 31 25 25 22 25 28 33 33 34 33 35 32 34 30 37 43 43 43 40 45 49 50 50 53 53 57 53 56 53 57 64 54 49 52 17 14 14 0 0 0 0 0 0 2 1 1 0 0 0 0 0 0 0 0 0 0 0 0 0 0 0 0 0 0 0 0 3 10 15 19 23 25 22 18 20 18 17 15 17 16 20 20 24 28 30 32 28 30 39 41 39 37 37 35 33 29 30 35 37 39 39 36 37 42 38 39 44 42 40 39 43 46 48 47 51 56 54 53 52 54 49 63 67 48 57 35 12 16 11 0 0 0 0 0 0 4 0 1 0 0 0 0 0 0 0 0 0 0 0 0 0 0 0 0 0 0 0 1 10 15 19 24 27 28 28 27 21 17 18 22 21 22 27 31 32 27 33 36 38 41 41 39 41 39 38 38 38 38 32 36 38 38 39 39 41 40 41 43 45 44 46 45 47 47 46 47 53 53 50 49 49 49 49 73 61 53 50 17 17 16 7 0 0 0 0 0 0 4 0 2 0 0 0 0 0 0 0 0 0 0 0 0 0 0 0 0 0 0 3 6 11 16 19 23 25 29 33 30 27 17 18 22 21 26 31 33 36 37 34 32 38 44 42 39 35 31 31 29 31 34 33 31 37 36 33 33 37 42 42 44 47 46 45 44 47 46 47 48 53 52 51 53 52 48 52 76 59 55 36 11 20 11 1 0 0 0 0 0 0 5 2 1 0 0 0 1 3 4 2 0 0 0 0 0 0 1 0 0 0 4 6 8 13 17 20 22 27 31 31 31 29 20 16 16 24 31 34 37 37 39 39 36 41 46 47 42 39 36 31 30 30 32 30 26 32 36 35 36 36 39 40 40 44 45 44 47 48 49 48 49 53 51 52 54 52 48 58 76 60 48 23 13 14 7 0 0 0 0 0 0 4 8 9 4 3 0 0 3 5 6 4 1 0 0 0 0 0 0 0 0 3 8 9 11 16 17 18 25 29 29 31 32 30 21 14 13 23 33 36 37 37 36 38 39 41 46 49 46 45 42 37 34 33 34 37 36 39 43 42 43 41 44 44 45 46 47 45 47 49 49 49 50 53 51 51 55 53 48 62 73 58 41 14 16 11 4 0 0 0 0 0 0 0 19 22 17 4 2 1 8 11 4 2 0 0 0 0 0 0 2 5 6 8 11 9 12 15 19 21 24 26 30 31 27 26 22 20 9 22 30 30 29 30 30 36 39 40 44 47 50 51 46 39 30 26 30 36 37 41 46 46 45 43 43 44 46 45 46 46 47 49 48 49 51 55 51 53 55 51 48 66 66 56 32 11 18 6 0 0 0 0 0 0 0 0 0 10 18 6 4 2 4 7 5 5 2 3 1 1 4 5 6 8 7 10 12 14 16 17 19 20 23 26 30 27 27 22 27 27 21 17 28 30 30 28 24 28 39 40 40 43 50 52 48 43 27 20 26 29 35 40 46 47 46 45 43 43 44 46 47 47 48 49 47 48 51 53 51 54 55 53 47 57 56 48 25 10 10 1 0 0 0 0 0 0 0 0 0 0 7 3 0 5 6 8 6 5 3 4 3 4 6 8 10 12 12 15 18 21 17 17 17 23 23 24 25 26 24 26 30 30 27 23 23 25 27 30 25 19 28 39 39 37 44 48 47 38 21 17 22 28 30 32 40 44 46 46 44 43 44 44 46 48 47 47 46 48 51 53 51 55 55 53 46 44 35 32 10 5 0 0 0 0 0 0 0 0 0 0 0 0 0 6 5 6 8 11 8 8 4 5 4 7 8 11 15 17 17 18 20 18 17 20 21 20 17 22 22 20 23 30 31 33 34 26 28 27 27 27 28 24 20 33 38 34 35 36 38 27 17 17 21 23 22 27 32 38 42 44 43 43 42 41 41 47 46 47 47 49 52 52 50 49 54 56 34 22 13 2 0 0 0 0 0 0 0 0 0 0 0 0 0 0 0 0 0 8 11 11 8 7 5 5 4 7 9 12 16 18 15 14 14 17 20 21 15 15 14 17 20 23 23 28 27 31 32 32 23 21 23 26 20 17 16 24 33 32 29 25 24 18 21 20 20 20 22 21 26 30 36 37 39 41 37 38 40 40 44 44 47 49 50 50 49 39 43 51 21 0 0 0 0 0 0 0 0 0 0 0 0 0 0 0 0 0 0 0 0 8 13 11 10 7 4 3 5 5 7 11 12 13 10 10 14 17 15 14 11 9 7 15 23 26 25 20 19 21 25 27 20 19 22 22 18 16 10 18 31 26 19 14 9 22 24 22 22 22 20 17 21 24 31 29 31 37 32 32 33 37 37 43 47 50 50 50 47 40 43 44 10 0 0 0 0 0 0 0 0 0 0 0 0 0 0 0 0 0 0 0 0 7 15 11 10 8 5 3 4 4 5 5 8 7 7 10 11 10 7 7 4 6 9 16 20 19 20 14 10 9 13 10 7 14 20 19 18 17 20 21 24 23 17 14 15 18 25 20 20 23 20 18 19 19 24 21 23 29 32 28 31 30 33 44 48 50 50 49 44 41 48 40 0 0 0 0 0 0 0 0 0 0 0 0 0 0 0 0 0 0 0 0 0 3 16 13 13 8 6 5 4 5 3 5 5 7 7 8 7 3 1 0 2 6 11 13 15 19 23 15 4 0 1 7 8 9 18 18 17 11 19 18 19 21 17 11 15 16 22 18 18 21 21 18 16 18 18 19 14 17 25 23 26 28 25 41 47 50 51 51 47 44 51 37 0 0 0 0 0 0 0 0 0 0 0 0 0 0 0 0 0 0 0 0 0 0 18 17 15 10 7 5 4 3 3 3 7 9 7 3 0 0 2 0 0 3 9 5 12 19 12 7 0 0 0 4 2 4 10 16 14 15 17 15 22 21 12 8 14 13 17 17 18 20 21 20 16 16 17 19 12 8 15 18 21 25 20 35 46 49 51 52 47 48 55 36 0 0 0 0 0 0 0 0 0 0 0 0 0 0 0 0 0 0 0 0 0 0 20 20 17 13 9 8 5 5 4 4 6 9 4 0 0 0 0 0 0 0 1 2 4 6 1 0 0 0 0 0 0 0 3 8 7 11 12 14 15 22 15 4 9 11 14 14 15 20 22 21 14 12 16 14 11 9 11 14 13 18 21 28 42 50 52 57 52 52 58 31 2 0 0 0 0 0 0 0 0 0 0 0 0 0 0 0 0 0 0 0 0 0 20 23 21 16 13 10 6 4 5 5 5 5 0 0 0 0 0 0 0 0 0 0 0 0 0 0 0 0 0 0 0 0 0 0 0 8 8 11 13 19 23 10 9 11 16 10 11 18 19 19 14 11 9 8 10 8 10 12 12 18 22 23 38 49 51 61 55 59 60 28 3 0 0 0 0 0 0 0 0 0 0 0 0 0 0 0 0 0 0 0 0 0 18 26 23 20 15 12 8 4 2 4 0 0 0 0 0 0 0 0 0 0 0 0 0 0 0 0 0 0 0 0 0 0 0 0 0 0 0 3 8 18 18 11 8 5 11 8 9 13 14 14 13 7 5 8 11 11 10 11 16 21 25 25 35 46 53 61 59 66 58 24 3 0 0 0 0 0 0 0 0 0 0 0 0 0 0 0 0 0 0 0 0 0 15 28 25 21 18 12 8 1 0 0 0 0 0 0 0 0 0 0 0 0 0 0 0 0 0 0 0 0 0 0 0 0 0 0 0 0 0 0 1 11 11 9 2 5 11 7 5 11 12 10 12 12 10 11 11 15 16 14 18 23 26 31 35 47 57 63 61 66 57 20 2 0 0 0 0 0 0 0 0 0 0 0 0 0 0 0 0 0 0 0 0 0 11 28 26 24 19 14 5 0 0 0 0 0 0 0 0 0 0 0 0 0 0 0 0 0 0 0 0 0 0 0 0 0 0 0 0 0 0 0 0 0 4 2 0 0 5 6 0 3 7 10 10 12 11 12 17 17 19 17 21 28 30 35 38 46 55 64 62 70 49 15 0 0 0 0 0 0 0 0 0 0 0 0 0 0 0 0 0 0 0 0 0 0 1 26 26 24 17 13 2 0 0 0 0 0 0 0 0 0 0 0 0 0 0 0 0 0 0 0 0 0 0 0 0 0 0 0 0 0 0 0 0 0 0 0 0 0 0 6 2 4 11 6 4 7 14 16 19 18 20 23 26 27 31 39 44 53 61 63 65 69 44 14 0 0 0 0 0 0 0 0 0 0 0 0 0 0 0 0 0 0 0 0 0 0 0 22 26 21 16 13 0 0 0 0 0 0 0 0 0 0 0 0 0 0 0 0 0 0 0 0 0 0 0 0 0 0 0 0 0 0 0 0 0 0 0 0 0 0 0 0 0 0 2 1 2 2 9 16 23 21 24 30 35 37 36 43 47 58 63 66 64 68 37 11 0 0 0 0 0 0 0 0 0 0 0 0 0 0 0 0 0 0 0 0 0 0 0 21 27 22 17 13 1 0 0 0 0 0 0 0 0 0 0 0 0 0 0 0 0 0 0 0 0 0 0 0 0 0 0 0 0 2 2 3 0 4 3 0 0 1 0 0 0 0 0 0 8 6 11 18 21 26 30 33 38 41 40 45 54 63 72 69 66 63 30 6 0 0 0 0 0 0 0 0 0 0 0 0 0 0 0 0 0 0 0 0 0 0 0 12 28 21 17 9 4 0 0 0 0 0 0 0 0 0 0 0 0 0 0 0 0 0 0 0 0 0 0 0 0 3 5 7 10 7 7 6 6 3 1 0 0 0 0 0 0 0 0 3 11 16 18 21 25 27 34 37 40 46 45 53 61 68 75 68 66 57 25 5 0 0 0 0 0 0 0 0 0 0 0 0 0 0 0 0 0 0 0 0 0 0 0 3 23 21 15 9 4 0 0 0 0 0 0 0 0 0 0 0 0 0 1 0 0 0 0 0 0 0 0 0 1 5 7 8 8 6 2 0 0 0 0 0 0 0 0 0 0 2 4 11 14 20 21 25 28 33 37 36 42 49 49 57 66 71 79 70 67 48 20 1 0 0 0 0 0 0 0 0 0 0 0 0 0 0 0 0 0 0 0 0 0 0 0 0 20 21 16 10 5 0 0 0 0 0 0 0 0 0 0 0 0 0 2 4 0 0 0 0 0 0 0 2 1 3 0 1 0 0 0 0 0 1 1 7 7 7 3 4 3 6 15 19 19 28 25 30 31 36 41 42 44 53 56 61 71 78 77 70 62 42 16 0 0 0 0 0 0 0 0 0 0 0 0 0 0 0 0 0 0 0 0 0 0 0 0 0 12 22 19 14 11 5 0 0 0 0 0 0 0 0 0 0 0 0 0 0 1 1 1 0 0 0 0 0 0 0 0 1 3 5 6 8 12 8 10 14 12 12 9 10 13 19 21 22 27 31 28 33 36 37 45 47 51 57 63 67 73 81 77 67 55 35 10 0 0 0 0 0 0 0 0 0 0 0 0 0 0 0 0 0 0 0 0 0 0 0 0 0 2 19 21 19 14 8 2 3 0 0 0 0 0 0 0 0 0 0 0 0 0 0 0 0 0 0 0 0 0 5 8 8 9 10 13 16 15 14 17 18 17 16 15 22 27 28 27 31 35 32 30 37 39 37 44 51 53 63 68 75 78 81 74 60 48 23 10 0 0 0 0 0 0 0 0 0 0 0 0 0 0 0 0 0 0 0 0 0 0 0 0 0 0 15 22 20 18 17 8 6 3 0 0 0 0 0 0 0 0 0 0 0 0 0 0 0 0 0 0 0 0 1 3 4 6 11 14 14 13 13 16 19 22 22 27 30 32 34 36 40 40 34 34 37 41 39 43 55 57 65 70 77 77 82 67 54 40 12 6 0 0 0 0 0 0 0 0 0 0 0 0 0 0 0 0 0 0 0 0 0 0 0 0 0 0 2 19 22 18 16 11 9 0 0 3 2 0 0 0 0 0 0 0 5 3 5 3 1 0 0 2 2 2 3 4 8 13 13 14 14 13 14 15 20 22 27 31 31 35 37 38 41 47 42 36 38 37 39 44 58 61 66 72 78 77 77 55 46 26 10 6 0 0 0 0 0 0 0 0 0 0 0 0 0 0 0 0 0 0 0 0 0 0 0 0 0 0 0 13 21 18 15 10 4 1 0 4 0 0 0 0 0 0 0 1 6 11 13 11 7 6 1 1 3 3 2 0 2 1 1 2 2 5 6 7 12 14 18 22 26 37 36 38 41 48 44 36 38 37 41 46 59 64 67 74 74 76 69 49 36 14 5 6 0 0 0 0 0 0 0 0 0 0 0 0 0 0 0 0 0 0 0 0 0 0 0 0 0 0 0 0 18 17 11 10 2 1 2 1 0 0 0 0 0 0 0 0 6 10 12 12 11 8 3 0 0 0 0 0 0 0 0 0 0 0 0 1 4 4 10 20 20 34 36 41 39 44 40 36 38 40 38 48 60 66 69 73 72 71 61 37 27 9 4 5 0 0 0 0 0 0 0 0 0 0 0 0 0 0 0 0 0 0 0 0 0 0 0 0 0 0 0 0 11 16 10 7 5 0 0 0 0 0 0 0 0 0 0 0 0 0 0 0 0 0 0 0 0 0 0 0 0 0 0 0 0 0 0 0 0 2 0 13 22 29 35 40 41 41 39 36 35 41 41 43 59 64 71 69 66 66 50 28 26 6 1 5 0 0 0 0 0 0 0 0 0 0 0 0 0 0 0 0 0 0 0 0 0 0 0 0 0 0 0 0 15 8 8 2 1 0 0 0 0 0 0 0 0 0 0 0 0 0 0 0 0 0 0 0 0 0 0 0 0 0 0 0 0 0 0 0 0 1 3 6 23 31 36 38 40 37 36 36 35 39 42 48 55 62 69 61 59 58 40 24 18 3 3 2 0 0 0 0 0 0 0 0 0 0 0 0 0 0 0 0 0 0 0 0 0 0 0 0 0 0 0 0 17 10 4 2 0 0 0 0 0 0 0 0 0 0 0 0 0 0 0 0 0 0 0 0 0 0 0 0 0 0 0 0 0 0 0 0 0 3 5 5 19 29 38 39 40 40 32 37 35 36 42 46 52 58 63 59 52 47 41 20 12 2 1 3 0 0 0 0 0 0 0 0 0 0 0 0 0 0 0 0 0 0 0 0 0 0 0 0 0 0 0 0 5 11 3 0 0 0 0 0 0 0 0 0 0 0 0 0 0 0 0 0 0 0 0 0 0 0 0 0 0 0 0 0 0 0 0 0 0 4 9 12 21 29 36 42 38 39 32 33 32 35 40 40 45 53 66 55 46 50 40 14 10 2 0 0 0 0 0 0 0 0 0 0 0 0 0 0 0 0 0 0 0 0 0 0 0 0 0 0 0 0 0 0 0 3 4 0 0 0 0 0 0 0 0 0 0 0 0 0 0 0 0 0 0 0 0 0 0 0 0 0 0 0 0 0 0 0 0 0 1 7 13 14 19 21 27 36 36 31 33 29 29 29 32 39 39 48 59 49 47 47 35 8 12 1 0 0 0 0 0 0 0 0 0 0 0 0 0 0 0 0 0 0 0 0 0 0 0 0 0 0 0 0 0 0 0 0 0 0 0 0 0 0 0 0 0 0 0 0 0 0 0 0 0 0 0 0 0 0 0 0 0 0 0 0 0 0 0 0 0 0 2 6 11 15 21 16 21 31 31 23 26 25 23 24 28 35 41 42 59 49 46 46 36 9 11 0 0 0 0 0 0 0 0 0 0 0 0 0 0 0 0 0 0 0 0 0 0 0 0 0 0 0 0 0 0 0 0 0 0 0 0 0 0 0 0 0 0 0 0 0 0 0 0 0 0 0 0 0 0 0 0 0 0 0 0 0 0 1 7 1 3 9 9 7 12 16 22 19 14 23 25 19 19 17 13 21 23 27 36 44 59 52 48 47 34 6 11 0 0 0 0 0 0 0 0 0 0 0 0 0 0 0 0 0 0 0 0 0 0 0 0 0 0 0 0 0 0 0 0 0 0 0 0 0 0 0 0 0 0 0 0 0 0 0 0 0 0 0 0 0 0 0 0 0 0 0 0 0 5 9 13 7 5 16 14 14 13 15 17 17 15 14 16 9 10 9 7 16 20 24 35 45 61 57 48 48 34 6 7 0 0 0 0 0 0 0 0 0 0 0 0 0 0 0 0 0 0 0 0 0 0 0 0 0 0 0 0 0 0 0 0 0 0 0 0 0 0 0 0 0 0 0 0 0 0 0 0 0 0 0 0 0 0 0 0 0 1 2 2 7 17 14 17 13 9 13 16 13 11 16 16 10 10 8 5 0 1 3 4 12 19 26 33 49 65 58 49 48 35 3 3 0 0 0 0 0 0 0 0 0 0 0 0 0 0 0 0 0 0 0 0 0 0 0 0 0 0 0 0 0 0 0 0 0 0 0 0 0 0 0 0 0 0 0 0 0 0 0 0 0 0 0 0 0 1 0 0 7 9 8 10 15 20 14 16 14 13 11 15 13 10 15 14 7 4 0 0 0 0 0 2 9 14 24 36 50 64 59 50 48 36 2 1 0 0 0 0 0 0 0 0 0 0 0 0 0 0 0 0 0 0 0 0 0 0 0 0 0 0 0 0 0 0 0 0 0 0 0 0 0 0 0 0 0 0 0 0 0 0 0 0 0 0 0 0 4 0 4 7 10 11 14 16 19 17 15 14 12 15 11 13 10 7 8 7 2 0 0 0 0 0 0 4 8 17 23 41 50 61 59 50 45 38 2 0 0 0 0 0 0 0 0 0 0 0 0 0 0 0 0 0 0 0 0 0 0 0 0 0 0 0 0 0 0 0 0 0 0 0 0 0 0 0 0 0 0 0 0 0 0 0 0 0 0 0 0 0 3 1 8 8 9 12 16 17 15 14 13 8 11 9 9 10 10 2 0 2 0 0 0 0 0 0 0 2 3 17 23 35 48 56 55 48 43 36 3 0 0 0 0 0 0 0 0 0 0 0 0 0 0 0 0 0 0 0 0 0 0 0 0 0 0 0 1 2 0 0 1 0 0 0 0 0 0 0 0 0 0 0 0 0 0 0 0 0 0 0 0 0 0 0 5 6 10 10 11 16 10 10 12 5 6 4 5 5 0 0 0 0 0 0 0 0 0 0 0 0 2 14 25 30 50 57 56 48 42 37 4 0 0 0 0 0 0 0 0 0 0 0 0 0 0 0 0 0 0 0 0 0 0 0 0 8 6 12 12 10 0 1 3 0 0 0 0 0 0 0 0 0 0 0 0 0 0 0 0 0 0 0 0 0 0 0 0 6 4 7 10 5 6 3 5 0 0 0 1 0 0 0 0 0 0 0 0 0 0 0 0 1 2 19 23 28 47 54 58 46 41 44 4 0 0 0 0 0 0 0 0 0 0 0 0 0 0 0 