P2
92
112
255
0 0 0 0 0 0 0 0 0 0 0 0 0 0 0 0 0 0 0 0 0 0 0 0 0 0 0 0 0 0 0 0 0 0 0 0 0 0 0 0 0 0 0 0 0 0 0 0 0 0 0 0 0 0 0 0 0 0 0 0 0 0 0 0 0 0 0 0 0 0 0 0 0 0 0 0 0 0 0 0 0 0 0 0 0 0 0 0 0 0 0 0 0 0 0 0 0 0 0 0 0 0 0 0 0 0 0 0 0 0 0 0 0 0 0 0 0 0 0 0 0 0 0 0 0 0 0 0 0 0 0 0 0 0 0 0 0 0 0 0 0 0 0 0 0 0 0 0 0 0 0 0 0 0 0 0 0 0 0 0 0 0 0 0 0 0 0 0 0 0 0 0 0 0 0 0 0 0 0 0 0 0 0 0 0 0 0 0 0 0 0 0 0 0 0 0 0 0 0 0 0 0 0 0 0 0 0 0 0 0 0 0 0 0 0 0 0 0 0 0 0 0 0 0 0 0 0 0 0 0 0 0 0 0 0 0 0 0 0 0 0 0 0 0 0 0 0 0 0 0 0 0 0 0 0 0 0 0 0 0 0 0 0 0 0 0 0 0 0 0 0 0 0 0 0 0 0 0 0 0 0 0 0 0 0 0 0 0 0 0 0 0 0 0 0 0 1 5 6 5 0 0 0 0 0 0 0 0 0 0 0 0 0 0 0 0 0 0 0 0 0 0 0 0 0 0 0 0 0 0 0 0 0 0 0 0 0 0 0 0 0 0 0 0 0 0 0 0 0 0 0 0 0 0 0 0 0 0 0 0 0 0 0 0 0 0 0 0 0 0 0 0 0 0 0 0 0 0 0 0 0 0 0 0 0 0 0 4 11 10 8 5 1 0 0 0 0 0 0 0 0 0 0 0 0 0 0 0 0 0 0 0 0 0 0 0 0 0 0 0 0 0 0 0 0 0 0 0 0 0 0 0 0 0 0 0 0 0 0 0 0 0 0 0 0 0 0 0 0 0 0 0 0 0 0 0 0 0 0 0 0 0 0 0 0 0 0 0 0 0 0 0 0 0 0 0 0 0 3 10 13 14 9 9 8 5 0 0 0 0 0 0 0 0 0 0 0 0 0 0 0 0 0 0 0 0 0 0 0 0 0 0 0 0 0 0 0 0 0 0 0 0 0 0 0 0 0 0 0 0 0 0 0 0 0 0 0 0 0 0 0 0 0 0 0 0 0 0 0 0 0 0 0 0 0 0 0 0 0 0 0 0 0 0 0 0 0 0 0 7 16 21 20 20 19 21 18 15 11 10 9 9 5 3 0 0 0 0 0 0 0 0 1 3 5 5 2 2 3 3 1 0 0 0 0 0 0 0 0 0 0 0 0 0 0 0 0 0 0 0 0 0 0 0 0 0 0 0 0 0 0 0 0 0 0 0 0 0 0 0 0 0 0 0 0 0 0 0 0 0 0 0 0 0 0 0 0 0 0 0 0 15 23 28 33 31 29 31 29 27 27 25 24 23 17 14 13 11 10 10 11 14 11 12 14 15 17 17 17 16 16 16 13 11 6 5 2 1 0 0 0 0 0 0 0 0 0 0 0 0 0 0 0 0 0 0 0 0 0 0 0 0 0 0 0 0 0 0 0 0 0 0 0 0 0 0 0 0 0 0 0 0 0 0 0 0 0 0 0 0 0 0 10 20 31 40 41 42 42 42 42 41 41 40 38 38 32 28 28 28 27 28 29 29 29 29 31 31 32 32 33 30 32 30 28 24 23 19 16 12 11 7 6 8 10 8 10 11 14 13 11 12 6 0 0 0 0 0 0 0 0 0 0 0 0 0 0 0 0 0 0 0 0 0 0 0 0 0 0 0 0 0 0 0 0 0 0 0 0 0 0 0 0 11 25 36 44 50 53 55 54 55 57 55 53 50 49 50 46 42 43 39 42 41 42 42 42 43 44 44 43 43 42 40 40 39 39 36 34 31 29 26 24 26 24 25 24 24 24 25 27 29 26 28 17 13 5 0 0 0 0 0 0 0 0 0 0 0 0 0 0 0 0 0 0 0 0 0 0 0 0 0 0 0 0 0 0 0 0 0 0 0 0 0 8 24 42 52 60 64 65 67 65 68 65 64 61 59 59 56 56 53 53 51 54 52 54 53 52 52 53 52 51 50 51 49 48 49 47 45 43 39 39 37 34 37 36 35 33 37 37 37 39 39 39 37 33 26 19 10 3 0 0 0 0 0 0 0 0 0 0 0 0 0 0 0 0 0 0 0 0 0 0 0 0 0 0 0 0 0 0 0 0 0 0 8 20 39 56 66 70 74 75 73 74 72 69 68 65 65 65 64 63 62 62 62 61 64 62 63 60 60 61 60 59 58 58 59 57 56 55 54 50 48 48 45 44 43 45 43 44 44 47 47 47 49 48 45 42 38 35 27 16 5 0 0 0 0 0 0 0 0 0 0 0 0 0 0 0 0 0 0 0 0 0 0 0 0 0 0 0 0 0 0 0 0 8 17 38 56 69 75 77 78 77 77 77 75 72 72 70 71 72 69 71 71 69 70 70 70 69 68 68 68 68 68 68 66 66 66 65 64 63 60 58 56 57 54 52 53 53 53 54 53 55 56 57 56 55 52 49 44 43 39 30 21 13 2 0 0 0 0 0 0 0 0 0 0 0 0 0 0 0 0 0 0 0 0 0 0 0 0 0 0 0 0 1 7 16 34 55 72 78 81 80 79 79 80 79 78 77 77 76 77 77 75 74 74 72 74 74 74 72 73 72 73 73 72 72 71 70 70 70 67 67 67 65 63 62 61 60 61 62 62 62 61 60 62 62 62 61 57 56 52 47 40 42 33 27 18 7 0 0 0 0 0 0 0 0 0 0 0 0 0 0 0 0 0 0 0 0 0 0 0 0 0 0 2 10 14 28 53 72 80 84 82 82 81 80 81 80 79 80 81 80 80 79 77 77 75 73 74 74 73 73 74 72 73 73 73 72 72 71 71 71 69 69 69 68 67 64 64 64 65 65 64 64 64 63 65 65 64 64 62 60 57 55 47 44 42 36 29 23 6 0 0 0 0 0 0 0 0 0 0 0 0 0 0 0 0 0 0 0 0 0 0 0 0 0 8 10 19 42 66 80 84 85 83 82 82 81 81 82 84 83 82 80 78 77 76 74 73 72 72 72 71 70 71 69 71 71 73 73 70 71 69 69 69 68 68 66 65 65 64 66 64 65 65 64 64 63 64 64 65 65 65 62 59 58 54 49 44 43 35 30 24 2 0 0 0 0 0 0 0 0 0 0 0 0 0 0 0 0 0 0 0 0 0 0 0 7 10 12 31 57 78 84 85 85 84 83 83 83 84 84 84 82 79 77 76 74 73 73 72 70 70 70 68 68 68 68 68 69 70 71 69 69 69 68 68 66 65 66 63 63 63 62 63 64 63 64 63 63 62 62 62 62 64 63 59 59 57 57 50 45 40 35 31 21 1 0 0 0 0 0 0 0 0 0 0 0 0 0 0 0 0 0 0 0 0 0 4 11 14 25 45 70 83 85 84 84 84 83 82 84 85 85 82 80 78 76 74 72 71 70 68 67 66 67 63 63 65 66 66 67 67 66 67 66 66 67 65 66 64 62 63 61 62 61 61 62 61 62 62 62 62 61 60 61 61 61 59 59 56 59 56 51 44 41 34 31 18 0 0 0 0 0 0 0 0 0 0 0 0 0 0 0 0 0 0 0 0 4 11 15 20 39 64 80 85 85 84 86 85 83 84 86 84 82 80 77 75 72 71 69 67 66 66 64 63 62 59 59 60 62 62 64 64 62 63 62 63 63 63 63 61 61 60 60 59 60 60 61 59 60 61 59 60 60 60 60 60 59 59 59 57 58 57 55 49 44 37 35 30 14 0 0 0 0 0 0 0 0 0 0 0 0 0 0 0 0 0 0 0 10 8 16 26 50 78 85 86 84 87 88 83 83 85 85 82 80 77 74 71 69 67 65 64 62 61 60 60 58 57 57 57 58 59 60 60 59 58 59 59 59 59 59 58 57 56 56 57 56 57 58 57 58 57 57 57 57 57 56 58 59 59 58 57 57 57 54 53 49 44 38 34 29 6 0 0 0 0 0 0 0 0 0 0 0 0 0 0 0 0 0 1 10 13 23 40 65 84 88 86 87 88 85 81 85 86 83 80 77 74 71 68 66 65 62 60 58 58 56 55 54 54 53 54 55 55 56 55 54 53 55 55 56 55 55 53 52 53 53 54 53 53 51 54 53 54 54 54 54 55 55 56 55 57 59 57 56 55 54 53 54 49 41 37 32 20 2 0 0 0 0 0 0 0 0 0 0 0 0 0 0 0 0 9 11 21 32 56 76 87 87 88 90 87 81 83 86 84 81 78 74 71 68 66 63 61 59 57 55 54 53 52 50 50 51 50 51 51 51 51 50 50 51 52 52 52 51 50 49 50 49 50 49 49 50 50 51 49 50 51 51 53 53 53 53 56 55 57 55 53 54 55 54 54 45 39 35 26 12 0 0 0 0 0 0 0 0 0 0 0 0 0 0 0 4 11 15 28 42 66 84 87 88 89 89 83 80 84 84 80 78 74 70 67 64 63 59 56 56 52 52 50 49 48 46 45 46 46 46 45 46 46 45 46 45 47 47 47 47 47 46 47 47 46 47 47 47 47 47 47 46 48 48 49 49 51 51 53 53 54 55 53 55 56 55 54 51 42 38 30 18 4 0 0 0 0 0 0 0 0 0 0 0 0 0 0 8 12 16 30 51 73 85 89 88 89 87 79 80 83 81 77 74 70 67 64 61 59 55 53 51 49 49 46 46 44 43 42 42 43 41 41 41 40 40 40 41 42 43 42 42 43 44 44 43 43 44 43 44 44 43 44 44 45 46 46 47 49 47 50 51 52 53 52 55 57 55 54 53 46 38 33 18 11 1 0 0 0 0 0 0 0 0 0 0 0 0 1 9 9 19 36 58 78 88 89 89 88 83 77 81 81 79 74 70 66 64 60 58 55 52 49 48 45 45 43 41 40 39 38 38 37 37 35 36 36 35 34 35 38 36 38 38 39 38 40 39 40 41 40 40 40 40 41 41 42 44 45 46 47 46 47 50 51 50 53 54 56 56 54 54 50 39 31 22 12 4 0 0 0 0 0 0 0 0 0 0 0 0 5 12 13 25 45 66 80 88 90 89 85 82 78 81 79 76 70 66 63 60 58 54 52 49 46 44 41 40 39 37 37 36 34 33 33 32 31 31 30 30 29 30 33 33 33 34 34 36 36 37 37 38 38 37 38 38 38 38 40 40 42 44 44 45 44 47 48 51 52 54 55 55 55 55 52 42 32 23 20 6 0 0 0 0 0 0 0 0 0 0 0 0 6 13 17 32 53 71 83 87 90 87 85 79 78 79 75 71 67 63 60 57 55 51 49 46 44 41 39 38 36 34 34 32 32 30 30 29 29 26 25 25 26 26 29 31 30 31 31 33 34 34 34 35 35 35 35 35 36 36 37 39 38 40 41 43 43 44 45 48 50 52 54 54 55 56 52 43 32 26 22 11 0 0 0 0 0 0 0 0 0 0 0 0 8 18 22 35 57 77 84 89 90 86 82 78 78 77 72 68 64 61 58 55 52 48 46 42 41 38 37 35 32 30 30 30 27 27 26 27 26 24 23 23 23 24 25 28 28 28 28 29 32 31 32 34 34 32 33 32 33 33 35 35 36 37 39 39 40 41 43 45 49 49 53 54 54 54 51 46 33 26 22 15 0 0 0 0 0 0 0 0 0 0 0 2 11 24 30 43 63 80 87 90 88 84 79 74 76 74 68 65 61 58 54 52 48 44 41 38 36 35 33 30 28 25 26 25 23 22 23 23 23 22 21 21 23 21 22 24 26 25 26 27 27 28 29 31 31 30 30 31 30 29 30 33 33 33 35 36 36 38 40 42 46 49 51 54 54 54 51 48 33 26 22 15 0 0 0 0 0 0 0 0 0 0 0 3 16 29 35 50 69 85 88 90 86 83 76 74 74 70 65 60 57 53 50 47 42 39 36 33 31 30 28 24 21 20 20 19 17 16 18 18 18 18 18 18 20 19 21 22 23 23 23 23 24 24 26 27 27 26 27 26 26 25 25 27 30 28 29 31 32 34 37 39 40 45 49 51 51 52 49 49 36 24 24 17 4 0 0 0 0 0 0 0 0 0 0 7 18 30 40 56 75 87 89 88 85 80 74 73 71 67 59 54 49 46 42 36 31 28 26 23 21 18 15 13 10 11 10 9 9 9 12 12 12 13 14 15 17 17 18 19 20 19 19 19 18 19 20 21 21 21 18 18 19 18 18 20 22 22 24 24 25 26 31 37 37 37 44 49 49 50 50 47 37 25 22 18 5 0 0 0 0 0 0 0 0 0 1 9 22 34 46 64 81 91 90 86 83 78 71 68 65 59 49 41 36 31 27 21 18 15 12 9 7 4 2 0 0 0 0 0 0 0 5 6 5 7 9 11 14 15 15 16 16 16 13 12 13 12 13 11 10 9 6 6 7 7 7 8 11 12 13 15 16 16 21 28 34 34 35 42 47 50 49 47 37 26 23 17 5 0 0 0 0 0 0 0 0 0 3 14 27 42 54 71 85 91 89 86 83 74 63 60 57 49 36 28 22 17 10 7 4 0 0 0 0 0 0 0 0 0 0 0 0 0 0 0 0 0 0 6 9 12 11 13 12 9 10 7 2 1 0 0 0 0 0 0 0 0 0 0 0 0 0 4 5 4 6 11 24 28 30 31 40 48 49 44 40 27 26 20 6 0 0 0 0 0 0 0 0 0 7 19 32 44 62 74 86 91 90 85 79 63 53 50 44 35 21 12 5 0 0 0 0 0 0 0 0 0 0 0 0 0 0 0 0 0 0 0 0 0 0 0 6 7 9 7 5 3 5 0 0 0 0 0 0 0 0 0 0 0 0 0 0 0 0 0 0 0 0 0 4 19 26 25 26 39 48 43 38 29 26 23 9 0 0 0 0 0 0 0 0 0 9 21 38 52 67 79 88 91 90 79 67 54 45 39 31 17 5 0 0 0 0 0 0 0 0 0 0 0 0 0 0 0 0 0 0 0 0 0 0 0 0 0 0 1 4 3 0 0 0 0 0 0 0 0 0 0 0 0 0 0 0 0 0 0 0 0 0 0 0 0 0 0 13 21 22 24 39 44 39 31 26 25 11 0 0 0 0 0 0 0 0 0 13 26 44 56 69 81 91 92 85 70 59 45 36 27 15 0 0 0 0 0 0 0 0 0 0 0 0 0 0 0 0 0 0 0 0 0 0 0 0 0 0 0 0 1 0 0 0 0 0 0 0 0 0 0 0 0 0 0 0 0 0 0 0 0 0 0 0 0 0 0 0 0 0 5 15 22 28 40 42 32 28 26 15 0 0 0 0 0 0 0 0 0 14 29 45 58 68 82 93 91 79 65 48 35 25 15 4 0 0 0 0 0 0 0 0 0 0 0 0 0 0 0 0 0 0 0 0 0 0 0 0 0 0 0 0 2 0 0 0 0 0 0 0 0 0 0 0 0 0 0 0 0 0 0 0 0 0 0 0 1 0 0 0 8 0 0 2 16 26 31 38 34 29 27 16 5 0 0 0 0 0 0 0 0 15 28 43 53 68 81 91 87 73 58 39 28 16 6 0 0 0 0 0 0 0 0 0 0 0 0 0 0 0 0 0 0 0 0 0 0 0 0 0 0 0 0 4 5 2 0 0 0 0 0 0 0 0 0 0 0 0 0 0 0 0 0 0 0 0 0 0 0 0 0 2 6 11 14 9 11 17 30 34 34 30 29 22 8 0 0 0 0 0 0 0 0 14 29 40 50 77 87 88 81 66 55 38 29 18 6 3 2 0 0 0 0 0 0 0 0 0 0 0 0 0 0 0 0 0 0 0 0 0 0 0 0 0 0 6 6 7 2 0 0 0 0 0 0 0 0 0 0 0 0 0 0 0 0 0 0 0 1 0 0 2 0 0 0 4 14 23 25 17 22 33 36 33 31 24 11 0 0 0 0 0 0 0 0 9 23 32 55 80 88 80 72 65 57 42 33 20 12 10 9 15 12 5 0 0 0 0 0 0 0 0 0 0 0 0 0 0 0 0 0 0 0 0 0 0 4 8 8 5 1 0 0 0 0 0 0 0 0 0 0 0 0 0 0 0 0 0 4 10 16 14 14 14 5 4 4 5 5 13 29 22 18 32 35 36 35 25 13 7 0 0 0 0 0 0 0 10 17 42 57 71 81 71 71 67 63 50 37 28 23 14 14 18 11 0 0 0 0 0 0 0 0 0 0 0 0 0 0 0 0 0 0 0 0 0 0 0 8 11 9 4 0 0 0 0 0 0 0 0 0 0 0 0 0 0 0 0 0 0 2 8 14 15 18 24 18 8 13 17 14 0 18 28 24 33 35 37 35 28 15 8 0 0 0 0 0 0 0 0 20 35 50 61 69 71 72 68 66 58 47 37 26 19 19 18 9 0 0 0 0 0 0 0 0 0 0 0 0 0 0 0 0 0 0 0 0 0 0 7 14 20 21 20 6 0 0 0 0 0 0 0 0 0 0 0 0 0 0 0 0 0 0 7 6 16 14 18 20 12 11 14 20 12 13 34 31 33 38 38 38 30 19 8 1 0 0 0 0 0 0 0 10 31 41 52 68 70 72 74 71 63 50 37 26 19 13 13 4 0 0 0 0 0 0 0 0 0 0 0 0 0 0 0 0 0 0 0 0 0 0 6 12 18 19 22 7 0 0 0 0 0 0 0 0 0 0 0 0 0 0 0 0 0 0 0 0 7 12 3 0 3 5 6 9 14 19 36 42 31 41 38 37 32 21 11 0 0 0 0 0 0 0 0 14 40 50 48 58 63 71 75 72 59 48 33 22 19 19 15 2 0 0 0 0 0 0 0 0 0 0 0 0 0 0 0 0 0 0 4 7 4 5 15 18 27 27 26 13 1 0 0 0 0 0 0 0 0 0 0 0 0 0 0 0 0 0 0 0 0 3 2 0 0 0 0 4 10 13 29 38 40 47 39 34 31 22 12 0 0 0 0 0 0 0 0 6 24 35 36 48 54 66 72 69 62 51 36 29 28 26 11 0 0 0 0 0 0 0 0 0 0 0 0 0 0 0 0 0 0 0 6 18 12 11 16 21 26 28 21 7 1 0 0 0 0 0 0 0 0 0 0 0 0 0 0 0 0 0 0 0 0 0 1 0 0 0 0 5 10 19 24 32 41 55 46 42 25 22 12 0 0 0 0 0 0 0 0 0 9 27 36 45 50 59 64 71 65 55 44 38 36 26 11 3 0 0 0 0 0 0 0 0 0 0 0 0 0 0 0 0 0 0 15 24 17 19 15 18 24 25 21 10 2 0 0 0 0 0 0 0 0 0 0 0 0 0 0 0 0 0 0 0 0 0 0 0 0 0 0 7 14 22 21 39 43 42 40 38 33 20 8 0 0 0 0 0 0 0 0 0 0 19 31 45 51 56 67 75 69 61 52 46 38 29 22 15 2 0 0 0 0 0 0 0 0 0 0 0 0 0 0 0 0 3 21 28 28 27 21 21 25 27 26 18 7 0 0 0 0 0 0 0 0 0 0 0 0 0 0 0 0 0 0 0 0 0 0 0 4 0 0 7 16 27 32 55 57 46 30 30 21 20 5 0 0 0 0 0 0 0 0 0 0 11 25 40 50 52 63 69 65 60 58 52 47 40 37 28 15 2 0 0 0 0 0 0 0 0 0 0 0 0 0 0 0 14 29 33 31 34 28 26 29 30 29 24 13 5 0 2 8 3 0 0 0 0 0 0 0 0 0 0 0 0 0 0 0 0 0 0 10 10 13 12 15 26 37 43 52 51 41 32 16 11 5 0 0 0 0 0 0 0 0 0 0 10 22 34 46 56 66 74 71 68 66 61 55 50 44 35 26 16 9 5 1 0 0 0 0 0 0 0 0 0 1 4 8 26 40 42 39 37 34 32 34 34 32 26 15 10 3 7 10 11 1 1 5 5 0 0 0 0 0 0 0 0 0 0 0 0 0 3 12 19 23 26 24 30 38 37 39 38 42 33 15 7 0 0 0 0 0 0 0 0 1 0 0 2 20 33 47 60 74 80 79 77 77 74 65 59 53 44 33 27 19 12 6 4 0 0 4 4 6 10 13 18 23 12 19 40 50 48 44 39 38 37 37 37 33 28 16 12 9 6 12 18 10 8 10 15 11 6 0 1 0 0 0 0 0 0 0 1 1 8 16 23 28 33 32 37 40 37 40 35 30 25 10 3 0 0 0 0 0 0 0 0 0 2 0 0 19 35 52 66 75 79 78 78 77 76 70 63 60 52 42 35 31 25 20 16 12 17 19 23 25 27 26 36 35 19 31 51 56 50 47 44 43 41 40 37 32 28 20 11 13 7 11 17 16 15 15 15 17 15 9 7 6 7 6 7 8 9 9 11 13 17 20 25 30 33 33 35 38 35 41 39 33 19 5 0 0 0 0 0 0 0 0 0 4 9 1 5 22 42 54 67 78 80 78 75 75 76 70 67 61 54 45 41 36 32 31 30 31 37 38 41 38 38 46 47 36 26 41 58 59 52 49 48 47 43 40 37 34 29 24 16 13 16 10 17 17 20 22 19 19 20 21 18 16 17 16 17 16 17 19 22 25 27 28 29 36 37 37 36 36 37 41 39 26 21 8 0 0 0 0 0 0 0 0 0 0 14 8 7 33 47 57 67 78 79 77 71 68 72 70 66 62 54 49 48 45 42 43 44 45 46 47 44 46 55 53 43 36 36 53 61 60 53 53 49 47 43 40 37 34 30 26 19 15 21 17 15 20 21 28 30 30 25 24 28 24 25 27 26 25 21 25 27 29 32 33 33 37 39 39 40 37 38 44 43 26 22 10 5 0 0 0 0 0 0 0 7 1 3 2 6 34 53 63 67 75 78 76 68 66 67 63 61 57 52 51 51 48 47 48 49 50 51 51 53 57 59 54 47 41 48 61 65 61 55 53 49 46 44 42 38 34 30 26 19 16 18 24 19 17 20 28 35 36 35 32 33 32 30 32 32 30 28 27 30 30 30 36 37 35 37 40 40 36 39 44 43 27 24 4 11 0 0 0 0 0 0 0 13 12 12 5 6 33 58 63 69 74 73 71 68 64 67 66 61 56 54 51 50 48 47 49 51 53 56 56 55 57 59 58 56 49 54 62 65 61 56 50 47 46 42 42 38 35 29 26 19 19 14 21 23 17 18 27 33 38 38 37 39 38 37 39 39 37 34 32 30 32 32 33 35 34 37 39 39 35 38 44 39 28 26 7 10 0 0 0 0 0 0 0 15 15 22 21 15 34 60 65 65 72 72 68 62 60 63 62 60 57 55 53 53 50 52 51 52 52 50 50 49 52 56 62 60 55 55 61 64 59 51 45 43 41 37 35 36 32 25 21 18 19 17 13 23 21 17 22 29 32 34 36 39 42 42 43 44 44 39 37 34 31 30 30 34 36 35 40 37 31 38 43 37 31 26 11 11 4 0 0 8 0 0 0 13 5 16 27 24 38 57 65 71 72 68 63 60 59 61 57 53 52 49 47 46 46 45 45 46 45 45 42 40 48 59 62 57 51 53 57 58 54 44 39 33 30 26 23 25 25 17 13 12 11 13 10 13 18 15 16 24 29 34 33 34 36 37 39 40 41 38 35 31 31 30 32 34 36 36 38 31 30 39 42 38 32 25 15 7 11 8 10 12 0 0 0 10 0 6 26 29 39 56 67 76 79 73 59 49 53 58 56 55 53 49 48 45 45 44 43 40 38 35 32 39 51 55 55 50 47 49 51 52 44 36 28 23 18 12 10 12 13 9 2 2 3 7 10 4 2 5 12 20 23 29 33 34 37 39 37 38 38 37 36 31 31 30 31 33 34 36 30 26 32 41 41 38 31 25 15 9 14 12 18 12 0 0 0 11 0 0 26 27 39 57 68 70 74 75 64 51 51 50 46 44 42 41 38 36 34 34 31 32 31 31 33 40 46 46 46 44 41 41 42 39 34 23 13 7 4 0 0 0 2 0 0 0 0 0 1 0 0 0 0 13 22 26 28 30 31 33 32 35 33 36 33 28 28 27 29 30 31 27 27 29 35 41 40 34 32 25 13 15 14 7 18 11 0 0 0 10 0 0 24 30 38 55 65 63 67 72 66 53 53 51 48 43 39 37 33 31 30 31 30 30 30 30 30 35 37 37 39 38 35 29 29 26 19 8 0 0 0 0 0 0 0 0 0 0 0 0 0 0 0 0 0 0 11 19 26 30 30 31 27 27 29 29 27 22 25 24 24 25 26 26 31 34 36 41 39 27 30 25 12 16 11 4 16 9 0 0 0 7 0 0 23 32 37 52 62 60 60 65 61 51 51 49 45 40 37 34 31 29 28 27 25 25 24 24 25 28 28 28 33 31 25 18 13 11 5 0 0 0 0 0 0 0 0 0 0 0 0 0 0 0 0 0 0 0 2 7 12 18 22 22 20 24 26 24 25 21 23 21 18 19 25 31 36 38 37 41 33 22 20 19 14 12 10 10 19 7 0 0 0 3 4 0 21 37 35 49 58 56 55 60 57 48 47 45 39 37 32 28 28 23 24 22 22 20 19 21 20 21 19 21 25 23 16 9 1 0 0 0 0 0 0 0 0 0 0 0 0 0 0 0 0 0 0 0 0 0 0 7 10 14 13 13 12 13 15 13 15 15 15 14 16 22 27 31 38 38 38 36 29 19 14 11 10 11 9 13 20 6 0 0 5 0 3 6 21 33 36 48 52 54 54 57 55 47 44 40 36 32 29 25 23 22 19 17 16 16 14 16 16 14 14 16 18 14 7 0 0 0 0 0 0 0 0 0 0 0 0 0 0 0 0 0 0 0 0 0 0 0 0 3 10 14 13 14 12 13 12 12 14 13 16 14 17 21 26 32 36 36 36 34 23 16 11 8 5 11 12 7 13 2 0 0 3 0 3 10 17 34 38 45 49 51 51 54 55 46 42 37 33 28 28 23 21 18 15 12 12 11 9 12 13 9 9 11 9 4 0 0 0 0 0 0 0 0 0 0 0 0 0 0 0 0 0 0 0 0 0 0 0 0 0 0 7 9 11 11 10 9 10 9 10 7 10 13 17 19 24 31 35 33 33 30 18 16 8 2 0 7 14 2 5 6 0 0 0 0 2 12 15 27 41 43 46 48 49 50 52 44 41 35 32 28 25 22 19 15 12 7 6 4 7 9 10 9 4 9 6 0 0 0 0 3 4 0 0 0 0 0 0 0 0 0 0 0 0 0 0 0 0 0 0 0 0 0 3 6 9 9 7 5 5 5 6 5 5 9 14 16 23 29 33 32 30 26 16 15 5 0 0 5 6 0 1 11 5 1 0 0 0 14 14 24 38 41 43 45 47 48 50 40 38 33 29 25 24 20 15 12 6 3 2 1 3 7 7 7 5 9 11 5 0 0 2 13 10 0 0 0 0 0 0 0 0 0 0 0 0 0 0 0 0 0 0 0 0 0 2 4 7 7 5 4 2 2 2 3 2 5 10 15 21 30 32 30 27 23 14 13 1 0 0 8 0 0 0 14 10 0 0 0 0 14 17 18 31 41 41 45 44 46 48 40 36 33 29 22 19 16 11 7 3 1 1 0 5 9 9 11 10 12 14 14 7 7 17 19 10 0 0 0 0 0 0 0 0 0 0 0 0 0 0 3 7 5 3 1 0 0 3 5 7 9 6 5 2 2 2 2 3 4 10 16 23 28 29 26 23 18 14 10 0 0 4 15 0 0 0 14 11 0 0 0 0 11 19 16 28 39 40 42 42 45 46 36 34 31 26 21 14 11 7 4 0 1 0 2 8 10 14 16 16 18 18 18 19 22 24 19 7 0 0 0 0 0 0 0 0 0 0 0 0 0 0 5 7 7 7 5 3 4 7 7 9 9 9 7 6 5 4 2 3 6 10 16 23 25 26 23 21 19 15 7 0 0 7 19 0 0 0 13 7 0 0 0 0 4 21 15 25 36 36 40 42 43 41 33 33 29 24 19 14 8 4 0 0 1 3 8 11 15 21 21 23 23 23 23 26 28 22 13 2 0 0 0 0 0 0 0 0 0 0 0 0 0 1 5 7 9 10 7 7 7 7 8 10 10 9 10 8 9 6 7 3 7 11 14 21 24 23 21 18 18 13 4 0 0 11 14 0 0 2 8 1 0 0 0 0 0 17 19 24 33 36 36 42 43 40 30 30 27 23 16 12 7 1 0 2 5 8 11 13 21 25 25 25 24 23 25 26 23 18 6 0 0 0 0 0 0 0 0 0 0 0 0 0 0 2 6 6 8 10 9 9 8 8 7 8 8 8 8 8 8 8 7 5 6 9 13 18 22 21 18 18 13 13 0 0 0 13 11 0 0 1 4 0 0 0 0 0 0 15 23 25 31 34 33 39 42 38 30 28 26 21 16 10 5 2 4 7 11 11 13 16 21 25 22 22 22 21 23 23 19 11 1 0 0 0 0 0 2 5 2 2 1 0 0 0 2 5 7 6 8 10 11 9 8 8 8 7 7 6 5 6 5 8 7 5 6 9 13 17 21 20 15 15 14 10 0 0 1 9 11 0 0 0 3 0 0 0 0 0 0 12 28 28 27 32 29 35 39 36 29 26 26 21 15 9 6 5 7 11 13 11 11 16 20 19 17 16 16 18 19 19 14 6 0 0 0 0 1 3 6 6 7 4 3 4 2 2 3 5 6 6 8 8 10 10 8 7 8 8 5 5 4 1 0 4 3 5 5 10 12 16 19 18 13 12 13 8 1 0 1 7 10 0 0 2 0 0 0 0 0 0 0 8 27 30 27 28 29 34 39 36 29 26 25 21 14 9 8 9 12 13 12 10 10 15 16 14 11 8 11 12 14 13 10 2 0 0 0 0 2 2 5 6 4 5 4 3 3 2 2 2 4 5 6 8 8 8 9 8 8 7 6 2 0 0 0 0 1 4 5 6 12 14 17 14 11 12 12 5 0 0 3 7 8 0 0 0 0 0 0 0 0 0 0 1 22 31 25 27 29 32 40 38 30 28 25 21 13 10 11 14 16 14 12 10 10 13 9 6 1 1 4 7 6 7 4 0 0 0 0 0 0 1 3 3 0 4 3 3 3 0 0 0 1 3 3 3 4 4 6 5 7 6 3 0 0 0 0 0 0 3 5 7 11 14 14 10 7 8 7 2 0 0 5 11 7 0 0 0 0 0 0 0 0 0 0 0 18 33 28 24 30 32 38 38 33 31 26 21 13 11 15 18 17 17 13 11 11 9 2 0 0 0 0 0 2 3 1 0 0 0 0 0 0 0 0 0 0 0 0 0 0 0 0 0 0 0 1 0 0 1 0 0 1 2 1 0 0 0 0 0 1 2 3 7 11 14 13 6 3 5 3 0 2 7 10 10 0 0 0 0 0 0 0 0 0 0 0 0 14 37 33 29 31 31 35 36 34 32 27 22 14 11 15 17 16 14 10 8 6 4 0 0 0 0 0 0 0 0 0 0 0 0 0 0 0 0 0 0 0 0 0 0 0 0 0 0 0 0 0 0 0 0 0 0 0 1 1 3 3 4 1 0 0 2 4 8 13 12 10 2 0 2 3 0 5 11 8 2 0 0 0 0 0 0 0 0 0 0 0 0 6 34 40 31 29 28 31 35 35 33 29 22 16 12 14 14 11 8 5 2 1 0 0 0 0 0 0 0 1 0 0 0 0 0 0 0 0 0 0 0 0 0 0 0 0 0 0 0 0 0 0 0 0 0 0 0 0 2 5 7 7 6 1 0 0 1 7 8 11 11 7 0 0 4 2 1 1 3 0 0 0 0 0 0 0 0 0 0 0 0 0 0 0 26 39 31 29 26 26 33 37 34 31 23 17 12 11 9 4 0 0 0 0 0 0 0 0 0 0 0 0 0 0 0 0 0 0 0 0 0 0 0 0 0 0 0 0 0 0 0 0 0 0 0 0 0 0 0 0 3 8 8 5 4 0 0 0 2 7 8 9 8 3 0 1 4 0 0 0 0 0 0 0 0 0 0 0 0 0 0 0 0 0 0 0 12 29 31 26 25 23 31 37 37 33 25 19 13 12 4 0 0 0 0 0 0 0 0 0 0 0 0 0 0 0 0 0 0 0 0 0 0 0 0 0 0 0 0 0 0 0 0 0 0 0 0 0 0 0 0 0 1 4 5 3 1 0 0 0 3 8 8 8 7 0 0 3 5 0 0 0 0 0 0 0 0 0 0 0 0 0 0 0 0 0 0 0 0 15 21 22 23 22 28 37 37 35 27 19 15 11 5 0 0 0 0 0 0 0 0 0 0 0 0 0 0 0 0 0 0 0 0 0 0 0 0 0 0 0 0 0 0 0 0 0 0 0 0 0 0 0 0 0 0 0 0 0 1 0 0 1 3 7 8 9 2 0 0 5 2 0 0 0 0 0 0 0 0 0 0 0 0 0 0 0 0 0 0 0 0 1 13 15 18 25 26 36 37 34 27 20 16 10 7 0 0 0 0 0 0 0 0 0 0 0 0 0 0 0 0 0 0 0 0 0 0 0 0 0 0 0 0 0 0 0 0 0 0 0 0 0 0 0 0 0 0 0 0 3 5 3 3 2 5 6 7 8 0 1 2 4 0 0 0 0 0 0 0 0 0 0 0 0 0 0 0 0 0 0 0 0 0 0 6 9 13 25 25 32 33 30 24 23 17 13 8 2 0 0 0 0 0 4 6 9 9 9 8 6 4 0 0 0 0 0 0 0 0 0 0 0 0 0 0 0 0 0 0 0 0 0 0 0 0 0 0 0 0 0 2 7 8 8 5 4 5 6 7 4 1 2 4 5 0 0 0 0 0 0 0 0 0 0 0 0 0 0 0 0 0 0 0 0 0 0 2 7 11 22 24 27 30 26 23 22 19 14 10 7 5 4 11 19 22 24 25 24 23 23 20 23 19 13 13 11 9 9 4 4 0 0 0 0 0 0 0 0 0 0 0 0 0 0 0 0 0 0 0 0 0 3 9 10 11 9 7 5 6 6 7 4 0 3 6 2 0 0 0 0 0 0 0 0 0 0 0 0 0 0 0 0 0 0 0 0 0 0 0 4 9 17 25 25 28 25 22 23 20 16 12 9 11 14 23 30 33 35 34 31 29 25 25 26 25 22 21 20 18 13 13 12 10 6 1 0 0 0 0 0 0 0 0 0 0 1 2 3 3 3 4 4 6 8 12 13 12 10 8 5 6 8 7 3 0 3 8 0 0 0 0 0 0 0 0 0 0 0 0 0 0 0 0 0 0 0 0 0 0 0 0 1 5 14 25 24 27 25 20 24 21 17 15 12 16 20 26 34 36 37 37 32 32 31 27 26 22 21 19 19 16 12 13 9 5 3 0 0 0 0 0 0 0 0 0 0 3 9 11 13 13 10 10 11 10 11 13 13 13 11 8 5 5 7 7 1 2 4 6 0 0 0 0 0 0 0 0 0 0 0 0 0 0 0 0 0 0 0 0 0 0 0 0 0 2 8 20 24 24 25 20 23 21 17 17 16 19 24 28 34 36 37 35 32 29 28 26 25 19 18 12 11 10 8 5 4 0 0 0 0 0 0 0 0 0 0 0 2 9 11 16 18 17 15 15 12 12 11 12 10 12 10 8 5 4 6 7 1 0 4 0 0 0 0 0 0 0 0 0 0 0 0 0 0 0 0 0 0 0 0 0 0 0 0 0 0 1 3 16 21 21 23 20 19 20 19 18 18 20 24 27 30 33 34 32 29 26 25 22 19 15 11 7 2 0 0 0 0 0 0 0 0 0 0 0 0 0 0 1 5 9 14 17 18 19 16 15 12 10 9 9 9 10 9 7 4 2 5 7 0 2 0 0 0 0 0 0 0 0 0 0 0 0 0 0 0 0 0 0 0 0 0 0 0 0 0 0 0 0 0 13 22 20 19 18 16 21 19 17 16 20 21 24 27 29 30 27 25 21 19 18 13 7 3 0 0 0 0 0 0 0 0 0 0 0 0 0 0 0 0 3 8 10 14 15 16 16 13 12 9 7 6 5 8 8 8 5 1 3 6 7 0 1 0 0 0 0 0 0 0 0 0 0 0 0 0 0 0 0 0 0 0 0 0 0 0 0 0 0 0 0 0 10 19 21 18 16 15 19 18 17 15 17 18 18 21 21 23 21 18 16 13 9 5 1 0 0 0 0 0 0 0 0 0 0 0 0 0 0 0 1 2 6 8 8 13 13 13 12 9 8 5 4 4 5 6 7 6 5 3 4 7 7 0 1 0 0 0 0 0 0 0 0 0 0 0 0 0 0 0 0 0 0 0 0 0 0 0 0 0 0 0 0 0 7 18 19 17 14 12 16 19 17 16 14 14 13 14 16 16 14 12 9 5 2 0 0 0 0 0 0 0 0 0 0 0 0 0 0 0 0 0 0 2 4 5 6 8 8 10 10 7 6 4 3 6 4 6 6 3 3 4 6 7 6 0 3 0 0 0 0 0 0 0 0 0 0 0 0 0 0 0 0 0 0 0 0 0 0 0 0 0 0 0 0 0 3 15 17 17 12 14 16 19 19 17 13 12 11 10 12 11 8 5 3 0 0 0 0 0 0 0 0 0 0 0 0 0 0 0 0 0 0 0 0 0 0 1 3 3 5 7 6 6 5 5 5 5 5 4 5 3 5 5 6 7 5 0 7 3 0 0 0 0 0 0 0 0 0 0 0 0 0 0 0 0 0 0 0 0 0 0 0 0 0 0 0 0 0 12 15 14 12 18 17 18 21 17 14 10 9 8 8 8 3 1 0 0 0 0 0 0 0 0 0 0 0 0 0 0 0 0 0 0 0 0 0 0 0 1 0 4 3 5 4 7 5 6 6 5 6 4 4 4 6 5 6 6 6 2 12 7 0 0 0 0 0 0 0 0 0 0 0 0 0 0 0 0 0 0 0 0 0 0 0 0 0 0 0 0 0 10 12 14 13 18 20 17 21 17 14 9 8 8 7 5 1 0 0 0 0 0 0 0 0 0 0 0 0 0 0 0 0 0 0 0 0 0 0 0 1 3 2 2 3 4 5 7 6 8 6 8 5 5 5 7 8 6 6 7 8 8 14 10 0 0 0 0 0 0 0 0 0 0 0 0 0 0 0 0 0 0 0 0 0 0 0 0 0 0 0 0 0 11 14 15 13 23 20 17 19 17 14 10 9 8 9 4 3 1 0 0 0 0 0 0 0 0 0 0 0 0 0 0 0 0 0 0 0 1 2 1 3 6 5 5 5 4 6 7 8 8 7 9 7 7 7 9 7 6 5 7 11 11 19 13 0 0 0 0 0 0 0 0 0 0 0 0 0 0 0 0 0 0 0 0 0 0 0 0 0 0 0 0 0 14 17 18 16 21 21 17 16 16 13 12 10 9 9 7 6 4 4 0 0 0 0 0 0 0 0 0 0 0 0 0 0 1 3 4 6 5 4 3 7 7 7 6 7 5 5 8 9 8 9 9 6 8 9 10 7 5 6 10 13 15 20 12 0 0 0 0 0 0 0 0 0 0 0 0 0 0 0 0 0 0 0 0 0 0 0 0 0 0 0 0 0 16 22 23 18 22 22 17 15 18 14 12 11 12 9 8 10 8 8 7 5 2 1 0 0 0 0 1 2 3 3 6 7 8 7 9 7 8 6 6 8 8 8 8 7 5 6 8 9 9 10 7 6 7 9 7 4 4 7 11 16 19 20 13 0 0 0 0 0 0 0 0 0 0 0 0 0 0 0 0 0 0 0 0 0 0 0 0 0 0 0 0 0 14 24 26 21 23 23 18 13 18 16 12 11 11 10 10 11 11 11 11 11 10 9 6 5 3 4 5 5 5 7 8 9 10 9 9 6 6 6 6 7 8 7 8 8 6 5 8 7 9 8 7 6 8 7 5 4 5 10 14 20 19 21 16 0 0 0 0 0 0 0 0 0 0 0 0 0 0 0 0 0 0 0 0 0 0 0 0 0 0 0 0 0 14 24 29 27 25 23 17 12 18 17 11 10 10 8 9 10 11 11 12 12 9 9 6 4 0 4 3 3 5 5 5 5 6 5 5 2 3 2 5 3 5 4 6 5 5 5 5 6 5 6 6 6 5 5 2 3 7 11 17 21 18 22 19 0 0 0 0 0 0 0 0 0 0 0 0 0 0 0 0 0 0 0 0 0 0 0 0 0 0 0 0 0 13 22 30 31 30 25 16 12 16 16 12 8 8 8 8 8 6 10 10 9 5 3 1 0 0 0 0 0 0 0 0 0 0 0 0 0 0 0 1 0 2 3 3 5 4 3 3 3 4 6 6 7 4 2 2 5 9 12 17 23 20 23 22 3 0 0 0 0 0 0 0 0 0 0 0 0 0 0 0 0 0 0 0 0 0 0 0 0 0 0 0 0 11 21 28 30 34 29 18 11 16 14 11 7 4 5 4 5 3 5 6 2 0 0 0 0 0 0 0 0 0 0 0 0 0 0 0 0 0 0 0 0 0 0 0 2 2 2 2 1 0 3 5 3 1 1 4 7 11 14 18 23 23 24 23 7 0 0 0 0 0 0 0 0 0 0 0 0 0 0 0 0 0 0 0 0 0 0 0 0 0 0 0 0 9 19 26 30 35 31 23 12 13 14 11 6 2 1 0 2 0 1 0 0 0 0 0 0 0 0 0 0 0 0 0 0 0 0 0 0 0 0 0 0 0 0 0 0 0 0 0 0 0 1 3 0 0 1 5 8 11 14 19 26 23 27 24 7 0 0 0 0 0 0 0 0 0 0 0 0 0 0 0 0 0 0 0 0 0 0 0 0 0 0 0 0 8 15 24 28 35 34 26 15 15 14 11 7 2 0 0 0 0 0 0 0 0 0 0 0 0 0 0 0 0 0 0 0 0 0 0 0 0 0 0 0 0 0 0 0 0 0 0 0 0 0 0 0 0 2 6 8 11 16 20 28 26 29 27 8 0 0 0 0 0 0 0 0 0 0 0 0 0 0 0 0 0 0 0 0 0 0 0 0 0 0 0 0 5 11 21 27 34 33 25 19 19 17 12 9 2 0 0 0 0 0 0 0 0 0 0 0 0 0 0 0 0 0 0 0 0 0 0 0 0 0 0 0 0 0 0 0 0 0 0 0 0 0 0 0 0 5 6 10 13 18 22 30 27 31 27 9 0 0 0 0 0 0 0 0 0 0 0 0 0 0 0 0 0 0 0 0 0 0 0 0 0 0 0 0 2 7 17 26 33 32 27 22 24 21 15 9 5 0 0 0 0 0 0 0 0 0 0 0 0 0 0 0 0 0 0 0 0 0 0 0 0 0 0 0 0 0 0 0 0 0 0 0 0 0 0 0 1 5 8 11 16 19 22 31 31 31 26 9 0 0 0 0 0 0 0 0 0 0 0 0 0 0 0 0 0 0 0 0 0 0 0 0 0 0 0 0 2 5 14 23 29 30 27 23 26 24 19 13 6 0 0 0 0 0 0 0 0 0 0 0 0 0 0 0 0 0 0 0 0 0 0 0 0 0 0 0 0 0 0 0 0 0 0 0 0 0 0 0 3 5 10 14 18 19 22 34 31 31 27 12 0 0 0 0 0 0 0 0 0 0 0 0 0 0 0 0 0 0 0 0 0 0 0 0 0 0 0 0 0 5 11 19 27 28 26 22 27 28 21 15 11 3 0 0 0 0 0 0 0 0 0 0 0 0 0 0 0 0 0 0 0 0 0 0 0 0 0 0 0 0 0 0 0 0 0 0 0 0 0 1 7 8 13 17 19 20 25 32 32 29 28 14 0 0 0 0 0 0 0 0 0 0 0 0 0 0 0 0 0 0 0 0 0 0 0 0 0 0 0 0 0 2 10 16 23 26 25 19 26 27 25 18 14 10 4 0 0 0 0 0 0 0 0 0 0 0 0 0 0 0 0 0 0 0 0 0 0 0 0 0 0 0 0 0 0 0 0 0 0 0 2 5 9 12 15 18 19 22 28 34 31 31 28 14 0 0 0 0 0 0 0 0 0 0 0 0 0 0 0 0 0 0 0 0 0 0 0 0 0 0 0 0 0 0 8 14 22 23 21 18 23 27 24 21 17 14 9 7 0 0 0 0 0 0 0 0 0 0 0 0 0 0 0 0 0 0 0 0 0 0 0 0 0 0 0 0 0 0 0 0 0 2 6 8 12 13 16 17 18 24 28 36 32 32 26 17 0 0 0 0 0 0 0 0 0 0 0 0 0 0 0 0 0 0 0 0 0 0 0 0 0 0 0 0 0 0 6 12 19 21 18 15 20 26 23 21 17 16 16 13 9 3 0 0 0 0 0 0 0 0 0 0 0 0 0 0 0 0 0 0 0 0 0 0 0 0 0 0 0 0 0 1 4 6 9 12 11 15 15 18 19 24 28 34 34 32 27 17 0 0 0 0 0 0 0 0 0 0 0 0 0 0 0 0 0 0 0 0 0 0 0 0 0 0 0 0 0 0 5 11 20 18 16 13 18 23 21 20 17 16 16 15 14 12 5 0 0 0 0 0 0 0 0 0 0 0 0 0 0 0 0 0 0 0 0 0 0 0 0 0 0 0 0 4 7 9 9 12 12 13 15 19 19 24 26 32 36 34 27 16 5 0 0 0 0 0 0 0 0 0 0 0 0 0 0 0 0 0 0 0 0 0 0 0 0 0 0 0 0 0 3 11 19 16 16 13 19 21 19 18 17 16 15 13 13 15 12 8 0 0 0 0 0 0 0 0 0 0 0 0 0 0 0 0 0 0 0 0 0 0 0 0 0 0 1 5 8 9 9 12 11 14 16 20 20 23 28 33 34 37 28 16 2 0 0 0 0 0 0 0 0 0 0 0 0 0 0 0 0 0 0 0 0 0 0 0 0 0 0 0 0 0 3 12 20 17 15 13 18 18 17 16 14 14 12 12 11 12 12 11 7 3 0 0 0 0 0 0 0 0 0 0 0 0 0 0 0 0 0 0 0 0 0 0 0 0 4 5 7 7 9 11 11 14 16 19 19 22 29 30 35 32 31 16 4 0 0 0 0 0 0 0 0 0 0 0 0 0 0 0 