P2
92
112
255
24 25 25 24 25 24 26 24 24 24 26 24 16 8 6 7 0 0 0 0 0 0 0 0 0 0 0 0 0 0 0 0 0 0 0 0 0 0 0 0 0 0 0 0 0 0 0 0 0 0 0 0 0 0 0 0 0 0 0 0 0 0 0 1 15 7 16 23 23 25 25 25 25 25 27 26 24 25 26 25 24 24 24 25 23 25 23 23 24 24 24 24 24 25 25 25 25 24 25 25 24 25 22 15 12 7 3 0 0 0 0 0 0 0 0 0 0 0 0 0 0 0 0 0 0 0 0 0 0 0 0 0 0 0 0 0 0 0 0 0 0 0 0 0 0 0 0 0 0 0 0 0 0 0 0 0 5 12 12 22 23 25 25 26 25 26 27 26 25 25 25 25 25 24 24 25 24 24 22 22 24 23 24 23 24 25 24 24 24 24 24 24 26 24 16 8 5 0 0 0 0 0 0 0 0 0 0 0 0 0 0 0 0 0 0 0 0 0 0 0 0 0 0 0 0 0 0 0 0 0 0 0 0 0 0 0 0 0 0 0 0 0 0 0 0 0 0 0 0 7 11 15 22 26 25 26 25 28 26 27 25 25 26 26 25 25 25 25 24 24 23 23 24 24 24 24 24 25 25 24 25 25 26 26 24 19 10 3 0 0 0 0 0 0 0 0 0 0 0 0 0 0 0 0 0 0 0 0 0 0 0 0 0 0 0 0 0 0 0 0 0 0 0 0 0 0 0 0 0 0 0 0 0 0 0 0 0 0 0 0 0 0 7 10 19 26 24 23 22 24 24 26 24 27 26 25 25 26 25 25 24 24 24 23 24 23 24 24 25 25 25 26 26 25 25 23 20 14 7 0 0 0 0 0 0 0 0 0 0 0 0 0 0 0 0 0 0 0 0 0 0 0 0 0 0 0 0 0 0 0 0 0 0 0 0 0 0 0 0 0 0 0 0 0 0 0 0 0 0 0 0 0 0 0 0 3 13 21 21 22 26 24 25 24 25 26 26 27 26 25 26 25 24 26 24 25 23 23 24 25 24 25 25 25 25 24 20 16 14 6 0 0 0 0 0 0 0 0 0 0 0 0 0 0 0 0 0 0 0 0 0 0 0 0 0 0 0 0 0 0 0 0 0 0 0 0 0 0 0 0 0 0 0 0 0 0 0 0 0 0 0 0 0 0 0 0 0 0 3 10 13 16 19 23 23 25 22 22 25 24 26 26 24 26 25 25 26 24 25 23 24 24 24 25 24 25 22 18 13 12 7 0 0 0 0 0 0 0 0 0 0 0 0 0 0 0 0 0 0 0 0 0 0 0 0 0 0 0 0 0 0 0 0 0 0 0 0 0 0 0 0 0 0 0 0 0 0 0 0 0 0 0 0 0 0 0 0 0 0 0 0 0 0 3 4 7 10 15 17 17 17 18 23 24 25 26 25 25 25 25 25 23 24 24 24 25 24 24 17 11 10 5 0 0 0 0 0 0 0 0 0 0 0 0 0 0 0 0 0 0 0 0 0 0 0 0 0 0 0 0 0 0 0 0 0 0 0 0 0 0 0 0 0 0 0 0 0 0 0 0 0 0 0 0 0 0 0 0 0 0 0 0 0 0 0 0 0 3 6 6 12 14 13 16 19 22 25 27 25 27 25 27 24 24 24 23 25 25 24 17 10 6 4 0 0 0 0 0 0 0 0 0 0 0 0 0 0 0 0 0 0 0 0 0 0 0 0 0 0 0 0 0 0 0 0 0 0 0 0 0 0 0 0 0 0 0 0 0 0 0 0 0 0 0 0 0 0 0 0 0 0 0 0 0 0 0 0 0 0 0 2 0 6 10 13 14 17 19 22 24 25 26 27 26 26 25 25 24 24 25 17 7 4 0 0 0 0 0 0 0 0 0 0 0 0 0 0 0 0 0 0 0 0 0 0 0 0 0 0 0 0 0 0 0 0 0 0 0 0 0 0 0 0 0 0 0 0 0 0 0 0 0 0 0 0 0 0 0 0 0 0 0 0 0 0 0 0 0 0 0 0 0 0 0 0 5 7 14 13 18 21 22 24 23 25 26 26 24 25 24 24 16 7 1 0 0 0 0 0 0 0 0 0 0 0 0 0 0 0 0 0 0 0 0 0 0 0 0 0 0 0 0 0 0 0 0 0 0 0 0 0 0 0 0 0 0 0 0 0 0 0 0 0 0 0 0 0 0 0 0 0 0 0 0 0 0 0 0 0 0 0 0 0 0 0 0 0 0 1 4 8 10 15 23 24 24 25 26 25 24 26 25 20 7 1 0 0 0 0 0 0 0 0 0 0 0 0 0 0 0 0 0 0 0 0 0 0 0 0 0 0 0 0 0 0 0 0 0 0 0 0 0 0 0 0 0 0 0 0 0 0 0 0 0 0 0 0 0 0 0 0 0 0 0 0 0 0 0 0 0 0 0 0 0 0 0 0 0 0 0 0 0 0 5 5 17 21 23 25 26 27 26 25 25 12 1 0 0 0 0 0 0 0 0 0 0 0 0 0 0 0 0 0 0 0 0 0 0 0 0 0 0 0 0 0 0 0 0 0 0 0 0 0 0 0 0 0 0 0 0 0 0 0 0 0 0 0 0 0 0 0 0 0 0 0 0 0 0 0 0 0 0 0 0 0 0 0 0 0 0 0 0 0 0 0 0 4 13 16 19 24 25 28 26 25 24 8 0 0 0 0 0 0 0 0 0 0 0 0 0 0 0 0 0 0 0 0 0 0 0 0 0 0 0 0 0 0 0 0 0 0 0 0 0 0 0 0 0 0 0 0 0 0 0 0 0 0 0 0 0 0 0 0 0 0 0 0 0 0 0 0 0 0 0 0 0 0 0 0 0 0 0 0 0 0 0 0 0 0 4 17 18 20 23 25 28 26 25 1 0 0 0 0 0 0 0 0 0 0 0 0 0 0 0 0 0 0 0 0 0 0 0 0 0 0 0 0 0 0 0 0 0 0 0 0 0 0 0 0 0 0 0 0 0 0 0 0 0 0 0 0 0 0 0 0 0 0 0 0 0 0 0 0 0 0 0 0 0 0 0 0 0 0 0 0 0 0 0 0 0 0 0 2 19 20 22 23 27 27 26 0 0 0 0 0 0 0 0 0 0 0 0 0 0 0 0 0 0 0 0 0 0 0 0 0 0 0 0 0 0 0 0 0 0 0 0 0 0 0 0 0 0 0 0 0 0 0 0 0 0 0 0 0 0 0 0 0 0 0 0 0 0 0 0 0 0 0 0 0 0 0 0 0 0 0 0 0 0 0 0 0 0 0 0 0 4 17 24 22 24 28 28 0 0 0 0 0 0 0 0 0 0 0 0 0 0 0 0 0 0 0 0 0 0 0 0 0 0 0 0 0 0 0 0 0 0 0 0 0 0 0 0 0 0 0 0 0 0 0 0 0 0 0 0 0 0 0 0 0 0 0 0 0 0 0 0 0 0 0 0 0 0 0 0 0 0 0 0 0 0 0 0 0 0 0 0 0 4 5 17 25 24 25 27 0 0 0 0 0 0 0 0 0 0 0 0 0 0 0 0 0 0 0 0 0 0 0 0 0 0 0 0 0 0 0 0 0 0 0 0 0 0 0 0 0 0 0 0 0 0 0 0 0 0 0 0 0 0 0 0 0 0 0 0 0 0 0 0 0 0 0 0 0 0 0 0 0 0 0 0 0 0 0 0 0 0 0 0 0 3 6 8 22 24 25 27 0 0 0 0 0 0 0 0 0 0 0 0 0 0 0 0 0 0 0 0 0 0 0 0 0 0 0 0 0 0 0 0 0 0 0 0 0 0 0 0 0 0 0 0 0 0 0 0 0 0 0 0 0 0 0 0 0 0 0 0 0 0 0 0 0 0 0 0 0 0 0 0 0 0 0 0 0 0 0 0 0 0 0 0 0 0 4 6 16 23 24 27 0 0 0 0 0 0 0 0 0 0 0 0 0 0 0 0 0 0 0 0 0 0 0 0 0 0 0 0 0 0 0 0 0 0 0 0 0 0 0 0 0 0 0 0 0 0 0 0 0 0 0 0 0 0 0 0 0 0 0 0 0 2 2 0 0 0 0 0 0 0 0 0 0 0 0 0 0 0 0 0 0 0 0 0 0 0 0 5 11 21 21 25 0 0 0 0 0 0 0 0 0 0 0 0 0 0 0 0 0 0 0 0 0 0 0 0 0 0 0 0 0 0 0 0 0 0 0 0 0 0 0 0 0 0 0 0 0 0 0 0 0 0 0 0 0 0 0 1 8 10 7 10 11 12 13 5 0 0 0 0 0 0 0 0 0 0 0 0 0 0 0 0 0 0 0 0 0 0 0 0 10 17 23 19 0 0 0 0 0 0 0 0 0 0 0 0 0 0 0 0 0 0 0 0 0 0 0 0 0 0 0 0 0 0 0 0 0 0 0 0 0 0 0 0 0 0 0 0 0 0 0 0 0 0 0 0 0 4 9 12 19 21 20 21 24 22 23 13 8 8 2 0 0 0 0 0 0 0 0 0 0 0 0 0 0 0 0 0 0 0 0 0 4 15 20 20 0 0 0 0 0 0 0 0 0 0 0 0 0 0 0 0 0 0 0 0 0 0 0 0 0 0 0 0 0 0 0 0 0 0 0 0 0 0 0 0 0 0 0 0 0 0 0 0 0 0 0 0 4 12 19 22 25 28 31 34 36 30 27 23 15 15 13 1 0 0 0 0 0 0 0 0 0 0 0 0 0 0 0 0 0 0 0 0 0 13 18 17 0 0 0 0 0 0 0 0 0 0 0 0 0 0 0 0 0 0 0 0 0 0 0 0 0 0 0 0 0 0 0 0 0 0 0 0 0 0 0 0 0 0 0 0 0 0 0 0 0 0 0 5 14 19 26 29 30 30 36 37 39 37 30 25 17 14 15 13 1 0 0 0 0 0 0 0 0 0 0 0 0 0 0 0 0 0 0 0 0 9 17 16 0 0 0 0 0 0 0 0 0 0 0 0 0 0 0 0 0 0 0 0 0 0 0 0 0 0 0 0 0 0 0 0 0 0 0 0 0 0 0 0 0 0 0 0 0 0 0 0 0 0 3 13 19 23 29 31 33 35 37 38 38 37 32 26 22 14 15 18 8 5 1 0 0 0 0 0 0 0 0 0 0 0 0 0 0 0 0 0 0 2 14 19 0 0 0 0 0 0 0 0 0 0 0 0 0 0 0 0 0 0 0 0 0 0 0 0 0 0 0 0 0 0 0 0 0 0 0 0 0 0 0 0 0 0 0 0 0 0 0 0 0 0 9 15 21 25 26 30 31 34 33 32 34 36 34 29 27 17 11 16 12 6 4 0 0 0 0 0 0 0 0 0 0 0 0 0 0 0 0 0 0 2 7 20 0 0 0 0 0 0 0 0 0 0 0 0 0 0 0 0 0 0 0 0 0 0 0 0 0 0 0 0 0 0 0 0 0 0 0 0 0 0 0 0 0 0 0 0 0 0 0 0 0 2 9 13 18 23 25 28 30 32 33 33 34 35 33 33 28 22 10 8 10 10 7 2 0 0 0 0 0 0 0 0 0 0 0 0 0 0 0 0 0 3 3 15 0 0 0 0 0 0 0 0 0 0 0 0 0 0 0 0 0 0 0 0 0 0 0 0 0 0 0 0 0 0 0 0 0 0 0 0 0 0 0 0 0 0 0 0 0 0 0 0 0 4 10 14 19 21 26 25 25 25 26 28 31 32 33 33 29 21 14 6 10 14 11 5 0 0 0 0 0 0 0 0 0 0 0 0 0 0 0 0 0 4 4 6 0 0 0 0 0 0 0 0 0 0 0 0 0 0 0 0 0 0 0 0 0 0 0 0 0 0 0 0 0 0 0 0 0 0 0 0 0 0 0 0 0 0 0 0 0 0 0 0 4 7 12 15 18 21 23 24 25 26 28 30 32 32 30 32 32 26 21 14 11 16 13 8 0 0 0 0 0 0 0 0 0 0 0 0 0 0 0 0 0 3 6 1 0 0 0 0 0 0 0 0 0 0 0 0 0 0 0 0 0 0 0 0 0 0 0 0 0 0 0 0 0 0 0 0 0 0 0 0 0 0 0 0 0 0 0 0 0 0 0 1 5 10 12 15 17 20 23 23 24 25 25 23 24 25 24 28 29 28 27 21 16 19 16 10 3 0 0 0 0 0 0 0 0 0 0 0 0 0 0 0 0 0 7 0 0 0 0 0 0 0 0 0 0 0 0 0 0 0 0 0 0 0 0 0 0 0 0 0 0 0 0 0 0 0 0 0 0 0 0 0 0 0 0 0 0 0 0 0 0 0 0 4 7 11 13 14 17 19 22 22 23 24 22 21 22 21 19 22 21 26 28 24 20 21 18 15 9 0 0 0 0 0 0 0 0 0 0 0 0 0 0 0 0 0 2 4 0 0 0 0 0 0 0 0 0 0 0 0 0 0 0 0 0 0 0 0 0 0 0 0 0 0 0 0 0 0 0 0 0 0 0 0 0 0 0 0 0 0 0 0 0 0 3 6 8 10 13 14 17 19 19 20 20 19 18 15 14 12 12 13 14 17 22 24 23 25 22 19 10 2 0 0 0 0 0 0 0 0 0 0 0 0 0 0 0 0 0 4 0 0 0 0 0 0 0 0 0 0 0 0 0 0 0 0 0 0 0 0 0 0 0 0 0 0 0 0 0 0 0 0 0 0 0 0 0 0 0 0 0 0 0 0 0 4 4 7 8 10 13 13 17 18 16 16 15 13 11 10 9 8 8 6 9 11 14 17 20 28 27 24 13 4 0 0 0 0 0 0 0 0 0 0 0 0 0 0 0 0 0 0 0 0 0 0 0 0 0 0 0 0 0 0 0 0 0 0 0 0 0 0 0 0 0 0 0 0 0 0 0 0 0 0 0 0 0 0 0 0 0 0 0 0 0 1 5 4 6 7 8 10 12 14 16 12 9 11 9 7 7 6 5 5 7 8 9 12 11 11 17 23 30 27 18 5 0 0 0 0 0 0 0 0 0 0 0 0 0 0 0 0 0 0 0 0 0 0 0 0 0 0 0 0 0 0 0 0 0 0 0 0 0 0 0 0 0 0 0 0 0 0 0 0 0 0 0 0 0 0 0 0 0 0 0 3 5 8 9 8 8 9 11 12 12 12 10 9 7 5 4 4 1 3 5 9 12 14 16 18 19 17 16 16 25 29 22 10 0 0 0 0 0 0 0 0 0 0 0 0 0 0 0 0 0 0 0 0 0 0 0 0 0 0 0 0 0 0 0 0 0 0 0 0 0 0 0 0 0 0 0 1 3 2 2 0 0 6 8 10 11 10 9 10 11 13 13 13 13 11 14 14 13 14 16 14 11 7 8 1 3 0 1 2 0 5 12 15 16 21 26 26 27 28 24 22 20 26 25 14 3 0 0 0 0 0 0 0 0 0 0 0 0 0 0 0 0 0 0 0 0 0 0 0 0 0 0 0 0 0 0 0 0 0 0 0 0 0 0 0 0 2 6 9 12 12 14 14 15 18 17 17 19 20 21 21 22 23 20 19 19 18 18 18 17 17 17 15 9 4 4 0 0 0 1 1 3 9 15 18 22 28 33 34 33 35 34 32 23 21 25 16 4 0 0 0 0 0 0 0 0 0 0 0 0 0 0 0 0 0 0 0 0 0 0 0 0 0 0 0 0 0 0 0 0 0 0 0 0 0 0 0 0 8 12 15 18 22 26 25 24 26 23 24 26 29 29 29 29 29 26 25 24 23 23 20 20 21 17 14 8 2 1 0 0 1 3 3 7 13 19 23 25 30 31 34 36 37 38 38 32 22 25 18 5 0 0 0 0 0 0 0 0 0 0 0 0 0 0 0 0 0 0 0 0 0 0 0 0 0 0 0 0 0 0 0 0 0 0 0 0 0 0 0 4 11 17 22 26 28 28 29 30 31 28 29 31 31 30 29 29 29 28 25 24 22 22 20 20 21 18 11 8 3 2 1 2 3 4 9 11 14 22 24 22 25 27 26 31 34 33 36 35 30 23 20 10 0 0 0 0 0 0 0 0 0 0 0 0 0 0 0 0 0 0 0 0 0 0 0 0 0 0 0 0 0 0 0 0 0 0 0 0 0 0 1 11 16 21 24 28 29 30 29 29 31 29 30 29 29 28 27 24 24 23 22 20 21 20 19 19 20 18 8 8 3 2 2 3 3 5 11 12 16 19 19 17 16 18 18 22 23 25 27 32 27 25 21 15 3 0 0 0 0 0 0 0 0 0 0 0 0 0 0 0 0 0 0 0 0 0 0 0 0 0 0 0 0 0 0 0 0 0 0 0 0 0 8 15 20 18 19 21 21 25 26 22 22 19 19 17 17 16 12 7 10 11 12 12 15 15 12 13 14 14 6 4 1 1 3 3 5 6 9 7 6 6 5 5 6 6 2 4 7 8 13 20 24 25 20 20 7 0 0 0 0 0 0 0 0 0 0 0 0 0 0 0 0 0 0 0 0 0 0 0 0 0 0 0 0 0 0 0 0 0 0 0 0 3 6 9 10 11 11 12 9 6 8 5 0 0 0 0 0 0 0 0 0 0 0 0 0 4 1 6 7 8 2 1 0 0 1 3 0 0 0 0 0 0 0 0 0 0 0 0 0 0 0 3 10 17 15 13 8 5 0 0 0 0 0 0 0 0 0 0 0 0 0 0 0 0 0 0 0 0 0 0 0 0 0 0 0 0 0 0 0 0 0 0 0 0 0 0 0 0 0 0 0 0 0 0 0 0 0 0 0 0 0 0 0 0 0 0 0 0 0 0 2 2 0 0 0 0 2 0 0 0 0 0 0 0 0 0 0 0 0 0 0 0 0 0 0 0 1 3 2 3 1 0 0 0 0 0 0 0 0 0 0 0 0 0 0 0 0 0 0 0 0 0 0 0 0 0 0 0 0 0 0 0 0 0 0 0 0 0 0 0 0 0 0 0 0 0 0 0 0 0 0 0 0 0 0 0 0 0 0 0 0 0 0 0 0 0 0 0 0 0 0 0 0 0 0 0 0 0 0 0 0 0 0 0 0 0 0 0 0 0 0 1 0 0 0 0 0 0 0 0 0 0 0 0 0 0 0 0 0 0 0 0 0 0 0 0 0 0 0 0 0 0 0 0 0 0 0 0 0 0 0 0 0 0 0 0 0 0 0 0 0 0 0 0 0 0 0 0 0 0 0 0 0 0 0 0 0 0 0 0 0 0 0 0 0 0 0 0 0 0 0 0 0 0 0 0 0 0 0 0 0 0 0 0 0 0 0 0 0 0 0 0 0 0 0 0 0 0 0 0 0 0 0 0 0 0 0 0 0 0 0 0 0 0 0 0 0 0 0 0 0 0 0 0 0 0 0 0 0 0 0 0 0 0 0 0 0 0 0 0 0 0 0 0 0 0 0 0 0 0 0 0 0 0 0 0 0 0 0 0 0 0 0 0 0 0 0 0 0 0 0 0 0 0 0 0 0 0 0 0 0 0 0 0 0 0 0 0 0 0 0 0 0 0 0 0 0 0 0 0 0 0 0 0 0 0 0 0 0 0 0 0 0 0 0 0 0 0 0 0 0 0 0 0 0 0 0 0 0 0 0 0 0 0 0 0 0 0 0 0 0 0 0 0 0 0 0 0 0 0 0 0 0 0 0 0 0 0 0 0 0 0 0 0 0 0 0 0 2 0 0 0 0 0 0 0 0 0 0 0 0 0 0 0 0 0 0 0 0 0 0 0 0 0 0 0 0 0 0 0 0 0 0 0 0 0 0 0 0 0 0 0 0 0 0 0 0 0 0 0 0 0 0 0 0 0 0 0 0 0 0 0 0 0 0 0 0 0 0 0 0 0 0 0 0 0 0 0 0 0 0 0 0 0 0 0 0 0 0 0 2 0 0 0 0 0 0 0 0 0 0 0 0 0 0 0 0 0 0 0 0 0 0 0 0 0 0 0 0 0 0 0 0 0 0 0 0 0 0 0 0 0 0 0 0 0 0 0 0 0 0 0 0 0 0 0 0 0 0 0 0 1 10 2 0 0 0 0 0 0 0 0 0 0 0 0 0 0 0 0 0 0 0 0 0 0 0 1 4 8 7 2 3 1 0 0 0 0 0 0 0 0 0 0 0 0 0 0 0 0 0 0 0 0 0 0 0 0 0 0 0 0 0 0 0 0 0 0 0 0 0 0 0 0 0 0 0 0 0 0 0 0 0 0 0 0 0 0 0 0 0 0 0 0 3 0 0 0 0 0 0 0 0 0 0 0 0 0 0 0 0 0 0 0 0 0 9 0 3 5 21 18 6 3 2 0 0 0 0 0 0 0 0 0 0 0 0 0 0 0 0 0 0 0 0 0 0 0 0 0 0 0 0 0 0 0 0 0 0 0 0 0 0 0 0 0 0 0 0 0 0 0 0 0 0 0 0 0 0 0 0 0 0 0 0 0 0 5 1 1 0 0 0 0 0 0 0 0 0 0 0 0 0 0 0 2 24 6 6 1 6 11 24 27 7 0 0 0 0 0 0 0 0 0 0 0 0 0 0 0 0 0 0 0 0 0 0 0 0 0 0 0 0 0 0 0 0 0 0 0 0 0 0 0 0 0 0 0 0 0 0 0 0 0 0 0 0 0 0 0 0 0 0 0 0 0 0 0 4 13 19 16 9 1 0 0 0 0 0 0 0 0 0 0 0 0 0 0 10 0 0 7 7 7 15 13 0 0 0 0 0 0 0 0 0 0 0 0 0 0 0 0 0 0 0 0 0 0 0 0 0 0 0 0 0 0 0 0 0 0 0 0 0 0 0 0 0 0 0 0 0 0 0 0 0 0 0 0 0 0 0 0 0 0 0 0 0 0 0 0 2 8 5 6 6 0 0 7 10 0 0 0 0 0 0 0 0 0 0 19 14 24 14 4 11 2 11 14 0 0 0 0 0 0 0 0 0 0 0 0 0 0 0 0 0 0 0 0 0 0 0 0 0 0 0 0 0 0 0 0 0 0 0 0 0 0 0 0 0 0 0 0 0 0 0 0 0 0 5 13 9 0 0 0 0 0 0 0 0 0 0 3 11 15 14 1 11 0 7 7 10 1 1 0 0 3 3 0 0 0 11 23 26 18 14 0 4 12 14 16 0 0 0 0 7 0 0 0 0 0 0 0 0 0 0 0 0 0 0 0 0 0 0 0 0 0 0 0 0 0 0 0 0 0 0 0 0 0 0 0 0 0 0 0 5 5 0 3 4 5 7 14 8 0 0 0 0 0 0 0 0 0 2 17 13 22 26 0 7 9 10 16 19 11 11 3 2 15 10 0 0 8 25 15 27 25 11 3 10 17 21 19 0 0 0 0 1 0 0 0 0 0 0 0 0 0 0 0 2 0 0 0 0 0 0 0 0 0 0 0 0 0 0 0 0 0 0 0 0 0 6 11 12 10 11 15 14 11 3 2 2 0 0 3 0 0 0 0 0 0 0 0 0 0 2 13 12 24 28 19 11 19 12 25 31 25 16 14 10 16 10 0 6 14 2 10 18 17 11 13 14 21 23 22 0 0 0 0 0 0 0 0 0 0 3 0 0 0 0 0 9 0 0 0 1 0 0 0 0 0 0 0 0 0 0 0 0 0 0 0 0 8 12 14 17 19 18 16 15 14 11 7 4 1 2 0 0 0 0 1 1 0 0 0 8 0 10 18 23 30 31 35 7 25 16 28 34 33 22 25 18 19 15 11 10 13 14 19 21 19 17 16 18 21 26 26 6 2 0 0 0 0 0 0 0 0 4 0 1 0 0 6 14 0 0 0 2 0 0 0 0 0 0 0 0 0 0 0 0 0 0 0 1 14 16 16 15 14 18 15 12 13 11 13 11 9 10 9 8 11 14 15 8 0 0 1 0 0 15 18 26 28 30 30 9 25 20 21 34 34 30 31 26 25 29 27 28 32 33 31 31 29 27 27 27 28 30 28 15 0 0 0 5 0 0 7 0 3 9 4 15 11 7 8 18 2 0 3 3 0 0 0 0 0 0 0 0 0 0 0 0 0 0 0 7 16 22 24 17 13 11 10 11 12 11 15 15 14 17 16 13 16 20 15 6 0 0 7 0 6 21 28 30 33 37 28 21 17 27 16 33 30 30 29 30 28 33 36 37 41 40 39 36 34 32 33 35 34 29 28 21 0 0 0 8 0 2 9 2 2 13 8 22 14 15 10 22 0 0 0 0 0 0 0 0 0 0 0 0 0 0 0 0 0 0 0 3 15 19 22 23 18 16 16 15 16 16 19 19 19 21 18 18 22 20 13 4 0 5 0 0 11 23 32 31 38 41 28 27 11 24 17 23 23 26 22 29 28 31 31 31 32 30 30 32 33 32 34 34 29 27 27 18 0 0 0 4 2 10 1 0 1 13 10 22 18 19 16 21 0 0 0 0 0 0 0 0 0 0 0 0 0 0 0 0 0 0 0 3 11 17 21 22 22 21 20 21 21 23 23 24 22 24 24 22 21 18 11 2 0 4 0 1 12 26 31 34 39 41 35 29 18 15 20 17 18 21 24 23 28 30 34 32 31 32 30 31 31 33 33 30 26 23 22 9 2 0 0 1 5 14 2 3 11 14 9 24 19 19 17 22 0 0 0 0 0 0 0 0 0 0 0 0 0 0 0 0 0 0 0 0 4 10 15 18 18 19 20 20 23 22 21 21 23 23 23 21 19 16 8 0 0 0 0 2 13 24 33 38 38 42 40 26 24 14 14 20 22 16 25 23 25 31 33 32 32 30 29 26 25 28 27 24 22 19 16 3 1 0 0 0 9 14 14 7 13 13 12 24 18 18 20 22 5 0 0 4 0 0 0 0 0 3 0 0 0 0 0 0 0 0 0 0 0 7 10 11 11 13 16 18 18 19 17 17 19 18 17 16 18 13 0 0 0 0 0 3 10 26 38 39 38 41 38 26 22 16 8 10 26 14 16 25 19 26 31 27 29 26 24 23 23 25 23 21 19 13 9 0 0 0 0 0 13 12 20 15 16 11 18 26 14 19 18 23 8 0 1 5 0 0 0 0 0 0 0 0 0 0 0 0 0 0 0 0 0 3 4 4 6 12 13 14 14 13 13 12 15 16 16 15 16 4 0 0 0 0 0 4 14 28 38 37 38 40 38 29 17 15 10 3 12 18 6 17 18 18 24 23 21 20 18 18 17 21 19 18 14 10 5 0 0 0 2 1 9 8 19 25 21 13 23 23 15 20 17 23 9 3 4 9 8 7 1 0 0 0 0 0 0 0 0 0 0 0 0 0 0 0 3 3 3 9 11 10 11 10 13 14 16 18 17 11 5 0 0 0 0 0 1 6 16 31 36 37 35 40 35 28 17 14 4 3 2 8 8 6 11 14 18 18 14 9 12 12 15 17 18 15 11 7 7 1 4 0 0 4 8 8 16 26 25 18 19 20 19 17 17 23 13 5 6 15 17 11 12 0 0 0 0 0 0 0 0 0 0 0 0 0 0 0 0 0 4 6 9 10 12 12 13 13 13 14 13 11 11 4 0 0 1 0 5 8 10 24 31 32 34 34 28 21 18 8 0 0 0 0 1 5 7 13 12 10 8 7 9 5 9 11 15 15 12 9 7 1 0 0 0 12 3 5 20 20 21 14 15 16 17 14 18 22 15 11 5 13 18 22 15 7 0 0 0 0 0 0 0 0 0 0 0 0 0 0 0 0 0 0 0 0 1 6 9 11 11 15 14 9 0 0 0 0 0 0 0 0 0 12 22 23 26 25 19 19 10 2 0 0 0 0 0 0 3 5 9 10 0 0 0 1 0 0 2 3 4 3 3 0 0 0 6 6 1 8 14 23 19 12 14 11 13 12 18 20 13 14 4 8 18 22 13 6 0 0 0 0 0 0 0 0 0 0 0 0 0 0 0 0 0 0 0 0 0 0 0 0 0 0 0 0 0 0 0 0 0 0 0 0 0 0 7 11 15 15 14 9 2 0 0 0 0 0 0 0 0 0 0 0 0 0 0 0 0 0 0 0 0 0 0 0 0 0 2 0 0 5 16 22 14 11 11 6 9 14 17 19 11 11 9 6 17 18 7 0 0 0 0 0 0 0 0 0 0 0 0 0 0 0 0 0 0 0 0 0 0 0 0 0 0 0 0 0 0 0 0 0 0 0 0 0 0 0 0 0 0 4 5 3 0 0 0 0 0 0 0 0 0 0 0 0 0 0 0 0 0 0 0 0 0 0 0 0 1 0 0 0 0 5 18 15 11 11 7 3 9 11 17 18 19 15 7 8 9 8 0 0 0 0 0 0 0 0 0 0 0 0 0 0 0 0 0 0 0 0 0 0 0 0 0 0 0 0 0 0 0 0 0 0 0 0 0 0 0 0 0 0 0 0 0 0 0 0 0 0 0 0 0 0 0 0 0 0 0 0 0 0 0 0 0 0 0 0 0 0 0 0 0 0 0 12 14 8 8 7 0 6 7 11 17 17 21 18 10 5 0 0 0 0 0 0 0 0 0 0 0 0 0 0 0 0 0 0 0 0 0 0 0 0 0 0 0 0 0 0 0 0 0 0 0 0 0 0 0 0 0 0 0 0 0 0 0 0 0 0 0 0 0 0 0 0 0 0 0 0 0 0 0 0 0 0 0 0 0 0 0 0 0 0 0 0 0 11 9 3 2 0 0 5 7 12 15 16 18 16 7 5 0 0 0 0 0 0 0 0 0 0 0 0 0 0 0 0 0 0 0 0 0 0 0 0 0 0 0 0 0 0 0 0 0 0 0 0 0 0 0 0 0 0 0 0 0 0 0 0 0 0 0 0 0 0 0 0 0 0 0 0 0 0 0 0 0 0 0 0 0 0 0 0 0 0 0 0 0 7 8 0 0 0 0 3 7 13 14 15 17 13 12 6 2 2 2 0 0 0 0 0 0 0 0 0 0 0 0 0 0 0 0 0 0 0 0 0 0 0 0 0 0 0 0 0 0 0 1 0 0 0 0 0 0 0 0 0 0 0 0 0 0 0 0 0 0 0 0 0 0 0 0 0 0 0 0 0 0 0 0 0 0 1 5 1 0 0 0 0 0 7 7 0 0 0 0 3 7 14 13 15 17 15 12 8 2 0 1 0 0 0 0 0 0 0 0 0 0 0 0 0 0 0 0 0 0 0 0 0 0 0 0 0 0 0 0 0 0 0 0 0 0 0 0 0 0 0 0 0 0 0 0 0 0 0 0 0 0 0 0 0 2 2 1 0 3 2 0 0 0 0 5 3 0 5 7 1 0 0 0 0 0 3 0 0 0 0 0 3 8 12 12 15 18 16 12 7 1 0 0 0 0 0 0 0 0 0 0 0 0 0 0 0 0 0 0 0 0 0 0 0 0 0 0 0 0 0 1 1 3 2 0 0 0 0 0 0 0 0 0 0 0 0 0 0 0 0 0 0 0 0 0 0 5 7 7 2 5 4 3 0 0 5 10 2 0 6 10 4 0 0 0 0 0 0 0 0 0 0 0 3 8 12 12 12 17 17 16 10 3 0 0 0 0 0 0 0 0 0 0 0 0 0 0 0 0 0 0 0 0 0 0 0 3 7 3 0 1 6 5 5 7 6 0 0 0 0 0 0 0 0 0 0 0 3 3 6 2 0 0 0 0 5 3 3 6 8 6 2 2 1 0 0 0 9 14 5 0 10 10 5 0 0 0 0 0 0 0 0 0 0 0 5 8 12 12 11 18 17 16 14 6 2 0 0 0 0 0 0 0 0 0 0 0 0 0 0 0 0 0 0 0 0 0 5 10 10 5 1 6 9 7 7 8 9 6 0 0 0 0 0 1 0 3 9 16 21 20 19 15 15 8 6 6 5 7 4 3 6 3 0 0 0 0 2 6 13 17 10 0 13 13 3 0 0 0 0 0 0 0 0 0 0 1 6 7 11 11 10 17 18 18 15 10 5 0 0 0 0 0 0 0 0 0 0 0 0 0 0 0 0 0 0 0 0 0 9 15 12 5 6 11 12 8 10 9 12 13 9 6 8 11 12 18 21 23 24 29 36 31 30 27 23 18 9 6 4 4 0 0 1 1 0 0 0 2 5 9 14 16 9 4 15 13 4 0 0 0 0 0 0 0 0 0 0 2 4 9 10 9 10 18 18 18 16 13 7 2 0 0 0 0 0 0 0 0 0 0 0 0 0 0 0 0 0 0 0 3 13 19 13 6 9 12 11 11 12 14 16 19 15 20 21 24 26 30 36 38 38 35 38 38 32 32 25 18 10 3 2 0 1 0 1 4 1 3 0 4 10 15 17 18 11 10 18 13 6 2 0 0 0 0 0 0 0 0 0 2 7 8 11 8 10 17 19 18 17 14 11 5 0 0 0 0 0 0 0 0 0 0 0 0 0 0 0 0 0 0 0 6 14 18 13 10 10 11 12 11 13 15 16 15 17 17 22 25 24 27 31 30 28 27 25 28 26 28 24 15 9 3 3 5 2 2 4 8 5 4 8 9 19 22 18 22 15 15 19 16 7 5 3 0 0 0 0 2 0 0 0 5 8 9 8 9 8 18 18 18 17 17 11 9 3 0 0 0 0 0 0 0 0 0 0 0 0 0 0 0 0 0 0 6 15 18 16 12 15 12 9 6 6 6 7 5 3 2 4 8 7 11 14 15 15 15 15 15 16 17 14 8 6 4 8 6 7 2 4 8 6 6 6 11 22 24 21 21 18 19 21 15 8 7 7 0 0 0 2 7 5 0 5 5 9 8 9 8 9 18 18 18 18 17 15 11 6 0 0 0 0 0 0 0 0 0 0 0 0 0 0 0 0 0 4 8 12 16 20 15 18 15 10 0 0 0 0 0 0 0 0 0 0 0 0 2 7 9 14 15 13 10 6 3 2 0 3 2 0 0 4 6 3 3 4 11 21 22 20 23 20 20 21 15 9 11 7 0 0 0 7 13 8 2 6 8 7 9 8 9 10 18 18 18 18 18 15 11 9 3 0 0 0 0 0 0 0 0 0 0 0 0 0 0 0 0 8 9 9 15 20 18 18 14 8 0 0 0 0 0 0 0 0 0 0 0 2 11 10 12 14 17 17 13 6 6 5 2 0 0 0 0 0 0 0 0 3 12 19 23 22 24 23 20 20 14 12 14 7 1 1 5 11 15 10 4 7 8 9 8 7 8 8 18 19 19 18 18 17 12 10 5 0 0 0 0 0 0 0 0 0 0 0 0 0 0 0 0 9 11 12 15 21 21 21 20 12 0 0 0 0 0 0 0 0 3 8 10 13 26 25 25 29 29 30 22 22 19 20 18 4 8 6 0 0 0 0 0 3 12 19 24 23 23 23 22 19 13 17 15 9 1 4 9 13 17 9 5 7 8 9 7 8 8 9 17 19 18 19 18 17 16 10 8 2 0 0 0 0 0 0 0 0 0 0 0 0 0 0 0 6 11 11 18 20 24 22 24 18 5 0 0 0 0 0 0 0 1 10 13 19 27 31 33 33 34 36 30 29 25 22 19 5 9 5 0 0 0 0 0 7 15 25 26 25 23 23 20 18 12 17 18 7 4 8 11 17 17 7 5 7 8 8 8 8 8 6 18 18 18 19 18 19 15 12 10 5 0 0 0 0 0 0 0 0 0 0 0 0 0 0 0 0 10 13 16 19 20 20 22 18 11 1 0 0 0 0 0 0 0 0 0 1 18 24 25 26 28 28 23 15 1 0 0 0 0 0 0 0 0 0 3 10 20 28 26 24 20 19 18 16 13 20 16 7 6 9 15 18 16 8 7 8 9 8 6 8 7 7 17 19 18 19 18 18 17 13 10 6 2 0 0 0 0 0 0 0 0 0 0 0 0 0 0 0 7 14 14 17 18 15 16 17 14 12 7 3 0 0 0 0 0 0 0 0 0 0 0 8 6 0 0 0 0 0 0 0 0 0 0 0 0 2 11 14 22 27 26 22 22 18 18 17 17 20 14 5 9 11 16 20 14 6 9 7 10 8 5 7 5 8 16 18 18 19 18 19 17 14 12 8 2 0 0 0 0 0 0 0 0 0 0 0 0 0 0 0 3 12 13 14 19 15 12 13 8 8 3 2 0 0 1 0 0 0 0 0 0 0 0 0 0 0 0 0 0 0 0 0 0 0 0 0 5 10 16 16 23 28 27 23 20 16 19 17 19 19 13 6 12 14 18 20 12 7 9 8 9 7 7 6 6 7 16 19 18 19 19 18 16 16 13 10 5 1 0 0 0 0 0 0 0 0 0 0 0 0 0 0 0 6 13 11 16 15 13 13 8 4 0 0 0 0 0 0 0 7 10 15 12 15 15 14 11 0 0 0 0 0 0 0 0 0 0 4 11 16 19 16 27 31 29 21 13 16 18 18 22 17 12 8 10 17 17 20 10 8 8 9 7 8 7 4 7 7 18 18 18 19 19 17 19 16 14 13 7 5 1 0 0 0 0 0 0 0 0 0 0 0 0 0 0 0 9 9 10 15 13 13 12 9 7 5 2 0 0 0 0 0 0 5 12 8 5 9 12 8 7 6 0 0 0 0 0 0 0 7 11 14 17 22 29 31 27 19 11 18 18 20 21 15 9 10 15 16 19 17 9 8 8 8 9 5 6 6 6 6 17 18 18 17 17 19 18 16 16 14 11 4 5 0 0 0 0 0 0 0 0 0 0 0 0 0 0 0 2 9 9 10 12 14 15 15 14 12 9 8 6 2 0 3 3 1 4 8 7 9 14 10 8 8 5 3 5 1 0 1 8 6 11 15 21 24 29 32 26 18 12 18 19 23 20 11 8 12 16 16 19 14 7 10 9 7 9 5 5 6 6 6 18 17 19 17 18 18 19 17 17 15 9 7 5 0 0 0 2 3 0 0 0 0 0 0 0 0 0 0 0 5 6 9 12 12 9 11 11 8 7 7 8 9 8 10 8 6 3 4 8 9 12 15 16 12 7 1 0 0 1 4 11 11 11 18 23 27 32 33 23 16 15 19 22 23 13 6 5 12 16 18 19 12 8 9 10 7 7 6 6 7 6 5 19 17 16 16 17 19 19 17 17 14 10 4 7 3 7 7 9 6 0 0 0 0 0 0 0 0 0 0 0 1 3 9 11 12 7 7 5 5 3 2 8 8 6 9 9 8 6 7 6 6 7 9 9 3 0 0 0 0 2 7 11 17 19 23 28 29 34 29 20 15 18 24 25 24 2 0 0 7 9 15 18 12 7 10 8 6 7 6 6 5 5 6 17 16 15 15 16 18 18 18 15 14 8 8 13 13 7 23 22 6 2 0 0 0 0 0 0 0 0 0 0 0 0 4 8 10 7 6 3 1 1 4 2 4 5 5 6 5 2 2 2 3 0 2 0 0 0 0 0 0 7 10 16 18 22 27 32 32 35 24 20 16 23 24 28 23 0 0 0 0 4 6 15 12 5 9 7 9 6 6 5 5 6 6 15 14 13 13 15 18 17 17 14 13 9 16 15 6 9 40 33 6 4 0 0 0 0 0 0 0 0 0 0 0 1 4 5 9 11 5 3 1 0 0 0 0 2 0 0 2 0 0 0 0 0 0 0 0 0 0 2 4 8 13 21 24 29 36 37 36 34 22 21 21 26 21 35 22 4 0 0 0 0 0 9 7 1 4 8 6 8 4 6 4 5 6 13 14 13 12 15 16 15 14 12 8 12 13 11 0 32 45 36 8 3 0 0 0 0 0 0 0 0 0 0 0 0 3 4 4 9 9 7 5 2 0 0 0 1 0 0 0 1 0 0 0 0 0 0 0 0 3 5 11 14 17 24 30 34 40 38 37 29 24 23 24 28 20 29 34 9 5 2 0 0 0 0 0 0 0 2 4 6 6 4 5 4 4 13 13 10 12 12 14 14 11 6 4 9 13 13 28 50 44 35 11 4 3 0 0 0 0 0 0 0 0 0 0 0 5 0 1 4 9 9 8 7 4 0 1 3 0 0 0 0 0 0 0 0 0 2 4 6 10 9 13 19 25 31 34 38 38 36 32 24 20 24 23 25 17 28 31 29 13 9 0 0 0 0 0 0 0 0 0 2 4 3 2 3 4 12 10 10 10 11 12 9 6 0 4 7 18 38 48 53 43 27 14 8 5 0 0 0 0 0 0 0 0 0 0 0 0 0 2 5 6 9 10 12 9 9 7 7 5 5 3 5 5 4 5 5 7 8 13 16 18 17 14 24 31 36 40 42 39 33 30 23 22 20 19 23 18 26 33 32 22 12 13 0 0 0 0 0 0 0 0 0 0 0 1 3 3 9 9 8 10 8 7 2 1 0 4 9 35 47 52 50 41 17 15 12 4 0 0 0 0 0 0 0 0 0 0 0 0 0 1 5 5 9 12 13 15 14 13 11 10 10 11 13 15 12 13 12 17 19 20 21 22 21 19 31 36 40 41 40 37 31 26 21 21 15 15 27 16 21 39 32 22 19 15 15 0 0 0 0 0 0 0 0 0 0 0 0 2 9 8 7 8 4 1 0 0 0 3 23 39 51 52 49 34 7 13 16 8 0 0 0 0 0 0 0 0 0 0 0 0 0 0 5 4 8 15 15 15 14 15 16 18 16 17 17 19 20 21 21 24 25 28 26 26 27 27 39 40 44 46 37 35 33 22 20 14 10 12 31 11 17 39 37 16 30 15 18 9 0 0 0 0 0 0 0 0 0 0 0 0 8 6 3 3 0 0 0 0 0 12 33 43 51 52 47 26 0 12 17 11 2 1 0 0 0 0 0 0 0 0 0 0 0 0 1 2 7 14 16 15 16 18 20 23 24 23 23 23 24 25 26 27 28 30 32 31 33 37 44 44 44 43 38 32 27 20 13 9 9 15 30 4 19 33 40 20 31 28 21 16 5 0 0 0 0 0 0 0 0 0 0 0 6 2 2 0 0 0 0 0 1 28 36 48 48 51 45 18 0 11 17 11 7 2 3 0 0 0 0 0 0 0 0 0 0 0 1 6 9 14 16 19 21 20 22 27 28 29 29 29 29 30 30 32 31 36 38 37 39 45 47 47 44 39 34 29 22 14 8 3 12 18 22 3 23 28 41 21 28 38 25 27 11 0 0 0 0 0 0 0 0 0 0 0 0 0 0 0 0 0 0 0 15 35 40 45 47 47 47 9 0 8 15 13 8 6 4 0 0 0 0 0 0 0 0 0 0 0 2 2 12 15 17 21 22 22 27 30 32 32 31 34 31 33 32 33 34 38 42 41 45 48 51 47 48 38 30 27 16 7 0 7 14 13 14 4 28 33 39 25 23 37 27 24 24 0 0 0 0 0 0 0 0 0 0 0 0 0 0 0 0 0 0 0 28 36 45 42 43 45 52 2 0 7 14 14 10 6 8 2 0 0 0 0 0 0 0 0 0 0 0 1 5 14 16 21 23 24 28 32 33 34 33 31 29 31 34 35 37 40 40 42 47 50 50 47 41 31 29 19 10 0 2 11 7 9 12 0 42 38 35 30 22 33 26 22 25 0 0 0 0 0 0 0 0 0 0 0 0 0 0 0 0 0 0 11 27 38 43 44 38 49 52 0 0 0 12 12 10 8 6 7 1 0 0 0 0 0 0 0 0 0 0 0 4 13 16 21 24 28 29 31 29 30 31 29 24 27 29 35 36 37 38 41 46 45 43 42 32 24 20 7 2 0 6 11 0 7 17 1 44 45 38 31 26 28 27 21 24 1 0 0 0 0 0 0 0 0 0 0 0 0 0 0 0 0 0 15 27 38 48 44 37 57 48 0 0 0 9 10 12 7 7 8 5 4 0 0 0 0 0 0 0 0 0 0 7 10 15 19 27 26 26 27 26 26 24 26 22 25 25 29 33 33 39 37 39 32 36 31 20 15 5 0 0 2 5 10 0 6 14 7 41 51 39 25 30 24 29 19 24 1 0 0 0 0 0 0 0 0 0 0 0 0 0 0 0 0 0 8 32 39 50 40 43 55 51 0 0 0 4 6 10 8 7 7 8 6 4 2 0 0 0 0 0 0 0 0 4 8 12 16 18 20 21 21 23 23 20 20 19 23 22 22 26 28 29 31 29 24 24 15 10 0 0 0 0 3 5 8 0 7 6 24 39 53 41 25 26 26 25 17 21 8 0 0 2 0 0 0 0 0 0 0 0 0 0 0 0 0 0 8 34 41 46 36 48 50 55 1 0 0 1 3 5 7 4 9 6 8 8 6 4 0 0 0 0 0 0 0 0 2 5 10 13 17 15 15 19 18 16 17 17 19 18 17 20 20 20 20 18 16 10 3 0 0 0 0 6 4 8 9 0 4 5 33 44 52 46 26 22 26 22 14 18 4 0 0 0 0 0 0 0 0 0 0 0 0 0 0 0 0 0 21 36 44 37 35 49 44 55 7 0 0 0 1 0 1 0 7 7 9 10 10 7 4 1 0 0 0 0 0 0 0 0 4 9 9 10 11 15 12 15 14 16 14 10 9 10 9 9 7 5 1 0 0 0 0 0 6 5 11 10 7 9 0 16 31 54 50 48 27 20 21 20 10 17 0 0 0 0 0 0 0 0 0 0 0 0 0 0 0 0 0 0 29 40 41 26 35 43 44 51 20 0 0 0 0 0 0 0 6 0 10 12 12 11 9 6 1 0 0 0 0 0 0 0 0 0 3 2 4 5 7 6 7 6 4 1 0 0 0 0 0 0 0 0 0 0 0 2 7 11 11 7 5 16 0 25 29 63 48 46 30 17 19 18 4 13 0 0 0 0 0 0 0 0 0 0 0 0 0 0 0 0 0 3 34 36 34 17 35 37 45 43 33 0 0 0 0 0 0 4 7 0 11 12 13 11 11 9 5 1 1 0 0 0 0 0 0 0 0 0 0 0 0 0 0 0 0 0 0 0 0 0 0 0 0 0 0 0 3 7 9 11 12 1 10 19 10 25 36 65 48 47 31 17 14 13 3 8 0 0 0 0 0 0 0 0 0 0 0 0 0 0 0 0 0 14 31 34 24 11 34 37 44 36 40 0 0 0 0 0 0 7 6 0 16 12 11 13 11 11 8 4 3 3 0 0 0 0 0 0 0 0 0 0 0 0 0 0 0 0 0 0 0 0 0 0 0 0 0 3 6 6 12 10 7 2 13 19 24 26 40 63 50 43 33 14 11 7 0 3 0 0 0 0 0 0 0 0 0 0 0 