P2
92
112
255
24 25 25 24 25 24 26 24 24 24 26 24 16 8 6 7 0 0 0 0 0 0 0 0 0 0 0 0 0 0 0 0 0 0 0 0 0 0 0 0 0 0 0 0 0 0 0 0 0 0 0 0 0 0 0 0 0 0 0 0 0 0 0 1 15 7 17 23 24 26 25 25 25 25 27 26 24 25 26 25 24 24 24 24 23 25 23 23 24 24 24 24 24 25 24 25 25 24 25 25 24 25 22 15 12 7 3 0 0 0 0 0 0 0 0 0 0 0 0 0 0 0 0 0 0 0 0 0 0 0 0 0 0 0 0 0 0 0 0 0 0 0 0 0 0 0 0 0 0 0 0 0 0 0 0 0 6 12 12 22 23 25 26 26 25 26 27 26 25 25 25 25 25 24 24 24 24 24 22 22 24 23 24 23 24 25 24 24 24 24 24 24 26 24 16 8 6 0 0 0 0 0 0 0 0 0 0 0 0 0 0 0 0 0 0 0 0 0 0 0 0 0 0 0 0 0 0 0 0 0 0 0 0 0 0 0 0 0 0 0 0 0 0 0 0 0 0 0 0 7 11 15 22 27 25 26 26 28 26 27 25 25 26 26 25 25 25 25 24 24 23 23 24 24 24 24 24 25 25 24 25 25 26 26 24 19 10 3 0 0 0 0 0 0 0 0 0 0 0 0 0 0 0 0 0 0 0 0 0 0 0 0 0 0 0 0 0 0 0 0 0 0 0 0 0 0 0 0 0 0 0 0 0 0 0 0 0 0 0 0 0 0 7 10 19 26 24 23 23 24 24 26 24 27 26 25 25 26 25 25 24 24 24 23 24 23 24 24 25 25 25 26 26 25 25 23 20 14 7 0 0 0 0 0 0 0 0 0 0 0 0 0 0 0 0 0 0 0 0 0 0 0 0 0 0 0 0 0 0 0 0 0 0 0 0 0 0 0 0 0 0 0 0 0 0 0 0 0 0 0 0 0 0 0 0 2 13 21 21 22 26 24 25 24 25 26 26 27 26 25 26 25 24 26 24 25 23 23 24 24 24 25 25 25 25 24 20 16 14 6 0 0 0 0 0 0 0 0 0 0 0 0 0 0 0 0 0 0 0 0 0 0 0 0 0 0 0 0 0 0 0 0 0 0 0 0 0 0 0 0 0 0 0 0 0 0 0 0 0 0 0 0 0 0 0 0 0 0 3 10 14 16 20 23 23 25 22 22 25 24 26 26 24 26 25 25 25 23 25 23 24 23 24 24 24 25 22 18 13 12 7 0 0 0 0 0 0 0 0 0 0 0 0 0 0 0 0 0 0 0 0 0 0 0 0 0 0 0 0 0 0 0 0 0 0 0 0 0 0 0 0 0 0 0 0 0 0 0 0 0 0 0 0 0 0 0 0 0 0 0 0 0 0 3 4 7 11 15 17 17 17 18 23 24 25 26 25 25 25 25 25 23 24 24 24 25 24 24 17 11 10 5 0 0 0 0 0 0 0 0 0 0 0 0 0 0 0 0 0 0 0 0 0 0 0 0 0 0 0 0 0 0 0 0 0 0 0 0 0 0 0 0 0 0 0 0 0 0 0 0 0 0 0 0 0 0 0 0 0 0 0 0 0 0 0 0 0 4 6 6 12 14 13 16 19 22 25 26 25 27 25 27 24 24 24 23 25 25 24 17 10 6 4 0 0 0 0 0 0 0 0 0 0 0 0 0 0 0 0 0 0 0 0 0 0 0 0 0 0 0 0 0 0 0 0 0 0 0 0 0 0 0 0 0 0 0 0 0 0 0 0 0 0 0 0 0 0 0 0 0 0 0 0 0 0 0 0 0 0 0 2 0 6 10 13 14 17 19 22 24 25 26 27 26 26 24 25 24 24 25 17 7 4 0 0 0 0 0 0 0 0 0 0 0 0 0 0 0 0 0 0 0 0 0 0 0 0 0 0 0 0 0 0 0 0 0 0 0 0 0 0 0 0 0 0 0 0 0 0 0 0 0 0 0 0 0 0 0 0 0 0 0 0 0 0 0 0 0 0 0 0 0 0 0 0 5 7 14 13 18 21 22 23 23 25 26 26 24 25 24 24 16 7 1 0 0 0 0 0 0 0 0 0 0 0 0 0 0 0 0 0 0 0 0 0 0 0 0 0 0 0 0 0 0 0 0 0 0 0 0 0 0 0 0 0 0 0 0 0 0 0 0 0 0 0 0 0 0 0 0 0 0 0 0 0 0 0 0 0 0 0 0 0 0 0 0 0 0 2 4 8 11 15 23 24 24 24 26 25 24 26 25 20 7 1 0 0 0 0 0 0 0 0 0 0 0 0 0 0 0 0 0 0 0 0 0 0 0 0 0 0 0 0 0 0 0 0 0 0 0 0 0 0 0 0 0 0 0 0 0 0 0 0 0 0 0 0 0 0 0 0 0 0 0 0 0 0 0 0 0 0 0 0 0 0 0 0 0 0 0 0 0 0 5 5 17 21 23 25 26 27 25 25 25 12 1 0 0 0 0 0 0 0 0 0 0 0 0 0 0 0 0 0 0 0 0 0 0 0 0 0 0 0 0 0 0 0 0 0 0 0 0 0 0 0 0 0 0 0 0 0 0 0 0 0 0 0 0 0 0 0 0 0 0 0 0 0 0 0 0 0 0 0 0 0 0 0 0 0 0 0 0 0 0 0 0 5 14 16 20 24 25 28 26 25 24 8 0 0 0 0 0 0 0 0 0 0 0 0 0 0 0 0 0 0 0 0 0 0 0 0 0 0 0 0 0 0 0 0 0 0 0 0 0 0 0 0 0 0 0 0 0 0 0 0 0 0 0 0 0 0 0 0 0 0 0 0 0 0 0 0 0 0 0 0 0 0 0 0 0 0 0 0 0 0 0 0 0 0 4 17 18 20 23 25 28 26 25 1 0 0 0 0 0 0 0 0 0 0 0 0 0 0 0 0 0 0 0 0 0 0 0 0 0 0 0 0 0 0 0 0 0 0 0 0 0 0 0 0 0 0 0 0 0 0 0 0 0 0 0 0 0 0 0 0 0 0 0 0 0 0 0 0 0 0 0 0 0 0 0 0 0 0 0 0 0 0 0 0 0 0 0 3 19 20 22 23 27 27 26 0 0 0 0 0 0 0 0 0 0 0 0 0 0 0 0 0 0 0 0 0 0 0 0 0 0 0 0 0 0 0 0 0 0 0 0 0 0 0 0 0 0 0 0 0 0 0 0 0 0 0 0 0 0 0 0 0 0 0 0 0 0 0 0 0 0 0 0 0 0 0 0 0 0 0 0 0 0 0 0 0 0 0 0 0 5 17 24 23 24 28 28 0 0 0 0 0 0 0 0 0 0 0 0 0 0 0 0 0 0 0 0 0 0 0 0 0 0 0 0 0 0 0 0 0 0 0 0 0 0 0 0 0 0 0 0 0 0 0 0 0 0 0 0 0 0 0 0 0 0 0 0 0 0 0 0 0 0 0 0 0 0 0 0 0 0 0 0 0 0 0 0 0 0 0 0 0 5 6 18 25 24 25 27 0 0 0 0 0 0 0 0 0 0 0 0 0 0 0 0 0 0 0 0 0 0 0 0 0 0 0 0 0 0 0 0 0 0 0 0 0 0 0 0 0 0 0 0 0 0 0 0 0 0 0 0 0 0 0 0 0 0 0 0 0 0 0 0 0 0 0 0 0 0 0 0 0 0 0 0 0 0 0 0 0 0 0 0 0 4 6 9 22 25 25 27 0 0 0 0 0 0 0 0 0 0 0 0 0 0 0 0 0 0 0 0 0 0 0 0 0 0 0 0 0 0 0 0 0 0 0 0 0 0 0 0 0 0 0 0 0 0 0 0 0 0 0 0 0 0 0 0 0 0 0 0 0 0 0 0 0 0 0 0 0 0 0 0 0 0 0 0 0 0 0 0 0 0 0 0 0 0 4 7 16 24 24 27 0 0 0 0 0 0 0 0 0 0 0 0 0 0 0 0 0 0 0 0 0 0 0 0 0 0 0 0 0 0 0 0 0 0 0 0 0 0 0 0 0 0 0 0 0 0 0 0 0 0 0 0 0 0 0 0 0 0 0 0 0 2 2 0 0 0 0 0 0 0 0 0 0 0 0 0 0 0 0 0 0 0 0 0 0 0 0 5 12 21 21 25 0 0 0 0 0 0 0 0 0 0 0 0 0 0 0 0 0 0 0 0 0 0 0 0 0 0 0 0 0 0 0 0 0 0 0 0 0 0 0 0 0 0 0 0 0 0 0 0 0 0 0 0 0 0 0 2 8 11 7 10 11 12 13 5 0 0 0 0 0 0 0 0 0 0 0 0 0 0 0 0 0 0 0 0 0 0 0 0 10 18 23 20 0 0 0 0 0 0 0 0 0 0 0 0 0 0 0 0 0 0 0 0 0 0 0 0 0 0 0 0 0 0 0 0 0 0 0 0 0 0 0 0 0 0 0 0 0 0 0 0 0 0 0 0 0 4 9 12 19 21 20 21 24 22 23 13 8 8 2 0 0 0 0 0 0 0 0 0 0 0 0 0 0 0 0 0 0 0 0 0 4 15 21 20 0 0 0 0 0 0 0 0 0 0 0 0 0 0 0 0 0 0 0 0 0 0 0 0 0 0 0 0 0 0 0 0 0 0 0 0 0 0 0 0 0 0 0 0 0 0 0 0 0 0 0 0 4 12 19 22 25 28 31 34 36 30 27 23 15 15 13 1 0 0 0 0 0 0 0 0 0 0 0 0 0 0 0 0 0 0 0 0 0 13 19 17 0 0 0 0 0 0 0 0 0 0 0 0 0 0 0 0 0 0 0 0 0 0 0 0 0 0 0 0 0 0 0 0 0 0 0 0 0 0 0 0 0 0 0 0 0 0 0 0 0 0 0 5 14 19 26 29 30 30 36 37 39 37 30 25 17 14 15 13 1 0 0 0 0 0 0 0 0 0 0 0 0 0 0 0 0 0 0 0 0 10 17 17 0 0 0 0 0 0 0 0 0 0 0 0 0 0 0 0 0 0 0 0 0 0 0 0 0 0 0 0 0 0 0 0 0 0 0 0 0 0 0 0 0 0 0 0 0 0 0 0 0 0 3 13 19 24 29 32 33 35 36 38 38 37 32 26 22 14 15 18 8 5 1 0 0 0 0 0 0 0 0 0 0 0 0 0 0 0 0 0 0 2 14 19 0 0 0 0 0 0 0 0 0 0 0 0 0 0 0 0 0 0 0 0 0 0 0 0 0 0 0 0 0 0 0 0 0 0 0 0 0 0 0 0 0 0 0 0 0 0 0 0 0 0 9 15 21 25 26 30 31 34 33 32 34 36 34 29 27 17 11 16 12 6 4 0 0 0 0 0 0 0 0 0 0 0 0 0 0 0 0 0 0 2 7 20 0 0 0 0 0 0 0 0 0 0 0 0 0 0 0 0 0 0 0 0 0 0 0 0 0 0 0 0 0 0 0 0 0 0 0 0 0 0 0 0 0 0 0 0 0 0 0 0 0 2 9 13 18 23 25 28 30 32 33 33 34 35 33 33 29 22 10 8 9 10 7 2 0 0 0 0 0 0 0 0 0 0 0 0 0 0 0 0 0 3 3 16 0 0 0 0 0 0 0 0 0 0 0 0 0 0 0 0 0 0 0 0 0 0 0 0 0 0 0 0 0 0 0 0 0 0 0 0 0 0 0 0 0 0 0 0 0 0 0 0 0 4 10 14 18 21 26 25 25 25 26 28 31 32 33 33 29 21 14 6 10 14 11 6 0 0 0 0 0 0 0 0 0 0 0 0 0 0 0 0 0 4 4 6 0 0 0 0 0 0 0 0 0 0 0 0 0 0 0 0 0 0 0 0 0 0 0 0 0 0 0 0 0 0 0 0 0 0 0 0 0 0 0 0 0 0 0 0 0 0 0 0 4 7 12 15 18 21 23 24 25 26 28 30 32 32 30 32 32 26 22 14 11 16 13 8 0 0 0 0 0 0 0 0 0 0 0 0 0 0 0 0 0 3 7 1 0 0 0 0 0 0 0 0 0 0 0 0 0 0 0 0 0 0 0 0 0 0 0 0 0 0 0 0 0 0 0 0 0 0 0 0 0 0 0 0 0 0 0 0 0 0 0 1 5 10 12 15 17 20 23 23 24 25 24 23 24 25 24 28 29 28 27 21 16 19 16 10 3 0 0 0 0 0 0 0 0 0 0 0 0 0 0 0 0 0 8 1 0 0 0 0 0 0 0 0 0 0 0 0 0 0 0 0 0 0 0 0 0 0 0 0 0 0 0 0 0 0 0 0 0 0 0 0 0 0 0 0 0 0 0 0 0 0 0 4 7 10 13 14 17 19 22 22 23 24 22 21 22 21 19 22 22 26 28 25 20 21 18 15 9 0 0 0 0 0 0 0 0 0 0 0 0 0 0 0 0 0 3 5 0 0 0 0 0 0 0 0 0 0 0 0 0 0 0 0 0 0 0 0 0 0 0 0 0 0 0 0 0 0 0 0 0 0 0 0 0 0 0 0 0 0 0 0 0 0 3 5 8 10 13 14 17 19 19 20 20 19 18 15 14 12 12 13 14 17 22 24 23 26 22 19 11 2 0 0 0 0 0 0 0 0 0 0 0 0 0 0 0 0 0 4 0 0 0 0 0 0 0 0 0 0 0 0 0 0 0 0 0 0 0 0 0 0 0 0 0 0 0 0 0 0 0 0 0 0 0 0 0 0 0 0 0 0 0 0 0 4 4 7 8 10 13 13 17 18 16 16 15 13 11 10 9 8 8 6 9 11 14 17 20 28 27 24 13 4 0 0 0 0 0 0 0 0 0 0 0 0 0 0 0 0 0 1 0 0 0 0 0 0 0 0 0 0 0 0 0 0 0 0 0 0 0 0 0 0 0 0 0 0 0 0 0 0 0 0 0 0 0 0 0 0 0 0 0 0 0 1 5 4 5 7 8 10 12 14 16 12 9 11 9 8 7 6 5 5 7 8 9 12 11 11 17 23 30 27 18 5 0 0 0 0 0 0 0 0 0 0 0 0 0 0 0 0 0 0 0 0 0 0 0 0 0 0 0 0 0 0 0 0 0 0 0 0 0 0 0 0 0 0 0 0 0 0 0 0 0 0 0 0 0 0 0 0 0 0 0 3 5 8 9 8 8 9 11 12 12 12 10 9 7 5 4 4 2 4 5 9 12 14 16 18 19 17 16 16 25 29 22 10 0 0 0 0 0 0 0 0 0 0 0 0 0 0 0 0 0 0 0 0 0 0 0 0 0 0 0 0 0 0 0 0 0 0 0 0 0 0 0 0 0 0 0 1 3 2 2 0 0 6 8 10 11 10 9 10 11 13 13 13 13 11 14 14 13 14 16 14 11 7 8 1 3 0 1 2 0 5 12 15 16 21 26 26 27 28 24 22 20 26 25 14 3 0 0 0 0 0 0 0 0 0 0 0 0 0 0 0 0 0 0 0 0 0 0 0 0 0 0 0 0 0 0 0 0 0 0 0 0 0 0 0 0 2 6 9 12 12 14 14 15 18 17 17 19 20 21 21 22 23 19 19 19 18 18 18 17 17 17 15 9 4 4 0 0 0 1 1 3 9 15 18 22 28 33 34 33 35 34 32 23 22 25 16 5 0 0 0 0 0 0 0 0 0 0 0 0 0 0 0 0 0 0 0 0 0 0 0 0 0 0 0 0 0 0 0 0 0 0 0 0 0 0 0 0 8 12 15 18 22 26 25 24 26 23 24 26 29 29 29 29 29 26 24 24 23 23 20 20 21 17 14 8 2 1 0 0 1 3 3 7 13 19 23 25 30 31 34 36 37 37 38 32 22 25 18 5 0 0 0 0 0 0 0 0 0 0 0 0 0 0 0 0 0 0 0 0 0 0 0 0 0 0 0 0 0 0 0 0 0 0 0 0 0 0 0 4 11 17 22 26 28 28 29 30 31 28 29 31 31 30 29 29 28 28 25 24 22 22 20 20 21 18 11 8 3 2 1 2 3 4 9 11 14 22 24 22 25 27 26 31 34 33 36 35 30 23 20 10 0 0 0 0 0 0 0 0 0 0 0 0 0 0 0 0 0 0 0 0 0 0 0 0 0 0 0 0 0 0 0 0 0 0 0 0 0 0 1 11 16 21 24 28 29 30 29 29 31 29 30 29 29 28 26 24 24 23 22 20 21 20 19 19 20 18 8 8 3 2 2 3 3 5 11 12 16 19 19 17 16 18 18 22 23 25 27 32 27 25 21 16 3 0 0 0 0 0 0 0 0 0 0 0 0 0 0 0 0 0 0 0 0 0 0 0 0 0 0 0 0 0 0 0 0 0 0 0 0 0 8 15 19 18 18 21 21 25 26 22 22 18 19 17 17 16 12 7 9 11 12 12 15 14 12 13 14 14 6 4 1 1 3 3 5 6 9 7 6 6 5 5 6 6 2 4 7 8 13 20 24 25 21 20 7 0 0 0 0 0 0 0 0 0 0 0 0 0 0 0 0 0 0 0 0 0 0 0 0 0 0 0 0 0 0 0 0 0 0 0 0 2 6 9 10 10 10 12 9 6 8 5 0 0 0 0 0 0 0 0 0 0 0 0 0 4 1 6 7 8 2 1 0 0 1 3 0 0 0 0 0 0 0 0 0 0 0 0 0 0 0 3 10 17 15 13 9 5 0 0 0 0 0 0 0 0 0 0 0 0 0 0 0 0 0 0 0 0 0 0 0 0 0 0 0 0 0 0 0 0 0 0 0 0 0 0 0 0 0 0 0 0 0 0 0 0 0 0 0 0 0 0 0 0 0 0 0 0 0 0 2 2 0 0 0 0 2 0 0 0 0 0 0 0 0 0 0 0 0 0 0 0 0 0 0 0 0 4 2 3 1 0 0 0 0 0 0 0 0 0 0 0 0 0 0 0 0 0 0 0 0 0 0 0 0 0 0 0 0 0 0 0 0 0 0 0 0 0 0 0 0 0 0 0 0 0 0 0 0 0 0 0 0 0 0 0 0 0 0 0 0 0 0 0 0 0 0 0 0 0 0 0 0 0 0 0 0 0 0 0 0 0 0 0 0 0 0 0 0 0 0 1 0 0 0 0 0 0 0 0 0 0 0 0 0 0 0 0 0 0 0 0 0 0 0 0 0 0 0 0 0 0 0 0 0 0 0 0 0 0 0 0 0 0 0 0 0 0 0 0 0 0 0 0 0 0 0 0 0 0 0 0 0 0 0 0 0 0 0 0 0 0 0 0 0 0 0 0 0 0 0 0 0 0 0 0 0 0 0 0 0 0 0 0 0 0 0 0 0 0 0 0 0 0 0 0 0 0 0 0 0 0 0 0 0 0 0 0 0 0 0 0 0 0 0 0 0 0 0 0 0 0 0 0 0 0 0 0 0 0 0 0 0 0 0 0 0 0 0 0 0 0 0 0 0 0 0 0 0 0 0 0 0 0 0 0 0 0 0 0 0 0 0 0 0 0 0 0 0 0 0 0 0 0 0 0 0 0 0 0 0 0 0 0 0 0 0 0 0 0 0 0 0 0 0 0 0 0 0 0 0 0 0 0 0 0 0 0 0 0 0 0 0 0 0 0 0 0 0 0 0 0 0 0 0 0 0 0 0 0 0 0 0 0 0 0 0 0 0 0 0 0 0 0 0 0 0 0 0 0 0 0 0 0 0 0 0 0 0 0 0 0 0 0 0 0 0 0 2 0 0 0 0 0 0 0 0 0 0 0 0 0 0 0 0 0 0 0 0 0 0 0 0 0 0 0 0 0 0 0 0 0 0 0 0 0 0 0 0 0 0 0 0 0 0 0 0 0 0 0 0 0 0 0 0 0 0 0 0 0 0 0 0 0 0 0 0 0 0 0 0 0 0 0 0 0 0 0 0 0 0 0 0 0 0 0 0 0 0 0 2 0 0 0 0 0 0 0 0 0 0 0 0 0 0 0 0 0 0 0 0 0 0 0 0 0 0 0 0 0 0 0 0 0 0 0 0 0 0 0 0 0 0 0 0 0 0 0 0 0 0 0 0 0 0 0 0 0 0 0 0 2 10 2 0 0 0 0 0 0 0 0 0 0 0 0 0 0 0 0 0 0 0 0 0 0 0 1 4 8 6 1 3 0 0 0 0 0 0 0 0 0 0 0 0 0 0 0 0 0 0 0 0 0 0 0 0 0 0 0 0 0 0 0 0 0 0 0 0 0 0 0 0 0 0 0 0 0 0 0 0 0 0 0 0 0 0 0 0 0 0 0 0 0 4 0 0 0 0 0 0 0 0 0 0 0 0 0 0 0 0 0 0 0 0 0 9 0 3 5 21 18 6 2 1 0 0 0 0 0 0 0 0 0 0 0 0 0 0 0 0 0 0 0 0 0 0 0 0 0 0 0 0 0 0 0 0 0 0 0 0 0 0 0 0 0 0 0 0 0 0 0 0 0 0 0 0 0 0 0 0 0 0 0 0 0 0 6 1 1 0 0 0 0 0 0 0 0 0 0 0 0 0 0 0 2 24 6 6 0 6 11 24 27 7 0 0 0 0 0 0 0 0 0 0 0 0 0 0 0 0 0 0 0 0 0 0 0 0 0 0 0 0 0 0 0 0 0 0 0 0 0 0 0 0 0 0 0 0 0 0 0 0 0 0 0 0 0 0 0 0 0 0 0 0 0 0 0 4 14 19 16 10 2 0 0 0 0 0 0 0 0 0 0 0 0 0 0 10 0 0 7 7 7 15 13 0 0 0 0 0 0 0 0 0 0 0 0 0 0 0 0 0 0 0 0 0 0 0 0 0 0 0 0 0 0 0 0 0 0 0 0 0 0 0 0 0 0 0 0 0 0 0 0 0 0 0 0 0 0 0 0 0 0 0 0 0 0 0 0 2 8 5 6 6 0 0 8 11 1 0 0 0 0 0 0 0 0 0 19 13 24 13 4 10 2 11 14 0 0 0 0 0 0 0 0 0 0 0 0 0 0 0 0 0 0 0 0 0 0 0 0 0 0 0 0 0 0 0 0 0 0 0 0 0 0 0 0 0 0 0 0 0 0 0 0 0 0 4 12 8 0 0 0 0 0 0 0 0 0 0 4 11 16 15 1 11 0 7 7 10 1 2 0 0 3 3 0 0 0 11 23 26 17 13 0 3 11 14 16 0 0 0 0 7 0 0 0 0 0 0 0 0 0 0 0 0 0 0 0 0 0 0 0 0 0 0 0 0 0 0 0 0 0 0 0 0 0 0 0 0 0 0 0 5 5 0 3 4 4 7 13 7 0 0 0 0 0 0 0 0 0 2 18 14 23 26 0 7 9 10 16 19 11 11 3 1 15 10 0 0 8 24 14 26 25 10 3 9 17 21 19 0 0 0 0 1 0 0 0 0 0 0 0 0 0 0 0 2 0 0 0 0 0 0 0 0 0 0 0 0 0 0 0 0 0 0 0 0 0 6 11 12 10 11 15 14 10 3 1 2 0 0 2 0 0 0 0 0 0 0 0 0 0 3 14 12 25 28 19 12 19 12 25 31 25 16 13 9 16 10 0 5 13 2 10 18 16 11 12 13 20 23 22 0 0 0 0 0 0 0 0 0 0 3 0 0 0 0 0 9 0 0 0 1 0 0 0 0 0 0 0 0 0 0 0 0 0 0 0 0 8 12 14 17 19 18 16 15 14 11 7 4 0 1 0 0 0 0 0 0 0 0 0 8 0 10 18 23 30 31 35 6 25 16 28 34 33 21 24 17 18 15 11 9 13 14 18 21 19 17 16 18 20 25 25 6 2 0 0 0 0 0 0 0 0 4 0 1 0 0 6 14 0 0 0 3 0 0 0 0 0 0 0 0 0 0 0 0 0 0 0 2 15 17 16 15 14 18 15 12 13 11 13 10 9 10 9 7 11 13 14 7 0 0 1 0 0 15 18 26 28 30 30 9 25 20 21 33 34 29 30 26 25 29 26 28 32 32 31 30 29 26 27 26 28 29 28 14 0 0 0 4 0 0 8 0 3 9 4 15 11 7 7 18 3 0 4 3 0 0 0 0 0 0 0 0 0 0 0 0 0 0 0 8 16 22 24 17 13 10 10 10 12 11 15 15 14 16 15 13 16 20 15 6 0 0 7 0 6 21 28 30 33 37 28 21 17 27 16 32 29 30 29 30 28 32 35 37 41 39 39 35 33 32 33 35 34 29 28 20 0 0 0 8 0 2 9 2 2 13 8 22 14 15 10 21 0 0 0 0 0 0 0 0 0 0 0 0 0 0 0 0 0 0 0 3 15 19 22 23 18 16 16 15 16 15 18 19 19 21 18 18 22 20 13 4 0 4 0 0 11 23 32 31 38 41 29 27 11 24 17 23 22 25 22 28 27 30 31 31 31 29 29 31 32 31 34 34 29 26 27 17 0 0 0 3 2 10 1 0 1 13 10 21 18 18 16 21 0 0 0 0 0 0 0 0 0 0 0 0 0 0 0 0 0 0 0 3 10 17 21 22 22 21 20 21 21 23 22 23 22 24 24 21 21 18 11 2 0 4 0 1 12 26 31 34 39 41 35 28 18 14 19 17 17 21 24 23 28 30 33 32 30 31 29 30 30 33 32 29 25 22 22 9 1 0 0 1 5 14 3 3 11 14 9 24 19 19 17 22 0 0 0 0 0 0 0 0 0 0 0 0 0 0 0 0 0 0 0 0 4 9 15 18 17 19 20 20 23 22 21 21 22 23 22 21 19 16 8 0 0 0 0 2 13 24 33 38 38 41 39 25 24 13 13 19 21 16 25 23 25 31 32 32 31 30 28 26 25 27 26 24 22 18 16 2 0 0 0 0 8 14 15 7 13 13 12 24 18 18 20 22 5 0 0 4 0 0 0 0 0 3 0 0 0 0 0 0 0 0 0 0 0 7 10 11 11 13 16 18 18 19 17 17 19 18 17 16 18 13 0 0 0 0 0 3 10 26 38 39 38 40 38 25 22 15 8 9 26 13 16 25 19 26 30 27 29 26 24 23 22 24 23 21 18 13 9 0 0 0 0 0 13 12 20 15 17 12 18 26 14 19 18 23 9 0 2 5 0 0 0 0 0 0 0 0 0 0 0 0 0 0 0 0 0 3 4 4 6 12 13 15 14 13 13 12 14 16 16 15 15 3 0 0 0 0 0 4 14 28 38 37 37 40 38 28 17 14 10 3 12 18 5 17 17 18 24 23 21 20 17 18 17 20 18 18 14 10 5 0 0 0 2 1 9 8 19 25 21 13 23 23 15 20 17 23 9 3 4 9 7 7 1 0 0 0 0 0 0 0 0 0 0 0 0 0 0 0 3 3 3 9 11 10 11 10 13 14 15 17 17 11 5 0 0 0 0 0 1 6 16 31 36 37 35 40 35 27 17 13 4 3 1 8 8 6 11 14 17 17 14 9 11 12 15 17 18 14 10 7 6 1 4 0 0 4 8 8 16 26 25 18 19 20 20 17 17 24 13 5 6 15 16 12 12 0 0 0 0 0 0 0 0 0 0 0 0 0 0 0 0 0 5 6 9 10 12 12 13 13 13 14 12 11 11 4 0 0 1 0 5 8 10 24 31 32 34 34 28 21 17 8 0 0 0 0 1 5 7 12 12 10 8 7 8 5 9 11 15 15 12 9 7 1 0 0 0 12 3 5 20 20 21 14 15 16 18 14 19 22 15 11 5 13 18 23 16 7 0 0 0 0 0 0 0 0 0 0 0 0 0 0 0 0 0 0 0 0 1 6 8 11 11 14 14 9 0 0 0 0 0 1 0 1 0 12 22 23 26 25 19 18 10 2 0 0 0 0 0 0 2 5 9 10 0 0 0 0 0 0 1 3 4 3 3 0 0 0 6 6 1 8 14 22 19 12 14 11 13 12 19 20 13 14 4 8 18 22 13 6 0 0 0 0 0 0 0 0 0 0 0 0 0 0 0 0 0 0 0 0 0 0 0 0 0 0 0 0 0 0 0 0 0 0 0 0 0 0 8 11 15 15 14 9 2 0 0 0 0 0 0 0 0 0 0 0 0 0 0 0 0 0 0 0 0 0 0 0 0 0 2 0 0 5 16 21 14 11 11 6 9 14 17 19 11 11 9 6 17 18 7 0 0 0 0 0 0 0 0 0 0 0 0 0 0 0 0 0 0 0 0 0 0 0 0 0 0 0 0 0 0 0 0 0 0 0 0 0 0 0 0 0 0 4 5 3 0 0 0 0 0 0 0 0 0 0 0 0 0 0 0 0 0 0 0 0 0 0 0 0 2 0 0 0 0 5 18 14 11 11 7 3 9 12 18 18 19 15 7 8 9 8 0 0 0 0 0 0 0 0 0 0 0 0 0 0 0 0 0 0 0 0 0 0 0 0 0 0 0 0 0 0 0 0 0 0 0 0 0 0 0 0 0 0 0 0 0 0 0 0 0 0 0 0 0 0 0 0 0 0 0 0 0 0 0 0 0 0 0 0 0 0 0 0 0 0 0 12 14 8 7 7 0 6 7 12 17 17 21 17 10 5 0 1 0 0 0 0 0 0 0 0 0 0 0 0 0 0 0 0 0 0 0 0 0 0 0 0 0 0 0 0 0 0 0 0 0 0 0 0 0 0 0 0 0 0 0 0 0 0 0 0 0 0 0 0 0 0 0 0 0 0 0 0 0 0 0 0 0 0 0 0 0 0 0 0 0 0 0 11 9 2 2 0 0 5 8 13 16 16 18 16 7 5 0 0 1 0 0 0 0 0 0 0 0 0 0 0 0 0 0 0 0 0 0 0 0 0 0 0 0 0 0 0 0 0 0 0 0 0 0 0 0 0 0 0 0 0 0 0 0 0 0 0 0 0 0 0 0 0 0 0 0 0 0 0 0 0 0 0 0 0 0 0 0 0 0 0 0 0 0 7 8 0 0 0 0 3 7 13 15 15 17 13 12 6 2 2 2 0 0 0 0 0 0 0 0 0 0 0 0 0 0 0 0 0 0 0 0 0 0 0 0 0 0 0 0 0 0 0 1 0 0 0 0 0 0 0 0 0 0 0 0 0 0 0 0 0 0 0 0 0 0 0 0 0 0 0 0 0 0 0 0 0 0 1 5 1 0 0 0 0 0 7 7 0 0 0 0 3 8 14 13 15 18 15 12 8 2 0 1 0 0 0 0 0 0 0 0 0 0 0 0 0 0 0 0 0 0 0 0 0 0 0 0 0 0 0 0 0 0 0 0 0 0 0 0 0 0 0 0 0 0 0 0 0 0 0 0 0 0 0 0 0 1 2 1 0 3 2 0 0 0 0 5 3 0 5 7 1 0 0 0 0 0 3 0 0 0 0 0 3 9 13 13 16 18 16 12 7 1 0 0 0 0 0 0 0 0 0 0 0 0 0 0 0 0 0 0 0 0 0 0 0 0 0 0 0 0 0 1 2 3 2 0 0 0 0 0 0 0 0 0 0 0 0 0 0 0 0 0 0 0 0 0 0 5 7 7 2 5 4 3 0 0 5 10 2 0 6 10 4 0 0 0 0 0 0 0 0 0 0 0 3 8 12 13 12 17 17 16 10 3 0 0 0 0 0 0 0 0 0 0 0 0 0 0 0 0 0 0 0 0 0 0 0 4 7 3 0 2 7 5 5 7 6 0 0 0 0 0 0 0 0 0 0 0 3 3 6 1 0 0 0 0 5 3 3 6 8 6 2 2 1 0 0 0 10 14 6 0 10 10 5 0 0 0 0 0 0 0 0 0 0 0 6 8 12 12 11 18 17 16 14 6 2 0 0 0 0 0 0 0 0 0 0 0 0 0 0 0 0 0 0 0 0 0 5 10 11 6 1 7 10 8 7 8 9 6 0 0 0 0 0 1 0 4 9 16 21 20 19 15 15 8 5 6 4 7 4 3 6 3 0 0 0 0 2 6 13 17 10 0 13 13 3 0 0 0 0 0 0 0 0 0 0 1 6 8 11 11 11 17 18 18 15 10 5 0 0 0 0 0 0 0 0 0 0 0 0 0 0 0 0 0 0 0 0 0 9 15 12 5 7 12 13 9 10 9 12 13 9 7 8 11 12 18 21 23 24 29 36 31 30 27 23 17 9 5 4 4 0 0 1 1 0 0 0 2 5 9 14 16 9 4 15 13 4 0 0 0 0 0 0 0 0 0 0 2 5 9 11 9 10 19 18 18 16 13 7 2 0 0 0 0 0 0 0 0 0 0 0 0 0 0 0 0 0 0 0 3 13 19 14 7 9 12 11 12 12 14 16 19 15 20 21 24 26 30 36 38 38 35 38 38 32 32 25 17 9 3 2 0 1 0 1 4 1 3 0 4 10 15 17 18 11 10 18 13 6 2 0 0 0 0 0 0 0 0 0 2 7 9 11 9 10 17 19 18 17 14 11 5 0 0 0 0 0 0 0 0 0 0 0 0 0 0 0 0 0 0 0 6 14 18 14 11 11 12 12 11 13 15 17 15 17 17 21 25 24 26 31 30 28 27 25 28 26 27 23 14 8 3 3 5 2 2 4 8 5 5 8 9 19 22 18 22 14 15 19 16 7 5 2 0 0 0 0 2 0 0 1 5 8 9 8 10 8 18 18 18 17 17 11 9 3 0 0 0 0 0 0 0 0 0 0 0 0 0 0 0 0 0 0 6 14 18 16 12 16 12 10 6 7 7 7 6 4 2 4 8 7 10 13 15 15 15 15 15 16 16 13 7 5 4 7 5 7 2 4 8 6 6 6 11 21 24 21 21 18 18 21 15 8 7 6 0 0 0 2 7 5 0 5 5 9 9 9 8 9 19 18 18 18 17 15 11 6 0 0 0 0 0 0 0 0 0 0 0 0 0 0 0 0 0 4 8 12 16 20 15 19 15 10 0 0 0 0 0 0 0 0 0 0 0 0 2 6 9 14 15 13 9 6 3 1 0 3 2 0 0 4 6 3 3 3 11 21 22 20 23 20 19 21 15 9 11 7 0 0 0 7 13 8 2 6 9 7 9 8 9 10 18 18 18 18 18 15 11 9 3 0 0 0 0 0 0 0 0 0 0 0 0 0 0 0 0 8 9 9 15 20 18 18 15 9 0 0 0 0 0 0 0 0 0 0 0 2 10 10 12 14 17 17 12 6 6 5 2 0 0 0 0 0 0 0 0 3 12 19 22 21 24 22 20 20 13 12 13 7 1 1 4 10 15 10 4 7 8 9 8 7 8 8 19 19 19 18 18 18 12 10 5 0 0 0 0 0 0 0 0 0 0 0 0 0 0 0 0 9 11 12 15 21 21 22 20 12 0 0 0 0 0 0 0 0 3 8 10 13 25 25 25 29 29 30 22 22 19 20 18 3 7 6 0 0 0 0 0 3 11 19 24 23 23 23 22 19 12 16 15 9 1 4 8 13 17 9 5 7 8 9 8 8 8 9 17 19 18 20 18 18 16 10 8 2 0 0 0 0 0 0 0 0 0 0 0 0 0 0 0 6 11 11 18 20 24 22 24 18 5 0 0 0 0 0 0 0 1 10 13 19 27 30 32 33 33 36 30 29 25 22 19 5 9 5 0 0 0 0 0 7 15 25 25 25 23 23 20 18 12 16 18 7 4 7 11 17 17 8 6 7 8 8 8 8 9 6 18 18 18 19 18 19 15 12 10 5 0 0 0 0 0 0 0 0 0 0 0 0 0 0 0 0 10 13 16 19 20 20 22 18 11 1 0 0 0 0 0 0 0 0 0 1 18 24 25 26 28 28 23 15 1 0 0 0 0 0 0 0 0 0 3 10 20 28 25 24 20 19 18 16 13 20 16 7 6 9 15 18 16 8 7 8 9 8 6 8 7 7 17 19 18 19 18 19 17 13 10 7 1 0 0 0 0 0 0 0 0 0 0 0 0 0 0 0 7 14 14 17 18 15 16 17 14 12 7 2 0 0 0 0 0 0 0 0 0 0 0 8 6 0 0 0 0 0 0 0 0 0 0 0 0 2 10 14 22 27 26 21 22 18 18 16 17 19 14 5 9 11 16 20 14 7 9 7 10 8 5 8 5 8 16 18 18 19 18 19 17 15 12 8 2 0 0 0 0 0 0 0 0 0 0 0 0 0 0 0 4 12 14 14 20 16 12 13 8 8 3 2 0 0 1 0 0 0 0 0 0 0 0 0 0 0 0 0 0 0 0 0 0 0 0 0 5 10 16 16 22 28 27 23 19 16 19 17 19 19 13 6 11 14 17 19 12 7 9 8 9 7 7 6 6 7 16 19 18 19 19 18 16 16 13 10 5 1 0 0 0 0 0 0 0 0 0 0 0 0 0 0 0 7 13 11 16 16 13 13 8 5 0 0 0 0 0 0 0 7 10 15 12 15 15 14 11 0 0 0 0 0 0 0 0 0 0 4 11 16 19 16 27 31 29 21 13 16 18 18 22 17 12 8 10 17 17 20 10 8 8 9 7 8 7 4 7 7 18 18 18 19 19 17 19 16 15 13 7 5 2 0 0 0 0 0 0 0 0 0 0 0 0 0 0 0 9 10 10 15 13 13 12 10 8 6 3 0 0 0 0 0 0 5 11 7 4 9 12 7 7 6 0 0 0 0 0 0 0 6 11 14 17 22 29 31 27 19 11 18 18 20 21 15 9 10 15 16 19 17 9 8 8 9 9 5 6 6 6 6 17 18 18 17 17 19 18 16 16 15 11 5 5 0 0 0 0 0 0 0 0 0 0 0 0 0 0 0 3 10 9 11 12 14 15 15 14 12 9 8 6 2 0 3 3 1 4 8 7 8 14 10 8 7 5 2 4 1 0 1 7 6 11 14 21 24 29 32 26 18 12 18 19 23 20 11 8 12 16 16 19 14 7 10 9 8 9 6 5 6 6 6 18 17 19 17 18 18 19 17 17 15 10 7 6 0 0 0 2 3 0 0 0 0 0 0 0 0 0 0 0 5 6 10 12 13 9 11 12 8 7 7 8 9 8 10 8 6 2 4 8 8 12 15 16 12 6 1 0 0 0 4 11 11 11 18 22 27 32 33 23 15 15 19 22 23 13 6 6 12 15 17 19 11 7 9 10 7 7 6 5 7 6 5 19 17 16 16 17 19 19 18 18 15 10 4 7 3 8 7 9 6 0 0 0 0 0 0 0 0 0 0 0 0 4 10 11 12 8 7 6 5 3 2 8 8 6 9 9 9 6 6 6 5 6 8 9 3 0 0 0 0 2 6 11 17 19 23 28 29 34 29 20 15 17 24 25 24 2 0 0 7 9 15 17 12 7 10 8 6 7 6 6 5 5 6 17 16 15 15 16 18 18 18 15 14 8 8 14 13 7 23 22 6 2 0 0 0 0 0 0 0 0 0 0 0 0 4 8 11 7 6 3 1 2 4 2 4 5 5 6 5 3 2 1 2 0 2 0 0 0 0 0 0 6 9 16 18 22 26 32 32 35 24 20 16 23 24 28 24 0 0 0 0 4 6 15 12 5 9 7 9 6 7 5 4 6 6 15 14 14 13 15 18 17 17 14 13 9 16 15 6 9 40 33 6 5 0 0 0 0 0 0 0 0 0 0 0 2 4 5 9 11 5 4 2 0 0 0 0 2 0 0 2 0 0 0 0 0 0 0 0 0 0 1 4 8 13 20 24 29 36 37 36 34 22 21 21 26 21 35 22 4 0 0 0 0 0 9 7 1 4 8 6 8 4 6 4 5 5 13 15 13 12 15 16 15 14 12 9 13 13 12 0 33 46 36 8 3 0 0 0 0 0 0 0 0 0 0 0 1 3 4 4 9 9 7 5 2 0 0 0 1 0 0 0 1 0 0 0 0 0 0 0 0 3 5 11 13 17 24 30 34 40 38 37 29 24 22 24 28 20 29 34 9 5 2 0 0 0 0 0 0 0 2 4 6 6 3 5 4 4 14 13 10 12 12 14 14 11 7 4 10 13 13 28 50 45 36 11 5 3 0 0 0 0 0 0 0 0 0 0 0 6 1 1 4 9 9 9 7 4 0 1 3 0 0 0 0 0 0 0 0 0 1 3 6 10 9 13 19 25 31 34 38 38 36 32 23 20 24 23 25 17 28 31 29 13 9 0 0 0 0 0 0 0 0 0 2 4 3 2 3 4 12 10 10 10 11 12 9 7 1 4 8 18 38 49 53 43 27 14 8 5 0 0 0 0 0 0 0 0 0 0 0 0 1 2 5 6 10 11 12 9 9 7 7 5 5 3 4 5 4 5 5 7 8 12 16 18 16 14 24 31 36 40 42 39 33 30 23 22 20 19 23 18 27 34 32 22 12 13 0 0 0 0 0 0 0 0 0 0 0 1 3 2 9 9 9 10 8 7 2 2 0 4 10 36 47 53 50 41 18 15 12 4 0 0 0 0 0 0 0 0 0 0 0 0 0 1 5 6 9 12 13 15 13 13 10 10 10 11 13 15 12 13 12 17 18 20 21 22 21 19 31 36 40 41 40 37 31 26 21 21 15 15 27 16 21 39 32 22 19 14 15 0 0 0 0 0 0 0 0 0 0 0 0 2 9 8 7 8 4 1 0 0 0 3 24 39 52 53 49 35 7 13 16 8 0 0 0 0 0 0 0 0 0 0 0 0 0 0 5 4 8 14 15 15 13 14 16 17 15 17 17 19 20 20 21 24 25 27 26 26 27 27 39 40 44 46 38 35 33 22 20 14 10 12 31 11 17 39 37 16 30 14 18 9 0 0 0 0 0 0 0 0 0 0 0 0 8 6 3 3 0 0 0 0 0 12 33 44 51 52 47 26 0 12 17 11 2 2 0 0 0 0 0 0 0 0 0 0 0 0 1 3 7 14 16 15 16 18 20 23 24 23 23 23 24 25 25 27 28 30 32 31 33 37 44 44 44 43 38 32 27 20 14 9 9 15 30 4 19 33 40 20 31 28 21 16 5 0 0 0 0 0 0 0 0 0 0 0 6 2 2 0 0 0 0 0 2 29 37 48 49 51 46 18 0 11 17 11 7 2 3 0 0 0 0 0 0 0 0 0 0 0 1 7 9 14 16 19 21 20 22 27 28 29 29 29 29 30 30 32 31 36 38 37 39 45 47 47 44 39 34 29 22 14 8 3 12 18 22 4 23 28 41 21 28 38 25 27 10 0 0 0 0 0 0 0 0 0 0 0 0 0 0 0 0 0 0 0 15 35 41 46 47 47 48 9 0 8 15 13 8 6 4 0 0 0 0 0 0 0 0 0 0 0 2 2 12 15 17 21 22 22 27 30 32 32 31 34 31 33 32 33 34 38 42 41 45 48 51 47 48 38 30 27 16 8 0 7 14 13 14 4 27 33 39 26 24 37 27 24 24 0 0 0 0 0 0 0 0 0 0 0 0 0 0 0 0 0 0 0 29 36 45 43 43 45 52 3 0 7 14 14 11 6 8 2 0 0 0 0 0 0 0 0 0 0 0 1 6 14 16 21 23 25 28 32 33 34 33 31 29 31 34 35 37 40 40 42 47 50 50 47 41 32 29 19 10 0 2 11 7 9 12 0 42 38 35 31 22 33 26 22 25 0 0 0 0 0 0 0 0 0 0 0 0 0 0 0 0 0 0 12 28 39 43 44 39 50 52 0 0 0 12 13 10 8 7 7 1 0 0 0 0 0 0 0 0 0 0 0 4 14 16 21 24 28 29 31 29 30 31 29 24 27 29 35 36 37 38 41 46 46 43 42 32 24 20 7 2 0 6 11 0 7 17 1 44 44 38 31 26 28 27 21 24 2 0 0 0 0 0 0 0 0 0 0 0 0 0 0 0 0 0 15 28 38 49 45 38 58 48 0 0 0 8 10 12 7 7 8 5 4 0 0 0 0 0 0 0 0 0 0 7 10 15 19 27 26 27 27 26 26 24 26 22 25 25 29 34 33 39 37 39 32 36 31 20 15 5 0 0 2 5 10 0 6 15 7 41 51 39 25 30 25 29 19 24 1 0 0 0 0 0 0 0 0 0 0 0 0 0 0 0 0 0 9 33 39 51 40 43 55 51 1 0 0 4 6 10 8 7 7 7 6 4 2 0 0 0 0 0 0 0 0 4 8 12 16 19 20 21 21 23 23 20 20 20 23 22 22 26 28 29 32 29 24 25 15 10 0 0 0 0 3 5 8 0 8 6 24 39 53 41 25 26 26 25 17 21 8 0 0 2 0 0 0 0 0 0 0 0 0 0 0 0 0 0 8 35 42 46 36 48 50 55 1 0 0 1 3 5 7 4 9 6 8 8 6 3 0 0 0 0 0 0 0 0 2 5 10 13 17 15 16 19 18 17 17 17 20 18 17 21 20 20 20 19 16 11 3 0 0 0 0 6 4 8 9 0 4 5 33 44 51 46 26 22 26 22 14 18 4 0 0 0 0 0 0 0 0 0 0 0 0 0 0 0 0 0 21 37 45 37 35 49 44 55 7 0 0 0 1 0 1 0 7 7 9 10 10 7 4 1 0 0 0 0 0 0 0 0 4 9 9 10 11 15 12 15 14 16 14 10 10 10 9 9 7 5 1 0 0 0 0 0 6 5 11 10 7 9 0 16 31 54 50 48 27 20 21 20 10 17 0 0 0 0 0 0 0 0 0 0 0 0 0 0 0 0 0 0 29 41 42 26 35 43 44 50 20 0 0 0 0 0 0 0 6 0 10 12 12 11 9 5 1 0 0 0 0 0 0 0 0 0 3 3 4 5 8 6 7 6 4 2 0 0 0 0 0 0 0 0 0 0 0 2 7 11 11 7 5 16 0 25 30 63 47 46 30 18 19 18 4 13 0 0 0 0 0 0 0 0 0 0 0 0 0 0 0 0 0 4 34 37 35 17 34 37 44 42 34 0 0 0 0 0 0 4 7 0 11 12 13 11 11 8 5 1 1 0 0 0 0 0 0 0 0 0 0 0 0 0 0 0 0 0 0 0 0 0 0 0 0 0 0 0 3 7 9 11 12 1 10 19 10 25 36 65 48 47 31 17 14 13 3 8 0 0 0 0 0 0 0 0 0 0 0 0 0 0 0 0 0 15 31 34 24 11 33 37 44 36 40 0 0 0 0 0 0 7 6 0 16 12 11 13 11 11 7 4 3 3 0 0 0 0 0 0 0 0 0 0 0 0 0 0 0 0 0 0 0 0 0 0 0 0 0 3 6 6 12 10 7 2 13 19 24 27 40 62 50 43 33 14 11 7 0 3 0 0 0 0 0 0 0 0 0 0 0 