P2
92
112
255
18 19 20 19 20 20 21 21 20 22 21 23 22 24 23 25 24 30 32 27 22 24 23 20 23 22 20 22 19 19 16 17 14 15 18 16 23 14 11 17 20 20 23 27 26 23 20 19 26 30 28 22 19 18 8 4 3 0 0 0 0 0 0 0 0 0 0 0 0 6 13 19 18 20 21 22 23 25 25 24 25 24 24 24 24 24 24 24 23 24 24 23 18 18 19 19 20 19 21 20 21 21 22 23 23 24 24 25 26 29 27 15 10 15 19 20 28 28 25 28 25 27 18 18 14 16 14 19 24 19 20 21 18 18 17 25 26 22 19 18 21 21 20 20 17 13 7 7 2 0 0 0 0 0 0 0 0 0 0 0 0 0 5 15 21 19 19 19 20 25 22 24 23 24 25 24 24 22 24 23 23 23 23 23 18 18 19 19 19 19 21 20 21 22 22 24 23 25 25 25 26 26 19 11 5 8 11 19 30 31 30 25 27 27 25 21 26 24 22 12 27 25 20 23 21 16 20 20 20 15 13 13 12 10 16 19 18 14 9 4 1 0 0 0 0 0 0 0 0 0 0 0 0 0 0 6 15 18 14 15 15 19 18 20 21 23 24 24 25 23 23 22 24 23 23 24 18 19 19 20 19 21 21 22 21 24 23 24 25 26 27 25 25 19 11 2 0 6 11 23 32 37 39 36 29 29 26 22 27 29 30 22 22 26 26 27 23 22 18 21 17 19 15 11 11 9 8 8 8 6 8 4 2 0 0 0 0 0 0 0 0 0 0 0 0 0 0 0 4 14 10 8 13 12 16 19 19 25 22 26 23 24 24 23 24 23 23 23 19 19 19 20 21 21 21 22 22 24 25 27 26 28 28 30 21 10 0 0 0 4 13 22 30 44 44 47 43 35 33 30 23 29 20 28 26 26 21 32 33 25 20 14 19 17 24 16 9 4 3 0 0 0 0 0 2 0 0 0 0 0 0 0 0 0 0 0 0 0 0 0 0 4 9 7 7 12 13 19 20 22 22 24 24 25 25 24 23 23 23 23 19 18 18 20 20 22 22 22 24 25 28 28 29 25 25 25 16 5 0 0 0 7 13 20 30 34 41 43 46 44 43 40 36 28 30 23 27 29 24 21 25 26 22 18 11 9 13 17 15 9 4 0 0 0 0 0 0 0 0 0 0 0 0 0 0 0 0 0 0 0 0 0 0 0 10 6 3 6 11 16 17 19 19 21 22 24 25 24 24 22 23 23 17 20 19 19 20 21 23 23 23 25 28 30 24 21 16 14 8 2 4 5 5 9 18 16 28 28 27 29 40 38 40 40 37 36 29 35 32 24 24 24 22 21 16 16 14 6 6 2 8 10 5 3 0 0 0 0 0 0 0 0 0 0 0 0 0 0 0 0 0 0 0 0 0 0 6 4 0 2 9 7 16 18 18 20 22 25 25 25 23 23 23 23 18 19 20 21 20 22 24 24 25 27 29 28 14 9 9 6 3 2 9 8 7 11 11 12 27 30 30 24 25 32 29 34 35 34 28 30 29 28 25 23 19 19 23 13 11 9 7 1 0 0 0 0 0 0 0 0 0 0 0 0 0 0 0 0 0 0 0 0 0 0 0 0 0 0 0 0 0 0 1 1 9 18 15 17 21 25 23 26 25 23 24 21 19 19 19 20 22 22 24 24 26 27 29 17 6 1 0 0 3 5 12 12 10 12 12 17 15 27 29 29 29 32 29 27 32 28 27 24 23 17 23 24 18 11 12 16 7 2 1 0 0 0 0 0 0 0 0 0 0 0 0 0 0 0 0 0 0 0 0 0 0 0 0 0 0 0 0 0 0 0 0 5 8 17 15 17 21 24 24 25 25 24 23 23 19 19 21 20 23 22 25 25 27 30 25 9 0 0 0 0 4 7 9 6 13 12 17 17 18 16 18 23 25 28 27 25 27 29 24 22 19 14 7 11 12 10 7 6 11 2 0 0 0 0 0 0 0 0 0 0 0 0 0 0 0 0 0 0 0 0 0 0 0 0 0 0 0 0 0 0 0 0 0 5 6 18 18 21 21 26 25 25 23 24 24 24 20 20 21 22 24 25 23 26 27 28 16 8 0 0 0 1 0 0 5 2 5 8 10 11 14 12 10 14 18 21 21 25 25 27 24 20 23 19 13 2 0 0 1 4 1 1 5 0 0 0 0 0 0 0 0 0 0 0 0 0 0 0 0 0 0 0 0 0 0 0 0 0 0 0 0 0 0 0 1 5 8 18 21 21 23 26 26 24 25 25 24 24 19 20 21 22 24 25 26 25 25 20 13 6 0 0 3 0 0 0 0 0 0 0 2 2 5 10 11 7 7 7 8 11 14 15 17 18 16 18 16 12 5 0 0 0 0 0 0 3 0 0 0 0 0 0 0 0 0 0 0 0 0 0 0 0 0 0 0 0 0 0 0 0 0 0 0 0 0 2 5 7 13 22 24 22 24 26 27 26 26 24 24 25 19 20 22 23 25 24 26 22 16 14 6 5 1 0 1 0 0 0 0 0 0 0 0 0 0 0 4 6 3 3 1 2 3 4 0 4 4 7 8 9 11 7 0 0 0 0 0 0 0 0 0 0 0 0 0 0 0 0 0 0 0 0 0 0 0 0 0 0 0 0 0 0 0 0 0 0 0 0 4 10 16 21 24 26 27 26 29 25 28 24 24 23 21 21 22 20 22 18 19 10 6 4 1 4 0 0 0 0 0 0 0 0 0 0 0 0 0 0 0 0 0 0 0 0 0 0 0 0 0 0 0 0 0 0 0 0 0 0 0 0 0 0 0 0 0 0 0 0 0 0 0 0 0 0 0 0 0 0 0 0 0 0 0 0 0 0 0 0 0 0 0 7 17 19 24 28 28 29 29 27 28 26 25 25 21 22 16 15 15 10 9 4 0 0 0 0 0 0 0 0 0 0 0 0 0 0 0 0 0 0 0 0 0 0 0 0 0 0 0 0 0 0 0 0 0 0 0 0 0 0 0 0 0 0 0 0 0 0 0 0 0 0 0 0 0 0 0 0 0 0 0 0 0 0 0 0 0 0 0 0 0 0 0 4 12 22 24 28 29 29 29 28 27 26 26 25 20 20 9 6 5 1 0 0 0 0 0 0 0 0 0 0 0 0 0 0 0 0 0 0 0 0 0 0 0 0 0 0 0 0 0 0 0 0 0 0 0 0 0 0 0 0 0 0 0 0 0 0 0 0 0 0 0 0 0 0 0 0 0 1 2 2 0 0 0 2 0 0 0 0 0 0 0 0 0 0 6 17 22 27 28 30 30 29 27 27 28 26 19 16 7 0 0 0 0 0 0 0 0 0 0 0 0 0 0 0 0 0 0 0 0 0 0 0 0 0 0 0 0 0 0 0 0 0 0 0 0 0 0 0 0 0 0 0 0 0 0 0 0 0 0 0 0 0 1 3 6 8 7 10 12 10 13 12 8 6 6 6 5 0 0 0 0 0 0 0 0 0 0 5 18 24 27 26 31 30 28 27 28 26 17 11 3 0 0 0 0 0 0 0 0 0 0 0 0 0 0 0 0 0 0 0 0 0 0 0 0 0 0 0 0 0 0 0 0 0 0 0 0 0 0 0 0 0 0 0 0 0 0 0 0 0 0 0 0 2 5 8 11 14 16 19 23 21 23 23 21 18 16 13 12 12 0 0 0 0 0 0 0 0 0 0 7 20 25 26 27 31 32 27 28 27 19 12 0 0 0 0 0 0 0 0 0 0 0 0 0 0 0 0 0 0 0 0 0 0 0 0 0 0 0 0 0 0 0 0 0 0 0 0 0 0 0 0 0 0 0 0 0 0 0 0 0 3 6 6 11 14 17 19 21 24 28 29 31 32 33 32 28 28 25 21 14 19 13 0 0 0 0 0 0 0 0 0 0 7 20 27 28 27 31 29 28 27 17 11 0 0 0 0 0 0 0 0 0 0 0 0 0 0 0 0 0 0 0 0 0 0 0 0 0 0 0 0 0 0 0 0 0 0 0 0 0 0 0 0 0 0 0 0 0 1 1 6 11 12 15 16 19 24 25 29 30 33 35 38 40 39 41 41 38 36 33 29 23 18 24 9 1 0 0 0 0 0 0 0 0 0 9 19 25 25 25 28 28 28 17 9 0 0 0 0 0 0 0 0 0 0 0 0 0 0 0 0 0 0 0 0 0 0 0 0 0 0 0 0 0 0 0 0 0 0 0 0 0 0 0 0 0 0 3 5 7 11 13 17 20 21 23 25 29 32 34 37 37 39 41 43 45 45 47 47 45 43 38 36 30 23 27 22 10 1 0 0 0 0 0 0 0 0 4 8 15 21 23 25 28 26 16 3 0 0 0 0 0 0 0 0 0 0 0 0 0 0 0 0 0 0 0 0 0 0 0 0 0 0 0 0 0 0 0 0 0 0 0 0 1 2 5 8 10 12 13 15 17 20 22 24 27 27 29 33 35 38 41 42 42 44 45 46 48 49 51 49 49 47 42 41 36 32 27 29 18 12 4 0 0 0 0 0 0 0 3 0 12 12 18 22 25 27 9 0 0 0 0 0 0 0 0 0 0 0 0 0 0 0 0 0 0 0 0 0 0 0 0 0 0 0 0 0 0 0 0 0 1 4 10 13 15 16 17 19 20 22 23 25 27 28 30 32 35 33 35 37 38 41 43 44 45 45 46 48 48 49 52 52 51 50 47 45 42 38 31 34 26 18 9 5 0 0 0 0 0 0 0 0 2 8 8 18 21 24 0 0 0 0 0 0 0 0 0 0 0 0 0 0 0 0 0 0 0 0 0 0 0 0 0 0 0 0 0 0 0 0 3 9 13 17 20 25 26 27 27 27 29 27 30 31 33 34 34 34 37 37 38 39 39 41 43 44 46 45 46 48 48 48 51 52 52 50 48 47 43 43 37 36 35 23 15 11 6 0 0 0 0 0 0 0 0 0 0 7 14 21 0 0 0 0 0 0 0 0 0 0 3 7 6 1 0 0 0 0 0 0 0 0 0 0 1 1 5 8 10 12 12 17 20 23 26 30 31 34 35 33 34 33 33 34 35 36 36 36 35 35 37 37 40 40 41 42 42 44 45 44 44 47 47 48 49 53 51 49 49 48 47 46 42 37 40 33 20 18 14 0 0 0 0 0 0 0 0 0 0 0 5 14 0 0 0 0 0 0 0 0 1 8 13 15 13 11 8 8 9 9 10 11 9 8 10 13 15 19 17 19 21 24 27 30 33 33 35 35 34 35 35 36 37 38 38 37 38 37 37 35 34 35 36 37 40 41 41 41 41 42 44 42 43 46 46 46 49 49 49 47 46 46 46 46 45 38 40 41 26 16 21 8 0 0 0 0 0 0 0 0 0 0 0 0 0 0 0 0 0 0 0 0 0 15 21 24 24 24 22 21 19 22 24 23 20 19 20 24 28 29 25 26 28 31 33 34 36 35 36 37 36 35 36 36 37 37 37 36 37 36 34 35 34 35 36 36 38 39 40 40 41 41 42 42 42 43 45 45 47 47 46 45 46 44 45 46 46 40 39 40 33 17 18 18 2 0 0 0 0 0 0 0 0 0 0 0 0 0 0 0 0 0 0 0 10 13 20 28 28 30 31 28 28 29 31 31 27 26 26 28 30 32 31 33 33 34 34 34 34 34 36 35 34 34 35 35 35 34 34 35 35 33 33 33 33 34 34 34 35 36 38 39 40 40 41 41 41 42 42 42 44 43 41 43 42 41 43 45 44 40 38 39 34 23 18 19 12 0 0 0 0 0 0 0 0 0 0 0 0 0 0 0 0 0 0 8 10 14 26 32 32 33 33 32 30 32 33 34 31 29 27 27 29 32 33 31 33 33 33 32 32 34 34 34 32 32 33 32 32 33 32 33 32 32 31 32 32 32 33 32 33 34 35 37 38 38 39 38 39 40 40 39 40 39 38 39 39 39 39 41 41 38 33 37 35 25 16 21 13 5 0 0 0 0 0 0 0 0 0 0 0 0 0 0 0 0 3 3 7 19 29 33 31 31 32 30 29 30 30 31 33 29 27 27 28 31 31 30 30 30 30 30 31 31 31 31 31 30 31 30 30 30 29 30 31 28 28 29 29 31 31 30 30 32 32 33 34 34 36 36 37 38 37 34 35 35 35 35 36 36 37 36 36 35 30 32 33 27 17 19 16 9 0 0 0 0 0 0 0 0 0 0 0 0 0 0 0 0 0 0 7 19 26 29 27 29 29 28 27 26 26 29 29 27 25 25 28 30 30 30 29 29 28 29 29 29 29 30 29 30 30 28 28 28 27 27 28 26 27 27 26 28 28 27 27 28 29 30 31 31 33 34 34 36 35 31 32 32 31 32 33 32 36 34 33 30 27 28 29 26 17 16 16 11 0 0 0 0 0 0 0 0 0 0 0 0 0 0 0 0 0 0 1 12 21 23 23 24 26 26 24 23 25 25 27 25 24 25 27 28 29 29 28 28 27 28 28 27 26 28 27 28 28 27 27 26 25 26 26 25 26 26 26 26 27 26 27 27 27 28 29 30 31 31 32 33 32 30 30 30 28 29 30 29 31 32 30 28 24 26 28 26 18 14 15 11 3 0 0 0 0 0 0 0 0 0 0 0 0 0 0 0 0 0 0 7 15 19 19 23 23 22 22 21 22 24 24 25 25 26 26 27 29 29 29 28 26 28 28 27 27 27 27 27 27 27 27 26 25 25 25 25 26 27 26 26 26 26 26 26 26 27 27 28 29 30 31 32 29 29 30 29 27 26 28 28 28 28 28 22 23 26 24 25 16 12 15 10 7 0 0 0 0 0 0 0 0 0 0 0 0 0 0 0 0 0 0 5 12 16 16 20 21 21 19 19 21 22 23 23 26 26 27 28 30 29 30 28 27 28 29 28 28 28 27 28 28 27 27 26 25 25 25 25 25 26 25 25 26 25 27 26 25 26 26 27 30 31 30 29 28 27 29 29 27 26 28 25 25 24 24 20 21 26 25 21 15 13 13 7 3 0 0 0 0 0 0 0 0 0 0 0 0 0 0 0 0 0 0 8 13 14 15 17 18 19 18 20 19 21 22 25 25 28 28 30 30 31 32 29 29 28 30 31 29 30 30 29 30 29 28 28 26 26 26 25 25 25 24 25 25 26 26 26 24 27 26 27 28 31 29 28 27 26 27 29 27 27 27 25 23 23 21 18 19 24 21 20 15 14 11 6 2 0 0 0 0 0 0 0 0 0 0 0 0 0 0 0 0 0 0 6 10 9 12 16 17 16 17 18 19 20 23 24 27 27 28 30 31 31 33 33 32 31 32 34 33 33 32 31 32 31 30 29 28 27 27 25 25 26 24 25 26 25 26 26 25 27 27 28 29 31 29 28 27 25 28 28 28 28 27 23 20 19 19 18 19 19 18 14 16 11 11 6 0 0 0 0 0 0 0 0 0 0 0 0 0 0 0 0 0 0 0 3 7 5 11 12 11 13 13 17 18 19 21 23 24 26 27 29 30 31 34 34 33 34 34 34 36 34 33 32 32 31 31 30 28 28 27 26 26 26 24 26 25 27 26 28 25 28 29 29 31 30 29 28 27 28 29 29 28 28 26 21 19 17 18 18 17 17 15 11 11 12 7 6 0 0 0 0 0 0 0 0 0 0 0 0 0 0 0 0 0 0 0 2 5 3 8 9 10 11 10 13 15 16 20 22 24 25 26 27 30 31 33 33 34 34 35 35 35 35 33 32 32 31 30 30 28 27 27 27 26 27 26 27 27 27 28 28 28 31 33 31 32 32 30 29 28 28 28 27 28 28 25 19 18 18 16 16 16 14 11 10 11 9 9 2 0 0 0 0 0 0 0 0 0 0 0 0 0 0 0 0 0 0 0 1 3 3 5 8 10 10 8 10 13 15 19 21 21 25 25 27 30 31 32 33 34 34 35 35 35 34 34 32 32 31 29 29 27 27 27 26 25 27 26 28 28 28 29 30 31 33 34 33 33 33 32 30 28 27 28 26 27 28 25 18 17 17 17 15 14 11 10 7 7 9 7 2 0 0 0 0 0 0 0 0 0 0 0 0 0 0 0 0 0 0 0 4 3 2 3 5 8 10 8 10 10 14 17 19 21 23 24 26 30 29 32 32 32 34 35 34 34 33 32 31 30 29 27 26 26 25 25 24 24 26 26 28 29 29 30 32 33 34 35 34 35 33 33 33 29 27 27 26 27 25 22 16 14 15 15 14 11 8 4 7 1 6 6 3 0 0 0 0 0 0 0 0 0 0 0 0 0 0 0 0 0 0 0 1 0 0 0 1 9 7 6 8 9 12 16 19 20 21 24 26 28 27 30 31 32 32 35 33 33 31 30 30 28 25 24 23 23 22 21 21 22 23 24 26 27 29 31 33 35 35 36 35 35 34 34 32 30 27 27 26 26 25 20 14 13 13 11 11 10 6 2 4 3 0 5 1 0 0 0 0 0 0 0 0 0 0 0 0 0 0 0 0 0 0 0 0 0 0 0 0 1 0 0 4 6 9 14 14 16 19 23 25 28 28 28 31 32 33 33 32 30 29 29 27 26 23 19 20 15 16 16 16 17 19 20 24 24 26 29 31 34 35 36 35 37 35 33 32 31 27 27 26 24 23 17 14 11 12 8 8 6 5 1 1 0 0 4 1 0 0 0 0 0 0 0 0 0 0 0 0 0 0 0 0 0 0 0 0 0 0 0 0 0 0 0 0 2 5 7 10 13 17 20 24 26 28 28 30 31 32 33 30 29 26 26 23 21 19 17 14 9 9 9 10 11 15 17 19 22 23 27 29 32 33 33 33 36 34 32 30 30 27 24 24 21 19 12 12 10 10 8 6 3 0 0 0 0 0 2 0 0 0 0 0 0 0 0 0 0 0 0 0 0 0 0 0 0 0 0 0 0 0 0 0 0 0 0 0 0 0 5 7 11 16 19 24 27 29 30 28 30 30 29 28 25 25 22 20 15 14 8 7 2 1 0 2 3 8 10 12 14 17 22 25 26 30 28 30 31 29 29 25 25 22 20 21 18 14 9 6 4 7 6 1 0 0 0 0 0 0 0 0 0 0 0 0 0 0 0 0 0 0 0 0 0 0 0 0 0 0 0 0 0 0 0 0 0 0 0 0 0 3 6 4 6 13 13 18 21 25 25 23 22 22 21 20 19 18 16 12 6 4 1 0 0 0 0 0 0 0 0 2 7 9 14 19 20 22 22 24 25 23 25 22 21 19 19 16 11 9 4 1 0 0 0 0 0 0 0 0 0 0 0 0 0 0 0 0 0 0 0 0 0 0 0 0 0 0 0 0 0 0 0 0 0 0 0 0 0 0 0 0 1 1 0 0 0 3 6 10 12 16 17 14 11 12 11 8 5 4 3 0 0 0 0 0 0 0 0 0 0 0 0 0 0 2 9 13 16 15 20 18 20 20 22 17 17 15 14 10 7 5 1 0 0 0 0 0 0 0 0 0 0 0 0 0 0 0 0 0 0 0 0 0 0 0 0 0 0 0 0 0 0 0 0 0 0 0 0 0 0 0 4 1 0 0 0 0 0 0 0 0 0 1 8 6 4 4 2 2 0 0 0 0 0 0 0 0 0 0 0 0 0 0 0 0 0 0 1 9 11 12 14 14 16 16 15 14 11 10 6 7 4 0 0 0 0 0 0 0 0 0 0 0 0 0 0 0 0 0 0 0 0 0 0 0 0 0 0 0 0 0 0 0 0 0 0 0 0 0 0 0 0 0 0 0 0 0 0 0 0 0 0 0 0 0 0 1 3 1 2 0 0 0 0 0 0 0 0 0 0 0 0 0 0 0 0 0 0 0 0 5 6 8 10 9 11 10 8 8 6 4 2 2 2 0 0 0 0 0 0 0 0 0 0 0 0 0 0 0 0 0 0 0 0 0 0 0 0 0 0 0 0 0 0 0 0 0 0 0 0 0 0 0 0 0 0 0 0 0 0 0 0 0 0 0 0 0 0 1 7 9 10 11 6 6 0 0 0 0 0 0 0 0 0 0 0 0 0 0 0 0 0 3 3 5 4 2 2 5 7 3 0 0 0 0 0 0 0 0 0 0 0 0 0 0 0 0 0 0 0 0 0 0 0 0 0 0 0 0 0 0 0 0 0 0 0 0 0 0 0 0 0 0 0 0 0 0 0 0 0 0 0 0 0 0 0 0 0 0 0 0 6 12 14 17 14 15 12 6 2 0 0 0 0 0 0 0 0 0 0 0 0 0 0 0 1 1 0 0 0 3 3 1 0 0 0 0 0 0 0 0 0 0 0 0 0 0 0 0 0 0 0 0 0 0 0 0 0 0 0 0 0 0 0 0 0 0 0 0 0 0 0 0 0 0 0 0 0 0 3 5 2 0 1 5 6 8 3 4 1 0 0 0 3 11 13 14 13 8 7 9 6 4 0 0 0 0 0 0 0 0 0 0 0 0 0 0 2 2 0 1 3 1 0 0 0 0 0 0 0 0 0 0 0 0 0 0 0 0 0 0 0 0 0 0 0 0 0 0 0 0 0 0 0 0 0 0 0 0 0 0 0 0 0 0 0 0 0 0 0 0 0 1 0 0 0 0 3 10 5 4 7 9 9 4 12 11 13 8 7 10 9 13 12 13 8 0 0 0 0 0 0 0 0 0 0 0 1 7 5 7 8 10 9 8 7 4 1 0 0 0 0 0 0 0 0 0 0 0 0 0 0 0 0 0 0 0 0 0 0 0 0 0 0 0 0 0 0 0 0 0 0 0 0 0 0 0 0 0 0 0 0 0 0 0 0 0 0 0 1 0 0 0 7 17 14 10 3 7 7 6 8 15 11 11 3 3 0 0 0 0 0 0 0 0 0 2 3 4 10 12 11 14 17 20 21 19 20 19 11 0 0 0 0 0 0 0 0 0 0 0 0 0 0 0 0 0 0 0 0 0 0 0 0 0 0 0 0 0 0 0 0 0 0 0 0 0 0 0 0 0 0 0 0 0 0 0 0 0 0 0 0 0 0 0 7 14 9 5 0 0 0 0 2 14 9 0 0 0 0 0 0 0 0 0 0 0 1 3 3 6 11 12 10 17 24 24 23 23 26 27 12 4 0 0 0 0 0 0 0 0 0 0 0 0 0 0 0 0 0 0 0 0 0 0 0 0 0 0 0 0 0 0 0 0 0 0 0 0 0 0 0 0 0 0 0 0 0 0 0 0 1 0 0 0 6 11 16 16 6 4 0 0 0 0 1 16 12 0 0 0 0 0 0 0 0 0 0 0 0 0 0 3 10 13 9 16 19 17 17 21 27 29 19 4 0 0 0 0 0 0 0 0 0 0 0 0 0 0 0 0 0 0 0 0 0 0 0 0 0 0 0 0 0 0 0 0 0 0 0 0 0 0 0 0 0 0 0 0 0 0 0 0 0 0 0 3 7 22 21 16 15 6 8 0 0 2 10 21 18 5 0 0 0 2 0 0 0 0 0 0 0 0 4 8 9 8 3 12 11 9 15 13 15 18 22 6 0 0 0 0 0 0 0 0 0 0 0 0 0 0 0 0 0 0 0 0 0 0 0 0 0 0 0 0 0 0 0 0 0 0 0 0 0 0 0 0 0 0 0 0 0 0 0 0 0 0 0 5 4 14 14 13 18 20 20 13 6 12 21 25 22 17 12 10 9 11 0 0 0 0 4 2 0 0 6 14 4 0 0 16 8 9 11 16 15 15 13 9 0 0 0 0 0 0 0 0 0 0 0 0 0 0 0 0 0 0 0 0 0 0 0 0 0 0 0 0 3 0 0 0 0 0 0 0 0 2 0 1 0 0 0 4 7 9 5 2 3 7 10 13 11 16 15 19 23 21 21 21 10 11 16 24 25 21 19 18 19 15 7 4 8 5 2 7 4 5 15 17 0 0 0 0 0 1 8 15 11 13 6 4 2 0 0 0 0 0 0 0 0 0 0 0 0 0 0 0 0 0 0 0 0 0 0 0 0 0 0 1 15 0 0 0 0 0 0 0 1 5 2 6 1 0 2 9 12 13 12 13 15 14 17 16 14 17 22 26 28 28 27 25 18 16 16 19 21 23 19 18 20 17 9 10 14 8 9 13 7 12 20 19 5 0 0 0 0 0 2 3 1 0 0 0 1 2 0 2 0 0 0 0 0 0 0 0 0 0 0 0 0 0 0 0 0 0 0 0 4 0 3 5 17 1 6 0 0 0 0 0 1 4 4 8 2 0 1 9 11 12 12 14 13 13 15 15 16 19 21 21 21 23 23 22 19 16 17 20 20 20 20 19 23 18 15 16 18 18 19 18 15 16 21 21 23 6 0 0 4 3 10 8 4 0 0 0 0 0 0 0 0 0 0 0 0 0 0 0 0 0 0 0 0 0 0 0 0 0 0 9 8 4 12 8 21 5 10 4 0 0 0 0 0 2 3 9 5 1 4 9 10 10 9 11 12 11 11 12 15 20 23 20 21 25 25 24 20 20 22 24 24 25 24 24 24 21 19 22 23 24 23 21 19 21 24 21 23 15 9 11 14 19 18 16 12 6 1 0 0 0 0 0 0 0 0 0 0 0 0 0 0 0 0 0 0 0 0 3 2 7 6 17 9 7 15 8 19 11 12 7 1 0 0 2 1 3 2 10 8 5 4 8 11 11 11 13 13 14 14 17 19 24 27 28 30 28 28 25 22 22 25 25 24 25 24 23 23 20 20 25 27 28 26 22 21 24 27 23 21 12 5 11 14 16 21 23 20 14 7 7 0 0 0 0 0 0 0 0 0 0 0 0 0 0 0 0 0 0 0 10 14 12 10 24 4 10 14 8 21 16 18 10 7 0 0 2 6 6 7 11 11 7 7 7 10 10 10 11 14 13 17 19 23 26 29 31 31 29 28 24 24 23 24 25 25 24 24 22 19 19 21 24 27 28 25 20 23 26 28 26 23 13 7 7 10 11 16 20 21 20 16 8 3 0 0 0 2 0 0 0 0 0 0 0 0 0 0 0 0 0 3 13 21 14 16 21 5 17 12 6 16 20 21 16 11 0 0 3 7 10 17 16 14 10 7 8 6 9 10 11 13 15 17 21 25 28 31 30 30 26 26 26 21 21 22 22 24 24 22 19 19 19 19 22 24 26 24 20 21 29 30 27 25 19 12 10 12 15 16 21 24 22 19 13 7 3 2 1 3 2 1 0 0 0 0 0 0 0 0 0 0 0 11 15 29 15 23 14 12 21 12 11 14 23 22 24 17 0 0 4 5 18 24 21 13 11 10 8 7 9 10 11 13 16 18 21 23 26 28 30 28 28 25 24 19 17 19 20 22 22 20 19 17 17 19 20 24 24 24 21 24 30 32 32 29 23 16 14 14 15 17 22 25 25 20 14 14 7 6 4 5 3 3 1 0 0 0 0 0 0 0 0 0 0 11 17 27 22 21 4 19 13 9 17 10 22 22 25 26 8 0 3 8 23 26 21 14 10 10 8 9 11 10 9 12 14 19 20 21 23 25 25 26 26 25 23 18 16 19 21 21 19 19 19 16 16 19 23 25 24 24 25 27 33 36 34 31 26 21 18 19 18 18 22 23 24 20 17 15 7 4 6 4 3 2 1 1 0 0 0 0 0 4 3 0 3 14 16 20 24 13 7 16 10 13 22 4 17 24 26 30 17 7 4 6 25 28 20 14 9 10 8 8 8 7 8 12 14 16 20 21 24 25 25 25 25 24 21 18 16 19 21 22 19 17 17 15 16 21 25 28 26 27 26 29 34 38 37 34 32 25 22 21 22 24 25 27 27 25 18 16 10 7 1 5 3 1 3 3 0 0 0 0 4 10 6 5 10 13 17 19 26 6 14 17 9 18 25 6 11 23 25 36 26 18 12 6 20 27 19 13 8 8 9 7 5 4 8 10 11 14 19 20 25 24 24 25 26 24 21 19 19 21 23 24 22 18 16 13 17 23 26 29 29 27 26 28 34 38 36 35 33 27 25 23 23 26 28 29 30 28 23 17 13 7 4 3 3 2 3 3 1 0 0 0 6 13 5 7 12 16 17 16 21 7 11 13 12 21 27 10 13 22 17 31 28 26 22 13 13 23 15 13 6 5 7 3 2 4 5 6 8 15 19 20 24 23 23 23 22 22 21 19 20 23 23 24 23 19 15 16 17 22 27 27 26 24 24 30 34 40 38 36 35 29 26 23 23 24 28 29 29 29 24 19 12 6 5 2 3 4 2 2 1 0 0 0 9 11 4 11 15 15 11 16 15 8 9 11 16 24 22 11 12 24 17 25 19 20 24 27 17 19 13 10 5 3 4 3 0 1 1 1 7 12 16 16 17 18 18 20 19 18 18 16 17 20 20 21 21 19 16 14 17 21 23 23 20 21 24 31 36 39 39 39 35 30 27 25 26 21 24 27 28 27 23 18 13 7 4 2 2 3 0 0 0 0 0 2 8 4 5 11 16 13 15 18 11 10 9 12 19 26 20 10 10 24 25 30 23 13 21 28 24 16 12 9 4 0 1 0 0 0 0 0 2 5 4 7 9 11 13 13 11 13 12 10 11 14 17 18 19 16 16 17 15 15 18 18 17 21 27 31 37 40 39 40 38 32 28 27 28 23 21 23 24 25 21 16 11 4 3 1 0 1 1 0 0 0 0 4 3 3 11 20 24 15 23 13 7 11 10 15 23 23 20 9 8 17 27 32 29 19 18 24 23 19 11 8 3 0 0 0 0 0 0 0 0 0 0 0 3 3 6 6 5 5 3 5 5 9 11 13 15 16 13 16 15 15 12 13 15 22 28 31 34 38 36 38 36 30 25 24 25 25 16 16 20 19 16 12 9 5 1 2 0 0 0 0 0 0 0 0 5 7 16 22 21 17 21 12 8 10 12 19 23 22 24 1 7 8 18 24 27 25 20 19 17 17 11 6 1 0 0 0 0 0 0 0 0 0 0 0 0 0 1 1 0 0 0 0 0 3 6 7 11 11 12 14 13 9 10 11 16 20 26 30 29 32 29 27 26 24 20 18 20 20 15 12 14 13 13 8 5 2 0 0 0 0 0 0 0 0 0 0 7 13 16 23 26 24 23 11 11 8 15 20 24 23 27 0 3 4 3 15 16 19 19 17 17 15 10 4 1 0 0 0 0 0 0 0 0 0 0 0 0 0 0 0 0 0 0 0 0 0 0 2 7 6 8 9 9 2 4 8 15 20 22 22 20 20 16 12 13 11 11 10 12 15 11 6 6 5 7 2 2 0 0 0 0 0 0 0 0 0 0 3 6 14 15 26 28 28 17 7 10 9 14 23 22 24 27 0 0 0 0 0 6 9 10 9 14 13 9 2 0 0 0 0 0 0 0 0 0 0 0 0 0 0 0 0 0 0 0 0 0 0 0 0 4 2 1 0 0 0 0 4 9 12 14 11 9 9 1 0 1 0 0 1 3 4 5 0 0 0 0 0 0 0 0 0 0 0 0 0 0 0 0 1 7 12 18 23 25 23 9 10 7 12 16 20 21 27 29 1 0 0 0 0 0 2 2 0 6 10 7 0 0 0 0 0 0 0 0 0 0 0 0 0 0 0 0 0 0 0 0 0 0 0 0 0 0 0 0 0 0 0 0 0 7 4 5 2 0 1 0 0 0 0 0 0 0 0 0 0 0 0 0 0 0 0 0 0 0 0 0 0 0 0 0 0 7 11 16 19 20 14 14 6 9 15 16 17 23 27 30 3 4 0 0 0 0 0 0 0 0 2 0 0 0 0 0 0 0 0 0 0 0 0 0 0 0 0 0 0 0 0 0 0 0 0 0 0 0 0 0 0 0 0 0 0 0 0 0 0 0 0 0 0 0 0 0 0 0 0 0 0 0 0 0 0 0 0 0 0 0 0 0 0 0 0 0 0 6 6 10 16 6 7 7 6 11 16 16 18 24 27 30 3 3 0 0 0 0 0 0 0 0 0 0 0 0 0 0 0 0 0 0 0 0 0 0 0 0 0 0 0 0 0 0 0 0 0 0 0 0 0 0 0 0 0 0 0 0 0 0 0 0 0 0 0 0 0 0 0 0 0 0 0 0 0 0 0 0 0 0 0 0 0 0 0 0 0 0 0 0 0 1 2 0 4 4 7 11 13 15 24 26 29 29 1 2 1 0 0 0 0 0 0 0 0 0 0 0 0 0 0 0 0 0 0 0 0 0 0 0 0 0 0 0 0 0 0 0 0 0 0 0 0 0 0 0 0 0 0 0 0 0 0 0 0 0 0 0 0 0 0 0 0 0 0 0 0 0 0 0 0 0 0 0 0 0 0 0 0 0 0 0 0 0 0 0 0 5 7 8 12 19 25 27 29 30 2 1 2 0 0 0 0 0 0 0 0 0 0 0 0 0 0 0 0 0 0 0 0 0 0 0 0 0 0 0 0 0 0 0 0 0 0 0 0 0 0 0 0 0 0 0 0 0 0 0 0 0 2 5 0 0 0 0 0 0 0 0 0 0 0 0 0 0 0 0 0 0 0 0 0 0 0 0 0 0 0 0 0 5 7 7 16 22 26 29 29 30 2 4 1 0 0 0 0 0 0 0 0 0 0 0 0 0 0 0 0 0 0 0 0 0 0 0 0 0 0 0 0 0 0 0 0 0 0 0 0 0 0 0 2 7 7 7 8 5 4 6 9 10 7 6 4 1 0 0 0 0 0 0 0 0 0 0 0 0 0 0 0 0 0 0 0 0 0 0 0 0 0 0 2 5 7 14 20 26 27 29 29 30 4 2 0 0 0 0 0 0 0 0 0 0 0 0 0 0 0 0 0 0 0 0 0 0 0 0 0 0 0 0 0 0 0 0 0 0 0 0 0 0 2 8 9 10 11 9 11 14 9 2 7 10 9 3 1 0 0 0 0 0 0 0 0 0 0 0 0 0 0 0 0 0 0 0 0 0 0 0 0 0 0 0 4 10 13 19 24 27 29 29 31 30 6 2 1 0 0 0 0 0 0 0 0 0 0 0 0 0 0 0 0 0 0 0 0 0 0 0 0 0 0 0 0 0 0 0 0 0 0 0 0 0 4 7 8 10 11 10 12 15 12 8 1 4 7 7 1 0 0 0 0 0 0 0 0 0 0 0 0 0 0 0 0 0 0 0 0 0 0 0 0 0 0 0 9 15 21 23 28 28 30 30 32 31 4 5 4 0 1 0 0 0 0 0 0 0 0 0 0 0 0 0 0 0 0 0 0 0 0 0 0 0 0 0 0 0 0 0 0 0 0 0 0 0 1 5 2 8 9 10 14 14 13 12 1 1 5 9 5 1 0 0 0 0 0 0 0 0 0 0 0 0 0 0 0 0 0 0 0 0 0 0 0 0 0 8 15 20 24 27 28 30 29 31 30 33 6 6 6 2 0 0 0 0 0 0 0 0 0 0 0 0 0 0 0 0 0 0 0 0 0 0 0 0 0 0 0 0 0 0 0 0 0 0 0 0 0 0 0 0 6 10 11 11 11 11 4 0 3 5 2 0 0 0 0 0 0 0 0 0 0 0 0 0 0 0 0 0 0 0 0 0 0 0 0 0 4 13 21 25 28 28 30 31 30 30 31 32 9 9 8 6 4 3 3 1 0 0 0 0 0 0 0 0 0 0 0 0 0 0 0 0 0 0 0 0 0 0 0 1 0 0 0 0 0 0 0 0 0 0 0 0 0 9 5 8 7 7 4 0 0 0 0 0 0 0 0 0 0 0 0 0 0 0 0 0 0 0 0 0 0 0 0 0 0 0 0 6 15 21 25 28 29 30 30 32 30 31 31 31 11 11 13 9 11 10 9 7 0 3 2 0 2 0 0 0 0 0 0 0 0 0 0 0 0 0 0 0 0 0 0 0 0 1 0 0 0 0 0 0 0 0 0 0 0 2 5 4 5 6 2 0 0 0 0 0 0 0 0 0 0 0 0 0 0 0 0 0 0 0 0 0 0 0 0 0 0 0 7 15 23 27 28 29 31 31 32 32 31 30 31 30 10 11 12 12 13 14 9 9 3 2 0 0 0 4 0 0 0 0 2 3 0 0 0 0 0 0 0 0 0 0 0 0 0 0 0 0 0 0 0 0 0 0 0 0 0 0 0 0 0 0 3 1 0 0 1 0 0 0 0 0 0 0 0 0 0 0 0 0 0 0 0 0 0 0 0 0 0 2 8 20 24 29 31 31 32 31 32 31 31 30 31 31 10 11 12 12 14 12 11 6 3 0 0 0 0 3 0 0 0 0 2 4 2 0 0 0 0 0 0 0 0 0 0 0 0 0 0 0 0 0 0 0 0 0 0 0 0 0 0 0 0 0 0 0 0 0 0 0 0 0 0 0 0 0 0 0 0 0 0 0 0 0 0 0 0 0 0 0 0 4 12 19 28 29 32 30 32 32 33 32 30 31 31 30 10 10 11 13 12 13 11 5 0 0 0 0 0 0 0 0 0 0 0 1 1 0 0 0 0 0 2 1 3 5 6 3 3 7 5 5 4 2 1 0 0 0 1 0 0 0 0 0 0 0 0 0 0 0 0 0 0 0 0 0 0 0 0 0 0 0 0 0 0 0 0 0 0 0 0 0 1 7 14 18 28 32 31 32 32 32 32 32 31 31 31 29 10 11 12 11 12 12 9 5 0 0 0 0 0 0 0 0 0 0 0 0 0 0 0 0 0 2 10 9 10 12 15 14 15 20 19 20 20 19 20 22 20 20 21 19 15 10 6 5 7 9 12 13 12 8 1 0 0 0 0 0 0 0 0 0 0 0 0 0 0 0 0 0 0 0 0 0 3 9 15 21 25 33 33 32 34 32 33 29 32 31 30 31 12 11 12 9 11 11 7 0 0 0 0 0 0 0 0 0 0 0 0 0 0 0 0 0 0 0 2 3 8 8 11 12 13 16 19 19 20 17 17 20 24 25 28 29 28 26 23 21 19 20 22 23 24 19 13 8 3 1 0 0 0 0 0 0 0 0 0 0 0 0 0 0 0 0 0 0 3 10 18 21 25 31 33 33 34 32 32 31 30 31 30 32 11 9 9 9 9 8 5 0 0 0 0 0 0 0 0 0 0 0 0 0 0 0 0 0 0 0 0 0 0 0 1 2 3 6 10 11 10 12 10 11 12 14 17 21 22 22 23 22 20 20 22 21 21 16 9 8 2 0 0 0 0 0 0 0 0 0 0 0 0 0 0 0 0 0 0 0 0 12 18 23 26 28 33 33 34 33 32 31 31 30 33 30 9 8 6 8 9 5 3 0 0 0 0 0 0 0 0 0 3 0 0 0 0 0 0 0 0 0 0 0 0 0 0 0 0 0 0 3 4 4 6 8 8 8 12 14 15 16 16 17 14 11 14 11 12 6 2 0 0 0 0 0 0 0 0 0 0 0 0 0 0 0 0 0 0 0 0 0 0 7 16 21 27 28 31 32 35 31 33 32 29 31 31 30 8 4 6 6 7 5 1 0 0 0 0 0 0 0 0 0 2 6 0 0 0 0 0 0 0 0 0 0 0 0 0 0 0 0 0 0 0 0 1 3 4 5 8 9 11 11 11 10 8 6 5 3 2 0 0 0 0 0 0 0 0 0 0 0 0 0 0 0 0 0 0 0 0 0 0 0 0 0 13 16 23 26 27 30 34 33 31 33 31 30 31 30 5 5 4 5 4 3 0 0 0 0 0 0 0 0 0 0 0 10 3 0 0 0 0 0 0 0 0 0 0 0 0 0 0 0 0 0 0 0 0 0 3 3 5 5 7 9 8 7 6 4 0 0 0 0 0 0 0 0 0 0 0 0 0 0 0 0 0 0 0 0 0 0 0 0 0 0 0 0 5 12 17 20 20 25 30 31 31 30 31 29 31 29 4 5 3 4 1 2 0 0 0 0 0 0 0 0 0 0 0 9 8 0 0 0 0 0 0 0 0 0 0 0 0 0 0 0 0 0 0 0 0 0 1 3 5 3 4 6 5 4 4 2 0 0 0 0 0 0 0 0 0 0 0 0 0 0 0 0 0 0 0 0 0 0 0 0 0 0 0 0 0 6 10 15 15 18 19 23 29 29 31 29 30 29 3 3 4 2 0 0 0 0 0 0 0 0 0 0 0 0 0 7 11 5 0 0 0 0 0 0 0 0 0 0 0 0 0 0 0 0 0 0 0 0 0 3 4 4 4 3 2 2 1 0 0 0 0 0 0 0 0 0 0 0 0 0 0 0 0 0 0 3 0 0 0 0 0 0 0 0 0 0 0 0 4 7 11 14 12 14 18 23 27 29 28 30 2 3 3 1 0 0 0 0 0 0 0 0 0 0 0 0 0 8 12 8 0 0 0 0 0 0 0 0 0 0 0 0 0 0 0 0 0 0 0 0 0 2 2 5 4 5 3 3 1 0 0 0 0 0 0 0 0 0 0 0 0 0 0 0 0 0 3 5 3 0 0 0 0 0 0 0 0 0 0 0 2 1 5 6 8 8 11 16 16 22 25 27 1 2 2 0 0 0 0 0 0 0 0 0 0 0 0 0 1 1 12 8 3 2 0 0 0 0 0 0 0 0 0 0 0 0 0 0 0 0 0 0 0 4 5 8 8 7 6 4 2 1 0 0 0 0 0 0 0 0 0 0 0 0 0 0 0 2 8 8 3 0 0 0 0 0 0 0 0 0 0 0 0 0 2 4 3 1 6 10 13 15 17 19 2 0 2 0 0 0 0 0 0 0 0 0 0 0 0 0 4 0 8 10 4 5 3 1 0 0 0 3 0 3 5 5 4 2 2 4 6 4 7 8 9 13 12 13 12 12 11 8 6 3 4 1 0 0 0 0 0 0 0 0 0 0 0 0 2 8 12 9 1 0 0 0 0 0 0 0 0 0 0 0 0 0 0 3 0 0 2 1 7 11 12 13 2 0 0 0 0 0 0 0 0 0 0 0 0 0 0 0 3 0 7 9 8 6 8 4 1 3 1 1 3 4 8 11 9 7 9 11 14 12 12 15 16 17 18 17 17 18 17 14 14 11 12 10 7 6 2 0 0 0 0 0 0 0 0 6 10 15 14 9 0 0 0 0 0 0 0 0 0 0 0 0 0 0 0 0 0 0 0 1 0 4 7 10 1 1 0 0 0 0 0 0 0 0 0 0 0 0 0 0 0 2 5 9 11 8 7 7 4 4 4 0 3 3 8 11 11 10 14 16 19 16 17 19 20 21 22 19 21 20 21 18 17 16 14 12 11 10 5 0 0 0 0 0 0 3 9 12 16 17 14 7 0 0 0 0 0 0 0 0 0 0 0 0 0 0 0 0 0 0 0 0 0 0 0 2 0 0 0 0 0 0 0 0 0 0 0 0 0 0 0 0 0 0 7 6 13 10 7 6 8 7 4 3 2 3 5 9 11 9 15 18 22 23 22 24 28 29 27 26 24 23 23 23 20 18 16 12 11 9 1 0 0 0 0 3 7 11 16 19 19 18 12 5 0 0 0 0 0 0 0 0 0 0 0 0 0 0 0 0 0 0 0 0 0 0 0 0 0 0 0 0 0 0 0 0 0 0 0 0 0 0 0 0 0 0 6 7 6 12 8 2 8 7 8 5 3 1 6 9 10 11 15 19 21 22 26 25 29 29 29 27 24 25 24 24 20 19 16 12 10 6 2 1 0 0 3 12 13 18 21 22 20 16 12 2 0 0 0 0 0 0 0 0 0 0 0 0 0 0 0 0 0 0 0 0 0 0 0 0 0 0 0 0 0 0 0 0 0 0 0 0 0 0 0 0 0 0 2 5 6 9 10 5 2 7 9 8 3 3 3 8 10 13 16 17 21 23 26 29 29 31 32 30 29 24 25 23 21 15 14 10 8 6 4 2 0 4 13 15 17 21 23 21 17 15 9 0 0 0 0 0 0 0 0 0 0 0 0 0 0 0 0 0 0 0 0 0 0 0 0 0 0 0 0 0 0 0 0 0 0 0 0 0 0 0 0 0 0 0 0 0 3 4 7 6 2 1 7 8 7 6 5 6 13 14 16 18 21 25 24 28 29 27 31 28 27 25 21 22 19 16 12 11 12 10 5 5 6 11 18 21 20 25 22 18 13 12 4 0 0 0 0 0 0 0 0 0 0 0 0 0 0 0 0 0 0 0 0 0 0 0 0 0 0 0 0 0 0 0 0 0 0 0 0 0 0 0 0 0 0 0 0 0 0 1 2 2 2 0 0 4 7 7 8 7 9 13 14 13 18 20 23 22 24 25 27 25 25 24 20 18 16 15 15 13 13 8 9 10 15 16 18 23 23 23 19 13 13 7 0 0 0 0 0 0 0 0 0 0 0 0 0 0 0 0 0 0 0 0 0 0 0 0 0 0 0 0 0 0 0 0 0 0 0 0 0 0 0 0 0 0 0 0 0 0 0 0 0 0 0 0 0 0 2 2 3 6 8 11 10 10 13 14 16 18 18 21 20 20 18 18 17 13 13 14 13 11 8 10 12 16 17 19 20 24 22 18 14 11 9 4 0 0 0 0 0 0 0 0 0 0 0 0 0 0 0 0 0 0 0 0 0 0 0 0 0 0 0 0 0 0 0 0 0 0 0 0 0 0 0 0 0 0 0 0 0 0 0 0 0 0 0 0 0 0 0 0 0 0 0 3 4 4 4 7 8 9 11 12 10 9 10 8 9 8 9 9 8 9 8 11 15 15 18 19 21 19 16 12 11 8 6 0 0 0 0 0 0 0 0 0 0 0 0 0 0 0 0 0 0 0 0 0 0 0 0 0 0 0 0 0 0 0 0 0 0 0 0 0 0 0 0 0 0 0 0 0 0 0 0 0 0 0 0 0 0 0 0 0 0 0 0 0 0 0 0 0 0 0 0 0 0 0 0 0 0 1 0 3 5 7 8 11 13 13 17 16 14 13 11 9 8 7 3 0 0 0 0 0 0 0 0 0 0 0 0 0 0 0 0 0 0 0 0 0 0 0 0 0 0 0 0 0 0 0 0 0 0 0 0 0 0 0 0 0 0 0 0 0 0 0 0 0 0 0 0 0 0 0 0 0 0 0 0 0 0 0 0 0 0 0 0 0 0 0 0 0 0 0 0 0 1 4 3 11 11 12 13 12 12 12 10 9 6 5 0 0 0 0 0 0 0 0 0 0 0 0 0 0 0 0 0 0 0 0 0 0 0 0 0 0 0 0 