P2
92
112
255
25 22 23 25 24 24 25 24 24 25 25 25 26 27 27 29 28 31 29 35 39 38 39 42 40 42 48 45 48 57 53 47 51 53 50 44 46 46 47 47 46 44 42 43 41 36 42 44 43 43 39 33 42 41 44 49 51 55 53 51 48 52 55 55 51 49 48 48 53 49 49 48 50 47 40 40 33 31 26 26 25 24 25 24 24 24 23 24 24 23 25 24 22 24 23 25 23 24 25 22 25 26 25 27 24 28 28 28 30 33 36 39 39 46 44 45 46 46 52 52 49 55 56 52 47 46 47 46 41 47 43 40 43 43 39 41 38 38 37 46 37 39 41 39 37 38 38 46 50 51 53 50 48 51 47 55 56 49 48 51 51 49 53 56 54 49 53 45 39 34 31 26 25 24 25 25 24 24 23 24 22 25 23 23 22 23 23 25 24 24 25 24 25 25 24 27 26 28 32 32 31 35 41 43 41 45 45 51 51 49 55 55 48 46 51 52 49 44 40 41 38 38 43 40 39 34 39 39 39 37 34 44 43 35 39 46 39 42 42 47 46 46 49 49 44 53 46 50 60 49 48 52 50 49 56 57 57 56 58 49 44 42 33 28 24 24 25 26 25 24 25 24 24 24 22 24 24 23 24 23 25 23 25 25 26 26 26 27 29 30 34 37 36 40 41 46 44 50 50 52 55 50 48 53 52 41 41 43 41 40 38 37 37 30 32 36 39 36 31 39 37 35 33 32 47 38 35 37 47 41 41 44 47 45 43 49 44 48 47 41 54 53 41 45 46 45 52 57 59 58 59 47 47 46 33 29 26 26 28 26 25 24 22 24 24 24 23 23 23 23 23 23 25 25 26 26 25 24 24 26 31 32 36 41 42 44 39 42 44 47 50 44 47 47 41 43 45 44 37 41 37 36 35 35 36 32 24 27 34 35 36 33 39 30 28 31 33 40 38 32 35 44 43 37 37 39 35 43 44 41 41 36 44 54 41 37 39 43 44 55 59 62 52 48 45 46 42 32 30 31 28 27 25 24 23 23 23 23 24 22 23 24 22 24 24 25 26 29 27 26 28 31 33 37 44 44 45 47 43 46 47 46 46 42 41 40 40 35 36 37 37 37 36 33 30 28 33 31 27 22 21 28 36 28 30 31 25 26 32 25 35 33 31 33 37 40 27 30 28 32 37 35 34 28 34 44 37 32 29 35 43 49 55 59 51 48 41 45 46 36 34 31 29 27 26 24 23 23 23 23 24 23 22 24 23 24 24 27 26 27 24 25 30 31 35 40 45 46 49 44 45 44 41 43 45 43 39 39 36 39 37 43 40 34 35 33 29 20 24 28 25 25 17 21 26 27 22 26 24 16 21 24 23 29 30 32 27 36 31 20 17 22 27 24 26 21 22 33 33 24 24 33 41 43 53 52 48 44 45 48 47 41 39 33 30 29 25 22 22 21 23 21 23 23 22 24 24 24 26 27 30 25 26 30 31 32 38 43 44 47 48 47 46 46 41 35 35 44 46 45 41 42 40 44 46 37 34 30 32 29 28 22 16 25 26 20 23 24 21 21 24 21 13 17 19 24 20 28 22 24 29 19 12 9 18 18 16 17 16 17 26 19 17 33 39 39 49 44 39 39 47 50 48 44 39 36 32 29 25 22 21 20 21 22 23 24 23 23 25 26 26 28 28 28 29 31 34 39 46 49 50 44 45 43 46 40 42 37 29 32 38 44 44 40 36 34 39 35 31 32 29 28 25 24 16 17 24 22 19 27 25 15 20 22 17 14 14 19 20 17 16 16 22 22 11 3 9 11 8 5 15 10 11 12 20 31 33 32 42 33 31 37 44 45 47 47 42 38 34 30 26 24 21 19 22 23 24 23 22 23 25 24 25 27 24 26 26 29 36 40 46 47 43 45 40 39 38 38 29 33 33 29 31 34 36 42 35 33 32 33 32 29 31 31 26 20 17 16 20 24 20 22 24 14 11 17 15 12 7 9 17 18 10 3 18 20 17 0 0 5 3 0 3 10 2 4 9 24 25 26 31 26 30 36 39 46 47 50 43 36 33 30 30 23 23 22 23 26 24 21 24 24 25 25 26 30 30 25 27 32 36 46 49 47 42 39 39 33 26 28 27 25 31 26 23 23 27 31 37 31 29 27 28 26 28 26 25 21 14 16 13 13 20 18 15 21 9 8 9 11 1 3 7 15 11 0 1 9 12 9 0 0 0 0 0 0 1 1 6 8 16 18 18 20 30 29 34 43 41 49 47 37 28 33 31 25 23 22 22 24 23 20 25 24 24 23 28 29 28 25 26 26 37 41 45 47 48 43 35 29 23 20 22 23 22 25 20 18 19 24 28 30 29 28 24 25 23 23 25 25 19 15 17 6 9 11 11 14 14 3 3 9 7 0 1 4 9 3 0 0 0 8 0 0 0 0 0 0 0 0 4 5 4 13 9 16 24 23 31 37 41 45 40 33 34 34 30 29 27 21 22 20 21 21 25 23 23 24 28 26 25 23 23 28 29 37 45 45 45 37 26 26 22 17 14 16 19 23 23 23 21 20 23 26 29 33 28 22 22 17 17 22 16 16 13 9 4 9 8 7 9 10 1 0 7 0 0 0 2 0 0 0 0 0 2 0 0 0 0 0 0 0 0 4 0 3 8 9 17 23 24 33 35 38 39 40 40 35 32 31 25 23 25 21 23 26 25 24 24 27 25 27 24 22 25 29 35 40 44 42 36 29 21 19 15 14 15 17 18 20 24 25 23 22 18 19 24 27 26 24 21 18 18 12 12 11 9 6 3 0 7 8 7 5 7 0 0 0 0 0 0 0 0 0 0 0 0 0 0 0 0 0 0 0 0 0 0 0 3 11 10 17 20 25 29 35 42 44 37 36 33 28 25 28 24 25 27 24 26 25 25 27 26 25 22 17 23 31 40 45 44 37 30 25 18 15 13 19 22 23 22 21 24 26 27 27 24 21 24 23 22 23 17 11 12 14 6 4 5 4 5 3 0 2 4 5 7 4 0 0 0 0 0 0 0 0 0 0 0 0 0 0 0 0 0 0 0 0 2 0 6 3 6 9 19 24 28 36 40 40 40 38 32 30 30 33 29 30 24 20 25 28 25 28 26 23 20 23 27 33 42 45 44 37 27 23 19 21 23 26 27 27 26 26 25 23 26 23 23 25 26 18 19 19 18 14 9 8 8 5 4 3 3 4 0 2 2 0 2 7 3 0 0 0 0 0 0 0 0 0 0 0 0 0 0 0 0 0 1 0 4 3 6 4 3 9 15 21 27 30 36 39 38 36 35 34 35 35 31 29 20 20 25 26 28 28 25 18 24 26 32 42 49 54 51 40 30 27 24 26 29 30 28 28 26 28 26 26 25 26 23 23 27 22 19 17 18 14 14 9 6 5 7 7 4 6 6 5 5 5 0 1 3 3 0 0 0 0 0 0 0 0 0 0 0 0 3 3 7 7 7 6 9 10 10 12 7 8 10 16 21 25 29 30 34 34 32 30 32 32 30 25 22 23 25 24 29 28 22 19 24 25 32 44 52 49 44 35 30 31 36 39 42 40 36 34 34 29 27 29 31 30 28 26 27 26 24 21 18 17 15 11 12 8 10 12 12 14 11 13 9 8 8 5 4 5 5 0 0 1 1 0 4 2 2 8 10 9 11 14 17 18 18 17 17 19 20 19 16 14 13 15 16 21 21 27 27 30 35 32 32 30 30 29 24 23 22 25 28 24 23 19 21 26 35 48 55 55 48 38 39 43 44 44 43 39 40 37 40 37 37 38 39 40 39 37 32 31 29 27 24 21 21 21 21 21 21 19 21 20 23 23 22 20 16 15 12 11 13 13 11 13 15 13 14 18 17 21 24 24 22 24 26 29 30 29 28 29 28 27 28 25 18 17 16 20 18 18 23 30 34 33 32 34 34 34 29 26 23 28 28 20 20 19 19 31 40 51 54 53 48 44 47 50 48 50 51 50 50 49 48 48 47 47 49 47 46 42 41 39 34 31 30 31 31 35 33 34 34 33 32 31 32 35 37 33 28 26 24 25 24 23 26 30 28 30 29 32 32 33 35 36 37 36 37 39 40 40 39 41 36 36 35 33 29 23 19 15 13 16 21 25 28 30 31 36 36 32 32 29 27 30 27 20 16 15 22 29 38 43 50 50 50 53 52 50 54 54 54 55 54 52 52 54 56 56 55 53 50 49 49 47 45 42 41 42 44 45 45 45 44 45 44 44 44 44 44 44 42 37 38 35 35 36 38 42 42 44 43 41 43 42 44 46 48 48 48 48 51 50 50 52 49 44 41 37 38 33 27 19 14 18 18 18 19 24 30 32 33 32 28 26 28 29 18 10 12 19 20 28 35 41 42 48 51 54 51 53 56 55 53 56 56 55 56 58 59 60 59 55 53 54 54 53 51 50 49 50 51 52 51 52 52 53 52 51 52 52 52 50 49 48 47 47 45 44 48 50 52 52 53 51 51 53 51 52 56 55 56 54 54 56 58 59 59 54 49 45 43 44 37 34 24 17 16 16 16 22 26 27 26 28 28 26 25 21 16 15 16 14 22 25 33 36 42 48 52 52 56 56 56 52 53 55 55 56 57 57 58 60 57 56 55 54 56 55 54 53 53 54 54 54 53 54 54 55 56 54 55 55 55 54 53 54 52 52 53 52 52 53 57 57 56 56 56 58 57 56 58 59 61 59 59 58 62 63 63 62 57 54 52 48 44 42 38 21 16 14 16 20 23 25 27 29 31 28 22 15 12 13 11 13 15 23 29 35 42 46 46 53 57 54 53 51 51 53 53 54 56 57 56 56 54 54 54 53 54 54 54 53 52 52 54 53 53 53 53 54 54 54 54 54 54 54 54 53 53 53 53 54 54 54 54 57 57 58 57 59 58 58 59 58 59 61 61 61 63 64 65 64 63 61 58 54 48 47 42 34 17 15 18 22 27 30 27 30 33 31 21 15 8 7 4 8 12 18 23 29 37 43 45 50 51 49 48 49 51 53 51 51 52 53 51 52 51 50 50 50 51 51 51 50 50 49 50 51 50 50 51 51 51 51 51 51 51 51 51 51 50 51 51 52 52 53 54 56 55 55 56 56 57 57 58 59 59 59 60 61 63 63 65 62 66 65 62 59 57 50 44 42 28 15 16 16 24 22 27 26 27 26 19 10 9 0 4 5 9 15 22 28 36 40 45 48 46 44 43 44 47 49 47 47 49 48 47 48 47 47 47 46 46 47 47 45 46 46 46 47 47 47 47 47 47 47 48 47 47 47 48 47 47 48 49 49 51 50 51 53 53 52 53 54 54 53 56 56 58 56 57 59 62 62 63 63 63 68 62 60 57 57 46 45 39 25 14 22 20 21 27 25 22 24 14 12 2 1 0 10 7 11 18 26 34 41 45 48 45 44 41 44 45 46 45 44 45 44 44 43 44 43 42 41 42 43 43 42 42 42 43 43 42 43 43 43 43 42 43 43 44 43 43 43 44 44 45 46 47 47 48 49 49 49 51 49 50 52 51 53 53 53 55 56 59 59 60 61 63 65 64 60 56 55 52 42 46 34 22 20 22 23 26 29 29 26 16 10 0 0 1 5 2 8 15 25 34 41 44 45 43 41 40 41 42 43 42 42 41 41 40 39 39 39 38 38 39 39 38 39 38 38 38 39 39 39 39 39 39 39 39 39 39 39 40 39 40 40 42 42 44 44 44 45 46 46 47 46 47 48 48 49 50 51 50 51 55 57 57 59 62 63 64 59 55 52 53 44 43 41 29 18 21 24 25 29 30 30 12 9 0 0 0 0 0 3 14 24 34 41 44 42 41 39 36 37 39 40 39 39 37 37 36 35 36 35 36 35 35 35 35 35 34 35 35 35 35 35 35 35 36 36 37 35 36 36 36 37 37 37 38 40 40 41 41 42 42 43 44 44 44 44 45 45 46 47 46 49 52 54 55 57 59 61 64 59 53 52 50 46 44 43 35 23 23 23 24 24 26 26 12 4 0 0 0 0 0 4 13 24 36 38 41 40 37 36 35 34 37 38 36 36 36 34 33 33 34 34 34 33 32 33 33 32 31 32 32 31 32 32 32 33 32 32 33 32 33 33 33 33 34 34 35 36 37 38 39 40 39 40 41 41 41 42 43 42 44 45 44 46 49 50 52 55 56 59 61 58 52 49 50 46 43 46 42 30 22 20 20 21 25 24 7 0 0 0 0 0 0 4 10 25 32 35 36 37 34 35 32 34 34 35 35 33 33 31 31 32 33 32 31 31 31 31 31 31 31 30 30 30 29 29 29 30 29 30 29 30 30 30 30 31 31 32 32 33 35 35 36 37 37 38 38 39 39 40 41 40 41 43 43 44 46 47 49 51 55 55 59 56 49 47 49 46 43 44 45 33 26 25 22 19 21 26 5 0 0 0 0 0 0 1 15 27 30 32 33 36 33 30 30 31 33 32 34 30 30 29 31 30 31 30 29 29 29 30 29 29 28 29 29 28 28 28 29 28 28 28 27 28 28 28 29 29 29 31 31 33 33 34 34 35 35 35 37 36 36 38 39 37 40 40 41 40 43 43 47 49 50 53 54 54 47 43 50 46 47 48 47 36 29 24 21 25 20 21 2 0 0 0 0 0 0 4 15 23 26 30 33 33 31 28 28 29 31 33 31 30 29 29 29 28 30 28 28 28 28 29 28 27 27 26 25 25 26 25 26 26 26 26 26 25 26 27 28 28 28 29 29 31 31 32 32 35 33 33 35 36 35 36 37 36 37 36 37 38 38 40 42 46 47 49 50 50 45 41 45 48 46 48 50 42 28 22 22 26 26 24 3 0 0 0 0 0 0 1 11 20 24 28 30 30 29 28 27 27 29 30 29 29 28 29 29 29 27 28 28 27 26 26 26 26 25 24 24 23 24 24 23 23 23 24 23 24 24 25 26 26 27 27 28 28 29 29 30 32 32 33 34 35 34 35 36 34 36 35 35 35 36 36 39 43 44 45 48 47 41 40 41 44 47 47 50 44 28 23 20 20 26 24 0 0 0 0 0 0 0 3 11 19 21 23 24 28 27 29 27 26 27 27 26 27 27 28 30 28 28 29 28 28 27 27 27 27 27 27 26 26 25 24 24 23 24 23 23 22 22 24 24 24 23 25 26 27 27 28 28 30 29 30 33 33 32 31 33 32 32 35 33 34 32 34 36 39 39 41 44 41 41 37 40 46 46 49 45 41 29 24 25 19 18 21 0 0 0 0 0 0 0 0 9 16 17 19 19 23 24 23 25 24 24 24 26 25 27 29 29 29 29 28 29 28 28 28 28 29 29 29 29 27 27 26 26 24 23 23 23 23 22 24 24 23 22 23 24 25 27 26 27 28 29 27 29 29 28 28 30 28 32 31 32 32 31 33 35 35 36 33 36 38 38 38 41 46 45 50 47 36 30 20 22 25 19 19 0 0 0 0 0 0 0 0 10 13 13 18 18 19 19 19 21 22 23 22 24 25 27 28 28 29 29 27 28 27 27 28 28 27 29 28 28 26 26 25 25 24 23 22 23 22 23 23 23 23 22 24 24 25 26 26 27 29 31 31 32 29 28 29 29 29 28 29 28 29 30 30 32 32 33 32 34 33 37 41 42 45 50 45 49 40 25 22 16 20 23 16 0 0 0 0 0 0 0 0 3 6 11 12 17 15 15 17 17 18 19 20 20 24 23 23 24 25 24 22 22 23 25 26 28 28 30 28 27 26 25 25 24 23 22 22 23 23 23 23 23 23 23 24 24 25 27 28 29 30 32 31 31 31 29 32 29 33 30 30 29 28 29 31 31 31 32 31 33 35 36 40 44 43 49 48 46 44 26 21 19 15 22 19 0 0 0 0 0 0 0 0 0 4 7 8 11 12 14 10 16 16 18 16 16 17 19 17 19 21 23 21 21 21 24 24 25 26 28 30 29 28 28 27 26 25 24 23 24 24 23 23 23 22 22 22 22 23 25 26 27 30 30 31 31 31 30 30 28 31 31 30 29 29 30 32 31 32 31 31 33 35 37 38 44 45 47 51 45 41 28 14 26 19 19 18 0 0 0 0 0 0 0 0 0 0 3 7 6 7 10 9 12 12 8 11 14 13 16 16 18 20 21 20 22 23 25 25 25 26 27 29 29 29 29 29 27 26 25 25 25 24 23 24 23 22 22 23 22 23 24 24 26 28 28 30 30 31 28 31 31 31 30 31 28 31 31 32 33 33 34 33 34 36 36 40 43 45 49 48 46 34 27 16 22 25 14 13 0 0 0 0 0 0 0 0 0 0 0 3 3 2 5 7 5 5 8 11 16 17 19 21 23 24 26 22 24 26 26 29 28 28 29 29 31 31 30 30 29 28 26 26 25 25 25 24 25 25 23 25 26 25 26 26 27 28 29 31 31 32 31 32 33 34 34 35 35 34 35 33 32 34 33 32 35 36 37 40 44 45 48 46 41 35 22 16 16 24 16 10 0 0 0 0 0 0 0 0 0 0 0 0 1 1 2 1 1 5 9 12 15 17 19 23 26 29 30 31 30 29 30 31 31 31 30 32 32 32 32 31 31 29 29 27 28 26 27 27 27 28 28 30 30 29 32 33 34 35 37 38 37 36 36 36 35 35 35 39 38 38 37 35 33 34 35 33 33 36 38 39 43 45 45 43 36 32 22 15 12 19 15 10 0 0 0 0 0 0 0 0 0 0 0 0 0 0 1 1 2 4 11 12 15 18 20 23 27 27 26 31 32 33 34 33 33 33 32 33 34 33 33 33 33 30 30 30 29 28 30 29 30 29 31 32 34 37 39 41 43 44 44 42 43 44 41 42 40 37 35 38 37 38 39 37 34 35 34 34 33 35 38 38 40 43 43 39 32 28 18 11 16 14 12 9 0 0 0 0 0 0 0 0 0 0 0 2 0 0 0 0 2 3 10 14 17 19 17 16 22 23 24 25 27 29 33 34 36 33 30 31 33 33 34 33 32 33 31 31 31 30 29 30 30 29 32 35 37 39 41 43 42 42 42 38 43 45 43 45 45 41 40 37 37 36 37 37 35 34 33 32 31 33 36 35 38 40 37 36 30 21 13 11 16 14 9 6 0 0 0 0 0 0 0 0 0 0 0 1 0 0 1 2 5 6 10 15 13 18 21 23 23 21 23 20 22 23 25 28 34 32 30 29 28 29 31 32 31 31 32 33 33 32 30 29 30 31 34 36 37 36 36 35 37 36 35 32 34 35 39 42 45 40 40 40 38 34 34 34 34 31 29 31 30 30 34 35 34 39 37 33 30 16 10 8 13 12 7 3 0 0 0 0 0 0 0 0 0 1 2 4 2 0 0 4 6 10 11 12 14 22 29 23 22 27 15 19 19 21 21 22 27 25 27 27 25 26 28 29 28 28 30 32 34 31 30 30 30 33 34 35 34 35 35 35 37 33 32 30 29 27 26 32 36 36 37 38 37 33 31 30 29 30 28 26 28 25 29 32 33 35 33 28 23 14 6 9 10 7 9 0 0 0 0 0 0 0 0 0 0 4 4 4 2 1 1 4 8 8 6 11 17 26 28 19 17 21 17 16 20 23 21 21 21 20 23 24 23 24 27 26 26 27 26 28 29 27 27 28 28 29 30 28 29 32 33 37 31 33 27 20 26 23 24 20 25 31 32 34 35 30 28 27 27 29 26 22 22 18 21 22 27 28 28 23 16 6 1 8 10 5 3 0 0 0 0 0 0 0 0 0 0 2 4 3 0 1 1 3 7 5 4 10 16 26 29 27 23 20 23 19 19 24 23 17 17 21 18 24 23 22 25 24 26 24 23 23 22 19 19 21 22 21 19 22 18 22 25 29 24 20 22 11 18 16 20 23 18 25 30 28 28 25 24 22 23 24 19 19 16 13 12 14 16 20 22 15 8 1 1 3 8 4 0 0 0 0 0 0 0 0 0 0 0 0 2 1 0 0 0 0 0 0 1 7 12 20 25 26 27 26 25 26 24 25 23 18 10 19 17 21 17 17 20 19 21 20 14 12 10 8 7 10 11 13 11 9 7 11 16 14 18 9 10 12 8 10 16 25 18 19 27 26 22 22 19 16 13 14 13 10 6 6 4 11 16 18 19 12 5 0 0 0 1 1 0 0 0 0 0 0 0 0 0 0 0 2 2 3 2 1 0 0 0 1 1 8 15 19 20 24 27 28 28 25 24 22 18 17 19 18 20 21 12 10 11 9 7 6 6 5 1 0 3 4 9 8 2 2 2 1 4 7 7 9 6 5 8 11 17 25 20 19 20 24 21 17 13 9 6 7 6 4 1 2 7 12 18 21 17 14 4 0 0 0 0 0 0 0 0 0 0 0 0 0 0 0 0 3 6 8 4 0 3 2 4 9 11 12 17 19 22 22 23 22 22 20 21 18 17 19 19 18 14 12 2 0 0 1 3 8 9 10 7 3 5 2 6 2 1 0 0 0 0 0 0 2 1 1 7 10 16 22 21 21 22 25 22 14 11 4 0 1 3 3 3 6 10 13 19 19 17 12 5 0 0 0 0 0 0 2 0 0 0 0 0 0 1 1 4 4 8 7 2 0 0 0 0 8 11 13 14 16 14 14 15 9 13 12 11 7 7 8 9 5 5 2 0 0 0 0 7 12 14 15 14 12 14 11 7 1 0 0 0 0 0 0 0 0 0 5 8 10 15 19 21 19 21 23 18 13 13 8 2 4 5 6 6 9 13 19 20 19 15 9 0 0 0 0 0 0 3 2 10 10 0 0 0 0 0 8 11 10 7 3 0 0 0 0 0 0 2 1 5 6 8 8 7 11 11 5 8 12 11 16 12 11 7 0 1 1 1 3 6 11 12 9 10 8 10 11 3 0 0 0 0 0 0 0 0 0 1 7 11 12 17 20 22 21 18 20 18 12 12 11 2 4 4 5 6 9 11 13 21 14 11 4 0 0 0 0 0 0 1 1 15 17 3 0 0 0 0 6 10 10 6 4 0 0 0 0 0 0 0 0 0 2 3 5 9 15 14 10 9 9 9 22 21 23 17 9 9 12 10 3 1 5 4 0 0 0 3 7 2 0 0 0 0 0 0 0 0 0 6 9 14 15 19 21 28 21 19 18 17 18 12 10 5 0 0 0 2 9 11 8 11 10 5 0 0 0 0 0 0 0 0 0 3 0 6 4 0 0 0 0 3 6 5 2 0 0 0 2 0 0 0 0 0 2 6 9 16 21 17 13 10 4 4 14 17 19 14 9 6 8 9 0 0 0 0 0 0 0 0 2 0 0 0 0 0 0 0 0 0 4 16 23 23 20 18 24 18 17 14 18 16 11 7 6 2 0 0 0 0 1 1 0 4 2 6 0 0 0 0 0 0 0 0 0 0 0 0 5 2 1 1 0 0 5 3 3 3 5 6 8 3 4 0 1 2 8 9 12 13 11 10 5 2 0 2 8 16 10 10 9 3 3 0 0 0 0 1 0 0 0 0 0 0 0 0 0 0 0 3 5 5 14 20 27 29 24 16 18 14 10 8 7 12 4 1 0 0 2 0 0 0 0 0 0 0 2 0 0 0 0 0 0 0 0 0 1 1 2 2 0 0 4 5 7 6 7 4 4 8 6 9 12 12 10 6 7 10 14 10 6 10 8 10 13 16 5 6 4 8 5 5 12 13 13 11 2 1 7 6 0 0 0 0 0 0 0 0 1 4 0 4 4 0 4 13 25 39 33 27 13 16 9 6 4 11 3 0 0 0 0 0 0 0 0 0 0 0 4 3 0 0 0 0 0 0 0 0 5 15 16 17 9 1 1 9 10 12 7 3 5 5 3 6 12 16 16 11 9 11 12 9 8 12 14 13 14 21 13 13 6 8 6 12 18 21 20 15 6 9 16 11 5 0 1 5 2 0 3 9 12 7 1 1 0 0 0 2 18 32 31 27 20 10 11 11 9 5 1 0 0 0 0 0 0 0 0 0 0 2 2 1 3 0 0 0 0 0 0 4 4 24 22 23 13 4 0 0 0 4 3 4 4 2 0 5 11 14 15 15 12 14 14 12 13 10 12 13 12 17 19 19 15 11 10 12 18 18 18 17 16 19 24 21 13 4 2 1 1 0 3 9 9 4 3 6 9 6 8 7 10 20 26 19 18 13 8 10 16 12 3 0 0 0 0 0 0 1 1 0 0 6 1 0 0 0 0 0 0 0 0 3 7 27 22 15 10 0 0 0 0 0 1 3 2 0 0 0 5 5 9 11 11 13 13 12 9 8 9 10 13 14 17 17 17 15 12 15 15 16 15 13 14 19 20 19 19 15 14 10 5 0 2 6 7 3 3 8 12 15 15 16 12 14 15 16 13 15 11 10 12 4 2 4 0 0 0 0 0 3 6 3 1 3 3 0 0 0 0 0 0 0 0 3 6 26 18 11 3 0 0 0 0 0 1 3 0 2 0 0 1 2 4 5 8 13 16 19 17 16 13 11 9 14 18 20 22 18 17 19 18 15 14 10 10 13 14 14 10 10 8 6 4 2 3 7 7 9 16 20 19 16 13 13 14 18 19 16 12 12 10 8 11 8 4 3 0 0 0 0 5 7 7 4 1 0 1 0 0 0 0 0 0 0 0 7 4 26 18 8 0 0 0 0 0 0 2 3 1 0 0 0 6 8 8 9 12 14 17 18 19 19 19 19 15 18 19 17 18 18 17 16 14 15 16 13 15 18 19 16 12 8 7 7 1 2 5 11 12 14 19 26 27 24 19 13 8 8 11 14 16 17 12 9 6 6 4 3 4 1 0 0 3 8 8 7 1 4 1 0 0 0 0 0 0 0 0 9 6 30 17 10 2 0 0 0 0 0 2 6 0 0 0 0 3 9 9 11 11 15 18 21 23 23 21 23 25 25 24 21 19 21 17 15 14 15 15 15 20 23 24 20 16 14 14 12 9 4 6 10 13 13 18 26 27 27 25 23 17 14 12 9 13 13 12 7 4 6 6 7 11 12 9 7 9 11 14 10 5 8 0 0 0 0 0 0 0 0 1 12 10 34 18 11 8 0 0 0 0 0 1 7 0 0 0 0 0 5 9 11 11 13 17 21 21 19 22 22 24 26 22 20 20 21 17 14 11 11 13 15 17 22 23 19 18 17 17 18 16 13 9 10 11 9 10 19 21 23 23 22 19 21 21 22 21 22 19 15 12 12 13 16 17 15 15 12 10 11 15 10 8 8 1 0 0 0 0 0 0 0 5 16 10 36 23 13 13 1 0 0 0 0 3 7 1 0 0 0 0 0 8 9 11 12 14 17 19 17 21 22 21 22 21 19 20 19 15 10 6 9 10 13 14 19 21 19 14 18 20 23 20 17 12 13 18 13 11 18 20 22 25 25 25 24 25 24 28 28 26 24 21 17 19 19 19 19 18 18 11 12 14 14 9 7 1 0 0 0 0 0 0 0 7 19 14 31 37 20 10 3 4 0 0 0 0 4 2 0 0 0 0 0 5 11 10 11 12 14 16 16 18 19 19 19 18 19 18 15 11 4 0 4 8 9 13 19 18 14 9 11 14 23 23 20 14 14 18 15 16 21 23 25 25 27 26 28 27 24 25 27 28 25 25 21 22 21 20 18 19 19 15 11 16 12 10 6 3 0 0 0 0 0 0 0 8 21 15 25 33 28 12 1 4 7 3 0 0 0 0 0 0 0 0 0 2 9 8 7 10 12 15 15 17 19 19 19 17 15 15 11 6 0 0 0 4 8 14 17 14 16 16 14 15 20 22 23 19 16 16 17 18 21 23 22 23 26 25 26 29 26 28 28 29 27 25 24 23 24 18 17 20 19 17 10 13 12 7 4 3 0 0 0 0 0 0 0 12 21 20 24 31 32 16 5 6 11 5 0 0 0 0 0 0 0 0 0 0 2 5 3 6 10 12 14 15 18 19 19 16 11 11 9 8 1 0 4 5 11 16 20 19 22 22 22 26 26 23 23 19 19 18 16 16 19 21 19 22 23 25 26 30 30 31 31 32 30 27 24 24 22 19 16 17 19 16 10 10 11 6 2 0 0 0 0 0 0 0 0 18 22 23 26 26 22 14 14 8 5 4 3 0 0 0 0 0 0 0 0 0 0 1 2 2 8 10 12 15 16 18 18 17 9 6 8 8 7 6 5 8 11 17 24 27 27 25 27 28 28 23 19 20 22 21 16 15 17 18 17 20 23 24 26 33 31 33 34 32 31 29 26 23 22 19 16 14 15 10 6 7 8 3 0 0 0 0 0 0 0 0 0 13 19 24 37 25 12 10 11 10 3 3 3 0 0 0 0 0 0 0 0 0 0 0 0 1 5 7 10 14 15 15 16 15 14 9 9 7 11 9 4 7 9 18 24 25 25 23 23 26 25 25 21 20 20 20 14 11 14 17 16 19 21 25 27 30 30 33 33 31 30 28 25 21 16 15 11 7 8 5 1 6 1 2 0 0 0 0 0 0 0 0 0 9 19 20 35 35 19 6 4 2 2 2 0 0 0 0 0 0 0 0 0 0 0 0 0 0 3 6 7 11 12 12 13 12 14 8 8 6 7 7 1 4 7 14 21 18 21 20 21 21 23 22 18 20 20 17 14 9 11 17 18 19 20 22 25 24 27 26 27 24 23 22 20 14 9 9 3 3 1 0 0 3 1 0 0 0 0 0 0 0 0 2 1 10 18 19 26 29 25 13 3 3 0 0 0 0 0 0 0 0 0 0 0 0 0 0 0 0 0 4 5 7 7 9 11 13 9 3 3 2 1 0 0 1 6 10 16 15 15 19 17 18 15 13 11 16 17 15 14 8 10 16 17 17 17 16 19 17 14 15 15 16 16 13 9 8 1 0 0 0 0 0 0 0 0 0 0 0 0 0 0 0 3 3 8 13 16 18 17 22 19 11 9 6 0 0 0 0 0 0 0 0 0 0 0 0 0 0 0 0 0 0 2 2 2 4 9 7 3 2 2 0 0 0 0 1 5 7 12 12 11 15 11 10 9 6 8 10 10 8 9 6 7 14 16 13 10 7 5 6 4 5 6 8 8 7 0 0 0 0 0 0 0 0 0 0 0 0 0 0 0 0 0 0 2 10 11 11 15 18 17 16 9 11 9 8 5 0 0 0 0 0 0 0 0 0 0 0 0 0 0 0 0 0 0 0 0 2 3 1 0 0 0 0 0 0 0 0 3 4 6 5 4 7 3 4 6 5 7 8 7 6 7 3 1 6 9 4 1 1 0 0 0 0 1 1 0 0 0 0 0 0 0 0 0 0 0 0 0 0 0 0 0 0 0 0 6 13 10 11 15 19 21 13 13 0 6 5 9 0 0 0 0 0 0 0 0 0 0 0 0 0 0 0 0 0 0 0 0 0 0 0 0 0 0 0 0 0 0 0 0 0 0 0 0 0 0 0 0 1 4 3 3 5 3 1 0 0 0 0 0 0 0 0 0 0 0 0 0 0 0 0 0 0 0 0 0 0 0 0 0 0 0 0 0 0 0 0 9 10 10 14 14 18 22 19 11 6 0 0 4 0 0 0 0 0 0 0 0 0 0 0 0 0 0 0 0 0 0 0 0 0 0 0 0 0 0 0 0 0 0 0 0 0 0 0 0 0 0 0 0 0 0 0 0 0 0 0 2 1 1 0 3 3 0 0 0 0 0 0 0 0 0 0 0 0 0 0 0 0 0 0 0 0 0 0 0 0 0 0 7 12 11 13 17 19 23 21 12 10 5 0 0 0 0 0 0 0 0 0 0 0 0 0 0 0 0 0 0 0 0 0 0 0 0 0 0 0 0 0 0 0 0 0 0 0 0 0 0 0 0 0 0 0 0 0 0 0 0 0 0 1 1 4 6 8 6 2 0 0 0 0 0 0 0 0 0 0 0 0 0 0 0 0 0 0 0 0 0 0 0 1 7 13 15 15 20 19 23 21 17 15 11 0 0 0 0 0 0 0 0 0 0 0 0 0 0 0 0 0 0 0 0 0 0 0 0 0 0 0 0 0 0 0 0 0 0 0 0 0 0 0 0 0 0 0 0 0 0 0 0 0 0 0 2 4 6 8 9 10 7 1 0 0 0 0 0 0 0 0 0 0 0 0 0 0 0 0 0 0 0 0 4 8 13 16 16 14 20 18 21 21 17 17 10 2 0 0 0 0 0 0 0 0 0 0 0 0 0 0 0 0 0 0 0 0 0 0 0 0 0 0 0 0 0 0 0 0 0 0 0 0 0 0 0 0 0 0 0 0 0 0 0 0 1 2 5 5 4 6 8 10 8 6 1 0 0 0 0 0 0 0 0 0 0 0 0 0 0 0 0 0 0 3 9 8 12 16 14 16 18 18 17 20 16 16 17 1 0 0 0 0 0 0 0 0 0 0 0 0 0 0 0 0 0 0 0 0 0 0 0 0 0 0 0 0 0 0 0 0 0 0 0 0 0 0 0 0 0 0 0 0 0 0 0 0 0 0 3 6 4 5 6 10 9 5 3 0 0 0 0 0 0 0 0 0 0 0 0 0 0 0 0 0 1 7 10 10 12 16 15 15 16 16 16 16 15 13 15 4 2 0 0 0 0 0 0 0 0 0 0 0 0 0 0 0 0 0 0 0 0 0 0 0 0 0 0 0 0 0 0 0 2 0 0 2 7 9 8 0 0 0 0 0 0 0 0 0 0 0 0 3 3 4 0 3 6 5 0 0 0 0 0 0 0 0 0 0 0 0 0 0 0 0 0 0 8 8 11 12 16 13 14 14 14 13 15 15 15 14 11 7 9 0 0 0 0 0 0 0 0 0 0 0 0 0 0 0 0 0 0 0 0 0 0 0 0 0 0 0 0 0 0 0 0 2 0 3 7 8 4 0 0 0 0 0 0 0 0 0 0 0 0 0 0 0 0 0 0 0 0 0 0 0 0 0 0 0 0 0 0 0 0 0 0 0 0 1 9 11 11 15 15 12 13 11 10 12 16 16 15 12 11 12 8 2 0 0 0 0 0 0 0 0 0 0 0 0 0 0 0 0 0 0 0 0 0 0 0 0 0 0 0 0 0 0 0 0 0 0 0 4 1 0 0 0 0 0 0 0 0 0 0 0 0 0 0 0 0 0 0 0 0 0 0 0 0 0 0 0 0 0 0 0 0 0 0 0 0 1 5 5 15 12 14 11 11 10 10 11 15 14 13 15 9 9 6 2 0 0 0 0 0 0 0 0 0 0 0 0 0 0 0 0 0 0 0 0 0 0 0 0 0 0 0 0 0 0 0 0 0 0 0 3 0 0 0 0 0 0 0 0 0 0 0 0 0 0 0 0 0 0 0 0 0 0 0 0 0 0 0 0 0 0 0 0 0 0 0 0 0 1 2 7 11 12 12 10 9 10 10 10 13 16 11 15 8 11 6 0 0 0 0 0 0 0 0 0 0 0 0 0 0 0 0 0 0 0 0 0 0 0 0 0 0 0 0 0 0 0 0 0 0 0 0 0 0 0 0 0 0 0 0 0 0 0 0 0 0 0 0 0 0 0 0 0 0 0 0 0 0 0 0 0 0 0 0 0 0 0 0 0 0 2 3 4 7 10 12 7 9 9 8 10 15 15 11 10 10 5 9 0 0 0 0 0 0 0 0 0 0 0 0 0 0 0 0 0 0 0 0 0 0 0 0 0 0 0 0 0 0 0 0 0 0 0 0 0 0 0 0 0 0 0 0 0 0 0 0 0 0 0 0 0 0 0 0 0 0 0 0 0 0 0 0 0 0 0 0 0 0 0 0 0 2 1 3 3 5 8 10 7 8 8 5 9 13 14 11 10 7 5 5 0 0 0 0 0 0 0 0 0 0 0 0 0 0 0 0 0 0 0 0 0 0 0 0 0 0 0 0 0 0 0 0 0 0 0 0 0 0 0 0 0 0 0 0 0 0 0 0 0 0 0 0 0 0 0 0 0 0 0 0 0 0 0 0 0 0 0 0 0 0 0 0 0 0 0 3 5 5 7 8 6 6 6 6 5 14 12 12 12 6 8 5 0 0 0 0 0 0 0 0 0 0 0 0 0 0 0 0 0 0 0 0 0 0 0 0 0 0 0 0 0 0 0 0 0 0 0 0 0 0 0 0 0 0 0 0 0 0 1 0 0 0 0 0 0 0 0 0 0 0 0 0 0 0 0 0 0 0 0 0 0 0 0 0 0 0 0 3 8 7 8 6 8 5 4 5 4 11 11 14 8 6 6 5 0 0 0 0 0 0 0 0 0 0 0 0 0 0 0 0 0 0 0 0 0 0 0 0 0 0 0 0 0 0 0 0 0 0 0 0 0 0 0 0 0 0 0 1 5 7 11 11 6 0 0 0 0 0 0 0 0 0 0 0 0 0 0 0 0 0 0 0 0 0 0 0 0 0 0 4 4 7 7 7 6 3 4 3 3 14 11 13 12 9 4 6 0 0 0 0 0 0 0 0 0 0 0 0 0 0 0 0 0 0 0 0 0 0 0 0 0 0 0 0 0 0 0 0 0 0 0 0 0 0 0 0 2 9 8 7 6 7 11 11 2 3 0 0 0 0 0 0 0 0 0 0 0 0 0 0 0 0 0 0 0 0 0 0 0 0 0 4 4 5 4 7 3 2 1 3 2 14 14 13 14 7 6 2 0 0 0 0 0 0 0 0 0 0 0 0 0 0 0 0 0 0 0 0 0 0 0 0 0 0 0 0 0 0 0 0 0 0 0 0 0 0 0 0 0 3 0 1 1 3 6 3 0 0 0 0 0 0 0 0 0 0 0 0 0 0 0 0 0 0 0 0 0 0 0 0 0 0 1 3 4 2 3 3 1 4 0 4 1 13 15 13 11 3 5 0 0 0 0 0 0 0 0 0 0 0 0 0 0 0 0 0 0 0 0 0 0 0 0 0 0 0 0 0 0 0 0 0 0 0 0 0 0 0 0 0 0 0 0 0 0 0 0 0 0 0 0 0 0 0 0 0 0 0 0 0 0 0 0 0 0 0 0 0 0 0 0 0 0 0 4 2 2 3 1 2 1 1 0 1 0 14 17 12 9 5 0 0 0 0 0 0 0 0 0 0 0 0 0 0 0 0 0 0 0 0 0 0 0 0 0 0 0 0 0 0 0 0 0 0 0 0 0 0 0 0 0 0 0 0 0 0 0 0 0 0 0 0 0 0 0 0 0 0 0 0 0 0 0 0 0 0 0 0 0 0 0 0 0 0 0 0 1 2 1 1 3 1 1 1 0 0 0 16 15 14 12 0 0 0 0 0 0 0 0 0 0 0 0 0 0 0 0 0 0 0 0 0 0 0 0 0 0 0 0 0 0 0 0 0 0 0 0 0 0 0 0 0 0 0 0 0 0 0 0 0 0 0 0 0 0 0 0 0 0 0 0 0 0 0 0 0 0 0 0 0 0 0 0 0 0 0 0 0 1 0 3 3 0 0 2 0 0 0 0 17 16 12 9 0 0 0 0 0 0 0 0 0 0 0 0 0 0 0 0 0 0 0 0 0 0 0 0 0 0 0 0 0 0 0 0 0 0 0 0 0 0 0 0 0 0 0 0 0 0 0 0 0 0 0 0 0 0 0 0 0 0 0 0 0 0 0 0 0 0 0 0 0 0 0 0 0 0 0 0 0 2 0 1 2 2 0 0 0 0 0 0 16 18 9 5 0 0 0 0 0 0 1 0 0 0 0 0 0 0 0 0 0 0 0 0 0 0 0 0 0 0 0 0 0 0 0 0 0 0 0 0 0 0 0 0 0 0 0 0 0 0 0 0 0 0 0 0 0 0 0 0 0 0 0 0 0 0 0 0 0 0 0 0 0 0 0 0 0 0 0 0 1 0 0 0 0 1 0 0 0 0 0 0 18 16 7 0 0 0 0 0 0 0 3 0 0 0 0 0 0 0 0 0 0 0 0 0 0 0 0 0 0 0 0 0 0 0 0 0 0 0 0 0 0 0 0 0 0 0 0 0 0 0 0 0 0 0 0 0 0 0 0 0 0 0 0 0 0 0 0 0 0 0 0 0 0 0 0 0 0 0 0 0 1 2 0 2 0 0 0 0 0 0 0 0 17 13 3 0 0 0 0 0 0 2 3 0 0 0 0 0 0 0 0 0 0 0 0 0 0 0 0 0 0 0 0 0 0 0 0 0 0 0 0 0 0 0 0 0 0 0 0 0 0 0 0 0 0 0 0 0 0 0 0 0 0 0 0 0 0 0 0 0 0 0 0 0 0 0 0 0 0 0 0 4 2 3 1 2 0 0 0 0 0 0 0 0 15 10 1 0 0 0 0 0 2 9 6 0 0 0 0 0 0 0 0 0 0 0 0 0 0 0 0 0 0 0 0 0 0 0 0 0 0 0 0 0 0 0 0 0 0 0 0 0 0 0 0 0 0 0 0 0 0 0 0 0 0 0 0 0 0 0 0 0 0 0 0 0 0 0 0 0 0 0 0 1 1 1 1 0 0 0 0 0 0 0 0 0 17 9 2 0 0 0 0 0 7 12 2 0 0 0 0 0 0 0 0 0 0 0 0 0 0 0 0 0 0 0 0 0 0 0 0 0 0 0 0 0 0 0 0 0 0 0 0 0 0 0 0 0 0 0 0 0 0 0 0 0 0 0 0 0 0 0 0 0 0 0 0 0 0 0 0 0 0 0 0 0 0 1 0 0 0 0 0 0 0 0 0 0 17 10 1 0 0 0 0 0 12 9 0 0 0 0 0 0 0 0 0 0 0 0 0 0 0 0 0 0 0 0 0 0 0 0 0 0 0 0 0 0 0 0 0 0 0 0 0 0 0 0 0 0 0 0 0 0 0 0 0 0 0 0 0 0 0 0 0 0 0 0 0 0 0 0 0 0 0 0 0 0 0 0 0 0 0 0 0 0 0 0 0 0 17 9 2 0 0 0 0 8 18 5 0 0 0 0 0 0 0 0 0 0 0 0 0 0 0 0 0 0 0 0 0 0 0 0 0 0 0 0 0 0 0 0 0 0 0 0 0 0 0 0 0 0 0 0 0 0 0 0 0 0 0 0 0 0 0 0 0 0 0 0 0 0 0 0 0 0 0 0 0 0 0 1 0 0 0 0 0 0 0 0 0 0 15 8 6 5 0 0 6 20 19 6 0 0 0 0 0 0 0 0 0 0 0 0 0 0 0 0 0 0 0 0 0 0 0 0 0 0 0 0 0 0 0 0 0 0 0 0 0 0 0 0 0 0 0 0 0 0 0 0 0 0 0 0 0 0 0 0 0 0 0 0 0 0 0 0 0 0 0 0 0 0 0 0 0 0 0 0 0 0 0 0 0 0 16 5 13 4 0 4 13 23 18 5 0 0 0 0 0 0 0 0 0 0 0 0 0 0 0 0 0 0 0 0 0 0 0 0 0 0 0 0 0 0 0 0 0 0 0 0 0 0 0 0 0 0 0 0 0 0 0 0 0 0 0 0 0 0 0 0 0 0 0 0 0 0 0 0 0 0 0 0 0 0 0 0 0 0 0 0 0 0 0 0 0 0 15 7 15 2 0 8 13 26 20 4 0 0 0 0 0 0 0 0 0 0 0 0 0 0 0 0 0 0 0 0 0 0 0 0 0 0 0 0 0 0 0 0 0 0 0 0 0 0 0 0 0 0 0 0 0 0 0 0 0 0 0 0 0 0 0 0 0 0 0 0 0 0 0 0 0 0 0 0 0 0 0 0 0 0 0 0 0 0 0 0 0 0 12 6 16 0 0 5 11 23 19 0 0 0 0 0 0 0 0 0 0 0 0 0 0 0 0 0 0 0 0 0 0 0 0 0 0 0 0 0 0 0 0 0 0 0 0 0 0 0 0 0 0 0 0 0 0 0 0 0 0 0 0 0 0 0 0 0 0 0 0 0 0 0 0 0 0 0 0 0 0 0 0 0 0 0 0 0 0 0 0 0 0 0 14 5 12 0 0 6 10 22 16 0 0 0 0 0 0 0 0 0 0 0 0 0 0 0 0 0 0 0 0 0 0 0 0 0 0 0 0 0 0 0 0 0 0 0 0 0 0 0 0 0 0 0 0 0 0 0 0 0 0 0 0 0 0 0 0 0 0 0 0 0 0 0 0 0 0 0 0 0 0 0 0 0 0 0 0 0 0 0 0 0 0 0 7 3 11 0 0 5 7 21 17 0 0 0 0 0 0 0 0 0 0 0 0 0 0 0 0 0 0 0 0 0 0 0 0 0 0 0 0 0 0 0 0 0 0 0 0 0 0 0 0 0 0 0 0 0 0 0 0 0 0 0 0 0 0 0 0 0 0 0 0 0 0 0 0 0 0 0 0 0 0 0 0 0 0 0 0 0 0 0 0 0 0 0 6 2 6 0 0 1 3 21 17 1 0 0 0 0 0 0 0 0 0 0 0 0 0 0 0 0 0 0 0 0 0 0 0 0 0 0 0 0 0 0 0 0 0 0 0 0 0 0 0 0 0 0 0 0 0 0 0 0 0 0 0 0 0 0 0 0 0 0 0 0 0 0 0 0 0 0 0 0 0 0 0 0 0 0 0 0 0 0 0 0 0 0 3 0 2 0 0 0 0 17 15 1 0 0 0 0 0 0 0 0 0 0 0 0 0 0 0 0 0 0 0 0 0 0 0 0 0 0 0 0 0 0 0 0 0 0 0 0 0 0 0 0 0 0 0 0 0 0 0 0 0 0 0 0 0 0 0 0 0 0 0 0 0 0 0 0 0 0 0 0 0 0 0 0 0 0 0 0 0 0 0 0 0 0 0 0 0 0 0 0 0 15 12 0 0 0 0 0 0 0 0 0 0 0 0 0 0 0 0 0 0 0 0 0 0 0 0 0 0 0 0 0 0 0 0 0 0 0 0 0 0 0 0 0 0 0 0 0 0 0 0 0 0 0 0 0 0 0 0 0 0 0 0 0 0 0 0 0 0 0 0 0 0 0 0 0 0 0 0 0 0 0 0 0 0 0 0 0 0 0 0 0 3 16 10 0 0 0 0 0 0 0 0 0 0 0 0 0 0 0 0 0 0 0 0 0 0 0 0 0 0 0 0 0 0 0 0 0 0 0 0 0 0 0 0 0 0 0 0 0 0 0 0 0 0 0 0 0 0 0 0 0 0 0 0 0 0 0 0 0 0 0 0 0 0 0 0 0 0 0 0 0 0 0 0 0 0 0 