P2
92
112
255
0 0 0 0 0 0 0 0 0 0 0 0 0 0 0 0 0 0 0 0 0 0 0 0 0 0 0 0 0 0 0 0 0 0 0 0 0 0 0 0 0 0 0 0 0 0 0 0 0 0 0 0 0 0 0 0 0 0 0 0 0 0 0 0 0 0 0 0 0 0 0 0 0 0 0 0 0 0 0 0 0 0 0 0 0 0 0 0 0 0 0 0 0 0 0 0 0 0 0 0 0 0 0 0 0 0 0 0 0 0 0 0 0 0 0 0 0 0 0 0 0 0 0 0 0 0 0 0 0 0 0 0 0 0 0 0 0 0 0 0 0 0 0 0 0 0 0 0 0 0 0 0 0 0 0 0 0 0 0 0 0 0 0 0 0 0 0 0 0 0 0 0 0 0 0 0 0 0 0 0 0 0 0 0 0 0 0 0 0 0 0 0 0 0 0 0 0 0 0 0 0 0 0 0 0 0 0 0 0 0 0 0 0 0 0 0 0 0 0 0 0 0 0 0 0 0 0 0 0 0 0 0 0 0 0 0 0 0 0 0 0 0 0 0 0 0 0 0 0 0 0 0 0 0 0 0 0 0 0 0 0 0 0 0 0 0 0 0 0 0 0 0 0 0 0 0 0 0 0 0 0 0 0 0 0 0 0 0 0 0 0 0 0 0 0 0 0 0 0 0 0 0 0 0 0 0 0 0 0 0 0 0 0 0 0 0 0 0 0 0 0 0 0 0 0 0 0 0 0 0 0 0 0 0 0 0 0 0 0 0 0 0 0 0 0 0 0 0 0 0 0 0 0 0 0 0 0 0 0 0 0 0 0 0 0 0 0 0 0 0 0 0 0 0 0 0 0 0 0 0 0 0 0 0 0 0 0 0 0 0 0 0 0 0 0 0 0 0 0 0 0 0 0 0 0 0 0 0 0 0 0 0 0 0 0 0 0 0 0 0 0 0 0 0 0 0 0 0 0 0 0 0 0 0 0 0 0 0 0 0 0 0 0 0 0 0 0 0 0 0 0 0 0 0 0 0 0 0 0 0 0 0 0 0 0 0 0 0 0 0 0 0 0 0 0 0 0 0 0 0 0 0 0 0 0 0 0 0 1 6 5 5 6 3 0 0 0 0 0 0 0 0 0 0 0 0 0 0 0 0 0 0 0 0 0 0 0 0 0 0 0 0 0 0 0 0 0 0 0 0 0 0 0 0 0 0 0 0 0 0 0 0 0 0 0 0 0 0 0 0 0 0 0 0 0 0 0 0 0 0 0 0 0 0 0 0 0 0 0 0 0 0 0 0 0 0 0 0 5 10 16 15 15 10 12 9 4 3 2 0 0 0 0 0 0 0 0 0 0 0 0 0 0 0 0 0 0 0 0 0 0 0 0 0 0 0 0 0 0 0 0 0 0 0 0 0 0 0 0 0 0 0 0 0 0 0 0 0 0 0 0 0 0 0 0 0 0 0 0 0 0 0 0 0 0 0 0 0 0 0 0 0 0 0 0 0 0 0 1 7 14 14 15 15 15 13 15 11 11 9 8 6 6 2 0 0 0 0 0 0 0 0 0 0 0 0 0 0 0 0 0 0 0 0 0 0 0 0 0 0 0 0 0 0 0 0 0 0 0 0 0 0 0 0 0 0 0 0 0 0 0 0 0 0 0 0 0 0 0 0 0 0 0 0 0 0 0 0 0 0 0 0 0 0 0 0 0 0 0 5 9 12 11 13 14 16 16 17 16 17 16 16 16 15 16 11 9 9 6 6 2 3 1 0 0 0 0 0 0 0 2 2 2 1 1 0 1 0 1 0 0 0 0 0 0 0 0 0 0 0 0 0 0 0 0 0 0 0 0 0 0 0 0 0 0 0 0 0 0 0 0 0 0 0 0 0 0 0 0 0 0 0 0 0 0 0 0 0 0 0 5 12 10 11 11 13 15 18 18 22 21 24 24 23 23 22 19 18 17 16 14 13 11 11 11 10 9 11 9 8 8 8 9 10 9 7 5 5 6 6 4 3 0 0 0 0 0 0 0 0 0 0 0 0 0 0 0 0 0 0 0 0 0 0 0 0 0 0 0 0 0 0 0 0 0 0 0 0 0 0 0 0 0 0 0 0 0 0 0 0 0 8 12 13 7 9 15 19 21 23 25 28 29 34 31 31 30 27 26 27 22 22 18 17 16 14 16 16 16 16 17 16 17 17 16 17 16 15 13 11 12 10 8 7 5 4 3 1 1 1 0 0 0 0 0 0 0 0 0 0 0 0 0 0 0 0 0 0 0 0 0 0 0 0 0 0 0 0 0 0 0 0 0 0 0 0 0 0 0 0 0 2 9 13 11 7 9 15 19 24 26 33 38 41 40 41 39 39 38 36 36 34 30 28 26 21 21 19 16 18 19 20 22 22 22 22 23 21 23 23 19 17 15 15 15 12 14 8 9 5 5 5 3 2 0 0 0 0 0 0 0 0 0 0 0 0 0 0 0 0 0 0 0 0 0 0 0 0 0 0 0 0 0 0 0 0 0 0 0 0 0 0 4 8 12 8 8 11 17 21 25 31 41 45 48 49 47 49 48 44 44 43 41 38 35 36 32 29 28 25 24 21 22 23 28 25 29 27 27 27 29 28 28 22 21 21 19 18 20 15 16 13 10 5 6 3 3 2 3 1 0 0 0 0 0 0 0 0 0 0 0 0 0 0 0 0 0 0 0 0 0 0 0 0 0 0 0 0 0 0 0 0 0 3 10 11 8 7 15 19 20 27 36 42 49 51 54 53 51 51 50 47 44 44 41 41 38 37 35 33 32 31 28 27 27 28 29 31 30 33 32 32 35 35 34 31 29 26 26 26 27 24 23 20 17 10 9 6 5 5 4 6 4 2 0 0 0 0 0 0 0 0 0 0 0 0 0 0 0 0 0 0 0 0 0 0 0 0 0 0 0 0 0 0 1 9 9 8 9 14 17 21 27 37 45 49 53 56 57 56 54 53 52 52 49 50 46 44 44 43 40 38 37 38 34 35 33 34 34 35 34 36 37 36 39 40 39 38 35 34 31 32 33 33 32 31 27 22 16 12 6 7 5 9 9 5 0 0 0 0 0 0 0 0 0 0 0 0 0 0 0 0 0 0 0 0 0 0 0 0 0 0 0 0 0 0 4 13 6 8 16 17 21 30 38 47 54 56 57 57 59 58 55 55 54 53 52 50 49 48 47 47 44 44 43 44 42 43 44 41 41 40 39 43 44 44 42 44 43 41 40 40 36 36 36 37 36 35 33 30 24 20 12 9 7 9 8 10 7 0 0 0 0 0 0 0 0 0 0 0 0 0 0 0 0 0 0 0 0 0 0 0 0 0 0 0 0 0 7 7 10 14 19 23 32 44 51 55 56 60 58 58 59 58 55 56 55 53 52 51 51 50 47 47 49 45 44 46 45 47 47 47 46 47 47 47 48 50 46 48 44 44 45 44 41 40 39 39 40 39 38 35 34 28 20 15 10 7 8 11 10 6 0 0 0 0 0 0 0 0 0 0 0 0 0 0 0 0 0 0 0 0 0 0 0 0 0 0 0 0 8 5 12 19 27 35 46 53 56 56 58 59 60 60 59 57 56 54 55 52 51 51 51 51 50 48 49 46 46 45 47 47 47 48 48 49 50 49 50 50 52 51 49 48 48 47 45 45 45 45 45 43 41 41 39 36 31 23 17 9 9 11 11 10 3 0 0 0 0 0 0 0 0 0 0 0 0 0 0 0 0 0 0 0 0 0 0 0 0 0 0 3 8 13 18 29 39 47 53 55 57 56 57 57 58 57 56 56 54 54 53 53 53 51 53 52 51 51 51 49 48 47 49 47 48 49 49 49 51 51 51 50 53 51 50 50 49 49 47 48 47 49 48 48 43 43 41 40 39 34 25 17 10 12 12 11 7 0 0 0 0 0 0 0 0 0 0 0 0 0 0 0 0 0 0 0 0 0 0 0 0 0 0 5 11 17 26 40 44 52 55 55 56 54 54 55 56 55 54 53 52 52 51 53 53 53 51 52 52 51 49 49 47 48 47 48 46 49 49 50 51 50 49 50 50 50 49 48 48 48 47 48 49 49 49 50 46 47 43 43 42 39 37 25 16 12 12 11 9 4 0 0 0 0 0 0 0 0 0 0 0 0 0 0 0 0 0 0 0 0 0 0 0 0 3 9 16 27 37 47 50 54 55 54 55 53 51 55 54 53 52 52 50 49 48 50 47 50 48 48 49 46 45 45 46 47 45 45 47 46 46 47 48 48 47 48 48 46 48 47 46 46 46 48 50 50 51 49 49 48 48 47 45 42 40 36 25 14 10 12 9 5 3 0 0 0 0 0 0 0 0 0 0 0 0 0 0 0 0 0 0 0 0 0 0 0 5 16 23 36 40 48 53 51 55 53 51 51 51 52 53 49 49 48 48 47 46 48 46 47 47 46 46 43 43 42 43 43 42 43 44 44 46 44 47 44 45 45 46 46 46 44 46 47 46 46 49 50 49 48 49 47 50 49 50 46 42 40 34 23 14 11 11 8 5 0 0 0 0 0 0 0 0 0 0 0 0 0 0 0 0 0 0 0 0 0 0 1 9 22 33 38 43 50 49 53 52 49 49 49 49 49 48 45 46 46 46 44 43 44 44 44 43 41 41 40 40 39 38 39 39 39 40 42 43 44 44 42 42 42 43 44 42 42 44 44 45 45 46 49 48 48 48 47 49 49 51 51 46 42 40 32 21 13 13 9 9 5 0 0 0 0 0 0 0 0 0 0 0 0 0 0 0 0 0 0 0 0 0 7 16 28 37 40 46 49 49 53 49 49 46 47 46 44 43 42 43 43 43 41 40 41 41 40 40 39 38 38 36 36 35 37 37 36 37 38 37 39 39 40 38 40 40 41 39 39 40 42 43 42 45 46 48 47 47 47 49 50 52 52 51 45 41 39 28 15 14 11 11 8 3 0 0 0 0 0 0 0 0 0 0 0 0 0 0 0 0 0 0 0 0 12 22 34 38 42 48 48 50 50 49 47 43 44 42 38 40 39 40 40 38 38 37 38 37 36 36 36 33 33 33 33 31 33 33 33 35 33 33 36 36 36 37 37 38 37 38 36 37 39 40 40 42 43 46 45 45 45 47 48 50 53 52 51 43 44 33 21 14 11 15 12 6 0 0 0 0 0 0 0 0 0 0 0 0 0 0 0 0 0 0 0 5 13 27 36 37 44 48 49 48 47 46 43 41 40 38 35 36 37 37 36 35 37 35 34 34 34 33 33 30 29 29 28 28 27 29 29 29 31 30 33 34 34 35 34 35 35 35 35 35 37 38 38 41 39 44 42 44 45 47 47 51 51 51 52 49 45 41 28 16 14 14 15 13 0 0 0 0 0 0 0 0 0 0 0 0 0 0 0 0 0 0 0 9 20 29 36 39 46 47 47 46 46 44 40 39 38 34 36 34 34 34 32 34 33 31 32 32 31 30 30 28 28 25 25 24 24 24 26 24 26 27 29 30 31 32 32 33 32 32 33 33 34 36 36 38 39 42 42 42 44 44 45 50 50 50 52 51 50 43 32 22 16 16 15 16 2 0 0 0 0 0 0 0 0 0 0 0 0 0 0 0 0 0 0 14 22 32 36 43 46 47 48 45 43 42 37 38 35 34 33 32 32 32 32 32 31 31 30 29 29 28 27 26 25 23 23 21 21 20 24 21 25 26 26 27 29 29 30 30 30 31 31 32 32 34 33 35 37 39 40 41 43 43 44 49 51 49 53 52 54 47 37 26 17 18 21 14 3 0 0 0 0 0 0 0 0 0 2 0 0 0 0 0 0 0 5 20 28 30 42 44 45 47 46 43 41 38 36 35 32 32 33 31 31 31 30 30 30 29 28 27 27 27 24 24 23 22 20 18 18 17 20 19 24 23 25 24 26 27 27 27 28 29 29 29 29 33 32 32 34 37 39 40 42 43 44 47 50 50 53 55 56 53 42 31 24 20 23 16 7 0 0 0 0 0 0 0 0 0 4 0 0 0 0 0 0 0 13 26 28 32 43 43 44 47 45 42 40 38 35 34 31 32 32 30 30 30 29 29 29 27 27 27 26 24 25 22 23 19 19 17 17 17 18 19 22 21 23 24 24 25 24 27 26 26 27 28 29 30 31 31 33 33 37 37 40 43 43 46 50 51 53 53 59 59 46 37 29 22 26 20 5 0 0 0 0 0 0 0 0 0 2 0 0 0 0 0 0 0 23 29 32 36 41 43 43 47 43 42 38 35 34 33 32 32 31 30 28 29 29 30 29 28 27 26 25 25 25 24 22 20 18 17 17 16 16 19 19 21 22 23 25 25 24 27 24 26 27 27 29 28 30 31 32 33 36 37 38 41 44 47 49 50 55 53 60 62 51 39 30 26 28 22 8 0 0 0 0 0 0 0 0 0 0 0 0 0 0 0 0 12 28 30 34 36 42 42 44 46 43 40 37 35 34 33 31 32 30 28 28 29 29 29 29 29 27 26 25 25 24 24 23 22 18 19 17 17 17 17 20 19 22 24 25 25 24 24 25 26 26 26 29 29 29 30 33 34 36 37 39 39 44 46 50 52 54 57 59 61 56 41 34 27 29 25 11 0 0 0 0 0 0 0 0 0 0 0 0 0 0 0 0 26 24 36 32 35 39 43 44 45 44 41 36 34 33 31 31 30 29 28 29 30 29 30 29 29 28 26 25 24 24 23 24 24 21 20 17 18 18 19 19 21 23 24 25 25 23 24 25 28 26 27 30 30 32 30 34 35 35 37 39 40 41 44 50 51 55 58 58 61 58 44 33 28 32 28 13 1 0 0 0 0 0 0 0 0 0 0 0 0 0 0 0 29 26 33 31 32 39 42 43 46 43 37 34 32 28 28 28 26 26 27 27 28 28 29 29 28 27 26 27 26 25 24 25 23 23 22 19 21 18 22 20 23 24 25 26 26 24 25 25 28 28 28 29 31 33 32 35 35 37 38 42 42 40 47 50 51 53 57 59 62 59 45 35 29 32 30 16 4 0 0 0 0 0 0 0 0 0 0 0 0 0 0 4 25 30 29 29 32 37 41 43 45 38 33 32 26 26 24 24 20 22 23 24 23 25 27 27 26 26 26 26 26 26 25 25 24 23 22 20 22 20 24 22 24 24 27 25 27 25 24 25 29 28 31 30 31 32 33 34 37 37 38 40 42 43 47 50 50 52 55 61 61 58 47 36 28 31 30 17 6 0 0 0 0 0 0 0 0 2 0 0 0 0 0 11 23 30 25 27 32 37 39 43 40 35 30 27 22 21 19 20 18 17 19 16 19 20 25 23 23 24 24 25 26 27 26 25 23 22 22 21 22 22 22 22 25 23 25 25 26 25 25 25 29 29 30 33 31 31 34 35 35 36 37 39 42 45 49 49 52 51 57 59 62 58 45 36 28 29 30 19 8 0 0 0 0 0 12 11 3 0 0 0 0 0 0 16 22 29 28 29 33 34 37 40 35 30 24 18 12 14 8 9 9 7 5 7 10 13 17 17 18 21 23 22 24 23 25 23 22 20 19 19 21 20 24 20 24 24 23 24 23 24 24 28 28 29 30 32 31 32 33 36 33 35 37 38 41 43 48 45 52 52 55 59 61 58 42 33 29 28 30 23 5 0 0 0 0 0 40 15 0 0 0 0 0 0 0 21 21 30 29 30 32 32 35 34 30 21 15 10 7 5 3 3 0 0 0 0 0 4 8 9 14 16 19 20 22 22 23 21 20 19 20 17 20 20 19 20 23 23 21 23 22 24 25 25 26 27 28 28 27 28 27 29 28 30 33 35 38 40 42 43 45 47 53 57 60 57 44 32 29 27 30 23 7 0 0 0 0 0 38 8 0 0 0 0 0 0 0 20 26 31 32 32 29 28 31 22 18 9 9 6 4 4 4 1 0 0 0 0 0 0 1 1 5 9 11 14 17 21 20 21 20 18 19 17 17 18 18 18 22 20 21 22 21 22 24 24 23 23 23 20 18 18 17 18 20 21 24 29 32 35 38 41 38 43 46 50 57 57 45 29 28 27 31 27 8 0 0 0 0 0 25 10 5 0 0 0 0 0 0 23 33 32 35 32 22 23 20 13 7 4 3 2 0 0 0 0 0 0 0 0 0 0 0 0 0 3 4 10 15 18 18 19 18 19 19 18 15 17 17 20 19 19 20 18 19 17 19 20 18 17 17 13 11 10 9 7 9 12 12 18 21 28 33 33 34 36 38 42 48 52 44 28 29 26 30 29 7 0 0 0 0 0 12 16 19 0 0 0 0 0 0 27 29 28 29 24 12 19 17 12 9 10 11 10 6 3 0 0 1 0 0 0 0 0 0 0 0 0 0 3 10 12 15 14 15 14 16 17 15 16 18 16 17 18 17 16 15 14 14 13 8 8 5 5 2 2 2 0 3 4 6 9 11 18 23 28 32 32 32 39 44 46 40 28 26 25 29 29 10 0 0 0 0 0 4 22 28 0 9 0 0 0 0 29 28 6 21 25 22 33 26 28 29 32 31 28 21 15 9 6 4 2 0 0 0 0 0 0 0 0 0 0 1 0 2 1 4 0 3 4 4 7 8 9 9 11 11 10 7 7 8 4 1 0 0 0 0 0 0 0 0 0 3 7 8 12 12 18 24 26 30 34 38 41 39 26 22 24 30 29 13 0 0 0 0 0 0 30 36 20 13 0 8 0 0 16 12 14 22 16 9 12 3 1 0 0 0 0 0 0 0 0 2 0 0 0 0 0 0 0 0 0 0 0 0 0 0 0 2 1 0 1 1 0 0 1 0 0 0 0 0 0 0 0 0 0 0 0 0 0 0 0 0 0 0 1 7 10 13 14 19 18 25 33 33 37 37 26 21 22 31 32 9 0 0 0 0 0 0 42 46 26 6 0 3 0 14 14 9 5 9 10 21 34 33 31 24 12 7 4 0 0 0 0 0 0 0 0 0 0 0 0 0 0 0 0 0 0 4 0 13 16 15 17 13 14 9 8 4 1 0 0 0 0 0 0 0 0 0 0 0 0 0 0 0 0 0 0 0 0 4 8 11 12 13 24 28 36 39 29 20 20 31 33 7 0 0 0 0 0 14 52 47 22 0 0 0 0 12 14 18 5 24 29 29 36 33 21 7 0 0 0 0 0 0 0 0 0 0 0 0 0 0 0 0 0 0 0 0 0 0 0 0 0 0 0 1 1 1 3 2 1 0 0 0 0 0 0 0 0 0 0 0 0 0 7 8 12 11 9 8 6 7 7 6 3 0 9 18 28 42 31 20 18 31 26 7 0 0 0 0 0 40 55 47 26 0 3 4 0 8 37 22 12 27 29 22 21 13 0 0 0 0 0 0 4 0 0 0 0 0 0 0 0 0 0 0 0 0 0 0 0 0 0 0 8 3 0 0 0 0 0 0 0 0 0 0 0 0 0 0 0 0 0 0 0 0 0 0 0 0 5 10 15 15 15 14 9 6 8 18 19 33 23 16 16 26 26 2 0 0 0 0 0 58 50 59 21 0 9 8 10 22 40 30 28 25 18 24 21 13 1 0 0 0 0 0 9 0 0 0 0 0 0 0 0 0 0 0 0 0 0 0 0 0 0 3 20 19 9 6 6 0 1 0 0 0 0 0 0 0 0 0 0 0 0 0 0 0 0 0 0 0 0 0 0 4 7 10 7 4 11 16 25 35 21 13 8 19 18 0 0 0 0 0 0 61 60 59 23 0 29 0 0 24 38 34 35 34 26 30 21 5 4 9 13 10 21 19 14 0 0 0 0 0 0 0 0 0 0 0 0 0 0 0 0 0 0 15 28 24 17 14 14 10 4 0 0 0 0 0 0 0 0 0 0 0 0 0 0 0 0 0 0 0 0 0 0 0 3 3 2 0 4 14 25 38 27 9 5 7 3 0 0 0 0 0 0 64 59 63 17 0 37 15 6 23 36 38 31 36 22 27 23 22 25 24 30 31 29 21 18 11 5 0 0 0 0 0 0 0 0 0 0 0 0 0 0 0 0 0 2 0 0 0 4 8 0 2 0 0 0 0 0 0 0 0 0 0 0 0 0 0 0 0 0 0 0 0 0 0 0 0 0 0 0 12 30 30 14 14 4 2 6 0 0 0 0 0 0 61 57 64 26 30 38 24 0 37 27 34 30 35 50 36 37 43 36 38 38 37 27 20 20 16 11 7 4 0 0 0 0 0 0 0 0 0 0 0 0 0 0 6 13 3 0 0 0 0 0 0 0 0 0 0 0 0 0 0 0 0 0 0 0 0 0 0 0 0 0 0 1 0 0 0 0 0 9 16 21 23 9 0 4 3 0 0 0 0 0 0 0 58 50 69 42 37 41 42 0 37 31 42 31 42 57 45 45 41 36 29 25 22 14 10 4 0 15 0 0 0 0 0 0 0 0 0 0 0 0 2 0 0 0 10 18 13 5 8 6 2 0 0 0 0 0 0 0 0 0 0 0 0 0 0 0 0 0 0 0 0 0 0 0 0 0 0 0 0 4 17 26 15 3 6 0 0 0 0 0 0 0 0 0 57 41 66 79 68 43 67 11 47 40 36 30 44 50 49 49 41 35 28 27 18 19 23 1 0 5 0 0 0 0 0 0 0 0 0 0 0 0 15 0 0 0 29 36 28 18 14 14 3 0 0 0 0 0 0 0 0 0 0 0 2 2 3 0 0 0 2 4 4 5 0 0 0 0 0 0 6 3 7 25 21 4 3 0 0 0 0 0 0 0 0 0 56 42 44 81 74 48 60 21 32 48 40 36 46 47 47 47 41 40 35 31 32 32 30 14 2 0 0 0 0 0 0 0 0 0 0 0 0 0 10 0 0 4 28 29 23 12 6 14 10 0 0 0 0 0 0 0 0 0 0 4 10 9 12 11 12 9 8 10 15 13 8 0 0 0 0 0 0 5 21 19 23 3 0 0 0 0 0 0 0 0 0 0 56 37 30 72 77 54 65 34 29 50 36 39 55 46 50 50 44 44 40 41 41 37 36 26 17 15 7 4 3 3 3 0 1 0 0 0 11 0 4 0 0 7 17 22 26 17 8 3 0 0 0 0 0 0 0 0 0 0 0 0 0 0 0 0 0 0 2 7 12 5 4 1 0 0 0 0 3 8 11 19 12 12 0 0 0 0 0 0 0 8 0 0 52 37 29 64 75 70 64 43 32 47 56 45 51 49 53 51 50 49 46 44 45 38 38 33 29 25 18 12 12 8 5 6 7 8 8 15 22 0 0 0 3 12 16 22 15 15 3 0 0 0 0 0 0 0 0 0 0 0 0 0 0 0 0 0 0 0 0 0 0 0 0 0 1 5 9 9 5 9 6 14 13 11 0 0 0 0 0 0 0 8 0 0 59 38 33 55 66 68 51 61 42 44 66 58 50 52 54 50 51 49 46 43 42 38 35 33 33 27 24 21 16 10 15 15 18 17 24 26 16 0 0 0 2 11 22 24 19 21 19 0 0 0 0 0 0 0 0 0 0 0 0 0 0 0 0 0 0 0 0 0 0 0 0 3 9 14 17 11 6 13 0 19 15 7 0 0 0 4 0 0 0 18 5 0 62 47 42 72 69 63 43 61 55 26 69 60 47 52 52 47 49 48 43 40 40 35 32 28 29 25 24 21 18 16 18 21 21 22 29 18 0 0 3 0 17 16 25 23 23 15 16 11 0 0 0 0 0 0 0 0 8 7 5 0 0 0 0 0 0 2 1 0 0 0 2 5 9 13 14 8 6 21 1 17 9 3 0 0 0 9 0 0 0 11 8 0 69 44 54 81 67 61 41 52 60 13 62 61 42 53 45 46 44 44 39 35 35 31 29 28 25 21 21 20 20 20 22 25 24 30 25 1 0 2 0 0 22 15 25 25 23 15 11 16 0 0 0 0 0 0 0 2 1 11 8 1 0 1 0 0 0 1 1 1 0 0 0 4 10 10 12 9 15 24 0 6 9 0 0 0 9 16 0 0 10 2 4 0 67 48 58 81 58 59 38 47 52 23 52 57 38 51 44 46 44 41 38 33 31 31 27 25 21 21 22 21 20 21 21 22 26 17 2 17 10 0 5 8 21 19 24 26 22 12 10 14 0 0 0 0 0 0 0 0 0 5 7 4 3 6 3 3 2 2 3 5 4 5 8 8 14 15 19 19 18 23 0 5 11 0 0 0 19 14 0 0 0 0 0 0 67 48 46 79 63 55 51 37 52 28 40 50 29 46 42 46 42 38 37 31 29 28 27 24 20 21 22 21 19 20 22 22 6 3 24 16 0 0 11 18 17 23 29 23 21 15 6 18 0 0 0 0 0 0 0 0 1 0 5 5 5 5 4 4 2 3 4 6 6 13 18 18 17 19 20 21 17 22 0 5 14 0 0 12 16 12 23 9 0 0 0 0 68 51 35 66 72 51 50 45 40 53 12 50 38 30 35 45 41 39 36 29 26 26 23 22 19 21 19 19 19 18 9 1 8 20 21 0 0 0 19 15 27 28 29 25 23 19 4 13 0 0 0 0 0 0 0 0 0 3 0 5 6 6 5 5 6 3 5 10 10 17 19 19 19 18 18 23 18 23 0 11 10 0 0 4 8 13 41 0 0 0 0 0 68 52 35 50 72 57 46 50 48 45 30 24 30 30 38 33 35 41 34 31 24 25 22 21 23 19 15 12 7 5 0 3 10 11 0 7 0 9 15 25 31 29 30 26 19 18 10 6 0 0 0 0 0 0 0 0 2 0 0 0 5 7 5 7 9 7 8 11 11 17 16 13 16 17 22 21 17 20 0 13 0 0 6 0 0 19 40 0 0 0 0 0 62 53 34 38 59 44 43 44 55 54 28 23 29 9 28 39 38 32 29 22 17 12 10 9 8 5 4 3 0 0 0 0 4 0 2 3 0 7 22 28 33 28 30 26 19 17 11 6 0 0 0 0 0 0 0 0 0 6 0 0 0 2 8 7 8 8 6 11 12 14 15 14 19 21 22 19 15 19 6 9 0 0 15 0 0 23 29 0 0 0 0 0 32 37 25 29 30 9 39 39 55 56 50 33 13 21 11 24 32 29 20 13 11 5 1 3 1 0 0 0 0 0 0 0 0 0 0 1 0 15 28 28 36 28 33 25 19 17 12 6 0 0 0 0 0 0 0 0 0 0 3 0 0 0 1 6 9 9 8 10 12 14 15 17 20 23 23 18 16 14 13 0 0 6 4 0 0 19 11 0 0 0 0 0 10 5 0 4 3 0 20 43 45 54 47 52 37 19 14 9 22 23 20 12 7 3 0 0 0 0 0 0 0 0 0 0 0 0 0 0 5 25 29 34 36 30 35 27 23 13 13 8 1 0 0 0 0 0 0 0 0 0 0 3 2 0 0 0 0 6 9 11 13 15 21 19 22 23 21 16 11 15 9 0 1 5 10 0 0 18 0 0 0 0 0 0 0 0 0 0 0 0 0 52 40 40 39 47 47 33 27 25 8 16 16 7 1 0 0 0 0 0 0 0 0 0 0 0 0 0 0 13 14 26 32 39 37 31 37 29 22 14 18 13 5 0 0 0 0 0 0 0 0 0 0 0 0 2 1 0 0 0 0 2 9 15 19 19 23 23 19 12 16 8 1 0 15 15 0 0 3 21 0 0 0 0 0 0 0 0 0 0 0 0 0 39 32 27 24 27 44 38 34 22 16 12 3 9 1 0 0 0 0 0 0 0 0 0 0 0 0 0 6 20 17 28 35 41 40 33 38 29 21 16 19 18 12 5 0 0 0 0 0 0 0 0 0 0 0 0 0 0 0 0 0 0 0 3 6 2 9 13 6 5 0 13 0 0 24 1 0 3 13 12 0 0 0 0 0 0 0 0 0 0 0 0 0 16 8 6 24 20 29 29 31 31 22 14 10 0 0 0 0 0 0 0 0 0 0 0 0 0 0 1 10 18 21 30 36 47 41 37 36 29 23 22 21 24 19 11 5 0 0 0 0 0 0 0 1 0 0 0 0 0 0 0 0 4 6 11 12 6 18 21 13 6 17 3 0 10 13 0 5 10 23 0 0 0 0 0 0 0 0 0 0 0 0 0 0 8 3 0 24 24 37 30 26 29 23 16 16 9 2 0 0 0 0 0 0 0 0 0 0 0 0 2 13 19 28 32 38 45 37 41 38 27 25 25 25 24 23 11 7 0 0 0 0 0 0 0 0 0 0 0 0 0 0 0 0 0 0 3 0 2 10 5 7 15 11 10 0 9 12 2 9 14 10 0 0 0 0 0 0 0 0 0 0 0 0 0 0 8 4 0 26 24 37 29 33 32 27 24 21 15 6 1 0 0 0 0 0 0 0 0 0 0 5 8 17 20 22 32 35 41 32 36 34 26 23 25 27 24 22 7 1 0 0 0 0 0 0 0 2 0 0 0 0 0 0 0 0 0 0 3 3 5 13 11 4 1 1 5 4 14 8 4 13 13 0 0 0 0 0 0 0 0 0 0 0 0 0 0 0 11 5 0 27 26 34 26 29 31 26 23 19 10 4 0 0 0 0 0 0 0 0 0 5 5 8 15 23 16 14 26 31 34 28 30 26 23 18 23 23 20 16 2 0 0 0 0 0 0 2 3 0 0 0 0 0 0 0 0 0 1 4 4 0 9 16 11 5 7 9 7 3 13 1 5 9 0 0 0 0 0 0 0 0 0 0 0 0 0 0 0 0 16 4 0 31 24 32 24 30 33 29 27 24 16 12 6 0 0 0 0 0 0 0 5 9 10 11 5 16 11 1 14 25 22 22 21 15 13 11 10 11 7 8 0 0 0 0 0 0 0 4 3 3 0 0 0 0 0 0 0 0 0 0 0 0 0 5 9 8 11 7 5 0 8 0 0 0 0 0 0 0 0 0 0 0 0 0 0 0 0 0 0 0 18 7 3 33 25 34 25 32 33 33 32 25 21 13 5 0 0 0 0 0 0 5 11 11 20 16 7 2 2 2 5 10 11 9 8 4 0 0 0 1 0 0 0 0 0 0 0 0 0 8 4 5 5 1 0 0 0 0 2 3 0 0 1 2 5 5 8 6 7 6 2 0 2 0 0 0 0 0 0 0 0 0 0 0 0 0 0 0 0 0 0 0 19 8 4 36 28 35 27 33 37 35 33 27 20 9 0 0 0 0 0 0 3 12 15 15 25 29 20 13 1 3 2 0 0 0 0 0 0 0 0 0 0 0 0 0 0 0 0 0 0 10 6 7 3 6 4 3 3 0 0 3 4 5 6 3 2 3 3 3 3 4 0 0 0 0 0 0 0 0 0 0 0 0 0 0 0 0 0 0 0 0 0 1 24 13 8 40 29 33 30 37 40 35 31 28 17 6 3 0 0 0 0 1 9 16 21 23 22 30 26 15 0 1 1 0 0 0 0 0 0 0 0 0 0 0 0 0 0 0 0 0 1 11 11 5 2 7 5 8 7 7 4 5 1 5 3 4 2 3 1 1 0 4 0 0 0 0 0 0 0 0 0 0 0 0 0 0 0 0 0 0 0 0 0 0 29 17 9 42 32 35 33 42 43 35 33 29 17 9 8 0 0 0 0 6 14 19 30 29 23 25 26 24 10 0 0 0 0 0 0 0 0 0 0 0 0 0 0 0 0 0 0 0 6 12 13 8 3 4 5 8 9 10 8 11 8 6 4 4 2 3 0 0 0 4 0 0 0 0 0 0 0 0 0 0 0 0 0 0 0 0 0 0 0 0 0 0 35 23 13 45 33 38 37 46 43 38 37 27 20 13 2 0 0 0 4 11 22 27 31 32 34 33 28 32 21 9 0 0 0 0 0 0 0 0 0 0 0 0 0 0 0 0 0 0 11 15 13 10 5 4 5 8 10 11 12 9 11 6 6 4 4 3 0 0 0 4 0 0 0 0 0 0 0 0 0 0 0 0 0 0 0 0 0 0 0 0 0 0 34 27 16 45 35 43 43 50 43 42 39 23 24 11 0 0 0 0 5 15 24 28 33 35 35 41 30 28 20 15 1 0 0 0 0 0 0 0 0 0 0 0 0 0 0 0 0 1 14 21 16 13 5 6 6 8 11 11 12 9 9 7 3 4 4 1 0 0 0 8 0 0 0 0 0 0 0 0 0 0 0 0 0 0 0 0 0 0 0 0 0 0 29 32 16 45 40 42 47 53 42 45 36 22 28 12 8 1 0 0 0 13 22 31 35 33 32 40 37 29 22 17 10 0 0 0 0 0 0 0 0 0 0 0 0 0 0 0 0 8 20 26 20 16 9 7 7 10 12 14 12 11 10 7 3 2 0 2 0 0 0 12 0 0 0 0 0 0 0 0 0 0 0 0 0 0 0 0 0 0 0 0 0 0 10 35 19 41 43 40 53 53 45 47 38 24 24 11 7 1 0 0 0 6 22 30 33 32 32 38 37 30 24 18 13 2 0 0 0 0 0 0 0 0 0 0 0 0 0 0 3 13 24 30 23 18 12 7 8 10 14 17 15 11 9 6 1 0 1 1 1 0 8 7 0 0 0 0 0 0 0 0 0 0 0 0 0 0 0 0 0 0 0 0 0 0 0 35 26 34 46 45 56 53 49 50 38 23 23 9 7 0 0 0 0 0 5 12 21 26 24 28 32 29 23 20 12 6 0 0 0 0 0 0 0 0 0 0 0 0 0 1 8 17 25 23 23 21 16 9 6 10 11 15 15 13 12 5 3 3 4 1 3 0 15 0 0 0 0 0 0 0 0 0 0 0 0 0 0 0 0 0 0 0 0 0 0 0 0 27 30 29 49 42 58 54 50 51 37 23 17 6 0 0 0 0 0 1 4 12 18 32 31 28 28 28 24 21 18 13 0 0 0 0 0 0 0 0 0 0 0 0 0 4 11 19 21 22 21 20 15 11 6 5 7 11 13 14 13 6 2 4 6 4 4 8 19 0 0 0 0 0 0 0 0 0 0 0 0 0 0 0 0 0 0 0 0 0 0 0 0 6 33 24 47 45 52 54 53 49 38 23 12 1 0 0 0 0 0 0 8 20 17 27 33 20 27 26 23 14 20 18 2 0 0 0 0 0 0 0 0 0 0 0 0 2 9 15 18 19 17 16 11 7 5 2 3 2 8 11 11 10 2 10 7 8 4 13 17 0 0 0 0 0 0 0 0 0 0 0 0 0 0 0 0 0 0 0 0 0 0 0 0 0 31 23 38 47 48 56 52 51 34 25 9 1 0 0 0 0 0 0 0 0 0 0 11 1 9 6 10 0 8 20 8 7 0 0 0 0 0 0 0 0 0 0 0 0 2 6 7 10 8 5 4 0 0 0 0 2 4 9 11 10 11 14 8 8 6 17 11 0 0 0 0 0 0 0 0 0 0 0 0 0 0 0 0 0 0 0 0 0 0 0 0 0 14 24 27 44 42 56 48 50 34 20 7 0 0 0 0 0 0 0 0 0 0 0 0 0 0 0 0 0 0 0 4 10 13 4 0 0 0 0 0 0 0 1 2 2 0 3 0 0 0 0 0 0 0 0 0 4 7 9 13 10 14 13 9 8 9 17 0 0 0 0 0 0 0 0 0 0 0 0 0 0 0 0 0 0 0 0 0 0 0 0 0 0 0 26 19 37 38 47 49 45 33 18 7 0 4 3 1 5 15 16 0 0 0 0 0 0 0 0 0 0 0 0 0 0 1 0 0 0 0 0 0 0 0 0 1 2 0 4 0 0 0 0 0 0 0 0 2 6 9 11 13 11 13 12 9 4 10 16 0 0 0 0 0 0 0 0 0 0 0 0 0 0 0 0 0 0 0 0 0 0 0 0 0 0 0 13 19 22 39 38 46 40 32 16 8 2 11 14 18 21 25 22 19 0 0 0 0 0 0 0 0 0 0 0 0 0 0 0 0 0 0 0 0 0 0 0 0 0 0 0 0 0 0 0 0 0 0 0 1 7 10 15 12 13 12 9 4 6 11 5 0 0 0 0 0 0 0 0 0 0 0 0 0 0 0 0 0 0 0 0 0 0 0 0 0 0 0 0 21 8 34 30 45 36 29 15 10 4 17 19 23 27 33 37 32 16 3 0 0 0 0 0 0 0 0 0 0 0 0 0 0 0 0 0 0 0 0 0 0 0 0 0 0 0 0 0 0 0 0 0 4 9 15 15 12 13 12 6 1 4 9 0 0 0 0 0 0 0 0 0 0 0 0 0 0 0 0 0 0 0 0 0 0 0 0 0 0 0 0 0 18 6 19 28 35 35 26 21 14 10 21 21 25 30 35 40 43 29 15 11 0 0 0 0 0 0 3 0 0 0 0 0 0 0 0 0 0 0 0 0 0 0 0 0 0 0 0 0 0 0 0 3 7 10 16 13 10 9 9 2 1 6 0 0 0 0 0 0 0 0 0 0 0 0 0 0 0 0 0 0 0 0 0 0 0 0 0 0 0 0 0 0 17 7 8 29 22 34 26 24 18 17 25 21 27 30 36 37 42 38 22 15 12 4 0 0 0 0 0 0 0 0 0 0 0 0 0 0 0 0 0 0 0 0 0 0 0 0 0 1 4 0 1 4 9 12 13 11 8 9 3 0 0 2 0 0 0 0 0 0 0 0 0 0 0 0 0 0 0 0 0 0 0 0 0 0 0 0 0 0 0 0 0 0 21 11 4 22 17 33 29 24 21 24 27 21 28 31 35 36 34 38 30 17 10 13 4 0 0 0 0 0 0 0 0 0 0 0 0 0 0 0 0 0 0 0 0 0 0 3 7 9 9 5 3 6 11 11 12 8 4 3 0 0 0 0 0 0 0 0 0 0 0 0 0 0 0 0 0 0 0 0 0 0 0 0 0 0 0 0 0 0 0 0 0 0 30 15 4 20 18 33 29 25 23 25 26 24 31 29 34 32 34 33 31 22 9 7 6 6 0 0 0 0 0 0 0 0 0 0 0 0 0 0 0 0 0 0 0 0 7 14 18 18 11 7 6 7 12 11 8 4 0 0 0 0 0 0 0 0 0 0 0 0 0 0 0 0 0 0 0 0 0 0 0 0 0 0 0 0 0 0 0 0 0 0 0 0 36 22 4 23 21 33 25 28 27 26 26 26 27 29 30 29 32 32 25 23 14 5 0 0 0 0 0 0 0 0 0 0 0 0 0 0 0 0 0 0 0 0 0 4 11 18 19 19 12 8 7 10 9 10 4 0 0 0 0 0 0 0 0 0 0 0 0 0 0 0 0 0 0 0 0 0 0 0 0 0 0 0 0 0 0 0 0 0 0 0 0 7 38 31 4 26 27 29 27 27 29 28 27 29 27 27 26 27 29 26 25 16 17 5 0 0 0 0 0 0 0 0 0 0 0 0 0 0 0 0 0 0 0 0 2 6 15 18 18 19 11 9 9 8 8 6 1 0 0 0 0 0 0 0 0 0 0 0 0 0 0 0 0 0 0 0 0 0 0 0 0 0 0 0 0 0 0 0 0 0 0 0 0 15 41 37 13 27 32 27 26 30 33 32 29 29 30 28 24 26 25 23 21 16 11 2 0 0 0 0 0 0 0 0 0 0 0 0 0 0 0 0 0 0 0 0 0 11 15 18 15 16 11 11 12 6 4 2 0 0 0 0 0 0 0 0 0 0 0 0 0 0 0 0 0 0 0 0 0 0 0 0 0 0 0 0 0 0 0 0 0 0 0 0 0 20 44 35 23 27 29 29 26 27 30 32 28 27 30 28 23 23 24 20 18 14 9 0 0 0 0 0 0 0 0 0 0 0 0 0 0 0 0 0 0 0 0 0 4 12 13 15 12 13 14 13 9 8 1 0 0 0 0 0 0 0 0 0 0 0 0 0 0 0 0 0 0 0 0 0 0 0 0 0 0 0 0 0 0 0 0 0 0 0 0 0 0 26 46 34 31 36 27 35 25 19 24 28 27 27 30 28 20 21 19 20 15 14 9 0 0 0 0 0 0 0 0 0 0 0 0 0 0 0 0 0 0 0 0 0 7 10 11 11 10 15 13 10 7 4 0 0 0 0 0 0 0 0 0 0 0 0 0 0 0 0 0 0 0 0 0 0 0 0 0 0 0 0 0 0 0 0 0 0 0 0 0 0 0 31 47 36 31 48 33 37 25 21 19 27 27 29 30 29 24 20 17 20 18 12 10 2 0 0 0 0 0 0 0 0 0 0 0 0 0 0 0 0 0 0 0 0 5 6 4 7 12 13 10 6 5 0 0 0 0 0 0 0 0 0 0 0 0 0 0 0 0 0 0 0 0 0 0 0 0 0 0 0 0 0 0 0 0 0 0 0 0 0 0 0 0 34 47 37 34 52 48 36 31 22 16 24 27 27 29 30 29 23 22 24 21 18 15 9 2 0 0 0 0 0 0 0 0 0 0 0 0 0 0 0 0 0 0 0 0 2 4 11 13 11 7 2 0 0 0 0 0 0 0 0 0 0 0 0 0 0 0 0 0 0 0 0 0 0 0 0 0 0 0 0 0 0 0 0 0 0 0 0 0 0 0 0 0 37 45 36 37 51 60 45 32 25 17 19 26 25 32 31 32 28 25 24 26 23 21 17 13 6 0 0 0 0 0 0 0 0 0 0 0 0 0 0 0 0 0 0 1 2 8 10 11 7 1 0 0 0 0 0 0 0 0 0 0 0 0 0 0 0 0 0 0 0 0 0 0 0 0 0 0 0 0 0 0 0 0 0 0 0 0 0 0 0 0 0 0 40 44 34 45 51 65 59 38 27 21 13 21 22 31 32 35 33 29 30 29 27 25 23 19 16 12 4 0 0 0 0 0 0 0 0 0 0 0 0 0 0 0 0 2 5 8 11 6 3 0 0 0 0 0 0 0 0 0 0 0 0 0 0 0 0 0 0 0 0 0 0 0 0 0 0 0 0 0 0 0 0 0 0 0 0 0 0 0 0 0 0 0 44 40 32 46 53 64 64 52 28 24 17 17 22 34 32 37 36 32 34 34 31 30 28 22 20 16 12 9 3 5 0 2 0 0 2 0 3 4 0 3 2 1 3 3 5 9 10 1 0 0 0 0 0 0 0 0 0 0 0 0 0 0 0 0 0 0 0 0 0 0 0 0 0 0 0 0 0 0 0 0 0 0 0 0 0 0 0 0 0 0 0 5 41 35 28 48 53 65 59 60 39 25 20 16 15 27 30 35 36 35 37 35 34 32 32 28 23 21 18 15 11 9 7 6 3 5 5 8 9 9 8 7 8 6 8 7 11 11 4 0 0 0 0 0 0 0 0 0 0 0 0 0 0 0 0 0 0 0 0 0 0 0 0 0 0 0 0 0 0 0 0 0 0 0 0 0 0 0 0 0 0 0 0 9 37 31 25 50 56 69 62 60 57 33 26 20 14 20 27 35 34 36 40 40 36 36 36 31 26 25 21 18 15 13 9 9 12 10 11 13 12 12 14 12 12 14 14 16 18 9 4 0 0 0 0 0 0 0 0 0 0 0 0 0 0 0 0 0 0 0 0 0 0 0 0 0 0 0 0 0 0 0 0 0 0 0 0 0 0 0 0 0 0 0 0 17 33 26 30 51 58 69 63 58 57 51 28 24 17 14 20 32 30 35 36 39 36 40 39 34 30 29 25 19 17 16 14 12 16 15 17 18 15 16 15 17 15 20 18 21 16 10 3 0 0 0 0 0 0 0 0 0 0 0 0 0 0 0 0 0 0 0 0 0 0 0 0 0 0 0 0 0 0 0 0 0 0 0 0 0 0 0 0 0 0 0 0 22 30 22 30 54 59 69 62 58 55 54 44 23 22 13 9 23 27 33 34 36 38 38 35 36 32 29 27 23 20 17 21 16 18 15 20 21 20 20 19 20 17 24 19 18 11 6 2 0 0 0 3 7 5 0 0 0 0 0 0 0 0 0 0 0 0 0 0 0 0 0 0 0 0 0 0 0 0 0 0 0 0 0 0 0 0 0 0 0 0 0 0 22 26 19 36 52 64 67 64 57 55 49 48 39 20 19 5 9 20 26 31 36 37 35 35 35 31 26 28 27 24 22 27 23 23 24 23 22 25 22 19 24 27 24 18 14 11 2 1 0 0 4 22 10 5 0 0 0 0 0 0 0 0 0 0 0 0 0 0 0 0 0 0 0 0 0 0 0 0 0 0 0 0 0 0 0 0 0 0 0 0 0 3 20 17 23 43 52 66 65 63 58 51 47 42 45 33 16 14 7 2 14 22 29 28 26 30 35 32 30 30 27 27 26 28 28 29 26 25 25 27 23 22 24 23 18 16 10 9 2 0 0 9 24 23 10 5 0 0 0 0 0 0 0 0 0 0 0 0 0 0 0 0 0 0 0 0 0 0 0 0 0 0 0 0 0 0 0 0 0 0 0 0 0 13 13 13 30 46 56 63 63 65 61 54 47 42 37 35 33 15 17 4 0 9 12 19 22 22 25 28 27 31 27 29 25 23 28 23 25 23 26 26 24 24 20 21 15 11 8 0 0 0 13 29 24 20 8 2 0 0 0 0 0 0 0 0 0 0 0 0 0 0 0 0 0 0 0 0 0 0 0 0 0 0 0 0 0 0 0 0 0 0 0 0 0 13 9 14 33 44 57 61 62 62 59 58 49 39 35 27 30 34 21 15 8 0 0 5 8 13 17 23 21 25 24 23 22 22 20 19 19 18 22 23 19 18 17 10 7 6 0 0 0 21 32 30 24 20 5 0 0 0 0 0 0 0 0 0 0 0 0 0 0 0 0 0 0 0 0 0 0 0 0 0 0 0 0 0 0 0 0 0 0 0 0 0 0 8 7 19 37 46 56 60 62 62 59 61 53 41 34 27 23 27 35 29 24 14 0 0 0 0 0 3 6 11 15 13 15 17 16 16 17 11 10 11 10 12 5 0 0 0 0 8 26 31 30 25 22 15 2 0 0 0 0 0 0 0 0 0 0 0 0 0 0 0 0 0 0 0 0 0 0 0 0 0 0 0 0 0 0 0 0 0 0 0 0 0 4 5 15 19 41 45 54 57 59 59 59 58 54 45 34 27 23 23 29 34 37 32 13 1 0 0 0 0 0 0 0 0 1 3 1 5 6 6 7 1 0 0 0 0 0 1 17 26 29 26 28 21 22 14 2 0 0 0 0 0 0 0 0 0 0 0 0 0 0 0 0 0 0 0 0 0 0 0 0 0 0 0 0 0 0 