P2
92
112
255
0 0 0 0 0 0 0 0 0 0 0 0 0 0 0 0 0 0 0 0 0 0 0 0 0 0 0 0 0 0 0 0 0 0 0 0 0 3 2 3 0 5 2 0 0 0 0 0 0 0 0 0 0 0 0 0 0 0 0 0 0 0 0 0 0 0 0 0 0 0 0 0 0 0 0 0 0 0 0 0 0 0 0 0 0 0 0 0 0 0 0 0 0 0 0 0 0 0 0 0 0 0 0 0 0 0 0 0 0 0 0 0 0 0 0 0 0 0 0 2 0 0 0 0 0 4 5 12 14 20 18 18 19 18 21 16 16 12 9 0 0 0 0 0 0 0 0 0 0 0 0 0 0 0 0 0 0 0 0 0 0 0 0 0 0 0 0 0 0 0 0 0 0 0 0 0 0 0 0 0 0 0 0 0 0 0 0 0 0 0 0 0 0 0 0 0 0 0 0 0 0 0 0 0 0 0 0 0 0 0 0 0 0 4 7 7 11 20 20 27 28 31 32 33 35 39 34 33 35 33 26 22 20 16 12 6 0 0 0 0 0 0 0 0 0 0 0 0 0 0 0 0 0 0 0 0 1 0 0 0 0 0 0 0 0 0 0 0 0 0 0 0 0 0 0 0 0 0 0 0 0 0 0 0 0 0 0 0 0 0 0 0 0 0 0 0 0 0 0 0 0 0 2 0 1 14 14 18 23 27 30 38 40 45 46 44 44 50 49 49 49 49 39 38 30 29 21 15 10 4 0 0 0 0 0 0 0 0 0 0 0 0 0 0 0 0 0 0 0 0 0 0 0 0 0 0 0 0 0 0 0 0 0 0 0 0 0 0 0 0 0 0 0 0 0 0 0 0 0 0 0 0 0 0 0 0 0 0 0 0 0 0 0 0 8 2 7 18 23 27 31 34 41 50 50 52 52 57 54 58 58 57 57 56 51 47 42 38 35 29 22 15 12 9 0 0 0 0 0 0 0 0 0 0 0 0 0 0 0 0 0 0 0 0 0 0 0 0 0 0 0 0 0 0 0 0 0 0 0 0 0 0 0 0 0 0 0 0 0 0 0 0 0 0 0 0 0 0 0 0 0 0 0 0 0 0 7 12 15 26 33 37 38 44 52 55 53 54 55 61 60 62 62 62 62 58 57 54 50 49 44 37 34 25 22 17 12 6 5 0 0 0 0 0 0 0 0 0 0 0 0 0 0 0 0 0 0 0 2 1 1 0 0 0 0 0 0 0 0 0 0 0 0 0 0 0 0 0 0 0 0 0 0 0 0 0 0 0 0 0 0 0 0 0 0 0 1 6 10 22 24 31 37 45 43 50 55 56 58 58 63 64 62 63 63 64 62 60 61 60 53 50 51 45 40 36 32 21 18 13 10 5 0 0 0 0 0 0 0 0 0 0 0 0 0 0 0 0 0 0 2 0 2 3 0 0 0 0 0 0 0 0 0 0 0 0 0 0 0 0 0 0 0 0 0 0 0 0 0 0 0 0 0 0 0 0 0 3 7 14 18 31 34 40 44 49 52 51 55 58 59 61 64 63 61 62 63 63 63 61 59 60 57 54 55 51 43 41 43 34 26 23 17 15 10 4 0 0 0 0 0 0 0 0 0 0 0 0 0 0 2 0 0 0 0 3 0 1 0 1 0 0 0 0 0 0 0 0 0 0 0 0 0 0 0 0 0 0 0 0 0 0 0 0 0 0 0 0 2 7 15 24 31 37 41 45 49 52 53 53 56 57 59 60 59 60 59 61 63 63 62 63 60 58 57 55 57 53 50 45 43 40 32 29 25 21 19 12 11 1 0 0 0 0 0 0 0 0 0 0 0 0 1 3 0 0 1 0 2 0 0 0 0 0 0 0 0 0 1 0 0 0 0 0 0 0 0 0 0 0 0 0 0 0 0 0 0 0 2 4 10 19 25 31 38 41 46 50 51 53 56 56 57 58 58 59 58 60 60 62 61 62 61 62 59 60 58 58 57 53 53 51 47 45 43 35 32 27 23 16 20 14 5 0 0 0 0 0 0 0 0 0 0 0 0 4 0 3 2 2 2 0 0 1 0 0 0 0 0 0 5 3 0 0 0 0 0 0 0 0 0 0 0 0 0 0 0 0 1 0 3 11 24 28 32 39 44 48 49 51 53 57 56 56 57 59 61 58 59 60 59 61 60 61 60 60 58 59 59 58 55 55 53 51 52 49 48 43 39 34 30 24 23 19 17 7 0 0 0 0 0 0 0 0 0 0 0 0 0 5 6 0 3 1 0 0 2 0 0 0 0 0 10 0 0 0 0 0 1 0 0 0 0 0 0 0 0 0 0 0 0 5 16 23 34 34 38 44 46 50 56 52 57 57 56 57 58 61 57 59 59 62 59 59 61 61 60 60 60 57 58 56 56 55 54 53 53 51 49 48 46 39 34 31 25 27 22 17 9 0 0 0 0 0 0 0 0 0 0 0 0 2 6 2 0 4 0 0 4 2 0 0 0 0 2 0 0 0 0 0 0 0 0 0 0 0 0 0 0 0 0 5 8 14 26 33 36 40 44 48 52 55 57 57 60 59 58 56 59 60 59 55 59 60 60 59 58 60 58 60 59 57 57 56 57 54 54 54 54 51 51 50 49 45 39 37 32 28 30 22 20 9 0 0 0 0 0 0 0 0 0 0 2 0 4 3 3 4 4 0 6 2 1 0 0 0 0 2 2 0 1 3 0 0 0 0 0 0 0 0 0 0 7 10 16 24 34 39 39 46 50 53 55 59 58 58 59 60 57 55 58 60 59 57 59 60 60 57 59 57 59 59 58 57 56 56 56 53 54 53 54 51 53 50 51 47 46 42 38 36 30 29 24 18 12 0 0 0 0 0 0 0 0 0 4 1 3 0 5 3 4 1 0 4 2 1 0 0 0 7 2 0 3 3 0 0 0 0 0 0 0 0 3 7 10 17 26 31 37 44 47 50 50 58 54 59 59 60 57 59 57 59 57 59 58 61 59 59 62 58 58 57 57 58 57 57 56 56 56 54 53 54 53 54 53 51 50 49 47 45 42 40 32 35 30 24 19 7 2 0 0 0 0 0 0 0 0 1 4 1 1 2 5 0 1 4 3 1 1 0 0 8 7 1 4 0 0 1 0 0 0 0 0 0 7 8 15 24 33 37 39 50 52 53 53 57 55 56 59 58 57 58 57 59 59 59 59 60 58 59 60 57 58 58 55 56 55 58 55 54 56 55 52 53 53 54 53 52 52 49 49 44 47 43 34 37 36 32 22 18 8 0 0 0 0 0 0 0 0 0 4 3 3 2 7 4 0 6 4 2 1 0 0 11 9 6 1 0 0 4 0 0 0 0 0 8 10 15 25 34 40 41 47 50 55 54 56 56 56 58 58 57 58 58 58 59 59 59 57 58 61 59 58 57 58 58 54 55 56 55 55 55 54 54 53 51 53 54 52 52 52 53 49 49 47 46 43 37 36 34 26 23 17 8 1 0 0 0 0 0 0 0 3 0 6 5 5 7 1 3 4 2 1 1 0 11 8 3 1 1 0 3 0 0 0 0 6 16 13 20 36 40 39 44 53 51 55 55 53 54 56 61 58 58 59 58 58 58 61 58 57 55 59 61 56 55 56 57 55 54 53 54 55 54 52 54 52 51 49 52 53 51 52 54 49 51 48 46 47 41 41 37 31 25 24 15 5 1 0 0 0 0 0 0 0 0 2 5 4 8 1 3 3 2 2 2 4 9 9 3 2 0 0 0 0 0 0 0 15 15 18 35 44 41 45 51 53 52 54 51 55 56 55 55 58 58 58 58 59 57 60 58 58 55 59 57 58 55 55 56 53 54 53 51 55 51 52 52 53 49 49 50 53 51 50 51 50 50 49 49 45 43 37 40 31 29 26 20 12 8 0 0 0 0 0 0 0 0 0 2 7 6 4 6 7 2 0 4 3 4 10 4 5 0 0 0 0 1 0 10 18 16 31 43 43 44 50 54 53 53 52 48 53 54 54 55 57 56 58 60 57 58 59 58 58 56 57 55 56 54 54 52 51 51 51 52 53 52 50 49 52 49 51 48 53 49 48 49 49 50 47 48 46 43 40 38 35 26 28 25 19 9 6 0 0 0 0 0 0 0 0 3 0 8 6 6 6 1 1 0 2 4 7 7 1 0 3 0 0 7 8 17 14 29 42 43 45 48 51 54 52 53 52 51 52 52 54 55 55 56 54 59 56 55 57 56 55 56 55 55 55 51 51 51 51 51 48 51 49 48 48 48 48 46 48 46 48 46 48 48 45 48 46 48 46 45 41 39 37 27 27 28 26 13 9 5 1 0 0 0 0 0 0 5 0 1 6 6 4 3 4 2 3 2 5 8 2 2 1 0 2 11 11 19 22 39 47 43 47 50 52 53 50 54 51 49 51 51 53 53 52 53 50 55 52 52 55 54 54 53 53 52 50 50 50 49 51 49 45 48 47 44 46 46 45 44 45 42 44 45 44 44 44 45 45 44 46 43 42 39 38 30 30 28 31 21 13 7 4 0 0 0 0 0 0 3 2 0 6 4 5 2 5 4 0 1 11 4 5 3 0 5 11 8 16 20 28 46 48 43 44 48 50 54 49 51 49 49 48 48 50 49 50 49 45 50 48 47 49 49 50 48 50 49 47 47 48 45 49 46 44 45 45 43 42 43 43 41 40 41 40 42 41 41 41 42 41 41 44 41 41 39 39 35 30 30 32 26 19 8 9 4 0 0 0 0 0 0 4 0 3 4 7 2 7 1 0 8 10 4 6 1 3 9 9 13 21 21 35 49 47 42 45 47 49 52 48 47 46 47 47 45 45 43 45 45 42 42 43 42 44 44 45 44 46 44 44 42 43 41 42 42 41 41 42 38 41 39 39 38 36 37 37 38 38 38 37 40 39 40 39 39 41 39 40 34 31 30 31 27 23 14 8 12 10 0 0 0 0 1 2 4 0 4 4 4 6 1 1 10 7 7 4 6 9 11 9 14 22 22 39 49 44 41 45 45 46 51 46 45 44 42 42 41 40 40 40 39 39 37 36 37 40 38 38 41 39 40 40 37 36 35 36 35 36 35 36 35 35 35 34 34 33 34 35 34 33 34 34 37 38 39 40 39 39 39 38 35 29 29 33 28 29 18 10 13 16 0 0 0 0 3 1 11 4 4 4 3 3 1 3 11 8 4 5 6 12 10 11 18 18 24 44 47 39 42 42 43 44 48 44 43 43 40 38 37 37 37 37 35 34 33 32 32 34 34 34 34 33 35 33 31 32 29 31 30 31 31 32 32 32 30 29 30 29 30 32 30 30 30 32 34 35 36 38 37 38 39 36 36 33 24 37 30 31 23 9 14 13 7 0 0 0 0 3 7 1 8 7 5 3 0 10 14 6 11 5 7 13 9 15 16 18 29 43 45 41 42 41 42 44 45 42 39 41 37 36 34 34 34 34 32 32 30 29 30 30 32 31 31 29 30 28 27 26 25 27 26 26 27 27 28 28 24 26 26 26 26 29 27 28 27 30 31 30 32 36 36 36 36 34 36 31 28 36 32 31 27 10 18 12 15 0 0 4 0 1 7 4 10 6 5 6 0 23 7 8 9 3 8 12 10 17 16 22 30 43 43 41 40 40 39 41 42 38 38 39 37 33 34 33 33 32 31 30 28 29 29 27 28 28 27 26 28 26 25 24 23 22 20 23 23 24 22 22 22 22 21 21 21 23 23 24 24 26 27 28 30 32 35 33 32 33 34 33 30 37 31 29 31 14 13 21 15 4 0 4 1 6 7 2 13 9 1 7 0 21 10 5 12 5 8 12 16 15 16 23 28 41 42 39 38 41 38 39 39 36 36 36 34 32 30 30 29 30 29 28 26 27 27 25 25 24 25 25 23 23 24 22 20 19 18 17 18 19 14 16 17 17 16 16 16 19 19 19 22 21 23 27 27 28 32 30 30 31 31 34 29 37 34 31 29 20 13 24 8 12 0 5 1 11 4 1 10 15 3 10 1 15 15 3 11 7 11 15 16 15 19 23 27 39 39 38 37 41 38 36 37 35 34 32 31 29 28 27 28 28 27 26 26 26 25 24 25 24 24 23 23 22 22 20 17 16 14 13 12 13 9 12 10 13 11 12 13 15 15 16 18 20 19 24 25 25 29 27 28 30 31 32 31 36 35 32 32 22 16 24 8 11 4 5 1 7 5 2 11 17 6 10 6 10 12 4 8 6 10 14 11 18 20 25 24 35 39 37 36 37 34 33 34 31 29 27 26 25 24 25 25 25 24 25 24 24 24 23 24 24 23 22 23 21 19 16 12 15 8 8 6 8 5 6 6 6 7 7 8 10 9 11 14 14 16 17 23 23 25 25 26 29 30 29 33 36 32 33 30 24 19 21 15 12 7 4 11 2 7 1 13 16 7 11 7 7 6 6 6 4 15 12 16 17 17 22 20 32 37 35 30 31 26 25 25 23 19 19 17 19 19 18 18 18 16 18 18 17 19 17 18 20 21 16 21 20 17 14 13 11 4 5 3 4 4 2 6 4 3 3 3 3 6 7 7 8 10 13 17 21 23 21 24 26 27 26 28 33 31 35 29 25 19 22 19 9 13 4 15 6 7 3 6 13 13 10 11 5 6 7 3 2 15 12 14 13 14 16 20 31 32 28 25 24 17 17 14 12 7 6 5 7 10 7 8 10 6 7 10 9 8 8 10 13 16 9 14 17 13 12 12 4 4 4 2 7 5 8 11 11 11 16 16 16 20 17 10 8 8 7 8 16 18 18 20 24 22 23 27 28 32 33 32 24 16 22 20 10 18 12 11 12 9 7 0 13 20 8 13 6 0 6 3 4 15 17 13 12 9 11 19 26 26 24 19 18 9 6 2 0 0 0 0 0 0 0 0 0 0 0 0 1 0 0 1 1 7 7 3 10 14 11 12 11 13 19 16 18 11 12 14 11 11 17 19 16 20 15 4 6 2 5 0 4 11 11 14 19 17 18 21 25 28 30 31 23 19 20 24 14 19 14 15 11 14 4 0 8 25 10 12 7 0 5 4 7 13 17 10 3 5 5 20 22 18 18 11 8 1 0 0 0 0 0 0 0 0 0 0 0 0 0 0 0 0 0 0 0 0 3 0 4 10 4 9 15 10 13 9 12 5 6 13 11 10 11 12 9 15 4 0 0 0 0 0 0 0 0 5 10 9 11 13 18 20 24 27 22 19 23 29 18 23 13 16 13 17 1 0 4 24 14 10 10 4 7 5 11 9 16 2 5 3 7 20 23 15 9 1 0 0 0 0 0 0 0 0 0 0 0 0 0 0 0 0 0 0 0 0 0 0 1 2 0 0 5 4 7 4 7 5 8 4 0 5 1 0 0 0 0 0 0 0 0 0 0 0 0 0 0 0 0 0 0 2 8 12 14 17 20 16 22 27 22 19 17 10 19 12 10 3 9 17 20 16 1 6 3 5 4 12 18 0 4 2 7 17 23 15 11 8 0 0 0 0 0 0 0 0 0 0 0 0 0 0 0 0 0 0 0 0 0 0 0 0 0 0 0 0 0 0 0 0 0 0 0 0 0 0 0 0 0 0 0 0 0 0 0 0 0 0 0 0 0 0 0 0 0 0 6 4 11 12 15 26 25 22 18 11 14 8 12 8 9 7 18 16 0 3 0 5 8 16 12 5 0 0 5 20 25 17 8 2 0 0 0 0 0 0 0 0 0 0 0 0 0 0 0 0 0 0 0 0 0 0 0 0 0 0 0 0 0 0 0 0 0 0 0 0 0 0 0 0 0 0 0 0 0 0 0 0 0 0 0 0 0 0 0 0 0 0 0 0 0 5 8 17 26 25 21 14 16 7 12 13 9 5 20 8 0 6 0 7 8 18 0 8 3 7 13 28 23 20 9 0 0 0 0 0 0 0 0 0 0 0 0 0 0 0 0 0 0 0 0 0 0 0 0 0 0 0 0 0 0 0 0 0 0 0 0 0 0 0 0 0 0 0 0 0 0 0 0 0 0 0 0 0 0 0 0 0 0 0 0 0 0 0 1 11 22 24 21 20 15 9 8 12 7 12 15 2 9 2 3 11 1 10 2 9 6 9 20 33 24 19 4 0 0 0 0 0 0 0 0 0 0 0 0 0 0 0 0 0 0 0 0 0 0 0 0 0 0 0 0 0 0 0 0 0 0 0 0 0 0 0 0 0 0 1 0 0 0 0 0 0 0 0 0 0 0 0 0 0 0 0 0 0 0 0 0 7 18 17 20 22 19 10 5 8 11 12 15 0 13 16 3 9 8 8 2 7 8 13 24 35 30 13 2 0 0 0 0 0 1 0 0 0 0 0 0 0 0 0 0 0 0 0 0 0 0 0 0 0 0 0 0 0 0 0 0 0 0 0 0 0 0 0 0 0 0 0 0 0 0 0 0 0 0 0 0 0 0 0 0 0 0 0 0 0 0 0 0 0 14 16 17 21 21 15 5 12 11 15 11 0 5 18 14 17 9 0 7 3 7 16 29 37 31 7 2 0 0 0 0 0 1 1 4 1 5 7 2 0 0 0 0 0 0 0 0 0 0 0 0 0 0 0 0 0 0 0 0 0 0 0 0 0 0 0 0 0 0 0 0 0 0 0 0 0 0 0 0 0 0 0 0 0 0 0 0 0 0 0 0 0 0 5 7 22 20 18 8 9 15 13 3 5 6 11 16 20 13 0 1 8 3 17 31 35 22 5 0 0 0 0 0 0 1 4 1 0 1 0 0 0 0 0 0 0 0 0 0 0 0 0 0 0 0 0 0 0 0 0 0 0 0 0 0 0 0 0 0 0 0 0 0 0 0 0 0 0 0 0 0 0 0 0 0 0 0 0 0 0 0 0 0 0 0 4 0 20 27 12 11 12 14 11 1 8 7 20 12 7 13 0 0 15 10 17 24 29 10 5 0 0 0 0 0 0 0 9 0 0 0 0 0 0 0 0 0 0 0 0 0 0 0 0 0 0 0 0 0 0 0 0 0 0 0 0 0 0 0 0 0 0 0 0 0 0 0 0 0 0 0 0 0 0 0 0 0 0 1 8 12 2 0 0 0 0 0 6 0 1 30 10 9 16 11 9 3 13 14 21 14 6 7 0 0 6 1 14 12 30 0 0 0 0 0 0 0 0 1 0 0 0 0 0 0 0 0 0 0 0 0 0 0 0 0 0 0 0 0 0 0 0 0 0 0 0 0 0 0 0 0 0 0 0 1 0 6 8 1 0 0 0 0 0 0 0 0 0 0 0 3 5 17 9 0 0 0 0 0 0 0 0 31 12 5 16 14 4 14 13 12 7 13 12 6 0 0 0 0 11 0 0 0 0 0 0 0 0 0 4 0 0 0 0 0 0 0 0 0 0 0 0 0 0 0 0 0 0 0 0 0 0 0 0 0 0 0 0 0 0 0 0 0 0 0 0 0 0 0 8 7 0 0 8 0 0 0 0 0 0 0 0 0 5 16 13 0 0 0 0 0 0 0 3 40 16 0 16 13 12 10 6 0 2 11 5 0 0 0 0 0 12 0 0 0 0 0 0 0 0 12 8 0 0 0 0 0 0 0 0 0 0 0 0 0 0 0 0 0 0 0 0 0 0 0 0 0 9 0 0 0 0 0 0 0 0 0 0 0 0 0 22 6 0 0 0 0 0 0 0 0 0 0 0 0 0 13 6 0 0 0 0 0 0 0 6 29 5 0 16 13 17 17 5 0 10 4 2 0 0 0 0 0 17 22 24 5 7 0 0 0 4 3 0 0 0 0 4 7 9 6 3 0 0 0 0 5 0 0 0 0 0 0 0 0 0 0 5 0 14 7 0 0 0 0 0 0 0 0 0 0 0 0 8 0 0 0 0 0 0 0 0 0 0 0 0 0 0 0 3 0 0 0 3 0 8 7 0 1 5 14 25 0 12 10 12 0 8 0 0 0 0 0 0 10 17 21 26 12 14 0 5 6 2 2 0 0 0 11 18 23 15 14 7 0 0 0 6 8 0 0 0 0 0 5 0 0 0 0 0 5 16 4 0 0 0 0 0 0 0 0 0 0 0 3 3 0 0 2 0 0 0 0 0 0 0 0 0 0 0 0 0 0 0 0 6 13 5 17 0 0 0 16 13 3 3 9 7 0 0 0 0 0 0 0 0 16 16 19 13 0 2 0 4 6 5 6 3 14 13 22 30 36 33 24 21 10 18 16 19 5 3 5 6 9 12 17 0 0 0 0 3 18 17 11 0 0 0 9 1 0 0 0 13 17 5 16 10 7 15 14 13 9 1 0 5 0 2 0 0 0 0 0 0 0 0 3 8 18 1 27 0 0 0 6 0 0 0 14 12 7 0 0 0 0 0 0 0 12 10 30 24 11 2 0 0 14 12 21 15 31 32 28 31 34 31 29 23 20 24 20 20 6 5 11 14 20 26 23 6 1 0 7 4 19 21 12 1 0 5 21 6 5 22 14 24 28 33 29 24 14 24 28 19 16 13 16 0 8 22 14 3 9 4 4 1 0 0 0 7 20 1 36 0 0 1 0 0 0 0 13 7 3 0 0 0 0 0 0 7 16 28 47 39 21 24 0 1 24 23 23 22 37 49 42 30 26 23 29 30 30 32 29 27 26 23 26 23 26 31 28 15 9 15 11 17 11 20 19 10 0 9 20 16 17 17 21 19 28 33 36 33 17 33 39 20 21 22 13 10 18 19 16 12 19 12 20 20 3 0 1 10 18 0 40 0 2 0 0 0 0 0 3 6 0 0 0 0 0 0 0 9 21 29 47 40 22 29 10 17 28 26 27 29 41 52 48 36 29 32 41 37 44 39 41 36 35 32 33 32 33 36 27 14 14 19 19 24 15 17 21 20 3 15 17 24 28 17 19 24 31 35 43 38 28 35 34 22 14 6 14 20 17 15 17 23 26 17 33 28 12 0 3 13 5 4 33 7 11 0 0 0 1 0 0 0 0 0 0 0 0 0 0 7 22 28 40 37 26 28 18 16 38 45 46 44 39 49 43 39 39 42 39 46 47 45 43 36 37 37 39 36 38 36 21 15 12 20 25 22 24 18 15 16 13 16 19 25 36 15 18 24 27 41 49 52 42 41 36 25 16 23 27 25 21 19 18 27 34 23 38 34 22 9 14 25 0 12 30 16 23 1 0 0 0 2 0 0 0 0 0 0 0 0 0 4 21 32 32 35 28 23 24 7 38 47 48 40 41 48 44 40 44 43 33 44 45 45 40 42 43 42 43 41 38 30 15 15 8 27 24 23 26 28 20 8 13 18 25 39 41 27 18 23 26 36 48 57 38 45 42 36 34 38 35 33 27 27 29 35 33 21 30 32 24 14 21 27 0 27 23 25 31 0 0 0 4 0 0 3 0 0 0 0 0 0 0 3 17 29 37 26 26 27 16 16 16 43 48 38 44 46 44 45 43 39 43 48 45 44 42 47 45 45 45 40 34 16 20 5 16 26 25 23 25 29 26 16 18 2 20 27 30 28 14 16 17 27 39 48 40 35 38 31 35 37 32 39 34 36 38 42 30 26 33 29 26 15 22 9 10 31 20 33 23 1 0 0 6 0 0 6 2 0 0 0 0 0 0 3 17 28 32 35 19 25 6 5 16 25 35 32 40 42 39 37 40 45 52 47 43 38 39 45 44 42 43 36 23 16 17 14 27 26 29 27 25 27 25 21 18 12 23 32 34 39 28 19 23 27 34 49 49 35 36 31 35 30 29 36 37 41 41 44 23 29 30 31 22 14 12 2 32 23 15 38 21 1 0 0 4 0 0 10 9 0 0 0 0 0 0 0 8 22 27 32 17 15 8 0 0 4 20 14 18 25 29 35 42 42 37 33 36 34 33 40 42 42 40 26 12 23 15 31 30 27 31 31 26 26 23 21 11 18 20 30 39 45 39 30 25 35 30 36 52 40 38 38 36 27 30 33 38 36 39 30 17 29 26 21 12 0 5 23 30 13 23 33 19 0 0 0 4 0 5 17 9 0 0 0 0 0 0 4 13 21 21 20 15 0 2 5 4 0 3 1 4 15 17 25 25 30 31 38 42 37 31 34 39 30 27 18 25 24 22 36 30 28 34 34 29 28 17 14 8 20 22 17 38 39 43 30 31 28 37 31 31 33 25 35 22 27 30 28 31 32 32 7 12 18 13 11 9 7 13 14 16 23 24 29 6 0 0 0 4 0 5 15 19 0 0 0 0 0 0 0 16 23 29 25 27 7 1 14 9 12 7 2 0 3 6 13 19 22 26 26 28 23 24 23 23 21 26 30 26 14 26 31 29 30 34 34 31 31 23 2 8 16 25 22 22 26 34 31 27 30 31 33 25 21 4 10 15 20 23 23 19 19 11 8 17 20 18 20 18 7 5 11 16 19 20 19 6 0 0 0 5 0 3 17 28 0 0 0 0 0 0 0 11 20 27 26 22 20 2 6 14 16 13 13 0 11 15 15 20 23 23 22 20 16 15 19 22 19 22 17 7 10 18 21 20 23 27 25 25 23 14 0 2 2 14 16 16 7 12 12 13 16 20 26 22 21 7 0 2 1 1 0 2 1 0 2 8 13 14 16 15 8 5 12 13 19 21 17 8 0 0 1 0 3 0 19 28 0 0 0 0 0 0 0 4 18 26 26 22 19 14 11 11 16 19 20 10 5 18 18 22 24 22 20 20 20 21 25 20 9 5 2 6 8 7 8 6 8 15 15 18 18 14 17 14 11 10 15 20 17 14 13 11 12 14 17 16 16 12 0 2 4 3 6 9 9 4 7 16 18 21 23 21 14 9 12 11 15 17 12 9 0 0 0 0 8 0 23 27 0 0 0 0 0 0 0 4 14 22 23 23 16 15 18 20 20 16 17 10 0 1 13 23 22 19 15 14 19 17 11 8 5 1 7 13 7 4 4 4 9 13 14 15 10 20 19 16 16 10 14 20 25 23 19 18 19 19 22 21 23 23 14 8 21 18 16 15 15 10 13 20 20 23 25 23 14 12 10 9 15 13 12 4 0 0 0 4 5 8 16 34 0 0 0 0 0 0 0 4 11 22 25 23 15 14 15 18 21 21 18 14 8 7 0 9 15 10 8 6 5 10 12 8 1 0 9 16 10 10 9 8 13 17 11 5 11 12 11 15 14 14 15 13 21 22 22 21 21 20 19 17 19 21 15 16 11 20 18 18 20 20 19 24 25 25 29 23 17 7 10 11 14 10 14 2 0 0 0 0 8 8 15 36 0 0 0 0 0 0 0 5 10 18 25 23 17 14 12 17 19 18 17 15 15 13 15 13 10 4 1 1 2 3 2 0 0 0 6 13 7 5 5 6 13 19 11 13 12 6 12 13 9 15 16 11 13 16 23 21 22 20 16 10 15 15 11 11 14 9 9 13 19 19 17 23 26 28 29 25 16 8 8 6 5 2 8 0 0 0 0 0 9 13 12 38 0 0 0 0 0 0 0 5 15 15 22 21 16 14 11 15 16 15 17 17 16 12 15 16 15 9 4 0 0 0 0 0 0 0 0 0 0 0 0 0 0 6 12 16 15 10 10 6 3 11 16 7 2 4 14 14 19 16 14 6 12 11 5 4 10 7 4 4 5 7 7 9 15 19 21 15 6 1 0 0 1 10 15 1 0 0 0 0 13 17 16 40 12 0 0 0 0 0 0 7 17 17 21 20 17 15 13 12 14 13 16 16 14 12 15 16 17 10 0 0 0 0 0 0 0 0 0 0 0 0 0 0 0 0 0 2 8 4 2 0 0 3 6 0 0 0 0 0 9 7 12 2 9 8 6 1 3 2 3 3 4 7 9 11 15 19 24 19 11 12 9 7 11 14 14 2 0 0 0 0 10 14 19 39 17 0 0 0 0 0 0 10 11 19 23 20 16 14 13 10 11 10 12 13 12 16 15 19 18 13 0 0 0 0 0 0 0 0 2 1 0 0 0 0 0 0 0 0 0 0 0 0 0 4 0 0 0 0 0 0 0 1 0 0 9 8 5 3 0 0 0 2 5 8 10 13 14 18 22 18 10 10 5 5 12 15 12 0 0 0 0 0 11 16 16 25 21 0 0 0 0 0 0 8 13 17 22 21 18 15 15 12 10 10 10 12 14 18 18 20 18 13 3 0 0 0 0 0 0 0 0 0 0 0 0 0 0 0 0 0 0 0 0 0 0 0 0 0 0 0 0 0 0 0 0 0 7 4 1 0 0 0 0 0 1 8 9 17 19 18 22 18 12 10 4 4 8 11 11 0 0 0 0 0 11 20 10 3 24 1 0 0 0 0 0 1 8 15 21 20 19 18 14 14 11 11 11 10 16 19 18 16 15 9 4 0 0 0 0 0 0 0 0 0 0 0 0 0 0 0 0 0 0 0 0 0 0 0 0 0 0 0 0 0 0 0 0 3 8 3 0 0 0 0 0 0 0 2 7 11 16 20 21 15 13 9 4 4 6 8 6 0 0 0 0 2 15 15 3 0 19 5 0 0 0 0 0 3 0 14 18 20 21 21 14 12 12 10 9 14 18 15 16 14 10 3 0 0 0 0 0 0 0 0 0 0 0 0 0 0 0 0 0 0 0 0 0 0 0 0 0 0 0 0 0 0 0 1 0 8 13 2 0 0 0 0 0 0 0 0 3 7 13 17 17 11 10 8 3 0 6 4 2 0 0 0 2 3 17 5 4 0 4 7 0 0 0 0 0 3 3 9 18 21 23 19 17 15 13 13 10 17 16 15 13 10 5 2 0 0 0 0 0 5 8 8 0 0 0 0 0 0 0 0 0 0 0 0 0 0 0 0 0 0 0 0 0 0 0 0 2 5 12 4 0 0 0 0 0 0 0 0 0 4 8 10 15 4 6 6 2 4 10 0 2 0 0 0 5 3 10 4 7 0 0 6 0 0 0 0 0 0 5 10 19 19 22 19 16 18 12 11 12 15 14 10 8 7 2 0 0 0 0 0 4 5 5 8 0 0 0 0 0 0 0 0 0 0 0 0 0 0 0 0 0 0 0 0 0 0 0 0 0 0 10 3 0 0 0 0 0 0 0 0 0 1 2 6 9 5 1 5 6 6 2 0 4 0 0 0 4 3 9 7 8 0 0 0 1 0 0 0 0 0 0 7 19 19 22 16 18 17 12 11 13 12 11 5 4 6 0 0 0 0 0 0 1 0 0 3 0 0 0 0 0 0 0 0 0 0 0 0 0 0 0 0 0 0 0 0 0 0 0 0 0 0 0 2 0 0 0 0 0 0 0 0 0 0 0 0 4 1 0 5 6 5 0 0 6 0 0 0 6 2 12 8 7 0 0 0 9 0 0 0 0 0 0 2 19 20 19 14 16 14 10 9 7 4 4 0 0 0 0 0 0 0 0 0 0 0 0 0 0 0 0 0 0 0 0 0 0 0 0 0 0 0 0 0 0 0 0 0 0 0 0 0 0 0 0 0 0 0 0 0 0 0 0 0 0 0 0 0 0 2 0 1 4 0 0 1 6 0 1 3 0 2 8 9 8 0 0 0 2 0 0 0 0 0 0 0 14 22 18 13 15 16 11 6 3 0 0 0 0 0 0 0 0 0 0 0 0 0 0 0 0 0 0 0 0 0 0 0 0 0 0 0 0 0 0 0 0 0 0 0 0 0 0 0 0 0 0 0 0 0 0 0 0 0 0 0 0 0 0 0 0 0 0 0 0 1 0 6 5 0 2 2 0 4 8 4 0 0 0 0 1 0 0 0 0 0 0 0 5 20 18 13 15 20 13 1 4 0 0 0 0 0 0 0 0 0 0 0 0 0 0 0 0 0 0 0 0 0 0 0 0 0 0 0 0 0 0 0 0 0 0 0 0 0 0 0 0 0 0 0 0 0 0 0 0 0 0 0 0 0 0 0 0 0 1 0 0 6 0 10 5 1 0 0 0 8 8 2 0 0 0 0 0 0 0 0 0 0 0 0 1 12 16 11 15 20 9 0 0 0 0 0 0 0 0 0 0 0 0 0 0 0 0 0 0 0 0 0 0 0 0 0 0 0 0 0 0 0 0 0 0 0 0 0 0 0 0 0 0 0 0 0 0 0 0 0 0 0 0 0 0 0 0 0 0 0 0 0 0 0 5 10 3 0 1 0 0 11 5 2 0 0 0 0 0 0 0 0 0 0 0 0 0 11 10 9 16 17 7 2 0 0 0 0 0 0 0 0 0 0 0 0 0 0 0 0 0 0 0 0 0 0 0 0 0 0 0 0 0 0 0 0 0 0 0 0 0 0 0 0 0 0 0 0 0 0 0 0 0 0 0 0 0 0 0 0 0 0 0 0 0 3 11 10 0 0 5 0 1 9 3 1 0 0 0 0 0 0 0 0 0 0 0 0 0 1 0 7 11 13 4 0 0 0 0 0 0 0 0 0 0 0 0 0 0 0 0 0 0 0 0 0 0 0 0 0 0 0 0 0 0 0 0 0 0 0 0 0 0 0 0 0 0 0 0 0 0 0 0 0 0 0 0 0 0 0 0 0 0 0 0 0 0 4 10 8 1 0 5 0 2 5 3 0 1 0 0 0 0 2 4 0 0 0 0 0 0 0 0 0 3 6 0 0 0 0 0 0 0 0 0 0 0 0 0 0 0 0 0 0 0 0 0 0 0 0 0 0 0 0 0 0 0 0 0 0 0 0 0 0 0 0 0 0 0 0 0 0 0 0 0 0 0 0 0 0 0 0 0 0 0 0 0 0 0 5 12 8 3 3 7 0 3 5 0 2 0 0 0 0 0 6 0 0 0 0 0 0 0 0 0 0 0 0 0 0 0 0 0 0 0 0 0 0 0 0 0 0 0 0 0 0 0 0 0 0 0 0 0 0 0 0 0 0 0 0 0 0 0 0 0 0 0 0 0 0 0 0 0 0 0 0 0 0 0 0 0 0 0 0 0 0 0 0 0 0 0 5 8 10 7 4 5 0 3 5 0 3 0 0 0 0 0 8 0 0 0 0 0 0 0 0 0 0 0 0 0 0 0 0 0 0 0 0 0 0 0 0 0 0 0 0 0 0 0 0 0 0 0 0 0 0 0 0 0 0 0 0 0 0 0 0 0 0 0 0 0 0 0 0 0 0 0 0 0 0 0 0 0 0 0 0 0 0 0 0 0 0 0 0 7 10 10 3 1 0 1 0 0 0 0 0 0 0 0 2 0 0 0 0 0 0 0 0 0 0 0 0 0 0 0 0 0 0 0 0 0 0 0 0 0 0 0 0 0 0 0 0 0 0 0 0 0 0 0 0 0 0 0 0 0 0 0 0 0 0 0 0 0 0 0 0 0 0 0 0 0 0 0 0 0 0 0 0 0 0 0 0 0 0 0 1 5 12 11 5 0 1 0 1 0 0 1 0 0 0 0 0 0 0 0 0 0 0 0 0 0 0 0 0 0 0 0 0 0 0 0 0 0 0 0 0 0 0 0 0 5 8 0 0 2 0 0 0 0 0 0 0 0 0 0 0 0 0 0 0 0 0 0 0 0 0 0 0 0 0 0 0 0 0 0 0 0 0 0 0 0 0 0 0 0 0 0 2 5 9 1 5 0 6 2 0 0 2 0 0 0 0 0 0 0 0 0 0 0 0 0 0 0 0 0 0 0 0 0 0 0 0 0 0 0 0 0 0 1 1 5 8 14 12 9 2 9 2 10 11 10 12 13 17 14 17 16 15 14 9 10 3 3 2 5 6 1 2 0 0 0 0 0 0 0 0 0 0 0 0 0 0 0 0 0 0 0 0 0 0 5 3 0 1 0 3 0 0 0 1 0 0 0 0 0 0 0 0 0 0 0 0 0 0 0 0 0 0 0 0 0 0 0 0 0 0 0 0 0 3 0 2 7 13 12 8 6 7 10 6 10 12 10 17 19 19 19 17 21 17 17 15 12 6 7 6 8 13 0 0 0 0 0 0 0 0 0 0 0 0 0 0 0 0 0 0 0 0 0 0 0 0 2 0 0 0 0 4 0 0 0 0 0 0 0 0 0 0 0 0 0 0 0 0 0 0 0 0 0 0 0 0 0 0 0 0 0 0 0 0 0 0 2 2 10 7 8 5 2 9 12 8 11 13 15 17 20 20 17 22 19 16 14 14 13 6 2 5 6 5 0 0 0 0 0 0 0 0 0 0 0 0 0 0 0 0 0 0 0 0 0 0 0 0 5 0 1 0 0 2 0 0 0 0 0 0 0 0 0 0 0 0 0 0 0 0 0 0 0 0 0 0 0 0 0 0 0 0 0 0 0 0 0 0 0 0 7 4 5 4 2 9 9 4 6 5 9 13 15 16 16 20 21 19 14 13 10 9 4 4 5 0 0 0 0 0 0 0 0 0 0 0 0 0 0 0 0 0 0 0 0 0 0 0 0 0 0 0 0 0 0 0 0 0 0 0 0 0 0 0 0 0 0 0 0 0 0 0 0 0 0 0 0 0 0 0 0 0 0 0 0 0 0 0 0 0 0 0 1 1 0 0 0 2 2 0 0 0 0 6 8 10 11 13 21 19 15 9 12 9 2 0 4 0 0 0 0 0 0 0 0 0 0 0 0 0 0 0 0 0 0 0 0 0 0 0 0 0 0 0 0 0 0 0 0 0 0 0 1 0 0 0 0 0 0 0 0 0 0 0 0 0 0 0 0 0 0 0 0 0 0 0 0 0 0 0 0 0 0 0 0 0 0 0 0 0 0 0 0 0 0 1 0 8 5 4 7 5 9 1 4 8 0 0 0 0 0 0 0 0 0 0 0 0 0 0 0 0 0 0 0 0 0 0 0 0 0 0 0 0 0 0 0 0 0 2 0 0 0 0 0 0 0 0 0 0 0 0 0 0 0 0 0 0 0 0 0 0 0 0 0 0 0 0 0 0 0 0 0 0 0 0 0 0 0 0 0 0 0 0 0 0 0 0 0 2 4 0 0 0 0 0 0 0 0 0 0 0 0 0 0 0 0 0 0 0 0 0 0 0 0 0 0 0 0 0 0 0 0 0 0 4 0 0 1 0 0 0 0 0 0 0 1 0 0 0 0 0 0 0 0 0 0 0 0 0 0 0 0 0 0 0 0 0 0 0 0 0 0 0 0 0 0 0 0 0 0 0 0 0 0 0 0 0 0 0 0 0 0 0 0 0 0 0 0 0 0 0 0 0 0 0 0 0 0 0 0 0 0 0 0 0 0 0 0 0 0 0 0 0 0 0 0 2 0 0 0 0 0 0 0 0 0 0 0 0 0 0 0 0 0 0 0 0 0 0 0 0 0 0 0 0 0 0 0 0 0 0 0 0 0 0 0 0 0 0 0 0 0 0 0 0 0 0 0 0 0 0 0 0 0 0 0 0 0 0 0 0 0 0 0 0 0 0 0 0 0 0 0 0 0 0 0 0 0 0 0 0 0 0 0 0 0 0 0 2 0 0 0 0 0 0 0 0 0 0 0 0 0 0 0 0 0 0 0 0 0 0 0 0 0 0 0 0 0 0 0 0 0 0 0 0 0 0 0 0 0 0 0 0 0 0 0 1 2 2 0 0 0 0 0 0 0 0 0 0 0 0 0 0 0 0 0 0 0 0 0 0 0 0 0 0 0 0 0 0 0 0 0 0 0 0 0 0 0 0 1 3 0 0 0 0 0 0 0 0 0 0 0 0 0 0 0 0 0 0 0 0 0 0 0 0 0 0 0 0 0 0 0 0 0 0 0 0 0 0 0 0 0 0 0 0 0 0 0 0 1 0 0 0 0 0 0 0 0 0 0 0 0 0 0 0 0 0 0 0 0 0 0 0 0 0 0 0 0 0 0 0 0 0 0 0 0 0 0 0 0 0 0 0 0 0 0 0 0 0 0 0 0 0 0 0 0 0 0 0 0 0 0 0 0 0 0 0 0 0 0 0 0 0 0 0 0 0 0 0 0 0 0 0 0 0 0 0 0 0 0 0 0 0 0 0 0 0 0 0 0 0 0 0 0 0 0 0 0 0 0 0 0 0 0 0 0 0 0 0 0 0 0 0 0 0 0 0 0 0 0 0 0 0 0 4 0 0 0 0 0 0 0 0 0 0 0 0 0 0 0 0 0 0 0 0 0 0 0 0 0 0 0 0 0 0 0 0 0 0 0 0 0 0 0 0 0 0 0 0 0 0 0 0 0 0 0 0 0 0 0 0 0 0 0 0 0 0 0 0 0 0 0 0 0 0 0 0 0 0 0 0 0 0 0 0 0 0 0 0 0 0 0 0 0 0 0 5 0 0 0 0 0 0 0 0 0 0 0 0 0 0 0 0 0 0 0 0 0 0 0 0 0 0 0 0 0 0 0 0 0 0 0 0 0 0 0 0 0 0 0 0 0 0 0 0 0 0 0 0 0 0 0 0 0 0 0 0 0 0 0 0 0 0 0 0 0 0 0 0 0 0 0 0 0 0 0 0 0 0 0 0 0 0 0 0 0 0 0 0 0 0 0 0 0 0 0 0 0 0 0 0 0 0 0 0 0 0 0 0 0 0 0 0 0 0 0 0 0 0 0 0 0 0 0 0 0 0 0 0 0 0 0 0 0 0 0 0 0 0 0 0 0 0 0 0 0 0 0 0 0 0 0 0 0 0 0 0 0 0 0 0 0 0 0 0 0 0 0 0 0 0 0 0 0 0 0 0 0 0 0 0 0 0 0 0 0 0 0 0 0 0 0 0 0 0 0 0 0 0 0 0 0 0 0 0 0 0 0 0 0 0 0 0 0 0 0 0 0 0 0 0 0 0 0 0 0 0 0 0 0 0 0 0 0 0 0 0 0 0 0 0 0 0 0 0 0 0 0 0 0 0 0 0 0 0 0 0 0 0 0 0 0 0 0 0 0 0 0 0 0 0 0 0 0 0 0 0 0 0 0 0 0 0 0 0 0 0 0 0 0 0 0 0 0 0 0 0 0 0 0 0 0 0 0 0 0 0 0 0 0 0 0 0 0 0 0 0 0 0 0 0 0 0 0 0 0 0 0 0 0 0 0 0 0 0 0 0 0 0 0 0 0 0 0 0 0 0 0 0 0 0 0 0 0 0 0 0 0 0 0 0 0 1 0 0 0 0 0 0 0 0 0 0 0 0 0 0 0 0 0 0 0 0 0 0 0 0 0 0 0 0 0 0 0 0 0 0 0 0 0 0 0 0 0 0 0 0 0 0 0 0 0 0 0 0 0 0 0 0 0 0 0 0 0 0 0 0 0 0 0 0 0 0 0 0 0 0 0 0 0 0 0 0 0 0 0 0 0 0 0 0 0 0 0 0 0 0 0 0 0 0 0 0 0 0 0 0 0 0 0 0 0 0 0 0 0 0 0 0 0 0 0 0 0 0 0 0 0 0 0 0 0 0 0 0 0 0 0 0 0 0 0 0 0 0 0 0 0 0 0 0 0 0 0 0 0 0 0 0 0 0 0 0 0 0 0 0 0 0 0 0 0 0 0 0 0 0 0 0 0 0 0 0 0 0 0 4 0 0 0 0 0 0 0 0 0 0 0 0 0 0 0 0 0 0 0 0 0 0 0 0 0 0 0 0 0 0 0 0 0 0 0 0 0 0 0 0 0 0 0 0 0 0 0 0 0 0 0 0 0 0 0 0 0 0 0 0 0 0 0 0 0 0 0 0 0 0 0 0 0 0 0 0 0 0 0 0 0 0 0 0 0 0 0 0 0 0 0 0 0 0 0 0 0 0 0 0 0 0 0 0 0 0 0 0 0 0 0 0 0 0 0 0 0 0 0 0 0 0 0 0 0 0 0 0 0 0 0 0 0 0 0 0 0 0 0 0 0 0 0 0 0 0 0 0 0 0 0 0 0 0 0 0 0 0 0 0 0 0 0 0 0 0 0 0 0 0 0 0 0 0 0 0 0 0 0 0 0 0 0 0 0 1 1 0 0 0 0 0 0 0 0 0 1 0 0 0 0 0 0 0 0 0 0 0 0 0 0 0 0 0 0 0 0 0 0 0 0 0 0 0 0 0 0 0 0 0 0 0 0 0 0 0 0 0 0 0 0 0 0 0 0 0 0 0 0 0 0 0 0 0 0 0 0 0 0 0 0 0 0 0 0 0 0 0 0 0 0 0 0 0 0 0 0 3 6 0 0 0 0 0 0 7 6 1 7 2 0 0 0 0 0 0 0 0 0 0 0 0 0 0 0 0 0 0 0 0 0 0 0 0 0 0 0 0 0 0 0 0 0 0 0 0 0 0 0 0 0 0 0 0 0 0 0 0 0 0 0 0 0 0 0 0 0 0 0 0 0 0 0 0 0 0 0 0 0 0 0 0 0 0 0 0 0 0 0 0 7 0 0 0 0 0 0 7 11 4 2 11 6 5 6 0 0 0 0 0 0 0 0 0 0 0 0 0 0 0 0 0 0 0 0 0 0 0 0 0 0 0 0 0 0 0 0 0 0 0 0 0 0 0 0 0 0 0 0 0 0 0 0 0 0 0 0 0 0 0 0 0 0 0 0 0 0 0 0 0 0 0 0 0 0 0 0 0 0 0 0 0 2 0 0 0 0 0 0 8 13 13 7 12 5 9 3 3 0 0 0 0 0 0 0 0 0 0 0 0 0 0 0 0 0 0 0 0 0 0 0 0 0 0 0 0 0 0 0 0 0 0 0 0 0 0 0 0 0 0 0 0 0 0 0 0 0 0 0 0 0 0 0 0 0 0 0 0 0 0 0 0 0 0 0 0 0 0 0 0 0 0 0 0 0 0 0 0 0 0 0 6 11 13 7 10 0 10 6 3 0 0 0 0 0 0 0 0 0 0 0 0 0 0 0 0 0 0 0 0 0 0 0 0 0 0 0 0 0 0 0 0 0 0 0 0 0 0 0 0 0 0 0 0 0 0 0 0 0 0 0 0 0 0 0 0 0 0 0 0 0 0 0 0 0 0 0 0 0 0 0 0 0 0 0 0 0 0 0 0 0 0 0 4 9 12 7 12 8 16 17 0 0 0 0 0 0 0 0 0 0 0 0 0 0 0 0 0 0 0 0 0 0 0 0 0 0 0 0 0 0 0 0 0 0 0 0 0 0 0 0 0 0 0 0 0 0 0 0 0 0 0 0 0 0 0 0 0 0 0 0 0 0 0 0 0 0 0 0 0 0 0 0 0 0 0 0 0 0 0 0 0 0 0 0 2 7 9 10 