P2
92
112
255
31 32 32 31 32 31 32 33 31 31 31 32 32 31 31 30 30 30 31 30 28 24 26 24 23 21 16 8 7 9 9 14 15 18 18 20 24 23 19 18 16 12 9 8 2 3 0 0 0 0 0 0 0 0 0 0 0 0 0 0 0 0 0 0 0 0 0 0 2 1 3 9 10 14 20 26 25 23 26 23 26 25 25 22 26 26 28 28 29 27 29 28 31 32 32 31 32 31 32 32 32 32 31 33 33 32 31 31 31 31 32 29 25 22 22 17 8 4 0 0 1 3 6 7 12 11 13 15 15 19 15 11 10 2 1 0 0 0 0 0 0 0 0 0 0 0 0 0 0 0 0 0 0 0 0 0 0 0 0 0 0 0 0 0 9 10 12 18 20 22 24 22 26 23 28 24 25 24 25 27 28 28 28 28 32 31 32 32 32 31 33 32 31 33 32 33 33 32 33 32 32 30 27 27 23 22 14 0 0 0 0 0 0 2 4 8 7 9 11 11 8 7 4 0 0 0 0 0 0 0 0 0 0 0 0 0 0 0 0 0 0 0 0 0 0 0 0 0 0 0 0 0 0 0 1 0 7 11 12 11 14 18 23 22 24 24 23 26 24 24 24 26 27 28 27 28 33 32 32 34 31 33 32 32 32 33 33 34 34 31 31 29 27 25 25 19 12 2 0 0 0 0 0 0 0 2 5 6 7 7 5 2 0 0 0 0 0 0 0 0 0 0 0 0 0 0 0 0 0 0 0 0 0 0 0 0 0 0 0 0 0 0 0 0 0 0 1 1 2 9 15 13 8 13 20 21 24 23 23 22 24 23 24 24 27 28 26 28 32 32 32 32 33 33 32 33 32 32 35 33 31 29 27 26 24 22 15 0 0 0 0 0 0 0 0 0 0 0 0 0 0 0 0 0 0 0 0 0 0 0 0 0 0 0 0 0 0 0 0 0 0 0 0 0 0 0 0 0 0 0 0 0 0 0 0 0 0 0 0 4 6 2 13 19 14 11 15 19 23 23 23 23 22 23 24 24 23 26 26 28 31 31 32 32 33 33 33 33 35 35 34 31 29 27 24 22 18 9 0 0 0 0 0 0 0 0 0 0 0 0 0 0 0 0 0 0 0 0 0 0 0 0 0 0 0 0 0 0 0 0 0 0 0 0 0 0 0 0 0 0 0 0 0 0 0 0 0 0 0 0 0 5 9 5 6 17 21 15 13 18 20 20 24 23 22 21 23 23 22 24 26 27 32 31 32 33 32 32 35 33 34 37 34 29 27 22 21 16 7 0 0 0 0 0 0 0 0 0 0 0 0 0 0 0 0 0 0 0 0 0 0 0 0 0 0 0 0 0 0 0 0 0 0 0 0 0 0 0 0 0 0 0 0 0 0 0 0 0 0 0 0 3 5 7 7 6 4 8 19 21 15 17 20 20 23 22 21 19 19 21 21 22 24 25 31 32 31 33 32 34 34 34 37 35 31 25 20 22 14 0 0 0 0 0 0 0 0 0 0 0 0 0 0 0 0 0 0 0 0 0 0 0 0 0 0 0 0 0 0 0 0 0 0 0 0 0 0 0 0 0 0 0 0 0 0 0 0 0 0 0 0 0 0 0 8 9 12 8 7 3 11 17 21 15 19 18 19 18 18 17 18 17 19 19 21 27 31 32 32 32 33 34 33 35 36 32 23 20 20 13 2 0 0 0 0 0 0 0 0 0 0 0 0 0 0 0 0 0 0 0 0 0 0 0 0 0 0 0 0 0 0 0 0 0 0 0 0 0 0 0 0 0 0 0 0 0 0 0 0 0 0 0 0 0 0 0 4 8 12 14 9 6 5 12 15 15 11 11 13 13 14 15 16 15 17 22 21 26 31 31 33 32 33 33 36 35 31 24 19 21 14 0 0 0 0 0 0 0 0 0 0 0 0 0 0 0 0 0 0 0 0 0 0 0 0 0 0 0 0 0 0 0 0 0 0 0 0 0 0 0 0 0 0 0 0 0 0 0 0 0 0 0 0 0 0 0 0 0 1 5 13 15 12 10 6 5 8 11 7 9 10 8 16 16 19 19 20 20 24 24 32 31 32 33 32 35 36 31 23 22 20 15 0 0 0 0 0 0 0 0 0 0 0 0 0 0 0 0 0 0 0 0 0 0 0 0 0 0 0 0 0 0 0 0 0 0 0 0 0 0 0 0 0 0 0 0 0 0 0 0 0 0 0 0 0 0 0 0 0 0 0 4 8 13 10 12 10 5 1 5 9 9 12 13 16 20 19 20 19 21 21 24 31 33 32 33 34 35 35 27 21 22 15 0 0 0 0 0 0 0 0 0 0 0 0 0 0 0 0 0 0 0 0 0 0 0 0 0 0 0 0 0 0 0 0 0 0 0 0 0 0 0 0 0 0 0 0 0 0 0 0 0 0 0 0 0 0 0 0 0 0 0 0 0 1 6 8 11 8 8 4 6 8 7 11 10 10 14 17 16 18 21 20 22 31 31 34 34 35 34 31 28 23 16 3 0 0 0 0 0 0 0 0 0 0 0 0 0 0 0 0 0 0 0 0 0 0 0 0 0 0 0 0 0 0 0 0 0 0 0 0 0 0 0 0 0 0 0 0 0 0 0 0 0 0 0 0 0 0 0 0 0 0 0 0 0 0 0 2 8 7 6 5 4 4 6 3 5 7 6 11 12 10 14 16 19 31 32 34 34 33 31 29 28 18 5 0 0 0 0 0 0 0 0 0 0 0 0 0 0 0 0 0 0 0 0 0 0 0 0 0 0 0 0 0 0 0 0 0 0 0 0 0 0 0 0 0 0 0 0 0 0 0 0 0 0 0 0 0 0 0 0 0 0 0 0 0 0 0 0 0 3 4 5 4 2 1 4 5 0 0 2 3 7 9 8 12 10 32 33 34 34 31 27 28 20 12 0 0 0 0 0 0 0 0 0 0 0 0 0 0 0 0 0 0 0 0 0 0 0 0 0 0 0 0 0 0 0 1 5 7 9 12 12 12 12 9 9 8 6 8 4 0 0 0 0 0 0 0 0 0 0 0 0 0 0 0 0 0 0 0 0 0 0 0 3 2 1 2 2 0 0 0 0 0 5 1 4 9 10 32 32 34 28 28 26 22 16 4 0 0 0 0 0 0 0 0 0 0 0 0 0 0 0 0 0 0 0 0 0 0 0 0 0 0 0 0 0 9 15 18 21 22 25 27 26 27 27 26 26 25 18 19 17 12 10 7 6 2 2 0 0 0 0 0 0 0 0 0 0 0 0 0 0 0 0 0 0 0 0 2 2 0 0 0 0 0 3 3 2 10 11 31 33 29 25 26 24 16 6 0 0 0 0 0 0 0 0 0 0 0 0 0 0 0 0 0 0 0 0 0 0 0 0 0 0 2 9 14 19 24 28 30 32 35 38 40 40 40 38 41 39 39 34 32 30 26 24 20 19 19 16 13 8 9 5 9 3 0 0 0 0 0 0 0 0 0 0 0 0 0 0 0 1 1 4 0 1 0 5 4 7 7 15 31 32 27 22 22 16 1 0 0 0 0 0 0 0 0 0 0 0 0 0 0 0 0 0 0 0 0 0 0 0 0 1 3 9 13 22 25 30 36 37 40 42 45 46 49 48 49 47 49 48 49 45 44 41 35 36 33 31 32 29 27 22 20 18 17 16 10 3 0 0 0 0 0 0 0 0 0 0 0 0 0 0 2 1 4 5 1 5 9 9 13 12 32 30 26 24 12 0 0 0 0 0 0 0 0 0 0 0 0 0 0 0 0 0 0 0 0 0 0 0 0 0 4 11 14 17 24 31 33 39 42 47 48 49 51 52 52 54 54 52 52 53 52 52 50 47 44 43 42 41 36 38 36 33 27 25 24 23 18 12 6 0 0 0 0 0 0 0 0 0 0 0 0 0 2 3 0 4 6 3 13 11 12 12 27 27 27 18 5 0 0 0 0 0 0 0 0 0 0 0 0 0 0 0 0 0 0 0 0 0 0 0 0 8 14 19 22 28 32 39 42 46 50 52 55 54 56 56 55 57 57 57 56 56 55 53 53 50 48 48 47 45 44 43 40 41 37 34 28 29 27 21 15 9 1 0 0 0 0 0 0 0 0 0 0 0 0 2 1 2 1 4 10 14 14 14 25 27 29 14 0 0 0 0 0 0 0 0 0 0 0 0 0 0 0 0 0 0 0 0 0 0 0 0 9 17 21 24 30 36 42 44 47 53 54 54 57 57 57 57 57 57 57 57 57 57 55 54 53 53 53 51 51 49 47 47 45 45 44 42 38 32 30 27 22 15 10 1 0 0 0 0 0 0 0 0 0 0 0 0 1 0 0 2 3 11 13 15 24 27 26 6 0 0 0 0 0 0 0 0 0 0 0 0 0 0 0 0 0 0 0 0 0 0 0 13 20 26 30 33 40 45 49 50 53 54 56 55 57 57 57 56 57 55 56 56 55 56 54 54 54 53 52 53 53 51 49 48 47 48 47 48 47 42 37 32 28 18 12 8 5 0 0 0 0 0 0 0 0 0 0 0 0 0 0 3 4 4 13 13 24 30 20 0 0 0 0 0 0 0 0 0 0 0 0 0 0 0 0 0 0 0 0 0 3 5 11 24 30 33 36 40 46 48 51 52 52 53 55 54 55 54 55 54 54 53 54 52 54 54 53 53 52 54 50 51 53 51 51 50 49 48 49 49 48 48 45 39 33 25 16 6 2 0 0 0 0 0 0 0 0 0 0 0 0 0 0 0 8 3 11 15 26 32 10 0 0 0 0 0 0 0 0 0 0 0 0 0 0 0 0 0 0 0 0 7 8 14 25 32 35 39 41 45 48 48 50 52 51 52 53 53 52 51 52 51 50 51 50 51 50 49 50 50 51 51 49 49 51 51 49 51 49 49 47 50 48 48 47 45 39 33 25 14 3 0 0 0 0 0 0 0 0 0 0 0 0 0 0 0 2 5 13 15 28 24 0 0 0 0 0 0 0 0 0 0 0 0 0 0 0 0 0 0 0 1 7 11 16 27 33 35 39 40 44 46 46 46 48 49 48 49 50 49 48 48 48 49 48 47 46 48 47 45 45 47 49 48 48 47 48 49 50 49 49 48 49 48 48 48 48 44 43 39 32 22 10 5 0 0 0 0 0 0 0 0 0 0 0 0 0 0 0 8 11 20 26 7 0 0 0 0 0 0 0 0 0 0 0 0 0 0 0 0 0 0 5 11 18 17 25 34 34 37 38 40 42 44 43 44 44 45 45 46 45 45 44 44 44 44 45 44 43 43 43 43 42 44 44 45 45 45 46 46 47 48 47 47 47 48 48 46 47 44 41 43 38 29 17 12 1 0 0 0 0 0 0 0 0 0 0 0 0 0 0 5 9 19 18 0 0 0 0 0 0 0 0 0 0 0 0 0 0 0 0 0 0 9 17 22 21 23 29 33 34 33 35 39 39 41 40 40 40 42 42 41 41 42 41 40 40 40 40 40 38 39 38 40 38 40 40 42 41 42 43 43 43 45 45 45 45 47 46 45 45 43 42 39 41 35 25 17 7 0 0 0 0 0 0 0 0 0 0 0 0 0 0 0 7 17 9 0 0 0 0 0 0 0 0 0 0 0 0 0 0 0 0 2 11 18 22 23 23 27 28 32 31 31 34 37 38 38 37 37 38 38 37 37 38 38 37 37 36 37 35 35 35 36 35 34 36 36 36 38 38 40 40 40 41 42 43 43 44 45 44 45 45 41 42 39 37 39 31 22 12 1 0 0 0 0 0 0 0 0 0 0 0 0 0 0 7 11 0 0 0 0 0 0 0 0 0 0 0 0 0 0 0 0 2 8 15 20 22 23 26 26 28 28 28 31 34 35 34 35 34 35 35 35 34 34 35 35 34 34 32 33 32 31 33 32 32 32 33 33 35 36 35 37 38 38 39 39 39 41 42 43 43 42 43 41 40 38 38 36 34 27 15 5 0 0 0 0 0 0 0 0 0 0 0 0 0 0 3 5 0 0 0 0 0 0 0 0 0 0 0 0 0 0 0 0 6 12 17 18 21 24 26 26 27 27 28 31 32 32 33 32 32 33 33 33 32 32 33 31 31 31 30 31 29 30 29 29 29 31 30 31 32 32 33 34 36 35 36 37 39 39 40 41 42 42 43 42 40 38 37 37 33 28 20 7 0 0 0 0 0 0 0 0 0 0 0 0 0 0 0 7 3 0 0 0 0 0 0 0 0 0 0 0 0 0 0 0 7 13 16 19 22 24 24 25 25 28 29 30 30 32 32 31 31 32 32 31 31 30 30 30 29 29 28 27 27 27 28 28 27 28 29 29 31 31 31 33 34 34 35 37 36 38 40 40 41 42 42 40 40 39 37 36 33 30 22 8 1 0 0 0 0 0 0 0 0 0 0 0 0 0 0 5 16 4 0 0 0 0 0 0 0 0 0 0 0 0 0 0 6 12 16 20 24 25 26 26 27 29 29 29 31 31 31 31 31 31 30 30 30 29 29 29 28 28 27 25 26 25 26 26 26 27 27 28 30 30 31 31 32 34 34 34 36 37 39 40 39 41 41 41 40 38 39 35 33 30 22 13 7 0 0 0 0 0 0 0 0 0 0 0 0 0 0 2 19 13 0 0 0 0 0 0 0 0 0 0 0 0 0 0 4 12 18 20 25 23 26 27 29 29 30 31 32 32 32 31 32 31 30 30 30 28 28 28 28 28 28 25 25 24 25 24 26 26 26 27 28 30 29 31 31 33 33 35 36 36 38 40 39 41 39 40 39 38 37 36 33 28 25 14 12 0 0 0 0 0 0 0 0 0 0 0 0 0 0 0 18 16 0 0 0 0 0 0 0 0 0 0 0 0 0 0 7 15 20 22 23 24 25 28 31 31 31 32 33 33 33 32 32 32 31 32 31 30 29 29 28 27 27 27 25 25 24 25 25 26 26 26 29 29 29 31 33 33 34 36 37 37 38 41 40 41 41 40 40 37 37 37 34 30 25 19 13 8 1 7 0 0 0 0 0 0 0 0 0 0 0 0 17 13 0 0 0 0 0 0 0 0 0 0 0 0 0 0 10 18 24 23 25 25 26 29 31 31 32 33 34 33 34 33 34 34 33 33 32 31 31 31 29 27 28 28 25 25 25 26 26 26 26 28 29 30 31 32 34 34 35 36 37 38 39 39 40 41 40 41 39 39 38 37 37 31 25 22 17 14 3 10 4 0 0 0 0 0 0 0 0 0 0 0 18 10 0 0 0 0 0 0 0 0 0 0 0 0 0 4 12 22 26 25 25 27 27 29 31 32 33 34 35 35 34 35 37 37 36 34 34 33 34 31 30 29 29 28 27 27 26 27 27 26 27 28 30 30 32 34 35 35 37 39 39 40 40 39 40 40 39 40 39 38 37 37 38 34 25 22 19 17 8 7 13 0 0 0 0 0 0 0 0 0 0 0 20 9 0 0 0 0 0 0 0 0 0 0 0 0 0 9 18 24 27 26 26 28 28 29 29 32 33 34 35 35 36 37 36 38 36 34 34 33 32 31 30 29 29 26 27 27 27 26 27 27 28 29 31 31 32 34 35 36 39 40 40 39 40 41 40 40 38 38 37 38 37 37 37 34 29 21 19 19 13 8 14 0 0 2 0 0 0 0 0 0 0 0 19 7 0 0 0 0 0 0 0 0 0 0 0 0 5 15 23 26 26 25 27 28 29 28 29 30 32 32 33 33 35 36 36 36 35 34 34 32 31 30 29 29 27 27 25 27 28 26 27 28 28 29 30 31 33 35 37 37 39 40 40 39 40 40 39 40 39 38 37 36 36 36 37 35 30 24 17 18 15 10 14 3 0 0 0 0 0 0 0 0 0 0 19 4 0 0 0 0 0 0 0 0 0 0 0 3 12 21 23 25 24 24 26 27 27 28 27 30 30 32 32 31 33 33 34 34 34 33 33 31 30 29 28 28 27 27 25 26 26 27 25 29 28 29 31 32 34 35 37 37 39 39 40 39 39 38 37 38 38 36 37 35 36 37 34 36 32 23 18 14 16 9 12 7 0 0 0 0 0 0 0 0 0 0 17 5 0 0 0 0 0 0 0 0 0 0 0 5 17 22 22 21 21 19 22 22 22 25 26 29 29 29 27 28 29 28 30 30 31 29 28 28 27 27 26 25 25 25 24 24 24 25 26 28 28 28 30 33 34 34 36 35 36 38 38 38 37 37 35 36 35 34 35 32 34 34 32 32 32 26 16 12 11 11 10 10 0 0 0 0 0 0 0 0 2 0 21 11 5 0 0 0 0 0 0 0 0 0 0 8 17 20 17 17 14 12 12 13 13 17 17 18 22 21 22 24 24 24 25 26 25 25 24 22 22 21 20 21 21 22 22 21 21 21 22 24 23 24 24 28 29 28 30 29 31 30 31 33 31 33 30 31 30 31 29 30 28 27 27 27 28 24 17 9 9 9 9 10 0 0 0 0 0 0 0 0 2 6 39 23 5 0 0 0 0 2 1 0 0 0 0 6 11 8 7 5 2 1 0 2 1 2 1 0 7 8 11 14 14 14 16 18 17 18 18 16 15 14 12 14 12 13 12 11 10 10 12 13 11 12 13 14 16 18 20 21 23 21 21 22 20 19 21 20 18 19 14 19 18 19 18 22 22 20 14 11 4 8 9 7 0 0 0 0 0 0 0 0 4 11 49 25 9 0 0 0 0 3 0 0 0 0 0 4 7 4 3 4 3 10 12 13 17 16 12 5 3 2 4 3 7 5 8 7 9 10 9 6 7 5 4 2 1 2 0 1 0 0 2 0 3 1 4 5 5 4 5 6 9 7 5 4 3 2 0 1 1 4 1 2 8 11 9 13 16 19 17 12 7 7 6 3 0 0 0 0 0 0 0 1 7 14 23 9 13 0 0 0 0 0 0 0 0 0 6 14 10 2 0 0 0 0 0 0 0 0 0 0 0 0 0 0 0 0 0 0 0 0 0 0 0 0 0 0 0 0 0 0 0 0 0 0 0 0 0 0 0 0 0 0 0 0 0 0 0 0 0 0 0 0 0 0 5 7 5 10 12 12 14 10 8 3 6 3 1 0 0 0 0 0 0 2 11 16 12 0 20 12 5 5 0 3 0 0 0 0 9 13 8 5 1 0 0 0 0 0 0 0 0 0 0 0 0 0 0 0 0 0 0 0 0 0 0 0 0 0 0 0 0 0 0 0 0 0 0 0 0 0 0 0 0 0 0 0 0 0 0 0 0 0 0 0 0 0 3 6 9 13 16 20 18 15 13 5 2 1 0 0 0 0 0 0 0 8 17 19 19 17 30 22 11 10 1 9 0 0 0 0 5 18 15 14 11 8 5 1 0 0 0 0 0 0 0 0 0 0 0 0 0 0 0 0 0 0 0 0 0 0 0 0 0 0 0 0 0 0 0 0 0 0 0 0 0 0 0 0 0 0 0 0 0 0 0 0 0 0 6 12 12 13 15 18 22 18 21 7 5 6 0 0 0 0 0 0 0 13 25 22 36 37 42 33 19 15 13 13 0 0 0 0 1 14 15 11 8 6 2 0 0 0 0 3 0 0 0 0 0 0 0 7 0 0 0 0 0 0 0 0 2 0 0 0 0 0 0 0 0 0 0 6 7 10 7 0 0 0 0 0 0 4 13 8 0 7 5 3 0 15 6 5 16 15 15 13 17 16 16 7 4 1 6 0 0 3 0 0 12 22 27 24 44 52 47 39 30 25 25 17 9 0 0 0 0 0 0 2 0 0 0 0 0 0 0 6 7 0 0 0 0 0 0 10 7 0 0 0 7 0 1 7 0 0 0 0 0 0 0 0 0 0 0 6 10 10 14 13 0 0 0 4 5 16 21 2 2 9 10 10 3 10 22 2 0 15 17 16 21 26 23 11 0 4 8 12 6 3 3 8 20 24 27 23 53 52 53 52 42 34 25 18 5 0 0 5 9 0 0 0 0 1 2 0 0 0 0 0 2 0 0 0 0 0 6 10 14 6 0 0 2 0 0 0 0 0 0 0 0 0 0 0 0 0 0 0 1 0 16 17 0 0 0 0 0 0 5 0 0 5 6 8 19 14 5 13 3 0 13 14 19 24 27 8 5 6 6 21 18 5 10 19 25 24 25 25 67 52 52 65 63 43 26 22 4 1 0 14 22 6 0 0 0 0 0 0 0 0 0 0 0 0 0 0 0 2 9 9 1 0 0 0 0 0 0 0 0 0 0 0 0 0 0 0 0 0 0 0 0 0 1 3 0 0 1 0 0 0 3 0 0 1 3 12 11 12 0 8 16 1 2 17 22 25 23 10 1 13 9 18 21 18 17 22 29 25 22 29 72 62 43 56 61 53 41 36 13 15 4 15 19 10 0 0 0 0 0 0 0 0 0 0 0 0 0 0 0 0 3 11 0 2 0 0 0 0 0 0 0 0 0 0 0 0 0 0 0 0 0 1 5 6 9 0 0 1 0 3 0 0 0 0 0 0 1 5 5 3 0 0 12 4 0 3 14 16 19 8 2 12 20 13 30 35 22 25 28 20 25 26 69 69 55 54 59 56 43 36 16 17 10 20 19 10 0 0 0 0 0 0 0 0 0 0 0 0 0 0 0 0 3 5 0 0 0 0 0 0 0 0 0 0 0 0 0 0 0 0 0 0 0 0 0 0 0 0 0 0 0 0 0 0 0 0 0 0 0 0 0 0 0 0 0 0 0 0 0 8 13 9 9 18 22 22 31 44 27 35 27 19 26 25 68 69 63 51 54 47 30 26 12 15 18 19 18 15 9 0 0 0 0 0 0 0 0 0 0 0 0 0 0 0 0 0 0 0 0 0 0 0 0 0 0 0 0 0 0 0 0 0 0 0 0 0 0 0 0 0 0 0 0 0 0 0 0 0 0 0 0 0 0 2 0 0 0 0 0 0 8 9 13 17 18 27 27 34 36 41 26 36 29 19 26 24 66 66 59 42 34 28 19 20 15 12 17 20 17 21 21 9 1 0 0 0 0 3 0 0 0 0 0 0 0 0 0 0 0 0 0 4 1 0 0 0 0 0 0 0 0 0 0 0 0 0 0 0 9 12 9 0 0 0 0 0 0 0 0 0 0 0 0 0 0 2 5 1 0 0 0 7 15 21 19 24 25 27 23 33 44 42 23 31 27 11 20 20 64 60 46 31 17 24 14 19 21 15 15 20 17 21 17 13 10 1 5 0 0 3 1 0 0 0 1 3 3 4 0 0 0 0 0 2 1 0 0 1 0 0 0 0 0 0 0 0 0 0 0 8 16 12 14 2 0 0 0 0 0 0 0 0 2 0 0 0 5 6 10 0 0 6 4 11 14 18 16 30 29 32 27 34 46 44 21 29 28 12 17 22 58 54 37 23 19 25 16 15 23 17 13 22 19 21 17 13 13 4 17 1 0 6 3 4 3 4 5 4 8 11 2 0 0 0 4 2 1 0 2 11 11 0 0 0 0 0 0 0 0 10 12 13 17 17 14 8 12 11 0 0 1 0 7 12 11 9 2 0 0 6 6 0 4 15 6 18 15 18 18 30 29 30 28 37 42 40 18 31 30 8 22 22 57 53 35 25 24 26 26 20 20 17 12 22 17 17 16 14 17 6 18 13 0 8 7 7 10 7 7 4 7 7 0 0 1 0 5 0 0 0 6 13 12 0 0 0 0 0 0 0 0 10 9 11 11 12 13 6 8 11 0 0 3 4 4 11 7 8 5 0 0 4 5 0 15 18 6 18 16 17 23 29 26 27 28 38 37 40 19 35 28 12 21 23 57 53 41 35 35 40 43 31 19 15 13 19 15 11 14 13 19 6 14 18 0 10 10 12 14 11 10 8 14 10 5 6 3 12 10 6 1 7 9 12 11 2 0 1 0 0 0 0 0 8 7 11 12 11 10 7 0 12 4 0 8 7 8 9 11 11 9 7 7 7 6 3 20 18 9 17 15 23 27 27 21 24 28 32 30 35 20 30 28 12 24 20 55 56 47 46 46 48 53 38 15 10 9 16 11 7 10 11 16 10 8 18 4 6 13 11 11 11 9 12 9 4 4 0 10 13 12 8 9 12 12 12 10 6 0 0 0 0 0 0 6 9 7 10 15 11 10 11 5 10 12 2 8 12 8 7 9 13 14 12 14 17 13 12 25 19 18 15 19 25 30 25 19 20 23 28 26 28 16 26 22 14 27 21 53 61 57 51 51 39 44 44 19 5 6 9 8 6 6 9 12 10 2 15 13 0 12 12 10 11 10 11 3 5 2 6 17 15 12 10 16 13 14 15 12 10 5 0 2 0 0 2 4 14 6 9 16 14 10 12 10 5 15 11 4 15 12 8 9 12 16 18 21 25 17 19 28 14 23 16 24 28 29 25 14 15 16 26 20 26 15 24 19 15 27 24 54 68 66 51 43 33 32 36 30 2 7 6 4 1 5 7 9 13 2 12 18 6 4 12 8 6 7 3 3 3 6 14 17 16 13 17 20 18 20 18 16 11 8 6 0 0 0 7 2 14 13 9 15 13 14 10 16 6 14 12 9 7 16 12 13 16 14 20 25 24 17 23 22 10 19 16 28 27 27 21 13 15 24 18 18 25 16 25 14 13 29 21 56 70 73 54 29 23 37 21 16 11 3 10 2 0 0 3 8 10 7 3 14 16 0 6 9 3 2 2 1 4 10 17 12 11 18 21 21 20 21 16 15 10 8 0 0 1 13 4 12 10 16 15 13 15 13 10 11 9 5 15 12 9 7 13 13 16 15 19 24 18 17 24 14 16 15 18 27 27 25 18 13 21 28 11 21 25 15 25 10 13 26 19 53 65 71 59 28 18 33 28 9 0 1 6 10 3 0 1 3 7 9 0 10 13 11 0 0 5 5 4 9 12 14 12 9 16 22 19 18 18 19 18 17 11 0 0 9 11 0 11 11 14 14 21 18 20 17 15 10 12 5 10 15 15 12 5 12 15 19 22 22 17 23 20 9 20 11 20 21 22 22 18 17 27 15 13 24 26 18 22 10 12 26 18 52 54 65 61 37 22 27 24 8 0 0 0 0 7 5 7 8 10 12 13 3 4 7 3 0 0 6 11 15 14 10 10 16 21 22 17 21 21 21 18 10 0 0 9 11 11 8 3 13 19 12 16 23 23 22 20 14 11 15 4 10 17 16 14 4 14 22 22 16 23 23 12 18 12 14 17 17 19 21 18 26 20 6 19 23 22 23 23 6 17 22 15 61 46 53 55 40 29 28 22 5 0 0 0 0 0 0 0 0 0 0 2 2 0 0 5 4 5 0 0 4 1 8 13 20 23 20 18 21 18 15 7 4 3 8 12 9 10 14 9 8 12 18 14 13 28 28 23 18 13 12 13 3 9 18 18 14 13 12 17 25 23 19 21 15 11 18 15 20 18 19 19 19 14 12 19 24 24 23 19 3 17 19 16 68 53 45 51 39 30 35 23 2 0 0 0 0 0 0 0 0 0 0 2 3 0 0 0 1 3 3 6 6 3 7 12 14 18 20 21 19 11 8 7 6 10 12 12 9 12 17 14 15 15 13 7 14 9 24 32 30 21 17 19 19 10 11 25 18 10 8 12 10 15 20 14 12 16 15 13 14 11 16 18 11 13 16 16 21 24 25 17 6 19 16 15 67 60 47 45 36 26 30 15 0 0 0 0 0 0 0 0 0 0 0 0 0 0 0 0 0 0 0 0 1 2 9 11 11 14 15 10 9 5 6 10 11 10 13 13 12 11 18 16 19 20 19 17 10 8 3 1 3 9 9 8 9 10 4 4 13 14 11 11 12 5 5 5 7 7 8 9 11 12 14 9 10 14 12 12 20 22 24 14 6 19 11 16 63 60 52 49 34 26 25 13 4 0 0 0 0 0 0 0 0 0 0 0 0 0 0 2 2 0 0 0 0 0 0 0 1 5 9 8 4 4 8 11 5 3 11 10 12 12 15 15 17 25 24 24 21 21 9 4 0 0 0 0 3 8 5 5 2 3 7 9 11 12 11 12 12 12 11 7 6 6 10 8 8 10 10 11 21 17 21 6 8 16 10 20 48 55 53 52 40 25 29 18 8 0 0 0 0 0 0 0 0 0 0 0 0 0 0 1 3 3 1 0 0 0 0 0 0 2 6 6 2 5 8 8 0 0 7 6 9 12 9 7 10 22 24 24 24 26 17 9 0 0 0 0 0 2 5 0 0 2 0 0 0 2 1 1 1 1 2 4 5 10 9 6 5 7 7 14 25 18 14 5 12 13 13 17 33 40 47 47 44 26 25 21 9 0 0 0 0 0 0 0 2 4 3 3 1 0 0 3 3 3 0 0 0 0 0 0 0 0 0 1 1 2 0 0 0 0 0 0 0 4 0 0 0 8 15 16 20 20 14 11 8 4 1 0 0 0 5 1 0 2 2 4 3 4 7 4 5 4 5 5 5 7 7 5 4 7 7 17 23 15 12 9 12 12 17 14 27 28 31 36 37 25 22 20 7 0 0 0 0 0 0 2 4 8 6 3 7 0 0 3 4 3 0 0 0 0 0 0 0 0 0 0 0 0 0 0 0 0 0 0 0 0 0 0 0 0 7 4 4 3 1 0 2 3 2 1 0 6 7 5 0 0 7 5 4 5 8 8 9 6 7 6 4 6 6 3 1 7 8 16 18 14 12 10 13 10 17 9 19 24 19 19 22 20 14 14 7 0 0 0 0 0 0 0 5 7 4 1 5 4 0 0 3 1 0 0 0 0 0 0 0 0 0 0 0 0 0 0 0 0 0 0 0 0 0 0 0 0 0 0 0 0 0 0 0 0 0 0 1 6 8 3 1 1 8 8 7 6 10 10 10 9 8 6 5 6 4 2 4 5 5 11 11 14 11 12 10 12 13 2 17 15 14 14 10 11 3 3 0 0 0 0 0 0 0 2 5 8 5 0 2 3 0 0 0 0 0 0 0 0 0 0 0 0 0 0 0 0 0 0 0 0 0 0 0 0 0 0 0 0 0 0 0 0 0 0 0 0 0 0 0 5 4 4 10 9 9 13 8 8 11 12 10 9 9 7 4 7 4 4 7 1 3 9 12 13 9 8 7 9 4 0 17 17 10 7 5 3 0 0 0 0 0 0 0 0 0 3 5 6 7 2 1 3 2 0 0 0 0 0 0 0 2 1 0 0 0 0 0 0 0 0 0 0 0 0 0 0 0 0 0 0 0 0 0 0 0 0 0 0 0 0 3 6 8 11 16 13 14 15 10 11 11 13 11 10 10 6 4 8 4 7 6 1 7 8 8 6 3 3 3 4 1 3 19 17 13 8 3 4 0 0 0 0 0 0 0 0 1 1 3 4 7 6 2 2 2 2 5 5 0 0 0 0 2 4 6 5 6 2 0 0 0 0 0 0 0 0 0 0 0 0 0 0 0 0 0 1 0 0 0 0 2 2 6 8 12 15 18 15 16 12 13 15 12 12 11 10 9 7 7 7 5 8 7 5 6 0 0 0 0 0 2 0 2 3 19 17 16 11 11 6 4 0 0 0 0 0 0 0 0 0 2 3 3 5 4 3 1 0 7 8 7 9 5 3 10 8 6 8 7 6 0 0 0 0 0 0 0 0 0 0 0 0 0 0 0 2 4 7 7 5 4 3 1 3 7 10 14 16 15 14 12 12 14 13 13 12 10 9 9 9 9 10 5 11 6 5 0 0 0 0 0 0 0 2 3 2 19 17 18 12 12 9 9 1 0 0 0 0 0 0 0 0 2 2 2 3 5 7 7 5 7 8 11 14 15 15 20 16 11 10 7 8 4 1 4 0 0 0 0 0 0 9 11 8 1 1 2 6 5 4 10 10 7 5 5 7 13 14 13 17 17 14 11 14 14 13 15 11 11 9 9 9 8 11 8 9 4 4 0 0 0 0 0 0 0 2 4 4 20 18 19 15 12 13 10 6 0 0 0 0 0 0 0 0 0 2 1 3 3 6 8 7 9 10 13 15 14 15 21 23 22 21 17 14 15 12 16 16 14 13 9 12 8 13 19 15 14 13 13 16 10 9 14 15 12 10 9 12 17 18 14 19 17 17 16 16 14 13 14 13 9 11 10 9 10 12 9 3 0 2 0 0 0 0 0 0 0 1 4 3 18 19 19 16 16 14 14 9 5 1 0 0 0 0 0 0 0 0 1 3 5 5 9 7 10 12 16 18 19 16 23 24 25 25 24 22 24 25 25 26 23 26 25 29 23 22 25 25 23 24 21 24 21 20 19 22 21 14 17 19 18 19 19 18 19 19 17 16 16 12 12 10 9 10 11 8 12 13 7 2 0 0 0 0 0 0 0 0 3 1 4 4 19 18 20 18 15 18 16 13 8 4 0 0 0 0 0 0 0 0 0 1 3 5 7 7 10 15 17 22 21 19 24 26 26 26 27 27 31 32 32 32 30 31 32 32 31 31 32 35 29 29 27 27 26 25 27 27 27 22 23 23 22 22 18 20 19 19 18 16 13 13 9 7 9 11 11 10 12 15 6 3 0 0 0 0 0 0 0 0 3 3 4 7 20 20 19 18 17 19 18 17 11 7 3 0 0 3 0 0 0 0 0 0 4 4 7 8 11 15 20 23 21 21 25 29 28 30 29 29 35 36 33 34 35 38 37 35 35 34 40 39 35 35 33 31 32 31 30 31 29 24 25 28 25 26 21 21 20 18 18 15 13 15 9 7 10 10 11 12 13 15 7 4 4 5 0 0 0 0 3 1 3 3 3 5 18 21 20 19 18 20 21 20 16 9 6 1 0 3 1 0 0 0 0 0 4 5 6 8 13 18 22 24 22 23 28 30 30 31 32 34 37 38 35 37 38 41 42 39 40 37 43 43 38 40 38 35 38 37 35 34 31 26 28 29 27 25 22 20 19 20 17 16 13 13 9 9 10 11 12 12 17 15 9 6 10 9 0 0 2 0 3 2 4 4 5 4 20 20 20 20 17 22 20 22 19 13 11 5 0 1 3 1 0 0 0 1 3 5 6 9 15 20 23 26 26 25 29 31 32 33 35 38 41 41 40 39 43 44 44 41 41 40 43 46 43 43 43 42 41 40 38 37 33 30 29 29 26 25 23 19 21 18 14 14 12 9 10 10 9 12 10 15 20 13 10 9 17 10 0 4 2 3 2 4 5 5 6 5 21 20 22 21 20 21 22 21 22 15 14 8 1 2 3 3 0 0 0 1 2 4 5 10 14 17 22 23 21 18 17 19 27 32 34 37 38 39 40 41 47 49 48 45 45 46 49 46 42 40 42 44 44 43 40 33 33 31 30 29 27 25 22 20 19 16 12 13 9 10 9 8 10 12 15 15 19 13 12 12 21 9 0 4 4 3 2 5 5 5 7 6 19 19 21 21 20 21 22 23 22 20 17 13 4 3 3 3 1 0 0 0 0 1 1 3 4 2 6 9 11 4 4 3 10 13 14 14 14 17 25 32 38 44 47 47 45 45 43 36 34 36 33 35 33 31 26 19 22 24 28 28 24 19 17 18 16 12 12 9 8 8 7 7 10 12 14 19 18 13 13 15 24 7 1 5 6 5 4 4 6 5 5 5 20 20 21 21 20 20 22 25 23 20 19 16 6 2 3 2 0 0 0 0 0 0 0 0 0 0 0 0 0 0 0 0 0 0 0 0 0 2 4 6 6 12 17 24 27 27 22 21 28 29 26 21 15 11 11 9 12 10 13 13 14 12 10 11 8 10 10 6 6 5 6 5 10 12 14 19 17 13 14 20 25 3 3 5 7 5 6 4 6 6 4 6 20 21 21 22 20 20 23 23 24 22 18 17 10 5 5 4 0 0 0 0 0 0 0 0 0 0 0 0 0 0 0 0 0 0 0 0 0 0 0 0 0 0 0 0 0 0 0 0 5 6 4 1 0 1 3 0 4 7 7 4 1 4 5 3 0 0 0 0 0 0 2 5 7 13 15 18 14 15 14 22 24 0 5 6 9 7 3 6 4 6 5 6 21 20 23 21 20 21 18 24 22 24 20 16 12 6 6 3 0 0 0 0 0 0 0 0 0 0 0 0 0 0 0 0 0 0 0 0 0 0 0 0 0 0 0 0 0 0 0 0 0 0 0 0 0 0 0 0 0 0 0 0 0 0 0 0 0 0 0 0 0 0 0 1 5 10 15 16 16 15 17 24 19 3 6 7 8 7 5 6 5 6 4 6 21 21 22 22 21 20 21 21 24 23 22 18 15 9 7 5 4 1 0 0 0 0 0 0 0 0 0 0 0 0 0 0 0 0 0 0 0 0 0 0 0 0 0 0 0 0 0 0 0 0 0 0 0 0 0 0 0 0 0 0 0 0 0 0 0 0 0 0 0 0 0 1 5 11 16 15 14 16 18 26 11 4 6 8 8 4 8 5 5 6 4 7 21 20 21 23 20 22 17 23 22 24 23 20 16 14 9 6 5 7 3 4 4 1 0 0 0 0 0 0 0 0 0 0 0 0 0 0 0 0 0 0 0 0 0 0 0 0 0 0 0 0 0 0 0 0 0 0 0 0 0 0 0 0 0 0 0 0 0 0 0 0 1 6 14 14 17 16 17 17 21 24 9 6 9 9 8 4 5 6 6 3 6 6 22 22 22 20 21 21 20 20 22 22 24 19 16 15 12 6 8 7 6 6 6 4 6 2 4 4 4 2 2 0 0 0 0 0 0 0 0 0 0 0 0 0 0 0 0 0 0 0 0 0 0 0 0 0 0 0 0 0 0 0 0 0 0 0 0 0 0 0 0 0 5 8 14 17 16 17 19 18 22 22 5 9 9 9 6 7 6 6 6 5 6 5 22 22 23 21 20 21 22 20 20 20 22 18 17 15 12 8 4 6 4 4 3 3 3 5 5 4 2 0 0 0 0 0 0 1 1 3 5 0 0 0 3 4 5 5 10 7 9 9 6 0 0 0 0 0 0 0 0 0 0 0 0 0 0 0 0 0 0 0 0 3 7 10 14 17 16 17 18 18 23 14 6 9 11 9 6 6 6 6 6 5 5 7 22 22 20 20 21 21 22 21 18 21 18 19 17 12 14 10 0 2 1 3 2 3 0 4 4 5 0 0 0 0 0 0 0 0 0 0 0 0 0 4 2 3 5 3 3 2 0 1 2 2 0 2 0 0 0 0 0 0 0 0 0 0 0 1 4 0 0 2 0 4 8 11 15 17 17 16 18 22 19 10 8 8 9 8 8 6 7 8 4 4 6 6 23 21 17 19 22 21 23 23 17 17 18 15 15 11 11 11 4 0 0 5 1 1 1 0 0 1 0 0 0 0 0 0 0 0 0 0 0 0 0 0 0 0 0 0 0 0 0 0 0 0 0 0 0 0 0 0 0 0 0 0 0 0 0 3 2 2 2 2 2 6 10 11 14 15 16 14 19 19 14 9 8 8 9 6 7 6 7 7 5 6 6 5 20 21 18 20 21 22 23 21 18 17 14 15 11 10 7 12 8 0 0 2 0 2 1 1 0 1 0 0 0 0 0 0 0 0 0 0 0 0 0 0 0 0 0 0 0 0 0 0 0 0 0 0 0 0 0 0 0 0 0 0 0 0 0 0 1 2 3 3 5 6 9 10 13 12 14 16 18 19 9 9 8 7 6 6 7 8 5 7 5 4 7 6 19 19 18 20 19 22 23 20 21 16 13 9 10 9 6 10 7 4 0 0 1 2 3 2 2 2 2 3 3 0 0 1 0 0 0 0 0 0 0 0 0 0 0 0 0 0 0 0 0 0 0 0 0 0 0 0 0 0 0 0 0 0 1 1 2 3 4 5 6 7 9 11 14 9 14 15 17 13 5 9 8 7 4 5 6 7 4 7 5 5 5 6 19 19 20 17 21 22 20 19 19 18 12 6 7 8 5 11 10 6 0 0 0 0 3 4 6 7 6 8 5 10 11 10 12 10 11 10 9 7 5 3 1 0 0 0 0 0 1 0 1 0 1 1 0 0 0 0 0 0 0 0 0 1 0 2 0 3 3 4 5 8 9 8 11 10 13 12 13 8 7 6 6 5 5 6 4 7 4 7 4 3 3 5 17 18 17 18 20 20 18 19 17 17 13 5 4 3 5 6 11 5 1 0 0 0 0 4 9 10 11 12 13 18 18 17 21 21 23 23 22 23 26 26 23 21 17 15 15 14 15 13 12 9 10 11 11 11 10 7 7 5 2 6 3 4 2 2 0 5 3 5 6 6 6 9 10 10 12 11 7 6 7 7 5 3 5 6 5 4 5 6 6 5 3 5 18 16 16 18 19 17 17 16 16 15 14 8 0 0 3 5 8 8 0 2 0 0 0 3 4 8 11 14 16 17 19 19 24 23 25 28 28 27 29 33 33 35 36 36 32 30 29 25 23 21 19 18 17 15 16 13 12 11 8 10 9 7 6 8 2 4 5 5 5 6 4 9 10 11 12 5 5 4 6 4 2 4 5 5 4 4 5 5 5 4 5 3 16 16 18 17 19 15 15 16 14 14 9 8 4 0 0 0 6 8 3 1 0 0 0 0 0 6 7 13 12 19 19 16 18 19 18 25 23 27 27 33 33 34 37 38 38 37 35 36 32 28 27 23 22 20 18 17 14 14 13 13 11 8 9 9 6 6 8 3 6 0 7 10 12 10 10 0 2 2 5 3 2 4 7 6 6 2 5 5 6 5 6 5 15 17 16 18 15 14 13 15 13 10 8 3 8 0 0 0 1 5 4 1 0 0 0 0 0 1 7 12 12 16 16 15 15 16 16 18 22 22 27 29 33 30 30 34 34 39 37 37 34 30 28 26 25 24 24 20 17 14 15 14 13 11 9 9 8 6 6 6 2 2 9 12 7 10 4 0 1 0 2 2 0 4 3 7 5 2 6 4 4 3 6 4 16 15 17 15 12 11 14 14 12 7 5 3 2 4 0 0 0 1 0 0 0 0 0 0 0 0 0 8 10 14 15 13 14 16 17 18 22 20 20 24 27 28 29 30 29 32 36 33 33 30 28 25 25 27 25 23 17 16 16 16 14 12 9 9 6 4 4 4 1 6 13 7 6 7 0 0 0 0 2 1 0 2 3 6 5 3 4 4 5 2 5 4 15 16 15 13 10 11 14 13 9 5 3 0 1 0 0 0 0 0 0 0 0 0 0 0 0 0 0 0 3 9 10 10 15 18 18 18 21 20 21 23 24 28 26 25 29 28 34 30 28 28 29 28 28 27 27 23 19 20 17 17 12 11 11 7 2 4 1 0 5 10 11 4 4 1 0 0 0 1 0 0 0 1 1 4 3 5 1 2 4 3 3 3 15 12 15 10 10 10 12 10 7 3 0 0 0 0 0 0 0 0 0 0 0 0 0 0 0 0 0 0 0 2 5 8 10 14 16 18 20 20 22 19 21 24 26 26 28 28 30 29 25 26 23 24 23 23 22 23 20 17 17 13 11 11 9 4 1 0 0 2 7 8 9 4 0 0 0 0 0 0 0 0 0 0 0 1 1 2 1 1 1 3 1 2 11 13 12 9 9 7 7 7 4 0 0 0 0 0 0 0 0 0 0 0 0 0 0 0 0 0 0 0 0 0 0 2 6 10 12 13 14 16 17 17 19 18 23 25 24 30 27 27 24 22 22 21 21 20 19 19 17 11 12 10 7 5 3 0 0 0 1 2 5 7 10 3 0 0 0 0 0 0 0 0 0 0 0 0 0 3 0 1 0 0 1 0 8 9 8 8 3 5 6 3 1 0 0 0 0 0 0 0 0 0 0 0 0 0 0 0 0 0 0 0 0 0 0 0 0 0 5 8 7 12 11 15 16 15 17 22 19 25 25 20 20 18 20 19 18 16 16 14 12 8 6 6 2 1 0 0 0 0 1 2 5 9 12 0 0 0 0 0 0 0 0 0 0 0 0 0 0 0 0 0 0 1 0 0 6 6 3 4 0 2 4 0 0 0 0 0 0 0 0 0 0 0 0 0 0 0 0 0 0 0 0 0 0 0 0 0 0 0 0 1 2 7 6 10 13 14 15 16 15 18 17 16 15 16 16 16 12 13 9 11 3 1 0 2 0 0 0 0 0 0 1 4 6 9 11 0 0 0 0 0 0 0 0 0 0 0 0 0 0 0 0 0 0 0 0 0 3 2 3 0 0 0 0 0 0 0 0 0 0 0 0 0 0 0 0 0 0 0 0 0 0 0 0 0 0 0 0 0 0 0 0 0 0 0 1 4 5 6 7 7 7 9 10 8 7 8 9 9 5 7 3 1 0 0 0 0 0 0 0 0 0 1 3 5 4 10 9 0 0 0 0 0 0 0 0 0 0 0 0 0 0 0 0 0 0 0 0 0 0 0 0 0 0 0 0 0 0 0 0 0 0 0 0 0 0 0 0 0 0 0 0 0 0 0 0 0 0 0 0 0 0 0 0 0 0 0 0 0 0 0 1 0 1 2 4 2 2 1 1 1 2 1 0 0 0 0 0 0 0 0 0 0 0 2 4 5 4 12 4 0 0 0 0 0 0 0 0 0 0 0 0 0 0 0 0 0 0 0 0 0 0 0 0 0 0 0 0 0 1 0 0 0 0 5 0 0 0 0 0 0 0 0 0 0 0 0 0 0 0 0 0 0 0 0 0 0 0 0 0 0 0 0 0 0 0 0 0 0 0 0 0 0 0 0 0 0 0 0 0 0 0 0 0 0 0 1 2 7 6 12 2 0 0 0 0 0 0 0 0 0 0 0 0 0 0 0 0 0 0 0 0 0 0 0 0 0 0 0 0 2 0 0 0 0 7 1 0 0 0 0 0 0 0 0 0 0 0 0 0 0 0 0 0 0 0 0 0 0 0 0 0 0 0 0 0 0 0 0 0 0 0 0 0 0 0 0 0 0 0 0 0 0 0 0 0 0 1 2 2 8 7 13 2 0 0 0 0 0 0 0 0 0 0 0 0 0 0 0 0 0 0 0 0 0 0 0 0 2 0 0 1 2 0 0 0 1 7 0 0 0 0 0 0 0 0 0 0 0 0 0 0 0 0 0 0 0 0 0 0 0 0 0 0 0 0 0 0 0 0 0 0 0 0 0 0 0 0 0 0 0 0 0 0 0 0 0 0 0 2 2 4 9 9 10 1 0 0 0 0 0 0 0 0 0 0 0 0 0 0 0 0 0 0 0 0 0 