P2
92
112
255
0 0 0 0 0 0 0 0 0 0 0 0 0 0 0 0 0 0 0 2 6 6 8 8 16 15 15 15 16 18 19 30 22 23 22 20 19 21 22 24 24 24 17 22 25 25 24 26 29 28 28 25 27 30 27 20 23 26 27 27 23 20 12 15 8 5 0 0 0 0 0 0 0 0 0 0 0 0 0 0 0 0 0 0 0 0 0 0 0 0 0 0 0 0 0 0 0 0 0 0 0 0 0 0 0 0 0 0 0 3 3 8 8 10 13 17 22 19 18 24 20 19 19 19 18 17 17 19 20 21 21 21 23 20 17 18 21 21 21 21 27 25 24 27 26 26 33 26 28 30 32 33 25 20 21 21 13 4 5 0 1 0 0 0 0 0 0 0 0 0 0 0 0 0 0 0 0 0 0 0 0 0 0 0 0 0 0 0 0 0 0 0 0 0 0 0 0 0 0 0 5 9 10 9 12 15 23 26 25 21 20 21 18 15 9 12 14 16 18 15 16 15 19 16 16 14 11 11 15 15 17 14 18 20 18 20 24 27 29 32 27 32 33 34 30 27 26 24 20 9 9 3 5 0 0 0 0 0 0 0 0 0 0 0 0 0 0 0 0 0 0 0 0 0 0 0 0 0 0 0 0 0 0 0 0 0 0 0 0 0 0 10 10 14 16 13 22 23 26 28 28 22 15 13 11 6 10 9 11 14 13 13 13 7 8 7 8 7 7 3 5 10 6 10 6 10 13 7 14 22 21 26 28 30 34 33 31 32 28 23 16 21 8 8 6 7 0 0 0 0 0 0 0 0 0 0 0 0 0 0 0 0 0 0 0 0 0 0 0 0 0 0 0 0 0 0 0 0 0 0 5 9 9 16 16 18 20 24 22 24 30 27 20 16 7 7 6 7 10 9 11 7 8 8 5 3 4 5 5 3 3 2 0 2 3 4 3 4 5 7 11 15 17 18 24 22 26 32 33 37 38 27 20 29 17 12 15 5 0 9 1 0 0 0 0 0 0 0 0 0 0 0 0 0 0 0 0 0 0 0 0 0 0 0 0 0 0 0 0 0 0 6 12 16 14 23 18 18 25 23 23 29 24 23 14 11 8 6 6 2 2 2 1 2 0 1 0 0 0 0 0 0 0 0 0 0 0 0 0 1 4 5 2 10 11 12 19 21 25 22 30 33 36 35 29 27 24 21 22 15 9 16 8 3 2 0 0 0 0 0 0 0 0 0 0 0 0 0 0 0 0 0 0 0 0 0 0 0 0 0 0 0 14 13 15 19 22 22 20 21 33 28 28 22 15 12 12 13 9 5 0 0 0 0 0 0 0 0 0 0 0 0 0 0 0 0 0 0 0 0 0 0 3 2 0 6 10 10 16 22 26 22 24 31 33 31 28 28 28 25 27 23 16 15 8 7 3 3 0 0 0 0 0 0 0 0 0 0 0 0 0 0 0 0 0 0 0 0 0 0 0 0 0 10 14 14 21 22 15 21 33 36 37 33 22 11 14 16 11 6 1 0 0 0 0 0 0 0 0 0 0 0 0 0 0 0 0 0 0 0 0 0 0 0 0 1 3 6 13 12 15 20 19 22 24 26 29 31 34 30 27 30 29 25 17 17 14 7 7 6 3 0 0 0 0 0 0 0 0 0 0 0 0 0 0 0 0 0 0 0 0 0 0 0 5 15 15 20 16 14 22 36 42 41 36 27 14 16 12 13 2 1 0 0 0 0 0 0 0 0 0 0 0 0 0 0 0 0 0 0 0 0 0 0 0 0 0 4 3 10 5 9 16 15 13 20 20 21 25 28 30 28 26 28 26 28 24 25 17 15 14 5 4 5 4 3 2 0 0 0 0 0 0 0 0 0 0 0 0 0 0 0 0 0 0 0 11 19 17 17 17 24 41 48 44 40 32 21 16 13 10 1 0 4 0 0 0 0 0 0 0 0 0 0 0 0 0 0 0 0 0 0 0 0 0 0 0 0 2 7 10 7 9 12 16 15 16 14 16 23 24 25 27 26 26 30 30 28 28 27 25 21 20 16 9 12 8 4 6 5 0 0 0 0 0 0 0 0 0 0 0 0 0 0 0 0 0 4 17 18 20 20 32 47 51 43 46 34 26 17 13 7 2 1 2 2 0 0 4 0 0 0 0 0 0 0 0 0 0 0 0 0 0 1 3 0 0 4 2 4 6 12 13 11 16 16 17 17 17 15 18 23 20 24 23 23 27 26 28 33 27 31 31 27 24 19 18 17 11 12 9 6 4 0 0 0 0 0 0 0 0 0 0 0 0 0 0 0 0 13 17 24 19 43 52 54 52 50 39 33 18 10 9 9 0 5 5 1 0 4 3 0 0 0 0 0 0 0 0 0 0 2 3 1 5 7 7 5 5 9 7 9 12 15 15 13 13 14 17 19 19 18 17 22 22 22 22 22 25 28 25 29 29 27 30 28 30 28 25 17 19 21 9 10 11 4 0 0 0 0 0 0 0 0 0 0 0 0 0 0 9 19 18 27 46 58 51 62 52 50 32 17 11 9 14 4 7 9 12 8 7 4 1 0 0 0 0 0 0 1 3 7 9 9 8 6 12 12 11 13 12 15 13 16 15 13 15 14 13 14 16 16 15 17 18 20 24 23 23 22 26 27 24 26 31 26 30 31 33 30 32 19 22 24 16 12 16 12 2 4 0 0 0 0 0 0 0 0 0 0 0 11 13 20 29 46 58 53 56 60 48 32 17 12 14 16 12 17 15 21 20 14 2 6 2 0 0 0 3 4 6 11 14 13 12 14 16 18 20 19 21 20 21 21 19 24 14 17 16 15 16 15 16 18 17 18 18 22 23 23 24 26 26 25 27 28 27 31 31 32 34 31 34 32 26 25 18 19 17 19 13 8 6 0 0 0 0 0 0 0 0 0 10 12 24 33 44 65 56 54 55 55 33 15 16 17 26 21 21 28 24 25 14 5 4 9 5 5 9 11 13 16 15 20 19 20 20 22 25 27 24 24 26 28 24 24 23 26 19 23 21 21 20 20 19 21 21 22 22 24 25 25 27 29 27 27 28 29 30 36 37 32 36 38 34 35 37 29 23 21 22 18 15 14 12 0 0 0 0 0 0 0 0 11 11 19 41 47 61 59 55 54 53 37 18 21 24 30 33 24 32 33 27 20 11 8 10 16 13 18 19 24 23 23 22 23 23 28 28 30 33 30 28 29 30 25 29 24 26 24 22 27 27 23 23 24 24 28 24 25 23 25 28 26 32 33 31 30 31 30 34 37 38 36 40 40 37 36 40 38 29 19 21 18 14 22 17 4 0 0 0 0 0 2 6 16 17 31 52 61 54 53 53 53 39 21 25 28 35 33 38 35 37 33 22 13 16 15 20 21 22 28 27 28 26 24 23 24 30 32 33 31 31 32 30 28 28 28 30 25 26 23 25 28 28 26 25 26 27 28 27 28 27 27 31 30 32 36 33 36 34 33 33 37 39 37 42 42 41 41 39 42 40 27 22 27 16 24 22 7 5 0 0 0 0 5 11 21 28 47 60 52 51 53 52 43 26 21 36 36 43 43 39 42 34 27 16 18 23 24 27 29 30 32 32 30 28 27 26 31 34 33 33 27 28 33 26 26 27 28 29 28 26 25 27 27 28 28 28 27 28 30 30 29 29 29 30 34 33 34 36 37 36 37 34 37 37 39 43 45 45 44 41 41 47 35 24 29 19 23 22 16 8 6 0 0 3 10 20 24 44 53 51 50 56 55 48 34 27 36 45 49 48 45 46 40 31 29 21 29 29 33 33 35 35 36 34 32 31 32 29 33 31 26 25 24 27 27 24 26 27 28 30 30 28 29 28 28 28 29 30 29 30 30 32 29 29 31 32 35 34 33 36 37 37 39 36 33 41 40 43 44 47 46 43 42 49 45 31 30 24 21 24 20 13 7 1 0 9 16 21 33 53 54 44 56 58 57 42 28 39 46 53 53 43 49 47 36 34 30 32 33 35 37 36 38 38 38 36 33 34 32 26 31 25 22 22 22 26 24 24 26 27 27 29 28 27 28 27 29 30 29 29 30 31 32 34 28 29 32 32 33 35 34 36 38 36 39 39 36 37 41 43 45 47 50 46 44 46 53 39 29 32 25 24 21 20 10 6 0 16 21 25 42 55 51 44 58 64 56 30 35 49 52 50 48 51 49 42 35 32 31 37 33 39 41 40 38 36 38 36 35 33 29 27 25 19 21 22 22 25 23 23 25 25 25 29 27 27 25 28 29 30 28 29 31 31 31 32 31 29 31 32 33 34 35 35 36 36 38 40 39 40 40 44 43 50 51 50 50 43 55 53 31 33 31 28 30 16 18 9 0 17 29 35 49 55 42 51 69 67 38 32 51 56 46 49 55 53 44 36 33 32 36 39 43 45 44 40 38 38 39 37 34 27 26 23 18 20 18 20 19 17 19 21 23 24 23 27 27 26 26 25 27 29 27 28 28 29 30 29 29 28 29 31 31 33 33 34 37 38 36 40 40 43 44 44 45 50 56 49 53 46 54 54 44 34 33 29 35 19 16 12 5 25 34 45 52 39 52 73 75 45 26 49 60 42 49 54 57 49 39 33 31 33 40 44 46 43 43 39 40 37 37 33 28 26 21 17 19 17 14 17 15 14 17 20 21 21 23 23 26 23 26 24 25 26 24 25 25 27 28 25 25 25 26 29 28 28 34 32 36 36 36 39 43 43 47 47 46 49 56 56 54 52 52 51 50 45 31 33 32 30 13 14 10 35 33 51 42 55 72 77 57 28 42 60 49 43 59 56 47 40 34 32 33 42 44 48 47 44 45 40 40 33 31 29 25 18 15 14 14 13 13 12 13 13 14 15 18 18 19 19 20 20 21 23 22 22 22 24 23 24 25 22 22 22 25 25 27 28 30 30 34 36 36 39 43 46 46 49 48 50 52 57 57 55 54 53 51 52 39 37 32 35 22 11 15 31 38 42 63 75 71 62 40 42 55 49 46 59 58 53 42 34 34 36 39 42 46 48 46 45 42 37 32 26 26 24 20 14 13 12 9 10 10 11 10 10 10 11 12 14 16 17 15 17 17 18 18 15 20 19 18 19 19 20 19 20 20 21 24 26 26 28 29 33 35 38 41 46 48 49 49 52 52 56 57 58 53 55 54 46 50 41 37 36 28 17 13 32 38 57 78 70 72 46 44 49 54 44 56 61 52 54 38 35 34 37 38 42 43 44 39 37 36 30 22 23 22 18 12 12 11 9 7 8 9 8 7 7 8 7 9 11 13 13 11 14 14 15 14 12 15 15 14 16 16 13 15 14 15 16 18 18 19 25 27 29 34 35 38 44 47 51 52 51 53 56 58 60 55 56 55 50 50 47 41 40 31 26 17 35 45 70 70 69 66 43 54 49 50 56 58 60 52 45 39 35 34 39 42 45 42 39 40 32 28 23 22 21 17 15 8 8 8 5 8 7 7 7 5 7 5 2 4 9 10 9 8 10 12 11 11 9 13 11 13 10 9 9 11 10 13 12 14 14 16 20 22 26 29 31 37 42 43 47 51 54 52 56 60 62 55 58 56 52 54 49 43 44 38 30 21 33 60 72 64 69 54 50 52 52 59 59 60 57 48 36 37 35 42 44 45 43 38 39 38 28 25 24 21 17 14 12 10 7 7 5 8 8 6 3 2 6 4 0 2 4 10 4 4 6 10 8 7 8 10 9 9 8 5 5 7 8 8 10 9 11 11 18 19 23 25 31 35 38 42 44 48 54 53 54 60 63 58 59 55 58 56 52 45 46 42 34 26 40 74 69 66 61 53 47 60 59 61 60 56 57 40 37 39 46 50 47 42 37 38 41 28 26 26 29 21 14 14 11 10 7 7 6 6 4 5 3 1 4 3 0 2 3 4 4 2 3 5 5 5 4 7 5 5 5 1 4 4 5 8 7 8 10 12 18 20 23 25 28 34 36 39 44 44 51 55 53 60 60 66 60 54 55 63 55 49 46 48 38 31 63 72 64 61 57 51 55 65 58 61 57 58 49 43 42 47 52 47 44 37 34 33 34 21 25 25 25 16 10 11 9 9 7 9 6 3 4 5 4 2 3 3 0 0 0 2 2 1 0 3 3 2 0 4 1 2 2 0 1 4 3 6 6 8 10 12 15 19 21 25 29 31 34 38 41 42 46 56 54 57 63 67 61 56 54 61 61 53 49 53 42 38 76 60 60 58 55 54 62 63 60 58 55 59 47 50 45 48 49 43 43 31 28 25 21 22 20 16 9 5 2 5 5 3 1 3 3 0 1 1 1 0 1 1 0 0 0 0 0 0 0 0 0 0 0 0 0 0 2 0 1 2 3 4 5 7 7 8 11 14 19 21 23 29 33 36 39 42 45 49 55 54 64 68 63 58 52 62 61 58 51 56 47 41 70 52 53 57 52 55 59 61 60 57 66 55 53 43 45 50 48 42 37 26 20 19 18 15 11 3 0 0 0 0 0 0 0 0 0 0 0 0 0 0 0 0 0 0 0 0 0 0 0 0 0 0 0 0 0 0 0 0 0 0 0 0 0 2 1 0 2 7 12 13 17 22 28 31 37 40 43 47 51 55 61 68 67 55 61 60 61 59 54 54 57 42 60 46 51 58 54 61 57 58 64 66 63 51 49 46 50 52 50 41 36 29 20 20 15 9 1 0 0 0 0 0 0 0 0 0 0 0 0 0 0 0 0 0 0 0 0 0 0 0 0 0 0 0 0 0 0 0 0 0 0 0 0 0 0 0 0 0 0 0 0 5 9 15 20 25 33 36 37 44 48 53 58 68 69 58 61 61 62 61 54 58 59 48 45 48 56 62 56 56 60 64 70 61 56 52 48 53 52 52 50 45 39 29 30 18 16 7 0 0 0 0 0 0 0 0 0 0 0 0 0 0 0 0 0 0 0 0 0 0 0 0 0 0 0 0 0 0 0 0 0 0 0 0 0 0 0 0 0 0 0 0 0 0 2 9 13 19 27 36 38 43 47 54 57 65 70 62 64 61 64 59 58 61 63 50 41 54 63 55 56 55 65 71 62 56 57 50 53 56 55 53 50 47 41 38 34 21 18 7 4 3 0 0 0 0 0 0 0 0 0 0 0 0 0 0 0 0 0 0 0 0 0 0 0 0 0 0 0 0 0 0 0 0 0 0 0 0 0 0 0 0 0 0 0 0 1 6 11 18 28 35 40 47 47 51 58 64 70 67 65 61 65 59 59 62 66 55 52 63 59 52 58 56 69 61 56 60 57 52 56 57 56 53 51 48 47 38 29 20 15 11 12 9 6 4 0 0 0 0 0 0 0 0 0 0 0 0 0 0 0 0 0 0 0 0 0 0 0 0 0 0 0 0 0 0 0 0 0 0 0 0 0 0 0 0 0 0 5 7 11 17 27 36 41 48 51 52 58 66 71 67 66 67 62 61 59 64 66 58 63 57 59 50 56 61 68 62 60 63 58 53 54 60 57 55 50 50 43 33 25 19 18 18 16 15 15 8 7 0 0 0 0 0 0 0 0 0 0 0 0 0 0 0 0 0 0 0 0 0 0 0 0 0 0 0 0 0 0 0 0 0 0 0 0 0 0 0 0 1 6 6 10 16 25 35 45 50 51 53 57 69 71 65 67 68 67 59 61 66 65 62 55 58 55 45 60 68 67 67 62 61 57 54 57 61 60 55 49 47 36 31 24 19 24 22 16 16 12 9 3 0 0 0 0 0 0 0 0 0 0 0 0 0 0 0 0 0 0 0 0 0 0 0 0 0 0 0 0 0 0 0 0 0 0 0 0 0 0 0 0 4 9 10 14 20 26 37 47 52 52 53 58 70 72 69 62 70 71 59 64 62 66 59 51 53 47 54 64 69 69 70 63 57 60 59 62 62 60 54 46 40 36 29 23 24 25 22 14 13 9 3 0 0 0 0 0 0 0 0 0 0 0 0 0 0 0 0 0 0 0 0 0 0 0 0 0 0 0 0 0 0 0 0 0 0 0 0 0 0 0 0 0 8 13 17 19 24 24 35 42 49 53 57 62 67 76 73 61 71 71 63 61 62 71 57 48 49 50 62 67 71 73 67 63 60 62 60 67 62 56 52 45 38 35 30 30 30 27 21 13 10 0 0 0 0 0 0 0 0 0 0 0 0 0 0 0 0 0 0 0 0 0 0 0 0 0 0 0 0 0 0 0 0 0 0 0 0 0 0 0 0 0 0 5 8 17 18 20 24 23 29 37 42 53 58 62 69 74 77 63 69 72 68 54 64 66 59 45 51 58 59 68 78 71 64 67 65 62 68 69 61 55 49 43 33 40 35 31 29 21 17 5 7 0 0 0 0 0 0 2 0 0 0 0 2 3 6 2 0 0 0 0 0 0 0 0 0 0 0 0 0 0 0 0 0 0 0 0 0 0 0 5 0 0 0 6 11 15 19 21 25 24 26 33 41 56 63 66 67 73 77 71 60 75 68 52 61 63 62 48 52 53 59 72 77 69 67 72 67 67 70 67 62 53 49 40 38 42 34 27 31 21 5 0 0 0 0 4 10 4 3 3 1 0 0 0 0 6 7 4 0 0 0 0 0 0 0 0 0 0 0 0 0 0 0 0 0 0 0 0 0 0 0 1 5 4 6 6 7 13 19 25 29 29 30 37 44 57 63 67 69 75 77 77 57 77 61 57 56 59 61 57 45 50 63 77 73 68 77 72 68 70 70 67 62 51 52 43 45 36 37 25 22 6 0 0 0 7 0 9 13 7 3 0 2 1 0 0 0 2 5 5 2 0 0 0 0 0 0 0 0 0 0 0 0 0 0 0 0 0 1 0 0 0 0 0 0 1 0 9 5 4 10 22 27 31 35 40 45 53 62 67 71 75 77 76 60 69 63 56 53 53 55 53 40 56 69 75 65 79 78 73 71 72 73 68 60 51 52 44 41 33 35 18 9 4 0 0 5 17 6 7 6 3 0 0 0 0 0 0 0 0 2 2 6 0 0 0 0 0 0 0 0 0 0 0 0 0 0 0 0 0 0 0 0 0 0 0 0 0 0 0 0 3 8 17 22 28 31 42 47 55 60 69 70 72 78 72 68 60 67 53 45 54 52 37 44 62 72 59 72 81 80 70 74 75 74 67 60 54 51 43 43 37 26 8 9 5 2 0 14 13 0 0 0 0 0 0 0 0 0 0 0 0 0 1 7 4 1 0 4 0 2 3 2 0 0 0 0 0 0 0 0 0 0 0 0 0 0 0 0 0 0 0 0 0 7 9 20 24 27 35 41 55 60 67 69 69 76 70 74 59 64 57 36 53 50 34 52 66 63 58 82 80 77 71 76 77 76 67 61 57 51 42 43 29 14 9 20 17 13 4 11 12 0 0 0 0 0 0 0 0 0 0 0 0 0 1 9 9 9 2 6 2 6 9 7 4 0 0 0 0 0 0 0 0 0 0 0 0 0 0 0 0 0 0 0 0 0 0 13 21 29 31 32 45 54 66 68 69 78 67 74 63 60 59 38 44 48 45 54 63 54 67 79 75 75 73 78 75 74 68 58 58 50 39 38 18 20 30 26 29 21 13 3 2 0 0 0 0 0 0 0 0 0 0 0 2 0 1 8 9 9 5 5 3 3 8 13 10 2 0 0 0 0 0 0 0 0 0 0 0 0 0 0 0 0 0 4 0 0 0 0 14 32 39 32 46 49 62 68 68 73 68 71 66 59 57 40 33 38 49 51 52 52 72 74 69 76 75 76 76 73 66 59 57 47 37 33 25 40 47 31 26 29 11 0 0 0 0 0 0 0 0 0 0 0 0 9 7 3 6 7 6 7 7 6 5 4 9 11 12 5 0 2 0 0 0 0 0 0 0 0 0 0 0 0 0 0 0 0 0 0 0 0 7 23 37 34 41 44 56 68 70 71 71 67 62 54 54 41 23 32 49 48 40 58 67 64 70 75 74 73 76 74 66 58 55 45 38 47 45 51 48 47 37 20 13 7 15 0 0 0 0 0 0 0 0 1 7 15 7 5 7 8 8 5 9 3 5 3 9 12 13 10 3 6 6 6 5 0 0 0 4 0 0 0 0 0 0 0 0 0 0 2 9 14 17 13 21 31 46 43 54 67 68 67 69 61 57 49 48 40 19 24 48 41 42 60 57 63 74 73 72 75 77 75 65 59 55 49 46 54 58 61 55 48 36 24 26 27 23 19 13 10 6 6 7 5 8 16 18 22 19 14 7 5 13 3 8 7 8 1 7 12 14 15 5 11 14 13 9 4 5 15 15 9 0 5 1 0 0 0 0 2 0 4 8 18 13 12 15 24 40 52 55 66 65 66 69 51 52 47 36 34 15 17 45 35 49 58 44 64 73 71 74 73 80 76 65 60 57 55 54 55 55 60 53 42 47 47 42 45 40 35 33 31 25 23 22 19 34 34 29 25 19 15 11 6 10 6 7 10 13 6 7 7 11 16 14 10 18 16 11 12 15 19 21 23 18 21 16 12 12 5 6 6 3 10 9 20 20 26 28 22 30 46 54 58 61 67 71 43 45 44 30 27 15 12 38 39 47 46 41 63 64 72 73 75 79 74 65 61 60 57 56 57 56 58 50 47 53 54 52 51 52 46 44 43 41 35 37 36 40 38 29 18 17 16 18 13 13 5 8 15 14 9 13 12 10 12 21 19 23 21 14 16 21 22 24 26 27 30 26 21 25 23 13 10 17 13 6 19 31 44 46 34 27 46 55 58 62 66 70 38 38 32 31 17 16 3 42 41 47 32 48 59 60 68 75 75 75 72 66 61 60 59 59 58 55 58 52 58 58 58 56 53 50 51 49 50 47 40 39 39 38 28 23 30 24 26 24 23 18 12 14 15 13 12 14 18 18 16 23 25 29 25 21 22 27 29 35 31 33 33 29 24 29 27 22 22 25 22 18 22 32 45 45 42 30 40 50 56 58 63 68 35 33 23 30 15 11 0 41 41 35 28 52 56 63 65 75 72 73 71 66 60 58 56 60 57 59 60 57 57 56 56 53 54 55 52 53 50 41 35 30 34 37 28 37 39 36 34 28 26 21 21 21 16 13 15 17 19 20 21 25 24 27 29 27 27 31 28 36 34 35 39 31 27 28 29 30 28 31 31 30 27 33 40 42 41 39 41 48 52 57 57 65 38 26 20 21 15 9 0 37 25 36 19 51 53 56 63 70 69 73 70 65 61 56 57 59 59 60 59 59 58 57 57 55 54 54 47 46 42 37 36 41 41 43 36 39 41 39 38 33 27 24 27 23 21 17 19 21 17 18 25 24 21 26 31 33 28 32 31 34 34 36 38 37 36 30 30 30 31 30 34 36 35 36 39 39 45 45 47 50 48 53 54 59 45 18 10 16 12 11 0 29 19 21 16 53 48 54 61 62 70 73 67 64 61 57 55 59 61 60 57 59 59 55 53 53 50 47 46 44 44 42 42 45 44 44 39 37 39 35 36 36 30 23 26 21 18 18 17 15 12 15 23 25 24 24 30 32 30 31 31 35 38 40 40 37 36 34 32 33 31 30 33 34 36 35 42 44 45 48 45 46 45 52 51 56 46 12 11 7 11 9 0 30 13 0 24 46 52 44 61 56 68 70 65 61 61 54 55 56 60 58 54 58 55 52 49 47 48 44 44 43 43 42 42 40 43 45 38 36 32 23 25 33 29 20 20 21 16 14 12 2 0 8 18 28 27 22 26 32 32 30 33 32 36 34 36 40 37 34 28 29 29 29 32 30 31 37 40 42 47 44 44 46 43 48 48 50 43 16 13 0 8 10 2 28 0 0 22 46 53 32 49 54 69 67 62 59 57 53 54 56 58 54 56 51 53 49 49 45 45 42 40 40 41 39 39 37 41 46 36 33 24 18 24 34 24 17 15 18 14 15 12 0 0 0 15 29 29 19 24 29 32 32 33 34 31 34 36 34 34 31 29 28 27 25 28 28 30 32 37 41 44 43 43 50 41 42 45 43 40 17 3 0 0 12 6 17 0 0 21 45 45 19 39 48 68 66 58 57 53 52 54 54 56 54 53 49 49 48 48 42 43 41 38 36 35 34 36 34 35 38 35 27 19 17 27 33 24 20 15 15 13 12 13 2 0 0 13 26 25 21 23 24 29 28 30 33 28 33 30 29 29 28 25 27 25 24 26 25 29 32 36 41 40 38 45 52 39 40 43 44 35 11 0 0 1 11 12 15 5 1 17 41 27 11 29 42 68 63 56 53 50 49 51 53 54 50 52 46 46 44 42 41 38 37 36 33 30 31 30 27 30 34 33 24 20 24 30 23 18 19 13 11 5 9 11 8 0 0 5 21 14 16 21 20 21 22 25 27 31 27 26 26 23 25 22 24 24 21 23 23 28 30 34 39 38 37 43 51 40 36 45 37 27 5 0 0 5 6 12 20 1 1 16 24 15 7 18 43 63 60 52 48 47 48 49 52 51 51 49 47 44 41 41 37 35 34 32 28 27 23 23 19 23 31 34 21 20 24 23 13 14 13 10 7 1 6 7 7 6 4 4 12 8 7 15 13 13 14 17 22 27 23 23 18 20 21 20 23 22 19 20 22 25 31 33 35 38 36 44 50 43 35 40 29 19 0 0 0 8 0 9 4 0 1 8 12 11 0 16 36 56 57 51 44 42 46 48 49 48 48 46 44 43 40 39 35 33 31 27 25 22 18 15 17 21 27 25 15 15 14 12 10 9 3 0 3 0 0 2 0 0 0 1 0 0 0 0 0 6 8 14 17 21 17 18 13 15 15 17 18 15 17 16 18 23 29 31 32 36 35 39 48 44 33 35 20 16 0 0 0 7 2 3 0 0 1 0 3 1 0 12 26 51 55 51 41 38 43 45 47 46 44 45 43 41 39 36 33 31 26 23 21 16 12 11 13 22 17 18 15 11 8 7 4 5 0 0 0 0 0 0 0 0 0 0 0 0 0 0 0 0 2 9 13 15 9 12 11 8 12 13 15 11 16 16 16 23 27 29 32 36 32 32 41 41 35 28 19 10 0 0 0 3 2 6 0 0 0 0 0 0 0 0 26 47 52 51 40 35 39 41 43 42 42 41 41 39 36 33 29 27 21 18 13 10 5 8 12 14 10 8 7 0 2 4 0 0 0 0 0 0 0 0 0 0 0 0 0 0 0 0 0 0 0 0 3 7 5 7 9 5 6 11 10 10 14 18 16 23 25 29 28 35 27 32 34 34 33 23 18 4 0 0 0 0 4 6 0 2 0 0 0 0 0 0 36 43 47 47 41 36 38 39 40 40 41 37 39 36 32 29 24 23 17 14 7 5 2 8 8 3 0 1 0 0 0 1 0 0 0 0 0 0 0 0 0 0 0 0 0 0 0 0 0 0 0 0 0 0 0 0 2 0 1 5 4 6 12 17 16 21 25 29 28 32 27 31 31 29 27 25 21 0 1 0 0 1 3 3 9 3 0 0 0 0 0 0 38 40 46 44 39 35 35 38 39 39 40 36 35 34 30 27 23 17 12 7 4 1 0 6 4 0 0 0 0 0 0 0 0 0 0 0 0 0 0 0 0 0 0 0 0 0 0 0 0 0 0 0 0 0 0 0 0 0 0 0 0 2 5 14 17 19 25 29 31 26 27 30 28 24 27 33 17 0 4 0 0 10 7 0 15 6 0 0 0 0 0 0 31 41 42 43 37 34 33 36 36 35 38 32 32 30 26 25 19 14 8 3 1 1 0 0 2 0 0 0 0 0 0 0 0 0 0 0 0 0 0 0 0 0 0 0 0 0 0 0 0 0 0 0 0 0 0 0 0 0 0 0 0 0 3 11 14 19 23 29 31 26 25 29 23 24 29 36 15 0 0 0 1 17 8 2 19 1 3 0 0 0 0 0 21 41 38 42 38 35 31 33 34 34 33 29 29 25 22 19 14 10 6 0 0 2 0 0 0 0 0 0 0 0 0 0 0 0 0 0 0 0 0 0 0 0 0 0 0 0 0 0 0 0 0 0 0 0 0 0 0 0 0 0 0 0 0 6 10 18 20 24 27 25 24 27 22 24 33 28 14 3 3 0 10 17 11 8 5 7 0 0 0 0 0 2 12 37 38 38 38 35 31 31 31 31 29 28 25 25 21 17 10 8 3 0 1 2 0 0 0 0 0 0 0 0 0 0 0 0 0 0 0 0 0 0 0 0 0 0 0 0 0 0 0 0 0 0 0 0 0 0 0 0 0 0 0 0 0 2 9 13 15 20 21 23 23 23 23 26 29 23 13 0 4 4 12 13 11 14 3 10 0 0 0 0 0 0 5 25 41 36 37 38 30 27 31 28 28 26 25 21 19 12 7 2 0 1 1 2 0 0 0 0 0 0 0 0 0 0 0 0 0 0 0 0 0 0 0 0 0 0 0 0 0 0 0 0 0 0 0 0 0 0 0 0 0 0 0 0 0 0 4 7 13 14 19 21 20 20 20 26 19 15 7 0 12 16 13 8 13 20 13 18 0 0 0 0 0 0 2 14 34 37 37 36 34 28 30 27 26 27 24 19 16 10 6 0 0 4 0 1 1 0 0 0 0 0 4 0 0 0 0 0 0 0 0 0 0 0 0 0 0 0 0 0 0 0 0 0 0 0 0 0 0 0 0 0 0 0 0 0 0 0 0 3 8 10 14 19 18 18 19 25 5 7 7 16 19 21 7 2 27 27 28 26 0 0 0 0 0 0 13 17 27 34 38 35 34 30 27 26 26 26 21 20 11 9 4 0 1 3 1 2 1 1 0 0 0 0 0 2 0 0 3 0 0 0 0 0 0 0 0 0 0 0 0 0 0 0 0 0 0 0 0 0 0 0 0 0 0 0 0 0 0 0 0 0 5 6 11 13 14 16 18 17 0 10 17 26 26 18 0 9 31 30 33 29 4 4 8 0 0 0 18 24 33 31 36 38 35 33 27 27 27 24 20 15 11 9 3 0 4 4 2 5 1 0 0 0 0 0 2 5 0 3 7 8 0 0 0 0 0 0 0 0 0 0 0 0 0 0 0 0 0 0 0 0 0 0 0 0 0 0 0 0 0 0 0 0 0 5 9 10 13 17 18 12 8 14 24 30 25 8 7 16 30 29 32 20 12 8 8 0 0 0 19 22 25 27 37 40 34 36 29 27 28 25 20 14 12 10 0 1 6 7 9 9 0 0 1 0 0 0 5 2 0 15 15 18 10 4 0 0 0 0 0 0 0 0 0 0 0 0 0 0 0 0 0 0 0 0 0 0 0 0 0 0 0 0 0 0 0 3 8 6 13 15 14 22 16 19 26 37 10 3 18 19 28 26 45 12 15 17 0 5 11 5 28 22 20 25 38 40 37 37 32 29 28 25 19 16 12 12 1 7 8 8 13 7 0 0 0 0 0 4 13 6 4 24 22 17 8 2 1 0 0 0 0 0 3 0 0 0 0 0 0 0 0 0 0 0 0 0 0 0 0 0 0 0 0 0 0 0 0 4 8 7 14 14 14 25 14 22 29 32 5 7 24 14 27 27 45 19 16 25 7 0 7 5 25 22 20 29 33 41 39 37 35 30 28 26 21 17 14 10 4 13 12 10 11 3 0 0 0 0 0 10 14 12 8 25 19 10 6 1 6 0 0 0 0 0 0 0 0 0 0 0 0 0 0 0 0 0 0 0 0 0 0 0 0 0 0 0 0 0 0 5 8 11 16 15 20 24 17 28 30 25 10 15 17 7 29 28 45 30 19 31 29 8 0 5 20 26 28 31 36 37 38 38 37 34 31 27 24 23 18 10 17 17 13 16 8 0 0 0 0 0 1 7 8 6 2 20 14 3 2 0 0 0 0 0 0 0 0 0 0 0 0 0 0 0 0 0 0 0 0 0 0 0 0 0 0 0 0 0 0 0 1 5 11 15 16 20 23 26 23 30 28 27 22 17 5 12 27 32 47 39 24 23 26 16 0 8 16 28 34 35 37 37 39 38 39 38 35 27 30 24 21 13 24 15 19 14 4 0 1 0 0 7 0 0 4 1 0 12 0 0 0 0 0 0 0 0 0 0 0 0 0 0 0 0 0 0 0 0 0 0 0 0 0 0 0 0 0 0 0 4 5 9 6 8 14 16 18 22 31 27 22 26 30 29 23 3 3 18 27 37 30 41 36 19 19 20 0 2 8 34 40 40 39 42 37 40 37 42 38 32 35 27 26 19 26 17 22 11 0 0 1 0 0 7 0 0 2 0 0 0 0 0 0 0 0 0 0 0 0 0 0 0 0 0 0 0 0 0 0 0 0 0 0 0 0 0 0 0 0 6 2 10 11 11 12 13 18 17 21 27 37 28 26 27 25 30 10 0 7 22 31 39 14 33 39 31 17 13 5 0 0 34 45 45 40 38 39 41 38 44 41 37 39 33 29 24 25 23 22 11 10 4 0 0 5 11 0 10 3 0 0 0 0 0 0 0 0 0 0 0 0 0 0 0 0 0 0 0 0 0 0 0 0 0 0 0 0 0 0 0 0 4 2 11 18 14 16 20 19 20 27 33 40 29 30 23 23 13 5 0 11 28 33 37 24 30 35 34 27 14 4 0 0 22 47 49 37 29 45 37 40 43 43 41 40 39 32 26 24 27 30 17 13 0 0 0 11 12 0 5 0 0 0 0 0 0 0 0 0 0 0 3 0 0 10 0 0 0 0 0 0 0 0 0 0 0 0 0 0 0 0 0 0 0 1 9 20 18 19 24 23 24 32 38 45 25 23 18 11 8 5 7 16 30 33 30 39 36 31 34 32 23 2 0 0 2 32 38 26 19 43 39 40 43 43 45 40 42 35 30 24 30 34 26 12 0 0 0 0 1 0 0 0 0 0 0 0 0 0 0 0 0 0 8 1 0 6 0 4 2 0 0 0 0 0 0 0 0 0 0 0 0 0 0 0 0 0 12 18 22 24 30 26 29 34 44 41 15 14 10 11 9 7 14 18 31 30 22 47 39 33 33 33 32 21 0 0 0 21 22 16 11 35 42 41 41 43 45 44 45 36 32 27 34 31 26 22 16 12 1 0 0 0 0 0 0 0 0 0 0 0 0 0 0 0 0 0 0 0 0 0 0 0 0 0 0 0 0 0 1 0 0 0 0 0 0 0 0 0 12 15 25 27 32 32 32 34 37 33 7 13 11 14 14 11 16 21 27 21 20 50 44 40 34 32 36 31 20 0 0 8 8 5 5 27 46 42 41 41 45 44 46 37 29 28 31 32 37 35 29 22 20 7 0 0 0 0 0 0 0 0 0 0 0 0 0 0 0 0 0 0 0 0 0 0 0 0 0 1 2 0 1 0 0 0 3 0 5 15 0 1 8 17 27 27 32 36 34 34 31 27 5 15 13 17 14 14 22 17 20 21 21 36 48 42 37 33 37 39 30 8 0 0 0 2 10 19 49 42 42 42 45 48 45 39 29 27 32 39 48 42 37 36 28 24 15 20 9 13 2 10 0 0 0 0 0 0 0 0 0 0 0 0 0 0 0 0 0 0 0 0 0 0 0 0 0 0 7 4 15 14 3 4 11 22 27 28 34 38 39 34 35 19 8 17 15 18 14 20 16 9 21 19 23 25 37 43 38 37 33 40 34 11 6 0 5 4 15 10 47 43 41 43 45 49 47 39 31 32 37 43 48 43 39 39 29 33 28 44 29 29 23 18 9 4 1 0 0 0 0 0 0 0 0 0 0 0 0 0 0 0 0 2 2 0 0 0 0 0 13 6 13 8 7 15 18 26 27 31 36 40 39 38 31 14 13 13 17 19 13 16 10 17 18 17 26 32 24 32 38 31 33 28 26 16 19 6 8 9 25 11 36 48 41 39 46 48 47 39 33 35 42 44 47 42 42 36 29 32 30 37 31 36 33 31 20 16 18 10 8 9 5 7 8 5 4 0 4 0 0 0 0 0 0 5 0 0 0 0 0 0 6 1 1 9 17 17 20 27 27 34 37 40 40 37 25 18 13 8 16 13 8 12 12 17 15 19 25 35 30 20 28 32 24 22 14 15 15 21 18 19 23 22 27 48 41 36 42 47 45 40 34 38 41 43 42 40 38 34 29 36 28 32 28 28 28 25 24 17 19 13 12 4 5 7 5 2 2 1 10 1 6 6 4 3 3 8 7 4 0 0 0 0 2 7 8 14 20 20 22 28 30 36 38 40 41 34 22 22 8 5 9 7 12 12 12 15 17 24 24 28 26 17 18 20 22 16 13 8 3 22 23 29 28 24 20 45 41 34 34 44 43 35 36 33 38 39 41 36 34 33 31 36 26 28 26 23 24 23 15 12 13 10 5 0 0 0 0 0 1 0 0 0 4 4 0 3 8 9 9 8 1 0 1 4 6 11 14 19 21 22 23 28 31 35 38 39 38 27 26 19 3 9 5 9 14 11 11 13 20 24 21 0 13 12 8 11 12 7 3 11 0 9 16 27 25 24 21 35 44 37 31 35 40 35 34 32 36 36 36 32 31 33 31 33 27 23 23 18 17 13 6 10 8 2 2 0 0 0 0 0 0 0 0 0 0 0 0 0 0 2 5 5 2 6 5 6 5 14 17 17 20 22 26 29 34 35 38 41 30 27 23 9 3 9 9 8 12 12 11 16 22 21 16 0 0 2 6 1 2 3 0 0 0 0 7 19 18 27 23 27 38 40 33 30 37 37 34 31 35 33 30 27 27 28 30 30 24 21 20 16 14 13 5 3 0 0 0 0 0 0 0 0 0 0 0 0 0 0 0 0 0 0 0 0 1 3 4 2 5 11 14 19 21 24 29 30 35 32 38 39 21 23 16 5 6 12 11 8 12 12 13 18 23 16 14 0 0 0 0 0 0 0 1 0 0 0 0 8 17 19 22 22 27 40 32 29 34 35 33 36 35 35 30 27 26 28 31 27 19 18 15 14 11 11 2 0 0 0 0 0 0 0 0 0 0 0 0 0 0 0 0 0 0 0 0 0 2 1 4 5 6 8 14 17 22 28 28 32 33 31 34 26 19 21 7 2 7 14 4 8 18 13 12 17 17 14 17 0 0 0 0 0 0 0 0 0 0 0 0 4 6 11 17 19 20 30 35 28 32 34 34 35 35 34 31 29 29 29 29 26 18 16 12 14 8 6 0 0 0 0 0 0 0 0 0 0 0 0 0 0 0 0 0 0 0 0 0 0 4 1 5 7 7 10 14 19 25 29 32 34 30 31 23 13 20 17 0 4 11 10 2 15 17 8 15 14 14 12 19 0 0 0 0 0 0 0 0 0 0 0 0 3 4 0 13 17 15 22 26 31 28 35 35 35 37 34 31 31 30 28 29 26 20 18 16 13 9 6 2 0 0 0 0 0 0 0 0 0 0 0 0 0 0 0 0 0 0 0 0 2 4 6 7 9 10 14 15 22 26 30 35 30 28 25 9 12 21 3 0 6 12 4 11 18 6 11 11 11 12 14 19 0 0 0 0 0 0 0 0 0 0 0 0 0 8 0 5 15 16 17 24 25 34 31 33 32 36 33 34 33 32 31 32 26 22 23 20 17 14 12 8 3 2 1 0 0 0 0 0 0 0 0 0 0 0 0 0 0 0 0 0 4 7 10 11 10 13 13 20 24 25 32 34 22 24 11 8 15 12 0 1 9 9 3 13 4 7 7 8 10 11 13 8 0 0 0 0 0 0 0 0 0 0 0 0 0 2 1 0 19 25 19 24 23 33 34 33 29 32 32 37 35 33 33 32 27 26 28 24 20 20 16 12 8 8 11 5 8 4 1 0 0 0 0 0 0 0 0 0 0 0 4 4 6 11 12 15 12 15 17 22 29 29 32 26 20 10 0 10 15 0 0 3 11 6 4 4 4 6 5 7 7 6 4 0 0 0 0 0 0 0 0 0 0 0 0 0 0 0 2 2 17 31 28 27 24 29 34 32 29 31 32 35 36 35 32 31 29 32 27 26 23 20 18 17 13 14 13 13 10 8 9 4 2 0 1 2 0 1 2 0 2 2 6 10 10 11 14 16 14 18 19 25 28 29 29 18 17 0 0 9 3 0 0 6 5 0 0 1 0 0 7 6 0 0 3 0 0 0 0 0 0 0 0 0 0 0 0 0 0 0 0 10 25 36 31 31 30 25 32 27 28 29 32 33 34 34 31 30 29 28 25 25 22 19 17 15 11 13 10 8 5 4 5 4 0 2 3 3 3 2 6 2 4 7 8 12 13 13 16 17 16 17 23 25 27 29 23 13 8 0 0 0 0 0 0 1 0 0 0 0 0 0 0 0 0 0 0 0 0 0 0 0 0 0 0 0 0 0 0 0 0 0 0 6 35 46 34 32 30 30 25 27 25 25 28 31 30 27 28 27 28 25 23 22 20 16 15 12 10 8 8 4 4 2 3 3 0 1 1 2 3 4 5 4 5 7 8 12 13 15 16 15 15 17 21 24 25 25 18 10 4 0 0 0 0 0 0 0 0 0 0 0 0 0 0 0 0 0 0 0 0 0 0 0 0 0 0 0 0 0 0 0 0 0 0 8 37 57 46 30 26 28 30 26 27 25 24 25 25 24 23 23 24 22 17 18 16 11 13 6 6 6 3 4 1 0 0 0 0 0 0 2 2 4 5 6 6 8 8 10 11 13 15 14 15 17 18 21 19 20 11 7 0 0 0 0 0 0 0 0 0 0 0 0 0 0 0 0 0 0 0 0 0 0 0 0 0 0 0 0 0 0 0 0 0 3 1 7 37 61 58 39 28 29 31 35 28 27 25 23 23 23 23 20 21 16 13 12 12 7 7 1 1 2 0 0 0 0 0 0 0 0 0 0 0 0 1 6 4 7 10 9 11 11 12 14 17 17 17 15 12 19 6 3 0 0 0 0 0 0 0 0 0 0 0 0 0 0 0 0 0 0 0 0 0 0 0 0 0 0 0 0 0 0 0 0 0 7 0 4 37 62 58 54 34 31 30 38 36 28 26 24 21 23 20 21 17 12 9 6 3 0 0 0 0 0 0 0 0 0 0 0 0 0 0 0 0 0 0 3 3 4 9 7 10 9 11 15 17 16 12 8 12 18 0 0 0 0 0 0 0 0 0 0 0 0 0 0 0 0 0 0 0 0 0 0 0 0 0 0 0 0 0 0 0 0 0 0 0 8 0 2 34 61 60 54 51 41 33 35 40 34 26 27 23 19 21 18 13 11 4 2 1 0 0 0 0 0 0 0 0 0 0 0 0 0 0 0 0 0 0 0 0 3 6 6 6 6 12 16 12 6 8 13 14 12 0 0 0 0 0 0 0 0 0 0 0 0 0 0 0 0 0 0 0 0 0 0 0 0 0 0 0 0 0 0 0 0 0 0 0 6 0 0 33 55 57 54 50 50 41 36 35 36 32 28 23 18 18 18 11 9 6 1 0 0 0 0 0 0 0 0 0 0 0 0 0 0 0 0 0 0 0 0 0 0 2 4 5 6 11 13 2 5 11 13 7 0 0 0 0 0 0 0 0 0 0 0 0 0 0 0 0 0 0 0 0 0 0 0 0 0 0 0 0 0 0 0 0 0 0 0 0 0 0 0 28 53 54 53 52 49 48 40 37 35 31 33 28 19 19 18 12 12 7 2 1 0 0 0 0 0 0 0 0 0 0 0 0 0 0 0 0 0 0 0 0 0 1 3 5 6 12 13 0 6 12 9 0 0 0 0 0 0 0 0 0 0 0 0 0 0 0 0 0 0 0 0 0 0 0 0 0 0 0 0 0 0 0 0 0 0 0 0 0 0 0 0 23 53 53 50 53 48 48 44 40 35 34 32 32 24 20 20 15 14 7 4 0 0 0 0 0 0 0 0 0 0 0 0 0 0 0 0 0 0 0 0 0 0 0 5 6 8 13 7 1 6 11 5 0 0 0 0 0 0 0 0 0 0 0 0 0 0 0 0 0 0 0 0 0 0 0 0 0 0 0 0 0 0 0 0 0 0 0 0 0 0 0 0 18 46 50 44 49 51 46 47 41 35 36 37 33 28 27 22 22 19 14 6 0 0 0 0 0 0 0 0 0 0 0 0 0 0 0 0 0 0 0 0 0 0 4 5 8 9 9 4 0 7 9 1 0 0 0 0 0 0 0 0 0 0 0 0 0 0 0 0 0 0 0 0 0 0 0 0 0 0 0 0 0 0 0 0 0 0 0 0 0 0 0 0 15 44 45 44 47 48 49 45 44 38 37 39 35 36 32 29 25 21 20 15 7 0 0 0 0 0 0 0 0 0 0 0 0 0 0 0 0 0 0 0 2 5 9 6 7 5 7 1 0 5 4 0 0 0 0 0 0 0 0 0 0 0 0 0 0 0 0 0 0 0 0 0 0 0 0 0 0 0 0 0 0 0 0 0 0 0 0 0 0 0 0 0 12 39 39 40 44 45 46 44 42 38 35 42 36 39 35 37 36 27 21 17 17 13 2 0 0 0 0 0 0 0 0 0 0 0 0 0 0 0 3 7 8 12 11 5 3 2 4 0 0 2 3 0 0 0 0 0 0 0 0 0 0 0 0 0 0 0 0 0 0 0 0 0 0 0 0 0 0 0 0 0 0 0 0 0 0 0 0 0 0 0 0 0 14 36 35 39 39 41 42 39 40 37 36 37 41 43 40 42 42 38 29 23 23 21 13 6 2 1 0 0 0 0 0 0 0 0 0 0 4 7 15 14 15 11 11 3 0 0 8 0 0 0 0 0 0 0 0 0 0 0 0 0 0 0 0 0 0 0 0 0 0 0 0 0 0 0 0 0 0 0 0 0 0 0 0 0 0 0 0 0 0 0 0 0 20 31 31 35 39 39 37 39 38 38 33 33 36 42 46 49 52 41 42 34 32 28 16 8 9 11 4 4 3 0 0 0 0 0 1 2 5 15 19 16 15 9 7 2 0 0 2 0 0 0 0 0 0 0 0 0 0 0 0 0 0 0 0 0 0 0 0 0 0 0 0 0 0 0 0 0 0 0 0 0 0 0 0 0 0 0 0 0 0 0 0 1 20 29 27 33 38 37 32 35 35 37 30 30 32 38 43 47 54 53 44 38 35 28 18 10 11 10 1 4 2 0 0 0 0 0 2 0 5 19 17 15 15 9 4 2 0 2 0 0 0 0 0 0 0 0 0 0 0 0 0 0 0 0 0 0 0 0 0 0 0 0 0 0 0 0 0 0 