P2
92
112
255
0 2 3 2 4 6 13 9 6 9 11 4 9 6 6 7 7 6 10 14 19 25 28 31 34 37 39 40 34 31 33 29 17 13 18 27 28 28 26 26 29 27 28 28 31 29 31 22 22 31 40 38 37 37 39 40 44 47 54 52 49 50 53 52 48 53 55 49 50 49 52 53 50 44 42 46 46 39 41 40 41 39 44 43 41 39 41 42 37 43 36 31 1 1 1 2 4 8 10 7 6 11 10 5 3 8 10 12 8 12 16 24 25 32 36 39 42 42 41 39 34 31 31 26 19 18 24 28 27 23 21 21 16 12 16 16 22 25 26 21 19 20 29 36 37 35 35 43 47 47 48 52 47 45 49 52 50 48 53 54 50 53 51 52 51 49 42 38 44 42 37 43 40 37 39 41 41 40 40 43 35 39 42 36 1 3 1 3 5 6 3 7 11 7 7 5 8 5 9 10 11 17 22 24 29 34 36 39 38 37 37 35 32 29 28 24 20 22 24 24 21 19 12 12 8 5 8 9 11 17 15 14 15 18 20 24 27 31 31 36 42 47 49 49 55 53 47 48 49 47 47 51 51 49 52 53 51 48 46 38 38 41 41 35 38 36 37 38 37 39 39 40 40 35 40 39 0 4 0 0 6 5 1 7 11 10 9 8 9 8 8 12 17 23 25 27 31 36 39 40 35 33 35 32 29 29 23 18 16 19 24 22 19 16 15 16 11 8 9 9 8 9 8 15 19 18 20 21 18 28 28 28 32 38 46 51 50 51 48 48 46 50 49 44 46 47 48 50 51 56 47 44 38 37 40 38 35 37 32 33 35 38 38 39 38 35 34 37 0 2 1 0 0 5 5 6 8 10 11 7 10 13 14 18 20 25 30 35 37 37 37 38 36 34 31 33 29 26 19 17 12 16 18 16 17 17 19 16 15 15 13 13 8 4 6 9 12 18 17 21 17 21 26 24 28 35 40 44 44 45 50 48 45 49 54 51 42 43 48 49 47 51 56 50 45 37 36 38 35 33 36 31 30 32 39 37 40 36 31 33 0 0 1 0 0 0 7 7 5 6 10 9 11 14 18 20 25 28 33 39 38 39 41 41 36 37 32 31 27 19 14 10 10 8 10 10 11 12 16 15 15 20 17 17 14 9 7 6 6 11 14 16 15 16 20 20 27 30 32 37 37 38 41 48 45 38 41 48 51 41 41 44 47 43 48 49 49 46 37 36 37 31 30 33 32 29 32 35 35 39 33 29 3 1 2 1 0 0 4 8 9 9 9 13 13 16 17 23 25 29 38 42 41 44 39 33 33 31 28 23 19 12 7 5 5 5 8 6 6 7 10 11 11 14 13 14 14 11 10 9 3 5 9 11 12 13 20 18 21 26 30 34 36 37 31 38 43 38 34 41 46 45 37 36 41 44 45 47 42 41 42 37 33 35 29 28 30 30 27 31 33 36 36 29 2 0 2 2 0 0 2 9 10 14 12 16 20 21 24 31 33 35 37 41 41 44 39 36 32 27 25 23 15 11 6 5 0 0 1 2 2 1 5 7 8 7 9 14 12 7 8 9 1 5 11 7 10 11 14 14 17 19 27 38 37 37 34 38 41 41 37 30 33 44 42 38 33 35 39 40 43 39 37 34 31 27 33 30 26 30 26 23 30 31 36 31 1 1 3 0 0 0 3 7 11 14 18 17 21 28 33 36 37 39 38 42 41 41 39 35 31 26 26 21 15 9 5 1 0 0 0 0 0 0 0 3 8 13 9 13 13 10 6 4 0 0 5 6 5 4 12 15 18 16 22 38 39 42 39 37 39 40 39 33 28 37 45 43 34 30 35 33 34 37 37 34 30 26 24 26 27 26 30 25 22 28 30 34 0 2 0 0 0 1 5 8 14 18 19 22 27 32 34 40 41 44 40 42 42 38 35 35 30 23 22 19 14 8 1 0 0 0 0 0 1 2 3 5 7 10 9 12 15 15 10 6 1 0 0 2 1 0 6 14 16 14 18 30 33 34 37 29 32 36 40 38 29 26 28 38 41 38 32 33 27 28 29 29 26 24 24 20 19 22 24 28 22 23 29 27 1 1 0 0 1 8 9 11 17 21 22 30 33 32 39 43 44 45 41 40 40 39 36 36 33 27 22 19 14 6 1 0 1 1 3 4 5 7 6 8 11 10 9 10 16 17 16 12 8 3 0 1 0 0 5 10 9 11 15 24 28 27 33 28 29 36 37 32 30 29 24 29 40 45 36 32 31 28 30 25 23 23 24 18 14 19 20 20 24 19 27 27 3 1 1 4 5 8 13 14 20 21 28 31 33 37 39 40 45 41 40 41 39 39 37 38 33 31 25 20 17 11 6 6 5 6 10 9 8 8 10 9 10 11 10 11 13 15 15 12 9 8 8 4 0 0 3 8 3 9 12 20 24 23 24 26 21 29 32 27 21 21 19 19 26 39 42 34 33 23 28 27 23 19 18 18 14 13 17 15 19 20 20 27 2 4 3 4 6 13 15 19 21 27 32 33 37 38 39 41 39 39 40 39 38 40 38 38 34 34 31 25 20 17 17 15 14 15 16 13 13 14 12 13 11 15 16 16 19 19 18 18 12 9 10 9 6 2 7 7 0 1 11 14 20 17 18 21 22 21 28 28 25 19 15 10 8 16 32 37 35 31 21 25 22 22 15 15 15 9 14 15 11 17 18 24 5 3 6 5 8 17 19 22 24 30 32 35 37 39 38 37 39 38 39 41 41 39 37 34 33 32 33 28 22 23 25 22 19 19 20 16 15 17 15 18 21 20 22 23 24 23 23 23 19 15 13 13 11 9 7 9 0 2 8 11 12 12 15 17 16 19 23 23 23 20 15 9 6 6 15 26 31 31 28 26 21 20 20 12 11 11 6 15 12 11 12 24 3 3 8 10 13 21 19 24 29 32 33 38 41 38 37 35 36 36 35 39 41 37 35 32 29 31 32 28 25 29 31 27 24 24 22 20 21 21 23 25 29 27 27 29 29 26 23 25 25 22 19 20 18 15 13 10 5 4 8 14 15 11 19 15 10 10 18 16 18 19 19 16 7 6 3 14 24 22 25 19 23 17 18 19 12 12 8 6 13 10 6 18 4 6 12 14 17 22 20 22 30 34 31 39 38 37 33 33 33 33 33 36 36 35 30 29 28 28 29 26 27 31 30 29 27 26 27 25 24 27 30 28 32 35 32 31 30 27 26 26 25 21 19 19 21 15 12 9 6 4 6 12 13 7 14 13 5 5 10 15 13 13 16 16 7 3 0 3 15 18 20 16 18 19 11 15 12 12 14 5 5 12 7 10 5 9 14 14 20 20 21 26 29 34 34 35 35 33 29 30 31 31 30 32 33 33 29 27 28 29 25 26 29 31 34 33 32 32 29 27 29 32 33 34 34 36 38 35 33 34 30 27 30 27 23 20 19 15 9 4 3 0 1 11 10 4 8 13 4 4 8 12 13 8 6 9 12 7 4 2 6 15 21 17 9 19 15 8 5 8 10 10 6 8 10 6 8 9 15 18 22 22 26 29 32 32 34 34 35 30 28 28 29 27 26 27 28 27 28 27 26 28 27 29 32 33 33 37 36 35 31 31 32 33 36 36 37 39 38 38 35 36 36 34 33 32 27 24 24 18 13 7 0 0 0 6 2 0 0 3 0 0 6 14 12 8 4 5 9 10 5 7 1 6 19 20 10 11 20 11 2 2 7 7 9 5 7 2 6 9 12 20 23 25 27 31 32 30 34 32 33 26 27 27 25 23 20 25 25 23 25 25 25 28 30 33 35 35 35 36 36 34 33 33 36 35 37 39 41 41 41 42 39 41 44 43 39 37 37 34 34 26 17 8 1 0 2 2 0 0 0 0 0 0 0 5 10 6 1 1 6 7 7 9 4 2 6 18 14 7 15 13 5 0 0 4 5 6 4 1 7 7 17 22 26 26 29 30 30 30 30 30 27 25 25 24 20 19 20 22 24 24 23 24 25 28 31 34 36 36 35 37 35 34 34 35 37 36 41 42 44 46 45 46 45 46 46 43 41 40 41 38 36 29 23 16 9 6 3 0 0 0 0 0 0 0 0 0 3 2 3 0 0 3 4 6 5 5 1 6 14 8 5 11 9 2 0 0 2 2 4 1 11 12 21 23 28 28 28 30 29 28 29 27 27 26 26 23 20 18 20 19 22 22 23 24 27 29 32 37 38 37 36 36 34 34 34 35 36 39 40 43 46 45 47 48 48 46 46 44 42 41 42 38 34 32 29 25 16 11 4 0 0 0 0 0 0 0 0 0 0 0 0 0 0 0 2 4 2 6 1 0 8 13 6 7 8 2 0 0 0 0 2 1 14 15 18 27 27 29 30 32 29 25 28 25 25 25 22 21 20 18 15 16 18 19 20 25 25 28 33 35 38 40 35 33 33 34 35 35 37 38 40 42 46 47 48 47 46 44 44 42 41 41 40 38 34 34 32 27 17 15 11 3 0 0 0 0 0 0 0 0 1 0 0 0 0 0 0 1 2 6 6 3 4 12 13 6 8 0 2 0 0 1 1 0 13 19 18 23 29 30 32 32 28 26 28 25 24 21 19 17 17 14 10 13 16 16 17 25 24 26 32 36 39 39 36 35 34 34 36 37 38 39 39 44 46 47 47 45 44 43 40 39 39 38 39 37 33 32 29 24 20 14 12 3 0 0 0 0 0 0 0 0 0 0 0 0 0 0 2 0 1 7 9 9 8 10 14 12 9 1 0 1 0 0 0 1 11 15 18 21 29 29 28 27 26 28 25 25 22 16 19 16 12 10 9 12 14 13 19 24 25 25 31 34 35 35 36 35 35 34 35 37 38 40 39 42 43 44 45 43 41 39 37 37 35 35 33 32 29 27 27 23 17 13 11 7 0 0 0 0 0 0 0 0 0 0 0 0 0 0 0 7 4 5 12 12 12 12 14 15 12 8 0 3 0 0 0 4 9 16 21 22 31 28 25 24 29 28 26 23 19 17 15 11 9 9 11 11 15 15 21 25 26 26 29 31 33 33 34 33 34 35 34 36 38 37 39 40 41 41 41 40 38 37 33 33 32 31 28 27 25 25 28 20 16 15 15 11 5 1 0 0 0 0 0 0 0 0 0 0 0 0 0 6 7 7 9 14 14 14 15 13 12 12 1 0 2 2 0 3 12 22 21 23 28 25 24 21 22 23 22 20 17 15 11 10 10 8 10 13 16 19 22 24 26 26 27 31 30 30 31 31 31 31 33 34 35 36 36 38 38 37 39 37 36 32 30 28 26 27 25 23 22 23 24 21 18 16 14 10 8 4 0 0 0 0 0 0 0 1 0 0 0 0 0 0 8 7 10 11 12 15 14 14 13 10 8 0 5 2 10 5 13 26 28 24 30 29 23 21 21 23 19 19 16 13 10 10 9 10 11 15 17 20 23 24 25 25 28 27 27 28 29 28 28 29 30 30 32 32 34 34 34 34 36 35 34 30 27 27 25 22 22 19 21 22 22 19 17 15 14 9 6 3 0 0 0 0 0 0 0 0 0 0 0 0 0 1 6 9 13 10 14 11 14 13 16 10 10 0 3 5 9 11 15 25 27 17 26 29 23 18 20 20 17 15 14 11 10 10 10 11 13 17 18 21 21 22 24 24 25 25 24 25 26 25 25 26 28 27 28 28 29 30 30 31 31 32 31 31 26 24 22 20 17 18 19 19 20 18 14 15 14 9 6 4 0 0 0 0 0 0 0 0 0 0 0 0 2 3 5 7 10 14 14 11 12 16 16 17 5 4 6 7 9 10 16 22 27 19 25 29 25 20 21 20 16 14 13 11 10 12 14 15 15 17 18 19 22 22 23 23 22 22 22 22 22 23 22 23 25 23 25 26 27 27 28 27 28 28 29 27 25 22 20 18 17 16 18 17 18 14 13 13 12 10 6 4 0 0 0 0 0 0 0 0 0 0 0 0 0 6 7 11 9 14 15 14 14 17 18 19 5 4 10 7 9 9 15 19 19 13 17 20 22 20 23 18 18 17 15 13 12 13 17 18 18 18 18 21 23 21 22 22 22 22 21 21 20 21 20 22 22 22 22 21 24 23 24 24 25 25 25 25 23 21 19 16 14 15 14 15 14 11 11 12 11 10 7 3 0 0 0 0 0 0 0 0 0 0 0 0 0 6 8 11 15 14 15 18 14 13 16 15 6 9 9 9 4 8 12 12 10 5 14 15 14 19 21 18 16 16 14 13 12 14 18 19 18 21 21 21 20 22 20 20 22 21 20 18 20 19 19 19 20 19 19 19 20 20 20 22 21 22 23 21 21 20 17 13 12 12 12 13 11 9 8 8 7 6 6 5 0 0 0 0 0 0 0 0 0 0 0 0 0 0 8 10 17 15 16 17 14 10 15 14 10 9 9 9 6 12 10 9 6 0 10 12 8 14 17 12 11 15 15 13 14 17 19 20 21 19 20 20 18 21 21 20 22 20 19 18 19 18 18 18 18 17 18 19 19 18 18 19 18 19 20 18 18 15 14 11 10 10 10 10 7 7 8 9 7 8 7 10 4 1 0 0 0 0 0 0 2 1 0 0 0 0 6 7 13 17 15 19 15 12 16 15 12 11 9 9 11 12 8 8 0 0 7 8 2 8 11 9 8 14 14 15 16 17 19 19 21 19 19 19 18 20 21 20 22 21 20 19 18 18 19 18 18 16 17 17 17 16 16 18 17 16 16 14 12 12 11 10 12 12 12 12 10 8 11 11 10 9 11 14 11 6 5 0 0 0 0 0 3 3 0 0 0 0 1 6 9 15 15 15 16 14 19 18 12 12 13 11 11 11 12 8 2 0 5 3 0 5 10 10 8 11 13 16 15 19 20 19 20 18 18 18 20 20 21 21 23 21 22 20 18 18 18 18 18 17 18 16 16 15 14 13 14 13 12 11 9 10 12 14 15 17 17 16 14 14 11 12 11 12 15 16 15 9 6 4 0 0 0 2 4 4 0 0 0 1 3 4 10 14 18 13 15 18 16 21 13 11 15 17 12 11 11 7 0 0 1 3 0 3 11 11 11 11 17 16 18 19 21 18 18 18 19 18 19 21 22 22 21 20 19 18 16 16 16 19 17 18 18 18 15 13 11 9 8 6 7 8 8 12 14 15 15 16 14 14 13 13 13 13 14 15 17 18 16 13 7 3 0 0 0 2 5 5 0 0 0 4 5 3 10 14 19 15 15 14 18 17 17 14 11 12 17 15 17 10 0 0 0 6 0 3 13 13 14 16 18 20 20 20 20 18 15 18 19 19 17 18 21 20 19 18 17 16 15 15 17 17 18 16 18 15 12 8 7 6 5 5 7 8 10 11 13 11 11 11 10 10 11 12 13 12 14 16 15 14 15 11 6 3 0 0 1 2 5 4 1 0 1 3 5 9 8 12 16 18 14 15 18 20 20 19 8 7 16 13 18 11 0 0 0 6 1 2 14 16 15 16 19 20 19 20 20 17 16 18 17 16 17 16 16 15 16 15 15 15 14 14 15 14 14 16 14 10 8 5 4 2 4 6 8 8 8 8 8 7 5 5 7 5 6 10 10 8 9 12 14 13 14 12 6 4 0 0 0 2 5 4 0 0 0 3 3 9 10 10 15 18 15 16 19 23 21 23 13 5 8 7 22 15 0 0 2 4 0 3 15 15 15 15 16 17 17 14 17 14 16 15 15 15 14 15 13 11 11 11 13 13 13 13 13 12 11 11 8 6 4 4 0 2 4 5 5 4 4 3 2 1 0 0 3 4 4 9 10 10 10 14 14 14 14 13 12 7 3 0 0 0 2 3 2 0 3 2 7 10 12 12 15 18 14 16 22 24 23 23 20 8 2 7 21 16 5 0 0 2 3 4 17 18 17 14 14 15 11 10 8 8 11 13 14 14 13 11 11 11 12 12 12 13 12 14 14 12 11 9 6 2 0 0 0 0 0 0 0 0 0 0 0 0 0 1 3 5 4 6 6 8 10 14 15 12 11 12 10 7 5 1 0 0 2 2 1 3 1 3 7 10 11 16 14 15 14 13 22 27 25 23 24 7 0 3 22 18 6 0 0 0 6 14 22 22 21 16 11 6 4 3 0 1 2 3 4 6 9 6 5 6 7 7 7 9 10 10 12 14 14 11 8 6 1 0 0 0 0 0 0 0 0 0 0 0 0 0 0 1 2 4 5 3 5 8 12 10 10 12 9 7 7 2 0 0 1 3 2 5 4 8 12 12 13 17 18 19 14 13 19 27 28 22 20 7 3 2 23 16 3 0 0 0 10 17 24 28 26 16 9 2 0 0 0 0 0 0 0 0 1 1 1 1 3 3 2 4 4 6 7 9 11 8 8 6 5 0 0 0 0 0 0 0 0 0 0 0 0 0 0 0 0 0 0 2 3 5 9 10 8 8 6 7 6 6 0 0 1 3 5 5 8 9 14 15 15 20 19 18 17 19 23 24 30 23 17 12 4 5 20 14 4 0 0 0 13 22 30 33 30 20 11 3 0 0 0 0 0 0 0 0 0 0 0 0 1 2 0 1 1 3 1 1 3 2 2 2 2 0 0 0 0 0 0 0 0 0 0 0 0 0 0 0 0 0 0 0 0 4 5 5 6 6 6 7 7 8 5 2 5 4 6 7 10 12 17 18 19 23 24 18 21 25 23 26 26 25 18 10 4 4 17 10 7 0 0 0 13 26 34 35 30 23 11 0 0 0 0 0 0 0 0 0 0 0 0 0 1 0 0 0 0 0 1 0 1 0 0 0 0 0 0 0 0 0 0 0 0 0 0 0 0 0 0 0 0 0 0 0 0 2 5 8 9 10 11 10 11 11 10 4 7 5 7 9 13 14 19 21 22 26 26 24 25 26 24 27 26 23 14 5 1 4 11 8 7 0 0 0 12 29 34 33 26 18 9 0 0 0 0 0 0 0 0 0 0 0 0 0 1 0 0 0 0 0 0 0 0 0 0 0 0 0 0 0 0 0 0 0 0 0 0 0 0 0 0 0 0 0 4 2 0 2 7 12 14 14 15 13 15 16 14 8 8 9 7 12 13 17 20 25 26 27 28 27 29 32 28 28 27 21 8 3 7 11 10 7 2 0 0 2 8 30 33 27 19 12 5 0 0 0 0 0 0 0 0 0 0 0 0 0 0 0 0 0 0 0 0 0 0 0 0 0 0 0 0 0 0 0 0 0 0 0 0 0 0 0 0 0 0 0 1 2 2 7 9 10 16 16 16 15 16 17 16 14 11 13 11 11 15 17 21 25 27 28 29 30 34 36 32 30 27 16 4 7 7 6 5 4 1 0 1 3 8 27 30 20 13 3 0 0 0 0 0 0 0 0 0 0 0 0 0 0 0 0 0 0 0 0 0 0 0 0 0 0 0 0 0 0 0 0 0 0 0 0 0 0 0 0 0 0 0 0 0 0 1 4 11 12 15 17 17 16 17 16 17 17 14 13 12 13 14 15 19 20 23 26 27 32 37 37 30 28 24 19 1 2 7 9 4 2 1 2 2 5 8 23 25 15 4 0 0 0 0 0 0 0 0 0 0 0 0 0 0 0 0 0 0 0 0 0 0 0 0 0 0 0 0 0 0 0 0 0 0 0 0 0 0 0 0 0 0 0 0 0 0 0 0 2 5 7 12 13 15 17 16 16 17 17 16 13 12 13 12 12 12 15 16 19 24 29 36 35 28 28 25 15 0 5 11 15 6 2 0 6 2 4 10 19 22 12 3 0 0 0 0 0 0 0 0 0 0 0 0 0 0 0 0 0 0 0 0 0 7 0 0 0 0 0 0 0 0 0 0 0 0 0 0 0 0 0 0 0 0 0 0 0 0 0 0 3 0 1 4 12 15 17 16 13 13 14 14 9 11 8 7 6 4 8 10 16 19 25 32 34 29 26 20 11 3 10 14 20 10 3 2 4 2 7 8 18 21 12 2 0 0 0 0 0 0 0 0 0 0 0 0 0 0 0 0 0 0 0 0 0 0 0 0 0 0 0 0 0 0 0 0 0 0 0 0 0 0 0 0 0 0 0 0 0 0 0 0 3 2 1 1 4 12 14 15 10 8 9 5 6 5 4 2 1 0 3 10 15 22 27 31 34 31 24 17 12 10 11 18 21 13 5 4 4 4 8 8 20 20 14 3 0 0 0 0 0 0 0 0 0 0 0 0 0 0 0 0 0 0 0 0 0 0 0 0 6 3 0 0 0 0 0 0 0 0 0 0 0 0 0 0 0 0 0 0 0 0 0 0 3 5 1 0 3 5 7 5 5 5 2 2 0 1 1 3 1 2 7 13 19 28 30 31 36 36 28 20 17 14 13 19 21 14 8 5 7 5 5 11 20 19 13 4 0 3 4 0 0 0 0 0 0 0 0 0 0 0 0 0 0 0 0 0 0 0 0 0 6 9 2 0 0 0 0 0 0 0 0 0 0 0 0 0 0 0 0 0 0 0 0 2 0 0 0 0 0 0 0 0 0 1 0 0 0 0 3 4 3 4 9 12 18 25 30 32 39 38 27 21 17 17 17 17 16 12 8 2 3 3 3 12 22 19 14 8 6 3 5 0 0 0 0 0 0 0 0 0 0 0 0 0 0 0 0 0 0 0 3 7 2 6 9 0 0 0 0 0 0 0 0 0 0 0 0 0 2 7 0 0 0 3 9 1 0 0 0 0 0 0 0 0 0 0 0 0 4 3 5 4 4 0 3 8 13 19 26 28 37 35 24 20 15 16 18 13 14 11 4 1 0 1 4 14 24 22 16 14 12 2 2 0 0 0 0 0 0 0 0 0 0 0 0 0 0 0 0 0 0 0 4 11 1 0 6 4 0 0 0 0 0 0 0 0 0 0 0 0 7 16 9 9 4 0 2 1 4 0 0 0 0 0 0 0 0 0 0 0 1 1 0 0 0 0 1 0 7 15 21 25 31 27 19 19 17 16 13 13 18 11 3 0 0 0 5 14 24 24 18 14 14 4 0 1 0 0 0 0 0 0 0 0 0 0 0 0 0 0 0 0 0 4 5 9 3 0 0 5 5 0 1 0 0 0 0 0 0 0 0 3 8 17 14 10 11 7 1 1 1 1 0 0 0 0 0 0 0 0 0 0 0 0 0 0 0 0 0 0 0 7 15 20 25 20 15 12 14 18 10 9 13 10 1 0 0 0 2 13 24 27 20 12 6 3 0 0 4 5 0 0 0 0 0 0 0 0 0 0 0 0 0 0 4 12 11 10 3 2 0 0 7 4 2 0 0 0 0 0 1 0 3 8 14 16 19 14 14 10 4 0 0 0 0 0 0 2 3 0 0 0 0 0 0 0 0 0 0 0 0 0 0 5 11 18 20 13 8 7 8 14 9 0 5 12 2 0 0 0 1 13 23 28 24 15 7 0 0 0 1 4 0 0 0 0 0 0 0 0 0 0 0 0 0 1 7 12 14 9 3 1 8 6 3 10 7 2 3 6 4 1 4 9 8 10 13 15 16 16 13 8 6 0 0 0 0 0 0 3 0 0 0 0 0 0 0 0 0 0 0 0 0 0 0 2 6 16 17 8 0 0 4 5 0 0 0 14 3 0 0 0 1 12 22 27 26 22 12 5 0 0 1 5 0 0 0 0 0 0 0 0 0 0 0 0 0 0 5 10 13 10 7 5 10 12 11 9 14 11 8 13 14 12 12 14 13 14 13 14 12 12 9 5 3 1 0 0 0 0 0 2 0 0 0 0 0 0 0 0 0 0 0 0 0 0 0 0 5 12 12 3 0 0 0 0 0 0 7 20 8 1 0 0 1 9 19 26 27 26 18 8 0 0 0 1 3 0 2 0 0 0 0 0 0 0 0 0 0 1 8 10 12 13 10 8 10 16 18 17 19 18 17 17 20 21 18 17 17 16 16 16 13 12 9 4 1 0 0 0 0 0 0 0 0 0 0 0 0 0 0 0 0 0 0 0 0 0 0 0 2 8 11 0 0 0 0 0 0 0 11 17 11 1 0 0 2 12 16 25 29 30 23 15 4 3 2 2 5 7 5 4 1 0 0 0 0 0 0 0 2 3 8 10 14 15 14 13 16 17 21 23 24 24 24 23 24 25 23 22 22 20 17 17 16 12 9 3 0 0 0 0 0 0 0 0 0 0 0 0 0 0 0 0 0 0 0 0 0 0 0 0 0 6 9 0 0 0 0 3 0 0 5 16 9 0 0 0 2 11 17 23 29 32 28 20 12 11 7 4 4 6 8 5 6 4 1 0 0 0 0 0 3 4 8 12 16 17 18 19 21 23 24 27 26 27 27 26 26 27 25 27 26 24 20 20 17 14 9 4 0 0 0 0 0 0 0 0 0 0 0 0 0 0 0 0 0 0 0 0 0 0 0 0 0 4 7 0 0 0 0 0 0 0 4 18 3 0 0 0 2 10 14 20 25 33 29 23 18 18 15 10 8 9 11 13 11 7 6 1 0 0 2 5 5 5 9 13 16 19 20 20 22 25 27 28 28 27 28 26 25 26 26 29 28 26 23 22 19 16 11 8 2 0 0 0 0 0 0 0 0 0 0 0 0 0 0 0 0 0 0 0 0 0 0 0 0 3 6 0 0 0 0 0 0 6 6 19 0 0 0 0 2 9 12 17 24 33 30 23 19 16 15 15 13 13 15 15 13 12 8 6 4 5 6 10 9 10 13 14 20 21 21 21 23 25 28 28 31 30 30 29 24 23 23 27 27 26 22 22 18 14 13 6 6 5 0 0 0 0 0 0 0 0 0 0 0 0 0 0 0 0 0 0 0 0 0 0 0 0 2 0 0 0 0 0 0 9 6 16 0 0 0 0 2 7 7 15 22 31 30 25 19 14 12 14 15 15 15 14 10 12 12 10 8 9 11 12 14 14 18 19 22 24 23 25 25 28 28 30 31 30 29 28 24 21 20 22 25 22 19 19 17 13 8 6 5 2 0 0 0 0 0 0 0 0 0 0 0 0 0 0 0 0 0 0 0 0 0 0 0 0 0 0 0 0 0 0 0 9 5 10 0 0 0 3 4 6 6 12 21 27 30 28 21 15 13 11 14 14 12 12 10 11 15 12 8 11 13 14 15 17 21 25 27 28 27 29 28 28 29 32 33 30 28 27 22 21 18 18 22 21 19 16 13 10 6 4 2 0 0 0 0 0 0 0 0 0 0 0 0 0 0 0 0 0 0 0 0 0 0 0 0 0 0 0 0 0 0 0 0 0 1 0 0 0 0 6 5 5 4 10 18 23 26 27 24 18 18 15 14 11 9 9 7 11 12 8 6 11 17 18 18 21 24 27 29 30 28 30 28 29 30 31 33 28 25 22 20 21 21 21 21 18 18 16 12 12 9 6 2 0 0 0 0 0 0 0 0 0 0 0 0 0 0 0 0 0 0 0 0 0 0 0 0 0 0 0 0 0 0 0 0 0 0 0 0 0 6 9 5 1 3 8 16 21 24 23 21 19 17 17 15 13 11 8 5 8 8 2 3 9 16 19 20 24 27 29 31 32 29 29 27 30 31 30 30 25 22 18 17 19 21 24 23 19 16 16 14 11 7 7 4 0 0 0 0 0 0 0 0 0 0 0 0 0 0 0 0 0 0 0 0 0 0 0 0 0 0 0 0 0 0 0 0 0 17 0 0 0 13 15 4 2 0 6 14 19 22 22 18 17 17 14 13 12 12 7 3 5 5 3 4 12 17 19 22 25 27 28 28 28 27 26 26 29 31 31 28 25 22 22 21 19 19 22 24 22 20 19 18 12 10 8 7 4 0 0 2 0 0 0 0 0 0 0 0 0 0 0 0 0 0 0 0 0 0 0 0 0 0 0 0 0 0 0 3 8 0 0 0 0 16 18 5 1 0 5 12 16 19 21 18 16 16 13 10 10 9 4 0 1 6 5 5 12 14 17 19 21 23 24 25 24 24 24 26 26 29 30 28 24 26 26 25 22 18 18 19 21 22 20 18 15 11 9 8 5 1 1 3 2 0 0 0 0 0 0 0 0 0 0 0 0 0 0 0 0 0 0 0 1 0 0 0 0 0 0 0 4 0 0 0 0 19 18 3 2 0 5 9 13 15 16 15 14 12 10 8 5 6 0 0 0 6 2 1 4 8 10 13 16 18 21 24 22 22 23 21 22 23 26 27 28 31 32 26 23 20 17 17 17 20 19 16 15 12 10 9 7 2 2 0 2 0 0 0 0 0 0 0 0 0 0 0 0 0 0 0 0 0 0 0 1 0 0 0 0 0 0 4 11 0 0 0 11 21 17 1 1 0 1 7 10 12 13 14 11 10 8 6 1 1 0 0 0 0 0 0 0 2 4 6 8 14 18 18 20 18 17 15 17 22 29 36 36 34 31 29 24 22 19 18 15 14 14 13 9 8 5 6 7 3 3 1 0 0 2 2 0 0 0 0 0 0 0 0 0 0 0 0 0 0 0 0 0 0 0 0 0 0 3 4 4 9 0 0 8 17 12 3 0 0 0 3 6 8 9 9 7 8 3 1 0 0 0 0 0 0 0 0 0 0 0 0 0 5 12 13 14 13 14 18 22 29 37 40 38 36 34 28 27 26 23 19 15 13 10 10 8 3 0 0 1 2 2 3 2 2 5 3 3 4 5 3 4 2 0 0 0 0 0 0 0 0 0 0 0 0 0 0 0 0 0 3 9 3 0 0 13 13 11 6 0 1 0 1 3 4 7 7 4 3 1 0 0 0 0 0 0 0 0 0 0 0 0 0 0 0 1 8 11 14 21 25 26 31 33 38 35 33 33 30 29 29 26 21 18 14 12 10 8 3 0 0 0 0 0 0 1 1 4 4 8 10 7 9 8 6 5 2 0 0 0 0 1 0 0 0 0 0 0 0 0 0 0 0 3 1 0 0 18 16 12 9 5 1 0 0 0 0 1 3 1 0 0 0 0 0 0 0 0 0 0 0 0 0 0 0 0 0 0 2 8 13 19 26 26 24 27 29 29 28 28 31 28 29 25 24 20 16 14 12 9 3 0 0 0 0 0 0 0 0 2 3 8 7 9 9 9 8 8 6 2 1 0 1 4 1 0 0 0 0 0 0 0 0 0 0 0 0 0 7 18 18 15 12 8 2 0 0 0 0 0 0 0 0 0 0 0 0 0 0 0 0 0 0 0 0 0 0 0 0 0 0 4 9 10 15 17 10 14 16 18 20 23 28 26 24 23 24 23 15 9 8 5 0 0 0 0 0 0 0 0 0 0 0 3 4 6 6 8 7 7 7 3 2 2 3 4 4 1 0 0 0 0 0 0 0 0 0 0 0 0 9 22 19 19 15 12 5 0 0 0 0 0 0 0 0 0 0 0 0 0 0 0 0 0 0 0 0 0 0 0 0 0 0 1 0 1 6 13 10 8 10 9 12 14 17 14 17 22 25 23 17 11 3 0 0 0 0 0 0 0 0 0 0 0 0 0 1 3 5 3 5 5 5 3 3 3 4 5 6 0 0 0 1 0 0 0 0 1 0 0 5 5 11 22 19 23 18 15 7 0 0 0 0 0 0 0 0 0 0 0 0 0 0 0 0 0 0 0 0 0 0 0 0 0 0 0 0 0 5 9 15 14 12 11 8 7 7 4 9 17 19 20 14 7 0 0 0 0 0 0 0 0 0 0 0 0 0 0 0 0 1 1 4 4 5 3 4 4 3 4 6 1 0 0 0 2 12 0 0 2 0 0 22 8 10 20 24 25 23 19 9 0 0 0 0 0 0 0 0 0 0 0 0 0 0 0 0 0 0 0 0 0 0 0 0 0 0 0 0 0 0 0 2 2 5 6 7 11 10 8 3 7 16 14 9 2 0 0 0 0 0 0 0 0 0 0 0 0 0 0 0 0 0 0 1 3 2 2 3 5 3 5 4 0 0 0 0 0 6 0 0 5 2 0 18 6 11 19 37 31 27 22 13 0 0 0 0 0 0 0 0 0 0 0 0 0 0 0 0 0 0 0 0 0 0 0 0 0 0 0 0 0 0 0 0 0 0 6 7 10 13 15 7 3 14 12 4 3 1 0 0 0 0 0 0 0 0 0 0 0 0 0 0 0 0 0 0 1 2 0 4 3 4 5 2 1 0 0 0 0 2 0 0 1 0 0 7 8 9 19 42 34 28 27 14 5 0 0 0 0 0 0 0 0 0 0 0 0 0 0 0 0 0 0 0 0 0 0 0 0 0 0 0 0 0 0 0 0 8 12 9 5 13 14 12 5 6 4 1 1 0 0 0 0 0 0 0 0 0 0 0 0 0 0 0 0 0 0 0 0 0 0 1 5 4 5 2 3 0 0 0 3 2 0 0 0 0 0 0 7 3 19 41 34 33 28 18 13 2 0 0 0 0 0 0 0 0 0 0 0 0 0 0 0 0 0 0 0 0 0 0 0 0 0 0 0 0 1 6 5 10 12 12 3 3 11 9 4 1 0 0 0 0 0 0 0 0 0 0 0 0 0 0 0 0 0 0 0 0 0 0 0 0 0 1 4 5 5 2 3 2 0 0 0 2 0 0 0 0 0 0 2 0 21 43 40 33 29 22 19 10 0 0 0 0 0 0 0 0 0 0 0 0 0 0 0 0 0 0 0 0 0 0 0 0 0 0 0 1 4 5 3 5 9 11 6 0 0 0 0 0 0 0 0 0 0 0 0 0 0 0 0 0 0 0 0 0 0 0 0 0 0 0 0 0 0 0 4 6 3 2 6 2 0 0 1 4 4 0 0 0 0 0 0 0 13 31 37 29 29 23 22 16 6 3 0 0 0 0 0 0 0 0 0 0 0 0 0 0 0 0 0 0 0 0 0 0 0 0 0 1 4 3 0 0 1 1 0 0 0 0 0 0 0 0 0 0 0 0 0 0 0 0 0 0 0 0 0 0 0 0 0 0 0 0 0 0 0 0 3 7 3 6 13 3 0 0 7 4 6 0 0 0 0 0 0 0 6 26 28 28 30 25 21 18 11 8 5 0 0 0 0 0 0 0 0 0 0 0 0 0 0 0 0 0 0 0 0 0 0 0 0 0 0 0 0 0 0 0 0 0 0 0 0 0 0 0 0 0 0 0 0 0 0 0 0 0 0 0 0 0 0 0 0 0 0 0 0 0 0 0 5 7 4 9 23 10 0 3 8 3 9 8 0 0 0 0 0 1 6 17 24 26 29 29 24 18 11 8 5 0 0 0 0 0 0 0 0 0 0 0 0 0 0 0 0 0 0 0 0 0 0 0 0 0 0 0 0 0 0 0 0 0 0 0 0 0 0 0 0 0 0 0 0 0 0 0 0 0 0 0 0 0 0 0 0 0 0 0 0 0 0 0 8 12 9 10 21 17 4 6 7 0 8 25 0 0 0 0 0 4 6 15 21 27 28 29 27 22 18 10 3 0 0 0 0 0 0 0 0 0 0 0 0 0 0 0 0 0 0 0 0 0 0 0 0 0 0 0 0 0 0 0 0 0 0 0 0 0 0 0 0 0 0 0 0 2 0 2 0 0 0 0 0 0 0 0 0 0 0 0 0 0 0 0 3 10 14 12 19 31 11 1 7 1 3 41 12 0 0 1 6 5 10 13 21 20 23 25 27 24 19 17 10 4 0 0 0 0 0 0 0 0 0 0 0 0 0 0 0 0 0 0 0 0 0 0 0 0 0 0 0 0 0 0 0 0 0 0 0 0 0 0 0 0 0 0 0 2 1 2 0 0 0 0 0 0 0 0 0 0 0 0 0 0 0 0 1 7 18 15 18 33 22 0 5 0 0 37 32 0 2 3 4 4 7 10 15 16 14 19 22 23 20 19 14 10 2 0 0 0 0 0 0 0 0 0 0 0 0 0 0 0 0 0 0 0 0 0 0 0 0 0 0 2 3 4 0 0 0 0 0 0 0 0 0 0 0 0 0 0 0 0 0 0 0 0 0 0 0 0 0 0 0 0 0 0 0 0 0 6 14 11 8 28 22 8 0 0 3 33 45 6 0 5 0 0 0 6 7 15 12 14 16 16 17 16 12 10 4 0 0 0 0 0 0 2 0 0 0 0 0 0 0 0 0 0 0 0 0 0 0 0 0 0 0 0 0 0 0 0 0 0 0 0 0 2 0 0 0 0 0 0 0 0 0 0 0 0 0 0 0 0 0 0 0 0 0 0 0 0 2 9 8 7 11 24 22 12 0 0 2 23 41 16 0 2 0 0 0 4 6 10 9 12 13 15 12 10 7 5 2 0 0 0 0 0 1 6 8 9 1 0 0 0 0 0 0 0 0 0 0 0 0 0 0 0 0 0 0 0 0 0 0 0 0 0 0 0 0 0 0 0 0 0 0 0 0 0 0 0 0 0 0 0 0 0 0 0 0 0 0 0 6 11 5 0 11 19 17 5 0 0 0 16 39 21 0 3 0 0 0 4 7 4 7 12 13 14 11 10 4 5 0 0 0 0 0 0 2 8 10 13 9 0 0 0 0 0 0 0 0 0 0 0 0 0 0 0 0 0 0 0 0 0 0 0 0 0 0 0 0 0 0 0 0 0 0 0 0 0 0 0 0 0 0 0 0 0 0 0 0 0 0 2 8 10 1 0 7 18 13 0 0 0 0 10 40 34 0 4 0 0 1 4 8 0 7 13 10 13 11 9 6 4 2 0 0 0 0 0 2 7 9 12 14 4 0 0 0 0 0 0 0 0 0 0 0 0 0 0 0 0 0 0 0 0 0 0 0 0 0 0 0 0 0 0 0 0 0 0 0 0 0 0 0 0 0 0 0 0 0 0 0 0 0 7 9 6 0 2 11 15 10 3 0 1 0 11 37 48 5 6 0 0 2 4 5 3 6 15 10 11 7 7 5 4 1 0 0 0 0 0 1 6 9 12 13 8 1 0 0 0 0 0 0 0 0 0 0 0 0 0 0 0 0 0 0 0 0 0 0 0 0 0 0 0 0 0 0 0 0 0 0 0 0 0 0 0 0 0 0 0 0 0 0 0 1 8 8 2 2 9 15 16 9 7 0 2 9 14 41 58 22 5 0 0 1 7 4 3 8 14 14 9 7 4 3 2 0 0 0 0 0 0 0 5 9 11 15 11 5 2 0 0 0 0 0 0 0 0 0 0 0 0 0 0 0 0 0 0 0 0 0 0 0 0 0 0 0 0 0 0 0 0 1 0 0 0 0 0 0 0 0 0 0 0 0 0 4 9 8 4 8 16 16 16 11 9 2 0 15 10 30 54 36 18 0 0 3 9 5 5 7 17 13 11 6 1 1 1 0 0 0 0 0 0 0 1 10 10 13 14 9 6 6 0 0 2 0 2 0 0 0 0 0 0 0 0 0 0 0 0 0 0 0 0 0 0 0 0 0 1 0 0 0 2 4 2 0 0 0 0 0 0 0 0 0 0 0 0 5 11 8 13 17 20 19 18 15 10 5 4 16 10 27 44 41 32 0 0 8 10 10 6 4 19 14 11 5 2 0 0 0 0 0 0 0 0 0 1 6 9 9 15 14 10 11 8 5 3 3 5 4 5 2 3 4 4 3 1 0 0 0 1 0 0 2 2 3 3 3 4 0 3 4 0 3 4 4 1 0 0 0 0 0 0 0 0 0 0 0 1 7 15 16 20 23 22 20 20 16 9 10 12 18 5 27 39 41 39 0 0 8 10 13 4 3 19 17 11 4 3 0 0 0 0 0 0 0 0 0 0 3 6 7 10 17 13 11 14 13 9 7 9 10 10 9 9 9 10 11 12 8 9 8 9 8 7 7 6 6 9 7 5 3 5 3 2 3 2 2 0 0 0 0 0 0 0 0 0 0 0 0 4 10 14 20 25 23 22 21 22 16 8 11 19 20 7 31 40 42 44 0 2 7 14 21 2 1 19 18 12 0 6 9 0 0 0 0 0 0 0 0 0 0 4 5 9 15 17 16 15 16 14 13 13 13 10 10 11 12 10 11 11 9 11 12 14 13 12 12 9 9 8 8 5 6 4 3 1 0 0 0 0 0 0 0 0 0 4 0 0 0 0 0 9 13 20 20 25 24 22 24 26 16 10 18 26 18 13 35 39 44 46 0 0 6 20 25 2 0 16 17 12 1 10 6 0 0 0 0 0 0 0 0 0 0 0 6 12 13 18 18 21 19 16 17 15 17 14 14 15 16 15 15 13 14 14 16 13 14 14 14 10 9 8 7 8 6 1 0 1 0 0 0 0 0 0 0 0 0 6 2 1 0 0 4 10 16 22 24 24 25 25 28 27 17 14 22 30 14 18 39 39 44 48 0 0 8 28 31 0 0 17 16 11 6 12 5 0 0 0 0 0 0 0 0 0 0 0 2 14 15 16 17 21 23 21 19 20 19 20 21 23 21 22 21 19 19 17 17 15 13 13 13 11 11 9 7 4 2 0 0 0 0 0 0 0 0 0 0 2 3 6 8 5 7 5 8 15 20 25 26 25 26 27 28 27 19 21 24 32 13 22 42 41 43 48 0 1 14 36 34 0 0 15 17 12 8 13 2 0 0 0 0 0 0 0 0 0 0 0 8 11 19 20 13 16 21 21 19 22 22 22 21 22 23 20 22 20 18 19 16 16 13 13 12 11 11 7 4 2 0 0 0 0 0 0 0 0 0 0 0 1 3 9 12 12 13 19 19 22 21 26 29 25 27 28 28 22 21 26 30 31 14 27 46 42 42 48 0 7 21 37 35 0 0 16 16 12 9 14 0 0 0 0 0 0 0 0 0 0 0 1 20 13 17 23 14 11 17 20 21 22 21 20 19 19 20 20 19 21 17 17 17 16 12 12 10 9 7 4 2 0 0 0 0 0 0 0 0 0 0 0 0 1 5 11 18 20 18 26 38 30 25 27 31 29 30 28 26 20 25 29 36 27 18 32 47 43 41 50 0 15 23 37 32 0 0 17 19 11 12 11 1 0 0 0 0 0 0 0 0 0 0 3 26 21 18 22 16 11 14 19 22 22 22 20 20 20 23 20 19 20 19 18 17 16 13 12 10 6 5 1 0 0 0 0 0 0 0 0 0 0 0 0 1 3 10 16 23 26 21 32 49 48 35 30 35 34 32 31 24 21 30 33 39 26 27 38 47 42 41 50 5 18 23 34 32 0 0 19 18 15 14 13 0 0 0 0 0 0 0 0 0 0 0 9 28 25 18 20 17 9 9 15 18 20 21 21 20 22 21 20 18 17 19 15 15 13 11 12 7 3 2 0 0 0 0 0 0 0 0 0 0 0 0 4 4 10 17 18 25 29 28 41 51 61 56 46 42 39 32 33 25 26 31 39 36 26 33 44 46 42 42 47 10 18 26 33 33 0 0 20 17 18 17 12 0 0 0 0 0 0 0 0 0 0 0 18 28 22 14 16 16 12 2 7 12 15 18 18 18 19 18 17 16 14 15 11 12 11 7 7 6 0 0 0 0 0 0 0 0 0 0 0 0 0 7 8 12 17 22 19 30 31 36 49 55 63 64 61 64 52 35 30 26 33 33 38 29 29 38 44 45 41 41 45 16 20 28 32 31 3 0 19 17 19 18 11 1 0 0 0 0 0 0 0 0 0 0 22 29 22 14 8 10 10 1 0 6 12 13 14 12 14 15 16 14 11 11 8 9 8 6 5 2 0 0 0 0 0 0 0 0 0 0 0 0 4 13 15 18 23 21 21 32 39 44 55 55 65 69 64 73 73 54 34 31 36 40 36 27 35 40 45 45 41 41 45 20 21 29 28 29 8 0 17 20 18 17 11 1 0 0 0 0 0 0 0 0 0 10 22 25 22 14 5 0 8 0 0 0 6 9 9 9 11 10 12 12 10 6 8 5 5 3 2 0 0 0 0 0 0 0 0 0 0 0 0 4 16 19 23 23 26 23 23 36 44 47 58 58 65 73 70 72 75 63 45 47 43 43 32 31 36 43 49 42 42 41 45 27 20 27 23 26 16 0 14 17 16 15 11 0 0 0 0 2 3 2 0 0 5 17 22 20 20 12 7 0 0 1 0 0 0 3 3 4 7 6 7 7 7 7 5 4 1 0 0 0 0 0 0 0 0 0 0 0 0 0 4 19 21 25 29 27 29 22 25 41 47 48 57 59 64 76 75 72 73 66 58 57 59 53 37 40 36 46 46 41 43 41 41 29 23 23 19 25 20 0 9 14 11 14 12 4 0 8 16 17 15 10 6 2 15 20 22 18 19 14 7 0 0 0 0 0 0 0 0 0 0 1 3 2 3 2 0 0 0 0 0 0 0 0 1 1 0 2 3 3 2 5 18 25 26 29 33 31 27 21 32 46 48 46 59 58 67 77 79 74 70 68 70 70 61 51 56 48 43 51 45 44 40 40 39 28 29 20 18 25 24 0 1 10 11 13 16 20 17 19 27 24 20 13 11 9 21 23 20 18 17 15 10 0 0 0 0 0 0 0 0 0 0 0 0 2 0 0 0 0 0 1 0 2 1 1 4 4 5 8 6 6 7 20 28 25 31 34 35 32 22 22 43 47 44 47 59 61 69 76 79 74 69 72 73 78 73 65 62 58 64 59 45 45 39 41 39 30 32 24 21 27 22 3 0 7 12 22 34 39 31 25 29 27 21 17 17 18 23 22 19 17 19 15 10 3 0 0 0 0 0 0 0 0 0 0 0 1 2 0 0 3 2 4 2 5 4 5 10 8 10 12 12 10 17 29 27 31 33 36 36 30 16 32 49 44 44 48 61 64 68 74 75 71 71 74 78 74 73 83 75 67 78 67 54 47 43 42 40 35 38 34 23 22 24 8 0 8 25 44 50 49 35 26 31 32 27 27 28 23 26 23 18 17 17 18 10 5 0 0 0 0 0 0 0 0 0 0 0 0 1 0 2 4 5 5 5 7 11 10 12 12 18 15 11 16 29 28 29 34 35 36 33 22 21 44 46 43 44 54 63 67 66 72 70 71 75 75 75 70 79 85 78 89 87 74 70 54 46 47 43 34 37 34 25 19 21 12 3 18 42 52 50 49 39 31 40 41 34 33 34 28 28 24 19 17 18 17 11 7 0 0 0 0 0 0 0 0 0 0 0 0 1 3 5 4 7 8 9 10 11 13 15 15 16 13 15 26 28 28 32 35 35 34 26 19 38 47 42 42 45 57 62 69 65 69 69 71 78 75 70 71 83 78 85 92 86 83 79 63 44 47 44 