P2
92
112
255
0 2 4 2 4 7 11 8 7 10 12 6 11 10 11 14 17 17 21 24 29 34 35 36 36 36 37 35 30 28 30 27 15 8 11 19 20 19 16 16 19 16 16 17 22 20 24 14 16 25 35 35 32 30 33 35 39 42 49 47 45 48 52 51 47 52 53 47 48 49 51 53 48 41 41 46 45 36 38 36 35 35 38 38 38 37 38 36 32 36 30 26 1 2 1 2 3 9 9 7 7 12 12 7 7 12 16 20 17 22 26 32 31 37 40 41 43 40 38 35 30 26 26 23 15 12 16 19 17 12 10 10 5 1 6 4 11 14 15 11 9 12 22 30 33 32 31 38 41 42 43 47 43 40 45 49 50 47 51 53 48 50 50 52 51 47 40 36 44 41 34 39 35 32 33 34 36 37 37 38 30 34 35 30 1 3 1 3 5 7 3 8 13 10 9 9 14 12 15 17 21 27 32 34 39 42 41 43 41 39 39 36 32 27 26 22 17 15 17 16 13 10 3 2 0 0 0 0 0 6 2 2 4 7 9 15 19 24 25 31 37 42 44 46 51 48 42 42 44 44 45 50 50 49 51 51 50 49 45 37 36 41 42 33 34 31 31 32 30 34 34 38 35 30 34 33 0 3 0 0 6 6 1 6 11 11 11 11 13 15 17 22 28 34 37 39 41 46 46 46 42 38 39 35 31 28 22 16 13 12 16 14 11 6 4 5 2 0 1 1 0 0 0 5 8 7 9 12 8 19 19 22 27 34 41 46 47 48 44 44 41 44 44 40 44 46 48 50 51 56 47 44 37 35 39 38 33 34 26 27 27 31 33 34 36 30 28 32 1 2 1 0 2 6 4 6 9 12 13 10 15 20 23 29 29 35 42 46 46 46 46 47 44 43 39 39 34 29 22 19 11 12 13 10 9 7 7 5 5 8 4 5 0 0 0 0 3 8 5 8 6 12 16 15 19 27 35 40 40 41 46 44 41 43 49 45 38 41 45 48 47 51 55 50 45 36 34 35 34 32 33 25 24 24 32 32 36 34 25 28 0 0 0 1 0 1 7 7 6 8 12 12 17 22 25 27 35 38 44 48 48 50 51 51 45 44 39 37 31 22 16 12 10 5 5 4 5 4 8 8 8 12 9 8 5 1 0 0 0 2 5 6 5 5 10 11 18 21 25 29 32 33 36 43 42 35 36 42 44 36 38 42 44 41 46 48 47 45 37 34 33 29 28 29 26 22 24 28 29 35 30 23 3 1 1 2 0 0 6 9 10 9 12 18 20 23 24 32 35 40 48 52 53 56 51 45 44 40 34 26 21 15 9 7 7 5 6 2 0 0 4 7 8 9 7 7 5 2 1 0 0 0 5 5 4 4 9 8 12 18 22 26 28 31 26 33 38 34 32 37 40 37 31 31 38 41 42 46 41 40 40 36 32 32 27 26 26 24 21 22 26 30 32 26 2 0 4 2 0 0 3 9 10 14 14 19 24 27 30 38 40 43 45 50 50 53 49 48 42 36 31 26 18 14 9 9 3 0 2 2 2 3 7 10 8 6 7 11 8 3 2 2 0 0 4 3 6 4 5 3 7 10 19 31 31 32 29 33 36 35 33 27 30 39 36 32 28 32 34 36 40 39 36 32 30 27 29 26 23 24 22 18 22 24 30 27 1 2 4 0 0 0 3 7 11 13 19 20 24 33 38 43 44 46 46 51 50 51 49 44 40 34 31 25 19 13 10 5 1 0 0 1 2 4 4 7 10 12 9 12 12 8 5 4 0 0 0 0 1 0 6 5 8 8 15 29 31 35 34 33 36 36 33 28 24 31 39 37 28 27 33 29 29 33 35 32 28 24 23 23 23 22 25 21 16 20 23 28 0 3 1 1 0 3 4 8 15 17 18 23 30 35 37 44 47 49 48 50 50 48 45 43 38 29 26 23 18 11 6 1 0 1 1 2 3 2 5 7 8 11 9 13 13 13 9 6 1 0 0 0 0 0 3 7 7 4 9 21 22 23 26 18 25 30 35 34 26 21 22 32 34 32 28 30 23 23 24 27 24 22 22 19 16 19 19 22 18 16 20 20 2 2 2 1 2 8 8 10 17 21 21 29 33 35 42 45 47 49 47 47 47 47 43 42 37 30 25 22 15 9 4 2 2 3 6 6 6 8 9 10 13 12 11 13 17 17 14 10 6 1 0 0 0 0 1 6 2 3 6 17 22 18 23 17 16 25 27 25 23 22 18 25 33 38 31 28 27 23 24 21 19 20 21 16 13 16 17 16 20 15 19 18 4 3 3 6 7 9 12 14 19 20 27 30 33 38 42 42 47 43 44 46 45 45 43 42 36 34 27 22 18 13 9 8 7 9 10 9 9 11 13 12 15 16 14 14 15 18 15 11 8 7 6 3 1 0 0 5 0 2 5 11 17 14 15 18 14 20 21 18 12 11 8 10 18 30 34 29 27 20 23 21 19 17 15 16 13 12 13 12 14 16 16 18 4 6 5 5 8 14 15 19 22 26 30 33 37 39 39 42 40 43 45 43 42 45 44 42 36 35 32 26 23 22 19 17 16 17 16 15 15 16 16 18 17 19 20 19 21 20 18 16 12 10 10 10 6 3 5 3 0 0 4 5 11 11 12 14 13 14 18 16 14 11 6 0 0 7 20 27 26 25 16 21 18 18 15 13 13 8 12 12 9 12 14 18 7 6 8 7 10 18 20 23 25 29 32 34 36 39 37 38 41 42 43 44 44 43 41 39 36 34 35 30 27 28 27 24 22 22 23 20 20 21 21 24 25 22 23 24 23 23 22 21 18 16 15 14 11 9 6 6 0 0 1 3 4 6 10 10 8 10 17 17 13 11 8 3 0 0 6 15 19 22 20 20 17 14 17 12 9 10 7 14 10 9 8 19 6 6 10 11 15 21 21 26 30 34 34 36 39 37 37 36 39 39 39 42 44 40 38 34 31 32 32 31 30 31 34 32 29 28 29 26 27 28 30 29 32 29 28 28 30 25 24 25 26 23 22 22 19 14 11 8 2 0 1 8 8 5 12 8 2 2 10 13 13 11 10 8 1 0 0 5 12 11 14 11 17 12 14 16 12 11 7 6 13 8 2 14 8 9 13 15 18 22 22 27 32 32 32 38 36 35 33 34 35 36 35 37 37 36 31 29 27 28 29 29 30 33 35 35 32 32 34 32 32 35 36 33 35 37 35 33 33 30 30 29 29 25 23 23 22 13 9 6 2 0 0 7 5 0 7 7 0 0 1 7 10 10 8 6 0 0 0 0 7 9 9 6 11 13 8 13 11 12 13 6 6 12 4 6 8 11 15 17 22 22 24 30 31 33 32 33 33 31 28 30 32 32 31 32 33 32 27 26 27 29 27 28 33 37 40 39 37 39 38 36 38 41 40 40 40 41 44 40 37 38 33 33 35 32 29 27 23 15 7 1 0 0 0 5 4 0 1 6 0 0 0 3 7 4 3 3 4 0 0 0 0 7 14 8 2 13 9 4 4 8 10 11 8 10 10 3 10 11 18 20 24 24 29 33 34 32 32 31 31 27 26 27 28 26 25 25 27 24 25 25 24 27 28 32 35 39 39 43 42 43 41 41 42 43 44 45 45 46 46 45 41 40 40 37 38 36 31 31 28 21 15 6 0 0 0 0 0 0 0 0 0 0 0 3 2 1 2 3 5 5 0 4 0 0 11 12 2 6 14 6 0 2 7 9 11 7 9 2 10 12 14 22 25 27 30 33 34 32 32 30 29 22 22 22 21 20 17 21 21 20 22 21 22 26 29 34 38 39 41 43 45 43 44 45 47 46 47 49 49 49 50 50 46 45 46 45 42 40 39 37 37 28 20 11 0 0 0 0 0 0 0 0 0 0 0 0 0 0 0 0 5 3 1 2 0 0 1 11 9 2 11 9 1 0 0 6 8 9 7 3 12 11 19 23 28 27 30 31 32 31 28 26 24 20 20 18 16 14 15 17 18 19 19 20 23 26 29 34 37 39 40 43 44 44 45 46 47 47 50 50 51 53 52 52 50 49 48 46 43 42 43 40 38 30 26 20 10 1 0 0 0 0 0 0 0 0 0 0 0 0 0 0 0 1 1 1 0 0 0 1 8 4 2 8 5 0 0 0 6 7 8 4 15 14 21 24 30 29 31 31 30 28 27 23 21 21 18 16 13 12 14 13 15 16 18 20 25 27 31 35 37 39 41 43 42 43 43 45 45 48 49 50 53 52 52 51 50 48 47 46 44 43 44 40 36 34 32 29 20 9 0 0 0 0 0 0 0 0 0 0 0 0 0 0 0 0 0 1 0 0 0 0 3 8 4 4 6 0 0 0 1 5 8 4 17 17 18 28 28 30 31 31 28 24 24 19 19 18 13 12 12 10 9 9 12 14 15 21 22 26 31 34 36 41 39 39 40 42 43 43 45 46 48 48 51 51 51 49 48 46 45 44 43 42 42 40 37 37 35 31 21 16 9 0 0 0 0 0 0 0 0 0 0 0 0 0 0 0 0 0 0 0 0 0 0 6 9 5 7 0 0 0 0 5 8 6 16 20 18 23 29 30 32 30 25 22 22 19 17 12 9 7 8 6 2 6 9 10 12 21 22 23 31 34 37 38 38 38 39 39 42 43 43 44 44 47 48 49 48 46 45 43 41 40 40 39 40 38 36 35 33 28 24 15 10 2 0 0 0 0 0 0 0 0 0 0 0 0 0 0 1 0 0 3 2 1 4 7 9 10 9 2 0 1 0 2 7 8 14 17 17 22 29 28 27 24 23 22 18 18 13 6 9 6 2 1 1 4 7 7 15 21 23 24 29 32 34 34 36 35 37 37 38 40 41 43 41 44 44 45 45 43 41 40 37 37 36 35 33 33 31 30 30 27 22 15 11 8 0 0 0 0 0 0 0 0 0 0 0 0 0 0 0 6 5 5 8 6 5 8 10 12 13 9 0 2 1 2 0 11 12 16 22 22 30 26 24 21 23 22 19 16 9 7 5 0 0 0 2 4 8 10 16 22 24 25 27 29 31 32 33 33 34 36 36 37 39 38 40 41 42 41 41 40 38 37 33 33 32 31 29 28 26 28 30 25 22 19 16 15 8 0 0 0 0 0 0 0 0 0 0 0 0 0 1 8 11 11 11 11 7 7 11 11 13 13 3 0 3 6 7 11 14 23 20 23 29 23 22 18 16 16 14 11 6 5 0 0 0 0 1 6 10 14 18 21 24 25 26 29 29 29 31 31 31 31 33 35 35 37 36 39 38 37 39 37 36 32 30 28 27 27 26 24 23 25 27 25 24 21 18 16 14 4 0 0 0 0 0 0 0 0 0 0 0 1 3 4 13 12 16 14 11 8 8 11 12 13 10 0 6 6 17 13 17 26 26 25 31 27 19 15 14 16 10 10 7 2 0 0 0 1 2 8 12 15 20 22 24 24 26 26 26 26 28 27 27 29 30 30 32 32 34 34 34 34 36 35 34 30 27 27 25 23 22 21 22 23 24 23 22 20 19 16 12 7 0 0 0 0 0 0 0 0 1 0 0 3 4 6 12 15 19 16 17 10 9 9 15 14 12 1 4 9 15 18 19 26 27 21 26 26 20 14 14 13 8 7 5 2 1 0 1 3 5 11 14 18 18 20 22 24 23 24 24 24 25 24 25 27 28 27 28 28 29 30 30 31 31 32 31 30 26 24 22 20 17 19 20 20 21 21 19 20 19 15 13 10 3 0 0 0 0 0 0 0 2 2 0 0 9 9 11 13 17 19 19 15 11 11 15 17 9 6 8 11 16 17 23 25 27 21 25 27 24 17 16 14 9 6 5 2 1 3 6 8 9 12 15 17 20 20 21 22 21 21 21 21 21 22 23 23 25 23 25 26 27 27 27 28 28 28 29 28 25 22 21 19 18 17 19 18 20 17 18 18 17 15 13 11 5 1 0 0 0 0 0 3 1 1 1 0 6 12 14 17 17 21 21 20 16 14 15 18 9 6 12 10 15 17 20 23 20 13 19 19 19 16 17 12 11 10 8 4 4 6 9 12 14 14 16 20 21 20 20 21 21 21 20 20 19 20 20 22 22 22 21 21 24 23 24 24 25 25 25 25 23 21 19 16 15 16 15 16 17 14 15 17 15 15 13 9 7 4 2 0 0 0 1 5 2 0 1 0 3 14 14 18 21 20 21 24 16 15 16 14 8 13 10 12 12 17 18 18 15 8 17 17 13 15 16 12 10 11 8 6 6 9 13 14 15 18 19 19 19 20 19 19 20 20 19 17 19 19 19 19 20 19 19 19 20 21 20 21 21 22 23 21 21 20 17 13 12 12 12 14 13 12 11 13 12 10 11 10 6 6 5 3 0 0 3 4 4 3 4 3 3 9 14 17 24 20 22 23 18 12 18 15 9 14 12 11 13 21 14 13 9 0 13 14 7 11 13 7 5 9 9 8 10 13 15 17 19 17 18 18 17 19 20 19 21 19 18 17 19 18 18 18 19 18 18 19 18 18 18 19 19 19 20 18 17 15 15 11 11 11 11 11 9 9 11 12 12 12 12 14 8 8 8 6 4 1 4 5 6 7 5 0 6 5 14 13 19 23 21 23 20 15 20 19 13 11 13 13 18 20 12 12 3 0 13 12 3 6 7 4 3 10 10 12 14 16 18 18 20 18 17 17 18 19 20 20 21 20 20 19 18 18 19 18 18 16 17 16 16 16 15 18 17 15 15 14 12 11 11 11 12 13 13 13 11 11 14 14 14 14 15 17 13 10 12 8 5 2 6 7 7 9 5 1 6 7 10 12 15 21 20 19 20 18 22 22 15 11 14 17 19 18 12 10 4 0 7 4 0 2 7 6 4 8 10 14 14 18 19 18 19 18 17 18 19 20 21 20 22 21 21 19 18 18 18 19 19 17 18 16 16 15 14 13 13 13 12 10 9 10 11 14 15 17 17 17 15 16 13 14 15 16 18 19 18 13 12 11 6 5 7 10 8 10 8 2 7 10 11 11 15 20 22 17 18 20 19 24 17 13 17 22 18 20 10 8 0 0 1 4 0 0 4 6 8 9 15 15 17 18 20 17 18 17 19 17 19 20 22 22 21 20 19 18 16 17 17 20 18 18 18 17 15 13 11 9 8 6 6 8 8 11 14 15 15 16 14 15 14 14 15 16 18 19 19 20 19 16 11 9 7 6 8 10 10 11 10 7 10 15 14 12 15 19 24 18 17 16 21 20 20 18 17 17 22 23 14 9 0 0 0 6 0 0 6 10 11 15 17 19 19 19 19 18 16 18 19 19 17 18 20 20 18 18 16 16 15 16 17 18 18 17 18 15 12 8 7 7 5 6 7 8 9 11 12 11 11 11 10 11 11 13 14 15 18 18 17 16 16 13 10 8 5 6 11 9 10 10 11 7 10 15 14 17 15 17 22 22 16 17 21 22 23 24 13 12 22 20 19 11 0 0 0 7 0 0 9 12 13 15 18 19 18 18 18 16 16 17 16 16 16 16 16 14 16 14 14 14 14 14 15 15 15 16 14 11 8 5 4 3 4 6 8 8 8 8 8 7 4 5 6 5 6 10 12 11 13 14 15 14 15 14 9 8 6 4 9 9 10 10 9 9 10 13 14 17 17 15 20 24 17 16 20 25 25 27 16 11 15 13 21 13 0 0 0 6 0 0 10 11 13 13 15 16 15 12 14 13 15 15 15 15 14 15 12 11 10 10 13 12 13 13 14 12 12 11 8 6 5 4 0 2 4 5 5 4 4 3 2 0 0 0 2 4 4 9 12 13 12 15 14 15 15 14 15 12 8 5 7 7 8 8 8 8 12 12 15 20 19 17 18 23 19 16 21 26 27 27 22 11 7 12 17 13 1 0 0 4 0 0 13 15 14 14 14 13 9 9 6 7 10 13 14 14 12 11 11 10 11 11 12 13 12 14 15 13 12 9 7 2 1 0 0 0 0 0 0 0 0 0 0 0 0 0 2 4 4 6 8 10 11 15 15 13 11 13 12 11 9 6 3 6 8 8 8 9 8 11 16 18 20 21 18 20 19 14 21 27 27 25 25 10 3 6 18 13 1 0 0 4 0 8 18 20 19 15 10 5 2 1 0 0 1 3 4 6 8 5 5 6 7 6 7 9 9 10 12 14 14 11 9 7 2 0 0 0 0 0 0 0 0 0 0 0 0 0 0 1 2 5 7 7 8 10 14 12 10 12 10 9 10 8 4 7 8 9 9 12 10 14 18 19 21 24 24 24 19 16 20 26 28 23 21 10 4 7 18 11 0 0 0 2 6 12 23 27 26 16 8 2 0 0 0 0 0 0 0 0 0 0 0 0 1 1 1 3 3 5 7 10 11 9 9 7 5 0 0 0 0 0 0 0 0 0 0 0 0 0 0 0 0 3 4 8 8 9 12 13 11 11 11 11 12 13 8 10 8 10 12 11 14 15 20 21 22 28 28 23 22 23 23 20 30 26 21 13 7 10 17 11 4 0 0 0 11 19 29 33 29 20 10 2 0 0 0 0 0 0 0 0 0 0 0 0 0 0 0 0 0 2 1 1 4 3 3 3 2 0 0 0 0 0 0 0 0 0 0 0 0 0 0 0 0 0 1 3 5 10 12 11 12 11 12 14 14 15 14 11 12 10 12 13 16 17 22 23 24 30 32 25 27 30 25 25 30 30 21 10 6 9 13 8 7 0 0 0 14 26 34 35 30 23 10 0 0 0 0 0 0 0 0 0 0 0 0 0 0 0 0 0 0 0 0 0 1 0 0 0 0 0 0 0 0 0 0 0 0 0 0 0 0 0 0 0 0 0 2 0 2 7 11 13 14 14 16 15 16 16 16 12 14 11 13 14 18 18 24 26 27 31 32 30 32 32 30 31 31 26 14 3 5 7 9 5 5 0 0 4 17 30 35 34 27 19 10 0 0 0 0 0 0 0 0 0 0 0 0 0 0 0 0 0 0 0 0 0 0 0 0 0 0 0 0 0 0 0 0 0 0 0 0 0 0 0 0 0 0 2 6 3 1 2 9 14 15 17 18 16 18 19 18 15 16 16 14 17 16 20 23 27 29 31 32 31 34 38 34 33 29 22 8 5 11 12 9 5 0 0 0 7 18 31 35 29 22 14 7 0 0 0 0 0 0 0 0 0 0 0 0 0 0 0 0 0 0 0 0 0 0 0 0 0 0 0 0 0 0 0 0 0 0 0 0 0 0 0 0 0 0 0 3 4 3 8 10 12 17 17 18 17 18 19 18 19 18 18 17 14 17 20 23 25 28 30 31 32 37 41 37 33 28 15 5 11 10 5 7 5 0 0 0 9 18 30 33 24 17 5 0 0 0 0 0 0 0 0 0 0 0 0 0 0 0 0 0 0 0 0 0 0 0 0 0 0 0 0 0 0 0 0 0 0 0 0 0 0 0 0 0 0 0 0 0 0 3 6 13 14 16 18 19 18 19 18 20 19 19 18 18 16 14 17 19 20 22 26 27 32 37 39 32 29 22 19 3 6 8 9 5 4 0 0 1 11 17 27 29 19 8 1 0 0 0 0 0 0 0 0 0 0 0 0 0 0 0 0 0 0 0 0 0 0 0 0 0 0 0 0 0 0 0 0 0 0 0 0 0 0 0 0 0 0 0 0 2 0 4 6 9 10 14 16 17 20 19 18 20 19 20 18 16 16 12 11 12 14 15 18 24 28 35 35 29 29 21 12 0 8 9 15 8 2 0 5 1 11 17 26 26 14 5 0 0 0 0 0 0 0 0 0 0 0 0 0 0 0 0 0 0 0 0 0 3 0 0 0 0 0 0 0 0 0 0 0 0 0 0 0 0 0 0 0 0 0 0 9 0 4 7 11 7 8 9 16 19 20 19 16 15 16 16 12 12 7 5 3 0 5 6 13 17 23 30 31 28 26 18 9 3 10 13 19 11 4 3 5 3 14 15 24 24 13 2 0 0 0 0 0 0 0 0 0 0 0 0 0 0 0 0 0 0 0 0 0 0 0 0 0 0 0 0 0 0 0 0 0 0 0 0 0 0 0 0 0 0 0 0 1 3 6 7 11 9 8 9 11 16 15 17 10 8 9 5 4 2 0 0 0 0 0 6 11 18 23 27 29 28 23 15 10 9 10 17 19 15 7 7 5 7 15 15 25 23 15 4 0 0 0 0 0 0 0 0 0 0 0 0 0 0 0 0 0 0 0 0 0 0 0 0 1 0 0 0 0 0 0 0 0 0 0 0 0 0 0 2 1 0 2 1 1 7 7 11 14 15 9 6 9 9 7 3 2 1 0 0 0 0 0 0 0 0 3 9 13 22 25 25 29 31 26 16 13 11 11 16 15 17 10 8 9 9 12 17 25 23 16 6 2 5 6 1 0 0 0 0 0 0 0 0 0 0 0 0 0 0 0 0 0 0 0 0 0 4 0 0 0 0 0 0 0 0 0 0 0 0 0 3 10 1 1 3 3 3 7 12 12 11 7 3 2 1 0 0 0 0 0 0 0 0 0 0 1 3 8 11 16 22 26 26 32 33 24 15 12 11 13 15 9 16 13 3 6 8 9 18 28 26 19 13 11 10 11 7 1 0 0 0 0 0 0 0 0 0 0 0 0 0 0 0 0 0 0 0 0 1 5 0 0 0 0 0 0 0 0 0 0 0 0 3 10 11 6 7 7 7 11 11 9 6 4 1 0 0 0 0 0 0 0 0 0 0 0 0 1 0 3 9 13 18 24 25 31 31 21 12 8 9 13 10 7 16 8 4 3 6 10 19 30 30 23 21 20 13 12 9 2 0 0 0 0 0 0 0 0 0 0 0 0 0 0 0 0 0 0 3 0 0 1 0 0 0 0 0 0 0 0 0 0 0 0 4 10 16 13 16 14 12 10 9 9 3 0 0 0 0 0 0 0 0 0 0 0 0 0 0 0 0 0 0 7 14 19 21 27 23 15 9 9 9 6 8 9 16 7 1 0 5 10 19 31 32 27 23 24 17 13 14 10 2 0 0 0 0 0 0 0 0 0 0 0 0 0 0 0 0 0 0 0 0 0 0 2 0 0 0 0 0 0 0 0 1 4 8 11 17 17 18 17 15 9 5 4 0 0 0 0 0 0 0 0 0 0 0 0 0 0 0 0 0 0 0 0 5 13 17 21 16 11 3 7 9 1 0 4 16 5 2 0 4 7 18 31 34 30 22 19 18 13 12 13 9 5 1 0 0 0 0 0 0 0 0 0 0 0 0 3 11 5 0 0 0 0 0 2 1 0 0 0 0 0 0 8 9 12 15 18 18 19 18 19 14 7 1 0 0 0 0 0 0 0 0 0 0 0 0 0 0 0 0 0 0 0 0 0 2 8 15 16 10 5 0 2 4 0 0 0 18 6 0 0 1 5 18 30 34 33 26 21 16 12 9 8 8 7 6 0 0 0 0 0 0 0 0 0 0 0 1 8 12 10 0 0 0 1 0 0 6 3 0 0 4 5 6 13 17 17 19 20 20 19 18 16 10 5 0 0 0 0 0 0 0 0 0 0 0 0 0 0 0 0 0 0 0 0 0 0 0 2 12 13 5 0 0 0 0 0 0 0 19 7 2 0 0 4 18 29 34 34 32 25 21 12 9 9 9 8 6 2 0 0 0 0 0 0 0 0 0 0 4 7 9 9 4 0 0 1 7 5 5 10 7 6 10 14 15 17 20 21 23 21 21 18 15 11 4 0 0 0 0 0 0 0 0 0 0 0 0 0 0 0 0 0 0 0 0 0 0 0 0 0 9 9 1 0 0 0 0 0 0 0 25 13 4 0 0 4 14 25 33 34 33 27 21 11 8 9 6 8 6 8 3 0 0 0 0 0 0 0 0 1 3 8 6 8 7 3 2 2 10 15 13 15 15 14 16 20 22 22 22 23 24 23 22 18 14 8 2 0 0 0 0 0 0 0 0 0 0 0 0 0 0 0 0 0 0 0 0 0 0 0 0 0 4 8 0 0 0 0 0 0 0 1 24 16 4 0 0 5 16 22 32 34 35 29 23 17 14 10 9 10 12 13 9 6 2 0 0 0 0 0 0 3 2 6 7 9 10 11 10 13 13 18 20 21 22 22 22 23 25 26 27 28 27 24 22 19 13 7 1 0 0 0 0 0 0 0 0 0 0 0 0 0 0 0 0 0 0 0 0 0 0 0 0 0 3 8 0 0 0 0 0 0 0 0 23 14 3 0 0 5 14 22 30 33 34 33 27 22 20 16 12 12 13 13 11 9 7 3 0 0 0 0 3 5 5 7 9 12 13 14 16 19 21 22 25 25 26 25 24 25 27 26 30 30 28 24 23 19 14 7 2 0 0 0 0 0 0 0 0 0 0 0 0 0 0 0 0 0 0 0 0 0 0 0 0 0 4 6 0 0 0 0 0 0 0 0 24 9 1 0 0 4 13 20 27 30 35 34 29 25 25 21 17 15 15 16 18 14 8 7 2 0 0 3 7 7 7 10 12 14 16 17 17 21 24 25 27 28 27 27 25 24 25 26 30 30 28 25 23 19 14 7 4 0 0 0 0 0 0 0 0 0 0 0 0 0 0 0 0 0 0 0 0 0 0 0 0 0 3 6 0 0 0 0 0 0 0 0 28 5 0 0 0 4 11 17 24 28 35 32 29 26 23 21 22 19 19 20 20 18 14 10 7 4 6 7 12 12 13 15 13 18 19 20 20 23 25 28 28 31 30 29 28 23 22 23 27 27 26 22 21 16 10 8 1 1 1 0 0 0 0 0 0 0 0 0 0 0 0 0 0 0 0 0 0 0 0 0 0 0 1 3 0 0 0 0 0 0 2 0 28 8 0 0 0 4 9 15 21 27 32 30 28 25 22 19 21 22 21 20 19 14 15 15 12 10 11 13 15 18 18 20 20 22 23 22 24 25 28 28 30 31 29 29 27 23 20 20 22 25 22 19 17 13 8 3 0 0 0 0 0 0 0 0 0 0 0 0 0 0 0 0 0 0 0 0 0 0 0 0 0 0 0 0 0 0 0 0 0 0 5 0 23 5 0 1 5 5 9 13 19 25 29 30 28 22 18 18 17 19 19 16 16 13 14 17 14 11 13 16 18 19 22 24 27 27 27 26 28 28 28 29 31 32 29 27 26 20 20 19 19 22 20 18 14 9 5 1 0 0 0 0 0 0 0 0 0 0 0 0 0 0 0 0 0 0 0 0 0 0 0 0 0 0 0 0 0 0 0 0 0 0 0 1 6 0 0 3 8 5 7 11 17 22 25 27 27 23 19 19 16 16 14 12 11 9 12 14 9 9 14 20 22 23 27 28 29 30 30 27 29 28 29 30 30 31 27 24 21 19 20 21 20 20 17 18 14 8 7 3 1 0 0 0 0 0 0 0 0 0 0 0 0 0 0 0 0 0 0 0 0 0 0 0 0 0 0 0 0 0 0 0 0 0 0 2 0 0 0 10 10 5 3 10 13 19 22 24 24 21 19 18 18 15 15 12 9 7 11 11 5 6 12 19 23 25 30 31 31 32 31 29 28 27 30 30 29 29 24 20 16 15 18 20 23 23 19 16 14 9 7 3 2 0 0 0 0 0 0 0 0 0 0 0 0 0 0 0 0 0 0 0 0 0 0 0 0 0 0 0 0 0 0 0 0 2 2 8 0 0 0 16 15 4 4 7 11 16 20 23 22 18 18 18 15 14 14 14 9 6 8 8 6 7 15 20 23 28 31 31 29 28 28 27 26 26 29 31 30 28 24 21 20 20 19 20 22 24 23 19 17 13 7 6 3 3 1 0 0 0 0 0 0 0 0 0 0 0 0 0 0 0 0 0 0 0 0 0 0 0 0 0 0 0 0 0 0 12 19 0 0 0 0 17 18 6 4 5 9 14 17 20 21 17 16 15 13 11 10 11 6 3 5 8 8 8 15 18 22 25 26 26 25 25 24 24 23 25 27 29 29 28 23 24 26 25 23 21 22 22 22 22 17 14 11 7 4 5 2 0 0 2 0 0 0 0 0 0 0 0 0 0 0 0 0 0 0 0 0 0 0 0 1 0 0 0 0 0 0 6 15 0 0 0 0 19 18 5 5 4 9 11 14 15 17 15 14 13 11 9 6 7 2 0 0 8 6 4 8 13 17 18 20 20 22 24 22 20 23 20 22 23 26 26 27 30 30 25 23 22 19 21 22 23 19 14 12 9 6 6 5 1 0 0 2 0 0 0 0 0 0 0 0 0 0 0 0 0 0 0 0 0 0 0 1 0 0 0 0 0 1 14 21 10 0 0 6 20 16 3 5 3 6 9 12 13 13 15 12 10 7 7 2 3 0 0 0 1 1 0 0 6 10 11 12 15 19 18 19 17 15 13 16 21 28 34 34 33 30 28 24 23 20 22 20 21 19 14 8 7 3 6 6 2 2 1 0 0 2 3 0 2 0 1 1 0 0 0 0 0 0 0 0 0 0 0 0 0 0 0 0 0 2 12 16 17 0 0 4 15 12 5 4 3 1 6 8 9 10 10 8 8 3 2 1 0 0 0 0 0 0 0 0 0 1 3 2 6 11 11 12 11 11 15 20 29 36 38 36 35 32 28 27 26 25 24 21 20 16 14 8 3 0 0 2 2 2 4 2 2 6 5 4 6 8 7 6 4 0 0 0 0 0 0 0 2 0 0 0 0 0 0 0 0 1 11 17 10 0 0 8 11 12 8 3 3 0 4 5 5 7 7 5 3 2 0 0 0 0 0 0 0 0 0 0 0 0 0 0 0 0 6 7 10 18 23 25 31 33 36 33 31 31 29 29 30 29 27 25 20 17 15 11 5 0 0 0 0 0 1 3 2 6 7 10 13 10 12 11 9 6 4 2 0 0 1 2 0 0 0 0 0 0 0 0 0 0 4 13 9 0 0 13 14 13 12 7 2 0 0 1 1 3 3 2 1 0 0 0 0 0 0 0 0 0 0 0 0 0 0 0 0 0 0 4 9 16 25 25 25 27 27 27 26 27 30 30 33 31 30 26 20 18 14 11 7 2 0 0 0 0 0 2 0 5 6 10 11 12 12 12 11 10 8 4 2 2 3 5 2 0 0 0 0 0 0 0 0 2 0 7 4 0 5 13 17 17 14 9 3 0 0 0 0 0 0 0 0 0 0 0 0 0 0 0 0 0 0 0 0 0 0 0 0 0 0 0 5 8 14 18 11 15 15 16 18 22 30 29 30 31 29 27 18 12 9 5 4 1 0 0 0 0 0 0 0 2 4 6 8 11 10 11 11 10 10 6 4 4 4 6 5 0 0 0 0 0 0 1 0 4 2 0 3 0 8 16 19 20 17 12 6 0 0 0 0 0 0 0 0 0 0 0 0 0 0 0 0 0 0 0 0 0 0 0 0 0 0 0 0 0 7 14 13 10 11 10 14 18 23 21 25 28 29 27 19 11 3 0 0 0 0 0 0 0 0 0 0 0 1 3 5 7 10 9 9 9 9 7 5 4 5 7 6 0 0 0 0 0 0 0 0 6 0 0 9 4 10 17 19 25 21 15 8 0 0 0 0 0 0 0 0 0 0 0 0 0 0 0 0 0 0 0 0 0 0 0 0 0 0 0 0 0 6 12 19 18 17 18 15 15 15 11 13 21 23 23 15 6 0 0 0 0 0 0 0 0 0 0 0 0 0 0 1 4 5 6 8 8 8 6 5 4 4 5 6 0 0 0 0 0 5 0 0 6 1 0 19 8 8 16 24 28 26 18 9 1 0 0 0 0 0 0 0 0 0 0 0 0 0 0 0 0 0 0 0 0 0 0 0 0 0 0 0 0 0 2 7 10 13 11 11 12 11 8 4 8 17 14 8 0 0 0 0 0 0 0 0 0 0 0 0 0 0 0 0 0 2 3 6 6 6 4 4 5 4 5 3 0 0 0 0 0 0 0 0 9 8 0 21 7 12 16 37 34 29 21 12 2 0 0 0 0 0 0 0 0 0 0 0 0 0 0 0 0 0 0 0 0 0 0 0 0 0 0 0 0 0 0 0 0 0 4 4 6 10 12 7 3 13 10 2 0 0 0 0 0 0 0 0 0 0 0 0 0 0 0 0 0 0 0 2 3 4 1 5 3 4 4 1 0 0 0 0 0 0 0 0 5 5 0 15 9 13 18 41 37 29 26 14 8 0 0 0 0 0 0 0 0 0 0 0 0 0 0 0 0 0 0 0 0 0 0 0 0 2 1 0 0 0 0 0 0 0 2 2 0 8 10 9 3 4 1 0 0 0 0 0 0 0 0 0 0 0 0 0 0 0 0 0 0 0 0 0 0 1 0 1 4 3 3 1 0 0 0 0 0 0 0 0 1 0 0 3 12 9 22 42 36 35 27 19 14 6 2 0 0 0 0 0 0 0 0 0 0 0 0 0 0 0 0 0 0 0 0 0 3 9 7 0 0 0 1 2 0 2 0 2 0 0 6 3 0 0 0 0 0 0 0 0 0 0 0 0 0 0 0 0 0 0 0 0 0 0 0 0 0 0 0 0 1 3 4 0 0 0 0 0 0 0 0 0 0 0 0 4 10 7 23 42 42 34 30 22 20 12 4 4 0 0 0 0 0 0 0 0 0 0 0 0 0 0 0 0 0 0 0 0 4 9 11 8 5 6 6 6 2 2 2 0 0 0 0 0 0 0 0 0 0 0 0 0 0 0 0 0 0 0 0 0 0 0 0 0 0 0 0 0 0 0 0 0 1 3 1 0 3 0 0 0 0 0 0 0 0 0 0 8 2 3 13 29 38 31 30 24 23 17 10 7 4 0 0 0 0 0 0 0 0 0 0 0 0 0 0 0 0 0 0 0 0 0 3 6 3 5 6 5 0 0 0 0 0 0 0 0 0 0 0 0 0 0 0 0 0 0 0 0 0 0 0 0 0 0 0 0 0 0 0 0 0 0 0 0 0 4 0 3 8 0 0 6 1 0 0 0 0 0 0 3 0 1 4 24 30 28 31 26 23 18 14 13 8 0 0 0 0 0 0 0 0 0 0 0 0 0 0 0 0 0 0 0 0 0 0 0 0 0 0 0 0 0 0 0 0 0 0 0 0 0 0 0 0 0 0 0 0 0 0 0 0 0 0 0 0 0 0 0 0 0 0 0 0 0 0 0 0 4 0 6 16 0 1 16 4 0 2 4 0 0 0 0 0 2 4 17 25 27 30 31 24 19 13 13 10 4 0 0 0 0 0 0 0 0 0 0 0 0 0 0 0 0 0 0 0 0 0 0 0 0 0 0 0 0 0 0 0 0 0 0 0 0 0 0 0 0 0 0 0 0 0 0 0 0 0 0 0 0 0 0 0 0 0 0 0 0 0 0 3 7 5 6 10 5 9 20 9 0 1 19 0 0 0 0 1 4 6 15 22 28 30 30 27 22 19 13 6 3 0 0 0 0 0 0 0 0 0 0 0 0 0 0 0 0 0 0 0 0 0 0 0 0 0 0 0 0 0 0 0 0 0 0 0 0 0 0 0 0 0 1 2 1 0 0 0 0 0 0 0 0 0 0 0 0 0 0 0 0 0 0 0 6 12 4 7 26 16 16 17 0 0 31 8 0 1 3 6 5 10 12 21 23 25 28 29 24 21 19 11 6 0 0 0 0 0 0 0 0 0 0 0 0 0 0 0 0 0 0 0 0 0 0 0 0 0 0 0 0 0 0 0 0 0 0 0 0 0 0 0 0 0 1 0 1 0 0 0 0 0 0 0 0 0 0 0 0 0 0 0 0 0 0 0 4 15 6 7 32 28 11 13 0 0 28 22 0 3 5 4 4 7 10 13 19 18 23 26 26 22 20 16 11 4 0 0 0 0 0 0 0 0 0 0 0 0 0 0 0 0 0 0 0 0 0 0 0 0 0 0 0 0 1 0 0 0 0 0 0 0 0 0 0 0 0 0 0 0 0 0 0 0 0 0 0 0 0 0 0 0 0 0 0 0 0 0 3 8 2 0 23 24 10 0 0 0 30 33 6 0 7 0 0 1 6 7 16 15 18 21 21 23 21 15 13 9 3 2 0 0 0 1 2 0 0 0 0 0 0 0 0 0 0 0 0 0 0 0 0 0 0 0 0 0 0 0 0 0 0 0 0 0 0 0 0 0 0 0 0 0 0 0 0 0 0 0 0 0 0 0 0 0 0 0 0 0 0 0 7 0 0 5 18 15 7 0 0 0 23 32 13 0 4 0 0 0 4 6 10 12 16 17 19 18 17 14 12 9 8 3 0 1 2 4 6 7 8 2 0 0 0 0 0 0 0 0 0 0 0 0 0 0 0 0 0 0 0 0 0 0 0 0 0 0 0 0 0 0 0 0 0 0 0 0 0 0 0 0 0 0 0 0 0 0 0 0 0 0 0 4 7 0 0 5 13 9 0 0 0 0 17 29 15 1 3 0 0 2 4 7 4 8 15 16 18 17 17 12 13 8 8 6 0 3 6 6 10 9 11 10 2 0 0 0 0 0 0 0 0 0 0 0 0 0 0 0 0 0 0 0 0 0 0 0 0 0 0 0 0 0 0 0 0 0 0 0 0 0 0 0 0 0 0 0 0 0 0 0 0 0 0 7 4 0 0 2 12 5 0 0 0 0 13 28 23 3 3 0 0 1 4 8 1 7 14 14 16 16 15 13 13 10 8 7 4 2 7 9 12 10 10 14 7 1 0 0 0 0 0 0 0 0 0 0 0 0 0 0 0 0 0 0 0 0 0 0 0 0 0 0 0 0 0 0 0 0 0 0 0 0 0 0 0 0 0 0 0 0 0 0 0 0 6 7 2 0 0 5 8 1 0 0 0 0 14 24 35 5 6 0 0 2 4 5 3 6 14 13 15 12 13 12 12 9 7 6 5 3 4 10 13 12 11 12 10 5 1 0 0 0 0 0 0 0 0 0 0 0 0 0 0 0 0 0 0 0 0 0 0 0 0 0 0 0 0 0 0 0 0 0 0 0 0 0 0 0 0 0 0 0 0 0 0 1 7 6 0 0 4 9 8 0 0 0 0 8 17 27 43 15 3 0 0 2 8 5 3 8 13 17 14 10 9 8 9 7 6 5 4 5 7 8 14 15 13 15 10 9 5 0 1 1 0 0 0 0 0 0 0 0 0 0 0 0 0 0 0 0 0 0 0 0 0 0 0 0 0 0 0 0 0 0 0 0 0 0 0 0 0 0 0 0 0 0 0 3 7 4 2 4 10 9 8 1 0 0 0 13 14 17 40 24 10 0 0 4 9 6 6 7 16 17 14 11 5 6 6 5 2 5 5 6 9 8 10 18 16 15 13 10 12 9 4 5 9 6 5 1 0 0 0 0 0 0 0 0 0 0 0 0 0 0 0 0 0 0 0 0 0 0 0 0 0 0 0 0 0 0 0 0 0 0 0 0 0 0 0 4 8 3 7 11 12 11 10 6 1 0 0 14 13 13 31 26 20 0 0 8 10 10 7 3 21 20 12 12 6 1 2 1 0 2 4 7 8 8 10 15 17 13 16 14 14 15 11 9 8 10 11 9 8 2 3 2 2 0 0 0 0 0 0 0 0 0 0 0 0 0 0 0 0 0 0 0 0 0 0 0 0 0 0 0 0 0 0 0 0 0 1 5 10 10 13 16 14 11 12 8 2 1 5 15 8 12 26 26 24 0 0 8 11 14 5 0 24 22 11 10 8 4 0 0 0 0 0 3 7 8 10 12 14 15 13 17 17 16 17 15 13 11 13 14 14 11 10 9 10 10 10 5 5 4 5 3 1 1 0 0 2 0 0 0 0 0 0 0 0 0 0 0 0 0 0 0 0 0 0 0 0 2 5 8 8 12 18 15 14 13 13 8 0 3 12 20 8 14 29 27 28 0 2 8 14 21 2 0 27 23 12 7 11 12 0 0 0 0 0 0 3 6 7 9 12 13 16 19 20 21 19 18 18 17 17 17 14 13 13 14 12 13 12 10 10 11 12 10 9 8 5 5 4 3 1 2 0 0 0 0 0 0 0 0 0 0 0 0 4 0 0 0 0 5 11 12 13 11 17 16 13 16 17 8 2 10 17 22 10 17 30 29 30 0 0 7 20 26 1 0 28 23 11 8 15 10 0 0 0 0 0 0 0 0 4 6 8 14 20 20 22 23 26 22 19 20 18 19 17 16 17 19 18 17 14 15 14 16 12 13 12 12 6 6 6 3 3 1 0 0 0 0 0 0 0 0 0 0 0 0 7 4 3 0 0 9 14 17 17 15 16 16 16 18 18 8 6 12 21 20 11 22 31 29 33 0 0 9 29 32 1 1 30 23 9 12 18 9 0 0 0 0 0 0 0 0 0 5 6 12 19 21 23 22 26 26 23 22 23 21 22 22 24 21 23 22 19 20 18 17 15 12 12 11 8 8 6 3 0 0 0 0 0 0 0 0 0 0 0 0 3 5 8 10 8 0 4 13 19 26 24 18 15 17 18 19 18 9 12 14 25 17 10 26 34 30 32 0 2 13 37 37 2 0 30 24 9 15 18 7 0 0 0 0 0 0 0 0 0 0 7 15 16 20 23 19 21 24 23 22 25 23 23 23 23 24 21 23 20 18 20 17 15 12 11 10 8 8 3 1 0 0 0 0 0 0 0 0 0 0 0 0 3 5 10 15 12 3 19 26 27 28 30 26 15 17 19 18 12 11 16 21 26 13 12 32 34 31 33 0 7 20 40 41 1 0 32 23 8 16 20 6 0 0 0 0 0 0 0 0 0 0 7 22 18 15 21 20 18 22 21 23 24 24 22 21 21 21 21 20 22 18 18 18 15 12 10 8 6 5 1 0 0 0 0 0 0 0 0 0 0 0 0 0 3 8 12 19 16 8 30 42 35 32 32 33 24 20 18 16 10 16 19 27 25 12 15 35 35 30 35 0 14 25 43 38 0 0 33 27 7 19 18 6 0 0 0 0 0 0 0 0 0 0 6 25 20 15 19 21 19 20 22 23 25 25 22 22 22 24 22 19 21 19 18 16 15 12 10 8 4 3 0 0 0 0 0 0 0 0 0 0 0 0 1 3 5 10 16 22 18 14 39 51 52 42 37 39 33 33 21 12 11 20 23 32 25 14 22 36 34 30 35 5 16 28 42 38 3 1 36 28 12 20 20 3 0 0 0 0 0 0 0 0 0 0 9 22 20 13 16 19 18 17 19 20 22 23 23 22 22 22 21 19 18 19 15 15 13 11 11 5 2 0 0 0 0 0 0 0 0 0 0 0 0 0 5 5 10 17 18 23 19 25 49 51 64 63 53 48 38 34 31 14 15 21 29 30 23 16 30 35 33 29 32 10 19 34 41 39 7 2 37 29 15 22 18 5 0 0 0 0 0 0 0 0 0 0 11 21 16 7 11 15 18 13 12 16 17 21 20 20 19 20 19 17 15 16 12 13 11 7 6 5 0 0 0 0 0 0 0 0 0 0 0 0 0 8 8 11 16 20 17 26 23 38 57 55 64 71 68 71 54 33 33 21 21 22 29 25 20 20 32 33 31 27 30 13 24 37 40 39 15 3 36 33 17 22 18 8 0 0 0 0 0 0 0 0 0 1 12 21 14 8 1 8 12 11 5 10 15 15 16 15 16 17 18 15 12 12 10 10 9 6 6 2 0 0 0 0 0 0 0 0 0 0 0 0 4 12 13 16 21 19 18 27 32 49 61 55 66 75 71 79 76 52 35 32 31 28 28 21 22 25 33 33 30 26 30 20 29 39 35 40 22 6 32 37 19 19 19 8 0 0 0 0 0 0 0 0 0 9 11 17 14 6 0 0 7 6 4 2 9 12 12 12 13 13 13 14 11 8 9 7 6 4 2 0 0 0 0 0 0 0 0 0 0 0 0 2 14 16 20 20 24 21 21 30 42 54 62 58 67 80 76 77 80 63 45 48 45 41 28 20 20 31 36 30 29 26 30 29 32 38 31 39 32 8 28 36 22 15 19 8 0 0 5 7 5 4 0 0 5 13 12 12 13 4 0 0 0 3 1 0 2 5 6 7 9 8 9 9 8 9 6 5 2 0 0 0 0 0 0 0 0 0 0 0 0 0 1 16 17 21 26 24 28 20 22 34 50 54 60 59 67 82 80 77 78 67 58 58 61 58 43 33 23 35 32 29 30 26 27 35 36 36 29 39 37 10 22 33 22 12 19 12 4 16 21 16 10 7 2 0 12 15 12 10 13 6 0 0 0 0 0 0 0 0 0 2 2 3 5 4 5 4 1 1 0 1 1 0 1 0 2 2 2 3 2 2 0 2 15 21 22 26 30 30 27 20 29 42 54 50 62 59 70 82 84 78 74 68 70 71 66 58 58 46 46 45 31 30 27 25 25 36 44 33 29 40 40 13 13 29 28 12 21 29 26 22 24 18 14 9 6 3 15 16 12 12 11 8 3 0 0 0 0 0 0 0 0 0 0 2 3 4 2 1 1 1 0 2 2 2 2 1 4 5 4 7 4 4 4 16 24 22 28 33 34 32 22 21 39 48 50 50 64 61 72 81 84 78 72 72 76 78 79 69 60 61 68 59 44 35 25 27 24 40 48 38 34 42 38 18 4 24 32 25 36 43 31 22 24 21 15 12 10 12 16 15 12 11 12 8 4 0 0 0 0 0 0 0 0 0 0 0 2 2 3 1 2 3 2 3 2 4 4 5 9 8 9 11 10 7 13 26 24 29 32 36 36 30 16 29 46 50 46 52 66 65 72 79 80 75 74 74 82 77 77 84 75 71 78 67 54 47 35 33 26 46 54 46 36 37 40 24 3 23 46 47 40 43 31 22 25 27 21 21 20 16 19 15 12 11 12 11 4 0 0 0 0 0 0 0 0 0 0 0 0 0 1 1 2 3 4 4 4 7 10 9 11 12 17 14 9 14 27 27 29 34 36 36 34 22 20 42 50 48 44 59 67 69 71 77 74 74 76 76 83 74 77 85 83 91 87 73 70 54 44 45 41 45 53 46 39 33 38 29 17 29 52 52 38 41 35 26 34 35 29 26 27 21 20 17 13 11 12 11 5 1 0 0 0 0 0 0 0 0 0 0 0 0 1 1 4 3 6 7 7 10 11 13 15 15 15 12 13 25 29 28 33 36 37 36 27 19 37 49 49 43 48 63 67 71 70 73 73 75 78 79 79 73 79 81 90 93 86 82 79 63 45 46 42 