P2
92
112
255
0 0 0 0 0 0 0 0 0 0 0 0 0 0 0 0 0 0 0 0 0 0 0 0 0 0 0 0 0 0 0 0 0 0 0 0 0 7 0 2 0 0 0 0 0 2 0 0 0 0 2 0 0 0 3 0 0 5 0 0 3 2 0 0 0 0 0 0 0 0 0 0 0 0 0 0 0 0 0 0 0 0 0 0 0 0 0 0 0 0 0 0 0 0 0 0 0 0 0 0 0 0 0 0 0 0 0 0 0 0 0 0 0 0 0 0 0 0 0 0 0 0 0 0 4 0 0 0 0 3 0 2 0 0 0 0 0 2 5 0 0 0 0 1 3 0 4 4 1 4 2 0 4 0 0 0 0 0 0 0 0 0 0 0 0 0 0 0 0 0 0 0 0 0 0 0 0 0 0 0 0 0 0 0 0 0 0 0 0 0 0 0 0 0 0 0 0 0 0 0 0 0 0 0 0 0 0 0 0 0 0 0 1 0 0 0 3 0 0 0 0 0 0 1 0 0 0 0 0 1 6 0 0 0 0 1 5 3 5 8 7 8 5 7 11 0 0 0 0 0 0 0 0 0 0 0 0 0 0 0 0 0 0 0 0 0 0 0 0 0 0 0 0 0 0 0 0 0 0 0 0 0 0 0 0 0 0 0 0 0 0 0 0 0 0 0 0 0 0 0 0 0 0 0 0 0 0 0 0 0 0 0 0 0 0 0 0 0 0 0 0 4 1 0 0 0 2 0 5 0 8 9 7 7 4 12 13 0 1 6 2 3 4 0 0 0 0 0 0 0 0 0 0 0 0 0 0 0 0 0 0 0 0 0 0 0 0 0 0 0 0 0 0 0 0 0 0 0 0 0 0 0 0 0 0 0 0 0 0 0 0 0 0 0 0 0 0 0 0 0 0 0 0 0 0 0 0 0 0 0 0 0 0 4 0 0 0 0 1 0 0 0 8 3 2 1 9 9 8 5 11 7 8 4 6 3 0 0 0 0 0 0 0 0 0 0 0 0 0 0 0 0 0 0 0 0 0 0 0 0 0 0 0 0 0 0 0 0 0 0 0 0 0 0 0 0 0 0 0 0 0 0 0 0 0 0 0 0 0 0 0 0 0 0 0 0 0 0 0 0 0 0 0 0 0 0 0 0 0 0 0 0 0 0 1 0 0 3 8 8 4 7 11 6 9 8 8 6 8 7 2 0 0 0 0 0 0 0 0 0 0 0 0 0 0 0 0 0 0 0 0 0 0 0 0 0 0 0 0 0 0 0 0 0 0 0 0 0 0 0 0 0 0 0 0 0 0 0 0 0 0 0 0 0 0 0 0 0 0 0 0 0 0 0 0 0 0 0 0 0 0 0 0 0 0 0 0 0 0 0 0 3 7 3 7 5 5 4 12 12 14 6 8 8 0 0 0 0 0 0 0 0 0 0 0 0 0 0 0 0 0 0 0 0 0 0 0 0 0 0 0 0 0 0 0 0 0 0 0 0 0 0 0 0 0 0 0 0 0 0 0 0 0 0 0 0 0 0 0 0 0 0 0 0 0 0 0 0 0 0 0 0 0 0 0 0 0 0 0 0 0 0 0 0 0 0 9 5 0 8 14 18 13 7 11 14 5 1 0 0 0 0 0 0 0 0 0 0 0 0 0 0 0 0 0 0 0 0 0 0 0 0 0 0 0 0 0 0 0 0 0 0 0 0 0 0 0 0 0 0 0 0 0 0 0 0 0 0 0 0 0 0 0 0 0 0 0 0 0 0 0 0 0 0 0 0 0 0 0 0 0 0 0 0 0 0 0 0 0 0 1 6 13 20 13 7 12 17 12 4 0 0 0 0 0 0 0 0 0 0 0 0 0 0 0 0 0 0 0 0 0 0 0 0 0 0 0 0 0 0 0 0 0 0 0 0 0 0 0 0 0 0 0 0 0 0 0 0 0 0 0 0 0 0 0 0 0 0 0 0 0 0 0 0 0 0 0 0 0 0 0 0 0 0 0 0 0 0 0 0 0 0 1 8 14 13 12 8 11 13 18 9 3 1 0 0 0 0 0 0 0 0 0 0 0 0 0 0 0 0 0 0 0 0 0 0 0 0 0 0 0 0 0 0 0 0 0 0 0 0 0 0 0 0 0 0 0 0 0 0 0 0 0 0 0 0 0 0 0 0 0 0 0 0 0 0 0 0 0 0 0 0 0 0 0 0 0 0 0 0 0 0 0 0 0 6 5 6 11 8 9 14 10 13 11 7 7 0 0 0 0 0 0 0 0 0 0 0 0 0 0 0 0 0 0 0 0 0 0 0 0 0 0 0 0 0 0 0 0 0 0 0 0 0 0 0 0 0 0 0 0 0 0 0 0 0 0 0 0 0 0 0 0 0 0 0 0 0 0 0 0 0 0 0 0 0 0 0 0 0 0 0 0 0 0 0 0 0 0 7 11 11 12 13 11 7 12 12 8 2 0 0 0 0 0 0 0 0 0 0 0 0 0 0 0 0 0 0 0 0 0 0 0 0 0 0 0 0 0 0 0 0 0 0 0 0 0 0 0 0 0 0 0 0 0 0 0 0 0 0 0 0 0 0 0 0 0 0 0 0 0 0 0 0 0 0 0 0 0 0 0 0 0 0 0 0 0 0 0 0 1 4 7 15 7 14 21 13 10 15 9 6 0 0 0 0 0 0 0 0 0 0 0 0 0 0 0 0 0 0 0 0 0 0 0 0 0 0 0 0 0 0 0 0 0 0 0 0 0 0 0 0 0 0 0 0 0 0 0 0 0 0 0 0 0 0 0 0 0 0 0 0 0 0 0 0 0 0 0 0 0 0 0 0 0 0 0 0 0 0 0 0 0 1 0 5 8 13 16 18 14 10 12 8 5 0 0 0 0 0 0 0 0 0 0 0 0 0 0 0 0 0 0 0 0 0 0 0 0 0 0 0 0 0 0 0 0 0 0 0 0 0 0 0 0 0 0 0 0 0 0 0 0 0 0 0 0 0 0 0 0 0 0 0 0 0 0 0 0 0 0 0 0 0 0 0 0 0 0 0 0 0 0 0 0 0 0 0 5 8 12 15 12 13 13 15 13 3 0 0 0 0 0 0 0 0 0 0 0 0 0 0 0 0 0 0 0 0 0 0 0 2 0 0 0 0 0 0 0 0 0 0 0 0 0 0 0 0 0 0 0 0 0 0 0 0 0 0 0 0 0 0 0 0 0 0 0 0 0 0 0 0 0 0 0 0 0 0 0 0 0 0 0 0 0 0 0 0 0 2 0 1 3 5 7 13 14 23 13 12 9 0 0 0 0 0 0 0 0 0 0 0 0 0 0 0 0 0 0 0 0 0 0 0 0 0 0 0 0 0 0 0 0 0 0 0 0 0 0 0 0 0 0 0 0 0 0 0 0 0 0 0 0 0 0 0 0 0 0 0 0 0 0 0 0 0 0 0 0 0 0 0 0 0 0 0 0 0 0 0 0 0 0 0 2 7 7 9 16 17 21 6 11 6 0 0 0 0 0 0 0 0 0 0 0 0 0 0 0 0 0 0 0 0 0 0 0 0 0 0 0 0 0 0 0 0 0 0 0 0 0 0 0 0 0 0 0 0 0 0 0 0 0 0 0 0 0 0 0 0 0 0 0 0 0 0 0 0 0 0 0 0 0 0 0 0 0 0 0 0 0 0 0 0 0 0 0 4 3 0 13 17 12 10 2 5 3 0 1 0 0 0 0 0 0 0 0 0 0 0 0 0 0 0 0 0 0 0 0 0 0 0 0 0 0 0 0 0 0 0 0 0 0 0 0 0 0 0 0 0 0 0 0 0 0 0 0 0 0 0 0 0 0 0 0 0 0 0 0 0 0 0 0 0 0 0 0 0 0 0 0 0 0 0 0 0 0 0 0 0 0 0 2 17 5 7 15 0 4 2 0 0 0 0 0 0 0 0 0 0 0 0 0 0 0 0 0 0 0 0 0 0 0 0 0 0 0 0 0 0 0 0 0 0 0 0 0 0 0 0 0 0 0 0 0 0 0 0 0 0 0 0 0 0 0 0 0 0 0 0 0 0 0 0 0 0 0 0 0 0 0 0 0 0 0 0 0 0 0 0 0 0 0 0 0 2 5 8 20 12 0 5 3 0 0 0 0 0 0 0 0 0 0 0 0 0 0 0 0 0 0 0 0 0 0 0 0 0 0 0 0 0 0 0 0 0 0 0 0 0 0 0 0 0 0 0 0 0 0 0 0 0 0 0 0 0 0 0 0 0 0 0 0 0 0 0 0 0 0 0 0 0 0 0 0 0 0 0 0 0 0 0 0 0 0 0 0 3 3 7 11 17 10 0 5 2 0 0 0 0 0 0 0 0 0 0 0 0 0 0 0 0 0 0 0 0 0 0 0 0 0 0 0 0 0 0 0 0 0 0 0 0 0 0 0 0 0 0 0 0 0 0 0 0 0 0 0 0 0 0 0 0 0 0 0 0 0 0 0 0 0 0 0 0 0 0 0 0 0 0 0 0 0 0 0 0 0 0 0 7 5 5 10 17 14 13 1 4 0 0 0 0 0 0 0 0 0 0 0 0 0 0 0 0 0 0 0 0 0 0 0 0 0 0 0 0 0 0 0 0 0 0 0 0 0 0 0 0 0 0 0 0 0 0 0 0 0 0 0 0 0 0 0 0 0 0 0 1 2 4 7 7 8 8 17 15 16 11 5 0 0 0 0 0 0 0 0 0 0 0 0 0 5 0 7 14 20 11 7 2 0 0 0 0 0 0 0 0 0 0 0 0 0 0 0 0 0 0 0 0 0 0 0 0 0 0 0 0 0 0 0 0 0 0 0 0 0 0 0 0 0 0 0 0 0 0 0 0 0 0 0 0 0 4 6 8 10 14 12 14 16 14 18 17 16 19 27 27 27 24 23 17 9 0 0 0 0 0 0 0 0 0 0 0 0 5 8 15 15 20 4 6 1 1 0 1 0 0 0 0 0 0 0 0 0 0 0 0 0 0 0 0 0 0 0 0 0 0 0 0 0 0 0 0 0 0 0 0 0 0 0 0 0 0 0 0 0 0 0 0 0 0 5 10 13 16 19 18 20 21 23 22 22 23 21 25 24 28 31 36 35 34 32 29 22 14 0 0 0 0 0 0 0 0 0 0 0 0 11 18 24 16 4 8 7 2 4 0 0 0 0 0 0 0 0 0 0 0 0 0 0 0 0 0 0 0 0 0 0 0 0 0 0 0 0 0 0 0 0 0 0 0 0 0 0 0 0 0 0 0 0 0 3 7 9 12 15 16 18 19 18 20 22 23 21 25 25 27 30 33 35 41 42 40 38 41 33 26 19 0 0 0 0 0 0 0 0 0 0 0 0 22 26 22 10 0 7 13 5 0 0 0 0 0 0 0 0 0 0 0 0 0 0 0 0 0 0 0 0 0 0 0 0 0 0 0 0 0 0 0 0 0 0 0 0 0 0 0 0 0 0 0 0 0 5 6 7 12 13 15 17 17 19 20 22 22 24 25 26 28 33 35 37 43 44 44 45 43 45 41 32 15 5 0 0 0 0 0 0 0 0 0 4 18 21 25 17 10 0 5 17 2 0 0 0 0 0 0 0 0 0 0 0 0 0 0 0 0 0 0 0 0 0 0 0 0 0 0 0 0 0 0 0 0 0 0 0 0 0 0 0 0 0 0 0 1 5 5 8 11 11 14 16 16 19 20 20 23 25 28 26 31 34 36 38 40 43 44 47 48 46 50 45 29 19 0 0 0 0 0 0 0 0 0 0 19 18 10 14 8 10 3 5 7 0 0 0 0 0 0 0 0 0 0 0 0 0 0 0 0 0 0 0 0 0 0 0 0 0 0 0 0 0 0 0 0 0 0 0 0 0 0 0 0 0 0 0 1 4 6 8 9 8 12 13 14 14 19 19 21 24 25 29 28 32 36 39 41 43 45 47 50 48 51 53 44 31 13 0 0 0 0 0 0 0 2 14 5 20 19 8 18 16 15 5 0 0 0 0 0 0 0 0 0 0 0 0 0 0 0 0 0 0 0 0 0 0 0 0 0 0 0 0 0 0 0 0 0 0 0 0 0 0 0 0 0 0 0 0 1 4 7 7 8 10 11 12 13 15 19 19 22 23 25 26 28 29 33 38 39 43 44 47 48 51 51 54 53 41 29 2 0 0 0 0 0 0 0 13 17 10 24 14 8 9 13 12 0 0 2 0 0 0 0 0 0 0 0 0 0 0 0 0 0 0 0 0 0 0 0 0 0 0 0 0 0 0 0 0 0 0 0 0 0 0 0 0 0 0 0 0 4 6 7 8 10 10 13 12 14 14 19 20 21 25 25 27 31 31 31 36 39 41 42 45 48 52 54 55 57 50 36 18 0 0 0 0 0 0 0 6 19 18 8 25 8 1 9 10 0 0 6 0 0 0 0 0 0 0 0 0 0 0 0 0 0 0 0 0 0 0 0 0 0 0 0 0 0 1 1 3 4 4 2 1 0 0 0 0 0 0 2 2 3 7 7 8 9 9 12 11 13 14 19 20 22 24 25 26 29 30 32 35 39 42 44 45 48 51 54 56 59 54 45 30 5 0 0 0 0 0 0 0 11 20 11 11 16 11 13 12 0 0 1 0 0 0 0 0 0 0 0 0 0 0 0 0 0 0 0 0 0 0 0 0 0 0 0 0 2 3 6 6 7 4 4 0 1 0 0 0 0 3 3 5 7 9 9 9 10 11 13 14 15 17 19 23 24 27 28 28 27 29 30 33 37 41 44 48 50 52 56 57 59 59 48 42 18 0 0 0 0 0 9 0 3 15 18 9 9 14 9 14 1 0 0 0 0 0 0 0 0 0 0 0 0 0 0 0 0 0 0 0 0 0 0 0 0 1 2 6 9 8 9 10 6 6 5 2 4 3 2 2 3 4 6 6 8 9 11 11 12 12 13 14 16 17 18 21 23 27 27 31 29 31 33 35 40 42 44 46 51 53 59 59 58 60 54 49 34 6 0 0 0 0 0 10 0 9 12 24 0 5 9 3 0 5 0 0 0 0 0 0 0 0 0 0 0 0 0 0 0 0 0 0 0 5 3 4 3 6 8 10 13 11 11 9 7 9 9 9 6 6 6 4 7 8 9 9 10 10 11 12 12 13 15 15 16 16 18 21 24 25 27 30 31 33 36 37 41 42 46 47 52 54 59 61 59 59 58 53 44 23 0 0 0 0 11 3 0 4 7 16 18 0 9 1 0 4 0 0 0 0 3 0 0 0 0 0 0 0 0 0 0 0 0 0 3 5 5 5 7 10 12 13 14 10 10 12 11 12 13 14 10 10 10 9 10 9 9 10 11 11 12 13 14 13 14 15 14 15 14 18 21 23 26 29 27 34 35 37 41 45 44 46 52 56 58 63 61 59 59 55 52 34 9 0 0 0 20 7 0 0 2 10 21 11 3 7 0 0 0 0 0 0 8 0 0 0 0 0 0 0 0 0 0 0 0 0 3 4 4 5 7 9 10 11 12 10 13 15 15 14 15 15 14 13 14 12 11 12 10 11 10 10 13 12 11 13 14 12 11 11 12 14 15 18 21 26 28 32 35 38 40 42 44 47 52 54 59 62 61 60 59 58 55 44 23 0 0 0 9 17 1 0 9 12 9 9 3 2 6 1 0 0 0 0 0 0 0 0 0 0 0 0 0 0 0 0 0 0 1 4 2 2 5 7 5 8 10 12 12 13 15 14 14 16 17 14 16 14 14 14 13 12 11 11 12 13 11 12 12 9 9 9 11 11 14 15 17 22 26 28 30 33 38 41 44 46 51 54 58 62 62 61 60 60 57 52 33 9 0 1 12 9 1 0 0 15 6 0 1 2 1 1 1 0 0 0 0 0 0 0 0 0 0 0 0 0 0 0 0 0 2 4 4 4 4 5 5 7 10 13 10 13 14 15 16 16 18 14 15 17 15 15 14 13 12 11 11 13 10 9 10 9 8 9 9 10 12 15 17 19 20 25 26 31 34 35 40 41 47 51 57 60 62 61 61 60 57 55 43 17 0 0 17 2 5 0 5 10 6 0 2 1 2 0 0 0 0 0 0 0 0 0 0 0 0 0 0 0 0 0 0 0 2 3 4 2 2 3 3 5 8 12 11 12 13 17 17 17 18 16 16 16 17 14 14 15 9 10 8 10 8 5 6 7 4 5 5 5 10 13 16 20 20 25 28 31 31 33 36 39 44 50 55 58 61 63 62 61 57 60 50 29 5 0 5 1 2 7 0 11 2 0 0 3 1 0 0 0 0 0 0 0 0 0 0 0 0 0 0 0 0 0 0 3 5 5 4 3 0 2 4 3 7 9 12 11 14 18 17 16 18 17 17 18 15 15 12 11 9 8 8 7 6 3 4 3 3 3 4 6 10 13 18 20 22 25 28 32 32 34 36 39 40 46 53 59 60 63 63 61 57 58 62 39 14 6 3 0 0 5 2 3 9 0 0 7 0 0 0 0 0 0 0 0 0 0 0 0 0 0 0 0 0 0 0 5 7 5 6 5 5 0 6 5 7 10 13 14 15 17 18 19 16 19 18 18 14 14 11 8 7 8 5 5 3 1 4 4 5 6 6 10 15 18 19 22 22 24 29 31 31 34 36 37 39 43 46 57 65 65 67 61 61 55 62 49 17 7 7 0 0 0 0 4 3 1 1 0 0 2 0 0 0 0 0 0 0 0 0 0 0 0 0 0 0 0 0 6 10 8 9 10 9 7 8 11 10 11 18 18 17 20 20 21 18 21 19 19 16 13 11 8 6 7 4 4 1 2 4 5 6 9 10 15 17 19 23 21 23 24 26 27 28 30 32 34 38 41 42 47 59 65 67 64 62 57 60 56 20 0 8 2 0 0 0 0 0 0 0 0 0 0 0 0 0 0 0 0 0 0 0 0 0 0 0 0 0 0 1 11 13 16 16 16 18 17 17 18 18 20 21 22 20 20 22 22 21 22 20 20 16 14 12 10 7 7 3 4 1 3 5 4 4 6 9 13 17 20 22 23 23 24 23 20 23 28 22 25 34 40 48 47 51 62 63 62 64 59 56 61 25 2 0 1 0 1 0 0 0 0 0 0 0 0 0 0 0 0 0 0 0 0 0 0 0 0 0 0 0 0 4 14 15 17 16 18 17 20 19 18 16 20 19 20 20 21 21 22 23 22 21 20 16 12 12 12 9 8 4 3 4 3 2 4 4 5 7 8 13 14 13 15 10 14 13 10 8 14 12 12 20 28 37 45 43 56 56 53 54 53 52 61 34 0 3 0 0 0 0 0 0 0 0 0 0 0 0 0 0 0 0 0 0 0 0 0 0 0 0 0 0 0 2 14 11 13 14 11 9 7 8 6 6 10 14 13 16 16 18 19 18 19 17 16 13 8 8 7 1 0 0 0 0 0 0 0 0 0 0 0 0 0 0 0 0 0 0 0 0 0 0 5 19 26 32 36 35 48 57 59 55 50 42 54 45 0 0 0 0 0 0 0 0 0 0 0 0 0 0 0 0 0 0 0 0 0 0 0 0 0 0 0 0 0 0 12 12 8 8 3 0 0 0 0 0 0 0 0 0 0 1 1 0 5 2 1 2 0 0 0 0 0 0 0 0 0 0 0 0 0 0 0 0 0 0 0 0 0 0 0 0 0 0 0 8 17 26 25 18 32 49 55 57 61 49 50 46 2 0 0 0 0 0 0 0 0 0 0 0 0 0 0 0 0 0 0 0 0 0 0 0 0 1 0 0 0 0 12 8 0 0 0 0 0 0 0 0 0 0 0 0 0 0 0 0 4 4 0 0 0 0 0 0 0 0 0 0 0 0 0 0 0 0 0 0 0 0 0 0 0 0 0 0 0 0 0 0 1 9 10 13 23 38 46 50 59 53 51 46 13 0 0 0 0 0 0 0 0 0 0 0 0 0 0 0 0 0 0 0 0 0 0 0 0 2 0 0 0 0 0 0 0 0 7 0 0 0 0 0 0 0 0 0 0 0 0 0 0 0 0 0 0 0 0 0 0 0 0 0 0 0 0 0 0 0 0 0 0 0 0 0 0 0 0 0 0 0 0 0 0 0 1 9 21 34 43 44 53 58 50 46 18 0 0 0 0 0 0 0 0 0 0 0 0 0 0 0 0 0 0 0 0 0 0 0 0 4 0 0 0 0 0 0 5 0 0 0 0 0 0 0 0 0 0 0 0 0 0 0 0 0 0 0 0 0 0 0 0 0 0 0 0 0 0 0 0 0 0 0 0 0 0 0 0 0 0 0 0 0 0 0 0 0 0 1 11 25 38 42 47 59 55 44 27 0 0 0 0 0 0 0 0 0 0 0 0 0 0 0 0 0 0 0 0 0 0 0 0 6 0 0 0 0 0 0 0 0 0 0 0 0 0 0 0 0 0 0 0 0 0 0 0 0 0 0 0 0 0 0 0 0 0 0 0 0 0 0 0 0 0 0 0 0 0 0 0 0 0 0 0 0 0 0 0 3 8 0 6 18 30 39 43 52 62 49 26 0 0 0 0 0 0 0 0 0 0 0 0 0 0 0 0 0 0 0 0 0 0 0 0 5 0 0 0 0 2 0 0 0 0 0 0 0 0 0 0 0 0 0 0 0 0 0 0 0 0 0 0 0 2 0 0 0 0 0 0 0 0 0 0 0 0 0 0 0 0 0 0 0 0 0 0 0 0 0 0 0 5 11 5 13 24 39 46 49 65 62 24 8 0 0 0 0 0 0 0 0 0 0 0 0 0 0 0 0 0 0 0 0 0 0 0 0 0 0 0 0 1 4 0 0 0 0 0 0 0 0 0 0 0 0 0 0 0 0 0 0 0 0 0 1 8 4 0 2 6 6 4 6 0 0 0 0 0 0 0 0 0 0 0 0 0 0 0 0 0 0 10 2 0 4 3 17 28 39 50 51 66 71 25 19 0 0 0 0 0 0 0 0 0 0 0 0 0 0 0 0 0 0 0 0 0 0 0 0 0 0 0 0 0 0 0 0 0 0 0 0 0 0 0 0 0 0 0 0 0 0 0 0 0 0 0 0 4 4 0 7 8 9 10 15 10 0 0 0 0 0 0 0 0 0 0 0 0 0 0 0 0 0 10 10 3 9 13 14 30 47 55 52 62 73 38 12 0 0 0 0 0 0 0 0 0 0 0 0 0 0 0 0 0 0 0 0 0 0 0 0 0 0 0 0 0 0 0 0 0 0 0 0 0 0 0 0 0 0 0 0 0 0 0 0 0 0 0 0 0 0 6 10 11 10 15 22 14 0 0 0 0 0 0 0 0 0 0 0 0 0 0 0 0 8 10 8 13 25 28 29 40 50 59 53 64 72 52 10 3 0 0 0 0 0 0 0 0 0 0 0 0 0 0 0 0 0 0 0 0 0 0 0 0 0 0 0 0 0 0 0 0 0 0 0 0 0 0 0 0 0 0 0 0 0 0 0 0 0 0 0 0 0 16 16 12 12 11 16 14 12 0 0 0 0 0 0 0 0 0 0 0 0 0 0 7 14 15 25 36 39 41 41 47 54 63 57 64 72 55 23 0 0 0 0 0 0 0 0 0 0 0 0 0 0 0 0 0 0 0 0 0 0 0 0 0 0 0 0 0 0 0 0 0 0 0 0 0 0 0 0 0 0 0 0 0 0 0 0 0 0 0 0 0 2 20 18 17 11 13 14 13 21 0 0 0 0 0 0 0 0 0 0 0 0 0 0 8 17 28 36 47 48 51 49 54 60 66 57 66 71 64 25 5 0 0 0 0 0 0 0 0 0 0 0 0 0 0 0 0 0 0 0 0 0 0 0 0 0 0 0 0 0 0 0 0 0 0 0 0 0 0 0 0 0 0 0 0 0 0 0 0 0 0 0 0 4 18 21 18 12 16 13 13 18 21 0 0 0 0 0 0 0 0 0 0 0 1 6 14 23 32 37 45 48 51 52 58 61 67 60 62 67 71 28 9 0 0 0 0 0 0 0 0 0 0 0 0 0 0 0 0 0 0 0 0 0 0 0 0 0 0 0 0 0 0 0 0 0 0 0 0 0 0 0 0 0 0 0 0 0 0 0 0 0 0 0 1 8 13 19 16 14 14 14 17 17 22 12 0 5 1 0 0 0 0 2 5 5 9 10 16 22 30 35 40 47 50 55 58 60 66 63 57 63 69 42 13 2 2 0 0 10 6 10 0 0 0 0 0 0 0 0 0 0 0 0 0 0 0 0 0 0 0 0 0 0 0 0 0 0 0 0 0 0 0 0 0 0 0 0 0 0 0 0 0 0 0 0 8 10 8 11 12 13 13 13 18 18 20 22 10 5 11 13 7 8 10 15 18 20 22 23 26 30 34 37 43 46 52 54 55 59 64 62 56 57 67 51 17 18 22 5 7 31 10 1 0 0 0 0 0 0 0 0 0 0 0 0 0 0 0 0 0 0 1 0 0 0 0 0 0 0 0 0 0 0 0 0 0 0 0 0 0 0 0 0 0 0 0 4 11 10 9 8 13 13 15 15 18 20 22 24 24 9 14 19 15 15 17 19 20 24 26 27 31 32 35 38 43 47 50 52 54 57 62 63 52 51 66 48 32 48 38 28 34 48 6 0 0 0 0 0 0 0 0 0 0 0 0 0 0 0 0 0 0 0 1 0 0 0 0 0 0 0 0 0 0 0 0 0 0 0 0 0 0 0 0 0 0 0 0 4 7 9 8 14 16 13 15 16 16 20 23 26 27 21 8 18 17 16 19 20 19 22 26 27 30 31 34 36 40 42 46 48 51 55 59 62 51 49 59 46 56 63 48 57 55 54 19 0 4 0 0 0 0 0 0 0 0 0 0 0 0 0 0 0 0 0 2 0 0 0 0 0 0 0 0 0 0 0 0 0 0 0 0 0 0 0 0 0 0 0 0 0 5 7 8 10 19 18 14 16 18 18 25 26 24 26 15 9 14 15 18 19 20 21 26 26 27 31 33 33 38 40 43 46 49 53 55 61 53 48 48 54 53 58 55 73 68 66 21 0 5 0 0 0 0 0 0 0 0 0 0 0 0 0 0 0 0 0 3 0 0 0 0 0 0 0 0 0 0 0 0 0 0 0 0 0 0 0 0 0 0 0 0 0 0 0 8 7 14 17 12 12 16 19 21 22 21 23 22 11 9 9 13 17 18 22 24 24 26 29 32 31 36 39 41 46 48 50 53 57 53 49 45 55 42 51 67 79 72 75 46 16 10 0 0 0 0 0 0 0 0 0 0 0 0 0 0 0 0 0 4 0 0 0 0 0 0 0 0 0 0 0 0 0 0 0 0 0 0 0 0 0 0 0 0 0 0 0 0 2 1 5 0 0 5 10 16 17 18 17 21 16 10 10 5 9 15 19 22 23 25 27 30 31 33 36 38 43 47 48 49 53 52 40 49 55 45 55 66 82 69 62 53 40 8 0 0 0 0 0 0 0 0 0 0 0 0 0 0 0 3 0 0 0 0 0 0 0 0 0 0 0 0 0 0 0 0 0 0 0 0 0 0 0 0 0 0 0 0 0 0 0 0 0 0 0 0 0 4 4 8 8 15 12 8 4 6 0 8 15 18 19 23 26 28 32 33 32 37 41 44 44 48 49 48 45 55 61 55 50 50 71 68 56 52 51 7 0 0 0 0 0 0 0 0 0 0 0 0 0 0 8 11 4 0 0 0 0 0 0 0 0 0 0 0 0 0 0 0 0 0 0 1 0 0 0 0 0 0 0 0 0 0 0 0 0 0 0 0 0 0 0 0 0 1 4 7 4 4 2 0 7 11 16 21 23 27 29 33 32 39 40 43 42 43 45 51 54 57 65 57 28 34 45 61 55 53 49 11 0 0 0 0 0 0 0 0 0 0 0 0 0 0 12 12 7 0 0 0 0 0 0 0 0 0 0 0 0 0 0 0 0 0 5 0 0 0 0 0 0 0 0 0 0 0 0 0 0 0 0 0 0 0 0 0 0 0 0 0 4 3 3 2 3 6 8 14 16 18 26 32 31 38 41 37 38 43 47 50 54 56 65 57 23 17 30 44 49 55 42 20 0 0 0 0 0 0 0 0 0 0 0 0 0 0 13 11 4 4 0 1 0 0 0 0 0 1 1 0 0 0 0 0 0 2 0 0 0 0 0 0 0 0 0 0 0 0 0 0 0 0 0 0 0 0 0 0 0 0 0 0 0 3 5 4 5 4 8 15 16 15 21 25 26 33 38 36 40 43 46 51 51 56 65 58 30 11 23 33 38 53 34 35 0 0 0 0 0 0 0 0 0 0 0 0 0 5 14 9 4 3 0 0 0 0 0 0 0 3 2 0 0 0 0 0 0 0 0 0 0 0 0 0 0 0 0 0 0 0 0 0 0 0 0 0 0 0 0 0 0 0 0 0 0 7 6 6 4 7 8 15 18 20 22 27 28 34 38 39 40 43 46 51 49 53 60 62 36 22 32 36 34 46 34 44 0 0 0 0 0 0 0 0 0 0 0 0 0 4 12 10 4 2 1 0 0 0 0 0 0 0 0 0 0 0 0 0 0 0 0 0 0 0 0 0 0 0 0 0 0 0 0 0 0 0 0 0 0 0 0 0 0 0 0 0 6 12 12 10 8 11 11 15 19 22 25 29 31 35 36 42 42 44 44 53 52 46 54 55 44 20 40 37 27 35 36 49 3 0 0 0 0 0 0 0 0 0 0 0 0 3 15 13 0 0 6 1 1 0 0 0 0 0 0 0 0 0 0 0 0 0 0 0 0 0 0 0 0 0 0 0 0 0 0 0 0 0 0 0 0 2 4 3 7 11 7 13 19 17 17 19 15 16 17 17 23 22 25 30 34 35 41 42 44 44 46 56 52 47 53 56 42 28 40 47 31 24 35 51 1 0 0 0 0 0 0 0 1 0 0 0 0 4 19 10 0 0 9 4 3 0 0 1 2 4 1 0 0 0 0 0 0 0 0 0 0 0 0 0 0 0 0 0 0 0 0 0 0 0 0 0 7 13 19 22 22 24 21 24 27 24 24 23 23 23 20 21 25 24 25 31 36 37 40 43 45 45 51 54 59 50 55 55 48 38 50 58 48 37 47 56 1 0 0 0 0 0 0 0 6 0 0 0 0 10 22 0 0 0 9 7 5 2 3 4 5 6 3 2 0 1 2 3 3 1 0 0 0 0 0 0 0 0 0 0 0 0 0 0 0 0 0 6 11 13 20 24 26 28 29 30 30 31 30 28 27 26 24 24 25 25 32 35 36 40 38 41 45 45 52 54 63 57 56 49 46 48 58 79 63 50 56 45 2 0 0 0 0 0 0 0 8 2 0 0 0 17 21 0 0 0 9 9 5 4 5 6 6 7 4 5 5 4 5 7 6 5 2 0 3 0 1 2 1 0 0 0 0 0 0 2 7 6 3 9 12 12 16 22 27 29 30 31 31 34 34 32 27 28 27 25 27 26 32 37 38 39 40 40 45 45 51 56 65 63 58 48 50 53 76 100 77 54 55 48 0 0 0 0 0 0 0 0 11 4 0 0 2 18 15 0 0 0 6 10 6 3 7 6 7 8 7 8 9 7 7 8 7 6 4 3 4 4 4 4 6 1 0 5 5 3 9 9 13 11 12 15 14 18 17 24 29 29 32 33 34 35 33 32 30 28 30 25 29 26 28 35 37 38 42 44 45 46 52 57 63 63 62 56 55 61 79 104 80 50 62 45 0 0 0 0 0 0 0 0 16 9 0 0 12 15 15 0 0 0 3 12 6 5 8 9 6 10 11 10 9 8 7 6 3 2 3 0 3 5 8 5 6 3 3 9 11 13 17 20 21 20 17 20 21 21 25 29 33 34 36 39 36 37 37 32 28 27 26 27 29 27 23 33 36 36 41 47 47 48 56 58 61 63 57 67 65 64 84 95 76 56 60 32 0 0 0 0 0 0 0 0 14 15 9 1 8 14 15 1 5 1 0 10 6 5 7 10 9 11 13 10 8 7 6 4 3 0 0 0 0 4 6 7 5 7 7 11 14 16 19 20 23 24 16 17 19 16 19 24 27 27 33 36 32 36 36 32 26 25 25 22 27 25 24 27 33 32 41 49 49 52 57 58 58 65 55 67 72 73 86 81 76 68 55 9 0 0 0 0 0 0 0 6 7 20 13 11 7 19 15 6 18 7 1 7 6 5 6 10 9 10 9 7 6 6 4 2 0 0 0 0 0 1 6 6 5 7 3 8 5 5 2 0 3 5 1 0 0 0 2 8 9 12 16 23 22 26 28 26 21 20 21 15 19 19 23 23 32 35 39 49 48 53 56 64 57 62 52 60 69 77 76 67 73 69 29 0 0 0 0 0 0 0 0 2 5 16 21 19 7 23 17 22 23 9 3 3 4 2 1 8 8 5 6 6 2 1 0 0 0 0 0 0 0 0 2 0 0 0 0 0 0 0 0 0 0 0 0 0 0 0 0 0 0 0 0 7 11 10 15 12 13 12 16 11 10 17 18 21 32 35 41 49 50 54 57 65 53 51 41 53 60 65 62 64 66 45 2 0 0 0 0 0 0 0 0 0 0 10 26 21 14 20 18 20 24 15 12 1 0 0 0 0 1 0 5 4 2 1 0 0 0 0 0 0 0 0 0 0 0 0 0 0 0 0 0 0 0 0 0 0 0 0 0 0 0 0 0 0 0 0 2 0 0 0 7 6 4 11 18 22 30 36 41 51 53 55 62 65 40 43 30 44 43 43 47 42 28 2 0 0 0 0 0 0 0 0 0 0 0 2 21 24 17 11 22 13 25 15 11 2 0 0 0 0 0 5 5 5 6 1 0 0 0 0 0 0 0 0 0 0 0 0 0 0 0 0 0 0 0 0 0 0 0 0 0 0 0 0 0 0 0 0 0 0 0 0 0 0 0 7 16 25 33 36 44 48 54 55 61 61 31 38 17 32 25 22 18 0 0 0 0 0 0 0 0 0 0 0 0 0 0 0 20 21 16 7 18 18 32 22 10 0 0 0 1 0 4 7 8 9 6 0 0 0 0 0 0 0 0 0 0 0 0 0 0 0 0 0 0 0 0 0 0 0 0 0 0 0 6 11 5 9 10 3 1 4 0 0 3 5 4 10 21 28 34 39 44 48 57 50 63 51 28 37 15 26 13 12 0 0 0 0 0 0 0 0 0 0 0 0 0 0 0 0 15 20 16 11 10 15 30 28 10 0 0 0 3 0 8 11 14 13 11 4 0 0 0 0 0 0 0 0 0 0 0 0 0 0 0 0 0 0 0 2 0 0 3 6 4 1 13 23 13 13 15 8 9 17 15 13 17 23 22 21 26 32 37 43 45 51 59 45 57 45 28 36 15 26 12 6 0 0 0 0 0 0 0 0 0 0 0 0 0 0 0 0 7 14 16 13 0 11 17 21 9 0 0 13 8 5 9 17 17 18 14 6 0 0 0 0 0 0 0 0 0 0 0 0 4 4 1 0 0 0 0 0 0 0 0 6 7 4 11 25 26 29 25 21 17 18 22 22 26 26 28 30 29 32 38 43 46 51 57 47 51 36 24 36 11 20 4 0 0 0 0 0 0 0 0 0 0 0 0 0 0 0 0 0 1 4 7 6 0 1 15 17 3 0 0 22 17 10 10 18 22 23 19 9 1 0 0 0 0 0 0 0 0 0 2 7 7 9 8 6 5 3 3 2 0 0 0 0 5 4 11 24 31 35 41 36 33 33 26 25 30 31 29 32 35 35 42 41 47 53 54 47 52 32 29 25 13 15 0 0 0 0 0 0 0 0 0 0 0 0 0 0 0 0 0 0 0 1 0 1 0 0 4 12 4 0 0 27 22 14 14 20 24 24 22 15 8 9 8 3 0 0 0 0 6 8 10 12 9 8 9 6 9 7 5 5 5 3 0 0 4 6 14 24 31 36 39 45 40 42 40 37 33 34 35 36 37 42 41 44 46 55 51 49 49 30 34 21 15 16 0 0 0 0 0 0 0 0 0 0 0 0 0 0 0 0 0 0 0 1 0 0 0 0 0 5 2 0 0 21 25 18 16 19 25 24 23 18 12 13 12 8 0 0 0 7 15 18 16 16 13 11 10 9 8 9 6 4 4 8 0 0 7 12 18 24 30 30 36 41 42 44 45 42 40 36 40 39 40 45 44 44 51 56 45 50 50 29 34 16 18 14 0 0 0 0 0 0 0 0 0 0 0 0 0 0 0 0 0 0 0 1 0 0 0 0 0 2 4 0 0 9 27 21 18 20 21 23 22 16 12 12 13 6 2 5 8 16 18 18 17 16 14 14 13 12 9 10 7 4 6 8 5 8 15 18 24 25 30 29 36 40 40 44 45 43 41 40 42 40 39 42 46 48 53 55 41 54 47 29 31 12 21 7 0 0 0 0 0 0 0 0 0 0 0 0 0 0 0 0 0 0 0 0 0 0 0 0 0 0 0 0 0 0 27 22 20 20 20 22 18 18 11 10 13 10 6 11 16 17 16 17 13 13 15 13 13 12 11 12 12 10 12 12 12 15 21 22 25 26 31 31 37 40 41 44 43 42 42 41 45 44 39 45 47 49 58 52 40 57 40 29 25 11 21 1 0 0 0 0 0 0 0 0 0 0 0 0 0 0 0 0 0 0 0 0 4 0 0 0 0 0 0 0 0 0 23 25 21 23 22 21 18 13 11 10 12 12 13 16 20 19 17 20 14 14 14 15 13 12 14 14 14 17 16 19 18 21 25 26 25 28 31 33 36 38 40 42 41 43 45 42 45 48 40 49 48 51 56 49 46 57 37 28 16 16 17 0 0 0 0 0 0 0 0 0 0 0 0 0 0 0 0 0 0 0 0 0 5 0 0 0 0 0 0 0 0 0 12 28 22 23 23 18 23 14 12 13 12 14 15 20 23 22 19 19 19 18 19 21 22 23 25 23 24 27 26 29 28 29 31 31 33 32 34 35 38 39 41 41 43 45 46 43 45 46 46 50 49 52 60 46 51 55 25 25 12 20 10 0 0 0 0 0 0 0 0 0 0 0 0 0 0 0 0 0 0 0 0 0 0 0 0 0 0 0 0 0 0 0 0 27 26 21 22 17 21 18 12 16 17 18 19 22 25 24 22 21 23 25 28 27 26 31 30 30 34 35 31 34 38 35 38 37 38 37 38 35 41 43 42 43 44 45 47 42 47 45 49 52 49 51 62 43 58 50 20 17 14 19 2 0 0 0 0 0 0 0 0 0 0 0 0 0 0 0 0 0 0 0 0 0 0 1 0 0 0 0 0 0 0 0 0 18 28 21 23 22 21 20 16 18 20 19 22 23 25 27 24 26 29 30 32 33 32 34 34 34 36 38 37 38 42 42 40 42 40 40 40 41 40 45 47 46 45 45 48 45 46 47 52 54 49 53 59 46 64 42 17 11 15 15 0 0 0 0 0 0 0 0 0 0 0 0 0 0 0 0 0 0 0 0 0 0 0 0 0 0 0 0 0 0 0 0 0 4 25 25 23 24 21 23 22 20 19 20 21 22 24 26 27 29 29 31 33 36 33 34 35 34 36 38 39 38 42 41 42 42 41 43 43 44 44 48 49 47 46 47 50 47 48 48 51 52 50 57 58 51 60 33 13 10 17 5 0 0 0 0 0 0 0 0 0 0 0 0 0 0 0 0 0 0 0 0 0 0 0 0 0 0 0 0 0 0 0 0 0 0 18 28 25 25 22 23 22 20 19 18 19 20 22 21 27 28 29 31 32 34 32 33 31 30 33 34 35 38 37 38 39 39 41 42 44 43 47 47 47 50 47 43 48 46 46 47 49 50 52 56 59 50 54 31 10 9 12 0 0 0 0 0 0 0 0 0 0 0 0 0 0 0 0 0 0 0 0 0 0 0 0 0 0 0 0 0 0 0 0 0 0 0 16 26 25 26 23 22 22 19 19 18 16 17 18 18 23 25 26 28 29 31 28 28 26 23 28 27 28 32 31 33 34 36 36 38 43 41 44 44 46 46 47 41 44 48 49 43 48 51 52 57 59 43 50 31 9 7 6 0 0 0 0 0 0 0 0 0 0 0 0 0 0 0 0 0 0 0 0 0 0 0 0 0 0 0 0 0 0 0 0 0 0 0 6 21 23 28 24 23 21 18 16 15 15 13 16 16 16 19 22 23 25 25 20 22 20 19 19 20 23 24 25 26 26 31 32 33 35 39 39 41 43 43 44 41 42 45 48 41 45 50 49 58 57 37 53 27 6 5 0 0 0 0 0 0 0 0 0 0 0 0 0 0 0 0 0 0 0 0 0 0 0 0 0 0 0 0 0 0 0 0 0 0 5 6 0 9 21 27 23 22 17 18 14 14 12 10 12 11 12 14 17 15 18 15 14 12 13 11 12 14 13 14 17 20 20 25 26 29 29 34 34 37 37 40 38 44 39 40 42 42 44 46 49 57 49 37 53 25 0 0 0 0 0 0 0 0 0 0 0 0 0 0 0 0 0 0 0 0 0 0 0 0 0 0 0 0 0 0 0 0 0 0 0 0 11 6 1 2 19 26 20 21 16 17 14 12 10 8 8 8 5 8 8 9 7 7 5 4 4 3 3 6 3 7 10 10 13 17 19 23 22 29 27 30 31 33 36 37 37 36 40 40 43 41 50 56 49 43 45 26 0 0 0 0 0 0 0 0 0 0 0 0 0 0 0 0 0 0 0 0 0 0 0 0 0 0 0 0 0 0 0 0 0 0 0 0 14 12 1 0 16 26 18 19 18 15 14 10 7 7 5 5 0 1 3 0 0 0 0 0 0 0 0 0 0 2 4 4 6 9 13 14 16 21 22 23 25 26 31 34 33 30 36 36 43 40 47 58 46 46 45 30 16 0 0 0 0 0 0 0 0 0 0 0 0 0 0 0 0 0 0 0 0 0 0 0 0 0 0 0 0 0 0 0 0 0 0 0 18 7 0 0 21 24 21 15 15 14 15 9 7 4 3 2 0 0 0 0 0 0 0 0 0 0 0 0 0 0 0 0 0 0 6 7 10 14 13 18 20 24 26 31 30 30 31 38 42 43 51 58 46 40 39 37 34 0 0 0 0 0 0 0 0 0 0 0 0 0 0 0 0 0 0 0 0 0 0 0 0 0 0 0 0 0 0 0 0 0 0 3 11 5 0 0 17 32 20 19 14 11 15 10 8 7 1 0 0 0 0 0 0 0 0 0 0 0 0 0 0 0 0 0 0 0 0 2 5 8 10 12 18 22 23 26 23 28 32 35 38 46 51 55 44 41 35 34 39 11 0 0 0 0 0 0 0 0 0 0 0 0 0 0 0 0 0 0 0 0 0 0 0 0 0 0 0 0 0 0 0 0 3 0 0 7 0 0 12 35 27 17 18 12 9 12 9 9 4 1 0 0 0 0 0 0 0 0 0 0 0 0 0 0 0 0 0 0 0 0 1 3 7 10 14 17 20 21 19 26 32 33 40 46 54 49 48 45 32 29 42 21 0 0 0 0 0 0 0 0 0 0 0 0 0 0 0 0 0 0 0 0 0 0 0 0 0 0 0 0 0 0 0 0 10 0 0 5 0 0 8 26 31 24 19 18 11 10 8 7 8 2 0 0 0 0 0 0 0 0 0 0 0 0 0 0 0 0 0 0 0 0 0 0 5 8 12 14 12 15 17 25 34 37 40 44 52 50 52 47 23 29 49 32 0 0 0 0 0 0 0 0 0 0 0 0 0 0 0 0 0 0 0 0 0 0 0 0 0 0 0 0 0 0 0 0 3 0 0 3 0 0 9 13 29 30 27 24 16 15 11 5 8 6 1 1 0 0 0 0 0 0 0 0 0 0 0 0 0 0 0 0 0 0 0 0 4 6 7 10 5 13 25 28 34 37 40 42 55 51 53 43 19 37 41 42 0 0 0 0 0 0 0 0 0 0 0 0 0 0 0 0 0 0 0 0 0 0 0 0 0 0 0 0 0 0 0 0 0 0 0 0 0 0 7 15 18 27 30 27 22 20 14 10 11 6 3 1 0 0 0 0 0 0 0 0 0 0 0 0 0 0 0 0 0 0 0 0 3 4 0 7 13 19 27 32 33 38 43 46 56 52 54 33 25 38 42 47 6 0 0 0 0 0 0 0 0 0 0 0 0 0 0 0 0 0 0 0 0 0 0 0 0 0 0 0 0 0 0 0 0 0 0 0 0 0 0 17 13 19 27 27 27 25 20 15 15 10 7 2 0 0 0 0 0 0 0 0 0 0 0 0 0 0 0 0 0 0 3 2 1 4 8 16 24 24 28 30 35 41 43 48 56 51 53 28 31 36 41 42 17 0 0 0 0 0 0 0 0 0 0 0 0 0 0 0 0 0 0 0 0 0 0 0 0 0 0 0 0 0 0 0 0 0 0 0 0 0 0 16 15 17 21 24 29 30 25 21 24 17 13 10 8 2 0 0 0 0 0 0 0 0 0 0 0 1 3 4 4 2 1 0 7 15 21 21 24 24 28 30 37 40 43 48 54 49 41 35 34 35 42 37 26 0 0 0 0 0 0 0 0 0 0 0 0 0 0 0 0 0 0 0 0 0 0 0 0 0 0 0 0 0 0 0 0 0 0 0 0 0 0 14 22 19 22 22 26 29 29 27 28 26 23 20 18 13 8 7 5 1 1 0 1 1 2 3 3 1 1 0 0 1 7 9 17 19 22 21 24 25 29 33 36 42 46 50 57 42 41 42 26 38 39 33 35 0 0 0 0 5 1 0 0 0 0 0 0 0 0 0 0 0 0 0 0 0 0 0 0 0 0 0 0 0 0 0 6 0 0 0 0 0 0 4 18 26 28 25 28 26 27 28 32 29 31 28 24 24 15 17 13 8 6 3 0 0 0 0 0 0 0 0 4 8 17 19 19 19 21 22 22 24 35 32 37 43 45 54 55 36 44 46 17 42 31 31 40 5 0 0 0 13 3 0 0 0 0 0 0 0 0 0 0 0 0 0 0 0 0 0 0 0 0 0 0 0 0 2 11 0 0 0 0 0 0 0 7 22 26 28 31 32 33 29 32 32 35 31 29 28 27 20 21 15 8 6 0 0 0 0 0 0 1 9 14 12 17 18 17 18 21 23 25 25 35 37 39 43 48 55 49 31 56 41 24 37 26 36 36 9 0 0 8 23 22 5 0 0 0 0 0 0 0 