P2
92
112
255
0 0 0 0 0 0 0 0 0 0 0 0 0 0 0 3 1 2 3 7 4 4 0 5 2 7 6 0 0 0 0 0 1 4 5 12 15 19 21 21 18 17 17 18 16 17 16 10 8 9 7 4 5 8 6 4 4 3 7 1 7 6 5 4 2 4 2 3 0 0 0 0 0 0 0 0 0 0 0 0 0 0 0 0 0 0 0 0 0 0 0 0 0 0 0 0 0 0 0 0 0 0 0 0 0 0 1 3 0 3 3 10 3 2 3 6 0 4 0 0 0 0 0 5 9 12 20 26 28 32 33 33 33 32 30 29 31 29 26 24 19 17 13 9 7 9 12 10 9 11 11 2 7 9 9 7 7 6 5 3 3 3 0 1 0 0 0 0 0 0 0 0 0 0 0 0 0 0 0 0 0 0 0 0 0 0 0 0 0 0 0 1 0 0 0 1 1 6 1 0 3 3 3 6 3 4 5 3 0 0 0 0 1 2 4 12 19 30 37 44 43 44 45 44 45 43 43 40 42 42 39 39 35 31 23 18 14 10 12 12 14 18 17 7 12 10 10 10 9 8 7 7 5 6 1 1 1 0 0 1 0 0 0 0 0 0 0 0 0 0 0 0 0 0 0 0 0 0 0 0 0 0 0 0 0 0 1 2 6 3 0 1 3 6 2 5 3 2 2 2 0 3 2 2 4 13 22 28 39 46 50 53 52 54 53 52 54 52 54 52 52 54 54 54 51 48 41 35 25 19 15 12 13 21 19 15 19 20 13 11 10 11 11 8 7 6 4 2 2 2 1 1 0 0 0 0 0 0 0 0 0 0 0 0 0 0 0 0 0 0 0 0 0 0 0 0 0 1 0 9 8 1 1 6 6 6 3 0 2 0 3 5 6 5 5 11 17 29 37 46 50 53 56 56 57 58 59 60 61 60 63 63 62 61 63 64 61 60 58 53 46 37 26 20 15 16 24 22 21 24 21 19 18 11 11 9 12 8 8 5 2 4 3 2 1 3 1 0 0 0 0 0 0 0 0 0 0 0 0 0 0 0 0 0 1 0 0 0 0 1 5 8 2 1 2 4 7 1 0 0 0 2 4 5 6 11 15 24 37 42 47 53 53 57 60 60 61 63 66 66 67 67 67 68 67 65 65 65 64 64 63 63 57 55 50 40 28 19 19 24 31 28 21 21 23 19 14 12 8 8 9 8 6 5 5 4 2 4 2 2 1 0 0 0 0 0 0 0 0 0 0 0 0 0 0 0 1 0 0 0 1 5 4 0 2 3 5 5 1 0 0 0 2 5 2 5 10 21 32 41 48 52 53 57 57 60 62 61 64 69 70 69 70 71 70 69 67 68 66 64 65 64 65 66 64 63 61 58 49 36 24 24 27 33 32 27 23 25 22 17 12 9 11 10 11 9 7 7 3 4 3 3 2 0 0 0 0 0 0 0 0 0 0 0 0 0 0 0 0 1 1 0 3 1 3 2 2 5 7 5 2 0 0 4 3 0 3 10 23 38 45 50 53 53 59 60 59 61 64 64 67 68 71 70 72 71 71 70 69 67 66 65 66 66 65 66 65 65 65 62 58 55 47 33 27 32 36 34 33 28 23 22 20 17 13 11 12 11 11 9 8 5 5 5 3 1 0 0 0 0 0 0 0 0 0 0 0 0 0 0 0 0 0 2 1 0 0 2 1 6 3 1 0 2 3 5 2 4 14 27 42 47 50 51 58 58 62 62 61 63 65 65 68 68 70 69 70 72 72 70 71 67 66 67 67 67 64 66 65 66 65 64 63 62 59 54 41 31 37 41 38 37 31 23 25 26 15 16 11 13 11 11 9 9 7 7 4 4 2 0 2 0 0 0 0 0 0 0 0 0 0 0 0 1 1 2 0 3 1 1 1 6 0 0 0 3 2 3 4 15 31 41 48 52 54 59 61 61 63 64 64 65 67 65 69 69 68 69 69 70 71 71 69 67 66 67 66 64 64 67 66 65 64 64 66 65 62 60 60 48 34 40 43 41 37 30 25 28 24 20 16 14 12 12 12 11 10 8 7 4 4 1 2 1 0 0 0 0 0 0 0 0 0 1 0 1 0 2 1 0 2 3 5 4 0 4 0 4 3 8 15 34 42 47 52 60 62 64 65 65 67 67 67 65 67 65 68 67 67 66 67 68 69 68 69 66 65 65 65 62 66 66 65 65 64 64 66 64 66 64 63 62 52 39 40 42 45 37 34 25 27 29 20 16 14 11 15 12 13 10 9 7 6 4 0 4 0 1 0 0 0 0 0 0 0 0 1 2 3 3 4 4 4 5 4 1 3 3 3 5 6 16 34 43 49 54 59 64 65 65 67 69 68 70 67 66 66 65 66 64 64 67 66 66 70 66 66 66 64 63 61 61 64 63 64 64 63 63 65 64 64 65 64 64 63 54 40 35 44 46 40 33 27 28 28 19 17 13 12 14 15 13 14 9 7 6 3 5 1 2 0 0 0 0 0 0 0 0 2 0 4 5 6 9 6 8 5 0 1 4 8 7 18 34 42 55 59 62 65 64 66 68 69 71 72 69 67 66 67 65 67 64 63 66 64 64 67 66 65 65 62 62 57 59 61 60 61 62 62 62 63 63 64 65 64 65 65 62 57 36 31 39 43 43 33 28 26 28 22 17 12 14 15 16 15 14 10 6 6 8 2 3 0 0 0 0 0 0 0 0 0 3 8 3 4 7 6 2 0 2 0 7 14 14 36 45 54 62 65 67 69 68 69 71 71 70 73 71 68 67 68 66 65 65 64 65 65 63 64 65 65 64 59 57 57 58 58 57 57 59 60 61 60 61 62 63 62 63 62 64 60 57 33 28 35 38 41 32 30 25 29 27 16 13 14 15 16 13 12 11 8 6 5 3 1 0 0 0 0 0 0 0 0 5 5 5 7 6 1 3 0 2 1 10 15 33 47 55 64 67 69 66 68 68 70 70 70 70 72 71 70 68 68 65 63 63 60 62 63 63 62 63 64 62 57 56 55 56 57 56 55 56 58 60 59 60 59 60 61 62 60 62 61 59 54 32 26 33 39 41 39 34 27 28 26 16 10 13 14 14 14 14 10 6 6 3 2 2 0 0 0 0 1 1 4 5 8 6 6 0 0 0 0 2 6 16 32 45 54 63 67 69 68 66 66 68 69 67 67 69 72 68 67 68 68 66 63 60 58 59 60 62 61 63 60 61 57 55 51 53 53 53 53 55 55 56 57 57 57 58 58 59 60 59 60 57 58 51 31 25 31 41 41 40 34 26 30 24 15 8 10 13 15 13 12 8 7 6 4 2 1 0 0 0 2 5 6 9 8 5 6 0 0 0 0 2 13 28 44 54 61 66 69 68 66 66 64 66 64 65 66 66 67 65 65 65 64 62 62 58 57 56 57 59 59 60 59 59 58 54 50 49 50 48 50 50 51 51 52 53 54 54 55 56 57 58 58 55 56 56 45 33 22 34 38 38 36 34 25 28 21 10 6 11 15 14 15 11 10 7 7 3 2 1 0 0 1 10 7 9 9 5 6 0 0 0 4 11 22 43 51 59 65 68 68 67 66 63 63 63 62 65 64 62 63 61 61 62 62 58 57 57 55 55 51 56 54 56 55 57 54 50 50 47 45 46 47 47 46 47 49 47 50 51 53 54 54 54 56 54 54 54 51 40 30 25 35 38 37 38 33 24 29 17 10 7 14 14 14 14 13 7 8 4 4 2 0 0 3 6 8 10 5 2 1 0 0 3 9 21 39 46 56 61 67 68 67 65 64 60 61 60 62 61 61 59 57 55 56 56 56 54 53 55 51 51 48 50 50 52 51 53 52 48 47 45 43 42 44 42 43 43 45 44 46 47 49 50 52 52 52 53 50 52 53 46 41 24 28 35 40 36 37 27 27 27 17 7 8 14 16 13 11 8 10 7 3 3 0 0 5 5 8 3 3 0 0 0 4 8 18 41 46 51 59 63 66 65 66 63 61 60 59 58 57 57 57 57 54 52 51 50 51 50 48 48 47 46 45 46 45 47 49 50 46 47 45 43 42 38 41 39 40 40 40 41 41 43 45 45 47 49 48 51 48 50 49 51 41 34 23 34 36 38 35 37 26 30 24 13 5 11 16 12 12 7 10 5 8 3 0 0 6 7 4 0 1 6 0 2 7 11 35 53 48 54 61 63 64 62 61 61 57 58 57 57 56 55 55 53 51 49 47 47 46 45 44 44 44 44 42 40 41 43 45 44 43 43 42 37 38 35 36 36 35 36 35 37 36 40 41 41 44 46 46 48 46 47 49 47 46 40 27 28 30 37 37 37 33 25 32 16 10 7 11 10 11 9 10 4 10 4 0 0 8 4 4 6 5 8 0 3 9 21 53 55 50 56 60 61 60 59 59 57 55 54 53 54 55 54 52 50 46 44 44 42 42 40 39 38 38 37 35 35 37 38 39 40 39 39 36 33 34 34 33 31 31 31 33 33 33 35 37 36 40 44 43 45 43 45 47 44 47 41 36 23 27 33 40 36 38 26 29 27 13 5 13 10 7 12 10 4 11 6 0 2 7 6 6 12 10 2 0 8 13 41 60 55 50 56 59 59 57 58 56 55 53 49 49 50 52 51 47 46 43 40 38 37 34 34 33 35 33 31 30 29 33 34 35 34 34 33 32 29 31 27 28 29 27 27 28 30 32 31 35 35 36 40 38 40 41 43 43 44 44 43 39 29 21 33 39 41 36 35 25 28 20 7 7 12 9 8 10 11 8 8 1 4 7 9 10 16 10 0 1 14 20 58 60 54 50 54 56 54 55 55 52 50 51 48 46 47 45 47 44 41 40 36 33 32 28 28 29 28 27 26 25 24 27 28 30 30 29 29 28 26 28 27 24 24 25 24 25 27 29 28 32 33 34 36 36 38 38 39 42 43 40 45 39 36 20 28 37 38 35 38 29 26 26 8 5 12 15 6 10 15 16 5 1 3 7 8 15 16 12 0 9 17 36 65 57 51 52 50 52 51 54 51 49 46 48 44 42 44 42 42 40 39 37 31 29 26 23 24 24 23 22 21 21 21 23 23 24 25 26 26 24 23 22 23 23 22 22 22 22 25 26 26 28 30 32 34 34 36 37 37 40 40 37 43 39 40 25 24 32 32 37 35 37 24 31 16 5 9 17 14 5 15 17 9 1 2 8 9 16 24 9 0 14 19 50 64 55 52 51 47 50 49 51 48 44 44 45 40 39 38 39 38 38 34 33 30 26 24 18 19 20 18 16 16 16 17 16 17 18 19 21 21 21 20 21 20 21 21 19 19 20 21 24 24 27 28 30 31 32 35 37 36 37 38 35 41 38 34 35 22 27 28 35 35 38 24 30 24 5 5 17 16 7 12 19 11 0 0 9 5 23 26 10 2 19 21 60 61 53 52 49 46 47 45 45 44 40 40 40 37 36 34 35 34 35 32 30 29 24 21 16 18 18 15 12 12 11 14 12 11 13 13 17 19 17 18 19 21 19 17 16 18 18 21 22 23 24 27 28 29 31 33 36 37 36 33 35 38 38 30 35 24 24 24 29 36 36 28 23 27 10 5 11 19 11 6 22 16 2 0 2 6 25 25 9 7 19 28 62 58 52 49 47 44 43 43 43 42 39 38 36 35 33 31 33 34 33 33 30 28 24 20 18 17 16 13 10 11 9 9 8 9 9 8 13 16 17 15 19 20 17 15 17 15 15 19 21 21 22 25 26 28 30 32 35 35 34 34 33 35 36 29 33 25 23 24 26 34 36 32 21 26 13 7 6 17 19 10 20 21 2 0 4 2 20 22 11 8 20 35 60 56 51 45 46 40 40 41 41 40 37 36 35 34 30 29 31 33 33 32 29 27 24 23 20 17 15 13 11 12 8 6 5 6 6 4 10 12 14 15 17 19 17 14 15 14 16 17 19 20 21 23 23 26 28 29 34 32 32 31 29 31 34 27 32 27 17 26 23 29 35 34 23 24 14 8 7 12 22 14 20 22 6 2 9 0 13 19 7 14 18 38 60 53 46 46 41 38 38 40 37 37 35 34 33 30 30 29 30 33 33 32 31 29 26 25 23 20 17 17 12 13 8 6 4 4 6 3 8 11 13 12 17 17 17 12 9 12 13 15 15 20 19 20 22 24 24 26 30 30 30 29 26 28 30 27 29 29 11 22 24 24 32 29 25 20 14 5 9 9 25 21 20 19 7 3 8 0 6 9 5 16 15 42 55 50 45 43 37 38 36 37 36 34 33 32 30 28 30 28 31 32 33 32 32 29 28 25 23 22 18 16 12 13 9 5 3 0 4 5 5 10 13 11 16 16 13 9 8 10 12 11 14 16 17 17 18 22 22 22 25 26 26 23 23 25 26 25 24 29 11 16 21 24 28 24 23 18 9 7 15 9 23 33 23 16 5 1 13 0 0 5 3 12 18 40 51 47 43 40 36 36 34 35 33 32 31 29 28 29 30 30 32 32 32 32 31 30 28 25 23 23 18 17 13 12 11 3 2 0 2 7 5 7 10 12 12 13 9 6 4 7 6 7 8 11 11 13 15 17 16 17 20 19 21 17 17 17 21 19 21 25 11 11 20 23 28 19 16 16 13 2 16 16 12 22 19 12 4 2 13 0 1 0 0 11 19 33 46 45 42 38 33 36 32 32 32 30 29 27 28 30 31 29 32 30 30 32 30 29 27 25 22 21 17 16 11 11 7 2 0 0 1 7 3 7 5 10 9 6 5 0 0 1 0 0 1 2 3 5 7 9 8 10 10 11 10 11 10 8 10 13 15 20 10 9 18 18 30 20 12 10 12 0 9 10 3 2 6 3 3 0 11 1 2 0 0 7 16 31 40 43 42 36 32 37 34 32 29 29 27 27 26 30 31 30 28 27 26 29 26 25 24 19 18 17 13 12 10 8 5 0 0 0 0 3 0 6 0 6 5 0 0 0 0 0 0 0 0 0 0 0 0 0 0 0 2 2 3 6 3 3 4 4 9 12 7 2 15 16 26 22 10 9 8 2 0 0 0 0 0 0 5 0 9 1 5 0 0 3 11 25 36 40 41 34 32 35 34 27 25 28 24 20 23 26 25 23 21 19 18 18 16 14 15 11 13 8 10 7 6 4 3 0 0 0 0 0 0 2 0 2 2 0 0 0 0 0 0 0 0 0 0 0 0 0 0 0 0 0 0 0 0 0 0 0 4 6 5 0 11 15 23 26 12 9 3 1 0 0 0 0 0 0 3 2 6 0 2 0 0 0 4 20 31 35 40 31 31 34 30 25 23 24 18 15 17 17 17 13 9 6 6 6 1 0 0 0 3 2 0 3 0 0 0 0 0 0 0 0 0 0 0 0 0 0 0 0 0 0 0 0 0 0 0 0 0 0 0 0 0 0 0 0 0 0 0 0 0 0 0 0 1 14 24 25 13 11 5 0 0 0 0 0 0 0 0 0 3 0 0 0 0 0 0 13 24 32 37 31 31 30 23 21 19 17 9 5 4 6 3 1 0 0 0 0 0 0 0 0 0 0 0 0 0 0 0 0 0 0 0 0 0 0 0 0 0 0 0 0 0 0 0 0 0 0 0 0 0 0 0 0 0 0 0 0 1 2 6 0 1 2 0 0 0 0 17 23 13 13 8 0 0 0 0 0 0 1 0 0 0 0 0 0 0 0 0 10 17 29 38 26 24 27 22 18 14 8 1 0 2 9 10 9 9 5 0 2 0 0 0 0 0 0 0 0 0 0 0 0 0 0 0 0 0 0 0 0 0 0 0 0 0 0 0 0 0 0 0 0 0 0 0 0 0 0 0 0 0 6 11 10 6 7 0 0 0 5 11 11 15 15 14 2 0 0 2 4 0 3 0 0 0 0 0 0 0 0 0 2 8 22 34 21 21 24 22 12 9 10 0 0 0 4 3 5 1 0 0 0 0 0 0 0 0 0 0 0 0 0 0 0 0 0 0 0 0 0 0 0 0 0 0 0 0 0 0 0 0 0 0 0 0 0 0 0 0 0 0 0 0 1 14 16 15 16 6 4 0 0 13 6 11 22 15 5 0 0 1 11 4 5 0 0 0 0 0 0 0 0 0 0 1 15 31 15 16 19 9 0 0 0 0 0 0 0 0 0 0 0 0 0 0 0 0 0 0 0 0 0 0 0 0 0 0 0 0 0 0 0 0 0 0 0 0 0 0 0 0 0 0 0 0 0 0 0 0 0 0 0 0 0 0 0 0 3 6 16 10 9 3 4 2 1 7 17 15 7 0 0 6 16 13 7 0 0 0 0 0 0 0 0 0 0 0 11 25 10 12 15 4 1 0 0 0 0 0 0 0 0 0 0 0 0 0 0 0 0 0 0 0 0 0 0 0 0 0 0 0 0 0 0 0 0 0 0 0 0 0 0 0 0 0 0 0 0 0 0 0 0 0 0 0 0 0 0 0 0 0 8 9 5 3 6 1 0 6 10 9 10 4 4 13 19 15 7 0 0 0 0 0 0 0 0 0 0 0 3 20 17 11 0 0 0 0 0 0 0 0 0 0 0 0 0 0 0 0 0 0 0 0 0 0 0 0 0 0 0 0 0 0 0 0 0 0 0 0 0 0 0 0 0 0 0 0 0 0 0 0 0 0 0 0 0 0 0 0 0 0 0 0 0 0 0 1 0 5 0 0 8 0 17 11 11 20 16 17 9 0 0 0 0 0 0 0 0 0 0 0 2 24 22 6 0 0 0 0 8 9 3 10 7 0 0 0 0 0 0 0 0 0 0 0 0 0 0 0 0 0 0 0 0 0 0 0 0 0 0 0 0 0 0 0 0 0 0 0 0 0 0 0 0 0 0 0 0 0 0 0 0 0 0 0 0 0 0 0 0 0 0 0 16 0 29 21 23 20 15 16 16 0 0 0 0 0 0 0 0 0 0 0 0 21 32 0 0 0 0 7 3 0 0 0 0 0 0 0 0 0 0 0 0 0 0 0 0 0 0 0 0 0 0 0 0 0 0 0 0 0 0 0 0 0 0 0 0 0 0 0 0 0 0 0 0 0 0 0 0 0 0 0 0 0 0 0 0 0 0 0 0 0 0 0 8 2 44 36 21 11 13 13 18 0 0 0 0 0 0 0 0 0 0 0 0 19 32 0 0 0 0 6 1 0 0 0 0 0 0 0 0 0 0 0 0 0 0 0 0 0 0 0 0 0 0 0 0 0 0 0 0 0 0 0 0 0 0 0 0 0 0 0 0 0 0 0 0 0 0 0 0 0 0 0 0 0 0 0 0 0 0 0 0 0 0 0 23 12 26 21 11 10 15 9 18 0 0 0 0 0 0 0 0 0 0 0 0 19 25 4 0 0 0 0 4 12 0 0 0 11 0 0 0 0 0 0 0 0 0 0 0 0 0 0 0 0 0 0 0 0 0 0 0 0 0 0 0 0 0 0 0 0 0 0 0 0 0 0 0 0 0 0 0 0 0 0 0 0 0 0 1 0 0 0 0 0 0 0 19 24 14 4 2 10 19 12 15 0 0 0 0 0 0 0 0 0 0 0 0 16 16 3 0 0 0 0 9 3 0 0 0 13 0 0 0 0 0 0 0 0 0 0 0 0 0 0 0 0 0 0 0 0 0 8 2 0 0 0 0 0 0 0 0 0 0 0 0 0 0 0 0 0 0 0 0 0 0 0 0 0 0 0 9 16 3 0 1 4 9 0 17 38 10 0 1 8 17 16 16 0 0 0 0 0 0 0 0 0 0 0 0 10 0 0 0 0 0 0 0 0 0 0 0 0 0 0 0 0 0 0 0 0 0 0 0 0 0 0 0 0 4 0 0 0 4 5 0 0 1 0 0 0 0 0 0 0 0 0 0 0 0 0 0 0 0 0 0 0 0 0 0 0 0 0 0 18 11 0 1 11 18 0 18 41 11 1 1 7 16 13 20 0 0 0 0 0 0 0 0 0 0 0 0 0 2 0 0 0 0 0 0 0 0 0 0 0 0 0 0 0 0 0 0 0 0 0 0 0 0 0 0 0 0 0 0 0 13 2 0 0 0 0 0 0 0 0 0 0 0 0 0 0 0 0 0 0 0 0 0 0 0 0 0 0 0 0 0 23 21 8 4 15 19 11 8 23 16 7 5 11 12 11 18 0 0 0 0 0 0 0 0 0 0 0 0 0 10 0 0 0 13 12 0 0 0 0 0 0 0 0 0 0 0 0 0 0 0 0 0 0 3 6 0 0 0 0 0 13 17 11 15 0 0 4 9 0 0 0 0 9 12 8 4 1 0 0 1 0 0 1 0 0 0 0 0 0 0 0 0 10 7 14 14 18 29 35 6 15 26 10 6 12 13 11 17 0 0 0 0 0 0 0 0 0 0 0 0 0 17 13 0 0 23 21 0 0 0 0 0 3 0 0 0 0 0 0 0 0 0 0 4 11 21 13 1 0 0 0 0 21 25 26 27 12 0 0 16 1 0 0 1 12 20 17 13 9 8 6 5 4 3 2 0 0 6 3 0 0 0 0 0 8 0 3 13 21 27 41 9 20 25 19 0 9 16 15 10 0 0 0 0 0 0 0 0 0 0 0 0 13 17 9 0 0 29 21 0 0 0 0 4 2 0 0 4 3 7 6 4 7 9 15 20 25 24 19 2 7 0 0 0 32 34 32 32 22 0 3 18 12 0 0 9 12 25 25 24 19 16 16 16 14 8 8 8 6 8 1 2 0 0 0 0 10 0 5 14 24 32 33 12 26 22 19 3 3 13 18 10 0 0 0 0 0 0 0 0 0 0 0 0 19 20 0 0 0 27 23 9 8 6 9 12 11 16 18 20 20 18 16 15 20 23 26 32 28 28 20 5 12 0 0 17 39 36 34 32 27 6 8 17 24 9 0 12 20 27 38 36 32 23 27 24 26 20 19 19 14 16 13 12 12 8 6 2 9 0 4 20 28 30 20 16 33 21 22 3 0 7 13 9 0 0 0 0 0 0 0 0 0 0 0 0 19 18 0 0 0 31 26 17 18 20 17 19 22 26 28 28 27 24 26 27 32 34 35 34 32 36 17 10 10 0 0 29 38 39 36 30 27 16 10 16 26 21 2 2 26 26 34 43 39 32 29 26 24 16 17 17 18 21 18 21 23 23 15 15 11 6 0 17 28 23 3 23 41 21 15 2 2 4 2 11 0 0 0 0 0 0 0 0 0 0 0 0 16 16 0 0 11 31 29 22 31 29 27 25 24 24 22 19 24 25 32 39 43 40 36 36 35 38 10 20 0 0 14 29 38 36 35 30 26 22 11 13 23 26 15 3 17 27 25 35 36 31 31 33 36 31 27 24 19 22 21 23 27 26 19 25 13 14 7 12 26 12 1 33 39 21 12 0 0 1 0 9 0 0 0 0 0 0 0 0 0 0 0 0 24 12 4 0 18 32 35 28 31 25 20 21 18 17 19 25 32 36 39 40 41 37 35 35 40 28 9 26 0 1 12 31 34 34 34 29 28 25 14 9 18 26 24 9 7 20 26 25 29 28 24 28 30 32 28 29 27 28 28 24 27 22 22 28 16 21 17 12 31 0 15 41 33 16 10 0 0 0 0 1 0 0 0 0 0 0 0 0 0 0 0 0 24 19 7 0 6 34 35 33 28 26 29 29 24 24 28 30 33 31 30 29 32 33 32 33 32 11 13 13 0 0 14 29 32 34 33 30 29 25 16 9 12 24 31 18 11 8 22 24 20 24 23 26 26 29 30 29 30 29 26 24 23 15 22 26 21 19 12 14 10 0 34 42 33 17 10 0 0 0 0 0 0 0 0 0 0 0 0 0 0 0 0 0 22 21 2 0 0 26 29 32 34 34 29 27 24 23 25 24 23 24 25 25 28 29 28 31 15 12 7 7 0 0 21 29 30 35 34 29 30 22 15 12 13 16 34 28 8 11 12 16 17 19 24 29 30 31 29 28 28 28 23 25 20 12 22 17 14 5 0 11 0 9 33 38 31 13 11 0 0 0 0 7 0 0 0 0 0 0 0 0 0 0 0 0 16 23 1 0 0 10 26 32 35 38 33 28 22 20 20 21 20 21 22 23 23 23 26 19 7 6 0 2 0 1 24 30 27 34 29 27 24 18 12 13 11 9 17 33 17 5 14 7 9 12 17 20 22 24 23 22 22 18 17 15 4 4 0 1 9 8 6 1 3 21 29 32 31 11 10 0 0 0 0 1 0 0 0 0 0 0 0 0 0 0 0 0 0 23 15 0 9 4 13 26 30 32 30 26 21 20 18 18 17 16 19 16 17 17 12 0 0 0 0 4 0 11 26 29 28 28 24 22 21 15 10 12 9 7 2 19 26 5 15 16 5 0 4 7 7 8 7 4 3 0 0 0 1 2 0 2 14 8 13 0 9 24 30 29 28 10 12 0 0 0 2 0 0 0 0 0 0 0 0 0 0 0 0 0 0 11 20 1 0 10 13 20 17 17 15 14 12 9 9 12 12 10 10 6 5 2 0 0 0 0 6 9 0 9 21 23 23 24 19 19 17 14 9 10 10 6 0 0 4 11 10 17 12 0 0 0 0 0 0 0 0 0 0 0 0 0 0 6 17 6 8 0 10 18 26 26 22 4 11 0 0 0 1 2 0 0 0 0 0 0 0 0 0 0 0 0 0 7 4 10 0 0 22 21 14 12 13 9 10 8 8 7 5 4 0 0 0 0 0 0 0 1 11 3 2 8 15 14 18 17 17 16 14 11 6 6 6 3 0 0 0 0 0 5 3 0 0 0 0 0 0 0 0 0 0 0 4 7 4 19 15 3 12 9 12 15 20 22 22 4 10 0 0 0 0 4 0 0 0 0 0 0 0 0 0 0 0 0 0 13 9 1 0 0 3 5 9 8 5 1 0 0 0 0 0 0 0 0 0 0 0 0 0 0 0 5 3 6 1 1 2 5 10 14 10 6 0 0 0 0 0 0 0 0 0 2 0 0 0 0 0 0 0 0 0 0 0 0 0 0 2 6 14 12 17 8 11 11 13 14 17 0 6 0 0 0 0 7 0 0 0 0 0 0 0 0 0 0 0 0 0 12 11 11 6 0 9 11 8 11 7 4 0 0 0 0 0 0 0 0 0 0 0 0 0 0 0 7 0 0 0 0 0 0 11 11 5 0 0 0 0 0 0 0 0 0 0 1 5 0 0 0 0 0 0 0 0 0 0 0 0 0 1 5 13 9 10 4 8 9 5 10 12 2 2 0 0 0 0 3 0 0 0 0 0 0 0 0 0 0 0 0 0 10 11 8 5 4 0 13 8 7 3 0 0 0 0 0 0 0 0 0 0 0 0 0 0 0 5 0 0 0 0 0 0 0 7 9 0 0 0 0 0 0 0 0 0 0 0 0 0 0 0 0 0 0 0 0 0 0 0 0 0 0 0 3 10 8 4 1 2 4 3 7 9 4 0 0 0 0 0 2 0 0 0 0 0 0 0 0 0 0 0 0 0 5 9 6 6 3 1 0 0 0 1 0 0 0 0 0 0 0 0 0 0 0 0 0 0 0 0 0 0 0 0 0 0 0 0 1 0 0 0 0 0 0 0 0 0 0 0 0 0 0 0 0 0 0 0 0 0 0 0 0 0 0 0 0 3 1 0 0 0 0 3 1 3 4 0 0 0 0 0 2 0 0 0 0 0 0 0 0 0 0 0 0 0 4 10 7 6 3 8 6 3 0 0 0 0 0 0 0 0 0 0 0 0 0 0 0 0 2 0 0 0 0 0 0 0 0 0 0 0 0 0 0 0 0 0 0 0 0 0 0 0 0 0 0 0 0 0 0 0 0 0 0 0 0 0 0 0 0 0 0 0 0 1 0 2 1 0 0 0 1 0 3 0 0 0 0 0 0 0 0 0 0 0 0 0 1 9 7 6 5 7 12 9 6 3 0 0 0 0 0 0 0 0 0 0 0 0 0 0 4 0 0 0 0 0 0 0 0 0 0 0 0 0 0 0 0 0 0 0 0 0 0 0 0 0 1 2 1 0 0 0 0 0 0 0 0 0 0 0 0 0 0 0 0 0 2 0 0 0 0 0 1 1 2 0 0 0 0 0 0 0 0 0 0 0 0 0 0 7 3 6 5 10 12 11 8 4 0 0 0 0 0 0 0 0 0 0 0 0 0 0 0 0 0 0 0 0 0 0 0 0 0 0 0 0 0 0 0 0 0 0 0 0 0 0 0 0 1 0 0 0 0 0 0 0 0 0 0 0 0 0 0 0 0 0 0 0 0 0 0 0 0 0 2 3 6 0 0 0 0 0 0 0 0 0 0 0 0 0 0 2 1 2 5 10 9 9 5 0 0 0 0 0 0 0 0 0 0 0 0 0 0 0 0 0 0 0 0 0 0 0 0 0 0 0 0 0 0 0 0 0 0 0 0 0 0 0 0 0 0 0 0 0 0 0 0 0 0 0 0 0 0 0 0 0 0 0 0 0 0 0 0 0 0 0 1 7 4 0 0 0 0 0 0 0 0 0 0 0 0 0 0 0 0 1 2 4 11 2 0 0 0 0 0 0 0 0 0 0 0 0 0 0 0 0 0 0 0 0 0 0 0 0 0 0 0 0 0 0 0 0 0 0 0 0 0 0 0 0 0 0 0 0 0 0 0 0 0 0 0 0 0 0 0 0 0 0 0 0 0 0 0 0 0 0 0 0 2 7 2 0 0 0 0 0 0 0 0 0 0 0 0 0 0 0 0 0 0 1 4 0 0 2 0 0 0 0 0 0 0 0 0 0 0 0 0 0 0 0 0 0 0 0 0 0 0 0 0 0 0 0 0 0 0 0 0 0 0 0 0 0 0 0 0 0 0 0 0 0 0 0 0 0 0 0 0 0 0 0 0 0 0 0 0 0 0 0 0 0 4 5 5 0 0 0 0 0 0 0 0 0 0 0 0 0 0 0 0 0 0 0 0 0 0 8 0 0 0 0 0 0 0 0 0 0 0 0 0 0 0 0 0 0 0 0 0 0 0 0 0 0 0 0 0 0 0 0 0 0 0 0 0 0 0 0 0 0 0 0 0 0 0 0 0 0 0 0 0 0 0 0 0 0 0 0 0 0 0 0 1 1 6 4 4 0 0 0 0 0 0 0 0 0 0 0 0 0 0 0 0 0 0 0 0 0 0 0 0 0 0 0 0 0 0 0 0 0 0 0 0 0 0 0 0 0 0 0 0 0 0 0 0 0 0 0 0 0 0 0 0 0 0 0 0 0 0 0 0 0 0 0 0 0 0 0 0 0 0 0 0 0 0 0 0 0 0 0 0 0 0 0 0 4 6 4 2 0 0 0 0 0 0 0 0 0 0 0 0 0 0 0 0 0 0 0 0 0 0 0 0 0 0 0 0 0 0 0 0 0 0 0 0 0 0 0 0 0 0 0 0 0 0 0 0 0 0 0 0 0 0 0 0 0 0 0 0 0 0 0 0 0 0 0 0 0 0 0 0 0 0 0 0 0 0 0 0 0 0 0 0 0 0 0 0 4 6 4 3 0 0 0 0 0 0 0 0 0 0 0 0 0 0 0 0 0 0 0 0 0 0 0 0 0 0 0 0 0 0 0 0 0 0 0 0 0 0 0 0 0 0 0 0 0 0 0 0 0 0 0 0 0 0 0 0 0 0 0 0 0 0 0 0 0 0 0 0 0 0 0 0 0 0 0 0 0 0 0 0 0 0 0 0 0 0 0 0 2 6 4 8 0 0 0 0 0 0 0 0 0 0 0 0 0 0 0 0 0 0 0 0 0 0 0 0 0 0 0 0 0 0 0 0 0 0 0 0 0 0 0 0 0 0 0 0 0 0 0 0 0 0 0 0 0 0 0 0 0 0 0 0 0 0 0 0 0 0 0 0 0 0 0 0 0 0 0 0 0 0 0 0 0 0 0 0 0 0 0 0 5 1 4 10 0 0 0 0 0 0 0 0 0 0 0 0 0 0 0 0 0 0 0 0 0 0 0 0 0 0 0 0 0 0 0 0 0 0 0 0 0 0 0 0 0 0 0 0 0 0 0 0 0 0 0 0 0 0 0 0 0 0 0 0 0 0 0 0 0 0 0 0 0 0 0 0 0 0 0 0 0 0 0 0 0 0 0 0 0 0 0 0 2 0 5 6 0 0 0 0 0 0 0 0 0 0 0 0 0 0 0 0 0 0 0 0 0 0 0 0 0 0 0 0 0 0 0 0 0 0 0 0 0 0 0 0 0 0 0 0 0 0 0 0 0 0 0 0 0 0 0 0 0 0 0 0 0 0 0 0 0 0 0 0 0 0 0 0 0 0 0 0 0 0 0 0 0 0 0 0 0 0 0 2 3 0 4 5 0 0 0 0 0 0 0 0 0 0 0 0 0 0 0 0 0 0 0 0 0 0 0 0 0 0 0 0 0 0 0 0 0 0 0 0 0 0 0 0 0 0 0 9 0 0 17 8 17 3 0 0 0 0 0 0 0 0 0 0 0 0 0 0 0 0 0 0 0 0 0 0 0 0 0 0 0 0 0 0 0 0 0 0 0 0 0 1 2 2 0 7 1 0 0 0 0 0 0 0 0 0 0 0 0 0 0 0 0 0 0 0 0 0 0 0 0 0 0 0 0 0 0 0 0 0 0 0 0 0 0 1 0 0 0 3 0 0 16 10 6 0 0 0 0 0 0 0 0 0 0 0 0 0 0 0 0 0 0 0 0 0 0 0 0 0 0 0 0 0 0 0 0 0 0 0 0 0 0 0 1 4 5 9 1 0 0 0 0 0 0 0 0 0 0 0 0 0 0 0 0 0 0 0 0 0 0 0 0 0 0 0 0 0 0 0 0 0 0 0 0 0 0 0 0 0 0 0 0 0 15 4 11 0 0 0 0 0 0 0 0 0 0 0 0 0 0 0 0 0 0 0 0 0 0 0 0 0 0 0 0 0 0 0 0 0 0 0 0 0 0 0 0 4 12 13 0 3 0 0 0 0 0 0 0 0 0 0 0 0 0 0 0 0 0 0 0 0 0 0 0 0 0 0 0 0 0 0 0 0 0 0 0 0 3 12 8 0 10 16 4 6 24 20 28 26 10 7 8 3 0 0 0 0 0 0 0 0 0 0 0 0 0 0 0 0 0 0 0 0 0 0 0 0 0 0 0 0 0 0 0 0 0 2 0 8 10 14 0 0 0 0 0 0 0 0 0 0 0 0 0 0 0 0 0 0 0 0 0 0 0 0 0 0 0 0 0 0 0 0 0 0 0 0 0 3 5 20 11 8 19 27 16 16 26 27 31 28 22 16 13 10 2 2 0 0 0 5 0 0 0 0 0 0 0 0 0 0 0 0 0 0 0 0 0 0 0 0 0 0 0 0 0 0 0 1 7 10 12 9 0 0 0 0 0 0 0 0 0 0 0 0 0 0 0 0 0 0 0 0 0 0 0 0 0 0 0 0 0 0 0 0 0 0 0 0 0 9 8 18 14 11 21 23 17 16 30 27 32 28 23 13 12 14 6 6 0 1 3 0 0 0 0 0 0 0 0 0 0 0 0 0 0 0 0 0 0 0 0 0 0 0 0 0 0 0 0 2 7 14 13 9 0 0 0 0 0 0 0 0 0 0 0 0 0 0 0 0 0 0 0 0 0 0 0 0 0 0 0 0 0 0 0 0 0 0 0 0 0 6 10 17 15 13 12 25 14 9 28 28 26 21 9 7 13 12 8 6 0 0 5 0 0 0 0 0 0 0 0 0 0 0 0 0 0 0 0 0 0 0 0 0 0 0 0 0 0 0 5 5 9 12 11 14 0 0 0 0 0 0 0 0 0 0 0 0 0 0 0 0 0 0 0 0 0 0 0 0 0 0 0 0 0 0 0 0 0 0 0 0 0 0 5 10 7 11 7 15 8 4 8 9 9 5 6 0 4 6 3 0 0 0 0 0 0 0 0 0 0 0 0 0 0 0 0 0 0 0 0 0 0 0 0 0 0 0 0 0 0 2 5 8 11 12 10 15 0 0 0 0 0 0 0 0 0 0 0 0 0 0 0 0 0 0 0 0 0 0 0 0 0 0 0 0 0 0 0 0 0 0 0 0 0 0 0 0 2 3 1 0 0 0 0 0 0 1 5 0 0 2 2 0 0 0 0 0 0 0 0 0 0 0 0 0 0 0 0 0 0 0 0 0 0 0 0 0 0 0 0 0 0 0 7 9 8 14 11 14 0 0 0 0 0 0 0 0 0 0 0 0 0 0 0 0 0 0 0 0 0 0 0 0 0 0 0 0 0 0 0 0 0 0 0 0 0 0 0 0 0 0 0 0 0 0 0 0 0 0 0 0 0 0 0 0 0 0 0 0 0 0 0 0 0 0 0 0 0 0 0 0 0 0 0 0 0 0 0 0 0 0 0 0 0 3 8 9 8 17 12 20 0 0 0 0 0 0 0 0 0 0 0 0 0 0 0 0 0 0 0 0 0 0 0 0 0 0 0 0 0 0 0 0 0 0 0 0 0 0 0 0 0 0 0 0 0 0 0 0 0 0 0 0 0 0 0 0 0 0 0 0 0 0 0 0 0 0 0 0 0 0 0 0 0 0 0 0 0 0 0 0 0 0 0 0 1 9 7 10 13 11 12 17 0 0 2 0 0 0 0 0 0 0 0 0 0 0 0 0 0 0 0 0 0 0 0 0 0 0 0 0 0 0 0 0 0 0 0 0 0 0 0 0 0 0 0 0 0 0 0 0 0 0 0 0 0 0 0 0 0 0 0 0 0 0 0 0 0 0 0 0 0 0 0 0 0 0 0 0 0 0 0 0 0 0 0 0 0 8 10 14 10 9 10 15 0 0 0 0 0 0 0 0 0 0 0 0 0 0 0 0 0 0 0 0 0 0 0 0 0 0 0 0 0 0 0 0 0 0 0 0 0 0 0 0 0 0 0 0 0 0 0 0 0 0 0 0 0 0 0 0 0 0 0 0 0 0 0 0 0 0 0 0 0 0 0 0 0 0 0 0 0 0 0 0 0 0 2 0 0 2 13 11 9 9 10 13 1 0 0 0 0 0 0 0 0 0 0 0 0 0 0 0 0 0 0 0 0 0 0 0 0 0 0 0 0 0 0 0 0 0 0 0 0 0 0 0 0 0 0 0 0 0 0 0 0 0 0 0 0 0 0 0 0 0 0 0 0 0 0 0 0 0 0 0 0 0 0 0 0 0 0 0 0 0 0 0 0 0 0 0 0 0 6 12 11 10 10 11 1 0 0 0 0 0 0 0 0 0 0 0 0 0 0 0 0 0 0 0 0 0 0 0 0 0 0 0 0 0 0 0 0 0 0 0 0 0 0 0 0 0 0 0 0 0 0 0 0 0 0 0 0 0 0 0 0 0 0 0 0 0 0 0 0 0 0 0 0 0 0 0 0 0 0 0 0 0 0 0 0 0 0 7 0 0 1 12 13 10 8 12 0 0 0 0 0 0 0 0 0 0 0 0 0 0 0 0 0 0 0 0 0 0 0 0 0 0 0 0 0 0 0 0 0 0 0 0 0 0 0 0 0 0 0 0 0 0 0 0 0 0 0 0 0 0 0 0 0 0 0 0 0 0 0 0 0 0 0 0 0 0 0 0 0 0 0 0 0 0 0 0 0 0 0 8 2 0 4 9 10 10 9 13 0 0 0 0 0 0 0 0 0 0 0 0 0 0 0 0 0 0 0 0 0 0 0 0 0 0 0 0 0 0 0 0 0 0 0 0 0 0 0 0 0 0 0 0 0 0 0 0 0 0 0 0 0 0 0 0 0 0 0 0 0 0 0 0 0 0 0 0 0 0 0 0 0 0 0 0 0 0 0 0 0 0 0 0 2 4 3 7 9 7 9 8 0 0 0 0 0 0 0 0 0 0 0 0 0 0 0 0 0 0 0 0 0 0 0 0 0 0 0 0 0 0 0 0 0 0 0 0 0 0 0 0 0 0 0 0 0 0 0 0 0 0 0 0 0 0 0 0 0 0 0 0 0 0 0 0 0 0 0 0 0 0 0 0 0 0 0 0 0 0 0 0 0 0 0 0 1 7 5 4 5 9 10 8 0 0 0 0 0 0 0 0 0 0 0 0 0 0 0 0 0 0 0 0 0 0 0 0 0 0 0 0 0 0 0 0 0 0 0 0 0 0 0 0 0 0 0 0 0 0 0 0 0 0 0 0 0 0 0 0 0 0 0 0 0 0 0 0 0 0 0 0 0 0 0 0 0 0 0 0 0 0 0 0 1 0 0 0 3 6 8 7 5 6 10 10 0 0 0 0 0 0 0 0 0 0 0 0 0 0 0 0 0 0 0 0 0 0 0 0 0 0 0 0 0 0 0 0 0 0 0 0 0 0 0 0 0 0 0 0 0 0 0 0 0 0 0 0 0 0 0 0 0 0 0 0 0 0 0 0 0 0 0 0 0 0 0 0 0 0 0 0 0 0 0 0 0 0 3 0 0 7 5 8 8 4 7 7 0 0 0 0 0 0 0 0 0 0 0 0 0 0 0 0 0 0 0 0 0 0 0 0 0 0 0 0 0 0 0 0 0 0 0 0 0 0 0 0 0 0 0 0 0 0 0 0 0 0 0 0 0 0 0 0 0 0 0 0 0 0 0 0 0 0 0 0 0 0 0 0 0 0 0 0 0 0 0 0 0 0 7 0 0 8 2 4 12 7 7 7 0 0 0 0 0 0 0 0 0 0 0 0 0 0 0 0 0 0 0 0 0 0 0 0 0 0 0 0 0 0 0 0 0 0 0 0 0 0 0 0 0 0 0 0 0 0 0 0 0 0 0 0 0 0 0 0 0 0 0 0 0 0 0 0 0 0 0 0 0 0 0 0 0 0 0 0 0 0 0 0 0 0 0 2 0 3 3 0 11 10 8 6 0 0 0 0 0 0 0 0 0 0 0 0 0 0 0 0 0 0 0 0 0 0 0 0 0 0 0 0 0 0 0 0 0 0 0 0 0 0 0 0 0 0 0 0 0 0 0 0 0 0 0 0 0 0 0 0 0 0 0 0 0 0 0 0 0 0 0 0 0 0 0 0 0 0 0 0 0 0 0 0 0 0 0 0 1 0 0 1 6 11 8 6 0 0 0 0 0 0 0 0 0 0 0 0 0 0 0 0 0 0 0 0 0 0 0 0 0 0 0 0 0 0 0 0 0 0 0 0 0 0 0 0 0 0 0 0 0 0 0 0 0 0 0 0 0 0 0 0 0 0 0 0 0 0 0 0 0 0 0 0 0 0 0 0 0 0 0 5 0 0 0 0 0 0 1 0 5 0 0 0 3 11 6 8 0 0 0 0 0 0 0 0 0 0 0 0 0 0 0 0 0 0 0 0 0 0 0 0 0 0 0 0 0 0 0 0 0 0 0 0 0 0 0 0 0 0 0 0 0 0 0 0 0 0 0 0 0 0 0 0 0 0 0 0 0 0 0 0 0 0 0 0 0 0 0 0 0 0 0 0 0 0 0 5 0 0 4 0 6 3 0 0 3 7 1 6 0 0 0 0 0 0 0 0 0 0 0 0 0 0 0 0 0 0 0 0 0 0 0 0 0 0 0 0 0 0 0 0 0 0 0 0 0 0 0 0 0 0 0 0 0 0 0 0 0 0 0 0 0 0 0 0 0 0 0 0 0 0 0 0 0 0 0 0 0 0 0 0 0 0 0 0 0 0 0 0 0 0 2 0 0 4 0 0 1 5 1 3 0 0 0 0 0 0 0 0 0 0 0 0 0 0 0 0 0 0 0 0 0 0 0 0 0 0 0 0 0 0 0 0 0 0 0 0 0 0 0 0 0 0 0 0 0 0 0 0 0 0 0 0 0 0 0 0 0 0 0 0 0 0 0 0 0 0 0 0 0 0 0 0 0 0 0 0 0 0 0 0 0 0 0 0 0 0 0 0 0 4 1 0 0 0 0 0 0 0 0 0 0 0 0 0 0 0 0 0 0 0 0 0 0 0 0 0 0 0 0 0 0 0 0 0 0 0 0 0 0 0 0 0 0 0 0 0 0 0 0 0 0 0 0 0 0 0 0 0 0 0 0 0 0 0 0 0 0 0 0 0 0 0 0 0 0 0 0 0 0 0 0 0 0 0 0 0 0 0 0 0 0 2 4 1 0 0 0 0 0 0 0 0 0 0 0 0 0 0 0 0 0 0 0 0 0 0 0 0 0 0 0 0 0 0 0 0 0 0 0 0 0 0 0 0 0 0 0 0 0 0 0 0 0 0 0 0 0 0 0 0 0 0 0 0 0 0 0 0 0 0 0 0 0 0 0 0 0 0 0 0 0 0 0 0 0 0 0 0 0 0 0 0 1 0 5 0 0 0 0 0 0 0 0 0 0 0 0 0 0 0 0 0 0 0 0 0 0 0 0 0 0 0 0 0 0 0 0 0 0 0 0 0 0 0 0 0 0 0 0 0 0 0 0 0 0 0 0 0 0 0 0 0 0 0 0 0 0 0 0 0 0 0 0 0 0 0 0 0 0 0 0 0 0 0 0 0 0 0 0 0 0 0 0 0 0 5 4 3 0 0 0 0 0 0 0 0 0 0 0 0 0 0 0 0 0 0 0 0 0 0 0 0 0 0 0 0 0 0 0 0 0 0 0 0 0 0 0 0 0 0 0 0 0 0 0 0 0 0 0 0 0 0 0 0 0 0 0 0 0 0 0 0 0 0 0 0 0 0 0 0 0 0 0 0 0 0 0 0 0 0 1 0 0 0 0 0 0 1 2 0 0 0 0 0 0 0 0 0 0 0 0 0 0 0 0 0 0 0 0 0 0 0 0 0 0 0 0 0 0 0 0 0 0 0 0 0 0 0 0 0 0 0 0 0 0 0 0 0 0 0 0 0 0 0 0 0 0 0 0 0 0 0 0 0 0 0 0 0 0 0 0 0 0 0 0 0 0 0 0 0 0 0 0 0 0 0 1 1 0 0 0 2 0 0 0 0 0 0 0 0 0 0 0 0 0 0 0 0 0 0 0 0 0 0 0 0 0 0 0 0 0 0 0 0 0 0 0 0 0 0 0 0 0 0 0 0 0 0 0 0 0 0 0 0 0 0 0 0 0 0 0 0 0 0 0 0 0 0 0 0 0 0 0 0 0 0 0 0 0 0 0 0 0 0 0 0 0 7 0 3 4 1 4 2 