P2
92
112
255
0 0 0 0 0 0 0 0 0 0 0 0 0 0 0 3 1 3 3 7 4 4 1 6 3 7 6 0 0 0 0 0 1 4 5 11 15 19 21 20 18 16 17 18 16 17 16 10 8 9 7 4 5 8 6 4 4 3 7 1 7 6 6 4 3 4 3 3 0 0 0 0 0 0 0 0 0 0 0 0 0 0 0 0 0 0 0 0 0 0 0 0 0 0 0 0 0 0 0 0 0 0 0 0 0 0 1 3 0 3 3 11 4 3 3 7 0 4 0 0 0 0 0 5 9 12 20 26 28 31 33 33 33 32 30 28 31 29 26 24 19 17 13 9 7 9 12 10 9 11 11 2 7 9 9 7 7 6 5 3 3 3 0 1 0 0 0 0 0 0 0 0 0 0 0 0 0 0 0 0 0 0 0 0 0 0 0 0 0 0 0 1 0 0 0 1 1 7 1 0 3 3 3 6 3 4 5 4 0 0 0 0 1 2 4 12 19 29 37 43 43 44 44 44 45 43 42 40 42 42 39 38 35 31 23 17 14 10 12 12 14 17 16 7 12 10 10 10 9 8 7 7 5 6 1 2 1 0 0 1 0 0 0 0 0 0 0 0 0 0 0 0 0 0 0 0 0 0 0 0 0 0 0 0 0 0 1 2 6 3 0 1 4 6 3 5 4 3 2 2 0 3 2 2 4 13 22 27 39 46 50 53 52 54 53 52 54 51 54 51 51 53 53 54 51 48 41 35 25 18 14 12 13 20 19 15 18 20 13 11 10 11 11 8 7 6 5 2 3 2 1 1 0 0 0 0 0 0 0 0 0 0 0 0 0 0 0 0 0 0 0 0 0 0 0 0 0 1 0 9 9 1 1 7 6 6 4 0 2 0 4 5 6 6 5 11 17 29 37 46 50 53 56 56 57 58 59 59 61 60 63 62 61 61 63 63 61 59 57 53 45 37 25 20 15 16 24 22 21 24 21 19 18 11 11 9 12 8 8 5 2 5 3 2 1 3 1 0 0 0 0 0 0 0 0 0 0 0 0 0 0 0 0 0 1 0 0 0 0 2 5 8 2 1 3 4 7 1 0 0 0 2 4 5 6 11 15 24 37 42 47 53 53 57 60 60 61 63 66 66 66 66 67 68 67 65 65 64 64 64 63 63 57 55 50 40 27 19 18 24 30 28 21 21 23 19 14 12 8 8 9 8 6 6 6 4 2 4 2 2 1 0 0 0 0 0 0 0 0 0 0 0 0 0 0 0 1 0 0 0 1 5 4 0 2 3 5 6 1 0 0 0 2 5 2 5 10 21 32 42 48 52 53 56 57 60 61 61 64 69 70 69 70 71 69 69 67 68 66 63 65 64 65 65 63 62 61 57 49 36 24 24 27 33 32 27 23 25 22 17 12 9 11 10 11 9 7 7 3 4 3 3 2 0 0 0 0 0 0 0 0 0 0 0 0 0 0 0 0 1 1 0 3 1 3 2 2 5 7 5 2 0 0 4 3 0 3 11 23 38 45 50 53 53 58 60 59 61 64 64 67 68 71 70 72 71 71 69 69 67 66 64 66 66 65 66 65 65 65 62 58 55 47 33 26 31 36 34 33 28 23 22 20 17 13 11 12 11 11 9 8 5 5 5 3 1 0 0 0 0 0 0 0 0 0 0 0 0 0 0 0 0 0 2 1 0 0 2 1 6 3 1 1 2 3 6 2 4 15 27 42 47 51 51 58 58 62 62 61 63 65 65 68 68 70 69 70 71 72 70 71 67 66 67 67 66 64 66 65 66 65 64 63 62 59 54 41 31 37 41 38 37 31 23 25 26 14 16 11 14 11 11 9 9 8 8 4 4 2 0 2 0 0 0 0 0 0 0 0 0 0 0 0 1 1 2 0 3 1 1 1 6 1 0 1 3 2 4 4 15 31 41 48 52 54 59 61 61 64 64 64 65 67 65 69 68 68 69 69 70 71 71 69 67 66 67 66 64 64 67 66 65 64 64 66 64 62 60 60 48 34 40 43 41 37 30 25 28 24 20 16 14 12 12 12 11 10 8 7 4 4 1 2 1 0 0 0 0 0 0 0 0 0 1 0 1 0 2 1 0 2 3 6 4 0 4 1 5 3 8 15 34 42 47 53 60 62 64 65 65 67 67 67 65 67 65 68 67 67 67 67 68 69 68 69 65 65 65 65 62 65 65 65 65 64 64 65 63 65 64 63 62 51 38 39 42 45 37 34 25 27 29 20 16 14 11 16 12 13 10 9 7 6 4 0 3 0 1 0 0 0 0 0 0 0 0 1 2 3 3 4 4 4 5 4 1 4 3 4 5 6 16 34 44 49 54 59 64 65 65 67 70 69 70 67 66 66 65 66 64 64 67 66 66 70 66 66 66 64 63 61 61 64 63 64 64 63 63 65 64 64 65 64 64 63 53 39 34 43 46 40 32 27 28 28 19 17 13 12 14 15 13 14 9 7 6 3 5 1 2 0 0 0 0 0 0 0 0 2 0 4 5 6 9 6 8 5 0 1 4 8 7 18 34 42 55 59 63 65 64 66 68 69 72 72 69 67 66 67 65 68 64 63 66 64 64 67 66 65 65 62 62 57 59 61 60 61 62 62 62 63 63 64 65 64 65 65 62 57 36 30 39 43 43 32 28 26 28 22 17 11 14 15 16 15 14 10 6 6 8 2 3 0 0 0 0 0 0 0 1 0 3 8 3 4 7 6 2 0 2 0 7 14 14 36 46 54 62 65 67 69 68 69 71 71 70 73 72 68 67 68 66 65 65 64 65 65 63 64 65 65 64 59 57 57 58 58 57 56 59 60 61 60 61 62 63 62 63 62 64 60 57 33 27 35 38 41 32 30 25 29 26 16 13 14 15 16 13 13 11 8 7 5 3 1 0 0 0 0 0 0 0 0 5 5 5 7 6 1 3 0 2 1 10 15 33 47 55 64 67 69 66 68 69 70 70 70 70 73 71 70 68 69 65 64 63 60 63 64 63 62 63 64 62 57 56 55 56 56 56 55 56 58 60 59 60 59 60 61 62 60 62 61 59 54 32 25 33 39 40 39 34 27 28 26 15 9 12 13 14 14 14 10 7 6 3 2 1 0 0 0 0 1 1 4 5 7 6 6 0 0 0 0 2 6 16 32 45 54 63 67 69 68 66 66 68 69 67 67 69 72 68 68 68 69 67 63 61 59 59 60 62 61 63 60 61 57 55 51 53 53 53 53 55 55 56 56 56 57 57 58 59 60 59 60 57 58 51 31 25 31 40 41 40 34 26 30 23 14 8 10 13 15 13 12 9 7 6 4 2 1 0 0 0 3 5 6 9 8 5 6 0 0 0 0 2 13 28 44 54 61 66 69 68 66 66 64 66 64 65 66 66 67 65 65 66 65 62 62 58 57 56 57 59 59 61 59 59 58 54 50 50 50 49 51 50 51 51 52 53 54 54 55 56 57 58 58 55 55 56 44 33 22 34 38 38 36 34 25 28 21 10 6 11 15 14 15 12 10 7 7 3 2 1 0 0 1 10 7 9 9 5 6 0 0 0 4 11 22 43 51 59 65 68 68 67 66 64 63 63 62 65 64 62 64 61 61 62 63 58 58 58 55 55 51 56 55 56 55 57 54 51 51 47 46 46 48 47 46 48 49 47 50 51 53 53 54 54 56 54 54 54 51 40 30 24 34 38 37 38 33 24 29 17 10 6 14 14 14 14 13 8 8 4 4 2 0 0 4 6 8 10 5 2 1 0 0 3 9 21 39 46 56 61 67 68 67 65 64 60 61 60 62 61 61 59 58 56 56 56 57 55 54 55 52 52 48 50 51 52 51 53 52 48 47 46 43 43 44 43 44 43 45 45 46 47 49 50 51 52 51 53 50 52 53 46 41 24 28 35 40 36 37 27 27 27 17 7 8 14 16 13 11 9 10 7 3 3 0 0 5 5 8 3 3 0 0 0 4 8 18 40 45 51 59 63 66 65 65 63 61 60 59 58 57 57 57 57 55 52 51 51 52 50 49 48 47 47 45 46 45 47 49 49 46 47 45 43 42 39 42 39 40 40 40 41 41 43 45 45 47 49 48 51 48 50 49 51 41 34 23 34 36 38 35 37 26 30 24 13 5 11 16 12 12 8 10 6 8 3 0 0 6 7 3 0 1 6 0 2 7 10 35 52 48 54 60 63 64 62 61 61 57 57 56 57 56 55 55 53 51 49 48 47 46 45 45 44 44 44 42 40 41 42 45 44 43 43 42 37 38 35 37 36 35 36 35 37 36 40 41 41 44 46 47 48 46 47 49 47 46 40 27 28 30 37 37 36 33 25 32 16 10 7 11 10 11 9 10 4 11 5 0 0 8 4 4 6 5 8 0 2 9 21 52 54 49 56 60 61 60 59 58 57 55 54 53 53 55 54 52 50 46 44 44 42 43 41 40 39 38 37 36 35 37 38 39 40 39 39 36 33 34 34 33 31 31 32 33 34 33 35 37 36 40 44 43 45 43 45 46 44 47 41 36 23 27 33 40 36 38 26 29 27 13 5 13 10 7 12 11 4 11 6 0 2 7 6 6 12 10 2 0 8 13 41 60 54 49 55 58 59 57 58 56 54 53 49 49 50 51 51 47 46 43 40 38 37 34 34 34 35 34 31 30 29 33 34 35 33 34 33 32 29 32 27 28 29 27 27 28 30 32 31 35 35 36 40 38 40 41 43 43 44 44 43 39 29 21 33 39 41 36 35 25 28 20 7 7 12 9 8 11 11 8 9 1 4 7 9 10 16 10 0 1 13 20 57 60 53 50 54 55 54 55 54 52 50 50 47 46 47 45 46 44 41 40 36 33 32 28 28 29 28 27 26 25 24 27 28 30 29 29 29 28 26 28 27 24 24 25 24 25 27 29 28 32 33 34 36 36 38 38 39 42 43 40 45 39 36 20 28 37 38 35 38 29 26 26 8 5 12 15 7 11 15 16 5 2 3 7 8 15 16 12 0 9 17 35 65 57 51 52 50 52 51 54 51 48 46 48 44 42 44 42 42 39 39 37 32 29 26 23 24 25 24 22 21 21 21 23 23 24 25 25 26 24 23 22 23 23 22 22 22 22 25 26 26 28 30 32 34 34 36 37 37 40 40 37 43 39 40 26 25 32 33 37 35 36 24 31 16 5 10 17 14 6 15 18 9 1 2 8 9 16 24 9 0 13 18 50 63 54 51 51 47 49 49 51 47 44 43 44 39 38 38 39 38 38 34 33 30 26 24 18 19 20 18 17 16 16 17 16 17 18 19 21 21 21 20 21 20 21 21 19 19 20 21 24 24 26 28 30 31 32 35 36 36 37 37 36 42 38 34 35 22 27 28 35 35 38 24 30 24 5 5 17 16 7 12 19 12 1 0 9 5 23 26 10 2 19 21 59 61 53 52 48 46 46 45 45 44 39 40 39 37 36 34 35 34 34 32 30 29 24 22 16 18 18 15 12 12 11 14 12 11 12 13 16 19 17 18 19 21 19 17 16 18 18 21 22 23 24 26 28 29 31 33 36 37 35 33 35 38 38 31 36 24 24 24 29 36 36 28 23 27 10 5 11 20 11 7 22 16 2 0 1 6 25 25 9 6 19 28 62 57 52 49 47 43 42 43 42 41 39 37 35 35 33 30 32 33 33 33 30 28 23 20 18 17 16 13 10 11 9 9 8 9 9 8 12 15 17 14 19 19 17 15 17 15 15 19 21 21 22 25 26 28 30 32 35 35 34 34 33 35 36 29 33 25 23 24 26 34 37 32 21 26 13 7 6 17 19 10 20 22 2 0 4 2 20 22 11 8 20 34 59 56 51 45 45 40 40 40 41 39 37 35 34 33 30 29 31 33 33 32 29 27 24 22 20 17 16 13 11 12 8 6 5 6 6 4 9 12 14 15 17 19 17 14 15 14 16 17 19 20 21 23 23 27 28 30 34 32 32 32 29 31 34 27 32 27 17 26 23 29 35 34 23 24 14 8 7 12 23 14 20 23 6 2 8 0 12 18 7 14 18 38 59 53 46 45 41 38 37 39 36 37 34 34 33 30 30 29 29 33 33 32 30 29 26 25 23 20 17 17 12 13 8 6 4 4 6 3 8 11 12 12 17 17 17 12 9 12 13 15 15 20 19 20 22 24 25 26 30 31 30 29 26 28 30 27 29 29 11 22 24 24 32 29 25 20 14 5 9 9 26 21 21 20 7 3 8 0 6 8 5 16 15 42 55 50 45 43 37 37 36 36 35 33 32 32 29 28 29 28 31 32 33 32 32 29 28 25 23 22 18 16 12 13 9 5 3 0 4 5 5 9 12 11 16 16 13 9 8 10 12 11 14 16 17 17 18 22 23 22 25 26 26 23 23 25 26 25 24 30 12 16 21 24 29 24 23 19 9 7 15 9 24 34 24 17 5 1 13 0 0 5 3 12 18 39 51 47 43 40 35 36 33 34 33 31 30 28 28 29 30 29 32 32 32 32 31 30 28 25 23 22 18 17 13 12 11 3 2 0 2 7 5 7 9 12 12 13 9 5 4 7 6 7 8 11 11 13 15 17 17 17 20 20 21 17 17 17 21 20 21 25 11 12 21 24 28 19 16 16 13 2 16 16 12 23 19 13 4 2 13 0 1 0 0 11 19 33 46 45 41 37 33 36 31 32 32 29 29 27 28 30 31 28 32 30 30 32 30 29 27 25 22 21 17 16 11 11 7 2 0 0 1 7 3 7 5 10 9 6 5 0 0 1 0 0 1 2 3 5 7 9 8 10 10 11 10 11 10 8 10 13 15 21 10 9 18 18 30 20 12 10 12 0 9 11 3 3 7 3 3 0 11 1 2 0 0 7 15 31 40 43 41 35 32 36 33 31 29 29 26 27 26 30 30 29 28 27 25 29 26 25 24 19 18 16 13 11 10 8 4 0 0 0 0 3 0 6 0 6 5 0 0 0 0 0 0 0 0 0 0 0 0 0 0 0 2 2 3 6 3 3 4 4 9 12 8 2 15 16 26 22 10 9 8 2 0 0 0 0 0 0 5 0 9 1 5 0 0 3 11 24 35 39 40 33 32 35 34 27 25 28 24 20 22 26 25 23 21 19 17 18 16 14 15 11 13 8 9 7 6 4 3 0 0 0 0 0 0 2 0 2 2 0 0 0 0 0 0 0 0 0 0 0 0 0 0 0 0 0 0 0 0 0 0 0 4 6 6 0 11 16 23 26 12 9 3 1 0 0 0 0 0 0 3 2 6 0 2 0 0 0 4 20 30 34 39 30 31 34 29 24 23 24 18 14 16 17 17 13 9 6 6 6 1 0 0 0 3 2 0 3 0 0 0 0 0 0 0 0 0 0 0 0 0 0 0 0 0 0 0 0 0 0 0 0 0 0 0 0 0 0 0 0 0 0 0 0 0 0 0 0 1 14 24 25 13 11 5 0 0 0 0 0 0 0 0 0 3 0 0 0 0 0 0 13 24 32 37 31 30 29 23 20 19 17 9 4 4 6 3 1 0 0 0 0 0 0 0 0 0 0 0 0 0 0 0 0 0 0 0 0 0 0 0 0 0 0 0 0 0 0 0 0 0 0 0 0 0 0 0 0 0 0 0 0 1 2 6 1 1 2 0 0 0 0 17 23 13 13 8 0 0 0 0 0 0 2 0 0 0 0 0 0 0 0 0 10 16 29 37 26 24 26 22 17 14 8 1 0 1 9 9 9 9 5 0 2 0 0 0 0 0 0 0 0 0 0 0 0 0 0 0 0 0 0 0 0 0 0 0 0 0 0 0 0 0 0 0 0 0 0 0 0 0 0 0 0 0 6 11 10 7 7 0 0 0 5 11 11 15 15 14 2 0 0 2 4 0 3 0 0 0 0 0 0 0 0 0 1 8 21 34 21 21 24 22 11 9 9 0 0 0 4 3 5 1 0 0 0 0 0 0 0 0 0 0 0 0 0 0 0 0 0 0 0 0 0 0 0 0 0 0 0 0 0 0 0 0 0 0 0 0 0 0 0 0 0 0 0 0 1 14 16 15 16 6 4 0 0 14 6 11 22 15 4 0 0 1 12 5 6 0 0 0 0 0 0 0 0 0 0 1 15 31 15 15 19 9 0 0 0 0 0 0 0 0 0 0 0 0 0 0 0 0 0 0 0 0 0 0 0 0 0 0 0 0 0 0 0 0 0 0 0 0 0 0 0 0 0 0 0 0 0 0 0 0 0 0 0 0 0 0 0 0 3 6 16 10 9 4 4 2 1 7 17 15 7 0 0 6 17 14 8 0 0 0 0 0 0 0 0 0 0 0 10 25 10 12 15 4 1 0 0 0 0 0 0 0 0 0 0 0 0 0 0 0 0 0 0 0 0 0 0 0 0 0 0 0 0 0 0 0 0 0 0 0 0 0 0 0 0 0 0 0 0 0 0 0 0 0 0 0 0 0 0 0 0 0 8 9 5 3 6 1 0 6 10 9 9 4 4 13 19 16 8 0 0 0 0 0 0 0 0 0 0 0 3 20 17 11 0 0 0 0 0 0 0 0 0 0 0 0 0 0 0 0 0 0 0 0 0 0 0 0 0 0 0 0 0 0 0 0 0 0 0 0 0 0 0 0 0 0 0 0 0 0 0 0 0 0 0 0 0 0 0 0 0 0 0 0 0 0 0 2 0 5 0 0 8 0 17 11 11 20 17 17 10 0 0 0 0 0 0 0 0 0 0 0 2 24 22 6 0 0 0 0 8 9 3 10 7 0 0 0 0 0 0 0 0 0 0 0 0 0 0 0 0 0 0 0 0 0 0 0 0 0 0 0 0 0 0 0 0 0 0 0 0 0 0 0 0 0 0 0 0 0 0 0 0 0 0 0 0 0 0 0 0 0 0 0 16 0 29 22 23 20 15 17 17 0 0 0 0 0 0 0 0 0 0 0 0 21 32 0 0 0 0 7 3 0 0 0 0 0 0 0 0 0 0 0 0 0 0 0 0 0 0 0 0 0 0 0 0 0 0 0 0 0 0 0 0 0 0 0 0 0 0 0 0 0 0 0 0 0 0 0 0 0 0 0 0 0 0 0 0 0 0 0 0 0 0 0 8 2 44 36 21 11 14 13 19 0 0 0 0 0 0 0 0 0 0 0 0 19 32 0 0 0 0 6 1 0 0 0 0 0 0 0 0 0 0 0 0 0 0 0 0 0 0 0 0 0 0 0 0 0 0 0 0 0 0 0 0 0 0 0 0 0 0 0 0 0 0 0 0 0 0 0 0 0 0 0 0 0 0 0 0 0 0 0 0 0 0 0 23 12 26 21 11 10 16 9 18 0 0 0 0 0 0 0 0 0 0 0 0 19 25 4 0 0 0 0 4 12 0 0 0 11 0 0 0 0 0 0 0 0 0 0 0 0 0 0 0 0 0 0 0 0 0 0 0 0 0 0 0 0 0 0 0 0 0 0 0 0 0 0 0 0 0 0 0 0 0 0 0 0 0 0 1 0 0 0 0 0 0 0 19 24 14 4 2 10 19 12 16 0 0 0 0 0 0 0 0 0 0 0 0 16 16 3 0 0 0 0 9 3 0 0 0 13 0 0 0 0 0 0 0 0 0 0 0 0 0 0 0 0 0 0 0 0 0 8 2 0 0 0 0 0 0 0 0 0 0 0 0 0 0 0 0 0 0 0 0 0 0 0 0 0 0 0 9 16 3 0 1 4 9 0 18 38 10 0 1 8 17 16 16 0 0 0 0 0 0 0 0 0 0 0 0 10 0 0 0 0 0 0 0 0 0 0 0 0 0 0 0 0 0 0 0 0 0 0 0 0 0 0 0 0 5 0 0 0 5 6 0 0 1 0 0 0 0 0 0 0 0 0 0 0 0 0 0 0 0 0 0 0 0 0 0 0 0 0 0 18 10 0 1 11 19 0 17 41 11 1 1 7 16 13 20 0 0 0 0 0 0 0 0 0 0 0 0 0 2 0 0 0 0 1 0 0 0 0 0 0 0 0 0 0 0 0 0 0 0 0 0 0 0 0 0 0 0 0 0 0 14 3 0 0 0 0 0 0 0 0 0 0 0 0 1 0 0 0 0 0 0 0 0 0 0 0 0 0 0 0 0 22 21 7 4 15 19 11 8 23 16 7 5 11 12 11 18 0 0 0 0 0 0 0 0 0 0 0 0 0 10 0 0 0 13 12 0 0 0 0 0 0 0 0 0 0 0 0 0 0 0 0 0 0 3 5 0 0 1 0 0 13 17 11 15 0 0 5 10 0 0 0 0 9 12 8 4 1 0 0 2 0 0 1 0 0 0 0 0 0 0 0 0 10 7 14 13 17 28 35 6 15 26 10 6 12 13 11 17 0 0 0 0 0 0 0 0 0 0 0 0 0 17 13 0 0 23 22 0 0 0 0 0 3 0 0 0 0 0 0 0 0 0 0 3 10 20 13 1 0 0 0 0 21 26 26 27 12 0 1 17 1 0 0 2 13 20 17 14 9 9 6 5 4 3 2 0 0 6 3 0 0 0 0 0 8 0 2 13 21 27 41 9 20 25 19 0 9 16 15 10 0 0 0 0 0 0 0 0 0 0 0 0 14 18 10 0 0 29 21 0 0 0 0 4 2 0 0 4 3 7 5 3 7 9 14 20 25 24 19 2 7 0 0 1 32 34 33 33 22 0 3 18 13 0 0 10 12 25 25 24 19 16 16 16 14 8 8 8 6 8 1 2 0 0 0 0 10 0 5 14 24 32 33 12 26 22 18 3 3 13 18 10 0 0 0 0 0 0 0 0 0 0 0 0 20 20 0 0 0 28 24 9 8 6 10 12 11 16 18 20 20 17 16 15 19 23 26 31 27 28 20 5 12 0 0 18 40 37 35 32 28 7 9 17 24 10 0 12 21 27 38 36 32 23 27 24 26 20 19 18 14 16 13 12 12 8 6 2 9 0 3 20 28 30 20 16 33 21 22 3 0 7 13 9 0 0 0 0 0 0 0 0 0 0 0 0 20 18 0 0 0 31 26 17 19 21 17 19 22 26 28 28 27 24 25 27 31 33 34 34 31 35 17 10 10 0 0 29 38 39 36 30 28 16 10 16 26 21 3 3 27 26 34 43 39 32 29 26 23 16 16 16 17 21 18 21 23 23 15 14 11 6 0 17 28 23 3 23 41 21 14 2 2 4 2 11 0 0 0 0 0 0 0 0 0 0 0 0 16 17 0 0 12 31 29 22 31 29 27 25 24 24 22 19 23 25 31 38 42 40 36 35 35 38 10 20 0 0 14 29 38 36 35 30 27 23 12 13 24 26 15 3 17 27 25 35 36 31 31 33 36 30 27 24 19 22 20 23 26 25 19 25 13 14 7 12 26 12 1 33 39 21 12 0 0 1 0 9 0 0 0 0 0 0 0 0 0 0 0 0 24 13 4 0 18 33 36 28 31 25 20 21 18 17 19 25 31 36 39 39 40 37 34 34 39 27 9 26 0 1 12 31 34 34 34 29 28 25 14 9 18 26 24 9 7 20 26 24 29 28 24 28 30 31 28 29 27 27 27 23 26 22 22 28 15 21 17 12 30 0 15 41 33 16 10 0 0 0 0 1 0 0 0 0 0 0 0 0 0 0 0 0 24 20 8 0 6 34 35 33 28 27 29 29 24 24 28 30 33 31 30 29 32 32 31 32 31 11 13 12 0 0 14 29 32 34 33 30 29 25 16 9 12 24 31 18 11 7 21 24 20 23 23 26 26 29 29 29 29 28 25 24 22 14 22 26 20 19 12 14 10 0 34 42 33 17 10 0 0 0 0 0 0 0 0 0 0 0 0 0 0 0 0 0 22 21 3 0 0 27 29 32 34 34 30 27 24 23 25 24 23 24 25 24 27 28 27 30 14 12 6 7 0 0 21 29 30 35 34 29 30 22 15 12 13 16 34 28 8 11 11 16 17 19 24 29 30 31 29 28 27 27 23 24 19 11 21 17 13 5 0 11 0 9 33 38 32 13 11 0 0 0 0 7 0 0 0 0 0 0 0 0 0 0 0 0 16 24 2 0 0 11 26 32 36 38 33 28 22 20 20 21 19 21 21 22 23 23 25 19 6 6 0 2 0 1 24 30 27 34 29 27 24 18 12 13 11 9 17 33 17 4 14 7 9 12 17 20 22 23 22 22 22 18 16 14 4 4 0 0 8 7 6 0 3 21 29 32 31 11 10 0 0 0 0 1 0 0 0 0 0 0 0 0 0 0 0 0 0 24 15 0 10 4 13 26 30 32 30 26 21 20 18 18 17 16 18 16 16 16 12 0 0 0 0 3 0 10 25 30 28 28 24 22 21 15 10 12 9 7 2 18 26 5 15 15 4 0 4 7 6 8 7 3 2 0 0 0 0 2 0 2 13 7 12 0 9 25 30 29 28 9 12 0 0 0 1 0 0 0 0 0 0 0 0 0 0 0 0 0 0 11 20 2 0 10 13 20 16 17 15 14 11 9 9 12 12 10 10 6 5 2 0 0 0 0 6 9 0 9 21 23 23 24 19 19 17 14 9 10 10 6 0 0 4 10 10 17 11 0 0 0 0 0 0 0 0 0 0 0 0 0 0 5 16 6 8 0 10 18 26 26 22 4 10 0 0 0 1 2 0 0 0 0 0 0 0 0 0 0 0 0 0 7 5 10 0 0 22 21 14 12 13 9 9 8 8 7 5 4 0 0 0 0 0 0 0 1 10 3 2 8 15 14 18 17 17 16 14 11 6 6 6 3 0 0 0 0 0 5 3 0 0 0 0 0 0 0 0 0 0 0 4 7 4 18 15 3 12 8 12 15 20 22 22 4 10 0 0 0 0 4 0 0 0 0 0 0 0 0 0 0 0 0 0 13 9 1 0 0 3 5 9 8 5 1 0 0 0 0 0 0 0 0 0 0 0 0 0 0 0 5 3 5 1 1 2 5 10 14 10 6 0 0 0 0 0 0 0 0 0 2 0 0 0 0 0 0 0 0 0 0 0 0 0 0 2 6 14 12 17 8 11 11 13 14 17 0 6 0 0 0 0 7 0 0 0 0 0 0 0 0 0 0 0 0 0 12 11 11 6 0 9 11 8 11 7 3 0 0 0 0 0 0 0 0 0 0 0 0 0 0 0 7 0 0 0 0 0 0 11 11 5 0 0 0 0 0 0 0 0 0 0 1 4 0 0 0 0 0 0 0 0 0 0 0 0 0 1 5 13 9 10 4 8 9 5 10 12 2 2 0 0 0 0 3 0 0 0 0 0 0 0 0 0 0 0 0 0 10 11 8 5 4 0 13 8 7 3 0 0 0 0 0 0 0 0 0 0 0 0 0 0 0 5 0 0 0 0 0 0 0 8 9 0 0 0 0 0 0 0 0 0 0 0 0 0 0 0 0 0 0 0 0 0 0 0 0 0 0 0 3 10 8 4 1 2 4 3 7 9 4 0 0 0 0 0 2 0 0 0 0 0 0 0 0 0 0 0 0 0 5 9 6 6 3 1 0 0 0 1 0 0 0 0 0 0 0 0 0 0 0 0 0 0 0 0 0 0 0 0 0 0 0 0 1 0 0 0 0 0 0 0 0 0 0 0 0 0 0 0 0 0 0 0 0 0 0 0 0 0 0 0 0 3 1 0 0 0 0 3 1 3 4 0 0 0 0 0 2 0 0 0 0 0 0 0 0 0 0 0 0 0 4 10 7 6 3 8 6 3 0 0 0 0 0 0 0 0 0 0 0 0 0 0 0 0 2 0 0 0 0 0 0 0 0 0 0 0 0 0 0 0 0 0 0 0 0 0 0 0 0 0 0 0 0 0 0 0 0 0 0 0 0 0 0 0 0 0 0 0 0 1 0 1 1 0 0 0 1 0 3 0 0 0 0 0 0 0 0 0 0 0 0 0 1 9 7 6 5 7 11 9 6 3 0 0 0 0 0 0 0 0 0 0 0 0 0 0 5 0 0 0 0 0 0 0 0 0 0 0 0 0 0 0 0 0 0 0 0 0 0 0 0 0 0 2 1 0 0 0 0 0 0 0 0 0 0 0 0 0 0 0 0 0 1 0 0 0 0 0 1 1 3 0 0 0 0 0 0 0 0 0 0 0 0 0 0 7 3 5 5 10 12 11 8 4 0 0 0 0 0 0 0 0 0 0 0 0 0 0 0 0 0 0 0 0 0 0 0 0 0 0 0 0 0 0 0 0 0 0 0 0 0 0 0 0 1 0 0 0 0 0 0 0 0 0 0 0 0 0 0 0 0 0 0 0 0 0 0 0 0 0 2 3 6 0 0 0 0 0 0 0 0 0 0 0 0 0 0 2 1 2 5 10 9 9 5 0 0 0 0 0 0 0 0 0 0 0 0 0 0 0 0 0 0 0 0 0 0 0 0 0 0 0 0 0 0 0 0 0 0 0 0 0 0 0 0 0 0 0 0 0 0 0 0 0 0 0 0 0 0 0 0 0 0 0 0 0 0 0 0 0 0 0 2 7 5 0 0 0 0 0 0 0 0 0 0 0 0 0 0 0 0 1 2 4 11 2 0 0 0 0 0 0 0 0 0 0 0 0 0 0 0 0 0 0 0 0 0 0 0 0 0 0 0 0 0 0 0 0 0 0 0 0 0 0 0 0 0 0 0 0 0 0 0 0 0 0 0 0 0 0 0 0 0 0 0 0 0 0 0 0 0 0 0 0 3 7 2 0 0 0 0 0 0 0 0 0 0 0 0 0 0 0 0 0 0 1 4 0 0 2 0 0 0 0 0 0 0 0 0 0 0 0 0 0 0 0 0 0 0 0 0 0 0 0 0 0 0 0 0 0 0 0 0 0 0 0 0 0 0 0 0 0 0 0 0 0 0 0 0 0 0 0 0 0 0 0 0 0 0 0 0 0 0 0 0 0 5 6 5 0 0 0 0 0 0 0 0 0 0 0 0 0 0 0 0 0 0 0 0 0 0 8 0 0 0 0 0 0 0 0 0 0 0 0 0 0 0 0 0 0 0 0 0 0 0 0 0 0 0 0 0 0 0 0 0 0 0 0 0 0 0 0 0 0 0 0 0 0 0 0 0 0 0 0 0 0 0 0 0 0 0 0 0 0 0 0 1 1 6 5 4 0 0 0 0 0 0 0 0 0 0 0 0 0 0 0 0 0 0 0 0 0 0 0 0 0 0 0 0 0 0 0 0 0 0 0 0 0 0 0 0 0 0 0 0 0 0 0 0 0 0 0 0 0 0 0 0 0 0 0 0 0 0 0 0 0 0 0 0 0 0 0 0 0 0 0 0 0 0 0 0 0 0 0 0 0 0 0 0 4 7 5 2 0 0 0 0 0 0 0 0 0 0 0 0 0 0 0 0 0 0 0 0 0 0 0 0 0 0 0 0 0 0 0 0 0 0 0 0 0 0 0 0 0 0 0 0 0 0 0 0 0 0 0 0 0 0 0 0 0 0 0 0 0 0 0 0 0 0 0 0 0 0 0 0 0 0 0 0 0 0 0 0 0 0 0 0 0 0 0 0 4 7 5 4 0 0 0 0 0 0 0 0 0 0 0 0 0 0 0 0 0 0 0 0 0 0 0 0 0 0 0 0 0 0 0 0 0 0 0 0 0 0 0 0 0 0 0 0 0 0 0 0 0 0 0 0 0 0 0 0 0 0 0 0 0 0 0 0 0 0 0 0 0 0 0 0 0 0 0 0 0 0 0 0 0 0 0 0 0 0 0 0 2 7 4 8 0 0 0 0 0 0 0 0 0 0 0 0 0 0 0 0 0 0 0 0 0 0 0 0 0 0 0 0 0 0 0 0 0 0 0 0 0 0 0 0 0 0 0 0 0 0 0 0 0 0 0 0 0 0 0 0 0 0 0 0 0 0 0 0 0 0 0 0 0 0 0 0 0 0 0 0 0 0 0 0 0 0 0 0 0 0 0 0 5 1 4 10 0 0 0 0 0 0 0 0 0 0 0 0 0 0 0 0 0 0 0 0 0 0 0 0 0 0 0 0 0 0 0 0 0 0 0 0 0 0 0 0 0 0 0 0 0 0 0 0 0 0 0 0 0 0 0 0 0 0 0 0 0 0 0 0 0 0 0 0 0 0 0 0 0 0 0 0 0 0 0 0 0 0 0 0 0 0 0 0 3 0 5 7 0 0 0 0 0 0 0 0 0 0 0 0 0 0 0 0 0 0 0 0 0 0 0 0 0 0 0 0 0 0 0 0 0 0 0 0 0 0 0 0 0 0 0 0 0 0 0 0 0 0 0 0 0 0 0 0 0 0 0 0 0 0 0 0 0 0 0 0 0 0 0 0 0 0 0 0 0 0 0 0 0 0 0 0 0 0 0 2 4 0 4 5 0 0 0 0 0 0 0 0 0 0 0 0 0 0 0 0 0 0 0 0 0 0 0 0 0 0 0 0 0 0 0 0 0 0 0 0 0 0 0 0 0 0 0 9 0 0 17 8 17 3 0 0 0 0 0 0 0 0 0 0 0 0 0 0 0 0 0 0 0 0 0 0 0 0 0 0 0 0 0 0 0 0 0 0 0 0 0 1 2 2 1 7 1 0 0 0 0 0 0 0 0 0 0 0 0 0 0 0 0 0 0 0 0 0 0 0 0 0 0 0 0 0 0 0 0 0 0 0 0 0 0 1 0 0 0 2 0 0 16 10 5 0 0 0 0 0 0 0 0 0 0 0 0 0 0 0 0 0 0 0 0 0 0 0 0 0 0 0 0 0 0 0 0 0 0 0 0 0 0 0 1 4 6 9 2 0 0 0 0 0 0 0 0 0 0 0 0 0 0 0 0 0 0 0 0 0 0 0 0 0 0 0 0 0 0 0 0 0 0 0 0 0 0 0 0 0 0 0 0 0 15 3 10 0 0 0 0 0 0 0 0 0 0 0 0 0 0 0 0 0 0 0 0 0 0 0 0 0 0 0 0 0 0 0 0 0 0 0 0 0 0 0 0 5 13 13 0 4 0 0 0 0 0 0 0 0 0 0 0 0 0 0 0 0 0 0 0 0 0 0 0 0 0 0 0 0 0 0 0 0 0 0 0 0 3 12 8 0 10 16 4 5 24 19 28 26 9 6 7 3 0 0 0 0 0 0 0 0 0 0 0 0 0 0 0 0 0 0 0 0 0 0 0 0 0 0 0 0 0 0 0 0 0 2 0 8 11 15 0 0 0 0 0 0 0 0 0 0 0 0 0 0 0 0 0 0 0 0 0 0 0 0 0 0 0 0 0 0 0 0 0 0 0 0 0 3 5 20 11 8 20 27 16 16 26 27 31 28 22 16 13 10 2 2 0 0 0 5 0 0 0 0 0 0 0 0 0 0 0 0 0 0 0 0 0 0 0 0 0 0 0 0 0 0 0 1 7 10 12 10 0 0 0 0 0 0 0 0 0 0 0 0 0 0 0 0 0 0 0 0 0 0 0 0 0 0 0 0 0 0 0 0 0 0 0 0 0 9 9 18 15 11 21 23 17 16 30 27 32 27 22 13 12 14 6 6 0 1 3 0 0 0 0 0 0 0 0 0 0 0 0 0 0 0 0 0 0 0 0 0 0 0 0 0 0 0 1 2 7 14 14 10 0 0 0 0 0 0 0 0 0 0 0 0 0 0 0 0 0 0 0 0 0 0 0 0 0 0 0 0 0 0 0 0 0 0 0 0 0 6 9 17 15 13 12 25 14 8 28 28 26 21 9 7 13 12 8 6 0 0 5 0 0 0 0 0 0 0 0 0 0 0 0 0 0 0 0 0 0 0 0 0 0 0 0 0 0 0 5 5 9 12 11 14 0 0 0 0 0 0 0 0 0 0 0 0 0 0 0 0 0 0 0 0 0 0 0 0 0 0 0 0 0 0 0 0 0 0 0 0 0 0 5 10 7 11 7 15 8 4 8 9 9 5 6 0 4 6 3 0 0 0 0 0 0 0 0 0 0 0 0 0 0 0 0 0 0 0 0 0 0 0 0 0 0 0 0 0 0 2 5 8 11 12 10 15 0 0 0 0 0 0 0 0 0 0 0 0 0 0 0 0 0 0 0 0 0 0 0 0 0 0 0 0 0 0 0 0 0 0 0 0 0 0 0 0 2 3 1 0 0 0 0 0 0 1 5 0 0 2 2 0 0 0 0 0 0 0 0 0 0 0 0 0 0 0 0 0 0 0 0 0 0 0 0 0 0 0 0 0 0 1 7 9 8 14 12 14 0 0 0 0 0 0 0 0 0 0 0 0 0 0 0 0 0 0 0 0 0 0 0 0 0 0 0 0 0 0 0 0 0 0 0 0 0 0 0 0 0 0 0 0 0 0 0 0 0 0 0 0 0 0 0 0 0 0 0 0 0 0 0 0 0 0 0 0 0 0 0 0 0 0 0 0 0 0 0 0 0 0 0 0 0 3 8 10 8 17 12 20 0 0 0 0 0 0 0 0 0 0 0 0 0 0 0 0 0 0 0 0 0 0 0 0 0 0 0 0 0 0 0 0 0 0 0 0 0 0 0 0 0 0 0 0 0 0 0 0 0 0 0 0 0 0 0 0 0 0 0 0 0 0 0 0 0 0 0 0 0 0 0 0 0 0 0 0 0 0 0 0 0 0 0 0 1 9 8 10 12 11 12 17 0 0 2 0 0 0 0 0 0 0 0 0 0 0 0 0 0 0 0 0 0 0 0 0 0 0 0 0 0 0 0 0 0 0 0 0 0 0 0 0 0 0 0 0 0 0 0 0 0 0 0 0 0 0 0 0 0 0 0 0 0 0 0 0 0 0 0 0 0 0 0 0 0 0 0 0 0 0 0 0 0 0 0 0 0 8 11 14 10 9 10 15 0 0 0 0 0 0 0 0 0 0 0 0 0 0 0 0 0 0 0 0 0 0 0 0 0 0 0 0 0 0 0 0 0 0 0 0 0 0 0 0 0 0 0 0 0 0 0 0 0 0 0 0 0 0 0 0 0 0 0 0 0 0 0 0 0 0 0 0 0 0 0 0 0 0 0 0 0 0 0 0 0 0 2 0 0 2 13 11 9 8 10 13 1 0 0 0 0 0 0 0 0 0 0 0 0 0 0 0 0 0 0 0 0 0 0 0 0 0 0 0 0 0 0 0 0 0 0 0 0 0 0 0 0 0 0 0 0 0 0 0 0 0 0 0 0 0 0 0 0 0 0 0 0 0 0 0 0 0 0 0 0 0 0 0 0 0 0 0 0 0 0 0 0 0 0 0 0 0 6 13 11 9 10 11 1 0 0 0 0 0 0 0 0 0 0 0 0 0 0 0 0 0 0 0 0 0 0 0 0 0 0 0 0 0 0 0 0 0 0 0 0 0 0 0 0 0 0 0 0 0 0 0 0 0 0 0 0 0 0 0 0 0 0 0 0 0 0 0 0 0 0 0 0 0 0 0 0 0 0 0 0 0 0 0 0 0 0 7 0 0 1 12 13 9 8 12 0 0 0 0 0 0 0 0 0 0 0 0 0 0 0 0 0 0 0 0 0 0 0 0 0 0 0 0 0 0 0 0 0 0 0 0 0 0 0 0 0 0 0 0 0 0 0 0 0 0 0 0 0 0 0 0 0 0 0 0 0 0 0 0 0 0 0 0 0 0 0 0 0 0 0 0 0 0 0 0 0 0 0 8 2 0 4 9 9 10 8 13 0 0 0 0 0 0 0 0 0 0 0 0 0 0 0 0 0 0 0 0 0 0 0 0 0 0 0 0 0 0 0 0 0 0 0 0 0 0 0 0 0 0 0 0 0 0 0 0 0 0 0 0 0 0 0 0 0 0 0 0 0 0 0 0 0 0 0 0 0 0 0 0 0 0 0 0 0 0 0 0 0 0 0 1 2 4 3 7 9 7 8 8 0 0 0 0 0 0 0 0 0 0 0 0 0 0 0 0 0 0 0 0 0 0 0 0 0 0 0 0 0 0 0 0 0 0 0 0 0 0 0 0 0 0 0 0 0 0 0 0 0 0 0 0 0 0 0 0 0 0 0 0 0 0 0 0 0 0 0 0 0 0 0 0 0 0 0 0 0 0 0 0 0 0 0 0 1 7 5 4 4 9 10 8 0 0 0 0 0 0 0 0 0 0 0 0 0 0 0 0 0 0 0 0 0 0 0 0 0 0 0 0 0 0 0 0 0 0 0 0 0 0 0 0 0 0 0 0 0 0 0 0 0 0 0 0 0 0 0 0 0 0 0 0 0 0 0 0 0 0 0 0 0 0 0 0 0 0 0 0 0 0 0 0 0 0 0 0 3 6 8 7 5 6 9 10 0 0 0 0 0 0 0 0 0 0 0 0 0 0 0 0 0 0 0 0 0 0 0 0 0 0 0 0 0 0 0 0 0 0 0 0 0 0 0 0 0 0 0 0 0 0 0 0 0 0 0 0 0 0 0 0 0 0 0 0 0 0 0 0 0 0 0 0 0 0 0 0 0 0 0 0 0 0 0 0 0 0 3 0 0 7 6 8 8 4 7 6 0 0 0 0 0 0 0 0 0 0 0 0 0 0 0 0 0 0 0 0 0 0 0 0 0 0 0 0 0 0 0 0 0 0 0 0 0 0 0 0 0 0 0 0 0 0 0 0 0 0 0 0 0 0 0 0 0 0 0 0 0 0 0 0 0 0 0 0 0 0 0 0 0 0 0 0 0 0 0 0 0 0 7 0 0 8 2 4 12 7 7 7 0 0 0 0 0 0 0 0 0 0 0 0 0 0 0 0 0 0 0 0 0 0 0 0 0 0 0 0 0 0 0 0 0 0 0 0 0 0 0 0 0 0 0 0 0 0 0 0 0 0 0 0 0 0 0 0 0 0 0 0 0 0 0 0 0 0 0 0 0 0 0 0 0 0 0 0 0 0 0 0 0 0 0 1 0 3 3 0 10 10 7 5 0 0 0 0 0 0 0 0 0 0 0 0 0 0 0 0 0 0 0 0 0 0 0 0 0 0 0 0 0 0 0 0 0 0 0 0 0 0 0 0 0 0 0 0 0 0 0 0 0 0 0 0 0 0 0 0 0 0 0 0 0 0 0 0 0 0 0 0 0 0 0 0 0 0 0 0 0 0 0 0 0 0 0 0 1 0 0 1 6 10 8 6 0 0 0 0 0 0 0 0 0 0 0 0 0 0 0 0 0 0 0 0 0 0 0 0 0 0 0 0 0 0 0 0 0 0 0 0 0 0 0 0 0 0 0 0 0 0 0 0 0 0 0 0 0 0 0 0 0 0 0 0 0 0 0 0 0 0 0 0 0 0 0 0 0 0 0 5 0 0 0 0 0 0 0 0 5 0 0 0 3 11 5 8 0 0 0 0 0 0 0 0 0 0 0 0 0 0 0 0 0 0 0 0 0 0 0 0 0 0 0 0 0 0 0 0 0 0 0 0 0 0 0 0 0 0 0 0 0 0 0 0 0 0 0 0 0 0 0 0 0 0 0 0 0 0 0 0 0 0 0 0 0 0 0 0 0 0 0 0 0 0 0 5 0 0 4 0 6 3 0 0 3 6 1 6 0 0 0 0 0 0 0 0 0 0 0 0 0 0 0 0 0 0 0 0 0 0 0 0 0 0 0 0 0 0 0 0 0 0 0 0 0 0 0 0 0 0 0 0 0 0 0 0 0 0 0 0 0 0 0 0 0 0 0 0 0 0 0 0 0 0 0 0 0 0 0 0 0 0 0 0 0 0 0 0 0 0 2 0 0 3 0 0 1 4 0 2 0 0 0 0 0 0 0 0 0 0 0 0 0 0 0 0 0 0 0 0 0 0 0 0 0 0 0 0 0 0 0 0 0 0 0 0 0 0 0 0 0 0 0 0 0 0 0 0 0 0 0 0 0 0 0 0 0 0 0 0 0 0 0 0 0 0 0 0 0 0 0 0 0 0 0 0 0 0 0 0 0 0 0 0 0 0 0 0 0 3 0 0 0 0 0 0 0 0 0 0 0 0 0 0 0 0 0 0 0 0 0 0 0 0 0 0 0 0 0 0 0 0 0 0 0 0 0 0 0 0 0 0 0 0 0 0 0 0 0 0 0 0 0 0 0 0 0 0 0 0 0 0 0 0 0 0 0 0 0 0 0 0 0 0 0 0 0 0 0 0 0 0 0 0 0 1 0 0 0 0 0 2 4 1 0 0 0 0 0 0 0 0 0 0 0 0 0 0 0 0 0 0 0 0 0 0 0 0 0 0 0 0 0 0 0 0 0 0 0 0 0 0 0 0 0 0 0 0 0 0 0 0 0 0 0 0 0 0 0 0 0 0 0 0 0 0 0 0 0 0 0 0 0 0 0 0 0 0 0 0 0 0 0 0 0 0 0 0 0 0 0 0 1 0 4 0 0 0 0 0 0 0 0 0 0 0 0 0 0 0 0 0 0 0 0 0 0 0 0 0 0 0 0 0 0 0 0 0 0 0 0 0 0 0 0 0 0 0 0 0 0 0 0 0 0 0 0 0 0 0 0 0 0 0 0 0 0 0 0 0 0 0 0 0 0 0 0 0 0 0 0 0 0 0 0 0 0 0 0 0 0 0 0 0 0 5 4 2 0 0 0 0 0 0 0 0 0 0 0 0 0 0 0 0 0 0 0 0 0 0 0 0 0 0 0 0 0 0 0 0 0 0 0 0 0 0 0 0 0 0 0 0 0 0 0 0 0 0 0 0 0 0 0 0 0 0 0 0 0 0 0 0 0 0 0 0 0 0 0 0 0 0 0 0 0 0 0 0 0 0 1 0 0 0 0 0 0 1 2 0 0 0 0 0 0 0 0 0 0 0 0 0 0 0 0 0 0 0 0 0 0 0 0 0 0 0 0 0 0 0 0 0 0 0 0 0 0 0 0 0 0 0 0 0 0 0 0 0 0 0 0 0 0 0 0 0 0 0 0 0 0 0 0 0 0 0 0 0 0 0 0 0 0 0 0 0 0 0 0 0 0 0 0 0 0 0 1 1 0 0 0 2 0 0 0 0 0 0 0 0 0 0 0 0 0 0 0 0 0 0 0 0 0 0 0 0 0 0 0 0 0 0 0 0 0 0 0 0 0 0 0 0 0 0 0 0 0 0 0 0 0 0 0 0 0 0 0 0 0 0 0 0 0 0 0 0 0 0 0 0 0 0 0 0 0 0 0 0 0 0 0 0 0 0 0 0 0 7 1 3 4 2 4 2 