P2
92
112
255
44 44 42 44 42 43 43 43 43 43 43 43 43 41 41 41 40 37 41 45 45 45 47 48 46 47 49 51 47 50 54 50 49 53 51 51 52 48 49 47 41 36 38 36 38 40 33 33 35 36 34 35 37 39 41 44 45 46 44 43 44 46 43 43 45 45 44 43 42 45 45 44 44 42 42 41 41 40 40 39 39 39 38 38 37 38 38 38 39 38 38 38 43 44 43 42 44 43 43 44 43 43 44 45 43 42 43 42 39 38 42 44 44 48 47 45 47 49 51 54 53 50 52 52 45 47 48 47 49 44 45 44 36 33 36 37 36 32 34 33 40 40 35 36 38 43 44 44 46 45 44 43 46 48 45 43 45 44 42 45 44 45 43 45 42 44 44 42 42 42 41 41 40 40 39 39 39 37 38 37 38 37 38 39 43 43 42 43 44 43 43 44 43 44 44 43 44 41 43 38 39 38 42 42 46 48 50 48 48 53 49 51 53 51 47 46 43 41 43 41 40 38 39 39 36 35 35 36 35 33 40 39 42 40 43 41 46 48 47 42 46 46 44 47 49 49 50 45 46 42 42 45 46 46 44 44 44 42 45 42 43 43 42 41 39 41 40 39 39 38 38 37 37 38 38 39 44 43 43 43 44 42 44 43 45 44 43 43 41 40 41 37 40 43 44 46 50 47 49 53 50 50 49 50 48 48 46 39 38 36 36 34 31 32 32 32 30 31 33 34 36 34 37 37 39 38 39 43 49 53 49 42 47 52 54 53 55 54 52 50 46 42 44 45 46 49 48 47 46 43 43 43 46 45 44 43 39 40 40 40 38 38 39 38 38 38 38 37 44 42 43 43 44 44 45 46 45 44 43 43 39 41 38 40 42 44 50 50 54 52 51 52 51 48 46 46 43 40 39 34 32 26 26 25 25 23 23 23 21 18 22 25 25 24 27 31 34 31 35 38 43 49 46 43 47 55 59 58 58 58 52 52 46 45 53 44 48 52 50 51 47 44 44 46 47 49 48 46 42 41 40 41 40 39 38 40 38 38 38 37 43 43 44 45 44 45 46 45 47 44 45 44 42 46 44 46 49 47 49 53 54 55 49 49 47 47 42 39 38 34 33 27 26 23 22 22 17 13 15 14 14 15 17 21 21 20 23 26 24 27 27 28 32 38 40 41 46 53 57 57 51 49 48 50 44 47 57 49 47 58 54 51 52 49 42 48 55 46 46 49 45 42 42 43 40 40 39 38 38 38 37 38 44 43 44 43 45 45 47 46 48 49 45 45 45 47 51 51 50 52 49 54 59 58 52 47 47 44 39 35 31 32 30 24 18 16 15 11 10 10 11 9 8 8 13 17 20 23 26 25 24 23 23 25 30 33 36 35 40 47 50 51 48 50 53 51 45 45 55 54 51 56 52 53 53 49 46 52 56 45 47 49 49 42 44 43 42 41 42 39 37 39 37 38 44 43 44 44 44 49 49 47 48 49 47 46 46 52 55 57 52 55 56 58 58 57 52 46 44 39 36 30 29 25 20 18 14 11 14 10 10 11 13 13 11 11 15 17 19 22 20 21 22 19 21 24 29 30 31 32 37 41 45 50 49 47 48 47 41 49 50 51 53 55 55 53 47 47 50 53 53 45 45 51 53 46 46 44 43 41 42 42 39 39 37 37 44 43 44 46 47 48 47 47 48 49 47 48 51 52 58 59 57 56 58 59 56 54 48 43 38 35 31 29 24 22 18 13 15 17 16 14 13 10 9 8 8 9 15 14 15 13 12 15 18 22 24 25 27 28 29 32 35 40 40 45 45 48 51 46 43 50 54 50 49 49 52 49 43 50 53 51 51 45 43 54 53 45 46 46 44 42 40 42 41 40 37 38 42 44 45 43 45 49 47 46 46 45 52 52 57 58 57 63 63 62 59 56 53 52 47 39 35 30 26 26 23 19 16 16 13 14 18 14 12 12 8 4 7 10 15 18 13 13 14 16 15 19 20 23 23 24 25 27 29 32 34 36 41 46 45 41 43 45 50 49 45 49 49 43 46 50 50 50 45 47 45 48 47 44 45 44 44 43 42 43 42 39 38 38 43 46 44 46 46 47 50 48 45 46 50 55 60 62 62 63 61 60 57 51 47 45 40 36 32 31 28 26 23 21 19 21 19 17 18 16 12 13 11 9 8 13 16 13 10 14 16 16 15 13 16 16 20 22 22 22 24 26 27 31 36 37 34 35 42 41 45 48 45 47 46 41 45 44 47 46 47 44 45 41 40 42 46 44 42 42 42 44 41 38 38 38 44 43 44 47 47 47 48 49 48 48 47 54 62 67 65 63 62 63 61 50 41 38 36 31 31 28 25 22 20 20 18 18 18 19 14 12 11 13 11 9 7 12 12 13 12 17 14 12 12 12 13 14 17 18 21 20 22 25 25 31 33 34 32 34 43 44 44 47 45 47 48 47 47 46 50 47 48 52 45 39 41 42 46 45 41 42 43 44 40 38 40 37 43 43 45 46 45 46 47 48 50 52 51 54 61 66 65 60 58 57 54 48 41 37 34 30 28 24 23 20 19 19 16 15 13 15 13 10 7 8 7 5 5 6 7 12 13 13 13 11 13 13 15 14 15 13 13 16 22 26 27 31 33 34 32 35 40 41 42 44 42 44 48 51 46 49 51 48 51 51 42 41 46 44 44 44 43 43 44 43 40 38 38 38 42 45 46 45 44 46 50 49 51 51 54 58 59 62 60 57 55 52 49 45 41 37 32 26 26 23 25 24 21 16 13 13 13 10 8 8 6 3 3 4 4 4 4 4 6 9 11 10 11 11 14 12 9 9 12 17 20 23 26 28 29 34 33 37 39 38 38 37 37 41 45 42 41 45 50 50 51 48 42 43 45 41 39 38 46 44 43 40 41 40 38 37 42 42 45 45 41 45 47 50 54 53 54 58 57 56 52 50 47 45 46 41 41 35 31 23 22 21 22 20 18 13 12 9 7 8 7 4 1 1 0 2 0 0 3 4 2 5 6 6 7 12 14 14 11 12 13 14 16 19 20 23 25 27 27 28 31 31 30 29 31 33 35 37 37 45 51 49 49 50 47 44 42 40 37 35 42 44 42 39 40 41 38 38 42 44 43 40 42 42 42 46 47 51 54 54 53 51 49 47 45 44 39 38 40 38 31 26 24 20 17 15 15 12 12 10 8 7 6 2 0 0 1 0 0 0 0 4 0 4 1 2 2 4 6 6 9 11 10 11 12 13 14 17 22 24 25 21 23 23 27 24 27 30 33 35 38 42 46 44 47 47 48 40 35 35 32 31 37 37 38 37 36 42 40 37 44 42 43 43 38 36 37 43 44 49 49 51 49 47 44 42 42 39 35 34 36 34 27 24 22 20 17 15 14 12 12 8 8 5 4 2 0 0 0 0 0 0 0 2 0 1 1 1 3 0 3 3 5 6 10 10 11 12 12 13 15 17 15 14 12 15 19 21 23 25 30 34 33 39 44 42 42 42 40 36 34 28 28 25 30 36 39 38 36 39 41 39 42 41 39 43 36 30 34 40 47 52 51 49 46 41 41 38 36 35 35 38 33 32 29 26 24 20 19 17 17 15 11 8 7 5 3 2 2 0 0 0 0 0 0 0 0 0 2 0 0 0 0 3 5 4 11 12 12 14 14 12 13 12 9 6 1 1 1 5 7 14 19 24 28 33 36 34 36 35 36 34 30 28 25 26 24 33 39 38 38 34 40 39 42 42 41 41 31 32 33 41 48 50 53 50 45 39 37 37 38 35 34 33 33 30 31 28 26 22 19 18 17 17 12 13 10 10 7 4 2 2 3 0 2 0 0 0 0 0 0 1 0 0 0 0 2 3 7 8 10 12 13 13 12 14 10 5 1 0 0 0 1 3 11 19 27 29 33 30 33 30 32 29 27 27 24 24 20 31 37 40 36 36 38 40 39 41 38 41 32 29 38 42 44 50 51 49 47 45 43 43 40 35 32 30 29 32 30 28 27 23 23 20 19 19 19 16 12 12 8 6 5 5 6 7 5 3 1 0 0 0 0 0 0 0 0 2 3 2 6 6 8 11 13 12 12 15 15 10 3 2 0 0 0 0 3 12 23 26 30 28 30 27 29 28 25 23 23 23 17 29 37 38 37 38 38 40 39 41 38 35 31 32 33 37 42 48 47 55 52 49 44 45 44 37 31 30 31 31 30 29 29 28 26 24 21 20 20 19 15 14 12 9 9 7 10 10 9 7 4 0 2 3 1 0 1 2 1 2 6 5 6 8 8 8 10 12 9 13 13 13 9 3 3 0 0 0 0 2 9 11 16 19 19 21 22 25 24 19 23 24 19 29 36 37 36 39 39 42 40 41 37 37 32 33 32 37 48 55 59 61 55 51 47 47 42 37 35 34 35 31 31 31 31 28 27 25 24 21 21 22 23 21 21 15 14 13 13 12 12 11 7 6 5 6 6 4 0 2 4 2 3 5 6 6 10 8 9 10 11 11 13 12 11 7 4 5 4 2 6 5 7 10 12 11 9 13 13 17 17 19 22 24 23 28 36 38 40 38 41 43 41 41 37 35 32 31 34 45 55 63 66 65 58 52 47 44 43 41 40 38 34 31 31 30 31 30 28 26 28 26 26 26 26 27 25 21 18 19 19 19 17 14 13 11 12 10 11 8 4 4 5 4 6 7 7 8 11 10 9 10 11 12 12 14 13 11 7 7 7 8 10 11 11 10 9 9 5 4 11 11 10 16 17 21 21 29 35 38 39 41 41 43 43 43 39 38 33 33 41 54 62 66 70 64 59 53 52 49 48 48 42 37 34 29 29 30 31 32 29 28 30 28 28 29 30 30 31 29 25 25 24 23 21 22 18 17 17 17 15 13 11 10 6 6 8 9 7 8 10 11 11 10 9 10 11 13 11 12 10 9 8 6 7 9 8 12 10 8 5 3 3 6 3 9 13 14 20 24 32 39 39 43 43 43 44 44 42 39 36 35 50 62 65 67 68 64 60 59 56 52 51 48 45 40 36 32 29 31 30 32 31 31 31 30 30 32 33 33 32 31 29 27 27 23 22 22 22 20 19 20 18 17 16 15 14 13 13 12 11 11 11 13 12 13 10 9 10 12 11 10 11 11 9 7 7 5 3 5 7 2 0 1 1 4 6 7 12 13 17 24 27 37 40 44 44 42 44 44 47 38 37 44 57 64 67 68 69 68 64 61 58 54 51 48 45 41 38 35 32 32 33 33 33 34 33 33 32 34 33 34 33 33 33 30 27 25 24 24 24 24 23 20 21 23 21 19 18 18 16 15 14 13 12 12 13 15 12 10 10 10 9 11 12 12 13 10 9 8 5 6 4 6 0 0 0 0 3 8 10 14 15 26 25 35 41 45 44 42 44 46 46 40 42 50 60 66 69 72 72 69 63 63 59 54 52 46 44 43 40 37 34 33 35 35 35 35 35 34 33 34 34 32 33 33 32 31 29 29 27 27 25 25 24 22 23 24 24 22 20 20 20 19 17 15 14 14 13 14 14 13 10 10 10 10 12 14 15 14 13 13 8 9 9 12 10 6 3 0 0 3 7 10 13 20 28 34 41 46 44 41 48 45 48 41 47 55 62 68 73 74 73 69 66 62 58 55 51 46 45 44 40 39 39 36 37 37 36 37 37 34 32 32 31 32 33 33 32 31 29 29 29 28 25 25 24 23 23 22 24 23 22 21 20 22 19 18 17 15 14 14 14 12 13 9 9 10 11 12 13 14 13 15 11 12 14 12 16 14 9 0 0 0 5 7 11 15 28 36 42 46 44 42 47 47 47 46 51 57 66 71 75 76 73 68 65 61 57 54 50 46 45 44 42 40 39 39 37 36 37 36 35 34 31 30 30 32 32 32 31 29 30 29 28 27 26 26 25 24 25 23 23 25 23 23 23 21 21 20 18 17 16 14 13 12 12 12 7 8 9 10 11 13 13 16 15 14 15 12 17 16 12 3 0 0 4 7 12 12 25 36 42 45 45 42 46 46 50 50 56 62 68 75 77 79 72 69 64 60 56 52 48 46 43 42 40 41 39 38 37 36 37 36 36 34 33 30 31 32 32 31 29 28 29 29 28 27 27 27 25 23 24 24 23 24 24 24 23 22 22 21 19 18 17 15 14 15 12 11 10 6 6 9 11 12 14 15 16 15 14 14 14 17 15 8 0 0 2 10 12 11 22 34 41 43 44 41 44 49 50 56 58 64 71 77 81 78 71 67 63 59 55 52 47 45 42 40 39 39 38 38 37 37 37 36 35 34 33 31 30 30 30 29 28 28 28 28 26 26 26 26 24 23 23 23 22 23 22 23 23 23 22 21 20 20 19 18 15 15 12 11 9 7 5 6 9 12 13 16 16 16 17 15 13 13 14 11 1 0 2 10 14 13 19 32 39 43 44 42 45 48 54 59 60 66 73 78 81 76 71 64 62 57 54 49 46 44 41 38 38 36 36 37 37 37 35 35 35 34 32 31 30 28 28 29 28 28 27 27 26 26 25 25 24 23 23 22 22 21 21 21 22 22 23 21 21 20 21 18 16 14 13 9 8 6 6 6 9 10 13 14 14 15 16 17 12 12 11 14 9 3 4 8 11 9 22 28 36 43 43 41 50 48 58 60 60 67 75 81 81 74 69 62 61 55 51 47 43 42 41 38 36 35 36 36 36 36 36 35 34 33 32 32 31 29 28 28 27 26 26 26 25 25 24 24 22 22 23 22 22 21 20 20 20 22 22 20 20 21 20 19 16 14 13 10 8 6 6 6 8 8 11 14 13 14 14 15 11 9 8 12 9 8 6 4 9 9 17 29 35 43 44 41 50 50 62 57 60 68 76 81 79 74 67 62 60 53 50 44 43 39 38 36 34 33 34 36 37 37 37 34 35 34 32 33 31 29 27 28 27 27 25 25 24 24 23 23 21 21 21 22 21 20 20 20 19 20 20 21 21 21 19 18 16 14 12 10 8 8 6 7 7 8 8 11 12 11 12 12 8 6 3 6 9 8 10 1 8 7 20 29 35 42 44 41 50 51 62 57 60 70 77 80 78 72 65 60 57 52 46 43 40 37 37 33 31 31 33 35 36 36 34 35 34 33 33 33 31 30 28 27 27 26 26 24 23 23 22 22 20 19 20 20 20 19 18 20 19 20 21 20 21 20 19 19 17 14 12 9 8 7 5 6 6 5 8 8 10 12 11 9 8 4 0 0 3 2 6 0 7 7 19 31 32 43 44 40 49 53 60 56 61 70 76 79 76 71 63 57 54 49 43 41 38 36 35 33 32 31 33 33 34 33 33 34 34 33 34 33 33 32 30 29 28 27 26 24 23 22 20 20 19 19 18 19 18 19 18 20 19 21 21 21 20 19 19 19 15 13 10 8 7 6 5 6 5 5 6 7 9 10 11 10 7 4 0 0 0 0 0 0 1 9 18 30 31 43 45 41 48 51 58 56 62 72 77 78 74 69 59 56 52 47 42 39 36 33 34 33 32 32 32 31 33 32 32 33 33 34 35 34 33 31 30 29 27 26 25 23 21 19 17 19 18 17 16 17 18 19 19 19 20 20 20 21 21 20 19 17 13 12 9 6 5 6 5 4 3 5 5 5 7 8 8 8 7 3 0 0 0 0 0 0 0 5 15 28 33 41 44 41 48 51 56 56 62 71 77 77 73 65 58 54 50 47 41 38 34 33 32 32 29 29 30 31 32 30 29 30 33 33 34 34 33 32 32 29 28 26 26 24 23 21 18 19 19 17 16 17 18 19 20 20 21 21 21 22 22 20 19 17 13 11 9 7 5 4 5 5 4 4 2 5 5 6 7 7 6 4 0 0 0 0 0 0 0 0 12 26 33 42 42 40 46 49 56 54 63 71 75 75 70 64 57 53 50 45 41 36 34 33 31 30 27 27 29 30 31 29 29 31 32 32 34 34 33 33 31 30 29 27 27 26 25 22 21 20 20 18 17 18 19 20 21 21 21 23 22 23 23 21 19 17 14 10 9 6 4 3 4 4 1 2 3 3 4 4 8 5 6 3 1 0 0 0 0 0 0 0 8 22 30 44 42 40 45 50 50 54 63 68 71 74 68 62 58 53 49 44 40 37 34 33 31 29 28 27 28 29 31 32 31 32 32 34 35 34 34 34 31 31 30 29 28 28 27 24 24 24 21 21 20 20 19 22 22 21 21 23 24 24 24 21 21 18 15 12 8 7 4 3 3 2 3 1 1 2 4 4 6 6 7 4 2 0 0 0 0 0 0 0 5 21 31 43 42 38 44 48 48 53 59 65 69 71 67 61 56 51 49 44 40 37 35 32 30 30 28 28 29 30 31 31 33 31 33 36 36 36 36 37 33 33 34 32 31 30 29 27 26 25 23 21 22 22 22 23 22 24 24 25 25 26 24 23 20 18 16 13 11 8 6 6 5 3 4 3 0 1 2 3 4 6 8 5 0 6 2 0 0 0 0 0 7 21 30 45 40 36 46 44 45 52 54 61 67 69 67 58 53 52 49 43 41 38 35 33 31 30 30 28 30 32 33 33 35 35 36 38 40 39 39 40 37 37 37 37 34 33 31 30 27 26 25 24 24 24 24 25 25 27 28 27 27 27 26 26 22 20 18 15 13 12 9 9 7 6 5 4 4 2 3 3 4 4 5 5 2 1 8 4 4 0 0 0 4 22 30 44 40 36 43 42 40 47 50 60 65 67 65 56 51 50 47 43 42 39 37 32 32 31 32 32 33 35 37 37 37 39 40 41 43 43 43 43 44 41 40 40 37 37 35 33 31 30 27 26 27 27 28 28 28 30 30 30 30 31 28 26 24 22 19 16 15 14 12 11 9 8 5 5 4 2 3 2 3 3 3 3 2 0 3 6 5 2 0 0 2 21 32 44 38 35 41 37 34 42 47 59 62 64 62 55 50 49 46 41 40 38 36 34 34 34 36 37 39 41 42 43 43 44 44 45 47 46 47 47 47 44 43 43 42 40 36 35 33 31 30 29 28 29 28 30 30 31 31 32 32 32 30 30 26 25 21 17 17 14 13 12 12 11 7 4 4 2 4 1 2 3 3 0 0 0 0 3 3 1 2 0 0 18 31 42 38 34 39 37 32 38 47 55 60 63 61 55 50 48 46 41 39 37 35 35 35 36 38 42 44 46 47 46 46 46 47 48 49 49 49 49 49 49 47 46 44 42 39 38 35 34 33 32 30 30 30 30 32 31 32 34 34 32 33 31 27 27 25 21 20 17 16 15 14 11 11 6 5 3 3 1 0 0 1 0 0 0 0 3 2 1 0 0 4 16 31 39 36 34 37 34 27 36 45 50 57 62 59 54 48 46 45 42 38 38 37 35 37 39 40 43 43 47 49 48 48 47 48 50 50 50 50 50 50 49 47 45 44 42 40 36 35 34 35 33 33 32 33 34 34 34 36 38 38 35 36 34 31 29 27 24 23 21 19 17 16 13 11 8 7 4 2 2 0 0 0 0 0 0 0 0 2 0 0 0 5 15 29 38 35 32 35 32 24 34 43 48 53 60 59 52 45 43 41 38 36 36 35 34 37 40 42 45 45 47 50 52 50 50 51 52 51 51 50 50 49 48 48 45 42 39 38 35 34 32 33 31 32 32 31 34 35 37 40 42 42 39 41 37 35 32 30 27 24 23 23 20 18 15 13 9 8 7 5 3 0 0 0 0 0 0 0 0 1 0 0 0 2 15 28 37 32 30 35 28 27 32 39 45 50 57 54 46 39 35 34 32 31 32 33 31 34 38 42 45 48 47 50 52 53 51 51 52 52 51 49 48 46 45 43 42 39 36 36 33 31 30 29 28 29 31 31 33 34 38 40 43 43 44 44 41 39 35 30 28 26 25 25 22 20 14 12 11 9 7 7 5 1 0 0 0 0 0 0 0 0 0 0 0 0 13 27 35 31 29 34 28 28 29 36 44 45 48 48 40 35 30 27 24 22 24 25 25 27 34 39 42 43 45 48 50 49 50 49 48 47 45 44 41 38 39 36 33 31 30 29 28 23 24 20 20 21 23 25 26 29 33 36 38 42 43 43 41 37 35 31 27 26 24 25 22 19 15 11 8 10 8 7 5 1 0 0 0 0 0 0 0 0 0 0 0 0 12 28 31 29 26 33 20 24 22 31 38 38 40 38 33 26 22 21 19 18 16 16 17 19 24 30 35 35 41 43 44 46 47 47 43 42 39 38 35 31 30 27 23 20 20 16 17 16 13 13 13 12 14 18 20 23 27 29 33 37 37 39 37 34 32 30 24 21 22 20 20 17 12 10 7 5 5 6 4 0 0 0 0 0 0 0 0 0 0 0 0 0 14 29 27 28 27 33 15 11 26 24 28 27 28 25 23 16 12 11 12 10 6 6 10 11 13 20 26 28 33 35 37 39 40 41 36 35 32 30 28 24 21 17 15 12 12 8 7 8 5 4 3 3 5 10 13 16 20 23 25 29 29 29 30 29 25 24 22 20 18 16 16 15 10 9 5 3 2 2 2 0 0 0 0 0 0 0 0 0 0 0 0 3 21 31 25 25 26 28 19 12 23 19 16 16 19 17 15 9 2 1 1 0 0 0 1 1 4 11 16 18 23 27 29 31 33 32 29 27 23 21 20 15 12 9 7 3 3 1 0 0 0 0 0 0 0 2 6 9 11 14 19 22 22 21 21 20 20 18 18 18 14 13 12 11 10 6 4 0 2 0 0 0 0 0 0 0 0 0 0 0 0 9 17 31 43 40 28 23 23 30 18 16 18 17 8 9 11 13 13 5 0 0 0 0 0 0 0 0 0 1 6 10 14 18 20 23 24 23 22 18 13 12 12 9 5 0 0 0 0 0 0 0 0 0 0 0 0 0 0 2 2 7 11 13 13 14 15 14 13 12 14 15 12 14 11 8 8 7 3 0 1 0 0 0 0 0 0 0 0 0 0 0 15 27 32 35 42 41 31 28 23 23 12 13 10 14 6 3 4 7 9 4 0 0 0 0 0 0 0 0 0 0 0 0 5 8 11 14 15 14 12 9 4 2 2 0 0 0 0 0 0 0 0 0 0 0 0 0 0 0 0 0 0 0 1 4 5 4 8 6 4 7 8 9 10 13 12 9 10 7 3 1 2 0 0 0 0 0 0 0 0 0 0 8 26 28 20 17 13 16 21 24 27 23 8 5 11 9 0 0 0 0 0 0 0 0 0 0 0 0 0 0 0 0 0 0 0 0 2 6 9 9 6 4 1 0 0 0 0 0 0 0 0 0 0 0 0 0 0 0 0 0 0 0 0 0 0 0 0 0 0 0 0 0 1 3 3 6 6 5 7 4 3 0 1 0 0 0 0 0 0 0 0 0 2 15 20 21 17 14 10 10 13 19 28 26 15 6 10 13 2 0 0 0 0 0 0 0 0 0 0 0 0 0 0 0 0 0 0 0 0 1 5 3 1 1 0 0 0 0 0 0 0 0 0 0 0 0 0 0 0 0 0 0 0 0 0 0 0 0 0 0 0 0 0 0 0 0 1 4 6 4 0 2 0 0 0 0 0 0 0 0 0 0 0 0 2 11 17 21 22 18 12 8 19 19 27 28 14 10 9 15 2 0 0 0 0 0 0 0 0 0 0 0 0 0 0 0 0 0 0 0 0 0 0 0 0 0 0 0 0 0 0 0 0 0 0 0 0 0 0 0 0 0 0 0 0 0 0 0 0 0 0 0 0 0 0 0 0 0 0 0 0 0 0 0 0 0 0 0 0 0 0 0 0 0 0 0 6 13 22 26 27 17 11 4 20 19 27 31 17 16 14 13 1 0 0 0 0 0 0 0 0 0 0 0 0 0 0 0 0 0 0 0 0 0 0 0 0 0 0 0 0 0 0 0 0 0 0 0 0 0 0 0 0 0 0 0 0 0 0 0 0 0 0 0 0 0 0 0 0 0 0 0 0 0 0 0 0 0 0 0 0 0 0 0 0 0 0 1 9 16 23 30 28 10 9 8 22 24 22 35 25 26 17 17 4 0 0 0 0 0 0 0 0 0 0 0 0 0 0 0 0 0 0 0 0 0 0 0 0 0 0 0 0 0 0 0 0 0 0 0 0 0 0 0 0 0 0 0 0 0 0 0 0 0 0 0 0 0 0 0 0 0 0 0 0 0 0 0 0 0 0 0 0 0 0 0 0 0 0 1 14 20 25 32 25 12 7 11 28 26 22 34 28 24 20 25 18 4 0 0 0 2 0 0 0 0 0 0 0 0 0 0 0 0 0 0 0 0 0 0 0 0 0 0 0 0 0 0 0 0 0 0 0 0 0 0 0 0 0 0 0 0 0 0 0 0 0 0 0 0 0 0 0 0 0 0 0 0 0 0 0 0 0 0 0 0 0 0 0 0 0 0 0 15 23 29 25 16 7 18 27 31 21 28 27 24 17 25 23 13 3 0 1 9 1 0 0 0 0 0 0 0 0 0 0 0 0 0 0 0 2 0 0 0 0 0 0 0 0 0 0 0 0 0 0 0 0 0 0 0 0 0 0 0 0 0 0 0 0 0 0 0 0 0 0 0 0 0 0 0 0 0 0 0 0 0 0 0 0 0 0 0 0 0 0 7 17 28 25 19 10 25 27 28 24 27 29 24 24 24 23 18 4 2 2 4 5 0 0 0 0 0 0 0 0 0 0 0 0 0 0 0 6 2 0 0 0 0 0 0 0 0 2 1 0 0 0 0 0 0 0 0 0 0 0 0 0 0 0 0 0 0 0 0 0 0 0 0 0 0 0 0 0 0 0 0 0 0 0 0 0 0 0 0 0 1 3 3 13 24 26 18 19 28 25 30 25 26 29 24 28 29 25 20 12 4 4 4 3 0 0 0 0 0 0 0 0 0 0 0 0 0 0 2 7 4 0 0 0 0 0 0 0 1 4 5 6 5 4 2 0 0 0 0 0 0 0 0 0 0 0 0 0 0 0 0 0 0 0 0 0 0 0 0 0 0 0 0 0 0 0 0 0 0 0 0 0 3 10 9 10 21 24 21 25 27 29 27 20 25 32 28 34 34 32 23 18 16 10 11 10 6 1 0 0 0 0 0 0 0 0 0 1 0 1 3 7 6 1 0 0 0 0 0 0 4 9 12 14 15 15 12 9 3 0 0 0 0 0 0 0 0 0 2 0 0 0 0 0 0 0 0 0 0 0 0 0 0 0 0 0 0 0 0 0 0 0 1 3 11 12 13 12 20 27 25 29 27 27 24 17 26 32 35 38 37 40 34 26 25 17 16 19 16 12 8 6 3 0 0 0 0 0 0 2 1 0 1 6 8 3 0 0 0 0 0 0 9 13 14 18 20 18 17 16 13 12 10 7 2 2 2 2 0 1 5 2 0 0 0 1 4 4 1 0 0 0 0 0 0 0 0 0 0 0 0 0 0 4 2 11 19 17 13 12 21 28 28 31 26 27 18 14 27 30 39 42 40 43 44 33 24 22 21 25 24 20 16 12 7 3 0 0 0 0 0 1 1 0 4 9 13 8 2 0 0 0 0 4 11 15 16 20 21 20 18 21 21 22 21 20 17 16 17 16 14 11 10 8 9 7 9 9 7 4 3 0 0 0 0 0 0 0 0 0 0 0 0 0 0 5 5 10 24 24 13 11 21 28 33 28 27 19 14 12 25 31 37 46 43 40 43 37 22 26 23 28 26 24 21 19 13 6 1 0 0 0 0 3 4 5 10 15 19 13 8 4 2 0 0 4 9 15 17 20 23 21 21 24 26 27 28 27 25 22 24 26 24 23 18 14 11 7 9 9 6 6 5 5 3 0 0 0 0 0 0 0 0 0 0 0 0 1 4 7 19 19 16 16 20 30 37 26 23 15 10 13 28 30 38 45 43 40 37 34 25 27 26 27 28 26 25 23 18 11 8 4 0 0 3 6 8 9 14 17 21 16 12 9 6 4 3 3 10 15 17 19 24 24 23 25 29 30 31 31 30 29 30 32 29 27 23 21 17 14 15 13 11 11 9 8 6 3 0 0 0 0 0 0 0 0 0 0 0 0 0 4 15 19 19 17 20 37 32 22 18 11 9 13 32 32 37 44 42 41 36 33 29 29 28 27 28 27 24 23 18 15 12 9 5 5 6 9 11 14 16 20 20 15 12 11 9 7 5 5 9 16 19 21 23 25 25 24 29 31 32 32 31 32 33 35 34 31 29 24 19 15 15 12 9 9 8 7 7 4 1 0 0 0 0 0 0 0 0 0 0 0 0 6 18 21 20 18 28 36 23 19 13 6 10 12 33 31 41 42 37 39 38 35 33 31 30 28 26 26 24 20 18 15 11 8 7 6 8 11 13 15 17 21 20 16 12 12 10 8 3 2 10 16 18 21 24 22 22 23 26 31 33 31 32 33 34 35 36 33 31 27 21 20 17 16 13 10 8 6 7 4 2 0 0 0 0 0 0 0 0 0 0 0 6 17 21 23 21 24 29 29 16 17 8 5 11 11 35 29 38 45 37 36 40 42 41 33 27 27 25 24 21 17 17 13 8 7 7 7 8 12 15 16 17 19 17 14 12 9 6 5 3 5 8 14 17 20 22 19 19 21 25 28 31 32 33 34 34 35 34 32 32 28 22 20 18 15 15 12 7 6 5 1 0 0 0 0 0 0 0 0 0 0 0 4 17 26 26 25 25 30 30 21 10 12 4 6 10 12 34 30 33 50 36 36 42 43 43 35 26 25 22 21 17 15 13 8 3 4 6 6 8 10 15 18 18 17 14 10 7 2 0 1 2 4 7 12 13 17 19 15 16 20 24 25 28 31 32 33 33 33 32 30 29 27 20 17 15 12 13 9 6 4 1 0 0 0 0 0 0 0 0 0 0 0 0 12 22 27 29 27 30 34 26 13 10 3 2 8 11 11 33 32 31 49 42 36 38 40 38 35 29 22 20 19 15 13 10 1 0 0 4 6 5 8 12 16 14 12 9 5 0 0 0 0 0 0 0 6 7 13 16 16 13 20 23 23 24 26 28 28 30 31 30 28 26 25 19 16 14 12 10 8 6 2 0 0 0 0 0 0 0 0 0 0 0 0 1 19 23 25 27 28 33 32 18 9 2 1 4 9 11 13 35 33 31 43 45 43 36 36 32 33 30 19 17 17 13 12 5 0 0 0 0 3 2 1 5 9 8 7 3 0 0 0 0 0 0 0 0 0 1 7 13 14 15 17 21 21 21 20 21 21 23 26 27 26 23 19 16 14 12 9 7 7 3 1 0 0 0 0 0 0 0 0 0 0 0 0 9 22 25 27 26 31 30 22 10 2 0 1 4 10 11 13 35 33 29 42 42 41 38 31 30 31 29 18 16 13 11 8 0 0 0 0 0 0 0 0 0 0 0 0 0 0 0 0 0 0 0 0 0 0 0 5 10 10 13 17 16 14 13 13 11 11 13 17 20 19 18 16 13 11 8 7 5 3 3 0 0 0 0 0 0 0 0 0 0 0 0 0 13 20 23 25 24 23 20 10 4 0 1 3 6 11 11 11 38 32 31 39 44 35 36 30 25 24 22 16 13 10 9 2 0 0 0 0 0 0 0 0 0 0 0 0 0 0 0 0 0 0 0 0 0 0 0 3 11 12 13 14 13 7 6 5 4 1 5 10 12 15 13 12 8 7 5 6 5 3 0 0 0 0 0 0 0 0 0 0 0 0 0 0 6 8 13 14 14 10 5 6 0 0 2 4 6 11 11 11 36 35 32 33 40 33 32 26 21 17 14 10 11 8 5 0 0 0 0 0 0 0 0 0 0 0 0 0 0 0 0 0 0 0 0 0 0 0 0 7 16 17 14 16 12 9 5 3 4 1 1 7 10 10 10 8 7 6 7 6 6 3 0 0 0 0 0 0 0 0 0 0 0 0 0 0 0 0 0 0 0 0 0 0 0 0 1 5 7 10 11 10 35 36 34 30 34 35 31 25 21 15 16 10 9 4 0 0 0 1 1 0 0 0 0 0 0 0 0 0 0 0 0 0 0 0 0 0 0 0 5 12 19 21 20 17 15 15 9 8 4 4 4 9 11 10 9 8 8 6 7 5 4 4 1 0 0 0 0 0 0 0 0 0 0 0 0 0 0 0 0 0 0 0 0 0 0 0 1 6 9 9 11 12 36 35 37 30 32 33 31 26 21 16 14 11 9 1 0 0 0 0 0 0 0 0 0 0 0 0 0 0 0 0 0 0 0 0 0 1 9 12 15 21 25 25 23 19 17 15 11 10 8 6 9 12 14 13 10 8 8 7 7 5 6 4 2 0 0 0 0 0 0 0 0 0 0 0 0 0 0 0 0 0 0 0 0 0 0 0 4 7 10 11 10 11 36 35 36 35 30 30 33 23 24 17 17 12 10 2 0 0 0 0 0 0 0 0 0 0 0 0 0 0 0 0 0 0 0 0 0 6 15 20 21 24 28 26 23 19 15 14 12 13 14 9 9 14 18 17 13 10 8 8 8 7 5 5 4 1 0 0 0 0 0 0 0 0 0 0 0 0 0 0 0 0 0 0 0 0 0 3 6 9 10 10 10 12 36 36 36 34 32 28 30 25 22 21 17 14 9 1 0 0 0 0 0 0 0 0 0 0 0 0 0 0 0 0 0 0 0 0 0 9 14 19 20 22 24 24 21 19 19 16 16 18 18 16 15 16 22 21 20 15 11 9 9 8 7 6 3 2 0 0 0 0 0 0 0 0 0 0 0 0 0 0 0 0 0 0 0 0 4 5 8 11 10 11 10 12 35 36 36 35 34 30 29 25 21 20 17 15 10 2 0 0 0 0 0 0 0 0 0 0 0 0 0 0 0 0 0 0 0 0 0 5 11 15 17 19 20 19 18 16 17 13 12 15 17 19 19 19 19 21 23 19 14 8 5 6 5 4 1 1 0 0 0 0 0 0 0 0 0 0 0 0 0 0 0 0 0 0 1 4 5 8 9 10 11 10 11 11 36 36 35 36 34 31 29 29 23 19 19 15 14 8 0 0 0 0 0 0 0 0 0 0 0 0 0 0 0 0 0 0 0 0 0 0 0 3 6 8 11 11 12 7 7 3 1 4 8 11 15 21 19 21 23 21 16 8 4 1 1 0 0 0 0 0 0 0 0 0 0 0 0 0 0 0 0 0 0 0 0 0 5 7 8 8 10 11 12 10 12 12 36 35 36 36 35 32 29 30 28 22 20 22 19 15 2 0 0 0 0 0 0 0 0 0 0 0 0 0 0 0 0 0 0 0 0 0 0 0 1 5 2 3 5 0 0 0 0 0 0 1 10 18 19 18 20 18 12 6 0 0 0 0 0 0 0 0 0 0 0 0 0 0 0 0 0 0 0 0 0 0 0 3 7 8 8 10 11 12 11 11 11 12 36 34 37 36 36 33 30 29 30 25 23 25 23 21 12 2 0 0 0 0 0 0 0 0 0 0 0 0 0 0 0 0 0 0 0 0 0 0 0 1 0 0 0 0 0 0 0 0 0 0 7 17 18 17 20 15 6 2 0 0 0 0 0 0 0 0 0 0 0 0 0 0 0 0 0 0 0 0 0 0 1 6 9 10 9 11 11 10 12 9 12 12 36 35 35 35 36 33 33 27 33 28 25 24 25 25 21 10 0 0 0 0 0 0 0 0 0 0 0 0 0 4 7 2 0 0 1 4 0 0 0 1 0 0 1 0 0 0 0 0 0 1 13 21 20 22 25 15 3 0 6 3 0 4 3 0 0 0 0 0 0 0 0 0 0 0 0 0 0 0 0 0 3 7 8 11 9 11 11 12 9 12 11 12 36 35 35 35 36 34 34 28 32 31 27 23 26 27 26 19 8 0 0 0 0 0 0 0 0 0 0 0 0 6 14 12 0 0 0 0 0 0 0 0 0 0 7 7 0 2 12 18 25 24 28 29 27 24 25 10 2 4 8 9 5 6 4 0 0 0 0 0 0 0 0 0 0 0 0 0 0 0 0 2 6 9 9 12 10 11 11 12 9 11 11 11 36 34 36 36 35 35 32 30 29 32 27 24 24 26 31 25 17 8 4 0 0 0 0 0 0 0 0 0 0 0 5 10 0 0 0 0 0 0 0 0 0 1 9 16 14 19 28 29 34 32 31 32 26 18 20 12 7 5 6 6 3 2 0 0 0 0 0 0 0 0 0 0 0 0 0 0 0 0 2 3 7 10 10 12 11 13 11 12 10 10 11 10 33 35 35 37 35 35 32 31 28 32 30 25 22 25 33 28 26 16 9 9 5 2 0 0 0 0 0 0 0 0 0 3 1 0 3 0 0 0 0 2 1 5 11 15 15 17 24 23 26 28 30 29 24 20 21 15 8 1 0 2 2 1 2 1 0 0 0 0 0 0 0 0 0 0 0 0 0 1 1 5 7 11 12 11 12 11 11 12 11 9 11 11 35 34 35 36 35 33 33 32 29 29 31 26 22 23 32 33 30 22 14 13 13 11 9 4 3 0 0 0 0 0 0 0 0 0 0 0 3 11 16 19 20 16 22 22 23 20 23 23 21 20 21 21 19 20 22 18 9 7 3 4 5 4 1 0 0 0 0 0 0 0 0 0 0 0 0 0 0 2 2 5 9 12 11 12 13 11 12 11 9 11 11 11 35 35 35 34 33 34 34 31 30 28 28 26 23 20 28 36 33 26 21 17 16 16 16 13 12 12 9 8 7 5 5 2 4 6 4 2 9 17 23 22 24 20 24 24 24 22 26 28 26 26 27 28 30 29 26 19 13 10 7 6 5 3 0 0 0 0 0 0 0 0 0 1 0 0 0 0 0 2 3 7 9 12 12 13 11 12 10 12 10 9 11 10 36 34 34 33 33 34 34 33 31 28 26 25 22 20 23 34 35 29 24 19 19 17 17 16 15 18 16 15 14 12 12 11 10 11 9 6 13 18 22 23 21 23 25 28 31 30 33 33 32 32 31 29 29 28 23 16 13 9 9 8 7 2 0 0 0 0 0 0 0 0 1 2 0 0 0 0 1 2 5 8 12 12 12 13 12 12 11 11 10 9 12 10 35 34 33 32 33 33 35 32 31 31 23 23 21 17 21 31 33 31 24 22 17 17 16 17 16 17 18 16 17 16 15 15 16 19 18 18 18 21 23 25 24 26 26 31 33 34 35 34 34 34 31 29 27 26 21 16 11 11 9 7 4 0 0 0 0 0 0 0 0 0 5 4 0 0 0 0 1 3 6 9 11 13 12 12 13 12 11 11 10 10 11 10 34 31 32 32 32 33 33 33 30 31 27 20 18 14 16 29 34 31 26 26 18 16 17 18 17 18 19 18 19 16 15 15 16 18 21 21 23 25 28 30 30 30 31 33 33 35 35 32 31 30 30 29 27 24 18 12 9 9 6 4 3 0 0 0 0 0 0 0 0 4 6 5 0 0 0 0 1 3 6 10 11 11 10 13 13 11 11 10 12 9 11 10 32 30 30 31 30 32 33 33 28 30 26 19 16 9 14 26 31 31 30 25 21 15 16 19 18 21 22 21 22 20 18 17 17 18 22 24 24 26 28 29 29 31 31 31 32 35 32 32 31 30 28 28 25 22 15 10 8 7 5 4 0 0 0 0 0 0 0 0 3 6 8 6 0 0 0 0 1 3 7 9 11 12 10 11 12 11 10 10 9 9 9 10 30 29 29 28 29 32 32 30 29 28 25 19 13 7 11 22 30 32 34 27 24 16 16 18 19 22 22 23 25 23 21 21 19 17 21 22 25 26 27 26 29 29 29 28 30 30 30 29 30 29 27 28 24 19 12 8 5 6 5 1 0 0 0 0 0 0 0 0 8 11 9 7 1 0 0 0 1 3 7 8 11 11 9 11 9 10 9 9 9 8 10 9 29 27 28 28 28 31 30 28 28 27 24 19 13 6 13 21 26 32 37 33 27 18 14 15 20 21 23 24 26 28 26 24 22 22 22 24 26 26 26 27 28 27 28 30 30 30 30 29 30 30 27 26 21 14 9 6 4 4 1 0 0 0 0 0 0 0 0 6 10 11 9 5 0 0 0 0 1 5 7 8 10 10 11 8 9 9 9 9 7 8 7 9 27 25 26 27 27 30 27 26 25 23 23 18 13 4 16 23 23 30 35 37 31 22 16 17 20 21 24 25 28 30 30 29 29 29 30 29 27 29 27 28 26 27 29 30 31 32 33 33 31 31 28 23 19 13 7 5 5 3 0 0 0 0 0 0 0 0 3 9 13 12 7 6 0 0 0 0 2 4 6 8 9 9 10 9 8 7 9 9 7 9 8 8 26 24 26 25 26 27 25 24 23 22 19 15 12 5 16 26 24 23 34 37 34 26 22 21 21 22 24 26 28 31 31 32 31 33 33 35 32 31 30 30 30 30 33 32 33 34 33 31 30 28 26 21 16 10 8 5 4 1 0 0 0 0 0 0 0 3 9 11 13 11 7 3 0 0 0 0 1 3 6 7 8 8 9 9 9 6 9 9 8 8 8 7 24 24 24 25 25 22 23 23 21 18 15 12 11 6 10 31 28 22 30 33 36 31 25 25 22 23 27 26 29 30 31 33 32 32 33 34 33 32 33 32 31 33 35 38 37 36 34 30 29 28 25 18 11 7 6 2 0 0 0 0 0 0 0 0 1 7 13 11 14 12 5 3 0 0 0 0 0 2 6 7 7 7 9 9 8 7 6 10 7 9 7 7 24 22 23 23 23 19 20 20 19 14 12 10 11 1 8 34 35 22 28 29 33 32 31 26 25 25 27 27 26 31 32 35 36 33 33 34 36 35 36 35 35 37 38 40 39 37 33 30 26 24 19 15 9 5 2 0 0 0 0 0 0 0 0 0 8 12 14 14 12 10 4 2 0 0 0 0 0 1 4 6 7 6 8 9 7 7 7 8 7 9 9 6 21 20 21 21 19 18 20 17 17 13 14 8 2 0 13 33 38 27 25 24 30 31 34 29 25 27 26 28 26 31 34 37 39 37 36 36 37 37 37 38 38 37 40 41 40 37 31 27 23 20 17 12 7 2 0 0 0 0 0 0 0 0 1 6 10 18 15 13 14 7 4 4 0 0 0 0 0 2 4 4 5 6 5 9 7 7 5 8 5 8 7 7 20 20 18 19 16 17 18 16 14 11 15 0 0 0 6 35 38 24 29 23 25 28 31 31 27 26 25 27 29 30 36 37 38 37 37 34 36 37 37 38 38 38 39 39 37 33 28 22 22 18 14 9 5 0 0 0 1 0 0 0 0 2 8 13 15 19 16 11 11 7 4 2 0 0 0 0 0 1 2 3 3 5 5 5 7 6 4 6 5 6 7 7 19 17 17 17 14 16 16 14 13 13 11 0 0 0 11 37 32 25 30 23 20 22 27 30 26 24 25 25 30 31 34 35 35 35 34 33 34 35 36 37 36 36 36 36 33 30 25 21 17 15 9 6 3 0 0 2 2 3 0 0 2 11 15 16 19 18 15 12 10 7 4 4 0 0 0 0 0 0 1 2 1 2 3 3 5 4 4 4 5 4 4 5 16 16 15 15 13 13 14 12 11 10 10 0 0 0 12 29 28 28 30 25 21 18 22 25 23 25 23 23 27 28 31 30 32 31 30 29 29 33 32 33 33 30 31 28 29 25 21 18 13 10 7 3 3 5 4 5 5 1 1 6 11 14 19 20 18 17 14 11 9 6 1 5 0 0 0 0 0 0 0 0 1 0 0 2 3 2 3 1 3 4 2 3 14 14 13 14 9 11 12 12 8 10 11 0 0 0 6 27 27 26 31 25 20 19 15 19 20 24 21 20 22 23 24 27 29 28 26 25 26 27 26 27 27 25 25 24 22 20 18 14 10 6 4 7 8 9 9 8 4 3 7 14 16 20 21 20 19 17 12 10 7 6 0 2 0 0 0 0 0 0 0 0 0 0 0 2 2 0 3 1 1 3 2 2 11 12 11 9 6 8 7 8 5 11 0 0 0 0 2 28 22 27 30 26 21 16 15 12 15 18 17 17 17 19 18 22 25 24 23 22 22 22 21 21 19 19 18 18 16 15 14 8 5 5 10 12 13 11 11 9 6 10 17 19 22 21 20 19 18 17 11 8 6 5 0 0 1 0 0 0 0 0 0 0 0 0 0 0 0 0 1 0 1 0 1 0 8 10 7 6 4 2 6 6 2 13 0 0 0 0 0 26 18 27 29 25 22 18 10 14 11 11 13 13 11 12 13 13 18 18 18 13 13 15 14 14 12 12 11 11 9 8 4 4 5 10 14 15 14 13 10 9 11 16 22 22 22 23 21 20 17 12 11 7 4 5 0 0 4 0 0 0 0 0 0 0 0 0 0 0 0 0 0 0 0 0 0 0 10 7 3 3 3 3 9 5 0 12 0 0 0 0 0 23 21 27 25 26 22 21 14 13 13 8 8 10 7 6 4 6 7 10 7 7 6 5 7 4 5 4 4 3 1 2 4 7 11 14 16 17 13 11 10 15 19 20 23 24 22 22 20 19 14 13 11 7 4 0 1 0 2 0 0 0 0 0 0 0 0 0 0 0 0 0 0 0 0 0 0 0 8 4 4 4 2 2 4 2 1 13 0 0 0 0 0 22 21 25 23 23 20 19 17 16 14 9 6 7 6 5 3 0 0 0 0 0 1 0 1 0 1 0 0 0 0 2 6 11 14 15 15 14 13 11 16 19 20 21 22 26 22 23 19 18 16 14 8 7 2 0 4 0 0 0 0 0 0 0 0 0 0 0 0 0 0 0 0 0 0 0 0 0 9 3 4 3 0 0 4 0 0 7 0 0 0 0 0 21 20 25 23 20 20 18 14 17 15 11 10 10 7 6 5 1 1 0 0 0 0 0 0 0 0 0 0 0 2 5 8 11 13 13 14 13 15 15 17 18 19 22 23 23 23 23 18 17 15 11 7 7 1 0 1 0 0 0 0 0 0 0 0 0 0 0 0 0 0 0 0 0 0 0 0 0 6 2 1 2 0 0 0 0 0 0 0 0 0 0 0 18 20 24 24 21 18 16 15 14 15 12 11 13 8 9 6 6 5 3 2 0 0 0 0 0 0 0 0 2 5 9 12 13 14 14 11 13 14 15 16 18 19 22 24 22 23 19 18 17 13 11 8 6 0 0 1 0 0 0 0 0 0 0 0 0 0 0 0 0 0 0 0 0 0 0 0 0 