P2
92
112
255
65 65 64 66 64 66 64 65 66 65 66 66 66 66 67 68 67 68 68 69 68 68 68 69 66 63 61 58 54 49 43 40 36 32 31 32 30 21 25 21 22 29 30 24 27 26 28 28 29 35 38 48 51 56 60 62 64 62 69 73 74 75 73 74 73 73 72 72 69 71 68 68 67 67 66 65 65 65 65 65 64 64 63 64 64 65 64 64 63 64 64 63 65 65 64 65 64 65 65 65 65 65 65 66 68 67 67 69 68 68 69 69 69 69 65 62 58 54 47 40 36 33 30 29 31 29 29 28 22 18 19 19 20 26 23 20 18 21 20 22 20 22 24 29 29 35 36 37 43 48 49 63 72 74 74 75 73 74 74 72 71 71 69 70 68 68 68 66 66 66 65 65 65 64 63 64 63 63 64 62 63 63 63 63 64 64 64 64 64 65 65 65 65 65 67 66 68 69 68 68 68 70 70 71 68 65 56 55 46 34 26 23 21 22 24 24 24 23 18 20 17 16 18 21 22 22 20 20 18 20 19 21 22 23 25 23 23 28 24 25 27 28 30 42 56 68 73 72 73 74 73 73 72 72 71 71 69 68 68 67 66 66 67 65 65 64 65 63 64 63 63 63 63 63 64 63 64 65 64 65 65 65 66 65 67 65 67 67 68 69 68 68 70 71 72 69 61 59 51 39 23 19 14 15 20 18 20 22 17 18 14 15 17 16 19 19 23 18 20 20 23 19 21 23 21 24 24 20 23 25 21 24 22 22 21 25 32 46 58 61 65 68 71 73 72 73 73 71 70 69 70 68 68 67 67 65 65 65 65 64 64 64 62 64 63 64 63 63 64 65 64 66 66 65 66 66 66 66 68 68 69 69 70 70 71 71 69 62 57 50 34 18 13 12 15 17 22 18 16 21 13 16 17 17 16 19 18 17 23 20 22 23 25 20 25 22 22 21 21 22 23 21 17 20 19 22 17 18 25 27 31 38 41 48 61 65 70 72 73 73 72 70 70 70 69 69 69 67 66 65 65 64 64 65 64 63 63 63 63 63 65 65 64 65 66 65 67 66 68 68 70 70 70 71 71 70 70 68 60 56 48 28 14 10 14 13 15 16 18 14 13 14 11 17 18 21 16 23 16 18 22 22 23 22 22 23 24 19 21 22 23 23 21 17 18 18 16 18 16 19 21 28 26 23 21 30 40 51 58 64 70 73 72 71 72 71 70 69 70 68 67 65 65 65 65 64 64 64 64 63 63 63 65 64 66 65 66 67 68 67 68 71 69 71 71 72 68 65 62 57 52 41 25 14 16 17 13 13 10 16 10 7 10 8 12 16 14 18 14 20 9 17 24 22 23 16 21 22 19 23 20 22 22 23 19 18 15 16 15 16 15 17 21 23 24 22 22 23 27 32 38 45 52 62 70 70 72 74 72 71 70 70 68 67 66 67 66 65 65 64 63 64 63 62 64 65 64 66 66 67 68 68 69 70 72 71 72 69 63 58 52 40 27 18 16 14 16 17 7 10 8 10 6 4 5 3 13 13 8 9 12 9 8 16 19 20 19 20 19 20 19 17 21 21 22 21 19 17 16 15 16 16 13 16 16 18 21 22 20 23 23 27 31 34 37 45 53 61 67 74 73 72 71 72 69 68 67 67 66 65 65 65 63 63 62 63 65 64 65 66 66 67 67 69 71 70 71 71 68 63 57 50 32 16 11 12 11 11 11 9 6 9 4 4 2 2 3 2 5 3 2 5 2 3 6 12 12 15 13 18 17 17 15 13 17 20 19 19 18 17 19 16 16 16 15 12 17 15 19 15 16 17 20 22 26 29 30 36 38 45 53 68 73 72 72 72 71 69 67 67 67 66 66 65 64 64 62 63 63 65 66 66 66 67 69 69 70 70 71 68 61 57 46 31 13 9 12 14 10 8 5 9 10 8 2 1 2 2 2 0 0 0 0 0 0 1 3 7 7 9 10 12 12 10 10 15 20 19 16 12 13 16 16 18 14 15 14 15 13 14 13 14 14 16 21 22 24 28 28 32 29 37 42 53 73 74 74 73 72 71 70 68 69 67 66 65 64 64 63 63 64 65 65 67 66 68 69 69 70 72 68 62 57 49 27 10 9 9 14 12 13 11 7 9 14 2 0 2 2 0 0 0 0 0 0 0 0 0 0 0 6 2 3 3 5 3 11 15 13 13 10 8 7 14 12 13 17 7 11 13 15 16 15 15 15 14 17 20 16 25 23 29 29 30 36 40 62 74 75 75 73 74 71 70 68 68 67 66 65 64 65 63 64 64 66 67 67 69 69 70 70 69 61 58 49 29 10 5 11 13 16 12 13 11 6 4 11 0 0 0 0 0 0 0 0 0 0 0 0 0 0 0 0 1 0 0 0 0 5 2 6 10 5 6 10 15 13 9 15 7 11 8 12 11 13 13 10 13 17 19 20 21 21 28 32 34 36 35 46 66 73 75 76 74 72 71 70 68 68 67 65 64 65 63 63 65 65 68 67 69 69 70 69 64 55 49 32 16 9 11 16 15 13 8 0 4 0 0 0 0 0 0 0 0 0 0 0 0 0 0 0 0 0 0 0 0 0 0 0 0 0 0 2 7 6 4 5 7 5 7 11 5 7 9 4 8 6 10 8 10 16 17 18 21 16 23 26 31 31 35 32 42 58 66 73 75 73 71 71 69 68 68 67 65 64 64 64 64 65 66 67 68 70 68 68 58 49 35 17 14 15 12 15 12 5 0 0 0 0 0 0 0 0 0 0 0 0 0 0 0 0 0 0 0 0 0 0 0 0 0 0 0 0 0 3 5 4 0 0 0 0 3 4 2 7 5 2 0 2 0 2 7 8 18 12 19 15 18 16 22 23 32 27 33 43 49 54 71 76 75 72 71 70 68 67 66 64 64 63 63 65 66 66 68 68 66 62 52 40 25 12 8 14 14 7 1 0 0 0 0 0 0 0 0 0 0 0 0 0 0 0 0 0 0 0 0 0 0 0 0 0 0 0 0 0 0 0 0 0 0 0 0 0 1 0 0 1 0 0 0 0 0 0 3 6 9 7 16 12 15 10 16 12 25 24 24 24 35 34 48 68 76 74 72 71 69 67 67 66 65 63 63 64 65 65 67 65 61 56 44 33 19 12 13 13 6 1 0 0 0 0 0 0 0 0 0 0 0 0 0 0 0 0 0 0 0 0 0 0 0 0 0 0 0 0 0 0 0 0 0 0 0 0 0 0 0 0 0 0 0 0 0 0 0 0 1 3 0 0 8 3 12 10 13 12 21 20 21 17 28 28 32 47 70 75 74 71 71 69 68 67 65 61 62 63 64 67 65 59 53 49 36 22 14 16 15 10 1 0 0 0 0 0 0 0 0 0 0 0 0 0 0 0 0 0 0 0 0 0 0 0 0 0 0 0 0 0 0 0 0 0 0 0 0 0 0 0 0 0 0 0 0 0 0 0 0 0 0 0 0 0 3 0 4 4 11 16 16 14 20 22 25 25 26 20 59 73 76 73 72 70 70 68 67 60 60 63 62 64 62 53 49 37 23 15 14 20 17 7 0 0 0 0 0 0 0 0 0 0 0 0 0 0 0 0 0 0 0 0 0 0 0 0 0 0 0 0 0 0 0 0 0 0 0 0 0 0 0 0 0 0 0 0 0 0 0 0 0 0 0 0 0 0 0 0 0 4 7 10 11 14 18 25 24 26 20 8 43 68 77 75 74 72 70 67 68 58 59 62 62 59 56 46 38 23 10 9 13 20 14 4 0 0 0 0 0 0 0 0 0 0 0 0 0 0 0 0 0 0 0 0 0 0 0 0 0 0 0 0 0 0 0 0 0 0 0 0 0 0 0 0 0 0 0 0 0 0 0 0 0 0 0 0 0 0 0 0 0 0 6 8 6 12 19 22 26 23 23 21 34 54 73 75 74 74 71 70 68 56 60 61 60 57 53 39 26 18 13 12 12 12 4 0 0 0 0 0 0 0 0 0 0 0 0 0 0 0 0 0 0 0 0 0 0 0 0 0 0 0 0 0 0 0 0 0 0 0 0 0 0 0 0 0 0 0 0 0 0 0 0 0 0 0 0 0 0 0 0 0 0 0 5 4 6 8 14 18 21 21 23 29 25 36 57 71 75 74 73 70 68 57 59 58 56 53 45 31 24 20 17 16 8 4 0 0 0 0 0 0 0 0 0 0 0 0 0 0 0 0 0 0 0 0 0 0 0 0 0 0 0 0 0 0 0 0 0 0 0 0 0 0 0 0 0 0 0 0 0 0 0 0 0 0 0 0 0 0 0 0 0 0 0 0 0 1 3 8 13 16 21 23 24 26 26 29 47 66 75 75 73 72 71 55 56 54 51 42 25 21 16 19 17 13 4 0 0 0 0 0 0 0 0 0 0 0 0 0 0 0 0 0 0 0 0 0 0 0 0 0 0 0 0 0 0 0 0 0 0 0 0 0 0 0 0 0 0 0 0 0 0 0 0 0 0 0 0 0 0 0 0 0 0 0 0 0 0 1 3 6 14 17 15 23 25 24 21 23 37 64 75 75 74 72 72 54 53 49 42 32 18 17 19 18 18 10 1 0 0 0 0 0 0 0 0 0 0 0 0 0 0 0 0 0 0 0 0 0 0 0 0 0 0 0 0 0 0 0 0 0 0 0 0 0 0 0 0 0 0 0 0 0 0 0 0 0 0 0 0 0 0 0 0 0 0 0 0 0 0 2 3 4 10 14 11 19 24 25 24 18 23 43 70 75 73 73 71 54 53 45 37 23 13 16 17 15 13 5 2 0 0 0 0 0 0 0 0 0 0 0 0 0 0 0 0 0 0 0 0 0 0 0 0 0 0 0 0 0 0 0 0 0 0 0 0 0 0 0 0 0 0 0 0 0 0 0 0 0 0 0 0 0 0 0 0 0 0 0 0 0 0 0 0 6 9 11 10 12 18 24 21 16 16 24 54 72 74 73 71 53 52 39 27 17 10 13 15 16 20 7 4 0 0 0 0 0 0 0 0 0 0 0 0 0 0 0 0 0 0 0 0 0 0 0 0 0 0 0 0 0 0 0 0 0 0 0 0 0 0 0 0 0 0 0 0 0 0 0 0 0 0 0 0 0 0 0 0 0 0 0 0 0 0 0 0 5 9 11 11 11 15 19 20 17 12 15 36 69 75 74 72 52 51 34 24 16 15 16 18 22 22 11 1 0 0 0 0 0 0 0 0 0 0 0 0 0 0 0 0 0 0 0 0 0 0 0 0 0 0 0 0 0 0 0 0 0 0 0 0 0 0 0 0 0 0 0 0 0 0 0 0 0 0 0 0 0 0 0 0 0 0 0 0 0 0 0 0 0 5 10 8 10 9 13 15 15 15 13 24 59 78 75 73 52 45 31 23 17 12 18 19 15 19 10 0 0 0 0 0 0 0 0 0 0 0 0 0 0 0 0 0 0 0 0 0 0 0 0 0 0 0 0 0 0 0 0 0 0 0 0 0 0 0 0 0 0 0 0 0 0 0 0 0 0 0 0 0 0 0 0 0 0 0 0 0 0 0 0 0 0 0 0 8 5 4 7 15 14 17 13 26 52 76 76 73 43 37 27 18 14 12 14 18 15 13 8 0 0 0 0 0 0 0 0 0 0 0 0 0 0 0 0 0 0 0 0 0 0 0 0 0 0 0 0 0 0 0 0 0 0 0 0 0 0 0 0 0 0 0 0 0 0 0 0 0 0 0 0 0 0 0 0 0 0 0 0 0 0 0 0 0 0 0 0 0 0 0 9 9 13 17 16 32 55 73 77 74 39 28 19 12 11 10 12 14 15 10 5 0 0 0 0 0 0 0 0 0 0 0 0 0 0 0 0 0 0 0 0 0 0 0 0 0 0 0 0 0 0 0 0 0 0 0 0 0 0 0 0 0 0 0 0 0 0 0 0 0 0 0 0 0 0 0 0 0 0 0 0 0 0 0 0 0 0 0 0 0 0 0 6 11 16 18 15 38 51 73 77 74 31 24 18 13 15 11 10 12 10 4 0 0 0 0 0 0 0 0 0 0 0 0 0 0 0 0 0 0 0 0 0 0 0 0 0 0 0 0 0 0 0 0 0 0 0 0 0 0 0 0 0 0 0 0 0 0 0 0 0 0 0 0 0 0 0 0 0 0 0 0 0 0 0 0 0 0 0 0 0 0 0 0 7 11 17 20 17 31 49 67 76 75 25 21 17 13 15 11 9 4 5 2 0 0 0 0 0 0 0 0 0 0 0 0 0 0 0 0 0 0 0 0 0 0 0 0 0 0 0 0 0 0 0 0 0 0 0 0 0 0 0 0 0 0 0 0 0 0 0 0 0 0 0 0 0 0 0 0 0 0 0 0 0 0 0 0 0 0 0 0 0 0 0 0 9 11 20 26 24 21 39 57 71 76 17 20 13 9 11 10 5 6 5 0 0 0 0 0 0 0 0 0 0 0 0 0 0 0 0 0 0 0 0 0 0 0 0 0 0 0 0 0 0 0 0 0 0 0 0 0 0 0 0 0 0 0 0 0 0 0 0 0 0 0 0 0 0 0 0 0 0 0 0 0 0 0 0 0 0 0 0 0 0 0 0 0 12 12 22 25 29 24 27 43 62 74 15 15 8 8 7 7 5 6 0 0 0 0 0 0 0 0 0 0 0 0 0 0 0 0 0 0 0 0 0 0 0 0 0 0 0 0 0 0 0 0 0 0 0 0 0 0 0 0 0 0 0 0 0 0 0 0 0 0 0 0 0 0 0 0 0 0 0 0 0 0 0 0 0 0 0 0 0 0 0 0 0 0 6 15 20 25 30 30 26 31 50 69 14 8 7 6 9 7 3 2 0 0 0 0 0 0 0 0 0 0 0 1 0 0 0 0 0 0 0 0 0 0 0 0 0 0 0 0 0 0 0 0 0 0 0 0 0 0 0 0 0 0 0 0 0 0 0 0 0 0 0 0 0 0 0 0 0 0 0 0 0 0 0 0 0 0 0 0 0 0 0 0 0 0 2 17 23 29 28 26 23 24 34 62 11 5 7 4 9 5 2 0 1 0 0 0 0 0 0 1 8 8 10 10 9 6 5 5 4 2 2 0 0 0 0 0 0 0 0 0 0 0 0 0 0 0 0 0 0 0 0 0 0 0 0 0 0 0 0 0 0 0 0 0 0 0 0 0 0 0 0 0 0 0 0 0 0 0 1 5 3 0 0 0 0 0 0 13 23 28 27 16 14 20 22 47 7 7 5 6 8 3 0 0 0 0 0 0 0 4 5 10 14 16 15 16 17 15 14 15 15 15 11 9 11 12 9 10 11 12 13 12 18 17 13 6 6 4 0 0 0 0 0 0 0 0 0 0 0 0 0 0 0 0 1 0 0 0 0 0 0 0 0 0 0 0 0 0 5 5 7 16 12 8 0 2 0 2 5 17 18 18 21 13 6 13 17 38 5 6 5 5 3 3 0 3 0 2 0 0 5 7 12 16 20 22 21 21 22 20 23 22 22 23 22 19 22 23 21 20 22 23 22 25 25 27 25 18 14 12 10 10 2 2 0 0 0 0 4 6 9 7 7 10 10 13 13 10 10 9 9 8 8 7 6 6 6 7 12 10 11 14 15 16 17 14 11 5 6 5 7 20 23 15 14 11 8 9 11 28 8 3 8 4 2 1 0 3 0 2 0 1 8 12 16 20 23 26 26 24 23 25 26 26 24 27 28 26 28 32 33 30 29 31 30 32 31 29 31 28 24 23 21 20 15 15 13 9 9 14 12 17 22 21 23 23 21 22 24 23 21 20 20 19 21 19 20 20 15 13 18 19 16 16 20 17 18 16 12 9 9 14 11 18 26 22 14 12 7 10 5 22 8 6 6 5 7 0 3 1 2 0 0 6 10 15 19 24 27 28 27 28 28 30 29 30 30 32 34 33 33 37 40 37 35 39 38 36 36 34 35 33 33 34 33 29 23 24 24 21 19 22 22 22 23 28 32 32 32 33 31 33 31 31 29 29 31 30 28 25 24 20 21 23 21 16 22 20 21 20 16 9 14 17 18 18 26 26 21 18 9 8 3 18 11 6 7 0 7 0 5 3 2 0 5 7 12 17 21 27 30 28 28 29 32 32 33 34 35 37 38 38 38 41 43 42 43 44 43 42 43 41 40 40 39 39 38 36 30 31 29 28 28 28 28 32 32 33 36 38 40 40 40 39 37 39 37 36 35 33 32 28 28 28 24 23 21 21 21 23 19 24 20 9 14 21 17 21 20 28 24 22 15 7 0 11 7 4 2 4 2 0 4 5 3 5 10 8 14 16 22 29 29 29 28 31 32 32 34 35 37 40 41 42 42 45 46 47 46 48 47 47 48 46 46 45 43 41 42 39 37 35 34 33 32 34 34 37 39 41 42 41 45 46 45 45 44 45 43 43 40 35 38 35 32 32 29 25 23 21 24 23 22 24 20 13 16 19 19 22 21 25 24 22 15 11 1 2 7 0 0 2 0 0 2 3 4 8 9 9 15 15 24 28 29 28 29 31 32 31 34 37 40 41 44 46 46 47 51 51 52 52 52 51 53 50 49 49 46 44 43 43 40 40 37 38 37 39 38 42 44 46 48 49 50 52 51 49 48 49 48 45 44 41 42 39 36 35 35 31 27 22 22 25 21 25 24 16 11 19 21 20 21 22 19 20 15 11 6 0 5 0 0 0 0 0 4 3 5 9 7 11 12 15 25 29 32 28 31 32 31 33 36 40 44 45 47 50 52 52 56 56 57 57 58 56 56 55 52 53 50 48 46 45 43 43 43 43 44 45 46 47 49 52 53 55 56 56 56 54 54 52 52 50 49 47 46 43 39 38 37 34 30 27 22 28 24 27 24 17 16 15 17 19 16 19 18 11 21 8 10 5 1 0 0 0 0 0 3 0 5 11 5 10 13 16 26 31 31 30 31 33 34 37 42 45 49 52 53 57 57 58 62 60 61 61 61 61 62 60 57 57 54 52 50 48 46 47 46 47 48 48 48 51 51 55 58 59 60 63 62 60 59 56 57 55 55 52 51 49 45 41 40 36 33 28 25 28 26 27 23 18 15 21 16 15 15 15 19 8 16 7 5 8 4 0 0 0 0 0 3 0 5 13 5 11 15 19 28 30 31 31 34 35 38 41 46 49 52 55 56 58 60 61 64 65 66 65 66 65 65 63 61 59 57 56 54 52 51 51 49 50 50 52 52 53 55 58 61 62 64 66 66 65 64 64 62 60 58 58 57 53 50 46 43 40 34 29 25 27 23 24 23 16 13 20 15 12 13 13 17 10 9 4 1 9 9 0 0 0 0 0 0 0 2 11 8 9 16 20 27 32 34 33 35 39 40 42 48 50 55 57 57 59 61 65 65 67 67 68 67 66 66 64 62 61 59 56 56 54 54 55 54 54 55 56 56 59 61 64 68 67 69 71 70 71 69 69 67 65 64 61 61 58 54 50 45 41 37 32 23 25 23 19 19 15 12 18 16 8 10 12 15 11 8 1 2 11 6 0 0 0 0 0 0 0 0 6 6 10 15 21 26 32 34 34 37 41 42 46 50 52 55 59 58 61 64 67 67 68 69 70 69 67 68 67 64 64 62 59 57 55 55 56 56 56 57 59 59 62 66 69 71 73 74 75 75 75 74 71 70 70 69 65 65 60 55 53 46 45 41 35 24 25 22 19 22 11 12 14 15 2 5 10 9 10 2 0 4 14 13 0 0 0 0 0 0 0 0 0 1 10 15 24 28 33 34 36 37 42 44 49 52 53 56 58 61 62 66 66 67 68 68 70 69 69 68 66 65 63 63 62 59 58 57 57 57 59 61 62 63 68 69 71 74 75 77 78 77 75 73 72 72 72 71 69 67 60 55 52 49 46 43 40 26 24 22 22 22 12 8 11 13 0 0 10 0 6 1 0 0 24 22 4 0 0 0 0 0 0 0 0 1 10 18 28 30 32 35 34 36 42 46 47 47 46 47 52 56 60 60 60 62 63 64 65 64 66 64 62 63 63 63 63 62 61 58 59 58 58 63 62 65 67 69 72 75 76 77 77 75 72 70 68 69 71 70 68 67 61 56 52 45 44 42 44 32 24 21 25 18 16 6 11 8 0 0 7 0 1 0 0 0 30 26 9 0 0 0 0 0 0 0 0 0 10 19 30 33 32 31 31 35 40 45 41 47 51 54 59 63 64 59 59 60 61 61 61 58 58 56 54 56 59 60 60 61 60 58 58 59 60 62 63 64 66 65 69 73 73 73 70 69 66 64 65 64 65 60 67 65 61 61 56 48 41 38 41 37 27 23 25 19 15 4 5 7 0 0 0 0 0 0 0 2 33 26 11 0 0 0 0 0 0 0 0 0 7 18 30 31 29 25 29 34 36 37 34 36 36 41 48 52 57 51 50 51 51 51 54 54 54 54 53 55 55 55 55 56 57 55 56 56 56 56 59 57 59 59 61 62 62 63 63 62 61 61 59 58 55 53 61 60 52 59 54 45 35 35 34 34 30 26 25 20 17 5 4 3 0 0 0 0 0 0 0 9 40 22 14 0 0 0 0 0 0 0 0 0 7 16 28 31 29 27 32 39 40 42 41 42 38 36 50 52 54 41 42 42 40 41 43 43 43 44 40 48 56 52 53 52 48 49 50 51 48 48 50 53 57 62 62 59 66 64 60 54 54 50 52 54 54 51 50 46 48 54 56 54 33 28 29 25 23 26 28 19 19 6 0 0 0 0 0 0 0 0 0 14 43 23 15 1 0 0 0 0 0 0 0 0 1 3 18 21 18 21 24 25 22 22 21 32 34 36 41 47 56 47 44 36 31 30 33 31 31 30 29 46 62 62 54 46 46 37 42 43 42 42 49 47 46 52 53 45 43 46 47 45 41 37 49 51 53 60 56 50 50 51 51 44 29 26 26 23 24 23 26 19 16 8 0 0 0 0 0 0 0 0 9 20 47 30 20 10 0 0 0 0 0 0 0 0 0 0 6 16 16 21 25 27 30 28 24 28 32 26 19 29 38 42 35 32 24 26 33 26 28 19 21 28 35 35 34 30 29 26 35 33 31 39 46 46 41 54 57 54 48 51 37 48 36 23 45 42 49 48 46 46 38 49 59 54 33 23 26 21 19 17 16 17 11 7 0 0 0 0 0 0 0 0 13 34 49 33 21 17 2 0 0 0 0 0 0 0 0 0 0 14 15 12 12 17 16 17 11 24 33 29 27 24 30 32 24 18 29 31 30 32 29 34 49 57 59 47 37 27 15 14 23 27 26 29 37 34 37 42 40 34 39 44 39 32 27 27 46 38 49 44 50 69 60 54 45 42 34 20 22 19 16 14 9 6 10 0 0 0 0 0 0 0 0 5 23 42 50 34 28 19 9 6 3 0 0 0 0 0 0 0 0 0 13 19 24 24 18 20 18 18 31 29 22 18 19 19 17 15 19 17 16 22 22 19 49 43 36 31 27 28 17 22 29 25 28 30 30 32 37 37 29 27 35 38 36 27 20 23 35 33 30 42 34 49 49 46 42 33 36 27 9 15 12 8 6 0 6 0 0 0 0 0 0 0 0 14 31 44 51 36 25 20 15 3 2 0 0 0 0 0 0 0 0 0 0 0 8 13 14 18 12 8 11 13 15 11 6 10 12 6 13 9 2 13 11 17 36 39 34 23 13 17 12 13 14 17 22 27 21 24 30 26 22 24 21 19 26 26 15 12 17 19 28 44 39 36 49 38 32 28 23 23 16 15 10 6 3 0 8 0 0 0 0 0 0 0 0 22 39 45 53 38 20 15 18 2 0 0 0 0 0 0 0 0 0 0 0 0 3 0 10 10 2 0 0 0 0 0 0 1 3 0 0 3 3 3 15 26 23 25 21 17 12 18 11 13 7 15 20 28 21 12 19 27 29 34 23 15 15 13 13 6 6 11 25 24 25 28 28 34 28 16 24 11 5 7 4 3 3 0 0 0 0 0 0 0 9 14 12 28 41 45 55 38 19 20 15 0 0 0 0 0 0 0 0 0 0 0 0 0 0 0 0 0 0 0 0 0 0 0 0 0 0 0 0 0 0 5 6 0 1 17 13 16 8 4 8 14 14 15 11 9 10 5 8 8 9 11 2 3 7 0 0 0 0 3 8 17 9 14 11 15 17 5 2 0 0 0 0 0 2 0 0 0 0 0 0 0 19 22 24 33 43 49 54 34 20 23 11 1 0 4 2 0 0 0 0 0 0 0 0 0 0 0 0 0 0 0 0 0 0 0 1 0 0 0 0 0 0 0 4 11 9 12 12 16 8 0 0 7 22 17 15 8 8 14 20 10 7 12 1 0 7 1 0 0 1 3 2 0 8 11 11 7 0 0 0 0 0 0 0 0 6 0 0 0 0 0 0 6 19 14 23 36 45 53 55 34 20 23 8 0 0 4 0 1 0 0 0 0 0 0 0 0 0 0 0 0 0 0 0 0 0 2 3 0 0 0 0 0 0 0 0 0 0 0 1 14 13 0 4 10 13 17 13 1 6 18 10 2 0 7 0 0 1 0 0 0 0 0 0 0 3 0 0 1 0 0 0 0 0 0 0 0 0 0 0 0 0 0 0 1 3 0 8 43 47 53 56 36 23 25 13 9 5 4 5 9 0 0 0 0 0 0 0 0 0 0 0 0 0 0 0 0 0 0 0 0 0 0 0 0 0 0 0 2 3 3 5 20 18 11 5 15 14 16 21 19 15 24 11 1 0 3 0 7 11 1 2 2 3 2 4 7 4 0 0 0 0 0 0 0 0 0 0 0 0 0 0 0 0 0 2 10 16 0 8 47 49 52 55 37 25 31 18 19 22 7 1 10 0 0 0 0 4 3 1 0 0 0 0 0 0 0 2 0 0 0 0 0 0 2 1 8 10 8 11 8 11 11 7 12 19 14 5 7 9 11 16 22 8 21 11 14 5 13 16 16 18 12 4 12 6 9 4 2 2 0 0 0 4 4 5 1 0 0 0 1 0 0 1 0 0 1 17 19 27 22 15 51 52 51 57 37 29 31 28 25 30 8 5 0 0 0 0 0 9 7 7 3 0 0 0 0 0 0 4 7 16 16 16 17 19 17 9 13 8 11 19 16 21 20 9 5 14 16 17 21 22 17 12 19 15 15 7 18 14 10 24 13 24 13 8 2 6 8 7 5 4 6 14 18 15 12 10 0 0 0 5 11 6 1 0 5 0 7 23 26 32 36 32 48 54 53 57 38 34 31 34 28 29 7 7 0 0 0 0 0 10 8 11 9 8 9 2 0 0 1 5 13 22 22 23 22 22 19 8 11 10 18 19 23 27 29 15 17 26 20 22 23 31 31 24 26 22 20 23 16 21 18 20 24 20 21 9 10 14 15 21 19 17 17 18 21 18 14 14 4 0 0 11 12 3 9 2 7 0 12 24 31 28 42 44 53 54 52 57 38 35 29 41 27 32 8 9 0 0 2 0 0 11 11 14 13 13 9 10 5 5 3 6 12 21 24 25 24 27 26 12 20 17 28 31 30 24 32 20 19 31 29 27 28 27 39 31 40 32 24 31 30 23 35 24 24 16 24 16 15 21 23 28 25 23 25 25 26 24 22 22 11 3 8 19 17 11 14 14 12 0 8 34 39 38 40 48 61 53 53 58 38 39 28 43 31 30 10 2 0 0 12 1 1 10 10 14 13 15 15 13 10 10 5 10 19 23 27 28 27 29 29 11 25 27 31 34 35 29 31 23 21 29 34 33 33 35 41 39 43 38 38 31 35 26 35 27 26 23 22 24 22 29 28 32 32 28 29 33 31 29 26 23 14 11 16 19 20 16 20 23 17 0 7 29 42 44 44 48 64 51 51 58 37 39 29 44 33 33 18 5 2 4 21 8 4 11 13 14 18 19 18 16 11 14 1 13 23 21 25 26 26 25 25 19 24 35 37 37 37 33 32 26 32 31 34 37 36 43 41 39 42 41 47 41 39 33 33 34 31 31 29 28 27 27 32 34 35 32 33 34 32 29 27 22 16 18 19 20 19 19 26 25 25 13 12 23 39 49 50 47 62 50 53 56 41 44 28 44 38 31 27 10 10 13 25 14 4 12 16 17 23 21 19 16 16 9 10 20 27 26 26 30 30 24 25 27 24 36 40 36 37 35 30 31 39 39 37 44 43 46 46 42 39 38 52 45 42 36 38 41 37 34 33 28 29 28 31 35 36 31 35 36 33 33 30 27 22 19 20 16 19 24 27 31 31 26 25 22 37 54 55 46 61 49 54 56 44 44 32 42 44 33 31 15 17 24 27 19 6 14 17 18 25 23 22 18 17 13 18 24 26 29 26 29 25 25 27 31 28 32 42 27 33 33 31 39 44 48 41 44 48 48 50 51 45 37 52 50 44 42 37 44 41 36 34 32 30 29 31 31 35 35 37 35 34 37 30 29 27 22 16 18 22 28 30 24 29 36 33 22 35 60 55 49 64 47 55 54 47 45 39 35 50 40 29 21 24 30 31 23 9 16 18 21 23 23 20 21 19 19 22 27 28 27 26 22 27 26 27 30 33 28 33 36 30 31 38 39 45 50 48 47 50 51 52 53 51 45 44 53 50 44 39 38 42 36 35 37 34 32 29 29 29 37 36 35 37 37 34 29 31 28 19 24 27 31 25 18 20 36 44 26 41 63 54 58 58 48 55 56 39 49 46 34 46 51 35 28 34 35 33 26 12 16 19 21 20 21 17 19 21 20 23 29 29 23 22 25 26 23 26 29 28 31 25 34 34 30 35 39 45 47 53 55 50 50 53 52 54 51 43 50 52 48 40 36 38 30 34 42 36 32 29 27 24 34 36 40 37 36 34 30 33 33 26 26 31 29 26 26 23 39 50 31 47 62 55 62 55 50 55 57 40 41 53 41 45 51 48 33 34 42 35 28 20 15 22 22 20 18 17 17 20 21 20 22 23 18 24 27 23 23 29 27 30 35 32 22 36 34 32 41 43 47 53 55 52 45 53 57 55 51 46 40 42 39 37 39 31 21 29 39 41 35 30 32 32 32 33 37 36 35 33 28 31 34 25 27 32 30 27 28 31 44 44 35 56 61 58 67 48 53 56 58 42 41 52 44 47 49 52 44 36 42 39 30 22 14 24 19 16 19 20 18 23 25 25 25 25 27 23 21 19 22 27 26 30 31 29 25 31 39 37 42 43 47 49 51 50 48 49 53 52 48 48 46 41 37 33 39 30 26 23 32 36 34 34 36 35 32 29 28 30 32 30 28 31 30 30 29 32 29 27 27 38 40 37 50 64 60 66 62 48 54 57 55 45 42 50 49 46 49 50 45 39 43 41 32 25 18 21 18 20 19 18 20 23 27 28 29 31 30 26 24 22 27 27 25 24 26 27 36 34 31 45 43 43 41 43 46 45 43 49 51 44 40 42 43 38 31 28 31 34 36 27 28 32 34 34 37 37 37 35 30 27 28 27 25 26 24 28 26 29 27 30 33 40 40 45 59 66 62 72 58 48 55 56 56 44 41 47 51 49 50 54 49 43 47 42 31 26 18 21 23 21 15 17 24 26 30 34 35 34 31 27 29 27 26 26 24 27 27 24 31 32 30 36 37 41 42 42 44 39 34 43 49 43 38 38 37 36 30 24 32 38 40 35 35 38 38 40 41 40 41 42 39 36 32 32 28 27 30 29 28 33 29 34 35 44 49 52 63 69 70 69 50 50 56 55 55 44 44 45 51 49 48 54 53 46 49 48 42 33 21 22 23 20 20 23 27 29 30 34 35 33 32 33 34 32 27 28 29 30 30 32 32 31 38 38 40 41 44 38 38 30 27 31 32 34 34 33 36 34 35 34 33 35 38 37 40 42 41 41 43 41 41 43 40 37 34 31 32 32 30 31 32 34 31 37 43 52 56 61 67 70 73 61 48 53 55 55 55 46 43 47 48 50 50 54 54 45 49 50 46 35 23 22 22 20 23 24 27 31 33 35 35 32 33 34 33 32 31 26 27 26 27 35 35 32 35 37 37 40 37 39 35 27 26 27 34 36 29 30 35 32 36 37 34 34 31 38 45 43 41 41 38 39 40 40 39 38 36 37 34 32 31 31 34 33 35 38 46 52 64 71 70 73 72 51 49 53 55 55 55 44 45 49 47 48 49 53 54 44 44 48 42 32 24 23 24 25 25 24 27 31 33 34 35 36 37 37 36 32 32 29 29 24 33 37 37 34 32 38 33 29 29 38 44 39 38 35 36 36 34 31 35 34 33 36 39 39 39 36 39 42 42 42 40 41 44 43 43 41 40 39 35 34 32 32 36 32 34 40 46 58 69 73 72 77 63 47 51 54 54 55 54 46 45 48 46 49 47 51 55 46 38 41 35 26 21 24 23 27 27 23 26 26 31 35 36 37 37 38 37 30 29 34 34 27 35 41 39 36 34 37 36 38 38 37 43 47 47 41 37 35 32 29 33 36 35 40 44 44 46 44 44 46 44 44 47 48 47 45 47 43 43 39 37 35 33 34 35 32 37 45 52 61 69 72 74 73 53 49 53 54 53 54 54 45 45 47 48 46 46 47 50 46 39 41 35 28 24 26 27 27 29 26 23 26 30 34 36 38 37 38 38 34 33 36 31 29 30 37 41 40 41 47 50 50 49 47 49 52 51 47 43 41 35 31 36 36 38 45 45 46 45 46 45 46 47 52 52 52 49 46 47 45 44 40 36 37 34 36 37 37 44 50 54 62 65 70 73 63 48 52 53 54 54 54 54 48 44 47 49 48 46 42 46 41 40 41 35 33 27 26 29 28 29 28 25 24 28 34 36 37 38 37 37 38 40 41 38 35 31 31 38 41 47 54 56 58 60 58 54 54 56 54 55 53 46 40 40 40 42 43 45 47 45 46 47 47 49 51 51 52 51 47 47 46 44 41 38 37 35 39 39 40 48 50 59 65 67 70 67 55 48 53 54 52 53 53 53 46 45 48 49 49 48 45 41 38 41 40 36 35 28 26 30 30 30 32 31 29 29 32 35 36 39 38 40 46 45 44 41 40 42 40 40 42 44 49 54 54 56 55 55 52 52 51 54 57 51 46 46 47 44 45 44 47 49 49 49 47 47 48 49 50 50 48 47 46 45 42 39 38 36 41 39 42 47 50 58 63 65 64 56 49 54 52 53 54 52 54 54 44 45 47 51 50 48 45 45 38 38 41 37 34 30 24 31 32 33 34 35 33 33 32 33 37 39 41 44 50 50 49 48 48 49 47 44 43 44 44 46 46 54 56 55 55 50 47 50 55 54 55 55 56 51 48 47 48 49 49 49 45 43 43 45 47 48 50 45 45 43 41 39 39 37 44 42 44 49 51 55 56 60 54 51 51 50 54 52 53 52 53 53 46 45 46 49 50 48 46 46 41 41 39 38 36 33 26 31 35 35 36 36 35 36 36 39 43 43 45 47 49 50 49 49 51 48 45 45 45 42 42 44 40 44 48 45 47 47 49 50 49 49 49 50 46 43 42 42 42 44 45 45 42 40 42 40 45 48 48 45 43 43 41 39 39 38 42 45 47 53 53 55 55 54 53 51 52 52 54 52 51 52 52 53 46 45 44 50 47 50 47 46 42 42 39 40 36 37 30 31 38 36 37 37 38 40 42 43 44 44 44 46 48 48 48 48 44 41 38 39 37 34 34 33 33 36 34 40 41 45 45 47 42 42 41 41 39 38 35 37 38 37 38 37 32 31 34 39 45 47 47 45 43 40 40 39 38 34 43 48 49 55 56 54 54 52 52 51 53 51 53 52 50 51 51 52 45 46 45 48 49 50 49 46 43 42 40 39 36 37 32 31 39 37 38 39 40 42 45 45 43 43 42 42 42 43 43 43 40 39 38 38 32 31 32 33 35 38 37 40 44 42 41 42 42 42 42 39 42 40 38 39 40 39 33 33 33 36 37 39 43 44 45 44 41 38 40 39 39 27 39 48 52 56 54 52 50 52 54 51 53 52 52 53 48 52 50 51 44 45 45 48 49 50 49 47 45 41 41 40 35 37 34 33 39 37 37 38 40 43 45 45 41 39 37 37 36 36 37 36 35 37 40 36 29 33 40 38 38 40 40 42 48 45 43 39 42 39 41 36 36 38 35 37 43 41 32 34 36 39 40 41 43 44 46 42 39 41 39 39 37 32 35 45 50 54 52 49 51 54 53 52 52 51 52 50 50 50 50 50 45 45 46 47 49 50 49 49 47 41 43 40 38 35 33 34 39 35 34 34 37 37 41 38 36 37 38 37 35 33 36 37 38 38 43 42 40 43 44 43 41 42 42 40 50 52 51 44 46 46 44 42 41 41 35 36 40 36 35 37 38 41 43 45 44 42 43 39 39 40 37 40 37 34 39 46 53 52 50 48 52 53 52 51 53 52 51 50 49 48 49 50 45 45 46 46 48 48 50 50 48 43 44 41 39 34 29 31 37 33 29 33 35 37 39 35 29 30 32 33 33 32 33 37 39 41 47 48 50 50 50 48 48 45 44 44 45 45 49 46 46 46 43 44 46 46 43 42 39 40 39 37 38 41 43 43 42 40 40 37 37 37 37 40 42 34 42 50 53 51 50 48 54 54 50 51 51 51 50 50 49 46 49 47 45 46 46 45 48 48 51 50 50 46 44 42 42 37 30 29 39 33 24 29 30 34 38 36 34 36 34 32 34 32 34 37 39 38 39 41 44 44 45 41 42 43 44 43 43 42 43 44 50 47 46 46 46 44 44 40 37 40 41 39 41 45 45 45 44 43 42 41 42 40 38 41 45 37 48 51 53 49 49 49 53 54 51 52 51 50 48 50 46 48 48 48 46 44 46 43 47 47 49 51 49 48 43 43 43 40 35 37 48 43 29 32 32 34 36 36 39 36 34 32 30 25 26 31 33 34 35 36 36 39 41 39 39 38 38 39 44 44 42 44 44 43 45 47 45 42 44 40 39 41 43 44 46 48 46 47 45 44 43 43 41 41 40 43 47 40 51 52 50 47 48 51 53 53 50 53 51 51 48 48 48 47 48 48 46 45 45 43 45 48 50 51 50 49 46 42 41 43 34 39 49 51 38 32 35 37 39 40 44 43 38 39 36 33 33 33 35 35 36 37 34 35 37 37 37 39 38 37 37 39 39 39 39 38 37 39 38 38 39 40 41 40 41 45 48 47 47 46 46 43 45 40 42 41 42 45 46 43 55 49 49 47 49 52 53 50 51 53 52 50 50 47 48 46 47 48 44 43 42 44 44 47 50 49 49 50 46 40 41 41 32 39 48 51 44 33 31 34 39 40 42 43 41 40 42 42 41 42 41 42 42 42 42 42 42 41 42 43 41 39 39 39 38 37 36 38 38 40 39 40 42 42 44 45 41 45 46 47 47 46 46 47 43 41 42 42 44 46 45 49 53 47 46 47 49 51 53 49 51 51 51 49 47 48 48 45 47 45 43 42 42 43 42 46 49 49 49 48 47 42 39 38 34 41 49 51 49 37 31 31 37 38 39 41 42 40 42 42 40 41 39 38 40 39 42 43 47 49 51 50 52 51 50 49 48 45 46 42 44 43 42 42 42 41 43 44 45 45 47 47 48 45 47 45 43 41 41 42 46 45 46 50 50 43 45 47 48 52 51 50 49 50 50 49 47 47 46 46 46 44 40 41 41 40 42 45 48 46 46 47 46 40 37 31 38 48 56 50 50 45 32 28 32 33 35 36 38 39 40 42 41 42 40 41 40 42 42 44 46 48 51 53 56 56 55 56 55 54 51 50 49 49 48 45 45 44 43 44 46 44 46 47 46 45 44 42 42 40 41 44 45 45 46 51 44 40 44 49 47 49 49 49 49 46 49 46 47 46 46 44 44 45 42 40 41 41 42 43 46 44 46 44 45 38 37 31 44 60 59 52 51 49 39 29 28 31 32 34 33 35 37 40 41 42 42 42 43 43 42 46 48 49 53 53 56 57 56 58 56 55 56 56 54 54 54 53 52 50 49 46 47 47 49 48 45 45 42 42 42 39 42 43 44 46 45 50 41 39 43 47 49 45 49 48 49 46 46 46 45 47 45 43 44 43 39 39 38 39 39 44 40 42 43 42 42 37 32 41 55 63 57 53 50 50 43 33 28 31 32 34 35 35 36 37 40 42 41 43 43 45 44 47 49 50 52 53 54 56 57 58 59 59 59 60 58 56 57 55 55 52 51 51 51 51 47 46 45 44 42 41 40 40 42 42 42 48 43 50 39 38 44 46 46 46 47 46 48 45 46 44 45 47 43 43 42 44 37 37 39 38 40 41 39 40 40 41 39 30 38 49 69 61 55 53 52 49 45 37 31 29 31 33 34 35 38 38 41 41 41 44 43 46 46 48 49 51 54 57 57 59 58 60 61 61 61 61 60 59 58 57 57 55 55 56 54 51 49 46 45 43 40 41 40 41 41 41 41 48 44 50 37 38 44 44 44 47 45 46 47 45 45 44 45 45 43 43 42 43 36 37 38 39 40 37 38 37 39 38 33 28 48 54 76 66 55 53 53 49 45 39 34 29 29 33 34 35 38 39 42 40 41 44 43 46 47 50 50 53 53 57 59 60 59 61 62 60 60 60 62 61 60 60 59 56 57 54 54 52 49 47 45 42 41 39 40 41 39 41 44 47 49 51 36 37 43 41 44 44 45 45 46 45 45 43 44 44 42 44 44 42 37 37 36 39 36 36 37 35 35 35 23 36 52 63 82 69 61 56 52 50 45 43 38 32 30 33 35 36 37 37 40 39 40 41 43 46 45 49 50 53 55 57 58 60 58 61 60 60 60 60 62 60 60 58 58 58 56 53 52 49 49 46 44 43 39 41 40 40 40 42 43 50 51 51 35 37 39 40 44 44 44 45 45 46 45 43 42 43 40 44 42 43 35 37 36 36 34 34 37 35 34 27 24 48 55 74 85 69 69 59 52 50 50 44 41 36 32 34 34 38 39 38 41 38 41 41 41 46 46 47 51 53 54 58 58 59 59 59 58 59 58 60 58 57 57 57 54 57 53 50 50 48 47 44 44 43 41 39 41 38 42 41 46 54 51 53 38 33 38 41 42 43 43 45 43 45 45 43 42 43 40 43 40 42 33 36 34 33 32 33 35 34 31 19 33 50 63 80 85 73 70 60 53 51 50 46 42 39 35 32 34 36 39 39 40 41 42 43 43 46 48 50 52 53 53 57 56 59 57 57 58 56 56 57 55 55 56 56 53 54 51 49 48 47 45 45 41 42 41 40 37 39 42 43 53 55 53 57 50 27 36 41 40 41 41 42 39 44 43 41 40 40 40 40 39 39 34 33 34 33 32 32 33 33 26 18 44 56 68 84 84 78 68 58 55 52 49 49 45 39 40 33 35 38 41 40 41 43 44 45 47 47 47 51 51 53 52 53 54 55 55 54 57 55 56 55 55 54 55 52 51 54 49 48 47 47 43 43 42 40 41 39 39 40 42 49 54 52 60 50 75 27 34 38 40 40 40 40 40 40 41 40 40 37 39 39 39 38 30 32 32 31 29 28 31 27 19 23 52 71 75 82 88 78 66 57 54 53 49 47 48 41 41 37 36 39 41 42 42 45 46 46 47 48 46 49 50 51 51 52 52 54 54 52 54 53 53 55 55 53 53 50 51 49 47 45 46 46 42 40 41 41 39 39 38 41 47 48 54 51 63 55 82 47 28 34 38 38 38 36 39 37 40 37 39 36 37 37 37 37 28 29 30 27 26 26 28 25 16 38 57 83 83 82 91 81 61 54 55 51 49 46 46 45 42 40 38 39 43 43 46 46 44 49 47 49 47 48 49 50 51 52 52 54 52 52 51 51 52 52 53 53 52 51 49 47 47 44 45 44 41 41 41 39 39 39 40 46 50 52 52 54 61 59 82 74 29 29 34 36 36 36 35 37 37 36 38 36 35 36 35 36 26 27 28 29 29 29 34 31 41 58 69 91 86 86 92 84 58 52 54 51 48 46 44 45 45 43 41 39 41 43 46 47 47 49 50 47 50 48 48 50 53 52 53 53 52 53 52 53 51 52 51 53 52 49 46 46 44 45 45 42 41 40 41 38 40 40 46 49 50 52 51 59 62 54 88 84 45 25 30 32 33 34 33 33 35 35 35 35 34 35 34 32 28 33 33 34 41 46 56 61 66 76 88 104 88 94 89 84 58 48 50 50 47 45 42 44 43 43 44 40 43 43 44 47 48 51 50 49 50 50 49 49 51 52 52 52 52 51 53 52 53 53 53 53 50 48 46 45 44 45 44 42 39 40 40 39 40 45 50 50 50 53 54 59 70 46 98 89 70 27 26 29 30 30 31 31 31 33 32 33 31 34 30 30 35 41 48 55 56 67 79 68 80 96 103 108 98 96 90 79 66 46 47 48 46 45 42 43 43 43 45 43 43 43 44 45 46 51 49 52 49 53 51 52 52 51 52 51 52 52 54 53 53 52 52 52 49 46 47 47 46 44 42 41 41 41 40 41 44 50 50 51 50 54 54 55 71 51 97 97 87 48 30 28 28 28 29 28 28 29 32 31 30 31 30 29 48 57 63 70 71 78 91 89 98 105 109 112 100 93 91 77 70 47 46 46 45 44 42 40 41 43 43 45 44 43 42 45 46 49 48 51 53 52 53 53 54 51 51 53 51 52 52 53 51 51 48 49 47 48 49 46 44 43 42 42 40 41 40 43 49 50 50 53 52 57 54 52 72 60 97 102 98 73 50 33 34 33 31 28 26 27 29 30 29 29 29 27 68 71 73 78 86 95 102 101 105 107 108 110 100 89 92 78 72 52 43 46 45 43 40 39 39 40 43 43 44 45 44 42 44 47 47 49 52 53 53 54 53 52 51 51 50 50 49 49 47 48 48 48 47 46 46 46 44 42 41 41 40 40 42 46 50 51 53 56 56 59 53 54 68 73 101 104 101 88 72 56 42 37 39 32 28 24 26 28 26 28 26 27 80 76 85 99 102 106 109 106 106 102 106 107 100 88 90 80 73 62 41 47 46 44 41 37 40 37 41 40 43 42 43 42 42 46 45 45 49 51 52 52 54 52 50 51 49 48 49 49 48 47 47 46 45 44 45 44 42 41 41 40 40 41 43 49 51 54 57 59 57 62 50 56 60 84 106 107 101 87 87 74 63 44 40 37 33 27 25 26 23 24 24 24 