P2
92
112
255
65 65 64 66 64 66 65 65 66 65 66 66 66 66 66 68 67 68 68 69 68 68 68 68 66 63 61 58 54 49 43 40 36 33 31 32 30 21 25 21 22 29 31 24 28 26 28 28 29 35 38 48 51 56 60 62 64 62 69 73 74 75 73 73 73 73 72 72 69 71 67 68 67 67 66 65 65 65 65 65 64 64 63 64 64 65 64 64 63 64 64 63 65 64 64 65 64 65 65 65 65 65 65 65 68 67 67 68 67 68 68 69 69 68 65 61 58 54 47 40 36 33 30 29 31 29 29 28 23 19 20 19 20 26 24 20 18 21 21 22 20 22 24 29 29 35 36 37 43 48 49 63 72 74 74 75 73 74 74 72 70 71 69 69 67 68 68 66 66 66 65 65 65 65 64 64 63 63 64 62 63 63 63 63 64 64 64 64 64 65 65 65 65 65 67 66 68 68 67 67 67 69 70 70 68 64 55 54 46 34 26 22 21 22 25 24 24 24 19 21 17 16 18 21 23 23 21 21 18 20 19 21 22 23 25 23 23 28 24 25 27 28 30 43 56 68 73 72 73 74 73 73 72 72 70 71 68 68 68 67 66 66 67 65 66 65 65 63 64 63 63 63 63 63 64 63 64 65 64 65 65 65 66 65 67 65 67 67 68 68 68 67 69 70 72 69 61 58 51 39 23 18 14 15 20 18 21 22 17 18 15 15 17 16 19 20 23 18 20 20 24 19 21 23 21 25 24 20 23 25 21 24 23 22 21 25 32 46 58 61 65 68 71 73 72 73 72 71 70 69 69 67 68 67 67 65 65 65 66 64 64 64 63 64 63 64 63 63 64 65 64 66 66 65 66 66 66 66 68 68 69 69 69 70 70 70 68 62 57 49 33 18 12 11 15 17 22 18 16 21 13 16 17 17 16 19 19 17 23 20 22 23 26 20 25 23 22 21 21 23 24 21 18 20 19 22 17 18 25 27 32 38 41 48 61 65 70 72 73 73 72 70 70 70 68 69 69 67 67 65 65 64 64 65 64 63 63 63 64 63 65 65 64 65 66 65 67 66 68 68 69 70 70 70 71 70 70 67 60 56 48 28 14 10 14 13 15 16 18 14 13 14 11 17 18 21 16 24 16 18 22 22 24 22 23 24 24 20 21 22 23 23 21 17 18 18 17 18 17 19 21 28 26 23 21 30 40 51 58 64 70 73 72 71 71 71 69 69 69 68 68 65 65 65 65 64 65 64 64 63 63 63 65 64 66 65 66 67 68 67 68 71 69 71 71 71 68 65 62 56 51 41 25 13 16 16 13 12 10 15 10 7 10 8 12 16 14 18 14 21 10 17 24 22 23 16 21 22 19 23 21 22 22 23 19 18 15 16 15 16 16 17 22 23 24 22 22 23 27 32 38 45 52 62 70 70 72 74 71 71 70 70 68 67 66 67 66 65 65 64 64 64 63 62 64 65 64 66 66 67 68 68 69 70 71 71 71 69 62 58 51 39 27 18 15 14 16 17 7 10 8 10 6 4 5 3 13 13 8 9 12 9 8 16 19 20 19 20 20 20 19 17 21 21 22 21 19 18 16 16 16 16 13 16 16 18 21 22 20 23 23 27 31 34 37 45 53 61 67 74 73 72 71 72 69 68 67 67 66 66 65 66 64 63 63 64 65 64 65 66 66 67 67 69 71 70 71 71 68 63 56 50 32 15 11 12 11 11 11 9 6 9 3 4 2 2 3 2 5 3 2 5 2 3 6 12 12 15 13 18 17 17 15 13 17 21 19 19 18 17 19 16 17 16 15 12 17 15 19 15 16 17 20 22 26 29 30 36 38 45 53 68 73 72 72 71 70 69 67 67 67 66 66 66 65 64 62 63 63 65 66 66 66 67 69 69 70 70 71 68 61 57 46 31 13 9 12 13 10 8 5 9 10 8 2 0 1 2 2 0 0 0 0 0 0 1 3 7 7 9 10 12 12 10 10 15 20 19 16 12 13 16 16 18 14 15 14 15 13 14 14 14 14 17 21 23 24 28 28 32 29 37 42 53 73 74 74 73 72 71 70 68 69 67 67 66 65 64 64 63 64 65 65 67 66 68 69 69 70 72 68 62 57 49 27 9 9 9 14 12 13 11 6 9 14 2 0 2 2 0 0 0 0 0 0 0 0 0 0 0 6 2 3 3 5 3 12 15 13 13 10 8 7 14 12 12 17 7 11 13 15 16 15 16 15 15 17 20 17 26 23 29 29 30 36 40 62 74 74 75 73 74 71 70 68 68 67 66 65 64 65 64 64 64 66 67 67 69 69 70 70 70 61 58 49 29 10 4 10 13 16 12 13 11 6 4 11 0 0 0 0 0 0 0 0 0 0 0 0 0 0 0 0 1 0 0 0 0 5 2 6 10 5 6 10 14 13 8 15 7 11 9 13 11 13 13 11 13 17 19 20 21 22 28 32 35 36 35 46 66 73 75 76 74 72 71 70 68 68 67 65 64 65 63 63 65 65 68 67 69 69 70 70 64 55 49 32 16 9 10 16 15 13 8 0 3 0 0 0 0 0 0 0 0 0 0 0 0 0 0 0 0 0 0 0 0 0 0 0 0 0 0 2 7 6 4 6 7 5 7 11 5 7 9 4 8 6 10 8 11 16 18 18 21 17 23 26 31 31 36 32 43 59 66 72 75 73 71 71 69 68 68 67 65 64 64 64 64 65 66 66 68 70 68 68 58 49 35 17 13 15 12 15 12 5 0 0 0 0 0 0 0 0 0 0 0 0 0 0 0 0 0 0 0 0 0 0 0 0 0 0 0 0 0 3 5 4 0 0 0 0 3 4 2 7 5 2 0 2 0 2 8 8 18 13 19 15 18 16 22 23 32 28 33 43 49 53 71 76 75 72 71 69 69 67 66 64 64 63 63 65 65 66 68 68 67 62 52 40 25 12 8 15 14 7 1 0 0 0 0 0 0 0 0 0 0 0 0 0 0 0 0 0 0 0 0 0 0 0 0 0 0 0 0 0 0 0 0 1 0 0 0 0 1 0 0 1 0 0 0 0 0 0 3 6 9 7 16 13 16 11 16 12 26 24 25 24 36 34 48 68 76 74 72 71 69 67 67 66 65 63 63 64 64 65 67 65 61 56 44 33 19 12 13 13 6 1 0 0 0 0 0 0 0 0 0 0 0 0 0 0 0 0 0 0 0 0 0 0 0 0 0 0 0 0 0 0 0 0 0 0 0 0 0 0 0 0 0 0 0 0 0 0 0 0 1 3 0 0 8 4 12 10 13 12 21 20 21 17 28 28 32 47 70 75 73 71 71 68 68 67 65 61 62 63 64 66 65 59 53 48 36 23 14 16 15 10 1 0 0 0 0 0 0 0 0 0 0 0 0 0 0 0 0 0 0 0 0 0 0 0 0 0 0 0 0 0 0 0 0 0 0 0 0 0 0 0 0 0 0 0 0 0 0 0 0 0 0 0 0 0 4 0 4 5 12 16 16 15 21 22 25 25 26 20 59 73 76 73 71 70 70 68 67 60 60 63 62 64 62 53 49 37 23 15 14 20 17 7 0 0 0 0 0 0 0 0 0 0 0 0 0 0 0 0 0 0 0 0 0 0 0 0 0 0 0 0 0 0 0 0 0 0 0 0 0 0 0 0 0 0 0 0 0 0 0 0 0 0 0 0 0 0 0 0 0 4 8 11 11 14 18 25 24 26 20 9 43 68 77 74 73 72 70 67 68 58 59 62 62 59 56 46 38 23 10 9 13 20 14 4 0 0 0 0 0 0 0 0 0 0 0 0 0 0 0 0 0 0 0 0 0 0 0 0 0 0 0 0 0 0 0 0 0 0 0 0 0 0 0 0 0 0 0 0 0 0 0 0 0 0 0 0 0 0 0 0 0 0 6 8 6 13 19 22 26 23 23 21 34 54 73 75 74 74 71 70 68 56 60 61 60 58 53 39 26 18 13 12 12 12 4 0 0 0 0 0 0 0 0 0 0 0 0 0 0 0 0 0 0 0 0 0 0 0 0 0 0 0 0 0 0 0 0 0 0 0 0 0 0 0 0 0 0 0 0 0 0 0 0 0 0 0 0 0 0 0 0 0 0 0 5 4 6 8 15 18 21 21 23 29 25 36 57 71 75 73 73 70 68 57 58 58 56 53 45 31 24 20 17 16 8 4 0 0 0 0 0 0 0 0 0 0 0 0 0 0 0 0 0 0 0 0 0 0 0 0 0 0 0 0 0 0 0 0 0 0 0 0 0 0 0 0 0 0 0 0 0 0 0 0 0 0 0 0 0 0 0 0 0 0 0 0 0 1 3 8 13 16 21 24 24 26 26 28 47 66 75 74 73 71 71 55 55 54 51 42 25 21 16 19 17 14 4 0 0 0 0 0 0 0 0 0 0 0 0 0 0 0 0 0 0 0 0 0 0 0 0 0 0 0 0 0 0 0 0 0 0 0 0 0 0 0 0 0 0 0 0 0 0 0 0 0 0 0 0 0 0 0 0 0 0 0 0 0 0 1 3 6 14 18 15 23 25 24 21 23 37 64 75 74 74 72 71 54 53 49 43 32 18 17 19 18 18 10 1 0 0 0 0 0 0 0 0 0 0 0 0 0 0 0 0 0 0 0 0 0 0 0 0 0 0 0 0 0 0 0 0 0 0 0 0 0 0 0 0 0 0 0 0 0 0 0 0 0 0 0 0 0 0 0 0 0 0 0 0 0 0 2 3 4 10 14 11 19 24 25 23 18 23 43 70 75 72 72 71 53 53 46 37 23 13 16 18 16 14 5 2 0 0 0 0 0 0 0 0 0 0 0 0 0 0 0 0 0 0 0 0 0 0 0 0 0 0 0 0 0 0 0 0 0 0 0 0 0 0 0 0 0 0 0 0 0 0 0 0 0 0 0 0 0 0 0 0 0 0 0 0 0 0 0 0 5 9 11 10 12 18 24 21 16 16 24 54 72 74 73 71 53 52 39 28 17 11 13 15 17 20 7 4 0 0 0 0 0 0 0 0 0 0 0 0 0 0 0 0 0 0 0 0 0 0 0 0 0 0 0 0 0 0 0 0 0 0 0 0 0 0 0 0 0 0 0 0 0 0 0 0 0 0 0 0 0 0 0 0 0 0 0 0 0 0 0 0 5 8 11 11 11 15 19 20 17 12 15 35 69 75 74 72 52 51 34 24 16 15 16 18 23 22 12 1 0 0 0 0 0 0 0 0 0 0 0 0 0 0 0 0 0 0 0 0 0 0 0 0 0 0 0 0 0 0 0 0 0 0 0 0 0 0 0 0 0 0 0 0 0 0 0 0 0 0 0 0 0 0 0 0 0 0 0 0 0 0 0 0 0 4 10 8 11 9 13 15 15 14 13 24 58 78 74 72 51 45 31 23 18 12 18 19 15 19 10 0 0 0 0 0 0 0 0 0 0 0 0 0 0 0 0 0 0 0 0 0 0 0 0 0 0 0 0 0 0 0 0 0 0 0 0 0 0 0 0 0 0 0 0 0 0 0 0 0 0 0 0 0 0 0 0 0 0 0 0 0 0 0 0 0 0 0 0 8 5 4 7 15 14 16 13 25 51 76 76 73 43 37 27 18 14 12 15 18 16 14 9 0 0 0 0 0 0 0 0 0 0 0 0 0 0 0 0 0 0 0 0 0 0 0 0 0 0 0 0 0 0 0 0 0 0 0 0 0 0 0 0 0 0 0 0 0 0 0 0 0 0 0 0 0 0 0 0 0 0 0 0 0 0 0 0 0 0 0 0 0 0 0 9 9 13 17 15 32 54 73 77 74 39 28 20 12 12 11 12 14 15 10 5 0 0 0 0 0 0 0 0 0 0 0 0 0 0 0 0 0 0 0 0 0 0 0 0 0 0 0 0 0 0 0 0 0 0 0 0 0 0 0 0 0 0 0 0 0 0 0 0 0 0 0 0 0 0 0 0 0 0 0 0 0 0 0 0 0 0 0 0 0 0 0 5 11 16 18 15 37 51 73 77 74 31 24 18 13 16 11 10 12 10 4 0 0 0 0 0 0 0 0 0 0 0 0 0 0 0 0 0 0 0 0 0 0 0 0 0 0 0 0 0 0 0 0 0 0 0 0 0 0 0 0 0 0 0 0 0 0 0 0 0 0 0 0 0 0 0 0 0 0 0 0 0 0 0 0 0 0 0 0 0 0 0 0 7 11 17 20 17 31 49 66 76 75 25 21 17 13 15 11 9 5 5 2 0 0 0 0 0 0 0 0 0 0 0 0 0 0 0 0 0 0 0 0 0 0 0 0 0 0 0 0 0 0 0 0 0 0 0 0 0 0 0 0 0 0 0 0 0 0 0 0 0 0 0 0 0 0 0 0 0 0 0 0 0 0 0 0 0 0 0 0 0 0 0 0 9 11 20 26 24 21 39 56 71 76 16 20 14 9 11 10 5 6 5 0 0 0 0 0 0 0 0 0 0 0 0 0 0 0 0 0 0 0 0 0 0 0 0 0 0 0 0 0 0 0 0 0 0 0 0 0 0 0 0 0 0 0 0 0 0 0 0 0 0 0 0 0 0 0 0 0 0 0 0 0 0 0 0 0 0 0 0 0 0 0 0 0 12 12 22 25 29 24 26 43 61 73 15 15 8 8 7 7 5 7 0 0 0 0 0 0 0 0 0 0 0 0 0 0 0 0 0 0 0 0 0 0 0 0 0 0 0 0 0 0 0 0 0 0 0 0 0 0 0 0 0 0 0 0 0 0 0 0 0 0 0 0 0 0 0 0 0 0 0 0 0 0 0 0 0 0 0 0 0 0 0 0 0 0 6 15 20 25 30 30 25 30 49 69 14 8 7 6 9 7 3 2 0 0 0 0 0 0 0 0 0 0 0 1 0 0 0 0 0 0 0 0 0 0 0 0 0 0 0 0 0 0 0 0 0 0 0 0 0 0 0 0 0 0 0 0 0 0 0 0 0 0 0 0 0 0 0 0 0 0 0 0 0 0 0 0 0 0 0 0 0 0 0 0 0 0 2 17 23 28 28 26 23 24 33 61 11 5 7 5 9 5 3 0 1 0 0 0 0 0 0 1 9 9 11 10 10 7 6 5 4 3 2 0 0 0 0 0 0 0 0 0 0 0 0 0 0 0 0 0 0 0 0 0 0 0 0 0 0 0 0 0 0 0 0 0 0 0 0 0 0 0 0 0 0 0 0 0 0 0 0 5 3 0 0 0 0 0 0 13 22 28 27 16 13 19 22 47 7 7 5 6 8 3 0 0 0 0 0 0 0 5 5 10 15 17 16 16 18 16 14 15 15 15 11 9 11 12 9 10 11 12 13 12 18 17 13 6 6 4 0 0 0 0 0 0 0 0 0 0 0 0 0 0 0 0 1 0 0 0 0 0 0 0 0 0 0 0 0 0 5 5 7 16 12 8 0 2 0 2 5 17 18 18 21 12 6 12 17 37 5 6 6 5 4 4 0 3 0 3 0 0 6 7 12 16 20 23 21 21 22 20 23 23 22 24 22 19 22 23 21 20 22 23 22 25 25 27 25 18 14 12 10 10 2 2 0 0 0 0 4 6 9 7 7 10 10 13 13 10 10 9 9 8 8 7 6 6 7 7 12 10 11 14 15 16 17 14 11 5 6 5 7 20 23 15 14 11 7 8 11 27 8 3 8 4 2 1 0 3 0 2 0 2 8 12 17 20 23 26 26 24 24 25 27 26 24 27 28 26 28 32 33 30 29 31 30 32 31 29 32 28 24 23 21 20 15 15 13 9 9 14 12 17 22 21 23 23 21 22 24 23 21 20 20 19 21 19 20 20 15 13 18 19 16 16 19 17 18 16 12 8 9 14 11 18 27 22 14 12 6 9 5 21 8 6 6 5 7 0 3 1 2 0 0 7 10 15 19 24 28 28 27 28 28 30 29 30 30 32 34 33 33 37 40 37 35 39 38 36 36 34 35 33 33 34 33 29 23 24 24 21 19 22 22 22 23 28 32 32 32 33 31 33 31 31 29 29 31 30 28 25 24 20 21 23 21 16 22 19 20 19 16 9 14 17 18 18 26 26 21 18 9 8 3 18 11 6 7 0 7 0 5 3 2 0 5 7 13 17 21 28 30 28 28 29 32 32 33 34 35 37 38 38 38 41 43 42 43 44 43 42 43 41 40 41 39 39 38 36 30 31 29 28 28 28 28 32 32 33 36 38 40 40 40 39 37 39 37 36 35 33 32 28 28 28 24 23 21 21 21 22 19 23 20 9 14 21 17 21 20 28 24 22 15 6 0 11 7 4 2 4 2 0 4 5 4 6 10 8 15 17 22 30 30 29 28 31 32 32 34 35 37 40 41 42 42 45 46 47 46 48 47 47 48 46 46 45 43 41 42 39 37 35 34 33 32 34 34 37 39 41 42 41 45 46 45 45 44 45 43 43 40 35 38 35 32 32 29 25 23 21 24 23 22 24 20 12 16 18 19 22 21 25 24 22 15 10 1 2 7 0 0 2 0 0 3 3 4 8 9 10 15 15 24 28 29 28 30 31 32 31 34 37 40 42 44 47 46 48 51 51 52 52 52 51 53 50 49 49 46 44 43 43 40 40 37 38 37 39 38 42 44 46 47 49 50 51 51 49 48 49 48 45 44 41 42 39 36 35 35 31 27 22 21 25 20 25 24 16 11 18 20 20 21 22 19 19 15 11 5 0 5 0 0 0 0 0 4 3 5 9 8 11 13 15 25 29 32 28 31 32 31 33 36 40 45 45 47 50 52 52 57 56 57 57 57 56 56 55 52 53 50 49 46 45 43 44 43 43 44 45 46 47 49 52 53 55 55 56 56 54 54 52 52 50 49 47 46 43 39 38 37 34 30 27 22 27 24 27 24 17 16 15 17 18 16 19 18 11 20 7 9 5 1 0 0 0 0 0 3 1 5 11 5 11 14 16 26 31 31 30 31 33 34 37 42 45 49 52 53 57 58 58 62 61 61 61 61 61 62 60 57 57 54 52 50 48 46 47 46 47 48 48 48 50 51 54 58 59 60 63 62 60 59 56 57 55 55 52 51 49 45 41 40 36 33 28 25 28 26 27 23 18 15 21 16 15 14 15 19 8 16 7 4 7 4 0 0 0 0 0 3 0 5 13 5 11 15 19 28 30 31 31 34 35 38 41 46 49 53 55 56 59 60 62 64 65 66 65 66 65 65 63 61 59 57 56 54 52 51 50 49 50 50 52 52 53 55 58 60 62 64 66 66 65 64 64 62 60 58 58 57 53 50 46 43 40 34 29 25 26 23 24 23 16 13 20 15 11 13 13 17 10 9 4 1 9 9 0 0 0 0 0 0 0 2 11 8 9 16 20 27 31 33 33 35 38 40 42 48 50 55 57 57 59 62 65 65 67 67 68 67 66 67 64 62 61 59 56 56 53 54 54 54 53 55 56 56 59 61 64 68 67 69 70 70 71 69 69 67 65 64 61 61 58 54 50 44 41 37 32 23 25 23 19 19 15 12 18 16 8 10 12 15 11 7 1 2 11 6 0 0 0 0 0 0 0 0 6 6 10 15 21 26 31 33 34 37 40 42 46 50 52 55 59 58 61 65 67 67 69 69 70 69 68 68 67 64 64 62 58 56 55 55 55 55 56 57 58 59 62 66 69 71 73 74 75 75 75 74 71 69 70 69 65 65 60 55 53 46 45 41 35 24 25 22 20 22 11 12 14 15 2 5 10 9 9 2 0 4 14 13 0 0 0 0 0 0 0 0 0 1 10 15 24 28 33 34 36 37 42 44 49 52 53 56 58 61 62 66 66 67 68 69 70 70 70 68 66 65 63 63 61 59 58 57 57 56 58 61 62 63 67 68 71 73 75 77 78 77 75 73 72 72 72 71 69 67 60 55 52 49 46 43 40 26 24 22 22 22 12 8 11 13 0 0 10 0 6 1 0 0 23 22 4 0 0 0 0 0 0 0 0 2 10 18 28 30 32 34 34 36 42 46 47 47 46 47 52 56 60 60 61 63 64 64 65 64 66 65 63 63 63 63 63 61 60 58 58 57 58 62 62 64 66 68 72 75 75 76 77 75 72 70 68 69 71 70 68 67 61 55 52 45 44 42 44 32 24 22 25 19 16 6 11 8 0 0 8 0 1 0 0 0 30 25 9 0 0 0 0 0 0 0 0 0 10 19 30 33 31 31 31 35 40 45 41 47 51 54 59 63 64 59 59 60 61 62 62 58 58 57 55 56 59 60 59 60 60 58 58 59 59 61 63 63 65 65 68 72 73 73 70 68 66 64 64 64 64 60 67 65 61 61 56 48 41 38 41 37 27 23 25 19 15 4 5 7 0 0 0 0 0 0 0 2 33 26 11 0 0 0 0 0 0 0 0 0 7 18 29 31 29 25 29 33 35 37 33 36 36 41 48 52 57 51 51 51 52 52 54 54 54 54 54 55 55 55 55 55 56 55 55 56 56 56 58 57 58 59 61 62 62 62 62 61 61 61 59 58 55 53 61 60 52 59 55 45 35 35 34 34 30 26 25 20 17 6 4 3 0 0 0 0 0 0 0 9 40 22 14 0 0 0 0 0 0 0 0 0 7 15 28 31 28 27 31 38 40 41 40 42 38 36 50 52 54 41 43 43 41 42 44 44 44 45 41 48 56 52 53 52 48 48 49 51 48 48 50 53 56 62 62 59 66 64 60 54 53 50 52 54 54 51 50 46 48 55 56 55 33 28 29 25 24 26 28 19 20 6 1 0 0 0 0 0 0 0 0 14 43 22 15 1 0 0 0 0 0 0 0 0 0 2 18 20 18 20 24 25 21 21 21 32 34 36 41 47 57 47 44 37 31 31 34 32 31 30 29 47 62 62 54 46 45 37 41 42 42 42 49 47 45 52 52 45 42 46 46 45 41 36 49 51 53 60 56 50 50 51 51 44 29 26 27 23 24 23 27 19 16 8 0 0 0 0 0 0 0 0 9 20 47 30 19 9 0 0 0 0 0 0 0 0 0 0 5 15 16 21 24 27 30 28 23 28 31 26 19 29 39 42 36 32 25 27 34 27 29 19 22 29 35 35 34 30 28 26 35 33 30 38 45 46 41 54 56 54 47 50 37 48 36 23 45 42 49 48 46 47 38 49 59 55 33 23 26 21 19 17 16 18 11 7 0 0 0 0 0 0 0 0 13 34 49 33 21 16 1 0 0 0 0 0 0 0 0 0 0 14 15 12 12 17 15 17 11 23 32 29 27 24 30 32 24 19 29 31 31 33 30 35 50 57 59 47 37 27 15 13 23 26 25 29 36 34 37 42 40 34 39 44 39 32 27 27 47 38 49 44 50 70 61 55 45 42 34 21 22 19 16 14 9 6 10 0 0 0 0 0 0 0 0 5 23 42 50 33 28 19 9 6 3 0 0 0 0 0 0 0 0 0 13 19 24 24 18 20 18 18 31 28 22 18 19 19 17 15 20 18 16 23 23 20 49 44 36 32 27 28 17 21 29 25 28 29 29 32 37 37 29 27 35 38 36 27 20 23 35 33 31 42 35 49 50 46 43 33 36 27 9 15 12 8 7 0 7 0 0 0 0 0 0 0 0 15 31 45 51 36 25 20 15 3 1 0 0 0 0 0 0 0 0 0 0 0 7 13 13 18 12 8 11 13 15 11 7 10 13 6 13 9 2 14 12 18 36 39 34 23 13 17 12 13 14 16 22 27 21 24 30 26 22 24 21 19 27 26 15 12 17 20 28 45 39 36 49 39 33 29 24 23 16 16 10 6 4 0 8 0 0 0 0 0 0 0 0 23 39 45 53 38 20 15 18 2 0 0 0 0 0 0 0 0 0 0 0 0 3 0 10 10 2 0 0 0 1 0 0 1 4 0 0 4 3 4 16 26 23 25 22 17 12 18 11 12 7 15 20 28 21 12 19 27 29 35 23 16 15 14 13 7 7 12 25 25 25 29 28 34 29 16 25 11 5 8 4 4 3 0 0 0 0 0 0 0 9 14 12 29 41 45 55 38 19 20 15 0 0 0 0 0 0 0 0 0 0 0 0 0 0 0 0 0 0 0 0 0 0 0 0 0 0 0 0 0 0 6 6 0 1 17 13 16 8 4 8 14 13 15 11 9 10 5 8 8 9 12 3 4 7 0 0 0 0 3 8 18 9 15 12 15 17 5 2 0 0 0 0 0 3 0 0 0 0 0 0 0 19 22 24 33 43 49 54 34 20 23 12 1 0 3 2 0 0 0 0 0 0 0 0 0 0 0 0 0 0 0 0 0 0 0 1 0 0 0 0 0 0 0 4 11 9 12 12 16 8 0 0 7 21 17 15 8 8 14 20 10 7 13 2 0 7 1 0 0 1 3 3 1 9 11 11 7 0 0 0 0 0 0 0 0 6 0 0 0 0 0 0 6 19 15 23 37 45 53 55 34 20 23 8 0 0 4 0 2 0 0 0 0 0 0 0 0 0 0 0 0 0 0 0 0 0 3 3 0 0 0 0 0 0 0 0 0 0 0 2 14 13 0 4 10 13 17 13 1 6 18 10 2 0 8 0 0 1 0 0 0 0 0 0 0 3 0 0 2 0 0 0 0 0 0 0 0 0 0 0 0 0 0 0 1 3 0 9 43 47 53 56 35 22 25 13 9 5 4 4 9 0 0 0 0 0 0 0 0 0 0 0 0 0 0 0 0 0 0 0 0 0 0 0 0 0 0 0 2 3 3 5 20 19 11 5 15 14 16 21 19 15 24 11 1 0 3 0 7 12 1 3 2 3 2 4 7 4 0 0 0 0 0 0 0 0 0 0 0 0 0 0 0 0 0 2 10 16 0 8 47 49 53 55 37 25 31 18 20 22 6 1 10 0 0 0 0 4 3 1 0 0 0 0 0 0 0 2 0 0 0 0 0 0 2 1 8 10 8 11 8 11 11 7 12 19 14 5 7 9 11 16 23 8 22 11 15 5 13 16 16 19 12 5 13 6 9 4 2 3 0 0 0 4 5 5 2 0 0 0 1 0 0 1 0 0 1 16 19 27 22 15 51 52 51 57 36 29 31 28 26 30 8 4 0 0 0 0 0 9 7 7 3 0 0 0 0 0 0 4 7 16 16 16 17 19 17 10 13 8 11 20 16 21 20 9 5 14 16 16 21 22 17 12 19 15 15 8 18 15 10 24 13 25 13 8 3 6 9 7 5 4 6 15 18 16 12 10 0 0 0 6 11 6 1 0 5 0 7 23 26 32 36 32 48 54 52 56 37 34 31 34 28 29 7 7 0 0 0 0 0 10 8 11 9 8 9 2 0 0 1 5 13 22 21 23 22 22 19 8 11 10 18 19 24 27 29 15 17 26 20 22 23 31 31 24 26 22 20 23 16 21 19 20 24 20 22 9 10 14 15 21 19 18 17 19 21 19 14 15 4 0 0 11 12 3 9 2 7 0 12 24 31 28 42 44 53 53 52 57 38 35 29 40 27 32 8 8 0 0 2 0 0 12 11 15 13 13 9 10 5 5 3 6 12 21 24 25 24 27 26 12 20 17 28 31 30 24 32 20 19 31 29 27 28 27 39 31 39 32 24 31 30 24 35 25 24 16 25 16 16 21 24 28 25 24 25 25 27 24 22 22 11 4 8 19 17 11 14 14 12 0 8 34 39 38 40 48 60 53 53 58 38 39 28 42 31 30 10 2 0 0 12 2 1 10 10 14 13 15 15 13 10 10 5 10 19 23 27 28 27 29 29 11 25 27 31 34 35 29 31 23 21 29 33 33 33 35 41 39 43 38 38 32 35 26 36 28 26 23 22 25 22 29 29 32 33 29 30 33 32 30 26 23 14 11 16 19 20 16 20 23 17 0 8 30 42 44 44 48 63 51 51 58 37 39 29 44 33 33 18 5 2 4 21 9 4 11 13 15 19 19 18 16 11 14 1 13 23 21 25 26 26 25 26 19 24 35 37 37 37 33 32 26 32 31 34 36 36 43 41 39 42 41 47 41 39 33 34 35 31 31 29 28 27 28 32 34 35 32 33 34 32 29 27 22 16 18 19 20 19 19 26 25 25 13 12 24 39 49 50 47 62 50 53 56 41 44 28 44 38 31 27 10 10 13 26 14 4 12 16 17 23 21 19 16 16 9 10 20 26 26 26 29 29 24 25 27 24 36 40 36 37 35 30 31 39 39 37 44 43 46 46 42 39 38 52 45 43 36 39 41 38 34 34 28 29 29 31 35 37 31 35 36 33 33 30 27 22 19 20 16 19 23 27 31 31 26 25 23 37 54 55 46 61 48 53 55 44 44 32 42 44 33 30 15 17 24 27 19 6 14 17 18 25 23 22 18 17 13 18 24 26 28 26 29 25 24 27 31 28 32 42 27 33 33 31 39 44 48 41 44 48 48 50 51 45 37 52 50 44 42 37 44 41 36 35 32 31 29 31 31 35 35 37 35 34 36 30 29 27 22 15 18 22 28 30 24 29 36 33 22 36 60 55 50 64 47 55 54 48 45 39 35 50 40 28 21 24 31 32 23 9 16 18 21 23 23 20 21 19 19 22 27 28 26 26 22 27 26 27 30 33 28 33 36 30 31 38 39 45 50 48 47 50 51 52 53 51 45 44 53 50 44 39 38 43 36 35 37 34 33 29 29 29 37 36 35 37 37 34 29 31 28 19 24 27 31 25 18 20 36 44 27 41 63 54 58 58 48 55 56 39 49 46 35 46 50 34 28 34 35 33 26 12 16 19 21 20 21 17 19 21 19 23 29 29 23 22 25 25 23 26 29 28 32 25 35 34 30 35 39 45 47 52 55 50 50 53 52 54 51 42 50 52 48 40 37 38 30 34 42 36 32 29 27 24 34 36 39 37 36 34 30 33 33 26 26 30 29 26 26 23 39 51 31 48 62 55 62 55 50 55 56 40 41 54 41 45 51 48 33 34 42 35 28 20 15 22 22 20 18 17 17 20 21 20 22 22 18 23 27 23 23 29 27 30 35 32 22 36 34 32 41 43 47 53 55 52 45 53 57 54 51 46 40 42 39 37 39 31 21 30 39 41 35 30 32 32 31 33 37 36 35 33 28 31 34 25 27 32 30 27 28 32 44 44 35 56 61 58 67 48 53 56 57 42 41 52 44 47 49 52 44 36 42 39 30 22 14 24 19 16 19 20 18 23 25 25 25 25 26 23 21 19 22 27 26 30 31 29 25 31 39 37 42 43 47 49 51 50 48 48 53 52 48 48 46 41 37 33 39 30 27 23 32 36 34 34 36 35 32 29 28 30 32 30 28 31 30 29 29 32 29 27 28 38 40 37 50 64 60 66 62 48 53 57 55 45 42 50 49 46 49 50 45 39 43 41 31 24 18 21 18 20 19 18 20 23 26 28 28 31 30 26 24 21 27 27 24 23 26 27 36 33 31 45 42 43 41 42 46 45 43 48 51 44 40 42 43 38 31 28 32 34 36 27 28 32 35 34 37 37 37 35 30 27 28 27 24 26 24 27 26 29 27 30 33 40 40 45 59 67 62 72 58 47 55 55 56 44 41 47 51 49 50 54 49 43 47 42 31 26 18 21 23 21 15 17 24 26 30 34 35 34 31 27 28 27 26 25 23 27 26 24 31 31 30 35 37 40 41 41 43 38 34 42 48 43 37 38 37 36 30 24 33 39 40 35 35 38 38 40 41 40 41 42 39 35 32 32 28 26 30 29 28 33 29 34 36 44 49 52 63 69 70 69 50 50 55 55 55 44 44 45 51 49 48 54 53 46 49 47 42 32 21 22 23 20 20 23 27 29 30 34 35 33 32 33 33 32 27 27 28 29 29 32 31 30 38 38 40 41 44 38 38 29 26 31 32 34 34 33 36 34 35 34 33 35 38 38 40 42 41 41 43 41 41 43 40 37 34 31 32 32 30 31 32 34 31 37 44 52 56 62 67 70 73 61 48 53 54 55 55 45 43 47 48 50 49 54 54 45 49 50 46 35 23 21 22 20 23 24 27 31 33 35 35 32 33 34 33 32 30 25 27 26 27 34 35 31 34 37 37 39 37 39 35 27 26 27 33 36 29 30 35 32 36 37 34 34 31 39 45 43 41 41 38 39 40 40 39 38 36 36 34 32 31 31 34 33 35 38 46 52 64 71 70 73 72 51 48 53 55 54 54 44 45 49 47 47 49 53 54 44 44 48 42 32 24 23 24 25 25 24 27 31 33 34 36 36 37 37 35 31 31 29 28 24 33 37 37 34 32 37 33 30 29 39 44 39 38 35 36 36 34 31 36 35 34 36 39 39 39 36 39 42 43 42 40 41 44 43 43 41 40 39 35 34 32 32 36 32 34 40 46 59 69 74 72 77 63 47 51 54 54 54 54 46 45 48 46 48 47 51 55 46 38 41 34 26 21 24 23 27 27 22 26 27 31 35 36 37 37 38 36 30 29 34 33 26 35 40 39 36 34 37 36 38 39 37 43 47 47 41 38 36 32 29 34 36 36 41 44 45 46 45 44 46 44 44 47 48 47 45 47 43 43 39 37 35 33 34 36 33 38 45 52 61 70 72 74 73 53 49 52 54 53 54 53 45 45 47 48 46 46 47 50 46 39 41 35 28 24 26 27 27 29 26 23 26 30 34 36 38 38 38 38 34 33 35 31 29 30 36 41 40 41 47 50 50 49 47 50 53 52 47 44 41 35 32 36 37 38 45 46 47 45 46 45 46 47 52 52 52 50 46 47 45 44 40 36 37 34 36 37 38 45 50 54 62 65 71 73 63 48 52 53 54 54 54 53 47 43 47 49 48 46 42 45 41 40 41 35 33 26 26 29 28 29 28 25 25 28 34 36 37 39 38 37 38 39 41 37 34 31 31 38 40 47 54 56 58 60 58 55 55 57 55 55 53 46 41 40 40 42 44 45 47 45 46 47 47 49 52 51 52 52 47 47 46 45 42 39 37 35 39 40 40 48 50 59 65 67 70 67 55 48 52 54 52 52 52 53 45 45 48 49 49 48 45 41 38 41 40 36 35 27 25 30 29 30 32 31 29 29 33 35 37 40 39 40 46 45 44 40 40 42 40 39 42 43 49 53 54 55 55 55 52 52 51 55 57 51 46 46 47 44 45 44 47 49 49 49 47 47 48 49 50 50 48 47 46 45 43 39 38 36 41 39 42 47 50 58 63 65 64 56 49 54 52 53 54 52 54 53 44 45 47 51 50 47 45 45 38 38 41 38 34 30 24 31 32 33 34 35 33 33 32 33 37 39 41 44 51 50 49 48 48 49 46 44 43 43 44 45 46 54 55 55 55 50 47 51 55 54 55 55 56 51 48 47 48 49 50 49 46 43 43 46 47 49 50 45 45 43 41 39 39 37 44 43 44 49 51 56 57 60 54 51 51 50 54 52 52 52 53 53 46 45 46 49 49 48 46 46 41 41 39 38 36 33 26 31 35 35 36 36 35 36 37 39 43 43 45 47 49 50 49 49 50 48 44 44 45 42 41 44 40 44 48 46 47 47 49 50 49 50 49 50 46 43 42 42 43 45 45 46 42 40 42 40 45 48 49 45 43 43 41 39 39 38 42 46 47 53 54 56 55 54 53 51 52 51 54 52 51 52 52 53 46 45 44 50 47 49 47 46 42 42 40 40 36 37 31 31 38 36 37 37 38 40 42 43 44 44 44 46 48 48 49 48 44 41 38 39 37 33 34 33 33 36 34 40 41 45 46 47 42 42 41 41 39 38 35 37 38 37 38 37 33 31 34 39 45 47 47 46 43 41 40 39 38 34 43 48 49 56 56 55 54 52 52 51 52 51 53 53 51 51 51 52 45 46 44 48 49 50 49 46 43 42 41 40 36 37 33 31 39 37 38 39 40 42 45 45 43 43 41 42 42 43 43 43 40 39 38 38 33 31 33 33 35 38 37 41 44 42 41 42 41 42 42 39 42 40 38 39 40 39 33 33 33 36 37 40 43 45 45 44 41 39 40 39 39 27 39 48 52 56 54 53 50 53 53 51 52 52 52 53 48 51 50 51 44 45 45 48 49 50 49 46 45 41 41 40 35 37 34 34 39 37 37 38 40 42 45 44 41 39 36 36 36 35 37 36 35 36 40 36 30 33 40 38 38 40 40 42 48 45 43 39 42 39 41 36 37 38 35 37 43 41 32 35 36 39 40 41 44 44 46 42 39 41 39 39 38 32 35 45 50 54 52 49 51 54 53 52 52 51 52 50 50 50 50 49 45 45 46 47 49 50 49 49 47 41 43 39 38 35 33 35 39 35 34 34 37 37 41 38 35 36 37 36 35 33 35 37 37 38 42 42 40 43 44 43 41 42 42 40 50 52 51 44 46 46 44 42 41 41 35 36 40 36 35 37 39 41 43 45 44 43 43 39 39 40 37 40 37 34 39 46 53 52 50 49 52 53 52 51 52 52 51 50 50 48 49 50 45 44 45 46 48 48 50 49 48 43 44 41 39 34 29 31 37 33 29 33 35 37 39 35 28 30 32 32 32 31 32 37 39 41 47 48 50 50 49 48 48 44 44 44 45 45 49 46 47 47 43 44 46 46 44 43 40 40 39 38 38 42 43 44 42 40 40 37 37 37 37 40 42 34 42 50 53 51 50 48 54 54 50 51 51 51 50 50 49 46 49 47 45 46 46 44 48 48 51 50 49 46 44 42 42 37 30 29 39 33 24 29 30 34 38 36 34 36 34 32 33 31 33 36 39 37 39 40 44 44 44 40 42 43 44 43 43 42 43 44 50 47 47 46 46 44 44 41 38 40 41 39 41 45 46 46 44 43 42 41 42 40 38 41 45 37 48 51 53 50 49 49 54 54 51 52 51 50 48 50 47 48 48 48 46 44 46 43 46 47 49 51 49 48 42 43 43 40 34 37 48 42 29 32 32 34 36 36 39 37 34 33 30 25 26 30 33 34 35 35 36 39 41 39 39 38 38 39 44 44 42 44 44 44 45 47 45 42 44 41 40 41 43 44 46 49 47 47 45 44 43 43 41 41 40 43 47 40 51 52 50 47 48 51 53 53 50 53 51 51 48 48 48 47 48 48 46 44 45 43 45 48 50 51 50 49 45 42 41 43 34 39 49 51 38 32 35 37 39 40 44 43 38 39 37 33 33 33 35 35 36 36 34 35 37 37 37 39 38 37 37 39 39 40 40 38 37 40 39 38 39 40 41 41 42 45 48 47 47 46 46 43 45 40 42 41 42 45 46 43 55 49 49 47 49 52 53 51 51 53 52 50 50 47 48 47 48 48 44 43 42 44 44 47 49 49 49 49 46 40 41 41 32 39 48 50 44 33 31 34 39 40 43 44 41 40 42 42 41 42 40 41 42 42 42 41 42 41 42 43 41 39 39 39 37 37 37 38 38 40 39 40 42 43 45 45 42 45 46 47 47 46 46 47 43 41 42 42 44 47 45 49 52 47 46 47 50 51 53 50 51 51 51 49 47 48 48 45 47 45 43 42 42 43 42 46 49 49 48 48 47 42 38 38 34 41 48 51 49 37 31 31 37 38 39 41 42 40 42 42 40 41 39 37 40 39 42 42 47 49 51 50 52 51 50 49 48 45 46 42 44 43 42 42 43 42 44 45 45 45 47 47 48 45 47 45 43 41 42 42 46 45 46 50 50 43 45 47 49 52 51 50 49 50 50 49 47 47 47 46 46 44 40 41 41 40 42 44 48 46 46 47 46 40 37 31 37 48 56 50 50 45 32 28 32 33 35 37 38 39 40 42 41 41 39 40 40 42 42 44 46 48 51 53 56 56 55 56 55 54 52 50 50 49 48 46 45 44 44 44 46 44 47 47 47 45 44 42 42 40 41 44 45 45 46 51 44 41 44 49 47 49 49 50 49 46 49 46 47 46 46 44 44 45 41 40 40 41 42 43 46 44 46 44 45 38 37 30 43 59 59 52 50 49 38 29 28 32 32 34 34 35 37 40 41 42 42 41 43 43 42 45 48 49 53 53 56 57 56 58 56 55 56 57 54 54 54 53 52 50 49 46 47 47 49 48 45 45 42 42 42 39 42 43 44 46 45 50 41 39 43 47 49 46 49 48 49 46 46 46 45 47 45 44 44 43 39 39 38 39 39 44 40 42 43 42 42 37 32 41 55 62 57 53 50 50 43 33 28 31 32 34 35 35 37 37 40 42 41 43 42 45 44 47 49 49 52 53 54 56 57 58 59 59 59 60 58 56 57 55 56 52 52 51 51 51 47 46 45 44 42 41 40 40 42 42 42 48 43 50 39 38 44 46 46 46 47 47 48 45 46 44 45 47 43 44 42 44 37 37 39 38 40 40 39 39 40 41 39 30 37 49 69 61 54 53 52 49 44 37 31 29 31 33 34 35 39 38 41 41 41 44 43 46 46 48 49 51 54 57 57 59 59 61 61 61 62 61 60 59 58 58 58 55 55 56 54 51 48 46 45 43 40 41 40 41 41 41 41 49 44 49 37 38 44 44 44 47 45 46 47 45 45 44 45 45 44 44 43 43 36 37 38 39 40 37 38 37 39 38 32 27 48 54 75 66 54 53 53 49 44 38 34 29 29 34 34 35 37 38 41 40 41 44 43 46 47 50 50 53 53 57 59 60 59 61 62 60 60 60 62 62 60 60 59 57 58 55 54 52 49 46 45 42 41 39 40 41 39 41 44 47 49 51 36 37 43 41 44 44 46 45 46 45 45 43 43 44 42 44 44 43 37 37 36 39 36 36 37 35 35 34 22 36 52 62 81 68 61 56 52 50 45 43 38 32 30 33 35 36 37 37 40 39 40 41 42 46 45 49 50 53 55 57 58 60 58 61 60 60 60 60 62 60 61 58 58 58 56 53 52 49 49 46 44 43 39 41 40 40 39 42 43 50 51 51 35 37 39 40 44 44 44 45 45 46 45 43 42 44 41 45 42 43 35 37 35 36 34 33 36 34 33 27 23 47 54 73 85 68 69 59 52 50 49 44 41 36 32 35 34 38 39 38 41 38 41 41 41 46 46 47 51 53 54 58 58 59 59 59 58 59 58 60 58 57 57 58 54 57 53 50 50 48 47 44 44 43 41 39 41 38 42 41 46 53 51 54 38 33 37 41 41 43 43 45 43 45 45 43 42 43 40 43 40 42 33 36 34 32 32 32 34 33 31 19 32 49 63 79 84 73 69 60 53 51 50 46 42 39 35 33 35 37 39 39 40 41 42 43 43 45 48 50 52 52 53 57 56 59 57 57 58 56 56 57 55 55 56 56 53 54 51 49 48 47 45 44 41 42 41 40 37 39 42 43 53 55 54 58 50 27 35 41 40 40 41 42 39 44 43 41 41 40 40 40 40 39 34 33 34 32 31 32 32 32 25 18 43 55 68 83 83 77 67 58 55 52 49 48 45 39 41 33 36 38 42 40 41 43 44 45 47 47 47 51 51 52 52 53 54 55 55 54 56 55 56 55 55 54 55 52 51 54 49 47 47 47 43 43 41 40 41 39 39 40 42 49 53 52 61 51 75 27 33 38 40 39 40 40 40 40 41 40 40 37 40 39 39 38 30 32 31 30 29 27 30 27 18 23 52 71 74 82 87 78 65 56 55 53 49 46 48 41 41 38 37 40 41 43 42 45 46 46 47 48 46 49 49 51 51 52 52 54 54 52 54 53 53 55 55 53 53 50 51 49 47 45 46 46 42 40 41 41 39 39 38 41 47 48 54 50 63 56 82 47 28 34 38 38 38 36 39 37 39 38 39 36 37 37 37 37 28 28 29 27 25 25 27 24 15 38 56 83 83 82 91 81 61 54 55 51 49 45 46 45 43 40 39 39 43 44 46 46 44 49 47 49 47 48 49 50 51 52 52 54 52 52 51 51 52 52 53 52 52 51 48 47 47 44 45 44 41 41 41 39 39 39 40 46 50 51 52 54 61 60 83 74 29 29 34 36 35 36 35 37 37 36 38 36 35 36 35 36 26 26 27 28 29 28 33 30 40 58 69 91 86 86 92 83 57 52 54 50 48 46 44 45 45 43 41 40 41 43 46 48 47 49 50 47 50 48 47 49 53 51 53 53 52 53 52 53 51 52 50 53 52 49 46 46 44 45 44 42 41 40 41 38 40 40 46 49 50 52 51 58 62 54 88 84 45 25 30 32 32 34 33 33 35 35 35 35 34 35 34 32 28 33 32 34 40 46 56 60 65 76 88 103 88 93 89 83 58 48 50 49 47 45 42 44 43 44 45 40 43 43 44 47 48 51 50 49 50 50 48 49 51 52 52 52 52 51 53 52 52 53 53 52 50 48 46 45 44 44 43 42 39 40 40 39 40 45 50 50 50 52 54 59 70 46 98 89 70 27 26 29 30 30 30 30 31 32 32 33 31 34 31 30 34 41 48 55 56 67 78 68 79 95 103 108 98 96 90 79 66 47 48 48 47 45 42 43 43 43 45 44 43 44 44 46 46 51 49 52 49 53 51 51 52 51 52 51 52 51 54 52 53 52 52 51 49 45 47 46 46 44 42 41 41 41 40 41 44 50 50 51 49 54 54 55 71 51 97 96 87 48 30 28 28 28 29 28 28 29 32 31 29 31 30 30 48 56 63 69 71 78 91 88 98 105 109 112 100 93 91 77 70 47 46 46 45 45 42 40 41 43 43 45 45 43 42 45 46 49 49 51 53 52 53 53 54 51 51 52 51 52 52 53 51 51 48 49 47 48 49 46 44 43 42 42 40 41 40 43 49 50 50 53 51 57 54 52 72 61 97 102 98 73 51 33 34 33 31 28 26 27 29 30 29 29 29 28 68 70 73 77 86 94 102 101 105 106 108 110 100 89 92 78 73 52 43 46 45 43 40 39 39 40 43 43 44 45 44 42 44 47 47 49 52 53 53 54 53 52 51 51 50 49 49 49 47 48 48 48 47 46 46 46 44 42 41 41 40 40 42 46 49 51 53 55 56 59 52 53 68 73 101 104 101 88 72 56 42 37 39 32 28 24 26 27 25 27 26 27 79 75 85 99 101 106 109 106 105 102 106 107 100 89 90 80 73 62 41 47 46 44 42 37 40 37 41 40 43 42 43 42 42 45 45 45 49 51 52 52 54 52 51 51 49 48 49 49 48 47 46 46 45 44 45 44 42 41 41 40 40 40 43 49 51 54 56 59 57 62 50 56 61 84 106 107 101 87 87 73 62 44 39 37 33 27 25 25 23 23 24 24 