P2
92
112
255
0 0 0 0 0 0 0 0 0 0 0 0 0 0 0 0 0 0 0 0 0 0 0 0 0 0 0 0 0 0 0 0 0 0 0 0 0 0 0 0 0 0 0 3 8 3 15 21 25 33 33 37 32 33 27 22 13 16 7 0 0 0 0 0 0 0 0 0 0 0 0 0 0 0 0 0 0 0 0 0 0 0 0 0 0 0 0 0 0 0 0 0 0 0 0 0 0 0 0 0 0 0 0 0 0 0 0 0 0 0 0 0 0 0 0 0 0 0 0 0 0 0 0 0 0 0 0 0 0 0 0 0 0 2 8 15 16 18 16 21 31 40 43 40 35 35 31 28 24 21 16 8 8 3 2 0 0 0 0 0 0 0 0 0 0 0 0 0 0 0 0 0 0 0 0 0 0 0 0 0 0 0 0 0 0 0 0 0 0 0 0 0 0 0 0 0 0 0 0 0 0 0 0 0 0 0 0 0 0 0 0 0 0 0 0 0 0 0 0 0 0 0 0 0 9 8 15 17 21 22 20 30 35 34 34 35 31 29 31 29 25 27 22 16 10 8 5 8 4 0 0 0 0 0 0 0 0 0 0 0 0 0 0 0 0 0 0 0 0 0 0 0 0 0 0 0 0 0 0 0 0 0 0 0 0 0 0 0 0 0 0 0 0 0 0 0 0 0 0 0 0 0 0 0 0 0 0 0 0 0 0 0 0 0 0 5 9 9 11 14 12 14 22 24 20 25 24 27 26 26 27 29 22 22 18 17 11 11 8 7 4 4 2 0 0 0 0 0 0 0 0 0 0 0 0 0 0 0 0 0 0 0 0 0 0 0 0 0 0 0 0 0 0 0 0 0 0 0 0 0 0 0 0 0 0 0 0 0 0 0 0 0 0 0 0 0 0 0 0 0 0 0 0 0 0 0 1 5 3 3 8 2 0 13 18 19 22 23 24 31 28 28 27 21 23 16 17 11 10 7 10 6 8 9 5 2 0 0 0 0 0 0 0 0 0 0 0 0 0 0 0 0 0 0 0 0 0 0 0 0 0 0 0 0 0 0 0 0 0 0 0 0 0 0 0 0 0 0 0 0 0 2 6 1 0 0 0 0 0 0 0 0 0 0 0 2 0 0 0 0 0 0 0 0 0 9 15 13 16 17 19 24 24 23 20 20 23 18 17 14 12 8 12 7 4 14 16 10 3 0 0 0 0 0 0 0 0 0 0 0 0 0 0 0 0 0 0 0 0 0 0 0 0 0 0 0 0 0 0 0 0 0 0 0 0 0 0 0 0 0 0 0 3 3 6 1 0 0 0 0 0 0 0 0 0 0 3 0 0 0 0 0 0 0 0 0 0 0 2 2 8 14 19 19 18 19 17 18 19 16 17 17 16 15 14 16 12 17 18 19 10 4 1 1 0 0 0 0 0 0 0 0 0 0 0 0 0 0 0 0 0 0 0 0 0 0 0 0 0 0 0 0 0 0 0 0 0 0 0 0 0 0 0 0 4 1 0 0 0 0 0 0 0 0 0 0 2 5 0 0 0 0 0 0 0 0 0 0 0 0 0 0 3 5 10 13 12 12 11 13 12 11 10 16 17 15 17 9 12 12 18 19 15 8 7 3 1 0 0 0 0 0 0 0 0 0 0 0 0 0 0 0 0 0 0 0 0 0 0 0 0 0 0 0 0 0 0 0 0 0 0 0 0 0 3 5 3 0 0 0 0 0 0 0 0 0 0 0 3 0 0 0 0 0 0 0 0 0 0 0 0 0 0 0 0 0 4 3 5 6 3 3 4 10 7 5 10 8 9 10 11 8 14 15 13 10 8 9 3 0 1 0 0 0 0 0 0 0 0 0 0 0 0 0 0 0 0 0 0 0 0 0 0 0 0 0 0 0 0 0 0 0 0 0 0 0 2 0 0 0 0 0 0 0 0 0 0 0 2 0 0 0 0 0 0 0 0 0 0 0 0 0 0 0 0 0 0 0 0 0 1 2 5 5 3 4 5 5 8 5 6 2 4 2 6 10 9 7 10 11 8 5 0 0 0 0 0 0 0 0 0 0 0 0 0 0 0 0 0 0 0 0 0 0 0 0 0 0 0 0 0 0 0 0 0 0 0 0 0 0 0 0 0 0 0 0 0 0 0 0 0 0 0 0 0 0 0 0 0 0 0 0 0 0 0 0 0 0 0 2 0 0 4 6 6 6 4 4 3 0 0 0 1 0 0 2 0 4 6 8 7 7 11 9 6 1 0 0 0 0 0 0 0 0 0 0 0 0 0 0 0 0 0 0 0 0 0 0 0 0 0 0 0 0 0 0 0 0 0 0 0 0 0 0 0 0 0 0 0 0 0 0 0 0 0 0 0 0 0 0 0 0 0 0 0 0 0 0 0 0 0 0 2 0 2 0 2 4 0 0 0 0 0 0 0 0 0 0 0 0 0 0 10 8 10 11 7 10 0 0 0 0 0 0 0 0 0 0 0 0 0 0 0 0 0 0 0 0 0 0 0 0 0 0 0 0 0 0 0 0 0 0 0 0 0 0 0 0 0 0 0 0 0 0 0 0 0 0 0 0 0 0 0 0 0 0 0 0 0 0 0 0 2 3 0 0 4 5 0 0 1 0 0 0 0 0 0 0 0 0 0 0 0 4 7 14 18 17 13 11 10 0 0 0 0 0 0 0 0 0 0 0 0 0 0 0 0 0 0 0 0 0 0 0 0 0 0 0 0 0 0 0 0 0 0 0 0 0 0 0 0 0 0 0 0 0 0 0 0 0 0 0 0 0 0 0 0 0 0 0 0 0 0 0 0 0 0 0 0 0 3 0 0 0 0 0 0 0 0 0 0 0 0 0 0 1 12 15 18 15 18 17 16 8 2 2 0 0 0 0 0 0 0 0 0 0 0 0 0 0 0 0 0 0 0 0 0 0 0 0 0 0 0 0 0 0 0 0 0 0 0 0 0 0 0 0 0 0 0 0 0 0 0 0 0 0 0 0 0 0 0 0 0 0 0 0 0 0 0 0 0 0 0 0 0 0 0 0 0 0 0 0 0 0 0 0 0 3 7 15 17 20 21 16 23 11 11 5 0 1 0 0 0 0 0 0 0 0 0 0 0 0 0 0 0 0 0 0 0 0 0 0 0 0 0 0 0 0 0 0 0 0 0 0 0 0 0 0 0 0 0 0 0 0 0 0 0 0 0 0 0 0 0 0 0 0 0 0 0 0 0 0 0 0 0 0 0 0 0 0 0 0 0 0 0 0 0 0 0 0 7 17 18 20 22 16 15 19 12 17 7 0 2 0 0 0 0 0 0 0 0 0 0 0 0 0 0 0 0 0 0 0 0 0 0 0 0 0 0 0 0 0 0 0 0 0 0 0 0 0 0 0 0 0 0 0 0 0 0 0 0 0 0 0 0 0 0 0 0 0 0 0 0 0 0 0 0 0 0 0 0 0 0 0 0 0 0 0 0 0 0 0 0 4 14 17 12 13 20 19 15 22 13 8 2 4 0 0 0 0 0 0 0 0 0 0 0 0 0 0 0 0 0 0 0 0 0 0 0 0 0 0 0 0 0 0 0 0 0 0 0 0 0 0 0 0 0 0 0 0 0 0 0 0 0 0 0 0 0 0 0 0 0 0 0 0 0 0 0 0 0 0 0 0 0 0 0 0 0 0 0 0 0 0 0 6 8 7 14 7 19 18 17 20 23 14 11 7 1 0 0 0 0 0 0 0 0 0 0 0 0 0 0 0 0 0 0 0 0 0 0 0 0 0 0 0 0 0 0 0 0 0 0 0 0 0 0 0 0 0 0 0 0 0 0 0 0 0 0 0 0 0 0 0 0 0 0 0 0 0 0 0 0 0 0 0 0 0 0 0 0 0 0 0 0 0 2 4 0 6 11 9 14 20 17 22 25 28 17 15 4 4 0 0 0 0 0 0 0 0 0 0 0 0 0 0 0 0 0 0 0 0 0 0 0 0 0 0 0 0 0 0 0 0 0 0 0 0 0 0 0 0 0 0 0 0 0 0 0 0 0 0 0 0 0 0 0 0 0 0 0 0 0 0 0 0 0 0 0 0 0 0 0 0 0 0 0 0 1 0 3 8 4 8 12 25 23 24 23 24 29 18 17 7 7 0 0 0 0 0 0 0 0 0 0 0 0 0 0 0 0 0 0 0 0 0 0 0 0 0 0 0 0 0 0 0 0 0 0 0 0 0 0 0 0 0 0 0 0 0 0 0 0 0 0 0 0 0 0 0 0 0 0 0 0 0 0 0 0 0 0 0 0 0 0 0 0 0 0 0 0 0 1 5 0 9 12 22 26 26 30 23 30 28 22 20 17 10 0 0 0 0 0 0 0 0 0 0 0 0 0 0 0 0 0 0 0 0 0 0 0 0 0 0 0 0 0 0 0 0 0 0 0 0 0 0 0 0 0 0 0 0 0 0 0 0 0 0 0 0 0 0 0 0 0 0 0 0 0 0 0 0 0 0 0 0 0 0 0 0 0 0 0 0 0 0 0 5 14 16 24 24 31 27 30 30 35 27 29 22 6 0 0 0 0 0 0 0 0 0 0 0 0 0 0 0 0 0 0 0 0 0 0 0 0 0 0 0 0 0 0 0 0 0 0 0 0 0 0 0 0 0 0 0 0 0 0 0 0 0 0 0 0 0 0 0 0 0 0 0 0 0 0 0 0 0 0 0 0 0 0 0 0 0 0 0 0 0 0 5 10 15 23 28 32 31 36 29 36 32 35 38 16 7 0 0 0 0 0 0 0 0 0 0 0 0 0 0 0 0 0 0 0 0 0 0 0 0 0 0 0 0 0 0 0 0 0 0 0 0 0 0 0 0 0 0 0 0 0 0 0 0 0 0 0 0 0 0 0 0 0 0 0 0 0 0 0 0 0 0 0 0 0 0 0 0 0 0 0 0 0 0 6 12 17 23 29 32 37 29 34 35 32 34 20 21 2 0 0 0 0 1 0 0 0 0 0 0 0 0 0 0 0 0 0 0 0 0 0 0 0 0 0 0 0 0 0 0 0 0 0 0 0 0 0 0 0 0 0 0 0 0 0 0 0 0 0 0 0 0 0 0 0 0 0 0 0 0 0 0 0 0 0 0 0 0 0 0 0 0 0 0 0 0 3 9 10 19 22 25 25 30 33 35 29 31 30 23 12 5 0 2 7 8 8 6 4 1 0 0 0 0 0 0 0 0 0 0 0 0 0 0 0 0 0 0 0 0 0 0 0 0 0 0 0 0 0 0 0 0 0 0 0 0 0 0 0 0 0 0 0 0 0 0 0 0 0 0 0 0 0 0 0 0 0 0 0 0 0 0 0 0 0 0 0 0 0 0 3 8 15 19 27 29 31 34 30 32 25 24 12 7 0 5 10 14 16 15 13 8 4 0 0 0 0 0 0 0 0 0 0 0 0 0 0 0 0 0 0 0 0 0 0 0 0 0 0 0 0 0 0 0 0 0 0 0 0 0 0 0 0 0 0 0 0 0 0 0 0 0 0 0 0 0 0 0 0 0 0 0 0 0 0 0 0 0 0 0 0 0 1 5 9 14 20 25 24 31 35 33 25 25 18 8 0 1 8 16 19 20 14 11 5 0 0 0 0 0 0 0 0 0 0 0 0 0 0 0 0 0 0 0 0 0 0 0 0 0 0 0 0 0 0 1 2 1 2 0 0 0 0 0 0 0 0 0 0 0 0 0 0 0 0 0 0 0 0 0 0 0 0 0 0 0 0 0 0 0 0 0 0 0 0 0 2 8 10 18 25 31 37 31 27 28 20 5 0 1 8 13 19 20 15 7 1 0 0 0 0 0 0 0 0 0 0 0 0 0 0 0 0 0 0 0 0 0 0 0 0 0 1 2 6 5 6 8 9 8 7 5 5 4 6 6 7 7 8 8 8 7 8 8 8 5 4 2 0 0 0 0 0 0 0 0 0 0 0 0 0 0 0 0 0 0 0 0 0 5 15 19 28 30 36 34 27 28 19 8 0 6 11 13 16 17 10 0 0 0 0 0 0 0 0 0 0 0 0 0 0 0 0 0 0 0 0 0 0 0 4 6 4 9 9 11 13 11 11 11 11 11 8 8 8 7 9 12 12 14 15 15 14 14 15 15 16 16 16 15 13 10 4 1 0 0 0 0 0 0 0 0 0 0 0 0 0 0 0 0 0 0 8 16 24 29 35 41 29 25 19 5 2 8 10 15 17 14 11 0 0 0 0 0 0 0 0 0 0 0 0 0 0 0 0 0 0 0 0 2 5 7 13 13 14 17 17 16 16 15 14 12 12 10 9 9 9 8 9 11 14 16 18 20 19 20 21 21 23 23 21 23 22 22 18 14 14 9 0 0 0 0 0 0 0 0 0 0 0 0 0 0 0 0 3 14 23 24 32 35 32 22 14 3 4 9 14 17 18 11 2 0 0 0 0 0 0 0 0 0 0 0 0 0 0 0 0 1 5 6 9 11 15 18 20 22 22 21 21 18 19 17 15 14 12 10 8 9 9 7 9 11 13 17 19 20 22 24 24 25 26 28 27 29 30 31 30 26 28 24 16 4 0 0 0 0 0 0 0 0 0 0 0 0 0 0 0 5 16 20 26 29 26 23 18 5 0 5 8 9 9 6 0 0 0 0 0 0 0 0 0 0 0 0 0 0 0 0 6 6 8 11 13 17 21 24 25 25 23 24 23 22 21 19 16 13 14 11 9 9 8 7 9 11 13 17 19 20 23 25 24 25 28 29 31 31 34 35 35 33 33 33 30 20 9 0 0 0 0 0 0 0 0 0 0 0 0 0 0 0 8 13 20 28 26 18 16 7 0 0 1 6 8 4 0 0 0 0 0 0 0 0 0 0 0 0 0 0 0 2 11 9 13 17 20 25 26 27 28 29 28 28 25 25 24 21 18 16 14 11 8 8 8 8 9 10 11 14 16 18 21 23 25 27 28 29 32 34 34 36 38 38 38 39 38 34 26 20 0 0 0 0 0 0 0 0 0 0 0 0 0 0 0 5 12 27 32 20 9 7 0 0 4 6 7 1 0 0 0 0 0 0 0 0 0 0 0 0 0 0 0 9 14 13 17 22 25 29 31 29 30 31 30 30 28 27 26 24 22 19 14 11 9 8 9 8 9 8 9 12 15 17 21 23 26 27 29 31 32 34 35 36 39 39 41 43 42 42 37 32 28 4 0 0 0 0 0 0 0 0 0 0 0 0 0 4 9 15 22 14 18 11 0 0 0 2 3 3 0 0 0 0 0 0 0 0 0 0 0 0 0 0 1 14 16 17 23 25 29 33 32 33 33 33 33 33 32 31 30 27 24 21 17 14 10 11 9 9 9 9 10 10 12 15 18 23 25 27 29 30 32 33 36 37 39 40 41 44 46 46 47 38 40 30 6 0 0 0 0 0 0 0 0 0 0 0 0 1 13 13 23 16 14 12 0 0 0 0 3 4 0 0 0 0 0 0 0 0 0 0 0 0 0 0 9 16 16 21 26 30 30 32 33 34 35 35 34 33 33 32 32 29 26 23 19 15 12 11 11 11 10 10 10 9 13 16 19 22 24 27 29 31 34 34 36 36 39 41 43 44 46 49 51 48 44 44 24 1 0 0 0 0 0 0 0 0 0 0 0 0 13 9 21 24 14 17 0 0 0 0 0 0 0 0 0 0 0 0 0 0 0 0 0 0 0 0 14 19 18 25 29 29 29 31 34 33 35 35 35 35 34 34 33 31 30 27 23 19 15 13 13 13 13 13 12 12 14 17 21 23 26 29 32 33 35 36 36 38 38 42 42 44 46 49 53 53 49 47 41 13 0 0 0 0 0 0 0 0 0 0 0 0 13 6 10 22 21 18 0 0 0 0 0 0 0 0 0 0 0 0 0 0 0 0 0 0 0 0 19 21 21 28 30 29 29 32 32 32 34 35 35 36 36 35 35 33 32 30 26 23 18 16 16 16 17 15 15 17 17 21 24 26 29 31 34 36 35 37 38 38 38 40 43 43 47 48 51 56 54 48 50 30 7 0 0 0 0 0 0 0 0 0 0 0 12 11 17 23 17 15 0 0 0 0 0 0 0 0 0 0 0 0 0 0 0 0 0 0 0 9 20 22 25 28 31 30 31 31 31 32 33 35 36 36 37 37 37 35 34 33 29 25 20 19 18 18 20 19 20 22 23 24 28 30 31 32 35 36 37 39 41 41 37 41 42 43 46 47 51 55 59 53 54 47 19 9 0 0 0 0 0 0 0 0 0 0 7 21 10 22 17 12 0 0 0 0 0 0 0 0 0 0 0 0 0 0 0 0 0 0 0 14 20 23 27 29 31 30 32 31 32 32 33 35 37 39 40 39 39 38 37 35 32 27 25 22 21 22 24 22 24 26 26 27 30 32 33 34 36 37 36 37 38 39 37 37 41 41 46 47 51 55 60 58 54 59 33 20 2 0 0 0 0 0 0 0 0 0 1 9 12 13 17 6 0 0 0 0 0 0 0 0 0 0 0 0 0 0 0 0 0 0 0 18 20 22 25 26 27 25 27 30 30 30 32 33 34 35 39 38 39 38 38 39 32 30 27 25 23 24 24 26 28 27 27 30 30 32 29 29 29 29 28 31 32 29 30 30 32 29 41 46 50 57 61 66 57 62 51 29 23 0 0 0 0 0 0 0 0 0 5 11 14 19 4 12 0 0 0 0 0 0 0 0 0 0 0 0 0 0 0 0 0 0 8 21 21 21 20 22 24 21 22 20 25 23 25 23 23 22 30 32 30 35 37 36 32 31 29 27 24 24 23 26 26 24 22 25 22 20 18 16 12 9 11 12 13 13 16 17 20 22 27 41 48 52 58 68 65 58 60 32 37 2 0 0 0 0 0 0 0 0 5 12 10 22 5 12 0 0 0 0 0 0 0 0 0 0 0 0 0 0 0 0 0 0 19 22 20 20 18 20 17 12 15 12 10 11 9 7 6 5 8 14 13 15 22 23 22 24 21 20 19 21 19 21 19 16 13 16 10 4 2 0 0 0 0 0 0 0 1 2 8 11 18 31 37 50 57 61 68 56 69 37 28 19 0 0 0 0 0 0 0 0 3 8 5 15 9 10 0 0 0 0 0 0 0 0 0 0 0 0 0 0 0 0 0 4 24 17 15 13 13 11 10 7 9 10 5 0 0 0 0 0 0 0 0 4 1 22 26 23 22 30 19 24 21 21 18 14 6 9 0 0 0 0 0 0 0 0 0 0 0 0 0 2 15 26 35 34 47 59 64 59 74 58 37 22 0 0 0 0 0 0 0 0 1 9 5 12 12 8 0 0 0 0 0 0 0 0 0 0 0 0 0 0 0 0 0 16 22 9 15 20 15 12 10 14 12 14 9 2 0 0 0 0 0 0 0 0 0 4 23 33 33 35 34 21 27 30 22 17 8 0 0 0 0 0 0 0 0 0 0 0 0 0 0 0 27 31 39 46 34 48 62 58 68 69 41 41 0 0 0 0 0 0 0 0 0 3 1 3 7 12 0 0 0 0 0 0 0 0 0 0 0 0 0 0 0 0 5 20 9 14 22 21 14 7 8 13 17 11 6 0 0 0 0 0 0 0 0 0 0 0 10 31 36 35 35 24 28 29 26 21 13 0 0 0 0 0 0 0 0 0 0 0 0 0 0 4 23 36 44 50 43 40 44 53 51 65 47 38 13 0 0 0 0 0 0 0 0 2 0 0 5 5 0 0 0 0 0 0 0 0 0 0 0 0 0 0 0 0 19 19 18 26 22 15 6 13 18 21 20 19 7 0 0 0 0 0 0 0 0 0 0 0 1 10 31 34 38 25 26 30 31 25 23 1 0 0 0 0 0 0 0 0 0 0 0 0 5 14 28 46 55 62 61 52 50 59 57 64 44 31 16 0 0 0 0 0 0 0 0 0 0 0 1 1 0 0 0 0 0 0 0 0 0 0 0 0 0 0 0 0 29 20 26 28 13 11 14 22 28 28 19 11 4 0 0 0 0 0 0 0 0 8 3 4 10 6 32 36 37 34 29 33 36 32 21 4 0 0 0 0 0 0 0 0 0 0 0 7 14 23 22 37 52 64 70 61 57 59 58 64 63 28 16 1 0 0 0 0 0 0 0 0 0 0 0 0 0 0 0 0 0 0 0 0 0 0 0 0 0 0 0 12 45 28 24 30 21 18 24 28 29 24 17 8 5 0 7 4 0 0 0 0 0 0 6 5 12 8 31 45 34 40 43 43 49 47 31 0 0 0 0 0 0 0 0 0 0 0 7 16 13 19 29 29 39 56 68 69 62 63 64 62 69 45 13 10 0 0 0 0 0 0 0 0 0 0 0 0 0 0 0 0 0 0 0 0 0 0 0 0 0 0 0 34 50 37 36 41 39 32 25 28 25 15 15 0 0 0 9 3 4 0 0 0 0 0 0 1 5 10 29 42 36 47 48 46 53 57 41 1 0 0 0 0 0 0 0 0 0 0 0 25 18 15 7 34 31 53 59 68 64 64 70 61 69 56 26 13 0 0 0 0 0 0 0 0 0 0 0 0 0 0 0 0 0 0 0 0 0 0 0 0 0 0 3 37 46 33 53 47 49 37 28 16 21 10 6 0 0 0 6 28 18 10 0 0 0 0 0 0 1 13 27 37 39 42 43 42 49 54 42 11 0 0 0 0 0 0 0 0 0 0 0 7 24 30 20 4 22 30 50 59 65 63 73 65 69 62 37 18 0 0 0 0 0 0 0 0 0 0 0 0 0 0 0 0 0 0 0 0 0 0 0 0 0 0 19 19 37 40 51 51 52 37 23 12 19 9 4 0 7 0 1 6 5 0 0 0 0 0 0 0 0 13 23 29 35 48 48 44 52 49 37 19 0 0 0 0 0 0 0 0 0 0 0 0 10 26 23 21 9 31 30 43 62 63 70 68 70 70 40 27 5 0 0 0 0 0 0 0 0 0 0 0 0 0 0 0 0 0 0 0 0 0 0 0 0 0 28 19 38 45 45 47 46 40 20 13 15 8 16 11 0 0 8 0 0 0 0 0 0 0 0 0 0 14 23 25 35 51 51 46 54 48 38 23 9 0 0 0 0 0 0 0 0 0 0 0 0 0 1 36 27 13 38 29 53 60 65 67 66 70 46 30 2 0 0 0 0 0 0 0 0 0 0 0 0 0 0 0 0 0 0 0 0 0 0 0 0 0 35 30 40 47 43 39 39 31 20 7 7 4 0 8 15 4 0 0 0 0 0 0 0 0 0 0 8 15 19 27 38 50 50 46 54 46 44 29 29 0 0 0 0 0 0 0 0 0 0 0 0 1 0 38 50 22 26 39 41 62 63 71 63 71 55 30 13 0 0 0 0 0 0 0 0 0 0 0 0 0 0 0 0 0 0 0 0 0 0 0 0 0 26 31 36 41 37 33 33 25 14 0 0 0 5 11 27 29 0 0 0 0 0 0 0 0 0 3 11 13 25 33 38 47 49 46 51 48 45 39 38 22 0 0 0 0 0 0 0 0 0 0 0 0 3 31 43 46 40 42 49 57 66 75 71 73 67 42 14 10 0 0 0 0 0 0 0 0 0 0 0 0 0 0 0 0 0 0 0 0 0 0 0 14 24 30 33 38 34 29 27 23 12 1 0 0 18 24 19 17 0 0 0 0 1 0 0 3 1 8 14 19 32 36 36 44 49 45 49 48 45 46 30 37 7 0 0 0 0 0 0 0 0 0 1 0 15 35 44 52 54 56 58 61 65 74 75 73 68 50 15 20 0 0 0 0 0 0 0 0 0 0 0 0 0 0 0 0 0 0 0 0 0 0 0 24 31 35 34 41 37 33 28 21 15 8 10 15 26 32 23 14 4 0 0 1 0 0 3 3 5 17 16 22 38 30 36 42 46 44 44 46 49 46 40 35 36 24 0 0 0 0 0 0 0 5 10 14 25 33 48 59 62 62 62 63 65 73 76 72 71 48 24 28 0 0 0 0 0 0 0 0 0 0 0 0 0 0 0 0 0 0 0 0 0 0 0 25 32 35 31 44 43 38 35 27 22 20 18 22 27 35 31 20 12 7 3 3 4 5 8 7 14 16 16 29 34 34 33 40 42 42 41 46 49 49 45 33 42 40 20 1 1 0 0 0 0 6 13 23 30 38 47 56 60 62 61 63 66 71 77 69 71 47 29 35 0 0 0 0 0 0 0 0 0 0 0 0 0 0 0 0 0 0 0 0 0 0 0 25 30 31 31 37 43 38 35 31 30 29 27 26 28 32 31 24 19 14 11 10 11 11 15 18 19 12 25 29 34 34 34 38 40 41 40 44 49 46 50 41 27 47 35 13 6 10 12 7 9 12 17 22 30 36 43 50 54 56 60 61 64 69 77 69 71 45 32 37 5 0 0 0 0 0 0 0 0 0 0 0 0 0 0 0 0 0 0 0 0 0 0 23 31 24 36 28 40 37 34 32 32 32 32 28 27 27 28 24 20 17 14 17 22 21 26 23 14 18 24 25 35 33 35 36 38 40 39 43 47 46 47 47 42 33 41 23 20 11 17 19 18 20 25 28 34 39 43 47 51 52 58 59 61 70 74 67 64 47 36 38 16 0 0 0 0 0 0 0 0 0 0 0 0 0 0 0 0 0 0 0 0 0 0 18 30 19 37 24 33 36 32 33 34 33 33 30 28 28 29 27 24 22 22 25 28 31 29 16 15 20 19 28 32 33 36 35 36 39 40 41 48 45 44 45 49 41 30 19 19 21 14 18 26 27 31 33 37 39 42 44 49 51 57 61 62 69 73 63 66 48 36 38 18 0 0 0 0 0 0 0 0 0 0 0 0 0 0 0 0 0 0 0 0 0 0 13 25 20 28 30 30 35 33 32 35 35 34 30 31 33 32 31 29 26 27 30 31 30 24 20 15 13 20 27 28 36 35 31 32 36 35 40 49 41 41 44 46 46 33 9 12 15 12 17 18 24 32 34 36 38 43 45 50 53 58 61 64 67 67 66 60 57 35 35 9 0 0 0 12 0 0 0 0 0 0 0 0 0 0 0 0 0 0 0 0 0 0 11 20 25 16 33 26 37 33 33 35 35 33 32 34 35 34 32 31 28 27 30 29 23 23 18 11 16 21 25 23 35 33 26 27 26 28 33 41 36 38 41 41 42 22 14 2 4 4 12 13 15 20 26 32 37 44 44 52 56 57 60 63 61 66 61 56 59 35 33 6 0 0 4 12 0 0 0 0 0 0 0 0 0 0 0 3 1 0 0 0 0 0 5 17 24 18 23 31 30 27 30 34 32 33 33 35 36 36 34 33 25 23 24 24 21 17 10 10 13 19 22 22 27 31 21 24 19 22 28 38 30 28 32 36 38 17 8 4 0 0 0 8 8 14 18 22 28 37 42 51 55 55 57 61 63 60 60 55 58 34 23 8 0 0 0 7 0 0 0 0 0 0 0 0 0 5 0 2 0 0 0 0 0 0 0 13 18 24 18 29 32 28 26 26 27 34 33 33 35 34 30 23 17 22 25 23 15 15 15 12 14 18 16 14 22 26 13 17 12 14 25 28 14 17 27 35 33 16 2 0 0 0 0 0 1 11 16 21 26 34 40 47 52 53 55 59 57 62 64 51 55 40 21 9 0 0 0 9 6 0 0 0 0 0 0 0 0 1 2 0 2 0 0 0 0 0 0 9 15 20 23 23 33 31 31 28 22 29 30 28 29 25 20 16 21 24 19 17 17 14 16 11 4 1 0 1 12 20 7 7 7 6 20 6 0 0 19 28 26 13 1 0 0 0 0 0 0 0 3 16 23 32 43 48 50 53 51 56 61 65 60 48 53 36 29 4 0 0 0 17 18 0 0 0 0 0 0 0 0 0 19 0 6 4 0 0 0 0 0 3 12 17 21 25 26 26 27 32 31 35 36 34 30 25 19 19 19 17 16 19 18 14 15 9 7 8 8 6 5 9 6 0 0 0 11 8 0 7 12 8 3 0 0 0 0 0 0 0 0 0 0 4 10 19 30 42 43 50 52 56 61 63 55 46 47 32 24 0 8 0 2 32 22 0 0 0 0 0 0 0 0 0 31 8 9 14 1 0 0 0 0 0 13 16 21 24 27 26 26 26 27 28 29 26 21 16 13 19 21 18 18 18 18 16 11 7 0 0 0 0 0 0 1 0 0 0 0 2 0 0 0 0 0 0 0 0 0 0 0 0 0 0 0 4 13 18 29 34 41 49 50 53 59 62 47 42 47 28 28 0 23 21 10 44 22 0 0 0 0 0 0 0 0 0 21 23 18 21 8 0 0 0 0 0 11 16 21 24 24 27 27 30 31 31 29 26 22 17 23 24 22 16 16 15 17 17 9 8 0 0 0 0 0 7 4 0 0 0 0 0 0 0 0 1 4 1 1 0 0 0 0 0 0 0 0 1 8 16 26 29 37 43 48 50 56 59 47 41 40 29 28 18 41 29 16 53 20 0 0 0 0 0 0 0 0 0 0 36 21 31 15 0 0 0 0 0 6 14 20 26 24 26 27 29 30 31 31 27 20 22 25 22 19 12 12 15 19 19 12 7 0 0 5 1 0 3 0 0 0 0 0 0 0 5 11 13 14 8 5 0 0 0 0 0 0 0 0 0 5 11 23 26 33 40 46 47 53 57 46 46 34 29 20 21 44 30 25 52 19 0 0 0 0 0 0 0 0 0 0 32 31 30 23 10 4 0 0 0 0 12 20 27 25 26 27 29 31 32 31 23 20 25 23 19 17 14 15 15 24 22 19 9 5 3 2 0 0 4 0 0 0 0 0 0 0 12 15 14 14 12 5 0 0 0 0 0 0 0 0 0 1 10 19 24 29 40 42 45 51 49 47 46 38 31 24 31 37 36 38 43 16 0 0 0 0 0 0 0 0 0 0 8 41 31 23 10 11 0 0 0 0 14 21 26 26 26 26 30 32 33 30 20 23 26 21 18 15 17 19 22 27 26 21 16 11 8 7 0 0 5 0 0 0 0 0 0 3 9 14 12 19 21 13 5 0 0 0 0 0 0 0 0 0 9 17 20 30 38 39 44 48 43 44 51 40 41 30 47 41 51 54 36 18 0 0 0 0 0 0 0 0 0 0 0 33 38 27 16 22 14 0 3 0 13 22 26 27 28 28 30 34 34 28 22 28 26 21 19 17 19 22 25 29 28 21 17 13 11 8 5 0 3 0 0 0 0 0 0 3 8 12 12 22 23 17 12 7 0 0 0 0 0 0 0 0 8 17 23 32 38 41 45 48 42 46 58 42 44 34 59 46 60 57 31 15 0 0 0 0 0 0 0 0 0 0 0 14 27 35 21 26 36 0 7 0 12 22 25 28 28 31 32 34 35 27 23 31 26 23 19 19 20 23 24 26 24 21 16 11 4 6 0 0 0 0 0 0 0 0 0 0 7 7 9 15 19 16 12 11 5 0 0 0 0 0 0 3 15 21 29 36 42 42 49 49 44 50 60 53 48 48 62 45 56 55 28 11 0 0 0 0 0 0 0 0 0 0 0 0 19 35 27 24 38 12 9 0 6 20 25 26 29 32 31 36 37 27 26 31 26 23 16 22 18 19 18 17 20 17 11 9 4 3 1 1 0 0 0 0 0 0 0 0 11 9 2 15 13 6 5 5 1 0 0 0 1 0 1 3 24 28 31 40 47 45 52 49 49 53 65 64 54 62 59 48 64 52 27 1 0 0 0 0 0 0 0 0 0 0 0 0 11 27 33 31 36 13 5 2 0 16 25 28 31 34 33 35 38 29 29 29 29 21 16 13 13 7 9 13 14 18 11 12 12 14 16 17 8 2 0 8 10 8 8 9 21 18 6 20 13 5 0 0 0 0 0 0 2 10 8 0 26 36 36 41 52 50 55 52 53 62 65 70 59 61 49 52 60 49 16 0 0 0 1 0 0 0 0 0 0 0 0 0 7 21 31 37 35 20 6 6 0 14 23 27 31 34 35 36 37 34 30 31 30 16 14 5 1 0 8 13 11 19 13 15 20 14 19 20 17 8 7 12 11 13 10 1 17 12 8 18 11 5 0 0 0 0 0 0 0 16 14 3 23 41 42 46 54 54 60 54 55 67 62 74 64 52 43 50 64 39 4 0 0 0 0 2 0 0 0 0 0 0 0 0 0 18 25 32 34 26 5 7 0 9 24 29 28 31 38 41 40 39 29 31 30 12 11 0 0 0 0 6 2 17 9 4 16 7 13 15 9 1 0 5 3 0 0 0 0 0 1 3 1 0 0 0 0 0 0 0 0 16 22 9 23 41 43 49 53 57 64 55 57 72 56 69 62 42 47 56 62 26 0 0 1 0 0 2 0 0 0 0 0 0 0 0 0 0 20 29 27 24 4 0 0 5 23 30 32 32 36 41 44 41 30 29 25 12 9 0 0 0 0 0 0 2 2 3 5 10 11 8 1 0 0 0 0 0 0 0 0 0 0 0 0 0 0 0 0 0 0 0 0 11 26 18 27 41 48 51 54 59 63 57 61 69 55 68 49 38 52 59 43 1 0 0 3 0 0 2 0 0 0 0 0 0 0 0 0 0 0 16 20 22 1 0 0 0 21 27 33 35 38 40 46 43 33 33 28 18 8 3 0 0 0 0 0 0 0 5 4 8 14 7 3 0 0 0 0 0 0 0 0 0 0 0 0 0 0 0 0 0 0 0 0 11 24 25 33 44 52 52 57 63 62 60 65 60 52 67 43 37 50 45 12 0 0 0 1 1 0 1 0 0 0 0 0 0 0 0 0 0 0 0 5 8 0 0 0 0 20 28 32 38 41 44 46 44 39 35 32 23 13 6 0 0 0 0 0 0 0 0 0 0 2 0 0 0 0 0 0 0 0 0 0 0 0 0 0 0 0 0 0 0 0 1 1 11 20 29 39 48 53 57 58 66 65 60 70 50 56 63 33 29 36 21 2 0 0 2 1 1 1 3 0 0 0 0 0 0 0 0 0 0 0 0 0 0 0 0 0 0 11 29 32 35 39 46 43 46 42 37 28 22 16 10 0 0 0 0 0 0 0 2 9 2 10 13 5 0 0 0 0 0 0 0 0 0 0 0 0 0 3 2 9 8 4 8 3 13 17 21 39 50 52 56 59 67 65 58 64 52 56 50 23 25 25 3 0 0 1 2 2 1 1 3 0 0 0 0 0 0 0 0 0 0 0 0 0 0 0 0 0 0 1 29 31 34 38 44 44 44 44 41 31 27 21 14 7 3 0 0 0 4 0 0 15 10 11 17 9 6 0 2 0 0 0 0 0 4 4 7 9 17 24 23 24 19 11 9 4 14 14 24 32 49 53 56 63 68 64 52 54 42 47 31 11 11 0 0 0 1 0 2 2 1 2 2 0 0 0 0 0 0 0 0 0 0 0 0 0 0 0 0 0 0 0 23 33 34 39 43 44 44 42 43 38 32 27 19 9 14 13 10 9 17 19 9 13 15 14 20 12 9 4 5 3 3 0 4 11 17 18 27 31 33 36 33 32 21 13 15 9 14 20 22 31 45 56 53 59 66 58 50 45 40 31 6 0 0 0 0 0 1 2 2 2 0 2 3 0 0 0 0 0 0 0 0 0 0 0 0 0 0 0 0 0 0 0 17 29 35 36 40 45 45 41 39 39 31 28 22 17 19 29 35 32 24 39 43 30 31 29 31 27 23 25 20 16 16 15 17 17 27 29 35 40 38 35 36 32 20 17 19 14 15 21 25 33 43 53 53 57 61 49 48 44 35 10 0 0 0 0 2 2 3 2 2 1 2 2 2 0 0 0 0 0 0 0 0 0 0 0 0 0 0 0 0 0 0 0 13 23 36 39 38 45 42 40 38 38 32 27 22 24 25 36 47 44 44 43 47 41 42 37 35 30 25 21 16 15 17 19 18 21 27 35 34 37 39 34 36 32 18 21 18 21 16 21 24 32 42 49 51 57 55 43 47 42 18 0 0 0 0 2 1 4 2 3 2 2 1 1 3 0 0 0 0 0 0 0 0 0 0 0 0 0 0 0 0 0 0 0 12 13 31 39 39 42 37 40 36 34 31 26 19 29 33 39 46 50 50 49 47 45 42 36 33 22 17 13 11 8 11 9 11 16 21 30 29 35 33 34 33 26 23 18 15 18 17 17 19 31 38 47 50 52 49 43 47 31 0 0 0 0 0 1 2 4 4 4 2 2 2 1 2 0 0 0 0 0 0 0 0 0 0 0 0 0 0 0 0 0 0 0 0 15 16 29 36 38 36 30 31 28 25 24 17 30 35 43 43 47 50 50 49 46 39 31 25 14 10 5 0 0 2 2 4 15 19 27 21 34 28 29 32 23 25 18 14 18 15 20 18 28 44 45 47 45 39 43 38 13 0 0 0 0 1 2 3 2 4 2 5 0 1 2 1 0 0 0 0 0 0 0 0 0 0 0 0 0 0 0 0 0 0 0 0 17 11 18 31 30 31 25 27 22 20 18 19 26 31 35 44 43 43 45 43 38 32 26 15 6 5 0 0 0 0 3 5 11 17 20 20 27 28 28 27 24 20 15 17 20 13 16 25 29 38 45 42 37 34 40 29 1 0 0 0 0 3 2 4 2 2 3 2 0 1 1 1 0 0 0 0 0 0 0 0 0 0 0 0 0 0 0 0 0 0 0 0 7 10 6 23 23 26 22 22 17 11 12 15 18 28 25 37 41 41 42 41 33 27 20 11 1 0 0 0 0 0 1 3 10 12 17 17 23 26 25 23 26 19 10 16 17 15 11 22 26 35 38 39 34 28 37 22 0 0 0 0 0 2 3 3 3 3 4 1 1 1 1 2 0 0 0 0 0 0 0 0 0 0 0 0 0 0 0 0 0 0 0 0 2 2 3 10 18 20 20 17 13 7 5 8 14 21 24 31 36 37 39 36 32 27 21 12 7 0 2 0 0 0 2 0 8 9 14 18 21 26 24 22 24 23 10 9 18 17 12 18 26 29 29 37 27 18 32 18 0 0 0 0 1 2 4 4 4 5 2 3 0 0 2 3 0 0 0 0 0 0 0 0 0 0 0 0 0 0 0 0 0 0 0 0 4 0 7 0 5 18 19 11 13 1 0 0 8 17 24 26 32 32 35 35 34 31 25 15 13 7 2 0 0 2 1 7 12 14 21 24 25 27 26 24 21 21 11 10 13 15 9 16 24 22 24 34 12 14 31 12 0 0 0 0 2 3 3 5 3 4 3 3 1 2 1 3 0 0 0 0 0 0 0 0 0 0 0 0 0 0 0 0 0 0 0 0 4 1 0 5 0 9 14 9 8 0 0 0 4 14 18 20 29 33 36 40 37 35 28 20 18 14 8 8 6 9 10 16 23 24 27 31 31 30 28 30 19 18 15 6 11 8 13 13 17 15 21 27 0 17 34 12 0 0 0 0 3 3 3 5 4 4 2 5 1 0 2 3 0 0 0 0 0 0 0 0 0 0 0 0 0 0 0 0 0 0 0 0 5 0 0 0 0 0 0 2 0 0 0 0 1 11 13 17 27 32 38 41 40 38 35 23 25 20 12 12 14 10 14 22 27 30 31 37 33 31 26 27 20 15 14 13 11 9 15 11 12 12 17 12 2 20 39 8 0 0 0 1 4 3 2 1 5 2 5 2 1 2 2 1 0 0 0 0 0 0 0 0 0 0 0 0 0 0 0 0 0 0 0 0 8 13 0 0 0 0 0 0 0 0 0 0 0 3 9 13 24 29 35 40 41 37 33 27 27 22 19 16 16 12 18 26 25 31 32 35 33 28 33 20 20 15 13 11 12 7 7 12 7 9 11 6 6 24 36 6 0 0 0 1 3 3 4 1 3 3 4 0 2 3 2 1 0 0 0 0 0 0 0 0 0 0 0 0 0 0 0 0 0 0 0 0 0 20 5 0 0 0 0 0 0 0 0 0 0 0 5 12 21 27 32 39 38 36 33 28 30 25 18 18 19 18 25 27 25 28 30 31 26 27 25 23 16 16 13 10 15 4 4 1 4 0 12 7 12 34 33 2 0 0 0 0 3 3 4 1 2 2 4 3 1 0 2 0 0 0 0 0 0 0 0 0 0 0 0 0 0 0 0 0 0 0 0 0 0 20 14 0 0 0 0 0 0 0 0 0 0 0 0 7 13 16 26 30 28 29 27 27 22 21 15 14 16 19 24 23 24 25 26 23 24 21 22 17 14 15 12 5 14 2 0 0 3 2 10 19 26 43 32 2 0 0 0 1 3 2 4 1 3 2 4 3 1 1 2 0 0 0 0 0 0 0 0 0 0 0 0 0 0 0 0 0 0 0 0 0 0 23 14 12 0 0 0 0 0 0 0 0 0 0 0 1 6 11 17 21 21 23 19 21 15 14 15 16 13 15 16 16 17 20 18 19 16 17 13 17 10 14 10 0 8 0 0 0 0 3 20 25 27 40 31 2 0 0 0 0 1 1 3 3 3 1 3 4 2 2 1 1 0 0 0 0 0 0 0 0 0 0 0 0 0 0 0 0 0 0 0 0 0 20 15 18 0 0 0 0 0 0 0 0 0 0 0 0 1 4 10 14 12 16 10 11 7 7 8 8 9 6 7 7 9 9 9 8 8 9 10 7 9 8 6 0 0 0 0 0 0 13 26 25 30 39 28 3 0 0 0 0 1 0 3 1 2 1 2 4 3 3 3 2 0 0 0 0 0 0 0 0 0 0 0 0 0 0 0 0 0 0 0 0 0 18 15 18 7 0 0 0 0 0 0 0 0 0 0 0 0 0 3 4 6 6 3 3 1 0 0 0 1 0 0 0 0 0 1 2 3 2 5 9 3 7 4 2 0 0 0 0 10 17 30 31 37 43 25 3 0 0 0 0 0 0 1 2 2 0 2 0 3 3 3 1 0 0 0 0 0 0 0 0 0 0 0 0 0 0 0 0 0 0 0 0 0 25 22 17 16 6 0 0 0 0 0 0 0 0 0 0 0 0 0 0 0 0 0 0 0 0 0 0 0 0 0 0 0 0 0 0 0 2 0 8 1 4 0 0 0 0 0 7 15 23 38 37 36 47 26 4 0 0 0 0 0 0 0 3 0 2 1 1 1 2 3 2 0 0 0 0 0 0 0 0 0 0 0 0 0 0 0 0 0 0 0 0 0 26 27 22 21 13 0 0 0 0 0 0 0 0 0 0 0 0 0 0 0 0 0 0 0 0 0 0 0 0 0 0 0 0 0 0 0 0 0 2 0 0 0 0 0 0 2 10 14 23 36 27 37 46 21 4 0 0 0 0 0 0 0 0 1 1 0 0 1 0 2 0 0 0 0 0 0 0 0 0 0 0 0 0 0 0 0 0 0 0 0 0 0 25 23 26 25 18 7 0 0 0 0 0 0 0 0 0 0 0 0 0 0 0 0 0 0 0 0 0 0 0 0 0 0 0 0 0 0 0 0 0 0 0 0 0 0 0 5 12 16 25 38 32 40 42 20 4 0 0 0 0 0 0 0 0 0 0 0 0 0 0 0 0 0 0 0 0 0 0 0 0 0 0 0 0 0 0 0 0 0 0 0 0 0 21 28 27 27 23 18 8 6 0 0 0 0 0 0 0 0 0 0 0 0 0 0 0 0 0 0 0 0 0 0 0 0 0 0 0 0 0 0 0 0 0 0 0 5 5 10 16 20 30 48 34 41 44 22 6 0 0 0 0 0 0 0 0 0 0 0 0 0 0 0 0 0 0 0 0 0 0 0 0 0 0 0 0 0 0 0 0 0 0 0 0 0 20 34 33 28 25 29 17 9 1 0 0 0 0 0 0 0 0 0 0 0 0 0 0 0 0 0 0 0 0 0 0 0 0 0 0 0 0 0 0 0 0 0 0 4 6 11 18 22 31 47 38 37 42 22 5 0 0 0 0 0 0 0 0 0 0 0 0 0 0 0 0 0 0 0 0 0 0 0 0 0 0 0 0 0 0 0 0 0 0 0 0 0 21 35 30 28 30 33 25 12 4 2 4 2 0 0 0 0 0 0 0 0 0 0 0 0 0 0 0 0 0 0 0 0 0 0 0 0 0 0 0 0 0 0 0 4 7 11 17 20 27 43 31 32 42 21 1 0 0 0 0 0 0 0 0 0 0 0 0 0 0 0 0 0 0 0 0 0 0 0 0 0 0 0 0 0 0 0 0 0 0 0 0 0 15 36 28 26 33 31 29 25 15 10 13 8 0 0 0 0 0 0 0 0 0 0 0 0 0 0 0 0 0 0 0 0 0 0 0 0 0 0 0 0 0 0 0 6 16 21 23 29 32 45 32 28 42 23 0 0 0 0 0 0 0 0 0 0 0 0 0 0 0 0 0 0 0 0 0 0 0 0 0 0 0 0 0 0 0 0 0 0 0 0 0 0 15 32 28 26 27 27 27 29 27 18 18 14 7 0 1 0 0 0 0 0 0 0 0 0 0 0 0 0 0 0 0 0 0 0 0 0 0 0 0 0 0 0 3 9 14 16 24 29 37 49 36 38 42 25 1 0 0 0 0 0 0 0 0 0 0 0 0 0 0 0 0 0 0 0 0 0 0 0 0 0 0 0 0 0 0 0 0 0 0 0 0 0 13 31 31 26 28 23 26 28 31 25 16 15 12 9 5 8 0 0 0 0 0 0 0 0 0 0 0 0 0 0 0 0 0 0 0 0 0 0 0 0 0 2 5 10 12 17 26 29 31 44 35 39 38 28 3 0 0 0 0 0 0 0 0 0 0 0 0 0 0 0 0 0 0 0 0 0 0 0 0 0 0 0 0 0 0 0 0 0 0 0 0 0 9 30 32 26 23 26 28 26 33 35 22 13 18 17 11 9 9 12 8 7 2 0 0 0 0 0 0 0 0 0 0 0 0 0 0 0 0 0 0 0 0 5 9 16 19 20 26 30 34 43 33 40 40 27 7 0 0 0 0 0 0 0 0 0 0 0 0 0 0 0 0 0 0 0 0 0 0 0 0 0 0 0 0 0 0 0 0 0 0 0 0 0 5 26 27 26 21 27 33 26 29 31 31 25 17 25 22 21 16 19 16 20 13 14 10 5 2 0 0 0 0 0 0 0 0 0 0 0 0 0 0 0 5 8 10 18 19 22 28 37 36 51 37 37 40 26 12 0 0 0 0 0 0 0 0 0 0 0 0 0 0 0 0 