P2
92
112
255
36 34 35 34 33 32 29 30 29 28 26 25 26 25 26 20 17 18 11 9 7 4 0 0 0 0 0 0 0 0 0 0 0 0 0 0 0 0 0 0 0 0 0 0 0 0 0 0 0 0 0 0 0 0 0 0 0 0 0 0 0 0 0 4 3 3 6 9 13 14 12 18 19 23 29 31 30 31 31 30 30 30 31 30 29 29 29 28 29 29 28 30 34 34 34 34 34 32 30 27 26 27 24 24 24 23 22 21 15 16 15 9 4 4 0 0 0 0 0 0 0 0 0 0 0 0 0 0 0 0 0 0 0 0 0 0 0 0 0 0 0 0 0 0 0 0 0 0 0 0 0 0 0 0 0 0 0 0 0 4 3 7 10 9 15 19 22 27 30 31 30 30 30 31 31 29 30 29 29 29 29 29 28 28 34 33 34 34 33 32 29 25 25 23 23 23 21 24 22 19 19 16 15 9 6 1 0 0 0 0 0 0 0 0 0 0 0 0 0 0 0 0 0 0 0 0 0 0 0 0 0 0 0 0 0 0 0 0 0 0 0 0 0 0 0 0 0 0 0 0 0 0 1 2 3 7 6 10 18 22 25 29 30 30 30 30 32 30 31 29 30 28 28 30 29 28 33 33 34 32 31 31 28 28 25 23 23 22 23 22 21 17 18 14 12 11 5 0 0 0 0 0 0 0 0 0 0 0 0 0 0 0 0 0 0 0 0 0 0 0 0 0 0 0 0 0 0 0 0 0 0 0 0 0 0 0 0 0 0 0 0 0 0 0 0 0 0 0 3 1 7 15 19 22 27 28 30 29 31 30 29 28 29 29 28 30 28 29 32 33 33 32 30 30 27 28 27 23 23 21 21 20 18 17 15 12 8 6 1 0 0 0 0 0 0 0 0 0 0 0 0 0 0 0 0 0 0 0 0 0 0 0 0 0 0 0 0 0 0 0 0 0 0 0 0 0 0 0 0 0 0 0 0 0 0 0 0 0 0 0 0 0 0 5 11 16 19 24 27 27 29 31 29 30 29 28 27 28 28 28 33 33 31 32 31 28 27 26 25 23 22 22 21 20 20 18 14 12 8 1 0 0 0 0 0 0 0 0 0 0 0 0 0 0 0 0 0 0 0 0 0 0 0 0 0 0 0 0 0 0 0 0 0 0 0 0 0 0 0 0 0 0 0 0 0 0 0 0 0 0 0 0 0 0 0 0 4 10 15 17 18 22 25 29 29 29 29 29 28 28 28 28 33 32 32 31 30 28 26 24 23 23 21 21 22 20 18 18 17 10 6 0 0 0 0 0 0 0 0 0 0 0 0 0 0 0 0 0 0 0 0 0 0 0 0 0 0 0 0 0 0 0 0 0 0 0 0 0 0 0 0 0 0 0 0 0 0 0 0 0 0 0 0 0 0 0 0 0 0 2 9 16 16 16 22 25 26 28 28 29 29 29 28 29 32 33 30 32 29 27 23 24 21 21 22 24 25 21 20 19 14 4 0 0 0 0 0 0 0 0 0 0 0 0 0 0 0 0 0 0 0 0 0 0 0 0 0 0 0 0 0 0 0 0 0 0 0 0 0 0 0 0 0 0 0 0 0 0 0 0 0 0 0 0 0 0 0 0 0 0 0 0 0 10 16 18 16 22 26 27 26 27 28 28 28 28 32 32 32 29 25 25 21 22 21 21 23 26 23 19 19 16 9 4 0 0 0 0 0 0 0 0 0 0 0 0 0 0 0 0 0 0 0 0 0 0 0 0 0 0 0 0 0 0 0 0 0 0 0 0 0 0 0 0 0 0 0 0 0 0 0 0 0 0 0 0 0 0 0 0 0 0 0 0 0 0 10 15 18 17 22 27 28 27 26 28 28 27 32 32 29 26 27 24 21 19 23 21 22 24 24 19 18 15 6 1 0 0 0 0 0 0 0 0 0 0 0 0 0 0 0 0 0 0 0 0 0 0 0 0 0 0 0 0 0 0 0 0 0 0 0 0 0 0 0 0 0 0 0 0 0 0 0 0 0 0 0 0 0 0 0 0 0 0 0 0 0 0 0 4 13 15 17 23 28 28 26 28 26 27 32 31 27 25 24 22 17 20 22 23 23 23 21 17 14 10 4 0 0 0 0 0 0 0 0 0 0 0 0 0 0 0 0 0 0 0 0 0 0 0 0 0 0 0 0 0 0 0 0 0 0 0 0 0 0 0 0 0 0 0 0 0 0 0 0 0 0 0 0 0 0 0 0 0 0 0 0 0 0 0 0 0 0 11 13 17 23 26 26 26 27 27 33 30 24 22 23 20 17 22 24 25 23 22 17 13 8 4 0 0 0 0 0 0 0 0 0 0 0 0 0 0 0 1 5 9 9 12 9 9 10 11 11 8 4 0 0 0 0 0 0 0 0 0 0 0 0 0 0 0 0 0 0 0 0 0 0 0 0 0 0 0 0 0 0 0 0 0 0 0 0 0 0 0 0 0 7 14 17 21 23 27 25 26 31 26 21 22 20 18 21 23 23 23 20 15 12 11 5 1 0 0 0 0 0 0 0 0 0 0 0 2 8 13 14 17 21 25 25 26 26 24 25 25 27 23 20 15 10 5 0 0 0 0 0 0 0 0 0 0 0 0 0 0 0 0 0 0 0 0 0 0 0 0 0 0 0 0 0 0 0 0 0 0 0 0 0 0 0 3 13 17 21 23 25 23 27 22 21 20 19 18 20 24 21 19 13 12 8 6 0 0 0 0 0 0 0 0 0 0 0 2 9 17 22 26 30 32 36 39 41 40 38 37 37 39 40 36 30 28 22 17 12 5 0 0 0 0 0 0 0 0 0 0 0 0 0 0 0 0 0 0 0 0 0 0 0 0 0 0 0 0 0 0 0 0 0 0 0 0 0 0 0 7 16 21 21 21 24 21 18 18 19 20 19 22 18 11 8 6 1 0 0 0 0 0 0 0 0 0 0 1 8 15 24 32 37 40 42 45 46 51 53 52 49 49 46 47 45 43 40 34 30 24 20 14 8 0 0 0 0 0 0 0 0 0 0 0 0 0 0 0 0 0 0 0 0 0 0 0 0 0 0 0 0 0 0 0 0 0 0 0 0 0 0 0 0 18 19 19 18 16 16 18 19 19 18 18 11 6 4 0 0 0 0 0 0 0 0 0 0 0 2 13 20 30 38 44 49 55 56 56 54 54 55 55 54 54 54 53 52 49 45 41 35 30 27 22 17 9 0 0 0 0 0 0 0 0 0 0 0 0 0 0 0 0 0 0 0 0 0 0 0 0 0 0 0 0 0 0 0 0 0 0 0 0 0 0 0 0 14 18 15 15 16 19 19 18 14 9 7 2 0 0 0 0 0 0 0 0 0 0 0 1 13 24 32 40 47 54 58 64 65 63 62 59 57 55 56 55 54 54 53 52 48 46 40 34 30 27 21 16 10 0 0 0 0 0 0 0 0 0 0 0 0 0 0 0 0 0 0 0 0 0 0 0 0 0 0 0 0 0 0 0 0 0 0 0 0 0 0 0 0 5 14 12 16 18 18 12 8 6 1 0 0 0 0 0 0 0 0 0 0 0 0 14 27 36 43 50 57 63 65 68 70 68 65 61 58 54 54 54 54 54 52 53 51 47 43 36 32 30 25 18 15 8 0 0 0 0 0 0 0 0 0 0 0 0 0 0 0 0 0 0 0 0 0 0 0 0 0 0 0 0 0 0 0 0 0 0 0 0 0 0 0 0 12 14 16 15 12 8 5 3 0 0 0 0 0 0 0 0 0 0 0 0 12 28 37 45 53 59 63 67 69 71 71 71 70 65 59 55 52 52 53 53 52 49 49 47 43 39 33 30 26 21 16 14 5 0 0 0 0 0 0 0 0 0 0 0 0 0 0 0 0 0 0 0 0 0 0 0 0 0 0 0 0 0 0 0 0 0 0 0 0 0 0 0 16 16 14 11 4 2 0 0 0 0 0 0 0 0 0 0 0 0 0 8 25 36 44 54 60 64 65 68 69 70 70 70 69 68 63 59 55 51 51 49 49 46 44 43 40 39 34 30 27 21 17 14 8 2 0 0 0 0 0 0 0 0 0 0 0 0 0 0 0 0 0 0 0 0 0 0 0 0 0 0 0 0 0 0 0 0 0 0 0 0 0 0 12 10 8 4 1 0 0 0 0 0 0 0 0 0 0 0 0 0 3 22 35 45 54 63 65 67 68 68 68 68 68 67 67 66 63 61 58 53 50 47 45 41 41 39 38 35 34 29 27 22 16 14 10 5 0 0 0 0 0 0 0 0 0 0 0 0 0 0 0 0 0 0 0 0 0 0 0 0 0 0 0 0 0 0 0 0 0 0 0 0 0 0 7 6 4 0 0 0 0 0 0 0 0 0 0 0 0 0 0 0 15 34 45 54 63 66 67 67 68 68 66 65 65 65 65 63 63 62 60 58 54 49 42 39 36 34 34 32 31 28 25 22 18 15 9 6 0 0 0 0 0 0 0 0 0 0 0 0 0 0 0 0 0 0 0 0 0 0 0 0 0 0 0 0 0 0 0 0 0 0 0 0 0 0 3 1 0 0 0 0 0 0 0 0 0 0 0 0 0 0 0 11 29 44 55 61 65 66 65 66 65 64 63 62 62 62 62 61 60 60 59 59 57 54 50 44 36 34 28 26 26 24 22 21 18 16 10 7 0 0 0 0 0 0 0 0 0 0 0 0 0 0 0 0 0 0 0 0 0 0 0 0 0 0 0 0 0 0 0 0 0 0 0 0 0 0 0 0 0 0 0 0 0 0 0 0 0 0 0 0 0 0 7 25 41 52 59 62 63 64 63 63 62 60 59 58 58 59 58 57 56 56 56 55 55 52 52 46 43 37 32 26 21 18 17 15 14 13 12 8 1 0 0 0 0 0 0 0 0 0 0 0 0 0 0 0 0 0 0 0 0 0 0 0 0 0 0 0 0 0 0 0 0 0 0 0 0 0 0 0 0 0 0 0 0 0 0 0 0 0 0 0 0 4 21 38 50 57 60 61 62 61 60 58 58 56 55 54 54 55 54 53 53 52 51 51 50 49 48 46 41 39 34 30 24 18 14 11 7 8 6 5 2 0 0 0 0 0 0 0 0 0 0 0 0 0 0 0 0 0 0 0 0 0 0 0 0 0 0 0 0 0 0 0 0 0 0 0 0 0 0 0 0 0 0 0 0 0 0 0 0 0 0 0 0 15 32 46 53 56 58 58 59 58 56 55 54 53 52 51 50 50 50 49 49 48 47 47 46 46 45 43 42 38 36 31 26 21 17 13 10 6 4 2 1 0 0 0 0 0 0 0 0 0 0 0 0 0 0 0 0 0 0 0 0 0 0 0 0 0 0 0 0 0 0 0 0 0 0 0 0 0 0 0 0 0 0 0 0 0 0 0 0 0 0 0 8 24 39 47 52 54 56 55 56 54 52 51 51 50 49 47 47 47 46 45 45 45 44 44 43 43 41 40 39 37 36 32 29 24 18 15 13 8 3 2 0 0 0 0 0 0 0 0 0 0 0 0 0 0 0 0 0 0 0 0 0 0 0 0 0 0 0 0 0 0 0 0 0 0 0 0 0 0 0 0 0 0 0 0 0 0 0 0 0 0 0 4 17 31 43 49 51 53 54 53 53 52 50 49 48 45 45 45 44 44 43 43 42 42 41 40 40 40 38 37 37 35 33 32 30 26 21 17 14 12 6 2 0 0 0 0 0 0 0 0 0 0 0 0 0 0 0 0 0 0 0 0 0 0 0 0 0 0 0 0 0 0 0 0 0 0 0 0 0 0 0 0 0 0 0 0 0 0 0 0 0 0 0 8 21 35 44 49 51 52 52 51 51 49 47 45 45 43 43 42 41 41 40 40 39 39 39 38 39 38 37 36 33 33 32 30 28 27 23 19 15 12 11 6 3 0 0 0 0 0 0 0 0 0 0 0 0 0 0 0 0 0 0 0 0 0 0 0 0 0 0 0 0 0 0 0 0 0 0 0 0 0 0 0 0 0 0 0 0 0 0 0 0 0 1 14 27 40 46 49 51 52 51 50 49 47 45 44 43 42 42 41 40 40 39 39 38 37 37 37 36 37 36 35 33 32 31 29 27 26 24 22 17 14 11 8 5 2 0 0 0 0 0 0 0 0 0 0 0 0 0 0 0 0 0 0 0 0 0 0 0 0 0 0 0 0 0 0 0 0 0 0 0 0 0 4 0 0 0 0 0 0 0 0 0 0 10 24 35 44 48 50 51 51 50 48 46 45 44 44 43 42 41 40 39 39 38 38 38 37 36 36 36 35 35 34 33 32 30 29 28 25 24 23 20 17 14 10 7 5 1 0 0 0 0 0 0 0 0 0 0 0 0 0 0 0 0 0 0 0 0 0 0 0 0 0 0 0 0 0 0 0 0 0 0 0 4 1 0 0 0 0 0 0 0 0 0 3 22 36 43 47 50 51 51 49 48 45 44 45 44 43 42 42 40 40 38 39 38 38 37 37 36 35 35 34 34 34 33 32 31 29 28 26 25 23 22 20 18 14 12 9 5 2 0 0 0 0 0 0 0 0 0 0 0 0 0 0 0 0 0 0 0 0 0 0 0 0 0 0 0 0 0 0 0 0 0 0 3 4 0 0 0 0 0 0 0 0 0 17 33 44 48 50 51 52 48 45 42 41 41 41 40 41 40 39 39 39 38 38 38 37 37 36 35 34 34 34 33 33 33 31 30 29 29 27 27 24 24 22 20 19 16 13 10 7 2 0 0 0 0 0 0 0 0 0 0 0 0 0 0 0 0 0 0 0 0 0 0 0 0 0 0 0 0 0 0 0 0 0 5 3 0 0 0 0 0 0 0 0 4 29 44 50 51 50 47 44 41 36 34 33 33 31 28 27 28 28 31 32 32 34 34 34 34 34 34 33 33 33 31 31 32 30 30 30 29 29 27 26 26 24 23 22 21 19 15 12 10 5 1 0 0 0 0 0 0 0 0 0 0 0 0 0 0 0 0 0 0 0 0 0 0 0 0 0 0 0 0 0 0 0 3 2 0 0 0 0 0 0 0 0 15 39 49 52 49 46 44 39 34 28 24 19 14 12 11 9 9 9 10 11 12 14 18 21 23 25 28 28 28 29 28 29 29 29 29 28 28 28 28 27 26 26 25 25 24 23 21 19 16 13 7 3 0 0 0 0 0 0 0 0 0 0 0 0 0 0 0 0 0 0 0 0 0 0 0 0 0 0 0 0 0 0 4 0 0 0 0 0 0 0 0 0 28 47 52 48 45 41 40 38 33 28 20 12 7 1 0 0 0 0 0 0 0 0 0 2 5 9 10 14 16 18 21 21 22 24 26 25 25 26 26 26 26 26 26 26 26 26 24 23 22 17 13 7 1 0 0 0 0 0 0 0 0 0 0 0 0 0 0 0 0 0 0 0 0 0 0 0 0 0 0 0 0 0 2 0 0 0 0 0 0 0 0 8 38 51 54 46 42 40 38 36 33 27 20 10 1 0 0 0 0 0 0 0 0 0 0 0 0 0 0 0 2 4 11 13 15 17 20 20 21 23 23 24 25 26 25 24 24 24 23 21 20 16 13 8 0 0 0 0 0 0 0 0 0 0 0 0 0 0 0 0 0 0 0 0 0 0 0 0 0 0 0 0 0 0 0 0 0 0 0 0 0 0 0 19 46 55 52 47 44 43 42 37 33 29 25 22 16 8 0 0 0 0 0 0 0 0 0 0 0 0 0 0 0 0 0 6 7 10 12 14 17 18 21 21 21 22 22 21 18 17 16 12 12 10 8 4 0 0 0 0 0 0 0 0 0 0 0 0 0 0 0 0 0 0 0 0 0 0 0 0 0 0 0 0 0 0 0 0 0 0 0 0 0 0 0 31 53 58 51 47 44 43 38 33 32 30 28 25 22 17 12 4 0 0 0 0 0 0 0 0 0 0 0 0 0 0 0 0 2 6 7 9 10 13 15 16 15 15 13 12 9 5 5 3 0 0 0 0 0 0 0 0 0 0 0 0 0 0 0 0 0 0 0 0 0 0 0 0 0 0 0 0 0 0 0 0 0 0 0 0 0 0 0 0 0 0 7 39 58 58 52 46 46 43 37 37 35 33 31 28 26 23 19 13 9 0 0 0 0 0 0 0 0 0 0 0 0 0 0 0 0 2 3 6 8 8 10 10 7 3 3 3 0 0 0 0 0 0 0 0 0 0 0 0 0 0 0 0 0 0 0 0 0 0 0 0 0 0 0 0 0 0 0 0 0 0 0 0 0 0 0 0 0 0 0 0 0 0 15 51 61 58 51 48 47 41 37 36 34 31 26 22 20 18 16 15 13 7 4 1 0 0 0 0 0 0 0 0 0 0 0 0 0 2 3 4 6 7 7 5 0 0 0 0 0 0 0 0 0 0 0 0 0 0 0 0 0 0 0 0 0 0 0 0 0 0 0 0 0 0 0 0 0 0 0 0 0 0 0 0 0 0 0 0 0 0 0 0 0 0 28 56 62 60 55 51 46 41 36 31 26 20 18 13 11 11 11 9 9 7 5 5 4 0 0 0 0 0 0 0 0 0 0 0 0 3 6 6 9 9 7 6 0 0 0 0 0 0 0 0 0 0 0 0 0 0 0 0 0 0 0 0 0 0 0 0 0 0 0 0 0 0 0 0 0 0 0 0 0 0 0 0 0 0 0 0 0 0 0 0 0 0 39 60 65 63 57 51 45 41 35 25 21 18 20 19 19 19 18 13 10 5 2 0 2 0 0 0 0 0 0 0 0 0 0 2 4 7 10 10 13 13 11 8 6 3 4 0 0 0 0 0 0 0 0 0 0 0 0 0 0 0 0 0 0 0 0 0 0 0 0 0 0 0 0 0 0 0 0 0 0 0 0 0 0 0 0 0 0 0 0 0 0 9 49 65 69 66 60 52 47 40 30 21 16 17 17 16 17 18 19 17 16 13 9 7 8 4 4 1 0 0 0 1 1 2 1 4 7 10 14 16 14 15 12 8 7 4 2 0 0 0 0 0 0 0 0 0 0 0 0 0 0 0 0 0 0 0 0 0 0 0 0 0 0 0 0 0 0 0 0 0 0 0 0 0 0 0 0 0 0 0 0 0 0 19 58 69 73 68 62 54 45 36 25 18 11 8 4 1 6 11 9 10 8 9 9 8 12 10 7 4 1 0 0 2 1 3 6 4 8 15 20 21 18 16 13 10 7 4 1 0 0 0 0 0 0 0 0 0 0 0 0 0 0 0 0 0 0 0 0 0 0 0 0 0 0 0 0 0 0 0 0 0 0 0 0 0 0 0 0 0 0 0 0 0 0 33 64 74 76 72 66 56 44 35 25 18 5 5 0 4 16 19 10 5 0 0 0 0 3 0 0 0 0 0 0 0 0 0 3 2 7 15 24 25 22 18 14 13 9 7 3 0 0 0 0 0 0 0 0 0 0 0 0 2 3 3 0 0 0 0 0 0 0 0 0 0 0 0 0 0 0 0 0 0 0 0 0 0 0 0 0 0 0 0 0 0 0 44 70 78 78 74 69 58 47 35 23 13 2 6 6 9 18 15 2 0 0 0 0 0 0 0 0 0 0 0 0 0 0 0 0 1 7 13 25 27 24 19 15 13 10 6 3 0 0 0 0 2 3 0 0 0 0 0 0 0 1 0 0 0 0 0 0 0 0 0 0 0 0 0 0 0 0 0 0 0 0 0 0 0 0 0 0 0 0 0 0 0 8 56 75 80 79 76 70 61 50 39 26 16 8 4 3 3 10 8 0 0 0 0 0 0 0 0 0 2 0 0 0 0 0 0 1 2 5 16 27 29 26 22 19 16 9 9 4 1 0 1 3 5 4 0 0 0 0 0 0 0 0 0 0 0 0 0 0 0 0 0 0 0 0 0 0 0 0 0 0 0 0 0 0 0 0 0 0 0 0 0 0 0 18 63 79 82 81 80 74 66 56 45 31 19 11 0 0 3 18 22 2 0 0 0 0 0 0 0 0 3 1 0 0 0 0 4 5 10 7 18 28 31 26 26 22 19 13 9 3 0 0 0 0 1 5 0 0 0 0 0 0 0 1 3 0 0 0 0 0 0 0 0 0 0 0 0 0 0 0 0 0 0 0 0 0 0 0 0 0 0 0 0 0 0 29 69 81 84 83 82 78 70 63 52 39 21 19 11 8 16 23 26 13 0 0 0 0 0 0 9 11 11 10 1 1 0 2 9 16 17 17 20 33 33 31 29 29 25 17 9 1 0 0 0 8 15 15 3 0 0 0 0 0 0 0 0 0 0 0 0 0 0 0 0 0 0 0 0 0 0 0 0 0 0 0 0 0 0 0 0 0 0 0 0 0 0 37 73 83 86 85 82 78 72 67 58 48 38 30 23 19 15 15 16 9 0 0 0 0 0 3 10 13 9 12 5 4 10 14 21 24 26 26 29 36 35 34 35 34 27 21 11 4 0 0 7 12 19 14 6 0 0 0 0 0 0 0 0 0 0 0 0 0 0 0 0 0 0 0 0 0 0 0 0 0 0 0 0 0 0 0 0 0 0 0 0 0 0 44 76 84 86 86 84 79 74 69 63 57 52 44 35 29 21 14 11 7 2 0 0 0 0 0 0 4 6 9 9 10 16 21 31 33 35 34 35 38 37 36 37 37 33 24 16 9 5 10 15 16 20 14 7 2 0 0 0 0 0 0 0 0 0 0 0 0 0 0 0 0 0 0 0 0 0 0 0 0 0 0 0 0 0 0 0 0 0 0 0 0 4 47 75 85 87 85 83 78 73 69 64 60 58 51 45 42 34 25 17 9 7 5 5 0 0 0 1 4 9 13 19 22 28 29 36 37 38 38 38 39 38 37 39 39 39 32 23 20 14 17 22 26 23 17 10 8 4 0 0 0 0 0 0 0 0 0 0 0 0 0 0 0 0 2 0 1 0 0 0 0 0 0 0 0 0 0 0 0 0 0 0 0 4 48 73 83 85 85 82 76 72 68 64 61 59 54 49 47 40 34 30 23 16 14 13 12 13 11 14 15 18 22 26 28 32 36 40 41 42 41 40 40 40 41 41 40 40 34 25 26 25 25 27 30 30 22 12 8 1 0 0 0 0 0 0 0 0 0 0 0 0 0 0 0 0 4 2 5 0 0 0 0 0 0 0 0 0 0 0 0 0 0 0 0 2 47 71 80 82 83 80 75 72 67 64 63 61 58 56 54 49 45 41 36 32 30 26 24 25 22 26 27 27 29 30 32 38 43 46 45 43 42 42 43 43 44 42 43 41 34 28 27 28 28 31 30 27 24 16 9 0 0 0 0 0 0 0 0 0 0 0 0 0 0 0 0 1 7 7 6 0 0 0 0 0 0 0 0 0 0 0 0 0 0 0 0 0 44 69 77 80 80 79 75 70 66 64 62 63 60 59 60 57 55 51 47 43 39 36 34 33 36 38 37 37 38 39 43 48 51 50 48 45 42 43 45 43 43 43 44 43 35 29 28 30 34 35 33 28 24 19 9 4 5 2 0 0 0 0 0 0 0 0 0 0 0 0 0 4 13 11 7 2 0 0 0 0 0 0 0 0 0 0 0 0 0 0 0 0 41 66 75 77 78 76 72 68 64 62 61 62 61 60 61 60 58 57 55 52 51 48 48 48 48 48 47 47 46 46 50 54 52 52 46 45 44 43 44 42 42 42 43 40 33 30 30 32 37 39 39 38 32 21 13 7 6 6 6 4 0 0 0 0 0 0 0 0 0 0 1 9 16 15 9 3 0 0 0 0 0 0 0 0 0 0 0 0 0 0 0 0 37 61 71 75 75 73 69 65 61 59 59 59 58 58 59 60 60 60 59 57 56 54 55 54 53 51 51 50 51 52 53 54 53 50 48 45 44 43 42 41 40 39 40 36 34 30 31 31 36 40 45 43 42 31 19 13 11 10 8 5 2 0 0 0 0 0 0 0 0 2 8 15 19 16 13 3 0 0 0 0 0 0 0 0 0 0 0 0 0 0 0 0 32 56 67 71 73 70 66 61 59 56 56 56 56 55 57 57 58 59 58 57 57 57 55 55 54 53 52 53 54 54 53 54 53 50 48 45 43 41 40 39 38 37 38 36 32 29 30 31 35 40 45 47 47 40 33 23 18 14 14 12 9 8 7 7 7 7 6 7 6 9 12 17 20 19 15 1 0 0 0 0 0 0 0 0 0 0 0 0 0 0 0 0 24 51 62 67 71 67 63 58 55 54 52 52 53 52 52 55 54 55 54 54 56 55 54 54 54 53 53 54 54 52 52 50 50 48 47 44 42 40 38 38 36 36 37 36 30 27 28 28 32 38 44 47 49 46 41 34 30 25 24 22 20 17 17 16 18 16 17 15 15 15 17 20 22 21 16 3 0 0 0 0 0 0 0 0 0 0 0 0 0 0 0 0 14 48 57 64 68 65 60 56 54 52 51 49 50 49 50 50 51 51 51 51 51 51 51 51 50 50 50 51 52 52 50 49 48 47 44 43 42 39 39 36 38 35 37 34 29 25 26 25 30 35 42 46 47 48 45 40 37 35 35 34 33 34 29 30 29 28 27 24 22 23 22 22 23 21 17 3 0 0 0 0 0 0 0 0 0 0 0 0 0 0 0 0 7 40 52 61 66 63 58 54 52 50 49 48 46 47 46 46 48 48 48 48 49 48 48 48 46 47 46 48 49 48 47 45 44 42 42 41 41 40 38 37 36 35 35 33 28 23 22 23 27 34 39 44 45 46 46 43 40 39 40 40 39 39 38 37 36 35 33 31 29 26 26 25 23 21 17 2 0 0 0 0 0 0 0 0 0 0 0 0 0 0 0 0 1 35 49 58 64 62 57 52 50 48 47 47 44 44 44 44 45 46 46 44 44 44 44 42 42 42 44 46 46 44 43 41 41 41 41 40 41 38 37 36 36 34 33 32 28 23 20 19 23 29 36 39 42 44 45 44 42 40 42 42 41 41 41 41 39 38 36 34 30 29 27 26 23 20 16 0 0 0 0 0 0 0 0 0 0 0 0 0 0 0 0 0 0 30 45 53 61 61 57 51 48 47 45 45 43 42 42 42 42 43 43 42 40 38 39 36 37 40 40 42 43 40 40 40 40 40 42 43 41 38 35 35 34 34 33 32 30 25 20 17 21 26 33 36 39 42 44 44 42 40 40 42 42 41 42 42 41 39 36 33 30 29 27 26 23 18 13 0 0 0 0 0 0 0 0 0 0 0 0 0 0 0 0 0 0 27 40 50 57 58 55 51 48 46 44 43 42 41 41 40 39 38 39 39 37 34 34 33 36 38 36 39 39 37 38 40 40 42 43 43 40 38 36 34 35 35 34 33 30 28 21 16 18 24 31 35 37 41 42 43 42 38 38 39 41 41 41 40 40 37 35 32 29 26 27 26 23 17 9 0 0 0 0 0 0 0 0 0 0 0 0 0 0 0 0 0 0 23 37 47 54 56 53 50 47 45 43 43 42 40 40 39 38 38 36 35 33 31 32 31 34 35 36 36 37 37 36 38 40 43 42 41 38 37 35 33 34 36 37 35 31 27 22 20 18 22 29 33 35 38 40 41 39 37 36 37 37 39 39 38 37 34 33 31 29 26 24 24 23 16 4 0 0 0 0 0 0 0 0 0 0 0 0 0 0 0 0 0 0 20 36 44 52 53 53 49 47 46 43 42 42 40 39 38 37 37 36 35 33 31 32 31 32 34 33 32 35 35 34 37 39 40 40 36 34 34 33 33 33 36 37 36 29 24 22 24 22 22 28 32 35 37 39 40 38 35 35 36 36 38 36 37 36 32 32 30 28 27 23 22 20 12 0 0 0 0 0 0 0 0 0 0 0 0 0 0 0 0 0 0 0 19 36 43 49 53 52 50 47 46 44 42 41 39 39 38 37 36 34 33 31 31 31 30 31 32 33 29 33 31 32 36 36 35 32 29 29 30 31 32 32 35 36 31 24 19 19 23 24 22 26 29 32 36 37 37 36 34 34 35 36 36 35 34 33 31 28 27 25 25 20 19 15 8 0 0 0 0 0 0 0 0 0 0 0 0 0 0 0 0 0 0 0 16 36 43 47 50 51 51 46 46 44 43 41 39 39 39 38 36 34 33 29 30 31 30 29 31 31 28 29 29 28 26 28 24 22 19 24 27 28 29 28 29 27 22 16 14 17 21 22 22 23 26 28 32 34 34 32 32 33 34 34 35 34 34 32 28 27 26 23 21 18 18 13 3 0 0 0 0 0 0 0 0 0 0 0 0 4 0 0 0 0 0 0 14 36 44 46 50 50 50 48 46 44 42 41 40 39 38 37 35 33 31 30 30 31 29 25 28 31 26 24 28 25 18 10 5 4 11 15 18 17 22 20 20 14 7 3 7 13 16 20 21 23 22 24 27 28 28 29 30 32 32 33 33 33 31 31 27 25 24 21 16 17 15 8 0 0 0 0 0 0 0 0 0 0 0 0 0 6 6 0 0 0 0 0 14 35 45 47 49 51 50 48 47 45 44 41 40 40 38 37 33 32 31 30 31 32 30 26 25 31 30 25 29 27 18 1 0 0 3 9 7 6 13 16 13 0 0 0 0 4 8 16 22 22 21 19 21 24 25 28 29 30 30 31 31 31 29 29 27 24 21 19 15 13 12 3 0 0 0 0 0 0 0 0 0 0 0 0 0 0 2 0 0 0 0 0 14 36 46 47 49 50 50 50 47 45 43 42 40 39 37 35 33 31 30 31 32 33 33 31 29 33 34 32 34 32 25 13 6 0 5 7 5 4 7 10 7 0 0 0 0 0 3 15 22 21 19 17 16 18 21 24 29 29 29 29 30 29 28 28 26 23 21 17 13 10 8 0 0 0 0 0 0 0 0 0 0 0 0 0 0 0 0 0 0 0 0 0 15 39 48 49 50 51 52 50 48 46 45 42 40 39 37 35 34 32 33 33 34 35 35 34 34 36 40 40 40 38 34 30 27 19 14 12 9 6 7 8 6 2 0 0 0 0 7 19 22 20 19 17 15 16 19 25 28 28 28 27 27 29 25 25 24 22 18 16 10 9 4 0 0 0 0 0 0 0 0 0 0 0 0 0 0 0 0 0 0 0 0 0 12 40 49 53 53 54 53 52 50 47 45 43 41 38 36 35 35 35 36 36 38 39 39 38 39 41 44 45 44 43 42 40 38 33 24 18 14 10 10 12 14 13 10 4 3 9 14 21 21 20 19 20 17 17 20 24 27 26 27 26 26 25 26 23 22 20 16 14 9 6 4 0 0 0 0 0 0 0 0 0 0 0 0 0 0 0 0 0 0 0 0 0 10 43 53 56 57 56 57 54 51 49 46 45 41 39 36 36 38 37 39 40 43 42 44 44 45 47 49 48 49 50 49 47 46 42 37 30 23 21 20 19 22 21 20 21 19 19 20 23 23 23 22 22 21 20 21 23 26 27 25 27 27 25 24 22 19 18 15 10 7 4 0 0 0 0 0 0 0 0 0 0 0 0 0 0 0 0 0 0 0 0 0 0 10 45 57 58 60 59 59 57 53 51 48 46 41 39 38 40 41 40 43 44 46 46 48 50 52 53 54 52 54 55 54 52 51 51 48 44 38 35 33 30 31 31 31 33 30 27 24 25 25 26 24 26 25 25 24 24 26 26 25 26 26 22 21 20 17 15 13 8 5 2 0 0 0 0 0 0 0 0 0 0 0 0 0 0 0 0 0 0 0 0 0 0 10 49 60 63 63 61 60 58 55 54 51 47 43 41 43 44 43 44 48 48 49 51 53 54 56 56 56 58 58 57 58 56 56 57 54 53 49 45 41 39 38 39 38 38 37 32 28 27 28 28 28 29 28 29 28 26 25 26 25 26 24 22 21 19 16 11 10 7 3 1 0 0 0 0 0 0 0 0 0 0 0 0 0 0 0 0 0 0 0 0 0 0 10 49 62 67 66 63 62 60 58 56 52 50 46 46 48 47 48 49 51 51 52 55 57 57 58 59 60 60 61 60 59 61 62 61 60 59 55 52 47 44 43 44 42 42 43 37 33 31 32 31 30 30 30 30 30 29 28 27 27 25 24 22 21 18 15 10 8 7 3 0 0 0 0 0 0 0 0 0 0 0 0 0 0 0 0 0 0 0 0 0 0 0 4 48 65 69 69 64 64 63 60 59 56 54 51 52 51 49 50 52 52 52 55 55 58 59 59 59 58 58 58 58 57 58 61 61 62 62 61 57 53 48 48 47 46 47 45 42 39 38 36 36 36 32 31 32 31 30 28 29 26 25 22 22 19 17 15 10 7 6 5 0 0 0 0 0 0 0 0 0 0 0 0 0 0 0 0 0 0 0 0 0 0 0 1 45 69 71 72 69 66 66 63 61 59 57 56 55 54 50 51 51 49 49 48 46 46 46 46 46 45 45 45 47 47 48 50 53 53 54 53 52 48 45 45 45 44 43 42 44 42 42 40 39 38 35 33 32 33 29 29 31 29 24 22 21 19 18 16 13 9 7 4 0 0 0 0 0 0 0 0 0 0 0 0 0 0 0 0 0 0 0 0 0 0 0 0 37 72 75 76 72 69 69 65 63 61 60 59 57 54 51 50 46 39 34 28 22 21 22 26 27 30 30 30 31 31 31 33 36 36 34 33 33 32 30 32 32 30 31 31 35 37 39 38 36 34 33 33 33 33 32 29 31 26 24 24 20 20 18 15 13 10 8 3 0 0 0 0 0 0 0 0 0 0 0 0 0 0 0 0 0 0 0 0 0 0 0 0 27 69 77 79 76 73 71 69 66 64 63 60 58 55 50 47 43 35 25 12 1 0 0 6 9 17 17 13 14 15 14 16 22 22 18 12 12 12 14 15 16 14 15 16 17 21 25 26 28 29 27 30 30 30 31 30 27 24 24 24 22 20 19 15 13 11 8 3 0 0 0 0 0 0 0 0 0 0 0 0 0 0 0 0 0 0 0 0 0 0 0 0 21 65 79 81 80 77 73 70 69 66 63 62 60 55 48 45 41 38 34 25 9 0 0 0 7 13 15 12 11 12 9 13 16 16 12 3 4 6 6 4 1 2 2 1 3 4 8 9 15 21 24 26 28 27 28 28 29 26 25 24 23 21 19 17 14 13 8 3 0 0 0 0 0 0 0 0 0 0 0 0 0 0 0 0 0 0 0 0 0 0 0 0 14 56 80 83 82 80 76 73 71 69 65 63 62 59 53 47 45 41 41 37 29 23 16 13 12 17 20 18 17 18 15 19 22 20 15 10 16 17 12 8 4 5 0 0 0 0 0 0 0 6 15 22 27 27 28 26 27 26 24 25 23 23 19 19 16 13 9 1 0 0 0 0 0 0 0 0 0 0 0 0 0 0 0 0 0 0 0 0 0 0 0 0 5 41 78 84 83 83 78 75 73 71 67 65 63 62 59 57 56 51 48 45 38 33 29 25 19 20 20 20 25 19 19 23 27 26 24 19 25 29 25 23 23 19 11 2 0 0 0 0 0 0 4 19 24 29 29 27 27 25 25 25 25 22 20 18 17 13 7 1 0 0 0 0 0 0 0 0 0 0 0 0 0 0 0 0 0 0 0 0 0 0 0 0 0 26 67 82 81 83 81 78 74 72 69 68 66 64 63 63 63 61 58 55 49 43 37 32 31 28 24 24 29 22 23 32 34 36 34 28 31 32 29 28 30 28 17 11 2 0 0 0 0 0 3 18 23 26 27 25 26 26 27 28 25 23 18 18 15 13 5 0 0 0 0 0 0 0 0 0 0 0 0 0 0 0 0 0 0 0 0 0 0 0 0 0 0 12 50 77 82 82 82 78 76 73 71 69 67 67 66 67 65 64 64 61 58 53 47 42 39 36 36 34 34 30 32 37 38 41 38 31 33 29 24 20 19 24 11 2 1 0 0 0 1 10 17 22 24 23 27 28 28 28 29 28 25 22 18 16 16 10 4 0 0 0 0 0 0 0 0 0 0 0 0 0 0 0 0 0 0 0 0 0 0 0 0 0 0 0 33 66 79 81 82 78 76 74 71 68 68 69 69 68 67 65 64 62 61 58 54 51 48 43 42 42 39 35 35 34 34 32 31 26 24 19 13 12 7 12 8 3 1 0 2 7 12 18 22 24 26 27 32 31 32 30 29 28 23 21 19 16 13 8 3 0 0 0 0 0 0 0 0 0 0 0 0 0 0 0 0 0 0 0 0 0 0 0 0 0 0 0 17 48 75 80 83 80 76 74 72 69 68 68 69 67 65 64 63 60 59 57 55 52 52 48 44 45 45 41 38 36 34 30 29 29 26 24 20 19 16 15 14 13 10 11 15 18 24 28 30 29 28 29 31 34 32 31 29 25 22 21 19 15 10 7 0 0 0 0 0 0 0 0 0 0 0 0 0 0 0 0 0 0 0 0 0 0 0 0 0 0 0 0 4 31 63 77 83 81 78 74 72 71 68 68 68 64 63 63 62 59 57 55 54 49 48 45 39 38 39 37 38 38 38 35 29 29 31 30 29 25 24 21 22 19 18 19 22 28 31 33 33 30 27 29 30 31 30 30 25 21 21 19 17 12 8 4 0 0 0 0 0 0 0 0 0 0 0 0 0 0 0 0 0 0 0 0 0 0 0 0 0 0 0 0 0 18 46 71 80 81 78 76 73 70 70 69 68 65 63 62 60 57 56 55 51 50 45 42 37 33 31 29 31 33 33 31 27 26 30 29 28 28 25 23 21 20 20 22 25 29 31 31 29 26 26 28 28 27 28 25 22 20 18 17 14 9 8 0 0 0 0 0 0 0 0 0 0 0 0 0 0 0 0 0 0 0 0 0 0 0 0 0 0 0 0 0 0 7 36 57 75 80 79 77 73 72 70 70 68 66 64 63 61 56 54 53 49 47 44 40 34 31 26 22 25 24 28 25 22 24 24 25 23 25 23 21 20 20 19 21 24 27 28 27 23 22 25 25 26 25 25 22 19 18 16 13 11 7 4 0 0 0 0 0 0 0 0 0 0 0 0 0 0 0 0 0 0 0 0 0 0 0 0 0 0 0 0 0 0 0 29 44 64 74 78 77 74 74 70 70 68 68 67 65 61 59 56 52 50 47 44 40 35 32 28 25 23 22 21 22 20 21 20 20 20 20 20 20 19 20 19 20 25 26 26 24 19 20 24 24 24 23 21 18 17 16 16 11 10 3 0 0 0 0 0 0 0 0 0 0 0 0 0 0 0 0 0 0 0 0 0 0 0 0 0 0 0 0 0 0 0 0 18 37 51 65 75 75 74 75 72 71 70 71 69 68 65 62 61 57 53 51 47 43 40 37 33 30 26 25 21 20 19 18 18 20 20 20 19 19 19 20 20 21 23 25 24 23 19 21 22 22 22 21 19 17 16 14 13 9 7 0 0 0 0 0 0 0 0 0 0 0 0 0 0 0 0 0 0 0 0 0 0 0 0 0 0 0 0 0 0 0 0 0 6 29 42 53 65 72 72 75 73 70 72 72 71 71 70 66 64 63 58 56 52 48 45 43 40 37 32 29 25 24 23 22 22 23 23 24 22 20 19 22 22 23 25 26 25 23 23 22 21 20 21 18 17 15 16 13 11 5 0 0 0 0 0 0 0 0 0 0 0 0 0 0 0 0 0 0 0 0 0 0 0 0 0 0 0 0 0 0 0 0 0 0 0 18 35 43 52 65 68 71 72 72 73 75 74 73 72 70 68 66 63 60 57 52 52 50 46 44 40 36 34 32 30 30 29 29 27 26 26 23 25 24 25 27 27 26 26 24 24 21 20 19 20 17 16 15 14 10 7 0 0 0 0 0 0 0 0 0 0 0 0 0 0 0 0 0 0 0 0 0 0 0 0 0 0 0 0 0 0 0 0 0 0 0 0 6 25 37 43 53 62 67 70 70 72 75 75 75 74 73 71 70 67 65 62 58 56 55 52 51 49 46 43 41 38 36 35 35 33 32 31 29 29 28 28 28 29 27 26 25 23 21 19 20 19 16 16 14 10 7 1 0 0 0 0 0 0 0 0 0 0 0 0 0 0 0 0 0 0 0 0 0 0 0 0 0 0 0 0 0 0 0 0 0 0 0 0 0 12 30 36 42 50 59 64 67 68 74 76 76 76 74 74 72 70 68 66 63 61 58 56 55 53 51 50 48 46 45 42 43 41 40 38 34 33 31 30 31 31 29 28 25 23 20 19 18 18 16 13 11 6 1 0 0 0 0 0 0 0 0 0 0 0 0 0 0 0 0 0 0 0 0 0 0 0 0 0 0 0 0 0 0 0 0 0 0 0 0 0 0 4 17 29 34 39 48 55 61 65 69 74 76 77 75 74 74 72 71 68 67 65 63 60 58 56 55 53 53 51 50 49 48 46 45 43 39 39 35 36 33 34 31 27 25 22 21 18 17 16 13 10 6 0 0 1 0 0 0 0 0 0 0 0 0 0 0 0 0 0 0 0 0 0 0 0 0 0 0 0 0 0 0 0 0 0 0 0 0 0 0 0 0 0 9 19 28 31 37 43 49 59 64 68 75 75 76 75 74 73 71 69 67 66 65 63 60 60 58 57 56 56 56 53 52 50 48 46 44 42 40 38 37 35 32 27 25 22 19 16 15 12 9 4 0 0 1 1 0 0 0 0 0 0 0 0 0 0 0 0 0 0 0 0 0 0 0 0 0 0 0 0 0 0 0 0 0 0 0 0 0 0 0 0 0 0 4 14 20 26 28 31 40 48 56 62 70 74 75 75 73 72 70 69 67 66 65 63 61 60 59 59 60 59 59 55 55 53 50 47 46 45 42 40 39 35 31 27 22 19 15 13 10 7 3 0 0 1 2 0 0 0 0 0 0 0 0 0 0 0 0 0 0 0 0 0 0 0 0 0 0 0 0 0 0 0 0 0 0 0 0 0 0 0 0 0 0 0 1 15 19 19 22 25 30 37 45 53 63 68 72 71 70 69 67 66 66 65 63 61 60 59 59 60 58 58 58 56 55 53 49 47 45 45 43 39 37 33 28 24 18 14 11 8 5 1 0 0 1 1 0 0 0 0 0 0 0 0 0 0 0 0 0 0 0 0 0 0 0 0 0 0 0 0 0 0 0 0 0 0 0 0 0 0 0 0 0 0 0 0 0 16 18 18 18 19 22 27 34 42 51 59 65 66 66 65 64 64 62 63 61 59 58 56 56 56 55 55 55 53 52 50 48 45 43 43 40 38 35 30 24 18 13 8 5 1 0 0 1 1 1 0 0 0 0 0 0 0 0 0 0 0 0 0 0 0 0 0 0 0 0 0 0 0 0 0 0 0 0 0 0 0 0 0 0 0 0 0 0 0 0 0 0 13 18 18 19 18 17 20 25 31 38 49 56 59 59 59 59 59 57 58 57 55 55 53 51 51 50 51 50 48 47 45 44 42 40 38 36 34 29 23 17 10 6 1 0 0 0 1 2 1 2 1 0 0 0 0 0 0 0 0 0 0 0 0 0 0 0 0 0 0 0 0 0 0 0 0 0 0 0 0 0 0 0 0 0 0 0 0 0 0 0 0 0 10 15 19 19 19 18 16 20 24 29 35 45 50 54 51 51 52 50 50 50 48 48 47 46 45 45 44 41 43 42 40 39 37 36 35 31 27 21 15 8 4 0 0 0 0 2 4 3 3 3 1 0 0 0 0 0 0 0 0 0 0 0 0 0 0 0 0 0 0 0 0 0 0 0 0 0 0 0 0 0 0 0 0 0 0 0 0 0 0 0 0 0 5 13 18 19 19 20 17 16 20 23 26 32 38 43 44 43 43 42 41 42 41 40 39 37 40 38 37 36 36 36 34 34 31 31 28 23 19 12 8 4 0 0 0 2 4 6 5 6 6 3 0 0 0 0 0 0 0 0 0 0 0 0 0 0 0 0 0 0 0 0 0 0 0 0 0 0 0 0 0 0 0 0 0 0 0 0 0 0 0 0 0 0 0 9 17 16 18 19 18 16 19 20 24 27 29 33 35 35 35 35 34 32 34 31 31 30 30 31 29 31 28 29 28 27 25 23 19 15 11 8 3 2 1 4 6 8 9 9 9 8 7 5 2 0 0 0 0 0 0 0 0 0 0 0 0 0 0 0 0 0 0 0 0 0 0 0 0 0 0 0 0 0 0 0 0 0 0 0 0 0 0 0 0 0 0 4 13 15 16 18 17 18 18 19 24 27 27 29 30 32 31 31 28 27 27 25 25 24 24 23 23 22 21 20 21 18 17 15 12 9 8 5 6 7 9 12 13 12 13 13 11 8 9 6 1 0 0 0 0 0 0 0 0 0 0 0 0 0 0 0 0 0 0 0 0 0 0 0 0 0 0 0 0 0 0 0 0 0 0 0 0 0 0 0 0 0 0 0 9 12 14 16 16 18 17 20 22 26 27 29 29 30 31 30 29 27 26 23 24 23 21 19 19 17 15 17 14 15 11 10 8 9 10 11 14 17 18 18 16 18 17 14 12 12 9 6 1 0 0 0 0 0 0 0 0 0 0 0 0 0 0 0 0 0 0 0 0 0 0 0 0 0 0 0 0 0 0 0 0 0 0 0 0 0 0 0 0 0 0 0 4 9 11 13 15 16 17 19 22 25 28 30 31 32 32 32 31 29 27 25 24 21 22 19 17 15 16 15 13 14 13 11 15 16 20 23 25 25 24 22 21 19 16 16 14 13 9 4 2 0 0 0 0 0 0 0 0 0 0 0 0 0 0 0 0 0 0 0 0 0 0 0 0 0 0 0 0 0 0 0 0 0 0 0 0 0 0 0 0 0 0 0 0 6 7 9 11 15 17 19 20 24 27 29 33 34 34 36 35 32 32 30 28 25 23 22 20 19 20 18 19 19 20 22 26 27 30 32 30 28 26 24 20 19 19 17 14 11 8 2 0 0 0 0 0 0 0 0 0 0 0 0 0 0 0 0 0 0 0 0 0 0 0 0 0 0 0 0 0 0 0 0 0 0 0 0 0 0 0 0 0 0 0 0 0 2 5 7 8 11 15 18 18 21 25 27 31 31 34 35 36 35 35 34 31 29 27 25 24 25 23 24 26 27 29 32 33 34 34 33 31 29 25 22 21 21 17 14 13 10 6 2 0 0 0 0 0 0 0 0 0 0 0 0 0 0 0 0 0 0 0 0 0 0 0 0 0 0 