P2
92
112
255
49 47 48 49 48 49 47 46 49 47 43 41 41 43 42 39 37 25 16 7 7 5 0 0 0 0 0 0 0 0 0 0 0 0 0 0 0 0 0 0 0 0 0 0 0 0 0 0 0 0 0 0 0 0 0 0 0 0 0 0 0 0 0 7 3 13 31 35 35 37 36 36 35 43 45 47 46 47 46 45 46 46 46 45 43 45 45 45 45 44 45 45 49 48 46 49 46 48 48 46 47 47 42 39 40 41 39 36 28 15 4 4 1 0 0 0 0 0 0 0 0 0 0 0 0 0 0 0 0 0 0 0 0 0 0 0 0 0 0 0 0 0 0 0 0 0 0 0 0 0 0 0 0 0 0 0 0 0 0 13 24 34 37 36 36 37 40 48 47 46 45 46 46 45 45 44 44 45 44 45 44 45 44 43 47 47 46 45 49 46 45 46 44 43 40 34 37 39 35 28 19 6 0 0 0 0 0 0 0 0 0 0 0 0 0 0 0 0 0 0 0 0 0 0 0 0 0 0 0 0 0 0 0 0 0 0 0 0 0 0 0 0 0 0 0 0 0 0 0 0 0 0 0 10 25 34 34 36 35 43 44 46 45 45 46 44 46 44 44 45 43 44 44 44 44 44 46 45 46 41 44 46 46 42 40 33 32 33 32 31 24 15 8 0 0 0 0 0 0 0 0 0 0 0 0 0 0 0 0 0 0 0 0 0 0 0 0 0 0 0 0 0 0 0 0 0 0 0 0 0 0 0 0 0 0 0 0 0 0 0 0 0 0 0 0 0 0 11 23 29 36 39 37 41 45 45 46 46 46 44 43 43 44 45 44 44 44 44 47 46 44 42 40 41 41 38 34 34 29 27 23 16 10 0 0 0 0 0 0 0 0 0 0 0 0 0 0 0 0 0 0 0 0 0 0 0 0 0 0 0 0 0 0 0 0 0 0 0 0 0 0 0 0 0 0 0 0 0 0 0 0 0 0 0 0 0 0 0 0 0 4 10 24 35 38 35 38 46 44 45 45 44 43 43 44 46 42 45 43 42 47 45 45 45 43 41 37 34 28 25 21 10 9 0 0 0 0 0 0 0 0 0 0 0 0 0 0 0 0 0 0 0 0 0 0 0 0 0 0 0 0 0 0 0 0 0 0 0 0 0 0 0 0 0 0 0 0 0 0 0 0 0 0 0 0 0 0 0 0 0 0 0 0 0 4 18 33 36 35 36 45 44 45 44 43 44 46 44 43 45 44 44 46 44 43 43 43 39 34 28 22 19 13 0 0 0 0 0 0 0 0 0 0 0 0 0 0 0 0 0 0 0 0 0 0 0 0 0 0 0 0 0 0 0 0 0 0 0 0 0 0 0 0 0 0 0 0 0 0 0 0 0 0 0 0 0 0 0 0 0 0 0 0 0 0 0 0 2 17 29 35 36 36 46 45 44 44 43 46 45 44 43 43 42 44 44 44 43 38 34 26 26 23 12 2 0 0 0 0 0 0 0 0 0 0 0 0 0 0 0 0 0 0 0 0 0 0 0 0 0 0 0 0 0 0 0 0 0 0 0 0 0 0 0 0 0 0 0 0 0 0 0 0 0 0 0 0 0 0 0 0 0 0 0 0 0 0 0 0 0 3 17 23 32 36 39 44 45 43 41 44 44 45 44 42 43 43 40 41 37 30 26 27 24 15 0 0 0 0 0 0 0 0 0 0 0 0 0 0 0 0 0 0 0 0 0 0 0 0 0 0 0 0 0 0 0 0 0 0 0 0 0 0 0 0 0 0 0 0 0 0 0 0 0 0 0 0 0 0 0 0 0 0 0 0 0 0 0 0 0 0 0 0 8 16 18 29 34 38 44 42 43 42 43 45 44 42 43 41 39 36 29 26 25 26 16 1 0 0 0 0 0 0 0 0 0 0 0 0 0 0 0 0 0 0 0 0 0 0 0 0 0 0 0 0 0 0 0 0 0 0 0 0 0 0 0 0 0 0 0 0 0 0 0 0 0 0 0 0 0 0 0 0 0 0 0 0 0 0 0 0 0 0 0 0 3 8 9 17 27 34 37 40 43 43 41 43 43 42 42 37 33 27 24 25 24 14 0 0 0 0 0 0 0 0 0 0 0 0 0 0 0 0 0 0 0 0 0 0 0 0 0 0 0 0 0 0 0 0 0 0 0 0 0 0 0 0 0 0 0 0 0 0 0 0 0 0 0 0 0 0 0 0 0 0 0 0 0 0 0 0 0 0 0 0 0 0 0 3 6 3 19 25 31 34 37 43 43 44 43 43 42 32 28 25 25 24 13 0 0 0 0 0 0 0 0 0 0 0 0 0 0 0 0 0 0 0 0 0 0 0 0 0 0 0 0 0 0 0 0 0 0 0 0 0 0 0 0 0 0 0 0 0 0 0 0 0 0 0 0 0 0 0 0 0 0 0 0 0 0 0 0 0 0 0 0 0 0 0 0 0 1 4 6 12 23 31 34 36 42 42 43 42 42 28 25 24 23 13 0 0 0 0 0 0 0 0 0 0 0 0 0 0 0 0 0 0 0 0 0 0 0 0 0 0 0 0 0 0 0 0 0 0 0 0 0 0 0 0 0 0 0 0 0 0 0 0 0 0 0 0 0 0 0 0 0 0 0 0 0 0 0 0 0 0 0 0 0 0 0 0 0 0 0 0 5 6 12 26 34 34 34 41 43 42 41 23 26 22 18 4 0 0 0 0 0 0 0 0 0 0 0 0 0 0 0 0 0 0 0 0 0 0 0 0 0 0 0 0 0 0 0 0 0 0 0 0 0 0 0 0 0 0 0 0 0 0 0 0 0 0 0 0 0 0 0 0 0 0 0 0 0 0 0 0 0 0 0 0 0 0 0 0 0 0 0 0 0 5 4 15 35 36 35 35 42 43 42 25 24 17 6 0 0 0 0 0 0 0 0 0 0 0 0 0 0 0 0 0 0 0 0 0 0 0 0 0 0 0 0 0 0 0 0 0 0 0 0 0 0 0 0 0 0 0 0 0 0 0 0 0 0 0 0 0 0 0 0 0 0 0 0 0 0 0 0 0 0 0 0 0 0 0 0 0 0 0 0 0 0 0 0 9 27 37 35 34 34 43 43 25 25 15 3 0 0 0 0 0 0 0 0 0 0 0 0 0 0 0 0 0 0 0 0 0 0 0 0 0 0 0 0 0 0 0 0 0 0 0 0 0 0 0 0 0 0 0 0 0 0 0 0 0 0 0 0 0 0 0 0 0 0 0 0 0 0 0 0 0 0 0 0 0 0 0 0 0 0 0 0 0 0 0 0 0 18 36 35 33 34 37 42 25 26 11 0 0 0 0 0 0 0 0 0 0 0 0 0 0 0 0 0 0 0 0 0 0 0 0 0 0 0 0 0 0 0 0 0 0 0 0 0 0 0 0 0 0 0 0 0 0 0 0 0 0 0 0 0 0 0 0 0 0 0 0 0 0 0 0 0 0 0 0 0 0 0 0 0 0 0 0 0 0 0 0 0 0 2 25 36 34 35 34 40 25 21 6 0 0 0 0 0 0 0 0 0 0 0 0 0 0 0 0 0 0 0 0 0 0 0 0 0 0 0 0 0 0 0 0 0 0 0 0 0 0 0 0 0 0 0 0 0 0 0 0 0 0 0 0 0 0 0 0 0 0 0 0 0 0 0 0 0 0 0 0 0 0 0 0 0 0 0 0 0 0 0 0 0 0 0 12 31 36 36 35 35 19 14 0 0 0 0 0 0 0 0 0 0 0 0 0 0 0 0 0 0 0 0 0 0 0 0 0 0 0 0 0 0 0 0 0 0 0 0 0 0 0 0 0 0 0 0 0 0 0 0 0 0 0 0 0 0 0 0 0 0 0 0 0 0 0 0 0 0 0 0 0 0 0 0 0 0 0 0 0 0 0 0 0 0 2 0 4 24 34 36 36 33 13 1 0 0 0 0 0 0 0 0 0 0 0 0 0 0 0 0 0 0 0 0 0 0 0 0 0 0 0 0 0 0 0 0 0 0 0 0 0 0 0 0 0 0 0 0 0 0 0 0 0 0 0 0 0 0 0 0 0 0 0 0 0 0 0 0 0 0 0 0 0 0 0 0 0 0 0 0 0 0 0 0 0 0 0 0 1 12 29 34 36 34 5 0 0 0 0 0 0 0 0 0 0 0 0 0 0 0 0 0 0 0 0 0 0 0 0 0 0 0 0 0 0 0 0 0 0 0 0 0 0 0 0 0 0 0 0 0 0 0 0 0 0 0 0 0 0 0 0 0 0 0 0 0 0 0 0 0 0 0 0 0 0 0 0 0 0 0 0 0 0 0 0 0 0 0 0 0 0 3 21 33 34 35 0 0 0 0 0 0 0 0 0 0 0 0 0 0 0 0 0 0 0 0 0 0 0 0 0 0 0 0 0 0 0 0 0 0 0 0 0 0 0 0 0 0 0 0 0 0 0 0 0 0 0 0 0 0 0 0 0 0 0 0 0 0 0 0 0 0 0 0 0 0 0 0 0 0 0 0 0 0 0 0 0 0 0 0 0 0 0 0 13 30 33 31 0 0 0 0 0 0 0 0 0 0 0 0 0 0 0 0 0 0 0 0 0 0 0 0 0 0 0 0 0 0 0 0 0 0 0 0 0 0 0 0 0 0 0 0 0 0 0 0 0 0 0 0 0 0 0 0 0 0 0 0 0 0 0 0 0 0 0 0 0 0 0 0 0 0 0 0 0 0 0 0 0 0 0 0 0 0 0 0 0 18 30 29 0 0 0 0 0 0 0 0 0 0 0 0 0 0 0 0 0 0 0 0 0 0 0 0 0 0 0 0 0 0 0 0 0 0 0 0 0 0 0 0 0 0 0 0 0 0 0 0 0 0 0 0 0 0 0 0 0 0 0 0 0 0 0 0 0 0 0 0 0 0 0 0 0 0 0 0 0 0 0 0 0 0 0 0 0 0 0 0 0 6 25 29 0 0 0 0 0 0 0 0 0 0 0 0 0 0 0 0 0 0 0 0 0 0 0 0 0 0 0 0 0 0 0 0 0 0 0 0 0 0 0 0 0 0 0 0 0 0 0 0 0 0 0 0 0 0 0 0 0 0 0 0 0 0 0 0 0 0 0 0 0 0 0 0 0 0 0 0 0 0 0 0 0 0 0 0 0 0 0 0 0 0 21 29 0 0 0 0 0 0 0 0 0 0 0 0 0 0 0 0 0 0 0 0 0 0 0 0 0 0 0 0 0 0 0 0 0 0 0 0 0 0 0 0 0 0 0 0 0 0 0 0 0 0 0 0 0 0 0 0 0 0 0 0 0 0 0 0 0 0 0 0 0 0 0 0 0 0 0 0 0 0 0 0 0 0 0 0 0 0 0 0 0 4 15 25 0 0 0 0 0 0 0 0 0 0 0 0 0 0 0 0 0 0 0 0 0 0 0 0 0 0 0 0 0 0 0 0 0 0 0 0 0 0 0 0 0 0 0 0 0 0 0 0 0 0 0 0 0 0 0 0 0 0 0 0 0 0 0 0 0 0 0 0 0 0 0 0 0 0 0 0 0 0 0 0 0 0 0 0 0 0 0 0 0 1 12 20 0 0 0 0 0 0 0 0 0 0 0 0 0 0 0 0 0 0 0 0 0 0 0 0 0 0 0 0 0 0 0 0 0 0 0 0 0 0 0 0 0 0 0 0 0 0 0 0 0 0 0 0 0 0 0 0 0 0 0 0 0 0 0 0 0 0 0 0 0 0 0 0 0 0 0 0 0 0 0 0 0 0 0 0 0 0 0 0 0 0 9 19 0 0 0 0 0 0 0 0 0 0 0 0 0 0 0 0 0 0 0 0 0 0 0 0 0 0 0 0 0 0 0 0 0 0 0 0 0 0 0 0 0 0 0 0 0 0 0 0 0 0 0 0 0 0 0 0 0 0 0 0 0 0 0 0 0 0 0 0 0 0 0 0 0 0 0 0 0 0 0 0 0 0 0 0 0 0 0 0 0 0 7 16 0 0 0 0 0 0 0 0 0 0 0 0 0 0 0 0 0 0 0 0 0 0 0 0 0 0 0 0 0 0 0 0 0 0 0 0 0 0 0 0 0 0 0 0 0 0 0 0 0 0 0 0 0 0 0 0 0 0 0 0 0 0 0 0 0 0 0 0 0 0 0 0 0 0 0 0 0 0 0 0 0 0 0 0 0 0 0 0 0 0 7 12 0 0 0 0 0 0 0 0 0 0 0 0 0 0 0 0 0 0 0 0 0 0 0 0 0 0 0 0 0 0 0 0 0 0 0 0 0 0 0 0 0 0 0 0 0 0 0 0 0 0 0 0 0 0 0 0 0 0 0 0 0 0 0 0 0 0 0 0 0 0 0 0 0 0 0 0 0 0 0 0 0 0 0 0 0 0 0 0 0 0 6 10 0 0 0 0 0 0 0 0 0 0 0 0 0 0 0 0 0 0 0 0 0 0 0 0 0 0 0 0 0 0 0 0 0 0 0 0 0 0 3 0 3 5 1 0 0 0 0 0 0 0 0 0 0 0 0 0 1 2 0 0 2 0 0 3 0 0 0 0 0 0 0 0 0 0 0 0 0 0 0 0 0 0 0 0 0 0 0 0 0 0 5 9 0 0 0 0 0 0 0 0 0 0 0 0 0 0 0 0 0 0 0 0 0 0 0 0 0 0 0 0 0 0 0 0 0 0 0 2 1 1 9 8 6 6 4 4 3 4 4 2 5 7 7 6 4 5 4 3 4 8 8 6 5 3 6 7 5 2 7 0 0 0 0 0 0 0 0 0 0 0 0 0 0 0 0 0 0 0 0 0 0 0 4 12 0 0 0 0 0 0 0 0 0 0 0 0 0 0 0 0 0 0 0 0 0 0 0 0 0 0 0 0 0 0 0 0 0 3 3 7 8 5 12 12 9 11 9 7 4 5 8 4 6 8 10 11 10 8 9 7 9 12 11 10 9 6 10 10 11 4 10 7 0 0 0 0 0 0 0 0 0 0 0 0 0 0 0 0 0 0 0 0 0 0 1 10 0 0 0 0 0 0 0 0 0 0 0 0 0 0 0 0 0 0 0 0 0 0 0 0 0 0 0 0 1 3 5 5 11 10 8 11 13 12 16 18 14 15 14 11 10 10 12 10 9 14 14 15 15 13 14 11 13 15 16 14 13 10 14 12 11 11 13 11 5 0 0 0 0 0 0 0 0 0 0 0 0 0 0 0 0 0 0 0 0 0 3 5 0 0 0 0 0 0 0 0 0 0 0 0 0 0 0 0 0 0 0 0 0 0 0 0 0 0 3 4 9 11 13 13 18 20 18 18 18 19 21 22 20 20 18 18 16 14 16 13 10 16 18 19 20 18 17 18 17 19 22 22 19 17 16 16 15 15 15 14 8 2 1 0 0 0 0 0 0 0 0 0 0 0 0 0 0 0 0 0 0 0 2 4 0 0 0 0 0 0 0 0 0 0 0 0 0 0 0 0 0 0 0 0 0 0 0 0 0 7 10 12 16 17 18 18 23 26 26 22 25 22 23 25 22 21 21 19 18 16 17 18 15 18 21 24 26 23 22 22 23 23 26 26 21 20 19 19 18 17 15 16 10 8 3 2 0 0 0 0 0 0 0 0 0 0 0 0 0 0 0 0 0 0 0 4 0 0 0 0 0 0 0 0 0 0 0 0 0 0 0 0 0 0 0 0 0 0 0 3 8 11 12 15 17 20 22 23 25 28 28 27 27 25 24 26 24 22 23 24 20 20 19 22 21 21 25 27 29 26 26 26 28 25 29 28 25 22 22 20 21 18 17 16 14 10 6 4 1 0 0 0 0 0 0 0 0 0 0 0 0 0 0 0 0 0 0 1 0 0 0 0 0 0 0 0 0 0 0 0 0 0 0 0 0 0 0 0 0 0 0 4 13 12 13 18 21 24 26 25 28 29 28 30 29 29 28 28 26 25 25 26 24 22 22 23 23 24 27 27 30 31 29 30 31 30 31 31 29 26 23 23 20 19 15 16 13 9 8 6 4 1 0 0 0 0 0 0 0 0 0 0 0 0 0 0 0 0 0 0 0 0 0 0 0 0 0 0 0 0 0 0 0 0 0 0 0 0 0 0 0 0 3 6 16 15 18 20 23 25 26 27 30 30 29 30 30 29 29 29 28 25 27 27 25 24 24 24 24 27 29 28 30 33 31 33 32 32 33 33 31 29 25 22 20 18 14 12 13 9 7 5 5 1 0 0 0 0 0 0 0 0 0 0 0 0 0 0 0 0 0 0 0 0 0 0 0 0 0 0 0 0 0 0 0 0 0 0 0 0 0 0 0 0 5 9 17 17 21 22 25 27 28 31 30 32 32 32 32 32 31 29 29 28 27 28 26 25 25 24 27 28 28 29 30 33 34 34 35 34 33 35 35 31 27 26 22 18 16 14 12 12 7 5 3 5 1 0 0 0 0 0 0 0 0 0 0 0 0 0 0 0 0 0 0 0 0 0 0 0 0 0 0 0 0 0 0 0 0 0 0 0 0 0 0 1 4 11 16 20 24 28 27 29 32 34 34 34 34 35 34 33 33 32 29 29 28 28 27 26 26 27 28 30 30 32 33 35 35 36 37 37 35 36 38 33 32 28 25 20 16 16 14 12 8 4 4 2 3 0 0 0 0 0 0 0 0 0 0 0 0 0 0 0 0 0 0 0 0 0 0 0 0 0 0 0 0 0 0 0 0 0 0 0 0 0 0 5 7 15 21 23 27 31 31 32 37 37 39 36 38 37 36 36 35 35 33 30 29 30 28 27 28 30 31 32 32 34 36 38 37 39 39 38 39 38 38 37 35 30 25 23 20 17 14 11 11 4 3 2 2 0 0 0 0 0 0 0 0 0 0 0 0 0 0 0 0 0 0 0 0 0 0 0 0 0 0 0 0 0 0 0 0 0 0 0 0 0 3 11 17 22 25 30 32 35 36 37 41 40 42 40 41 40 38 39 38 37 34 33 30 30 29 30 29 30 31 31 33 34 36 38 39 40 41 41 41 42 38 37 37 33 26 25 25 20 15 12 10 8 2 2 0 0 0 0 0 0 0 0 0 0 0 0 0 0 0 0 0 0 0 0 0 0 0 0 0 0 0 0 0 0 0 0 0 0 0 0 0 3 9 13 22 30 29 34 36 36 39 41 44 44 45 45 45 43 41 41 39 39 36 34 34 32 32 32 31 31 31 32 35 35 37 39 41 41 44 45 42 45 43 40 39 38 32 28 25 23 16 15 12 10 3 1 0 0 0 0 0 0 0 0 0 0 0 0 0 0 0 0 0 0 0 0 0 0 0 0 0 0 0 0 0 0 0 0 0 0 0 0 0 3 13 17 23 31 34 37 39 40 42 43 46 46 47 47 47 45 43 42 41 39 38 34 34 34 33 33 33 33 32 35 36 38 41 42 44 43 48 48 46 47 46 44 41 39 36 31 29 25 18 17 12 9 6 2 0 0 0 0 0 0 0 0 0 0 0 0 0 0 0 0 0 0 0 0 0 0 0 0 0 0 0 0 0 0 0 0 0 0 0 0 0 6 14 23 25 33 37 40 43 45 46 49 48 49 50 50 48 47 46 46 43 41 40 37 36 34 34 33 35 35 36 38 38 40 43 46 47 47 51 51 49 50 49 47 44 40 39 36 31 27 22 16 16 12 9 4 0 0 0 0 0 0 0 0 0 0 0 0 0 0 0 0 0 0 0 0 0 0 0 0 0 0 0 0 0 0 0 0 0 0 0 0 2 11 16 25 30 35 40 44 46 48 51 53 53 53 53 53 53 51 50 49 48 45 44 43 40 39 38 38 38 41 40 41 42 46 47 49 50 51 54 53 53 53 53 50 48 46 42 42 36 28 24 20 18 14 11 8 0 0 0 0 0 0 0 0 0 0 0 0 0 0 0 0 0 0 0 0 0 0 0 0 0 0 0 0 0 0 0 0 0 0 0 0 3 15 20 29 34 36 42 48 50 50 53 56 56 56 57 56 55 56 52 51 50 49 48 46 44 43 42 42 41 42 44 45 47 48 49 52 55 55 56 56 55 55 54 53 51 51 49 45 42 33 26 23 19 15 12 9 2 0 0 0 0 0 0 0 0 0 0 0 0 0 0 0 0 0 0 0 0 0 0 0 0 0 0 0 0 0 0 0 0 0 0 0 6 16 24 31 36 42 44 49 53 55 57 58 58 60 61 60 59 59 56 54 53 53 52 50 48 47 46 45 44 44 47 49 50 50 53 55 58 59 60 59 60 58 57 55 54 53 51 48 43 37 31 25 21 17 14 10 4 0 0 0 0 0 0 0 0 0 0 0 0 0 0 0 0 0 0 0 0 0 0 0 0 0 0 0 0 0 0 0 0 0 0 0 8 14 24 31 38 42 46 50 55 57 61 60 60 61 62 61 61 59 57 57 54 55 54 53 52 49 47 45 47 47 47 50 52 53 56 57 60 61 61 62 61 57 57 56 56 55 50 47 45 39 35 27 23 18 12 9 1 0 0 0 0 0 0 0 0 0 0 0 0 0 0 0 0 0 0 0 0 0 0 0 0 0 0 0 0 0 0 0 0 0 0 0 5 16 24 27 33 37 43 51 54 58 62 62 59 58 60 60 59 58 57 57 56 56 55 54 52 48 46 44 46 49 49 49 52 52 57 58 60 60 62 62 60 58 58 56 55 53 52 46 41 39 31 27 21 16 7 5 2 0 0 0 0 0 0 0 0 0 0 0 0 0 0 0 0 0 0 0 0 0 0 0 0 0 0 0 0 0 0 0 0 0 0 0 2 11 18 21 24 29 34 43 49 51 51 52 50 50 51 51 54 53 51 53 51 54 52 52 49 45 44 43 45 48 46 49 50 52 56 59 59 62 61 61 58 56 54 50 49 46 44 41 34 29 24 17 12 6 0 0 0 0 0 0 0 0 0 0 0 0 0 0 0 0 0 0 0 0 0 0 0 0 0 0 0 0 0 0 0 0 0 0 0 0 0 0 0 3 6 8 13 20 22 25 30 29 29 28 29 32 34 34 37 39 40 42 42 45 42 42 40 39 37 39 41 42 42 44 47 47 51 53 52 53 54 53 49 48 47 43 42 38 36 33 26 19 13 7 0 0 0 0 0 0 0 0 0 0 0 0 0 0 0 0 0 0 0 0 0 0 0 0 0 0 0 0 0 0 0 0 0 0 0 0 0 0 0 0 0 0 0 0 3 9 8 10 7 5 7 9 8 11 13 12 15 17 21 25 27 28 27 27 26 26 25 28 31 33 33 38 42 42 44 43 44 43 46 45 42 41 38 34 33 31 27 23 14 7 0 0 0 0 0 0 0 0 0 0 0 0 0 0 0 0 0 0 0 0 0 0 0 0 0 0 0 0 0 0 0 0 0 0 0 0 0 0 0 0 0 0 0 0 0 0 0 0 0 0 0 0 0 0 0 0 0 0 0 0 6 10 12 12 12 8 7 9 10 10 15 18 23 25 29 31 31 30 33 32 31 33 30 28 24 23 20 18 17 8 0 0 0 0 0 0 0 0 0 0 0 0 0 0 0 0 0 0 0 0 0 0 0 0 0 0 0 0 0 0 0 0 0 0 0 0 0 0 0 0 0 0 0 0 0 0 0 0 0 0 0 0 0 0 0 0 0 0 0 0 0 0 0 0 0 0 0 0 0 0 0 1 4 6 10 13 17 19 18 19 20 18 15 14 14 12 9 8 3 0 0 0 0 0 0 0 0 0 0 0 0 0 0 0 0 0 0 0 0 0 0 0 0 0 0 0 0 0 0 0 0 0 0 0 0 0 0 0 0 0 0 0 0 0 0 0 0 0 0 0 0 0 0 0 0 0 0 0 0 0 0 0 0 0 0 0 0 0 0 0 0 0 0 0 0 0 1 3 5 7 8 8 6 4 2 0 0 0 0 0 0 0 0 0 0 0 0 0 0 0 0 0 0 0 0 0 0 0 0 0 0 0 0 0 0 0 0 0 0 0 0 0 0 0 0 0 0 0 0 0 0 0 0 0 0 0 0 0 0 0 0 0 0 0 0 0 0 0 0 0 0 0 0 0 0 0 0 0 0 0 0 0 0 0 0 0 0 0 0 0 0 1 2 4 1 0 0 0 0 0 0 0 0 0 0 0 0 0 0 0 0 0 0 0 0 0 0 0 0 0 0 0 0 0 0 0 0 0 0 0 0 0 0 0 0 0 0 0 0 0 0 0 0 0 0 0 0 0 0 0 0 0 0 0 0 0 0 0 0 0 0 0 0 0 0 0 0 0 0 0 0 0 0 0 0 0 0 0 0 0 0 0 0 0 3 2 0 0 0 0 0 0 0 0 0 0 0 0 0 0 0 0 0 0 0 0 0 0 0 0 0 0 0 0 0 0 0 0 0 0 0 0 0 0 0 0 0 0 0 0 0 0 0 0 0 0 0 0 0 0 0 0 0 0 0 0 0 0 0 0 0 0 0 0 0 0 0 0 0 0 0 0 0 0 0 0 0 0 0 0 0 0 0 0 0 0 0 0 0 0 0 0 0 0 0 0 0 0 0 0 0 0 0 0 0 0 0 0 0 0 0 0 0 0 0 0 0 0 0 0 0 0 0 0 0 0 0 0 0 0 0 0 0 0 0 0 0 0 0 0 0 0 0 0 0 0 0 0 0 0 0 0 0 0 0 0 0 0 0 0 0 0 0 0 0 0 0 0 0 0 0 0 0 0 0 0 0 0 0 0 0 0 0 0 0 0 0 0 0 0 0 0 0 0 0 0 0 0 0 0 0 0 0 0 0 0 0 0 0 0 0 0 0 0 0 0 0 0 0 0 0 0 0 0 0 0 0 0 0 0 0 0 0 0 0 0 0 0 0 0 0 0 0 0 0 0 0 0 0 0 0 0 0 0 0 0 0 0 0 0 0 0 0 0 0 0 0 0 0 0 0 0 0 0 0 0 0 0 0 0 0 0 0 0 0 0 0 0 0 0 0 0 0 0 0 0 0 0 0 0 0 0 0 0 0 0 0 0 0 0 0 0 0 0 0 0 0 0 0 0 0 0 0 0 0 0 0 0 0 0 0 0 0 0 0 0 0 0 0 0 0 0 0 0 0 0 0 0 0 0 0 0 0 0 0 0 0 0 0 0 0 0 0 0 0 0 0 0 0 0 0 0 0 0 0 0 0 0 0 0 0 0 0 0 0 0 0 0 0 0 0 0 0 0 0 0 0 0 0 0 0 0 0 0 0 0 0 0 0 0 0 0 0 0 0 0 0 0 0 0 0 0 0 0 0 0 0 0 0 0 0 0 0 0 0 0 0 0 0 0 0 0 0 0 0 0 0 0 0 0 0 0 0 0 0 0 0 0 0 0 0 0 0 0 0 0 0 0 0 0 0 0 0 0 0 0 0 0 0 0 0 0 0 0 0 0 0 0 0 0 0 0 0 0 0 0 0 0 0 0 0 0 0 0 0 0 0 0 0 0 0 0 0 0 0 0 0 0 0 0 0 0 0 0 0 0 0 0 0 0 0 0 0 0 0 0 0 0 0 0 0 0 0 0 0 0 5 0 0 0 0 0 0 0 0 0 0 0 0 0 0 0 0 0 0 0 0 0 0 0 0 0 0 0 0 0 0 0 0 0 0 0 0 0 0 0 0 0 0 0 0 0 0 0 0 0 0 0 1 2 2 5 3 0 0 0 0 0 0 0 0 0 0 0 0 0 0 0 0 0 0 0 0 0 0 0 0 2 6 1 0 4 1 0 0 0 0 2 17 7 0 0 0 3 0 0 0 0 0 0 0 0 0 0 0 0 0 0 0 0 0 0 0 0 0 0 0 0 0 0 0 0 0 0 0 0 0 0 0 0 0 0 0 0 0 0 0 0 0 0 3 7 10 11 10 5 1 0 0 0 0 0 0 0 0 0 0 0 0 0 0 0 0 0 0 0 0 0 2 13 13 6 5 8 15 13 14 8 2 11 23 16 0 0 2 8 6 0 0 0 0 0 0 0 0 0 0 0 0 0 0 0 0 0 0 0 0 0 0 0 0 0 0 0 0 0 0 0 0 0 0 0 0 0 0 0 0 0 0 0 0 0 4 10 13 15 15 13 11 6 3 1 0 0 0 0 0 0 0 0 0 0 0 0 0 0 0 0 0 6 15 20 19 7 9 15 20 26 24 19 11 14 19 24 13 6 5 9 11 1 0 0 0 0 0 0 0 0 0 0 0 0 0 0 0 0 0 0 0 0 0 0 0 0 0 0 0 0 0 0 0 0 0 0 0 0 0 0 0 0 0 0 0 0 7 12 16 19 20 19 17 16 12 10 5 1 1 1 0 0 0 0 0 0 0 0 0 6 6 13 15 14 18 22 22 18 20 28 32 29 27 23 20 20 25 26 23 19 17 17 15 5 0 0 0 0 0 0 0 0 0 0 0 0 0 0 0 0 0 0 0 0 0 0 0 0 0 0 0 0 0 0 0 0 0 0 0 0 0 0 0 0 0 0 0 0 7 14 19 23 26 25 24 24 19 17 11 10 11 9 8 6 4 1 1 0 2 4 4 10 15 20 21 21 23 28 30 30 33 36 38 36 33 27 25 27 30 30 27 25 23 22 20 13 0 0 0 0 0 0 0 0 0 0 0 0 0 0 0 0 0 0 0 0 0 0 0 0 0 0 0 0 0 0 0 0 0 0 0 0 0 0 0 0 0 0 0 0 10 17 21 26 27 29 28 29 25 22 18 20 20 19 18 17 16 16 18 17 20 19 23 25 29 32 34 36 37 38 35 35 39 43 43 44 41 32 27 29 33 34 34 31 29 29 28 21 11 5 3 0 0 0 2 1 0 0 2 3 1 1 0 0 0 2 5 0 0 0 0 0 0 0 0 0 0 0 0 0 0 0 0 0 0 0 0 0 0 0 0 0 10 20 23 29 31 33 34 35 33 29 28 30 32 31 30 29 28 28 28 28 29 31 34 37 39 41 43 43 46 46 41 41 44 49 50 48 48 38 34 32 34 35 37 38 34 33 32 27 19 14 10 8 9 7 9 8 8 8 11 11 10 8 3 0 3 4 11 0 0 0 0 0 0 0 0 0 0 0 0 0 0 0 0 0 0 0 0 0 0 0 0 0 10 18 24 28 32 34 36 37 37 35 37 40 41 41 40 40 38 38 38 38 38 40 43 44 45 47 48 48 50 49 47 48 49 51 52 52 49 43 39 38 37 36 37 40 38 38 36 34 27 22 19 19 20 21 21 21 19 18 19 18 16 15 7 4 7 12 13 0 0 0 0 0 0 0 0 0 0 0 0 0 0 0 0 0 0 0 0 0 0 0 0 0 10 18 23 29 31 35 37 38 38 38 43 46 46 47 46 45 43 45 43 44 46 46 47 48 50 51 52 52 53 53 51 53 55 57 56 55 51 47 45 43 43 42 41 43 42 42 40 37 35 28 25 25 27 29 29 31 29 28 25 24 22 20 12 10 13 18 15 0 0 0 0 0 0 0 0 0 0 0 0 0 0 0 0 0 0 0 0 2 0 0 0 2 11 20 22 28 32 34 36 37 37 39 45 49 49 49 49 48 48 48 49 51 51 51 50 51 52 53 55 55 57 56 55 57 58 58 57 57 52 46 47 45 46 47 46 48 49 49 46 43 42 38 34 33 34 35 35 36 35 34 32 31 27 22 15 16 17 24 15 0 0 2 0 0 0 0 0 0 0 0 0 0 0 0 0 0 0 0 0 7 5 0 0 1 10 19 22 29 32 33 37 37 37 41 46 50 51 51 51 50 50 51 52 54 53 52 50 53 51 54 57 59 58 58 56 58 59 59 59 57 53 48 48 47 47 49 48 50 53 52 51 48 46 41 38 37 38 36 38 38 36 34 36 33 30 24 17 21 23 25 18 2 6 4 0 0 0 0 0 0 0 0 0 0 0 0 0 0 0 0 0 8 17 1 0 4 9 18 22 27 31 32 36 37 39 44 48 51 50 53 52 52 54 55 54 55 55 52 50 52 52 54 59 60 60 58 58 58 60 59 58 57 53 49 50 51 48 49 51 53 55 55 54 50 48 43 40 40 39 37 39 38 36 35 36 34 31 24 20 25 26 22 20 8 9 4 0 0 0 0 0 0 0 0 0 0 0 0 0 0 0 0 0 2 23 9 3 5 11 17 22 27 29 32 34 35 39 46 48 51 51 53 54 53 55 56 55 55 54 50 50 53 54 56 59 62 60 59 58 57 56 58 56 58 56 53 54 54 49 49 52 55 56 57 56 53 50 44 42 40 39 36 38 39 36 35 36 36 30 24 25 29 25 22 20 12 11 1 0 0 0 0 0 0 0 0 0 0 0 0 0 0 0 0 0 0 11 15 5 7 11 17 23 25 28 30 34 33 40 46 48 50 52 55 54 54 54 54 52 52 52 49 50 52 54 57 58 59 58 56 57 53 54 58 58 58 59 56 56 55 53 50 52 56 57 58 56 55 53 46 41 41 41 37 36 38 36 36 35 34 28 27 28 27 26 22 19 14 15 0 0 0 0 0 0 0 0 0 0 0 0 0 0 0 0 0 0 0 1 10 7 12 13 19 21 25 27 30 30 35 41 44 48 50 52 53 55 54 54 51 48 52 50 47 50 50 50 57 57 55 54 54 56 53 52 59 57 60 62 61 56 56 56 52 53 57 58 60 57 55 56 51 43 39 40 39 36 35 35 36 34 32 27 28 29 27 29 23 19 18 15 0 0 0 0 0 0 0 0 0 0 0 0 0 0 0 0 0 0 0 0 0 1 14 18 20 20 23 27 27 30 33 40 45 46 48 51 52 52 51 50 47 47 52 51 45 45 44 43 53 55 52 51 54 57 53 53 60 58 54 61 61 56 53 54 54 53 56 57 59 56 54 53 51 45 37 36 37 34 33 34 34 32 29 26 28 27 28 29 21 18 16 8 0 0 0 0 0 0 0 0 0 0 0 0 0 0 0 0 0 0 0 0 0 0 9 19 23 22 22 25 26 29 33 38 42 44 46 50 50 48 47 46 44 45 49 50 44 43 38 36 45 49 46 48 52 54 52 53 60 57 51 54 55 49 50 48 53 54 54 56 54 55 52 49 47 43 34 34 34 30 30 31 32 30 27 26 27 24 30 26 16 13 4 0 0 0 0 0 0 0 0 0 0 0 0 0 0 0 0 0 0 0 0 0 0 0 2 18 23 22 21 25 25 27 32 35 37 41 41 44 44 44 44 43 44 43 46 47 43 44 38 35 34 37 37 39 47 50 51 55 56 53 44 45 44 37 39 44 49 50 50 51 51 49 47 46 43 38 32 28 28 26 25 27 29 27 25 25 25 24 26 15 10 2 0 0 0 0 0 0 0 0 0 0 0 0 0 0 0 0 0 0 0 0 0 0 0 0 0 11 20 21 20 24 25 25 29 31 33 33 36 38 36 37 36 38 42 39 38 41 41 42 37 37 35 28 26 29 35 39 42 48 51 45 32 36 35 33 36 42 40 41 42 40 40 39 43 42 36 33 29 24 23 21 22 24 25 25 22 22 21 18 15 8 0 0 0 0 0 0 0 0 0 0 0 0 0 0 0 0 0 0 0 0 0 0 0 0 0 0 0 5 14 21 21 23 26 25 24 27 27 30 30 31 31 28 29 32 35 35 30 30 37 39 37 33 35 32 26 27 32 31 31 34 41 35 30 33 33 30 31 35 37 37 32 31 29 33 36 35 30 30 24 21 20 20 20 20 22 21 18 15 13 7 4 0 0 0 0 0 0 0 0 0 0 0 0 0 0 0 0 0 0 0 0 0 0 0 0 0 0 0 0 3 13 18 22 24 24 24 22 21 22 22 23 22 22 22 22 25 26 26 29 25 29 34 38 33 29 28 31 31 31 28 29 29 34 34 29 30 29 26 26 28 29 30 25 24 26 27 30 29 26 26 22 19 19 19 18 16 17 17 15 9 8 2 0 0 0 0 0 0 0 0 0 0 0 0 0 0 0 0 0 0 0 0 0 0 0 0 0 0 0 0 0 0 12 17 22 24 24 22 21 19 15 14 14 13 15 17 18 20 22 25 30 29 29 30 33 34 30 28 28 29 29 27 26 29 33 35 31 28 20 16 14 16 21 22 22 26 23 23 25 26 22 20 16 19 17 16 17 13 13 14 11 6 7 0 0 0 0 0 0 0 0 0 0 0 0 0 0 0 0 0 0 0 0 0 0 0 0 0 0 0 0 0 0 0 11 16 22 22 22 20 21 17 12 10 7 8 10 14 16 19 21 23 30 33 32 33 33 34 33 30 28 27 27 29 32 34 36 36 37 29 20 16 14 15 19 20 21 26 26 23 21 20 16 13 16 18 17 14 13 12 10 11 7 4 2 0 0 0 0 0 0 0 0 0 0 0 0 0 0 0 0 0 0 0 0 0 0 0 0 0 0 0 0 0 0 0 11 16 19 22 21 21 19 17 12 9 6 6 8 11 15 17 21 25 29 31 32 31 31 33 30 29 30 28 29 29 34 36 36 38 35 30 25 25 21 17 20 18 18 20 22 19 14 13 11 13 15 17 15 12 9 9 6 7 6 2 0 1 0 0 0 0 0 0 0 0 0 0 0 0 0 0 0 0 0 0 0 0 0 0 0 0 0 0 0 0 0 0 10 14 16 22 21 20 18 17 11 10 6 4 7 11 10 16 17 24 27 31 30 30 29 29 29 31 32 33 35 34 32 31 30 33 31 31 31 31 26 21 19 17 14 15 15 14 10 6 10 12 16 15 14 13 7 7 4 5 3 3 0 1 0 0 0 0 0 0 0 0 0 0 0 0 0 0 0 0 0 0 0 0 0 0 0 0 0 0 0 0 0 0 6 12 15 19 21 20 19 17 16 10 8 6 8 9 11 14 16 21 26 28 29 28 27 27 29 31 34 37 38 37 35 34 33 35 35 37 38 37 31 27 20 16 14 13 11 10 11 6 5 11 15 15 13 10 7 4 4 4 4 5 1 0 0 0 0 0 0 0 0 0 0 0 0 0 0 0 0 0 0 0 0 0 0 0 0 0 0 0 0 0 0 0 0 11 12 16 19 22 22 20 19 14 11 9 8 6 11 11 12 13 19 21 22 23 23 25 27 29 31 33 34 33 36 35 35 38 39 39 39 37 33 30 24 17 17 14 12 8 7 6 3 10 13 13 10 6 5 3 4 5 7 4 3 0 0 0 0 0 0 0 0 0 0 0 0 0 0 0 0 0 0 0 0 0 0 0 0 0 0 0 0 0 0 0 0 9 13 17 19 18 23 21 19 17 16 11 7 6 8 11 11 8 4 8 10 14 18 17 16 18 17 18 20 24 28 30 27 29 31 30 30 31 29 26 22 14 10 10 5 1 3 3 2 5 10 8 8 7 5 4 6 7 11 5 3 0 0 0 0 0 0 0 0 0 0 0 0 0 0 0 0 0 0 0 0 0 0 0 0 0 0 0 0 0 0 0 0 4 14 19 20 19 18 18 13 16 19 21 17 9 8 15 14 9 3 0 0 0 6 12 12 8 7 9 8 7 13 14 12 15 17 16 17 18 18 15 11 3 0 0 0 0 1 0 0 1 4 8 11 9 7 7 5 11 13 4 0 0 0 0 0 0 0 0 0 0 0 0 0 0 0 0 0 0 0 0 0 0 0 0 0 0 0 0 0 0 0 0 0 0 14 19 19 19 18 18 12 12 16 20 21 15 11 7 6 8 11 7 3 5 0 4 6 2 3 0 0 0 0 1 0 1 8 6 8 9 4 0 0 0 0 0 1 1 1 0 0 2 12 16 15 11 7 7 5 14 12 3 0 0 0 0 0 0 0 0 0 0 0 0 0 0 0 0 0 0 0 0 0 0 0 0 0 0 0 0 0 0 0 0 0 0 4 19 18 18 18 18 17 17 17 18 20 20 19 13 10 3 8 9 7 9 11 6 7 1 0 0 0 0 0 0 0 0 2 1 4 5 0 0 0 0 0 2 6 0 0 0 0 14 19 19 16 11 8 6 7 15 7 0 0 0 0 0 0 0 0 0 0 0 0 0 0 0 0 0 0 0 0 0 0 0 0 0 0 0 0 0 0 0 0 0 0 0 0 15 17 15 16 17 17 22 24 23 20 20 21 19 17 15 12 9 11 12 9 5 7 5 8 14 12 8 9 6 0 0 0 0 0 0 0 0 0 1 0 5 5 0 2 3 5 14 16 16 16 13 9 6 10 13 1 0 0 0 0 0 0 0 0 0 0 0 0 0 0 0 0 0 0 0 0 0 0 0 0 0 0 0 0 0 0 0 0 0 0 0 0 8 14 12 12 15 16 19 27 28 27 27 26 26 23 24 26 24 21 22 16 11 14 18 18 18 18 11 14 16 5 0 0 0 0 0 0 0 0 0 0 4 7 8 5 1 2 12 17 18 18 16 9 10 9 4 0 0 0 0 0 0 0 0 0 0 0 0 0 0 0 0 0 0 0 0 0 0 0 0 0 0 0 0 0 0 0 0 0 0 0 0 0 6 14 10 10 13 13 18 23 26 28 29 30 31 28 26 25 30 26 23 18 17 18 21 21 18 16 10 10 8 7 4 1 0 0 0 0 0 0 1 4 7 9 10 8 7 10 16 18 18 15 13 12 9 5 0 0 0 0 0 0 0 0 0 0 0 0 0 0 0 0 0 0 0 0 0 0 0 0 0 0 0 0 0 0 0 0 0 0 0 0 0 0 2 14 9 7 8 12 18 21 24 27 29 30 30 29 26 22 23 27 30 26 19 17 19 19 21 19 17 14 12 8 7 8 10 9 5 2 2 2 4 4 9 11 14 14 12 15 17 18 15 12 12 12 6 0 0 0 0 0 0 0 0 0 0 0 0 0 0 0 0 0 0 0 0 0 0 0 0 0 0 0 0 0 0 0 0 0 0 0 0 0 0 0 0 12 12 6 5 8 14 20 22 27 30 31 32 33 31 28 25 24 28 28 25 22 19 18 19 20 18 14 15 13 13 10 5 4 5 6 8 10 10 12 15 17 18 15 16 18 17 15 15 13 13 10 0 0 0 0 0 0 0 0 0 0 0 0 0 0 0 0 0 0 0 0 0 0 0 0 0 0 0 0 0 0 0 0 0 0 0 0 0 0 0 0 0 9 10 9 6 5 8 15 22 27 31 34 33 37 36 36 32 28 28 27 25 24 18 16 15 14 14 13 13 13 13 11 8 5 8 11 12 15 14 17 20 20 18 19 18 19 17 14 14 13 8 2 0 0 0 0 0 0 0 0 0 0 0 0 0 0 0 0 0 0 0 0 0 0 0 0 0 0 0 0 0 0 0 0 0 0 0 0 0 0 0 0 0 6 7 11 7 5 8 9 18 25 33 35 37 38 41 42 39 34 33 32 31 30 24 22 19 17 16 15 15 15 15 13 14 15 15 15 13 15 18 20 22 20 22 21 20 19 15 17 15 9 4 0 0 0 0 0 0 0 0 0 0 0 0 0 0 0 0 0 0 0 0 0 0 0 0 0 0 0 0 0 0 0 0 0 0 0 0 0 0 0 0 0 0 2 9 10 12 8 10 11 14 21 29 36 39 41 43 45 47 45 42 42 40 39 36 33 30 27 25 20 20 18 19 19 19 18 19 18 18 20 24 25 24 26 25 24 21 16 18 19 13 6 0 0 0 0 0 0 0 0 0 0 0 0 0 0 0 0 0 0 0 0 0 0 0 0 0 0 0 0 0 0 0 0 0 0 0 0 0 0 0 0 0 0 0 1 11 10 10 12 12 14 18 20 27 36 42 46 48 51 55 55 53 52 51 49 48 46 43 43 39 37 34 31 30 27 26 26 27 27 29 31 33 31 30 29 29 24 19 20 21 18 10 0 0 0 0 0 0 0 0 0 0 0 0 0 0 0 0 0 0 0 0 0 0 0 0 0 0 0 0 0 0 0 0 0 0 0 0 0 0 0 0 0 0 0 0 0 8 11 11 11 12 12 18 24 27 36 43 51 53 58 60 63 63 63 65 61 58 57 55 54 53 51 49 48 45 42 41 40 40 40 40 41 39 37 35 34 31 25 24 24 20 13 3 0 0 0 0 0 0 0 0 0 0 0 0 0 0 0 0 0 0 0 0 0 0 0 0 0 0 0 0 0 0 0 0 0 0 0 0 0 0 0 0 0 0 0 0 0 4 9 12 12 11 14 17 22 27 34 41 47 55 60 65 70 71 72 74 75 74 74 70 67 67 67 64 64 64 62 61 59 58 56 53 51 48 44 44 39 34 28 26 23 19 8 0 0 0 0 0 0 0 0 0 0 0 0 0 0 0 0 0 0 0 0 0 0 0 0 0 0 0 0 0 0 0 0 0 0 0 0 0 0 0 0 0 0 0 0 0 0 3 6 10 14 10 13 18 19 25 34 39 44 51 57 66 72 77 80 82 86 86 88 87 84 85 83 80 79 78 78 76 72 71 68 65 60 57 54 49 42 36 28 26 22 13 4 0 0 0 0 0 0 0 0 0 0 0 0 0 0 0 0 0 0 0 0 0 0 0 0 0 0 0 0 0 0 0 0 0 0 0 0 0 0 0 0 0 0 0 0 0 0 0 6 6 11 12 11 15 18 20 29 35 43 47 52 61 68 74 82 84 90 92 93 95 94 94 92 91 90 88 86 83 79 77 75 69 66 61 55 49 42 31 28 26 17 7 0 0 0 0 0 0 0 0 0 0 0 0 0 0 0 0 0 0 0 0 0 0 0 0 0 0 0 0 0 0 0 0 0 0 0 0 0 0 0 0 0 0 0 0 0 0 0 0 1 7 8 9 11 13 16 19 21 29 37 43 48 53 60 67 73 80 85 91 93 95 95 93 94 93 92 91 89 85 80 78 74 67 62 55 51 42 35 29 26 21 10 0 0 0 0 0 0 0 0 0 0 0 0 0 0 0 0 0 0 0 0 0 0 0 0 0 0 0 0 0 0 0 0 0 0 0 0 0 0 0 0 0 0 0 0 0 0 0 0 3 3 2 8 7 8 11 12 15 17 22 27 37 41 47 53 57 63 70 75 83 87 89 90 90 91 90 90 88 85 80 75 71 67 59 53 48 42 35 27 27 20 12 3 0 0 0 0 0 0 0 0 0 0 0 0 0 0 0 0 0 0 0 0 0 0 0 0 0 0 0 0 0 0 