P2
92
112
255
85 85 85 85 85 85 86 85 85 85 85 85 84 84 84 84 83 82 82 82 82 82 81 80 80 79 78 78 77 76 76 75 75 74 75 74 75 76 75 75 75 75 76 75 74 74 74 73 75 75 75 74 74 74 74 73 73 73 73 73 73 73 74 76 76 76 77 78 79 79 80 81 82 82 83 83 83 83 84 84 84 84 84 85 85 84 85 84 84 84 84 84 85 85 85 85 85 85 85 85 85 85 85 85 84 84 83 83 82 82 81 81 81 81 80 79 78 77 77 76 75 75 75 75 75 75 76 76 76 78 77 77 77 77 77 76 76 76 75 75 75 74 76 75 74 73 73 73 73 72 72 72 72 72 72 74 74 74 75 76 77 78 79 80 81 81 82 82 83 83 83 83 84 84 84 84 85 84 85 85 85 84 84 84 85 85 85 85 85 85 85 85 85 85 84 84 83 83 82 82 82 80 80 79 80 79 78 77 76 76 76 76 75 75 76 76 77 77 77 77 78 79 79 79 79 79 79 78 78 77 78 77 76 76 76 76 75 74 73 74 73 73 72 72 73 73 72 72 73 73 74 74 76 76 78 79 80 80 81 81 82 83 83 83 83 83 83 84 84 85 84 85 85 84 85 84 85 85 85 85 85 85 85 85 84 84 83 83 82 82 82 82 80 79 79 78 79 77 76 76 76 76 77 76 77 77 78 79 80 80 81 81 81 81 81 81 81 81 80 80 81 80 79 79 78 78 78 76 77 76 76 75 75 75 74 74 72 73 72 71 72 73 73 73 74 74 76 77 78 79 80 80 80 81 82 83 83 83 83 83 84 84 85 85 85 84 85 84 85 85 85 85 85 85 85 84 84 84 83 82 82 81 81 79 79 78 78 77 77 76 75 75 76 76 77 78 80 80 81 82 82 83 83 84 83 83 83 83 83 82 82 82 82 82 82 81 80 81 79 78 79 78 78 77 76 75 76 74 74 73 73 72 71 72 71 72 72 73 74 76 76 78 78 79 79 79 80 81 82 83 83 83 83 84 84 84 85 85 85 85 85 86 85 85 85 84 84 83 82 82 81 81 81 80 79 79 78 77 77 76 76 76 75 76 77 78 80 82 83 84 84 85 86 86 85 85 85 86 85 85 85 85 85 84 84 84 84 83 84 83 82 82 81 81 80 79 78 77 77 76 76 75 74 73 72 72 71 72 72 73 73 74 75 76 76 77 78 79 78 80 81 82 83 83 83 83 84 84 85 85 85 85 85 86 85 85 85 84 83 83 82 81 81 80 80 79 79 78 77 76 77 76 76 76 77 78 80 81 84 85 86 86 87 88 88 88 88 88 87 87 87 87 86 86 86 86 86 86 86 86 86 86 86 84 84 83 83 82 82 81 79 79 79 78 77 75 73 73 72 71 71 72 72 72 72 74 74 75 76 77 78 78 80 81 82 82 83 83 83 84 84 85 85 85 85 86 85 84 84 83 83 82 81 80 79 79 79 78 77 76 76 77 77 77 77 78 81 82 84 85 87 87 88 89 89 90 90 90 90 90 89 89 88 89 89 89 89 88 88 89 89 89 88 88 88 87 87 86 85 85 85 84 83 82 81 80 79 78 75 74 74 73 72 71 71 71 71 72 72 73 74 75 77 77 78 80 81 82 82 83 83 83 83 84 85 85 85 85 85 84 84 83 82 81 80 79 79 78 78 76 75 76 76 76 78 79 81 82 84 86 87 88 90 90 91 91 92 92 92 92 92 91 91 91 91 92 92 92 91 91 91 91 91 91 91 90 90 90 89 89 88 87 87 86 86 85 83 82 81 80 79 77 76 75 74 73 73 72 70 70 71 72 72 74 75 76 77 78 80 81 81 82 82 83 83 84 85 85 86 85 84 84 83 82 81 80 79 78 78 78 77 76 76 76 77 78 81 82 85 86 88 89 89 90 91 92 92 93 94 95 94 94 93 93 94 94 94 94 95 95 94 94 94 95 94 94 94 93 93 92 92 91 91 90 89 88 89 88 86 86 84 83 82 81 79 77 76 74 74 73 71 69 70 70 71 72 73 74 75 76 78 80 80 81 82 83 83 84 84 84 85 84 84 83 82 81 80 79 79 77 77 77 76 76 76 76 78 81 83 85 87 89 90 91 92 93 93 93 94 95 95 97 97 96 96 96 97 97 97 97 98 98 98 98 97 98 97 97 97 97 96 95 94 94 94 93 92 91 90 90 89 88 87 86 85 83 81 80 78 77 75 75 73 70 69 69 70 71 72 72 73 75 77 78 79 81 81 82 83 84 84 84 85 84 83 83 81 80 79 78 77 76 75 76 76 77 77 78 81 83 85 87 89 90 92 94 95 96 96 97 97 98 98 99 100 99 99 99 101 100 100 100 101 101 101 101 100 100 100 100 100 100 99 98 98 98 97 97 95 94 93 92 92 90 89 88 87 86 84 82 81 79 78 76 75 73 70 69 70 69 70 71 71 73 75 76 78 79 80 82 82 83 83 84 85 84 83 81 80 79 78 76 76 75 75 75 76 76 78 80 83 85 88 90 92 92 94 96 97 98 99 100 101 101 101 102 103 102 102 103 104 104 104 104 104 105 104 104 104 103 103 104 103 103 103 102 101 101 100 100 99 97 96 95 95 92 91 91 89 88 86 85 83 81 79 78 76 75 72 69 70 69 69 69 69 71 73 75 76 78 79 81 81 83 83 84 83 83 82 80 79 78 76 75 74 74 75 75 76 77 81 82 85 88 91 92 93 95 97 99 100 101 102 103 103 104 104 106 106 106 106 106 108 107 107 107 108 108 108 108 108 107 107 108 107 106 106 106 105 105 104 103 102 101 100 99 99 96 95 93 92 91 89 87 85 84 82 79 77 77 74 71 69 69 69 68 68 69 71 73 75 76 78 79 81 81 83 84 83 83 80 79 78 76 75 74 74 74 74 75 76 79 82 85 87 90 92 95 96 98 100 102 103 104 105 106 107 107 107 108 109 109 109 110 111 111 110 111 111 112 112 112 112 111 111 111 111 110 109 109 108 108 107 106 105 104 104 102 101 100 99 97 94 93 91 90 88 86 84 82 79 77 76 73 71 69 68 68 68 68 70 71 73 75 77 78 80 80 82 83 83 81 80 78 77 74 74 73 73 73 74 75 78 82 85 87 90 93 96 97 99 101 103 104 106 108 109 110 111 111 112 112 113 113 114 115 114 115 115 115 115 114 115 115 115 116 115 114 114 113 113 112 112 111 110 109 109 108 107 107 105 104 102 100 97 95 94 92 90 89 86 84 81 78 77 75 72 71 68 68 67 66 67 70 72 73 76 77 79 79 80 82 82 80 78 77 74 73 72 72 73 72 75 78 81 84 88 90 93 96 98 100 101 104 106 108 110 112 113 114 115 115 116 117 117 117 118 119 119 119 119 119 119 118 118 118 118 118 118 118 117 117 116 116 115 115 115 113 112 111 111 110 108 107 106 104 102 99 98 96 93 92 88 86 84 81 78 76 74 72 69 67 67 66 66 68 70 72 74 76 77 79 79 81 81 79 77 75 73 72 71 72 72 73 77 81 83 87 90 93 96 99 101 103 105 108 110 112 114 115 117 117 118 119 120 121 121 121 122 123 124 124 123 122 122 122 121 122 122 122 121 121 120 120 120 119 119 119 118 118 116 115 114 113 112 110 109 107 105 103 100 99 96 95 92 89 87 84 81 77 75 73 69 67 66 65 65 66 68 70 72 74 75 77 79 80 80 78 76 74 73 71 71 71 72 74 78 82 85 90 92 96 99 101 104 106 109 112 114 116 117 119 120 121 122 123 124 124 125 125 126 127 127 128 126 126 126 126 125 126 126 126 125 125 124 124 123 122 122 122 121 121 119 119 118 117 115 114 112 111 110 107 104 103 100 98 95 92 89 85 83 80 76 74 71 69 66 66 65 65 67 68 70 72 74 76 78 79 80 77 74 72 72 70 70 71 73 76 80 83 88 91 95 98 101 104 107 110 112 115 117 119 121 123 124 125 126 127 128 128 129 129 130 130 130 131 130 130 129 129 130 130 130 129 129 128 128 128 127 127 126 126 125 124 123 123 121 120 119 117 116 114 113 110 108 106 104 101 99 95 92 89 85 82 78 75 73 70 67 66 65 64 65 68 69 71 73 75 77 79 79 76 72 71 69 69 69 71 73 77 82 85 90 94 97 100 103 107 110 113 116 119 121 122 124 126 127 128 130 131 131 132 133 133 134 134 134 135 134 134 133 134 134 134 133 133 132 132 132 132 131 131 129 129 128 128 127 126 126 124 123 121 119 118 116 114 111 109 107 105 102 98 95 92 88 84 80 77 74 71 68 67 65 64 64 66 69 71 72 74 75 76 78 74 70 68 67 67 68 70 74 80 84 87 92 95 99 103 107 110 114 117 119 122 124 126 128 129 130 131 134 135 135 136 137 137 137 138 137 138 138 138 138 138 138 138 137 137 136 136 136 135 135 135 133 133 132 132 131 129 129 128 127 125 123 120 119 117 115 112 110 108 104 101 98 94 91 86 82 79 77 73 70 68 66 64 64 65 68 69 71 73 74 75 77 73 69 66 65 65 69 72 76 81 85 90 94 98 102 107 110 114 118 121 123 125 128 130 132 133 135 136 137 139 139 140 141 141 142 142 142 142 142 143 142 142 141 141 141 141 140 140 140 139 138 138 137 136 137 136 134 133 132 131 130 128 127 124 122 120 118 116 113 111 107 104 100 97 93 88 84 81 77 74 71 69 67 65 64 64 67 69 71 73 75 75 75 71 67 65 63 66 69 72 77 82 87 92 96 101 105 110 114 118 122 125 127 130 132 134 135 137 139 141 142 143 143 144 144 146 146 146 146 146 146 146 146 146 146 146 145 145 145 144 143 143 143 142 141 140 140 140 138 137 136 135 134 132 130 128 126 124 122 120 116 113 110 107 103 100 95 91 87 83 79 75 73 70 68 66 64 64 66 68 70 72 74 75 74 69 65 64 63 66 69 73 78 84 89 94 99 104 109 114 118 122 125 128 131 134 136 138 140 142 144 145 146 147 147 148 149 150 150 151 151 151 151 151 150 150 150 150 150 149 149 148 148 148 147 146 145 144 144 143 142 141 140 139 138 136 134 132 130 127 125 123 120 117 114 110 106 102 97 93 89 85 81 77 75 72 69 66 64 64 64 66 70 71 73 74 72 67 64 63 63 66 70 75 80 86 91 96 102 106 112 117 121 126 129 133 136 138 140 142 145 146 148 149 150 152 152 153 154 154 155 155 155 155 155 155 155 155 154 154 154 153 153 153 152 152 151 150 149 148 147 147 146 144 143 143 141 140 137 136 133 131 128 127 124 120 117 113 109 105 101 95 91 87 83 80 76 73 71 67 63 63 64 66 68 70 72 74 69 65 63 62 63 66 71 75 82 87 93 99 104 109 115 120 125 129 133 137 140 142 144 146 148 150 151 152 154 155 156 156 157 158 158 159 159 159 159 158 159 158 158 158 158 157 157 157 157 156 155 154 153 152 151 150 149 147 147 146 145 143 141 139 137 134 132 129 127 124 120 116 112 108 103 98 94 90 85 82 77 73 70 69 64 63 63 65 68 69 71 74 67 63 62 62 63 67 72 77 83 88 95 100 106 112 118 123 128 133 137 140 143 145 148 150 151 153 154 156 157 158 158 160 161 161 161 162 163 163 163 162 162 162 162 162 162 161 161 160 160 160 158 158 157 155 154 153 152 151 150 148 147 146 144 142 140 138 135 133 130 127 124 119 115 110 106 101 96 92 87 84 78 74 71 68 65 63 62 64 66 69 70 73 66 62 61 62 64 68 73 78 84 90 96 102 108 115 121 126 131 137 140 143 146 148 150 152 154 156 157 158 159 160 161 162 163 163 164 165 166 166 165 166 165 165 165 165 164 165 164 163 163 162 162 160 159 158 157 156 155 154 153 152 150 149 147 146 143 142 139 136 133 130 127 123 118 113 108 103 98 93 90 85 81 75 72 68 65 63 62 63 65 68 70 72 65 62 60 61 63 68 73 79 85 90 97 104 111 118 124 129 134 138 142 145 148 150 152 155 156 158 159 160 160 162 163 164 165 165 166 167 167 168 168 167 168 168 167 167 167 167 167 166 166 165 164 163 162 161 159 158 158 156 155 154 153 151 149 148 146 144 142 139 136 132 128 125 121 115 110 105 100 96 91 86 83 78 72 68 66 63 62 62 64 67 69 71 65 62 60 61 63 69 73 80 85 90 98 105 113 120 126 132 136 141 144 148 150 153 155 157 158 158 160 161 162 163 164 165 166 166 167 168 168 169 169 169 169 169 169 169 169 169 168 168 167 167 166 165 164 163 161 160 159 158 157 155 154 153 151 150 148 146 144 142 138 134 130 127 122 118 112 108 102 97 93 87 84 80 74 69 65 63 62 62 63 65 69 71 65 62 60 62 64 69 74 80 85 91 99 107 115 121 127 134 138 142 146 149 152 155 157 157 158 159 160 161 163 163 165 165 166 167 168 168 168 169 170 170 170 171 171 170 170 170 170 169 169 168 167 166 164 163 162 161 160 159 158 157 155 154 152 151 150 148 145 143 140 136 132 129 124 119 114 109 104 99 95 89 84 81 75 70 65 62 63 62 62 64 68 71 65 61 60 61 65 69 74 79 85 92 100 109 116 123 129 135 139 143 147 150 153 155 157 157 158 159 160 161 162 163 164 165 165 167 168 168 169 170 170 171 171 170 171 171 171 171 171 170 169 169 168 167 165 164 163 162 161 159 158 157 156 154 152 151 149 148 146 143 141 138 134 130 126 121 115 110 105 99 95 90 84 81 76 70 66 62 62 62 61 63 67 70 64 61 60 61 65 69 74 79 85 92 102 109 117 124 131 136 140 144 148 151 154 156 156 157 157 158 159 161 161 162 163 164 165 166 167 168 168 169 169 170 171 171 171 171 172 171 171 170 170 169 168 167 166 165 163 162 161 160 158 156 156 154 152 151 149 147 145 143 141 138 135 132 127 123 117 111 105 101 96 90 85 80 76 70 66 62 61 62 62 62 65 69 63 61 61 62 64 68 73 79 85 92 103 111 119 125 132 137 140 145 148 151 153 154 155 156 156 157 159 159 160 162 162 163 163 164 165 166 167 167 168 169 170 170 171 171 171 171 171 170 169 169 169 167 166 164 163 161 160 159 157 156 154 154 152 151 149 147 145 144 141 138 136 132 128 124 118 113 106 101 97 91 85 80 76 70 66 63 60 61 61 62 65 69 63 62 62 62 65 68 73 79 85 93 104 112 119 126 132 137 141 145 148 150 152 154 154 155 155 156 157 158 159 160 161 161 161 161 162 163 165 166 167 168 168 169 170 170 170 170 171 170 169 169 169 167 165 164 162 160 160 158 156 155 153 152 151 151 149 147 145 143 141 138 136 133 129 124 120 114 108 102 96 92 85 80 75 70 66 64 61 60 61 62 64 68 64 63 63 63 64 68 73 79 86 94 104 113 119 126 132 137 142 145 147 150 152 153 153 154 155 155 156 157 158 158 159 159 160 160 161 162 164 165 166 167 168 169 170 170 170 170 170 169 169 168 167 166 164 164 162 160 158 157 155 154 153 152 151 150 148 146 146 144 142 139 136 134 130 125 121 116 109 103 97 91 86 80 75 70 66 63 61 60 61 62 65 68 65 64 63 62 64 68 74 79 86 95 104 113 119 126 132 137 142 145 148 150 152 153 154 155 155 156 157 158 158 159 158 159 159 160 160 161 163 165 165 166 167 168 169 170 170 169 169 168 168 167 166 165 164 163 161 159 156 156 154 153 152 151 150 149 148 146 145 143 141 140 137 134 131 126 122 116 110 104 99 91 86 79 75 70 66 63 61 60 61 62 65 67 65 64 63 63 64 68 74 80 87 96 104 113 119 126 133 138 142 144 148 151 152 153 155 155 155 156 157 157 158 159 158 159 159 160 161 162 162 164 164 165 166 167 168 169 169 169 169 168 168 166 165 164 163 161 159 157 155 154 153 152 150 150 151 149 148 147 145 144 143 140 138 135 132 128 123 118 112 105 100 92 85 80 73 70 65 63 61 61 61 62 66 67 66 64 64 64 64 68 74 80 87 96 104 113 120 128 133 138 142 145 148 151 152 153 155 155 155 155 156 157 158 158 158 158 158 159 160 161 162 163 164 164 165 166 167 167 168 168 168 167 167 164 163 163 161 159 157 156 154 153 152 151 149 149 150 148 148 147 145 144 143 140 138 135 132 128 123 118 113 106 100 93 85 79 72 69 65 62 61 61 60 62 66 68 67 65 66 63 66 69 75 81 88 97 105 114 121 128 134 139 142 146 148 151 153 153 154 154 155 155 155 157 157 156 157 157 157 157 157 159 160 162 162 163 164 165 166 166 167 167 167 166 165 163 163 161 159 157 155 154 152 151 151 150 148 148 148 146 146 145 144 143 141 139 138 135 132 128 123 118 113 107 100 94 85 79 72 68 65 62 61 60 61 62 66 69 68 67 66 65 67 70 76 82 87 98 106 114 121 129 134 138 143 146 149 151 152 154 154 154 153 154 153 154 155 154 154 154 154 155 155 156 157 159 160 161 163 164 165 165 166 166 165 164 162 161 161 158 156 155 152 152 149 149 148 147 146 146 145 144 143 142 142 140 139 137 135 133 131 128 123 118 112 107 101 94 86 78 70 67 64 62 61 60 61 62 66 69 70 69 68 67 69 72 77 82 89 99 107 114 122 129 134 138 141 146 148 150 152 153 153 151 151 152 151 151 151 151 149 151 151 152 152 153 154 156 157 157 159 162 163 163 164 164 163 161 160 158 157 156 154 151 149 148 146 146 145 144 144 143 142 141 141 140 140 139 138 136 134 132 130 128 123 118 112 107 101 94 87 78 70 66 64 62 61 61 61 63 67 70 71 70 69 70 72 73 79 83 90 100 106 114 122 129 134 138 142 145 147 149 149 148 147 146 146 146 146 145 146 146 145 147 146 148 148 149 150 152 153 155 158 158 161 161 162 161 162 159 159 158 156 154 153 150 147 145 144 142 141 141 141 141 139 139 138 137 135 135 135 134 132 130 129 127 123 118 113 107 101 95 87 77 71 65 63 63 62 61 63 64 68 71 72 72 71 72 72 74 79 84 91 99 106 115 121 128 134 138 141 144 145 146 146 145 143 142 143 143 143 143 144 143 143 143 143 144 145 146 147 149 151 152 154 156 157 158 159 158 159 158 157 156 154 153 151 148 144 144 141 139 139 137 136 136 135 135 135 134 133 132 132 131 130 129 128 127 124 119 114 108 100 94 88 78 71 66 63 63 62 61 64 67 69 71 74 73 74 73 74 77 81 84 92 99 106 115 120 128 134 137 140 142 144 143 144 143 143 141 140 141 142 142 141 141 141 141 141 142 143 144 145 147 150 151 152 155 156 157 156 156 155 155 154 153 151 149 147 143 140 140 136 136 134 133 132 133 131 131 131 131 130 129 129 128 129 128 127 125 124 120 115 110 102 95 87 78 71 67 65 63 62 61 65 68 70 72 76 76 76 74 75 79 83 85 92 100 108 115 121 129 134 136 139 141 141 141 141 140 140 140 138 138 139 138 138 137 138 137 139 139 140 141 143 144 147 149 150 153 154 156 155 155 154 153 152 150 149 146 143 139 137 136 133 132 131 130 129 128 129 128 127 128 127 127 128 127 127 125 125 123 122 120 116 111 104 97 88 79 72 68 66 64 63 63 66 69 72 74 76 79 79 76 77 81 84 87 94 102 110 116 122 128 134 136 139 140 140 139 139 137 136 137 136 134 134 136 134 134 134 134 136 136 138 138 140 142 144 146 147 148 151 152 152 152 152 150 148 147 146 142 140 136 134 132 130 128 128 128 127 126 125 124 123 124 124 127 127 126 124 124 123 122 121 120 116 110 104 97 89 80 74 70 67 64 65 65 68 71 73 74 78 81 81 79 79 82 86 90 96 104 110 115 121 127 132 134 137 139 139 137 136 135 135 135 134 132 133 131 132 131 132 133 133 135 136 135 139 141 142 143 144 145 148 149 150 150 150 148 146 145 143 140 138 134 131 130 128 127 126 127 125 124 124 122 120 121 121 124 126 125 123 123 122 120 120 118 116 110 105 98 89 81 75 71 67 65 66 67 70 73 74 75 79 82 84 82 83 83 88 91 99 105 111 115 120 126 130 134 137 137 137 137 135 134 134 132 131 130 130 129 128 129 130 131 130 131 133 134 137 139 140 140 142 143 145 146 147 148 147 147 144 142 140 138 136 132 129 128 125 125 125 125 123 123 123 120 120 119 121 122 123 124 124 124 122 120 119 117 116 111 106 99 90 82 77 72 68 67 68 68 71 76 76 76 81 83 87 84 84 86 90 92 101 106 111 116 121 126 130 135 137 136 135 136 134 133 133 131 131 130 128 128 126 128 129 129 130 131 132 134 135 136 139 138 139 140 142 144 146 147 147 145 144 141 139 137 134 132 128 127 126 124 124 125 123 122 121 120 121 120 119 121 120 122 123 123 123 122 120 118 116 111 106 100 90 83 79 73 69 69 71 71 72 77 77 77 83 86 89 89 88 90 93 94 101 106 111 116 122 126 130 134 135 135 135 134 133 134 133 132 130 130 128 126 126 127 128 129 130 131 132 134 134 135 137 137 137 138 142 145 147 147 146 144 142 141 139 137 133 131 129 127 126 124 124 123 122 121 119 118 119 120 120 119 120 121 121 121 123 122 121 118 117 110 106 100 92 85 81 74 71 72 74 73 75 79 78 78 84 88 89 91 92 92 95 97 102 108 113 117 124 128 131 135 136 135 136 136 133 132 132 131 130 130 128 127 127 127 128 131 132 132 133 134 135 135 138 136 138 139 142 145 148 147 145 143 143 140 138 136 132 130 127 125 124 122 122 121 120 121 118 117 118 120 122 121 121 122 122 122 122 122 121 119 117 111 107 102 93 86 83 78 75 75 76 75 76 82 80 79 85 89 91 92 94 94 98 100 104 109 114 119 126 130 133 136 137 137 138 136 135 133 133 132 131 130 129 129 128 129 130 131 132 134 134 136 137 136 137 136 139 140 143 145 147 147 144 143 143 140 137 136 132 130 128 126 124 122 122 121 120 120 119 118 118 120 122 122 122 123 123 121 122 121 121 120 117 113 108 103 94 88 85 81 78 77 78 78 78 83 82 80 85 90 91 94 96 99 100 103 107 112 115 120 126 131 136 137 138 138 138 137 136 135 135 134 134 133 131 131 131 131 132 131 133 134 136 138 139 137 137 138 141 142 145 146 147 146 145 144 143 141 138 136 134 131 129 126 124 124 124 122 121 121 119 119 118 120 122 123 123 122 124 123 122 122 122 121 118 114 110 104 96 91 86 84 81 80 82 81 82 85 83 81 85 91 93 96 99 102 103 105 110 114 118 122 127 133 137 139 140 139 139 139 137 137 136 136 135 135 134 133 134 135 134 134 135 136 138 139 139 138 139 139 142 144 148 148 148 148 147 145 143 141 139 138 136 133 130 127 127 126 127 126 124 122 121 121 119 119 123 124 125 124 125 125 125 125 124 123 120 116 112 106 99 94 89 86 84 84 85 83 86 87 84 81 85 93 96 98 104 106 106 108 113 116 120 125 130 135 139 142 142 141 142 142 140 139 140 139 138 139 138 138 137 138 137 137 138 139 141 142 141 139 141 142 145 147 150 150 150 150 149 148 146 144 141 139 136 135 133 130 129 128 129 130 129 126 126 125 123 122 124 127 128 128 128 128 128 128 126 124 121 118 114 110 101 96 93 89 87 87 87 85 87 88 84 81 86 95 97 101 106 109 109 113 115 118 122 127 133 138 142 144 145 144 145 145 144 143 142 142 142 142 142 143 142 141 141 142 142 143 143 144 144 143 143 145 147 150 152 153 152 152 151 151 149 147 143 140 138 137 136 134 131 131 130 132 132 130 129 129 129 128 129 130 131 131 131 132 131 131 129 127 123 120 116 112 104 99 95 92 91 90 90 88 89 87 85 82 87 96 98 102 109 112 112 116 118 120 124 130 135 141 144 147 148 147 148 148 147 146 145 145 145 146 145 146 145 145 145 146 146 146 146 145 146 145 146 148 150 151 153 154 155 154 154 153 151 148 145 143 140 139 138 137 135 134 133 134 133 133 133 134 133 134 133 134 134 135 135 134 134 133 131 129 126 123 120 114 106 102 97 96 95 94 91 92 90 86 85 82 87 96 99 104 111 114 115 118 122 123 126 132 138 144 148 149 151 152 151 152 151 150 150 149 150 149 148 149 149 149 148 148 148 147 148 148 149 150 150 151 152 153 154 155 156 156 155 155 152 150 147 146 143 143 141 140 139 139 137 137 136 136 136 137 137 137 136 137 137 137 137 137 137 135 134 131 128 125 122 116 109 104 99 99 99 97 95 93 90 86 83 82 88 96 100 105 113 117 119 121 124 127 128 134 140 146 149 151 153 154 154 155 154 154 153 154 153 153 153 152 152 151 152 151 152 151 150 150 152 153 153 153 154 155 155 156 156 157 156 155 152 151 149 148 146 145 144 143 141 142 142 143 141 141 139 140 140 140 140 139 140 139 139 139 139 137 137 133 130 127 123 118 111 106 102 101 101 99 97 94 90 86 82 81 87 96 101 106 114 120 121 124 127 129 130 136 143 148 151 154 154 156 158 157 158 158 157 156 156 156 155 155 154 154 155 155 155 153 152 154 155 156 156 156 157 156 156 157 157 157 156 156 154 152 150 150 149 148 147 144 145 144 144 145 145 144 144 143 143 143 143 143 143 143 143 143 142 140 139 136 132 129 125 119 114 109 105 104 103 102 99 94 90 85 81 79 85 95 101 106 115 121 122 126 129 131 131 137 144 150 153 155 156 157 159 160 160 160 159 158 158 158 157 157 157 157 157 158 157 155 155 157 157 159 158 157 157 157 157 158 158 157 157 156 155 152 152 152 151 150 150 147 147 148 147 147 147 146 145 145 145 146 146 146 146 145 145 144 144 142 140 137 134 130 125 121 115 112 108 106 105 104 100 94 89 84 80 78 85 93 100 106 116 122 125 128 132 133 133 137 144 150 155 156 158 159 160 162 162 161 161 160 160 159 159 159 159 160 160 159 159 158 157 159 159 159 159 158 156 156 157 158 158 158 157 157 155 153 151 151 152 151 150 150 149 150 150 149 149 148 147 147 147 147 147 148 147 146 146 145 145 143 141 139 137 132 127 122 116 113 110 107 105 105 101 95 87 84 79 76 84 91 98 106 116 122 126 129 133 135 136 138 143 149 154 156 158 159 161 163 163 163 163 162 163 161 161 161 161 162 161 160 161 160 159 160 158 158 158 156 155 155 156 157 157 157 156 155 154 152 151 150 151 152 150 149 149 150 151 151 151 150 150 150 150 150 149 149 149 148 147 147 146 145 142 140 137 133 128 122 117 115 111 107 106 104 101 94 86 83 77 75 84 90 98 104 115 122 127 131 133 135 137 139 144 150 154 157 159 159 161 163 163 163 163 163 164 165 164 163 163 162 161 161 160 159 158 158 158 158 156 155 154 154 155 155 155 155 154 153 152 151 149 148 149 150 149 149 150 151 152 152 152 152 152 152 151 151 150 150 150 150 149 148 147 146 143 139 137 133 126 122 118 116 111 108 107 104 100 93 85 82 76 74 84 88 97 103 113 122 126 132 133 136 137 139 144 149 153 156 159 160 161 163 163 164 164 164 164 164 164 163 163 162 161 160 160 159 158 157 157 157 154 153 153 153 154 154 154 153 151 150 149 148 147 146 146 146 147 147 149 150 150 151 151 152 152 153 152 152 151 150 150 150 149 148 147 145 142 138 136 132 126 123 120 115 111 109 107 103 99 91 85 80 75 73 82 87 96 103 111 119 125 131 132 136 138 139 142 148 153 155 158 160 161 162 163 163 164 164 165 164 164 163 162 161 160 160 159 158 158 157 156 154 153 151 152 152 152 152 151 150 149 148 147 146 145 144 144 144 145 146 148 149 150 150 151 151 151 152 152 151 150 150 150 150 149 148 147 144 141 139 136 131 127 123 120 115 111 110 107 102 98 89 85 78 74 73 79 85 94 103 109 118 124 130 132 135 138 140 142 146 151 154 157 159 160 161 162 162 162 163 163 163 163 162 161 160 160 159 158 157 156 155 154 152 151 149 148 148 148 149 148 148 147 146 145 144 142 142 143 143 144 145 148 149 149 150 151 151 151 151 151 151 150 150 149 148 148 147 146 143 141 138 136 130 126 123 120 116 112 110 108 102 96 88 83 76 73 73 78 82 90 101 107 115 122 128 131 134 137 139 142 145 149 152 155 157 159 160 161 161 161 162 162 162 162 161 160 159 159 158 157 156 155 154 152 150 149 147 145 144 145 147 147 145 144 143 144 142 141 141 141 143 144 145 147 149 149 150 150 151 151 152 151 151 149 149 149 148 147 146 145 143 140 137 134 129 127 123 120 117 114 110 106 101 95 87 81 75 72 72 78 80 87 97 104 111 120 126 130 133 136 138 140 143 147 150 153 155 157 158 159 159 159 162 161 161 161 159 159 159 158 158 157 155 154 151 150 148 148 144 142 142 143 144 143 142 141 141 141 140 139 140 140 142 143 144 146 147 148 149 149 150 150 150 150 150 149 148 148 146 145 144 143 141 138 136 133 128 126 122 120 116 114 109 105 99 93 84 78 73 71 71 76 79 84 92 102 107 117 123 129 132 135 137 138 141 145 148 151 153 156 157 158 158 159 160 159 159 159 158 158 158 158 157 155 154 152 149 148 146 145 143 141 140 141 140 140 139 138 138 138 138 138 139 139 141 142 144 145 146 147 149 149 149 149 149 149 149 148 147 146 145 143 142 141 139 137 135 132 126 125 121 118 115 113 108 102 96 89 81 77 72 70 70 74 77 81 88 98 105 113 121 126 130 133 136 137 139 143 146 149 151 153 155 155 156 157 156 156 156 157 157 157 157 156 156 154 152 149 147 146 145 143 141 140 138 138 138 138 136 136 136 136 137 137 138 138 140 141 142 144 144 145 146 146 147 147 147 148 147 146 145 145 144 143 141 140 138 135 133 131 126 123 120 116 113 110 105 100 94 86 79 75 70 69 69 73 75 79 84 94 101 109 117 124 128 130 133 134 136 140 143 147 149 151 153 154 154 154 154 154 154 154 154 154 154 154 154 152 150 146 145 144 143 142 140 138 136 135 136 136 135 133 133 134 134 135 136 137 138 140 141 142 143 143 143 144 144 144 145 145 145 145 143 143 142 142 140 138 136 134 132 129 124 121 118 114 111 108 103 97 91 83 78 74 69 68 68 72 73 77 81 89 97 105 113 121 125 128 130 132 134 138 141 145 147 149 151 152 151 151 151 152 152 152 152 151 151 151 150 149 147 145 143 142 140 139 138 137 134 134 134 134 133 134 133 133 133 134 135 135 137 138 139 141 141 141 141 141 141 142 143 143 143 143 141 140 140 140 138 137 134 132 130 126 122 118 115 111 109 106 99 94 86 80 76 72 68 68 68 72 73 74 79 84 92 100 108 116 121 124 127 130 132 135 139 142 146 147 149 150 150 150 149 149 150 150 150 149 148 148 146 145 144 143 141 140 138 137 136 134 132 131 132 132 132 132 132 132 133 132 133 134 134 136 137 139 139 139 139 139 139 140 140 140 140 140 139 139 138 137 136 134 132 130 127 124 120 115 112 109 106 102 94 88 83 78 73 71 67 67 68 72 72 73 76 81 88 94 103 111 117 121 124 128 131 133 137 140 143 146 147 148 148 148 147 148 148 148 147 147 145 144 143 142 141 141 139 139 137 135 134 132 130 130 130 129 129 130 130 130 130 130 130 131 132 133 135 136 137 137 137 137 137 137 138 137 138 138 137 138 137 135 134 132 130 128 125 122 118 112 109 106 101 97 91 85 80 76 72 70 67 67 68 71 71 72 74 78 85 90 98 106 113 117 121 127 129 132 135 138 141 143 144 145 146 146 146 147 146 145 145 143 142 142 140 139 138 138 137 137 135 132 131 129 128 127 127 126 126 127 128 127 127 127 126 128 129 130 132 132 134 134 135 136 135 135 135 135 135 136 135 136 135 133 132 130 128 126 122 119 115 110 106 102 97 92 88 82 78 75 70 68 67 67 67 71 70 71 73 75 82 87 94 101 109 113 117 124 127 129 133 136 140 141 142 143 144 145 145 145 144 143 142 140 139 138 137 137 136 135 134 132 131 130 128 126 125 124 125 124 123 125 125 125 124 124 124 125 126 127 128 129 130 131 132 133 133 133 133 132 133 133 133 134 133 132 130 128 126 123 120 117 112 106 102 98 93 89 84 79 76 72 69 67 67 67 66 70 70 70 71 74 78 83 91 96 103 110 114 120 125 127 131 135 138 139 140 141 142 143 142 142 141 140 139 139 137 136 135 135 133 132 131 129 128 128 126 124 123 123 123 122 121 122 122 123 123 123 123 123 124 125 126 126 127 128 129 130 131 131 131 130 131 131 131 131 132 130 128 126 124 121 118 114 108 103 98 94 89 85 80 76 73 70 67 66 66 67 66 70 69 70 71 72 75 80 87 93 99 105 110 116 121 125 129 133 136 138 138 139 141 140 141 139 139 138 137 136 134 134 133 134 132 131 129 128 128 127 126 124 123 122 122 121 120 120 120 120 121 121 121 121 122 123 124 124 125 125 126 127 128 128 128 128 129 129 129 129 129 128 127 124 122 119 116 111 105 99 95 90 84 79 75 72 70 68 66 66 66 66 66 69 69 69 70 70 74 78 82 89 95 101 106 111 117 122 126 130 134 135 137 137 138 139 138 138 137 136 135 134 133 132 133 133 132 131 129 129 127 126 125 123 122 121 121 120 120 120 119 119 120 120 121 121 121 122 123 123 124 125 126 126 127 127 127 127 127 128 127 127 127 126 124 122 120 117 113 107 101 95 89 84 78 74 70 69 68 66 65 65 65 65 65 69 69 69 69 70 72 76 80 85 91 96 102 108 113 119 124 127 130 133 134 135 136 137 136 135 135 134 134 133 133 133 132 131 132 131 129 128 127 126 125 124 122 122 122 121 122 121 120 119 120 120 119 121 121 121 123 123 124 125 127 127 127 128 127 127 127 127 127 126 125 125 122 120 118 114 110 103 96 91 84 80 74 70 67 67 66 65 65 64 65 65 65 70 69 68 68 69 71 74 78 82 88 93 98 105 110 116 121 124 127 130 132 134 135 136 135 134 134 133 131 131 131 131 130 129 129 128 127 125 125 125 124 123 122 121 122 121 122 121 121 119 119 120 119 120 120 120 123 124 123 124 125 126 127 127 126 126 127 126 127 126 124 123 120 118 116 112 107 100 93 86 80 76 71 67 66 67 66 64 65 64 65 64 64 69 69 68 68 68 70 73 76 80 85 89 94 102 106 112 118 121 124 127 130 132 133 135 134 133 133 132 130 129 128 128 128 126 126 126 125 124 124 124 123 122 122 121 121 121 120 120 119 118 118 119 119 121 120 121 123 122 122 122 123 124 125 125 125 125 126 125 125 125 122 121 119 117 113 110 103 96 89 82 77 72 68 65 65 65 65 63 64 64 65 64 64 69 68 68 68 68 69 71 75 78 82 87 91 99 103 108 114 118 121 125 127 129 131 132 131 131 131 131 129 128 128 126 125 124 124 124 125 124 123 123 122 120 119 119 119 118 117 118 117 117 118 118 119 120 119 120 121 120 121 121 121 123 123 123 124 125 125 124 124 123 121 120 119 115 111 107 99 92 85 79 74 69 66 65 64 64 64 63 63 65 64 64 64 69 68 68 68 68 68 70 74 76 80 85 90 97 101 105 111 116 119 122 125 127 128 129 129 129 129 129 129 129 128 126 125 124 124 124 123 123 122 121 120 119 118 117 115 115 114 114 115 114 115 116 117 117 118 118 119 118 119 119 119 122 123 123 124 125 124 123 123 122 121 119 117 114 109 103 96 89 81 75 72 67 65 64 63 63 63 63 63 65 64 64 64 69 68 67 67 68 67 70 72 75 78 83 89 94 99 102 108 113 117 120 124 126 126 127 128 128 128 128 129 129 129 127 125 125 125 125 123 123 122 120 119 118 117 116 115 115 114 115 114 113 113 114 114 114 116 116 118 118 119 120 120 122 123 124 124 124 123 122 122 121 119 117 115 111 107 100 93 85 78 73 70 66 64 63 62 62 62 62 63 64 64 64 64 69 68 68 67 67 68 70 71 73 76 81 87 91 96 99 105 111 116 119 122 125 126 127 128 128 129 128 129 129 130 129 128 127 126 125 124 123 122 120 118 118 116 115 114 114 114 114 113 112 112 112 112 113 114 115 117 118 119 121 121 123 124 124 123 123 122 122 121 119 118 115 113 109 104 97 90 81 76 72 68 65 63 62 62 62 62 62 63 64 65 64 64 68 68 67 67 67 69 68 70 72 74 78 84 89 93 97 103 109 114 118 121 123 126 127 129 130 130 130 130 130 131 130 131 130 129 128 127 126 125 123 122 120 118 117 117 115 114 113 113 113 113 113 114 116 117 118 119 120 120 121 122 123 124 123 123 123 122 121 120 118 116 114 111 107 101 94 86 78 73 70 67 63 62 61 62 61 62 62 63 64 65 64 64 68 67 67 68 68 68 67 69 70 72 76 83 87 91 95 101 106 111 116 120 122 125 126 129 130 130 131 132 132 132 132 132 131 131 130 129 127 128 125 125 123 122 122 120 120 120 118 118 117 118 118 118 119 121 121 122 122 122 123 124 123 123 123 123 122 121 119 118 116 114 111 108 104 98 91 82 75 72 68 66 62 62 61 61 61 62 63 63 64 65 63 64 67 67 67 69 68 68 67 68 69 71 75 81 84 89 94 99 104 110 115 118 121 123 126 128 129 129 130 132 132 133 133 133 132 131 131 130 129 129 128 127 125 124 123 122 121 121 120 120 119 120 121 120 122 123 123 124 124 124 124 124 123 124 123 122 121 120 118 116 115 112 109 106 101 95 87 79 73 70 67 64 62 61 61 60 60 62 63 63 64 64 63 63 67 67 68 69 68 67 66 67 69 70 74 80 84 88 93 97 103 108 113 115 119 122 125 126 127 128 130 131 131 132 132 132 132 131 131 130 130 129 128 127 126 125 124 122 122 121 121 121 121 120 121 121 122 124 123 124 124 124 124 124 123 123 122 121 119 118 116 115 112 111 106 102 98 92 84 76 72 69 66 63 61 60 60 60 60 62 62 63 63 64 63 63 68 69 70 70 68 68 66 67 69 69 73 79 83 87 92 97 100 106 110 112 117 120 122 124 126 126 128 130 129 130 131 131 131 131 131 130 130 129 128 127 126 125 124 122 122 121 121 121 121 121 121 122 122 123 124 124 124 124 124 123 122 121 120 119 117 116 115 113 110 108 104 100 95 88 81 74 70 68 66 62 60 61 61 60 60 61 62 62 63 64 63 64 69 70 70 70 69 67 66 67 70 69 72 78 83 87 92 96 99 103 108 110 114 118 120 121 124 124 126 128 128 129 130 129 130 131 130 130 129 129 128 127 126 125 124 123 122 121 121 122 121 122 122 122 122 123 124 124 124 124 123 122 121 119 118 117 115 114 113 111 108 105 102 98 92 86 80 72 69 68 65 62 60 60 61 61 60 61 62 62 63 63 64 63 71 71 71 71 70 67 67 68 70 70 72 78 82 87 91 95 98 101 107 109 111 116 117 119 121 123 124 126 127 128 129 129 130 131 131 130 129 129 128 128 127 126 125 124 123 123 123 124 122 123 123 123 123 123 124 124 124 123 122 121 119 118 117 115 115 113 111 109 105 102 99 95 89 85 79 72 69 67 64 62 61 61 61 62 62 62 62 63 63 63 63 64 71 71 72 71 70 68 68 70 70 72 73 79 82 87 92 95 96 100 104 107 109 114 116 117 120 121 122 124 125 127 128 129 130 131 131 131 131 130 128 129 128 127 126 126 125 124 124 125 124 124 125 125 124 124 124 124 123 122 121 120 118 118 115 114 114 111 109 107 103 101 97 93 88 83 78 72 69 66 64 63 61 61 61 62 62 63 62 63 64 64 64 64 72 73 73 72 71 69 70 72 72 73 74 79 83 87 91 94 96 98 103 105 109 111 114 116 118 120 121 123 124 126 128 129 130 131 132 132 132 131 131 130 130 129 128 128 127 126 126 126 125 126 125 126 125 125 124 124 122 121 120 119 118 116 114 113 112 109 107 104 101 99 95 92 87 82 77 73 68 66 64 63 62 62 61 62 63 64 62 63 63 64 64 64 73 73 73 73 71 72 72 73 73 75 77 81 83 88 91 93 95 98 101 104 108 111 112 114 116 118 120 122 124 126 127 129 131 132 133 132 133 132 132 132 131 130 130 129 129 128 127 127 127 127 126 126 125 124 124 123 122 120 119 118 116 115 113 111 110 107 104 102 100 96 96 90 86 82 76 73 69 66 65 62 62 62 61 62 63 63 62 62 63 63 63 64 74 74 73 72 71 74 74 74 75 77 80 82 86 89 91 94 94 97 100 103 107 110 111 112 115 116 118 120 122 124 126 128 130 132 133 133 134 133 133 133 133 131 131 130 130 129 129 129 128 128 127 126 125 124 123 122 121 120 117 116 115 113 111 109 108 105 102 99 98 96 95 90 85 81 77 72 69 68 64 63 63 63 61 61 63 64 63 62 63 62 63 64 74 74 74 73 73 76 75 75 76 80 83 85 88 90 92 94 95 97 100 103 107 108 109 110 113 114 116 117 120 121 124 127 128 130 131 132 133 133 133 133 133 131 132 131 131 130 129 128 128 127 126 125 124 123 122 121 119 118 115 114 113 111 108 107 105 102 100 98 96 96 94 89 85 80 76 73 69 68 65 63 63 63 62 60 62 63 63 63 63 62 62 63 75 75 75 75 77 78 76 77 78 83 84 87 90 92 93 95 94 97 100 103 105 107 107 109 111 111 113 114 116 118 121 123 125 127 129 130 130 131 131 131 131 131 131 131 131 129 128 128 127 126 125 124 123 121 120 118 117 116 113 111 109 107 105 104 102 100 99 97 96 96 94 88 84 80 76 74 70 67 65 65 64 63 63 61 61 62 64 63 64 63 63 63 76 75 76 77 79 78 77 78 80 84 87 89 93 95 96 96 95 98 101 102 104 106 106 107 108 109 109 110 111 114 117 119 120 123 125 126 127 128 129 129 129 128 128 128 128 127 126 125 124 124 122 121 120 118 117 116 114 112 110 108 106 104 102 100 99 97 97 97 96 95 93 87 84 79 75 75 71 67 66 65 65 64 64 63 62 63 64 64 64 64 64 64 77 77 78 78 80 79 78 80 83 86 89 91 95 98 98 97 97 100 101 102 104 105 105 106 106 106 106 106 107 109 111 113 115 117 119 121 122 123 124 124 124 125 124 124 124 123 123 122 120 120 118 117 116 115 113 111 110 108 106 104 102 100 99 98 97 96 96 96 96 95 93 87 84 80 76 76 73 68 68 66 66 66 65 65 64 64 65 66 65 65 65 65 79 79 79 80 82 82 81 83 85 89 90 95 97 100 102 99 99 103 103 102 103 105 104 104 104 103 103 102 103 104 106 107 108 111 113 114 116 117 118 118 119 119 119 119 118 117 117 116 115 114 113 112 110 110 108 106 105 103 101 99 98 98 97 96 96 96 96 96 96 96 94 87 85 81 76 76 73 70 68 68 67 67 67 66 65 65 66 67 66 66 66 66 81 81 81 83 85 85 84 86 89 92 92 97 100 101 104 102 103 105 104 104 103 103 104 104 103 101 101 99 99 100 101 101 102 103 106 107 109 110 111 111 112 112 112 112 111 110 110 110 109 107 106 106 104 103 102 101 100 98 96 95 95 95 95 95 94 96 96 96 96 96 93 88 86 82 78 77 73 71 71 70 69 68 69 67 66 66 66 66 66 66 67 67 85 85 86 87 89 88 87 90 93 96 96 98 102 102 105 104 106 107 106 107 105 104 104 104 102 100 99 97 96 95 96 96 97 97 98 100 101 102 104 103 104 104 104 104 104 103 103 102 101 100 100 99 98 97 96 95 94 92 91 92 93 93 94 94 95 96 96 97 98 96 93 89 86 83 79 78 75 72 73 72 71 70 70 69 68 67 67 68 67 67 68 69 89 88 89 90 92 92 91 94 98 101 99 98 103 104 107 108 109 110 109 109 108 106 105 103 103 100 97 95 94 93 92 92 91 92 92 93 94 95 95 95 96 96 96 97 97 96 95 95 94 93 93 92 91 91 90 90 89 89 89 91 92 92 93 95 95 96 97 98 98 96 93 89 87 83 81 78 77 75 74 75 74 72 70 71 71 69 69 69 69 69 69 71 91 91 92 93 94 94 94 97 101 104 99 100 104 105 109 110 111 112 112 111 111 108 106 105 103 100 97 94 92 91 90 89 88 87 87 87 88 88 88 88 88 89 89 89 89 88 88 87 87 87 87 86 86 86 85 85 85 87 88 90 91 92 93 94 96 97 98 98 99 97 95 91 88 82 82 79 77 77 77 78 77 75 73 73 72 71 69 69 69 70 70 72 94 94 96 97 99 98 98 101 104 104 100 103 107 108 111 112 113 115 114 113 113 111 109 107 104 101 99 94 92 90 89 87 86 85 84 83 83 83 82 82 82 83 82 82 82 81 81 81 81 82 82 80 81 81 81 83 84 86 88 89 91 93 94 95 97 98 99 99 100 97 96 93 87 83 84 81 78 79 80 80 81 78 75 75 74 73 72 70 71 71 71 71 97 98 100 101 102 102 103 105 106 107 104 107 110 113 113 114 115 117 115 115 115 114 112 109 106 103 101 97 94 91 89 88 86 84 82 81 80 79 79 78 78 78 77 77 77 76 76 77 77 77 77 77 78 79 81 83 85 87 89 91 93 94 96 97 98 99 100 99 101 99 96 93 88 85 85 83 80 82 83 82 83 81 79 76 77 76 74 73 73 73 73 73 99 102 103 104 104 105 104 107 109 110 108 111 112 115 115 116 116 117 116 115 117 116 114 112 108 106 103 100 97 93 91 89 87 84 82 80 79 78 77 76 76 75 75 74 74 74 74 74 74 75 76 77 79 81 83 85 87 89 91 92 94 96 98 98 99 100 100 99 101 99 94 94 89 87 87 85 83 85 85 85 86 84 82 81 79 79 77 74 75 76 75 74 