P2
92
112
255
107 106 106 107 106 106 108 108 106 106 104 103 103 99 100 99 97 98 98 100 100 103 104 114 120 127 135 140 138 141 141 140 133 136 137 136 139 134 132 138 138 137 137 136 135 134 132 135 134 137 138 136 135 139 135 132 129 129 128 126 128 126 120 119 118 116 116 113 109 111 109 113 114 116 118 122 119 117 116 114 112 111 111 111 109 110 111 110 110 110 110 108 106 106 104 106 105 107 107 105 105 104 103 101 100 99 102 101 96 99 102 104 101 112 117 122 129 136 137 140 137 138 139 141 138 139 143 143 145 146 142 143 144 141 139 140 140 137 135 137 136 135 137 136 128 135 134 131 131 126 126 126 129 128 122 123 120 115 114 112 111 109 109 113 113 113 115 118 120 119 115 114 113 112 112 111 110 108 109 109 108 109 110 107 104 105 104 106 107 106 106 103 103 102 100 102 100 101 101 96 99 104 103 108 115 120 125 131 131 133 134 137 142 141 142 144 148 146 146 149 153 149 146 150 152 148 146 146 146 145 143 145 146 143 142 136 132 136 135 131 128 128 127 129 129 134 128 126 126 115 113 115 111 110 107 113 112 113 114 112 115 117 117 112 112 112 111 112 109 108 109 108 108 109 108 109 105 105 104 105 106 105 104 102 101 99 99 99 99 97 97 99 102 111 115 120 123 127 129 133 130 135 135 140 145 144 148 153 155 154 155 155 155 154 148 152 155 153 149 148 152 151 149 148 150 154 150 140 143 144 136 135 129 130 131 132 131 135 129 123 122 123 113 112 111 112 108 107 111 109 112 106 109 114 116 114 111 112 112 110 108 108 107 108 108 109 107 107 103 105 104 105 104 102 101 101 99 100 99 99 99 100 98 106 110 122 122 126 127 131 133 130 131 134 135 143 150 155 151 159 154 153 155 154 159 156 151 154 162 155 154 154 158 154 155 155 153 161 157 155 158 158 151 136 134 135 139 139 136 137 132 121 118 121 118 112 115 112 109 111 110 109 109 108 113 109 113 115 114 110 111 111 107 108 108 107 106 106 107 106 103 104 102 105 102 99 101 101 101 100 99 101 99 104 109 117 119 125 126 134 135 136 133 135 134 139 139 147 148 149 148 155 155 159 159 156 160 162 153 159 164 163 162 161 165 162 158 158 158 159 163 165 159 161 162 155 145 144 146 142 142 140 135 130 122 119 119 117 112 113 113 117 116 111 106 108 110 110 109 110 112 110 110 110 108 107 108 107 105 106 106 105 103 102 104 102 100 99 102 100 100 102 103 100 104 113 121 119 123 123 134 139 138 138 144 140 145 148 145 154 152 153 158 160 159 159 158 156 157 160 154 159 171 171 170 167 169 173 168 166 164 164 169 167 164 166 167 163 157 151 151 145 144 144 140 138 129 122 124 112 110 108 108 113 118 112 105 111 112 106 108 109 111 110 110 111 107 107 109 105 105 105 105 104 104 103 100 100 97 100 99 99 100 103 104 102 112 122 123 126 126 130 137 143 144 145 150 153 153 158 158 160 160 161 164 162 163 162 163 161 168 164 163 170 181 179 179 177 178 182 178 172 169 167 169 170 167 168 172 167 166 157 154 154 148 144 146 142 132 128 124 118 110 109 109 110 115 110 110 109 114 106 102 106 108 108 110 109 107 106 106 106 104 104 104 105 103 101 99 97 94 96 97 100 101 103 105 113 120 123 127 128 127 132 143 154 152 156 154 157 156 167 165 166 162 162 164 160 166 167 168 169 174 179 176 180 186 188 182 186 185 181 179 173 173 170 172 175 172 174 172 169 171 168 162 160 161 158 155 144 140 137 135 123 115 112 105 109 108 111 106 106 107 109 104 106 105 102 107 105 107 107 107 105 104 105 103 105 99 99 96 92 95 97 98 97 100 102 116 121 121 123 125 130 136 144 153 154 151 159 158 162 167 170 163 170 169 168 170 162 172 177 179 177 183 186 182 183 188 192 187 193 190 186 185 181 177 178 179 180 181 183 179 178 181 176 170 166 169 169 161 156 150 147 146 137 123 120 114 104 105 108 110 102 108 109 103 104 100 100 103 103 107 106 108 108 105 104 103 102 98 97 92 94 96 99 97 94 101 111 114 118 118 129 127 131 149 153 155 159 161 164 168 175 178 174 170 176 174 172 178 176 181 185 189 184 190 188 188 184 188 190 188 190 188 190 190 188 183 180 181 184 184 190 191 184 187 180 180 179 179 176 166 166 163 158 158 152 138 130 119 114 105 105 107 99 104 108 107 106 100 99 99 102 102 105 106 105 104 103 104 103 97 93 93 94 97 95 96 96 101 109 107 118 126 137 133 141 157 164 164 163 169 176 173 173 178 173 172 174 176 180 183 181 183 192 190 194 197 199 197 200 198 195 197 195 193 198 194 187 187 187 186 185 191 186 196 190 195 189 188 188 185 179 178 175 177 165 168 163 154 147 132 121 114 108 111 102 101 102 111 114 103 98 101 100 100 104 106 103 102 101 102 101 93 91 94 96 92 91 97 101 100 109 109 122 130 129 140 155 156 163 173 173 177 180 178 182 180 177 179 181 184 185 188 186 191 200 200 197 205 205 206 212 210 207 206 209 203 202 197 193 190 188 192 189 198 192 192 194 201 200 195 191 191 189 186 181 186 178 175 172 162 156 143 139 124 114 111 105 99 93 96 108 110 102 101 100 97 101 104 101 101 99 100 101 91 92 95 91 89 95 98 99 105 110 112 118 121 133 149 156 159 166 178 184 182 186 189 188 189 189 192 192 193 191 191 195 200 206 208 212 214 212 211 220 219 214 211 210 210 209 205 197 195 198 195 194 194 196 195 199 203 202 204 201 192 195 193 190 187 185 179 174 165 157 148 146 138 128 115 109 99 98 93 94 104 103 100 99 100 95 99 100 100 100 97 100 90 92 91 90 92 90 100 102 105 109 105 114 120 143 153 156 164 174 185 183 188 193 191 191 191 196 196 199 199 202 209 208 209 218 212 217 220 223 217 220 223 224 222 218 215 214 211 207 203 202 203 202 203 202 202 201 204 207 203 204 199 197 194 191 192 187 184 181 167 159 153 149 144 140 126 117 103 93 95 88 90 94 97 97 100 101 98 96 96 99 96 97 89 91 90 88 88 90 98 101 101 102 107 120 135 149 150 159 172 184 187 189 197 196 195 200 198 195 201 203 207 212 218 219 221 223 222 220 222 225 227 229 232 239 233 230 225 222 219 218 213 207 204 204 208 204 205 205 206 209 204 204 200 197 196 189 189 189 183 178 174 163 154 155 147 144 134 128 108 98 90 89 82 82 86 90 97 102 101 94 93 93 96 97 86 92 91 91 87 92 95 91 92 95 104 127 148 150 156 165 178 184 191 197 199 200 198 202 204 200 207 212 210 220 224 226 222 226 227 228 234 233 237 235 238 241 241 238 236 232 226 222 218 212 210 211 209 208 206 207 208 209 207 204 202 197 194 191 189 185 181 181 178 166 158 156 153 144 140 135 115 101 94 88 81 72 74 85 90 98 101 96 92 91 91 92 84 90 94 93 90 93 91 88 90 96 110 135 150 152 160 169 184 187 196 200 200 202 208 210 210 214 216 222 222 225 224 228 228 229 233 233 237 238 240 241 242 246 243 242 238 237 233 226 226 217 213 217 208 205 205 206 208 206 209 204 202 203 196 190 189 187 178 177 173 167 159 155 156 151 143 132 126 106 99 87 79 68 60 79 85 97 99 98 93 87 91 92 86 91 94 91 92 92 85 85 91 103 125 138 151 159 168 175 187 191 195 198 202 208 213 213 217 220 222 227 230 228 224 234 235 237 237 239 237 237 243 247 248 247 245 243 240 240 238 231 228 219 217 215 211 204 205 205 208 207 209 211 209 209 203 195 189 186 181 178 175 170 165 157 158 154 152 136 128 118 99 91 78 73 60 70 80 91 96 101 97 85 88 90 89 93 93 92 91 84 76 85 96 115 127 140 163 170 177 186 188 195 196 201 209 213 216 216 219 224 221 227 228 228 229 237 238 240 237 241 241 242 245 248 255 248 245 242 237 238 234 230 225 221 214 213 212 207 209 211 210 208 210 208 206 209 205 200 194 194 186 180 176 173 166 160 157 155 148 143 136 129 110 97 80 74 65 59 69 81 92 96 100 87 84 87 90 89 89 88 83 78 74 82 96 119 134 154 176 180 179 188 196 192 194 205 209 211 216 220 222 226 225 228 228 229 230 234 235 236 234 237 236 241 244 247 250 243 237 235 234 232 231 225 223 215 213 207 212 210 208 211 205 208 204 205 203 205 206 204 200 197 189 186 180 178 169 164 158 151 143 140 137 132 116 103 93 78 75 54 63 71 85 95 93 93 86 82 84 84 80 83 75 71 71 85 109 124 146 168 182 176 179 188 191 188 196 206 210 211 215 219 222 221 223 227 227 226 226 226 227 230 230 230 232 234 237 236 235 235 230 227 227 225 223 221 212 207 205 203 204 201 202 201 203 205 203 196 198 199 202 200 201 196 189 187 181 179 176 168 164 155 148 139 138 133 119 104 100 89 78 59 55 70 85 95 91 88 88 82 81 83 84 78 68 74 84 98 115 130 156 175 176 175 177 182 182 187 194 203 205 210 213 216 214 213 220 222 220 216 217 215 215 218 216 218 221 224 227 225 225 224 222 217 216 212 210 209 203 200 196 195 196 195 192 192 195 198 195 192 194 197 195 195 195 195 189 185 181 176 176 174 166 159 152 145 142 138 123 112 100 95 80 69 53 62 80 96 91 87 89 84 77 81 84 71 72 84 91 101 111 138 165 174 174 176 178 174 181 191 194 196 201 205 206 208 206 207 212 211 205 200 202 199 200 199 204 204 208 211 210 210 210 209 208 203 202 200 195 195 193 187 186 186 185 184 180 179 184 189 186 184 181 185 188 188 187 191 187 181 179 174 171 171 166 162 154 147 145 147 130 117 102 96 87 68 59 57 69 90 92 93 88 81 73 80 72 70 76 76 83 92 116 155 169 171 174 175 172 171 185 192 187 189 198 196 193 194 193 199 194 191 190 186 184 186 183 185 185 186 188 189 190 190 191 189 189 187 184 187 181 179 178 170 168 172 171 174 171 169 174 176 177 173 173 174 179 182 182 183 183 174 172 168 168 164 161 160 156 149 144 147 142 122 107 101 95 71 57 56 63 77 93 94 91 81 70 71 74 69 72 72 80 97 128 161 167 169 178 169 163 173 178 180 178 184 187 184 181 183 186 184 177 175 176 170 167 166 163 167 165 166 167 166 167 168 167 164 169 167 167 165 165 161 159 156 154 154 157 158 158 157 161 160 165 162 162 163 167 167 172 174 176 172 166 165 162 159 156 153 153 151 141 139 142 128 110 100 99 81 56 55 60 74 89 92 92 84 68 71 70 65 66 70 86 104 131 153 166 169 170 159 162 169 170 168 171 177 173 173 169 173 174 164 158 162 158 152 151 150 146 146 148 149 147 146 147 149 147 145 145 144 146 145 144 144 139 139 140 139 138 141 141 143 146 146 149 151 150 150 151 152 157 161 165 163 160 157 156 155 154 151 147 145 141 141 130 130 115 96 97 87 65 56 57 75 87 89 91 85 65 68 65 58 62 72 88 106 133 149 162 164 166 160 161 162 165 162 165 167 165 160 163 158 153 149 145 147 143 138 136 133 131 133 130 130 127 128 128 129 130 127 125 125 124 124 124 125 123 122 124 123 121 123 126 128 129 130 134 135 136 135 139 137 140 143 148 151 147 147 149 149 148 147 147 143 138 139 134 122 115 98 97 86 71 60 57 75 89 88 90 84 65 64 62 56 62 70 89 111 133 150 158 162 165 151 155 159 160 157 156 154 150 147 149 138 135 133 133 130 127 124 121 118 115 116 115 113 112 114 116 115 114 111 111 111 110 107 108 109 109 108 108 110 109 107 111 111 113 114 116 118 116 119 123 122 125 127 133 136 138 138 141 140 144 141 141 140 136 135 131 117 113 105 97 90 80 68 60 76 89 88 86 81 60 57 55 54 60 68 94 117 129 143 154 158 150 141 149 154 153 149 147 143 139 133 132 122 122 119 119 117 114 113 109 107 102 106 103 101 101 101 103 103 100 99 97 100 98 95 95 93 92 93 94 94 91 92 93 96 97 99 100 106 103 106 110 108 111 114 118 123 127 131 136 132 133 135 134 136 126 132 129 115 108 105 94 90 83 69 60 73 91 92 82 81 56 50 51 51 59 72 97 111 124 136 145 147 140 139 143 146 148 140 135 128 124 115 109 104 105 103 102 100 98 97 98 95 94 95 95 93 92 91 91 92 88 86 86 85 87 83 82 81 80 79 80 80 79 79 82 81 87 87 87 92 92 94 96 100 101 104 104 108 116 120 127 128 126 124 127 128 120 119 124 112 102 102 96 83 83 73 64 71 86 91 84 80 50 41 46 49 58 75 91 110 123 132 142 135 138 138 139 140 136 130 121 112 105 96 90 91 90 88 86 85 86 86 86 89 86 84 84 85 86 84 81 81 80 76 75 75 76 73 70 69 69 69 69 73 74 74 73 71 72 75 74 74 76 79 82 85 86 89 93 93 98 104 113 119 118 116 114 121 119 112 112 109 98 99 95 79 78 70 71 73 81 86 86 80 45 36 40 50 60 75 88 108 120 124 133 131 135 133 132 133 125 113 107 100 89 79 79 79 77 81 79 77 80 79 80 83 83 80 77 78 76 76 74 75 73 70 69 66 64 62 59 59 62 65 67 65 67 68 69 67 68 73 73 68 67 71 75 75 78 78 81 79 80 84 91 104 104 106 105 112 110 105 103 105 98 93 90 77 71 74 68 73 78 80 79 80 43 32 43 51 61 79 87 104 114 117 127 130 125 125 126 122 112 100 93 84 73 67 72 70 73 76 74 72 79 80 77 81 81 79 77 73 73 72 69 70 66 64 58 61 57 55 55 58 59 61 62 62 66 69 70 71 70 75 76 73 68 68 70 72 74 74 75 75 76 74 71 81 90 92 95 99 102 99 92 99 97 92 84 72 72 71 63 68 75 80 74 74 37 33 48 48 65 77 88 101 108 113 120 119 120 119 115 107 101 93 89 78 72 67 68 68 70 71 67 69 72 70 72 76 81 77 75 73 72 71 71 68 64 61 58 58 58 53 53 55 57 58 57 61 66 70 72 74 75 77 79 78 77 74 74 73 72 68 74 70 70 69 65 66 72 79 86 94 95 96 86 92 93 87 81 64 69 69 62 62 70 75 73 70 41 41 45 49 69 74 84 94 102 109 111 114 114 109 103 94 88 94 88 79 72 65 66 67 72 72 70 72 74 73 75 80 86 87 89 84 85 84 79 73 71 67 59 59 58 55 52 55 56 55 54 61 64 68 72 76 78 79 87 85 87 83 80 76 75 72 72 70 67 62 56 61 61 65 76 85 92 93 82 88 90 84 81 69 62 63 59 59 59 74 71 67 43 43 49 52 69 76 84 93 97 109 106 107 110 104 95 90 87 91 81 75 69 62 64 68 71 75 78 75 82 83 88 92 93 95 93 92 87 85 82 74 70 65 60 58 56 53 52 52 55 57 59 64 73 72 75 82 89 94 97 98 94 93 90 90 86 81 72 70 72 66 61 63 61 55 67 77 86 90 82 85 93 85 83 72 68 58 56 54 58 70 64 62 45 46 49 54 68 72 82 94 95 107 101 101 107 100 93 86 85 79 71 68 64 62 63 71 70 74 74 78 83 86 92 94 95 98 98 97 94 87 85 82 74 70 64 62 62 59 57 58 58 64 66 71 77 81 86 95 101 102 103 105 101 99 95 97 95 90 83 82 75 71 68 70 66 61 63 75 80 87 81 85 89 89 84 80 73 65 59 53 58 64 61 56 45 49 48 54 70 72 85 96 94 96 102 102 108 96 90 82 76 64 64 62 60 63 63 70 75 75 75 78 82 86 95 95 95 97 98 97 94 90 86 84 78 76 71 67 64 63 59 61 59 67 71 73 77 87 94 99 106 105 106 109 107 101 96 97 94 90 86 78 70 71 72 70 68 63 61 68 83 84 80 85 94 91 88 84 71 69 61 54 57 65 59 54 54 48 50 55 64 73 85 96 91 97 109 104 108 92 82 79 67 58 52 47 55 59 61 67 73 78 79 76 78 87 94 94 98 99 100 96 94 92 88 87 83 74 72 72 65 66 60 62 63 72 75 75 80 88 94 98 106 105 109 111 110 106 96 98 95 91 90 81 79 77 74 68 65 64 57 60 72 82 79 83 93 94 83 84 71 70 60 59 53 62 57 48 56 55 55 59 62 70 82 88 93 108 113 104 105 83 72 67 55 49 46 42 48 55 57 63 66 74 82 76 82 92 95 101 99 102 103 99 96 91 89 85 80 72 71 70 67 64 62 63 68 74 72 80 85 94 102 103 110 109 106 104 106 103 95 94 90 86 88 87 85 86 75 67 62 62 57 50 57 69 76 79 89 89 77 80 72 68 60 56 49 64 54 41 58 56 62 57 67 63 77 85 100 114 113 102 105 81 67 57 48 41 42 38 42 46 47 54 59 65 75 76 78 90 98 97 98 96 97 94 93 86 83 81 69 66 64 63 64 63 61 64 70 76 74 86 93 96 104 105 112 109 107 107 103 100 98 91 84 85 80 85 78 78 78 68 58 60 58 52 56 61 73 75 80 81 70 74 73 65 60 53 50 57 51 43 56 61 62 66 72 73 79 89 101 121 116 109 100 74 61 51 44 32 31 39 39 41 43 53 60 63 75 77 88 91 101 97 100 95 100 92 90 84 77 78 67 61 59 61 58 61 62 66 71 77 81 83 94 99 106 110 110 106 107 103 101 104 96 92 85 81 73 71 69 68 65 57 54 60 55 47 63 65 70 81 84 76 69 70 67 66 55 52 55 50 46 45 51 58 67 80 74 78 77 88 107 123 109 100 94 70 56 54 50 43 39 40 39 44 47 58 67 75 87 89 92 96 105 100 107 97 94 91 88 82 74 72 63 64 59 61 63 67 64 69 68 74 78 80 81 97 102 107 108 109 108 101 107 103 97 88 84 81 79 72 69 67 60 45 44 48 52 42 59 65 72 80 90 78 67 67 64 67 58 56 50 48 47 45 48 60 74 84 67 77 77 80 106 121 112 107 94 79 61 58 53 42 36 33 32 39 53 63 64 71 76 79 79 82 90 96 102 98 94 90 82 76 82 73 66 64 60 61 61 64 55 60 61 70 70 72 76 82 87 87 94 98 102 97 94 93 87 86 80 78 77 70 69 63 56 46 38 42 49 48 64 61 76 83 91 73 69 71 74 66 57 58 52 46 50 43 50 65 78 76 75 80 73 79 104 121 117 101 94 77 61 52 52 40 33 34 34 44 53 63 67 69 72 78 78 82 90 98 100 89 88 81 74 74 84 73 67 59 58 64 65 62 61 61 65 77 73 70 72 82 90 87 100 93 96 91 93 86 82 81 77 70 77 72 63 56 45 48 40 41 50 53 65 66 75 80 81 67 74 75 79 68 57 63 49 53 45 46 59 66 85 71 72 81 76 87 103 123 119 108 97 71 69 54 43 39 30 41 45 50 61 66 64 63 67 72 74 78 83 91 88 82 81 75 72 80 80 73 61 58 56 61 65 60 59 59 54 67 69 74 65 82 86 85 93 91 92 90 83 86 84 81 83 75 79 75 59 51 39 39 42 34 45 58 68 67 77 74 79 67 73 66 73 66 60 64 54 54 48 41 72 72 85 83 76 79 87 93 107 120 121 110 97 70 65 52 43 40 40 52 53 57 67 70 64 64 73 75 76 85 87 91 89 78 68 68 71 71 71 62 59 55 54 64 63 61 60 60 62 61 63 78 70 77 80 83 85 89 92 79 76 83 79 79 84 80 71 60 54 49 45 37 41 43 35 49 62 66 70 70 78 80 75 66 64 71 63 63 55 54 45 47 78 78 89 97 81 87 96 100 109 118 125 112 98 78 68 52 50 48 52 65 64 66 73 72 68 72 74 71 69 74 77 80 75 70 60 62 59 66 63 59 54 52 45 51 51 53 45 52 59 58 64 63 61 63 73 68 68 64 71 67 68 65 57 60 65 63 56 47 44 45 42 45 45 50 45 41 54 65 69 70 73 81 75 69 61 69 66 69 61 50 43 49 79 85 98 105 94 91 96 97 112 114 121 112 96 89 77 67 67 62 70 69 70 70 80 84 84 90 85 81 77 75 74 77 79 77 67 72 66 65 69 57 51 44 54 51 51 49 50 48 53 59 58 59 57 62 62 70 71 70 74 66 66 64 53 58 54 52 51 46 42 41 36 39 49 51 48 49 52 63 71 73 68 73 75 67 57 62 66 73 66 51 48 57 87 82 97 108 93 92 98 91 111 111 119 111 100 95 80 72 78 79 78 68 72 71 76 79 80 86 93 89 86 79 84 83 84 77 75 73 72 79 66 56 51 45 56 53 57 53 57 55 51 52 51 54 58 62 65 65 64 72 77 68 64 67 60 60 64 63 66 56 50 47 41 42 44 46 49 51 59 62 66 72 67 65 78 62 55 60 74 79 70 58 57 58 76 85 95 102 103 92 106 94 111 111 120 105 97 97 81 76 80 86 84 71 72 80 85 85 83 89 92 98 92 83 87 88 85 71 76 71 79 77 72 67 62 54 61 57 65 66 63 56 52 52 52 59 72 67 79 75 67 64 73 83 74 75 73 63 77 78 75 69 57 51 51 46 42 50 56 60 67 69 63 73 67 59 72 62 61 64 86 86 71 54 59 60 74 84 90 96 109 97 104 103 106 113 119 103 90 91 85 79 76 83 78 71 70 80 89 94 89 90 94 101 95 94 88 84 78 70 83 69 71 76 72 78 75 67 62 61 65 64 56 55 49 50 59 59 73 71 77 76 74 62 63 72 78 77 75 69 82 81 80 74 58 57 54 54 54 55 63 64 70 72 69 71 71 58 69 74 84 73 94 84 78 54 54 57 75 90 80 82 98 92 103 110 107 115 116 101 97 89 87 83 80 87 91 90 87 86 89 95 93 86 90 98 100 92 86 85 79 78 91 76 78 78 70 72 61 60 54 61 63 60 48 43 49 57 62 63 81 80 81 76 78 67 69 63 65 77 77 76 72 72 75 70 67 66 63 58 59 60 66 66 71 76 75 72 65 59 66 76 99 83 93 87 74 56 55 59 71 88 86 76 88 82 98 105 107 119 121 100 97 88 87 84 89 93 97 97 97 91 93 101 101 98 90 97 97 84 81 91 100 99 96 91 93 92 88 85 60 64 57 57 55 53 48 49 51 56 55 69 84 75 77 76 77 76 77 64 67 81 86 83 85 91 96 89 80 66 64 64 62 69 76 76 74 79 76 71 60 52 68 81 99 99 100 90 84 56 59 59 79 96 86 82 96 79 96 101 107 122 122 106 97 90 83 85 96 107 112 104 107 110 105 110 113 101 97 98 93 86 90 100 105 100 99 98 89 91 75 71 60 61 62 57 61 61 59 57 59 54 59 66 87 82 69 77 76 78 80 73 67 82 87 77 90 88 90 87 90 82 72 76 79 74 81 83 79 83 76 68 57 53 75 89 102 102 102 87 81 63 59 58 90 93 81 95 95 82 97 108 107 114 121 108 91 90 78 73 81 96 101 101 107 112 103 103 104 99 99 94 94 92 95 105 107 97 101 90 83 82 73 66 60 56 56 50 50 49 50 53 57 47 56 62 75 84 72 66 71 75 81 80 73 73 79 82 90 91 86 88 88 84 79 76 79 80 82 79 77 86 78 67 58 57 79 83 94 100 94 78 70 63 59 62 97 89 84 103 97 83 94 108 105 107 114 97 76 77 71 70 78 91 92 101 97 102 99 99 98 94 90 84 92 95 95 97 96 95 92 88 82 76 66 61 60 50 52 47 45 39 45 50 48 44 49 56 67 76 77 65 69 74 74 77 77 71 78 87 80 80 82 82 82 79 69 75 71 73 76 72 72 82 77 66 61 63 72 81 87 96 83 71 76 60 70 60 100 86 88 112 104 90 86 106 106 94 101 90 64 66 60 66 71 78 86 91 89 94 94 91 93 92 90 89 87 95 92 96 90 85 81 82 68 66 62 55 59 47 49 47 44 42 37 43 41 37 42 46 53 54 58 54 65 67 71 64 72 68 67 71 71 67 73 75 76 73 65 62 64 69 67 65 73 82 78 66 64 67 63 66 85 86 71 67 77 62 74 63 100 88 84 104 107 95 91 94 104 87 91 81 54 61 54 62 63 67 73 79 83 84 83 81 84 79 82 80 77 77 82 86 82 76 73 71 67 58 51 47 52 47 48 41 47 51 45 43 42 38 44 49 52 43 49 52 60 61 71 70 68 66 65 62 58 64 64 65 64 65 61 61 65 67 70 70 77 80 79 65 64 61 59 68 76 74 71 69 75 67 73 67 99 83 81 98 103 93 91 90 91 89 82 73 52 52 56 55 62 61 66 68 72 72 68 68 65 64 67 68 66 68 73 75 71 69 68 57 46 41 40 39 45 46 40 37 42 42 43 39 34 40 49 45 48 39 47 45 50 53 57 63 65 65 62 59 57 58 57 58 63 64 61 60 62 64 68 77 80 77 76 65 62 59 59 65 70 69 68 64 74 70 71 69 90 81 78 93 101 95 89 86 82 83 81 66 45 44 49 50 58 55 61 66 63 61 62 63 63 61 61 61 65 63 60 64 62 55 57 51 40 39 37 35 41 47 41 34 41 44 46 43 43 43 48 45 40 42 41 46 47 50 49 61 60 61 57 62 61 58 56 54 56 58 54 57 60 64 69 80 80 76 74 64 55 55 56 59 75 76 67 71 73 76 69 71 91 77 72 82 96 93 83 78 74 75 80 62 48 38 41 44 52 51 49 48 47 48 48 48 49 51 55 58 56 57 54 51 52 56 53 50 47 39 37 36 40 45 41 34 36 43 44 45 38 39 46 43 45 39 48 49 52 50 48 61 68 69 67 60 59 57 55 54 53 56 58 61 64 68 68 75 78 77 73 58 46 45 52 60 80 83 70 73 72 75 70 71 90 80 66 76 85 86 77 70 68 72 78 73 49 41 32 41 40 46 43 38 38 38 39 44 41 50 55 60 58 55 53 47 49 47 47 48 50 47 47 45 46 48 51 47 47 48 45 41 39 45 49 44 48 46 50 54 51 50 45 49 55 62 66 62 59 54 56 59 59 64 66 68 67 69 67 71 75 76 63 50 41 33 41 63 73 90 73 74 67 73 75 65 82 80 72 73 74 86 72 70 65 76 68 75 60 49 35 36 39 42 39 32 29 29 32 35 34 45 45 52 49 45 46 45 42 37 42 39 53 57 56 56 57 59 56 52 57 54 61 55 52 56 58 61 49 52 58 61 61 52 50 51 50 60 60 56 54 52 50 51 55 60 67 67 67 66 65 69 72 72 61 47 41 28 46 65 73 81 70 71 68 78 74 66 78 77 81 89 72 79 66 71 64 70 71 75 59 53 41 39 37 45 41 33 29 27 27 26 29 34 40 46 44 44 50 47 47 41 48 54 58 55 61 64 68 66 59 54 61 58 72 71 74 72 69 69 66 55 70 71 67 57 56 57 54 59 59 52 50 49 46 44 50 56 63 64 60 62 66 68 71 68 56 48 40 31 49 72 82 78 70 68 75 72 72 69 82 75 80 87 78 71 65 63 61 68 73 75 60 52 45 44 36 37 36 36 30 26 22 27 34 37 44 46 49 49 54 47 51 48 53 62 56 54 60 64 67 64 63 68 61 67 78 84 89 84 81 79 79 77 75 75 71 61 60 58 60 62 61 59 52 46 45 46 48 54 58 54 55 60 64 69 67 70 54 48 39 30 50 76 88 81 69 68 68 68 66 72 86 72 75 81 72 68 56 55 47 55 77 69 57 51 43 47 43 36 33 28 26 25 21 27 39 40 43 45 50 50 48 46 48 54 57 60 53 57 62 65 69 71 75 74 75 79 86 93 96 93 91 93 93 92 77 77 70 68 63 59 63 68 66 57 56 50 45 48 49 53 54 49 53 65 66 67 67 63 54 43 38 41 59 79 97 87 67 59 61 63 62 74 72 76 68 82 71 72 58 52 49 51 72 67 53 50 40 44 44 39 34 32 29 24 24 33 41 44 42 45 47 47 48 48 43 44 48 47 49 55 58 64 76 82 82 77 80 88 89 91 89 91 94 91 95 90 82 76 65 65 66 58 61 68 67 64 57 53 50 52 49 51 51 50 56 58 62 61 63 62 56 43 47 59 64 85 101 80 65 54 55 54 69 76 63 69 65 76 73 67 54 52 54 53 63 60 53 50 43 40 43 42 37 33 29 26 32 33 33 41 41 44 43 43 41 40 39 36 38 34 40 51 54 62 77 85 79 74 74 85 84 87 83 81 85 86 82 77 72 70 59 60 59 57 60 62 58 53 56 57 52 50 47 47 48 51 56 58 60 56 60 60 50 45 49 62 66 90 96 69 61 55 49 49 72 76 67 62 59 70 74 69 59 51 57 53 59 55 51 44 40 38 41 41 34 34 35 33 37 37 38 41 41 38 36 33 32 28 31 30 36 39 37 46 50 59 71 76 79 79 82 90 91 84 77 77 80 80 77 64 61 62 58 53 48 45 49 52 51 50 50 50 48 47 46 47 49 51 59 58 58 56 58 59 49 47 45 68 70 87 91 63 61 54 41 50 77 74 64 59 46 67 63 77 65 59 62 54 62 59 45 40 40 38 37 40 33 34 37 38 32 37 39 39 36 35 32 29 28 23 28 29 31 38 37 48 49 54 63 71 73 80 82 88 88 83 80 77 78 78 75 70 63 61 60 57 54 49 47 45 42 45 45 47 52 49 45 49 48 51 57 58 56 53 52 59 52 50 54 68 68 86 86 68 62 50 40 54 75 68 63 59 47 55 64 67 66 71 68 61 67 64 51 41 42 40 41 38 37 36 41 39 35 37 40 35 35 32 29 26 22 21 29 27 30 29 35 47 47 56 63 69 71 78 76 79 82 85 84 78 79 75 70 62 58 57 52 45 45 44 40 37 34 37 42 42 44 47 45 48 48 52 59 58 52 50 49 60 61 48 60 72 68 80 83 71 58 54 45 61 73 65 63 55 51 53 57 58 62 72 77 73 69 67 60 45 44 43 40 39 42 42 42 41 41 44 41 40 36 31 29 22 20 23 28 29 32 30 34 44 45 54 61 70 72 78 72 75 78 82 85 78 71 70 68 60 46 47 45 36 34 40 43 37 32 37 43 43 41 44 46 50 51 53 59 58 52 47 48 58 63 51 61 71 66 79 82 73 57 53 52 63 69 64 68 53 56 52 48 55 53 65 75 81 75 70 66 48 44 43 38 40 43 42 41 43 44 46 44 42 38 33 32 31 23 27 29 34 36 38 42 46 51 58 62 67 69 72 72 76 72 78 77 71 66 62 58 55 45 43 45 40 32 30 34 37 33 35 42 42 45 44 48 50 51 50 54 52 49 42 48 54 59 60 64 66 65 78 79 66 58 53 57 60 67 67 69 60 58 55 55 57 56 66 74 74 73 68 73 53 46 41 42 37 42 43 42 44 48 48 49 46 43 44 41 37 34 36 37 41 40 48 44 46 45 56 66 68 71 71 71 66 65 69 70 66 63 56 54 53 51 51 54 49 40 36 35 36 34 38 38 46 49 50 51 51 53 52 53 53 48 44 48 47 54 61 67 64 57 77 75 65 59 58 59 59 69 68 67 65 59 58 60 60 54 71 77 75 75 71 82 59 50 43 42 40 42 43 45 47 51 47 51 50 50 55 52 45 45 44 45 44 47 53 45 52 50 60 68 73 72 70 63 61 59 60 68 68 66 61 60 56 53 55 53 50 46 43 44 40 38 38 41 43 48 51 49 54 54 52 53 51 49 46 51 48 54 61 68 61 59 72 71 65 61 59 60 61 70 67 69 70 62 61 55 59 56 65 74 75 83 78 81 65 53 46 43 43 41 44 51 50 53 53 55 53 57 57 54 53 48 48 48 52 56 54 49 52 57 65 69 72 76 73 68 67 60 60 61 67 68 68 62 60 55 59 54 50 51 50 49 45 43 41 40 44 47 51 50 52 55 56 55 54 51 51 53 54 57 64 70 64 68 67 72 67 58 56 57 64 69 61 68 70 69 61 54 49 54 54 68 72 84 82 80 68 55 49 47 45 46 47 54 56 58 59 65 59 62 58 57 58 56 53 54 62 61 58 58 58 61 62 73 75 79 78 72 75 65 65 65 70 67 69 69 65 64 66 68 63 58 56 54 50 46 43 47 51 52 53 54 56 55 58 55 53 51 54 56 57 61 69 76 67 69 64 72 64 55 55 60 62 65 57 63 69 68 67 54 42 52 46 65 64 73 76 73 64 59 52 51 48 50 55 57 61 61 62 70 67 66 65 62 56 57 54 56 65 62 66 67 59 60 62 73 79 73 78 77 77 76 69 70 65 65 68 70 69 71 73 78 78 68 67 66 62 56 53 56 59 56 56 56 56 56 59 61 55 56 58 59 61 63 77 74 63 63 67 67 55 49 50 57 61 62 56 58 65 65 71 59 43 46 46 60 69 73 73 66 63 65 56 55 51 54 59 59 62 63 66 68 69 67 63 59 52 51 52 54 58 57 65 62 60 60 62 65 74 74 74 79 78 77 77 74 69 68 68 73 77 86 84 84 84 76 71 70 69 67 65 64 67 61 60 58 57 54 58 65 61 61 67 62 64 67 79 71 59 58 65 58 46 46 51 58 59 58 57 57 59 63 67 64 47 46 47 59 62 69 74 64 60 66 62 56 58 61 59 60 63 66 65 66 68 69 65 59 56 56 57 51 51 49 52 51 58 57 62 66 74 77 71 72 70 71 78 79 73 65 61 64 66 74 76 80 76 71 66 62 61 60 63 65 66 63 61 60 57 55 60 63 65 67 75 66 62 66 79 67 51 53 57 49 42 44 49 56 56 54 58 57 56 58 59 61 55 48 51 57 68 68 74 68 57 63 66 63 63 62 64 62 65 64 66 72 76 76 71 69 62 60 58 57 56 54 49 42 52 54 53 58 58 63 60 52 50 55 63 71 66 56 57 59 52 59 61 64 62 59 53 49 49 51 56 58 60 57 54 56 56 58 62 63 67 71 74 67 62 65 65 61 46 49 49 45 44 41 48 57 57 51 56 58 58 57 57 58 54 47 54 54 69 66 67 65 64 60 72 70 67 62 67 61 64 60 61 68 73 77 80 71 66 61 58 55 52 52 49 42 43 42 43 41 44 43 39 39 35 40 46 50 49 49 54 53 49 55 50 47 48 48 52 48 45 48 48 51 51 50 48 54 55 57 61 64 65 72 71 64 62 68 58 54 41 45 46 48 44 43 52 55 56 51 54 54 56 55 57 58 55 52 49 47 56 67 63 64 69 63 75 75 68 68 66 61 60 61 61 66 67 70 78 69 66 67 57 54 47 49 40 44 36 31 33 30 29 31 25 28 31 35 35 38 36 31 35 34 41 47 46 46 48 47 52 50 45 46 45 45 47 48 51 53 54 55 60 62 65 68 66 63 64 67 57 52 49 50 42 49 45 46 50 53 56 50 52 50 53 57 57 57 53 53 48 44 51 62 65 63 69 63 76 72 68 66 64 63 64 65 67 70 73 72 70 66 61 60 53 50 42 46 41 43 42 39 41 37 36 34 35 35 36 39 39 36 36 31 36 34 44 45 46 47 45 49 50 46 43 41 41 40 46 50 52 50 52 57 60 64 62 65 62 63 68 65 59 53 52 46 43 47 44 47 49 54 54 52 53 51 49 55 53 53 54 44 46 46 51 59 62 59 71 65 73 73 63 65 64 64 66 71 75 73 75 77 73 65 63 62 59 54 49 54 54 54 48 45 43 42 45 46 39 36 30 30 29 32 34 28 23 29 38 43 39 44 48 48 49 46 41 40 39 44 48 49 50 52 55 63 61 65 58 62 64 66 68 63 57 52 50 42 41 41 43 44 50 52 53 51 55 50 50 47 49 51 50 38 44 44 42 54 59 55 67 66 78 79 65 62 61 60 70 75 80 80 81 83 81 72 65 69 69 69 66 75 74 76 75 67 66 60 65 64 57 55 50 46 41 37 36 32 37 34 36 41 39 46 47 46 51 55 49 46 48 52 55 55 54 62 63 63 63 62 58 60 63 69 65 62 56 53 47 39 41 39 41 43 46 51 53 51 55 46 47 42 43 47 42 36 42 41 38 50 56 56 63 65 80 84 68 63 61 66 67 70 73 71 74 75 78 68 58 56 57 64 63 74 73 75 78 72 71 67 67 69 62 65 65 61 58 54 52 47 51 49 48 52 47 50 46 48 55 57 53 56 59 59 61 60 60 67 67 66 65 60 57 60 64 68 64 56 58 52 40 36 34 37 40 38 45 44 49 50 54 39 39 37 38 41 33 32 38 40 39 43 50 56 56 64 75 84 75 67 66 71 71 70 66 61 61 61 61 57 49 47 48 54 59 59 62 62 65 66 64 65 58 57 56 56 61 63 62 60 57 54 55 55 57 60 57 56 58 54 57 58 57 62 59 58 59 61 64 67 65 65 64 64 59 61 68 67 60 54 59 47 37 33 35 33 38 40 41 44 42 48 48 36 34 33 36 39 28 30 36 34 39 41 44 51 51 59 71 87 77 67 67 71 79 82 76 71 72 65 57 54 49 49 52 59 57 57 56 60 58 62 60 57 49 47 44 49 50 52 55 60 54 52 53 60 57 57 53 55 58 54 54 58 60 59 60 59 60 60 64 66 66 63 65 67 58 60 70 67 52 53 55 41 35 34 31 32 35 37 40 43 43 41 45 36 31 33 33 33 29 29 32 31 39 38 39 46 44 52 71 89 80 67 67 70 73 76 76 78 75 65 61 58 53 52 56 61 65 62 57 55 54 56 54 53 51 49 48 57 59 56 57 54 51 50 51 50 51 50 50 54 54 54 53 61 61 61 60 62 60 61 63 62 65 64 68 68 63 65 73 60 47 54 51 38 35 33 30 29 35 35 42 42 40 38 42 35 32 34 34 32 28 29 31 33 39 34 37 40 33 44 70 81 82 68 69 69 70 70 72 75 75 66 62 63 58 57 56 57 59 58 57 53 53 55 51 52 50 47 47 50 54 54 52 51 50 47 47 48 47 46 51 52 56 52 55 62 58 62 62 66 62 61 60 63 61 68 73 69 67 75 66 51 44 50 47 33 34 31 25 29 33 34 39 40 41 36 40 34 32 35 34 31 28 30 33 36 38 38 33 39 28 31 60 81 79 70 69 67 61 68 71 69 76 69 66 71 66 60 64 59 58 61 63 58 58 57 57 52 53 53 55 54 59 57 57 55 54 52 52 54 53 51 55 56 60 57 61 59 62 67 65 67 66 64 59 64 63 70 78 69 73 74 57 48 40 46 35 33 29 27 28 30 23 32 35 37 38 36 37 33 34 33 34 31 32 30 41 38 36 36 36 30 27 25 54 75 82 74 71 65 60 65 70 69 73 73 71 74 73 69 67 63 60 69 68 68 68 67 66 65 63 65 66 68 68 66 67 66 59 57 60 57 56 55 56 60 59 61 61 63 65 67 67 70 68 68 62 65 66 72 77 71 72 68 51 44 40 37 27 30 26 22 27 26 26 26 31 33 33 37 33 34 36 32 32 36 32 32 41 41 34 36 31 30 19 32 49 74 86 76 74 67 62 61 64 68 69 73 75 79 79 75 74 67 67 74 76 75 74 73 75 76 75 78 74 76 77 75 69 70 63 62 64 62 62 61 63 63 62 67 63 68 69 71 72 68 68 66 63 68 69 75 77 73 70 60 46 39 37 29 21 26 23 21 23 27 26 29 27 33 31 33 32 35 35 32 36 37 30 32 37 38 39 37 30 29 19 36 51 72 83 77 77 74 63 59 64 64 65 74 77 82 86 83 82 77 79 82 86 84 82 82 83 83 83 84 83 78 81 79 72 73 72 70 69 68 67 68 67 65 66 68 68 72 72 75 73 70 69 67 64 65 71 76 75 71 67 57 43 35 28 25 19 19 19 20 21 23 28 29 30 26 30 31 32 39 35 35 39 38 35 32 33 38 41 39 32 24 23 40 52 69 83 79 76 78 65 60 64 68 73 75 79 81 90 86 86 80 81 84 86 84 89 88 90 90 92 92 90 88 88 91 87 84 86 85 76 76 73 73 69 71 70 71 74 73 74 77 72 69 67 65 64 71 71 73 74 70 66 48 41 37 17 20 21 13 14 22 20 25 27 26 28 26 24 28 31 37 35 35 42 38 38 37 31 37 40 40 32 25 27 45 50 70 84 80 75 73 69 62 63 69 76 75 80 83 84 85 87 81 79 80 82 86 86 89 93 93 97 96 102 99 101 101 96 93 90 89 82 82 77 75 75 74 75 78 79 77 75 77 71 64 66 64 66 72 71 67 76 67 64 48 44 37 17 17 15 12 12 19 21 24 27 26 28 27 25 25 26 35 36 37 42 37 41 35 31 38 37 36 30 31 33 45 52 70 82 82 72 65 62 63 64 64 75 79 78 78 83 84 78 77 78 75 81 84 91 94 94 96 105 102 108 102 104 101 94 94 89 89 86 81 76 79 77 75 79 80 81 74 76 75 68 61 61 61 69 69 67 68 75 70 60 48 40 35 18 13 12 9 13 18 22 23 26 23 26 29 28 24 24 36 38 36 41 36 38 29 31 36 30 32 35 43 41 48 55 75 79 87 72 59 60 58 62 62 69 76 79 76 82 84 80 84 79 78 83 81 87 89 92 96 106 103 107 105 104 99 97 94 90 88 83 78 75 76 76 76 74 78 77 74 76 74 62 59 60 62 67 64 68 67 73 72 62 46 41 30 20 10 10 8 11 15 23 22 22 25 24 29 30 25 25 34 38 36 39 32 33 27 32 35 27 33 47 50 49 53 52 81 83 82 74 64 58 58 60 65 68 67 75 77 83 83 83 85 82 78 82 84 84 86 93 97 102 104 103 103 103 100 95 92 87 85 81 78 79 75 79 74 72 76 75 75 73 67 61 60 62 62 61 66 68 70 76 75 67 54 43 25 16 15 9 5 9 15 21 24 22 20 26 28 27 25 25 34 37 35 37 31 28 30 36 34 23 40 53 56 57 55 52 81 83 79 79 70 60 54 58 65 66 65 70 72 74 81 83 88 82 82 83 88 95 95 97 99 104 104 101 103 103 99 93 92 88 86 84 82 81 77 75 74 70 72 73 71 67 63 62 60 62 56 59 67 71 78 77 75 73 67 47 24 10 12 6 8 6 10 17 22 21 20 23 25 26 24 21 36 32 37 39 32 28 29 37 34 25 49 60 61 64 55 56 80 82 82 80 75 66 55 55 62 61 63 68 70 69 73 82 84 81 82 84 88 94 94 95 99 100 106 104 106 103 100 95 92 88 86 84 82 77 77 72 69 68 67 67 67 64 60 58 55 58 59 59 68 77 76 77 83 73 84 52 27 10 13 4 5 4 10 10 16 15 18 19 22 21 20 19 35 34 39 35 31 28 31 40 36 30 51 74 70 63 57 59 78 76 84 82 73 66 62 55 58 61 58 64 67 65 62 72 80 82 80 80 80 86 90 94 96 97 103 102 103 101 98 96 92 91 86 83 82 78 76 70 64 62 63 64 59 53 54 56 51 54 61 65 69 79 78 80 90 82 90 66 25 12 12 2 2 0 9 6 9 12 14 15 18 18 16 17 35 31 36 30 32 33 32 41 35 37 54 84 74 61 60 63 72 73 78 82 74 64 67 60 56 59 57 61 64 64 63 65 68 78 75 74 78 80 85 88 90 90 96 97 95 97 95 91 90 88 82 80 82 79 73 65 60 58 57 57 49 51 55 53 52 52 63 70 76 82 81 82 89 86 95 75 30 12 11 6 1 0 6 8 7 8 13 15 12 15 13 15 34 29 34 30 36 38 34 44 43 52 61 85 81 58 63 67 62 73 74 73 73 67 68 65 59 55 60 59 61 64 66 65 66 71 75 67 74 74 74 78 80 84 87 90 87 89 86 84 81 82 79 79 77 72 62 58 54 53 54 47 54 51 55 49 51 55 67 71 80 89 83 87 87 89 99 84 41 9 10 9 5 5 10 8 6 5 12 13 13 13 15 13 36 36 35 29 42 43 43 61 59 69 69 87 92 65 65 68 60 69 65 76 71 67 70 69 62 58 57 61 63 64 62 64 64 67 66 63 63 63 67 68 68 73 74 73 74 76 77 74 70 73 72 71 67 60 54 52 54 51 50 49 51 52 55 47 51 59 65 75 84 90 86 90 93 87 106 96 56 13 12 10 10 8 14 14 8 9 16 14 16 19 19 20 43 42 40 41 52 55 60 65 74 81 74 88 101 77 65 61 63 64 62 72 71 70 72 72 64 61 60 64 65 66 61 62 63 65 57 56 57 60 60 59 59 58 58 56 60 62 64 64 66 63 62 62 57 53 49 52 48 48 52 52 53 54 53 53 54 62 65 81 87 94 92 88 95 89 107 100 62 24 16 12 12 11 17 17 9 9 15 17 17 21 19 21 52 46 48 54 63 65 70 72 85 87 74 90 96 80 66 58 66 60 58 67 65 73 73 71 69 64 63 68 67 70 66 63 64 66 65 60 62 57 58 55 57 54 52 50 55 57 58 58 58 53 49 51 49 49 53 50 53 59 58 60 56 56 57 56 61 59 69 86 87 100 96 91 98 90 109 99 62 39 26 18 17 11 22 24 14 12 7 16 18 22 21 17 63 56 62 68 70 80 74 75 79 83 81 90 86 81 73 59 67 59 52 64 66 65 69 71 70 69 68 69 68 72 73 70 67 67 69 68 70 66 63 61 59 57 53 53 51 50 50 50 51 50 52 53 54 58 56 61 62 62 59 61 59 58 53 60 61 61 75 89 89 98 98 93 102 97 110 93 58 43 42 32 23 17 28 26 25 16 12 18 22 24 22 20 68 65 73 76 74 80 72 78 77 78 86 91 80 86 74 63 65 64 46 60 65 64 64 66 69 64 67 71 69 71 75 75 75 76 74 72 73 71 67 64 65 61 57 58 55 52 55 54 57 54 53 55 53 62 62 63 62 62 60 62 58 54 51 60 58 69 80 91 93 102 90 91 103 100 113 88 61 42 53 46 37 29 32 33 28 21 15 17 23 25 26 17 