P2
92
112
255
107 107 107 108 107 107 109 108 107 106 104 103 103 99 100 98 96 97 97 100 100 103 105 114 120 128 136 141 140 143 142 142 135 138 138 138 142 136 134 140 140 138 139 138 136 135 133 134 134 137 138 136 135 140 136 133 130 130 128 127 128 126 120 120 118 117 116 114 110 111 110 114 115 117 119 123 120 118 116 115 113 112 112 112 110 111 112 111 111 112 111 109 106 106 105 107 106 107 108 106 105 104 103 101 99 99 101 100 96 98 101 104 102 112 118 122 130 137 139 141 139 140 141 142 140 141 145 144 147 148 143 144 145 142 141 142 142 139 136 138 137 135 137 136 129 135 135 132 132 128 127 127 131 129 123 124 121 115 114 112 111 110 110 114 114 115 116 119 120 119 116 115 114 114 114 112 112 109 110 110 109 110 111 109 105 106 104 107 108 107 106 104 104 102 100 102 99 101 101 95 99 103 102 107 115 119 125 132 132 134 135 138 143 143 143 145 149 148 148 151 155 150 147 151 153 148 147 147 149 147 145 146 147 144 143 137 132 136 135 132 129 129 129 130 130 135 129 127 127 117 114 115 112 110 107 114 113 114 115 113 116 118 118 113 113 113 112 113 110 109 110 108 109 110 109 110 105 106 104 105 107 105 104 103 101 99 99 99 99 96 96 98 102 110 114 119 123 128 130 133 130 135 136 141 146 145 149 154 156 156 157 157 157 156 150 154 156 155 151 150 154 153 151 151 152 155 151 141 144 144 137 135 129 130 131 133 132 137 130 124 124 125 115 113 112 113 108 107 111 110 114 107 109 115 116 114 112 113 113 111 109 110 108 109 108 110 108 108 104 105 104 106 105 103 102 102 100 100 99 99 99 99 97 105 109 121 121 126 127 131 133 129 132 134 136 143 151 155 152 160 155 155 156 156 161 159 154 157 165 157 156 156 160 155 156 157 155 162 158 157 159 159 152 137 134 135 139 139 137 138 133 122 120 123 119 114 116 113 110 112 111 110 110 109 114 110 113 116 114 111 112 112 108 110 110 108 107 107 108 107 104 105 103 106 103 99 102 101 101 101 100 101 98 104 108 116 118 125 126 133 134 135 133 134 134 139 140 148 148 149 149 155 155 160 161 158 162 164 156 162 167 166 165 164 168 164 160 159 159 161 165 166 160 162 163 157 146 144 146 142 142 141 135 131 123 120 120 118 113 114 114 118 117 112 107 108 111 111 110 111 113 110 110 111 109 108 109 108 107 107 107 106 103 103 105 102 101 100 103 101 100 103 103 100 103 112 120 118 122 122 133 138 137 137 143 140 145 148 145 155 153 153 158 161 160 160 159 159 160 163 157 161 173 174 173 170 172 175 170 167 165 165 170 168 166 168 169 165 159 153 152 145 144 144 140 139 129 123 125 113 111 109 109 115 119 114 106 112 113 107 109 110 112 111 111 112 108 108 110 106 107 106 106 105 104 103 101 100 98 100 100 100 100 104 105 102 111 121 123 125 125 128 135 142 143 144 149 152 153 158 158 160 159 161 164 162 164 163 163 161 169 164 163 170 181 180 180 178 180 184 181 174 169 168 170 170 168 170 173 169 168 159 156 155 149 144 146 142 132 128 125 119 110 110 110 112 117 111 112 111 115 107 103 108 109 109 111 110 108 107 107 107 106 105 105 105 103 102 99 98 95 97 98 101 102 103 105 112 119 123 126 127 125 131 141 152 150 155 153 156 156 166 165 166 162 162 163 160 166 168 168 169 174 178 176 179 186 188 183 188 187 182 181 175 174 170 173 176 173 175 173 170 172 170 163 162 162 158 155 144 140 136 134 124 115 113 106 110 109 112 107 107 109 110 105 107 106 103 108 106 108 108 108 106 106 106 104 106 100 99 96 92 95 98 99 98 100 102 115 120 121 122 125 129 135 143 151 153 150 158 157 161 167 169 163 169 169 169 170 162 172 177 180 178 183 186 182 183 188 193 188 194 192 187 186 182 179 179 180 181 182 184 180 179 182 177 171 167 170 170 162 157 150 147 145 137 123 120 115 106 107 110 111 103 110 111 105 106 101 101 104 104 108 106 109 109 105 106 105 103 99 97 92 94 96 100 98 95 101 111 113 119 118 129 126 130 148 152 154 157 159 163 167 174 178 174 170 176 173 173 178 176 182 185 189 184 190 189 188 184 189 191 189 190 190 191 191 189 184 181 183 185 185 190 193 185 188 181 180 179 180 178 168 167 165 159 158 152 138 130 120 115 107 107 109 101 106 110 109 108 101 100 100 103 103 106 107 106 105 104 105 104 97 93 93 94 97 96 97 96 102 110 108 119 125 136 132 140 157 163 163 162 168 175 172 173 178 173 172 174 176 180 183 181 184 193 191 195 198 198 198 200 198 194 196 195 194 199 194 188 188 188 187 186 193 188 198 191 196 191 189 189 186 181 180 177 179 167 169 164 155 147 132 122 115 110 113 104 102 103 113 115 105 99 102 101 102 105 107 104 103 102 103 103 94 91 94 96 92 92 97 102 101 109 109 122 129 128 140 155 156 162 171 172 176 179 177 181 180 177 178 180 183 184 188 186 191 200 202 197 205 205 206 211 209 206 205 209 204 203 198 194 191 189 193 191 200 193 194 195 201 199 197 193 193 191 187 182 187 180 177 174 164 156 143 139 125 116 113 108 102 95 98 110 112 103 102 101 98 103 105 102 102 100 101 102 92 92 95 91 90 96 99 100 105 111 112 118 121 133 150 156 159 165 177 183 181 185 188 187 188 188 191 191 192 191 191 195 200 207 209 212 213 212 211 220 219 213 211 210 210 210 206 199 197 199 196 195 195 197 196 200 203 202 205 202 194 197 194 192 188 187 180 175 166 158 149 146 138 129 116 112 102 100 95 96 106 106 102 101 101 96 100 101 100 101 98 101 90 92 91 90 93 91 100 102 106 110 105 114 121 144 153 156 164 173 183 182 186 191 190 190 190 195 195 198 199 202 208 208 209 218 213 217 220 222 217 220 223 223 222 218 214 215 211 206 202 204 203 202 204 203 203 202 205 207 205 206 200 198 196 193 193 189 186 182 168 161 153 149 144 140 126 119 105 96 97 91 92 97 99 99 101 102 99 96 97 99 96 98 89 91 90 88 90 91 99 101 101 102 107 120 136 149 150 159 172 182 185 187 195 195 194 199 197 194 200 201 206 212 217 219 221 223 222 221 222 224 227 230 232 239 233 230 224 221 219 218 212 208 205 204 208 204 206 206 207 210 205 206 202 199 198 191 191 190 184 180 175 164 155 155 147 143 132 128 110 101 93 92 85 85 88 93 98 103 103 95 94 94 97 98 86 91 91 92 88 93 96 92 92 95 105 129 149 151 156 165 177 182 190 196 198 199 197 201 203 199 205 210 209 219 224 226 222 226 227 228 234 233 237 236 239 242 241 238 236 232 227 223 219 213 211 212 209 208 206 207 208 208 207 205 203 198 195 193 190 186 183 182 180 167 159 157 153 145 140 134 116 103 96 91 84 74 77 88 92 99 102 97 92 91 92 93 84 90 94 94 91 94 91 89 90 97 112 136 152 153 161 169 183 186 195 199 200 201 207 208 209 212 215 220 220 225 224 227 228 229 233 233 237 238 240 240 242 247 244 243 239 238 235 227 227 217 214 217 210 205 205 207 207 205 209 205 203 202 196 190 189 186 179 179 175 169 160 156 157 152 144 132 126 108 101 89 82 70 63 82 88 98 101 99 94 88 91 92 86 91 96 93 92 92 85 86 92 104 127 140 152 160 169 175 187 190 194 197 201 207 212 212 217 219 221 226 228 227 224 234 235 237 238 240 238 237 243 246 248 248 246 244 241 241 240 232 229 221 218 216 212 206 206 205 208 206 209 211 208 209 202 196 189 185 180 178 176 172 165 158 159 155 153 137 129 119 102 93 81 76 62 73 82 93 98 102 98 86 88 90 89 94 94 94 91 85 76 85 97 116 128 141 164 171 178 187 188 195 196 202 208 213 216 214 218 222 220 225 226 227 229 236 238 239 237 242 241 242 245 247 255 248 247 243 238 238 235 231 226 222 214 213 212 207 209 210 210 209 210 208 206 208 205 201 194 194 186 180 177 174 166 160 158 157 149 144 137 131 112 100 83 76 68 61 71 82 94 98 101 87 85 88 90 90 91 89 84 79 74 83 97 120 135 154 177 181 180 188 197 192 195 206 210 211 216 218 221 224 224 227 227 228 229 234 234 235 234 237 237 241 244 247 251 243 238 235 235 233 232 225 223 215 212 207 212 209 208 211 205 209 205 205 202 206 206 205 201 197 189 186 180 178 169 165 158 152 145 141 138 133 118 104 96 81 77 56 65 73 86 97 94 94 87 82 84 85 82 84 76 72 72 86 110 125 146 169 183 177 180 189 192 188 197 206 210 211 214 218 220 220 221 226 226 226 225 225 227 230 230 230 233 234 238 236 235 235 231 227 227 226 223 221 212 207 204 203 203 200 202 200 203 205 203 197 198 199 202 200 201 197 189 187 181 179 176 168 164 155 148 141 139 134 120 106 102 91 79 61 57 71 87 97 92 89 88 83 81 84 85 79 69 75 85 99 116 130 156 176 177 176 178 184 183 187 195 204 206 209 212 215 212 212 218 221 219 215 216 214 215 218 216 218 221 225 227 225 225 223 221 217 215 212 210 209 203 200 195 194 195 193 191 191 195 198 195 192 194 197 194 195 195 195 189 186 181 176 177 175 166 159 154 146 144 139 124 115 102 97 82 71 56 64 80 98 93 88 89 84 78 82 85 72 74 85 92 101 111 138 166 176 175 177 179 176 182 192 195 197 201 204 205 207 204 205 210 210 204 199 201 199 200 199 204 204 208 211 210 210 209 208 207 202 201 199 194 195 192 186 185 185 184 183 179 178 183 189 185 184 181 186 187 189 188 192 188 181 180 173 172 172 166 163 154 148 146 148 131 118 105 98 89 69 62 59 70 91 94 95 90 81 73 81 73 72 78 77 84 92 117 156 171 172 175 175 173 172 186 193 188 189 197 196 192 193 191 197 193 190 190 186 184 186 183 185 185 185 188 189 190 190 191 188 187 185 182 185 179 178 177 170 167 170 170 173 171 168 173 175 176 173 173 175 179 182 183 183 183 174 172 168 169 165 162 161 157 150 145 147 142 123 110 105 97 73 59 58 64 78 95 95 91 81 71 72 75 70 73 73 81 97 129 163 169 170 179 170 164 174 179 180 178 183 186 183 180 182 184 182 176 174 174 170 167 166 163 167 165 165 167 166 167 167 167 163 167 165 165 163 163 159 157 155 153 153 156 156 157 156 160 159 165 161 161 163 168 167 172 174 176 171 165 165 162 161 158 153 153 150 141 139 142 128 111 102 101 84 58 56 61 74 91 93 93 84 68 72 72 66 67 71 87 105 132 155 168 171 171 160 163 170 171 168 171 176 172 172 168 172 172 162 156 161 157 151 150 149 146 146 148 149 147 146 147 149 145 144 143 142 144 144 143 142 137 137 139 138 137 140 139 141 145 145 149 150 149 149 152 153 158 162 165 163 161 157 156 157 155 152 147 145 141 140 130 129 115 97 99 89 66 57 58 75 87 90 92 85 65 69 67 59 64 73 89 108 134 151 163 165 167 161 162 164 165 162 164 166 164 158 161 157 151 147 144 146 142 138 135 133 130 132 130 131 127 128 128 129 129 126 123 123 122 123 123 123 121 120 122 120 119 121 124 126 127 128 133 134 135 134 139 138 141 146 150 152 149 147 150 151 150 148 146 143 138 138 134 121 114 97 99 88 73 62 58 75 89 88 90 85 65 65 63 57 63 71 89 112 134 151 159 163 166 152 156 159 159 156 155 153 148 145 148 137 133 132 132 130 126 123 120 117 115 116 115 113 113 114 115 115 113 110 110 109 108 105 106 108 107 106 106 108 107 105 109 109 111 112 114 116 114 117 122 122 126 128 135 138 139 138 141 142 146 143 141 140 136 134 130 117 112 104 98 91 81 69 61 77 89 88 86 82 59 58 56 56 62 68 95 118 130 145 155 159 151 141 149 153 153 148 145 142 137 132 131 121 121 118 119 116 114 113 108 106 101 106 104 101 101 101 102 103 100 98 96 99 97 93 93 91 91 91 92 92 89 90 91 94 94 96 98 103 100 103 108 108 111 115 119 125 128 131 136 134 135 137 135 136 126 133 129 115 107 104 94 91 85 71 62 73 91 92 83 82 56 51 52 52 59 71 97 112 126 137 146 148 140 139 142 146 147 139 134 127 122 114 108 103 104 102 102 99 98 97 97 95 93 95 95 93 92 91 90 91 87 86 86 84 86 82 80 79 79 77 78 79 78 78 80 79 85 84 83 88 88 91 93 98 100 103 104 109 116 120 127 129 128 125 128 128 120 120 124 112 103 101 95 83 84 74 66 71 86 91 85 81 50 41 48 51 58 74 91 111 124 133 144 136 138 138 139 139 135 128 120 111 104 94 88 90 89 87 86 85 86 86 86 88 86 83 84 85 86 84 81 81 80 76 75 75 75 72 69 68 68 68 67 71 73 72 71 69 70 72 72 71 73 76 79 82 84 87 91 93 98 104 113 118 118 117 115 121 118 112 113 109 98 99 95 79 78 70 72 75 80 86 87 80 44 36 42 52 60 74 88 108 120 125 134 131 135 132 131 132 123 112 105 98 88 77 78 78 76 80 79 78 80 79 79 82 83 80 77 78 76 77 74 74 73 70 69 66 64 61 59 59 61 63 66 63 65 66 67 65 66 71 71 66 65 68 72 72 76 76 79 79 79 83 90 104 104 107 106 111 109 105 102 105 99 93 90 77 72 74 69 74 78 79 79 80 43 33 45 53 61 79 87 105 115 118 127 129 125 124 124 120 111 98 91 82 72 65 70 70 73 76 74 73 79 80 77 81 81 79 77 74 74 72 69 70 66 64 58 61 57 55 55 58 58 61 61 61 65 67 68 70 69 73 74 71 66 66 67 69 71 71 73 74 74 72 70 80 90 93 95 98 101 99 92 99 97 92 84 72 73 72 64 70 75 80 73 74 38 35 50 50 66 76 87 101 108 114 119 118 118 118 113 105 100 91 88 77 71 66 67 67 69 71 67 69 72 70 72 76 81 77 75 74 73 72 71 68 63 61 58 58 58 53 54 55 57 58 56 61 66 70 72 74 74 76 78 78 77 73 72 70 70 65 71 67 68 67 63 65 71 79 85 93 94 95 86 92 93 87 81 64 70 70 64 64 70 74 72 70 41 42 47 51 69 73 84 94 103 109 110 113 112 108 102 92 87 93 86 78 71 64 65 66 72 72 71 73 75 73 75 80 86 88 89 85 86 85 80 74 71 67 60 59 59 55 53 56 57 56 55 61 64 68 72 76 77 78 87 84 86 82 79 75 73 69 71 68 64 60 55 61 60 65 75 84 92 91 82 89 90 83 81 69 62 63 60 60 59 73 70 66 43 44 50 54 69 75 84 93 97 109 105 106 108 103 94 88 86 90 80 74 69 61 63 67 70 75 79 75 83 84 89 93 94 96 93 93 89 87 83 75 71 66 61 59 57 54 53 53 56 58 60 64 73 72 76 82 89 93 97 98 94 92 90 89 85 80 71 69 69 64 60 62 60 55 67 76 85 90 82 85 93 84 82 73 68 58 57 55 58 70 63 62 45 47 51 56 68 72 82 95 96 106 101 99 105 99 92 85 84 78 71 68 64 62 63 70 70 75 75 79 83 87 93 95 96 99 98 98 94 88 86 82 74 70 65 63 63 60 58 59 59 65 67 72 78 81 86 95 100 101 102 105 100 98 94 96 95 90 83 82 73 69 66 69 65 60 64 75 80 87 81 85 88 88 83 80 73 65 60 54 58 63 61 56 45 50 50 57 70 73 86 97 94 96 101 100 107 95 89 81 75 64 64 62 60 64 64 71 75 76 76 79 83 87 96 96 97 98 99 98 95 91 87 85 79 76 71 68 65 63 59 61 60 68 72 74 77 87 95 99 106 105 106 109 107 101 96 96 94 89 85 77 69 69 70 68 67 63 62 69 83 84 80 85 94 91 87 83 72 69 62 56 57 64 59 54 55 48 52 57 66 73 87 97 92 97 107 102 106 91 81 79 66 58 53 48 56 60 62 68 74 79 80 77 79 89 95 96 99 100 101 96 94 92 89 88 83 75 73 72 66 67 61 62 64 73 76 76 80 88 95 99 106 105 109 110 110 106 96 98 95 91 90 81 79 75 72 66 64 63 57 61 72 82 79 83 93 94 82 84 71 70 61 60 54 62 57 48 57 56 57 61 64 71 83 89 93 108 111 101 103 82 71 66 55 49 47 43 49 56 58 64 67 75 84 78 83 93 96 102 100 103 104 100 97 91 90 86 81 73 72 71 67 65 63 63 69 75 73 80 86 95 103 103 110 109 105 103 106 102 94 94 89 86 87 86 85 84 73 65 61 62 57 50 57 69 76 78 88 89 76 80 72 68 61 58 49 63 54 41 59 57 64 59 68 63 77 85 100 114 113 100 103 80 66 57 48 42 43 39 43 47 48 54 60 66 76 78 79 91 99 98 99 97 98 95 93 86 84 82 70 67 64 63 64 64 61 65 71 77 75 87 94 97 105 106 113 109 107 106 102 99 97 90 83 84 79 84 77 77 76 66 57 59 59 53 56 61 73 75 80 81 69 73 73 65 60 54 50 57 51 42 57 62 64 67 73 74 79 89 101 121 115 108 99 73 61 51 44 32 31 40 40 42 43 54 61 63 75 78 89 91 102 98 101 97 101 93 91 85 78 79 68 61 60 62 59 62 63 67 72 78 82 84 95 101 108 111 110 107 108 103 100 103 95 91 84 80 72 70 68 67 65 55 53 59 55 47 63 64 70 80 84 75 68 70 66 66 55 52 56 50 46 45 52 60 68 80 74 78 76 87 106 122 108 100 93 70 56 54 50 43 39 41 40 45 48 59 69 75 88 89 92 96 105 100 107 98 94 91 89 83 75 72 64 65 60 62 64 68 65 70 69 75 79 81 83 99 103 107 109 109 108 101 107 103 97 87 83 80 79 71 69 66 60 44 43 48 52 43 59 65 72 80 89 77 67 67 64 67 58 57 50 47 46 46 49 62 75 83 68 77 75 79 105 121 111 106 93 79 61 58 53 42 36 34 34 41 54 65 65 72 77 79 79 82 90 96 101 98 94 90 82 77 83 74 67 65 61 62 62 65 57 62 63 72 72 74 77 83 88 88 94 98 102 97 94 93 87 86 79 78 76 69 68 62 55 46 38 42 49 49 65 61 76 83 91 74 68 71 73 66 58 59 52 45 49 44 51 66 81 76 76 80 72 78 104 120 116 100 94 78 62 53 53 41 34 35 36 46 54 65 68 70 73 79 78 82 90 97 100 89 88 81 74 74 84 74 68 60 59 65 67 65 63 64 67 79 74 71 73 83 91 88 101 94 96 91 93 85 82 80 76 70 76 71 62 55 45 49 40 41 50 53 65 66 76 80 81 68 75 75 79 68 58 63 49 52 45 47 59 66 87 72 72 80 74 86 103 122 118 108 97 72 70 56 45 41 32 43 47 52 62 68 65 64 68 73 74 78 83 90 88 81 80 75 71 79 80 73 61 59 57 63 67 63 62 62 56 69 70 76 67 84 87 86 94 92 92 90 82 85 84 80 83 74 78 74 58 50 39 40 43 34 45 58 68 67 77 74 80 68 74 67 74 66 61 64 53 53 49 42 73 73 87 84 76 78 85 91 107 119 120 110 97 71 66 54 44 41 42 54 55 59 68 71 65 65 73 75 76 84 86 90 89 77 67 67 70 70 71 62 59 56 55 66 65 63 62 62 63 63 65 80 71 78 81 83 86 89 91 79 75 82 78 78 84 79 71 59 53 49 47 38 41 43 35 50 62 66 70 70 78 81 77 68 64 71 64 63 54 54 47 48 79 79 91 97 81 86 94 98 109 118 125 112 98 78 69 54 51 49 53 66 66 67 74 72 67 71 74 71 69 74 76 78 74 68 58 61 58 65 63 59 54 52 47 54 53 56 47 53 61 60 65 64 63 65 74 70 68 64 71 66 67 64 56 59 64 63 56 47 45 46 43 47 46 51 45 41 53 65 69 70 73 82 76 70 61 69 66 68 60 49 44 50 80 86 99 106 94 90 95 96 111 114 120 112 97 90 78 68 68 64 72 70 72 71 81 85 84 89 85 81 77 74 72 75 77 75 66 72 66 65 68 57 52 46 56 53 54 51 52 50 54 60 59 60 60 64 64 72 72 70 73 65 66 63 52 57 54 52 51 47 44 42 37 39 50 51 48 48 52 63 71 74 69 74 76 69 58 63 66 72 65 51 49 59 88 83 99 109 93 91 96 89 111 110 118 111 101 97 81 74 80 82 80 70 74 72 78 79 80 85 92 89 86 78 82 81 81 75 74 73 73 79 65 57 53 47 58 56 59 56 59 57 54 55 52 54 59 63 67 66 65 71 77 67 64 67 60 60 64 63 66 56 50 46 41 42 44 48 51 52 59 62 66 72 68 66 79 64 57 61 73 78 70 58 59 60 76 86 96 103 103 92 104 92 109 110 120 106 99 99 82 78 82 89 87 73 74 81 87 86 84 89 92 98 92 82 85 86 83 70 75 70 79 78 72 68 63 57 64 59 68 68 66 59 55 54 53 58 72 66 79 76 67 64 72 82 74 76 74 64 77 77 74 69 57 50 51 47 43 51 58 60 67 69 62 73 67 60 73 63 62 64 86 86 72 55 60 62 74 85 91 97 109 96 103 101 104 112 118 103 90 91 85 80 78 85 80 73 72 82 91 96 89 90 94 102 97 94 87 83 75 67 82 68 70 77 73 79 77 69 64 63 67 67 59 57 53 53 60 60 74 71 77 76 74 61 63 72 78 78 77 70 81 80 78 72 56 55 53 53 54 55 63 64 69 71 69 71 72 58 70 75 85 74 95 84 79 56 56 59 75 91 81 84 98 92 101 107 105 114 116 100 97 90 88 83 81 89 93 93 89 88 91 97 94 86 90 98 101 93 86 84 77 75 89 75 75 77 71 74 63 62 56 63 65 63 51 45 52 56 61 64 82 80 80 76 77 67 69 63 65 77 78 78 72 71 73 68 65 65 61 57 58 59 65 66 70 75 75 72 66 59 67 77 100 83 93 87 76 58 57 62 71 88 87 78 89 82 96 102 106 119 120 99 96 88 87 84 89 93 98 98 98 92 95 103 102 98 92 97 98 86 81 91 98 98 95 88 91 90 86 86 60 65 58 59 57 56 51 50 51 56 53 68 83 75 76 75 77 76 78 64 66 81 86 83 84 91 95 88 78 64 62 62 61 68 75 75 72 77 75 71 61 53 68 83 100 99 100 90 86 58 59 61 79 96 87 83 97 79 95 99 106 122 121 104 96 90 82 84 96 107 112 106 109 112 107 113 115 102 98 100 95 88 91 100 102 98 97 94 86 90 75 71 60 62 63 59 63 63 60 57 59 54 57 64 85 80 68 76 76 79 79 73 66 82 87 76 89 86 87 84 87 79 69 73 77 72 80 82 77 81 75 67 58 53 75 90 102 103 102 88 82 63 58 59 90 93 81 96 96 83 96 105 105 113 120 106 89 89 78 74 82 97 101 103 109 115 103 103 105 100 99 95 97 95 96 103 105 95 98 87 81 82 73 65 60 56 57 52 52 50 51 53 57 46 53 59 73 83 71 65 71 75 80 78 71 71 79 80 89 89 83 86 85 82 76 73 77 78 81 78 75 84 77 66 57 57 79 84 95 100 94 79 69 62 60 64 97 89 84 104 99 85 93 106 103 105 112 95 74 77 72 71 79 92 92 102 98 104 101 99 98 93 90 84 94 97 94 95 95 93 90 87 81 76 66 61 59 49 53 48 46 40 46 50 48 43 46 53 64 75 77 66 70 73 73 76 76 70 77 85 78 78 79 80 81 76 66 72 70 71 74 70 70 80 76 65 60 63 73 82 88 97 83 71 75 59 70 63 101 86 88 112 105 91 85 104 104 92 100 88 64 65 60 66 73 80 86 92 90 94 94 91 93 91 89 89 88 95 90 95 88 84 79 80 68 65 62 54 58 46 50 49 45 44 38 43 39 34 39 43 51 53 59 55 66 66 71 63 70 66 67 69 69 64 70 72 72 70 62 59 62 67 65 64 70 80 76 65 62 67 65 67 86 87 71 67 78 62 74 64 100 88 84 104 107 95 93 95 101 85 89 79 53 60 54 62 63 67 72 78 83 84 83 81 84 78 82 80 78 79 81 85 80 75 73 71 66 57 50 47 51 46 49 43 48 52 46 43 39 35 41 47 51 43 49 52 60 61 70 69 66 64 63 60 56 61 61 62 61 62 59 59 64 66 69 69 75 78 77 64 64 62 60 69 78 74 72 70 75 67 73 68 99 83 82 98 103 92 91 90 89 86 80 72 52 52 55 54 61 60 65 68 70 70 67 67 64 63 67 69 68 69 73 74 72 70 70 58 46 40 39 38 44 45 41 39 43 43 42 37 32 38 47 44 48 40 48 46 51 53 57 62 64 65 61 57 55 56 55 56 61 62 59 58 61 63 67 76 78 75 74 64 62 60 60 66 71 69 68 65 74 70 72 71 90 81 79 93 100 94 87 86 80 81 79 65 45 44 49 49 58 55 60 66 62 59 61 62 62 61 62 63 68 65 62 66 65 57 59 53 41 40 38 36 42 47 42 36 42 44 44 42 41 42 46 44 40 43 42 48 48 51 49 60 59 61 56 62 60 57 55 53 54 57 53 56 59 63 68 78 79 76 73 63 54 56 57 59 75 76 67 72 74 76 71 73 90 77 74 82 95 93 82 77 71 73 78 61 48 37 40 43 51 51 49 48 47 47 48 48 49 52 56 59 58 59 55 52 53 57 53 50 47 39 38 37 41 46 42 34 37 42 42 44 36 38 45 43 45 40 49 50 53 52 48 61 67 69 67 59 59 56 54 53 52 55 57 60 63 67 68 74 78 77 72 57 45 45 52 60 79 82 70 73 73 75 72 72 89 81 67 76 83 86 76 68 65 70 76 72 49 41 32 41 41 47 43 38 38 38 39 43 41 51 56 61 59 56 53 47 50 48 48 48 50 48 48 46 47 49 52 48 48 48 44 39 37 43 48 44 48 46 50 55 52 51 45 49 55 63 66 62 59 54 55 58 58 63 65 67 66 68 67 71 75 77 63 49 40 33 41 63 73 89 73 75 68 75 77 66 82 82 73 73 73 87 72 69 62 74 66 74 59 49 36 37 40 43 39 32 29 29 32 35 35 46 47 54 50 46 47 45 43 37 42 39 53 58 57 58 59 60 57 53 57 54 60 54 51 54 56 60 48 52 59 62 62 53 50 52 50 61 60 56 54 52 50 51 55 60 66 67 67 66 65 69 73 73 62 46 40 28 46 65 73 81 69 72 70 81 76 67 80 78 81 89 72 81 65 69 62 68 69 74 58 53 41 39 37 45 41 34 30 27 27 27 30 35 41 48 46 45 51 48 48 42 49 55 59 56 62 65 69 67 60 56 62 58 72 70 72 70 67 67 66 55 71 72 67 58 57 58 55 60 59 52 51 49 47 44 50 56 63 64 59 62 66 68 73 69 57 48 40 31 49 71 81 78 70 69 77 74 73 71 82 75 80 87 78 72 64 61 59 66 71 73 59 51 45 44 35 37 36 36 31 26 22 29 35 39 45 47 50 50 55 48 52 49 54 63 57 55 60 65 68 65 64 70 63 68 78 84 88 82 80 78 79 78 76 76 72 62 61 58 61 63 62 59 53 47 45 47 48 54 58 54 55 60 63 69 68 71 55 47 39 31 51 76 88 81 69 70 70 68 65 73 86 73 76 82 72 69 55 53 45 54 75 68 56 50 42 46 43 36 33 29 26 25 22 28 40 41 44 46 51 51 48 47 49 54 57 60 54 58 62 65 70 72 77 76 76 80 86 92 95 91 90 93 93 93 77 77 71 68 63 60 64 70 67 58 56 51 46 49 49 53 54 48 53 65 65 66 67 63 55 43 38 42 59 79 98 86 68 60 62 64 62 76 72 76 69 83 72 73 58 51 47 50 71 65 52 49 40 44 43 39 34 32 28 25 25 34 42 45 43 45 48 47 48 48 43 45 48 48 50 56 59 64 76 83 83 79 82 89 89 90 88 90 93 91 95 91 83 76 66 65 67 59 62 69 68 64 57 54 50 52 49 51 51 50 55 58 62 61 63 62 55 42 46 59 65 85 102 80 65 54 55 54 68 76 63 68 66 77 74 68 55 51 54 52 62 58 51 50 42 39 43 42 37 33 30 27 33 34 35 42 42 44 43 43 41 40 39 36 38 34 40 51 55 63 78 86 80 76 77 86 85 87 82 80 85 85 82 77 73 70 59 60 59 57 60 63 59 54 56 57 52 50 47 47 47 51 56 58 60 56 59 60 50 44 49 62 66 90 97 69 63 55 50 49 72 75 67 62 60 70 75 69 59 50 58 54 60 54 50 45 39 38 41 41 34 34 36 34 38 39 41 42 42 39 37 33 32 28 32 30 36 38 37 46 51 60 72 77 81 81 84 92 92 84 76 76 80 79 77 65 61 63 58 53 48 45 49 52 51 50 50 49 48 47 46 46 48 50 58 58 58 56 58 59 48 46 44 69 70 87 92 63 62 54 42 49 77 74 64 59 47 67 64 77 63 57 62 54 63 60 45 41 40 37 37 40 33 35 38 39 33 39 41 41 37 36 33 30 29 23 28 29 31 38 38 48 49 54 64 72 74 81 84 90 89 83 80 77 77 78 75 70 63 61 60 57 54 49 47 45 42 45 45 47 51 49 44 48 46 50 56 57 56 54 52 59 51 48 53 68 68 85 86 68 63 51 42 55 75 68 63 60 48 56 64 67 67 69 69 63 67 65 52 42 43 40 42 39 37 37 42 40 36 39 42 37 36 33 30 27 22 21 28 27 31 30 36 47 47 56 63 70 72 80 78 80 83 85 83 77 78 75 70 62 58 58 52 45 44 44 40 38 34 37 42 41 43 46 44 47 47 51 58 57 52 50 49 59 59 47 60 71 67 79 83 71 58 54 47 63 74 67 64 56 52 54 57 58 63 71 77 74 71 68 60 46 46 44 40 40 43 42 43 42 42 46 43 43 37 32 30 23 21 23 28 28 33 31 34 44 45 54 61 70 73 79 73 76 78 82 84 77 70 70 68 60 47 48 46 37 34 39 43 37 32 37 42 43 40 44 45 48 50 52 57 57 51 47 47 56 62 50 61 70 65 79 81 73 59 54 54 65 72 66 68 54 57 52 48 54 54 63 76 82 75 71 67 49 46 44 39 41 44 43 42 44 45 48 46 45 39 34 33 32 24 27 29 33 37 39 43 46 51 58 62 68 69 72 73 76 71 77 76 70 65 62 59 55 46 44 47 42 33 31 34 37 34 36 43 42 44 43 47 50 50 49 53 51 48 42 47 52 57 59 63 65 65 78 78 66 60 54 58 63 70 68 69 60 59 56 55 56 55 66 73 74 73 68 74 54 47 43 43 38 42 43 44 46 49 50 51 49 45 46 42 38 35 35 37 41 40 48 45 47 45 56 65 67 70 70 70 66 64 68 69 65 62 56 55 53 51 52 55 50 42 38 36 36 35 39 40 47 49 49 50 51 53 52 52 52 47 43 47 46 53 60 66 63 57 75 75 67 60 59 61 61 72 70 68 66 60 58 60 60 54 69 77 76 76 72 82 60 52 44 43 40 42 44 46 48 52 49 54 54 52 56 53 45 45 44 47 46 47 53 44 52 49 59 66 71 71 69 62 61 58 60 67 67 66 61 60 56 53 55 54 52 48 45 46 42 39 38 43 44 49 51 48 54 54 52 54 51 48 45 50 47 54 61 67 61 59 72 71 67 62 60 61 63 73 68 70 70 63 61 55 59 55 64 73 75 83 80 82 66 54 48 44 43 42 46 52 51 52 53 57 56 58 59 55 53 49 49 49 52 56 54 49 51 57 65 69 71 75 73 68 66 60 59 60 66 67 67 63 60 55 60 55 51 53 50 49 46 44 42 41 43 48 51 50 52 56 57 55 54 51 51 52 53 57 64 70 63 68 66 72 68 59 58 58 65 72 62 68 70 69 61 54 50 55 54 68 72 83 83 81 69 57 50 48 46 47 48 55 56 57 59 65 61 64 60 58 59 57 55 56 62 62 60 59 58 61 62 72 76 80 79 73 75 64 64 65 70 67 69 69 64 64 66 68 65 58 57 55 51 48 44 48 51 52 54 55 57 56 59 56 54 52 54 55 56 61 69 76 67 68 64 73 65 56 56 61 64 68 58 63 69 68 67 55 42 52 46 65 64 72 77 73 65 60 53 52 49 51 55 58 61 61 62 70 68 68 68 66 60 59 56 57 65 63 70 69 60 61 63 74 81 76 80 78 77 76 68 70 65 64 67 70 69 71 73 77 78 68 68 66 63 56 54 57 59 57 57 56 57 56 59 61 56 57 58 59 61 63 78 75 62 62 67 68 57 51 52 59 63 65 57 58 65 65 71 59 43 46 46 60 68 72 72 66 63 65 56 56 52 54 59 59 62 63 66 69 70 68 65 62 56 55 55 56 58 57 66 62 60 61 62 66 76 77 78 81 78 76 76 73 69 68 68 72 77 85 83 83 84 76 71 71 69 67 65 65 67 61 60 58 57 55 58 65 61 61 66 61 63 67 79 72 58 57 65 59 48 48 53 60 61 60 58 58 60 64 68 64 48 47 47 59 62 68 74 65 61 66 62 57 58 61 59 60 63 66 65 67 68 70 66 61 58 59 60 55 54 51 52 51 58 57 62 67 75 80 73 73 71 71 78 79 73 65 61 64 66 75 76 81 77 72 66 62 61 60 63 65 66 63 61 60 57 56 60 64 65 67 74 66 62 66 80 68 50 52 57 50 44 46 50 58 58 56 59 58 56 59 60 62 55 48 51 56 68 67 72 68 59 64 68 63 63 62 64 62 65 64 67 72 76 77 72 71 64 62 61 60 59 57 52 45 53 55 54 59 60 66 63 54 52 57 65 72 67 57 59 60 54 61 62 66 64 60 54 49 49 51 56 58 60 57 54 56 56 58 62 63 67 71 73 67 62 65 66 62 46 49 49 46 45 43 50 58 58 53 58 58 58 58 57 59 54 47 54 54 69 66 66 65 64 61 72 70 67 62 68 61 65 60 61 69 74 78 81 73 67 63 60 59 55 56 52 45 46 44 45 43 46 46 42 42 38 42 48 52 50 50 55 54 51 56 51 48 48 48 52 48 45 47 48 50 51 50 48 54 55 57 62 64 66 72 70 65 61 67 59 56 42 45 45 49 44 45 54 56 57 52 55 54 57 56 57 58 55 52 49 47 56 67 62 63 69 63 75 76 68 68 67 61 60 62 61 66 68 71 79 70 67 68 59 57 50 51 41 46 39 33 34 31 31 32 26 30 32 36 36 39 38 31 36 35 42 47 46 45 48 47 52 50 45 46 44 44 47 48 51 52 54 55 61 63 66 67 66 63 63 66 58 53 49 49 41 49 46 47 53 55 57 51 53 51 53 58 57 57 53 53 48 44 51 62 65 63 70 64 77 73 68 67 65 63 65 65 68 70 74 73 71 67 61 61 54 51 43 48 41 42 43 40 41 37 36 35 36 36 37 39 40 37 37 32 37 35 45 45 46 46 45 50 51 45 42 41 41 40 46 50 52 50 52 57 60 65 62 65 62 63 67 64 61 54 52 45 43 48 45 48 52 57 56 53 54 51 50 55 54 53 54 43 46 45 51 59 62 59 71 65 74 74 64 66 66 65 68 72 76 74 77 78 75 66 64 63 59 53 48 53 53 52 47 43 43 41 46 46 40 36 30 31 30 33 36 29 25 30 38 43 39 44 48 48 48 46 40 40 39 44 48 49 50 52 55 62 62 65 57 61 64 65 66 64 58 53 51 43 42 43 44 46 51 55 54 52 57 51 50 48 49 51 51 38 44 43 42 53 59 55 66 66 79 79 65 63 63 62 72 77 82 83 84 86 83 73 66 69 69 69 67 75 73 73 72 65 63 59 64 63 56 54 50 46 42 39 37 33 38 34 36 41 40 45 47 46 50 54 48 46 48 51 55 55 54 60 62 62 64 62 58 59 62 67 64 63 57 54 48 40 43 40 42 45 48 53 54 52 56 46 48 43 44 47 43 36 42 41 37 50 55 55 62 64 80 84 69 63 61 66 68 71 76 74 77 79 80 69 60 58 58 66 65 76 75 75 78 71 68 65 66 67 60 64 63 60 58 55 52 48 51 50 49 52 46 48 45 47 54 56 52 56 58 58 61 60 61 66 67 66 65 59 57 59 63 67 63 56 57 52 41 37 36 37 41 39 46 46 51 51 55 39 39 38 39 41 34 32 38 40 39 42 49 56 56 63 74 83 75 66 65 70 71 71 67 63 63 65 65 60 52 49 50 56 62 61 64 65 68 68 65 65 58 57 56 56 61 63 62 61 58 55 56 56 57 60 57 56 57 54 56 56 56 61 58 58 59 61 62 66 65 65 64 64 59 59 67 66 59 54 58 48 38 34 36 33 38 41 42 46 45 49 49 37 34 33 36 39 29 31 36 34 39 40 44 50 50 58 69 85 77 67 65 69 77 81 75 71 72 66 61 59 53 53 56 61 58 58 57 62 60 64 62 59 52 49 46 51 51 53 56 61 55 54 54 60 58 58 54 56 59 54 54 57 60 59 59 59 59 59 62 65 66 63 65 67 58 59 69 65 52 52 55 42 36 36 32 32 35 38 41 45 45 43 46 36 32 33 33 33 29 29 32 31 39 37 38 45 44 51 70 87 80 67 66 68 71 75 75 78 74 64 61 59 54 54 58 62 66 62 57 55 54 57 56 55 53 51 51 59 61 58 58 55 53 52 52 51 51 50 50 54 54 54 53 60 60 60 59 62 59 59 62 61 64 64 68 68 63 65 71 59 47 54 52 38 37 34 32 29 36 37 43 45 43 40 44 35 33 34 34 32 28 30 32 33 39 34 37 40 33 43 69 81 82 68 68 67 68 68 71 74 75 65 61 63 57 57 58 58 59 59 58 53 53 55 51 52 50 48 48 51 55 55 53 52 50 47 47 48 46 46 50 51 55 52 54 61 58 61 61 65 60 60 59 63 61 68 73 69 67 73 65 50 45 50 48 34 35 33 27 30 33 35 40 43 44 38 42 34 32 35 34 31 29 30 34 36 38 38 33 38 27 31 61 81 79 70 68 65 60 67 70 69 76 69 66 71 66 60 63 58 57 61 63 58 57 57 57 52 53 53 55 54 58 56 56 55 54 52 52 54 53 51 55 56 59 57 60 59 61 66 64 66 65 63 58 64 62 70 78 69 73 73 57 48 41 47 36 34 30 28 29 31 24 33 36 39 40 39 40 34 35 34 34 32 33 31 41 38 36 35 36 31 28 26 55 76 83 74 71 63 60 65 68 67 73 73 71 74 74 69 66 61 58 67 67 67 68 67 66 66 63 65 66 67 68 65 67 66 58 56 60 57 57 55 57 61 58 61 61 63 65 67 66 68 67 67 61 65 66 72 77 71 71 67 52 45 40 38 28 31 27 24 29 28 28 27 31 36 35 40 36 35 36 32 33 36 32 33 41 41 34 36 31 30 21 33 51 76 87 77 74 66 62 61 63 66 68 73 75 77 79 76 72 65 65 72 74 73 73 73 75 77 76 79 75 78 78 76 71 71 64 63 65 63 64 62 64 63 61 66 63 69 69 70 71 67 68 66 63 68 69 75 77 72 68 60 47 41 38 30 22 27 24 23 25 29 28 30 28 36 33 36 35 35 35 32 36 37 30 33 37 37 39 36 30 29 21 37 53 74 85 78 79 74 63 60 65 65 65 73 77 81 85 82 80 75 77 80 84 83 81 81 82 83 84 85 84 79 82 80 74 74 72 71 69 68 68 68 67 64 66 67 68 71 71 74 73 69 68 66 64 65 72 77 74 69 65 57 44 37 29 26 20 19 20 22 24 25 30 29 31 29 32 33 35 39 36 36 39 38 35 33 32 37 42 38 32 25 25 42 54 70 85 80 78 80 65 61 65 69 73 75 79 81 90 85 85 79 80 82 84 83 88 88 90 90 93 93 91 88 89 92 88 85 87 85 77 76 73 73 68 69 70 70 73 72 74 76 71 68 66 64 64 71 71 74 73 68 65 48 42 39 19 22 22 14 15 23 22 27 29 26 30 30 26 31 34 38 35 35 42 39 38 38 29 37 41 39 32 26 29 47 52 71 85 81 75 76 71 63 65 69 77 76 81 84 85 86 87 81 79 79 82 85 85 88 93 92 97 96 102 99 101 102 96 94 91 90 82 83 77 75 74 72 74 78 79 77 75 77 71 63 66 63 66 72 71 69 75 65 63 47 45 38 19 19 16 13 13 20 24 26 29 27 30 30 27 27 29 35 37 37 42 37 41 35 28 37 38 36 31 32 35 46 54 72 83 84 73 67 64 65 65 65 76 81 80 79 84 86 80 78 79 75 81 84 90 93 92 94 104 102 108 102 104 102 94 95 90 90 86 81 76 78 76 75 78 80 80 74 76 75 68 61 61 61 69 69 68 70 74 68 59 47 40 36 20 16 14 10 14 20 24 24 27 24 29 32 29 26 26 36 38 37 41 35 38 29 29 35 32 32 35 43 43 50 57 77 80 87 73 61 62 61 63 64 71 78 81 78 84 86 82 86 80 78 84 81 87 89 91 96 105 103 107 105 104 100 98 94 90 89 84 78 76 76 76 76 74 78 77 74 76 74 62 58 60 62 67 66 69 70 71 70 61 46 40 30 21 12 12 10 12 17 25 24 23 26 27 31 32 27 27 35 38 36 38 31 34 28 30 35 28 33 47 50 52 55 54 83 85 83 75 66 60 60 61 66 70 71 78 78 85 85 85 87 83 80 83 85 85 86 93 98 102 104 104 103 103 100 96 92 87 85 80 77 79 74 78 74 72 76 75 75 73 67 61 60 62 63 62 67 70 72 74 72 65 54 43 24 16 16 11 6 10 17 23 26 23 23 29 30 29 28 28 35 38 34 37 31 29 31 34 33 25 41 53 57 59 56 54 84 84 79 80 71 61 56 58 67 69 69 73 74 75 82 85 89 83 84 85 90 97 96 98 100 104 104 101 103 103 99 92 91 88 86 83 81 80 76 74 74 70 71 73 71 66 63 62 60 63 57 60 69 74 79 75 72 72 66 46 23 11 12 7 10 8 11 20 23 22 24 25 27 28 26 24 37 33 37 39 32 29 30 36 34 27 50 60 62 66 57 58 82 82 82 81 76 67 57 57 65 64 66 71 73 71 73 83 86 83 83 85 90 95 95 96 100 100 106 104 106 103 100 94 91 87 85 83 81 76 76 72 68 66 66 65 66 63 60 58 56 59 60 60 70 79 77 76 81 72 82 51 26 10 14 4 6 7 12 12 17 17 21 21 25 23 22 21 37 34 38 34 30 27 32 38 34 31 52 74 70 65 59 61 80 77 83 84 75 68 63 57 60 64 60 66 69 66 62 73 81 83 80 81 81 87 91 95 96 98 103 102 103 100 97 95 91 91 86 82 81 77 75 68 62 61 61 63 58 53 55 57 52 56 62 66 71 81 78 79 88 81 89 65 25 12 13 3 2 2 11 8 11 15 17 18 21 20 18 19 36 31 35 30 31 31 32 40 33 38 56 84 74 63 61 65 74 74 77 83 75 65 69 63 58 61 59 63 65 65 62 66 68 77 74 74 78 81 85 89 91 91 97 97 96 96 94 90 89 87 81 79 79 77 71 64 58 56 56 57 49 52 56 54 54 53 64 71 77 84 81 81 86 85 94 73 29 12 11 7 2 0 7 9 9 11 15 18 15 18 15 17 35 28 33 29 34 36 34 43 40 51 62 85 80 59 64 67 63 73 73 74 73 68 70 67 61 57 61 60 59 62 64 64 65 70 74 66 74 74 75 79 81 85 88 91 88 90 87 84 80 81 77 77 75 70 61 57 53 53 54 48 55 53 57 51 52 57 68 72 82 89 83 86 85 88 98 83 40 8 10 10 5 5 9 7 8 8 15 16 16 16 18 15 36 34 34 27 40 41 42 59 56 68 70 87 91 65 64 69 61 70 66 77 71 68 71 72 64 59 59 62 62 63 60 63 64 66 66 63 63 63 68 69 69 73 75 74 75 77 78 75 71 73 70 69 65 59 53 51 54 51 51 51 52 54 57 49 53 61 66 76 85 89 87 89 90 85 105 95 55 12 12 10 10 8 13 14 9 9 18 17 19 22 22 23 42 40 38 40 49 53 58 64 72 79 75 88 100 75 64 64 65 65 64 74 72 72 74 75 67 63 61 65 64 65 60 62 63 65 57 56 57 60 60 59 60 59 59 57 61 63 65 65 67 64 61 61 57 53 49 53 49 49 54 54 55 55 54 54 55 63 66 82 88 94 92 88 92 88 107 99 61 24 16 12 12 11 17 18 9 9 16 17 20 25 23 25 51 43 47 52 60 63 68 72 83 85 75 90 96 80 66 61 68 61 60 69 65 74 75 73 72 67 65 69 68 69 65 63 65 67 66 60 62 58 59 56 57 54 53 51 55 58 59 59 59 53 49 51 49 49 54 51 55 60 60 61 57 57 58 57 62 60 70 88 87 100 96 90 96 89 109 98 62 38 26 18 16 11 22 24 14 12 8 17 19 24 23 20 62 53 61 65 68 77 71 76 76 80 82 93 87 82 73 61 69 60 54 67 67 66 71 73 72 71 71 72 69 72 73 70 67 68 70 69 70 67 63 61 59 58 53 54 52 51 51 51 51 51 53 54 55 59 57 63 64 64 60 62 60 59 53 61 62 63 76 90 89 98 98 93 99 96 110 92 58 43 42 31 23 18 28 26 24 17 12 18 23 25 22 21 67 63 72 75 71 77 70 77 76 77 87 93 82 87 75 64 66 65 48 62 66 65 66 68 71 67 69 74 72 72 75 76 76 77 75 73 74 72 68 65 66 62 57 58 56 53 55 55 57 55 54 56 55 63 64 65 64 63 60 63 59 55 52 61 59 71 80 91 93 102 90 91 100 99 113 88 61 42 53 44 38 30 32 33 28 22 16 17 23 25 26 18 