P2
92
112
255
235 235 235 236 235 235 234 235 235 234 233 232 231 229 227 226 225 220 218 212 209 204 204 201 196 190 186 183 177 170 165 159 154 151 149 148 145 137 138 135 136 137 139 134 137 136 139 142 147 152 156 164 167 169 175 177 180 183 186 190 192 195 194 201 203 207 214 216 215 220 220 221 221 225 227 226 228 227 229 229 228 229 229 229 229 229 230 229 229 230 230 229 235 235 233 235 234 234 234 234 233 234 232 229 230 228 225 224 220 215 210 204 202 196 194 187 183 177 171 164 159 155 149 146 144 139 135 133 127 121 122 120 117 120 119 120 118 122 124 131 136 139 143 147 149 153 151 154 159 163 166 178 186 188 190 193 195 199 199 206 209 213 216 218 219 220 222 226 226 226 226 228 227 229 227 228 228 229 229 228 229 229 229 229 234 234 233 233 234 234 233 233 232 232 230 227 227 224 222 219 214 209 204 199 193 187 177 173 170 159 151 146 143 137 133 130 125 119 115 108 103 104 103 103 104 106 106 108 105 108 110 114 121 124 130 134 140 144 141 143 145 146 147 160 170 179 185 188 190 194 193 195 198 204 210 216 215 217 219 220 223 223 225 225 227 227 226 227 228 228 227 227 228 229 229 228 234 234 233 232 234 233 234 232 231 228 227 225 221 221 217 211 209 202 199 190 180 173 164 160 148 142 135 132 130 120 115 111 103 100 92 86 86 85 87 89 93 89 92 96 96 92 98 99 100 107 114 119 128 134 138 141 140 138 137 143 148 156 171 178 180 183 190 192 193 195 199 203 208 211 215 218 219 220 223 223 225 225 225 225 227 227 226 228 228 228 228 228 234 233 232 233 232 231 232 231 228 227 225 220 216 214 210 203 199 195 190 178 170 159 147 137 131 127 124 122 117 104 96 94 84 82 77 75 74 75 74 74 77 77 79 79 80 82 88 82 88 89 95 101 107 114 120 124 127 132 128 129 137 139 145 155 159 165 180 184 187 193 196 196 199 201 208 215 218 218 218 222 223 222 223 224 225 227 225 227 226 227 228 227 234 233 232 234 232 231 230 228 227 224 222 213 212 206 202 196 193 188 178 168 160 142 130 122 119 115 111 104 99 86 80 75 68 68 66 68 63 67 61 61 65 68 68 66 64 70 73 71 75 78 81 86 91 93 96 100 109 117 117 124 123 130 136 133 134 148 163 172 180 186 191 191 193 194 199 207 212 214 215 215 220 221 223 223 224 225 225 226 228 227 228 228 233 232 233 233 232 230 230 227 224 222 215 210 206 201 193 188 183 174 163 150 135 124 120 113 107 98 90 82 73 65 65 59 60 60 58 58 52 58 49 54 58 55 56 50 56 58 58 61 63 71 69 76 79 80 81 86 92 100 105 113 116 117 123 122 127 134 144 155 162 169 173 182 185 188 191 197 206 209 212 215 215 218 221 222 223 224 226 226 225 227 227 226 233 232 232 232 230 227 224 225 222 216 209 205 199 192 183 177 171 157 138 125 122 116 110 103 89 80 70 62 55 50 48 43 48 50 41 39 39 38 37 43 44 44 43 42 43 46 48 47 53 58 61 65 69 72 71 75 81 86 91 101 106 108 112 112 113 125 132 141 148 155 163 168 170 178 185 191 194 204 207 213 215 217 218 221 222 222 225 226 225 226 226 226 232 230 231 229 226 224 224 221 218 208 205 198 192 183 177 170 152 132 122 116 112 101 95 85 70 62 53 48 40 38 36 33 35 30 27 26 22 21 23 29 29 29 29 33 31 33 34 36 42 51 53 54 59 61 66 67 71 77 80 83 92 95 97 96 101 107 117 127 134 139 152 159 161 167 175 187 192 195 202 206 210 214 215 219 219 222 224 225 225 225 225 226 230 230 229 224 224 223 223 217 210 204 199 193 185 177 167 153 132 119 116 111 101 89 77 67 56 47 39 33 30 29 25 24 20 19 15 15 12 11 13 16 17 18 22 22 24 25 25 31 37 41 40 40 42 48 54 57 56 63 67 73 74 79 83 82 87 94 104 111 121 128 136 148 151 158 162 172 188 190 196 201 203 209 214 216 217 219 223 224 224 224 225 226 228 226 223 223 221 222 219 210 205 201 192 187 178 167 152 131 120 111 110 100 89 75 60 51 47 33 27 23 21 18 14 15 13 12 9 7 6 8 8 8 14 11 15 13 13 16 24 26 27 30 29 30 32 42 42 47 51 50 55 59 62 66 71 75 77 84 88 97 102 115 121 130 144 148 152 159 177 186 190 194 195 205 209 212 214 216 220 221 223 224 225 225 223 223 223 223 220 218 210 208 203 194 186 178 170 150 133 118 111 106 102 86 70 58 45 37 38 23 21 17 12 10 5 6 7 5 5 2 4 5 6 3 7 7 6 7 8 10 16 16 20 24 22 24 30 37 38 39 42 41 45 47 52 51 56 60 64 74 78 86 92 99 112 121 132 143 149 152 160 179 184 187 193 197 202 206 211 213 216 218 221 223 224 223 223 223 223 223 218 213 210 204 197 188 176 169 154 141 125 110 104 99 84 69 50 42 33 26 21 17 14 11 7 6 1 3 3 1 0 0 0 3 3 2 4 3 2 5 7 6 8 10 16 21 21 22 25 29 30 32 35 34 35 40 39 40 41 47 50 62 70 78 81 90 97 111 119 130 141 149 148 158 170 179 184 192 195 200 207 209 213 214 219 221 222 222 222 221 222 217 214 208 206 199 194 181 171 163 143 131 116 100 94 84 66 50 40 31 25 19 14 12 11 8 5 5 3 1 3 1 0 0 2 1 2 0 1 3 3 4 4 5 7 11 16 16 19 19 20 20 24 25 26 28 30 29 31 30 33 31 37 46 57 73 70 86 88 97 101 113 122 139 143 148 156 166 170 185 191 194 201 209 210 211 214 219 220 222 221 218 218 214 208 204 198 193 186 174 165 152 135 113 104 92 78 63 50 42 34 24 19 16 14 11 11 8 6 5 3 2 3 2 2 2 3 2 5 3 2 4 6 6 7 7 10 12 13 13 17 17 18 20 20 21 20 21 23 22 25 25 27 26 30 35 42 57 62 77 80 86 89 99 105 124 136 144 146 156 157 170 182 190 197 207 208 209 210 212 218 223 220 218 214 210 205 201 191 186 179 167 159 143 122 106 93 77 63 50 41 36 29 20 17 15 15 14 13 12 9 8 6 7 7 5 6 7 8 8 11 9 9 7 9 10 11 12 13 13 15 17 17 19 19 19 18 19 19 19 21 23 24 25 25 26 28 30 34 37 50 68 70 81 83 90 96 108 126 137 140 151 153 158 167 185 192 200 207 208 207 210 215 219 220 215 211 204 204 195 186 178 171 162 151 130 114 99 80 64 52 42 34 32 22 19 19 17 16 17 16 14 14 14 12 12 15 12 13 15 15 15 15 16 16 13 12 14 16 15 15 18 19 20 20 19 21 22 23 21 22 22 23 25 25 26 26 27 28 30 31 34 41 56 61 70 78 88 94 95 111 128 139 147 149 154 147 173 189 193 202 209 207 211 212 216 218 212 208 200 198 186 178 173 161 151 139 120 107 88 69 56 44 36 32 28 20 22 21 20 20 20 20 16 19 19 18 20 20 21 19 23 23 22 19 20 22 20 20 21 23 22 22 23 22 24 26 23 24 26 28 26 25 28 27 28 29 27 28 29 27 29 31 32 36 47 54 64 72 81 86 87 98 119 132 143 149 151 145 162 181 191 199 207 209 210 210 214 214 209 202 201 189 179 173 165 150 138 125 111 94 77 58 48 36 31 28 23 22 24 24 24 24 24 24 23 23 26 27 28 28 28 27 29 28 30 27 27 27 28 28 28 29 28 27 29 28 29 29 30 29 30 32 31 29 32 32 32 33 31 30 30 32 31 34 34 36 42 46 59 63 72 80 83 89 107 122 137 146 153 155 160 169 185 194 204 209 209 212 211 209 205 198 196 183 177 167 154 144 132 117 99 78 62 49 40 34 30 25 23 23 27 25 27 28 30 33 32 32 33 35 36 34 35 35 34 35 37 36 36 34 36 36 36 36 35 36 35 35 35 37 38 35 36 36 37 36 37 37 37 38 38 37 35 35 34 36 37 39 42 46 51 61 68 72 78 84 94 111 127 140 149 160 159 161 174 188 199 206 213 211 212 206 201 195 186 177 172 158 147 140 124 108 87 66 51 44 38 32 28 25 26 29 30 30 32 34 36 37 37 38 38 41 40 42 42 44 43 45 45 45 43 42 45 45 44 43 42 44 42 43 45 45 45 43 43 43 44 46 45 45 44 45 44 43 41 39 37 40 40 41 45 46 48 55 63 67 71 80 90 103 120 135 145 154 160 160 172 184 194 204 212 211 213 200 197 187 178 168 153 146 135 134 118 99 75 55 48 43 37 33 28 30 33 35 34 36 39 40 42 41 43 45 46 49 48 51 52 52 51 52 52 52 52 53 53 54 52 51 50 52 49 50 52 53 52 50 53 51 54 53 52 52 54 53 51 51 48 45 45 45 45 44 49 46 49 51 59 65 68 73 85 97 107 126 138 148 157 158 166 184 191 201 213 210 212 198 191 177 168 159 142 137 135 129 114 88 63 52 47 43 38 35 33 38 38 41 40 44 47 49 50 51 51 53 55 57 58 59 63 64 63 61 62 63 66 66 66 62 61 60 60 61 58 58 59 60 59 58 61 61 62 63 60 62 63 62 60 60 58 55 52 51 49 48 52 50 49 50 57 63 65 68 76 90 96 117 131 144 153 158 158 170 189 193 206 209 211 194 186 170 164 147 136 135 137 124 102 78 60 51 46 45 44 40 42 43 45 47 48 51 54 56 57 62 62 64 66 66 69 70 73 75 76 73 73 75 78 77 80 76 75 74 72 71 71 70 72 70 69 70 71 71 72 72 70 72 72 72 69 69 67 66 62 60 57 53 54 55 52 50 54 62 63 69 71 82 93 109 122 136 148 155 156 156 178 187 198 207 212 191 181 166 154 139 132 132 133 117 98 74 61 52 49 47 49 46 47 49 51 53 57 58 63 65 66 71 73 76 78 78 80 83 84 86 86 87 86 87 89 88 91 88 89 88 86 86 85 84 83 83 82 84 84 83 83 82 83 82 83 83 81 77 75 73 69 68 66 59 59 60 56 53 54 58 63 68 71 76 92 102 118 126 139 154 152 151 162 187 193 206 213 187 176 161 148 139 135 134 130 113 97 75 60 53 53 52 53 51 56 56 60 63 66 68 72 76 78 81 84 86 88 89 92 95 93 96 97 97 98 99 99 98 101 100 100 100 98 96 97 94 92 92 94 94 95 93 93 92 93 91 93 93 91 88 85 82 80 75 74 71 64 64 62 57 59 58 63 66 69 73 82 95 111 120 132 148 152 149 154 178 193 200 210 180 171 157 147 140 133 134 124 102 95 72 62 55 55 58 58 59 64 65 69 73 74 77 80 84 87 90 91 93 96 96 99 103 103 107 107 106 108 108 108 109 109 111 110 108 107 105 105 103 101 101 102 102 105 104 103 101 101 101 102 101 99 97 97 94 90 84 83 80 75 71 69 62 63 62 66 69 67 72 78 88 105 112 130 141 151 150 153 173 191 195 205 172 165 156 143 137 134 129 120 100 87 69 63 56 58 62 62 66 72 72 75 79 81 85 87 90 94 97 99 102 103 104 108 110 112 115 117 117 116 116 115 117 116 117 115 115 115 112 112 110 112 109 110 111 113 112 113 111 110 110 111 109 107 107 105 104 99 93 91 90 84 81 75 69 70 66 67 72 69 73 74 81 98 110 121 135 146 153 158 169 189 194 202 166 157 150 140 138 133 123 113 97 82 71 65 58 65 68 68 71 77 79 81 86 88 90 94 97 103 107 109 112 112 115 117 120 122 124 126 126 124 124 123 124 123 124 122 121 121 120 119 118 119 117 117 121 123 121 122 122 122 122 120 120 119 115 114 112 108 102 100 98 95 89 83 73 74 69 69 73 72 72 79 84 91 108 124 135 145 151 165 165 184 190 199 159 155 151 143 141 132 115 103 93 78 69 66 63 71 71 72 75 81 85 85 90 95 97 104 108 113 115 117 121 121 124 126 128 129 131 132 132 130 130 128 129 129 130 129 126 127 126 127 126 128 125 127 129 132 132 131 131 131 131 128 130 127 123 120 118 115 110 107 105 100 96 92 81 77 72 71 77 75 72 82 85 92 104 122 136 145 149 160 163 175 188 194 157 156 150 146 141 131 111 96 89 77 70 67 70 72 73 77 81 86 89 95 100 106 111 117 119 123 125 127 130 130 131 133 133 135 136 137 137 136 136 133 134 137 136 137 132 133 134 135 134 137 135 137 139 140 140 140 138 140 139 137 137 135 132 127 126 122 119 114 111 109 103 98 91 84 78 72 78 77 77 82 87 94 107 118 143 145 149 150 157 164 182 194 155 159 148 143 139 125 108 94 88 76 68 70 73 75 78 80 88 93 100 105 113 119 123 127 129 133 135 137 140 141 140 141 142 141 142 141 141 139 141 140 139 143 142 140 138 138 140 143 142 144 145 146 148 149 150 150 151 151 150 148 148 146 143 139 136 131 128 124 121 119 114 106 98 91 83 77 79 80 79 82 88 93 111 120 138 147 152 149 151 158 175 191 157 156 142 140 131 120 108 95 84 77 69 72 74 80 83 84 94 104 109 114 122 128 133 136 139 141 144 146 147 147 146 147 147 148 147 145 145 142 150 147 147 150 148 147 144 146 150 151 153 152 152 155 157 159 157 156 158 155 157 158 158 156 156 153 150 144 142 137 134 131 127 117 109 99 90 82 82 85 80 84 87 91 106 123 135 144 150 153 152 154 170 190 160 152 138 133 129 116 104 93 84 77 71 76 82 87 88 92 101 112 116 125 129 134 137 139 142 146 149 149 151 150 151 151 149 153 153 155 157 155 157 157 156 155 157 153 151 151 153 152 154 154 157 160 163 161 161 161 163 161 162 165 164 164 163 163 161 156 154 150 145 142 139 131 118 108 99 91 88 87 82 83 88 90 102 123 137 141 148 152 150 149 159 185 158 148 138 129 123 114 101 92 90 81 80 84 87 92 94 101 117 126 131 134 138 143 145 148 152 152 153 153 155 155 156 156 157 161 160 165 164 164 165 165 162 161 162 160 156 157 158 160 159 163 164 164 166 169 169 168 170 169 172 174 172 171 170 167 166 168 163 162 156 150 149 141 132 119 108 100 97 89 82 83 87 88 100 120 135 142 148 144 141 146 153 176 154 146 134 128 121 114 99 97 92 85 88 90 90 102 105 118 131 132 136 142 148 155 158 161 162 165 166 169 172 174 175 177 179 181 179 180 184 182 181 174 173 170 166 166 164 165 164 166 165 168 169 169 173 174 175 176 176 176 179 179 178 176 173 172 170 171 170 170 167 160 156 150 145 135 124 118 106 98 87 85 86 90 101 123 128 137 144 142 138 139 147 168 153 142 133 126 120 113 100 99 96 91 93 95 98 106 113 124 135 137 146 150 157 164 169 169 173 179 180 181 189 191 189 191 193 195 194 194 194 194 192 187 182 179 177 177 171 171 171 171 170 172 175 179 183 180 181 184 186 187 190 189 187 184 183 181 181 181 178 178 174 170 166 161 153 150 137 127 114 105 100 91 92 91 102 126 130 133 139 141 138 141 143 159 152 138 136 124 118 110 105 96 97 96 98 98 100 112 122 130 136 147 153 153 163 171 173 174 177 182 185 190 198 203 205 203 203 206 204 205 203 200 200 198 193 191 190 187 182 183 183 182 181 185 184 188 195 193 195 196 198 197 200 200 196 194 194 191 193 192 191 190 183 176 173 166 159 149 141 129 121 112 105 96 93 99 103 120 130 135 135 139 137 142 139 157 153 141 134 126 122 105 109 93 100 102 98 100 100 115 125 135 144 157 157 161 173 176 178 182 189 190 195 201 206 209 214 212 212 215 213 212 212 207 208 205 203 203 201 196 191 190 193 194 192 195 195 195 198 202 206 207 209 209 207 209 207 205 201 201 201 199 196 195 190 182 178 173 164 152 146 130 121 115 112 99 93 101 109 115 129 135 140 142 140 138 137 155 155 145 136 124 122 106 107 98 105 104 99 100 105 118 134 140 152 158 161 170 176 178 185 190 197 199 204 206 209 213 215 215 217 219 218 217 218 216 213 212 210 207 205 201 197 198 200 200 200 201 202 204 205 209 212 215 217 217 217 217 215 216 210 208 203 200 195 191 188 182 179 173 169 162 157 143 126 122 117 100 97 104 110 117 123 133 140 148 142 137 133 153 154 140 132 124 117 107 107 108 107 102 103 104 108 123 139 146 154 158 161 173 176 180 189 195 202 204 208 209 212 217 220 222 221 225 224 223 224 221 218 215 213 211 208 205 202 202 204 204 204 206 205 209 211 216 218 220 222 225 224 223 223 222 217 216 207 202 200 195 187 181 177 176 168 164 163 160 139 130 119 107 104 106 112 118 122 130 138 143 143 139 135 148 159 140 126 122 116 111 110 108 108 102 101 110 109 122 139 148 152 157 162 172 175 178 186 197 203 205 211 215 217 220 223 223 225 225 226 225 226 223 220 221 215 211 207 205 202 201 205 209 210 212 210 215 217 221 225 225 226 228 226 227 226 225 222 216 213 205 205 199 193 187 179 177 169 162 159 161 147 131 123 113 105 115 121 116 122 125 134 143 141 143 139 147 157 140 128 116 109 108 109 100 110 101 99 109 108 126 142 153 160 161 171 173 179 188 195 206 215 215 218 224 224 224 232 231 234 231 234 232 231 230 227 228 223 218 213 209 207 206 211 216 218 218 220 223 225 229 232 235 235 234 234 233 232 229 227 221 217 213 211 207 196 196 192 184 173 164 161 161 151 133 121 113 107 113 122 113 116 119 133 136 145 143 148 148 154 135 126 109 103 107 106 97 105 102 104 115 116 127 147 154 154 155 170 179 189 201 212 221 227 230 233 238 238 239 241 239 241 237 240 238 237 234 233 231 224 219 211 204 202 205 209 216 218 217 219 225 228 229 235 238 238 239 239 239 232 229 228 224 221 218 220 216 205 197 197 192 183 170 165 164 156 141 124 111 103 118 122 118 113 110 130 133 147 143 146 149 156 132 119 113 120 112 107 107 105 106 107 113 119 123 142 151 150 162 179 187 198 206 219 227 230 231 236 237 241 245 246 242 244 243 243 245 242 239 225 229 227 223 218 213 210 214 215 219 219 219 221 226 229 237 243 243 247 248 243 245 243 238 236 232 228 223 222 220 213 202 198 195 186 172 164 164 155 145 126 111 99 120 116 110 105 116 135 138 143 143 143 150 155 133 120 121 128 118 110 112 104 108 111 119 119 129 140 154 156 171 182 187 195 203 214 222 224 230 226 228 234 239 236 234 236 243 239 243 243 234 218 221 224 221 218 214 215 216 219 220 221 221 224 229 235 241 250 247 251 251 248 247 243 240 238 232 230 226 227 223 216 210 198 191 188 176 158 158 152 147 124 113 107 122 115 100 97 120 140 141 141 134 146 155 151 136 119 130 133 119 112 113 103 101 108 114 115 134 136 150 161 168 173 182 193 205 210 212 215 227 223 224 232 235 231 232 233 240 236 240 237 226 215 215 221 219 217 211 212 209 213 218 222 224 223 230 239 243 248 250 255 252 252 246 248 243 235 232 226 223 223 218 213 207 201 195 185 183 159 153 143 142 123 108 105 121 118 104 95 122 139 142 137 131 144 159 148 130 122 130 128 115 109 113 107 95 93 108 114 133 134 146 161 164 163 174 185 195 199 202 212 221 221 220 226 225 224 225 225 234 239 241 231 221 217 217 216 216 214 209 210 204 206 216 221 226 225 229 235 243 248 248 253 253 248 246 241 233 235 232 223 225 224 214 210 205 203 195 186 180 167 157 140 140 131 110 96 106 118 114 106 121 128 135 142 134 144 165 153 130 122 127 127 112 104 104 99 92 88 101 114 126 132 140 149 151 151 161 175 181 182 189 196 207 208 217 219 219 222 220 220 221 225 230 215 207 202 208 211 211 212 210 205 201 207 213 218 223 218 224 226 235 242 243 244 245 238 236 229 224 226 229 222 219 218 208 201 198 194 187 181 176 166 159 143 137 126 112 99 108 110 122 120 121 122 132 139 144 150 177 155 129 116 126 125 110 100 102 89 89 86 100 114 116 122 130 132 130 133 149 157 163 169 179 184 189 199 202 205 203 208 206 205 202 206 200 193 180 178 196 199 197 198 200 192 192 194 200 212 216 210 208 211 217 225 219 221 223 220 221 216 209 216 216 209 211 206 197 197 190 183 177 172 170 162 154 147 141 124 114 101 106 105 125 125 119 125 139 144 146 152 179 152 129 108 122 120 109 100 104 85 93 87 98 108 110 111 123 117 114 118 135 142 144 149 156 160 165 174 179 181 180 184 187 183 182 186 178 169 158 168 180 184 189 185 190 180 181 183 187 198 201 202 190 194 194 202 200 199 201 196 197 197 191 192 198 187 188 179 186 180 171 161 161 160 159 157 150 148 146 134 120 103 107 103 128 128 124 121 146 147 144 155 186 152 126 109 115 107 105 94 103 88 90 84 93 97 98 109 116 113 103 114 128 138 132 135 139 144 153 158 160 156 160 161 162 160 164 159 156 149 142 154 168 169 176 172 174 163 164 172 177 182 190 191 181 179 187 182 191 188 188 173 169 171 168 172 179 171 163 157 158 158 160 157 146 144 147 141 136 139 147 133 120 107 109 105 130 125 131 123 152 154 148 166 187 156 127 112 115 98 97 92 100 92 92 85 88 88 93 107 101 108 99 103 106 111 103 109 113 124 126 135 145 143 142 133 131 133 141 130 134 127 129 145 168 171 173 168 160 151 156 166 168 171 180 169 164 162 168 165 160 158 163 156 149 141 148 147 149 154 155 148 141 146 145 136 128 129 136 131 133 137 145 127 118 114 113 113 129 117 133 123 150 152 155 173 192 161 129 129 120 95 92 87 94 93 90 90 92 84 87 105 103 105 98 96 98 103 95 96 99 96 90 105 112 116 112 112 105 110 120 106 117 103 110 127 142 147 152 152 140 137 148 154 160 165 168 161 150 152 160 160 155 151 138 143 128 117 129 126 133 138 136 137 136 141 143 143 120 122 133 128 129 133 137 131 118 120 118 121 130 106 125 124 144 149 152 183 188 163 132 129 120 96 87 87 94 92 86 85 96 87 85 105 109 96 89 89 86 88 82 88 93 89 88 90 96 98 93 86 92 94 91 93 95 101 114 136 141 149 139 131 121 124 135 145 151 156 156 150 140 143 143 142 144 143 130 124 120 119 123 114 119 117 121 134 139 142 134 133 125 123 133 129 126 133 133 126 121 123 122 129 121 105 123 122 140 146 158 184 184 161 139 134 119 98 94 88 92 93 86 82 94 88 85 94 106 104 95 91 88 89 84 84 90 88 89 87 86 89 86 78 76 73 72 82 84 86 118 128 125 131 125 126 121 130 136 135 143 150 156 153 148 140 136 137 143 142 131 116 111 114 112 108 108 110 103 115 121 127 130 128 129 132 124 126 123 129 132 125 128 118 130 127 115 110 123 125 139 150 163 186 190 158 143 139 113 95 91 91 93 91 89 87 92 94 86 96 103 98 91 91 90 92 84 81 82 87 89 85 85 89 90 77 75 69 71 80 85 92 120 128 129 124 124 125 127 129 128 132 137 145 151 149 149 135 126 131 135 123 125 114 100 101 104 97 103 110 109 112 126 124 125 127 126 134 132 129 125 133 134 134 132 119 135 126 114 116 122 123 143 157 173 185 192 155 147 137 112 94 90 96 98 95 91 92 97 101 96 103 107 104 99 91 95 96 85 83 84 86 92 92 97 96 91 83 76 76 82 84 97 118 119 128 129 129 132 137 133 136 127 137 141 151 149 144 141 143 137 137 135 122 110 108 101 92 97 99 104 108 112 117 118 130 129 128 135 132 129 128 131 137 143 143 125 126 136 129 117 116 127 133 156 158 181 179 189 157 152 144 111 99 93 101 99 95 97 94 103 105 102 113 113 110 110 106 103 102 98 97 99 99 102 103 102 102 97 99 89 88 94 104 104 108 115 133 134 141 135 132 135 143 140 146 143 148 148 143 143 133 134 131 127 120 114 102 103 97 101 105 105 117 113 118 118 124 133 128 133 134 132 138 139 137 138 139 132 132 134 131 125 119 139 147 162 160 183 182 188 153 156 152 113 107 101 107 110 95 100 98 104 112 105 112 114 113 115 116 113 112 111 111 112 108 112 112 113 112 112 110 105 106 110 113 117 129 141 145 140 148 138 126 129 138 147 148 152 150 151 151 153 143 140 139 133 127 126 114 109 111 114 119 118 119 123 130 132 134 131 137 137 136 134 139 136 132 139 139 136 134 138 134 125 128 148 148 156 170 183 189 183 154 156 165 117 109 108 113 112 107 102 106 106 113 110 113 117 117 115 117 118 124 122 123 125 124 122 124 123 123 123 120 120 119 125 128 135 141 147 138 140 150 147 133 136 143 145 156 159 154 155 160 153 145 143 150 143 144 135 132 121 121 122 126 129 130 134 135 138 138 138 141 141 141 137 138 134 131 134 139 139 141 146 141 134 137 146 138 149 182 180 190 181 161 157 171 132 112 115 122 118 122 110 111 114 116 114 116 115 119 118 114 114 123 128 125 126 125 126 130 134 133 133 133 129 129 138 143 148 153 150 145 149 157 153 147 144 151 150 157 163 165 162 173 160 153 149 150 150 153 153 143 138 134 133 135 138 141 142 141 142 142 140 144 142 137 136 135 129 130 133 137 140 147 152 149 146 151 159 140 153 185 178 188 177 161 157 173 150 122 126 120 119 121 115 117 118 120 121 121 118 119 122 122 123 128 132 138 138 136 137 140 143 144 140 141 139 146 151 155 156 154 155 153 149 154 156 154 149 153 156 156 161 170 162 176 167 166 159 156 159 160 156 152 143 146 140 140 138 138 139 138 138 142 144 147 147 141 139 136 135 131 131 134 149 151 155 154 169 167 168 162 163 186 181 181 179 158 158 165 167 137 136 122 124 117 116 116 117 123 127 128 127 124 126 126 129 131 136 140 146 151 157 159 160 163 160 155 151 156 157 160 163 160 161 159 152 153 159 157 164 169 169 166 164 171 172 173 168 173 169 161 166 157 165 153 150 144 144 144 143 141 142 144 149 155 155 152 148 139 136 136 137 139 138 139 155 159 155 167 182 177 174 188 180 184 184 178 185 164 163 163 176 157 142 127 124 116 114 122 118 119 130 133 136 132 133 137 132 134 137 143 149 158 165 167 169 170 168 165 157 162 162 168 166 164 164 168 161 164 169 162 170 172 180 178 173 178 178 180 181 175 174 172 170 164 162 162 152 156 153 154 159 156 153 155 157 161 159 155 154 143 135 137 142 143 138 150 161 166 160 171 181 180 181 201 192 187 176 176 189 168 171 157 172 168 153 134 127 119 115 122 116 124 132 135 138 141 139 139 146 143 145 147 151 157 163 168 170 174 175 170 158 166 169 176 174 171 168 177 170 170 179 174 176 177 181 190 183 190 188 185 185 187 184 189 178 173 161 168 161 164 164 162 168 167 162 163 169 170 167 166 163 153 144 144 150 150 153 162 173 173 162 167 182 185 195 200 196 189 172 179 190 162 173 158 175 168 162 135 126 119 117 129 124 128 136 135 141 143 146 146 148 148 152 151 153 162 166 171 176 176 175 173 161 170 174 177 172 173 174 181 174 172 179 180 180 189 194 199 196 197 198 197 192 197 189 191 184 178 173 172 171 169 173 170 172 172 168 170 175 175 172 171 165 158 149 152 153 156 158 166 175 173 163 163 172 181 201 204 194 191 171 180 187 159 170 162 177 175 172 147 135 132 129 134 137 135 143 141 143 149 152 153 153 151 155 148 159 165 165 171 175 174 171 172 165 168 175 175 172 176 177 179 176 184 187 189 192 196 206 207 203 206 205 209 208 206 199 192 188 182 184 183 180 178 172 174 177 174 172 174 175 174 171 171 165 156 156 157 155 154 163 170 173 180 166 155 162 172 202 205 197 190 172 183 185 171 168 164 172 176 170 156 144 148 140 141 140 136 144 147 148 154 156 156 155 157 154 155 165 167 167 169 172 172 169 170 170 170 178 180 177 180 180 178 184 197 199 199 203 206 211 212 212 207 207 218 217 208 205 200 195 188 186 188 182 181 177 176 178 182 174 176 177 176 178 175 172 164 162 160 152 158 168 171 178 178 169 163 160 177 204 209 193 189 177 183 183 182 169 167 168 175 170 160 152 159 157 149 147 140 145 147 153 158 158 157 160 160 159 161 165 169 170 168 172 171 170 173 174 172 174 179 175 180 185 186 196 204 208 206 208 213 216 220 219 211 208 221 223 221 211 200 200 193 189 189 186 180 177 180 179 181 180 181 179 179 183 178 174 169 166 158 159 166 174 176 173 180 183 175 163 183 208 204 192 193 178 183 181 185 173 171 164 174 169 159 159 167 167 151 148 142 149 149 156 160 161 162 163 163 162 161 163 169 170 170 169 173 172 173 174 175 171 174 184 186 189 196 200 207 213 212 211 219 220 223 224 218 215 217 222 222 219 209 203 200 194 195 194 184 183 183 180 178 181 181 179 180 182 183 176 175 171 162 164 173 179 172 172 177 182 184 176 189 206 201 195 193 181 183 182 177 178 176 165 168 173 166 165 172 171 156 151 144 150 152 156 159 163 161 163 164 159 163 168 176 172 169 174 175 176 178 178 178 179 174 189 199 197 201 204 207 210 214 217 218 221 223 223 222 219 215 219 222 221 215 206 202 191 192 195 188 185 182 179 174 179 181 183 182 183 184 181 181 176 169 168 179 181 176 180 180 181 194 181 194 204 196 194 196 182 182 184 177 174 183 170 164 171 172 171 170 172 156 155 150 151 155 158 160 162 161 162 163 162 165 171 176 173 176 178 177 179 182 178 180 185 187 190 201 201 201 207 205 210 212 214 218 218 224 225 223 218 215 212 214 216 217 217 205 193 194 197 196 189 186 188 184 182 182 183 182 181 184 182 182 180 172 174 183 186 179 184 186 187 193 187 203 205 196 201 193 182 182 186 180 178 184 173 165 170 169 172 169 173 162 157 152 148 159 156 158 161 163 162 167 168 174 176 180 181 179 181 180 180 186 180 183 185 188 193 196 200 204 206 206 207 209 210 213 214 215 218 218 214 215 214 213 213 213 218 208 201 196 195 194 192 191 192 187 184 181 180 181 182 184 184 183 181 180 180 188 191 184 183 189 187 189 192 210 202 204 200 187 180 184 187 180 182 184 178 167 166 167 165 165 169 168 160 154 148 155 156 161 163 162 165 170 170 179 183 186 186 184 186 180 185 186 184 181 185 189 200 195 195 205 201 202 201 203 205 206 208 212 210 207 207 208 208 208 204 206 208 205 204 198 199 197 195 193 193 189 188 184 182 181 184 183 184 182 180 183 184 190 194 192 190 190 188 192 197 212 205 208 198 185 184 184 187 181 181 185 182 175 166 171 164 164 172 169 161 155 150 153 157 162 160 162 169 173 176 184 189 191 188 185 188 185 186 186 185 184 184 185 191 193 194 199 197 202 203 205 206 201 199 205 209 204 201 205 204 204 202 198 203 201 201 197 198 199 199 197 196 194 187 185 185 187 187 188 188 183 185 185 188 193 196 198 195 193 197 195 202 211 206 206 192 187 186 186 188 183 183 184 184 177 168 173 166 169 174 170 165 155 150 152 156 158 162 169 171 175 180 185 191 190 188 188 188 189 187 185 184 183 185 183 189 190 199 200 200 203 209 208 207 201 196 200 200 203 204 203 204 204 206 204 201 199 197 197 197 199 195 195 193 192 186 186 183 187 187 187 190 188 186 187 192 194 196 198 196 198 202 198 202 208 211 197 191 187 187 186 187 184 185 187 185 183 173 176 171 171 175 173 171 154 149 148 153 155 162 169 171 176 183 185 188 187 189 188 189 189 187 182 183 179 181 187 189 189 193 201 201 206 207 212 211 207 204 202 207 206 203 204 204 203 205 205 203 200 194 199 201 198 192 190 187 187 185 184 184 186 187 189 189 186 187 190 194 192 197 197 198 200 205 203 205 211 209 192 193 187 187 185 189 185 187 189 189 186 178 182 172 174 174 174 169 156 151 149 151 154 162 164 170 173 179 181 186 185 190 188 191 189 185 185 186 182 184 188 190 190 194 200 198 201 204 214 217 212 213 209 211 209 205 203 204 200 198 200 201 203 200 198 197 198 194 189 186 185 185 186 186 188 190 191 187 187 189 195 195 191 195 195 197 204 204 203 208 213 200 191 194 187 189 187 190 190 186 189 189 188 185 186 180 176 168 169 164 157 152 150 149 153 158 160 165 171 176 179 183 184 186 186 186 183 182 186 188 183 185 190 190 189 193 196 201 205 211 213 210 214 217 208 207 201 202 203 204 202 196 198 200 201 201 200 201 199 194 189 190 189 185 187 190 191 193 192 187 183 191 195 194 192 196 197 198 206 205 203 208 209 193 194 193 190 188 190 190 189 188 189 189 187 183 189 184 175 171 164 163 159 155 152 151 149 155 161 161 171 175 178 181 184 182 183 186 184 186 185 184 181 181 188 193 190 193 197 204 209 208 212 210 210 213 206 205 206 204 202 205 199 195 196 196 197 195 197 200 198 195 194 192 189 185 186 188 191 193 193 187 184 190 194 192 197 200 198 201 206 201 202 208 200 190 193 193 189 190 189 191 190 186 191 189 188 186 186 185 174 175 165 160 164 160 149 152 150 153 160 163 170 177 181 183 185 182 178 179 180 182 180 184 183 179 181 188 189 191 201 203 209 209 211 210 209 214 207 208 207 202 203 201 194 194 192 192 194 194 192 197 195 196 195 188 187 185 183 188 192 193 191 186 183 188 193 192 199 200 201 203 205 203 201 201 193 188 195 193 191 188 188 192 188 187 191 190 188 187 186 187 178 175 171 162 166 166 154 151 150 155 160 167 172 175 180 181 179 178 171 171 175 176 176 178 180 178 180 180 184 184 188 194 201 207 207 206 208 206 199 201 199 196 198 200 192 192 193 193 196 193 193 191 192 191 187 184 184 183 182 186 191 192 188 185 184 187 188 194 200 200 201 202 205 203 200 194 193 194 197 192 194 189 191 190 186 188 191 193 191 188 187 188 183 174 177 166 169 170 159 151 151 156 160 170 172 175 175 176 176 175 172 172 179 182 180 184 185 183 181 182 183 182 183 183 189 199 202 201 207 206 198 193 194 194 196 201 197 199 196 192 193 192 193 190 190 185 182 181 181 181 184 182 186 188 185 185 187 188 190 193 198 198 199 201 201 202 191 192 192 195 196 192 191 190 191 192 189 187 190 192 192 189 186 188 185 183 180 169 169 172 162 152 151 156 162 168 173 175 173 177 177 174 174 171 176 178 173 177 183 183 177 183 182 179 178 176 179 184 190 192 195 201 194 190 190 191 192 198 193 187 186 185 187 183 186 188 184 180 178 177 179 180 182 182 184 185 185 182 185 186 187 193 196 197 200 198 202 196 191 195 192 196 192 191 192 187 190 191 192 189 189 193 191 192 188 188 187 186 182 176 167 175 169 155 154 158 164 166 170 170 171 173 173 170 167 168 171 172 173 169 169 172 172 175 172 166 173 170 173 176 178 180 182 191 184 182 182 182 183 184 179 175 174 171 172 172 172 178 174 169 172 173 178 178 182 183 183 182 180 179 182 181 183 193 195 200 198 199 203 194 193 196 194 196 191 192 189 189 190 189 190 191 190 191 194 193 191 191 189 185 185 177 169 173 172 158 158 158 162 163 166 165 167 167 166 165 162 161 166 167 169 168 164 166 171 175 169 169 171 174 175 180 174 180 180 182 182 180 182 181 177 175 175 170 172 166 166 172 169 174 174 173 174 173 178 179 181 182 181 178 179 178 182 176 182 191 196 199 197 199 201 194 197 195 197 195 191 191 187 189 189 187 189 190 192 193 196 195 194 194 189 185 186 176 170 171 174 160 158 161 162 162 162 160 163 163 161 158 154 154 158 162 167 165 164 169 173 173 167 168 176 174 176 177 176 181 183 185 185 178 182 176 174 170 169 169 167 168 171 172 169 172 171 174 174 173 176 176 180 179 177 178 178 179 182 178 180 190 194 196 195 199 199 195 197 196 197 194 191 189 190 187 188 186 190 191 192 196 197 198 196 196 191 188 189 177 173 172 176 163 160 159 160 162 161 155 159 155 155 154 152 150 156 159 163 167 168 172 177 175 173 175 179 178 177 180 178 181 185 184 184 181 181 182 179 174 174 173 167 167 171 171 168 168 167 170 172 173 174 174 177 175 175 177 175 180 181 179 185 192 195 196 195 199 198 197 196 196 196 193 191 191 189 184 187 185 195 193 194 196 199 201 199 197 191 192 193 182 177 177 175 167 162 155 154 160 162 159 161 156 152 149 150 150 154 160 163 166 170 175 178 180 183 181 182 182 181 185 182 183 185 181 185 179 179 180 183 178 178 178 174 171 170 171 169 163 164 169 169 172 173 173 175 173 174 174 176 183 184 178 189 194 194 196 196 199 200 198 195 196 193 190 191 190 187 185 186 185 197 197 195 196 205 204 203 198 197 195 197 188 183 182 176 167 164 156 150 157 159 158 161 159 158 158 155 154 158 159 165 168 170 172 173 176 181 182 185 183 185 187 185 186 183 176 182 181 183 184 187 183 180 179 179 174 171 171 169 165 166 170 171 174 176 177 179 177 179 175 177 184 186 180 195 193 195 196 197 198 199 197 194 196 193 190 188 189 186 186 187 188 199 196 199 201 206 205 202 199 198 199 196 188 187 185 184 174 171 165 154 159 162 161 161 160 161 161 159 158 158 157 160 165 169 169 169 171 177 179 183 183 187 188 187 188 188 181 185 186 187 187 190 186 186 180 179 174 169 170 167 171 172 175 173 176 178 180 180 180 180 176 178 187 185 183 196 192 193 195 198 198 199 196 193 196 193 192 186 188 187 188 188 187 199 197 203 202 207 204 203 201 203 203 198 187 186 189 188 178 174 173 164 160 165 165 164 163 165 166 164 164 165 164 163 166 170 173 175 174 173 176 179 184 186 190 190 191 189 184 186 186 186 186 183 182 179 178 175 173 170 168 168 171 174 174 176 178 178 180 180 178 180 178 181 188 182 186 193 191 193 194 196 198 198 195 195 196 193 193 190 186 187 187 188 188 200 203 203 205 207 207 205 204 208 209 203 188 185 191 188 183 176 176 171 164 163 166 165 166 164 165 166 165 169 169 168 167 169 173 175 176 177 178 181 184 187 190 192 193 195 189 189 188 187 188 186 184 182 180 178 174 174 172 170 173 174 175 176 178 179 182 180 178 180 179 185 187 182 189 189 192 192 193 197 195 197 195 197 193 192 194 190 187 187 185 188 185 204 206 205 205 209 211 208 206 212 213 204 190 183 185 184 188 180 177 175 165 162 164 167 166 167 166 165 164 167 167 166 166 164 166 166 169 175 176 178 184 189 191 196 196 195 194 190 188 190 186 188 186 183 180 176 171 174 175 175 176 176 176 179 179 181 181 181 178 180 181 186 183 184 187 187 189 188 194 194 193 193 193 197 191 193 194 190 188 186 186 187 185 205 206 205 205 211 213 204 206 213 213 202 191 182 177 182 190 185 176 176 170 161 163 164 165 165 165 166 163 162 163 162 166 166 166 167 170 174 176 178 181 184 185 187 187 187 190 190 190 189 186 186 183 179 176 173 173 172 175 176 174 176 177 180 183 183 181 179 178 179 183 185 184 183 188 187 185 187 196 195 192 191 194 194 196 194 190 190 188 187 186 187 187 207 206 208 207 212 213 202 207 214 212 206 195 182 175 183 192 188 178 174 174 162 164 165 166 166 167 167 167 162 165 162 165 167 167 172 174 175 179 181 180 184 183 185 184 184 186 182 184 185 183 182 179 178 177 176 175 175 177 176 177 178 181 184 185 183 181 178 178 181 181 184 182 181 189 188 181 187 193 196 190 191 194 194 197 196 190 188 190 189 186 186 187 206 207 208 207 210 212 200 209 212 213 208 195 182 182 189 191 180 179 172 174 162 163 167 170 171 169 171 173 170 170 170 170 171 173 176 177 178 181 184 186 189 187 187 189 188 187 185 184 183 182 180 180 179 179 178 177 180 178 180 181 182 183 186 183 183 182 179 180 179 180 181 183 181 191 186 180 184 193 192 193 192 195 194 197 196 192 190 190 188 189 186 188 207 208 209 208 208 206 200 210 213 214 206 191 185 186 196 188 174 175 176 171 164 164 165 171 171 171 173 173 177 175 178 178 179 182 183 185 183 188 189 193 195 197 192 193 191 189 187 186 185 185 182 182 181 180 181 177 181 183 185 186 185 184 185 183 182 181 183 181 177 179 182 182 180 192 183 177 183 192 191 194 195 196 197 197 197 193 194 190 188 190 189 189 208 209 209 208 207 202 202 210 212 212 201 186 188 186 200 189 169 173 173 173 164 164 163 169 168 172 173 174 178 178 180 181 185 185 186 187 187 190 191 195 194 195 194 195 191 191 189 187 185 184 184 182 181 181 180 178 182 184 188 188 188 187 185 183 184 180 185 180 175 180 184 180 183 190 182 174 185 186 191 192 195 198 196 199 198 195 194 193 185 190 190 188 210 209 208 208 206 200 208 209 208 211 195 186 184 187 202 191 171 173 167 171 168 165 164 167 172 174 176 176 177 176 179 177 179 183 186 186 187 190 191 195 196 197 197 197 195 195 192 192 190 189 189 185 185 182 182 182 183 185 188 191 189 188 187 186 183 182 183 180 177 179 182 179 186 187 177 176 183 184 189 192 196 199 198 198 198 196 195 196 188 190 189 190 208 209 207 205 206 203 213 206 206 209 191 186 180 194 204 190 176 169 165 167 166 166 164 166 171 175 176 179 178 178 180 177 179 180 183 188 189 190 193 196 198 199 200 200 199 200 197 195 192 192 190 187 187 187 186 189 187 190 190 191 190 189 188 186 183 182 182 178 178 177 184 184 184 185 180 178 182 185 184 193 194 199 198 199 197 199 197 196 192 192 190 191 207 209 206 205 208 207 211 203 207 201 194 182 184 197 203 193 177 166 165 168 162 163 163 164 171 172 176 178 179 181 182 182 183 183 186 188 191 192 193 195 197 199 200 202 201 199 199 198 196 196 194 191 190 191 190 193 192 192 189 189 190 189 186 186 184 181 176 175 175 175 185 181 185 187 186 175 185 184 181 190 192 198 196 199 195 198 200 197 194 191 192 190 207 208 207 209 208 209 206 201 206 197 192 181 185 198 208 196 175 166 165 164 159 159 162 162 170 169 173 179 182 180 183 185 187 186 189 190 191 195 194 198 197 198 199 201 199 199 198 197 198 197 196 193 192 190 188 193 191 192 189 189 189 189 185 184 185 177 174 173 172 179 183 179 187 182 203 180 184 185 178 184 190 196 196 196 195 196 198 196 194 193 193 190 206 208 208 208 208 207 196 198 197 195 197 183 188 198 214 195 173 166 166 162 159 156 159 161 166 167 170 176 181 183 185 186 187 189 189 192 192 197 195 197 197 198 195 197 197 197 196 195 193 197 195 193 192 190 190 191 190 191 190 191 187 185 184 182 180 175 170 168 174 178 187 180 188 184 209 193 180 185 183 183 188 190 197 195 196 194 198 195 194 192 193 192 206 206 207 204 204 199 189 195 192 201 197 186 197 204 213 197 171 162 169 162 155 157 157 161 164 167 168 172 178 182 186 187 187 189 190 192 193 195 195 197 197 199 195 197 195 195 194 193 194 194 194 190 192 192 193 191 190 188 191 188 182 182 180 179 176 171 168 168 172 180 182 188 190 189 212 204 182 181 186 181 187 186 195 196 193 193 197 196 193 192 193 192 204 205 202 200 204 196 196 199 205 209 196 196 198 212 212 197 171 161 166 162 154 153 155 155 163 168 168 171 173 177 182 188 190 193 192 193 194 193 195 199 200 199 197 196 194 196 194 195 192 192 190 193 194 194 191 191 188 190 189 184 179 179 177 175 172 166 169 170 171 179 180 191 191 188 211 206 189 181 185 180 180 182 188 193 193 193 190 191 187 186 189 184 203 211 203 207 215 208 210 211 212 215 202 206 195 216 209 196 172 161 166 158 157 153 149 152 157 164 170 169 173 173 179 186 190 194 193 193 193 195 194 198 199 200 198 198 196 196 197 196 196 196 198 197 196 196 192 190 191 189 186 181 177 179 175 175 168 169 173 170 173 181 182 192 195 188 215 204 202 183 182 180 179 175 175 182 188 189 184 181 175 177 173 174 207 212 210 220 222 220 214 209 215 223 212 205 201 209 205 195 181 162 163 162 156 154 149 148 155 157 165 170 171 173 176 180 184 192 193 197 195 198 199 199 201 199 202 201 200 201 201 199 200 199 198 200 197 193 195 193 193 186 182 180 178 177 174 172 170 173 171 171 174 181 183 188 201 190 213 211 212 195 186 185 180 178 173 179 189 190 186 180 175 173 172 169 218 222 220 227 225 221 215 219 223 227 218 206 206 205 201 197 184 165 163 162 160 155 151 147 150 158 158 165 170 172 173 177 180 185 186 193 196 197 200 200 204 201 200 202 200 201 201 202 201 198 198 198 193 197 197 193 187 183 180 179 176 175 172 172 173 172 170 173 180 177 179 184 202 191 213 218 221 213 195 187 187 187 179 177 185 190 188 180 177 175 174 174 225 221 220 219 228 224 223 229 227 228 214 203 211 201 202 199 184 170 164 161 158 159 151 150 148 151 156 159 163 170 173 172 176 183 184 187 191 195 198 200 201 200 199 199 200 200 199 199 198 198 199 197 196 194 191 187 183 180 177 176 174 173 173 174 174 174 172 175 185 180 175 184 200 197 217 220 227 225 205 200 191 192 193 183 182 188 186 174 167 171 172 175 228 218 221 232 238 235 233 232 224 225 209 206 216 199 200 201 186 177 165 165 156 159 155 148 149 150 154 154 158 162 168 170 171 176 181 183 187 192 196 198 200 202 201 202 200 198 199 198 198 195 195 195 193 188 185 183 180 177 177 173 173 173 174 176 175 174 174 180 182 181 179 189 191 207 219 229 226 226 210 205 204 195 199 193 187 188 189 180 165 159 162 173 