P2
92
112
255
234 234 234 236 234 235 234 235 234 234 233 232 231 229 227 226 225 221 218 212 209 204 204 202 197 191 186 183 177 170 164 158 153 150 149 148 145 137 138 135 137 138 139 134 138 136 139 143 148 153 157 164 167 169 175 178 181 183 186 190 193 196 196 202 204 208 215 217 216 221 221 221 221 225 227 227 228 228 229 229 229 229 229 229 229 230 230 230 230 230 230 230 235 235 233 235 233 234 234 233 233 233 232 229 230 228 225 224 221 215 211 204 202 197 194 187 184 178 172 164 159 154 148 145 143 138 134 132 126 120 122 120 117 120 118 120 118 122 124 131 136 140 144 147 150 154 152 154 159 163 166 178 186 188 191 193 196 200 200 206 210 214 217 218 220 221 223 226 226 226 227 228 227 229 228 228 229 229 229 228 229 229 229 229 234 234 233 233 234 234 233 233 232 231 230 227 227 224 223 219 215 210 205 200 194 188 177 173 170 159 151 146 143 136 133 130 124 118 114 108 102 103 102 102 103 105 105 108 104 108 110 114 121 124 131 135 141 145 142 143 145 145 147 159 170 179 186 188 191 194 194 196 199 205 211 217 216 218 219 221 223 223 225 225 227 227 226 228 228 228 228 228 228 229 229 229 233 234 233 232 233 233 234 232 231 227 227 225 222 221 218 212 209 203 200 191 181 174 164 160 149 142 135 132 130 120 114 111 103 99 91 85 85 85 86 89 92 88 91 95 95 91 97 99 100 107 114 119 128 134 137 140 140 138 137 144 149 156 171 177 180 182 190 192 194 195 200 204 210 212 216 218 220 220 223 223 225 225 225 226 227 227 227 228 228 229 229 228 233 233 232 233 232 230 232 231 228 227 225 220 216 215 211 203 200 196 190 179 170 159 148 137 131 127 124 122 117 103 95 93 83 82 76 75 73 74 73 73 76 76 78 78 79 82 88 82 88 89 95 101 107 114 120 124 128 133 129 130 137 139 145 154 158 165 180 185 187 193 196 197 200 202 209 215 218 218 218 222 223 222 223 224 226 227 225 227 226 228 228 228 234 233 232 233 232 231 230 228 227 224 222 214 213 207 203 197 193 188 178 169 160 143 130 122 120 115 111 104 99 85 80 75 68 68 65 67 62 66 61 60 64 66 67 64 63 69 73 70 74 77 80 85 91 92 95 100 109 117 118 124 124 130 136 134 134 148 164 174 181 187 191 192 194 195 200 208 213 214 215 215 220 221 223 223 225 226 225 227 228 227 228 228 233 232 233 232 232 230 230 227 224 222 215 211 207 202 194 188 184 175 163 150 136 125 121 114 107 99 90 82 73 65 64 58 59 60 58 58 52 57 48 52 56 53 54 48 55 57 56 60 62 70 69 75 78 79 80 86 92 100 105 113 117 118 124 123 128 134 145 156 163 170 174 182 186 189 192 198 207 210 212 215 215 218 221 222 223 224 226 226 226 227 228 226 232 231 232 232 230 227 224 225 222 216 210 206 201 193 184 178 172 159 139 127 123 116 111 104 90 80 70 62 55 49 47 43 48 49 41 39 38 38 37 43 44 43 42 41 43 45 47 46 52 57 60 65 68 71 71 75 81 86 91 101 106 109 113 112 113 125 132 141 148 155 163 168 171 179 185 192 195 204 208 213 215 216 217 221 222 222 225 227 225 226 227 227 232 230 231 229 225 224 224 221 218 209 206 199 194 184 178 172 154 134 123 117 113 102 96 86 71 63 54 48 40 39 36 33 35 30 26 26 22 21 23 30 29 29 28 32 31 33 33 36 41 50 52 54 58 60 65 67 71 76 80 83 93 96 97 96 101 107 116 127 134 139 152 159 162 168 176 187 193 196 203 207 211 214 214 218 219 222 224 225 225 226 225 226 230 230 228 224 224 222 223 218 211 205 200 194 186 178 168 154 133 121 118 112 102 90 78 68 57 47 40 33 30 29 25 24 20 19 15 15 11 11 13 16 17 18 21 21 23 24 24 30 36 41 40 40 42 48 53 57 56 63 67 73 74 79 83 82 87 94 105 111 121 128 137 148 152 158 162 173 189 191 197 202 204 210 214 215 216 219 223 224 225 224 225 226 228 226 223 223 221 222 219 211 206 202 192 187 178 168 153 132 121 112 111 101 90 76 61 52 48 34 27 24 22 19 14 15 13 12 10 8 6 8 8 8 14 12 15 12 12 15 23 25 27 29 28 29 32 42 42 47 51 50 54 58 62 65 71 74 77 83 88 97 102 115 121 131 144 148 152 159 178 187 191 195 196 206 209 212 214 216 220 222 223 224 225 226 223 222 222 223 221 218 211 209 203 194 186 178 171 152 135 119 112 107 103 87 71 59 46 38 39 24 22 17 12 11 6 6 7 5 5 2 4 5 6 3 7 8 6 8 8 10 16 15 20 24 21 24 29 37 38 39 42 41 45 47 52 51 56 60 64 73 78 86 92 99 112 120 132 143 148 151 160 179 183 188 193 198 202 207 211 212 215 218 221 223 224 224 223 223 223 223 218 213 211 204 197 188 177 169 155 142 126 111 105 100 85 70 51 44 35 27 22 18 15 12 8 6 2 4 3 1 0 0 0 3 3 2 4 3 3 5 6 6 8 10 15 20 21 21 24 28 30 31 35 34 35 39 38 40 41 47 49 62 70 78 81 90 97 110 119 130 140 148 148 158 170 179 184 192 196 200 207 209 212 214 219 221 222 222 222 221 222 218 214 209 206 199 194 181 171 163 143 131 117 101 94 85 67 52 42 32 26 20 15 13 11 9 6 6 4 2 3 2 0 0 2 2 2 0 2 3 3 4 4 5 6 10 15 15 18 18 20 20 24 25 26 27 29 29 31 29 32 31 36 45 56 73 69 86 88 97 101 112 121 138 142 147 155 166 170 185 192 194 202 210 210 211 213 218 220 222 221 218 218 215 208 204 198 193 186 174 165 152 134 113 104 93 78 64 51 43 36 25 20 16 15 12 12 9 7 6 4 3 4 2 3 3 3 3 5 3 2 4 6 6 7 7 9 11 13 12 16 17 18 19 20 21 20 20 23 22 25 24 26 25 29 34 42 56 61 76 79 86 89 99 105 123 135 143 145 155 156 169 182 191 198 208 209 209 209 212 218 223 220 218 215 210 205 201 191 186 179 168 159 143 122 106 93 77 63 51 42 38 30 21 18 16 17 15 14 13 10 9 7 8 9 6 7 8 9 9 12 9 10 7 9 9 11 11 12 12 15 16 17 19 19 20 18 19 19 19 20 22 24 24 24 25 27 30 34 37 50 67 70 80 83 90 96 108 125 136 140 150 152 157 166 184 193 201 208 209 207 209 215 219 221 216 212 204 203 195 186 178 172 162 151 130 114 99 80 64 53 43 35 33 23 20 20 18 17 18 18 15 15 15 13 14 16 14 15 17 17 16 16 17 16 13 12 15 16 15 15 18 19 20 21 19 22 23 24 22 22 22 23 25 25 25 26 27 27 30 31 34 41 55 61 69 77 87 93 94 110 126 138 147 148 154 146 173 188 193 202 210 207 211 211 215 219 214 209 200 197 186 178 173 162 151 139 120 106 88 69 56 45 37 33 29 21 22 22 21 21 21 21 18 20 20 20 22 21 22 21 25 24 23 21 22 22 20 20 20 23 21 21 23 23 24 26 24 25 27 29 27 26 28 27 28 29 26 28 29 27 29 31 32 35 46 53 63 71 80 85 86 97 118 131 142 148 150 144 161 180 191 199 207 209 210 209 214 215 210 202 200 188 179 173 165 150 138 125 110 94 76 58 48 37 32 29 23 22 24 25 25 24 25 25 24 26 28 29 30 30 30 29 31 30 31 28 29 28 27 28 27 28 27 26 29 28 30 30 30 30 32 32 32 30 32 33 32 33 31 30 30 32 31 34 34 36 42 45 59 62 72 79 82 88 106 121 136 145 152 155 160 170 185 194 204 208 209 212 211 211 206 198 195 183 177 167 155 145 131 116 99 77 61 49 40 34 29 25 23 24 27 26 28 28 31 34 33 34 35 37 38 36 37 38 37 37 38 37 37 36 36 35 36 35 35 35 35 35 35 38 39 36 37 38 38 37 38 38 38 38 38 37 36 35 34 35 36 39 41 45 51 61 68 72 77 83 92 110 126 139 149 160 158 162 174 187 199 206 213 211 212 207 201 195 185 177 171 158 147 140 124 108 86 65 50 43 38 31 28 25 25 29 30 31 32 34 36 38 38 40 40 43 42 44 45 46 45 46 46 44 43 42 45 44 43 42 42 43 42 43 46 46 46 44 44 44 45 47 46 45 45 46 44 43 41 39 37 40 40 40 45 46 47 55 63 66 70 79 90 102 119 134 145 153 160 160 172 183 193 204 212 211 213 201 197 187 177 167 153 146 135 134 118 98 74 54 47 42 35 31 28 29 32 34 34 37 39 40 42 42 44 46 47 50 50 53 54 54 54 53 54 53 53 53 53 53 52 50 50 52 49 50 52 53 52 51 54 52 55 54 53 53 54 53 51 51 48 45 45 45 44 44 48 46 49 51 59 64 67 73 85 96 107 125 138 148 156 157 166 184 191 200 213 210 212 199 191 176 167 158 142 137 135 129 113 87 62 52 47 42 36 34 33 37 37 40 40 44 47 49 49 52 52 53 56 58 60 61 65 66 65 63 63 65 67 67 67 62 62 60 59 61 59 58 59 60 60 59 61 62 62 63 60 62 63 62 60 60 57 55 52 51 49 48 51 50 48 50 57 63 65 68 76 89 95 117 131 143 153 157 158 171 188 193 205 209 211 195 186 169 164 146 136 135 137 123 102 77 59 51 45 43 42 40 41 43 44 46 48 51 53 55 57 62 62 64 66 67 70 72 75 77 78 74 74 77 80 78 81 77 76 74 72 71 71 70 72 70 70 71 71 72 72 72 71 72 72 71 69 68 67 65 61 59 57 53 54 54 52 50 54 62 63 69 71 82 93 108 121 135 148 154 155 156 178 187 198 206 212 192 181 165 153 138 132 132 133 116 98 73 61 52 48 46 48 45 47 48 49 52 56 57 62 65 66 71 73 76 78 78 81 84 86 87 88 89 87 89 91 89 91 89 90 89 86 86 85 84 83 83 82 85 84 83 84 82 83 82 83 83 80 76 74 73 69 68 66 59 58 60 56 53 53 58 63 68 71 76 91 102 117 125 139 153 152 151 162 187 193 205 212 188 176 160 147 138 135 134 130 112 96 75 60 53 52 51 52 50 55 55 58 62 65 67 71 76 78 81 84 85 88 90 92 95 94 97 99 98 99 100 101 99 102 101 101 100 98 96 96 94 92 93 94 94 95 93 94 92 93 91 93 92 90 87 85 82 79 75 73 71 64 64 63 57 59 58 63 66 69 73 82 95 110 120 131 148 152 149 155 178 193 200 210 181 171 156 147 140 133 133 124 102 94 72 62 54 55 57 57 58 63 64 67 71 73 76 79 84 87 90 91 93 96 97 99 104 104 107 108 107 108 109 109 110 110 111 110 109 107 105 105 103 101 101 102 103 105 104 104 102 102 101 102 101 99 97 96 93 89 84 82 79 75 71 69 62 63 62 66 69 68 72 78 88 104 111 129 141 151 151 153 173 191 195 205 173 165 155 142 136 134 128 119 100 86 69 63 56 59 61 62 65 71 71 73 78 79 84 86 90 94 97 99 102 103 104 108 110 112 116 118 118 116 117 116 117 117 118 116 115 115 112 112 110 112 109 110 112 114 113 113 112 110 111 111 109 108 107 105 103 99 93 90 89 84 81 75 69 70 66 67 72 69 73 74 81 98 110 121 135 146 153 159 169 189 194 202 167 157 150 139 137 132 122 112 97 81 70 65 58 64 67 68 70 76 78 80 84 87 90 94 97 103 107 109 111 112 115 118 120 122 124 126 127 124 124 123 124 124 124 122 121 121 120 119 119 120 117 117 121 123 122 123 123 122 122 120 120 120 115 114 112 109 102 100 98 95 88 83 74 74 69 69 73 72 72 79 84 91 108 123 135 145 150 165 165 184 190 199 160 155 150 142 140 131 115 103 92 78 69 66 63 70 70 72 75 80 84 85 89 94 97 103 108 113 115 117 120 121 124 126 128 128 131 132 132 130 130 128 130 130 130 130 126 127 126 127 126 128 125 127 130 133 133 131 132 132 132 129 130 128 123 120 118 115 111 107 105 100 96 92 81 77 73 71 78 75 72 83 86 92 104 122 136 145 148 160 164 176 188 194 157 156 149 144 140 130 111 96 89 77 69 67 69 71 72 76 80 85 87 94 99 105 110 116 119 123 124 127 129 130 131 133 134 134 136 136 137 136 136 134 134 137 136 137 132 133 134 135 134 137 135 138 140 141 141 140 139 141 140 138 138 136 132 127 126 122 119 114 111 109 103 98 91 84 78 72 79 78 77 83 87 94 107 118 143 145 149 150 158 165 182 194 155 159 147 142 138 125 108 94 88 75 68 69 72 75 78 79 87 91 98 104 112 118 123 127 129 132 135 136 140 141 141 141 142 141 141 141 140 139 142 140 139 143 142 140 138 138 140 143 143 144 145 146 148 150 151 150 151 152 151 149 149 147 144 140 137 131 129 125 121 119 113 106 98 91 84 77 80 81 80 82 88 93 111 120 138 147 151 149 151 159 175 191 158 156 141 139 131 120 108 95 84 77 68 72 74 79 83 83 93 103 108 113 120 127 133 136 139 140 143 145 147 147 146 148 147 148 146 145 144 142 150 147 148 150 148 147 144 146 150 151 153 152 152 155 157 159 158 157 159 156 157 159 159 157 157 154 151 145 143 137 134 131 127 117 110 99 91 83 83 85 81 84 87 91 106 123 135 144 150 153 153 155 170 190 161 152 137 132 129 116 104 92 84 77 71 75 81 86 87 91 100 111 115 124 128 133 137 138 141 146 149 149 151 150 151 151 149 153 153 155 156 154 157 157 156 156 157 153 151 151 153 152 154 154 158 160 163 162 161 161 163 161 162 166 165 165 164 164 161 157 155 150 146 142 139 131 118 108 100 92 88 87 82 83 88 91 102 123 137 141 148 152 151 150 160 185 159 147 136 128 123 114 101 92 90 80 79 83 86 91 93 101 116 125 131 133 137 143 145 148 152 152 153 153 155 155 156 156 157 161 160 164 162 163 164 165 162 161 162 160 156 157 157 160 159 163 163 164 166 167 167 167 169 168 171 172 170 170 169 168 167 168 164 162 157 151 149 141 132 119 108 101 97 90 82 83 87 88 100 120 135 142 148 144 141 147 154 176 155 145 133 126 120 113 99 97 91 84 87 89 89 101 105 118 130 132 135 142 148 155 158 161 162 164 166 168 172 173 174 176 179 180 179 179 183 181 179 173 173 170 165 165 163 164 163 164 164 167 168 168 172 173 174 174 175 175 178 178 176 175 172 171 170 171 171 170 167 160 155 150 145 135 124 118 106 99 87 85 86 91 101 123 128 137 144 142 138 141 148 168 154 142 133 124 120 113 100 98 95 91 93 94 98 105 112 124 134 137 146 150 157 164 169 169 173 179 180 181 189 190 189 190 192 194 193 193 193 193 190 186 180 178 176 176 170 170 169 170 169 171 174 178 182 179 180 184 185 186 189 188 186 183 182 179 180 179 177 177 174 170 166 161 153 150 137 127 115 105 100 91 92 91 102 126 130 133 139 141 139 142 144 160 153 139 136 123 118 109 105 96 97 95 98 97 99 111 121 129 136 147 153 153 162 171 173 174 177 181 184 190 197 202 204 202 202 205 203 204 202 199 199 197 192 190 189 186 181 182 182 181 180 184 183 187 195 192 194 195 197 197 199 199 196 193 193 190 191 190 190 189 183 176 173 166 159 149 141 129 121 112 105 96 93 99 103 120 130 135 135 139 138 143 139 158 154 141 133 125 121 105 109 93 100 102 98 99 99 114 124 135 143 156 156 160 172 175 177 181 188 189 194 201 205 209 213 212 211 214 211 211 211 206 207 204 202 202 200 195 190 189 192 193 190 193 193 194 197 201 205 206 208 208 206 208 206 204 200 200 199 197 195 193 188 181 178 173 163 152 146 130 121 115 112 99 93 101 109 114 129 136 140 142 141 139 138 156 156 145 135 123 121 106 107 98 105 104 99 99 104 118 133 139 151 157 160 169 175 177 184 189 197 198 203 205 208 212 214 214 216 218 217 216 217 214 212 211 209 206 204 201 196 197 199 199 199 200 201 202 204 208 211 214 216 216 217 217 214 215 209 206 202 199 194 189 186 181 179 173 169 162 156 143 126 123 117 100 97 104 110 117 123 133 140 147 143 138 135 154 156 139 131 123 116 108 107 108 108 102 102 104 108 122 138 146 153 157 161 172 175 179 189 195 201 203 207 208 212 216 219 221 221 224 223 222 223 220 217 214 212 210 207 204 201 201 203 203 203 205 204 207 210 214 217 218 221 224 223 223 222 221 216 215 206 200 199 193 185 179 176 175 168 164 162 160 139 130 119 107 105 106 113 118 122 130 138 143 143 141 136 148 161 140 126 121 115 111 110 109 108 102 101 109 108 121 139 147 152 156 161 171 174 177 185 196 202 204 211 215 216 219 222 223 224 225 225 224 225 222 219 220 214 210 206 204 201 200 205 208 209 211 209 214 216 220 224 224 225 227 225 226 225 224 221 216 212 204 204 197 191 185 178 176 169 162 158 161 147 131 123 113 106 115 121 116 122 125 134 142 141 144 140 148 158 140 128 115 108 109 109 101 111 102 98 108 108 126 141 152 160 161 170 172 178 188 195 205 214 214 217 224 223 223 231 230 234 230 233 231 231 229 227 227 222 217 213 209 206 205 210 215 217 217 219 221 224 228 231 234 234 233 233 231 231 228 226 220 216 212 210 206 195 194 189 183 173 163 160 161 151 133 121 113 107 114 122 114 116 120 133 136 145 144 148 148 155 135 126 108 102 108 106 98 106 103 104 115 116 127 146 154 153 155 170 178 188 200 212 220 226 230 233 238 238 239 241 239 241 237 239 238 237 233 232 230 223 219 210 204 201 204 208 215 217 216 218 224 227 228 234 237 237 239 239 238 231 228 228 223 220 217 219 215 204 195 195 190 182 170 165 164 155 141 124 111 103 118 122 119 113 110 129 133 148 144 147 149 156 132 119 113 119 113 108 108 106 106 107 113 119 123 142 151 150 162 178 187 197 205 219 226 229 231 236 236 241 245 246 242 244 243 243 244 242 239 224 229 227 222 217 212 209 213 214 218 218 218 220 224 228 236 242 242 246 247 242 244 242 237 236 231 227 222 222 219 212 201 196 192 184 171 164 163 154 145 126 111 99 120 116 110 106 116 135 138 143 144 144 150 155 134 120 121 127 118 111 113 106 108 112 120 119 129 140 154 156 170 182 187 194 203 213 221 223 230 226 228 234 239 236 235 236 243 239 243 243 234 218 220 224 220 218 213 214 215 218 220 220 220 224 228 235 241 250 246 250 250 247 246 243 239 237 232 229 225 226 222 216 209 196 188 186 175 157 157 152 147 124 113 107 122 116 100 97 120 140 141 142 135 147 155 151 137 119 129 132 120 113 114 105 102 108 114 115 134 135 150 160 168 173 181 192 204 210 211 214 227 222 224 232 235 232 232 233 240 237 240 237 226 215 215 221 219 217 210 212 209 213 218 222 224 223 231 239 243 249 250 254 252 252 246 248 243 234 232 225 223 223 217 213 206 199 193 184 182 159 152 142 141 123 108 105 121 118 104 95 122 139 143 138 133 145 159 148 130 122 129 128 116 109 113 108 96 94 108 114 133 134 146 161 164 163 174 184 194 199 201 212 221 221 220 226 225 225 225 225 234 239 241 231 221 217 217 217 216 214 209 210 205 207 217 222 227 226 231 236 244 249 249 254 254 248 246 241 233 235 232 223 225 224 214 210 204 201 192 185 180 167 156 140 139 130 110 96 106 118 114 106 121 128 136 143 135 144 166 153 131 122 127 127 112 104 105 100 93 88 101 114 126 131 140 149 151 150 161 174 180 181 189 196 207 208 217 219 219 222 220 221 222 225 230 215 206 202 207 212 211 212 211 206 201 208 214 219 224 220 225 227 236 243 244 244 245 239 236 230 225 226 229 222 219 218 209 201 197 192 185 180 176 165 159 142 137 126 112 99 107 110 122 120 121 122 133 140 145 151 177 155 129 117 126 125 111 100 102 89 89 86 101 114 117 123 130 132 130 133 149 158 164 170 179 185 190 199 202 206 204 208 206 205 202 206 199 192 179 177 195 198 197 199 201 192 192 194 201 212 216 211 209 212 218 226 219 222 223 220 222 217 210 216 216 209 211 206 197 196 190 182 176 171 170 162 154 147 140 124 114 100 106 105 125 125 119 125 140 145 147 152 179 153 129 109 122 120 110 100 104 85 93 87 97 108 110 111 123 118 114 118 136 143 145 151 157 162 166 175 180 182 181 184 188 183 182 186 176 168 157 167 179 183 188 185 190 180 181 183 186 198 200 202 191 195 195 203 201 200 202 197 198 198 192 192 197 187 188 178 186 180 171 160 160 160 158 155 149 148 146 134 119 103 107 102 128 128 124 122 147 148 145 155 186 153 126 109 115 107 106 94 103 88 91 84 93 97 99 109 116 113 103 114 128 139 133 136 140 145 155 159 161 156 161 162 161 159 164 157 155 147 141 153 167 168 174 172 173 163 164 172 176 182 189 191 182 181 188 183 192 189 189 174 170 172 169 172 178 170 163 156 157 157 159 157 145 144 146 141 135 139 147 132 120 107 109 105 130 125 131 123 153 154 148 166 187 157 127 112 115 98 97 92 100 92 92 86 88 88 93 107 101 108 100 103 106 111 103 110 114 124 127 135 145 143 142 133 130 132 140 128 132 124 127 142 166 169 171 167 160 150 156 165 168 171 180 169 164 163 169 166 162 159 164 157 149 142 148 148 149 154 155 148 140 146 144 136 127 129 136 131 132 137 144 127 117 113 113 113 128 117 134 123 151 153 155 173 192 161 129 130 120 96 92 87 94 94 90 90 93 85 88 106 103 105 98 96 98 103 94 96 99 97 91 105 112 115 112 111 105 109 119 104 114 101 107 124 139 145 151 151 140 137 147 154 159 165 168 161 150 152 161 160 155 151 139 143 129 118 128 125 132 138 135 137 135 140 143 143 120 122 132 128 128 132 136 131 117 120 117 121 130 105 126 125 144 149 151 183 188 163 133 130 120 96 87 87 94 92 87 85 97 88 86 105 109 96 89 89 86 88 81 88 93 89 88 89 96 98 92 85 91 93 89 92 94 100 113 135 140 149 138 131 121 124 135 145 151 156 156 150 141 143 143 142 144 144 129 123 120 118 122 114 118 117 121 134 139 141 134 133 124 122 132 128 125 132 132 126 120 123 122 129 121 105 123 122 141 145 158 184 184 161 139 135 119 98 94 88 92 93 86 83 95 89 86 94 106 104 96 91 88 89 84 84 90 88 89 86 85 87 84 77 75 72 71 81 82 85 117 127 124 131 124 126 121 130 136 135 143 149 156 152 149 141 137 137 143 142 130 114 109 114 111 107 107 110 102 115 120 126 129 127 128 131 123 126 123 129 132 124 128 118 130 128 115 110 123 126 139 150 163 186 190 158 144 139 113 95 91 91 92 91 89 88 92 95 87 97 104 98 91 91 91 92 84 81 82 86 89 85 84 88 88 75 74 68 70 79 83 91 119 128 129 123 123 125 127 128 128 132 137 144 151 150 149 135 126 131 135 122 124 113 99 101 104 96 102 110 108 112 125 124 124 126 125 133 131 128 124 133 133 133 132 119 135 127 114 116 122 124 143 158 173 186 192 156 148 138 112 94 91 96 98 95 91 92 97 101 97 103 108 104 99 91 95 96 85 83 84 86 92 91 96 95 89 82 75 75 81 83 96 117 118 128 128 128 131 137 133 136 127 137 141 151 149 145 142 143 136 135 132 119 110 107 100 91 97 98 104 107 111 117 117 129 129 128 135 132 128 128 131 137 142 142 124 126 137 130 118 116 127 133 155 158 181 180 189 157 153 144 111 99 94 102 100 95 97 94 103 106 103 113 114 110 111 106 103 102 98 97 99 99 101 103 101 101 95 98 88 87 92 103 103 107 114 132 133 141 135 132 135 142 140 146 143 149 149 144 144 133 133 129 124 117 112 100 103 96 100 104 105 116 112 117 117 123 132 128 133 134 131 137 139 136 137 138 131 132 134 131 125 118 138 147 162 160 184 182 189 154 156 153 113 107 101 107 110 95 100 98 104 113 105 113 115 114 115 116 113 112 110 111 111 108 112 112 113 111 110 108 103 105 110 112 117 129 140 145 140 147 138 126 129 138 147 148 152 151 151 152 153 142 139 138 131 124 124 112 107 109 112 119 118 119 122 130 132 133 130 136 136 135 133 138 135 131 138 138 135 134 138 135 125 127 147 146 155 170 184 189 183 155 157 165 117 109 108 114 113 107 102 106 106 113 111 113 117 117 115 116 117 124 121 123 124 124 122 123 122 121 121 118 119 118 124 127 134 141 146 138 139 150 146 132 136 143 145 156 159 154 154 160 151 143 141 149 142 142 133 130 120 118 120 123 128 129 133 134 137 137 137 141 140 140 137 138 133 130 133 138 139 141 146 141 134 137 146 136 148 183 181 191 181 161 157 171 132 112 115 124 119 122 110 110 114 117 114 116 115 120 118 114 114 122 127 125 126 125 126 130 133 132 131 131 127 127 137 142 147 151 149 144 147 156 152 146 144 151 150 158 163 164 161 172 158 151 146 148 148 150 151 141 137 132 131 133 136 139 140 139 141 140 138 142 141 136 136 134 128 129 132 136 140 147 151 149 146 151 158 138 154 186 179 188 177 161 158 173 150 122 126 122 120 122 116 116 118 119 121 120 118 119 122 122 123 128 132 138 138 135 137 140 142 143 140 140 138 145 151 154 155 153 154 152 147 152 155 153 149 153 157 156 160 169 162 175 166 165 157 155 157 158 154 150 141 144 138 138 136 136 137 136 136 140 143 146 145 139 137 135 133 130 131 133 149 152 155 155 169 167 168 161 164 187 182 181 179 158 159 166 167 137 136 124 125 118 117 116 116 123 127 127 126 123 125 125 128 130 135 139 146 150 156 158 159 163 161 155 151 155 157 160 162 159 160 158 151 152 158 156 163 169 169 166 163 171 171 173 167 172 167 160 165 156 163 151 148 142 143 143 142 139 140 143 148 154 153 151 147 138 134 135 136 138 137 139 154 159 155 167 182 177 175 187 181 184 184 179 185 165 164 163 176 158 141 129 125 117 115 122 118 119 129 132 135 131 132 136 131 133 137 143 148 157 164 166 168 170 168 165 157 161 162 168 165 164 163 167 160 164 168 163 169 172 180 179 173 178 178 179 180 174 173 171 169 163 160 160 151 154 152 153 158 155 151 153 155 159 157 154 153 142 134 135 141 142 137 148 162 167 159 171 181 179 181 200 192 188 176 176 189 169 172 157 172 168 153 137 129 120 116 122 116 123 131 134 138 140 138 138 145 143 145 147 150 156 162 167 170 174 174 170 158 166 168 175 173 170 167 176 170 170 179 174 176 176 181 190 183 190 188 185 185 187 183 188 177 172 160 167 159 162 163 161 167 166 161 161 167 168 165 164 162 152 142 143 150 149 152 161 173 173 162 167 180 184 194 199 196 189 172 180 190 163 173 159 175 168 162 138 128 120 118 129 124 128 136 134 140 142 145 146 147 148 152 151 152 161 164 170 176 175 174 172 160 170 174 176 171 172 174 180 173 172 179 181 180 189 195 199 196 197 198 198 192 197 189 191 184 177 173 170 170 168 172 168 170 171 167 169 173 173 170 169 164 157 148 152 152 156 157 165 175 173 162 162 171 180 200 203 194 192 171 180 187 160 171 162 177 175 172 149 137 133 130 134 137 135 143 141 143 148 152 152 153 151 155 147 158 163 164 170 174 173 171 172 166 167 175 175 172 176 177 178 176 184 188 189 193 196 206 207 203 206 205 209 208 206 198 191 188 182 184 182 180 178 171 174 175 173 171 172 174 173 169 170 164 155 155 157 154 154 162 169 173 180 166 155 161 170 202 204 197 191 172 183 185 171 169 164 172 176 170 156 146 149 141 141 140 136 144 147 148 154 156 155 155 157 154 155 165 166 167 169 172 172 169 171 170 170 178 180 177 180 180 177 184 197 199 199 203 207 212 213 212 207 207 218 217 208 205 199 195 188 186 188 182 180 176 175 177 181 174 175 176 175 177 173 171 163 161 159 152 158 168 172 178 178 169 163 159 176 204 208 193 190 178 184 183 183 169 168 168 175 170 160 153 160 158 149 147 140 145 147 152 158 158 157 159 159 158 160 164 168 170 168 172 171 170 174 175 172 174 178 174 180 184 186 196 204 208 206 208 213 217 220 219 212 209 221 222 221 211 200 199 193 188 189 186 180 177 179 178 181 179 180 178 178 182 177 174 168 165 157 159 166 174 176 174 180 183 176 163 182 207 203 192 194 179 184 181 186 174 172 165 174 169 160 161 167 167 152 149 142 149 150 156 159 161 162 163 163 162 160 162 168 170 170 169 173 173 174 175 175 171 173 184 185 188 195 199 207 213 213 211 219 221 224 225 219 215 217 222 222 219 209 202 199 193 195 194 184 182 182 179 177 180 180 178 179 182 182 176 175 171 162 163 173 179 172 173 178 182 184 175 187 205 199 195 194 182 183 183 178 179 177 165 168 173 167 166 173 171 156 151 144 150 152 156 159 163 160 163 163 159 163 167 175 171 169 174 175 176 179 179 179 179 174 189 198 196 200 204 207 211 215 218 219 222 224 224 222 219 215 218 221 220 214 205 201 190 192 194 188 184 181 178 174 178 180 182 181 182 184 181 180 176 168 167 179 181 176 180 180 182 194 180 193 203 195 194 197 182 183 184 178 175 184 170 164 171 172 173 171 173 156 155 151 151 154 158 159 161 161 161 162 161 164 170 175 173 175 178 178 179 183 180 181 185 186 189 200 200 201 207 205 211 213 214 218 218 225 226 224 218 215 211 213 215 216 217 204 193 193 196 195 189 185 187 184 181 181 182 181 181 184 182 181 179 172 173 182 185 179 184 186 189 193 186 202 204 195 201 193 182 182 186 180 179 184 174 166 171 168 174 171 173 163 157 152 148 158 155 158 161 162 161 166 167 173 175 179 181 179 181 180 181 186 182 184 187 189 193 196 200 204 206 207 208 210 211 214 215 216 219 219 215 215 214 212 213 212 217 206 200 195 195 193 192 190 191 186 183 180 179 180 181 184 183 183 181 180 180 188 191 184 183 189 188 190 191 209 202 203 201 188 180 184 187 180 183 185 178 168 168 169 167 166 170 169 161 154 148 154 155 161 163 161 164 169 169 178 182 185 185 183 186 181 186 186 186 183 186 190 200 196 195 206 201 203 202 205 208 207 209 213 212 208 208 208 208 208 203 205 207 204 203 197 198 197 194 192 191 188 186 183 182 180 183 183 184 181 180 182 183 190 194 193 190 191 189 192 196 211 205 207 198 185 184 184 187 181 182 186 183 175 168 174 166 166 173 170 161 155 150 152 156 161 160 162 168 172 175 182 188 189 187 184 188 186 187 187 187 186 186 186 192 194 195 200 197 203 205 208 210 204 201 207 210 206 202 205 204 204 202 197 203 201 200 195 197 198 198 196 194 193 185 185 185 187 186 187 187 182 185 185 188 193 195 198 195 193 197 195 202 210 206 206 192 187 186 186 188 183 184 185 184 178 170 174 169 170 175 171 166 156 150 152 155 157 161 168 170 174 179 184 189 188 186 187 187 189 188 185 185 183 184 185 190 191 200 201 201 204 211 209 209 203 198 201 202 205 205 203 204 204 205 203 200 198 195 195 196 197 194 194 192 191 185 186 183 187 187 186 189 187 186 187 192 194 195 198 196 198 203 198 202 208 210 198 191 188 187 186 187 185 185 188 186 183 174 177 173 173 176 174 171 154 150 148 152 154 161 169 170 175 181 184 188 185 187 186 187 189 187 181 182 178 181 187 190 190 194 201 201 206 208 213 212 208 205 204 209 207 204 204 204 203 205 204 203 199 193 198 200 197 191 189 186 186 185 184 184 186 187 188 187 185 186 189 193 192 197 196 198 200 205 203 204 210 209 193 193 188 188 185 189 186 187 190 190 187 179 184 174 176 175 175 169 156 151 149 151 154 161 164 169 172 177 180 184 184 188 186 189 188 185 184 185 180 183 187 189 189 194 200 197 201 205 215 218 213 214 211 212 210 205 203 204 200 198 199 201 202 198 197 196 197 193 188 185 184 185 185 186 187 189 189 186 186 187 194 194 190 195 195 196 204 204 204 208 213 201 192 194 187 189 187 190 190 187 189 189 189 186 188 182 177 168 170 164 157 152 150 148 152 158 160 165 171 175 177 181 183 184 183 183 180 181 185 187 181 184 188 187 188 192 195 200 204 211 213 210 214 218 208 208 202 203 203 204 201 195 197 199 200 200 199 200 197 193 188 189 188 184 186 189 189 192 191 186 182 190 194 193 191 195 197 197 206 205 204 209 209 194 195 193 190 188 189 190 189 188 189 190 187 184 190 185 176 172 165 164 160 156 152 152 148 155 161 161 171 174 176 179 182 179 180 183 181 183 182 182 179 179 186 191 189 192 196 204 209 207 212 210 210 213 206 205 206 204 202 205 198 194 195 195 196 194 196 199 197 194 193 190 188 184 185 187 190 192 192 186 183 189 193 191 197 200 198 201 206 202 202 209 200 191 193 194 189 190 189 191 190 186 191 190 188 187 187 187 176 176 166 161 164 160 150 152 150 153 160 163 170 176 179 180 182 180 175 177 178 180 178 182 181 177 179 186 187 190 200 203 209 208 210 209 208 213 207 207 207 202 202 201 193 193 191 191 192 192 191 196 194 195 194 187 185 184 182 187 191 192 190 185 182 187 192 191 198 200 202 202 205 204 201 202 194 189 196 194 191 189 188 192 188 188 192 191 188 188 187 188 180 175 172 163 166 166 154 150 150 155 160 167 171 174 178 179 177 176 169 169 173 174 174 176 178 177 178 179 183 184 189 194 201 206 206 205 207 205 198 200 198 196 197 199 191 191 192 192 194 192 192 190 191 190 186 184 183 182 181 184 190 191 187 184 183 186 187 193 199 200 201 202 206 204 200 194 193 195 197 193 194 190 191 190 187 188 192 193 192 188 187 189 184 175 177 166 169 170 158 151 150 155 160 170 171 174 174 175 175 174 171 170 177 180 178 182 183 181 180 180 182 181 182 183 188 198 201 200 206 204 197 192 193 194 196 201 196 198 195 191 193 192 192 189 190 184 182 180 180 181 182 181 185 187 183 184 186 187 189 192 198 199 200 201 202 203 191 193 192 195 196 193 191 190 191 192 190 188 191 193 193 190 187 189 186 183 180 169 169 172 161 151 150 155 162 168 172 174 172 176 177 173 172 170 174 176 172 176 181 182 176 183 181 178 177 176 178 183 189 191 194 200 193 189 190 190 192 198 193 187 186 184 186 182 185 187 183 179 178 177 178 179 181 181 183 183 184 181 184 185 186 192 196 198 200 199 203 197 192 195 193 197 192 191 192 188 190 191 192 190 189 193 192 192 189 189 188 187 182 176 166 174 168 154 153 157 163 165 169 169 171 172 173 169 166 167 170 171 171 168 168 170 171 175 171 165 171 169 172 175 177 179 182 190 183 181 181 181 183 183 179 175 174 171 172 171 172 177 174 168 171 172 177 177 181 182 182 181 179 178 182 181 182 192 195 201 199 200 204 195 194 196 195 196 192 193 189 189 190 189 190 191 191 192 194 194 192 192 190 186 185 177 169 172 171 157 157 157 161 162 165 164 167 167 165 164 162 160 165 166 167 167 163 166 170 174 168 168 170 173 174 179 173 178 178 181 181 179 181 181 177 175 175 171 172 166 166 172 169 173 174 173 174 172 177 178 180 181 180 177 178 178 181 176 182 190 197 200 198 200 202 195 197 195 197 195 191 192 187 189 189 187 189 190 192 194 196 195 195 195 190 186 186 176 170 170 173 158 157 160 162 161 161 160 163 163 160 158 154 154 158 162 167 165 164 168 172 172 167 167 175 174 176 177 176 181 183 185 184 177 182 175 174 169 169 170 168 168 172 172 169 171 171 173 173 172 176 175 179 179 178 178 177 179 181 178 180 190 195 198 196 200 201 196 198 196 197 195 192 190 191 187 188 186 191 191 193 196 197 199 197 196 192 189 189 177 173 171 175 162 160 158 160 162 160 154 159 155 155 154 152 151 157 159 163 167 168 171 176 174 173 174 179 179 177 180 179 182 185 185 184 181 181 182 179 174 173 173 167 168 172 171 168 168 167 169 171 172 173 173 176 175 176 177 175 179 181 178 185 192 196 198 196 200 199 198 197 197 196 194 191 191 190 184 187 185 196 193 194 197 200 201 200 197 192 193 194 182 177 177 174 166 161 154 154 160 161 159 161 156 151 148 149 150 155 160 163 166 170 174 177 179 182 181 181 182 181 185 182 183 185 181 185 179 177 179 181 177 177 177 173 170 170 170 169 163 164 169 169 172 173 173 175 174 174 174 175 183 183 178 190 194 195 197 197 200 201 199 196 197 193 190 191 190 187 185 186 185 197 198 196 197 206 204 203 199 198 196 198 189 183 182 176 167 164 156 150 157 159 158 161 159 158 158 154 154 157 158 164 167 170 172 173 175 181 181 184 182 184 186 184 185 182 175 181 181 182 182 185 181 178 177 177 173 170 170 168 164 165 170 171 174 176 177 180 178 180 175 176 184 185 179 195 194 196 197 198 199 200 198 195 196 194 190 188 189 186 187 188 188 200 197 199 201 207 206 202 199 199 200 197 189 187 185 184 174 171 165 154 159 161 161 160 160 161 161 159 158 158 157 160 165 168 169 169 171 177 179 182 182 186 187 186 186 187 179 184 185 186 186 189 184 183 179 177 173 167 168 166 169 172 175 173 176 177 181 181 180 180 176 178 186 184 183 196 193 195 196 199 199 200 197 193 197 194 193 187 188 188 188 188 187 200 197 203 203 207 204 204 202 204 203 199 188 186 189 188 178 173 172 164 160 164 165 164 163 165 165 163 163 164 164 163 166 170 173 174 173 173 176 179 184 186 190 190 190 188 184 185 185 186 186 182 181 178 177 174 173 169 166 167 171 174 174 175 177 178 181 180 178 180 177 181 187 181 186 194 193 195 195 197 198 199 196 197 197 194 194 191 186 187 188 189 188 200 203 204 205 208 207 206 205 208 209 204 189 185 191 188 182 176 176 171 164 163 165 165 166 163 163 165 164 168 168 166 167 169 173 175 176 177 178 181 183 186 190 192 193 194 189 189 188 187 187 185 184 180 178 177 172 173 170 168 173 174 175 176 177 179 181 180 177 179 179 184 186 182 189 190 194 193 194 198 196 198 196 198 193 192 195 190 188 187 186 188 186 205 206 206 205 209 211 209 206 213 214 204 191 184 185 183 188 180 177 175 165 162 164 166 166 166 165 164 162 166 166 164 165 164 166 167 169 175 177 179 184 189 191 196 196 195 194 190 188 190 186 187 185 182 178 175 170 172 174 174 175 175 175 179 179 182 182 181 178 179 181 186 182 184 188 189 190 190 196 195 194 194 194 198 192 194 194 191 188 186 187 188 186 205 207 206 205 212 213 205 206 214 214 203 192 183 177 182 189 185 176 175 170 161 162 163 164 165 165 165 163 162 163 162 166 167 167 168 170 175 177 178 181 184 185 187 187 187 190 190 190 188 186 185 183 178 175 172 172 172 175 176 174 175 177 180 184 183 181 179 178 179 183 184 184 183 189 188 186 188 198 196 193 192 195 195 197 194 191 191 188 188 186 188 188 208 207 209 208 213 213 203 208 215 213 207 195 183 176 184 192 188 177 174 173 162 163 163 164 165 166 166 167 162 166 162 165 168 168 172 174 176 179 181 180 184 183 185 184 184 186 182 184 184 183 181 179 178 176 175 175 175 177 176 177 178 181 184 185 183 181 178 178 181 180 184 182 182 190 188 182 188 194 198 191 192 195 195 198 196 191 189 190 190 187 186 187 207 208 209 208 211 213 201 210 213 214 209 195 183 183 189 192 181 179 172 174 162 163 166 168 170 169 170 172 170 169 170 171 172 173 177 177 178 181 184 186 188 187 187 188 187 186 184 183 183 181 179 180 179 179 177 177 180 178 180 181 182 183 185 183 183 182 179 180 179 180 181 184 182 192 186 181 186 194 193 195 193 196 196 197 197 193 191 191 189 189 187 189 208 209 209 209 209 207 201 211 214 215 207 192 186 187 197 188 175 175 176 171 163 164 165 169 169 170 172 172 176 174 178 178 179 182 183 185 184 188 189 193 195 196 192 192 191 188 186 186 185 185 182 182 180 180 181 177 181 183 184 185 184 183 185 183 182 181 183 181 177 179 181 183 181 192 184 178 184 193 192 195 196 198 198 198 198 194 194 191 188 191 189 190 209 210 210 210 208 203 203 211 213 214 203 188 190 187 200 190 170 173 173 173 164 163 162 168 167 171 172 173 177 177 180 180 184 185 186 187 187 190 192 196 194 195 194 194 191 190 189 187 184 184 184 182 181 181 180 177 181 183 187 187 187 186 184 183 184 180 184 180 175 180 183 181 184 191 182 175 186 187 192 194 196 199 197 200 199 196 195 194 186 190 191 189 211 210 209 209 207 201 209 210 210 213 196 188 185 188 203 192 171 173 167 172 167 164 163 166 170 172 174 175 176 175 178 176 178 182 185 186 187 190 191 195 196 197 196 196 194 194 191 191 189 188 188 184 184 181 181 181 182 184 187 190 188 188 186 186 183 182 183 179 176 179 182 181 187 187 178 177 184 185 190 193 197 201 199 199 199 197 196 197 189 191 189 191 209 210 208 207 207 204 214 207 207 211 192 188 181 195 205 191 176 169 165 167 166 165 163 165 170 174 175 177 177 176 179 177 178 179 183 187 189 190 193 195 197 198 199 199 198 199 196 195 191 191 189 187 186 186 185 188 186 189 189 190 190 188 187 186 183 182 182 178 177 176 183 185 185 185 180 178 183 186 185 194 195 200 199 200 198 200 198 197 193 193 191 192 208 210 207 207 209 209 212 204 208 202 195 183 185 198 204 193 177 166 165 167 161 163 162 163 170 171 174 176 178 179 180 181 182 182 185 187 190 191 192 194 196 198 200 202 201 198 198 198 195 195 193 190 189 190 190 192 191 191 188 189 190 189 186 186 184 181 176 175 175 175 185 182 186 187 187 175 185 185 182 191 193 199 197 200 197 199 201 198 194 192 193 192 209 209 208 211 210 211 207 203 207 198 194 183 186 199 209 196 175 166 164 163 159 158 161 161 169 168 171 177 180 179 182 184 186 185 189 189 191 195 194 198 197 198 198 200 199 199 197 197 197 197 195 193 191 189 188 193 191 192 190 190 189 189 185 183 185 177 173 172 172 179 183 180 188 182 203 180 185 185 179 185 191 198 198 197 196 197 200 197 195 194 194 191 208 210 209 210 209 208 197 199 198 196 198 185 189 200 214 195 173 166 166 161 159 155 159 161 166 166 169 175 180 182 184 184 186 188 189 191 192 196 195 197 196 198 195 197 197 197 196 194 193 196 194 192 191 190 190 191 191 192 190 191 187 185 184 182 180 174 169 168 174 177 187 181 189 184 209 194 180 185 184 184 189 191 198 196 197 195 200 196 195 193 195 193 208 208 208 205 206 200 190 196 193 202 198 188 198 205 213 197 171 162 168 161 154 157 157 160 163 166 168 171 177 181 185 186 187 189 189 191 193 195 195 196 197 198 195 196 195 195 194 193 193 193 194 190 193 192 194 192 191 189 191 189 182 181 180 179 175 170 167 168 172 180 182 188 192 190 212 204 183 182 187 182 187 188 196 197 194 194 198 198 194 193 194 194 205 206 203 202 205 197 197 200 205 210 197 197 199 213 212 198 171 161 166 162 154 153 155 155 163 167 168 171 173 177 182 188 189 192 192 193 194 193 194 198 199 198 196 196 194 195 194 195 193 193 191 194 195 195 192 191 189 190 189 184 179 178 176 175 172 166 169 170 171 179 180 192 192 188 212 206 189 182 186 181 181 183 189 194 194 195 191 192 188 187 190 185 205 212 204 208 216 209 210 211 213 216 203 207 196 216 210 196 173 161 165 158 156 153 149 151 157 164 170 169 173 173 179 186 190 194 193 192 193 195 194 198 199 200 198 197 196 196 197 196 196 196 198 198 196 197 192 190 191 189 186 181 177 179 175 174 167 169 173 170 173 181 182 192 197 188 216 204 202 183 183 181 180 176 176 183 190 190 186 182 177 178 174 175 208 213 211 221 222 220 215 210 215 224 212 206 202 210 206 195 181 162 163 162 156 154 148 148 155 157 164 169 171 173 176 180 184 192 193 196 195 198 198 199 201 199 201 200 199 200 201 199 199 199 199 200 197 193 195 193 193 186 182 180 177 177 174 171 169 172 171 171 174 181 183 189 202 190 213 211 212 196 187 186 181 179 174 180 190 191 187 182 177 174 173 170 219 223 221 228 226 221 216 219 224 228 219 207 207 205 202 198 184 166 163 162 159 155 151 147 150 157 157 164 169 171 172 177 179 184 185 192 195 196 199 200 203 200 200 201 200 201 201 201 200 198 198 198 193 197 197 193 186 182 179 179 176 175 172 172 173 172 170 173 180 177 179 184 204 191 213 218 221 214 195 188 188 188 180 178 186 191 190 181 179 176 175 175 226 222 221 220 229 225 224 229 228 228 215 204 212 202 203 199 185 170 165 161 158 159 151 150 147 151 155 159 163 170 172 171 176 183 184 187 191 195 198 199 201 199 198 198 199 200 199 199 198 198 199 197 196 194 190 186 183 180 177 176 174 172 173 174 174 173 171 175 185 180 175 184 202 197 217 221 228 226 206 201 192 193 194 184 183 189 188 176 169 172 173 176 229 219 222 233 238 235 234 232 225 225 210 207 217 200 201 201 187 177 165 166 156 159 155 148 149 150 153 153 157 162 168 170 171 175 181 182 187 191 196 198 200 201 201 201 200 198 199 198 198 195 195 195 192 187 184 183 180 176 177 173 173 173 174 176 174 174 174 180 182 181 179 189 192 207 219 230 227 227 211 206 205 196 200 194 189 189 191 182 167 161 163 174 