P2
92
112
255
114 110 114 113 114 114 116 113 114 114 112 107 108 105 105 105 106 98 101 108 120 124 124 123 125 127 130 122 122 123 117 110 108 113 107 104 106 116 110 110 117 116 119 125 128 128 140 141 147 140 138 131 135 129 131 134 136 138 138 134 128 130 134 138 132 140 146 147 143 137 138 130 131 133 129 132 128 127 123 124 119 119 122 121 121 125 122 123 121 124 122 121 112 113 111 113 110 113 114 110 113 113 109 105 102 108 107 108 106 104 108 123 128 139 136 138 134 130 140 133 125 129 122 120 110 113 117 111 106 117 112 115 118 119 117 127 129 131 135 144 140 141 142 138 130 128 130 139 139 138 140 141 132 131 128 136 138 136 140 150 151 149 148 149 139 132 139 135 132 128 126 125 122 119 118 119 120 124 121 125 119 124 122 122 110 111 111 110 112 111 111 110 110 109 104 99 102 105 109 111 107 106 118 129 136 142 142 147 144 141 145 140 130 122 120 119 117 116 114 114 113 115 120 122 125 120 125 128 135 138 133 141 139 138 134 134 128 131 133 139 136 134 135 135 132 137 127 133 143 137 141 143 147 143 157 155 147 144 141 138 135 136 130 125 123 120 117 117 120 122 122 124 123 122 122 123 111 110 111 107 111 109 109 105 105 99 97 98 105 107 111 115 111 118 125 135 143 146 146 146 151 143 140 136 133 122 116 116 119 119 122 120 121 118 119 125 128 130 122 129 134 136 133 131 139 142 132 127 138 133 135 138 137 131 129 136 126 127 132 127 137 145 137 136 139 144 144 149 151 152 150 136 131 135 128 128 123 123 121 117 119 120 120 122 124 121 121 121 113 110 109 107 106 102 103 100 99 98 95 97 105 109 114 114 123 136 137 140 145 145 148 143 145 139 131 134 130 128 120 125 125 130 126 125 127 122 115 118 131 133 128 124 134 137 131 130 131 144 137 130 132 137 138 134 134 129 129 133 130 124 125 122 131 142 134 130 134 142 141 152 143 146 144 136 132 128 132 130 130 128 126 118 117 118 121 120 122 123 120 119 113 112 109 107 104 99 99 98 94 91 95 98 105 108 118 123 135 145 146 151 153 151 151 148 145 137 135 133 136 140 136 137 139 133 129 125 129 129 120 117 124 133 132 122 130 138 131 126 130 132 136 134 130 131 135 138 130 129 128 129 128 125 120 119 124 132 124 122 125 130 140 146 149 145 133 133 130 132 130 130 136 132 127 123 119 118 118 120 122 123 122 120 110 110 108 106 100 97 97 95 89 88 95 96 104 114 124 135 144 140 146 149 151 151 151 144 140 136 135 141 143 149 144 139 145 138 134 124 128 130 123 123 123 128 125 123 125 134 129 117 125 132 132 133 130 132 129 138 132 121 120 124 124 120 117 116 118 127 124 124 125 124 136 139 146 136 134 129 123 134 133 129 132 136 131 126 124 117 118 118 121 119 124 119 108 109 103 98 100 95 95 92 91 90 89 97 110 121 131 142 151 151 148 149 148 141 141 142 140 144 144 142 142 144 146 140 140 139 137 133 134 127 122 121 126 121 117 117 120 126 129 120 118 124 128 128 123 130 128 130 131 123 117 116 122 120 115 115 117 118 128 123 119 129 135 134 140 132 120 123 123 130 132 128 121 132 133 127 124 118 114 115 118 120 123 121 110 105 102 95 95 95 96 90 92 87 99 107 124 136 141 144 150 149 147 140 140 136 131 132 139 146 146 141 137 135 136 140 136 135 133 129 131 131 118 113 122 119 114 118 119 119 122 119 115 115 114 119 121 121 120 122 124 122 113 110 111 107 104 106 113 110 114 117 122 131 134 130 134 120 121 119 123 125 130 126 125 119 130 132 127 120 115 113 117 114 120 120 107 99 96 91 91 91 92 88 88 95 110 121 137 146 143 151 142 140 139 128 124 125 129 130 133 133 134 138 132 130 128 132 133 132 127 131 130 127 121 118 122 121 116 117 121 120 117 115 109 110 109 112 119 118 112 108 116 111 108 98 95 93 89 84 91 100 99 105 117 124 128 129 127 122 114 123 115 121 125 126 128 121 119 128 130 124 116 116 118 117 118 116 102 93 90 89 91 96 91 87 97 110 127 139 144 146 146 147 138 137 123 119 122 123 134 129 124 124 126 131 131 128 128 127 128 131 127 126 127 120 116 115 114 114 115 115 112 118 108 106 110 112 105 108 112 116 109 102 101 102 99 95 88 83 78 73 76 81 86 90 106 111 120 123 120 120 126 121 118 119 123 126 126 124 113 123 129 124 122 118 118 117 118 113 98 89 90 91 93 92 88 92 104 118 136 142 145 152 150 143 130 120 107 110 120 126 121 122 118 120 122 127 130 135 133 130 128 127 125 122 125 120 115 111 112 106 106 105 107 109 108 104 105 105 104 95 99 100 103 103 95 93 87 90 81 78 73 69 68 69 74 74 87 97 100 118 116 123 127 127 124 115 122 122 120 117 113 117 125 128 125 123 121 115 114 116 96 93 88 90 92 87 94 100 116 130 134 138 147 149 142 129 115 112 114 116 126 120 121 127 126 126 128 126 128 130 132 130 129 125 123 117 118 116 110 109 107 108 98 101 101 100 103 105 98 94 98 94 97 100 97 95 91 84 86 79 77 71 67 67 65 66 70 69 73 87 89 92 110 120 129 126 118 123 118 118 114 121 116 116 118 131 125 123 124 121 117 122 90 90 90 92 89 98 105 112 127 134 139 139 152 141 128 115 107 105 111 121 124 121 128 135 135 133 133 128 125 125 129 130 128 124 119 116 114 111 107 108 102 100 94 92 100 97 96 97 95 90 90 96 94 98 96 93 87 85 83 81 73 67 66 64 65 64 66 64 70 80 84 88 90 110 119 122 124 122 125 118 118 120 116 116 117 125 132 133 124 128 125 122 91 92 93 92 97 110 113 118 127 137 143 153 144 127 122 114 109 110 116 125 123 125 134 139 135 138 140 134 130 130 133 131 129 125 119 113 113 112 106 100 100 97 94 92 90 91 89 91 94 92 89 91 91 92 93 89 84 84 83 78 73 68 66 62 61 62 70 68 68 81 84 84 93 94 102 114 132 128 126 123 121 119 117 116 112 123 133 142 139 131 129 121 94 98 94 99 110 114 123 129 139 143 151 150 136 124 117 112 109 120 128 130 131 134 138 135 135 136 137 134 131 133 133 128 127 126 124 119 115 114 108 97 93 92 88 86 84 88 85 83 88 88 86 87 89 84 86 87 81 83 81 77 73 69 68 64 61 59 65 70 70 79 90 84 91 92 98 107 125 137 129 125 119 118 117 113 112 124 134 137 141 142 130 126 97 98 96 111 118 122 130 138 145 148 154 153 138 127 118 115 118 124 132 131 131 135 128 140 141 139 137 140 130 130 132 128 126 126 123 118 116 111 105 97 94 94 89 84 84 83 81 81 79 80 81 88 86 81 82 82 80 80 77 74 73 70 65 65 66 64 69 75 76 76 87 91 89 95 96 105 117 132 134 130 122 118 117 109 112 114 130 134 138 139 135 136 98 97 106 120 121 125 140 144 148 150 152 145 126 118 120 122 129 135 141 134 137 135 136 141 136 137 138 131 127 125 127 128 128 125 120 121 118 112 106 98 97 95 92 90 87 88 81 84 84 84 83 85 85 82 82 81 80 78 78 74 72 73 74 72 70 74 77 79 82 84 89 97 95 93 96 105 117 128 133 131 127 120 118 112 113 112 119 136 140 138 140 136 98 104 116 125 134 137 152 144 148 153 151 133 122 118 124 130 131 137 139 134 136 138 142 142 139 141 140 135 134 131 127 124 124 123 120 119 120 115 110 108 106 102 100 98 99 96 97 96 91 92 89 87 91 92 88 87 87 83 84 85 83 82 85 86 78 81 85 86 88 93 97 107 102 98 105 105 113 126 134 140 128 125 118 118 117 114 115 130 141 146 142 141 101 104 119 132 139 145 151 149 154 162 147 130 123 121 129 130 133 141 142 143 139 139 145 145 142 138 137 135 134 127 126 124 122 121 118 120 118 118 115 114 111 111 107 106 105 107 109 103 98 101 101 100 104 101 101 104 98 97 95 96 94 90 93 94 90 88 91 93 95 96 102 109 110 106 105 112 117 129 138 142 134 125 129 119 118 115 119 124 136 140 143 145 105 111 124 136 139 141 150 156 150 142 139 125 121 127 131 126 136 145 143 144 139 139 148 145 142 140 140 139 136 133 131 132 128 124 119 119 117 120 119 118 118 118 116 114 114 114 113 113 112 110 111 107 109 110 114 116 114 110 109 107 103 100 102 99 100 99 100 98 102 100 108 118 118 112 106 114 122 134 140 144 141 133 128 125 115 119 120 123 132 136 136 139 107 118 123 130 140 143 155 148 136 127 125 117 117 122 124 130 141 146 138 137 135 134 143 142 143 144 142 136 134 135 134 133 128 125 123 121 120 120 120 121 121 122 121 121 120 119 119 117 121 120 118 121 120 119 127 127 123 122 123 117 114 115 109 107 109 107 106 101 106 106 112 122 125 120 111 113 127 137 145 156 155 146 131 122 126 119 122 119 123 136 134 133 114 122 129 137 144 142 150 124 122 124 117 121 119 117 124 133 147 138 132 129 131 136 141 140 144 143 142 139 135 133 131 127 126 125 123 126 121 123 122 122 122 126 126 126 127 126 125 126 125 125 124 126 127 129 135 131 132 132 130 125 127 127 122 119 117 115 115 111 112 111 115 123 129 128 119 120 133 143 151 162 168 154 152 127 127 126 124 125 120 132 139 132 117 123 134 137 141 142 133 113 124 119 121 118 115 120 126 134 132 129 127 129 130 138 144 143 142 138 136 137 133 130 126 125 128 126 124 124 124 122 124 122 121 126 126 126 129 131 129 131 131 131 131 133 131 135 136 136 134 135 132 132 134 133 129 127 124 120 121 119 119 118 118 123 132 131 127 126 135 151 153 164 172 170 152 142 130 137 131 131 120 134 136 141 119 128 131 134 135 134 114 111 113 119 116 112 109 118 125 129 123 125 130 131 134 140 140 142 138 134 135 131 131 132 130 130 129 130 127 125 127 126 124 124 126 126 129 130 130 132 133 135 133 137 136 136 136 137 138 138 138 136 135 134 137 135 132 132 130 127 128 125 123 125 121 122 132 133 134 133 138 151 156 162 167 175 164 150 138 139 132 130 125 127 139 139 117 126 132 135 125 124 110 107 109 119 112 103 108 113 127 123 117 123 129 132 137 138 138 139 133 129 130 128 127 129 132 132 133 129 127 127 128 126 128 129 126 128 128 130 131 129 133 133 131 134 131 135 135 137 139 138 137 138 139 136 137 136 137 133 134 132 130 129 128 132 126 125 130 134 137 140 141 148 159 160 171 165 172 165 145 145 141 130 130 125 139 141 113 129 131 133 124 120 104 102 110 118 106 95 106 119 124 115 115 120 127 131 137 134 137 134 128 128 128 126 126 127 129 130 132 129 127 127 128 129 128 129 128 129 129 132 131 129 131 131 131 131 132 134 137 138 139 140 137 138 140 138 137 137 135 135 135 132 131 132 132 134 128 123 124 125 133 140 143 152 163 163 172 167 174 174 156 146 154 140 131 131 141 143 118 134 134 129 124 112 106 100 103 109 102 96 111 118 117 113 114 118 121 131 132 132 130 127 126 123 123 121 124 125 128 129 130 128 126 130 129 130 129 129 131 129 131 131 131 131 127 130 129 132 134 133 134 137 140 140 139 140 140 137 139 139 138 135 136 133 133 136 136 138 131 126 124 123 128 138 143 156 161 168 175 172 175 177 166 149 155 144 139 134 141 146 124 134 138 125 118 110 103 95 93 107 100 99 110 114 111 112 108 112 114 127 127 130 124 125 121 119 122 123 123 124 129 129 130 128 128 131 132 134 133 132 132 132 133 133 134 131 129 129 130 133 137 139 137 139 141 143 142 141 139 141 141 139 140 138 137 138 137 140 138 143 138 133 127 128 126 137 144 153 159 170 175 175 180 176 172 162 164 148 141 135 139 148 126 135 137 121 110 113 100 94 87 103 96 100 107 110 111 112 109 105 110 119 124 125 123 123 119 119 123 124 120 121 124 127 128 131 129 133 134 135 135 134 134 135 135 134 135 133 133 131 134 135 137 139 138 140 141 142 145 144 144 145 144 143 139 142 142 142 140 143 141 147 144 139 138 134 131 135 148 152 157 169 176 178 178 179 176 169 168 157 141 136 142 143 128 138 132 124 117 106 99 90 86 97 94 104 109 108 112 108 104 105 110 117 122 119 122 119 118 119 123 123 122 123 128 132 132 135 134 134 135 134 136 133 135 137 137 136 138 135 136 135 137 137 136 138 137 141 143 142 145 147 145 146 148 149 147 145 148 146 145 145 148 150 145 143 147 138 137 138 149 156 157 168 180 182 182 179 181 169 169 170 147 137 139 145 126 137 132 127 121 106 92 86 85 96 103 104 105 108 107 102 103 108 115 120 122 126 125 123 126 125 129 128 129 132 135 137 139 138 139 139 139 138 140 138 138 140 136 135 137 138 138 138 137 141 139 140 143 144 146 147 148 152 150 150 154 155 153 154 153 154 153 150 152 154 151 147 149 146 148 141 149 156 157 167 182 181 181 180 183 168 171 177 159 148 143 144 123 133 128 131 119 99 87 81 82 101 108 104 102 110 106 103 109 114 122 130 131 134 134 133 134 132 132 132 133 135 138 138 139 140 141 141 141 141 144 143 141 141 140 138 139 138 138 140 143 147 148 150 151 151 150 152 152 157 157 158 160 162 163 163 161 160 162 156 158 159 159 153 151 150 154 151 154 155 158 166 175 181 185 187 183 170 169 177 166 153 152 149 133 128 127 129 119 95 86 74 84 100 108 98 105 108 103 112 120 124 134 140 144 142 143 140 139 136 134 138 138 138 139 143 143 146 145 147 147 144 148 147 141 142 141 141 139 135 138 139 147 151 154 154 155 151 152 152 154 156 157 159 161 163 166 166 167 164 168 167 164 167 164 161 161 154 157 158 161 160 160 164 169 177 187 185 181 171 163 179 174 153 154 151 134 129 130 133 111 96 83 73 88 96 105 101 106 109 110 122 124 130 137 141 144 144 147 141 140 140 142 146 148 149 148 151 155 153 151 153 152 151 152 151 146 145 146 143 141 139 141 143 148 153 156 155 156 150 150 148 150 154 156 157 163 164 167 164 167 170 165 173 168 168 170 165 168 166 162 161 169 165 165 163 171 181 183 187 179 165 161 174 181 155 152 154 130 130 134 135 105 96 80 76 81 97 107 108 106 111 117 122 131 137 141 140 143 146 143 141 143 146 149 149 153 151 153 153 160 162 159 159 158 156 157 157 152 152 148 147 143 146 145 146 146 152 154 152 152 149 146 145 144 150 153 154 157 161 164 163 169 171 172 171 174 168 171 171 169 169 170 167 170 177 171 171 169 184 181 184 185 158 168 170 178 162 151 151 135 137 136 135 107 97 78 75 81 106 111 113 108 116 122 121 131 132 135 134 139 141 138 141 142 146 149 147 140 144 147 144 155 147 150 153 154 151 157 156 152 151 149 146 144 145 145 146 148 149 151 152 148 145 140 141 142 145 151 153 158 159 160 163 169 173 170 176 174 175 172 169 165 165 167 170 170 177 174 175 172 183 184 178 186 169 165 173 170 166 152 149 146 144 140 136 110 98 83 76 90 108 111 112 114 122 122 124 127 125 131 129 129 131 130 134 139 140 137 124 120 118 128 142 148 149 152 153 152 151 152 152 148 145 146 143 143 141 144 147 146 145 148 149 146 144 140 139 141 142 149 151 155 158 157 162 163 168 170 173 175 173 172 168 166 158 159 163 172 180 175 171 174 177 187 181 182 178 163 169 171 169 154 149 139 145 141 144 113 100 84 86 94 109 114 119 119 119 117 107 111 108 116 115 116 119 122 125 130 132 132 126 114 113 119 128 137 139 140 146 145 146 146 146 144 143 141 138 142 139 143 144 145 142 144 145 144 142 140 139 139 142 146 149 153 152 151 154 155 157 162 168 168 170 171 170 170 164 153 156 161 174 179 178 175 171 175 179 187 179 168 165 179 174 159 146 124 148 149 143 116 104 91 93 97 106 129 116 96 103 98 97 101 98 98 104 111 113 117 119 123 125 129 122 122 116 125 137 138 138 139 141 142 142 143 142 142 140 138 138 139 139 144 145 143 141 142 143 144 142 141 138 138 141 142 148 148 149 147 147 148 145 144 154 155 162 166 167 169 165 158 151 150 164 175 172 182 180 176 173 183 176 169 172 176 175 162 146 115 147 153 139 125 105 98 97 94 122 110 87 86 93 88 96 103 98 103 115 116 116 117 122 125 126 130 127 128 119 125 132 130 132 133 136 138 138 140 140 141 139 136 135 136 140 144 143 145 142 142 143 142 140 140 139 139 141 140 147 146 146 145 147 152 146 145 149 154 158 164 167 166 168 157 154 155 164 175 169 173 173 180 184 179 174 166 169 170 177 161 149 105 138 150 143 131 106 105 105 114 111 90 75 82 94 96 104 106 107 116 129 128 129 125 130 131 133 133 136 125 122 131 134 135 137 139 139 140 140 142 138 139 134 134 130 129 131 136 139 143 142 143 144 141 142 140 141 141 143 143 148 152 142 151 152 156 151 154 155 161 167 169 173 172 170 167 157 162 164 172 170 175 169 171 189 183 175 162 169 169 172 157 152 95 140 151 151 138 112 114 137 101 94 88 79 89 90 99 103 99 100 112 117 110 114 112 122 127 126 127 134 132 133 135 136 135 137 139 140 140 142 143 142 141 136 130 136 130 124 136 142 140 140 138 138 136 138 138 139 143 142 144 147 140 133 145 150 155 155 155 156 158 164 177 177 176 166 168 161 160 158 165 164 169 167 170 189 186 182 155 164 168 169 156 149 89 144 147 144 129 125 138 130 98 96 84 81 91 98 108 112 112 117 125 123 117 117 115 119 122 121 121 124 123 128 131 133 133 134 133 136 136 138 141 139 142 136 137 139 133 127 130 144 140 135 135 137 137 135 137 138 142 142 140 139 130 131 146 151 153 152 155 155 152 156 167 177 173 168 166 162 149 153 154 154 161 158 156 187 195 175 154 164 162 166 156 147 98 134 151 135 111 135 139 107 101 99 87 76 99 111 114 111 117 118 123 119 115 117 125 127 126 123 125 126 128 126 129 135 136 136 134 133 132 135 133 140 139 139 137 137 138 135 142 139 137 134 137 137 134 134 136 133 137 135 133 136 136 131 147 147 153 152 152 160 159 154 163 178 172 165 162 161 135 139 139 150 162 160 156 177 196 169 160 158 145 165 155 145 111 129 144 129 104 110 126 99 92 92 79 79 100 102 108 107 112 114 119 110 118 126 128 131 129 133 136 145 145 138 138 141 140 132 133 132 132 131 128 133 133 143 143 145 145 137 142 143 141 139 134 135 133 131 126 126 127 128 125 129 133 133 137 140 148 144 150 154 156 160 162 173 175 168 164 154 134 125 114 124 151 155 160 169 180 173 152 142 151 151 156 142 111 119 134 114 106 104 115 92 86 88 76 87 90 86 99 105 108 110 101 109 119 126 125 128 129 132 142 146 143 137 132 130 132 125 126 124 129 124 128 130 127 146 150 158 149 140 144 143 145 138 134 125 131 126 126 128 124 126 121 119 130 126 130 124 133 139 144 151 160 158 161 167 166 163 159 149 134 121 101 111 135 142 142 159 175 164 148 131 142 141 146 141 107 118 124 94 98 112 105 83 78 82 88 78 73 83 96 93 99 100 101 114 122 129 131 137 135 132 142 149 142 137 134 127 123 125 119 122 118 121 124 126 130 145 158 165 156 147 148 152 148 142 137 126 121 121 120 124 117 115 123 107 116 125 118 123 124 137 145 152 153 162 162 165 163 156 146 146 129 113 102 111 126 129 121 139 165 160 145 126 130 141 130 133 110 126 120 87 84 105 98 88 83 84 86 73 72 77 85 84 104 106 110 131 120 127 136 144 152 150 156 152 150 138 133 128 119 127 123 125 120 123 128 130 139 144 155 156 152 142 146 146 149 143 139 124 118 122 121 111 115 117 121 118 125 126 122 130 131 135 144 149 153 159 157 155 149 142 133 133 127 108 109 117 129 116 118 127 159 162 139 125 128 122 115 112 108 121 119 89 93 107 101 97 103 89 74 72 78 89 91 92 116 111 112 129 123 126 138 147 152 161 169 160 152 139 129 130 128 131 129 130 119 120 130 124 141 142 159 164 150 150 155 154 155 152 143 129 124 120 119 119 119 122 120 128 134 136 133 145 139 145 141 143 146 154 153 150 142 132 128 128 121 115 112 113 128 120 115 132 150 156 135 122 123 113 105 91 105 120 128 91 100 107 113 97 111 81 71 65 77 91 103 112 122 114 121 127 129 132 144 147 145 158 148 150 140 135 133 128 126 127 130 131 116 119 125 130 140 148 166 171 162 157 163 157 163 158 149 137 128 121 119 119 119 118 115 119 131 128 126 141 134 134 137 146 143 141 143 142 134 127 125 128 124 121 115 112 115 112 113 136 148 146 138 112 117 117 90 81 101 110 118 104 114 109 124 86 109 77 68 68 82 94 104 118 120 116 128 143 137 143 150 138 136 140 143 136 130 132 129 135 128 130 133 129 121 127 135 131 141 152 172 172 170 160 162 159 162 153 144 138 131 124 118 112 120 117 116 116 121 128 127 129 128 129 132 129 129 131 139 140 133 124 127 131 132 129 121 119 110 108 97 119 140 139 133 102 95 110 82 68 105 114 114 96 122 107 121 89 109 82 69 66 86 94 103 112 114 117 129 145 146 146 142 138 135 139 141 123 125 127 122 130 132 130 134 121 125 123 133 126 131 143 155 156 153 151 151 156 152 143 137 131 129 127 125 118 117 116 120 124 124 131 137 134 131 131 132 136 132 132 128 132 127 126 126 130 124 135 131 113 105 100 89 104 125 135 134 96 93 95 75 61 98 115 115 108 125 112 121 88 101 80 62 61 81 90 102 105 115 121 132 145 141 143 141 139 143 149 142 128 115 110 113 120 126 132 133 122 129 129 132 124 123 127 125 135 137 141 147 144 138 135 135 132 129 129 127 120 114 113 112 119 122 126 130 127 128 123 122 135 128 121 120 122 123 123 122 113 113 133 122 101 84 89 81 96 113 130 120 93 94 101 63 66 77 92 116 117 127 123 114 84 82 71 61 66 79 87 97 102 113 125 134 143 137 138 141 139 145 147 137 125 120 108 108 113 116 123 119 118 118 115 118 112 115 111 122 130 126 131 136 135 133 130 134 132 130 125 125 126 119 123 122 124 130 125 122 130 122 122 111 124 121 112 110 125 119 119 122 113 108 122 113 90 76 73 66 90 108 113 96 89 88 102 53 76 70 84 104 107 111 113 96 92 72 70 62 69 82 90 99 105 114 124 127 133 128 134 135 133 129 129 134 128 124 116 106 105 115 112 110 110 107 105 97 100 111 103 123 124 121 127 135 132 132 126 124 130 126 123 124 124 118 124 128 125 126 123 116 117 117 107 101 113 120 116 114 119 122 123 125 114 113 121 106 95 80 62 56 85 104 97 81 88 81 95 48 80 76 82 104 116 102 99 80 91 83 61 71 69 81 96 102 109 123 125 123 128 130 135 133 122 119 117 124 127 124 114 106 101 108 107 106 107 102 106 103 93 110 118 128 119 123 127 136 137 132 125 121 121 125 121 119 114 112 106 119 123 129 125 120 106 112 109 113 114 123 120 120 123 124 122 124 115 115 118 100 96 80 60 59 88 76 81 83 79 83 75 50 78 90 81 116 124 103 94 76 79 85 59 68 82 83 99 100 111 115 121 117 123 123 124 122 120 116 119 124 126 118 110 115 108 110 107 110 105 112 113 110 105 115 126 132 127 128 139 144 145 132 129 129 122 123 120 117 111 101 99 101 111 120 121 114 114 112 118 121 124 122 122 122 124 126 122 123 118 117 112 98 90 82 61 60 79 67 85 81 72 87 56 56 75 93 89 124 116 95 86 69 64 81 71 73 72 84 100 103 113 113 118 119 126 130 127 126 124 119 122 123 119 118 121 123 120 109 110 110 121 120 115 118 117 123 140 140 145 134 141 146 148 135 129 129 126 118 122 121 121 103 104 102 110 118 121 114 119 116 121 125 133 134 125 124 127 127 124 123 119 115 109 96 88 82 68 58 68 81 87 83 77 79 43 56 73 87 86 103 115 85 83 77 60 82 75 80 78 70 96 100 104 106 111 115 118 125 124 123 124 119 121 121 125 126 125 122 117 104 108 124 123 118 108 116 120 124 133 144 149 144 150 150 153 138 129 126 127 121 121 116 124 118 111 108 113 114 114 112 117 121 116 118 124 124 123 128 127 123 123 117 116 113 113 97 89 82 71 63 81 80 91 87 85 63 43 61 74 85 81 82 101 84 80 79 62 79 94 69 86 86 86 96 101 103 105 109 108 115 121 122 122 121 120 119 120 123 120 116 106 107 117 127 118 118 111 118 113 121 127 136 143 144 148 145 150 141 138 129 130 124 128 126 121 118 112 109 114 118 118 117 116 117 113 115 120 122 122 125 124 123 120 113 117 113 114 98 96 82 82 77 72 83 86 88 75 50 45 66 73 87 73 71 90 88 82 62 64 73 90 82 71 81 91 100 99 105 107 110 113 118 123 125 125 124 122 121 118 119 118 112 106 111 115 111 116 113 113 117 121 125 133 132 138 141 145 144 142 137 136 134 128 127 126 131 127 119 108 108 102 104 109 115 122 122 115 113 113 115 119 121 121 119 112 113 112 112 113 104 101 93 83 80 76 70 79 83 64 41 48 72 75 93 76 67 83 86 87 59 69 81 90 81 69 79 85 99 104 109 107 109 111 112 119 122 122 123 118 119 126 122 117 110 106 110 105 105 110 106 113 120 124 128 131 129 133 135 140 143 142 136 137 135 125 122 123 128 126 118 109 109 104 98 100 104 112 115 113 108 107 113 115 115 117 118 117 118 112 113 117 107 105 92 81 83 68 58 75 79 65 37 61 80 79 86 64 69 83 73 77 66 72 82 86 87 76 71 85 88 97 104 107 104 106 110 106 110 111 112 114 112 116 114 108 105 103 104 102 97 100 102 110 116 117 119 120 117 119 125 131 137 134 129 126 126 120 114 112 116 114 109 102 97 98 98 99 102 108 114 112 107 105 107 108 114 120 120 125 119 112 114 113 109 104 80 82 79 59 61 64 69 58 39 74 80 74 75 55 55 74 57 79 64 76 87 88 86 84 82 82 88 92 97 105 106 106 104 100 102 102 105 105 108 107 105 105 101 98 97 96 91 92 92 103 108 107 109 106 107 107 116 121 128 125 119 111 111 113 106 100 102 103 99 98 93 91 95 90 94 101 108 111 110 108 106 112 116 118 123 129 121 113 109 112 109 99 72 84 80 72 58 66 64 56 35 73 79 77 71 67 53 64 54 78 66 73 80 82 82 81 89 84 93 98 95 99 111 104 102 98 100 102 105 106 104 103 101 102 98 93 92 92 85 86 93 104 103 101 102 95 97 100 102 104 115 116 105 101 98 99 98 98 94 94 95 90 88 87 90 93 91 93 102 108 111 111 111 116 117 121 123 125 124 112 113 114 102 96 80 84 72 63 57 69 60 56 28 68 88 79 76 72 58 64 55 76 73 84 72 75 70 71 89 88 91 94 99 98 101 107 103 102 103 103 105 103 102 100 98 94 91 90 87 88 85 90 91 102 100 96 96 92 103 97 99 102 105 106 103 98 86 82 89 86 84 86 86 88 86 88 86 91 91 96 100 102 112 109 112 116 118 117 119 120 115 111 110 113 97 95 90 85 62 63 63 59 60 52 37 73 96 81 80 84 69 76 68 86 82 81 67 66 61 66 83 86 91 99 100 100 101 101 101 102 107 106 110 107 107 102 96 92 87 87 84 84 82 86 95 98 98 99 100 104 105 103 105 110 112 107 107 100 90 83 83 76 73 76 81 88 90 88 85 87 94 97 102 106 109 111 113 114 118 119 121 120 118 114 119 107 97 97 91 83 69 68 63 51 62 52 43 82 95 84 92 82 74 82 85 91 85 78 66 55 59 66 83 86 91 100 103 103 107 106 103 101 100 101 103 103 103 98 92 90 87 81 83 84 87 91 97 98 95 98 103 111 110 103 107 111 119 116 111 101 95 92 81 77 78 78 85 89 93 92 88 92 97 102 108 109 112 115 115 115 115 116 119 113 116 117 115 104 99 106 100 88 74 77 60 56 62 53 49 88 92 86 114 87 73 83 87 88 93 89 66 50 63 63 84 89 96 104 111 110 112 114 109 107 105 102 102 106 100 94 92 93 95 88 87 90 98 102 105 107 106 108 103 111 114 109 110 117 122 123 122 110 103 102 93 89 91 93 94 97 100 94 91 95 101 110 113 113 113 118 118 119 118 119 120 114 111 109 108 103 101 103 99 89 83 76 58 56 67 51 57 89 86 87 115 107 87 80 84 72 97 89 67 56 63 65 82 90 95 103 112 111 117 115 110 110 108 110 108 112 103 98 100 102 109 96 93 95 104 106 108 111 110 113 110 111 108 108 113 114 125 130 128 115 109 107 104 105 103 103 104 102 101 100 94 94 97 105 112 113 115 119 124 121 114 114 114 111 105 107 110 103 103 98 96 87 79 70 60 54 62 53 57 90 86 86 110 112 104 90 86 68 92 86 67 64 72 71 87 91 95 102 111 114 121 120 118 113 110 116 115 114 105 104 111 118 117 104 100 99 110 112 109 109 112 119 114 103 97 104 112 114 120 126 126 114 112 109 112 107 107 109 111 107 102 97 91 89 89 93 103 109 116 117 121 119 112 106 109 108 106 109 107 106 104 98 93 89 81 70 60 49 61 53 65 88 84 91 99 109 108 97 88 71 76 85 64 66 74 74 86 90 95 102 111 117 120 122 120 118 113 119 119 116 109 111 122 126 117 106 104 102 107 115 114 107 108 112 117 102 94 103 108 109 119 119 120 110 111 111 112 101 102 110 121 117 107 100 91 86 84 90 101 111 118 121 121 122 117 116 114 112 109 109 108 103 107 94 93 88 80 63 57 56 54 62 71 84 86 89 97 102 104 106 91 66 76 87 68 72 77 73 88 88 96 99 112 118 120 120 118 120 120 127 124 116 115 120 126 130 119 112 116 115 117 117 112 107 107 106 107 99 95 104 105 108 112 117 115 107 110 115 114 99 97 108 123 122 114 109 100 92 89 92 102 111 118 124 128 128 123 121 115 113 112 111 110 103 109 93 85 78 77 66 57 54 51 72 76 81 87 92 97 98 106 101 93 54 77 94 75 76 86 75 88 85 95 101 110 116 119 117 118 127 132 133 128 123 125 127 130 135 125 120 125 125 122 120 118 110 108 104 96 93 88 99 106 105 108 118 120 106 102 112 117 106 105 109 122 128 123 119 118 107 102 102 107 115 123 128 130 130 127 122 116 115 114 114 111 112 112 93 81 77 77 72 66 53 53 73 76 85 86 93 98 104 102 101 93 44 57 89 78 78 90 84 91 88 96 99 108 117 120 119 123 134 138 142 138 133 134 134 135 138 134 130 136 136 134 130 125 112 109 107 100 91 82 92 98 100 105 113 115 104 100 108 113 108 107 119 129 138 131 132 124 118 114 111 114 119 124 127 130 132 130 123 120 116 115 117 114 117 109 96 81 78 74 70 73 62 58 74 75 85 87 97 107 106 101 103 101 48 40 78 70 76 91 90 93 93 101 105 108 117 117 125 130 136 140 148 151 148 146 143 139 141 140 145 153 148 142 133 123 111 109 107 103 95 88 94 93 92 100 108 108 104 99 105 111 112 111 127 136 143 141 138 131 123 118 118 119 124 126 127 130 133 130 126 123 117 117 118 118 118 110 102 91 78 78 70 61 60 61 73 86 91 83 92 112 112 105 106 105 59 36 73 74 74 87 87 94 99 101 105 110 119 117 128 134 141 146 151 152 153 150 147 150 148 145 145 151 146 140 136 130 119 117 114 108 98 96 96 98 93 97 97 97 100 100 101 113 111 113 122 131 138 136 132 135 131 126 124 121 127 129 125 129 132 129 128 124 118 116 120 118 112 106 101 92 74 74 75 64 55 64 67 89 93 85 92 116 112 107 113 104 75 45 62 75 73 84 83 94 102 101 105 112 118 121 132 137 144 145 150 152 152 151 151 156 148 145 141 146 147 142 143 133 135 124 117 110 104 98 92 92 97 102 102 95 95 100 106 106 105 112 118 122 126 126 128 131 130 127 129 125 129 130 128 125 132 128 131 124 119 118 121 119 107 107 97 84 70 78 81 76 55 61 62 86 92 89 95 112 108 103 112 108 82 52 55 67 71 79 86 94 104 100 103 111 116 123 128 134 139 145 150 154 152 154 154 157 151 149 143 147 146 145 144 135 128 124 121 113 107 103 94 94 99 108 107 101 101 102 101 104 107 112 117 121 125 124 125 126 125 128 125 126 126 129 127 122 127 131 132 126 122 120 120 117 104 107 97 79 62 82 80 76 57 55 69 90 88 88 89 112 100 103 108 104 92 65 53 59 63 71 84 91 101 97 104 109 111 118 126 130 135 142 146 153 155 158 155 156 153 152 147 148 152 150 141 137 131 128 116 108 111 117 110 105 102 100 104 102 104 100 99 102 108 113 119 120 127 126 123 120 118 125 122 120 123 125 128 126 131 134 134 129 127 121 122 113 99 103 96 73 56 84 77 61 62 56 78 95 87 85 88 111 101 103 101 97 97 76 52 57 53 59 81 87 96 97 104 109 107 117 122 126 133 140 141 149 152 152 156 159 156 159 158 155 152 153 142 138 133 122 115 108 111 119 116 107 101 97 96 100 105 103 99 105 110 113 116 120 126 127 119 117 115 120 119 116 120 121 127 130 131 138 136 131 132 126 125 111 93 97 83 58 54 80 65 58 61 54 89 95 90 81 84 106 104 105 100 94 99 85 53 47 53 51 71 85 88 98 102 108 104 111 121 122 130 135 135 137 141 138 143 152 153 156 159 149 144 141 134 122 129 124 112 108 107 110 117 111 110 102 96 99 102 102 99 103 115 122 123 125 126 129 120 117 119 118 114 111 118 120 124 131 132 142 137 134 134 130 123 105 87 87 65 46 51 62 59 63 57 58 95 97 86 79 84 108 106 99 101 96 97 89 66 49 56 51 58 82 85 95 103 108 103 107 119 121 126 131 131 131 133 134 135 139 146 147 146 137 131 124 122 116 119 126 112 110 106 105 112 111 111 105 100 101 105 104 105 111 118 126 130 129 130 131 127 122 121 119 112 111 116 120 124 131 139 139 137 135 137 132 118 92 77 73 46 36 47 49 64 61 55 69 101 94 85 77 84 107 104 99 103 100 95 90 80 60 57 54 48 72 77 92 105 107 106 106 116 118 126 127 126 128 130 133 134 140 147 143 136 130 127 127 124 127 129 122 111 109 108 105 105 106 104 104 100 103 106 109 116 123 124 129 131 127 127 128 127 125 121 115 113 109 117 120 128 131 141 140 136 137 134 130 107 82 66 62 37 23 41 52 58 60 59 82 97 93 90 81 79 105 102 103 101 98 82 97 84 61 53 55 45 68 75 85 103 109 109 112 115 117 126 125 124 125 131 136 128 134 135 131 127 120 121 126 132 131 128 130 124 116 116 112 109 106 108 109 105 106 106 112 116 124 126 128 125 122 123 124 124 121 113 110 107 111 115 121 128 133 143 139 131 132 129 127 100 72 57 48 27 22 42 50 49 51 62 87 92 92 90 86 79 102 103 105 99 85 81 101 65 61 57 53 46 63 79 84 97 112 114 113 118 117 127 127 127 129 127 129 128 121 117 114 115 116 116 129 137 135 130 129 126 123 124 118 117 116 119 117 111 109 107 108 113 113 118 118 119 119 116 117 120 119 113 113 108 115 116 123 128 135 139 135 130 129 126 116 91 68 47 34 19 18 39 51 42 41 66 86 89 90 89 88 80 102 102 101 93 76 85 72 45 66 59 45 46 62 77 81 100 115 113 119 122 121 127 127 123 124 125 127 128 120 116 116 114 122 126 135 144 144 140 135 133 129 131 126 123 123 129 129 122 113 109 102 103 109 112 114 116 119 116 120 125 125 120 112 112 121 122 124 127 136 134 131 125 126 124 107 81 57 36 32 9 15 25 36 45 47 69 80 81 83 91 85 82 95 95 92 84 77 57 48 45 71 59 46 49 63 69 77 95 108 109 118 119 123 126 129 127 125 124 123 132 125 120 122 122 132 137 143 147 149 152 153 147 144 137 133 132 129 130 128 122 116 110 106 103 111 118 123 119 121 123 125 128 127 127 115 115 120 121 124 124 131 130 124 120 123 114 94 72 41 33 28 6 12 25 32 35 58 75 66 78 74 83 83 77 90 88 87 85 57 24 49 49 71 66 49 53 64 68 75 85 105 107 112 114 122 128 128 128 130 125 125 131 127 123 123 131 134 138 142 145 145 146 145 143 139 135 130 128 122 122 118 120 123 118 115 116 117 128 124 119 121 124 125 126 128 124 117 115 118 118 122 126 125 121 119 114 115 99 85 59 30 31 19 4 9 27 32 40 66 67 62 65 70 77 77 75 76 82 87 67 22 31 44 52 70 75 52 61 72 69 73 79 101 106 109 114 120 125 122 125 127 128 124 124 126 125 121 127 133 136 138 143 144 142 142 139 138 130 126 119 115 120 115 115 119 119 121 117 118 120 118 113 116 119 121 123 123 123 120 119 117 118 122 120 117 115 113 109 110 86 71 47 27 30 9 5 9 31 34 44 70 58 59 59 66 68 68 70 69 88 81 32 19 27 40 45 68 86 57 73 75 72 77 76 94 107 108 113 119 120 119 123 122 127 126 126 129 127 126 128 132 133 137 140 142 144 143 141 141 135 130 125 123 124 124 125 125 126 127 122 123 117 114 117 120 121 120 122 121 121 122 120 119 120 120 114 112 109 107 109 97 80 62 42 30 23 5 5 11 32 42 52 65 54 54 60 69 64 62 58 83 93 45 10 15 21 40 44 67 94 61 82 83 74 85 79 95 97 102 107 120 122 120 119 118 120 122 126 129 125 128 131 132 133 135 134 135 138 138 140 141 137 135 132 130 128 129 127 125 122 121 120 118 115 115 120 121 120 119 119 118 120 120 118 121 117 111 110 108 104 103 105 89 73 59 37 34 17 8 7 20 26 40 57 55 50 55 58 66 67 56 55 93 60 17 10 13 29 43 43 60 97 72 95 94 88 101 88 91 95 97 98 114 119 121 121 116 115 116 118 117 118 120 127 128 132 132 132 131 130 132 132 131 128 127 124 121 115 115 119 120 122 121 121 116 116 116 119 120 115 115 117 115 116 114 115 117 110 110 109 106 102 101 102 81 68 53 41 33 21 14 16 32 28 23 49 58 44 55 56 61 68 60 55 62 30 13 10 19 47 37 48 68 110 101 105 109 104 108 101 97 97 97 93 105 112 117 122 119 114 109 110 112 112 115 118 120 122 124 126 131 131 126 125 123 120 118 116 114 110 104 104 108 112 116 116 115 114 112 115 114 115 114 113 113 112 110 114 115 112 111 109 106 100 100 96 81 66 59 44 30 24 25 32 47 45 12 26 51 47 55 55 57 64 66 58 28 28 17 13 31 55 40 60 84 108 129 131 126 113 118 113 104 95 99 96 101 108 113 117 114 108 108 104 103 104 106 114 115 113 120 116 119 124 121 121 117 112 111 106 103 101 96 101 101 104 107 109 108 110 110 112 114 115 114 113 114 112 110 115 119 115 113 111 105 96 101 92 75 71 61 49 40 27 31 49 60 53 29 0 35 48 58 53 58 64 67 61 32 37 27 14 44 54 45 76 101 111 143 160 148 132 133 119 119 97 95 97 97 110 112 115 109 107 106 103 104 100 96 104 101 103 105 109 110 111 112 116 114 112 109 107 108 105 106 110 109 110 114 111 111 112 112 112 116 120 115 114 113 112 116 116 121 115 113 106 101 94 99 94 77 74 68 49 45 33 43 67 74 48 39 9 6 37 58 52 55 65 66 64 39 44 30 20 55 53 61 94 117 123 143 181 169 148 142 133 134 103 101 99 100 110 117 116 114 107 107 105 105 103 97 100 99 98 98 96 100 102 104 111 115 114 114 112 112 107 106 109 111 113 112 113 112 113 111 110 115 120 117 113 113 114 117 114 119 114 113 106 100 97 98 91 93 81 67 57 51 46 56 80 83 45 39 21 4 12 48 50 53 58 62 59 56 50 33 35 61 57 85 106 130 132 152 193 185 167 149 149 141 116 107 100 103 114 114 116 117 113 111 108 112 108 108 110 110 107 107 103 106 111 116 118 116 117 113 115 115 109 106 107 108 109 109 111 110 112 109 114 118 122 123 116 110 109 115 116 118 117 112 104 103 99 98 89 97 88 73 61 58 49 72 93 88 38 36 25 13 1 23 44 55 57 55 56 69 51 38 44 75 71 90 115 151 151 166 206 201 178 162 156 148 123 114 108 106 116 117 119 119 117 116 116 115 114 113 115 119 116 114 108 112 114 117 116 119 118 111 112 109 109 108 107 107 107 107 107 107 108 112 118 124 122 120 116 115 118 119 119 119 113 105 107 103 103 99 93 94 95 83 62 63 55 92 102 91 34 34 31 21 10 7 30 58 71 59 56 69 55 44 60 86 85 99 138 186 177 174 209 209 194 173 160 153 136 121 117 111 116 121 127 126 123 122 122 120 117 117 112 119 122 125 120 116 114 114 112 116 119 114 114 112 110 109 109 112 109 107 105 104 108 108 115 125 122 121 120 119 123 122 121 115 109 103 106 108 103 103 95 104 97 90 69 65 74 106 110 93 47 45 45 35 18 8 9 45 66 65 63 77 62 68 85 111 111 130 162 212 183 173 202 221 214 180 170 152 147 132 127 118 121 125 131 136 132 128 127 129 129 125 126 123 123 129 128 124 123 121 116 114 117 116 112 115 112 113 111 107 103 104 107 109 110 112 119 125 125 124 123 123 127 123 117 114 107 107 108 110 110 108 95 106 107 86 87 81 100 117 112 101 67 50 61 52 27 8 12 17 40 46 54 86 73 96 115 127 127 147 185 225 195 177 205 225 223 192 172 152 151 147 134 127 124 127 130 140 142 135 132 133 134 134 136 134 131 136 135 133 131 128 124 123 120 122 119 117 118 117 119 115 113 114 116 117 122 122 126 129 129 131 132 129 126 122 115 113 113 110 109 109 112 111 96 110 101 83 79 90 121 122 111 103 69 48 59 53 29 5 9 8 21 27 28 93 94 133 136 133 135 157 206 233 206 182 200 227 228 208 176 159 157 160 148 131 129 130 134 139 148 144 137 139 139 138 142 145 140 143 143 145 143 138 135 132 134 132 130 129 129 128 127 126 125 127 127 130 132 135 134 136 134 139 137 130 126 121 116 116 113 114 113 109 112 124 111 122 97 73 71 108 138 130 115 101 78 49 56 55 37 14 4 16 8 21 23 109 117 152 149 140 155 177 228 229 217 191 204 219 232 220 188 172 152 164 155 141 139 137 141 143 149 146 145 143 143 142 145 152 152 154 153 156 157 153 151 145 146 147 142 140 139 137 137 135 132 135 139 136 141 142 141 139 139 139 139 129 121 120 120 115 114 117 119 114 116 129 121 117 90 74 74 136 155 143 118 107 93 65 59 61 54 32 18 17 20 18 24 131 141 177 169 167 174 195 238 231 215 197 209 209 234 225 202 180 158 162 160 149 141 144 147 149 151 152 151 150 150 148 149 152 161 163 161 164 165 168 164 166 164 161 155 154 151 149 145 144 142 144 148 143 146 146 145 142 141 140 134 127 124 127 123 113 116 123 122 120 120 126 116 101 94 74 93 147 166 139 128 120 113 82 64 65 63 54 35 25 38 29 31 171 183 217 202 195 199 212 242 238 213 202 205 205 230 228 212 194 175 165 157 150 149 144 152 149 151 156 156 157 158 158 158 157 164 169 170 172 172 174 174 174 173 169 165 162 160 155 148 150 149 152 153 151 150 149 146 144 141 136 128 133 128 129 121 116 119 124 126 124 126 114 102 97 90 86 114 159 172 146 136 127 138 111 83 77 74 77 60 46 59 45 38 195 211 237 215 213 217 223 238 240 215 209 206 202 224 234 210 208 183 165 155 147 151 151 153 151 152 153 155 160 160 162 163 165 166 170 175 178 180 180 183 180 180 176 170 168 165 164 160 160 159 161 160 158 154 150 147 142 133 133 135 135 130 128 121 119 125 124 129 133 131 110 96 90 87 108 113 165 191 162 146 136 152 138 121 97 94 98 81 67 65 66 51 213 232 242 227 229 216 228 247 240 229 219 217 215 226 239 214 208 191 176 154 148 149 152 158 150 150 153 152 157 159 162 164 165 167 170 172 180 184 183 185 182 182 177 175 173 171 168 168 168 164 164 162 157 153 146 144 135 134 141 136 135 132 127 122 125 123 124 128 136 127 107 94 83 96 119 114 163 183 179 168 148 159 145 124 115 115 120 98 70 61 71 66 226 240 240 235 243 230 240 246 241 232 230 229 222 216 230 224 204 189 182 162 149 146 148 155 157 151 152 154 151 154 155 157 161 164 168 169 174 173 173 175 172 175 168 167 166 167 167 166 164 163 157 154 148 144 139 138 145 145 142 139 138 130 127 123 126 122 127 122 129 124 110 106 90 101 126 119 157 177 178 193 178 163 155 132 127 129 136 124 91 71 77 76 227 250 236 237 244 238 243 239 240 247 237 229 219 219 226 227 205 191 180 175 154 151 146 151 154 154 157 157 153 150 152 151 151 154 157 161 164 166 169 168 167 163 158 158 154 151 153 152 149 150 146 145 142 141 143 146 146 144 143 141 138 130 126 123 124 127 130 123 126 129 118 117 107 111 136 132 147 182 186 196 196 184 172 147 144 135 137 139 113 93 94 93 230 255 235 236 241 236 234 235 236 250 246 234 216 220 219 221 209 203 186 179 161 150 145 148 150 151 157 161 157 151 149 148 149 150 152 157 160 159 163 163 168 160 161 158 153 151 148 145 142 146 145 145 141 145 146 145 145 143 141 140 137 129 124 122 126 132 131 127 133 132 125 123 111 116 137 148 148 183 198 199 198 197 194 180 154 140 137 133 131 114 101 109 