P2
92
112
255
106 102 106 105 105 104 105 103 104 103 101 97 96 94 93 92 93 85 86 91 102 105 105 105 110 113 117 111 112 114 107 102 104 113 106 101 104 116 109 109 115 113 115 123 124 125 136 139 142 134 130 122 123 116 117 118 116 116 112 107 102 103 109 113 108 115 122 126 122 114 114 106 109 114 111 115 110 112 108 109 105 105 107 107 107 111 108 109 109 110 110 109 104 105 103 105 102 104 104 100 103 101 97 93 90 96 95 95 93 90 94 107 109 119 118 123 120 118 129 124 118 124 118 117 110 114 117 111 107 120 115 118 124 125 123 135 135 135 137 144 141 141 141 133 123 121 121 127 123 120 121 117 109 107 105 111 114 113 115 125 128 126 124 124 115 109 119 118 114 111 111 109 107 105 104 105 106 110 107 111 107 110 109 109 102 104 103 103 104 101 102 99 98 97 92 88 89 94 99 99 95 92 102 111 118 123 127 131 129 130 138 135 130 124 121 122 122 122 122 123 124 127 133 136 140 134 140 144 150 151 144 151 146 145 138 135 126 124 128 130 123 120 121 116 111 115 104 111 119 115 118 119 123 119 131 131 123 121 118 117 116 116 112 109 108 106 103 104 107 108 108 110 109 110 109 110 104 102 104 100 102 100 100 95 92 87 84 86 93 96 99 102 96 101 107 118 126 127 129 130 141 139 140 137 136 127 124 127 133 135 139 138 141 140 139 145 149 151 143 148 153 154 150 146 148 149 138 131 138 129 131 133 129 123 119 124 112 110 112 105 115 122 115 115 118 121 120 124 126 126 126 112 109 115 109 110 108 107 108 104 106 106 107 108 110 109 108 109 106 103 102 99 97 92 93 89 88 86 82 86 93 96 99 97 106 118 119 120 125 126 133 134 141 137 132 137 136 139 133 142 146 152 148 146 150 145 137 142 153 153 149 143 153 157 148 146 143 155 147 137 136 140 139 134 131 125 123 125 119 112 110 104 114 121 111 109 116 122 119 128 119 121 119 110 107 105 111 110 112 111 110 106 105 106 107 106 108 110 109 107 105 104 101 99 95 89 88 86 83 79 81 84 91 94 102 106 116 127 127 130 134 135 142 143 141 135 139 141 147 155 154 160 160 158 154 148 154 154 143 140 148 155 152 142 148 156 148 143 143 146 147 143 137 137 139 140 128 123 119 119 117 113 107 106 111 119 111 107 107 111 120 125 126 121 110 109 104 107 106 108 115 114 111 108 106 106 106 107 109 108 110 109 101 102 100 97 91 87 85 82 77 74 80 82 91 98 110 117 127 120 124 127 134 137 142 137 135 135 139 150 155 161 160 160 165 159 156 145 151 153 147 145 148 153 145 144 143 150 145 132 138 147 145 144 139 141 136 141 133 117 112 116 115 109 107 105 105 114 111 111 109 108 120 123 127 114 112 105 100 111 108 104 110 116 113 110 108 103 106 106 108 106 111 108 100 101 93 89 90 85 83 79 77 75 76 84 95 106 114 125 135 130 128 131 133 129 132 132 135 142 143 145 150 154 159 155 155 157 155 150 151 145 138 136 145 140 133 131 133 140 142 132 130 136 138 137 130 137 134 134 131 121 113 109 111 108 105 100 102 100 111 107 102 108 117 118 126 117 103 103 100 106 110 105 99 111 114 110 109 105 101 103 106 106 110 108 102 97 92 85 84 83 84 78 79 74 85 94 110 119 123 127 132 132 130 124 126 123 121 123 131 139 143 141 140 138 143 150 146 147 147 141 146 145 131 124 131 128 122 124 122 125 129 124 120 118 117 122 124 124 121 122 120 116 105 100 98 90 86 86 91 87 93 98 102 111 114 114 121 106 107 103 103 103 108 103 103 98 110 112 110 106 101 100 105 103 108 108 100 89 85 80 80 80 81 78 76 81 96 107 122 128 127 132 122 120 119 108 106 110 117 118 121 125 129 136 132 131 133 137 141 141 134 138 139 137 130 125 129 125 119 118 120 121 120 115 109 109 109 112 118 116 110 101 108 102 95 84 78 73 66 62 68 72 73 81 95 103 109 111 113 109 99 109 100 103 104 104 106 101 99 109 114 108 103 103 105 106 106 105 93 82 78 77 80 85 80 75 84 95 114 123 125 129 128 128 115 115 101 98 103 106 118 113 112 116 121 127 127 128 132 130 133 135 129 127 127 120 117 114 112 112 111 112 109 115 103 100 108 108 103 107 108 110 102 92 90 91 82 74 65 59 52 47 49 54 58 64 81 87 100 102 101 105 112 107 103 102 105 106 106 104 94 106 112 108 108 105 105 106 107 102 88 79 78 78 82 81 77 79 89 103 122 126 128 135 132 121 106 97 83 90 102 107 103 106 107 112 117 122 127 134 134 130 127 128 124 120 125 117 113 110 109 102 99 99 101 101 100 97 100 97 99 88 92 91 93 91 81 79 67 68 55 51 45 40 39 38 44 45 59 70 78 96 95 102 108 112 107 100 104 104 102 97 94 98 108 113 110 108 108 103 102 104 85 80 76 78 81 75 81 86 102 117 118 121 130 131 120 105 90 87 93 100 110 103 105 113 115 117 120 119 122 126 126 123 125 122 121 114 118 114 107 108 105 104 92 93 92 90 92 94 88 83 87 83 87 90 84 81 76 65 65 55 51 41 38 35 34 36 38 39 44 58 64 70 89 101 108 109 101 105 106 103 98 104 98 99 101 114 110 107 111 109 105 109 78 77 77 82 77 85 91 99 114 119 122 121 135 119 104 90 81 84 97 105 107 103 113 122 123 122 124 120 116 119 121 125 126 121 116 115 115 110 105 106 98 94 87 86 93 87 85 85 82 76 76 82 82 86 84 77 70 65 60 58 46 38 34 32 32 32 33 32 40 50 56 63 68 89 98 104 110 104 112 105 106 105 99 100 101 110 115 115 109 115 112 109 78 81 82 80 85 96 100 106 113 120 123 135 121 104 98 89 88 96 101 106 103 108 120 127 125 128 130 124 121 124 127 126 127 124 118 112 113 110 104 97 94 90 88 85 82 82 80 79 81 79 74 75 79 80 79 75 67 66 64 55 46 41 35 32 30 31 39 37 36 50 55 54 69 71 82 94 116 117 113 114 112 108 101 100 97 108 119 126 120 114 117 107 81 87 83 85 98 101 111 115 124 126 135 132 115 102 93 92 95 103 112 110 113 118 124 123 125 125 127 125 125 128 129 125 126 125 121 117 114 111 106 94 89 86 83 79 76 80 76 74 77 76 74 74 77 71 74 74 65 66 64 56 49 45 39 34 29 28 35 42 40 47 60 55 64 68 75 85 104 124 119 115 113 110 107 97 98 110 120 124 126 122 116 114 84 88 84 96 105 110 117 122 128 132 139 134 118 104 98 101 106 107 114 112 111 117 112 127 130 127 129 134 124 125 127 123 122 121 118 115 113 108 102 94 91 91 83 78 77 77 74 71 69 69 70 78 73 69 72 71 67 67 61 55 53 49 42 39 40 35 38 47 46 45 56 58 61 67 69 80 95 111 121 120 114 112 113 100 99 97 115 120 123 122 117 121 86 87 93 107 108 112 125 129 132 136 136 130 105 97 104 112 115 118 122 113 117 118 120 128 123 127 129 122 120 117 119 122 122 121 115 118 115 109 103 95 93 90 87 84 81 83 73 76 75 74 76 76 72 70 71 70 69 66 64 59 56 57 54 51 48 49 49 51 53 56 57 64 63 62 68 77 93 105 112 119 117 112 115 107 105 99 102 120 123 121 124 121 89 95 105 111 121 124 139 130 135 141 134 113 100 102 114 120 116 119 121 115 116 122 128 129 127 131 131 126 125 122 117 117 117 117 117 116 117 111 106 104 100 95 94 92 94 90 89 88 81 83 80 76 78 80 77 77 78 72 71 72 71 66 68 68 58 57 61 59 60 64 67 75 68 65 74 77 85 102 111 123 116 116 114 113 113 105 102 114 124 128 127 126 93 96 109 119 124 132 136 139 144 149 128 108 106 110 122 119 117 123 121 123 119 122 130 133 129 127 124 123 121 115 114 116 116 116 115 117 114 112 110 107 103 103 100 99 97 99 100 94 88 91 89 87 92 89 87 94 88 86 84 85 82 77 79 78 71 68 69 68 70 68 74 77 77 72 70 82 89 105 115 127 121 114 121 116 116 109 109 110 120 121 127 131 96 102 111 122 124 129 139 145 136 125 119 106 109 120 123 113 117 124 120 125 121 123 134 132 128 125 125 125 123 121 120 124 123 119 115 114 112 114 113 111 109 109 108 106 104 104 102 102 102 99 98 94 98 95 100 105 104 99 100 98 91 89 90 85 82 81 81 75 77 73 78 88 85 80 70 82 93 110 117 126 129 121 117 122 113 115 112 112 117 119 117 124 97 105 110 116 129 133 146 135 121 109 108 102 110 115 116 114 120 123 117 119 117 117 126 126 128 127 125 121 121 124 124 124 121 120 117 115 114 114 114 114 112 112 110 110 108 108 108 106 111 110 105 110 109 104 113 114 111 111 113 109 103 106 98 95 94 92 89 80 83 80 82 93 94 86 76 77 97 110 121 136 141 136 121 117 127 118 116 110 110 118 116 115 104 110 119 127 134 135 142 112 110 108 100 112 112 110 113 116 125 118 113 113 114 119 125 124 128 125 128 125 123 122 119 116 116 118 115 119 115 118 116 116 113 115 115 115 115 114 113 115 115 113 113 115 114 115 121 118 119 122 121 116 119 119 112 106 104 101 100 93 91 87 86 93 98 94 82 85 104 115 127 143 152 144 144 120 128 128 124 120 111 117 121 112 106 113 125 128 135 139 127 104 113 104 110 111 109 112 111 116 114 112 109 111 113 124 127 126 126 122 123 125 120 118 112 113 116 115 115 116 117 116 117 113 112 115 115 113 117 118 116 119 119 118 120 122 119 123 122 121 122 125 121 122 127 125 121 117 112 108 108 102 101 97 92 95 102 98 89 89 102 123 128 146 157 159 143 140 132 139 132 129 113 122 120 120 108 116 121 126 129 131 107 101 101 109 108 104 101 109 110 114 108 110 109 112 119 125 123 126 122 120 122 118 119 119 116 119 118 120 118 115 117 118 114 114 115 114 118 117 119 120 120 122 119 123 124 123 123 124 124 124 126 123 122 124 127 126 124 122 119 115 115 109 107 105 99 96 103 101 99 94 102 120 132 142 151 162 156 146 144 141 133 130 118 118 125 120 104 111 122 127 118 118 102 97 101 113 104 96 100 102 111 108 99 101 104 113 121 122 121 124 119 115 115 115 114 116 120 121 121 118 116 116 117 116 116 117 115 116 116 118 119 116 121 120 117 122 118 121 121 122 123 122 123 123 126 123 126 125 128 125 124 121 118 115 112 115 105 101 103 102 103 103 105 116 134 138 158 148 168 165 152 149 140 132 125 115 123 124 101 113 120 125 117 112 96 94 106 110 98 86 95 103 109 97 94 96 106 112 119 117 120 117 113 112 114 112 113 114 115 116 119 117 114 114 116 117 117 117 117 117 118 119 120 117 118 119 119 118 119 120 122 121 123 124 121 124 127 124 124 126 126 126 124 121 119 117 117 117 109 101 100 95 100 103 103 120 136 143 155 153 167 179 165 153 154 142 126 119 125 125 104 118 123 122 116 106 102 96 96 99 91 84 98 103 101 94 92 95 100 109 114 113 112 111 109 107 107 105 110 111 113 116 118 115 113 118 117 119 118 119 120 118 121 120 120 119 116 118 117 119 122 120 120 121 123 123 123 125 125 123 126 127 126 125 126 122 121 122 122 123 113 106 102 96 96 103 105 124 132 147 157 159 166 184 179 160 160 143 133 122 126 127 111 119 128 118 110 104 100 92 83 95 87 88 97 99 96 91 85 90 92 106 108 110 105 107 105 104 107 108 108 110 117 119 120 116 116 121 123 126 124 124 123 122 124 122 123 119 118 118 120 122 125 127 125 125 125 128 128 127 125 127 128 126 127 126 127 126 125 128 125 127 121 114 105 103 95 105 107 117 130 146 159 160 171 180 187 173 171 148 136 125 124 131 111 120 128 114 99 108 100 89 76 91 85 86 90 92 93 89 84 83 89 100 107 105 105 106 104 105 108 110 108 109 114 119 119 123 121 126 129 130 128 127 127 127 127 125 125 123 123 121 125 126 127 128 127 127 128 130 132 132 132 133 133 131 128 130 131 131 128 130 129 131 129 123 118 110 104 104 115 118 126 144 158 163 168 180 190 184 178 159 138 128 127 126 111 127 122 117 111 106 99 83 74 84 82 85 90 89 92 83 79 84 92 100 106 104 107 104 105 106 110 112 114 116 121 126 126 130 129 131 131 130 132 129 130 130 129 127 130 126 126 126 127 130 128 130 128 131 132 132 136 139 137 137 139 139 138 136 138 136 135 134 137 136 129 126 129 115 110 109 119 123 125 143 162 167 173 180 194 185 183 177 145 130 128 127 115 126 124 122 120 106 91 77 71 85 90 85 87 91 88 79 81 90 98 108 110 115 113 111 115 116 119 120 124 128 132 134 136 136 137 137 138 135 136 135 135 134 130 127 129 130 130 130 130 135 132 134 136 138 139 142 143 147 144 144 149 149 148 149 147 149 147 142 143 143 137 129 131 128 121 114 119 124 125 141 164 164 170 184 193 182 184 190 162 143 133 128 114 123 118 127 116 97 84 71 70 89 92 88 86 98 88 81 88 98 109 119 122 124 125 126 128 127 125 125 128 131 135 134 137 138 139 140 140 140 142 142 141 139 135 133 132 132 131 134 139 142 145 148 149 150 148 151 151 155 155 156 157 158 159 161 160 159 160 153 153 151 149 138 133 133 133 125 127 123 127 140 157 162 175 192 193 183 182 191 172 150 142 135 126 117 118 126 120 94 82 65 71 86 92 85 94 100 88 93 103 112 124 132 137 133 135 133 131 128 125 131 135 136 138 142 142 145 144 147 148 144 147 147 140 142 139 137 136 132 134 136 144 148 152 153 154 149 150 150 152 156 156 157 158 160 163 163 166 162 167 166 162 163 157 152 145 135 139 136 135 131 130 140 149 160 175 191 191 183 174 193 184 153 147 136 127 119 122 132 110 93 77 64 75 81 91 90 98 102 96 105 111 120 128 133 135 134 137 130 129 131 135 141 145 146 146 149 155 153 151 151 151 149 152 151 146 145 145 143 141 138 139 142 144 151 153 152 153 146 146 145 146 150 151 151 156 158 163 163 168 173 168 174 169 167 167 158 158 147 140 139 147 139 135 138 150 165 172 193 192 178 172 186 194 156 148 142 125 120 129 132 103 91 71 66 68 81 96 101 100 104 106 110 122 129 132 132 132 134 131 128 133 136 142 144 148 146 149 149 155 156 154 154 151 151 152 154 150 151 147 145 141 143 142 143 142 147 150 148 148 146 143 142 142 148 150 151 154 157 159 160 169 174 176 175 178 171 172 170 162 157 149 143 147 153 142 145 148 165 173 192 198 170 180 182 193 168 148 143 127 128 133 134 107 92 71 63 66 93 104 109 103 113 115 114 121 124 128 126 130 131 125 131 134 139 142 142 136 139 142 140 148 142 145 146 147 145 150 150 147 146 144 140 138 140 141 142 144 147 149 150 145 142 136 138 138 142 148 150 155 155 156 160 166 172 170 178 177 178 172 171 161 154 151 149 146 153 146 149 151 162 176 187 197 182 181 184 183 178 150 143 134 136 141 139 112 92 77 63 78 101 109 113 112 122 119 120 119 117 124 123 121 124 121 127 131 133 132 121 118 116 124 137 140 141 144 145 144 144 144 143 140 137 137 134 135 134 138 143 143 143 147 146 141 139 135 132 136 137 144 145 150 153 151 158 160 164 167 171 176 175 173 168 165 150 144 144 147 155 148 147 152 156 179 188 191 192 180 181 182 182 158 142 129 141 145 149 115 92 77 76 85 106 113 118 115 119 117 104 104 102 111 108 109 111 113 119 124 127 126 121 110 107 113 120 127 128 130 137 136 137 137 136 133 132 129 126 131 129 134 137 138 137 139 140 137 134 132 131 131 133 138 141 146 145 145 148 150 153 157 164 166 169 172 170 172 161 142 137 137 150 154 151 151 151 170 186 193 190 184 179 189 187 167 141 116 145 155 152 115 95 83 85 92 103 124 112 94 104 100 91 92 90 92 99 106 108 110 115 118 122 125 116 115 111 119 130 129 129 129 130 131 131 132 131 131 129 124 124 125 127 134 135 134 133 134 134 135 134 132 129 128 133 134 140 140 141 139 140 141 136 134 146 147 157 165 165 167 161 150 138 128 144 151 146 157 160 172 179 189 182 183 186 187 185 170 141 111 145 161 145 122 100 90 93 90 117 104 83 85 93 86 86 90 89 95 109 109 109 111 116 119 122 128 123 123 115 116 121 118 120 121 124 125 126 127 128 128 126 120 120 120 127 133 132 136 132 132 132 132 131 131 130 130 132 132 138 136 136 136 139 145 136 133 136 140 144 155 162 162 160 144 144 133 143 150 141 148 157 177 189 184 182 175 181 180 186 168 144 104 139 157 151 130 104 101 100 107 106 84 70 78 91 88 88 91 94 104 118 117 118 112 118 120 121 122 126 113 112 119 121 122 124 126 126 127 127 128 125 126 119 117 112 111 113 124 129 133 132 132 132 130 131 129 131 131 133 133 137 141 131 140 142 146 138 141 139 145 148 153 163 165 162 153 142 143 140 149 141 148 157 167 190 186 182 170 178 179 181 161 147 94 142 160 159 139 115 107 128 93 94 84 73 84 87 90 86 86 90 103 111 104 106 103 114 116 113 114 120 118 117 119 119 119 120 123 124 124 126 127 125 124 118 111 116 112 106 122 129 129 127 125 125 123 124 124 125 128 128 129 130 124 118 129 134 139 140 140 140 141 150 161 164 165 155 156 142 137 131 138 138 143 157 166 189 189 186 163 175 176 179 158 144 88 150 152 145 130 128 131 124 92 97 83 77 88 96 100 94 96 102 115 115 108 104 102 107 109 107 105 107 105 108 112 113 113 113 111 116 115 116 118 118 120 113 114 114 110 106 110 126 122 116 116 119 119 118 120 119 124 124 122 120 112 113 126 130 133 134 136 136 135 141 150 160 160 154 154 144 125 125 127 126 136 149 154 185 197 179 162 173 168 174 159 141 97 140 155 138 112 136 133 105 100 103 88 74 93 104 99 92 101 105 115 109 102 100 109 113 109 104 104 106 107 104 108 114 115 114 111 110 108 109 104 117 116 115 113 113 115 116 123 121 118 113 113 115 113 113 116 113 116 114 113 114 113 109 122 123 129 128 129 138 139 134 143 155 157 152 148 146 111 112 112 124 137 149 151 176 199 175 169 168 153 171 159 140 105 136 148 136 108 105 118 100 98 97 81 78 93 90 89 86 96 102 111 93 103 109 113 117 113 113 119 129 132 120 123 128 123 108 109 107 107 102 99 106 108 121 121 124 124 116 123 127 122 119 110 110 110 109 104 104 106 107 102 105 109 108 112 115 121 119 129 135 137 141 142 148 157 154 148 136 110 101 84 98 133 149 158 166 187 182 166 150 159 159 159 137 101 128 138 122 109 98 104 91 90 95 81 83 80 69 75 82 88 95 80 92 104 109 110 115 113 111 124 130 126 116 115 114 113 101 102 99 103 95 98 101 100 123 130 138 131 122 127 127 130 120 114 102 110 108 107 106 102 104 98 96 104 101 106 101 111 117 126 135 143 144 144 146 145 152 147 132 115 95 63 80 117 144 145 164 180 176 165 142 151 149 148 133 95 124 128 102 104 105 94 79 82 91 96 76 59 63 68 65 79 79 75 88 103 107 110 122 123 115 128 137 132 124 121 116 108 102 96 98 92 90 93 98 101 121 137 147 139 132 131 135 132 124 116 101 98 104 102 104 97 97 109 84 93 105 97 100 105 120 130 141 141 149 152 149 146 142 133 134 115 87 69 84 107 132 127 151 176 177 168 140 138 142 129 124 98 126 122 95 94 98 89 83 83 91 92 69 53 55 56 55 88 83 84 108 92 100 120 139 145 139 142 141 144 124 119 115 105 109 101 100 92 93 97 101 113 121 137 143 141 131 133 132 133 125 117 99 91 103 102 90 93 97 108 99 111 106 102 108 112 119 129 140 145 152 150 146 139 125 117 120 112 83 81 91 114 118 124 143 172 180 159 139 138 126 110 101 99 119 119 97 102 100 92 89 99 91 75 63 57 62 61 64 100 84 87 109 97 104 129 146 146 148 152 147 142 123 111 113 109 110 110 106 90 89 101 98 118 121 142 150 138 138 142 140 138 133 124 102 94 93 96 99 97 105 104 113 120 122 113 122 122 131 128 128 135 145 144 145 135 114 110 116 106 90 82 86 109 124 125 146 162 172 152 133 131 114 95 82 100 120 123 94 106 101 104 93 105 79 68 54 55 62 74 89 107 89 98 107 109 116 137 145 139 143 132 135 123 113 112 108 103 102 108 105 86 90 99 104 116 125 144 150 147 145 149 142 146 139 130 110 102 96 97 101 104 102 98 105 117 113 107 121 118 119 121 128 123 128 130 135 126 108 105 112 107 98 84 81 94 112 123 146 159 162 151 120 119 111 77 71 93 109 111 103 113 105 115 85 106 68 63 53 63 67 76 97 103 92 106 124 119 129 139 128 122 123 125 116 106 111 108 115 106 106 110 104 92 101 109 107 118 127 152 152 156 147 149 144 146 136 123 114 105 99 91 91 104 100 102 103 109 114 110 110 113 113 116 106 105 106 119 129 122 103 108 118 113 104 94 91 91 108 102 127 150 150 140 108 96 99 71 55 94 113 111 93 119 98 112 88 108 74 60 49 69 70 78 90 94 95 114 134 133 133 128 125 119 118 121 98 105 106 101 108 109 110 113 98 98 99 107 100 105 116 135 139 140 140 139 142 138 128 117 113 106 105 103 96 99 98 105 108 109 118 120 114 111 113 114 116 106 107 105 116 111 107 108 119 103 110 103 86 87 99 93 112 132 143 134 96 90 81 63 46 82 115 120 107 114 95 104 81 98 71 50 44 62 66 80 82 96 102 121 138 130 131 127 127 128 130 122 105 94 90 94 102 105 113 115 97 104 106 110 100 101 107 107 120 125 132 138 133 129 124 119 116 111 110 104 95 92 97 96 105 111 109 110 107 106 102 98 117 105 93 97 100 105 104 101 98 90 111 94 76 68 86 83 106 115 135 117 94 89 86 49 50 58 92 121 114 112 103 95 72 75 65 47 51 58 65 73 76 93 110 127 140 129 130 129 127 133 129 114 105 101 92 91 95 96 105 101 100 98 97 96 93 97 94 110 121 119 123 130 126 125 121 122 117 118 109 108 104 96 102 103 106 112 105 104 105 98 97 82 98 100 87 85 103 98 99 99 92 84 102 89 68 61 66 65 95 107 117 91 91 80 86 40 62 50 83 109 99 96 92 78 74 63 63 46 54 64 70 79 83 96 108 119 129 120 127 128 124 120 120 124 117 115 105 94 90 96 96 95 94 91 87 81 89 98 92 115 116 113 117 128 124 125 117 114 119 113 112 108 105 99 106 109 107 107 104 97 96 89 80 72 87 99 97 94 98 101 104 105 95 93 105 88 76 66 52 57 89 98 95 76 86 68 72 38 67 57 80 111 105 87 79 67 72 67 52 54 55 64 76 81 89 108 111 114 123 124 132 132 120 115 110 122 124 121 108 94 89 97 96 95 95 90 90 87 83 102 107 123 114 116 121 130 131 127 120 113 112 115 115 108 98 100 93 104 111 114 107 103 85 87 87 91 93 106 105 105 106 106 104 105 99 103 105 84 76 66 51 60 89 67 71 72 71 68 56 40 67 71 76 127 115 90 74 67 64 65 46 50 65 68 82 82 93 100 106 107 118 117 122 123 121 117 117 125 127 117 104 106 99 101 100 102 96 97 101 99 99 110 120 126 125 123 137 138 140 128 124 124 114 116 115 110 97 87 91 91 101 109 106 99 99 95 102 106 108 108 109 111 109 113 106 106 106 105 98 83 73 67 51 61 76 57 67 64 54 67 43 45 64 75 80 135 113 84 68 62 54 66 53 50 52 65 79 84 98 99 105 109 123 127 125 128 129 124 127 125 123 118 117 118 115 104 106 105 112 111 108 114 118 120 138 139 146 132 140 143 143 135 129 125 121 116 118 116 117 96 93 95 104 111 112 104 109 103 110 115 123 125 116 117 118 118 112 110 107 103 95 83 71 69 59 56 67 61 65 60 53 62 33 44 62 70 78 114 117 77 66 63 50 72 57 56 54 51 74 79 87 92 99 104 113 123 120 121 128 125 126 125 128 126 122 119 113 101 107 121 117 113 104 119 123 127 135 145 149 143 147 146 149 138 129 123 118 116 118 109 122 117 103 99 106 106 105 103 109 114 108 110 117 121 120 122 122 119 114 107 106 103 100 85 73 75 67 61 80 61 70 58 60 51 33 49 65 66 73 89 105 76 66 59 45 67 76 50 62 64 65 76 82 89 92 98 100 110 117 120 121 122 122 121 120 122 118 115 106 106 115 126 118 120 115 122 118 120 124 138 144 144 147 143 152 144 136 125 120 119 125 121 116 118 111 106 108 113 110 111 111 114 109 112 116 120 120 123 123 121 113 104 108 104 103 87 83 78 79 78 71 73 69 59 57 43 34 57 65 67 62 71 93 81 69 44 40 54 73 60 51 62 70 81 81 89 93 99 104 114 119 124 124 123 121 119 117 118 119 113 107 110 114 112 118 115 114 118 120 119 124 128 138 140 145 145 143 139 135 129 123 122 124 127 123 118 106 106 100 99 105 113 119 120 113 114 112 115 119 120 123 117 106 105 106 106 103 96 91 89 81 85 75 58 58 57 51 32 39 64 67 76 64 57 83 79 71 36 47 57 66 59 50 61 67 80 86 93 93 97 101 104 117 121 121 122 117 117 123 124 119 113 107 110 107 107 109 106 111 114 118 122 122 121 133 135 138 139 140 135 136 131 123 119 121 124 122 116 105 106 102 95 99 102 111 115 115 111 109 116 115 112 114 111 110 109 104 106 108 97 100 87 78 83 63 42 48 57 54 30 51 73 71 75 54 59 78 62 61 43 49 56 58 65 56 54 65 69 81 86 92 91 96 102 100 107 106 108 110 107 111 112 106 104 102 104 104 98 96 98 105 109 114 116 112 108 112 120 124 131 131 126 122 124 121 113 111 114 113 107 100 96 95 97 99 100 107 111 112 108 107 106 106 111 116 117 118 111 104 104 102 99 101 71 76 74 50 42 38 49 49 29 68 75 66 69 48 45 64 44 63 47 54 62 59 64 62 63 61 68 76 79 89 93 96 97 96 98 98 103 100 101 99 100 101 97 96 97 95 89 88 86 94 100 102 103 100 100 101 110 113 123 119 114 109 112 114 107 102 102 104 97 97 92 89 91 87 91 97 105 108 107 105 105 110 114 112 119 124 114 105 101 101 99 95 63 76 68 55 36 42 46 47 25 67 73 67 67 60 42 54 41 58 55 50 61 56 59 63 71 66 72 78 79 83 98 96 97 95 96 98 103 102 97 95 93 95 91 88 88 89 81 79 82 95 94 93 94 87 89 94 97 96 106 108 97 97 96 95 96 97 94 97 93 88 86 86 87 89 87 88 98 105 107 106 106 112 112 113 115 118 119 102 103 104 94 90 68 72 59 43 32 50 44 49 18 60 81 69 71 67 48 48 44 62 60 64 57 55 48 56 71 69 70 74 83 84 91 100 101 99 101 98 101 97 92 89 87 84 82 84 79 80 76 76 76 90 88 85 86 80 92 90 90 91 92 95 94 91 78 75 81 81 80 84 81 81 81 83 82 85 84 87 91 95 104 101 106 111 112 108 110 111 107 103 99 103 91 88 76 74 45 41 34 43 48 46 26 62 85 73 76 78 60 58 55 73 69 66 53 49 38 53 67 68 72 80 83 87 91 94 98 98 106 104 104 99 97 90 83 79 75 77 73 69 67 68 76 83 85 86 86 90 94 92 93 94 97 93 95 90 78 72 73 69 65 65 68 75 78 79 78 80 84 85 90 94 97 99 103 105 110 110 111 110 109 103 106 99 89 85 76 66 48 45 31 35 54 45 33 73 84 77 89 76 71 65 72 84 73 73 58 37 37 54 68 68 72 83 86 90 96 99 99 98 98 97 93 92 90 82 74 73 73 70 71 66 68 70 77 83 80 81 84 90 93 85 89 93 101 98 95 88 79 76 68 66 65 60 65 70 76 80 76 81 84 87 90 94 97 101 102 105 104 105 108 103 104 106 102 95 91 90 79 69 50 52 32 37 56 47 42 78 80 76 108 82 70 67 75 81 86 88 66 39 45 48 72 72 78 87 96 98 102 107 104 102 101 98 96 97 87 77 74 77 82 76 73 72 76 85 89 90 87 86 80 86 91 87 88 95 99 101 101 91 82 81 75 72 72 71 72 75 79 76 76 81 87 93 95 94 94 100 102 105 106 108 106 102 99 97 96 94 91 86 76 68 59 54 32 37 64 45 49 80 75 77 110 100 82 67 71 62 96 90 67 50 49 51 72 76 79 89 98 100 109 109 106 106 102 105 103 107 91 85 90 94 102 87 78 76 82 91 96 93 86 88 85 85 84 82 87 89 101 106 103 91 85 81 81 80 79 80 80 78 75 77 75 77 82 89 94 92 94 100 104 104 99 100 98 97 91 93 97 93 89 80 76 64 54 46 31 39 57 47 51 81 75 76 103 103 95 79 68 55 90 87 65 60 62 62 78 79 80 89 99 105 114 114 112 108 103 109 110 109 98 97 106 115 112 96 89 84 96 101 99 93 89 96 90 80 73 79 89 92 97 102 102 88 87 82 88 83 85 89 90 85 79 73 71 72 73 77 86 89 99 98 102 101 94 89 92 91 89 94 94 92 85 79 74 67 56 40 37 39 57 48 60 81 74 79 91 101 94 84 69 53 65 87 62 64 66 68 76 78 82 90 100 109 113 115 113 109 106 114 116 114 105 109 121 125 113 100 96 94 101 112 107 96 94 97 102 89 77 83 90 90 99 97 98 85 84 86 87 82 85 93 103 100 86 76 69 68 67 74 85 91 99 104 104 106 99 100 95 92 92 94 93 84 86 75 77 68 61 40 43 49 50 58 66 77 77 78 87 93 90 91 72 49 64 90 72 75 71 69 83 77 84 87 103 110 113 112 110 112 114 124 123 116 116 124 131 132 120 110 113 113 118 120 113 104 101 100 100 93 87 91 90 89 93 97 94 83 83 90 94 79 81 90 107 107 100 91 83 77 75 80 88 95 101 108 112 111 106 105 96 93 95 96 95 86 91 76 72 63 64 48 50 51 46 70 72 73 79 81 86 90 95 85 74 33 63 97 82 84 80 70 88 75 83 89 101 108 111 109 109 120 127 132 127 124 130 135 136 140 130 126 129 130 128 126 125 113 105 99 93 93 92 98 97 92 94 104 107 89 81 92 102 91 93 96 108 116 113 109 108 98 94 94 97 101 107 114 119 115 111 107 99 97 98 101 99 97 100 83 72 67 63 61 62 49 51 72 71 77 78 81 85 94 91 85 74 23 41 88 87 89 89 81 94 80 85 87 100 110 111 110 113 127 134 140 138 135 139 142 143 146 142 142 147 148 142 137 133 117 112 105 99 92 87 95 96 96 100 107 109 95 89 97 106 102 99 110 117 127 121 124 118 112 107 103 105 106 110 113 119 119 116 109 103 99 100 106 104 107 102 94 78 72 69 70 70 58 59 74 70 77 79 84 93 94 90 85 83 28 20 71 77 88 95 93 98 86 88 95 100 111 111 119 124 135 140 148 152 151 150 150 149 151 151 157 160 155 152 143 132 119 117 109 104 95 93 96 94 91 101 110 110 102 96 101 110 110 106 123 128 135 132 131 125 119 112 110 111 114 114 113 119 122 118 113 107 102 103 107 109 112 106 103 92 78 79 73 60 58 64 71 79 82 76 79 99 98 91 87 86 38 16 62 75 83 94 93 99 96 88 95 102 114 113 126 133 142 150 156 155 156 153 152 160 158 155 155 161 156 150 149 142 132 129 123 113 102 99 98 99 92 100 101 103 103 100 100 115 111 112 123 127 134 130 127 130 127 120 118 116 121 120 110 118 121 118 117 109 105 105 110 110 109 104 103 95 74 78 78 65 56 66 66 82 84 77 80 104 98 91 93 84 56 27 47 73 80 91 87 99 98 88 95 105 112 121 134 140 144 147 154 158 157 152 155 165 159 158 151 155 154 152 155 145 148 134 126 119 111 103 97 97 98 103 105 98 99 102 107 107 106 111 114 116 124 124 127 129 128 124 124 122 124 121 115 113 120 117 121 112 108 113 115 112 107 109 102 87 72 85 83 78 58 62 61 81 84 81 85 100 95 87 91 88 67 37 42 61 72 78 89 95 100 87 94 101 111 124 131 139 142 146 154 160 156 157 159 164 161 161 152 154 151 151 151 144 135 132 126 116 111 108 99 97 102 109 110 104 105 105 104 106 109 112 115 117 119 119 124 126 125 127 122 123 120 122 117 111 118 123 122 116 114 116 116 113 106 108 105 80 62 86 82 78 59 55 66 85 81 80 79 99 88 86 88 82 77 52 42 49 62 68 81 88 96 85 95 101 105 119 130 137 141 145 149 156 157 161 160 161 160 161 158 156 158 156 145 142 134 126 111 105 110 119 112 106 102 101 104 103 104 100 99 102 106 109 112 111 117 119 119 117 118 124 120 116 116 120 118 118 124 129 126 120 122 119 119 112 101 103 101 71 57 86 79 62 63 53 74 89 79 78 79 99 89 88 83 77 80 66 44 50 49 55 77 84 90 88 97 101 101 117 126 135 142 146 146 153 156 154 159 160 158 161 162 160 157 160 143 139 128 113 106 102 107 117 113 106 100 98 96 98 101 99 94 98 102 102 104 107 116 116 110 108 109 115 113 109 110 113 119 123 127 133 129 123 129 126 123 112 92 97 84 52 54 79 64 58 59 52 83 90 83 75 79 94 91 91 82 76 82 72 47 44 51 47 66 80 79 92 96 102 99 111 127 131 139 142 141 141 144 141 145 149 150 154 157 147 140 139 131 118 122 115 106 104 103 109 115 108 106 102 94 94 98 97 92 91 100 106 108 109 112 115 105 105 108 105 104 102 109 109 113 126 129 137 131 127 133 130 120 107 84 86 61 38 48 60 55 61 53 54 88 91 81 73 79 97 94 85 84 78 80 73 56 46 54 49 52 75 76 87 100 103 99 107 125 129 132 136 134 133 135 136 137 138 144 145 142 132 124 115 113 107 112 119 106 106 101 100 109 110 107 103 97 94 99 95 94 98 104 110 113 111 113 116 111 108 106 101 96 98 103 105 111 124 135 133 130 132 134 130 114 91 72 69 39 29 41 44 58 57 52 63 90 89 80 71 77 95 91 85 86 83 76 74 68 53 54 53 44 65 69 82 102 101 101 105 118 124 131 129 128 128 128 133 132 138 141 136 126 121 117 113 109 113 117 112 102 102 103 100 102 103 102 100 95 97 98 99 102 110 109 112 112 107 107 111 109 109 104 96 95 94 102 105 114 122 133 134 128 133 129 127 104 79 59 54 28 16 32 46 52 54 55 75 84 86 86 75 72 91 88 89 85 81 64 81 72 52 50 53 42 62 66 75 97 101 101 109 116 120 129 126 125 125 129 135 126 130 126 117 111 105 105 110 117 116 113 118 116 109 109 104 104 103 104 104 100 102 102 103 105 110 109 108 106 103 102 104 105 106 95 91 88 95 100 107 117 123 134 131 124 130 127 125 99 69 51 36 18 16 31 42 44 45 58 80 80 82 86 80 72 89 90 92 84 69 63 88 56 53 52 50 43 59 68 74 84 104 106 110 115 118 129 128 127 127 126 129 128 120 111 103 100 101 100 118 128 125 118 117 116 113 114 105 104 106 108 106 98 96 96 94 95 94 98 98 99 100 97 97 102 102 94 95 91 100 104 112 120 129 132 128 124 127 126 118 91 64 39 23 13 14 30 42 35 38 61 79 76 78 83 83 74 90 91 89 79 60 68 63 39 59 54 42 41 59 67 70 83 107 103 117 120 121 128 131 126 126 128 131 132 124 118 115 109 118 123 135 147 148 139 129 129 123 124 119 116 115 121 118 112 103 99 88 86 92 96 98 99 103 100 105 112 116 111 101 101 111 113 115 124 134 129 123 120 123 124 110 80 54 24 26 4 10 17 28 39 43 63 74 70 71 83 80 77 85 84 80 70 61 45 44 37 65 55 41 43 60 62 67 78 95 100 112 117 122 124 132 129 130 130 129 137 131 124 123 122 135 141 148 156 159 159 158 150 145 138 134 130 127 128 124 120 113 104 100 94 103 111 116 111 114 116 120 123 124 124 107 106 113 115 119 122 128 126 118 115 120 115 96 69 33 22 22 1 7 18 25 32 52 68 60 69 62 75 78 73 79 75 75 70 43 20 45 42 64 62 43 46 59 63 67 68 87 97 105 111 121 125 128 128 131 128 129 134 133 128 128 132 138 143 146 151 153 152 152 148 143 138 132 128 121 121 116 118 118 113 109 109 110 120 116 111 115 120 122 122 124 120 109 108 111 112 119 122 120 116 114 108 113 98 85 55 20 22 13 0 5 19 26 35 59 61 57 57 58 66 72 72 65 71 74 54 16 29 39 46 62 68 47 53 64 65 67 64 81 91 102 107 117 123 122 126 128 130 126 128 129 130 125 129 135 139 139 145 147 144 144 141 139 130 123 114 110 115 110 112 114 112 111 107 106 108 105 103 107 111 113 114 117 115 110 110 110 112 117 113 111 109 107 105 106 84 66 43 17 23 3 1 4 24 29 37 62 52 54 51 56 55 63 65 58 77 69 25 16 25 36 38 60 78 53 66 67 67 72 62 72 88 97 106 113 115 118 121 121 129 128 128 131 131 128 128 133 134 137 141 139 141 139 137 138 129 122 116 114 116 116 117 116 116 116 109 107 101 97 102 105 104 104 107 110 110 109 109 111 113 113 108 107 103 99 105 90 76 55 37 21 18 0 0 5 26 36 44 56 48 47 51 57 49 54 54 74 82 37 6 13 19 36 39 57 84 56 76 76 68 80 66 72 74 86 96 114 114 115 116 116 120 122 123 129 126 129 130 130 132 132 130 129 131 131 132 131 124 122 118 117 112 113 111 110 108 106 104 102 97 98 104 104 100 101 102 103 109 107 106 111 111 102 101 100 92 96 97 79 67 50 30 27 10 2 1 12 21 34 49 47 45 46 51 57 54 46 50 82 52 12 6 12 26 40 38 50 84 64 89 85 83 96 75 68 71 78 82 106 113 111 116 110 110 112 112 113 117 118 125 125 128 126 125 122 121 120 120 115 110 111 107 103 98 97 101 100 104 101 101 96 95 96 99 101 94 97 101 99 103 101 103 107 101 101 100 97 89 92 90 70 54 45 34 28 15 9 9 24 22 19 42 50 38 46 48 53 57 50 47 54 25 8 7 16 43 35 42 57 97 89 98 99 98 100 81 72 71 74 75 92 104 110 113 113 108 103 104 107 108 112 118 120 119 118 118 125 123 116 114 109 106 102 99 96 92 85 86 89 92 96 96 96 94 94 96 96 97 98 99 101 99 99 106 108 104 102 100 96 89 90 81 68 49 52 39 26 18 19 26 39 38 10 22 45 41 48 50 50 54 56 49 27 26 16 13 27 52 41 54 75 97 118 122 116 103 103 89 75 66 74 75 85 100 106 113 107 104 103 97 99 100 103 114 115 110 116 108 112 116 112 110 105 97 95 89 86 83 78 83 82 84 89 90 90 94 94 96 101 101 102 101 102 101 101 108 113 107 106 102 93 86 90 78 56 53 56 46 38 23 28 44 54 49 28 3 33 44 52 50 54 55 59 53 31 36 27 13 38 52 48 71 92 104 133 148 133 114 109 91 85 67 68 75 77 99 105 108 103 103 102 99 98 96 93 102 99 98 99 101 104 103 103 107 104 101 96 93 95 91 92 96 95 93 99 97 98 101 100 101 104 110 103 106 103 104 110 110 116 108 106 94 89 83 86 78 58 56 61 46 43 32 40 64 69 46 40 13 9 36 53 51 54 60 60 59 42 48 35 20 51 55 69 92 112 119 134 168 149 122 112 103 97 72 70 75 77 94 108 108 110 102 103 100 100 97 95 98 98 96 92 88 93 94 95 105 108 110 106 104 104 100 99 103 104 105 105 105 104 107 103 102 107 111 110 105 106 107 112 109 115 108 105 93 86 84 84 72 77 64 59 54 49 46 54 76 78 44 41 25 10 14 46 50 51 53 58 53 61 55 37 33 57 62 95 105 127 132 147 179 161 140 117 114 100 84 75 75 79 94 103 109 111 107 105 103 107 101 105 108 109 106 104 98 100 104 109 113 112 114 108 113 113 109 106 107 106 108 107 109 109 111 108 110 113 117 116 110 105 105 111 109 114 110 100 91 88 85 81 67 78 72 62 56 55 47 70 90 84 39 38 28 17 5 25 45 53 52 51 52 76 56 41 40 68 81 100 117 149 150 161 189 177 153 130 118 102 85 81 80 82 95 103 107 111 111 110 110 111 108 109 114 117 114 113 106 107 110 113 115 117 118 110 110 108 111 111 110 111 109 109 109 110 111 113 115 122 121 116 112 114 115 116 115 114 104 92 91 84 88 78 68 71 78 73 55 59 54 88 99 89 37 37 31 23 13 13 33 56 65 55 52 77 59 46 53 82 96 108 138 182 175 166 192 187 169 140 123 105 93 84 86 84 93 101 111 111 116 115 116 117 115 114 112 119 123 126 118 115 111 111 111 116 118 114 111 112 111 113 113 116 110 108 105 106 110 109 114 124 121 119 119 117 121 117 117 107 98 89 89 89 83 80 67 77 78 78 62 61 70 100 106 92 49 46 43 33 19 14 14 43 61 60 59 84 65 67 80 110 121 132 160 208 186 164 185 204 190 147 132 102 101 94 94 87 97 104 110 118 120 120 120 124 125 121 124 121 124 131 127 125 122 119 112 110 114 116 110 113 112 115 114 110 104 105 108 110 111 112 118 123 125 121 123 121 123 118 111 106 97 90 90 90 88 83 66 80 83 71 76 75 91 107 107 101 69 51 57 47 28 15 16 19 40 45 51 92 76 95 110 124 130 149 182 221 197 168 192 212 197 158 136 103 106 109 100 93 95 107 106 119 127 122 123 128 129 130 134 133 131 138 136 133 131 127 122 121 118 122 117 117 118 117 121 115 114 115 118 118 121 121 124 127 128 129 130 127 123 117 106 104 101 92 89 86 89 85 65 83 76 63 67 80 110 114 102 102 73 50 56 49 30 12 13 12 24 30 29 93 93 126 127 127 137 161 202 232 207 172 190 212 200 179 139 117 116 122 116 95 96 106 111 113 131 131 125 129 130 132 138 143 139 143 145 148 145 138 133 130 135 132 130 128 129 128 126 126 124 125 125 127 130 132 131 134 135 138 135 126 120 112 106 103 97 97 91 84 87 95 76 90 72 49 57 93 121 120 105 96 78 51 55 53 38 19 8 18 12 25 26 107 113 143 141 134 156 180 226 227 217 181 192 198 210 199 159 135 115 130 119 105 105 107 117 119 128 130 133 131 134 133 138 145 148 152 153 158 161 154 149 142 147 145 142 137 136 135 134 132 128 132 135 132 137 137 138 136 137 137 137 123 111 108 106 98 97 99 97 86 90 101 88 84 63 47 54 118 133 128 106 99 91 65 58 58 53 34 22 22 24 25 29 130 138 169 164 163 174 197 238 230 213 189 196 194 223 207 174 144 123 130 126 113 105 113 122 127 131 136 138 137 138 137 140 144 154 158 158 164 167 169 162 164 164 161 155 152 149 146 141 139 137 141 143 140 140 141 142 137 135 135 126 117 109 111 106 93 95 102 98 95 93 96 88 71 69 46 65 126 145 126 113 107 106 78 64 64 61 52 35 27 40 38 37 169 181 211 200 194 200 217 245 239 210 199 195 194 221 208 181 160 142 131 127 116 111 112 129 129 131 140 143 142 144 146 147 148 155 161 163 168 168 172 172 171 169 165 161 158 156 152 145 147 144 146 147 143 141 141 139 137 133 127 116 115 111 111 100 93 93 99 100 102 101 84 73 69 68 55 80 135 154 133 121 113 125 102 79 75 73 74 59 45 59 52 49 194 210 236 219 217 220 228 240 242 215 209 194 193 210 210 177 177 147 132 131 115 114 120 132 127 130 138 141 147 146 150 153 153 156 161 166 170 173 173 176 174 173 168 161 159 158 155 152 153 149 150 147 146 142 138 136 132 122 120 117 115 111 107 96 91 99 97 103 113 108 84 66 63 73 72 75 134 172 152 131 119 138 128 112 92 90 92 79 66 68 72 59 217 235 246 232 232 215 229 251 240 227 218 201 199 201 212 182 176 157 142 134 117 111 124 136 128 128 136 138 144 145 150 153 154 155 159 161 170 175 174 175 171 168 164 160 159 158 153 153 152 149 147 145 142 137 132 130 121 118 122 116 113 109 102 92 95 96 98 101 112 108 87 66 58 81 84 78 130 161 171 157 131 144 134 116 107 106 110 93 68 66 78 76 230 240 241 238 247 231 240 248 240 228 226 210 201 193 201 194 172 158 150 136 123 114 122 133 134 126 132 137 138 141 143 146 150 152 155 158 162 161 160 164 159 160 152 150 148 149 149 147 144 143 138 135 129 126 121 122 129 125 122 117 115 105 98 91 97 97 102 94 108 101 87 85 67 81 94 85 127 152 164 182 166 147 140 123 118 118 125 116 88 76 85 85 227 248 236 240 246 237 239 241 238 241 228 208 194 196 195 195 171 159 147 144 126 123 123 132 134 128 136 141 138 138 143 140 141 146 148 150 151 153 155 154 153 148 142 141 136 132 133 133 130 130 128 126 124 124 126 130 128 123 120 117 112 102 95 91 99 102 101 96 107 107 90 95 86 87 107 101 122 158 164 179 186 172 156 134 132 124 127 127 110 98 100 99 231 255 235 236 242 232 227 233 233 242 233 210 188 195 191 185 174 167 155 148 131 123 123 132 132 131 137 145 141 137 137 135 137 139 144 147 149 147 151 148 152 144 146 143 136 134 131 127 126 130 130 129 125 127 128 127 125 122 117 114 109 100 94 93 101 103 101 102 114 108 100 106 87 91 106 121 120 161 171 173 187 189 181 167 141 130 127 120 126 119 109 116 