P2
92
112
255
97 97 95 97 97 99 99 99 96 99 99 98 101 98 98 98 99 100 106 117 117 114 122 123 116 119 111 106 103 102 108 102 97 101 101 108 108 114 115 113 118 118 126 128 134 139 142 143 150 147 150 150 156 152 157 157 154 159 156 153 149 152 153 151 149 152 144 136 137 137 139 134 134 128 124 120 121 120 118 118 116 114 117 117 117 115 116 114 113 117 112 113 96 97 96 96 99 98 100 97 95 97 100 99 97 99 97 101 103 106 115 124 126 129 126 117 117 112 119 113 112 108 104 105 94 97 101 100 101 98 102 108 100 106 110 117 121 130 144 146 155 155 152 156 159 157 158 163 159 160 153 152 152 155 151 150 152 151 154 150 143 138 139 139 132 133 130 122 124 123 119 121 116 118 113 116 116 118 116 117 112 115 115 115 96 96 96 97 97 99 95 94 97 96 96 97 98 99 100 104 104 113 126 131 126 125 117 122 122 113 110 105 100 92 87 87 81 80 78 77 72 74 82 87 85 90 96 99 107 113 125 135 145 146 151 154 161 167 162 160 164 164 159 159 164 154 151 150 155 148 147 154 154 149 145 141 135 129 135 129 126 125 122 121 116 118 115 113 116 115 117 116 114 114 115 115 97 97 97 97 100 93 95 97 100 99 102 99 105 106 109 107 116 129 132 134 128 127 126 126 110 101 94 95 93 81 72 58 56 53 51 54 48 54 59 67 74 79 80 89 94 97 110 114 134 141 145 150 169 169 170 162 164 163 165 167 166 158 152 154 152 148 151 148 149 151 153 148 144 136 129 133 134 127 123 120 116 115 117 113 115 117 115 116 115 115 114 115 97 95 97 96 97 96 96 98 102 98 103 105 109 115 118 124 132 139 142 144 140 133 122 110 101 97 92 85 76 60 52 40 41 37 39 42 44 45 55 51 62 72 69 80 82 92 100 102 121 126 137 141 155 167 170 167 166 167 173 166 168 156 154 151 146 147 159 146 141 150 151 153 145 148 132 127 131 132 129 120 119 117 119 114 115 115 115 114 118 114 112 112 96 97 97 96 93 94 98 100 103 100 113 120 118 127 131 135 147 149 146 144 137 131 121 113 107 106 86 68 64 59 50 38 42 30 34 43 39 41 50 46 54 62 65 68 80 93 93 95 102 108 120 131 140 145 153 156 162 172 182 181 171 166 161 155 150 146 151 143 141 146 147 142 147 149 142 134 132 129 127 126 120 117 116 117 115 116 110 115 117 118 113 110 99 95 97 95 95 95 99 106 107 113 114 126 127 137 141 152 151 156 144 142 139 137 123 117 111 94 85 76 76 76 64 47 54 48 46 47 48 55 51 52 46 50 63 58 74 89 88 86 95 100 102 117 123 128 132 145 152 161 171 172 177 172 167 168 159 154 156 153 153 148 144 140 145 146 146 144 135 124 126 128 126 115 116 115 119 117 113 113 117 118 115 114 98 96 95 91 98 100 106 106 110 120 121 130 140 148 155 160 146 147 138 137 140 132 119 119 110 106 105 92 85 78 67 64 66 61 60 58 61 61 66 61 52 51 61 64 75 80 84 85 91 100 106 111 123 128 124 133 142 147 160 160 170 173 177 178 165 173 170 165 159 159 152 147 135 133 133 144 142 131 125 134 125 118 118 116 119 114 111 113 115 115 118 113 99 96 98 97 102 106 106 110 117 126 133 140 149 158 160 149 139 135 134 137 137 128 115 119 124 118 107 100 96 93 79 79 81 76 70 76 69 72 69 70 73 76 81 83 90 90 88 92 100 112 114 115 126 127 132 134 145 155 156 155 165 174 181 182 180 183 179 177 173 168 162 146 132 131 126 137 141 132 131 135 133 121 120 119 120 117 114 115 112 111 116 113 96 97 97 100 107 109 107 111 125 126 140 147 156 160 148 147 139 140 146 146 136 123 122 128 125 108 104 100 101 95 81 89 85 78 86 87 83 83 77 78 82 87 96 98 100 101 96 102 106 115 112 117 124 126 131 139 145 156 160 163 173 177 177 173 173 184 185 176 171 169 166 151 138 131 130 126 125 128 136 134 128 121 117 121 113 116 112 117 112 111 112 111 96 98 102 105 108 109 114 124 128 136 141 152 160 145 143 142 142 150 150 140 133 133 134 128 109 105 106 102 103 94 84 89 88 94 98 102 102 98 97 100 105 103 110 102 98 104 111 112 107 113 112 113 127 134 136 147 147 154 167 177 181 179 177 175 175 178 187 181 180 173 167 163 146 137 137 129 125 123 132 128 126 122 114 114 111 110 110 113 113 107 111 111 98 101 104 106 108 112 119 125 132 131 143 147 142 136 133 138 147 148 146 134 127 134 131 120 106 100 96 99 91 95 90 100 107 108 108 109 105 106 111 98 104 105 110 103 103 110 110 107 109 113 112 118 125 133 142 149 151 157 170 178 186 184 180 181 187 184 186 186 187 183 176 174 164 157 144 137 131 120 122 118 121 125 119 111 109 112 111 112 108 108 110 111 105 108 104 106 112 119 122 127 135 140 139 128 123 125 135 144 149 148 135 123 125 127 121 116 109 102 101 103 108 116 124 127 123 123 119 118 106 108 111 95 98 107 107 111 110 106 105 106 112 110 118 119 125 132 141 144 151 163 174 177 183 187 180 189 194 189 189 188 187 186 172 174 174 164 158 139 143 135 107 111 118 121 119 114 109 110 112 117 111 110 111 115 105 105 106 109 114 122 127 126 133 133 127 120 114 130 138 147 149 130 111 119 130 125 118 109 106 106 118 126 128 128 139 127 123 126 122 114 101 104 106 103 106 109 106 103 102 107 102 106 108 109 116 119 120 126 130 141 146 159 171 171 181 184 185 189 197 189 190 186 183 184 186 171 167 168 165 154 138 139 119 108 108 114 113 115 110 107 107 113 113 114 111 116 103 101 109 115 114 125 121 128 131 121 128 113 119 129 136 143 129 109 113 129 135 119 112 104 111 118 139 141 141 135 137 132 122 120 121 111 103 107 104 106 106 107 103 98 93 96 91 91 96 95 109 114 103 115 122 126 137 147 153 163 174 170 177 179 186 184 186 183 185 187 181 178 167 170 163 160 154 132 129 110 104 105 108 116 110 102 102 108 113 121 111 111 103 101 108 116 118 120 114 123 124 117 115 107 122 131 137 125 105 113 114 137 129 117 115 117 131 142 146 146 141 142 137 129 120 116 121 115 106 109 107 97 95 94 85 89 83 84 78 75 80 82 80 90 92 101 102 111 122 128 136 147 161 159 166 171 178 177 178 174 177 187 189 181 172 169 161 165 158 147 127 118 100 101 97 102 111 95 93 101 108 119 113 110 104 96 110 122 116 112 110 119 119 112 102 115 125 133 122 101 96 111 122 127 125 123 132 142 144 157 145 148 145 142 143 134 135 132 126 111 107 99 92 88 81 78 78 75 71 67 63 73 68 68 63 61 74 79 84 90 101 106 111 123 131 137 138 149 150 161 174 167 174 175 187 188 180 186 171 164 161 157 134 112 107 96 88 83 93 100 92 94 99 110 111 105 101 97 112 125 114 105 111 112 115 106 113 112 116 124 104 86 97 108 124 131 129 140 152 155 163 156 158 154 151 155 155 142 139 124 115 96 94 87 78 74 76 76 76 69 67 58 62 60 59 53 48 52 63 61 74 75 82 87 90 100 101 108 111 122 119 131 146 152 161 166 178 183 185 188 175 166 164 152 148 121 101 98 90 82 79 88 98 87 97 98 106 106 99 102 117 116 107 109 109 111 103 98 114 120 118 107 82 79 102 117 123 132 146 152 163 165 168 162 161 155 156 161 155 139 131 123 104 88 84 84 76 71 76 79 72 67 62 59 60 59 60 53 49 53 55 54 57 57 60 68 78 85 83 94 94 105 108 120 128 140 150 156 162 176 182 188 182 169 164 155 148 132 110 96 86 81 74 81 87 89 87 100 101 107 103 109 105 113 111 113 115 94 91 102 128 131 104 90 69 85 110 118 130 144 156 167 172 172 176 170 172 166 167 158 156 136 121 111 96 91 81 85 78 79 79 80 71 68 67 66 64 56 57 53 55 61 51 48 55 49 51 61 60 63 69 76 85 88 97 98 109 126 130 149 151 166 169 185 190 172 170 152 142 133 125 104 91 79 72 81 84 87 81 95 97 104 104 104 108 113 117 108 98 90 93 108 121 118 93 75 77 95 119 136 146 156 163 173 179 182 186 182 180 171 162 150 148 135 114 105 95 96 88 84 82 82 81 81 75 70 72 71 69 57 59 55 59 55 50 57 52 50 47 50 52 50 59 60 67 73 88 86 99 109 123 132 146 154 157 166 182 177 167 153 137 135 122 108 99 77 72 84 86 83 87 83 95 100 105 106 108 109 107 101 96 89 93 113 114 102 76 79 81 114 132 147 154 164 181 181 195 186 183 185 183 168 155 142 141 129 119 105 102 97 92 89 85 83 86 81 79 76 74 71 68 61 55 54 62 54 52 58 51 49 50 48 48 47 55 51 58 62 71 80 86 98 113 124 144 149 150 160 173 179 164 159 138 129 122 110 102 80 72 74 84 84 88 87 92 101 106 106 101 105 104 90 77 76 91 112 111 86 81 75 92 124 146 151 165 172 181 186 186 177 178 185 161 154 147 138 141 132 123 113 109 100 94 95 90 89 92 85 81 77 73 72 71 62 56 61 59 57 60 58 54 55 57 52 50 53 55 56 60 66 67 68 78 88 102 116 136 148 155 159 170 173 164 155 142 125 117 106 107 81 59 77 77 83 84 98 94 102 108 103 101 104 89 76 61 81 99 111 95 83 78 80 109 137 143 156 173 183 181 171 177 173 172 166 143 139 137 135 139 131 129 119 111 108 100 95 95 96 95 95 88 91 81 81 77 69 69 75 66 69 69 66 64 67 62 61 65 60 62 62 63 67 72 71 76 82 92 106 120 135 150 159 171 172 168 157 144 120 118 110 102 86 54 67 79 85 81 97 95 103 110 103 107 96 80 75 77 104 97 91 87 86 76 86 113 134 140 161 192 189 171 164 170 169 154 142 133 126 130 130 134 124 124 118 112 113 106 97 102 100 99 100 96 96 90 92 90 87 87 82 76 79 81 74 76 74 65 75 74 71 70 74 71 72 75 78 79 89 86 101 108 125 137 147 160 171 163 163 142 122 116 114 101 86 52 59 71 83 91 92 91 98 108 116 110 98 90 81 96 100 90 82 87 82 76 99 123 136 155 188 202 181 163 160 161 154 136 130 131 125 125 123 128 125 127 120 119 120 114 108 111 109 105 103 102 103 99 99 98 97 92 89 85 87 86 84 83 81 79 84 81 81 82 84 82 77 81 85 84 92 103 94 107 117 130 146 151 163 164 163 144 124 99 121 93 81 51 52 78 81 92 99 98 91 106 120 114 97 94 93 95 96 86 94 87 81 91 124 132 154 177 196 183 171 160 152 155 140 129 129 127 125 126 123 128 135 135 129 125 123 120 116 112 112 107 109 107 109 102 103 105 104 98 95 95 96 95 96 95 92 93 91 91 92 90 90 88 85 89 89 98 106 106 105 107 107 121 136 148 161 174 161 155 123 103 109 93 65 45 43 74 80 97 105 108 99 113 121 113 99 101 95 89 89 94 99 101 94 101 118 145 164 183 185 168 172 154 153 142 134 134 131 129 131 131 134 134 134 132 133 132 129 128 119 116 114 110 110 108 109 107 108 104 109 104 105 103 102 103 109 107 103 103 103 105 103 101 98 100 94 97 100 104 115 114 112 110 105 112 128 144 152 173 167 160 132 108 105 92 54 32 29 66 84 101 111 107 111 117 118 112 101 102 99 94 83 95 106 105 95 102 129 146 172 178 171 169 162 151 149 138 139 131 127 133 139 142 138 132 132 128 137 138 132 132 124 123 116 116 114 114 112 110 112 110 113 109 114 110 113 114 116 118 114 112 113 114 109 109 108 110 107 101 106 109 116 121 124 115 113 113 124 139 144 167 173 161 148 114 106 99 67 28 41 57 90 99 107 111 113 111 117 113 101 105 100 80 85 104 112 99 104 128 141 154 181 177 164 161 154 144 151 143 140 132 137 141 146 143 137 135 133 137 138 138 135 129 125 122 121 119 119 120 121 116 118 120 120 119 117 118 122 125 127 129 121 121 122 119 116 115 116 111 110 109 109 110 116 117 128 124 116 114 131 134 142 153 170 164 152 124 108 99 83 36 29 53 83 101 103 110 111 109 117 110 107 101 85 82 98 111 117 100 129 147 151 164 182 171 158 154 151 149 143 141 147 145 149 153 152 145 137 141 142 143 138 138 134 133 130 126 124 121 126 125 130 122 124 125 125 129 128 126 131 132 131 131 126 120 119 116 113 115 118 110 110 110 112 112 115 117 125 128 123 117 124 140 143 153 166 164 152 124 113 99 78 51 21 36 72 102 103 104 115 102 118 114 103 95 83 90 99 117 115 111 137 153 160 171 173 166 161 159 148 146 142 147 155 159 160 163 158 153 151 150 147 149 144 143 139 133 133 132 126 122 126 131 130 129 128 128 131 130 133 134 135 137 133 135 126 121 120 118 119 115 120 117 110 112 111 114 114 119 126 131 132 126 118 144 142 153 169 163 153 129 117 104 71 51 29 38 61 94 105 106 105 104 111 114 102 90 82 90 100 114 115 126 131 157 154 165 165 168 162 157 150 147 147 152 159 158 160 165 168 160 163 159 160 155 153 149 146 138 132 133 125 120 124 130 127 130 126 133 137 131 132 130 128 132 127 129 121 119 114 114 114 114 121 118 115 110 110 113 118 119 128 132 135 138 129 132 148 151 168 166 155 133 123 98 67 52 32 39 57 89 106 111 101 109 109 111 95 83 80 90 99 109 115 129 139 153 141 155 165 167 155 153 146 142 149 150 157 161 166 168 164 159 157 155 157 152 149 145 143 142 139 132 128 124 120 125 126 126 122 124 126 128 131 126 126 128 132 127 122 123 117 117 120 119 122 116 118 113 117 114 122 122 129 134 129 148 149 133 142 150 160 167 142 139 120 110 59 52 29 40 63 79 99 115 108 105 110 107 89 81 82 89 97 116 121 135 150 145 138 149 165 156 148 145 139 141 147 149 155 162 159 153 152 143 141 137 139 135 137 137 138 136 139 130 127 123 116 117 115 113 113 114 121 127 123 125 123 125 127 126 122 127 121 125 125 123 121 113 111 111 110 108 115 119 124 132 135 136 156 154 137 145 154 166 151 134 118 103 56 41 33 39 68 72 94 105 115 97 107 99 94 80 88 94 105 121 128 142 149 138 134 146 154 147 142 141 146 143 150 153 153 150 150 142 138 138 133 130 128 128 123 124 128 128 129 122 117 115 108 105 110 110 111 112 116 119 117 119 121 123 128 127 125 126 123 126 119 116 115 107 105 104 106 106 107 116 118 126 129 133 145 165 151 148 155 161 161 132 125 92 47 41 34 44 57 69 90 102 110 107 105 96 95 77 88 89 109 124 132 141 145 137 126 141 134 141 131 142 142 143 145 143 139 135 130 127 126 113 120 118 116 120 107 110 118 115 113 117 112 111 104 103 110 111 108 110 112 115 108 112 115 117 118 119 120 120 120 117 114 115 113 106 100 102 105 106 105 115 116 125 122 125 141 154 159 152 153 162 156 138 126 95 45 47 33 30 56 70 84 104 105 138 103 85 87 71 87 89 107 118 133 140 140 130 122 128 126 138 140 140 131 135 139 140 129 121 119 114 104 101 100 103 110 114 111 113 114 115 113 115 113 111 109 106 110 111 107 110 108 107 105 106 110 113 115 113 119 114 114 111 111 109 110 105 103 100 105 102 104 111 114 116 122 119 130 145 153 160 158 161 152 137 121 90 48 52 29 21 53 69 81 96 111 137 99 82 78 72 87 94 100 109 129 138 144 133 118 109 114 130 127 119 118 130 133 132 127 123 118 114 106 100 101 105 111 113 113 112 109 114 112 115 117 115 114 111 113 111 109 111 107 108 106 107 107 110 111 111 112 110 106 104 104 103 102 98 101 100 96 105 106 107 113 112 115 116 120 130 149 150 156 157 162 133 118 69 46 63 41 24 47 70 83 84 108 118 100 78 64 76 91 92 99 105 130 153 143 125 100 100 113 128 124 115 122 123 126 127 123 121 118 118 109 108 102 108 114 112 113 108 115 116 117 118 119 117 115 113 114 114 112 107 107 105 107 106 107 106 104 108 106 107 103 102 99 102 96 97 98 102 102 110 108 105 112 110 116 122 124 127 138 147 139 155 151 137 116 72 38 57 54 30 43 67 88 82 105 98 91 74 61 79 89 88 95 106 150 141 127 109 95 99 117 136 126 123 133 133 132 132 127 124 121 119 111 109 103 119 122 125 124 121 122 124 120 123 120 120 117 118 115 116 114 110 110 110 108 109 111 111 106 107 108 104 106 98 100 102 101 101 97 100 106 115 118 125 120 122 123 123 134 139 137 156 140 152 153 132 99 66 44 55 55 41 41 71 86 84 96 77 78 73 52 79 83 85 103 126 141 128 103 103 104 113 141 148 141 140 156 154 150 151 151 147 144 145 140 132 129 138 140 138 136 137 133 133 129 124 120 120 117 120 117 119 119 114 113 114 113 117 119 119 117 113 114 110 108 101 104 105 103 107 112 112 117 123 125 140 143 145 143 130 135 142 147 158 140 138 145 140 89 60 50 56 57 45 55 67 84 88 91 59 81 68 60 67 58 94 107 126 118 110 110 103 104 112 140 130 117 123 117 127 133 137 136 142 144 147 145 144 148 149 151 149 149 150 145 145 144 136 137 131 132 131 133 129 122 125 126 119 125 122 122 121 118 120 121 118 115 111 113 108 105 114 124 132 131 137 142 141 141 154 159 154 146 150 154 167 147 134 135 130 82 57 53 53 66 48 55 69 81 89 92 65 82 76 69 57 62 89 97 127 116 109 106 91 98 119 158 150 147 149 143 148 157 157 153 155 148 145 151 149 154 154 159 158 157 157 155 155 154 151 150 147 146 157 160 154 146 141 146 140 139 137 130 123 121 127 127 127 125 123 121 113 114 130 130 136 137 146 152 150 147 151 155 161 154 156 157 168 155 133 134 126 70 44 55 52 65 54 58 72 85 90 96 80 85 70 58 70 79 89 94 128 124 123 100 113 122 138 161 151 143 135 135 141 151 155 153 152 145 148 146 146 154 152 154 162 164 159 158 158 158 153 155 152 151 154 158 157 149 151 145 144 144 145 136 127 122 123 122 123 119 117 121 121 115 133 129 136 143 149 162 167 159 160 166 158 152 156 148 159 152 127 129 126 77 48 42 43 58 60 57 68 88 89 96 102 81 66 66 65 84 94 96 113 136 122 108 130 137 139 162 141 132 124 141 139 146 149 144 134 135 123 126 121 134 132 125 136 150 155 162 152 156 141 143 142 139 145 154 159 155 158 149 148 143 151 148 136 123 122 120 114 116 117 116 122 126 125 127 135 141 144 146 152 154 153 172 170 159 164 156 161 157 130 120 103 56 42 37 29 50 53 55 74 70 89 99 115 68 63 61 63 84 100 114 124 131 119 125 136 143 159 168 150 131 133 131 123 131 128 116 114 128 122 119 111 123 117 112 127 137 140 146 130 130 129 130 133 134 143 157 162 151 158 157 149 149 148 143 136 118 119 123 120 121 117 109 121 115 108 117 122 116 124 134 142 128 137 149 164 153 154 158 151 163 153 132 103 37 23 24 34 36 42 49 69 67 84 102 118 71 68 53 33 85 95 114 124 120 115 118 137 156 172 173 143 135 134 134 109 118 123 98 84 98 97 96 87 96 99 89 103 123 124 124 119 117 119 117 126 126 142 154 157 148 158 164 159 153 151 150 142 116 113 114 121 113 100 110 109 94 87 103 105 98 103 105 113 117 111 137 157 154 157 150 136 153 150 125 106 30 8 16 29 27 32 41 69 85 93 101 109 88 77 34 7 71 92 111 124 119 114 107 135 146 169 167 123 129 120 107 117 109 92 76 73 77 88 87 69 84 85 79 79 100 113 100 96 96 97 106 117 119 120 122 122 126 134 147 156 150 150 145 141 111 102 106 116 106 94 103 85 102 95 102 108 100 99 98 90 98 105 112 130 156 150 151 147 149 143 132 98 24 17 4 21 32 26 47 61 71 95 99 96 87 80 24 19 65 92 110 133 110 107 106 133 163 169 157 132 136 122 103 111 104 73 63 72 83 90 75 61 60 63 67 74 89 96 74 72 68 66 83 93 98 107 120 118 122 124 133 149 149 126 128 133 114 96 101 102 103 91 81 77 78 92 103 88 99 101 99 93 92 106 98 114 144 156 142 146 158 155 128 110 21 0 16 25 28 24 52 66 75 111 87 85 70 97 52 40 62 93 95 125 104 97 96 125 158 157 148 124 133 112 105 105 80 53 46 47 68 68 60 56 58 58 50 65 74 62 47 50 42 52 67 74 89 107 128 118 110 122 129 140 137 116 109 101 89 77 86 83 85 84 75 72 72 76 81 84 90 89 110 110 92 107 94 104 133 148 146 150 160 162 143 102 29 3 29 22 24 35 51 77 96 109 91 93 55 97 85 69 53 108 79 116 119 85 91 109 135 147 141 125 127 122 114 106 72 62 43 51 43 44 44 53 47 40 43 47 56 49 30 35 33 51 47 59 80 111 130 118 111 119 131 130 122 110 85 77 74 82 77 66 81 65 75 73 64 71 65 69 87 94 106 109 119 106 99 113 142 145 125 158 172 157 141 98 30 8 25 32 48 64 64 70 111 97 101 104 58 69 94 71 66 109 79 102 119 89 95 107 123 137 128 131 142 120 100 110 85 67 47 47 49 36 43 33 34 34 36 44 51 43 28 36 30 48 47 62 84 106 119 113 106 117 127 124 109 100 74 66 63 66 77 68 70 54 52 54 50 66 73 82 93 98 101 106 113 112 104 123 137 143 115 152 179 168 140 100 31 11 23 47 68 88 80 81 123 109 104 111 52 49 94 108 101 140 95 95 115 94 95 119 123 125 122 132 131 100 98 99 86 74 62 61 64 63 62 43 48 49 60 60 56 44 46 45 38 46 55 66 86 96 108 113 114 118 123 111 92 84 70 56 48 62 76 75 58 52 45 37 37 59 62 67 79 88 93 95 108 111 110 117 136 144 122 152 172 164 130 89 44 26 29 49 60 79 70 88 130 115 120 120 55 45 116 125 125 150 114 99 97 105 99 120 129 132 142 127 117 92 85 91 78 78 63 57 71 83 79 75 65 67 74 70 61 69 61 54 46 54 60 86 90 92 103 107 123 112 116 113 90 81 61 50 53 53 70 79 73 55 55 49 47 36 64 60 76 92 100 100 107 110 116 126 134 146 143 157 162 163 120 97 53 35 34 49 52 86 73 98 137 105 119 131 58 55 116 116 123 121 150 105 91 118 114 121 129 136 139 121 116 85 80 86 73 64 58 56 55 58 57 58 65 82 87 88 85 79 79 64 64 70 69 82 89 101 115 120 138 126 115 109 104 79 67 64 59 73 77 75 72 60 62 74 61 42 47 70 79 101 104 105 102 106 113 125 128 141 134 144 155 151 132 93 61 22 27 70 71 94 83 113 149 95 106 138 68 65 115 111 105 93 146 135 87 128 108 130 136 142 135 117 118 91 81 84 70 56 50 50 48 45 54 52 66 81 87 79 83 80 83 70 83 88 80 88 103 115 119 136 133 134 127 112 108 85 80 72 66 79 82 79 81 79 60 75 78 71 61 72 68 87 97 99 97 99 111 121 127 133 118 129 151 147 141 90 63 19 31 75 92 119 83 115 134 92 98 139 84 60 104 97 90 63 113 143 91 135 124 127 152 133 132 116 123 96 74 90 68 56 47 46 52 49 56 57 67 81 86 82 79 78 69 86 84 84 71 89 103 130 126 135 129 141 134 123 110 104 87 79 72 86 95 89 91 97 79 67 81 73 65 64 65 75 85 88 93 98 112 114 120 132 121 139 158 148 125 100 69 22 40 87 125 124 108 130 117 98 94 137 96 64 77 85 73 53 80 104 117 148 131 130 157 139 125 112 117 111 80 88 80 56 49 51 52 59 53 61 74 85 91 86 76 72 86 88 74 74 66 93 111 121 124 127 125 139 138 119 102 109 99 85 81 91 96 97 97 94 90 77 82 80 74 81 75 71 85 84 91 98 118 111 121 134 136 141 150 139 132 100 69 32 44 122 143 144 135 124 106 100 87 134 90 49 61 79 72 75 76 88 118 161 141 117 151 142 123 111 107 118 92 83 97 74 56 55 53 59 61 74 86 98 98 79 71 89 83 75 81 68 75 90 105 119 120 124 133 133 138 109 93 101 105 89 88 100 101 93 101 101 99 100 93 100 98 92 98 88 93 88 91 110 112 106 124 126 134 135 147 135 134 87 57 55 65 123 144 176 150 103 100 104 80 127 95 43 42 77 66 92 105 84 135 139 152 135 134 136 131 119 110 115 102 90 94 84 74 70 67 65 75 86 92 89 78 81 86 87 75 77 73 75 78 106 112 110 117 127 131 126 120 100 100 99 111 104 104 108 112 95 100 91 96 95 101 98 107 104 104 101 103 98 100 109 105 113 125 126 136 134 143 134 128 85 73 59 59 116 140 181 133 91 97 101 81 133 96 48 45 70 70 89 125 123 129 155 131 122 136 138 124 121 118 110 108 88 84 84 71 74 77 79 85 87 89 83 78 85 86 77 88 78 81 87 104 115 132 123 130 128 126 116 111 92 97 100 105 107 106 112 115 103 94 96 88 91 93 96 102 104 98 99 95 87 98 103 97 115 124 131 131 127 136 130 121 95 79 50 74 107 152 168 115 102 91 104 85 130 94 71 58 66 76 96 120 153 153 150 132 116 117 134 131 122 112 109 106 92 79 81 83 78 78 79 92 85 80 79 83 85 74 78 85 79 88 110 119 126 134 137 127 126 126 124 110 103 104 108 99 99 96 113 112 102 101 94 90 93 87 95 101 101 92 90 90 86 97 104 105 121 129 134 131 127 138 131 117 99 79 78 82 115 164 147 106 94 97 97 86 112 93 82 82 63 54 100 128 168 174 160 144 118 123 119 117 116 112 94 91 90 84 78 91 84 80 82 88 87 84 82 81 80 82 81 89 84 103 122 126 139 143 146 134 124 124 120 115 100 99 106 95 89 92 105 99 103 97 91 95 95 91 93 98 108 105 93 90 101 96 102 113 109 128 134 129 135 133 137 107 101 101 100 97 122 162 136 105 99 90 92 82 88 77 74 88 60 55 88 131 158 180 158 155 149 132 132 119 119 116 105 97 85 80 85 81 80 78 89 97 97 96 88 87 85 88 85 87 94 120 128 141 148 145 143 135 129 122 120 113 102 95 92 91 90 85 94 87 102 97 90 92 106 103 102 105 102 109 110 105 102 101 107 118 115 124 130 127 123 134 130 118 112 115 126 123 127 151 121 110 94 97 88 77 76 71 83 88 67 73 63 132 140 153 160 148 153 140 145 138 115 116 109 98 88 83 86 85 80 80 86 93 100 102 99 92 97 95 92 102 112 128 140 146 155 153 146 139 136 122 130 125 112 103 97 98 92 102 98 86 98 100 97 95 98 104 108 104 107 109 116 112 119 113 116 126 135 125 125 130 132 139 129 122 146 143 112 120 139 129 117 108 96 82 80 79 83 78 81 101 66 80 75 132 131 133 140 134 159 141 148 137 125 117 101 106 91 87 84 85 89 92 105 114 117 114 109 106 108 107 106 127 136 142 145 149 159 157 152 148 148 141 143 139 126 115 104 100 100 112 117 116 124 115 114 113 107 106 111 122 120 117 121 119 114 118 127 126 131 128 122 122 130 139 120 122 150 123 119 126 150 121 116 109 93 78 81 72 81 98 80 103 68 65 76 105 115 122 134 121 147 135 140 143 132 121 113 100 92 90 85 85 95 101 110 122 127 123 122 124 122 121 125 135 147 149 147 157 165 161 149 150 159 164 150 145 131 120 112 108 99 102 120 126 136 138 132 133 120 114 119 125 130 130 129 129 125 129 132 130 134 133 127 134 147 124 113 133 138 129 132 141 165 123 111 104 90 77 75 68 94 103 80 105 76 55 67 70 109 120 142 129 149 136 136 140 134 122 121 108 98 96 89 85 101 111 112 125 131 133 129 124 120 125 133 146 153 145 149 149 154 161 160 165 171 169 161 154 139 120 121 115 109 100 121 141 153 146 146 141 132 126 126 134 140 137 139 139 134 131 129 135 136 131 139 143 147 122 106 141 159 148 146 157 161 129 104 99 90 76 71 70 119 102 96 107 74 47 57 68 88 107 135 129 137 137 137 137 131 127 120 106 98 95 90 86 91 106 120 130 134 132 129 124 127 131 145 142 139 141 143 146 145 159 164 169 173 176 177 164 152 132 130 124 110 119 141 156 158 152 160 156 146 135 130 137 144 143 147 141 138 133 130 134 146 141 139 138 136 119 115 147 169 147 165 171 160 121 94 90 93 73 68 75 120 110 115 107 81 41 39 74 93 99 130 130 127 133 130 131 128 117 109 97 88 84 91 82 84 92 110 117 119 118 119 118 126 137 149 133 126 137 139 141 141 153 149 157 161 166 171 167 157 146 143 142 130 140 149 158 155 154 157 153 150 133 131 136 149 146 146 145 148 141 138 139 152 147 141 147 141 128 132 153 162 161 172 175 164 95 87 84 90 72 69 74 117 115 140 122 101 47 30 77 92 100 124 122 130 129 128 128 124 113 107 99 90 83 89 84 85 92 96 98 102 108 108 112 115 120 126 116 108 123 131 131 133 137 139 147 143 143 151 152 149 144 147 149 138 138 142 151 157 156 156 152 148 132 131 144 145 150 136 136 141 137 137 138 146 150 150 151 143 140 143 156 159 163 171 180 141 83 78 79 89 71 69 73 109 125 148 134 116 67 43 69 86 99 117 117 134 133 127 126 120 106 101 96 92 89 83 78 76 77 78 82 91 97 97 101 105 103 99 94 96 102 112 113 111 103 109 123 122 123 129 135 132 136 147 156 150 138 140 140 152 149 150 151 145 129 129 133 128 142 133 123 132 130 131 137 143 151 148 151 140 151 152 147 147 163 154 157 122 91 79 86 89 70 73 73 108 123 146 150 127 92 45 54 62 83 129 119 122 133 133 128 118 108 97 95 85 81 76 65 70 63 62 66 76 87 80 91 103 107 92 83 84 85 91 89 85 81 89 102 110 116 120 126 131 133 139 149 149 148 141 142 149 143 139 145 136 130 122 116 114 121 120 117 123 129 127 126 141 143 144 146 138 149 152 148 137 143 145 142 110 88 89 93 81 72 72 73 102 122 134 148 151 102 68 48 47 66 138 128 109 127 136 128 119 106 98 90 84 75 70 62 63 53 52 58 67 79 79 79 98 95 81 74 71 81 86 82 69 69 65 81 96 104 105 104 110 118 120 129 130 136 129 131 143 134 123 120 115 108 105 101 102 106 112 114 113 117 126 121 133 137 136 135 130 142 135 126 122 129 141 121 110 94 88 92 85 77 67 72 108 118 127 138 155 102 76 56 46 59 130 128 106 125 137 130 113 106 100 90 89 78 68 65 61 52 52 52 58 73 75 78 83 80 82 74 68 75 72 77 74 73 66 80 86 92 89 90 100 99 100 105 102 103 105 113 127 123 120 110 102 95 93 93 91 104 114 113 113 112 116 114 132 131 133 122 122 122 115 106 105 109 106 83 109 104 84 88 87 74 67 81 109 118 120 133 139 118 92 67 51 67 124 118 102 125 146 128 115 102 94 91 84 65 63 62 57 55 53 53 53 62 62 75 77 76 83 71 67 62 60 68 79 82 78 87 87 86 78 81 86 86 85 90 94 90 93 100 114 114 116 104 99 88 89 85 87 105 108 108 112 113 110 115 129 127 126 117 111 104 101 96 85 92 78 74 99 100 79 90 90 73 64 74 108 114 121 133 139 124 118 97 73 73 124 117 106 126 150 131 113 104 94 89 77 64 65 63 59 53 53 56 54 59 57 59 70 65 74 66 64 49 51 58 77 82 89 89 87 84 73 68 65 71 79 80 85 84 78 85 97 97 101 93 94 89 89 83 79 99 96 100 104 111 107 109 127 118 121 113 110 92 88 88 78 87 73 85 97 91 82 88 78 72 67 69 116 111 119 134 138 126 122 133 103 88 126 126 112 135 159 136 120 107 93 89 74 72 65 62 59 51 51 57 59 55 51 52 62 65 66 64 58 58 51 54 66 75 82 79 73 71 66 59 59 54 64 65 69 70 76 84 93 89 85 76 81 79 81 82 76 87 93 94 98 108 105 103 119 112 102 104 112 85 75 75 69 74 72 96 100 82 86 73 71 75 66 69 119 112 114 130 135 131 123 129 146 110 153 143 138 156 161 138 134 109 97 88 75 66 58 59 50 52 51 53 55 51 46 48 53 53 52 52 49 55 49 58 75 81 87 84 72 67 63 61 62 58 55 57 62 63 68 74 85 95 86 73 67 68 72 73 75 81 84 87 91 93 98 106 114 106 94 96 101 72 70 61 63 73 82 94 97 86 77 70 72 68 65 67 114 108 115 130 130 128 126 123 166 146 153 160 159 165 162 147 137 113 96 88 67 58 54 57 54 43 40 38 36 40 39 33 35 37 42 46 46 41 53 66 72 71 73 74 69 64 60 60 59 58 52 55 62 71 81 90 92 94 90 74 70 56 61 66 70 80 74 94 86 89 100 104 111 105 92 97 88 56 68 57 59 68 79 83 83 67 62 71 76 69 64 67 109 105 115 121 125 125 126 125 161 176 162 172 157 176 161 150 142 116 98 86 58 48 51 49 50 40 35 31 38 42 36 34 33 42 36 43 47 51 59 54 57 51 51 55 54 52 48 47 56 55 55 62 63 78 94 99 99 95 91 86 87 73 69 80 77 82 81 91 90 94 102 109 118 102 92 95 75 55 66 57 62 64 73 67 59 60 60 76 75 72 63 66 103 108 113 121 118 125 123 125 142 176 168 183 176 192 166 150 137 109 95 78 53 47 42 40 36 35 37 42 49 42 40 44 38 52 59 54 54 61 61 55 40 41 44 47 55 54 41 45 49 45 51 57 66 89 101 103 105 104 99 99 101 91 91 95 86 90 95 102 92 95 108 111 116 102 97 91 65 60 69 63 69 65 61 56 56 60 65 83 78 69 68 68 104 107 108 118 122 121 123 126 136 171 170 189 193 195 183 147 133 109 92 73 57 57 52 51 50 47 46 45 45 44 40 48 42 58 68 69 63 66 71 67 60 49 55 53 53 62 51 50 64 57 64 74 70 88 101 108 107 114 109 108 120 117 117 115 109 117 116 115 96 107 120 119 112 107 97 89 70 64 74 65 64 68 52 55 56 60 72 89 79 71 65 70 111 105 108 116 123 122 122 125 133 156 171 178 192 189 191 143 135 112 91 78 61 65 68 68 75 74 70 66 61 70 66 77 64 72 79 90 91 88 74 74 76 67 63 54 55 57 57 72 82 80 92 102 99 104 124 130 130 130 123 129 128 135 131 130 121 128 126 121 108 125 124 126 113 118 102 80 66 69 76 58 55 64 54 55 60 63 74 96 84 72 70 67 111 108 109 114 118 117 121 116 127 135 165 162 186 190 190 151 136 112 94 88 72 73 79 80 93 99 101 80 83 92 99 105 100 99 91 99 93 82 84 88 87 85 91 81 69 70 72 79 87 86 103 120 124 133 152 152 146 153 149 149 143 146 138 140 134 123 127 125 125 132 129 128 114 116 102 78 65 65 69 57 53 63 57 56 58 66 78 95 90 73 76 67 108 112 109 110 112 115 117 105 119 122 144 157 169 184 186 177 141 116 104 99 77 90 91 102 111 112 114 100 92 97 102 107 105 105 87 87 88 87 92 85 86 94 104 107 88 92 101 114 120 118 127 138 145 146 157 155 151 161 165 167 164 157 150 137 142 124 129 118 121 126 130 119 121 108 90 74 65 62 61 54 46 64 66 62 56 70 82 91 93 79 75 67 105 107 110 108 106 114 95 94 117 114 120 147 153 174 175 197 155 134 113 102 88 101 97 105 108 110 112 101 95 82 79 81 70 66 56 56 51 54 70 51 61 65 67 73 65 73 85 83 91 100 108 117 120 116 122 137 142 148 148 150 138 130 126 126 124 126 124 112 118 125 133 121 119 103 79 76 59 61 56 47 47 62 69 65 63 73 79 85 89 84 73 69 102 104 106 108 110 92 77 97 117 117 113 134 140 156 168 198 180 147 128 110 105 111 105 117 113 111 109 108 101 90 83 62 60 61 62 54 54 49 57 50 55 53 50 62 55 48 59 49 61 80 83 100 95 93 98 112 124 120 120 123 116 117 126 125 126 123 120 108 116 128 128 119 112 88 70 76 57 64 53 45 48 64 67 61 71 78 71 80 89 78 73 67 107 107 106 111 99 65 83 98 115 119 114 128 134 138 164 191 198 158 132 124 119 124 115 121 124 112 109 104 102 88 79 68 62 62 62 63 67 68 79 79 81 73 69 77 82 73 77 67 77 82 93 94 93 95 110 114 119 119 123 128 127 128 130 128 130 125 112 112 124 126 118 112 97 77 72 65 53 63 47 47 49 69 65 63 78 75 70 73 85 85 70 69 102 106 106 104 72 65 82 97 114 125 114 130 133 130 155 186 204 183 139 134 133 136 124 130 133 122 116 108 110 95 79 81 75 72 67 66 73 80 86 88 100 92 98 100 99 92 102 97 103 105 108 115 123 123 134 135 132 139 141 143 143 139 135 133 128 123 114 118 119 120 113 102 92 68 82 64 56 60 50 49 57 71 66 68 83 72 67 72 81 85 71 69 98 105 106 75 63 64 81 96 112 127 114 135 132 127 149 181 211 195 154 140 147 137 130 136 127 128 122 121 120 107 98 95 96 101 97 92 98 103 110 116 118 119 120 123 119 112 121 121 125 132 134 134 141 145 155 158 158 164 165 157 154 148 149 139 130 121 118 112 115 112 109 98 86 68 85 61 62 56 53 54 62 71 70 77 82 71 69 74 84 86 77 64 99 104 82 62 58 64 84 89 108 127 111 136 138 125 146 184 214 206 176 148 141 148 136 133 125 123 121 127 118 107 106 103 107 109 117 123 124 133 137 145 146 151 150 151 148 147 146 146 152 149 145 148 150 159 165 165 163 170 168 165 159 147 144 136 125 115 115 114 113 114 101 97 77 73 91 68 68 57 60 60 68 67 71 83 77 68 75 70 83 91 79 68 101 83 64 61 54 71 81 87 100 123 119 135 140 127 147 175 204 210 187 167 143 147 144 131 132 124 124 123 117 101 97 108 112 122 124 126 135 145 154 158 166 169 164 163 159 157 157 161 165 162 162 162 161 167 171 178 166 169 165 169 158 148 139 126 119 108 111 114 111 110 93 94 78 98 93 75 66 68 66 68 77 67 64 76 79 72 75 71 82 87 83 76 81 62 59 59 62 77 76 89 98 125 134 139 146 134 154 168 198 212 200 182 156 150 148 142 128 119 126 119 111 105 97 98 106 115 120 133 136 145 154 159 169 167 172 168 167 169 162 165 171 170 164 168 162 168 170 178 171 164 163 157 147 138 129 116 111 106 109 108 108 102 91 98 90 114 99 75 68 75 76 78 83 81 60 63 79 74 79 72 81 86 85 82 59 61 60 62 72 77 73 93 105 120 145 152 150 144 159 168 191 204 205 186 171 153 155 147 139 125 125 121 112 112 106 92 90 101 107 127 131 142 151 152 164 168 171 168 164 166 167 166 168 168 163 170 167 169 166 169 165 157 155 143 142 128 118 105 101 100 100 105 105 95 90 99 109 127 103 77 74 76 79 87 95 86 72 51 71 79 86 75 85 91 91 91 61 64 63 68 80 74 76 99 117 118 149 170 163 149 165 173 191 194 198 188 175 169 154 161 148 135 126 118 120 108 101 92 87 96 103 118 121 133 143 148 155 151 158 160 155 157 152 154 157 160 155 158 156 154 156 151 146 140 141 126 125 118 98 93 95 96 93 107 102 91 95 114 117 134 105 86 80 77 86 94 99 88 78 56 61 78 87 80 90 94 95 94 66 68 66 73 85 78 83 104 121 120 151 181 168 152 169 178 196 191 201 186 181 180 169 170 159 153 141 130 128 118 100 95 91 89 98 110 115 119 129 125 123 118 130 130 130 134 131 133 135 139 134 130 130 130 130 128 127 126 123 113 107 104 84 85 89 89 91 99 103 96 106 135 127 140 104 96 92 80 92 100 102 81 78 63 57 63 79 85 90 91 95 95 72 72 68 83 91 84 99 107 122 120 149 178 173 153 170 191 203 191 198 184 185 191 178 179 175 170 164 148 142 134 112 108 99 97 98 109 116 123 122 116 110 104 111 105 105 111 112 111 114 110 115 110 109 106 105 112 111 105 101 93 87 83 80 77 81 86 96 96 101 101 129 140 145 139 111 99 101 87 93 107 106 76 73 69 62 55 65 84 94 93 92 93 76 73 72 90 100 90 103 105 125 122 151 183 169 151 169 196 215 191 194 185 179 188 181 195 183 181 182 170 157 153 138 128 121 115 114 113 125 124 127 115 113 109 111 109 104 105 104 98 100 101 100 98 92 89 93 95 90 84 83 75 69 70 71 71 76 89 94 104 114 120 148 157 152 139 115 106 101 96 104 108 104 72 68 73 66 61 53 78 96 102 93 93 77 78 79 97 105 96 100 105 131 131 153 185 169 152 169 200 233 197 195 189 179 178 183 191 200 186 190 181 168 164 159 147 146 134 130 131 126 132 126 120 115 117 112 114 104 103 96 88 87 90 88 86 81 76 77 78 80 72 69 62 64 69 70 65 80 92 97 114 124 134 165 167 162 143 124 115 98 105 113 111 101 76 77 79 78 64 56 65 87 102 98 97 79 85 91 106 112 104 103 107 136 131 165 175 168 155 173 199 238 211 200 193 182 172 175 198 202 198 191 187 178 175 169 159 164 153 143 137 129 135 134 126 120 120 108 114 113 103 95 87 85 85 83 78 71 69 72 69 73 58 59 57 60 65 70 75 80 93 116 126 138 146 170 174 166 151 135 130 101 117 119 108 105 85 79 90 88 66 55 69 67 86 85 94 87 91 103 115 115 105 102 113 139 136 167 171 158 177 171 199 221 210 212 193 179 174 161 186 203 193 198 189 181 175 171 164 165 157 147 142 139 136 134 130 128 122 110 116 112 108 100 90 91 85 79 71 71 66 63 64 59 49 53 53 62 66 75 82 92 105 128 133 146 151 175 173 169 159 143 127 109 126 120 106 97 90 77 86 83 67 54 63 64 71 74 75 92 97 115 121 112 103 102 119 142 139 158 156 166 179 187 210 205 210 226 188 184 178 159 178 199 187 185 189 186 181 171 167 165 158 147 141 132 130 130 132 128 115 118 110 115 109 100 95 90 86 85 79 78 73 68 60 53 48 49 57 67 78 87 89 110 122 126 146 154 161 183 189 186 163 140 126 126 134 127 107 95 91 78 82 81 72 61 57 68 60 69 71 97 102 123 121 113 109 96 122 135 141 153 150 178 179 198 209 214 196 217 205 185 176 164 166 182 187 177 172 181 175 166 167 165 156 145 137 127 120 124 129 127 114 120 110 119 112 103 98 94 93 86 85 78 78 74 62 58 57 59 64 79 93 102 106 126 133 137 147 162 166 187 195 189 161 142 137 147 145 133 109 102 96 83 81 83 79 70 63 65 67 64 72 103 109 130 116 117 105 95 125 132 142 138 145 188 172 188 224 213 194 202 194 188 181 169 162 157 174 171 164 165 166 161 156 152 149 148 133 128 119 120 123 127 116 117 110 110 106 99 99 99 94 83 92 81 82 76 66 65 72 73 86 102 113 117 127 142 151 146 156 157 173 193 183 173 158 147 154 161 145 124 115 110 105 92 80 84 86 78 71 66 76 73 74 114 119 134 114 117 107 102 129 131 136 101 155 180 162 200 231 211 202 202 175 181 191 168 154 147 155 158 151 150 154 148 148 142 140 139 131 129 121 120 116 120 121 116 116 112 106 104 97 92 96 95 91 89 86 85 74 78 88 93 108 135 129 135 143 160 163 156 162 155 162 194 177 164 154 161 174 173 145 123 119 110 114 105 91 90 90 87 75 69 77 74 64 121 130 132 119 126 119 113 121 123 116 105 163 161 176 208 234 213 216 203 160 169 191 171 139 156 152 138 145 141 143 135 134 135 131 126 123 124 120 121 119 115 118 121 118 116 106 105 101 93 97 98 100 99 95 94 96 92 99 117 141 151 148 149 169 175 168 167 168 159 156 183 178 159 139 179 189 184 156 118 125 119 117 104 106 101 94 94 78 66 62 65 52 129 137 133 124 125 115 106 113 109 112 120 174 173 201 209 235 224 220 209 163 166 181 162 149 151 158 140 129 132 136 131 125 121 123 116 112 110 105 112 110 111 117 110 114 110 108 106 112 110 109 114 113 110 112 104 110 111 128 151 161 163 161 168 185 181 170 166 175 159 147 161 174 153 155 177 185 187 165 117 118 124 126 109 105 114 116 111 87 66 53 64 54 136 142 132 124 118 109 99 100 100 118 134 168 189 197 215 241 225 208 213 179 161 162 152 150 161 166 150 141 123 126 128 118 117 116 119 109 112 103 101 98 102 104 102 103 108 112 115 119 124 124 119 121 121 117 117 122 137 157 162 169 166 172 179 193 177 165 168 175 145 171 164 151 154 160 184 178 174 169 124 120 119 134 126 108 118 129 128 104 77 60 64 66 136 137 118 103 105 97 96 103 109 122 138 166 194 207 228 250 223 213 208 200 165 154 142 138 152 175 166 154 142 126 121 117 111 109 107 110 111 109 111 107 102 100 100 102 103 104 110 112 117 121 114 122 124 125 129 144 157 167 169 177 178 182 188 189 166 166 177 166 143 173 178 158 158 166 181 175 160 170 143 133 116 131 142 120 124 132 126 113 80 66 72 76 126 115 97 104 98 98 97 100 99 125 134 179 199 220 227 255 229 225 206 195 181 156 139 129 136 162 174 172 163 147 129 128 119 116 114 117 113 112 112 117 115 109 108 105 110 107 106 112 115 121 120 126 133 143 152 157 164 170 174 185 187 185 188 179 169 177 179 161 157 175 170 155 165 168 184 171 170 167 160 152 116 125 144 141 131 128 126 118 95 65 64 81 