P2
92
112
255
147 147 146 145 144 142 138 140 143 139 135 140 139 143 145 140 138 135 126 117 112 108 106 106 111 111 114 119 121 122 121 124 138 142 139 137 137 138 138 141 136 133 133 140 139 134 141 150 147 146 139 140 129 129 118 108 96 90 75 72 76 70 71 75 77 81 88 95 95 93 96 97 100 110 113 115 114 121 121 122 123 123 121 120 118 119 120 121 125 120 125 128 148 146 147 147 145 140 140 143 142 138 137 141 144 141 143 138 135 128 119 112 108 101 103 108 105 113 112 116 122 125 131 134 147 148 144 148 151 152 154 160 166 165 175 182 175 168 159 157 167 169 165 150 144 140 137 125 117 108 101 84 84 78 78 73 72 75 73 74 83 87 91 89 94 100 105 118 113 115 122 119 123 125 124 123 122 120 119 120 126 122 122 124 146 146 147 146 146 141 145 141 138 139 141 144 141 146 141 135 132 121 110 106 105 102 108 103 103 114 116 126 138 142 143 148 154 161 172 180 185 187 192 194 201 203 212 212 209 204 194 195 193 185 172 166 156 140 145 136 129 124 121 103 86 79 83 86 77 76 74 69 67 73 78 86 90 93 96 110 113 111 113 123 124 125 125 126 125 123 122 119 121 126 122 122 147 144 147 146 142 145 145 143 136 137 139 143 141 138 133 127 121 111 103 103 102 92 92 98 113 125 133 137 141 152 162 172 183 199 203 206 215 223 218 218 224 224 227 224 221 213 218 214 192 188 183 184 166 156 155 153 141 138 127 117 108 99 91 87 83 83 81 79 74 72 70 73 81 80 91 99 106 108 112 117 124 123 127 128 127 124 124 121 119 125 126 123 145 146 146 145 143 143 142 143 139 140 139 143 136 126 120 114 111 104 98 90 82 84 94 113 124 126 137 141 148 166 180 199 211 217 220 217 221 228 227 234 227 222 230 226 219 228 231 227 224 213 205 205 194 183 175 168 160 150 146 130 123 122 111 106 105 94 82 86 85 77 75 69 72 71 78 89 97 101 105 113 118 119 120 128 129 128 124 124 119 122 128 125 147 146 146 146 148 146 142 142 140 143 135 130 122 115 111 109 99 96 89 76 77 84 105 111 115 124 143 155 168 188 208 225 224 236 239 237 242 241 238 245 244 235 233 236 232 232 238 239 236 231 219 218 208 204 192 184 177 162 155 147 146 140 132 128 127 126 117 105 91 87 81 77 72 72 76 81 88 95 101 104 111 120 122 123 126 130 130 126 123 121 124 130 144 145 145 146 148 148 144 138 137 137 131 118 116 111 109 101 96 81 71 64 74 83 96 100 110 126 150 167 181 194 214 231 224 235 246 238 245 245 250 247 255 252 242 247 244 238 235 235 234 232 230 227 220 216 206 197 193 173 166 163 152 153 150 150 139 142 139 127 107 97 98 93 81 80 81 80 88 95 99 104 105 115 119 121 123 127 131 131 127 124 122 127 144 146 145 147 146 147 140 140 137 127 123 116 110 106 100 92 91 73 67 69 75 82 92 90 105 125 144 168 189 198 215 223 223 238 239 234 233 235 235 231 243 244 234 235 231 232 227 225 225 222 220 221 213 210 209 209 195 188 178 170 158 151 156 145 146 139 139 137 128 105 102 102 102 96 95 90 84 91 97 101 110 112 112 119 124 125 129 134 132 128 124 125 143 145 144 147 144 143 140 139 131 121 114 112 106 96 89 89 83 78 76 76 78 78 89 95 110 126 145 164 177 187 202 211 215 222 230 222 233 230 229 221 216 212 213 208 200 206 206 204 205 195 202 199 198 200 190 192 180 177 169 164 150 132 130 136 126 124 129 131 124 117 105 109 113 111 107 100 95 95 96 94 104 113 115 116 121 126 124 130 134 133 128 125 146 144 144 146 144 142 143 137 124 116 111 107 98 89 91 77 72 66 64 65 67 78 91 104 114 136 153 166 174 181 197 198 203 211 210 211 217 218 218 212 210 200 194 192 186 192 197 188 188 187 190 192 187 186 184 174 170 161 154 150 143 131 123 126 121 106 114 119 119 125 126 118 118 118 115 108 106 102 100 97 103 109 116 116 122 125 129 128 131 135 130 132 143 145 143 143 144 139 132 126 119 109 110 101 88 89 82 73 57 57 57 61 64 77 96 109 128 144 157 170 168 181 194 196 197 196 193 188 185 182 189 187 182 181 172 180 178 179 173 173 181 181 187 189 183 179 179 166 166 160 145 128 124 122 117 118 114 115 109 117 116 119 131 123 123 122 120 117 107 104 102 105 104 107 113 118 120 123 127 129 130 135 132 134 142 145 143 140 141 133 126 122 117 113 106 97 91 83 77 66 55 56 53 64 77 91 106 114 137 150 162 168 175 182 187 185 182 182 180 175 178 170 175 180 172 168 165 169 167 163 162 169 172 166 174 172 173 164 161 161 152 153 136 131 119 119 117 112 112 105 107 113 112 108 129 131 132 121 117 126 112 110 104 109 113 109 114 116 122 122 122 128 131 135 134 132 140 139 141 143 133 125 121 118 112 110 101 97 85 77 62 57 52 49 62 84 100 109 117 127 142 147 152 160 160 164 156 153 164 166 169 167 180 170 172 175 171 163 161 159 155 154 151 151 155 157 155 159 167 161 153 155 151 140 136 130 124 114 113 107 110 109 101 107 112 112 123 136 142 145 129 127 127 115 120 114 114 113 112 115 119 123 122 122 129 133 134 129 138 140 139 139 130 120 118 115 110 109 96 90 81 64 57 51 47 65 94 103 108 115 124 129 137 141 145 149 148 153 147 158 162 160 162 168 176 169 167 167 159 153 151 158 157 147 151 147 142 145 145 148 154 156 156 149 149 136 131 135 121 118 114 111 109 114 105 99 109 107 120 128 142 141 145 142 144 129 127 125 124 118 116 116 118 123 124 118 123 131 133 129 141 142 135 130 125 116 116 117 108 101 82 78 68 65 52 47 64 92 105 102 109 119 125 133 139 138 135 138 139 148 150 151 158 163 161 167 166 158 158 158 149 147 149 152 148 143 146 143 140 145 141 140 153 155 151 152 150 141 145 137 125 127 119 115 118 119 111 108 104 102 115 117 137 147 149 149 154 146 144 139 134 132 119 114 121 123 126 121 115 122 136 132 138 136 134 125 122 118 121 114 102 90 84 74 68 59 51 66 90 99 109 108 117 121 125 129 134 134 132 138 146 149 153 156 160 163 154 154 156 148 150 152 146 145 147 144 137 141 144 146 143 143 143 149 155 154 159 158 150 151 153 140 135 141 128 121 121 121 120 120 112 100 109 121 130 144 150 142 152 155 152 155 146 138 138 123 118 125 129 123 120 112 130 136 136 139 130 121 119 121 120 107 93 90 86 76 65 51 65 94 106 110 113 116 114 113 120 124 131 127 136 145 144 149 144 147 145 143 141 145 144 141 146 141 141 142 137 138 135 144 144 136 141 140 144 154 149 149 157 158 155 155 155 143 145 148 143 136 136 123 118 124 116 109 99 103 122 128 134 140 147 156 150 161 156 149 154 143 130 121 130 128 124 117 118 130 138 139 125 120 121 121 112 104 90 93 78 82 65 63 90 116 114 114 113 112 109 111 118 123 124 129 132 137 139 131 134 136 130 135 134 136 139 138 135 133 129 127 130 130 132 139 132 136 135 139 152 150 138 147 149 150 154 152 152 150 153 155 147 149 146 134 123 124 122 118 100 102 107 115 130 131 145 146 154 154 165 157 161 152 141 128 123 129 122 122 119 126 137 132 125 118 123 121 110 98 98 97 81 67 64 89 114 122 117 115 117 113 105 117 120 122 126 129 129 130 128 125 120 123 123 126 132 133 132 131 125 124 116 117 122 124 130 128 128 131 128 135 139 137 133 138 143 146 156 153 145 148 156 153 149 148 145 131 133 125 122 118 113 101 98 110 120 132 140 140 150 161 160 166 158 157 150 141 129 128 124 118 121 121 135 129 125 120 118 114 97 109 106 90 73 67 87 118 131 126 119 117 107 106 103 112 113 121 121 122 115 110 110 107 106 119 124 128 130 127 125 116 117 111 107 110 113 116 115 120 118 119 125 130 125 119 130 133 129 141 143 141 149 151 153 151 151 151 142 142 138 127 124 117 117 100 101 110 108 123 133 151 149 176 165 163 165 161 165 150 142 129 128 116 119 119 128 126 121 120 113 117 110 111 100 86 72 80 111 134 128 122 115 109 98 105 109 112 114 115 110 104 99 100 101 104 109 113 126 123 121 117 114 109 111 107 106 104 107 108 105 105 107 110 116 120 113 114 127 116 119 129 133 133 146 150 142 147 154 148 145 146 141 130 120 115 111 107 100 113 103 122 132 147 155 171 187 168 165 168 171 161 150 140 129 123 117 120 123 121 124 118 122 119 118 109 98 84 85 104 136 137 131 114 107 100 99 104 102 103 103 104 100 91 87 93 99 105 108 111 114 114 114 113 109 108 108 108 100 101 98 99 98 102 105 107 113 116 108 116 118 107 112 119 118 124 134 142 136 146 143 146 143 144 144 132 124 116 107 108 103 102 102 113 141 138 158 169 186 188 174 170 181 177 161 151 137 122 118 116 120 120 128 124 121 130 123 114 108 93 97 130 139 140 124 115 100 101 100 104 102 100 103 101 98 86 97 95 98 101 97 96 99 106 103 110 111 113 109 108 103 98 96 98 99 99 100 106 111 106 110 113 107 105 108 108 108 123 124 124 134 140 136 135 139 143 141 137 130 120 106 106 102 99 96 115 140 144 154 182 183 200 189 175 185 185 182 169 145 129 118 113 119 120 129 126 129 142 137 125 113 103 124 143 142 132 112 110 104 104 97 91 95 108 100 98 96 93 101 97 94 95 87 91 96 99 104 104 108 109 109 101 100 97 99 94 99 97 100 104 104 98 109 107 102 105 100 96 105 115 111 116 129 130 130 129 132 136 138 133 134 123 111 109 103 98 92 101 122 146 152 175 190 200 198 184 186 183 186 172 154 143 124 107 117 117 125 129 137 146 138 120 119 123 138 141 137 130 114 115 111 104 83 84 100 99 96 94 93 99 97 95 93 92 88 98 100 104 105 100 103 106 99 100 100 94 99 98 101 96 100 98 95 98 105 96 95 101 90 92 103 101 104 112 120 124 127 128 130 131 133 125 132 121 119 111 103 100 94 93 116 137 155 170 186 193 203 192 198 183 185 181 159 146 133 116 111 108 127 134 140 145 134 126 135 139 138 142 135 120 104 112 96 83 67 83 94 92 92 92 90 90 86 87 92 92 92 94 97 102 96 96 98 93 93 96 97 99 96 97 98 96 98 98 97 103 98 93 94 96 88 89 91 92 103 108 111 114 125 130 128 132 131 128 120 127 117 116 108 96 98 94 107 122 153 165 191 181 216 212 208 193 179 188 157 142 128 121 107 107 127 140 145 146 142 143 158 134 140 137 122 102 102 98 83 70 73 79 84 91 86 84 84 82 86 88 90 91 89 85 89 94 93 94 94 96 96 97 99 101 100 97 102 98 98 99 98 100 99 98 95 91 85 88 90 97 101 101 106 114 123 124 124 129 129 126 124 121 120 120 120 105 100 91 93 120 145 174 179 190 207 224 216 207 180 184 159 137 127 117 105 106 125 143 145 154 159 169 151 133 131 128 115 102 99 88 78 74 76 69 79 80 78 81 79 79 82 84 87 88 87 93 95 94 96 100 102 103 101 104 104 104 106 101 101 100 103 101 102 101 102 101 97 93 88 88 94 98 99 101 106 112 115 121 124 124 129 128 125 124 122 122 128 115 101 95 96 117 133 168 174 191 192 232 234 226 201 170 156 137 127 116 107 110 126 143 142 155 167 172 143 125 127 125 112 94 99 84 73 76 72 75 79 76 72 74 77 83 88 91 92 96 100 104 106 105 106 111 116 114 114 117 115 116 114 109 110 107 109 110 112 111 109 111 108 105 101 102 104 104 102 106 107 108 112 116 122 120 125 126 124 120 123 119 125 119 104 106 102 107 132 159 181 187 196 224 245 223 219 173 156 142 122 121 110 115 131 142 136 164 182 166 136 126 130 115 96 88 91 76 71 73 78 83 83 70 71 78 91 94 96 98 105 111 117 122 120 124 125 128 134 129 127 128 125 125 120 118 118 114 116 118 119 122 122 119 120 116 113 116 118 116 118 121 119 119 117 114 117 121 122 123 122 116 120 124 126 116 114 110 110 108 125 150 181 182 196 211 239 238 230 186 164 148 125 115 112 123 132 138 156 184 185 157 132 124 126 100 92 84 88 76 72 80 90 87 88 87 89 95 104 105 107 113 126 133 136 138 138 143 145 146 147 143 140 138 138 132 128 123 125 122 121 123 127 131 133 135 129 127 126 127 130 131 130 131 131 131 133 129 128 126 123 122 123 116 116 121 127 119 111 113 114 110 124 149 176 185 194 216 228 242 240 203 169 154 134 103 124 123 136 154 175 186 178 148 127 129 119 95 89 85 92 77 75 91 97 106 105 108 107 114 121 125 129 135 145 153 154 156 157 157 160 157 157 153 148 148 148 141 135 130 129 129 127 130 134 143 143 144 145 141 142 144 143 147 143 143 148 146 149 147 145 147 137 129 124 119 114 112 121 129 107 116 113 114 122 147 176 184 188 214 224 227 234 225 179 157 140 110 123 124 130 153 168 179 175 142 136 123 108 100 90 102 95 81 83 98 106 115 117 119 129 136 143 147 146 146 155 159 163 161 167 166 166 167 165 163 160 160 160 154 144 142 138 137 136 142 148 151 155 160 160 159 157 160 157 161 159 158 157 155 158 161 160 163 159 150 136 122 121 114 115 124 120 112 116 112 123 144 175 177 198 211 215 219 222 233 191 154 135 118 124 121 129 158 182 181 168 149 130 115 109 108 107 115 98 90 99 111 120 125 133 132 141 141 142 146 147 156 168 174 179 180 179 180 180 184 184 179 177 172 166 165 161 152 148 150 150 154 154 155 159 164 164 162 166 166 167 169 169 165 159 158 159 161 164 163 170 166 154 144 126 126 114 114 123 122 120 114 124 145 170 183 191 213 209 213 212 230 213 164 134 118 130 123 139 165 180 174 160 147 126 117 112 113 117 120 107 102 112 123 130 133 134 136 139 134 140 153 162 174 182 181 185 182 190 188 190 188 191 185 185 183 175 170 168 166 162 157 160 158 155 160 161 166 172 169 172 174 172 174 173 170 167 164 166 164 168 173 170 170 163 155 149 127 129 118 108 122 131 124 124 139 165 188 192 213 223 218 212 217 225 171 153 124 132 122 149 160 179 171 154 146 129 115 118 122 126 123 121 121 125 125 130 136 135 136 139 140 155 162 174 181 181 183 187 185 186 187 186 184 177 179 179 181 175 174 172 172 164 163 160 161 159 159 164 173 171 175 176 180 177 180 179 179 178 176 174 170 174 179 178 174 170 160 159 148 127 130 114 112 120 127 122 135 160 179 195 210 225 224 216 216 233 192 155 134 123 128 162 171 185 173 164 135 123 122 129 139 131 142 135 135 121 129 138 139 140 140 141 155 164 173 174 178 188 183 184 188 182 192 187 178 177 176 172 173 170 170 165 161 157 162 161 163 165 167 173 177 173 180 177 177 178 179 182 180 177 176 170 171 175 175 175 175 167 165 157 155 131 120 122 121 112 122 119 135 150 173 187 205 216 225 235 208 224 223 160 147 113 134 178 186 190 170 168 132 134 142 146 156 138 153 148 140 125 133 139 141 147 153 153 163 172 175 178 189 192 190 183 177 175 175 173 170 171 170 167 164 163 159 153 150 149 156 158 166 168 171 178 177 171 173 171 168 174 171 173 172 172 168 163 166 167 165 168 169 167 162 158 153 147 120 105 112 110 117 112 137 151 164 179 192 208 226 240 208 209 227 182 145 116 148 188 193 192 164 162 138 145 153 154 146 134 151 154 144 138 144 145 147 158 161 159 170 172 174 171 177 183 179 175 168 162 160 160 166 163 163 162 158 154 151 145 142 147 147 147 154 156 164 168 172 165 164 163 164 168 165 165 163 163 160 163 162 162 161 158 163 164 157 158 153 162 140 112 96 99 115 114 124 147 160 181 193 192 212 235 219 212 224 195 151 123 156 188 207 185 155 156 146 159 156 134 137 147 158 160 137 140 135 144 158 167 167 163 173 172 176 176 173 173 179 175 170 168 165 165 159 158 156 157 158 154 149 140 137 137 141 147 148 152 159 162 159 165 169 164 165 165 168 165 166 164 163 160 160 155 147 140 146 149 146 155 149 148 142 123 109 94 111 121 128 139 146 170 194 191 188 224 230 211 218 197 152 135 154 194 194 163 161 156 158 152 137 136 142 148 152 149 126 130 135 142 157 158 162 164 167 170 175 184 184 180 183 164 160 156 156 159 158 156 157 157 159 156 151 138 134 135 142 149 149 153 158 158 158 162 167 169 167 169 166 166 165 164 162 161 162 161 150 140 134 133 134 142 147 141 136 109 121 94 95 109 121 142 155 162 187 188 194 204 217 215 204 196 146 149 162 189 193 168 172 162 150 126 142 142 141 133 148 133 113 119 120 133 147 148 153 147 151 155 153 158 161 159 161 157 156 158 160 162 163 161 160 161 163 154 147 138 132 128 130 145 155 158 160 157 159 159 163 162 163 164 164 164 161 159 158 153 154 154 142 142 133 134 135 133 147 148 146 123 101 104 86 101 113 132 161 161 176 180 195 202 201 211 207 181 150 159 172 195 184 173 174 155 125 125 159 144 132 129 146 128 113 120 129 146 165 164 157 153 158 154 149 152 147 149 142 145 141 143 142 148 150 147 150 152 150 143 137 139 130 132 134 144 153 155 154 153 153 152 149 147 146 140 139 141 136 138 139 138 132 133 137 135 134 131 142 140 147 149 141 136 99 92 72 81 112 125 158 160 176 180 182 192 198 188 203 169 152 169 192 188 168 163 162 149 139 137 169 154 131 134 142 118 103 105 116 148 159 151 140 139 148 141 137 137 130 125 123 123 122 121 115 118 124 124 121 121 126 121 115 115 108 115 125 134 139 138 136 137 139 132 131 130 125 125 127 127 125 130 126 118 114 115 121 120 128 124 134 135 139 142 133 139 106 84 77 76 101 121 156 164 165 176 182 178 180 168 177 167 146 165 203 198 190 182 162 156 164 149 178 161 135 120 125 96 96 107 124 160 149 140 124 133 137 128 117 113 112 114 105 111 115 117 110 108 112 107 103 86 113 117 112 113 115 110 126 133 138 136 130 124 129 118 118 122 120 119 118 117 116 116 117 106 104 100 101 101 111 117 114 121 125 131 136 137 127 83 76 74 101 115 144 155 166 170 183 169 171 172 163 161 145 150 214 207 215 194 167 163 176 178 188 165 142 115 101 89 93 110 134 161 120 136 131 130 145 133 116 136 147 153 132 145 153 136 108 107 110 104 90 78 92 113 124 126 126 125 119 132 142 135 129 120 117 115 111 113 114 116 116 112 113 112 112 107 106 98 99 118 127 126 130 116 119 126 124 132 127 91 94 66 100 139 154 162 152 169 169 182 155 166 165 145 136 144 224 212 232 199 167 151 177 179 190 173 127 105 81 78 96 100 125 104 124 137 135 136 145 139 121 144 159 145 126 144 145 132 112 115 115 100 83 78 81 96 118 128 123 125 119 130 135 142 133 127 113 115 114 118 113 113 115 113 117 109 106 111 115 114 116 135 143 142 150 139 117 118 117 128 133 113 84 46 88 136 185 182 179 150 177 184 163 164 157 138 120 146 225 212 230 212 169 156 170 176 198 180 128 83 71 73 82 106 116 96 113 129 116 127 149 161 147 164 183 180 162 164 167 149 121 120 115 103 83 78 85 85 99 120 121 130 125 128 137 143 142 135 108 111 117 119 115 120 129 149 116 119 137 116 110 134 136 151 165 165 167 169 142 125 120 118 140 136 84 67 95 135 181 193 194 162 176 200 167 158 145 127 113 151 214 210 232 226 177 160 160 168 185 163 117 61 65 65 72 125 110 93 119 92 102 144 183 187 176 183 185 193 150 153 156 151 132 130 109 94 87 78 84 95 96 128 137 146 141 142 144 149 147 131 111 106 118 122 120 119 134 161 138 167 149 125 119 138 149 147 168 177 183 183 169 148 115 110 128 132 85 83 93 136 174 198 202 162 167 183 166 157 149 116 106 162 213 212 236 230 183 164 153 153 167 151 96 47 47 53 75 125 92 82 110 93 106 156 191 183 176 162 164 162 129 121 128 120 115 131 110 86 79 86 95 102 100 134 138 139 149 151 159 161 160 146 114 105 108 112 127 119 136 140 150 161 161 129 131 135 154 150 143 161 178 183 182 170 116 108 137 131 91 66 80 112 177 209 178 153 156 168 157 145 143 113 112 181 218 209 226 228 188 164 154 144 145 137 86 44 43 50 86 126 85 92 108 113 114 152 184 170 152 146 136 109 97 98 99 94 99 116 96 77 79 84 88 92 98 123 126 139 157 160 163 170 166 154 111 106 105 104 120 126 128 118 137 149 140 123 134 140 138 131 128 126 160 161 178 172 125 116 134 134 101 70 57 98 158 193 155 152 150 158 152 126 134 117 117 176 208 198 212 209 193 153 169 156 128 123 69 56 49 51 87 114 84 105 117 118 117 136 149 143 128 115 97 77 91 93 105 103 112 115 94 76 78 85 84 87 100 124 121 140 147 156 161 168 163 144 116 97 94 91 102 116 121 124 131 128 127 120 112 129 135 124 101 106 104 127 151 161 114 131 150 140 108 86 59 92 160 160 149 151 140 151 144 135 123 117 124 160 203 200 208 206 182 146 164 154 122 105 66 69 62 71 81 104 99 127 150 142 128 120 137 131 110 101 70 82 76 74 83 97 105 109 94 83 87 84 75 77 95 120 125 135 152 161 161 169 164 143 131 107 96 94 102 111 112 128 118 113 118 105 94 96 107 106 106 74 95 105 125 147 130 135 155 130 112 97 69 80 143 150 150 151 152 144 132 134 119 108 122 134 200 207 217 194 165 133 146 152 113 89 64 68 72 86 79 112 115 140 160 139 126 111 124 121 102 99 79 67 63 72 84 88 94 95 78 76 86 86 81 93 104 111 128 137 155 164 161 170 159 146 137 130 111 92 92 101 112 116 117 113 109 104 89 75 76 70 103 84 69 98 103 125 123 125 139 116 116 87 75 77 127 127 152 155 163 144 140 130 121 111 118 113 186 196 201 180 156 132 139 135 130 82 78 68 79 77 68 103 121 149 164 143 131 111 107 105 91 73 72 76 82 79 77 76 80 77 74 74 74 72 85 91 101 119 140 149 157 160 155 168 154 155 141 148 120 106 92 95 107 109 112 95 89 95 78 72 68 56 82 90 73 82 107 110 116 110 123 107 127 103 79 80 105 113 152 158 172 154 150 129 116 118 117 107 167 185 181 172 153 131 115 134 131 82 82 86 83 91 83 101 113 138 149 135 128 118 109 104 104 105 105 114 112 89 75 72 80 85 81 82 75 81 107 107 112 131 142 138 145 157 154 158 151 147 150 142 143 109 91 97 109 108 109 98 85 86 78 61 63 55 79 93 105 103 108 112 115 115 128 123 138 126 94 92 98 130 156 150 166 171 144 118 101 122 107 111 155 185 163 167 151 132 107 104 122 87 92 95 96 93 95 111 122 126 143 134 142 142 134 120 113 131 132 126 113 90 87 92 102 99 95 87 87 83 102 118 118 150 147 146 153 156 156 156 155 149 156 143 157 131 108 117 115 108 115 104 93 87 77 65 67 77 92 106 119 120 123 121 114 116 132 139 138 126 101 87 103 136 150 155 149 161 126 115 108 123 105 104 134 191 151 172 141 135 103 84 104 86 82 103 114 106 106 108 122 130 145 132 148 151 150 145 143 150 153 136 112 106 99 104 112 108 102 89 101 99 119 133 145 156 163 158 170 157 162 160 155 154 153 157 162 158 144 121 129 121 119 113 101 96 90 85 85 95 102 115 128 135 130 135 122 121 138 145 130 125 111 88 113 134 154 154 126 142 92 102 119 121 107 100 124 193 156 184 139 140 119 92 95 75 77 89 108 109 120 117 131 137 158 151 149 163 171 172 171 168 166 150 132 129 126 122 122 123 112 112 118 128 140 141 164 170 174 163 170 164 165 171 161 156 165 176 168 175 180 163 136 139 133 129 119 113 113 100 112 113 118 134 139 146 144 144 137 131 136 145 133 133 111 99 119 132 161 126 117 118 74 105 118 117 109 98 124 189 162 180 132 125 115 103 94 73 68 87 101 105 114 125 131 142 157 163 156 158 177 178 174 171 170 154 141 142 135 135 137 136 128 129 132 152 161 165 173 181 179 168 160 161 164 169 164 164 159 183 176 159 182 188 156 145 146 138 129 121 127 126 124 123 126 146 150 145 154 158 145 138 139 150 135 142 114 123 128 128 152 131 120 101 80 101 115 110 116 99 126 170 165 155 132 98 97 101 98 89 68 76 105 111 108 129 131 146 150 161 159 162 161 164 162 162 156 150 149 151 144 140 141 150 154 163 163 165 174 160 161 184 177 171 166 164 168 175 172 164 164 181 184 170 166 182 175 168 157 153 140 143 139 141 134 140 137 152 155 155 166 167 152 140 143 151 140 138 123 138 132 137 155 147 130 99 99 101 120 117 122 100 114 142 164 136 121 83 74 83 100 83 86 87 100 111 112 126 125 144 148 159 158 167 160 159 153 149 152 152 157 156 149 146 148 160 169 174 162 164 161 150 157 169 174 167 168 165 163 170 171 160 168 176 191 188 179 173 162 165 170 155 156 159 157 155 152 159 157 166 170 170 175 167 151 147 153 157 143 146 134 133 142 153 151 125 111 106 99 93 126 119 122 109 113 111 154 128 112 80 85 78 83 80 86 97 104 110 112 123 131 136 143 146 168 170 163 163 155 150 151 158 158 155 152 148 160 170 168 166 158 152 152 149 150 156 176 168 158 155 162 160 171 167 168 170 181 190 187 172 154 157 164 154 160 155 160 163 162 169 168 173 168 164 162 153 150 147 151 154 148 144 143 135 143 129 129 105 89 112 90 108 123 129 122 127 117 114 142 112 107 89 91 82 84 81 86 97 101 112 121 119 136 138 152 159 162 174 163 158 151 148 147 149 148 146 150 154 169 165 155 157 149 146 156 156 149 150 161 161 144 145 150 151 159 170 172 176 182 186 188 173 161 158 154 156 157 152 153 150 155 161 165 159 159 161 161 168 161 149 145 148 144 139 151 133 135 111 108 97 94 90 88 109 123 134 122 138 129 116 123 107 99 99 95 95 86 83 85 92 95 106 117 118 125 136 148 159 170 170 162 165 154 146 142 142 148 145 149 155 159 154 153 144 132 139 145 145 148 149 153 154 133 138 133 136 148 167 164 168 177 179 179 165 159 155 155 141 143 142 138 144 146 146 148 154 158 160 154 163 166 150 146 145 147 138 148 127 125 108 96 96 92 80 89 106 121 130 120 143 127 108 117 107 91 106 86 107 92 90 89 93 92 97 103 121 120 135 147 158 164 164 163 167 160 147 140 138 138 132 135 142 153 148 138 124 129 134 137 137 137 140 144 148 131 119 119 117 136 152 145 156 167 173 177 158 152 146 151 140 134 134 131 135 143 141 139 142 155 151 146 147 151 153 134 142 151 134 142 116 117 118 93 80 89 87 105 107 122 127 117 144 136 107 98 108 110 104 96 115 109 94 103 97 91 96 103 120 128 138 152 167 169 170 159 161 154 137 132 125 123 119 132 129 136 131 119 120 129 127 123 121 118 121 135 133 119 105 108 109 124 122 124 132 150 154 154 144 137 138 138 138 128 124 121 120 124 129 129 140 156 150 146 145 139 139 143 146 145 134 140 111 127 106 85 67 88 103 126 107 121 111 124 143 144 111 87 105 129 108 110 121 116 96 107 105 96 96 106 117 131 141 152 168 169 180 171 166 157 140 130 121 114 115 122 121 115 117 113 110 125 128 120 116 118 124 117 116 102 100 105 103 116 111 114 129 138 130 120 121 119 121 121 122 121 116 110 111 108 106 112 121 135 141 143 141 133 136 142 142 144 128 130 110 118 94 95 66 92 132 133 119 129 113 125 140 142 132 84 103 145 125 142 138 112 96 113 110 99 100 114 120 135 147 157 168 175 166 153 146 140 131 115 105 103 113 118 114 105 100 106 107 123 123 111 107 102 109 99 95 95 95 100 103 107 94 99 116 122 118 110 110 107 109 118 113 112 108 109 97 100 99 107 114 129 130 133 136 133 131 142 143 131 129 123 102 115 89 103 87 94 154 141 134 123 112 122 132 137 142 89 101 131 142 151 151 122 95 102 123 105 103 116 124 138 152 164 168 170 167 159 155 151 130 114 108 112 119 119 111 106 95 120 135 133 128 106 100 91 95 92 92 90 85 86 88 95 85 88 102 113 118 112 113 111 108 109 109 108 108 105 98 95 91 100 105 118 133 134 131 132 133 139 144 126 127 119 103 101 93 113 94 106 176 149 135 125 117 120 128 129 144 101 96 105 164 149 148 133 102 110 132 112 107 118 132 147 163 172 173 174 170 167 167 165 145 135 141 141 142 133 114 109 105 136 155 141 114 104 98 93 90 82 82 81 83 81 76 77 79 77 96 101 109 117 113 111 105 103 98 101 104 105 103 97 95 98 94 106 116 119 123 127 129 130 137 123 125 115 108 93 91 115 91 140 172 158 139 123 120 125 128 127 135 107 82 89 153 158 143 143 120 128 133 118 113 118 136 152 164 170 171 168 167 168 177 174 162 157 164 159 155 143 137 131 148 166 166 149 119 112 103 97 85 82 89 88 83 80 84 76 77 81 96 105 110 120 120 119 115 109 107 105 107 106 108 106 109 102 105 102 110 110 119 118 119 125 127 121 124 113 109 95 98 106 120 158 174 161 140 127 124 125 127 133 120 107 81 77 105 167 142 151 130 138 129 122 119 123 143 156 165 167 171 164 173 181 191 190 178 178 177 172 156 144 146 158 174 195 179 156 141 132 134 136 117 108 110 98 92 87 89 83 79 94 97 110 117 125 135 133 121 109 106 109 109 109 115 107 108 110 109 111 111 119 118 114 120 121 120 113 129 115 117 104 123 127 145 167 171 161 137 133 128 127 123 132 120 109 83 78 100 167 167 164 140 142 150 126 126 125 147 157 164 165 167 167 178 195 201 196 195 202 195 182 169 160 166 179 197 209 198 179 167 168 168 171 156 138 127 109 99 97 91 92 89 103 114 115 127 135 145 141 139 131 123 120 122 122 125 118 116 117 115 115 115 124 122 116 119 123 119 121 141 124 129 128 153 138 161 176 162 153 140 134 131 127 116 125 120 109 89 72 95 159 183 187 143 145 181 129 131 126 146 158 163 162 166 172 188 200 201 200 205 212 201 188 182 189 193 197 208 208 208 195 178 180 185 194 188 171 151 134 123 124 119 113 111 120 142 146 156 160 161 155 156 153 145 139 138 135 130 122 117 122 128 122 124 129 130 122 124 132 128 126 149 145 149 147 155 155 167 179 168 153 140 132 131 124 113 112 115 105 94 78 85 143 190 200 163 159 195 140 135 125 144 159 161 163 166 176 188 199 206 206 209 213 204 193 194 210 206 208 206 207 209 200 193 183 184 193 190 177 162 151 149 146 142 138 142 147 171 178 175 177 166 157 152 155 151 148 145 139 131 122 116 117 130 130 130 131 131 124 130 136 135 136 154 166 159 162 173 189 183 182 177 150 140 130 129 117 110 108 114 102 97 92 75 127 183 202 190 188 201 146 126 134 142 158 164 170 175 190 194 204 213 214 214 212 210 205 211 209 206 201 197 209 206 209 207 200 193 192 200 195 177 164 168 174 170 160 165 167 185 184 174 187 172 165 154 154 152 149 144 140 138 129 126 117 131 136 135 133 136 130 136 142 145 150 164 180 179 176 193 205 193 190 174 147 130 121 132 120 108 105 104 94 96 92 85 119 165 197 203 202 202 163 125 137 142 160 173 179 191 203 207 213 218 222 218 219 222 213 218 211 205 202 200 213 212 220 215 210 202 196 192 185 175 159 167 170 175 174 167 164 181 176 172 182 171 175 166 160 156 148 140 142 140 143 141 120 132 141 142 144 142 138 147 145 151 164 179 194 192 176 198 194 197 190 162 151 128 122 132 128 104 103 99 89 92 100 98 111 156 198 207 200 204 165 124 139 142 157 180 189 198 204 213 222 223 232 224 227 232 217 226 216 211 200 199 211 210 220 206 204 211 198 185 173 169 155 155 163 164 169 164 166 169 170 164 161 155 169 174 175 164 156 142 141 145 152 143 126 131 141 144 150 142 142 159 151 151 180 187 200 192 174 203 186 192 184 159 154 134 126 132 135 103 105 98 87 93 114 111 117 139 176 182 199 190 164 125 140 141 155 184 194 210 212 215 223 234 236 236 244 242 230 229 214 209 199 199 206 205 200 204 192 190 186 183 178 166 161 168 171 176 174 172 171 172 173 168 166 161 158 162 167 166 160 149 144 140 145 148 136 133 144 151 149 148 152 160 155 161 186 183 207 181 167 185 188 179 164 155 148 137 134 136 138 106 109 96 87 92 113 128 125 127 168 165 177 172 159 131 142 145 149 180 194 214 217 218 221 232 239 245 252 247 238 229 224 215 210 200 197 194 191 183 159 168 173 181 178 165 162 173 175 177 172 167 167 172 171 166 167 161 159 155 152 157 159 148 138 137 138 145 136 143 150 156 149 152 161 158 157 170 181 178 201 171 169 179 180 166 161 154 142 132 136 143 138 113 114 102 97 97 111 130 143 141 151 152 165 164 148 140 150 144 152 176 191 213 222 222 222 231 234 243 245 235 226 214 211 212 210 209 190 189 170 155 154 165 164 172 171 170 171 178 172 173 163 161 157 160 163 155 161 158 158 157 149 141 139 133 133 129 132 132 138 143 157 155 155 153 165 161 159 176 167 176 186 150 164 168 162 164 156 156 138 134 139 147 147 118 116 111 100 102 108 126 148 158 158 149 153 154 134 145 152 150 147 167 194 203 212 215 215 213 217 225 228 210 202 191 187 187 178 179 165 154 151 149 159 170 170 184 188 177 174 177 169 165 164 154 149 144 143 139 147 149 150 152 145 143 139 123 121 124 129 121 123 138 155 153 154 153 169 159 156 174 164 171 162 128 160 159 144 156 154 153 132 134 144 145 148 118 114 114 103 106 107 123 141 159 163 158 145 145 134 135 159 151 147 159 188 198 197 199 198 195 202 214 224 209 201 193 174 170 157 147 140 137 139 137 141 156 158 163 175 175 171 162 158 151 146 140 132 128 131 128 137 138 149 156 153 147 138 119 109 105 113 105 119 130 150 146 146 159 163 155 143 154 151 153 142 129 138 139 137 150 157 144 119 136 144 149 144 114 113 114 103 106 104 118 138 153 163 166 154 148 139 133 164 148 145 155 176 188 186 183 186 183 185 197 208 202 191 175 155 149 149 137 135 134 142 142 131 141 150 161 166 162 162 152 146 147 145 135 128 136 136 128 131 134 144 151 148 147 134 116 111 102 105 105 111 129 139 143 137 155 147 144 141 149 144 132 123 126 122 133 141 140 153 139 112 132 142 144 146 111 113 112 106 107 109 116 136 151 165 168 159 147 137 131 156 152 140 148 168 177 180 173 177 179 180 191 197 195 176 155 140 137 136 148 159 152 146 158 167 158 167 167 169 166 162 162 157 160 157 146 143 139 138 135 135 139 138 142 144 147 130 120 111 106 102 106 112 124 138 139 135 148 145 134 148 149 144 113 116 128 120 128 148 145 152 134 115 124 142 141 145 116 113 112 109 114 110 121 146 154 164 171 161 154 135 130 128 149 134 149 159 165 173 170 169 173 174 190 191 196 181 162 156 154 152 180 192 183 173 171 176 172 177 163 163 157 155 150 148 150 153 143 134 131 132 132 129 134 134 137 140 136 123 122 117 114 106 109 119 127 134 134 137 141 140 137 152 145 132 116 122 139 125 131 146 157 148 134 115 119 136 142 146 120 117 117 116 117 111 147 158 153 163 177 160 155 138 136 124 148 130 148 158 156 163 172 174 177 178 194 197 199 193 188 180 193 200 218 233 233 215 202 202 188 188 181 172 157 158 150 151 151 152 131 121 116 125 129 128 134 132 143 147 154 147 135 127 123 111 112 121 132 128 128 134 131 133 145 148 143 114 123 129 138 132 139 148 153 143 139 125 119 132 143 148 123 122 120 119 115 138 164 153 152 163 173 162 153 144 141 127 134 139 143 142 155 148 159 168 176 179 187 186 194 187 181 184 205 213 225 235 239 231 226 213 205 193 188 178 159 159 155 156 144 136 130 121 126 130 136 133 149 154 162 164 165 159 141 130 126 112 116 122 128 129 131 127 123 129 151 137 127 113 125 130 140 138 145 158 145 139 145 134 123 137 145 150 124 122 121 115 129 169 162 152 148 160 168 161 151 151 145 135 128 146 137 139 154 141 149 164 171 175 181 187 183 181 174 179 195 206 209 219 223 218 213 205 194 188 177 173 156 152 146 147 141 135 136 132 132 135 136 138 148 158 161 161 159 149 132 132 125 112 115 122 121 123 135 115 119 124 144 135 114 115 125 132 144 139 150 154 139 144 149 141 127 131 147 150 129 125 122 126 163 173 160 153 145 151 167 161 144 156 147 142 126 128 142 136 144 149 149 163 165 171 178 186 177 172 172 179 184 197 192 200 204 202 200 200 192 181 167 150 144 138 136 142 136 138 131 132 126 126 126 130 135 144 146 144 142 134 117 122 119 112 105 109 109 122 118 113 117 120 125 137 110 119 126 134 141 140 152 147 136 147 153 142 132 127 147 150 132 125 124 157 175 174 160 153 143 144 169 159 145 149 148 143 120 122 134 134 137 137 146 153 160 165 174 178 176 173 164 174 186 189 189 195 187 188 188 186 182 168 150 136 135 129 133 133 130 129 126 117 116 113 114 119 119 124 121 120 118 114 104 104 112 107 99 104 108 113 105 110 108 105 119 134 109 126 127 133 141 144 149 141 137 150 147 141 127 122 142 157 130 125 152 173 181 174 157 158 142 136 164 159 145 144 146 138 116 111 119 130 140 132 138 141 147 158 164 159 166 155 151 158 167 179 180 179 178 179 181 179 170 155 146 132 129 122 119 118 119 124 120 119 118 119 122 121 117 115 107 106 104 104 95 98 100 103 91 96 106 98 98 103 89 99 116 116 114 126 127 132 139 151 148 138 140 151 140 143 136 124 137 153 132 150 176 173 183 169 164 158 148 134 153 157 139 141 143 132 110 106 113 116 135 133 126 137 134 144 150 147 149 151 143 142 150 156 161 160 163 166 165 166 153 141 141 131 127 123 120 116 116 116 116 119 120 119 119 119 115 106 101 103 93 95 91 91 93 92 90 95 98 87 96 96 75 80 129 110 115 126 131 131 133 147 159 148 139 151 139 145 139 129 135 145 155 174 178 178 177 168 171 159 148 134 140 146 133 142 136 124 107 105 105 108 123 128 124 129 134 135 132 133 139 143 147 150 150 144 142 147 159 161 156 154 145 139 132 126 126 118 111 108 106 104 108 113 117 119 116 117 111 108 98 99 93 88 85 96 92 89 92 96 92 86 86 84 62 80 133 116 125 127 130 136 134 140 172 166 151 151 147 152 144 134 133 140 191 186 189 190 181 173 184 163 149 144 134 135 131 139 125 119 99 102 106 105 120 134 124 132 130 138 132 126 133 133 138 144 147 139 143 139 149 153 151 152 140 129 121 116 115 112 103 106 103 102 110 108 110 118 117 118 117 109 107 97 94 89 91 96 99 90 96 95 86 83 84 78 47 84 126 123 131 135 136 140 140 155 178 201 177 165 155 165 157 146 144 142 194 189 195 194 175 180 196 164 149 159 138 127 119 123 107 106 99 99 103 112 108 132 133 130 130 138 135 134 129 131 133 136 139 131 134 143 148 148 145 152 145 140 129 121 122 117 114 119 118 115 126 121 119 122 119 119 118 117 104 104 91 94 102 102 107 94 97 80 79 77 83 64 52 88 115 121 136 144 137 130 136 163 178 202 204 183 166 179 172 160 160 156 210 214 220 205 186 201 212 175 163 176 148 126 109 108 92 96 101 99 97 109 107 128 138 133 140 139 141 137 135 131 138 142 147 143 140 142 145 139 142 153 150 156 147 146 138 138 134 138 136 137 142 135 135 132 128 125 122 116 107 103 100 98 106 102 109 97 96 76 77 74 81 51 66 91 106 116 137 144 136 126 131 166 181 194 209 202 178 182 172 160 166 161 217 223 223 198 184 218 224 184 175 184 157 125 104 99 84 84 99 98 94 105 107 125 136 141 145 145 144 145 145 139 140 149 159 160 161 158 155 152 153 156 154 161 155 165 161 157 158 154 151 152 148 145 145 145 141 135 124 125 116 117 105 110 110 100 108 99 82 75 76 74 70 54 63 87 91 112 132 145 131 124 125 166 180 189 200 208 200 188 171 163 164 163 225 225 220 186 179 229 225 191 176 186 172 131 101 96 83 77 92 95 92 103 98 117 137 133 141 148 148 149 152 150 150 156 162 163 164 164 163 162 160 166 164 170 161 160 161 161 163 159 160 153 150 148 151 147 146 139 134 131 122 120 121 115 113 105 103 96 76 76 66 72 57 45 64 83 80 108 124 148 119 117 132 166 182 176 188 200 215 197 172 159 163 166 229 221 215 182 180 232 221 191 181 191 179 135 105 95 81 73 81 90 86 101 92 113 129 131 122 143 151 152 155 157 158 161 164 169 173 171 169 162 162 164 169 167 164 162 164 160 163 163 166 156 155 149 147 150 142 134 138 129 125 125 116 116 110 109 99 89 76 71 68 63 53 46 65 84 77 93 120 138 106 109 129 162 164 166 172 192 212 207 181 164 163 161 231 221 206 182 182 228 216 189 179 203 177 136 120 90 77 71 75 84 83 94 86 117 132 121 121 133 144 150 156 157 157 164 163 169 171 170 169 166 159 159 162 160 167 160 159 160 161 162 159 150 151 148 142 143 133 128 125 126 116 120 111 113 104 100 100 89 69 72 65 59 57 46 64 75 70 75 109 112 103 105 120 150 155 153 157 188 211 203 199 183 181 166 231 221 198 179 185 222 216 180 179 198 167 142 124 102 73 73 69 77 76 85 87 117 139 120 118 136 133 143 149 152 154 160 165 165 170 170 165 167 163 157 158 157 163 155 155 154 151 156 151 148 147 149 139 134 125 119 118 117 112 116 104 102 103 93 96 88 72 66 60 60 50 41 60 67 49 82 93 95 101 105 116 143 161 147 166 188 217 203 205 198 197 189 227 219 188 182 189 220 211 171 174 187 159 145 124 96 89 74 63 67 64 94 87 110 133 130 112 138 145 133 140 144 151 157 162 163 165 167 170 167 160 148 152 159 153 151 148 145 144 145 142 141 136 133 127 122 117 112 112 113 113 107 101 99 91 96 82 81 79 67 58 57 45 34 47 66 39 79 73 71 95 110 118 138 159 157 170 190 210 212 199 208 202 196 227 217 191 185 190 212 195 166 173 177 148 136 120 102 91 80 71 59 71 83 88 115 129 135 126 138 145 150 141 140 144 151 153 156 160 164 167 166 155 148 146 151 148 143 134 132 134 132 132 126 125 120 114 110 106 106 103 101 107 103 99 91 88 89 78 78 81 78 57 59 49 32 52 71 35 57 53 44 78 109 116 127 150 162 168 186 199 211 206 204 209 203 222 215 186 184 183 197 183 163 166 164 139 118 133 104 87 84 75 63 68 80 90 108 129 142 143 143 157 156 152 142 136 146 150 148 148 157 159 159 151 143 139 141 142 137 130 128 128 122 120 115 117 107 102 99 95 99 95 96 98 93 92 83 86 80 68 64 75 76 71 54 49 45 57 75 33 28 42 44 74 101 102 120 131 160 171 178 190 204 209 198 208 203 204 201 171 172 175 176 170 155 149 145 125 123 134 101 86 81 67 71 60 81 89 100 127 152 150 145 164 162 154 150 146 144 146 144 142 145 148 147 145 136 128 131 128 125 120 121 119 113 112 107 102 97 92 90 89 94 95 95 92 90 77 83 81 67 59 57 65 71 82 56 56 44 60 76 21 4 41 50 67 89 96 99 109 139 160 174 177 197 204 192 204 211 189 185 160 169 164 153 150 141 130 122 119 116 125 97 75 73 67 56 67 97 85 93 130 166 146 145 163 161 166 156 157 158 146 139 138 139 140 140 136 130 125 120 115 112 108 110 107 103 102 95 90 85 85 87 86 89 94 94 88 75 74 73 69 49 49 65 64 72 86 70 67 45 63 74 9 0 28 50 68 74 83 89 103 108 140 156 160 187 196 198 197 206 178 164 147 156 150 136 126 133 113 101 112 101 103 81 67 69 49 51 62 98 81 93 136 162 151 143 156 161 163 166 162 160 157 145 138 136 136 136 130 126 119 110 107 97 95 96 88 89 87 85 85 81 85 83 82 90 91 87 73 66 66 62 53 39 49 59 64 64 75 91 88 54 65 69 5 2 20 53 65 71 70 76 98 112 119 131 142 170 194 212 202 206 165 143 137 141 132 120 108 114 99 100 102 75 91 87 63 54 42 56 60 88 81 92 144 159 160 139 152 159 166 168 165 166 161 156 150 145 139 132 128 127 118 114 107 98 92 87 85 83 81 83 86 81 82 82 83 89 88 78 67 64 62 55 46 36 52 66 71 62 81 91 97 79 55 54 18 5 23 49 56 61 64 63 79 105 106 111 134 149 181 204 201 203 140 115 124 125 122 101 83 111 100 83 77 65 80 79 55 40 31 45 44 78 80 81 141 166 171 141 154 164 164 170 173 166 165 168 166 157 150 143 141 133 128 120 111 106 101 97 95 93 88 84 87 84 86 85 84 86 78 68 67 61 55 52 39 42 69 74 63 63 83 90 83 75 55 41 20 13 44 46 43 48 62 62 53 91 87 102 125 133 165 190 189 188 129 106 113 115 102 88 79 102 94 71 47 45 61 73 57 30 23 23 39 71 75 80 128 164 171 155 158 175 165 166 170 166 169 167 175 171 168 158 155 145 139 129 124 119 106 103 100 95 93 93 93 91 87 81 77 77 69 67 62 58 52 49 43 50 73 61 54 66 98 87 84 85 50 38 14 15 55 51 35 43 62 70 41 66 85 104 116 131 149 184 192 190 