P2
92
112
255
149 150 147 145 145 144 137 141 144 143 138 145 147 153 158 153 155 154 146 137 131 122 122 120 118 115 111 115 115 115 119 122 134 134 131 134 130 130 134 138 133 130 133 140 145 143 152 163 163 166 162 168 157 155 145 134 119 116 98 94 100 96 95 99 102 107 107 107 108 109 113 113 115 119 123 122 121 127 126 126 127 126 124 124 123 123 124 122 126 121 125 129 149 148 147 147 147 142 141 145 143 140 144 149 156 151 155 153 151 146 138 130 126 115 114 111 106 110 107 109 117 116 124 128 140 138 132 138 142 136 144 152 153 156 172 178 173 171 168 166 186 191 186 174 174 170 166 152 143 134 123 105 105 101 101 94 95 99 97 92 96 98 104 102 105 114 113 123 121 123 127 125 127 130 126 126 125 124 125 122 128 123 122 126 148 148 147 147 148 144 145 143 142 144 150 157 155 161 154 149 149 143 134 128 122 115 113 105 105 110 107 116 129 129 128 133 135 139 151 160 161 163 172 175 181 192 202 203 200 197 193 200 206 198 189 188 185 170 174 162 162 156 150 131 115 98 105 106 96 94 91 90 86 92 90 96 100 101 107 121 121 119 122 130 129 130 129 128 127 126 126 123 122 127 123 123 149 145 148 148 144 147 146 147 144 148 153 157 157 155 150 141 143 137 129 126 117 104 99 103 106 115 118 124 127 133 142 144 150 166 167 174 180 190 186 189 198 201 210 210 206 197 213 214 200 195 197 209 195 187 186 182 173 172 160 147 141 127 112 113 103 98 98 96 90 88 90 89 94 87 96 113 122 116 121 125 130 127 131 130 129 127 127 124 123 127 128 125 146 146 148 148 147 149 147 151 151 151 155 159 153 145 140 138 135 129 125 116 100 96 98 112 117 118 126 125 127 136 152 165 176 173 183 179 180 190 196 200 194 195 205 210 198 216 227 225 235 217 217 224 220 213 207 199 191 184 186 164 157 153 141 136 127 112 108 104 98 92 92 83 85 85 84 99 112 116 115 117 124 124 125 130 132 130 125 126 123 126 128 127 147 148 148 150 151 153 151 154 155 158 156 155 143 141 136 134 127 121 112 92 88 93 108 109 109 120 128 129 139 157 177 189 189 195 201 205 205 202 208 217 214 206 208 216 216 221 231 238 240 233 225 232 227 226 216 212 211 202 203 191 187 179 170 164 160 152 146 127 109 103 96 88 82 85 90 92 102 107 115 111 113 124 126 127 128 133 129 128 125 126 126 130 147 146 148 150 154 157 157 153 157 160 154 145 141 140 135 130 122 108 88 77 87 94 99 101 109 117 137 147 160 174 191 203 196 206 218 210 216 217 224 224 228 224 224 228 232 229 228 234 240 233 233 239 234 231 221 218 223 211 211 207 198 198 194 196 179 178 177 160 135 117 112 104 93 95 96 98 104 102 109 119 113 113 121 124 126 132 133 130 129 127 125 131 148 148 151 154 155 159 156 157 157 152 149 144 141 137 131 122 109 90 77 80 87 92 95 93 101 119 140 161 181 186 199 208 208 219 223 216 216 222 226 221 226 226 220 227 227 226 220 224 231 226 227 234 233 228 222 227 219 217 218 212 204 199 208 197 192 187 182 179 168 136 124 119 111 107 108 109 103 105 107 118 125 117 113 122 129 127 134 137 133 130 126 129 145 150 152 157 157 158 156 159 153 147 140 141 135 125 118 112 97 90 87 90 92 87 93 100 118 130 144 162 178 189 198 205 209 213 221 217 227 226 228 220 212 209 214 210 204 209 207 209 216 211 218 213 219 222 213 214 207 211 208 203 194 182 186 196 181 182 181 180 168 153 133 129 124 128 119 117 112 108 108 111 119 126 121 119 125 130 128 137 136 133 130 126 148 153 154 160 162 163 160 155 150 140 135 133 124 113 110 92 87 80 84 89 84 89 101 120 129 144 160 170 181 185 197 200 199 207 213 215 219 219 222 216 211 204 204 203 193 201 205 201 204 208 210 211 209 212 212 204 199 195 193 195 194 182 177 180 174 163 174 172 163 166 163 144 135 135 134 118 118 112 114 110 114 118 125 122 121 128 131 132 134 136 128 133 149 157 160 161 164 155 151 150 141 130 127 122 112 105 96 84 71 77 83 84 81 96 115 129 140 154 169 179 178 187 196 200 199 200 204 200 193 191 203 203 200 199 191 196 191 191 190 192 197 199 209 210 210 210 213 206 203 197 189 180 180 177 174 175 169 171 170 176 167 165 173 160 148 141 139 131 117 111 113 115 114 115 121 122 120 120 127 130 132 136 131 134 151 161 161 159 161 151 147 145 138 128 121 112 103 90 83 77 74 80 81 87 95 116 133 134 152 162 173 179 180 189 194 195 196 198 194 189 189 184 194 195 191 190 189 190 184 184 182 186 190 188 195 200 205 198 196 200 194 196 187 185 181 179 177 174 180 170 169 178 173 161 178 174 171 150 137 144 126 118 110 114 123 122 125 121 122 121 118 129 128 137 136 131 155 158 161 161 153 149 142 139 131 124 115 106 86 78 69 75 77 75 84 101 119 134 140 145 158 159 162 174 176 186 178 176 185 190 191 191 198 189 195 191 188 184 186 183 175 172 168 166 177 181 182 186 197 193 189 193 197 193 190 185 184 180 177 175 180 176 165 169 174 172 176 187 191 182 155 143 149 132 120 117 122 120 123 122 122 122 121 123 129 133 136 131 157 160 159 157 151 141 137 131 123 121 103 93 74 69 69 74 74 89 110 123 132 140 142 141 147 153 164 173 177 182 178 182 185 186 188 191 194 188 190 188 180 173 171 178 173 165 168 162 159 168 173 175 182 186 188 187 194 185 185 190 182 183 181 179 181 182 177 165 170 164 182 181 195 187 184 168 161 148 133 126 127 121 121 123 122 121 121 115 124 131 132 132 159 157 153 151 142 132 129 132 122 107 87 68 65 73 66 66 82 104 123 125 138 140 138 140 152 153 159 168 172 177 179 180 181 187 188 190 186 179 179 180 169 167 166 168 160 154 158 154 154 159 166 167 174 180 178 184 190 182 189 190 183 186 182 179 186 186 174 175 170 160 170 174 187 201 198 187 180 156 157 139 131 132 121 120 128 121 120 113 111 125 133 134 155 148 151 144 137 130 127 127 107 85 75 62 68 69 66 80 97 113 122 134 139 134 137 143 155 161 160 170 177 180 183 184 183 184 178 177 176 168 169 169 160 157 157 155 144 147 149 151 150 151 152 166 172 174 180 183 181 184 191 185 185 194 184 182 188 188 183 179 176 163 167 177 181 200 202 188 186 175 161 162 142 135 136 123 123 121 120 114 114 110 128 134 151 148 148 140 129 126 123 112 93 80 66 64 65 58 71 95 109 121 130 137 130 125 141 146 156 159 165 176 177 183 177 177 173 170 167 165 162 153 156 149 144 143 142 142 134 143 141 140 144 144 146 155 157 157 166 171 175 179 183 175 181 190 187 185 187 179 176 177 174 167 159 162 176 185 186 189 187 188 164 164 158 144 145 134 128 122 124 120 116 112 114 121 150 150 139 133 128 122 112 102 83 78 64 72 63 67 87 109 113 118 125 129 121 130 146 153 158 160 166 172 175 170 171 167 157 154 152 143 146 141 134 133 126 124 127 124 126 128 123 128 129 130 142 144 136 146 153 153 162 164 165 166 173 182 175 183 180 173 163 166 168 166 155 159 165 175 184 179 190 177 180 163 166 156 155 140 129 123 123 119 114 115 111 119 147 139 134 123 121 119 103 91 85 79 70 66 64 87 101 106 116 121 126 125 124 142 151 154 160 160 161 161 162 162 153 149 145 144 140 133 128 129 117 114 106 110 112 111 115 111 109 114 114 120 124 125 121 126 134 137 147 150 145 151 162 167 162 167 169 160 166 160 160 158 159 150 151 170 174 180 185 176 178 177 167 166 152 147 132 132 123 121 112 109 112 112 146 139 125 120 115 109 90 92 85 71 71 71 82 109 110 112 120 120 115 119 124 142 143 153 157 156 148 142 144 137 135 140 139 139 133 125 118 108 105 99 95 98 95 98 95 99 94 95 105 109 105 103 108 111 112 121 123 121 132 137 146 148 154 157 153 155 158 155 151 155 154 143 145 168 167 169 178 183 175 195 178 167 160 151 150 140 135 121 114 109 110 108 136 128 120 118 113 111 96 90 82 75 69 80 100 114 106 113 115 117 111 123 133 143 146 150 147 139 131 127 125 123 130 128 133 127 119 115 105 97 96 91 90 88 87 82 79 80 82 80 89 93 88 88 100 91 91 101 103 101 116 123 122 128 142 140 148 148 151 146 141 142 144 141 135 159 159 175 176 177 178 196 201 173 169 156 160 154 145 131 119 111 110 112 129 122 123 115 117 110 101 88 83 82 85 99 120 119 111 109 110 111 115 126 135 136 142 138 132 122 116 115 117 117 122 120 119 113 111 107 100 97 94 91 83 80 73 71 71 72 75 75 79 83 79 82 85 77 76 83 83 86 95 105 106 115 119 127 130 138 144 141 138 135 136 138 132 141 152 169 187 171 179 186 199 193 178 164 166 170 154 146 131 113 112 113 123 118 120 116 111 115 98 95 96 91 97 118 125 120 106 113 107 115 122 130 132 134 136 129 125 113 114 108 109 107 107 102 102 105 100 102 100 101 95 92 87 76 70 69 66 67 68 70 74 72 75 78 75 69 69 69 70 81 81 83 96 104 105 110 117 125 130 135 136 132 128 133 132 133 138 166 185 178 174 193 190 207 192 169 164 176 176 164 139 126 112 113 122 114 119 117 111 118 108 112 105 102 116 130 126 110 101 113 112 120 123 119 123 132 125 120 117 112 108 101 97 97 92 94 99 98 100 97 97 95 95 86 85 79 78 73 71 68 70 68 69 66 73 72 68 71 63 61 68 76 73 77 91 92 96 98 109 115 121 122 130 126 122 128 129 129 133 147 168 183 175 182 195 205 202 175 161 164 179 166 149 142 116 105 117 108 118 115 117 124 125 120 114 115 127 131 117 110 106 117 119 122 113 111 121 115 115 113 104 107 96 89 90 89 86 94 96 100 97 94 92 88 86 86 84 79 80 79 78 73 76 71 68 68 71 63 63 68 56 58 68 69 70 79 87 88 94 97 103 109 112 112 121 118 123 123 120 124 126 135 161 181 182 183 192 194 204 185 170 159 173 177 159 147 130 113 111 107 121 123 130 130 132 125 128 125 126 128 111 106 96 116 110 113 98 104 108 103 104 102 90 87 81 79 85 84 86 87 92 97 90 90 89 80 82 85 84 84 81 81 79 78 78 78 74 78 71 65 67 68 58 59 62 65 74 85 86 87 96 102 103 111 112 114 113 116 117 124 122 120 126 130 151 166 186 183 191 191 210 198 181 167 168 184 155 146 129 117 107 107 124 131 137 140 139 143 153 124 126 123 104 94 99 108 104 99 93 93 92 97 93 83 78 75 78 81 82 82 82 82 87 91 89 89 87 87 86 87 87 91 87 85 86 84 84 84 80 79 78 77 72 69 62 65 69 75 79 83 86 92 100 99 103 110 117 120 118 115 119 123 131 128 128 126 140 162 182 195 185 198 202 199 185 179 163 176 161 141 132 116 107 106 121 138 141 151 156 170 150 127 124 117 100 92 103 102 101 98 89 81 83 85 78 76 74 73 76 80 83 85 84 91 93 94 97 99 100 97 94 96 93 95 95 90 90 89 91 91 89 89 86 86 82 80 73 73 80 84 87 90 93 98 101 102 108 111 121 126 122 122 122 122 135 132 130 127 141 160 173 193 184 200 188 204 194 191 184 160 157 145 130 121 111 110 121 139 139 155 169 171 146 122 123 114 97 88 105 104 96 95 89 84 82 77 69 71 71 78 86 93 96 98 99 104 104 108 111 112 119 111 111 112 109 110 108 101 101 100 101 104 103 104 98 101 100 98 94 94 97 98 97 99 100 101 105 106 108 110 118 123 124 124 123 120 131 132 132 135 144 153 174 192 196 198 196 203 202 189 197 165 155 146 127 127 111 117 127 137 136 165 180 167 143 126 124 109 95 90 102 102 94 91 92 93 84 74 70 76 90 97 99 105 113 117 122 126 124 129 132 133 136 129 125 126 123 123 118 117 114 112 115 117 117 119 118 117 121 118 117 116 119 117 118 120 116 117 115 108 108 111 114 119 120 120 123 124 129 129 135 140 145 152 168 186 202 194 197 199 201 196 203 175 164 151 130 121 111 124 131 135 157 186 185 165 142 129 121 105 100 92 107 105 94 96 103 96 94 90 90 102 113 116 119 126 137 141 147 148 149 151 155 152 153 148 143 141 138 134 130 128 125 124 123 125 133 134 138 143 137 134 132 131 131 131 129 128 128 130 130 125 124 122 115 116 120 117 121 125 131 131 132 143 148 151 167 186 195 198 194 202 197 197 201 183 169 157 137 109 118 123 134 149 176 187 184 156 140 134 117 102 102 101 119 104 96 110 114 115 111 112 114 129 138 143 149 153 163 170 170 171 172 171 174 168 165 161 155 152 149 145 142 136 134 133 131 137 141 151 153 155 157 149 153 149 146 149 145 146 147 146 149 145 144 144 134 123 121 120 117 122 129 132 128 141 147 157 165 185 198 199 193 196 192 188 195 195 174 160 144 111 118 121 128 146 168 183 184 151 149 126 112 106 108 118 120 104 106 118 120 124 122 127 141 154 161 168 169 172 178 185 188 187 190 189 185 184 179 172 168 164 162 158 152 147 145 141 144 152 155 159 161 166 169 165 164 164 160 159 158 158 156 156 158 160 157 163 156 149 134 123 124 122 127 132 133 138 148 153 168 184 199 195 202 188 180 177 185 202 180 156 140 116 116 117 125 148 177 182 175 160 141 119 117 123 124 126 118 112 121 124 132 131 135 142 154 158 163 171 174 182 194 202 207 208 205 203 201 202 202 195 188 180 173 168 166 158 153 154 154 160 159 161 163 168 171 172 175 174 174 171 173 170 161 161 158 163 163 165 170 169 156 147 128 129 131 131 136 142 148 150 167 176 199 201 200 187 175 169 176 204 198 163 138 120 121 118 132 152 176 175 167 157 135 125 124 134 132 129 122 124 128 134 137 136 139 146 150 151 162 176 183 196 200 199 201 199 204 204 207 205 207 201 195 192 180 170 169 166 159 155 159 161 161 162 165 171 180 181 185 186 187 185 187 183 177 170 165 160 164 169 167 167 164 158 150 131 139 140 132 142 154 157 164 173 191 203 196 184 186 179 176 195 209 168 154 128 117 113 138 150 175 176 164 160 144 129 134 143 139 131 136 140 134 130 136 147 144 148 154 159 174 181 190 197 195 196 199 197 197 196 194 195 186 189 185 184 176 169 166 171 161 161 159 163 163 160 169 182 182 191 192 197 195 195 197 191 187 181 174 166 168 173 168 165 167 157 158 147 131 144 141 136 142 158 159 170 185 197 193 174 186 190 181 191 218 187 156 139 117 121 155 163 180 178 172 150 141 137 146 159 143 147 148 142 126 130 149 150 150 152 154 169 178 183 181 187 193 190 191 196 189 196 190 183 179 178 173 173 169 164 159 160 157 161 161 165 169 167 176 184 181 191 190 191 194 195 195 189 184 180 169 164 169 168 168 163 163 159 153 152 129 132 144 147 137 148 153 167 173 193 183 167 178 188 197 178 208 219 163 150 119 125 166 176 180 174 176 145 148 160 167 176 144 156 154 141 130 143 150 149 158 167 170 175 179 181 181 192 197 194 186 180 178 176 175 171 173 171 168 164 163 158 150 149 149 155 159 166 168 170 180 181 177 182 180 181 186 184 180 177 174 169 161 161 160 159 159 159 160 154 150 149 142 124 119 134 136 144 142 168 171 180 171 152 171 182 199 178 189 220 183 150 122 138 174 176 183 168 170 143 155 172 175 165 142 152 150 145 146 155 150 155 176 180 175 185 183 181 174 180 188 184 180 173 166 164 161 165 166 164 164 162 156 153 147 145 149 148 147 153 155 165 170 174 170 170 170 172 176 172 167 163 160 157 158 157 156 152 152 156 154 150 147 144 155 136 116 111 119 140 140 156 166 173 164 154 157 171 193 186 190 215 187 155 123 144 165 184 178 161 159 148 169 178 156 155 159 156 157 139 155 148 153 173 182 184 179 187 184 186 183 178 177 183 181 174 172 169 167 163 162 161 163 163 159 152 143 139 139 143 145 146 150 161 163 160 167 171 169 170 173 173 168 165 163 159 156 155 151 143 140 145 144 141 147 141 143 139 124 117 110 125 147 159 159 153 150 154 156 150 182 193 189 210 186 156 127 135 171 169 149 162 155 160 164 163 161 161 155 150 149 132 150 150 156 175 177 181 182 180 181 185 193 191 184 188 174 169 168 167 169 169 167 166 168 167 164 157 145 138 141 146 150 150 154 161 162 162 168 171 174 175 176 174 169 167 167 164 162 160 159 152 146 140 143 139 142 145 138 140 115 129 112 103 130 154 165 155 135 148 152 156 165 181 200 191 188 142 136 140 169 161 153 170 158 155 139 170 167 152 135 152 138 133 146 141 154 175 175 179 174 177 176 172 178 177 176 176 174 174 175 177 180 180 177 173 172 172 161 154 146 140 137 139 151 160 163 165 165 168 170 172 169 170 170 169 168 166 164 164 158 160 159 150 152 143 151 153 147 156 148 151 130 110 121 91 108 138 158 158 135 140 146 160 168 170 191 194 175 144 142 154 173 152 150 154 157 119 144 182 160 145 130 150 133 133 137 139 160 175 183 177 174 177 174 170 176 167 171 165 168 164 165 163 171 170 167 170 167 166 155 151 157 145 147 148 157 166 165 167 165 166 164 159 157 156 149 144 145 143 145 147 147 143 146 150 151 153 148 159 159 166 164 152 149 111 112 80 85 129 143 150 135 143 146 153 158 164 160 185 163 145 161 177 170 145 135 140 143 134 162 193 172 140 130 139 122 129 128 140 175 184 179 172 172 179 170 162 160 155 149 148 146 149 148 139 143 147 148 144 142 147 140 134 143 136 143 151 159 163 160 159 160 156 143 141 143 138 137 138 138 136 140 137 132 127 129 136 138 152 146 156 156 158 161 148 155 120 106 91 80 116 136 141 135 134 139 155 141 140 138 160 159 139 163 199 179 168 170 146 154 170 175 209 188 144 125 130 107 123 132 147 181 170 164 151 161 165 153 135 132 129 131 127 133 138 145 139 134 139 133 128 107 136 139 132 137 143 135 150 157 163 161 156 150 150 131 127 131 130 129 127 124 127 127 127 119 114 111 116 120 135 146 141 146 149 147 149 152 137 102 90 77 111 127 129 126 130 123 150 130 128 145 144 148 135 158 214 191 205 182 167 171 189 204 230 197 157 128 114 102 124 131 152 178 141 158 153 153 168 148 127 144 158 161 147 162 168 155 131 134 142 127 115 92 108 131 137 145 149 151 145 160 167 160 152 150 143 132 122 125 125 122 123 122 123 123 126 119 117 111 115 136 146 148 152 135 146 149 136 151 144 111 117 76 112 141 128 127 111 112 123 139 115 140 141 123 125 161 222 200 226 188 172 162 206 215 230 205 145 124 101 109 134 126 143 122 140 149 150 150 155 146 133 157 172 151 139 159 157 150 134 139 144 114 95 88 90 109 126 144 143 151 141 155 161 164 159 154 139 132 121 125 123 125 125 126 126 122 116 115 127 126 123 147 158 158 159 150 129 137 123 139 151 130 110 71 108 142 155 143 134 90 126 133 123 136 130 113 109 168 227 207 226 189 174 167 202 214 233 204 143 105 101 113 127 132 140 115 133 133 120 139 147 153 148 165 188 182 168 173 172 158 140 140 132 115 90 84 87 91 101 131 135 151 142 151 165 170 168 162 136 134 124 126 127 133 145 160 133 135 146 115 115 144 136 154 167 170 171 167 150 138 128 131 153 147 103 89 111 144 149 154 146 100 116 147 123 132 127 111 102 170 224 212 222 197 181 173 187 203 216 182 125 78 91 107 116 142 129 101 119 95 101 138 171 173 165 182 185 184 145 151 151 148 137 145 109 92 81 69 78 94 94 127 137 148 147 153 165 174 174 157 136 131 123 123 129 134 149 174 154 176 166 134 126 151 153 146 167 168 177 180 167 150 128 120 144 151 103 100 107 135 139 163 148 94 104 126 126 126 130 107 100 176 227 221 221 210 184 179 175 185 189 170 100 60 76 89 110 142 110 87 104 91 100 136 169 167 166 153 149 140 103 96 107 102 107 130 88 63 56 58 81 87 86 125 132 136 151 153 170 184 185 160 130 126 121 112 132 127 147 149 155 163 162 131 137 129 152 147 135 150 168 183 176 172 127 124 154 150 113 85 87 112 137 161 120 88 89 108 122 116 127 118 105 193 224 228 227 221 189 177 167 169 163 150 87 54 70 76 106 134 92 85 101 105 88 115 150 135 127 126 108 75 64 64 60 66 80 90 53 38 36 47 60 65 77 111 123 133 151 161 172 186 183 162 121 107 99 91 114 118 126 117 136 145 134 113 122 131 130 119 125 123 153 160 171 173 135 131 154 159 128 98 72 97 124 142 98 85 82 103 121 105 129 129 118 195 208 217 229 215 189 170 180 182 156 129 64 60 65 74 103 121 86 104 113 107 82 100 108 108 86 71 51 35 47 45 59 63 76 74 42 24 23 44 41 49 74 113 118 132 138 153 170 178 171 150 109 80 77 83 93 96 109 109 123 114 103 100 85 106 125 114 99 104 108 121 138 163 128 148 160 171 141 112 70 89 128 111 97 92 88 114 122 117 128 125 138 181 201 202 233 211 187 162 176 171 148 112 69 76 75 94 90 115 115 131 143 140 106 88 99 93 69 48 20 24 19 18 26 51 64 61 41 37 32 39 34 44 76 113 122 129 143 161 167 179 169 145 117 82 69 73 92 96 94 100 85 76 74 67 64 73 90 93 93 61 89 102 115 156 145 155 160 158 147 129 83 73 108 103 101 108 119 122 119 125 133 121 139 156 192 193 236 220 187 167 166 168 138 98 70 88 92 107 93 129 125 133 155 130 104 80 92 85 61 58 37 15 15 25 46 48 49 41 30 30 37 39 45 68 89 104 126 136 154 164 167 173 157 142 120 101 77 67 75 85 86 82 74 59 57 65 50 36 47 45 81 64 59 95 99 125 135 145 151 144 148 116 88 68 98 85 107 121 135 125 125 126 138 132 141 144 185 179 226 212 189 176 171 158 153 98 89 91 106 99 94 116 126 139 150 128 105 82 70 62 53 41 37 40 47 44 44 42 36 34 31 30 27 31 50 73 89 109 137 149 165 158 163 179 151 150 120 119 89 75 69 77 84 75 72 44 38 42 38 29 31 36 64 74 64 79 105 117 127 128 148 139 160 136 90 77 82 80 116 131 149 153 141 134 135 143 138 145 166 175 206 200 186 163 161 162 153 110 103 111 107 115 106 110 118 127 131 118 101 83 71 64 62 63 62 72 77 63 53 50 55 54 52 47 38 52 82 89 102 127 145 143 162 169 162 164 157 141 137 126 122 88 70 75 83 75 76 67 44 37 31 23 37 43 67 81 93 97 106 118 122 129 146 148 169 157 112 87 84 98 120 138 161 190 142 138 137 144 121 152 158 182 183 192 175 149 148 139 142 119 110 128 126 122 117 116 131 117 127 114 115 106 98 81 71 87 90 81 77 69 70 70 81 73 69 54 59 64 85 105 113 154 154 161 167 167 167 161 163 147 153 132 144 119 95 100 99 86 81 75 65 55 43 31 34 54 76 90 104 108 119 124 120 126 139 155 167 157 126 83 90 105 115 157 162 193 127 138 143 142 109 138 143 179 158 190 152 132 123 118 120 122 101 132 155 130 128 115 132 126 131 119 123 119 114 107 107 111 116 98 81 84 80 81 87 80 67 62 74 76 95 118 139 168 175 174 179 169 174 171 161 159 152 151 152 152 145 119 125 118 101 83 78 68 56 49 48 63 77 94 113 124 129 135 126 132 146 169 168 159 131 91 108 102 132 169 153 174 105 131 150 140 107 130 133 180 149 199 142 136 129 103 117 114 100 115 152 139 137 124 139 142 148 140 132 133 137 141 139 139 133 117 105 107 108 102 96 96 90 92 92 102 113 130 163 176 180 173 175 175 179 182 163 165 172 178 164 175 180 171 140 140 126 110 99 93 87 76 84 81 93 110 123 137 146 144 144 146 156 173 168 163 137 105 114 107 146 154 152 155 99 127 145 138 108 127 128 173 146 194 134 130 123 105 114 115 95 107 138 136 132 136 137 156 155 153 152 140 150 151 142 143 141 131 122 130 123 117 111 117 106 105 117 127 141 154 171 186 183 173 164 167 174 171 161 169 168 188 178 165 186 191 164 152 147 138 122 118 121 112 114 106 110 129 138 143 155 160 155 152 158 175 166 171 142 124 113 115 146 161 156 155 111 114 136 128 112 126 132 150 142 160 128 105 121 104 125 122 99 99 136 139 130 147 142 160 155 159 154 149 142 142 136 136 135 133 136 137 126 123 124 131 132 145 147 146 162 163 168 188 181 177 170 168 168 171 174 167 177 192 194 178 176 184 182 171 160 152 141 141 141 139 133 137 132 147 150 157 168 175 166 156 164 174 169 166 145 140 123 123 151 173 167 158 124 108 140 126 117 133 118 121 147 130 113 86 106 111 126 122 109 106 128 140 130 144 139 153 154 154 149 156 138 138 132 129 135 137 144 141 132 130 133 142 159 161 149 154 161 157 176 182 186 173 171 163 158 159 168 159 175 186 203 200 191 177 163 168 175 158 157 160 159 157 152 160 156 161 172 174 173 176 168 168 175 177 167 168 152 135 138 136 154 145 156 160 116 109 143 127 119 140 115 98 144 116 103 86 115 121 123 116 110 112 120 135 133 140 143 145 150 143 160 160 152 147 139 133 139 141 141 140 138 133 143 160 162 158 151 156 162 161 168 178 190 176 163 159 160 155 170 170 170 173 184 205 201 176 158 160 167 160 161 158 166 167 160 169 167 169 170 170 168 168 169 169 174 174 172 167 158 142 141 122 134 130 142 152 99 123 138 133 120 151 118 105 145 100 86 99 125 135 140 119 115 113 118 130 136 133 149 140 153 160 160 169 163 150 138 137 139 138 139 137 141 143 163 161 155 151 151 160 172 180 176 180 184 176 153 149 153 148 160 176 174 177 185 198 195 183 167 164 162 162 161 154 157 157 161 162 166 164 163 167 171 177 180 173 165 172 168 165 161 148 145 114 119 123 149 117 97 128 127 140 122 145 121 104 126 93 75 102 126 143 145 122 120 123 116 127 130 132 135 143 151 158 167 170 157 157 144 141 142 142 148 142 147 151 160 154 155 147 146 160 173 176 179 180 179 174 142 144 135 135 149 169 165 171 179 186 179 175 166 160 163 153 155 151 146 149 154 155 155 159 163 168 166 174 182 169 165 163 173 160 166 149 141 130 118 127 137 99 103 122 130 133 119 137 112 98 119 95 76 91 117 148 134 134 122 125 116 123 122 130 129 140 149 156 161 163 160 160 153 142 139 141 142 136 136 147 158 153 148 136 149 164 171 175 176 176 172 173 145 132 129 123 142 159 153 160 178 184 178 163 160 156 160 147 143 146 140 143 151 151 146 155 166 162 161 167 165 169 154 165 180 154 163 153 148 136 116 116 117 107 120 127 127 124 107 142 127 93 103 93 100 93 123 153 143 131 134 134 114 123 123 134 139 141 156 166 168 168 154 159 154 143 143 137 134 129 141 141 149 145 142 150 162 163 162 162 159 154 169 165 144 129 130 124 136 133 134 141 169 177 173 167 153 154 156 151 136 136 137 134 137 140 141 150 171 168 163 164 155 155 160 169 172 149 159 145 147 130 111 106 113 127 149 123 128 113 117 139 148 93 84 86 108 96 122 151 148 133 132 138 118 118 128 134 144 150 154 169 170 178 166 169 162 147 145 139 131 134 142 142 137 144 145 145 164 168 164 161 160 157 148 152 136 127 133 122 131 124 128 139 153 155 146 152 148 145 146 140 134 128 126 130 125 121 126 135 154 162 162 161 152 154 166 174 164 140 158 137 143 123 129 116 123 156 157 134 131 111 115 138 150 116 77 83 118 112 137 164 147 138 144 147 123 121 136 139 148 160 163 172 179 162 146 150 150 142 133 128 128 137 141 134 128 127 142 146 159 163 148 144 139 146 139 133 132 124 130 125 122 111 114 133 134 141 145 150 141 142 148 137 130 123 129 118 119 119 127 133 149 148 155 157 153 156 171 176 149 138 154 140 150 123 147 139 127 180 164 150 127 108 120 137 141 138 82 77 98 122 140 159 148 130 134 156 130 124 135 138 153 164 169 169 170 163 154 152 157 144 136 134 137 142 139 133 130 124 152 168 167 163 138 132 126 133 132 131 129 122 116 111 113 103 104 115 133 151 153 156 149 150 149 141 132 125 124 120 118 115 122 124 138 155 157 159 160 160 167 173 140 141 153 148 132 136 167 146 138 200 169 149 125 115 120 131 130 150 95 75 69 135 141 154 152 132 142 162 135 125 135 147 157 169 172 169 168 168 159 161 163 157 151 159 159 158 151 134 136 137 165 182 173 144 133 125 125 119 112 111 113 114 108 97 99 103 102 118 129 143 158 152 150 147 141 132 124 125 127 132 124 121 123 119 130 142 145 158 160 159 162 168 143 150 155 148 131 141 174 147 167 192 175 153 120 116 124 132 131 154 107 71 54 119 156 146 159 146 157 161 139 131 134 150 160 167 169 167 159 164 162 173 174 168 164 171 166 163 157 154 150 173 188 185 175 143 134 122 120 108 107 109 106 103 98 104 98 102 110 119 131 140 157 160 160 158 150 146 132 133 139 140 140 133 125 130 124 136 138 152 153 155 159 158 149 157 152 148 133 147 171 168 180 189 174 150 121 124 123 133 145 141 115 79 52 72 163 144 165 153 164 162 147 137 141 155 159 165 165 167 158 166 173 184 185 176 177 176 172 157 148 157 171 187 207 190 170 158 146 143 143 127 122 121 107 101 101 102 105 105 127 128 138 147 156 171 168 159 148 144 136 138 136 140 136 129 125 129 129 133 146 149 149 154 155 150 149 169 150 149 145 168 185 185 190 188 173 147 125 126 122 129 145 141 129 88 68 66 150 161 169 170 169 180 154 150 144 158 161 162 162 160 156 167 180 191 184 184 192 187 176 161 160 174 197 206 215 206 185 177 176 174 174 161 145 136 119 108 111 108 114 114 134 147 151 161 171 180 171 168 167 155 149 146 140 143 136 131 129 128 131 132 144 153 148 150 155 145 156 181 162 159 167 199 187 195 199 186 163 143 130 122 121 117 136 133 133 113 74 73 133 168 184 178 179 207 156 158 144 159 164 162 158 158 156 172 182 187 182 186 196 187 176 173 184 202 206 212 209 208 201 187 191 193 202 188 175 161 147 133 131 125 130 132 145 168 179 189 194 196 180 177 172 162 153 151 144 136 128 125 129 134 130 141 146 157 151 151 158 151 153 178 173 178 182 200 190 196 206 187 161 146 128 119 116 117 117 125 124 125 87 74 123 175 195 196 196 223 168 164 147 154 163 163 159 160 161 169 180 187 185 187 192 184 179 184 207 204 204 206 205 206 205 197 192 197 210 203 190 174 162 154 148 147 150 158 162 185 196 198 200 191 171 167 163 156 150 148 142 127 123 118 120 135 134 138 141 157 147 154 153 152 150 171 181 178 185 200 207 209 204 191 153 147 123 117 107 112 110 120 119 117 117 77 116 175 201 224 223 228 176 159 155 154 160 163 165 166 167 170 181 189 191 191 190 188 189 197 202 199 194 195 205 203 208 205 208 211 215 220 215 192 173 169 174 172 165 174 175 194 193 184 198 186 173 161 154 151 143 142 135 132 127 125 115 131 138 138 144 158 151 156 156 156 154 174 188 186 193 206 217 220 212 182 152 132 114 120 113 105 105 109 110 117 118 111 125 168 206 242 237 229 193 163 160 153 164 174 173 178 182 183 187 194 197 196 200 202 197 205 198 194 189 194 205 204 208 203 202 209 208 205 196 181 162 163 164 168 172 169 164 181 177 168 183 175 176 169 157 151 138 131 131 128 139 135 116 128 142 143 149 161 152 165 155 160 166 184 202 198 191 207 208 221 210 168 157 121 112 120 124 102 102 103 101 114 123 126 144 174 216 250 243 236 200 166 167 157 164 180 183 183 188 192 199 197 207 202 211 218 199 211 201 200 189 185 196 196 207 190 191 209 195 183 168 163 146 142 147 152 156 153 158 162 164 158 158 156 168 171 166 152 141 127 125 129 142 135 117 126 141 145 149 153 151 163 155 160 182 185 202 195 182 208 200 208 197 169 154 122 113 118 127 107 108 103 98 110 143 140 150 179 205 238 252 237 212 170 170 165 164 186 189 198 195 193 200 206 213 216 229 229 212 210 196 194 187 184 184 185 186 187 177 185 181 176 173 159 150 154 156 164 162 160 161 162 162 158 159 160 160 158 156 149 141 127 124 120 131 134 123 124 136 147 149 155 156 158 153 163 181 177 200 180 174 192 201 193 174 161 141 124 120 122 131 112 115 102 98 109 137 162 156 182 218 221 239 229 213 181 180 173 160 182 190 200 197 194 199 208 212 220 230 224 217 204 196 189 189 181 180 176 172 170 151 165 164 167 161 151 152 162 165 168 161 153 155 163 165 164 172 167 162 154 140 144 136 121 112 117 123 126 126 130 137 150 146 155 163 153 155 167 167 169 191 167 174 183 185 174 158 147 133 119 124 129 133 113 118 105 106 114 132 159 181 196 221 216 231 221 208 189 192 176 168 180 187 193 196 198 196 206 204 218 218 210 203 183 178 179 183 180 169 169 152 143 140 156 146 147 150 152 156 161 154 162 150 147 148 151 163 163 175 169 162 158 148 138 124 110 116 112 118 116 126 129 148 148 154 158 163 152 154 165 154 167 179 148 166 168 165 155 147 146 128 119 127 135 138 116 118 112 110 117 125 151 187 209 229 217 226 219 200 195 192 180 158 169 185 179 184 184 185 180 184 201 208 189 174 159 154 156 154 160 141 131 132 132 143 149 150 164 167 161 156 153 149 147 143 136 134 135 144 145 156 159 158 157 150 148 135 113 114 111 119 111 115 123 145 148 152 157 164 151 148 157 154 166 161 130 157 158 147 143 147 145 119 120 131 137 138 114 113 117 113 122 124 148 176 206 230 228 223 220 208 194 199 178 158 160 174 175 175 171 172 169 177 194 207 187 174 162 144 139 135 132 123 117 120 119 125 140 137 147 155 154 156 138 135 136 125 125 120 112 123 126 140 144 160 165 161 162 149 127 112 103 117 103 119 116 143 147 147 159 159 144 131 141 145 155 147 128 133 136 137 143 152 136 106 123 132 140 134 115 113 118 110 120 122 141 169 195 222 237 229 224 212 197 202 176 157 154 164 167 166 163 169 171 173 187 200 188 177 156 142 129 134 126 132 129 134 124 116 129 136 149 147 143 142 129 133 140 135 131 127 133 136 137 146 154 165 167 167 166 156 133 126 108 113 109 110 122 141 144 141 154 147 135 127 137 144 137 121 123 122 129 146 140 148 129 100 120 127 135 140 114 116 114 109 119 130 136 160 190 212 236 227 220 210 197 198 184 150 145 162 161 162 159 166 178 182 198 197 194 176 156 143 139 136 145 162 151 136 148 162 155 165 171 167 156 151 150 149 158 155 151 156 151 156 165 165 168 171 172 174 175 162 144 134 120 106 111 113 125 143 143 141 145 144 123 136 143 145 118 114 123 121 128 154 147 147 126 106 110 127 132 139 117 117 113 113 126 130 137 172 191 204 228 226 218 203 195 182 179 143 153 158 150 165 161 168 180 184 206 199 203 191 174 172 168 165 182 194 185 174 174 173 171 181 174 174 159 156 154 163 170 172 166 161 161 161 167 163 165 173 180 184 177 161 152 139 134 111 114 117 125 136 139 137 142 132 121 143 141 135 118 119 133 124 132 151 157 143 125 111 106 125 131 136 121 118 120 123 130 127 164 185 189 199 226 221 212 202 199 193 187 150 153 157 146 160 166 177 185 186 209 206 209 197 193 187 191 195 208 225 222 203 200 188 177 180 174 168 144 147 145 147 154 162 141 133 127 135 141 150 159 162 175 178 180 168 152 141 131 114 114 114 128 128 136 138 130 121 130 145 140 119 121 128 136 133 140 148 153 140 131 124 110 120 131 137 124 124 126 130 130 154 180 181 184 202 217 217 204 203 204 202 189 171 159 145 154 149 155 175 184 186 199 193 202 189 178 169 191 196 211 219 226 211 211 192 188 172 166 161 137 130 133 128 122 125 120 121 120 121 128 135 162 166 175 178 175 169 158 142 133 113 115 114 124 132 139 129 116 112 139 137 130 119 124 133 140 141 147 158 145 136 141 132 118 125 134 139 130 131 132 127 147 184 178 177 177 196 210 210 200 202 209 212 199 186 159 155 163 149 149 172 184 186 191 193 187 175 161 160 175 185 188 201 209 204 206 198 186 175 161 164 148 136 133 128 126 123 131 127 125 126 137 144 157 168 174 178 173 163 146 147 136 116 109 118 125 128 139 112 105 107 138 135 119 120 125 138 144 144 151 157 140 142 146 142 120 122 140 139 139 136 133 143 182 186 176 175 173 185 207 209 187 201 205 219 202 185 169 160 165 169 157 176 183 186 191 195 185 168 159 167 169 182 172 181 189 190 191 194 192 177 165 149 143 130 135 139 134 137 130 137 135 135 143 148 152 166 169 168 162 152 130 135 128 115 100 110 110 126 117 105 104 104 128 143 115 122 132 139 146 144 153 149 136 146 149 145 123 121 142 143 144 135 137 173 192 188 177 177 170 175 207 204 187 190 201 217 202 187 172 160 167 160 161 171 173 181 192 194 187 175 158 170 184 190 187 192 185 189 193 195 189 176 155 140 138 127 136 137 135 136 135 127 130 132 141 148 147 158 155 149 142 132 122 116 119 108 98 101 107 114 101 98 97 89 128 143 116 130 133 138 148 148 147 142 141 150 147 145 119 117 139 151 138 133 168 191 197 190 176 179 169 166 197 200 186 182 193 211 198 185 173 168 168 162 159 158 160 169 180 176 173 154 148 154 168 184 190 194 194 200 207 209 198 184 172 154 149 142 138 135 140 144 138 139 140 150 157 155 149 154 141 138 129 121 108 108 102 100 89 95 107 100 89 95 73 89 130 124 121 132 136 138 146 156 148 139 144 152 143 146 127 121 133 148 139 161 194 192 198 186 181 179 175 160 189 191 176 171 183 190 185 185 176 167 167 162 153 156 152 156 165 165 161 153 140 147 157 168 175 174 185 196 202 204 194 183 180 169 164 159 157 151 153 149 150 153 155 159 161 163 150 145 133 134 115 111 102 95 92 88 86 93 97 86 85 88 61 86 151 118 118 135 140 139 138 151 163 149 140 155 140 149 133 122 129 141 166 187 195 196 195 182 187 183 172 154 173 178 164 170 172 172 174 183 177 168 164 162 151 156 151 146 147 146 148 149 145 152 158 154 154 169 182 191 191 191 187 179 177 169 168 160 152 149 147 143 142 151 152 156 157 161 148 143 126 121 108 98 90 93 85 80 86 92 88 80 72 78 53 100 155 123 131 138 140 143 138 145 180 171 155 155 154 158 138 130 125 134 205 201 207 210 201 187 198 188 171 162 162 166 159 167 158 161 157 173 178 166 173 173 157 159 156 155 146 139 144 140 142 141 143 142 149 161 174 184 187 189 181 171 162 157 154 152 144 144 141 138 144 145 146 155 154 155 151 136 131 111 107 94 91 87 86 77 85 89 80 73 70 73 51 111 145 127 135 147 144 147 148 162 189 214 186 174 170 176 154 150 141 140 209 202 214 219 195 192 212 190 173 177 165 158 148 145 137 148 153 162 168 172 162 177 169 168 160 162 150 146 143 139 136 134 137 134 144 163 171 178 180 190 185 177 168 160 156 151 144 149 149 148 157 152 148 150 148 145 140 134 121 111 95 94 90 88 92 80 83 75 72 66 74 66 64 120 131 128 141 153 145 130 141 174 189 214 222 196 187 193 176 168 165 158 227 231 243 233 209 219 232 201 187 192 177 155 131 125 119 133 155 158 161 164 159 180 181 177 179 176 169 157 155 145 142 143 150 146 149 162 167 161 171 179 171 174 171 169 159 162 155 160 156 160 162 152 151 146 142 139 134 124 111 103 95 91 88 83 91 79 81 67 73 66 78 62 82 124 121 125 147 148 141 125 132 174 191 205 223 220 201 197 178 173 173 168 233 242 246 226 208 243 248 211 197 197 183 149 123 107 108 122 156 154 153 159 160 180 186 188 195 190 187 178 174 164 149 156 165 168 170 176 176 176 174 173 166 171 169 175 169 169 171 165 162 159 159 150 149 146 142 140 125 122 109 108 92 94 91 77 86 81 70 64 70 70 73 71 88 114 108 125 143 152 128 122 125 172 188 201 214 227 225 201 181 178 175 169 240 244 243 215 205 254 249 217 193 192 198 156 111 98 101 115 153 151 146 156 143 165 185 191 192 199 198 193 189 185 175 174 178 180 180 182 189 185 183 183 179 183 176 173 171 169 171 161 164 155 151 147 147 140 143 134 122 116 106 101 97 90 86 77 78 82 64 70 69 74 65 73 98 109 92 127 136 157 113 110 130 169 188 187 201 219 237 210 185 174 174 175 244 242 240 211 207 255 239 211 191 194 205 160 113 93 96 109 149 145 141 153 134 156 176 184 174 192 200 197 199 199 196 190 194 193 195 197 194 190 186 184 185 185 180 179 177 169 168 162 163 155 153 146 139 139 131 120 122 106 100 96 87 88 83 78 78 76 67 71 74 70 70 83 104 112 90 110 132 148 97 98 123 161 167 174 186 212 230 219 196 182 176 170 245 243 232 211 203 245 226 201 183 204 209 158 125 82 89 102 145 143 136 144 129 157 174 173 170 180 188 194 203 204 199 197 200 202 198 194 189 191 183 182 184 181 181 177 174 169 164 161 157 147 148 139 127 127 116 106 103 93 82 84 77 81 75 75 82 76 68 78 76 67 80 91 103 105 92 92 113 119 104 90 107 146 154 160 170 206 221 217 215 202 194 176 248 243 222 202 203 238 221 187 180 197 196 160 120 106 78 102 124 130 130 132 128 159 176 165 164 176 176 184 191 196 195 193 200 195 194 193 185 187 183 177 178 174 174 169 166 162 155 152 149 141 136 133 120 110 97 89 83 74 70 76 65 66 75 73 83 80 77 73 75 69 78 85 97 102 76 102 96 96 101 98 96 136 160 149 178 205 225 217 222 217 211 200 245 239 208 204 206 235 210 171 175 182 178 155 126 96 100 109 100 111 116 136 130 154 169 168 155 173 178 169 178 186 192 190 192 190 185 182 179 174 170 159 164 163 160 153 152 144 139 138 132 128 122 115 105 95 86 73 69 65 64 62 63 70 69 78 72 81 82 80 77 75 77 85 88 103 65 103 82 70 91 107 104 127 156 159 180 201 218 226 215 224 215 207 242 236 212 203 207 226 181 158 172 169 157 140 132 100 102 110 110 90 115 131 131 157 168 164 161 174 175 175 173 171 179 182 180 176 174 174 169 161 152 149 147 144 146 136 131 125 123 119 117 112 105 97 86 79 72 64 57 54 61 60 68 72 73 77 77 82 89 93 79 80 85 80 100 111 63 82 60 41 73 106 110 116 141 163 174 190 208 225 220 219 219 215 234 233 202 191 194 202 163 150 163 158 132 113 158 94 87 117 110 90 101 116 134 152 167 168 165 173 185 178 177 165 162 168 168 160 157 161 155 148 139 131 128 123 127 118 113 109 107 102 101 93 88 79 67 65 56 54 50 56 58 63 73 73 76 76 75 77 87 95 90 81 93 87 100 112 64 54 51 38 63 95 94 116 125 159 171 178 197 215 221 210 218 214 208 212 174 164 175 171 147 139 137 134 85 126 155 81 93 119 95 102 91 103 126 147 163 175 169 167 186 178 173 170 162 158 153 148 142 141 140 134 130 114 107 112 106 105 96 95 93 86 82 78 73 63 57 53 52 53 57 64 65 73 74 79 79 72 74 76 82 92 100 79 106 87 99 111 56 32 54 43 51 79 87 91 105 142 160 174 180 198 210 195 208 213 188 190 151 158 161 143 125 116 111 94 76 122 132 92 90 113 87 83 96 110 110 137 167 185 171 166 175 175 182 171 165 163 148 136 128 125 127 123 118 108 100 94 91 88 83 79 77 72 65 61 55 53 52 55 53 58 64 71 73 73 79 76 75 66 72 87 86 95 105 93 111 90 103 96 45 38 46 43 44 61 74 77 92 99 140 162 161 182 190 190 188 196 174 161 131 141 139 122 94 98 79 68 76 107 111 98 77 101 65 74 89 111 96 127 166 186 177 169 170 167 175 179 170 162 154 139 125 118 113 108 106 98 92 86 77 68 63 64 55 60 56 55 60 56 61 60 54 68 74 79 75 73 77 73 70 65 76 82 85 91 97 113 121 99 102 98 33 37 40 56 33 47 56 65 86 98 119 139 148 173 190 201 191 190 159 138 121 121 106 93 66 59 54 75 75 66 102 99 75 79 59 72 83 106 91 108 168 183 193 170 173 174 172 177 175 168 161 152 145 131 123 109 104 98 90 86 79 69 64 59 58 58 60 65 67 64 67 65 68 77 81 83 74 76 74 74 70 69 77 88 95 92 100 129 135 111 87 84 49 33 36 56 29 30 35 50 67 93 103 115 141 150 182 197 193 192 131 97 98 88 86 58 32 58 61 53 45 44 84 90 74 66 45 59 60 104 91 84 155 183 201 180 186 188 180 181 180 170 164 165 160 149 140 129 126 115 106 96 88 83 77 74 75 73 72 70 69 71 75 75 74 83 81 78 80 80 77 79 69 74 91 96 91 90 100 124 130 106 83 68 45 36 55 49 27 26 27 34 36 84 79 101 126 131 157 181 183 184 110 68 69 77 55 42 32 56 46 30 0 21 65 93 74 61 38 37 50 91 94 85 135 175 189 188 196 212 194 191 183 177 175 170 176 172 165 152 147 137 127 113 104 98 87 83 79 77 78 80 79 81 81 78 78 82 78 82 80 83 80 78 75 77 97 88 84 91 121 123 121 113 82 65 39 29 76 51 28 36 24 34 15 54 79 98 113 134 141 169 179 183 