P2
92
112
255
131 131 134 133 134 133 137 134 136 133 135 132 130 129 128 130 128 128 125 120 124 131 124 124 131 130 139 141 143 144 137 141 139 135 138 129 132 128 124 123 122 122 114 109 102 98 94 87 80 82 82 80 80 84 85 90 99 97 108 111 111 110 112 113 111 108 116 123 121 120 117 120 120 123 125 129 128 126 127 127 129 131 130 129 130 132 131 134 132 132 133 130 132 132 133 134 131 135 134 134 137 137 132 130 128 130 130 128 127 126 121 119 118 121 125 134 137 139 136 139 135 140 139 136 139 138 138 135 132 139 130 120 128 120 110 103 103 96 84 83 66 64 71 72 70 73 74 78 85 89 100 108 108 106 110 116 113 111 109 117 121 126 122 123 128 121 125 126 126 125 126 125 128 125 131 129 130 129 130 131 132 132 132 130 132 133 133 133 132 133 135 137 136 135 131 128 129 125 128 127 126 121 115 113 119 124 133 134 134 138 144 144 140 147 152 149 154 154 150 147 151 148 137 131 129 120 111 109 104 101 90 77 67 69 68 66 60 62 65 74 70 74 83 90 93 110 107 110 111 117 119 113 115 116 123 124 128 132 123 121 124 126 126 122 127 124 128 131 128 130 128 132 133 131 131 132 131 133 132 131 132 136 134 133 131 129 125 126 121 122 121 128 118 110 111 111 121 128 132 131 145 147 153 149 149 155 158 170 170 166 168 162 166 155 152 145 135 129 124 116 113 115 95 91 80 75 69 58 48 52 52 62 65 67 71 76 79 94 105 102 109 116 113 115 118 116 113 119 121 133 135 121 114 124 125 125 126 129 124 129 128 128 129 130 132 129 130 130 133 134 131 132 131 131 133 129 125 129 123 120 120 118 118 113 108 104 104 107 119 126 136 140 146 150 150 157 163 174 173 178 173 179 172 171 169 164 152 155 150 141 137 124 129 110 97 97 75 81 70 62 50 44 44 50 55 57 50 68 70 81 89 93 103 110 99 114 119 116 114 117 122 122 137 133 123 118 122 129 127 129 126 127 126 127 130 130 130 131 131 131 132 132 132 131 133 131 129 126 122 124 114 107 116 109 109 105 98 100 108 119 127 131 133 139 146 140 155 170 170 167 165 171 167 174 169 159 164 163 152 152 148 146 142 134 123 110 103 98 92 90 83 70 62 58 56 55 49 43 34 41 52 60 69 76 84 92 88 103 114 110 114 123 122 118 122 129 124 127 123 126 131 128 128 126 128 125 132 129 128 128 132 132 130 135 132 132 130 128 125 121 117 111 113 107 109 100 99 93 98 99 120 126 125 124 136 137 139 151 151 157 150 145 148 158 155 155 151 154 151 146 147 146 149 149 137 139 122 110 109 106 97 97 94 79 75 72 73 63 54 49 39 41 41 45 51 50 66 72 70 80 90 103 110 117 118 116 115 115 120 133 128 119 125 136 130 129 125 124 127 129 126 126 131 128 130 132 132 133 127 122 119 119 116 109 108 103 95 91 88 89 109 115 131 129 123 127 137 140 145 141 134 135 132 138 142 140 138 138 136 141 139 135 128 135 141 142 136 131 121 117 117 113 103 98 93 85 74 73 79 68 64 59 45 48 44 44 36 40 55 49 55 59 69 86 98 104 118 121 120 109 114 125 129 115 118 130 132 129 123 128 128 124 126 127 127 130 132 131 129 126 122 117 119 114 112 105 102 95 90 89 91 103 119 127 129 123 123 133 141 135 125 126 130 128 124 121 130 127 123 126 127 123 125 124 123 125 128 127 119 122 117 114 117 112 101 92 87 89 77 74 74 72 65 54 53 56 50 48 40 35 44 39 44 47 57 70 85 101 115 112 121 112 110 120 123 116 115 121 125 128 124 124 128 122 126 129 127 131 132 129 127 122 115 113 116 115 104 107 98 92 91 94 106 115 123 125 117 114 125 136 132 118 118 126 124 123 118 120 127 119 123 126 115 114 116 116 119 121 121 119 111 110 114 108 110 105 100 90 92 87 82 78 74 69 68 59 55 51 41 42 44 45 49 45 39 49 59 61 66 90 105 110 110 122 122 121 115 118 120 125 125 124 131 125 128 124 127 127 131 129 132 125 120 117 113 118 114 105 106 105 102 97 95 110 117 123 127 116 111 120 129 123 115 115 126 124 116 117 115 119 124 118 119 115 108 107 110 114 108 106 104 105 104 109 115 111 104 100 102 96 91 91 79 72 69 61 61 59 51 45 41 43 46 45 47 45 37 40 47 55 59 71 92 103 104 114 121 127 118 121 122 125 129 129 133 134 132 127 127 130 130 128 128 121 118 118 115 116 111 107 105 109 106 106 114 126 132 129 119 114 114 123 128 113 109 120 123 124 123 119 125 118 120 111 104 102 104 105 108 109 100 110 107 105 102 108 112 106 106 107 103 100 98 89 81 77 69 62 60 55 46 40 34 36 40 41 31 38 36 31 34 44 44 51 62 81 98 101 113 124 128 130 122 118 121 132 133 132 135 128 133 129 128 130 120 116 118 117 115 110 111 109 106 106 111 126 139 141 135 122 114 116 123 128 121 112 116 119 120 126 125 117 112 101 97 96 95 92 95 95 103 105 99 115 112 107 105 103 109 113 116 116 106 104 98 96 86 81 74 69 59 48 41 40 35 32 38 31 25 30 35 34 33 36 46 39 40 56 78 99 93 107 137 134 124 123 123 127 133 133 131 126 129 128 126 126 119 118 118 116 113 113 111 114 112 115 128 138 155 140 130 119 115 126 134 122 110 112 118 127 127 125 109 97 93 91 84 93 95 91 94 98 108 108 106 110 109 109 112 112 116 116 120 119 118 112 103 99 95 89 84 73 64 56 45 42 36 33 33 29 20 28 30 37 39 41 31 44 42 48 54 75 91 97 121 135 132 130 130 127 130 136 135 134 129 126 129 125 120 124 119 113 119 115 120 112 116 132 135 159 155 138 133 125 130 138 127 114 103 117 126 133 120 114 93 87 84 88 86 89 98 97 94 101 111 109 112 109 114 114 117 121 128 129 131 133 129 130 113 108 114 101 95 89 74 68 60 51 43 44 40 38 28 29 35 37 37 42 42 41 46 37 46 57 70 100 101 127 136 134 134 128 128 140 141 140 136 121 127 128 123 129 120 116 119 121 128 120 130 146 154 167 148 136 131 136 145 131 128 104 109 123 124 119 101 89 85 80 83 80 84 90 98 102 100 104 112 113 115 122 127 130 137 136 144 143 149 149 145 144 145 129 124 113 110 100 91 84 74 67 54 50 48 45 35 34 37 43 41 40 38 39 44 39 44 50 62 79 102 109 135 137 138 139 131 146 151 145 140 132 127 128 124 133 120 114 126 131 136 134 142 155 172 160 147 140 143 151 148 131 119 111 117 121 106 95 88 76 83 76 79 79 81 89 90 93 100 113 118 129 133 140 149 152 151 153 160 161 165 157 159 160 161 160 147 139 130 122 110 104 98 92 83 72 73 64 62 54 46 51 46 49 43 41 42 32 44 49 56 64 96 114 122 138 144 151 144 139 149 149 146 138 136 138 128 130 124 117 128 139 141 145 150 164 164 158 154 144 153 159 148 137 121 112 119 105 85 80 70 75 71 72 73 72 73 86 94 108 115 137 138 146 156 158 163 164 164 172 172 178 177 176 176 179 179 173 166 161 146 144 133 127 125 116 113 104 103 90 94 85 78 72 63 59 54 49 44 36 43 54 53 72 76 108 123 131 140 152 157 150 141 155 149 148 142 138 130 132 123 130 140 139 146 150 161 170 159 151 151 151 167 168 144 129 122 116 102 88 74 71 67 72 72 77 74 71 81 96 105 113 132 149 156 155 166 171 172 170 175 180 183 187 187 186 183 186 187 182 183 179 173 169 161 152 146 138 135 123 126 115 111 103 94 87 78 74 67 60 54 39 43 52 55 68 76 93 116 128 143 149 162 153 150 152 160 150 147 141 128 126 138 134 139 141 147 165 172 170 143 138 157 158 176 162 136 130 122 108 93 75 71 65 62 67 68 75 73 84 88 103 116 125 141 151 162 165 172 173 175 176 186 187 189 188 193 197 191 192 191 186 193 192 184 186 182 174 170 165 156 149 140 136 129 128 117 103 101 82 81 73 69 44 40 55 54 69 83 84 98 121 136 149 155 150 149 152 163 153 151 146 133 137 139 136 135 144 160 170 171 159 148 145 159 170 172 152 132 117 110 95 83 70 63 58 58 65 69 78 86 99 98 111 127 135 148 151 164 173 177 177 179 181 188 195 194 194 193 204 198 198 198 200 199 196 201 198 199 196 187 185 176 174 162 157 141 143 130 123 114 104 92 87 86 66 51 49 58 72 88 82 92 117 124 149 151 141 143 151 154 162 152 147 135 139 137 140 142 151 160 172 167 148 145 151 164 164 164 138 124 108 100 85 66 64 50 60 67 71 74 87 98 110 109 119 128 143 146 153 162 166 171 176 178 185 191 194 195 198 199 204 208 206 200 207 206 203 210 209 207 207 202 198 189 191 181 174 165 154 146 136 125 115 97 93 95 81 64 50 57 70 87 93 94 107 118 142 151 142 141 143 147 157 154 144 138 141 146 144 148 159 178 176 161 143 142 158 157 164 158 129 112 101 86 75 67 61 60 73 75 74 95 103 110 118 115 124 132 139 145 153 160 160 166 169 170 181 189 193 198 198 199 205 209 205 204 205 203 208 212 211 208 207 207 203 196 192 187 180 175 171 159 149 136 125 109 96 91 87 74 59 60 72 86 95 104 105 110 139 164 140 137 138 146 141 152 144 136 146 145 145 162 169 184 162 149 139 149 153 157 165 145 116 108 93 76 71 71 75 75 81 84 91 113 121 124 125 123 129 127 137 143 148 156 161 161 164 165 169 176 177 187 189 192 201 201 195 201 198 199 200 206 203 203 201 199 200 193 193 189 184 175 174 166 161 148 137 126 111 98 89 76 69 65 70 85 105 104 105 110 136 171 158 135 135 145 135 149 147 136 146 140 152 166 166 161 137 145 151 150 148 163 159 137 115 106 86 64 68 80 90 87 88 105 114 127 136 134 134 132 136 135 138 145 144 152 163 158 160 163 164 169 169 176 177 177 182 184 188 192 192 189 193 197 197 201 192 192 190 188 184 183 181 175 170 168 159 159 146 137 122 114 103 91 78 73 67 86 104 106 108 112 132 169 167 146 131 133 136 146 148 140 136 137 147 151 157 139 136 144 155 149 151 165 149 132 110 96 66 61 78 94 100 100 106 127 134 136 142 140 142 137 139 135 137 142 140 146 155 152 152 156 159 162 160 166 166 168 168 174 176 182 182 182 184 190 190 191 185 183 179 177 176 173 174 171 164 164 155 146 154 141 129 119 106 100 87 77 73 82 101 123 102 117 133 165 169 144 130 135 130 141 152 143 133 133 144 144 141 136 132 136 144 148 153 156 132 122 98 79 65 81 93 104 111 110 127 138 140 140 141 140 142 138 132 130 132 136 138 141 145 150 148 153 150 154 154 160 159 158 159 165 169 168 168 171 172 176 178 174 174 173 169 170 167 165 169 162 159 149 140 141 144 139 137 123 110 101 90 73 76 76 98 122 109 123 148 170 172 152 135 126 129 132 147 137 134 135 140 136 132 134 126 129 137 135 145 148 137 108 92 75 75 95 99 115 115 127 135 135 138 138 135 134 130 131 128 130 128 126 128 129 139 142 142 148 147 149 151 153 153 154 150 155 154 157 158 159 154 159 163 160 159 155 156 157 157 153 158 154 149 141 129 132 134 136 140 128 115 103 98 73 72 74 92 118 113 130 157 178 180 150 141 124 122 134 136 133 135 136 137 135 128 124 131 129 133 132 145 148 128 106 84 81 89 94 105 117 121 134 132 139 139 130 123 118 121 126 124 129 118 115 121 118 129 129 135 135 137 138 143 146 144 145 141 144 139 146 142 141 140 140 144 144 144 142 147 146 146 143 145 149 144 138 130 125 123 131 133 129 119 105 102 77 69 73 79 108 114 121 146 180 173 154 135 128 124 130 131 139 132 132 136 132 122 130 129 122 125 137 139 126 117 99 76 84 97 101 107 122 120 130 129 128 121 118 112 110 113 112 112 112 110 107 110 113 120 123 124 127 127 128 128 134 134 130 129 130 129 129 126 121 120 119 127 126 126 128 130 134 132 137 141 142 142 138 132 130 121 124 130 130 115 109 102 90 73 72 77 97 115 120 133 174 182 157 139 123 126 130 134 140 128 132 131 126 124 125 118 115 120 136 120 108 106 87 73 89 100 103 109 113 119 123 111 108 103 99 97 98 102 97 97 95 100 98 103 103 108 112 114 119 117 119 115 124 122 122 121 114 114 112 106 107 109 111 116 121 123 125 129 127 124 131 135 135 134 137 134 132 126 121 124 127 120 106 99 89 77 73 76 100 109 122 136 163 188 173 148 120 123 132 137 142 127 127 128 123 124 116 120 110 117 129 114 100 94 76 82 93 93 94 104 108 112 106 91 85 82 78 80 80 78 80 82 81 85 86 93 98 99 102 108 113 112 108 112 114 115 115 110 108 102 99 97 95 102 98 108 113 114 117 116 120 117 118 126 125 126 127 132 130 125 121 117 121 126 105 100 90 71 74 75 94 105 119 147 166 185 175 153 127 121 129 144 140 134 130 131 129 125 115 120 109 120 118 116 93 92 82 90 89 89 94 101 105 100 90 79 77 73 68 64 68 61 64 63 67 69 76 79 88 96 97 106 111 109 105 110 108 113 105 98 102 100 101 101 96 102 99 107 111 117 117 117 118 113 114 116 122 119 121 118 125 122 118 116 111 116 115 96 91 75 69 73 89 101 121 155 172 189 178 154 131 124 126 147 138 137 133 137 133 126 119 116 116 123 113 101 89 102 92 88 85 96 95 103 105 94 87 81 74 67 63 63 62 60 58 57 63 68 72 75 75 80 90 96 102 108 104 106 108 110 109 104 104 101 105 103 100 94 98 102 102 109 108 107 112 110 118 112 117 112 113 107 113 112 115 118 101 100 112 103 92 83 69 89 83 101 111 163 172 196 180 148 133 128 123 139 139 137 133 141 132 128 122 118 113 115 104 86 94 103 97 84 92 98 100 107 105 95 91 84 74 71 73 69 75 77 79 78 81 79 77 78 80 79 88 92 100 110 110 112 118 119 116 109 105 108 105 104 98 95 94 96 92 99 94 97 102 107 117 120 119 117 120 115 113 111 108 113 109 90 95 107 96 85 73 83 92 103 118 167 179 186 182 148 136 130 125 129 148 141 138 137 132 122 119 110 103 107 93 84 98 107 94 87 99 106 103 95 100 92 85 82 80 77 81 82 83 86 87 89 90 95 95 91 95 94 100 105 109 119 122 115 119 118 119 113 110 114 108 100 97 90 90 88 89 92 89 98 103 107 117 123 123 120 123 123 115 116 110 112 116 99 83 98 99 86 79 76 96 100 130 179 180 181 177 160 135 126 127 127 140 139 131 131 134 122 119 110 103 100 90 82 97 109 95 104 108 115 96 97 96 94 93 91 90 94 98 96 103 99 100 99 100 107 108 104 109 111 110 114 116 124 128 120 120 121 120 116 111 119 110 105 104 98 97 96 95 95 98 103 105 109 121 128 125 123 122 126 118 118 114 116 123 107 91 87 97 92 83 83 97 101 132 183 178 185 182 168 138 118 122 125 113 139 137 133 139 126 119 114 105 90 82 79 105 109 104 112 107 99 96 106 97 91 88 96 101 103 108 110 109 111 114 111 109 112 112 112 111 114 114 116 118 122 128 124 123 123 120 119 119 120 113 110 109 105 107 101 104 105 110 112 115 117 125 127 132 127 130 128 122 122 122 117 123 119 109 96 91 90 89 86 99 110 143 187 176 192 190 171 148 120 120 121 112 138 137 143 140 128 117 123 112 89 81 82 104 114 122 118 104 102 113 112 92 88 92 92 97 104 111 114 114 114 113 113 115 115 118 119 114 118 115 114 116 118 123 123 122 124 124 125 124 121 117 116 115 114 114 112 112 117 122 124 127 129 132 131 132 138 130 128 127 123 127 126 121 125 123 109 106 94 94 83 104 115 162 189 173 187 190 172 149 122 129 120 127 135 146 152 140 127 124 124 110 86 77 86 100 124 124 120 99 105 112 98 95 92 94 94 97 100 103 111 113 115 111 110 113 114 119 115 114 114 113 111 114 119 123 124 124 123 129 128 128 121 122 123 120 120 118 119 116 120 122 127 127 133 133 134 132 135 129 129 132 127 128 126 121 120 123 116 111 114 92 91 105 126 166 195 179 184 190 172 152 121 132 122 142 148 147 161 151 130 132 123 112 77 84 95 113 130 127 119 94 103 104 89 90 88 88 94 97 98 98 104 109 112 104 105 103 104 106 106 105 109 105 108 109 115 119 124 121 122 124 124 123 121 120 118 115 118 116 115 118 116 126 126 125 126 128 132 131 128 123 123 115 121 119 117 121 111 116 112 103 123 103 90 106 140 179 193 182 179 187 180 142 130 129 138 155 157 149 173 149 132 134 120 108 81 92 118 127 120 119 96 86 95 92 71 73 75 76 75 80 85 82 86 92 94 88 88 88 89 87 91 93 98 103 106 111 116 116 121 120 119 119 116 115 114 111 109 107 108 113 112 116 118 124 124 124 125 124 119 120 119 113 116 100 95 96 95 111 106 108 111 99 127 124 106 102 147 183 193 184 177 182 173 151 130 130 140 168 148 153 170 163 164 128 137 105 95 111 116 131 121 122 97 105 116 105 105 93 90 88 89 86 85 79 86 84 84 82 82 83 83 79 84 86 85 95 94 104 104 101 105 107 111 107 103 109 103 107 106 107 112 112 111 118 123 126 126 129 130 122 115 108 107 103 97 100 95 84 76 84 96 94 106 95 127 138 118 117 156 185 189 188 172 184 175 161 136 134 140 153 138 147 163 177 169 142 140 96 93 106 123 142 133 121 84 92 90 75 79 75 71 70 71 74 84 87 85 88 85 86 80 81 86 84 85 85 87 91 90 96 99 84 85 87 90 90 87 93 94 96 104 116 118 112 114 116 117 118 120 125 125 115 118 112 108 100 88 92 91 87 83 79 91 87 100 96 115 140 123 123 170 195 190 192 172 187 185 166 142 136 140 141 124 148 162 149 154 139 124 90 79 86 126 124 116 112 84 90 91 85 90 88 85 78 78 84 98 98 101 100 94 94 90 79 80 87 85 87 90 104 90 91 96 90 84 88 89 85 87 89 91 93 101 118 123 121 122 123 128 130 126 125 129 119 125 121 112 105 88 78 86 82 79 88 92 88 101 104 116 145 130 127 169 196 203 208 180 188 188 165 146 142 141 124 120 146 139 147 137 126 113 90 57 82 111 107 107 112 82 100 100 96 96 91 89 86 85 103 112 116 108 111 105 99 103 99 95 89 79 96 96 121 112 103 105 95 86 81 86 78 83 87 94 88 94 109 125 124 126 133 130 130 131 126 120 124 125 121 113 102 96 90 86 94 75 76 92 81 91 98 97 139 134 139 188 202 215 224 200 187 193 161 161 154 144 111 128 144 133 146 134 124 88 74 61 81 102 102 106 89 72 93 103 111 106 110 104 107 115 122 116 111 108 124 117 113 119 108 105 99 93 121 128 133 132 121 114 99 87 79 92 81 80 86 86 90 98 109 129 127 124 126 125 128 136 126 133 141 127 124 131 114 101 95 106 103 102 85 102 94 84 98 93 118 122 137 191 210 216 229 210 200 191 165 168 163 148 105 123 135 139 172 133 126 89 74 69 87 109 108 93 76 70 96 100 113 107 131 130 117 137 147 136 131 123 132 130 124 134 126 115 113 118 129 142 144 144 134 132 106 94 83 94 83 72 74 80 83 93 102 129 130 130 120 122 130 129 130 139 158 145 130 142 131 123 115 112 121 103 91 97 92 89 103 104 112 127 131 198 215 217 228 222 203 198 167 155 155 152 112 110 125 155 190 141 126 99 80 78 98 126 121 107 81 79 111 112 133 140 140 146 146 148 150 151 134 132 150 151 148 151 152 138 121 151 160 165 170 157 142 140 126 121 115 110 102 85 75 79 86 97 101 133 141 134 124 127 127 128 135 123 142 142 125 132 138 129 137 128 118 116 107 93 101 90 90 106 114 124 144 207 204 226 238 223 216 191 176 164 153 153 123 111 119 166 175 146 123 108 83 99 108 139 132 99 90 93 106 116 139 151 148 152 165 161 154 146 146 160 176 191 193 182 177 161 145 184 195 201 203 176 166 162 139 125 123 113 110 95 75 75 105 114 111 129 149 136 139 131 140 148 149 147 148 138 154 135 134 143 142 135 115 124 111 102 93 93 89 95 111 136 144 212 221 229 237 234 224 188 176 162 134 159 125 128 103 139 153 147 124 125 98 115 126 154 142 107 108 105 117 127 150 149 149 180 193 185 191 176 176 191 209 211 211 220 202 186 193 223 226 234 219 200 192 174 146 122 126 125 110 98 83 86 112 135 147 161 175 157 159 155 160 159 160 164 170 164 157 151 157 136 138 140 124 130 119 108 96 89 83 88 99 128 156 210 227 228 241 239 215 187 170 143 129 147 116 147 105 109 131 156 115 133 101 105 147 170 156 133 118 113 121 135 133 138 147 190 192 205 198 214 221 229 229 229 237 228 220 205 213 244 247 249 223 226 213 184 142 123 127 131 117 98 97 105 122 162 183 185 174 175 185 167 181 166 173 187 182 194 181 156 155 149 145 135 141 141 117 104 93 107 72 72 98 132 162 206 234 229 226 212 182 171 168 131 140 128 113 148 137 98 132 145 119 135 119 110 151 164 152 139 119 130 118 108 122 137 129 168 191 205 207 217 239 243 251 253 255 250 230 215 225 245 239 247 228 229 211 178 144 130 132 132 115 104 99 116 135 170 192 200 196 177 184 184 197 207 207 213 203 196 183 165 159 157 167 149 143 146 111 102 92 116 83 63 81 125 165 213 234 226 202 177 156 157 155 115 129 125 117 158 159 99 95 115 89 125 127 119 153 164 136 132 124 133 110 114 140 133 143 167 188 194 199 208 211 220 245 241 237 217 215 218 233 234 236 239 230 217 196 170 154 135 127 119 111 106 113 133 149 173 194 210 203 187 183 198 207 217 231 231 211 213 213 197 188 170 175 165 147 146 129 107 94 111 87 70 89 130 174 204 227 216 193 175 161 166 150 107 117 110 111 155 169 86 83 94 75 105 125 127 143 152 134 120 121 115 120 126 144 147 151 173 183 201 213 204 199 205 207 212 211 205 209 220 212 220 226 234 224 209 176 165 155 135 125 105 118 112 108 140 149 181 191 201 208 196 184 187 208 210 228 231 238 218 223 207 189 171 166 162 154 138 124 112 101 94 85 71 80 137 162 200 217 206 187 173 139 155 138 103 119 112 100 158 160 92 95 94 104 79 116 131 126 133 124 120 111 113 128 131 155 158 158 177 194 204 208 210 210 212 209 199 189 189 187 188 193 193 208 211 198 185 172 159 139 119 116 92 101 113 118 125 155 167 173 181 184 189 188 188 202 201 194 216 235 235 216 201 177 165 158 156 150 140 124 120 105 102 93 74 81 116 162 188 217 209 164 150 113 146 122 88 127 131 91 152 148 102 100 113 134 87 102 139 114 136 109 106 102 112 131 123 154 158 161 174 191 198 205 212 210 203 210 197 185 176 185 176 183 181 199 185 178 175 160 145 118 112 95 95 96 102 117 119 145 149 166 167 164 171 171 171 178 199 190 191 202 213 210 210 185 167 161 156 152 137 126 121 113 120 104 78 83 102 164 183 215 207 146 127 90 152 121 97 130 144 99 145 155 125 115 138 167 126 104 146 106 127 111 79 107 110 131 117 144 163 153 171 184 194 198 194 195 188 196 193 176 173 177 177 182 194 181 180 178 182 156 136 99 99 91 96 91 94 102 118 122 142 151 157 146 138 150 146 146 171 191 181 193 205 208 208 193 178 167 155 147 132 127 125 111 115 88 70 81 114 152 168 213 189 128 102 94 140 110 107 127 149 105 140 151 151 121 156 172 149 144 126 98 121 116 76 98 113 131 121 126 151 147 158 178 184 179 179 174 181 182 177 164 158 163 176 180 171 169 181 177 180 148 121 106 102 100 101 90 89 101 123 116 122 133 142 131 123 123 134 137 148 169 170 173 182 180 183 189 173 166 153 140 118 125 116 103 97 85 76 87 104 146 167 202 179 105 89 86 117 117 116 126 155 108 146 165 167 125 159 157 157 158 128 87 115 130 87 98 116 126 130 112 137 146 133 159 171 170 177 172 172 167 161 145 146 162 174 158 167 175 163 172 160 141 122 104 106 105 101 100 91 113 130 120 117 125 130 126 117 119 122 127 130 134 147 143 144 154 147 161 155 152 145 127 119 122 108 107 97 89 80 86 100 150 180 181 162 102 85 60 102 138 125 127 159 116 139 178 185 143 167 154 132 161 108 102 104 119 104 102 110 114 125 112 128 137 136 147 160 162 166 170 162 156 148 149 161 161 156 156 165 156 157 158 147 123 115 110 107 100 100 103 107 122 120 123 110 111 111 115 111 121 115 127 126 133 132 135 127 132 133 134 135 134 131 120 119 109 101 104 92 89 83 90 105 144 163 177 164 101 82 52 112 148 126 133 155 108 144 185 177 161 171 164 122 122 113 90 117 127 107 100 117 114 120 122 124 143 148 145 164 162 161 160 154 153 149 156 163 158 155 158 142 149 152 144 127 118 94 100 93 100 102 112 119 135 126 127 117 112 105 102 102 117 130 125 126 132 132 128 125 124 131 125 130 136 122 117 124 106 100 93 91 93 90 94 108 138 151 178 147 118 75 61 129 137 130 130 150 107 147 174 165 171 169 158 123 92 92 98 116 130 126 106 110 116 123 126 127 143 147 146 148 155 158 159 146 154 158 160 156 156 159 147 141 147 143 122 112 107 98 88 93 100 104 106 118 126 120 117 127 125 123 98 100 119 127 131 131 130 134 129 121 121 133 130 129 134 124 117 118 104 96 91 90 95 87 94 108 129 149 159 147 116 67 81 142 137 129 135 150 117 146 160 142 178 194 149 112 72 66 88 103 126 122 120 120 123 121 141 138 137 141 143 135 148 158 154 149 152 153 156 156 156 143 143 139 145 130 110 101 86 84 78 87 99 108 114 116 130 126 114 127 130 125 107 113 115 126 132 129 129 132 134 128 120 121 131 130 122 127 121 110 111 93 89 97 88 92 89 116 123 129 142 140 114 63 106 141 129 141 135 152 140 157 166 143 182 197 158 109 79 58 88 91 95 113 110 121 120 123 130 133 141 141 136 147 147 155 147 140 141 140 150 148 148 138 142 140 137 116 103 87 79 79 79 87 94 113 115 125 134 133 129 133 132 131 120 131 119 127 135 132 124 124 127 127 129 121 119 123 124 123 117 108 107 97 95 98 102 88 97 103 113 117 113 119 107 80 125 133 135 133 143 159 153 169 161 145 175 180 184 111 91 87 80 96 90 106 100 107 124 124 128 135 140 141 138 142 147 149 149 144 139 136 142 148 138 134 137 128 125 106 89 82 72 72 77 86 87 111 110 115 129 128 125 129 133 115 116 132 128 126 130 130 134 130 124 131 129 123 116 123 112 112 112 103 93 102 99 100 94 81 100 100 82 90 123 122 102 109 124 126 129 148 155 164 145 156 167 141 177 163 172 110 96 100 97 101 81 107 96 107 114 119 133 125 133 135 138 144 140 138 132 124 125 130 136 134 130 125 126 108 96 87 84 82 73 76 83 79 81 96 101 103 117 122 131 135 134 112 102 107 102 118 116 117 124 132 127 116 120 121 117 118 118 105 99 102 96 102 105 104 93 85 110 103 85 111 119 119 98 118 115 112 135 152 161 165 148 129 170 151 180 176 172 134 111 106 101 113 89 109 106 100 108 113 119 129 130 130 132 139 129 126 126 116 116 122 121 113 114 116 107 99 88 79 80 74 69 74 85 89 79 82 97 98 115 120 130 133 137 127 109 107 96 97 104 101 115 124 123 119 112 115 117 115 114 102 96 98 96 99 102 91 75 100 119 92 98 107 111 99 81 109 108 113 134 153 167 170 137 124 159 154 176 181 171 159 113 106 91 100 83 106 109 100 104 111 107 118 122 120 134 146 129 120 122 115 113 111 110 111 117 115 109 90 83 85 80 88 87 85 82 80 79 80 90 93 107 125 129 134 130 137 115 94 82 92 93 94 105 116 119 108 108 111 109 105 106 102 104 95 95 100 91 81 74 108 125 87 79 86 99 78 75 104 104 114 128 158 172 167 118 128 136 150 181 196 177 160 135 117 101 104 90 102 106 103 108 105 106 118 124 126 134 140 136 120 113 108 106 107 108 112 112 108 100 90 86 86 87 97 101 94 86 82 79 77 78 92 104 120 126 132 139 122 94 79 75 85 77 80 91 106 114 109 104 106 104 105 106 104 99 95 84 86 89 86 84 115 115 82 66 93 77 57 73 106 106 120 128 162 171 162 119 129 114 144 176 212 187 153 131 124 105 99 95 106 112 108 106 112 115 124 133 137 131 142 138 131 115 113 108 110 110 112 112 101 91 91 91 87 99 105 110 100 106 102 100 93 89 94 107 115 115 117 120 107 92 77 81 83 81 86 93 111 112 107 94 100 101 101 99 100 96 94 77 80 87 81 82 104 97 76 71 82 67 49 69 117 115 124 129 165 170 161 121 123 92 126 160 213 199 143 134 121 106 103 95 108 112 110 109 115 118 125 133 142 133 140 133 127 124 125 120 118 119 115 113 110 95 98 108 100 108 113 119 116 119 113 116 117 110 112 111 116 112 107 113 108 100 83 76 76 76 82 86 107 107 93 92 88 105 107 100 106 99 97 84 80 80 79 84 90 84 74 75 78 64 44 79 122 124 130 132 165 165 162 126 108 90 112 143 196 209 146 139 119 107 102 90 101 112 109 110 123 125 130 131 138 139 141 138 136 138 135 129 127 131 130 122 116 115 112 118 122 119 123 128 136 136 127 129 134 131 124 127 120 110 93 98 104 99 95 77 80 81 84 89 107 105 102 107 97 109 119 108 110 107 96 89 82 82 81 91 80 72 83 86 71 67 56 88 112 124 125 135 163 161 162 128 110 91 92 130 166 211 166 153 131 91 99 93 96 101 107 111 120 130 132 141 145 146 151 142 150 150 145 139 134 145 135 118 104 114 120 122 130 129 130 134 139 137 133 131 134 135 129 124 119 113 96 90 87 89 85 77 85 88 81 93 100 109 117 117 115 118 123 118 111 111 108 90 90 88 85 94 79 67 78 89 77 62 70 94 111 116 125 144 158 163 163 139 114 107 92 98 154 188 182 165 140 78 86 94 100 95 108 110 120 129 137 142 152 151 153 150 160 160 151 147 141 141 135 110 111 121 129 132 126 128 129 137 135 144 137 132 131 136 138 137 125 122 109 98 87 87 84 75 90 100 103 112 120 123 129 132 132 128 125 125 124 110 112 96 95 96 94 100 89 85 93 92 85 67 87 93 102 116 126 140 155 169 167 134 126 115 104 88 147 176 178 162 142 77 79 90 96 91 105 118 121 126 137 138 148 154 152 152 160 160 158 155 144 140 126 123 126 123 130 135 129 135 134 132 127 136 131 133 133 139 142 134 132 128 122 115 108 104 99 91 105 108 118 126 134 137 138 148 138 131 131 126 127 122 121 98 102 98 107 107 111 107 109 109 103 97 112 89 96 119 133 137 160 171 166 136 130 123 113 108 121 161 168 157 134 71 76 90 91 84 104 116 126 131 134 140 157 158 155 156 157 157 158 156 148 144 130 130 132 124 131 135 136 140 132 119 115 117 112 121 132 141 137 134 136 132 127 116 120 121 111 104 113 115 129 133 145 143 149 149 136 135 138 128 125 128 120 101 105 102 110 117 127 120 116 125 113 118 117 92 96 128 132 143 167 171 168 142 136 128 119 109 116 122 139 139 123 63 73 87 85 76 99 118 122 126 132 141 152 151 152 152 156 155 150 150 146 143 145 137 143 132 135 138 149 148 144 122 117 114 118 126 136 148 151 151 145 138 139 128 132 141 129 123 125 125 136 138 148 150 154 159 136 141 145 137 125 128 124 102 113 105 117 117 131 125 117 125 117 123 112 95 104 132 131 160 168 170 167 136 140 133 123 112 114 114 98 111 104 56 62 78 74 68 90 109 119 125 128 142 143 148 148 151 153 155 145 138 149 147 149 142 144 146 144 148 142 154 153 132 130 130 140 147 156 161 167 164 166 158 154 149 148 147 141 134 135 136 147 149 156 159 159 161 146 144 150 142 129 129 129 113 119 123 126 116 130 137 128 134 134 124 107 100 118 126 146 165 165 170 165 131 135 137 128 117 103 108 98 71 92 37 42 53 49 63 86 93 116 118 127 135 144 153 149 156 150 149 140 139 147 152 156 153 157 160 160 160 154 159 155 136 134 132 136 151 159 161 160 156 162 165 161 157 156 154 149 139 131 140 153 161 164 168 167 166 156 153 155 150 145 134 127 117 123 132 133 125 142 145 143 147 138 124 109 109 125 138 155 163 168 170 164 132 135 137 127 122 109 96 100 51 52 44 31 37 40 55 71 86 114 121 126 141 151 156 151 151 160 158 154 158 158 164 172 173 172 172 166 167 172 164 158 147 152 153 156 162 164 162 159 158 163 171 168 157 150 141 129 130 131 137 158 159 176 179 178 172 161 165 147 153 148 132 130 120 121 137 132 135 162 149 150 157 143 131 125 128 150 158 158 162 165 167 164 136 135 135 130 122 114 100 87 49 22 37 23 43 31 52 63 80 107 120 128 152 161 156 160 154 166 163 166 164 163 177 181 181 171 177 173 169 172 169 174 163 176 181 177 176 175 175 178 165 172 173 165 163 145 130 119 122 131 135 143 146 164 176 164 167 161 164 150 151 139 132 123 113 125 138 134 147 168 151 155 161 149 142 147 158 161 161 158 163 162 166 162 139 133 132 128 127 117 107 85 59 19 30 14 26 20 47 63 82 117 127 137 162 166 170 172 178 176 166 159 161 175 183 182 186 173 165 177 179 173 172 172 182 183 178 176 171 175 188 184 180 184 181 176 167 144 132 125 122 124 129 131 129 144 154 150 160 153 153 145 151 139 126 121 115 124 135 141 159 161 147 155 162 152 156 164 167 160 158 157 160 162 160 160 139 138 135 128 121 121 109 91 66 23 23 8 9 12 32 63 86 116 133 145 159 160 167 167 169 168 160 155 164 172 180 181 187 175 167 170 176 174 170 169 169 180 174 175 176 167 185 186 174 182 174 168 175 155 142 128 127 115 118 119 107 115 124 132 141 130 138 132 151 130 116 116 117 122 137 149 160 160 145 156 166 159 172 170 166 158 157 159 158 159 161 160 132 139 134 131 120 120 113 97 75 40 19 14 5 15 22 65 86 115 135 145 159 157 156 152 145 144 142 139 149 147 160 155 172 162 159 145 147 150 166 168 161 166 164 174 177 176 182 166 154 158 146 140 141 134 116 107 103 98 104 99 98 96 109 112 128 122 126 130 137 115 114 113 119 117 136 158 162 154 150 172 175 169 174 164 164 157 160 158 155 162 159 159 133 135 135 133 126 119 116 109 82 64 25 29 12 14 21 59 80 118 137 136 151 151 147 143 125 118 109 128 127 127 129 129 135 138 142 126 136 153 148 136 140 139 130 142 158 160 158 152 141 142 128 111 110 100 79 79 82 75 78 76 81 83 98 100 112 128 124 126 121 107 110 110 122 119 141 154 158 154 163 176 177 171 172 160 162 155 157 154 156 161 156 159 134 132 136 134 125 121 118 110 90 80 47 35 29 23 25 41 79 118 124 128 151 134 135 122 108 105 93 109 114 114 115 110 116 118 129 124 126 131 127 134 133 121 116 115 138 137 129 113 104 104 98 92 86 84 72 77 78 65 58 54 60 73 84 101 99 126 121 129 123 115 110 120 116 132 152 153 158 159 170 176 176 168 163 156 158 154 154 155 157 157 157 161 135 135 131 131 127 123 122 111 92 89 70 46 45 32 33 19 62 97 116 126 143 126 127 115 107 106 93 105 108 123 126 126 137 140 145 136 143 148 134 156 152 147 147 143 161 154 144 145 135 124 125 123 123 122 115 98 89 82 76 73 83 94 104 110 116 122 124 135 124 119 108 117 122 141 155 150 162 167 173 176 174 164 155 155 154 153 153 153 157 155 159 159 136 133 130 126 124 127 127 110 94 85 80 60 61 47 36 13 36 76 99 122 124 122 125 105 104 105 100 105 107 121 132 155 149 148 141 143 139 151 143 156 153 162 166 156 172 183 171 184 177 159 158 144 149 151 144 127 103 107 102 97 104 106 101 108 113 126 127 138 126 114 110 121 134 157 158 151 166 165 173 175 170 158 153 152 152 151 154 153 152 159 157 160 127 127 128 125 124 134 123 111 99 88 83 70 68 64 37 13 15 58 95 105 107 110 118 104 96 104 103 108 113 129 144 155 155 153 153 145 137 137 126 128 130 142 152 143 145 159 156 168 162 159 146 147 148 147 127 120 109 105 99 91 95 98 103 104 108 121 136 130 118 116 119 135 152 167 155 160 174 166 179 171 167 153 153 151 149 150 152 153 155 154 156 158 126 125 126 123 128 133 124 113 101 87 85 69 75 73 48 14 7 35 83 93 93 89 105 92 86 95 97 103 106 127 145 141 145 142 152 149 139 135 128 125 114 127 127 131 134 146 134 136 134 133 132 123 117 117 104 99 100 89 86 84 85 93 106 105 113 122 136 128 128 122 132 147 156 176 150 157 173 168 171 169 160 151 151 151 147 150 153 151 157 155 154 155 127 127 125 130 130 132 124 112 104 90 86 69 78 81 56 19 0 23 68 87 79 91 97 89 96 91 91 91 95 112 129 126 120 113 118 120 117 112 106 99 101 105 113 117 120 131 119 119 116 111 108 110 104 98 85 79 80 69 69 78 83 94 97 108 115 126 133 137 133 133 141 153 164 181 147 158 168 169 168 165 155 150 151 149 144 149 152 150 156 156 151 156 130 129 128 132 132 130 122 117 107 95 93 71 74 86 64 20 0 13 48 76 84 81 93 96 103 100 96 93 103 121 125 125 116 107 97 90 90 79 72 65 68 69 76 83 88 91 94 97 89 89 95 91 90 76 67 69 74 65 72 76 84 98 107 114 126 136 139 138 133 138 154 155 182 175 140 161 162 167 161 161 151 149 150 144 147 150 150 153 152 150 153 154 129 132 129 133 135 127 122 118 111 100 90 77 77 91 69 39 15 11 36 59 81 82 89 99 99 104 101 101 108 126 136 122 114 100 96 95 81 67 57 52 51 52 58 63 69 71 71 73 69 73 72 71 71 64 59 52 70 68 77 73 91 102 114 128 135 146 145 140 141 147 162 161 185 153 128 159 168 158 156 155 149 152 148 146 148 145 151 150 150 153 153 151 131 136 133 132 130 126 123 115 114 102 86 80 79 86 68 53 26 10 24 45 70 80 88 90 104 114 105 112 119 124 133 127 117 112 108 89 81 69 61 58 51 56 52 59 59 60 70 69 65 68 74 66 71 63 61 53 65 73 81 89 104 117 127 137 145 152 147 146 148 156 170 161 176 133 122 158 161 151 149 147 146 145 143 145 140 145 142 145 148 149 153 150 130 130 127 124 120 123 120 110 109 102 84 76 80 79 69 59 40 22 20 43 53 72 79 85 91 104 108 114 117 121 126 136 136 127 120 96 87 74 64 64 58 59 60 63 69 67 70 72 70 71 72 66 68 62 65 62 69 82 86 106 109 126 136 149 155 159 157 151 154 165 172 162 160 116 124 156 157 147 148 141 135 135 131 134 133 134 131 135 139 137 141 140 127 128 122 114 118 124 111 106 100 98 79 67 75 85 73 59 42 36 29 37 53 57 75 70 83 94 107 115 113 123 130 139 141 134 124 103 97 83 74 67 64 72 68 70 78 77 85 81 78 75 76 74 78 78 78 84 90 99 103 121 129 134 155 161 157 162 164 155 160 172 165 151 146 107 130 148 149 145 143 145 136 128 127 131 124 125 123 124 127 127 128 132 116 112 107 105 110 108 98 98 92 91 72 61 78 92 77 62 38 41 31 42 49 42 55 58 66 72 86 101 102 115 130 133 132 136 126 110 103 103 90 92 98 103 93 94 100 94 99 95 95 88 92 100 100 102 104 106 110 115 123 135 144 149 167 169 162 169 167 166 159 167 155 133 132 103 136 142 137 146 141 144 140 134 126 132 128 125 123 120 125 128 124 127 109 103 104 102 105 92 78 93 88 91 74 66 77 99 81 55 30 44 38 46 45 33 43 44 45 52 58 76 83 93 119 119 122 122 120 107 100 95 98 104 112 117 111 115 117 111 109 111 111 115 110 118 119 123 125 120 128 136 145 151 162 165 169 179 173 172 168 170 163 163 137 126 114 109 136 140 131 138 147 141 140 140 134 130 128 128 122 118 122 124 126 129 103 102 102 102 100 82 76 93 89 92 64 58 87 105 86 54 22 45 45 46 59 43 41 28 40 38 37 50 63 68 86 95 100 103 102 102 88 90 89 100 104 105 106 109 115 115 115 124 120 123 126 130 134 140 135 138 148 157 162 170 177 178 181 186 182 168 172 161 153 145 125 111 104 113 141 133 135 129 147 146 141 144 139 134 133 128 126 119 119 120 126 126 100 100 98 98 95 78 83 96 86 83 58 54 86 108 89 54 7 42 46 45 63 55 44 35 34 39 31 39 50 52 58 70 69 81 84 81 85 81 88 94 98 97 102 100 110 114 121 131 132 132 134 138 146 151 154 159 157 171 177 184 186 181 184 191 178 168 168 153 143 135 108 99 94 109 135 133 140 126 147 150 146 145 142 137 132 129 127 125 122 116 122 127 98 93 93 93 92 76 86 99 87 78 46 62 84 112 88 59 4 31 45 47 62 61 52 35 35 34 37 37 40 42 48 59 51 60 71 77 86 80 83 89 93 94 105 100 103 114 123 131 133 137 139 148 160 162 165 172 171 189 193 193 195 190 188 184 177 167 152 139 131 127 100 89 93 107 125 130 147 132 139 157 150 147 148 136 133 131 133 123 128 120 124 126 90 89 89 90 89 78 89 104 86 79 49 66 96 84 98 58 29 39 39 54 67 58 62 47 37 41 36 41 44 47 49 57 52 61 70 75 80 81 84 88 89 96 105 101 106 112 121 133 131 140 148 157 163 173 181 184 192 206 203 201 199 195 184 179 167 157 139 136 124 122 98 94 93 102 127 128 149 136 141 153 162 149 146 146 133 131 132 130 127 123 125 128 85 84 87 83 89 82 96 105 86 83 66 80 86 88 75 47 57 49 34 58 63 57 68 53 44 48 47 48 46 47 52 56 58 63 75 81 90 93 94 97 96 108 106 115 111 119 129 134 141 146 150 159 163 174 182 195 204 211 211 206 197 184 177 172 156 142 139 123 116 111 93 82 83 98 134 129 143 143 140 148 159 152 147 144 133 131 130 130 128 129 126 129 83 83 79 85 88 83 116 111 94 88 82 92 74 88 69 52 48 71 44 46 61 59 65 67 57 48 56 60 53 59 63 60 63 73 83 90 100 110 110 105 107 119 113 125 118 127 135 141 145 148 157 163 173 176 184 198 205 209 205 201 184 171 164 158 141 134 127 116 108 106 88 80 74 95 133 128 138 150 145 146 150 154 152 141 134 131 127 127 128 127 130 126 84 80 81 95 94 99 126 113 101 92 107 111 54 99 86 38 50 75 63 63 58 56 63 70 77 59 58 65 65 70 73 76 79 85 89 101 108 119 122 121 119 131 127 137 138 142 148 149 150 157 170 166 180 180 190 201 204 196 194 180 163 155 150 142 129 120 121 107 109 100 78 88 86 97 128 127 130 153 157 148 151 147 152 145 135 130 127 124 125 125 124 125 91 84 92 112 105 115 131 117 116 110 163 98 63 114 74 32 62 65 68 86 68 51 66 75 84 78 68 77 79 76 85 87 95 100 104 112 115 125 127 138 138 134 141 139 147 152 154 162 168 165 167 175 179 184 186 195 191 179 174 158 135 140 135 131 114 111 113 104 107 112 71 90 94 101 119 121 119 151 165 153 157 153 154 144 136 130 130 130 129 131 128 135 96 87 108 113 107 122 134 135 137 147 166 93 91 97 69 34 66 63 66 99 87 56 63 84 76 82 90 83 85 87 96 99 104 114 123 128 127 132 134 140 146 146 144 148 151 162 164 169 179 175 176 174 176 178 180 175 177 166 151 131 121 124 125 110 102 102 101 97 103 112 77 88 95 122 110 105 113 143 174 158 157 159 162 155 138 133 135 137 143 146 147 153 98 101 119 118 120 136 155 151 164 164 153 91 92 74 77 39 66 65 67 96 98 70 71 74 76 75 91 102 95 91 100 109 116 121 135 141 146 153 148 155 155 153 162 162 167 169 174 166 170 169 161 163 165 163 172 161 157 139 122 116 112 115 110 96 95 100 103 93 106 111 92 89 101 109 118 109 113 127 180 172 162 158 161 157 138 128 128 134 143 148 147 156 102 108 124 130 144 157 177 181 182 157 143 118 83 77 72 45 67 76 66 84 107 97 79 75 60 65 81 88 104 100 99 113 116 122 123 138 140 155 158 165 164 165 169 172 170 167 165 162 156 152 155 156 153 157 155 147 133 115 115 106 110 104 100 87 97 102 97 93 117 81 83 106 107 110 106 117 124 122 176 181 178 157 157 159 145 130 118 133 138 146 146 145 116 134 148 165 165 184 196 177 172 165 156 132 88 73 61 43 76 78 82 68 103 117 95 86 66 54 60 70 84 98 103 112 119 121 126 128 132 139 139 148 156 162 165 165 167 167 161 159 155 153 158 151 148 146 143 125 116 109 106 98 98 94 92 88 100 98 92 102 118 81 75 104 108 111 110 121 128 125 160 171 185 169 158 154 154 135 127 136 150 150 145 141 136 168 180 169 185 191 194 181 188 176 183 132 93 60 62 42 75 78 89 79 89 115 107 99 85 63 48 44 60 75 94 98 107 113 112 112 118 125 128 128 135 146 151 156 156 160 162 157 155 149 151 144 138 130 122 115 112 105 100 89 89 91 89 95 95 93 94 106 97 80 88 103 104 111 109 129 109 127 146 149 186 176 166 151 148 140 134 130 148 159 154 139 