P2
92
112
255
119 118 120 122 122 125 128 124 124 126 125 120 128 131 135 137 140 143 141 140 143 141 135 141 134 140 143 139 141 135 135 133 122 118 121 121 117 121 119 120 129 129 126 128 133 129 141 137 137 142 149 147 145 145 146 149 152 155 162 158 157 162 166 169 156 162 164 156 161 161 163 163 161 159 157 159 158 151 149 151 156 157 158 160 157 155 154 153 149 152 148 145 119 118 118 122 119 128 127 122 122 126 125 122 123 129 135 140 140 142 138 138 132 133 138 143 148 145 148 144 137 136 131 129 117 118 120 120 114 118 115 116 120 121 119 121 126 131 129 134 124 127 137 139 137 139 137 147 150 153 153 156 152 150 159 167 162 151 153 154 152 157 162 164 164 158 156 154 161 155 147 152 150 148 153 155 156 155 157 156 148 152 151 147 119 120 118 121 122 125 118 124 126 121 123 125 134 135 134 138 137 138 135 137 131 134 136 152 149 140 146 141 130 125 126 124 121 124 120 118 116 119 117 119 120 117 114 115 118 125 112 120 118 124 120 123 120 126 130 140 139 145 147 149 153 156 152 156 158 150 146 150 145 147 156 159 161 159 154 150 153 159 154 147 145 143 154 155 152 155 154 156 152 148 151 150 116 120 117 115 124 124 116 119 123 123 127 130 132 133 133 141 136 137 137 139 135 148 146 145 148 139 139 135 131 123 115 116 119 118 120 121 123 119 119 123 127 122 114 120 118 120 117 117 123 125 120 113 112 115 120 129 130 129 135 140 141 149 144 145 150 149 140 139 141 134 142 151 157 161 151 149 144 149 149 149 146 147 146 152 150 152 152 154 154 148 146 149 117 120 118 118 117 120 118 116 120 128 126 126 132 130 134 135 132 136 136 146 141 142 148 140 137 141 133 135 131 128 118 124 120 126 124 125 127 126 124 125 138 142 130 128 132 131 127 119 119 134 126 119 117 121 125 119 122 120 120 129 133 132 139 140 141 150 143 144 128 125 134 137 142 155 151 149 146 139 141 144 142 146 145 145 148 146 155 152 155 152 145 146 117 118 116 116 114 114 119 123 120 126 127 124 134 125 129 131 136 144 150 146 141 142 148 143 138 132 131 129 129 127 122 126 125 121 124 122 131 136 132 131 138 146 141 130 138 141 131 123 128 129 134 133 125 120 124 124 118 113 113 118 132 135 135 139 141 141 133 138 136 119 124 131 128 131 145 139 134 147 142 137 142 141 142 142 148 146 148 150 149 153 151 142 119 120 119 115 112 117 119 122 124 121 126 130 131 124 123 135 144 147 153 146 134 138 136 133 130 127 125 128 128 127 124 124 133 132 133 129 133 138 133 139 141 145 138 130 133 135 128 119 125 131 135 135 127 126 125 130 123 116 117 119 125 129 125 129 139 142 133 128 130 136 120 117 124 137 137 133 126 137 144 133 136 142 137 138 141 145 145 145 148 150 152 144 117 120 120 115 113 113 120 127 129 132 130 135 136 127 132 148 153 142 140 135 125 119 122 134 129 132 131 130 127 129 132 133 135 135 133 133 136 133 133 138 141 137 134 133 132 131 133 124 122 130 135 133 126 130 131 129 126 122 121 122 127 130 126 132 141 136 136 122 125 140 127 122 120 119 123 123 129 137 136 132 127 137 139 138 137 146 145 142 147 148 151 145 119 119 115 116 115 114 122 130 133 132 139 137 134 143 148 150 141 136 128 121 117 117 117 125 130 135 136 130 128 126 129 134 130 124 124 125 128 135 128 133 141 141 132 138 138 137 136 131 124 124 123 125 126 126 129 127 129 125 123 127 129 126 123 124 133 127 123 125 130 139 132 130 127 118 111 116 120 130 134 130 126 134 136 136 136 141 149 146 143 146 146 146 119 118 115 119 118 121 123 130 136 138 133 133 139 148 148 144 131 123 112 113 110 112 116 124 126 123 127 128 126 125 121 124 127 125 119 126 127 125 126 133 136 137 131 133 140 138 132 132 126 124 122 123 128 129 127 129 133 127 129 128 124 119 118 110 115 122 122 126 125 136 133 137 127 115 116 116 122 126 128 129 126 128 130 134 128 131 140 143 141 144 143 140 118 115 122 123 125 129 127 132 142 137 131 135 146 146 144 131 129 109 104 110 108 115 125 126 124 119 120 125 125 119 117 116 117 123 123 124 130 126 127 128 133 129 130 133 137 140 132 130 130 129 122 124 126 130 130 131 128 127 132 135 130 124 125 116 109 115 118 115 118 125 129 142 139 126 124 117 118 128 125 133 125 124 120 122 125 129 133 133 141 143 141 142 121 121 125 124 128 129 128 136 136 124 134 148 146 138 136 124 113 93 95 100 105 116 121 125 123 121 120 124 124 124 121 120 121 122 126 127 130 128 131 130 136 129 130 131 134 136 137 131 132 132 130 125 124 125 130 135 129 127 129 131 130 126 123 123 110 111 114 109 109 108 108 122 133 138 129 120 122 115 123 133 127 119 118 119 122 126 130 127 137 139 141 141 118 124 124 126 130 128 132 134 125 126 139 145 138 133 123 109 95 96 96 101 104 120 123 128 127 129 129 128 128 132 135 133 135 131 131 129 135 136 139 140 140 141 137 136 137 136 135 136 130 127 130 129 130 132 136 132 128 123 126 123 124 123 121 123 119 113 115 113 111 111 101 102 111 115 133 129 130 124 119 127 124 126 127 120 121 124 127 130 134 138 140 141 127 127 128 128 125 132 128 122 132 142 144 137 131 122 101 89 90 90 95 103 115 124 127 127 132 136 131 134 131 137 143 142 141 143 145 141 143 144 145 148 148 144 142 141 147 142 139 140 138 134 131 135 136 139 136 132 126 124 125 125 124 121 123 119 117 118 118 121 117 116 111 108 109 110 121 132 123 128 127 124 121 124 135 130 119 124 121 134 132 130 138 147 128 131 129 125 128 128 125 129 138 146 142 136 128 110 92 89 93 97 101 111 125 131 125 127 132 136 140 145 143 150 155 157 155 155 154 152 155 158 156 154 158 154 148 144 145 141 138 140 144 135 134 136 136 138 138 135 130 131 131 134 132 126 132 125 119 121 127 126 121 125 122 119 116 110 108 128 135 119 121 125 121 122 135 140 132 127 128 129 136 129 127 139 130 136 132 134 121 128 136 143 150 145 144 138 121 102 87 90 93 108 115 126 129 127 125 126 130 138 145 151 154 163 164 163 163 164 168 165 165 168 164 155 154 153 147 141 142 139 138 135 140 136 132 138 136 130 131 133 131 131 133 136 133 123 130 132 124 125 122 126 125 127 126 122 118 115 111 122 136 131 124 127 128 132 133 141 137 142 134 129 134 131 119 129 130 135 135 126 130 128 147 155 150 143 144 131 115 98 95 97 105 116 124 133 130 128 133 133 138 146 147 155 163 169 175 175 172 176 176 170 172 167 163 155 151 152 150 144 141 142 135 137 133 134 130 134 132 126 120 120 121 123 124 128 126 125 127 134 131 131 131 131 133 127 124 124 126 123 118 120 125 143 139 137 129 133 138 140 136 134 133 131 128 126 127 120 133 132 142 133 138 146 156 152 145 142 138 115 105 100 95 106 122 124 125 132 134 129 138 140 143 149 153 164 169 175 180 184 182 181 176 170 170 165 159 155 153 155 153 151 145 144 138 139 139 135 130 133 131 126 119 113 112 113 115 118 117 126 129 134 138 140 145 146 146 140 134 135 134 132 127 133 129 140 153 145 143 134 140 144 138 133 126 129 123 124 123 119 135 140 135 138 151 155 147 147 143 139 119 104 103 98 102 115 124 124 124 134 135 138 142 146 152 156 161 172 180 182 183 179 182 179 175 172 171 167 162 161 160 160 159 156 155 153 153 150 148 144 141 140 140 133 126 119 113 112 116 120 121 125 131 140 139 143 145 150 151 154 145 141 144 141 138 139 136 138 152 164 149 146 139 149 152 137 124 128 127 123 125 122 144 144 142 134 161 156 140 150 146 129 113 100 97 99 105 115 119 125 134 138 142 146 147 152 159 166 169 176 185 181 179 180 179 174 173 172 169 165 163 161 163 165 163 164 163 162 163 157 153 152 153 147 147 139 138 136 127 121 118 122 124 122 127 134 143 142 145 148 151 156 157 152 145 149 142 143 145 150 152 161 159 151 148 148 154 138 130 127 130 123 127 123 150 149 141 141 157 149 146 146 133 118 103 93 96 107 109 112 118 128 139 141 145 150 155 159 169 172 172 179 180 180 181 180 176 172 168 170 166 167 163 163 166 166 167 168 167 164 165 163 160 156 159 152 148 149 148 147 138 129 123 120 123 120 125 129 140 144 146 148 151 154 160 165 161 159 153 153 154 160 163 160 164 166 153 150 146 138 134 132 128 126 126 122 150 148 139 146 151 149 146 140 124 99 83 89 98 107 103 113 126 134 130 138 146 155 159 166 164 170 177 175 176 180 176 172 165 162 160 162 163 163 162 163 165 166 169 167 168 165 164 162 164 160 159 160 157 154 152 150 136 133 129 120 119 120 119 125 133 138 143 144 147 153 158 162 165 163 158 162 166 167 172 171 174 171 161 147 150 136 138 133 125 129 125 119 149 147 143 152 152 153 144 130 104 81 83 88 98 102 105 120 126 126 124 135 144 151 155 166 160 163 166 166 167 167 166 162 157 152 153 157 159 159 156 158 160 162 165 164 164 163 160 161 161 163 162 160 157 150 148 143 137 131 125 118 114 119 117 120 128 129 136 143 144 146 154 161 166 169 169 169 178 181 177 186 187 178 170 155 153 141 134 140 129 123 125 124 143 137 145 153 153 146 131 115 88 84 82 96 94 97 109 114 115 119 124 138 143 148 156 157 155 155 151 151 151 153 154 150 148 146 143 144 150 151 150 149 153 150 157 156 154 154 154 154 153 155 156 153 147 143 143 140 132 129 124 121 117 117 119 120 126 127 133 135 143 146 150 159 169 168 172 178 182 192 195 192 199 190 178 169 163 160 136 138 137 123 119 127 139 141 150 150 153 138 123 93 87 79 86 95 91 97 106 108 113 121 127 138 143 141 152 152 147 143 139 136 138 140 141 138 138 140 139 139 140 140 143 145 148 146 147 148 146 144 144 142 143 145 141 139 133 135 136 131 129 125 123 121 119 117 118 120 124 128 129 129 139 142 146 155 167 170 178 187 193 197 203 201 194 195 186 169 167 164 143 129 140 132 124 122 140 155 149 146 151 132 113 87 85 80 84 90 90 101 99 110 116 123 129 138 134 135 142 139 133 131 128 128 131 130 131 128 130 131 133 132 131 131 134 140 142 140 140 139 139 137 136 132 132 136 132 128 126 127 128 127 128 126 124 119 121 116 115 118 122 123 125 127 129 138 143 148 162 167 182 184 193 192 204 208 200 188 187 171 162 165 157 128 142 139 136 121 149 159 145 146 150 134 105 88 80 81 84 95 100 104 102 121 119 129 128 132 127 130 134 131 125 124 124 124 123 123 125 121 121 124 123 124 124 125 128 129 132 136 134 134 135 132 131 129 128 128 126 124 123 122 123 123 123 122 122 118 117 114 112 114 117 121 124 125 125 131 138 142 156 162 175 179 187 186 197 211 209 194 185 172 165 163 163 138 136 144 145 133 156 154 143 141 142 127 101 91 80 81 89 98 101 100 111 122 123 128 124 126 124 127 123 122 121 120 121 120 116 117 120 119 120 120 120 118 119 118 120 122 125 130 129 130 131 132 126 127 126 124 120 119 120 119 120 119 122 122 123 120 119 120 113 112 115 119 124 126 125 127 134 139 152 155 170 181 183 179 188 207 212 200 185 177 170 168 155 148 142 146 149 146 157 157 140 143 135 122 106 92 84 83 94 97 104 102 116 127 127 127 127 122 121 121 121 117 116 118 117 114 114 113 113 117 119 119 119 114 116 116 117 118 122 127 124 125 128 129 125 125 124 120 118 119 118 119 118 117 119 120 119 120 118 119 117 113 115 118 121 124 125 127 131 135 147 152 165 182 184 183 186 203 209 209 193 184 176 171 158 147 147 145 148 150 156 155 138 134 130 112 102 88 83 80 96 102 110 109 120 131 131 127 130 125 121 121 119 113 116 116 114 113 112 113 113 120 122 121 119 117 117 114 116 118 119 123 120 119 123 124 124 122 122 118 118 118 118 118 118 116 118 121 121 123 122 120 120 117 116 118 120 121 123 128 130 132 144 152 161 180 181 184 185 194 208 209 197 189 181 176 165 151 147 152 144 148 157 146 139 125 126 107 89 86 79 86 91 107 109 115 123 132 128 128 130 129 123 116 116 116 117 117 116 116 117 115 120 124 125 125 126 122 122 118 116 120 118 119 117 117 119 120 119 118 120 114 116 116 115 115 114 115 114 115 115 117 120 123 120 120 123 120 118 121 124 122 127 131 144 150 160 173 182 185 187 186 205 205 199 191 178 177 173 159 150 152 149 146 140 142 131 109 117 105 82 77 81 83 89 102 110 115 130 133 129 133 133 126 121 115 115 118 120 117 121 120 118 121 125 128 129 129 129 127 125 122 120 120 121 121 119 117 118 116 115 113 113 114 115 115 114 111 112 113 113 116 115 120 123 127 124 126 129 128 122 121 124 123 126 133 142 146 160 164 177 182 185 185 193 203 199 190 191 181 170 164 147 153 157 142 128 133 119 107 110 99 79 68 77 72 82 97 111 121 135 135 135 134 134 129 121 121 119 121 120 120 122 120 119 122 125 125 126 126 126 123 123 122 121 120 119 120 120 117 118 114 111 112 111 113 116 120 118 116 116 116 119 121 120 121 126 131 128 130 132 132 129 124 127 127 127 133 138 145 158 165 166 176 182 183 190 195 194 188 197 188 173 159 149 153 152 144 123 124 113 109 108 92 70 66 64 63 81 98 108 122 134 142 139 134 134 129 128 126 123 120 118 117 119 120 119 120 120 120 122 125 127 124 126 122 124 118 117 118 119 115 114 114 114 113 116 116 118 122 121 121 121 120 118 120 120 122 126 129 131 126 129 128 129 129 128 131 128 132 139 145 159 169 170 167 179 182 187 192 188 187 188 196 179 160 155 159 150 149 117 120 112 108 104 86 66 63 55 70 86 100 112 123 140 147 144 136 133 131 132 126 121 118 119 119 119 118 118 120 118 118 121 126 124 126 127 124 120 118 115 113 110 108 110 111 112 115 116 116 117 120 120 120 120 120 118 122 123 122 124 124 124 123 120 119 119 124 126 130 128 132 141 149 161 173 172 169 181 181 192 199 186 181 182 194 182 162 160 152 151 149 125 121 115 108 106 86 71 61 64 76 87 103 119 129 146 147 146 134 131 131 132 126 120 121 123 122 119 117 114 116 113 110 112 114 116 118 121 119 114 110 108 107 106 108 107 110 113 113 114 111 113 117 116 120 120 120 120 123 125 122 121 118 119 116 115 114 114 114 122 121 129 129 135 145 164 170 170 173 177 178 187 203 190 177 185 185 185 165 163 151 148 143 127 124 119 112 102 89 76 62 67 74 89 109 125 134 146 145 140 135 130 130 128 121 123 123 117 116 117 110 109 106 105 104 108 110 110 113 114 112 110 107 106 106 107 109 110 111 114 114 111 108 110 116 115 118 120 122 122 124 126 121 123 120 120 117 114 112 113 114 119 121 130 132 128 141 161 170 173 173 176 180 182 205 190 171 183 195 185 173 156 149 141 133 129 119 111 110 102 93 79 60 63 73 91 113 128 133 141 134 134 133 129 126 126 126 125 122 115 116 112 108 105 105 107 107 110 110 111 111 108 109 109 108 106 109 111 112 112 114 115 113 112 109 112 115 118 119 121 126 128 127 129 127 125 124 123 121 123 122 117 115 118 119 127 133 132 134 151 163 175 178 174 177 187 201 187 172 182 199 187 175 167 147 133 125 122 119 106 114 107 91 74 55 69 81 96 116 126 130 129 126 128 125 126 125 130 130 125 121 117 116 116 112 109 112 109 111 113 112 113 113 112 110 111 110 111 113 114 113 113 114 112 113 113 113 115 115 118 119 121 123 126 129 128 133 130 129 126 128 127 129 124 121 119 123 128 132 138 139 139 154 168 181 177 178 187 193 181 168 187 197 188 176 174 148 125 115 121 114 113 117 101 90 72 63 74 89 104 120 123 120 116 116 120 112 113 124 131 131 129 122 118 115 113 113 114 116 113 115 117 118 120 120 120 120 119 117 117 121 119 118 119 118 115 117 118 117 119 119 120 119 121 126 128 131 129 133 136 134 133 137 132 130 127 125 118 126 128 134 138 141 141 154 162 175 185 181 193 186 174 169 177 193 192 178 166 154 118 109 115 109 116 110 100 93 73 68 79 103 113 122 119 111 110 115 120 114 122 134 140 135 132 127 125 124 121 122 120 118 118 119 124 124 128 127 129 132 134 129 129 129 126 124 125 125 123 122 122 123 125 125 127 125 127 132 134 138 139 144 146 147 146 148 147 144 143 142 137 135 138 139 141 146 145 154 168 170 186 180 195 182 171 173 182 184 195 178 166 149 124 100 97 108 118 104 105 88 79 77 87 116 125 117 116 114 113 122 127 128 139 149 152 150 148 141 140 142 138 138 138 132 130 135 133 135 136 138 139 142 142 141 140 136 137 135 133 132 131 133 129 132 134 134 137 138 140 142 146 148 151 158 160 157 161 159 160 157 160 160 160 153 153 152 153 154 155 157 172 173 182 186 189 178 165 174 181 191 197 180 164 138 114 94 88 106 114 106 104 83 86 83 97 125 123 120 116 111 108 123 123 127 136 140 142 143 141 139 141 141 144 145 144 145 142 139 139 139 140 142 143 144 148 150 148 146 146 144 145 141 143 144 143 142 144 148 145 147 149 154 158 160 163 167 176 174 175 173 176 174 172 171 171 163 164 165 170 167 167 165 171 178 180 187 186 173 164 172 185 194 198 174 153 119 106 92 102 114 115 108 94 84 91 96 114 128 123 119 109 110 111 124 127 134 143 147 146 145 143 139 140 143 148 143 141 144 143 141 141 140 139 146 147 148 150 151 148 146 149 148 148 148 148 153 155 150 153 157 153 151 153 158 166 165 165 163 169 175 174 176 181 177 180 177 174 169 165 171 172 176 174 172 172 184 182 186 185 167 158 175 183 194 192 172 139 110 110 95 110 121 112 111 96 93 101 103 115 129 123 112 108 112 114 122 129 136 142 142 138 137 139 140 138 141 142 139 139 142 145 141 144 143 142 142 145 145 140 145 146 144 148 148 144 149 151 153 155 157 156 158 155 152 157 158 166 167 166 170 171 173 179 181 184 180 182 188 178 176 168 174 171 172 174 172 164 175 180 182 180 165 159 172 183 187 183 162 131 107 105 87 110 117 114 111 98 104 109 102 120 139 122 105 104 107 108 120 125 134 136 134 138 143 147 142 137 138 135 141 140 141 139 138 138 138 138 141 142 139 133 139 144 144 148 148 146 148 151 155 155 155 156 159 155 151 156 157 160 162 160 167 168 170 171 179 181 178 181 185 183 182 169 168 168 170 174 173 164 164 166 176 175 160 158 159 171 176 170 155 129 96 93 86 109 104 106 107 100 111 110 113 124 135 121 103 104 106 115 130 129 131 128 136 138 143 144 136 131 129 134 138 137 138 138 136 135 134 136 139 141 134 137 139 140 142 143 144 144 144 149 152 154 152 153 148 145 141 148 156 156 157 155 158 164 158 158 160 166 171 172 175 182 173 171 161 162 159 163 167 160 154 160 162 169 157 154 157 165 167 163 141 116 91 86 89 105 107 100 105 96 110 111 121 127 131 123 108 103 113 129 138 129 131 128 140 139 141 145 138 127 126 135 137 137 133 132 126 131 137 137 138 130 132 131 131 137 136 140 138 143 142 148 152 154 150 149 142 133 129 133 145 144 144 149 144 147 147 142 159 158 162 166 161 165 162 150 152 156 147 144 152 144 138 146 155 158 144 148 152 159 165 156 126 112 97 83 93 105 113 101 102 95 114 121 128 133 130 115 105 99 115 129 134 125 127 124 131 130 135 143 137 134 133 141 140 139 135 132 127 120 127 131 132 119 124 124 126 130 128 131 125 131 136 136 140 149 148 140 130 123 125 121 121 136 133 137 139 142 146 144 154 152 146 154 150 139 143 135 126 125 135 130 131 134 131 141 160 162 138 150 154 153 152 146 116 107 94 88 93 107 125 115 103 101 117 129 131 143 126 119 99 89 110 123 129 130 130 127 136 143 141 143 147 151 157 149 144 135 131 126 126 124 119 127 126 117 119 117 116 119 117 124 121 126 131 135 142 149 147 137 128 122 119 115 118 129 131 135 140 143 144 140 153 138 140 138 140 138 133 130 117 114 121 127 123 120 127 142 153 163 138 151 158 155 136 139 116 87 91 92 90 107 125 138 114 113 118 130 128 146 129 129 109 102 113 119 125 132 133 138 144 148 138 140 145 143 149 145 135 125 127 117 117 117 119 123 123 120 114 111 106 107 113 122 124 130 137 145 147 147 141 136 133 119 119 113 119 124 133 134 136 138 137 140 147 138 134 133 132 141 144 140 124 120 119 123 132 131 132 142 151 157 134 152 159 153 123 133 92 79 96 95 84 111 119 132 121 127 121 134 136 153 142 134 119 114 127 127 125 127 136 146 152 148 136 139 133 132 128 127 123 118 118 111 106 117 122 124 115 108 110 113 107 109 120 134 135 140 145 152 156 152 139 136 137 137 128 133 133 141 150 140 134 128 129 138 138 135 134 132 136 149 149 146 131 133 129 132 140 142 139 143 149 146 132 145 148 136 102 104 60 67 99 89 91 115 120 115 118 135 138 140 142 156 150 134 122 118 127 125 122 128 136 139 140 143 137 133 128 125 131 124 121 121 120 114 114 122 122 123 112 113 111 114 110 110 121 131 136 136 143 152 158 155 151 148 149 152 143 144 153 155 152 154 150 132 130 134 137 136 132 129 136 137 142 145 133 139 133 133 137 133 138 142 136 133 122 139 130 112 95 102 64 65 96 84 98 123 127 107 126 145 153 156 146 160 155 134 124 123 126 127 126 136 139 137 141 133 129 126 126 125 127 127 125 122 117 117 122 128 126 110 111 114 113 112 106 108 117 122 127 133 146 150 152 154 153 159 155 164 151 147 159 166 154 157 156 140 138 142 137 132 126 124 122 131 140 142 140 135 128 132 128 128 128 135 121 114 122 127 121 108 101 110 83 80 102 84 97 118 109 114 133 149 151 158 151 160 157 138 122 124 125 127 128 134 136 130 129 126 120 123 123 125 128 118 114 115 115 108 120 128 119 109 111 118 118 117 119 118 120 124 127 129 146 143 152 155 154 165 161 158 153 142 150 155 149 151 155 139 140 138 148 134 128 133 133 123 125 129 135 129 121 121 128 125 126 128 116 110 110 114 125 112 97 107 83 83 104 87 87 114 102 104 131 144 148 145 156 155 154 143 120 125 125 123 127 127 137 127 122 123 117 112 114 108 107 106 104 104 107 109 117 122 117 112 112 110 114 111 110 114 118 124 127 134 150 155 159 159 147 149 156 149 147 141 137 131 135 137 142 135 130 128 128 125 125 122 129 126 120 119 128 120 111 117 119 121 125 127 114 117 104 106 124 112 88 108 88 94 110 85 79 115 100 105 124 131 144 134 148 151 151 148 125 135 133 126 126 127 135 123 120 121 116 110 106 102 109 110 113 113 104 106 108 109 112 111 114 111 117 122 115 116 128 135 131 145 155 161 163 158 145 142 155 150 143 140 133 119 120 125 129 132 125 122 117 126 117 115 122 123 117 116 121 109 104 112 111 114 120 117 116 116 99 99 109 101 89 113 83 107 111 87 80 127 106 107 119 125 131 114 123 143 144 146 131 136 138 124 128 122 132 123 120 119 110 106 107 104 109 110 113 112 104 102 104 105 106 111 111 113 117 120 127 132 145 153 146 157 167 173 170 162 152 147 159 153 145 142 133 113 110 108 118 118 115 111 110 106 104 106 109 113 112 111 115 101 100 106 108 118 113 109 115 116 93 88 107 96 97 118 82 104 101 87 91 125 101 104 105 117 117 101 107 130 145 146 131 137 141 132 132 128 132 133 123 123 117 108 112 103 106 111 112 114 113 106 108 105 102 106 118 116 118 124 136 147 161 163 164 168 169 171 170 157 150 152 153 156 139 141 136 120 110 107 108 106 107 102 103 102 100 100 104 105 104 103 99 92 99 100 105 117 115 107 112 116 92 89 104 97 106 116 89 103 85 85 92 129 91 90 92 99 99 99 102 122 148 150 141 138 146 140 139 132 133 136 128 119 121 112 108 103 104 107 108 113 113 109 105 100 102 117 123 120 124 133 145 156 159 173 178 176 180 175 169 158 144 151 153 157 140 141 137 132 125 116 109 106 99 98 101 102 100 101 100 92 91 97 96 97 105 100 108 119 118 110 112 116 101 99 104 104 100 114 99 92 79 81 92 133 79 68 84 84 85 94 108 115 147 147 148 148 150 146 141 139 134 138 133 126 128 123 117 113 110 111 110 116 116 106 103 106 114 125 127 123 128 138 146 156 164 170 175 175 171 168 156 151 149 146 154 155 149 146 138 128 128 119 117 112 108 98 96 98 94 93 96 93 92 97 97 103 108 102 115 120 119 112 112 113 99 102 106 100 91 110 94 82 84 81 89 137 73 53 71 79 82 83 117 130 137 155 142 150 153 149 148 148 144 149 148 139 135 135 127 126 123 122 114 118 117 112 112 115 124 124 128 131 132 141 156 164 178 176 175 174 167 154 154 151 152 150 153 154 147 151 145 132 133 125 115 111 110 110 105 105 101 99 101 102 104 106 103 110 108 113 118 121 121 120 114 104 94 96 110 88 92 109 80 82 87 87 88 136 78 57 60 76 82 94 109 142 150 155 150 149 150 152 149 153 149 149 152 145 135 134 140 138 130 127 123 119 126 125 126 132 131 130 137 137 137 152 159 168 178 179 176 165 159 158 151 153 150 149 145 148 148 153 150 138 137 137 123 115 110 108 112 107 108 105 102 110 111 110 112 119 117 122 123 125 128 126 113 100 86 92 103 88 94 103 74 86 85 93 95 127 77 59 52 70 66 100 112 137 160 162 153 150 152 146 146 148 149 148 147 152 148 147 145 144 139 137 130 132 138 144 148 145 140 136 143 142 148 157 163 170 179 173 168 164 156 159 157 153 148 148 145 142 139 145 147 141 139 138 133 123 119 116 116 124 116 115 113 123 119 121 126 122 129 127 128 132 131 123 108 97 93 93 95 95 92 88 73 87 83 94 104 107 72 48 47 60 51 85 110 140 160 157 151 147 149 150 147 151 159 155 152 154 152 153 150 145 147 149 148 148 157 155 150 146 142 140 142 146 155 165 169 174 175 170 160 161 152 155 159 161 151 146 155 152 137 143 149 150 148 144 139 134 126 123 126 130 132 130 127 122 126 130 130 131 134 131 132 128 132 127 104 101 95 103 100 99 89 81 73 83 79 102 110 95 80 49 45 51 58 59 105 139 151 154 143 141 144 151 149 152 159 162 158 156 155 159 160 148 150 149 148 150 156 160 157 153 151 146 140 141 151 170 176 173 172 161 154 151 144 150 153 157 153 151 155 148 152 147 145 148 143 143 136 135 142 137 133 137 142 139 142 139 138 133 137 137 132 135 138 136 135 124 108 107 98 107 112 96 86 76 74 82 94 110 116 98 85 61 55 51 54 67 97 135 144 150 135 138 141 148 148 149 155 163 165 159 159 161 159 155 157 158 156 156 162 158 155 156 151 147 147 157 166 180 181 175 170 164 153 157 150 147 147 151 159 155 151 157 155 155 156 158 161 151 149 148 153 151 146 146 150 148 148 145 150 150 144 142 140 140 143 138 137 127 120 113 108 116 109 98 81 75 78 88 112 129 111 106 94 69 63 59 61 83 104 133 142 151 138 138 137 142 147 149 151 155 156 156 156 154 157 158 157 157 157 159 165 164 162 162 156 152 157 167 179 187 188 186 182 168 162 160 163 158 155 157 155 160 154 156 151 153 154 157 164 158 151 151 154 158 156 157 158 154 152 148 150 150 147 144 142 142 147 144 136 130 125 114 117 120 111 99 80 85 89 95 115 131 111 109 100 68 69 57 56 77 100 129 143 148 135 141 137 139 144 149 149 152 150 148 148 147 149 151 150 150 154 160 160 159 156 155 158 161 169 181 184 187 186 192 190 181 176 170 164 166 166 163 157 162 161 155 150 151 158 163 166 163 153 152 155 159 160 161 157 157 155 151 154 153 150 148 144 145 147 141 131 129 123 117 119 125 111 96 92 97 95 100 125 133 125 122 106 82 79 57 51 72 85 113 132 140 138 141 137 137 144 146 149 149 150 145 147 145 141 139 141 140 145 151 153 154 151 151 153 165 170 174 179 183 188 194 203 195 188 180 174 174 173 169 162 161 162 160 159 157 160 156 158 160 156 153 152 152 157 160 159 158 154 149 149 148 146 146 140 141 139 135 129 120 111 119 120 128 110 97 102 104 101 111 123 130 130 125 123 101 86 66 47 66 81 98 121 136 138 143 137 138 144 143 144 147 147 143 143 146 141 136 136 140 138 145 146 147 147 150 148 156 164 168 177 182 194 206 208 202 192 184 176 177 173 169 168 160 161 163 171 168 166 159 155 157 156 154 149 148 150 158 161 157 155 154 149 146 144 139 138 134 135 133 123 114 106 114 119 128 110 102 111 109 113 114 122 132 129 126 129 126 92 83 55 65 90 98 120 131 135 143 139 138 141 144 145 150 150 144 141 142 143 138 136 137 142 146 148 147 144 147 150 157 166 173 182 189 195 205 206 197 191 183 178 177 171 167 168 165 163 163 165 162 160 154 148 148 146 142 140 139 141 147 155 155 154 147 144 143 139 139 137 135 132 127 117 114 106 109 116 123 113 105 114 112 127 114 117 131 138 119 130 134 105 93 72 71 98 102 119 127 132 139 138 140 141 145 148 152 152 145 139 141 140 138 135 141 145 150 150 147 143 144 147 159 169 181 190 190 192 200 198 196 188 179 176 180 177 174 167 165 158 155 152 150 154 148 143 143 139 136 132 133 135 139 145 149 144 142 139 141 141 142 141 131 131 126 111 120 107 108 112 115 111 112 115 122 136 114 119 134 134 113 126 137 123 104 85 86 100 109 112 127 133 143 137 140 140 147 150 150 148 145 137 139 144 142 141 145 143 150 151 139 142 147 152 154 164 170 182 185 180 186 187 181 182 180 181 181 186 181 178 171 162 152 144 137 145 143 135 129 130 125 124 127 125 129 133 135 134 137 137 136 136 143 139 130 132 121 111 120 109 109 111 118 121 117 125 133 136 119 126 133 134 115 119 141 125 116 94 100 102 112 113 124 136 148 138 141 142 148 149 145 142 138 135 136 138 139 142 147 146 145 143 140 141 146 146 147 151 152 163 171 174 172 174 170 175 180 180 178 183 182 183 179 170 153 141 136 143 144 135 130 126 124 124 120 119 122 126 130 133 133 132 134 133 141 136 129 131 117 116 115 109 104 116 128 129 124 132 141 129 129 128 135 144 117 127 133 126 117 97 105 105 117 120 128 141 150 141 143 147 146 144 145 139 137 132 134 135 134 137 142 138 137 136 136 142 140 137 138 145 145 152 161 171 167 169 166 166 170 171 166 169 175 171 169 157 142 130 134 139 143 133 131 124 122 124 123 120 118 124 132 133 133 130 129 130 139 134 130 129 126 126 116 111 106 120 138 131 131 143 143 128 134 132 136 155 126 127 131 135 130 106 107 116 123 130 144 145 150 141 144 150 146 142 143 141 135 129 130 129 132 135 135 134 130 127 130 135 133 131 136 139 144 147 147 156 152 157 156 154 151 149 150 152 154 153 144 133 122 122 123 128 130 130 125 122 124 124 125 120 117 124 131 131 128 127 124 131 139 132 127 131 135 129 122 124 120 128 143 137 135 146 138 132 145 145 137 158 134 134 129 148 141 112 116 123 124 136 149 148 149 143 147 149 145 143 142 139 136 130 130 131 132 131 131 130 127 127 130 129 128 128 130 132 135 138 133 131 131 128 137 133 131 128 132 134 131 131 122 105 102 108 110 114 121 124 126 126 128 127 127 119 117 122 127 124 125 125 125 128 138 129 126 133 135 126 120 129 122 131 144 135 143 149 134 139 148 147 141 155 134 137 134 152 142 120 119 128 128 138 152 151 149 146 144 148 146 144 142 140 136 132 130 130 130 129 129 127 127 134 132 128 126 129 126 128 118 117 114 113 110 109 119 120 116 117 118 121 118 112 105 98 92 96 106 113 117 121 121 121 125 128 126 123 118 122 124 121 123 128 125 127 131 123 122 129 133 124 123 131 128 137 145 140 154 141 130 147 146 143 146 149 133 129 135 151 146 129 119 131 129 138 151 152 142 145 144 146 150 145 142 140 139 133 128 128 127 128 125 125 128 130 129 125 128 137 135 127 113 108 111 110 106 103 105 113 112 108 113 110 109 109 106 102 95 93 102 109 114 117 117 121 124 127 125 124 124 120 123 123 122 124 123 125 129 121 122 126 128 121 127 129 131 142 143 143 153 131 138 150 149 149 149 149 130 121 135 151 144 133 126 123 136 138 144 155 141 144 144 143 150 148 142 142 141 136 128 126 127 126 124 125 126 126 122 117 125 133 140 135 127 121 126 121 117 112 117 121 118 111 108 104 104 107 107 108 103 102 104 115 119 124 124 120 123 123 126 121 122 122 123 125 121 120 123 121 127 122 122 124 127 121 128 127 136 140 140 142 147 135 149 150 153 149 155 155 125 118 127 137 135 132 129 125 135 140 144 147 139 139 139 143 147 147 141 141 135 134 127 126 127 126 130 125 123 121 120 117 119 120 126 133 133 134 131 125 118 120 118 121 120 128 126 116 119 110 109 111 114 116 119 124 130 135 135 130 131 128 126 126 126 126 124 123 118 121 120 124 128 122 122 125 122 121 129 133 136 133 133 150 148 142 151 153 156 151 151 156 120 120 123 129 129 132 133 122 128 139 139 145 134 127 134 142 145 141 140 137 132 129 126 123 120 121 129 131 125 119 119 120 118 124 128 124 130 136 131 127 117 125 126 133 130 141 139 134 132 123 111 109 115 123 122 124 133 141 146 147 141 136 133 130 129 129 125 123 118 120 119 122 126 125 124 123 119 121 129 134 136 132 135 151 151 152 154 157 155 156 150 153 121 124 117 125 125 128 132 130 122 132 134 135 129 121 128 139 141 138 137 133 132 131 127 124 121 123 129 134 128 127 127 128 124 127 133 128 131 133 132 127 125 129 134 142 134 140 134 135 140 135 121 116 119 122 121 127 135 146 152 152 144 140 135 133 128 134 128 127 119 119 122 121 123 125 125 121 119 126 131 126 126 132 132 155 157 153 153 168 156 157 151 154 122 126 117 126 124 126 131 130 126 131 130 129 119 113 118 131 139 138 132 133 135 134 132 132 131 135 143 143 140 143 142 141 140 144 150 150 148 149 142 138 135 138 142 140 139 140 140 142 146 146 135 122 122 124 124 134 139 149 147 147 143 140 136 133 130 135 131 127 122 124 123 122 124 125 123 116 115 129 133 121 124 146 140 145 168 155 152 177 162 162 155 155 123 122 123 124 126 116 125 129 127 127 131 132 117 114 110 126 141 138 131 135 134 136 134 133 139 143 150 150 150 148 148 152 156 162 166 166 166 163 158 156 155 153 154 154 153 154 152 153 152 146 132 126 130 134 135 143 143 145 143 142 137 134 134 137 133 135 132 127 125 128 130 125 124 121 119 115 116 129 135 121 123 154 151 141 163 153 151 175 177 159 162 156 119 118 122 122 114 115 113 123 125 128 128 134 118 116 106 115 132 134 132 136 132 139 137 138 140 145 151 149 151 144 137 146 158 158 158 158 161 160 161 158 156 156 154 157 158 158 150 151 145 142 138 138 138 140 136 146 145 139 135 134 134 135 138 141 138 133 132 127 125 130 129 125 124 116 114 114 122 125 123 116 117 144 149 152 146 150 152 172 187 163 162 166 116 117 113 112 108 110 112 115 124 124 131 138 116 120 106 114 124 127 125 132 133 140 137 139 140 143 150 147 149 144 140 140 149 148 148 149 149 148 152 147 147 147 140 133 130 124 122 123 122 126 126 124 124 134 130 138 143 141 139 136 134 134 137 136 134 128 129 123 125 128 128 125 122 117 111 114 123 124 111 117 128 146 150 150 146 146 153 167 181 171 164 165 118 111 109 105 103 105 108 112 118 120 123 130 117 116 104 114 113 117 125 120 133 141 140 148 142 143 149 148 149 145 142 139 145 143 144 146 148 144 144 136 138 132 128 122 119 116 114 113 112 112 110 117 119 125 119 122 131 140 138 133 127 123 124 126 129 125 124 121 125 125 127 122 121 112 110 117 123 121 113 117 135 139 147 143 144 150 148 166 173 173 165 164 109 107 106 103 104 101 103 111 119 115 119 123 112 113 103 112 114 111 118 118 122 134 132 142 141 138 140 146 145 141 140 138 140 140 141 145 144 135 128 124 121 120 112 117 113 115 111 113 120 121 118 117 117 116 114 114 123 125 131 129 124 126 126 126 127 123 118 122 124 124 124 116 113 108 112 120 125 119 117 120 131 141 143 143 142 149 149 161 176 173 162 168 106 102 100 103 101 93 99 109 109 112 115 117 107 114 109 114 115 114 110 117 117 123 117 125 129 127 131 134 137 129 128 134 134 134 133 138 135 131 126 128 125 129 123 119 118 115 112 106 112 113 111 113 114 113 113 115 118 126 131 127 123 130 127 128 125 123 119 121 122 123 119 112 112 104 116 128 125 117 122 118 136 141 140 137 143 144 151 163 172 182 161 168 99 102 97 99 92 94 94 105 104 108 111 113 104 111 113 121 121 119 112 112 119 124 120 124 127 124 128 129 128 119 117 122 123 120 123 126 124 126 127 126 126 122 117 110 104 104 101 98 101 106 107 109 112 110 118 123 124 131 130 124 124 127 131 127 126 121 118 117 119 120 116 106 110 107 124 132 122 125 122 125 139 145 138 137 141 145 155 166 176 186 166 161 99 98 97 102 93 93 95 100 103 100 114 109 99 108 107 120 127 125 127 123 122 128 133 129 134 126 132 138 125 120 116 114 117 116 117 120 125 122 124 121 121 120 116 112 108 107 106 107 106 106 109 111 115 118 122 125 128 128 125 128 128 126 127 125 122 116 116 116 117 119 108 102 112 110 134 131 122 133 131 135 142 142 139 135 137 147 157 161 171 185 172 163 96 95 99 104 88 90 89 94 95 92 108 103 95 95 104 111 123 131 132 127 127 126 139 135 138 135 136 143 139 128 124 126 125 126 118 120 122 123 124 122 123 123 120 118 120 116 113 117 112 107 111 113 115 120 122 127 126 127 123 129 127 127 124 121 117 113 114 116 117 114 99 108 106 116 137 135 129 150 144 150 149 150 144 140 138 139 158 161 163 183 175 169 97 94 104 103 89 78 81 87 86 74 99 97 89 87 96 101 117 132 134 130 128 128 132 136 135 135 134 137 141 135 128 127 127 126 120 123 125 127 129 128 125 123 122 124 126 120 121 118 115 113 112 113 113 114 121 124 123 124 121 123 123 121 119 114 111 112 113 116 114 106 98 115 103 126 139 133 152 156 161 164 159 160 154 148 143 148 160 159 162 181 179 173 101 102 105 101 88 76 73 82 72 72 85 90 80 85 81 98 111 127 130 132 128 128 130 131 133 133 134 131 131 135 134 128 125 129 130 127 125 129 129 132 130 131 127 128 127 123 120 122 118 118 115 113 110 110 119 123 126 120 123 121 121 116 115 112 113 113 114 116 109 99 102 121 106 120 137 133 163 171 180 179 179 174 170 155 161 166 172 161 172 185 185 182 103 102 94 96 93 74 70 79 73 62 77 82 77 70 74 89 103 122 124 126 126 127 132 134 128 131 128 129 131 126 125 122 123 124 125 124 117 122 122 124 127 128 127 127 125 126 122 124 120 120 118 115 117 118 124 122 125 123 122 121 117 114 114 116 115 116 117 115 105 101 104 121 116 126 128 145 167 180 194 194 194 186 176 170 175 183 188 174 180 197 195 197 109 100 100 111 105 79 67 79 73 60 78 82 60 64 66 75 101 118 123 121 121 128 134 132 131 134 128 128 127 126 121 118 116 115 113 116 114 112 116 116 117 117 119 120 119 116 113 113 113 111 112 114 112 113 120 118 120 124 119 117 113 113 111 115 117 115 116 112 110 108 110 115 112 125 126 143 173 182 194 202 206 203 183 183 186 196 196 186 193 198 198 202 99 93 97 115 114 78 59 86 74 69 79 72 58 56 63 62 94 115 116 119 118 128 130 130 135 137 133 129 126 128 123 123 122 121 119 116 115 118 117 114 112 111 112 109 111 108 106 108 111 111 111 110 110 111 114 118 118 121 118 116 109 113 113 112 117 118 112 114 121 117 111 120 117 118 127 153 178 182 187 209 210 211 199 195 197 205 198 190 205 210 203 209 92 91 97 118 112 63 59 84 75 58 73 66 51 50 65 60 94 113 116 116 119 124 128 132 137 136 132 133 125 124 123 123 126 128 119 113 114 108 108 102 103 103 100 100 101 99 99 101 102 103 103 105 106 106 115 119 119 117 112 114 110 113 114 114 114 111 109 122 128 122 115 130 132 123 122 161 182 183 191 202 210 211 210 208 213 220 202 195 217 214 210 212 90 94 102 114 104 54 53 67 58 40 61 78 45 56 63 54 92 113 114 117 116 122 126 137 146 138 131 131 128 122 124 118 120 124 121 119 109 104 102 99 95 97 94 92 96 93 96 97 97 100 101 98 102 106 113 119 118 112 112 110 111 111 114 113 108 112 119 124 136 128 121 141 145 130 128 150 184 183 191 199 208 210 218 217 221 220 212 211 228 228 216 225 84 96 94 105 81 33 26 60 49 33 72 76 58 53 54 52 90 109 113 118 118 120 125 140 153 144 136 133 133 127 124 123 121 122 120 116 113 108 107 97 92 94 88 88 91 93 92 96 94 97 101 101 109 112 110 113 114 110 108 106 109 110 112 109 113 117 125 134 138 127 127 149 155 145 142 145 177 179 196 201 204 217 223 227 235 227 222 227 236 239 226 234 80 89 89 83 66 30 18 62 43 33 71 79 62 72 59 53 80 111 110 116 121 124 122 139 153 149 138 137 132 131 125 126 123 124 119 120 115 110 107 100 93 93 87 83 83 87 88 91 90 89 95 99 106 110 107 107 108 104 104 107 106 107 107 112 121 126 137 139 141 127 134 161 154 166 164 157 176 176 194 210 202 217 224 236 237 229 229 245 243 245 235 237 78 75 78 67 60 34 21 52 34 28 74 88 78 79 69 59 74 101 108 117 123 132 126 137 151 151 138 136 133 133 127 127 125 123 126 121 118 111 109 104 100 95 90 83 86 85 87 89 95 90 99 102 104 108 109 105 104 100 106 111 109 105 116 123 128 138 143 141 144 133 142 164 157 174 175 164 186 185 191 205 205 220 227 233 233 231 228 246 252 246 245 243 67 66 74 56 54 33 12 37 40 31 83 93 99 87 78 68 80 95 108 118 121 131 136 137 151 151 144 134 133 132 130 127 129 130 129 127 125 116 115 112 106 102 99 94 96 94 97 98 104 104 107 108 108 106 108 105 105 108 110 110 109 116 128 135 138 147 143 144 145 145 154 155 158 179 175 166 185 199 201 198 206 221 228 228 224 229 231 237 255 247 245 248 57 59 66 38 39 24 3 26 43 43 80 99 120 90 87 74 87 104 106 113 123 128 148 146 148 148 148 139 135 135 132 128 126 136 137 136 129 125 126 120 115 113 113 109 108 104 104 105 109 112 112 114 108 113 108 110 113 120 113 112 120 135 141 145 146 150 145 148 151 149 157 151 157 171 176 175 184 193 206 202 209 224 230 221 218 225 231 235 241 244 246 249 49 40 42 20 25 23 0 38 58 59 92 119 130 89 93 83 98 113 113 113 120 139 149 154 148 152 149 146 144 139 137 133 128 133 139 140 139 135 131 126 128 125 128 126 123 119 116 121 122 123 120 119 116 115 118 117 123 122 117 124 141 146 150 149 149 157 146 142 151 154 159 150 154 162 179 175 182 188 202 211 216 225 233 223 222 223 230 229 230 239 237 246 39 31 33 18 27 36 24 50 70 65 100 128 123 107 110 102 109 117 122 123 120 143 157 150 152 158 152 147 153 153 146 143 138 136 138 145 147 146 146 142 140 139 141 138 138 134 138 138 137 133 129 130 128 124 130 132 128 123 129 142 150 145 152 152 156 159 145 143 153 156 152 155 156 150 180 183 189 169 181 210 224 229 224 224 222 233 229 223 228 227 228 232 36 44 46 28 37 55 36 50 72 78 107 141 131 140 118 106 107 122 130 127 129 144 152 149 151 158 158 151 152 158 158 153 154 149 148 149 152 155 157 159 156 156 153 154 154 151 149 149 144 140 137 138 138 139 141 136 132 137 149 149 147 153 158 156 163 149 143 146 153 155 144 161 157 155 172 182 198 180 159 186 217 233 228 221 222 238 234 226 228 218 228 228 45 61 56 49 59 70 66 67 73 85 118 154 151 140 129 104 110 117 135 136 134 142 151 146 152 152 160 157 153 157 160 162 159 161 161 158 158 158 158 160 160 162 160 159 161 156 153 148 147 144 141 147 146 145 141 141 142 149 154 147 154 155 160 160 157 142 148 150 152 156 153 163 151 160 170 188 201 186 172 172 188 223 231 225 229 234 232 230 227 218 222 225 66 88 82 73 75 85 78 64 84 98 129 154 156 143 146 109 116 120 138 149 140 139 151 147 154 155 156 156 156 156 157 161 159 156 157 157 160 160 161 159 157 159 156 158 156 152 151 147 146 148 145 148 145 149 148 146 151 158 153 154 159 156 158 157 150 142 156 153 148 150 167 163 149 154 160 188 204 186 185 183 169 192 213 225 238 235 232 238 225 216 220 229 88 98 91 87 76 85 81 80 88 105 127 144 163 147 150 139 122 122 133 150 150 147 145 149 153 155 157 159 160 158 156 158 160 160 155 156 159 158 158 157 159 157 154 156 153 152 148 148 146 147 152 151 147 151 151 151 156 159 154 161 156 159 158 152 144 151 160 150 151 154 168 158 150 155 163 179 206 193 193 193 169 177 183 202 230 230 233 242 231 207 217 225 