P2
92
112
255
118 116 119 121 122 123 130 125 124 125 123 117 124 125 126 127 126 128 127 126 129 128 125 131 125 134 138 137 138 131 133 131 120 119 123 124 121 126 123 125 133 132 131 133 135 130 140 136 138 141 146 142 141 141 140 142 144 147 153 149 146 150 151 155 143 150 154 147 153 153 157 157 157 157 153 157 158 151 151 153 159 159 161 162 158 156 155 156 152 157 152 147 118 116 117 121 119 126 127 122 121 125 122 119 117 122 125 128 127 128 122 125 120 122 129 135 140 140 145 143 137 136 130 129 116 119 123 124 120 125 122 122 125 125 122 126 131 135 132 138 128 130 139 138 133 134 133 144 146 148 147 148 143 141 148 154 148 138 141 143 143 150 154 156 158 153 153 152 158 154 148 155 153 151 156 159 158 156 157 158 150 156 155 150 118 119 118 121 121 124 118 122 123 118 118 118 126 125 123 124 122 121 117 120 114 120 124 142 142 135 141 137 126 123 123 122 120 126 123 121 120 123 121 123 123 116 117 118 124 131 119 126 123 129 124 125 120 126 128 139 136 142 142 142 144 148 143 147 149 139 134 138 133 136 147 152 154 152 147 146 152 156 152 147 147 146 157 159 156 157 156 156 155 151 154 154 115 119 116 114 123 122 116 118 120 119 121 123 122 121 118 125 118 118 118 119 118 131 132 135 140 131 133 129 125 121 112 112 118 120 124 124 124 123 124 129 130 125 116 122 121 124 121 122 126 130 124 115 114 116 123 128 127 125 130 135 133 141 137 138 142 142 133 129 129 124 129 140 148 154 145 144 139 148 148 148 146 149 148 155 154 156 154 156 154 150 149 152 116 119 117 117 115 117 116 114 115 123 120 119 121 116 118 118 115 118 117 126 124 126 133 129 127 131 124 127 124 122 112 117 115 125 122 126 129 129 129 130 142 144 133 128 133 132 129 122 122 138 130 124 121 123 127 119 122 116 116 123 127 127 133 134 135 145 137 137 120 116 124 128 132 145 145 145 141 135 141 147 143 147 147 148 152 151 159 155 157 152 148 149 116 117 116 114 112 112 116 119 115 120 120 113 120 109 112 115 119 125 130 129 124 127 135 131 127 123 122 122 123 121 117 119 121 118 123 122 131 138 134 131 140 148 142 132 139 143 133 124 127 132 136 135 128 124 126 125 120 114 113 119 129 130 130 134 134 134 128 131 130 113 115 121 120 122 136 133 132 143 137 138 146 142 142 144 151 149 154 154 153 155 152 145 118 119 118 113 110 114 114 118 119 116 117 116 115 107 107 118 126 128 135 130 119 124 122 118 117 115 114 119 122 121 118 118 126 128 130 127 133 138 134 137 139 143 137 130 134 137 130 120 122 131 134 135 128 129 129 133 126 117 119 119 124 126 122 126 135 137 127 123 125 131 114 109 115 128 129 124 119 132 141 131 136 147 139 139 144 148 148 151 152 153 154 145 116 119 118 112 110 110 115 123 124 125 119 122 121 111 117 131 137 126 127 122 113 107 107 118 116 121 122 122 119 122 123 124 126 130 127 128 132 128 128 131 135 133 131 129 129 130 133 124 118 129 135 131 125 131 133 133 129 125 123 123 127 128 123 128 138 136 135 119 122 137 125 117 112 110 117 115 122 130 130 127 125 137 143 140 139 148 147 145 152 153 154 146 119 116 111 112 111 110 117 124 126 124 127 122 119 129 133 134 127 123 116 109 104 104 103 112 117 124 128 123 121 118 120 126 124 120 119 118 121 127 119 125 134 135 127 132 133 133 131 125 119 119 122 125 124 124 129 131 132 128 125 131 132 127 122 121 130 126 124 124 128 138 131 128 122 112 104 109 115 124 127 124 122 131 136 140 138 143 151 148 147 151 150 149 117 114 111 114 113 114 119 123 127 129 124 122 126 135 135 132 120 113 100 99 97 98 102 111 115 113 118 120 118 117 112 116 122 118 112 118 120 119 118 125 128 130 124 126 135 134 127 125 120 118 116 120 124 123 125 129 135 130 132 132 129 125 123 114 117 123 122 125 125 135 132 136 126 113 112 110 113 119 123 122 120 124 129 134 131 134 143 146 143 148 149 144 115 110 116 118 118 123 122 125 134 129 124 126 135 134 134 124 120 99 92 97 95 100 113 115 115 112 111 116 117 111 107 108 111 115 113 115 123 118 117 118 123 120 121 124 129 134 128 125 125 125 116 119 121 124 127 129 128 130 134 136 131 128 129 120 116 121 122 117 122 128 130 141 141 127 121 114 112 120 118 126 119 119 118 121 126 133 136 137 144 144 147 148 116 115 119 118 121 122 122 128 129 118 126 139 136 129 129 117 105 83 83 88 91 102 108 115 113 113 112 115 116 113 110 110 111 111 116 117 120 117 121 119 123 117 119 121 127 128 130 128 126 126 125 120 117 119 126 133 126 128 130 134 132 130 127 126 113 115 120 113 112 113 116 127 137 143 132 119 119 109 118 126 121 113 115 115 122 127 134 130 141 141 143 147 113 118 118 119 121 118 125 126 117 120 131 136 130 125 118 101 87 85 84 90 94 109 111 118 117 120 121 119 115 117 122 119 121 117 118 116 121 121 125 124 125 127 123 126 129 129 129 132 124 120 123 122 124 125 132 130 122 119 128 127 128 125 124 126 123 117 120 120 117 115 107 110 116 122 141 134 133 123 114 121 118 121 119 115 118 123 129 133 135 140 142 144 120 121 121 119 116 123 121 114 124 135 136 132 126 116 95 81 81 77 83 93 107 115 118 116 122 126 120 121 114 121 128 126 124 126 127 124 125 127 127 130 132 131 130 130 138 133 132 135 133 127 123 128 130 133 131 128 121 121 126 127 128 124 125 123 122 123 119 122 123 123 116 113 114 114 129 140 130 133 127 120 116 120 128 122 114 120 120 135 133 132 140 149 121 124 121 116 119 121 116 120 128 136 133 131 125 104 84 80 83 85 90 102 117 122 116 117 122 124 127 130 125 132 138 138 136 136 134 132 135 137 137 136 142 139 136 134 136 134 130 133 137 128 126 129 129 133 133 131 126 129 132 135 135 127 135 128 123 125 131 124 123 130 128 125 123 115 111 135 144 126 127 125 119 118 130 132 122 122 124 128 137 130 130 141 123 128 123 125 112 121 127 131 139 139 138 133 116 96 79 80 83 98 106 119 122 121 117 117 119 125 131 134 136 145 144 142 143 143 147 144 143 147 145 138 139 140 135 130 132 131 129 127 131 128 124 130 130 127 127 130 128 130 133 136 136 125 133 134 125 125 127 129 124 127 132 130 127 119 112 123 144 137 129 130 128 130 128 135 127 133 129 124 132 132 122 132 124 127 125 117 121 119 137 144 140 137 141 128 108 91 88 90 96 109 117 125 125 123 126 123 126 133 131 138 144 148 153 154 153 156 154 148 150 148 145 139 137 139 137 132 132 133 127 127 125 127 124 126 126 123 119 119 121 119 122 129 128 125 129 136 132 131 134 135 135 127 123 127 133 130 121 121 131 150 142 141 130 132 137 134 129 126 126 125 123 126 129 124 127 125 132 124 130 138 146 142 138 137 134 111 100 94 90 100 115 119 120 128 129 123 129 130 132 136 137 147 150 155 159 163 162 162 156 151 151 148 145 141 141 142 140 140 135 137 132 133 133 132 126 127 127 123 117 114 111 112 114 121 118 124 126 134 136 136 146 150 149 142 132 134 134 135 130 136 130 145 158 148 147 133 139 141 131 125 120 123 119 121 124 121 127 132 126 131 143 146 139 140 137 132 116 99 98 93 98 111 120 120 121 131 130 129 133 136 140 143 146 155 162 163 164 161 162 160 157 155 156 152 149 149 149 149 148 147 146 148 150 148 145 142 139 138 139 132 124 118 116 114 119 122 122 125 131 139 137 140 141 150 153 155 143 139 142 141 140 142 140 140 157 168 151 148 136 146 146 128 117 122 122 119 121 121 133 133 135 129 154 149 135 144 139 124 110 96 92 95 103 114 117 123 132 135 137 138 138 141 147 153 156 161 169 167 164 164 162 157 157 158 155 152 153 152 155 157 156 157 158 159 161 155 151 151 153 147 147 140 139 135 130 128 125 125 126 124 128 134 141 140 142 143 150 153 155 147 142 148 141 144 148 155 154 166 162 151 147 144 150 131 122 120 123 117 121 121 139 141 137 136 151 144 138 142 129 114 99 90 95 106 110 113 119 128 137 136 139 142 145 149 157 159 161 168 170 169 168 165 162 158 156 157 155 156 154 156 159 159 162 165 166 163 164 162 160 156 160 153 150 151 150 148 139 136 131 125 127 124 128 130 140 143 144 144 146 149 154 160 156 154 149 151 152 164 165 160 169 168 153 149 143 134 126 125 121 119 120 118 141 142 137 143 146 144 141 138 122 96 81 89 98 109 106 117 128 135 128 133 140 147 151 156 154 160 168 167 168 171 165 161 155 152 151 153 155 155 155 157 161 164 168 168 169 166 165 163 164 161 161 161 158 156 155 152 138 138 136 128 124 125 123 129 135 138 142 141 144 148 153 157 159 158 153 157 162 167 176 174 177 175 163 146 149 131 134 126 119 121 118 113 142 142 141 149 147 149 140 129 103 81 84 90 101 106 110 123 129 127 122 131 138 144 147 158 151 157 160 160 162 162 160 157 152 145 147 152 155 154 153 156 158 162 167 166 167 167 163 165 164 165 165 163 159 153 152 146 141 136 133 126 121 125 122 125 131 131 136 141 142 144 150 157 160 163 164 164 172 179 181 193 190 181 174 155 151 137 129 134 121 117 116 116 136 134 143 150 150 145 130 115 88 87 85 99 98 102 115 118 119 120 122 135 138 141 150 152 150 150 148 148 149 152 153 149 146 144 141 143 148 150 149 150 154 152 159 159 158 159 159 160 158 158 160 157 152 146 146 142 135 134 131 126 122 123 124 125 130 130 134 136 142 145 147 155 164 162 166 171 174 186 195 196 204 192 181 168 161 157 132 133 127 115 116 119 133 139 148 149 152 137 124 94 91 81 90 100 98 103 112 113 115 122 126 135 138 136 148 147 143 141 139 139 140 143 144 141 140 142 141 141 142 142 145 147 151 148 150 151 150 149 149 147 148 149 147 145 138 139 139 133 129 128 129 124 122 124 124 124 127 131 131 131 140 142 144 152 162 164 170 178 182 186 197 200 198 199 186 169 166 162 139 124 132 121 114 114 135 152 149 145 149 134 114 89 88 83 90 98 100 109 108 115 121 124 130 137 132 134 141 137 134 134 133 133 136 135 136 133 134 134 136 135 135 134 137 143 145 143 143 143 143 141 140 137 136 140 137 134 131 131 132 128 127 126 126 118 121 119 119 121 125 126 127 128 130 140 143 145 157 160 174 174 180 179 193 201 199 190 190 172 159 163 154 124 134 129 126 112 142 157 146 144 151 137 109 93 86 87 94 105 110 114 111 128 124 133 131 134 129 132 135 133 130 130 131 130 129 129 131 127 125 129 127 128 129 128 131 132 135 139 137 137 139 136 134 133 132 132 130 128 127 126 126 125 122 122 122 116 116 115 114 116 119 123 125 125 125 131 137 140 153 155 167 169 174 172 184 201 202 191 186 173 162 159 161 134 128 134 134 123 149 151 143 139 144 132 106 96 87 89 99 109 112 110 119 129 129 132 129 131 128 132 127 128 128 127 128 126 123 124 126 125 124 124 124 122 123 122 123 126 129 133 131 133 134 134 129 130 128 126 124 122 123 122 123 120 121 121 121 116 115 116 112 114 115 118 123 124 123 125 131 137 148 151 160 171 170 165 175 196 204 192 181 177 168 165 151 144 134 135 138 134 148 154 141 142 138 128 112 97 90 91 104 108 114 111 124 132 132 132 133 128 127 127 127 124 124 125 124 121 121 120 119 121 123 123 123 119 120 120 121 121 125 130 127 128 131 131 128 127 126 122 122 122 121 121 120 117 118 118 116 117 113 114 112 111 114 116 119 121 121 122 128 132 143 148 155 171 172 170 171 191 198 200 187 181 175 168 154 142 140 136 136 137 149 152 139 135 131 118 108 93 90 90 106 111 119 118 126 135 136 133 135 130 128 127 126 121 123 123 121 119 118 119 119 125 126 125 123 121 120 117 120 121 122 126 123 122 126 126 126 124 123 120 121 120 119 119 118 115 116 118 118 119 118 115 112 112 112 116 117 118 118 121 124 129 141 149 154 168 169 170 172 182 196 198 190 182 176 174 163 146 142 143 132 134 153 142 137 126 127 110 94 92 88 96 101 114 116 122 127 135 134 134 135 134 128 123 123 123 123 122 123 122 123 121 125 129 129 129 129 126 125 121 119 121 121 121 119 119 121 121 120 120 121 116 117 116 115 115 114 114 112 112 112 114 116 119 115 114 117 116 115 117 117 115 121 126 137 144 153 161 169 171 173 173 194 194 191 185 169 172 172 154 144 144 138 131 138 141 132 113 119 108 87 83 88 92 98 109 115 118 132 136 134 137 137 131 127 121 122 124 126 123 127 126 124 126 129 132 132 130 130 128 127 124 122 121 124 123 119 119 119 117 116 113 114 115 115 114 113 110 110 111 111 114 111 116 120 124 120 119 120 121 116 115 116 114 119 124 134 142 152 155 164 168 170 173 183 193 187 182 182 172 167 162 140 145 146 127 126 131 120 110 110 100 82 74 85 81 89 102 113 121 136 138 138 136 137 133 128 127 126 126 125 124 127 125 123 126 127 127 127 126 126 123 123 123 123 122 121 121 120 118 118 115 112 112 112 114 116 119 117 114 113 113 116 118 117 117 123 128 125 125 125 122 122 117 116 116 120 124 129 139 150 155 153 163 168 169 180 186 184 176 188 179 167 158 145 144 141 130 123 125 115 112 110 95 75 74 71 71 86 100 109 123 137 145 142 138 137 134 133 131 129 125 123 121 124 124 122 121 120 121 121 124 125 125 126 122 125 119 118 119 120 116 115 115 115 113 116 116 118 121 119 118 118 118 115 117 116 117 122 124 126 120 121 119 122 122 118 121 120 123 128 137 148 159 157 153 165 168 177 183 179 175 175 187 173 157 151 151 139 135 119 122 116 112 108 90 71 71 65 79 90 100 112 124 143 149 146 139 137 136 136 132 128 124 125 125 124 122 122 124 121 121 123 127 125 128 128 125 121 119 117 116 112 110 111 112 113 115 116 117 116 119 120 119 118 118 116 120 119 120 122 122 122 118 114 112 111 116 115 119 121 122 127 137 148 161 161 155 167 168 181 190 178 170 170 184 175 157 153 145 145 138 128 125 118 110 110 90 76 69 75 83 90 102 119 130 147 149 148 136 134 133 135 131 126 127 128 126 124 121 119 121 117 114 117 120 121 122 125 121 117 114 112 110 109 110 111 113 116 114 115 113 113 116 115 117 117 117 117 119 119 120 119 118 119 115 111 109 109 107 112 111 121 120 121 132 150 155 157 160 163 166 175 194 181 166 173 175 179 159 157 144 141 133 125 125 121 114 106 94 82 69 76 79 90 106 126 136 147 147 143 137 131 132 131 127 128 127 121 121 122 116 115 112 110 110 114 116 116 118 119 115 114 111 109 110 111 112 113 113 115 115 111 108 110 115 114 115 117 120 119 118 120 118 121 119 120 117 112 110 109 111 110 112 122 122 115 125 145 156 158 159 162 167 172 193 180 160 172 184 179 169 152 142 132 125 126 121 113 112 108 98 85 67 72 77 90 111 129 134 142 136 137 135 130 127 129 129 127 126 123 122 119 115 112 112 113 113 116 116 117 116 113 112 112 111 109 111 113 113 113 115 115 113 111 108 110 113 116 117 118 124 125 122 125 125 123 122 122 120 121 118 114 112 112 111 119 124 122 119 134 148 161 164 161 163 179 190 174 161 173 188 180 170 163 142 125 117 121 121 110 116 110 94 82 64 76 82 94 114 125 131 131 128 130 126 128 126 133 132 129 125 123 121 121 119 116 118 115 117 119 118 119 119 117 114 114 113 113 115 115 113 113 114 112 113 112 112 113 115 117 118 120 122 124 127 127 133 129 128 126 127 125 125 120 118 117 117 120 123 130 128 126 139 154 168 162 163 177 183 167 156 177 187 182 173 171 145 121 109 122 119 118 121 104 92 81 73 79 88 99 117 121 121 118 120 121 114 116 126 133 133 132 126 122 119 118 120 121 122 119 121 124 124 126 125 124 123 121 119 119 121 120 118 119 118 115 117 118 116 118 118 119 119 120 125 126 127 127 132 135 133 132 135 130 127 123 120 116 118 120 126 129 132 129 141 150 162 171 165 181 175 160 156 166 185 186 176 162 151 116 103 117 116 120 114 105 93 80 76 81 98 108 119 119 112 112 119 121 114 122 134 139 136 133 130 129 127 125 127 126 123 123 123 128 129 132 131 132 134 135 131 130 130 127 124 124 124 123 121 121 122 124 124 126 125 127 128 130 133 135 141 143 144 142 144 142 139 137 136 131 127 132 131 132 137 133 141 156 157 173 165 180 170 156 159 171 177 189 173 159 147 120 94 100 115 119 109 109 89 85 81 87 109 120 118 117 114 115 124 124 125 134 145 150 148 147 140 140 143 140 143 140 136 134 139 137 139 140 141 143 145 146 144 143 139 138 135 132 131 130 131 129 131 133 133 136 137 139 141 143 145 146 153 155 151 154 152 154 149 152 153 153 147 148 147 147 148 148 146 162 163 171 172 175 164 151 160 168 183 189 175 160 138 109 89 93 114 116 109 107 85 89 86 95 118 119 118 117 113 111 124 123 127 135 140 142 143 142 139 143 142 145 146 145 146 144 140 142 141 143 145 146 147 151 153 151 147 146 144 144 139 141 142 141 140 142 145 142 144 145 150 152 155 157 159 167 165 166 163 167 165 163 164 164 154 159 159 163 161 160 156 163 168 171 175 173 160 148 158 171 182 192 175 154 123 101 89 105 118 117 112 98 84 90 96 108 119 117 116 109 112 111 122 122 128 139 144 143 143 141 138 138 141 147 143 140 143 143 139 139 140 140 146 147 148 151 151 148 147 146 144 145 145 144 149 150 146 149 153 149 147 147 150 159 158 157 157 161 165 165 167 172 168 171 170 165 160 159 167 166 170 169 164 165 177 175 176 173 153 144 159 171 184 189 175 143 112 107 94 112 121 115 116 103 94 97 101 107 117 114 107 104 110 111 118 122 131 141 141 138 136 139 138 138 143 144 141 141 142 144 139 140 141 141 140 143 144 138 145 146 145 147 146 142 147 148 149 151 152 151 154 150 147 152 153 160 161 160 164 166 167 173 175 177 172 174 180 170 166 161 171 165 168 173 169 159 171 176 175 170 152 148 157 172 181 183 168 135 110 106 88 107 114 118 116 107 106 106 98 109 123 108 98 100 104 106 115 121 133 136 135 139 144 146 142 140 142 138 143 140 139 137 135 135 137 135 138 140 136 132 138 144 147 149 146 144 144 148 152 150 150 150 153 149 145 149 151 155 158 154 162 164 166 168 175 176 172 177 181 178 178 164 166 165 167 174 173 162 162 163 171 167 149 148 148 166 174 174 158 132 98 99 90 105 101 110 114 111 113 111 107 111 118 104 94 98 101 110 125 125 131 131 140 141 146 145 137 134 132 135 139 136 135 134 132 131 132 132 135 140 133 135 137 141 145 143 141 140 139 144 147 150 147 147 140 139 135 142 150 148 153 148 152 159 151 155 157 163 168 171 173 180 175 171 161 161 156 162 170 160 153 158 159 160 147 145 149 165 167 170 146 121 95 94 92 100 106 103 111 106 110 115 115 115 116 109 100 95 105 122 132 128 132 132 146 145 146 148 141 132 131 137 138 134 129 127 122 129 132 133 136 130 133 131 132 135 135 139 135 138 136 142 147 149 144 144 134 125 122 126 134 138 134 138 133 137 139 136 153 153 160 164 161 166 166 155 154 157 150 146 157 149 141 147 152 150 134 140 149 163 169 162 133 118 104 89 96 100 111 103 109 104 115 122 121 121 116 104 99 91 106 121 128 124 129 129 137 135 140 146 139 138 139 142 138 136 133 130 125 119 124 128 132 121 128 126 128 130 126 132 125 129 133 133 136 145 143 135 122 116 118 116 116 128 123 126 127 131 135 132 145 146 144 151 149 143 147 140 134 131 140 135 135 139 135 145 159 157 131 143 155 161 158 153 123 114 97 92 94 102 121 114 109 107 118 127 126 130 114 106 94 83 100 114 123 130 134 130 139 145 143 146 147 151 157 148 142 135 132 129 128 126 119 127 133 125 122 121 118 121 118 125 124 125 131 136 142 149 147 135 123 117 112 109 113 122 120 121 127 131 134 132 145 135 138 137 143 140 138 136 123 121 127 133 127 127 133 145 154 160 134 149 163 165 145 148 123 95 96 94 92 101 122 134 118 117 118 124 123 134 115 116 101 91 103 110 122 135 135 142 146 150 144 143 147 147 151 143 132 124 128 122 123 122 123 129 134 132 123 117 110 111 115 126 127 131 139 147 149 150 145 135 122 112 113 105 110 118 122 121 120 124 125 132 144 134 129 131 134 143 144 146 130 127 129 132 137 134 134 140 147 151 129 152 165 163 134 144 99 87 102 96 84 105 114 128 119 126 120 124 127 136 127 120 111 101 115 115 122 130 138 149 151 151 140 140 137 139 135 130 126 123 121 118 117 125 133 138 129 123 125 120 113 113 124 133 135 140 146 154 156 154 141 133 129 130 120 122 121 135 145 129 120 120 124 131 136 134 133 132 132 148 148 150 142 144 137 140 145 143 141 142 145 137 126 144 152 147 115 121 70 75 105 87 90 108 114 115 114 132 134 130 128 136 131 118 110 102 115 114 118 130 136 141 141 143 138 135 132 132 138 131 128 128 126 120 123 132 133 139 127 123 126 124 112 110 122 128 134 135 146 154 159 156 151 144 145 151 137 136 144 145 146 152 146 134 132 134 134 133 131 129 138 138 144 147 141 149 140 139 141 135 142 142 134 128 118 138 137 122 107 119 76 74 104 84 98 114 119 106 125 141 148 144 130 140 134 120 112 104 111 114 116 133 140 138 137 134 132 128 127 130 134 134 132 126 121 122 126 138 137 127 126 123 122 122 111 110 117 119 123 131 147 153 155 155 149 153 153 166 149 142 156 161 150 157 160 148 145 146 140 134 129 126 129 135 141 144 145 145 137 139 132 130 132 135 119 110 117 128 128 119 112 125 91 84 109 82 98 108 100 110 133 143 143 143 134 140 134 121 109 105 109 116 117 131 133 130 129 128 123 126 125 127 131 123 117 119 117 112 124 132 127 121 118 122 119 118 121 118 117 121 124 128 147 145 148 152 149 160 161 161 154 141 148 154 150 155 162 148 146 145 153 143 137 135 140 130 129 133 143 135 129 128 131 126 128 128 113 107 107 114 129 121 106 118 89 85 107 76 84 101 92 97 128 140 140 133 138 137 131 123 105 108 112 114 117 124 131 122 122 124 118 113 112 107 108 110 109 112 114 109 114 122 120 119 115 114 119 114 112 116 115 119 126 132 147 151 154 155 141 145 153 148 148 143 136 134 139 144 148 140 136 136 136 137 133 127 137 134 129 127 135 125 118 124 124 122 124 127 111 114 100 105 128 119 93 111 93 90 103 72 70 102 87 94 119 129 139 125 132 134 131 128 111 118 119 116 118 123 130 120 119 121 116 111 106 102 111 114 119 118 109 103 105 110 116 117 121 118 124 124 116 115 126 131 128 143 154 162 159 154 139 137 151 145 140 139 135 121 124 127 133 136 131 127 123 134 123 123 130 131 129 126 130 118 112 120 119 117 116 115 112 111 98 97 113 105 93 117 83 98 102 75 76 114 91 97 113 123 129 109 112 129 128 128 120 122 125 117 121 119 131 122 118 119 114 110 109 107 114 115 119 117 107 103 105 108 111 118 119 120 124 126 130 132 145 150 142 154 168 174 168 157 147 142 155 149 142 144 139 116 111 108 119 122 120 115 115 114 112 114 118 122 124 123 124 111 109 114 114 117 107 105 112 109 91 87 111 97 100 122 82 97 90 76 90 111 90 94 99 116 117 98 98 120 134 131 124 127 128 123 127 125 132 134 123 123 118 112 116 107 110 117 118 121 116 110 111 109 109 114 121 122 123 129 136 144 161 160 161 165 170 172 169 155 147 148 150 153 140 146 145 125 112 108 108 108 110 105 109 108 109 108 114 116 114 114 109 100 107 105 107 115 108 104 107 108 90 87 103 95 107 119 88 100 75 74 88 114 84 83 86 96 100 93 92 113 140 137 134 130 137 134 134 128 131 135 129 120 123 115 113 108 110 112 114 116 115 112 108 107 110 121 127 126 126 135 145 154 156 171 177 173 179 176 169 157 145 148 152 158 142 143 144 139 127 118 111 108 103 99 104 106 105 107 107 100 99 104 102 102 108 102 107 117 112 106 105 107 97 92 97 101 101 116 97 86 69 71 88 118 76 66 80 82 89 92 95 106 135 138 141 141 144 142 137 135 132 137 133 127 130 126 121 117 115 116 114 119 118 109 107 110 119 131 134 130 131 139 146 151 159 168 174 173 172 169 157 153 152 147 155 156 151 149 143 135 133 122 119 115 112 102 98 99 96 97 100 99 98 100 101 105 109 102 112 116 113 106 104 104 93 93 96 97 90 109 95 74 75 76 88 119 72 57 67 77 86 82 102 114 125 143 139 143 148 144 144 145 140 147 148 139 136 137 131 129 127 126 118 122 120 115 116 120 129 132 134 137 135 142 155 159 172 173 172 172 167 155 155 154 155 152 154 156 149 156 150 136 136 130 117 113 112 113 107 107 103 101 103 106 108 109 106 111 107 110 114 116 115 115 106 95 88 86 99 85 87 107 79 72 76 85 87 118 81 62 56 75 87 98 97 127 136 145 148 144 147 147 144 149 147 147 152 146 136 137 142 142 133 131 128 123 128 125 127 135 135 135 141 141 140 152 156 163 172 175 172 164 158 158 154 155 153 151 146 149 151 156 154 141 137 136 122 113 110 107 112 108 109 106 104 113 113 112 114 120 114 118 117 119 121 120 105 92 82 81 93 83 85 104 74 75 76 89 91 111 83 69 50 72 76 104 103 123 146 152 149 149 152 147 146 147 151 150 151 154 151 150 148 148 142 141 134 133 138 141 148 146 142 139 144 145 150 152 157 163 173 167 165 163 155 159 156 153 150 149 144 142 142 148 149 142 136 132 129 119 115 113 113 119 113 114 112 122 118 121 124 122 126 122 121 125 124 116 103 89 88 83 87 90 84 88 68 76 72 85 96 99 84 63 48 68 64 92 106 129 149 147 144 143 149 152 151 153 161 156 155 156 154 157 154 147 149 151 150 148 155 151 148 145 142 140 143 147 151 156 160 166 166 163 155 158 151 152 157 158 150 146 152 149 136 143 151 149 143 137 132 128 119 117 119 125 125 124 123 119 122 126 127 129 130 126 125 121 126 120 99 92 89 95 94 95 83 80 65 69 68 92 98 96 91 66 50 64 71 68 101 128 145 144 136 137 141 153 151 157 162 164 160 158 157 162 162 150 152 150 150 150 153 155 152 150 148 144 138 140 146 159 165 163 161 152 148 146 140 146 149 152 150 149 150 144 149 143 144 147 140 135 129 128 133 127 125 130 134 132 136 132 133 128 133 132 128 128 130 128 128 115 100 96 92 104 107 91 80 74 65 66 80 98 114 100 91 77 62 66 68 75 95 123 139 142 127 132 139 148 152 153 158 165 167 161 161 162 161 157 158 159 156 154 157 152 150 152 146 142 142 151 157 168 168 162 157 152 143 150 143 140 139 144 154 149 145 151 151 149 150 153 156 146 139 139 146 141 136 136 139 140 141 140 143 143 140 137 135 132 135 131 129 118 110 103 107 113 105 93 73 72 68 72 94 110 102 107 95 84 74 75 80 88 106 126 137 143 130 132 135 142 150 152 154 158 159 159 159 159 160 162 161 159 157 157 161 158 155 156 150 145 151 160 169 174 174 172 170 156 150 150 152 147 142 145 147 152 146 150 146 145 146 151 158 152 142 143 146 151 147 147 148 144 143 140 141 142 142 139 135 133 139 136 127 120 114 106 116 117 110 92 72 81 77 81 100 112 103 109 99 83 83 72 76 83 103 124 136 140 125 133 133 138 145 150 152 155 153 151 154 153 152 154 153 151 153 155 154 152 148 149 152 153 161 172 175 176 173 179 178 169 163 158 152 155 155 153 147 151 152 147 144 144 149 155 159 155 143 143 146 152 151 152 147 147 146 143 145 146 143 142 136 136 139 133 121 118 113 112 118 122 110 91 87 89 84 87 106 115 108 120 104 95 95 72 68 80 88 109 124 129 129 131 132 135 145 148 151 151 153 151 154 152 146 144 147 144 144 147 147 147 144 145 148 158 162 168 172 176 178 184 192 184 177 170 163 164 163 162 154 152 152 152 153 151 153 149 153 151 145 144 144 145 150 152 150 148 144 141 140 139 139 138 132 134 132 128 119 110 103 114 117 123 109 94 96 95 92 100 106 112 115 123 120 109 102 82 63 77 82 100 114 123 127 132 131 134 142 144 146 151 153 150 150 153 148 144 142 144 140 143 141 139 139 144 144 151 158 165 174 177 187 198 199 192 182 177 167 168 165 163 161 152 152 153 166 164 160 152 148 149 147 146 141 140 142 149 152 149 145 144 139 138 137 130 129 127 128 125 112 106 98 110 115 123 111 99 102 102 104 100 106 117 115 125 126 127 107 97 70 77 91 101 114 120 122 131 132 132 136 143 148 155 155 151 148 149 151 146 142 141 142 145 144 141 138 141 146 153 163 171 180 186 190 200 199 188 183 178 172 171 166 161 160 156 153 155 158 155 152 146 141 139 136 132 130 130 132 138 145 147 145 138 137 135 131 131 127 126 124 117 109 109 100 105 113 120 114 99 103 104 118 101 105 114 123 116 127 133 116 104 86 80 97 102 114 116 119 123 128 133 134 145 150 157 157 153 148 150 149 146 141 143 146 149 146 142 136 137 141 154 167 178 185 186 186 196 192 188 182 175 173 175 170 165 157 157 151 148 144 142 143 140 137 136 129 126 124 123 127 130 137 142 137 134 133 134 134 134 132 123 121 114 104 116 102 105 107 111 106 102 105 111 126 99 110 120 123 110 123 138 126 113 94 95 100 108 108 116 120 129 125 130 133 145 151 154 154 152 146 148 152 150 145 147 144 148 147 134 135 136 140 147 158 162 175 176 172 179 181 174 175 174 174 174 176 169 168 163 155 142 135 128 135 136 130 123 123 116 115 118 117 121 125 130 128 131 132 131 131 136 132 122 123 112 106 117 103 105 104 113 112 106 113 119 125 105 115 126 124 112 117 142 125 117 101 107 102 111 110 112 122 135 124 131 135 144 149 149 148 146 144 145 146 146 146 148 145 143 139 134 131 133 133 136 141 142 152 159 162 160 162 156 162 168 167 165 171 170 172 169 160 145 133 127 135 138 130 124 120 115 115 110 110 115 121 125 129 127 129 129 128 136 131 122 124 110 113 110 101 96 106 121 118 113 121 129 119 116 119 129 134 116 126 135 124 115 100 109 102 113 116 114 125 135 127 132 137 140 144 148 143 144 140 143 144 141 141 145 138 135 129 126 129 126 122 126 135 134 139 146 155 149 150 144 144 150 154 149 155 161 156 157 148 135 122 125 131 137 128 125 118 115 117 115 112 112 120 127 129 128 127 126 127 135 128 124 124 119 123 110 104 96 109 127 120 124 140 133 117 122 124 130 151 124 126 131 132 128 102 111 112 117 123 126 127 134 126 130 139 138 141 145 145 142 138 138 139 141 141 139 134 127 119 120 121 122 120 121 125 130 134 132 139 133 137 137 138 137 137 139 142 143 141 133 125 117 115 116 123 124 125 119 116 118 118 118 114 112 120 128 128 127 127 123 126 135 128 123 127 129 126 115 117 109 114 131 129 127 142 127 123 133 134 130 150 132 132 130 145 135 107 113 119 116 127 130 130 132 128 131 138 137 140 142 142 143 139 137 138 142 140 136 132 124 119 122 119 117 117 117 118 122 128 122 122 123 119 128 127 126 122 125 125 123 123 115 99 100 103 106 109 114 119 120 119 123 122 122 114 113 119 127 125 127 128 126 126 137 127 123 130 130 123 114 122 112 115 132 125 135 139 122 129 138 136 135 143 133 133 134 151 136 116 114 118 119 128 133 132 132 130 128 135 136 139 140 140 142 141 140 139 139 138 136 131 126 127 124 119 117 117 113 118 108 110 108 108 106 110 120 118 112 112 113 116 112 106 101 93 89 92 101 107 109 113 115 115 120 124 122 119 115 121 127 122 125 132 127 130 132 123 121 126 129 120 115 123 117 119 133 130 148 131 118 139 139 138 141 140 129 123 131 149 141 121 116 121 119 125 131 134 124 128 126 132 138 138 140 141 144 140 139 138 138 139 133 129 129 127 123 117 118 121 122 121 107 103 109 112 108 106 109 115 106 103 111 109 107 104 101 96 91 90 97 104 106 111 111 115 120 123 123 121 121 120 126 127 126 129 125 128 131 122 121 123 125 118 119 122 119 127 132 135 143 121 128 144 144 143 144 141 123 113 132 150 140 126 119 117 122 123 122 134 122 124 124 127 137 139 139 143 145 143 139 137 139 141 134 133 131 128 120 114 118 120 125 123 119 115 122 118 115 110 119 125 117 105 104 100 100 103 104 104 100 100 101 111 115 120 120 115 121 122 125 120 120 123 127 130 126 126 125 125 129 123 122 121 126 117 121 120 124 127 132 134 138 129 145 145 148 144 150 146 122 113 126 136 130 125 122 116 121 123 121 124 115 117 118 125 133 138 138 141 140 142 137 137 139 140 140 133 130 125 121 118 119 119 121 126 129 131 127 122 115 118 118 120 117 124 122 112 116 108 108 109 112 115 117 121 127 132 132 126 128 127 128 127 125 128 128 127 124 125 125 127 130 125 121 122 123 116 123 126 125 123 124 136 145 138 150 149 152 147 147 150 119 119 124 128 124 128 126 114 115 121 118 121 110 105 113 123 130 132 136 138 136 135 134 133 132 132 137 135 129 123 121 122 120 123 126 123 128 134 129 125 118 125 126 133 129 139 138 132 130 122 110 108 114 124 123 124 131 139 145 145 139 137 136 132 131 131 129 126 123 124 123 125 128 128 123 121 121 116 123 125 125 129 126 133 149 148 154 156 152 153 146 150 121 124 117 123 121 123 126 123 112 115 115 113 105 96 107 118 127 129 131 134 136 135 134 132 129 130 133 136 131 130 130 130 126 127 132 127 131 133 130 125 125 129 133 142 133 140 134 135 139 135 121 116 120 125 124 130 138 149 155 155 145 142 139 136 131 135 131 130 123 124 125 124 125 129 125 120 119 120 122 115 120 131 119 137 149 148 153 170 153 154 147 151 121 124 117 125 121 121 125 123 118 118 112 110 96 91 99 113 125 129 126 134 139 138 138 136 134 137 143 143 141 145 144 141 140 145 151 149 147 151 145 139 135 138 141 141 138 141 141 140 144 145 135 122 124 127 128 137 140 152 152 153 145 142 138 136 131 135 133 129 124 127 126 124 126 127 123 115 111 120 121 111 117 140 128 127 154 150 150 182 164 160 151 149 122 120 123 125 124 110 118 122 121 117 115 115 100 93 91 109 125 130 127 133 136 138 137 135 138 142 144 147 149 148 151 152 155 162 168 169 169 170 165 162 158 155 155 155 153 155 154 153 150 145 132 127 131 137 137 144 145 146 148 147 138 135 136 139 133 135 132 128 126 130 131 125 123 121 117 112 110 118 121 111 119 146 139 126 151 149 147 178 183 157 159 152 119 118 122 122 113 110 106 115 117 119 116 119 103 98 88 100 118 127 127 134 133 139 137 137 138 140 143 143 146 140 136 145 156 157 160 161 165 166 166 166 162 162 159 161 156 157 151 149 143 140 136 137 137 140 138 145 143 137 134 133 131 132 139 141 136 131 130 126 125 130 128 124 122 114 111 108 113 111 111 107 112 140 142 144 141 146 151 171 195 161 160 162 116 117 112 111 107 107 105 107 114 113 118 121 101 102 88 97 108 118 120 130 132 138 136 136 135 136 139 137 139 137 135 136 147 149 149 149 151 152 153 152 151 149 141 133 129 125 123 122 121 124 126 126 125 134 132 135 140 138 137 134 130 130 134 134 131 126 124 119 123 125 126 122 120 114 108 106 113 108 101 107 122 143 151 149 141 142 152 163 186 173 163 162 118 111 107 104 102 103 101 105 108 110 111 113 99 96 84 95 97 107 118 115 129 137 138 144 135 134 136 136 137 136 136 136 145 145 146 146 145 144 142 139 139 134 129 121 116 113 111 110 108 108 107 112 116 123 119 120 129 136 134 131 123 119 119 122 124 121 118 117 121 122 123 117 117 110 104 106 107 106 101 102 129 137 148 142 140 146 144 162 179 176 163 163 109 106 103 101 101 98 98 104 111 105 109 108 94 93 81 94 97 101 110 109 117 128 130 140 135 130 131 138 134 135 136 138 140 142 143 146 142 133 125 122 119 118 111 112 107 108 104 107 115 114 113 113 114 115 114 114 122 122 127 125 120 121 120 119 120 117 114 118 119 119 120 112 109 104 103 107 106 105 103 105 126 140 144 138 138 146 145 156 183 180 159 167 104 100 98 100 98 89 96 104 101 102 105 103 92 95 88 96 98 100 103 106 107 115 114 123 123 118 122 125 128 123 127 134 134 137 137 142 138 135 130 131 125 127 121 116 112 109 106 101 106 109 109 112 114 114 114 115 118 124 127 123 119 125 120 120 117 115 113 115 117 119 114 107 108 97 103 111 106 103 106 107 131 141 142 135 139 141 148 157 180 191 159 166 98 99 94 97 89 91 91 101 97 99 101 100 89 94 91 101 102 103 102 103 106 113 113 120 124 116 117 121 123 115 117 123 123 122 126 130 130 131 131 129 127 124 119 110 105 103 101 98 101 107 109 111 115 112 118 121 123 129 126 121 119 121 125 118 119 115 112 111 113 115 111 100 104 98 110 113 104 109 109 117 136 145 141 137 137 144 152 160 184 195 168 161 97 96 94 99 89 90 91 96 95 91 105 96 86 93 88 101 108 109 111 109 108 115 124 120 127 121 122 129 122 115 112 113 118 118 119 121 128 124 126 122 122 121 117 113 110 108 107 108 107 107 111 114 118 119 121 123 127 127 122 122 123 119 120 118 116 110 109 111 110 113 102 97 104 99 118 114 104 119 120 128 141 143 141 138 133 143 155 155 179 194 179 166 94 92 96 101 85 87 85 91 87 86 97 91 82 82 88 97 106 113 114 110 112 111 127 125 129 131 130 134 133 121 118 115 116 122 117 121 123 122 123 122 124 123 119 117 119 114 111 115 110 106 112 114 116 120 120 126 126 125 120 125 124 122 116 114 111 107 108 110 110 108 94 102 97 103 118 119 114 137 134 146 148 151 146 142 138 138 157 155 172 192 185 176 94 91 101 99 87 76 79 82 78 70 88 84 79 77 86 95 105 116 114 111 112 110 118 123 125 130 129 130 133 129 123 118 117 119 117 119 123 124 127 127 125 122 118 121 123 117 115 113 112 111 112 113 115 117 117 123 122 119 118 120 117 113 111 107 105 106 107 109 107 99 92 108 93 110 123 116 137 145 153 161 159 160 155 148 145 148 157 153 171 188 190 184 99 99 101 98 86 74 72 75 65 70 75 78 69 78 76 96 104 116 116 115 113 110 115 117 120 124 127 124 122 128 128 121 119 121 125 119 118 122 122 127 125 126 123 124 122 119 115 119 116 117 115 114 112 110 116 121 121 114 118 115 114 108 105 105 108 108 108 110 103 91 95 113 95 104 122 119 151 159 174 176 177 173 168 155 161 166 165 154 182 190 195 192 100 98 91 94 92 72 68 70 67 62 67 72 70 69 74 88 100 113 115 113 112 114 115 119 115 119 121 121 123 119 119 117 117 117 118 116 109 114 112 115 117 119 118 120 119 119 116 119 117 118 117 113 114 113 120 118 120 118 113 111 108 105 105 109 111 110 111 108 98 93 98 112 101 109 114 131 158 170 189 193 191 184 174 168 174 183 177 171 188 199 203 206 105 97 97 109 103 78 63 68 66 61 67 72 57 67 67 75 101 111 115 112 112 118 120 114 116 121 116 119 119 120 116 113 110 109 107 107 106 103 107 108 110 110 112 114 113 109 107 108 108 108 109 111 110 110 117 113 113 117 110 108 105 107 105 109 111 109 110 105 103 99 103 106 98 108 112 131 165 176 191 201 205 201 182 181 186 195 184 184 200 198 204 210 97 90 95 114 112 74 54 72 68 69 68 65 59 60 64 64 95 109 109 111 111 123 119 117 117 123 119 118 116 119 117 118 116 115 113 109 111 111 112 109 107 108 108 106 106 103 101 103 107 108 108 107 107 108 110 113 110 114 112 110 102 108 109 108 112 111 106 106 114 108 110 112 103 104 111 139 173 178 186 207 209 209 197 194 196 201 186 192 210 208 206 216 90 89 96 115 109 58 55 69 69 63 67 64 51 54 66 62 96 108 111 110 113 121 122 119 121 122 122 121 113 114 115 116 119 120 112 107 107 102 103 97 98 99 96 97 96 95 94 97 98 99 100 101 102 101 108 113 113 110 107 109 105 109 110 110 109 105 102 116 120 115 118 120 116 108 107 145 174 182 192 202 209 211 208 206 211 214 194 199 220 213 212 217 87 92 101 112 98 50 51 55 57 51 59 76 46 58 63 57 93 110 109 113 113 119 124 127 136 125 124 124 115 109 114 112 113 116 113 111 101 96 96 93 91 94 89 89 93 90 92 95 95 98 98 96 98 100 108 114 113 107 109 107 107 107 110 110 103 106 112 118 130 125 125 129 133 118 114 134 172 178 194 201 209 211 217 216 219 213 207 215 229 226 217 229 84 96 93 100 76 34 31 52 50 45 70 74 57 55 56 57 90 108 108 113 116 119 123 134 150 137 131 127 120 112 113 116 114 114 112 110 107 102 101 92 89 91 84 85 88 92 91 93 93 95 98 98 106 109 107 109 111 108 107 105 105 108 108 105 107 112 121 129 135 130 130 133 144 135 127 130 168 173 190 205 208 216 224 227 232 219 223 230 236 237 227 238 81 90 86 79 65 34 24 54 43 46 70 75 61 75 66 57 85 110 107 112 119 124 121 138 155 149 136 134 122 116 113 118 116 118 112 114 111 106 103 97 90 90 84 80 81 84 86 89 88 87 95 97 104 109 105 105 108 105 105 107 104 105 105 109 117 123 135 136 139 133 133 144 146 154 147 144 170 173 186 209 208 218 225 236 234 223 235 246 242 242 236 241 83 78 77 68 62 35 26 45 32 41 73 84 76 87 73 62 81 103 105 113 121 132 125 142 156 154 140 135 127 122 112 119 118 118 121 117 116 111 107 103 100 94 90 82 86 85 87 90 96 90 100 101 104 109 109 106 107 100 108 112 108 104 115 122 128 137 142 141 144 137 137 148 150 163 157 150 179 182 191 200 207 226 231 234 230 230 234 248 252 244 246 246 76 70 74 59 56 31 17 31 37 41 83 89 99 90 78 68 85 99 107 112 117 131 135 146 158 156 148 137 132 126 118 119 124 126 126 125 124 117 116 114 109 104 102 95 99 96 99 101 107 105 109 109 109 107 110 108 107 109 111 113 110 116 130 136 140 148 143 145 147 149 147 140 151 171 158 153 179 198 202 197 203 224 235 232 224 235 237 240 255 246 248 251 66 61 65 41 39 21 7 23 38 50 84 96 112 88 87 75 94 110 108 111 118 128 150 157 157 154 155 144 133 134 125 122 124 133 136 134 129 127 129 125 119 118 117 114 111 108 109 108 112 113 114 116 109 115 111 114 116 123 116 116 123 137 146 148 149 152 147 149 154 148 147 138 148 162 158 160 180 193 208 204 211 220 232 222 224 236 238 241 246 247 247 252 57 40 42 23 22 16 0 34 48 59 98 108 118 90 93 81 102 116 116 115 117 137 153 162 156 160 157 153 144 139 135 132 129 133 140 142 142 139 135 132 133 132 134 131 128 124 120 122 124 125 122 123 120 120 122 122 127 126 122 129 144 151 156 153 152 159 147 144 154 150 148 135 145 154 162 160 177 188 206 215 219 224 231 219 227 232 237 239 238 245 241 248 44 29 29 15 18 24 17 41 53 60 99 116 113 105 105 100 118 129 131 130 123 141 159 159 159 165 161 155 155 154 147 146 142 139 142 149 151 152 151 149 146 145 147 144 144 141 142 141 141 137 135 136 134 129 135 139 134 129 135 147 155 151 157 157 160 162 147 147 155 150 143 141 144 141 164 167 183 169 185 216 229 227 220 226 225 228 232 232 238 234 234 237 34 35 36 20 26 41 26 40 57 65 102 130 121 134 117 112 121 136 142 133 139 150 157 155 156 163 165 160 155 161 159 156 158 153 152 154 157 161 162 166 163 162 161 161 161 158 155 155 152 147 145 145 145 146 148 144 140 143 154 155 152 159 162 160 166 151 146 150 152 149 140 149 145 142 159 165 191 178 164 190 223 232 226 226 224 235 234 225 236 228 235 233 39 49 46 39 47 55 52 64 60 65 108 147 145 142 134 113 125 133 148 143 143 154 160 154 155 157 165 164 159 162 163 164 161 163 164 162 164 164 164 166 165 170 168 166 169 164 162 157 156 153 150 155 153 152 148 149 149 154 158 152 158 159 164 163 160 144 151 154 148 152 148 152 139 145 156 171 191 182 175 174 192 225 234 228 229 238 234 230 227 221 224 231 57 74 71 62 61 70 65 62 69 78 122 159 161 148 152 118 129 135 152 158 149 153 163 158 159 156 158 160 160 159 159 164 162 159 162 162 165 166 168 167 165 166 162 165 165 161 160 156 154 158 154 157 152 156 155 151 155 162 157 158 162 159 161 159 152 146 159 151 143 147 160 152 137 141 145 171 193 182 186 181 172 200 219 224 240 242 237 240 225 215 218 226 77 86 83 75 66 74 69 69 78 96 127 153 170 150 157 146 132 137 149 159 158 160 160 159 161 157 158 160 162 158 159 161 163 163 159 161 164 164 166 167 169 167 166 166 163 162 158 159 155 156 160 158 153 157 155 155 159 161 157 163 158 161 159 154 146 154 160 146 149 149 162 145 137 141 149 162 195 190 190 190 173 185 188 201 231 237 241 246 232 204 215 223 