P2
92
112
255
114 107 115 112 111 113 113 110 114 121 121 121 134 146 155 160 159 161 146 141 144 149 142 140 146 127 136 129 125 141 123 118 116 96 98 97 100 93 112 117 118 124 119 120 127 116 135 127 123 145 153 145 168 171 179 188 204 217 222 218 217 224 231 233 220 226 220 213 209 198 194 189 187 169 156 154 137 133 122 125 125 121 127 126 122 124 123 126 122 123 123 119 110 112 108 115 109 113 116 114 121 129 131 135 144 157 163 167 158 158 153 146 142 152 147 148 150 143 130 123 116 122 124 106 115 97 94 119 110 102 112 101 108 107 113 103 110 116 114 123 117 118 130 146 161 151 154 161 183 193 215 217 206 211 215 230 230 221 220 224 219 208 206 202 201 190 177 161 152 134 129 126 124 122 125 125 123 124 121 127 123 124 122 120 108 112 109 111 114 112 116 123 130 133 144 152 156 166 170 169 163 159 159 150 146 154 153 149 147 137 136 130 118 108 117 113 103 93 100 111 101 98 105 95 82 88 108 106 96 95 92 105 113 90 105 150 146 144 140 152 171 179 201 204 194 210 205 213 231 223 222 221 221 207 217 210 200 198 200 177 159 152 133 126 123 120 126 129 124 121 125 123 123 121 121 124 109 111 110 110 113 118 122 134 140 148 150 159 163 167 168 173 167 159 151 153 154 162 167 161 149 141 122 127 115 98 104 105 89 103 100 102 101 79 87 79 79 75 95 110 88 74 77 92 125 88 103 139 135 136 131 145 171 181 185 190 192 198 206 199 219 225 209 213 207 204 205 205 206 202 204 184 182 161 136 128 128 124 127 127 122 122 119 126 121 122 120 120 108 112 109 111 114 132 138 144 146 152 152 158 165 166 167 167 161 151 142 153 156 151 152 147 146 128 115 103 105 106 102 103 92 82 104 99 87 88 81 83 76 84 103 109 96 61 77 98 112 99 108 116 116 125 133 140 154 171 164 183 188 189 198 193 209 220 201 207 201 202 198 208 200 204 194 183 184 177 149 127 127 125 126 124 121 121 121 127 121 120 119 119 108 111 108 117 125 138 149 155 150 154 158 161 164 166 177 164 151 147 146 150 154 144 132 120 112 114 109 97 93 94 100 98 93 88 87 87 89 79 94 93 68 85 114 114 95 69 73 102 118 87 102 111 116 117 121 136 134 149 151 159 179 179 182 177 199 202 186 195 196 189 200 206 208 200 186 178 168 184 179 134 126 123 124 123 122 122 118 120 116 125 120 119 109 112 114 127 138 149 149 152 147 151 159 158 165 169 159 154 153 143 150 146 139 130 120 110 100 106 113 106 100 103 105 106 93 97 100 91 88 85 98 101 71 81 104 123 98 80 87 103 101 82 82 104 115 118 112 126 134 131 130 143 155 157 159 158 167 183 175 173 182 192 204 204 213 196 183 174 170 180 180 177 135 125 118 120 119 117 115 117 118 122 119 120 111 110 131 146 145 145 147 152 151 151 150 156 162 151 146 145 156 166 150 150 138 122 111 114 119 110 114 128 122 130 131 121 103 93 108 106 91 83 79 94 81 72 90 116 105 78 84 111 83 82 85 103 106 111 105 113 130 124 121 127 143 149 144 153 159 150 155 153 156 187 200 197 215 200 172 172 174 180 181 173 166 135 117 122 114 113 118 110 118 121 120 120 108 116 141 146 146 146 149 154 149 140 153 157 154 145 154 157 180 173 166 152 145 123 111 107 117 115 122 121 124 127 138 115 102 110 110 113 102 89 94 92 94 98 101 122 112 84 84 105 98 84 94 103 102 96 106 109 124 121 119 123 124 131 136 144 150 143 131 129 146 170 188 188 210 195 184 180 175 176 178 168 166 166 126 118 114 118 117 112 114 121 120 119 113 132 145 147 149 153 146 144 135 146 138 138 147 155 157 170 175 170 170 166 142 132 127 128 119 131 140 141 134 137 137 131 114 119 134 127 113 98 103 104 107 116 114 115 120 101 92 95 103 92 85 86 97 101 98 95 116 119 116 105 108 112 119 124 124 132 116 121 129 138 152 173 183 182 183 183 178 175 173 172 167 162 148 118 108 113 113 114 116 120 119 116 128 144 149 146 155 158 144 130 128 133 140 157 168 164 168 173 170 166 151 148 140 127 129 130 118 118 136 139 150 137 134 129 126 120 130 129 118 116 108 121 118 116 120 119 110 112 97 91 88 95 81 88 89 102 106 93 90 105 108 108 101 101 117 116 113 117 110 106 115 115 130 138 155 168 177 176 166 174 176 178 173 160 148 135 110 103 111 108 115 118 116 113 140 150 146 151 154 143 130 130 130 132 154 155 165 173 185 188 170 166 146 141 151 153 145 147 137 133 139 143 145 144 144 144 133 135 136 140 133 135 128 125 124 102 112 113 103 101 99 86 79 97 97 94 90 95 87 77 74 84 88 99 90 93 101 103 99 101 99 101 105 105 99 114 111 138 156 153 167 155 174 179 163 152 152 150 122 105 106 101 108 114 112 115 142 145 148 154 149 141 132 130 130 138 158 176 191 194 185 183 158 155 146 132 146 139 146 153 157 154 144 150 153 155 153 166 156 147 148 144 141 144 134 133 121 113 115 117 105 98 103 102 86 94 114 93 84 75 82 79 71 75 83 81 92 90 92 89 83 83 82 80 89 88 98 77 91 108 125 134 143 162 164 171 158 157 152 152 147 115 100 98 107 111 114 116 153 153 153 153 147 140 129 131 127 147 166 191 206 198 189 181 158 161 159 155 141 140 140 152 146 153 159 158 156 159 163 167 159 157 153 143 144 131 136 130 122 117 115 113 113 112 116 99 100 95 92 88 89 82 80 81 77 77 76 73 79 72 78 77 70 79 93 75 86 72 75 69 75 90 98 113 125 140 151 169 173 165 151 151 145 143 103 101 101 110 115 116 159 149 143 146 140 128 114 112 133 163 185 201 206 193 181 163 148 153 155 162 156 153 154 155 154 160 163 164 167 163 161 160 159 153 143 135 136 134 124 127 128 120 120 123 112 106 105 102 100 96 91 90 82 80 77 77 76 63 69 72 71 74 77 74 74 76 78 81 89 75 81 67 69 68 75 91 110 130 145 149 179 177 155 154 148 148 136 110 103 107 106 108 150 146 144 143 142 120 112 123 144 152 167 185 190 178 168 156 155 154 158 162 157 148 156 166 163 162 165 157 156 157 155 146 142 136 129 133 126 118 119 122 122 117 118 124 100 96 108 94 97 104 96 95 85 80 79 70 69 63 68 69 69 75 77 81 83 89 88 91 89 80 86 74 61 67 69 81 94 107 139 142 153 168 164 148 153 162 166 142 104 99 95 100 148 150 147 141 127 119 125 133 154 176 184 191 193 174 153 150 158 157 167 162 146 149 154 159 164 157 160 155 148 149 149 145 136 128 127 120 121 109 108 116 119 111 116 113 105 102 101 108 100 101 97 85 81 69 67 60 65 61 65 80 81 81 91 93 94 94 103 102 97 95 108 105 87 76 73 80 85 101 118 130 139 150 159 145 148 143 162 161 137 100 91 95 147 143 129 124 115 107 137 138 144 168 184 190 180 160 156 158 168 173 177 155 146 159 166 155 154 153 159 150 149 139 138 138 125 108 105 105 100 97 98 98 98 102 103 107 102 100 100 104 99 90 91 79 76 69 64 58 61 56 65 74 76 86 95 100 104 114 127 137 131 122 128 128 131 115 103 106 94 101 115 125 114 141 162 135 145 143 149 163 156 139 93 88 131 121 109 103 106 105 127 131 150 176 200 203 182 172 171 174 169 173 167 149 155 163 164 159 156 162 162 154 150 141 131 122 111 101 91 87 90 91 83 89 91 94 96 98 101 105 101 101 97 93 92 91 93 90 81 77 80 74 77 84 86 95 103 109 120 125 135 147 153 145 140 136 126 132 121 127 103 101 107 116 118 116 141 138 136 138 145 161 165 160 127 91 122 109 103 102 86 95 118 135 156 172 183 191 182 181 176 167 163 172 162 163 169 174 168 166 165 165 160 153 143 125 116 114 99 89 85 87 86 98 88 93 95 97 96 99 101 106 109 102 103 100 100 108 102 100 93 94 89 87 87 91 99 103 114 124 139 138 152 169 163 168 167 166 146 136 147 132 112 95 98 89 97 119 115 132 128 133 141 156 166 155 159 106 118 102 99 91 84 101 134 146 163 170 181 181 173 171 171 165 171 167 165 177 174 174 166 166 164 161 156 145 132 116 112 109 102 93 90 94 96 103 101 101 104 107 106 108 107 106 113 112 114 106 112 109 105 101 98 101 99 97 99 98 107 107 119 134 146 156 163 180 192 184 193 191 184 172 174 157 147 110 108 99 90 106 104 107 114 106 128 144 163 158 150 134 110 100 83 70 89 116 137 148 151 169 172 171 168 164 161 161 161 153 167 170 167 160 158 157 158 154 142 130 119 117 114 107 100 97 97 97 100 103 105 106 109 106 109 107 110 109 114 117 121 119 121 117 109 107 102 107 106 105 110 110 114 119 128 136 149 159 173 186 195 196 197 205 204 196 189 182 177 151 128 123 101 92 90 108 98 102 105 120 143 160 148 145 88 71 67 73 99 117 144 144 157 161 163 164 155 157 166 155 151 147 161 162 163 159 153 150 150 139 138 130 118 113 110 105 98 103 104 105 106 108 113 117 116 118 111 109 106 110 108 113 119 118 118 120 115 109 102 99 99 98 97 98 92 102 117 124 139 156 169 178 191 195 201 204 212 214 201 192 193 169 137 128 124 94 78 95 111 96 103 95 132 148 156 147 74 52 59 67 101 115 125 131 143 143 151 138 137 152 155 152 142 141 152 152 153 157 152 146 140 129 133 131 119 111 107 104 104 104 107 109 111 107 116 121 122 128 125 123 119 115 113 109 114 112 111 106 102 101 101 97 93 92 90 92 85 92 102 112 128 139 151 169 185 197 205 211 214 218 217 222 207 180 150 145 134 120 86 81 105 106 114 108 123 137 154 157 62 48 59 70 94 112 119 132 131 136 130 127 135 139 135 136 130 132 143 141 146 151 143 145 136 128 127 120 120 120 112 110 109 111 110 113 122 118 123 132 131 136 132 133 126 122 119 112 113 109 98 95 98 99 98 99 105 99 99 94 98 93 91 101 118 129 141 152 173 189 208 216 225 222 226 236 229 211 172 157 156 129 106 100 83 99 112 113 105 122 147 147 64 51 55 71 92 102 107 115 108 119 119 120 126 118 115 118 113 126 129 138 141 141 140 141 134 124 119 119 121 118 117 117 121 117 118 123 124 129 134 137 134 138 137 130 130 126 124 117 116 114 104 100 104 114 113 110 108 109 101 111 114 107 103 103 112 122 138 145 162 178 194 213 229 228 226 232 245 234 202 180 163 168 123 105 103 92 103 107 117 103 142 147 61 58 72 79 80 99 91 97 99 104 102 105 108 105 111 104 108 117 126 131 134 131 138 133 126 116 115 118 118 117 119 124 127 125 129 131 132 135 139 141 139 136 140 135 135 129 132 128 118 112 110 105 109 117 118 117 121 115 115 119 116 110 114 118 124 128 134 146 155 173 181 208 224 231 226 238 244 244 227 187 188 167 169 124 114 98 107 98 111 114 136 154 59 66 69 68 77 81 77 68 82 90 86 92 94 107 105 94 105 121 120 126 129 126 130 126 116 114 114 118 117 115 122 126 130 133 134 139 139 141 143 140 141 136 137 137 138 134 132 131 126 129 114 117 120 119 117 120 124 121 129 129 122 120 119 128 139 139 140 149 154 162 173 196 221 229 229 236 247 242 241 209 201 177 175 165 117 105 102 104 100 110 134 161 55 67 74 70 70 72 50 61 72 72 84 95 95 105 98 100 106 119 117 124 123 124 123 117 113 114 117 120 121 120 127 132 135 136 135 140 140 143 143 137 137 132 136 137 135 134 130 133 127 125 117 113 119 122 119 123 121 130 133 132 134 136 135 134 139 148 145 153 153 162 170 185 206 223 228 233 246 243 243 219 209 198 169 158 121 103 95 94 103 103 122 159 67 64 60 63 62 61 42 56 68 74 89 95 95 104 99 108 114 112 120 121 121 121 121 118 113 115 119 126 128 125 125 126 129 129 130 133 137 140 137 135 135 133 136 134 131 135 132 130 130 125 119 116 123 125 122 124 127 131 128 131 134 132 141 144 146 149 147 155 151 156 165 175 197 207 216 233 254 251 247 237 222 209 177 145 132 103 88 88 93 99 120 149 46 53 54 51 55 61 44 48 57 77 84 91 102 99 98 111 111 110 115 119 121 122 118 116 114 118 122 124 124 121 119 119 123 122 125 129 131 135 136 133 132 136 135 135 130 134 137 132 133 125 129 128 130 129 124 123 123 119 125 126 129 128 133 144 146 141 152 158 158 158 160 167 185 203 208 219 247 255 250 243 231 213 170 147 126 107 93 91 97 99 119 146 49 37 48 59 55 45 44 41 59 69 82 87 104 106 103 104 109 110 112 114 116 117 114 114 114 112 116 114 114 111 111 116 121 125 126 130 131 130 133 133 130 136 140 137 133 137 139 138 137 134 132 136 131 133 127 126 128 124 124 126 125 125 129 139 138 135 143 148 153 150 150 155 175 197 200 210 238 252 252 238 240 228 197 165 137 112 94 85 96 112 115 145 49 54 57 61 53 50 44 45 51 72 80 93 101 106 96 98 110 112 106 112 109 109 104 108 108 110 114 113 116 110 113 123 127 132 130 131 129 129 136 136 133 135 142 139 135 136 144 140 142 143 145 139 135 136 135 133 137 139 134 135 132 137 142 141 140 136 139 136 142 144 141 146 163 187 192 200 226 246 247 234 234 240 217 182 144 129 98 78 102 119 127 153 63 66 62 58 48 41 44 39 62 70 80 94 105 101 89 101 106 102 100 99 101 101 94 101 97 101 101 103 111 112 115 115 123 128 133 131 135 136 141 141 141 140 141 143 138 140 141 141 145 146 151 147 147 146 150 145 144 149 145 148 147 146 150 151 147 133 139 129 131 131 138 135 150 169 187 187 218 248 247 243 228 237 226 206 161 149 103 79 101 122 127 150 71 69 51 50 38 45 42 46 62 64 85 99 103 95 86 99 99 95 84 89 87 89 84 91 95 87 91 98 104 107 105 111 120 125 129 137 140 145 144 144 142 142 143 140 138 140 142 143 151 153 159 156 157 159 159 159 157 158 159 157 161 154 151 146 141 127 131 130 126 126 116 126 139 153 167 182 201 232 246 233 235 242 238 218 176 137 120 95 109 122 125 138 77 60 47 50 30 47 39 38 56 67 93 106 90 84 83 85 85 82 80 89 82 82 80 80 81 83 89 92 96 101 105 109 111 114 117 122 126 130 137 139 141 138 143 144 145 145 153 158 157 165 168 171 173 172 172 168 169 167 169 164 163 152 146 144 138 127 123 124 118 113 109 109 127 138 151 161 186 211 237 226 236 238 236 220 196 154 115 118 107 128 138 141 87 66 50 42 41 37 40 33 63 75 100 105 83 77 74 77 81 75 86 84 77 77 72 77 75 78 81 83 89 90 94 98 105 109 114 112 115 116 120 129 137 140 143 145 152 150 160 161 165 173 172 175 176 174 171 167 168 166 164 164 159 151 145 143 132 130 120 116 107 101 96 97 112 129 134 150 174 196 227 234 223 243 241 210 198 176 120 120 120 117 150 135 100 80 61 58 46 37 37 34 57 73 97 94 73 72 67 68 74 75 79 76 73 76 76 70 65 68 73 77 78 82 87 88 98 102 107 106 111 112 113 120 127 134 138 142 146 149 156 161 164 166 169 172 171 170 165 163 164 165 158 155 152 146 138 140 131 130 117 109 99 97 88 89 95 118 129 141 168 186 220 232 216 226 241 226 191 186 146 125 129 114 150 143 101 88 65 60 42 43 46 41 52 85 97 81 67 67 63 60 70 77 72 75 68 69 69 63 66 62 65 71 78 76 79 82 92 91 98 105 104 113 115 119 120 128 134 140 143 148 153 154 160 161 163 164 164 162 155 152 151 152 145 142 141 138 133 131 124 124 118 107 97 85 85 85 80 102 113 130 154 175 209 225 225 211 231 234 191 185 150 114 142 111 145 147 88 80 62 52 57 45 53 47 70 96 89 78 74 63 64 59 70 72 61 62 54 57 60 62 65 60 60 57 64 69 70 68 73 79 86 95 96 105 112 115 115 123 130 136 143 143 151 151 152 160 155 157 155 149 148 141 141 137 134 133 132 134 131 129 125 128 123 113 100 88 81 80 82 89 107 117 146 171 190 232 221 222 229 230 208 170 155 111 138 126 139 150 80 76 59 57 52 50 61 63 81 94 91 84 67 60 63 59 66 61 63 58 63 66 72 69 76 71 71 67 67 73 79 83 87 85 92 91 96 104 109 111 117 118 127 133 139 147 148 149 152 153 146 152 147 139 139 133 127 122 123 128 131 130 126 121 112 123 118 114 102 92 78 79 75 89 111 111 129 161 185 231 228 226 227 224 205 174 139 124 134 137 143 164 81 65 81 69 56 63 65 67 89 101 93 81 70 71 62 62 67 68 78 66 61 69 74 75 81 84 78 72 70 73 69 69 74 71 69 80 74 84 90 96 102 107 116 123 135 142 146 145 145 147 146 146 141 134 132 129 129 120 119 120 125 131 127 121 106 112 103 108 93 80 70 53 56 68 89 100 104 133 167 219 227 224 226 228 207 177 146 105 132 133 152 170 86 59 90 80 72 61 70 70 100 101 94 92 77 70 50 56 49 48 53 42 50 58 62 70 75 77 79 77 74 72 73 80 78 78 67 74 80 79 91 96 101 108 117 122 129 139 146 142 143 148 144 140 142 144 150 145 150 148 151 150 155 163 151 149 129 117 116 110 100 86 76 58 54 73 85 93 95 130 162 203 216 221 234 226 203 184 137 104 114 117 149 165 81 77 86 75 82 52 76 79 111 109 99 93 73 65 61 67 60 51 44 45 49 63 60 68 83 87 91 90 92 90 91 96 102 88 85 83 86 91 97 103 108 117 125 131 135 140 151 148 152 152 156 149 156 153 155 158 152 149 158 159 171 178 166 167 146 128 125 106 109 89 75 62 58 79 76 95 105 130 168 201 218 235 229 231 190 169 132 110 115 108 136 162 79 92 77 63 75 64 66 89 109 108 100 95 80 72 66 71 61 45 31 40 41 48 58 71 71 72 77 70 79 86 89 93 100 96 89 94 94 98 106 94 98 102 113 117 129 128 134 142 144 149 158 157 159 160 153 157 156 156 158 158 160 162 160 166 160 146 134 118 108 106 78 72 67 73 66 77 105 124 165 191 211 242 225 237 184 162 132 104 115 102 120 152 95 98 80 81 70 72 72 95 109 113 115 100 86 83 71 78 52 38 27 30 38 50 75 82 74 82 66 69 80 91 88 86 96 98 103 105 104 111 106 106 100 97 107 124 128 137 132 127 139 150 168 168 163 168 175 174 171 160 161 158 152 144 133 141 138 125 99 90 85 82 80 71 55 62 72 71 95 109 169 190 205 232 227 226 169 151 121 122 115 103 118 141 103 105 93 87 73 66 60 94 114 122 134 115 98 107 96 89 67 41 37 34 48 64 85 93 84 92 94 101 118 132 133 128 128 126 127 138 125 126 130 124 120 106 115 135 142 145 138 136 132 152 162 176 162 157 154 169 165 158 148 144 142 146 127 119 115 112 85 73 72 61 63 56 55 52 63 61 78 99 150 182 204 229 225 218 154 141 114 136 109 102 122 141 104 110 92 82 63 74 50 79 113 120 135 122 124 121 112 103 74 65 61 58 66 87 106 112 102 113 119 125 141 157 166 155 161 165 163 163 153 149 153 140 145 136 127 139 134 141 135 132 134 148 150 178 172 168 163 154 163 164 160 158 156 144 150 152 125 125 116 87 82 72 67 61 59 44 51 46 64 85 131 167 198 230 230 211 140 115 128 125 116 113 127 148 106 106 88 73 59 63 58 86 119 125 134 110 132 130 129 131 92 95 79 77 91 112 121 126 126 130 149 157 162 172 175 168 161 174 178 181 162 144 145 141 144 150 120 119 119 122 118 125 124 147 150 178 178 170 167 168 176 161 163 175 163 170 170 174 146 135 145 130 109 100 85 65 60 52 47 43 39 68 106 154 187 228 233 200 136 110 125 125 111 140 156 163 105 107 96 82 70 66 77 98 128 136 152 127 138 145 141 142 95 102 100 104 117 129 118 123 130 140 161 161 165 167 162 162 160 168 174 171 166 158 148 155 139 140 123 118 120 110 104 96 111 121 132 161 179 178 169 154 154 172 174 177 171 169 182 183 166 138 137 138 131 99 96 73 58 48 33 42 43 66 116 166 204 225 219 191 137 124 130 156 140 150 178 168 102 105 105 90 80 79 107 122 138 148 174 152 167 162 154 128 108 111 102 106 119 113 123 123 119 136 161 171 182 172 169 173 170 165 158 156 147 145 155 165 163 166 146 145 142 120 115 106 108 110 137 168 180 180 183 168 157 179 181 179 174 179 192 182 183 166 147 134 118 105 77 71 57 52 43 54 57 83 136 182 213 225 212 191 140 127 131 179 177 171 189 179 100 107 112 101 96 100 134 153 163 165 172 158 175 160 156 131 118 119 100 109 107 108 119 111 106 104 138 148 166 167 160 147 149 145 154 153 160 159 169 165 182 184 179 178 156 138 134 141 121 126 148 165 176 173 187 172 151 164 155 177 168 168 190 185 171 148 144 163 123 111 75 61 61 75 61 65 62 70 125 167 219 224 217 195 131 123 117 180 187 179 209 192 112 109 91 111 98 114 138 178 177 186 186 177 182 159 154 154 129 121 108 109 129 128 121 116 102 116 131 130 138 154 158 158 152 161 153 149 159 173 164 182 197 201 209 179 166 122 128 131 127 139 152 165 176 169 173 162 146 145 141 166 158 144 150 158 144 131 115 105 119 89 96 67 58 58 53 56 70 48 110 149 211 216 213 173 134 128 128 183 187 175 199 181 114 108 91 109 98 122 147 182 186 185 174 179 186 161 143 146 133 124 110 118 119 118 129 127 125 135 130 128 138 147 140 159 160 159 151 154 163 174 180 200 193 198 205 179 158 108 98 107 102 121 140 140 143 144 149 141 138 134 132 129 134 117 134 132 138 124 118 84 101 100 83 81 57 50 55 73 86 67 111 169 207 223 194 165 134 140 152 195 230 180 202 158 102 100 93 98 102 124 151 176 185 185 174 171 177 163 141 159 138 132 129 131 132 136 135 142 153 157 149 139 126 135 134 147 154 144 135 139 145 134 144 146 153 174 158 155 140 106 79 87 87 106 126 122 124 148 153 144 141 140 162 158 147 122 125 121 116 94 93 68 65 92 90 65 80 64 71 97 99 83 110 163 205 223 204 181 153 146 165 194 248 186 196 146 111 93 111 103 86 110 140 169 171 185 174 162 167 163 148 161 139 139 134 139 144 149 150 154 153 152 144 133 114 113 146 154 161 151 149 150 145 132 145 135 140 159 141 134 131 96 74 61 76 95 122 113 118 145 148 157 145 152 156 165 158 134 126 117 95 93 86 52 52 51 68 67 90 87 74 96 105 98 108 153 189 239 221 187 170 153 170 186 244 192 193 160 105 118 125 90 82 109 132 162 170 182 180 162 171 152 152 164 163 153 143 149 152 158 154 150 154 149 137 137 145 141 162 157 159 159 155 168 154 152 155 145 157 176 144 140 123 92 58 60 70 93 118 128 133 134 148 161 145 146 151 159 176 157 145 126 104 92 70 43 50 42 52 64 74 81 71 88 103 123 122 152 185 224 235 182 183 163 162 195 226 193 184 175 121 150 134 101 90 105 125 149 168 171 180 163 162 143 136 143 150 148 140 135 142 146 145 150 152 146 142 140 162 165 168 164 162 164 170 163 160 160 151 151 169 170 150 144 120 76 58 59 65 88 108 139 131 132 122 134 159 143 146 152 162 158 163 129 105 93 77 63 54 38 54 63 72 82 81 92 119 146 129 157 198 213 228 196 186 152 151 196 203 191 180 166 128 149 126 104 95 100 115 132 149 153 170 158 154 130 131 139 143 136 136 127 134 140 134 142 137 141 143 139 156 169 170 168 167 162 159 170 168 168 151 168 191 162 176 146 120 79 57 63 73 87 118 124 136 138 136 139 161 159 164 159 158 164 156 134 115 98 90 90 79 68 72 76 88 95 100 115 132 145 133 159 204 201 212 201 199 145 142 174 181 170 175 160 144 130 122 102 101 101 146 141 141 144 156 151 146 127 125 133 131 129 128 124 123 132 125 126 125 133 138 141 152 165 164 166 157 155 171 166 154 174 161 162 160 156 156 141 124 87 75 70 70 82 107 112 126 132 144 137 158 159 176 152 149 145 148 136 130 115 112 105 89 93 99 91 101 110 114 122 127 142 137 157 203 196 211 210 190 140 171 173 168 168 163 145 160 107 127 106 118 98 147 174 153 161 133 141 139 124 119 131 121 128 121 125 128 135 135 134 132 135 137 138 154 156 156 154 159 161 167 163 148 159 156 156 164 164 139 121 104 77 69 65 80 85 104 123 135 149 158 164 158 156 154 166 157 152 139 145 136 131 129 129 108 105 111 105 110 118 121 126 133 149 135 169 188 183 204 209 170 150 196 172 163 164 162 128 154 91 116 106 107 103 147 194 186 169 161 131 138 123 116 131 123 134 124 128 130 132 133 135 136 145 156 148 152 151 150 153 154 153 147 153 140 149 145 150 156 154 139 121 92 81 73 58 66 84 99 126 146 155 165 174 170 175 163 153 160 153 140 141 138 142 136 136 124 118 119 113 113 125 129 126 136 147 130 166 178 167 195 188 158 156 182 171 160 166 144 122 129 68 103 110 86 70 107 174 166 183 170 132 136 112 107 122 130 127 128 122 125 126 130 134 142 148 152 151 150 150 145 144 141 134 134 134 136 126 137 153 155 153 148 124 101 94 91 72 63 86 101 132 138 150 158 163 169 192 183 172 172 168 153 152 146 140 136 125 124 124 126 132 141 143 139 144 144 151 147 157 187 165 193 173 158 164 139 160 157 155 140 129 100 57 56 104 61 43 95 153 167 183 155 131 122 118 104 99 118 119 128 117 125 124 125 127 134 139 137 137 140 136 135 141 135 135 135 139 127 122 141 144 153 151 145 127 106 102 102 99 90 96 110 139 135 138 148 146 170 177 187 186 195 187 180 176 183 165 151 137 132 142 147 146 145 151 149 140 136 156 151 152 190 173 178 161 150 151 127 144 151 156 141 133 83 44 33 80 53 42 64 120 143 169 155 140 126 111 98 86 99 111 114 121 126 121 119 122 125 130 134 129 130 130 133 145 146 142 134 136 122 133 141 148 146 145 149 124 121 105 106 114 110 111 116 145 156 140 149 141 160 177 184 195 201 199 192 190 182 179 169 160 151 160 157 144 149 150 150 133 139 155 147 149 182 165 166 152 138 164 125 130 158 149 148 142 67 65 27 45 53 57 50 116 146 149 153 140 129 111 94 88 79 93 100 105 105 105 107 115 114 121 121 116 115 119 124 138 133 137 127 122 120 133 144 156 158 147 139 121 116 120 114 118 114 111 129 152 159 160 149 145 160 182 181 187 197 193 189 187 180 173 160 157 156 158 152 138 142 145 136 135 138 146 137 144 164 170 166 147 148 163 123 118 155 143 155 151 63 65 45 41 41 50 60 103 143 140 138 134 128 115 98 84 82 79 88 91 85 86 93 102 100 109 109 113 114 114 121 132 128 131 128 123 125 140 153 171 167 164 158 137 128 133 133 135 129 126 144 166 185 181 175 168 165 181 174 180 184 187 185 179 182 184 162 159 144 149 147 134 135 141 138 136 124 140 133 138 158 172 175 152 152 158 105 119 150 140 164 148 66 69 50 42 43 29 72 94 124 133 138 136 128 117 106 90 84 80 76 81 80 79 81 82 82 90 93 99 105 109 115 121 129 132 131 128 134 140 154 163 159 170 174 175 156 161 162 160 155 136 144 171 193 196 194 188 183 177 173 179 180 183 178 181 177 183 179 167 155 164 146 132 136 146 144 131 131 139 139 145 150 165 169 154 175 151 91 142 129 147 164 149 59 74 40 15 57 14 65 90 116 130 133 133 138 123 112 95 87 82 79 76 74 77 79 77 74 79 85 90 101 118 116 116 128 127 132 140 141 141 151 175 185 186 188 180 175 177 166 167 164 161 156 165 185 204 200 196 190 187 192 184 184 190 179 176 179 184 179 171 165 157 150 143 142 146 145 128 130 151 138 136 136 140 167 151 171 131 104 134 105 157 160 143 65 70 44 4 53 35 50 82 105 122 137 131 149 130 119 105 96 86 80 79 73 71 63 59 67 80 85 96 109 110 118 116 125 127 132 156 140 154 155 175 181 179 186 177 163 167 168 160 152 153 151 157 174 182 183 185 192 186 197 184 178 183 177 174 168 176 177 174 161 154 148 139 139 143 139 129 127 147 134 148 137 135 153 137 162 126 112 114 98 157 144 139 53 83 65 0 28 50 46 75 80 108 138 131 149 144 128 119 103 93 85 80 72 71 63 58 64 73 91 107 111 114 126 130 132 145 153 160 152 161 155 166 167 166 180 171 160 160 154 147 137 140 147 155 165 171 180 186 196 202 200 187 173 173 182 169 172 165 164 165 153 142 138 135 137 138 134 128 130 144 131 155 140 139 139 124 153 136 116 101 105 150 142 131 52 60 80 8 22 57 53 75 70 95 128 138 150 149 141 127 115 98 93 88 82 73 66 65 69 82 99 113 122 142 143 142 157 159 172 163 160 162 161 153 148 163 162 154 143 145 128 122 124 130 140 151 158 162 181 193 190 204 208 199 188 181 173 171 169 161 157 155 145 138 135 128 131 130 132 134 139 136 134 146 145 130 115 129 148 132 125 94 126 144 132 131 54 52 64 12 23 52 84 99 95 94 122 138 169 168 149 132 115 111 100 100 88 76 74 78 88 97 116 120 139 150 160 169 172 176 188 190 171 164 166 156 140 151 145 131 116 127 113 112 118 128 128 138 152 169 185 186 187 191 197 196 178 174 167 168 165 159 158 151 137 128 137 139 137 134 134 134 146 132 135 142 131 120 106 137 130 115 116 87 136 127 117 129 61 63 40 16 14 49 69 84 101 96 120 129 166 176 163 148 128 119 105 103 93 80 85 92 99 110 126 146 152 159 174 181 189 199 210 198 192 166 176 164 153 138 134 128 118 124 122 115 123 132 135 137 157 173 187 179 180 180 184 180 177 169 166 162 160 155 155 149 143 135 136 139 141 137 133 133 140 126 130 142 134 135 107 126 106 104 106 88 121 122 111 124 60 58 41 8 26 39 74 82 91 86 113 138 149 182 169 161 141 126 115 104 98 88 94 107 112 129 145 160 161 168 178 190 203 205 209 196 203 186 188 186 181 168 150 132 129 137 132 130 134 148 161 163 173 185 195 183 165 171 181 181 182 173 172 172 163 154 153 148 141 136 134 144 141 140 134 135 139 119 129 141 141 138 107 107 76 84 87 77 94 120 109 118 62 47 41 25 21 42 60 91 91 87 115 148 154 182 169 175 156 137 124 111 99 98 102 114 120 137 147 156 166 186 203 203 203 211 218 202 204 207 208 209 212 204 204 176 160 157 158 153 142 165 181 178 180 190 208 194 171 170 183 178 170 168 174 174 172 157 152 151 134 127 130 140 138 135 132 132 130 117 131 129 145 133 99 82 46 49 71 74 85 110 113 124 56 44 39 42 28 63 55 84 97 91 115 132 155 182 187 183 172 146 127 111 104 101 111 118 123 134 146 159 176 202 205 215 206 206 211 214 207 196 207 206 202 204 205 196 204 195 181 164 157 178 199 184 180 182 184 180 180 177 182 179 165 155 166 169 171 151 148 156 127 118 130 133 129 126 126 125 127 122 143 114 125 121 88 52 34 51 78 68 79 106 117 121 33 32 44 54 51 69 69 83 104 101 122 125 151 174 188 181 171 149 135 117 104 107 112 115 116 130 151 166 180 204 211 218 208 207 201 206 207 186 193 196 186 201 198 194 201 201 190 184 177 191 215 206 186 182 177 185 190 190 185 177 163 157 162 162 167 144 143 154 130 113 122 126 118 121 123 124 127 129 142 109 127 111 67 49 41 69 89 67 82 89 112 113 16 27 39 57 56 72 75 86 105 107 120 132 153 164 187 180 173 156 136 130 111 113 110 109 111 124 145 159 174 191 199 210 213 204 193 183 198 181 180 189 185 200 194 194 202 211 208 202 207 212 218 216 203 198 201 205 216 203 193 180 165 161 153 156 162 137 135 144 135 111 119 114 111 120 121 121 122 130 137 114 137 113 50 56 42 81 87 71 76 85 97 103 13 27 47 53 65 84 75 82 98 118 116 128 155 166 190 181 177 163 141 132 120 120 115 110 110 119 137 152 159 164 168 189 193 183 171 162 176 182 170 171 182 195 196 191 204 208 215 203 213 218 221 216 207 195 201 207 219 206 192 179 166 159 146 149 152 145 122 125 128 108 109 112 96 115 111 121 112 138 139 121 158 119 65 62 51 101 85 72 67 81 82 98 19 34 46 49 81 88 89 73 99 125 130 132 161 171 185 176 174 164 144 138 127 123 119 113 104 104 116 121 123 134 138 152 163 157 151 147 136 149 155 151 163 172 176 187 188 191 191 192 198 203 209 205 190 186 190 197 197 194 180 178 161 146 139 137 144 147 121 114 112 102 104 106 85 102 104 111 103 154 135 145 168 127 85 65 81 116 93 65 58 80 68 76 22 40 39 55 80 82 95 82 99 128 137 143 179 181 182 179 176 168 146 138 130 124 116 110 100 90 101 103 99 103 110 121 131 136 136 119 108 113 135 139 147 146 163 173 169 168 166 169 172 171 176 185 178 168 172 175 171 164 161 171 156 138 122 121 135 138 121 111 102 97 90 91 87 84 92 107 100 171 137 158 177 138 103 84 102 111 91 57 45 62 68 57 37 33 29 60 78 74 94 87 94 128 138 144 180 184 186 179 181 167 150 132 130 124 117 105 99 90 99 99 95 91 95 100 111 115 116 106 102 104 118 122 122 133 137 147 149 151 146 153 151 150 150 155 160 144 132 134 135 129 132 145 139 131 119 107 111 121 116 109 92 87 86 86 86 70 83 102 114 173 134 170 187 140 110 95 104 86 90 50 37 49 69 56 27 22 43 59 61 71 90 82 86 123 132 140 178 185 188 185 182 165 159 125 121 121 109 105 101 97 94 93 88 82 76 87 89 97 102 97 90 90 98 108 109 115 119 125 132 140 135 132 135 126 117 116 114 99 83 84 93 87 91 99 110 112 111 96 91 102 103 100 92 81 81 84 81 65 79 92 127 166 143 200 191 148 133 103 86 75 83 58 32 39 68 56 21 43 44 49 50 78 87 80 79 101 135 138 169 191 185 183 184 168 150 121 112 114 104 105 105 101 92 95 86 80 75 82 88 86 93 95 89 81 79 86 106 117 117 116 128 130 120 118 126 118 106 99 96 84 66 66 76 73 71 92 104 111 108 100 99 96 85 95 95 81 72 80 76 66 74 87 135 160 163 216 199 162 131 112 69 65 73 68 37 26 53 69 42 46 39 37 54 74 92 85 77 89 131 138 165 189 185 188 187 173 141 122 112 111 107 109 110 106 108 106 96 88 81 86 93 101 97 91 89 86 73 74 100 115 124 116 124 127 111 109 124 120 107 96 96 77 73 65 77 76 74 94 111 125 119 106 102 90 87 84 85 80 72 84 69 72 70 81 130 155 195 221 187 157 128 107 75 55 66 68 48 24 28 66 42 38 33 41 59 71 92 85 82 86 118 136 149 190 189 182 177 168 139 121 113 112 106 112 112 113 120 119 115 119 115 122 128 129 120 114 106 101 97 97 109 121 128 128 132 134 126 120 123 123 107 110 103 85 76 78 81 90 102 114 127 121 108 103 105 99 91 84 79 80 80 78 66 77 73 97 132 174 214 210 173 148 119 100 82 56 56 73 53 30 19 34 40 34 37 59 62 76 105 81 79 76 96 128 145 181 186 183 171 164 128 122 117 111 103 107 119 124 135 138 139 140 146 157 154 144 137 132 129 123 126 119 125 132 134 132 133 136 132 134 129 132 120 117 108 105 94 103 101 107 112 112 123 118 113 95 97 95 97 91 75 81 91 85 70 80 81 117 146 201 212 202 161 131 106 98 79 74 49 75 63 24 21 14 35 39 58 66 65 87 105 75 73 74 82 117 139 174 188 178 165 160 134 118 109 116 110 111 113 122 142 140 141 137 139 140 131 128 117 120 131 126 131 119 123 127 131 140 142 138 141 148 137 139 129 135 123 114 109 111 99 115 115 106 110 106 116 103 97 98 95 92 84 79 92 87 77 88 104 139 198 207 213 188 153 123 115 91 81 61 72 59 77 39 14 17 45 59 77 79 85 97 104 69 62 77 77 104 134 166 192 177 165 152 147 115 102 109 104 109 116 128 138 139 141 132 130 124 120 113 105 101 109 109 107 102 109 123 122 145 155 150 155 150 160 159 154 139 125 119 114 98 106 102 107 98 94 92 112 119 112 101 95 86 91 90 94 90 83 111 123 168 215 206 204 181 145 112 114 87 79 61 69 63 76 59 22 15 69 82 90 92 102 109 96 75 73 76 81 107 129 154 182 173 162 157 150 126 113 110 103 105 113 118 129 131 134 131 116 112 115 101 102 96 92 92 95 101 115 123 125 134 151 146 147 129 129 130 124 114 106 109 105 105 104 107 104 103 88 92 108 110 108 101 94 96 92 90 99 90 97 131 140 193 220 210 194 169 137 107 108 102 70 72 60 60 81 76 40 26 83 95 96 103 112 114 86 84 77 82 85 104 125 141 180 170 158 154 152 135 121 121 109 114 111 117 123 119 116 127 120 114 109 103 95 92 90 90 95 100 111 117 120 124 123 123 119 113 109 108 104 98 94 100 104 111 110 106 101 102 90 91 98 106 96 98 97 98 98 104 103 98 130 140 163 213 221 213 183 162 129 109 104 100 80 71 75 56 72 88 63 36 94 99 108 109 118 100 88 90 90 91 89 112 125 135 172 173 160 151 160 154 127 122 114 119 124 115 113 112 98 100 101 104 90 85 92 96 91 94 93 96 99 103 107 113 113 111 117 120 116 111 111 100 99 105 102 108 107 104 100 100 94 88 98 102 92 98 104 103 111 117 113 114 146 151 171 214 231 202 176 159 116 109 107 97 97 73 78 63 57 75 76 60 112 125 124 120 119 105 96 101 108 109 101 125 131 135 166 166 157 161 162 157 143 127 122 121 126 115 109 107 98 99 91 91 85 71 81 86 89 93 94 87 90 96 102 115 122 117 129 134 138 132 124 113 108 112 111 109 108 110 102 97 100 98 101 102 94 107 105 108 118 126 124 132 156 158 189 220 224 198 178 148 112 108 107 100 100 94 76 70 61 58 71 76 134 139 132 122 125 123 106 116 126 126 112 124 135 151 157 157 153 162 161 167 153 143 127 126 124 123 116 106 106 105 94 88 84 73 74 91 88 101 97 95 99 103 107 113 110 113 126 133 139 135 129 121 115 111 117 116 114 112 108 100 105 108 103 97 97 103 108 115 120 136 132 144 152 167 186 241 215 189 176 134 113 106 111 106 100 108 93 70 70 67 59 69 143 146 135 123 132 134 117 125 133 131 129 131 139 155 147 133 144 162 156 157 154 144 129 129 127 127 124 111 99 95 97 92 86 92 90 104 107 111 106 108 108 114 118 125 124 136 143 141 138 136 129 118 116 118 123 122 123 115 105 113 105 108 114 108 98 105 111 118 125 143 139 146 157 170 189 237 206 186 159 136 118 115 111 116 110 110 109 98 79 81 71 66 151 152 141 121 141 138 125 134 135 147 146 144 146 143 135 123 140 157 145 150 151 134 133 137 128 124 127 121 110 95 91 92 99 107 120 123 129 129 127 115 121 127 125 129 125 129 131 130 122 117 112 107 107 118 118 115 117 111 115 105 103 105 124 111 96 109 119 132 136 151 141 151 166 164 189 222 197 179 146 124 126 118 112 125 122 117 108 108 116 93 91 78 159 157 146 126 149 140 138 143 152 165 154 155 139 131 123 126 129 149 145 136 147 130 132 149 134 121 129 126 121 114 104 96 104 116 127 136 135 139 134 128 131 131 130 130 131 130 126 123 120 110 103 103 100 108 107 109 107 105 106 106 109 103 112 107 97 114 128 140 138 153 148 145 178 155 186 204 181 166 142 132 122 125 115 126 125 126 112 111 122 119 108 101 168 159 145 137 149 146 151 159 169 177 174 158 139 120 115 120 136 142 141 133 130 124 125 133 133 133 132 127 128 122 121 115 114 117 124 129 127 131 132 130 130 130 127 127 132 125 117 117 117 109 110 103 104 101 103 91 99 102 104 101 108 100 100 107 108 120 137 146 142 153 139 152 173 157 179 195 164 165 132 130 128 120 122 122 126 130 119 116 121 122 122 115 179 159 151 141 151 156 152 175 189 195 173 159 131 115 113 115 134 148 130 129 116 102 120 120 132 136 134 132 121 122 116 116 116 120 126 127 134 131 130 130 134 126 125 123 126 122 119 119 115 112 109 106 106 104 93 94 89 104 105 98 97 92 96 105 118 130 139 154 151 147 132 160 166 157 171 178 157 153 125 127 130 117 121 124 123 131 123 120 124 122 120 125 174 159 151 145 158 160 158 187 201 190 171 147 121 114 110 106 129 149 134 117 105 98 108 112 129 135 138 134 124 113 106 103 103 112 120 124 123 123 122 121 124 123 124 120 121 118 119 120 117 115 114 111 109 99 94 87 86 94 94 96 97 96 104 111 131 134 145 150 149 143 123 154 169 153 151 162 152 146 116 120 132 122 120 121 129 127 121 130 130 120 118 129 176 165 158 156 167 159 167 207 220 187 160 122 113 100 102 100 121 135 134 117 99 94 95 98 120 129 141 135 131 115 104 96 91 95 102 102 103 107 107 121 121 121 122 118 119 117 118 119 116 113 111 103 97 89 93 92 94 88 91 87 101 102 115 123 135 136 139 144 133 135 116 156 171 155 153 150 137 133 121 114 118 124 125 122 126 128 132 128 137 128 125 127 185 168 160 162 170 163 189 229 221 183 128 104 91 96 97 98 106 124 117 116 107 91 93 92 106 123 133 135 132 122 102 89 84 82 84 83 81 83 83 96 103 102 114 114 118 117 114 120 119 108 105 98 92 94 93 92 84 79 75 82 97 104 113 132 133 127 137 133 129 129 126 163 160 155 156 155 122 128 117 117 108 121 129 127 127 132 139 140 137 132 133 132 180 162 175 173 177 177 204 230 199 173 114 89 78 80 101 103 94 109 108 118 117 97 94 91 96 111 123 128 130 128 109 89 83 74 72 67 68 65 62 66 76 79 83 89 92 89 87 92 100 96 92 94 87 86 88 75 73 76 69 76 99 106 108 131 121 126 131 117 126 127 126 171 152 153 147 164 134 128 115 116 108 119 122 133 124 134 141 143 137 137 135 134 180 177 188 180 185 190 193 221 188 165 104 66 67 83 95 103 102 93 101 125 123 108 93 97 96 98 102 116 114 123 115 102 88 74 69 70 61 54 44 46 53 53 59 60 66 69 65 70 76 88 80 80 81 82 75 72 72 81 78 74 98 118 121 121 120 117 116 108 117 121 119 172 149 154 150 139 124 135 122 118 111 113 121 133 124 136 142 147 141 137 141 140 194 189 205 189 186 179 188 203 177 148 94 52 65 80 87 97 102 95 94 119 127 111 103 91 96 89 91 96 102 113 106 108 95 78 65 70 60 49 38 33 38 37 38 35 44 50 51 65 68 79 71 62 74 71 69 62 68 73 79 81 100 126 114 110 113 99 104 101 114 117 120 175 161 146 148 126 111 138 123 122 112 124 114 122 127 131 145 149 144 138 143 141 220 204 207 192 189 187 182 182 159 119 81 60 60 65 87 90 99 99 97 100 128 118 106 102 87 86 85 87 96 101 103 96 98 84 68 66 60 61 52 40 38 37 35 38 38 44 57 76 69 73 67 54 61 70 68 62 73 80 81 101 119 117 102 106 97 92 95 94 110 111 134 179 161 139 136 123 108 138 127 124 110 124 114 115 127 133 141 145 139 138 139 142 203 197 210 199 187 175 161 158 141 79 65 61 57 61 86 92 97 97 98 101 113 128 114 107 95 87 82 84 85 93 99 91 93 100 86 78 74 66 61 54 51 48 50 56 54 61 74 77 67 71 60 58 59 70 75 69 90 101 99 120 116 104 105 95 83 81 79 80 102 102 127 171 163 134 117 117 99 136 140 116 116 117 106 107 121 132 135 139 136 134 131 131 196 193 186 181 176 159 128 137 120 68 64 55 66 72 86 91 89 89 89 106 99 115 110 112 97 97 87 85 82 81 92 90 95 94 105 103 98 83 83 73 73 77 79 77 75 79 86 81 75 73 75 75 82 87 89 92 109 117 114 110 107 99 97 87 83 75 79 91 96 108 114 159 146 133 103 113 85 121 152 135 109 114 112 112 121 138 139 134 141 142 137 130 180 173 173 166 160 137 105 102 102 75 84 58 76 83 80 82 78 85 79 108 101 102 102 100 110 97 93 85 80 75 82 89 92 92 99 99 96 107 104 97 101 98 102 102 103 97 95 89 92 90 102 103 111 120 122 110 110 115 109 101 103 94 95 89 78 73 82 86 93 109 114 145 125 123 105 109 86 105 140 150 124 100 109 114 119 133 145 134 145 146 145 142 154 150 152 135 142 117 87 92 98 89 89 65 76 84 66 75 74 71 78 105 103 93 94 92 112 111 96 87 86 70 73 83 88 81 85 87 90 89 90 94 101 107 117 120 121 126 117 118 121 111 115 115 116 118 108 109 110 108 104 101 99 97 92 81 71 69 80 76 90 101 125 144 117 108 105 121 93 103 124 136 139 124 92 109 118 130 137 132 135 143 148 143 144 136 129 123 120 103 94 104 96 116 82 78 84 94 65 72 81 61 75 100 101 93 86 92 99 114 99 90 90 78 73 72 81 82 75 76 79 79 78 79 76 89 90 101 108 108 110 106 111 106 109 110 109 110 114 107 107 104 99 101 99 91 88 74 66 77 74 75 86 95 121 131 122 94 102 133 98 107 114 127 125 128 101 102 111 123 132 142 132 133 136 145 