P2
92
112
255
121 116 122 119 118 121 119 117 122 129 128 130 142 154 164 168 169 167 153 146 149 154 146 142 148 125 133 124 118 133 115 108 107 84 87 86 88 81 102 106 106 110 105 105 114 105 124 120 117 141 150 144 164 165 173 183 199 211 216 212 213 220 227 227 219 224 218 212 208 199 194 187 185 168 157 154 138 133 124 126 125 122 127 125 122 125 124 127 123 123 124 121 118 120 115 122 116 120 122 122 130 136 140 143 154 165 172 176 167 164 159 151 148 154 148 146 144 136 119 110 105 106 112 92 105 86 82 106 96 86 98 88 93 91 99 86 93 99 100 109 110 112 125 141 158 149 149 153 175 185 207 209 199 204 209 221 223 218 217 221 217 207 204 198 196 189 174 160 152 133 130 127 126 123 125 125 123 125 122 127 125 124 123 121 116 120 117 118 122 120 124 132 139 143 154 162 165 174 178 176 170 166 165 156 154 159 154 141 136 128 123 116 107 95 106 100 88 75 86 100 86 82 87 76 65 73 91 90 77 77 78 91 101 80 96 142 142 136 136 144 165 173 194 198 187 200 198 204 220 215 216 216 218 208 216 208 198 196 197 175 157 150 135 127 127 122 125 128 123 122 125 125 124 122 122 124 118 118 117 119 120 126 130 142 149 157 159 167 171 175 175 177 174 166 157 158 157 161 162 152 137 131 110 113 101 87 95 94 75 88 87 89 86 63 68 60 59 54 78 90 66 52 61 77 109 75 93 134 126 129 124 139 166 178 182 185 186 189 198 193 209 213 202 206 202 200 205 203 204 198 202 186 183 160 138 130 131 126 127 125 122 121 120 126 123 123 121 122 116 120 116 119 122 141 146 153 156 160 160 165 171 172 172 170 165 156 148 154 156 150 146 143 139 117 103 89 90 92 91 91 80 66 95 85 70 72 67 64 52 58 82 89 72 44 62 87 104 86 95 110 109 117 126 137 152 172 167 182 184 184 194 190 203 210 197 203 197 198 196 205 198 200 194 187 188 179 150 128 130 127 127 123 121 120 120 127 121 122 119 121 116 118 116 125 134 147 157 163 158 162 165 167 169 171 180 166 152 147 144 149 153 145 130 116 105 105 98 84 80 81 87 86 84 79 76 77 75 60 79 80 49 61 90 96 76 50 59 89 105 76 88 100 107 109 112 131 135 151 156 160 179 177 181 181 200 200 189 199 198 190 198 202 204 197 184 182 177 187 182 135 126 125 126 125 122 121 117 119 116 127 121 121 117 119 121 136 147 157 158 160 156 159 165 162 170 174 164 155 152 143 147 147 143 131 120 109 96 102 107 97 88 91 93 95 82 85 90 79 73 65 80 83 54 60 86 108 83 65 76 99 96 73 76 95 106 111 105 119 131 134 136 149 161 162 163 165 173 186 180 181 189 194 204 203 208 192 181 177 178 185 182 183 136 124 120 122 120 117 115 116 117 122 120 122 119 117 140 156 153 155 154 159 158 156 155 160 168 157 148 144 154 168 151 153 143 129 117 114 113 102 107 123 119 123 122 113 93 84 101 98 82 76 74 88 74 67 81 110 100 73 76 108 83 77 82 100 104 105 100 109 127 124 126 137 150 155 152 158 165 157 160 160 165 188 201 197 213 200 172 174 177 184 187 179 173 136 119 124 116 113 119 110 117 120 120 122 114 125 151 155 154 154 156 161 154 144 156 162 158 147 154 159 183 179 171 159 152 130 119 111 119 112 118 117 121 125 135 111 97 105 108 110 101 89 95 91 91 95 98 117 109 84 82 103 98 84 95 103 101 95 106 109 122 121 125 132 131 142 147 156 158 153 142 138 152 170 189 189 209 200 189 180 175 179 182 175 171 169 127 120 115 118 117 112 113 120 119 119 120 142 154 156 157 161 154 150 140 151 139 142 147 153 158 173 184 179 180 177 152 142 133 137 127 138 144 143 136 137 139 132 110 118 134 127 115 101 110 109 109 117 114 117 117 103 97 99 105 97 90 89 98 103 101 100 116 118 119 113 117 121 130 135 136 141 131 133 137 141 156 173 185 187 188 183 177 174 174 174 172 167 151 118 108 114 114 114 117 118 118 117 135 154 158 153 163 164 151 135 130 132 138 154 163 163 172 181 180 178 165 164 156 142 140 145 132 130 147 148 156 143 141 133 129 122 133 133 118 119 116 129 126 126 125 124 116 116 102 99 95 100 90 95 95 107 113 102 98 109 109 111 107 107 125 126 125 128 122 120 124 122 135 141 157 171 178 178 167 170 174 176 174 164 155 138 111 104 112 109 115 119 115 114 147 159 155 160 161 149 136 133 129 131 150 147 161 176 190 197 184 181 166 163 171 175 165 166 155 149 155 158 157 157 156 151 139 141 140 144 136 139 132 132 132 117 125 127 114 112 110 95 88 106 105 104 100 102 93 85 84 92 96 106 98 100 111 112 112 115 111 116 116 115 108 119 116 137 155 156 167 155 168 176 164 155 157 154 125 106 104 102 108 115 112 115 150 154 159 163 157 149 137 133 130 135 154 173 194 200 193 195 174 173 169 158 170 163 167 172 175 171 161 166 167 166 161 170 161 156 156 152 150 151 142 143 130 124 130 129 115 110 117 113 98 107 124 103 95 83 89 89 83 88 92 90 100 100 103 99 92 95 93 89 101 99 112 90 102 113 122 131 143 161 161 168 157 155 152 154 150 116 100 97 105 111 113 116 162 162 163 161 156 146 132 134 126 142 162 192 210 203 200 195 175 186 187 184 166 162 161 170 164 170 177 171 170 171 171 174 165 164 161 152 154 142 146 140 132 126 126 125 122 120 126 108 108 107 105 102 102 94 92 95 92 90 87 86 89 82 89 89 81 89 106 86 95 81 90 84 90 99 104 110 124 139 150 166 168 160 147 148 147 145 106 99 100 108 113 114 167 158 153 158 147 132 118 115 134 161 183 202 208 200 195 178 169 179 183 187 178 173 173 173 172 176 174 173 177 174 170 168 167 160 151 144 145 144 134 138 136 131 131 135 125 117 119 117 115 110 107 106 99 94 91 92 91 75 81 85 81 85 89 85 85 87 86 93 100 80 88 80 82 84 90 96 109 128 146 145 174 172 147 149 148 150 136 108 100 104 104 108 160 154 157 152 148 125 113 125 141 148 164 186 194 187 183 175 179 179 180 182 176 165 172 182 179 176 176 167 165 165 161 156 151 145 136 141 135 127 128 135 134 130 133 137 116 111 122 113 115 121 116 116 108 101 99 90 86 79 83 83 80 88 89 91 94 101 97 102 102 87 91 81 71 81 86 92 96 106 139 142 148 161 158 140 150 160 165 141 101 96 95 100 158 162 159 148 132 122 126 128 151 169 179 188 194 181 168 168 181 179 185 181 162 164 168 172 177 167 172 164 156 158 155 152 142 135 135 132 132 121 121 129 130 123 132 131 122 119 120 127 122 122 121 111 106 95 92 87 90 84 86 98 96 96 104 104 105 103 108 108 105 101 114 110 91 82 83 91 92 102 116 131 138 146 153 136 143 141 161 162 138 100 91 95 156 157 135 125 117 107 134 133 141 160 177 188 184 168 171 175 183 186 191 167 156 168 177 169 164 163 167 158 157 146 142 144 128 114 114 118 112 111 114 117 110 112 112 115 115 114 113 121 119 113 114 105 101 98 91 86 87 81 87 91 92 100 107 110 113 122 128 135 129 123 129 129 134 117 108 111 102 104 114 125 117 142 160 127 138 140 148 163 156 141 93 89 142 131 111 104 104 100 124 127 146 171 197 205 187 180 184 185 180 183 178 156 161 171 173 167 161 166 166 157 154 144 133 127 117 108 100 100 102 103 97 106 103 103 104 106 109 114 110 113 111 111 114 112 112 112 101 100 100 93 92 96 99 105 111 114 125 128 138 144 147 138 138 133 125 132 121 129 108 106 108 115 121 121 145 136 129 133 144 161 165 159 128 90 132 113 105 102 81 85 115 132 154 168 181 192 187 189 188 174 170 176 165 163 172 176 170 169 165 164 158 151 143 125 115 117 106 100 97 97 98 107 98 105 106 104 100 104 105 111 113 110 115 113 113 122 119 119 111 109 104 97 98 101 108 110 119 127 138 138 151 164 156 158 159 158 142 134 145 131 112 98 103 91 97 123 121 135 130 130 139 155 167 157 160 106 123 103 100 88 79 94 131 144 161 170 183 186 179 176 176 172 172 166 164 175 173 171 163 163 157 153 147 139 129 114 112 111 107 103 100 101 102 108 102 105 108 110 108 107 105 106 114 116 119 115 119 117 114 111 108 110 106 102 103 104 111 110 121 134 144 152 158 173 183 173 181 178 173 166 169 157 144 110 110 102 93 106 112 111 120 111 129 144 163 161 151 137 114 101 83 68 85 113 133 145 151 173 182 177 174 168 165 160 157 152 164 165 160 154 152 150 148 141 129 123 116 114 113 110 106 105 105 105 106 109 112 111 112 107 106 103 106 106 110 116 123 121 121 118 112 111 106 110 108 106 112 109 115 118 127 135 146 155 167 180 185 184 182 189 189 185 181 178 174 145 128 125 102 94 98 117 101 113 109 125 146 163 151 149 92 74 65 67 95 114 141 145 160 170 173 169 163 161 164 148 147 147 155 154 153 150 146 140 140 126 130 125 114 111 109 106 102 111 111 110 109 109 115 118 117 119 109 106 102 105 103 110 116 114 116 120 115 110 104 98 97 96 97 95 91 99 114 122 135 153 163 171 182 183 186 186 194 198 187 184 186 162 134 125 123 100 84 105 115 103 115 103 137 152 159 152 81 55 55 61 95 111 127 134 151 152 159 145 146 152 150 145 140 138 145 141 141 149 141 135 131 122 130 128 115 110 106 105 109 109 113 113 113 108 118 122 122 129 124 121 116 111 108 103 108 107 105 102 100 101 100 95 93 91 87 91 82 87 97 107 122 134 144 161 175 184 190 193 194 199 199 208 197 171 141 139 127 121 93 87 107 109 124 117 130 143 156 161 68 50 55 64 88 110 123 137 141 149 139 133 138 138 131 131 129 127 133 127 136 141 131 136 129 125 124 116 116 115 108 108 109 114 112 116 123 116 123 132 129 135 130 132 123 118 115 109 109 105 93 91 95 99 97 97 106 96 96 92 94 85 85 96 112 122 134 144 163 176 194 198 203 203 206 218 217 199 160 152 150 124 109 103 85 105 122 127 114 132 157 156 70 50 49 66 87 102 113 122 118 129 125 122 125 112 108 114 106 115 114 122 130 129 129 133 128 117 112 113 113 113 112 113 116 116 116 122 123 126 133 137 132 136 134 128 127 123 121 114 113 111 101 98 102 113 112 110 106 106 99 111 111 102 97 98 105 116 130 136 152 165 181 198 208 209 205 212 232 222 189 170 159 163 123 108 107 98 112 123 123 110 151 161 66 55 67 75 77 99 99 108 115 111 104 104 101 94 101 92 94 99 109 114 121 119 127 124 119 107 108 111 111 110 112 116 119 121 126 127 127 131 136 140 138 135 139 135 133 127 130 125 117 111 109 105 109 117 117 117 120 114 113 119 115 107 108 111 117 121 126 138 146 162 168 193 205 213 207 219 228 234 213 176 183 165 167 125 119 106 114 111 119 118 141 163 61 61 65 66 73 84 87 82 96 95 85 87 87 97 91 78 89 102 103 108 114 113 120 114 106 105 106 109 110 106 114 118 121 126 129 134 134 136 141 138 140 136 137 136 137 133 130 130 126 129 113 117 119 118 117 121 125 121 129 128 121 118 116 123 132 132 132 140 146 153 162 182 204 213 212 217 230 231 228 197 192 175 172 163 120 113 112 112 108 113 136 164 57 63 70 67 66 76 61 73 84 76 79 90 86 91 82 83 89 101 98 107 108 111 111 105 103 105 106 110 111 111 120 125 125 126 128 133 136 138 140 135 137 132 137 137 135 135 131 132 128 126 118 114 120 123 120 126 124 130 133 132 133 134 132 130 134 141 137 144 144 152 159 172 191 207 213 216 228 230 232 206 201 193 166 155 123 107 104 100 111 106 123 160 68 63 58 60 60 66 57 71 80 75 83 90 82 87 84 91 97 95 100 106 105 108 108 106 104 104 108 114 118 117 119 120 120 119 122 127 132 137 135 134 134 133 137 135 132 137 133 131 131 128 122 119 125 128 127 129 132 134 132 135 135 133 140 143 143 144 142 148 144 147 155 165 184 190 202 218 237 236 236 228 212 204 173 141 131 106 94 95 100 103 119 149 47 54 53 50 60 72 60 63 68 76 78 83 87 81 84 95 95 95 96 104 105 108 106 105 103 106 108 111 114 113 113 112 117 114 119 123 126 131 134 132 132 136 136 137 132 136 138 135 135 127 132 131 134 134 131 130 130 126 132 131 134 132 136 145 147 141 148 150 151 151 152 158 174 192 193 206 231 240 240 237 220 207 165 141 124 108 96 97 104 102 119 144 55 40 46 62 62 58 60 58 69 69 76 76 88 89 88 87 92 94 95 99 102 105 101 103 103 101 104 102 106 104 106 111 116 122 122 124 127 127 132 133 129 136 141 137 134 139 141 140 140 136 134 138 136 139 135 133 136 132 132 134 132 131 135 144 142 138 144 145 146 144 143 148 166 185 186 197 225 238 242 232 230 221 191 156 129 111 95 88 104 117 115 146 59 58 55 65 63 64 61 62 61 74 77 84 84 90 80 81 92 96 90 97 93 99 95 99 101 102 105 104 111 106 111 122 126 131 129 128 129 129 136 137 134 136 143 140 138 137 145 140 143 145 145 141 139 141 141 140 144 145 141 144 141 144 150 148 146 142 141 137 139 138 135 141 155 177 179 188 217 232 239 230 225 232 212 173 132 122 96 84 109 124 130 153 71 70 61 61 58 56 61 56 73 76 80 85 89 83 73 83 90 87 87 85 87 91 90 95 93 97 97 101 112 114 119 121 128 132 136 131 135 139 142 144 143 141 142 145 140 141 141 142 146 147 152 149 151 151 156 152 152 156 153 157 157 155 159 162 155 143 147 135 133 130 133 131 145 160 177 173 209 239 237 236 220 230 221 198 149 137 99 85 111 128 130 151 80 72 51 55 51 61 60 62 72 68 83 88 88 78 70 82 81 81 71 75 75 81 82 88 92 86 92 102 110 113 113 121 129 132 135 140 140 147 148 148 145 143 145 143 139 142 143 144 153 155 162 160 161 163 164 165 165 165 167 165 170 163 162 157 152 140 142 137 131 130 118 124 136 148 159 173 191 227 236 225 228 233 231 207 167 128 113 98 119 128 132 141 86 64 50 57 44 64 56 56 66 72 89 95 76 67 68 71 68 70 70 79 74 77 78 81 83 85 93 100 104 109 115 122 123 125 125 129 130 132 140 143 145 142 145 147 146 146 153 158 159 166 171 175 178 178 179 175 178 175 179 175 174 163 157 154 149 139 132 133 126 119 112 110 126 135 145 153 177 209 231 218 229 228 228 207 184 148 110 120 118 133 144 148 98 74 58 49 55 55 57 50 73 80 97 95 68 62 61 64 68 65 77 77 72 74 72 81 82 83 86 92 98 100 105 111 116 121 123 120 122 122 124 136 141 142 146 147 154 153 161 162 168 175 177 180 181 179 177 174 176 174 173 174 168 160 155 151 141 139 128 122 117 109 99 100 113 127 129 142 165 190 219 226 216 234 230 198 184 167 118 118 129 130 156 144 110 91 72 66 61 54 54 51 69 79 96 86 58 59 55 57 64 64 72 73 71 75 76 75 73 74 78 85 88 92 97 99 107 111 116 115 119 119 118 127 134 138 141 147 149 152 158 163 166 169 173 176 176 175 172 168 172 174 165 163 160 155 147 147 138 137 124 114 107 105 91 90 97 117 125 135 159 177 212 225 207 217 230 210 175 173 142 121 133 127 158 152 111 99 76 67 56 62 63 57 66 92 98 73 56 57 54 53 62 70 67 73 68 70 69 68 73 68 71 80 87 84 88 91 101 99 104 112 111 119 119 124 125 133 138 145 147 152 155 157 161 163 167 168 169 168 161 159 158 160 153 148 148 144 140 137 129 128 123 111 102 92 90 87 81 100 110 122 146 166 201 219 216 202 220 218 175 170 144 111 145 121 155 156 99 91 69 61 70 65 69 61 82 103 90 72 62 58 57 53 65 68 62 62 54 57 61 66 70 66 66 65 71 76 78 76 81 87 93 101 101 110 115 117 120 127 133 140 146 147 154 152 154 163 158 160 160 156 155 148 150 146 143 141 139 140 137 132 129 132 127 118 105 94 87 82 83 89 104 110 137 160 181 225 213 215 217 215 193 154 146 109 140 134 151 162 95 87 70 68 63 68 79 77 93 102 94 78 60 60 59 54 64 61 63 55 60 64 72 69 77 72 75 73 73 79 84 88 90 91 97 96 101 108 112 114 119 121 130 137 142 149 149 150 154 156 149 154 150 145 143 138 134 129 130 134 136 136 131 126 115 127 121 115 103 97 81 82 78 91 109 105 120 150 175 226 222 219 216 213 190 158 128 122 139 143 157 178 104 79 95 78 66 81 80 82 99 109 95 78 65 71 61 58 66 65 74 62 55 65 70 72 77 77 74 69 69 73 69 68 74 72 72 83 77 86 91 97 103 109 119 126 138 144 147 145 145 147 146 146 141 135 132 129 129 121 121 121 126 132 128 122 106 113 102 107 91 81 70 54 58 70 90 94 97 124 155 214 223 218 218 219 197 162 134 101 137 145 165 185 113 76 104 89 83 81 85 87 110 111 99 89 75 69 52 55 49 49 53 43 50 57 60 70 71 73 75 73 72 68 71 77 76 76 67 75 79 79 90 95 99 107 117 124 129 139 143 140 141 146 141 138 139 140 144 139 144 140 143 143 146 154 144 143 123 112 110 107 96 80 70 56 50 69 83 89 89 120 151 195 211 215 230 219 196 171 122 97 115 130 164 178 104 93 103 91 96 73 95 96 122 120 104 91 76 66 63 64 61 55 46 45 48 60 58 68 80 83 87 85 87 85 85 90 96 82 81 78 81 87 94 100 106 115 124 130 134 138 149 145 149 150 153 145 150 145 147 149 143 140 148 151 159 166 156 157 136 120 117 100 104 83 70 59 52 72 72 89 96 119 155 192 213 230 226 227 185 158 114 98 114 121 151 174 97 107 99 84 87 79 86 106 123 119 105 95 84 73 68 69 65 49 34 41 42 48 58 70 69 66 71 66 74 81 85 90 95 92 86 91 90 95 105 95 98 102 112 117 126 125 131 140 142 145 155 153 153 154 147 150 149 148 149 151 152 152 150 154 147 134 125 111 103 99 73 65 60 68 62 74 97 113 150 182 206 237 223 235 177 150 115 93 114 114 133 162 112 120 102 102 85 86 91 113 124 121 121 103 87 84 74 80 58 44 35 32 41 51 70 81 73 78 71 76 86 95 94 94 102 99 105 104 104 112 109 107 102 97 108 123 126 134 130 125 137 148 164 164 159 163 168 168 162 152 153 151 144 137 127 132 128 117 93 86 81 79 73 63 49 54 67 68 89 102 157 181 200 230 226 227 160 136 105 113 116 117 128 152 123 131 119 110 91 86 81 113 130 130 141 117 99 106 98 90 70 49 42 38 52 64 82 98 91 99 107 115 128 138 143 139 137 130 132 139 126 129 133 125 121 107 118 134 140 142 136 134 130 150 160 175 161 156 151 163 161 150 143 139 137 145 127 117 112 108 84 73 71 63 58 47 50 45 58 58 74 94 141 177 201 226 227 216 144 132 98 128 112 115 131 151 128 138 120 108 86 101 75 99 128 129 140 120 123 118 112 103 78 72 68 64 70 87 106 119 116 126 134 143 158 170 178 171 171 171 165 162 155 150 154 140 144 135 128 138 134 139 135 133 135 149 153 180 176 172 166 157 162 167 163 161 160 155 157 152 128 129 120 94 86 77 70 58 54 41 49 46 64 82 126 164 198 230 233 207 130 105 113 118 120 126 137 155 134 135 118 105 90 95 85 107 132 136 139 110 132 127 129 129 102 102 87 86 93 113 125 136 141 146 167 177 180 183 186 180 174 181 180 180 167 149 149 143 145 151 125 125 126 125 124 132 129 152 157 183 186 176 175 176 179 170 173 183 175 181 178 176 153 144 150 137 117 108 92 71 62 49 48 48 45 66 103 147 184 228 232 196 125 99 113 123 116 152 165 170 136 138 129 116 103 99 103 118 141 146 156 128 140 142 141 144 106 106 105 109 118 131 126 135 144 154 175 177 182 179 172 170 166 172 173 169 168 167 154 160 144 144 132 125 123 114 109 104 118 129 141 167 188 188 178 161 159 179 180 185 181 178 186 185 167 142 140 138 135 107 105 86 71 51 35 53 54 69 110 157 195 226 215 180 124 113 124 158 149 159 186 177 134 140 134 120 112 110 133 141 153 159 174 148 167 159 149 128 112 108 101 109 120 116 130 135 131 148 176 186 193 182 177 178 175 168 157 156 150 151 159 170 167 168 150 146 140 120 115 110 112 119 145 179 191 190 195 176 161 183 185 186 179 181 190 181 182 164 143 135 117 110 83 83 71 59 48 62 67 89 134 171 203 226 204 176 128 121 131 186 186 180 198 188 132 146 143 128 126 130 158 171 176 172 171 152 173 155 152 130 118 112 97 112 108 110 125 121 118 118 150 157 172 174 165 153 152 147 152 153 161 160 168 166 180 182 178 173 152 133 128 138 124 135 160 175 184 180 196 176 156 161 156 177 166 164 184 180 166 146 138 156 119 109 77 68 70 81 67 72 70 74 124 156 208 224 208 183 122 122 124 193 198 187 217 201 138 142 125 136 129 141 159 192 185 187 186 173 180 156 155 152 126 118 109 116 132 130 123 125 114 123 134 128 135 151 156 153 148 156 149 145 160 167 162 182 194 197 206 175 162 120 124 126 130 144 159 168 176 173 180 166 149 141 133 156 146 132 138 149 136 125 109 97 111 86 93 68 63 65 59 63 79 53 111 144 199 216 205 166 129 132 137 195 199 181 206 191 136 138 123 131 123 144 163 196 194 186 172 176 186 162 150 149 132 119 111 125 122 119 127 130 128 135 127 121 131 139 134 150 150 146 141 146 159 169 176 198 193 197 204 179 156 107 97 105 104 131 152 144 143 147 153 139 131 127 117 114 119 103 119 117 127 114 108 80 94 91 80 78 57 53 60 81 93 74 111 166 197 218 185 157 135 149 160 205 238 181 209 167 125 137 122 117 123 146 168 191 196 192 171 168 179 165 145 162 140 130 131 136 131 135 131 137 146 147 137 129 120 128 126 133 141 130 122 130 139 131 143 143 152 174 159 157 139 105 80 91 91 112 137 132 132 149 157 143 133 131 146 136 126 103 112 105 105 82 81 61 61 86 87 62 79 69 76 103 106 93 113 162 197 217 198 174 156 158 173 204 255 188 204 157 134 128 138 122 108 134 160 179 183 196 173 161 166 163 151 163 141 136 136 140 140 147 148 150 148 145 137 125 106 107 132 140 149 139 137 140 139 127 143 135 142 158 146 135 128 92 75 65 80 105 131 125 133 154 151 155 140 142 142 147 139 117 114 108 88 86 79 47 48 50 68 66 93 94 79 104 113 108 114 156 182 238 220 183 173 163 179 194 254 196 202 172 127 148 152 115 112 134 151 172 177 191 180 160 167 153 155 166 165 151 142 149 145 155 154 150 152 145 134 129 131 126 147 146 151 149 142 154 142 140 146 142 156 172 146 140 117 89 55 61 75 103 129 134 140 143 150 157 143 139 141 145 156 138 130 120 95 88 67 41 48 43 56 65 82 91 77 97 112 131 132 157 182 225 237 181 186 175 171 205 237 198 192 183 135 173 156 124 120 128 148 163 170 179 180 158 158 145 141 147 153 145 141 141 138 145 145 150 152 144 140 136 148 151 158 154 153 154 158 148 146 147 142 146 160 162 144 137 113 71 51 55 67 95 117 144 136 136 120 130 157 141 139 141 149 143 149 120 102 92 76 64 57 44 60 69 84 94 90 103 129 158 144 164 197 218 229 197 191 161 158 204 212 197 187 172 137 168 149 132 128 129 148 159 157 156 170 152 150 134 135 140 143 135 134 132 133 136 134 141 139 141 140 135 145 154 157 154 155 154 150 160 159 161 143 158 176 149 164 135 110 72 52 59 79 95 127 132 142 144 133 135 156 155 162 156 154 158 149 128 112 99 93 92 83 76 81 88 105 109 114 128 143 157 148 168 204 207 214 204 204 149 146 180 187 177 185 166 149 147 146 134 139 133 172 165 152 144 155 144 143 129 129 135 133 131 128 127 127 130 128 130 130 135 137 138 143 151 149 152 149 148 161 158 147 168 152 150 148 146 145 129 112 73 65 67 78 91 115 120 131 139 144 137 153 152 168 150 145 144 149 137 130 116 115 109 97 106 112 106 118 123 128 133 139 153 152 166 202 198 211 216 194 147 169 174 172 173 173 151 164 123 149 140 151 129 171 196 166 163 134 134 134 125 123 133 125 130 122 123 131 134 133 135 132 132 133 132 141 142 142 145 149 152 153 152 144 153 147 148 155 155 130 112 93 67 63 65 85 95 110 130 140 153 159 162 157 150 152 163 149 147 140 148 139 136 135 136 118 119 125 120 125 131 134 136 145 160 149 178 190 186 210 215 178 163 197 174 167 169 167 134 162 105 135 140 137 129 172 211 197 173 159 125 134 122 119 129 124 134 121 122 129 134 131 133 133 138 147 136 138 134 135 139 140 143 139 146 133 137 135 139 145 145 131 112 82 72 72 56 67 89 104 129 147 159 166 173 164 168 158 155 159 148 139 139 138 144 142 143 133 128 130 127 125 136 140 136 147 158 141 175 182 175 205 195 168 167 186 174 161 172 149 128 137 80 116 143 114 96 131 195 174 185 166 125 132 110 106 121 128 127 127 120 124 129 130 129 134 141 146 142 138 139 135 135 130 128 131 130 131 119 130 143 144 142 137 118 96 92 86 71 64 91 105 132 137 153 161 164 164 182 175 168 168 165 150 150 148 142 142 133 132 133 135 139 145 151 146 153 152 158 155 169 195 175 198 180 167 179 144 165 159 159 144 134 110 63 67 129 90 70 120 174 177 187 147 124 114 114 102 97 115 118 125 116 122 120 123 123 125 128 131 133 133 132 131 133 128 132 133 135 124 115 133 137 145 142 138 125 106 100 98 96 91 102 115 140 137 141 153 147 166 168 178 177 184 180 174 171 177 163 151 140 133 147 151 148 151 155 155 146 141 161 159 162 202 179 179 166 155 166 130 150 153 159 145 138 93 47 42 99 75 71 92 140 156 173 149 134 120 105 93 82 94 103 109 116 121 117 115 116 117 121 126 121 122 121 127 138 140 142 134 134 119 125 133 139 138 138 146 123 120 103 105 111 109 114 120 142 153 142 153 140 152 166 172 184 187 188 182 181 172 172 161 155 148 160 157 145 151 153 154 141 145 160 151 162 193 169 168 156 142 175 129 137 158 153 149 147 78 66 31 61 68 79 84 136 159 154 151 137 125 106 87 82 74 84 92 98 100 100 101 105 107 115 116 114 110 112 115 130 127 133 125 120 119 130 139 152 153 145 139 122 114 119 112 115 113 113 132 148 157 157 149 143 152 171 168 175 183 177 175 174 167 161 149 146 148 154 151 138 142 147 142 139 142 152 140 154 174 173 168 144 150 169 132 125 157 146 155 150 73 71 46 53 53 65 88 124 156 146 139 135 126 111 92 78 77 74 80 83 79 81 88 92 91 99 99 105 104 103 112 125 123 130 128 124 125 138 151 168 162 160 155 135 125 130 130 131 125 124 141 161 177 175 168 158 153 166 159 164 167 167 166 160 165 168 147 148 136 144 142 131 135 143 144 140 131 144 133 146 162 172 173 147 153 163 119 126 153 146 163 148 73 77 49 50 51 44 92 113 139 141 141 138 127 114 100 83 80 75 73 75 75 75 78 75 76 83 85 92 95 98 108 116 125 131 132 129 133 139 153 161 154 165 171 169 150 153 155 156 150 133 139 165 187 192 185 177 170 163 158 164 163 163 158 161 158 163 161 154 145 157 143 131 136 148 149 136 139 145 139 154 155 163 164 150 176 160 105 148 134 149 163 147 62 80 42 21 62 29 85 108 128 139 134 135 138 121 108 91 84 79 76 72 71 75 72 69 70 76 84 87 95 112 115 117 127 126 130 139 139 138 148 170 177 178 182 171 165 168 158 162 158 157 150 158 179 199 192 188 179 176 179 169 168 171 159 156 160 167 162 156 155 149 145 141 142 147 148 134 139 156 145 148 141 139 162 152 176 141 119 142 112 161 160 144 62 72 46 6 58 47 70 101 112 129 138 133 150 128 115 101 92 85 79 77 72 69 62 57 65 80 87 96 107 109 118 116 124 125 124 153 140 152 153 169 174 169 177 167 152 158 159 150 141 146 142 147 168 177 176 177 185 177 187 172 163 166 160 156 151 160 160 163 152 150 149 141 142 150 144 137 139 152 144 161 142 135 153 144 166 136 126 122 103 161 147 141 49 79 63 0 28 57 70 95 88 113 137 133 152 140 124 115 100 93 86 79 74 72 66 62 67 78 97 110 113 117 128 133 130 142 148 159 153 160 153 160 158 158 172 162 149 150 143 137 127 129 136 143 156 161 170 176 187 194 193 178 160 160 168 156 159 152 153 156 148 141 142 139 145 147 142 136 142 152 144 168 146 138 140 130 159 147 125 108 110 154 144 132 51 58 76 2 17 57 77 99 77 101 128 141 151 143 137 123 113 97 91 88 83 76 69 70 75 90 108 119 126 143 147 146 159 161 173 165 161 163 158 150 140 153 153 146 136 136 119 114 118 122 129 139 148 153 172 186 183 197 201 194 182 172 164 161 161 152 151 151 145 139 142 135 142 141 141 140 151 148 148 157 151 130 119 136 157 144 133 97 128 146 136 130 58 52 63 9 17 48 88 123 104 99 127 145 172 163 142 128 113 109 99 99 89 79 79 86 96 108 125 128 143 153 164 173 178 183 194 195 173 164 165 155 138 147 141 127 114 122 107 107 114 124 122 132 146 162 177 181 185 188 194 194 177 170 163 161 162 156 155 150 140 133 144 147 147 144 144 141 157 146 149 151 134 125 118 148 141 126 122 86 137 128 118 127 66 67 41 15 9 48 69 102 116 107 125 135 174 175 155 143 125 117 104 103 94 84 90 100 108 121 136 154 157 162 180 186 197 210 218 207 199 169 181 167 157 141 140 132 121 123 119 113 121 128 133 135 156 171 185 180 181 181 185 182 180 171 165 160 162 156 157 151 147 140 143 149 151 148 144 141 151 140 144 153 138 143 123 136 117 114 109 84 121 124 108 123 65 64 42 13 28 42 76 96 105 100 126 147 158 181 162 154 136 125 115 105 100 92 100 114 122 137 152 167 167 173 183 199 215 218 222 207 214 194 196 193 193 181 164 146 138 142 135 133 135 148 160 164 176 188 202 191 169 173 185 186 188 177 174 174 163 154 154 151 146 140 142 154 152 151 145 146 152 130 145 154 151 150 120 118 85 92 86 75 94 120 106 115 67 50 44 30 28 49 70 105 106 101 129 161 168 183 164 166 150 134 124 112 102 102 106 119 127 144 153 165 176 194 213 218 218 226 231 215 217 220 220 219 229 224 225 195 174 165 165 159 149 172 185 182 188 200 218 204 177 170 181 179 173 172 177 177 171 153 151 153 140 132 136 147 149 145 143 144 142 125 142 141 154 144 111 95 55 53 71 71 85 109 110 117 59 45 44 47 34 73 63 100 111 101 127 147 170 188 183 174 165 142 127 113 108 103 114 121 126 139 153 169 189 216 220 230 219 219 225 229 221 212 222 220 221 225 225 216 222 209 195 178 169 188 210 192 190 193 194 191 188 176 179 176 163 156 169 172 172 151 147 157 131 122 134 139 137 136 138 137 137 131 152 124 135 134 99 63 42 53 76 64 77 104 112 117 34 35 47 58 56 81 79 94 118 115 134 138 162 180 187 174 164 146 135 117 103 108 115 119 119 135 159 176 195 219 227 233 223 222 217 223 222 206 212 211 205 220 216 210 216 217 208 202 193 207 228 216 195 191 185 193 196 192 184 176 161 153 161 164 168 149 146 155 132 119 127 132 126 129 133 131 136 140 154 119 141 123 77 59 46 69 85 64 77 87 106 112 17 30 42 61 63 82 85 96 112 118 135 144 166 169 183 174 166 151 134 129 109 112 113 112 115 130 150 169 191 205 215 225 227 216 204 193 211 201 199 204 203 216 208 207 214 225 225 218 220 226 229 228 213 206 205 209 217 202 194 181 162 156 149 154 162 140 139 145 138 115 125 120 118 127 130 128 130 145 149 124 148 122 60 62 43 81 85 65 72 78 91 100 18 33 53 57 70 97 85 91 103 122 125 141 169 174 189 177 170 157 138 130 120 119 115 112 113 126 143 163 170 177 184 204 207 196 181 170 191 198 187 186 194 205 202 198 213 218 227 218 223 230 232 228 216 202 205 210 221 206 192 180 165 156 140 145 149 146 124 126 128 111 116 117 102 122 119 127 121 151 148 129 165 126 74 64 51 99 84 65 62 76 76 98 25 43 52 53 88 100 101 82 103 128 133 141 171 181 189 176 166 158 141 136 127 123 119 114 108 110 126 136 137 147 153 167 176 172 165 162 154 170 172 167 178 182 180 184 190 199 199 206 210 214 217 214 200 191 195 203 202 197 182 180 164 146 134 131 141 146 123 116 115 106 110 110 92 108 109 118 112 164 142 151 173 134 89 66 77 111 86 59 52 76 62 74 28 49 43 61 90 94 106 94 106 129 139 144 183 186 184 179 172 163 143 136 130 125 117 111 105 97 114 119 117 121 128 137 145 148 148 136 125 132 154 158 166 158 167 175 174 171 169 176 181 184 187 193 187 177 181 185 177 167 165 174 157 138 118 115 131 136 121 114 104 102 94 97 92 90 97 113 110 179 143 162 180 144 106 83 94 104 84 51 40 58 65 53 42 39 35 68 88 83 104 99 104 130 140 146 181 183 184 177 176 161 145 130 129 125 119 110 107 101 113 116 112 110 113 117 127 129 127 118 111 119 135 140 141 148 146 151 153 152 145 154 154 158 160 165 171 154 144 145 143 133 135 146 141 131 116 104 105 118 114 107 92 91 90 91 91 76 86 107 122 180 141 174 191 144 112 97 93 80 83 44 33 43 65 52 32 28 51 68 72 83 103 94 99 128 135 143 179 186 185 183 177 159 154 123 120 121 112 112 111 110 109 110 102 97 91 99 102 109 111 106 99 100 110 120 124 126 127 128 135 141 133 132 132 127 125 124 123 106 94 94 102 95 97 103 113 114 112 94 87 98 96 98 89 84 84 87 86 69 81 96 131 173 153 205 194 149 132 104 80 70 76 51 27 33 64 52 26 48 53 56 61 90 101 93 93 110 139 140 170 191 184 181 179 162 144 118 110 113 105 110 113 110 103 109 99 89 84 88 94 90 99 102 95 85 84 93 113 126 125 125 134 130 118 115 122 115 109 105 104 95 78 76 88 82 79 99 109 112 108 100 96 92 81 90 93 81 74 82 79 69 75 90 140 168 172 219 201 161 130 114 66 60 68 60 30 18 49 67 47 52 46 44 63 89 104 99 92 100 136 141 165 187 184 185 183 165 135 118 109 110 107 112 116 113 117 115 105 93 84 87 91 98 96 96 95 88 75 78 103 119 129 121 129 128 109 106 125 122 113 102 103 87 84 75 86 84 81 99 116 128 120 104 97 84 82 79 82 78 72 86 71 74 70 85 135 164 203 221 187 155 127 109 73 52 62 59 38 17 22 64 47 44 40 48 69 84 104 99 97 98 125 139 149 187 187 177 171 159 133 116 108 110 105 112 115 119 128 126 123 126 122 131 133 133 128 125 117 109 104 100 115 127 135 130 136 134 126 119 125 125 112 114 108 94 85 87 88 98 110 122 132 124 108 100 100 93 84 79 76 77 80 80 66 78 73 102 139 184 217 209 174 144 117 100 81 53 50 69 41 23 13 29 45 40 44 68 75 89 114 96 95 91 106 132 146 179 184 177 167 157 123 117 111 108 103 108 123 129 143 147 149 150 158 169 164 155 151 155 153 145 146 139 142 150 154 150 149 148 142 144 138 140 123 119 114 112 103 111 108 113 118 118 128 122 113 92 93 89 91 87 76 77 89 86 69 79 86 122 155 209 216 202 161 127 102 94 77 73 44 71 55 16 14 9 40 47 66 77 79 98 113 90 89 90 94 125 141 174 189 176 162 156 129 114 105 111 106 111 116 125 146 146 149 143 143 145 139 134 128 137 152 145 152 142 146 146 152 159 159 154 153 157 144 144 131 135 126 116 112 114 105 119 120 111 113 109 116 101 94 91 90 89 85 76 91 86 75 86 112 145 206 216 215 190 151 120 111 89 80 58 69 55 70 29 7 11 53 69 86 91 98 106 112 83 77 95 93 115 140 170 196 179 164 151 144 114 101 104 99 107 117 130 139 140 144 133 129 124 121 115 109 108 118 121 123 121 126 137 134 156 164 158 159 154 158 158 152 137 126 120 114 99 107 105 109 101 96 92 111 118 110 96 91 91 92 87 95 90 81 111 134 174 223 214 205 185 143 109 111 86 79 58 65 60 67 51 17 8 79 92 101 104 114 117 106 88 90 94 98 119 139 160 186 177 163 156 149 127 114 108 99 102 113 120 129 131 132 128 111 109 115 105 106 104 100 96 101 108 120 126 124 132 148 146 147 130 127 125 118 108 101 105 103 102 102 106 103 102 87 91 103 107 106 99 95 100 92 90 98 89 95 135 149 201 228 215 196 171 134 104 106 103 70 70 56 58 71 66 35 19 94 106 108 114 123 124 98 97 92 100 103 116 136 149 184 173 160 154 151 134 122 120 105 111 109 118 124 117 113 123 113 111 109 106 99 101 99 99 101 105 114 118 117 118 119 118 113 109 103 97 93 87 82 93 98 106 105 102 99 100 90 88 93 101 92 97 98 99 97 102 101 98 129 144 169 221 229 215 185 161 126 104 102 99 80 69 71 54 63 78 58 31 104 109 120 119 131 112 100 103 105 111 105 125 134 143 178 176 160 152 158 154 128 121 110 115 121 113 112 108 93 95 97 103 92 90 98 103 100 105 105 110 111 113 114 116 114 112 116 115 111 104 104 92 92 101 100 106 103 103 98 99 92 85 93 97 90 98 104 102 111 113 111 115 144 155 178 221 236 202 175 155 114 106 105 95 98 71 76 62 47 65 68 54 123 136 134 128 133 119 109 115 126 129 119 137 141 143 172 169 159 162 160 158 144 124 118 118 120 109 103 103 92 94 86 93 90 77 89 94 100 105 107 100 102 108 112 125 130 127 139 139 141 135 125 112 107 112 111 109 105 107 100 96 96 94 95 99 92 105 104 107 116 121 123 132 155 162 198 224 223 193 175 142 109 105 105 97 98 94 74 68 52 47 61 69 144 150 141 132 140 137 121 132 145 146 130 135 145 158 161 163 156 162 160 163 153 139 120 123 120 117 110 100 101 101 90 90 91 80 83 102 100 114 110 107 110 112 117 122 119 122 135 139 143 139 133 127 118 113 118 114 111 111 104 96 99 101 98 96 96 102 108 115 116 134 131 142 151 173 195 241 212 185 169 126 109 102 108 101 98 106 91 69 61 57 48 59 152 154 145 133 147 151 131 143 153 149 144 142 151 163 154 140 148 161 154 153 154 141 122 121 125 124 119 107 99 92 95 96 94 99 99 116 121 125 121 122 118 122 124 131 130 141 147 142 141 139 133 122 117 118 124 122 123 115 105 109 100 104 112 109 98 103 110 116 122 142 139 144 158 180 196 233 197 181 148 127 111 109 107 111 105 105 107 97 68 72 60 56 158 160 153 135 158 155 139 152 155 165 161 155 158 154 144 131 146 157 143 147 150 130 127 130 121 119 122 118 111 99 93 98 108 117 132 138 145 144 142 131 134 137 133 137 131 134 133 133 126 120 117 112 110 120 119 117 118 111 114 102 101 105 125 112 97 108 117 129 134 149 141 149 169 177 194 214 187 169 134 111 117 111 106 119 115 112 106 105 104 83 80 66 166 166 157 140 164 156 151 159 170 180 170 165 152 142 133 134 138 151 143 134 145 132 126 140 129 117 126 124 123 117 109 103 115 128 142 152 153 157 152 148 148 145 142 140 139 137 132 128 125 117 110 110 107 114 111 112 110 105 106 107 109 104 112 107 99 112 127 138 137 151 145 144 182 164 188 197 169 153 129 118 110 113 109 118 117 119 110 106 111 111 96 88 176 169 157 152 163 161 163 175 185 187 185 172 151 132 125 131 147 145 141 135 129 125 124 125 127 128 129 126 127 124 124 121 124 129 138 145 145 149 149 150 148 146 142 140 143 133 126 125 125 117 117 110 109 107 108 96 103 104 105 104 109 102 102 109 108 121 137 144 139 151 133 152 177 163 181 186 150 151 119 114 113 107 114 115 118 123 117 109 112 114 112 100 186 170 164 156 166 170 164 189 201 203 185 174 146 128 123 124 143 155 130 132 115 102 119 117 123 129 127 128 119 123 118 118 121 127 136 140 149 147 145 147 151 143 140 136 138 133 129 128 125 120 118 112 112 109 98 99 92 106 107 101 100 95 99 106 119 132 138 150 148 143 125 161 173 162 172 171 144 139 110 111 114 102 110 117 115 123 118 113 114 115 112 114 181 170 164 161 172 172 169 202 212 197 185 160 138 127 119 115 137 156 137 120 106 99 106 109 119 124 128 126 121 111 105 101 105 117 126 133 135 136 136 135 139 137 137 134 134 130 130 130 127 124 122 118 114 104 99 90 91 97 97 100 101 101 107 113 133 133 142 147 145 138 116 158 174 158 148 154 140 135 100 104 114 106 105 113 120 120 114 120 119 112 110 117 182 175 173 172 180 172 181 218 227 195 172 136 128 113 112 108 129 141 137 119 100 97 97 94 111 116 126 123 125 112 101 92 89 97 105 108 111 117 117 133 132 133 135 132 132 129 131 131 128 122 119 110 101 94 97 96 99 93 94 92 105 106 117 125 136 133 134 140 128 130 113 160 176 158 150 140 126 123 109 96 98 106 108 112 117 120 119 116 126 115 115 114 194 179 175 177 183 178 201 236 226 190 142 119 105 105 105 105 112 126 119 117 108 96 100 93 97 112 116 119 121 116 97 83 81 80 84 85 83 88 89 103 112 112 127 126 130 129 125 131 129 117 113 106 98 99 99 98 90 85 81 89 103 108 115 132 129 124 131 126 125 125 123 163 164 155 152 147 108 117 105 101 88 99 112 110 118 123 123 125 124 120 121 118 191 176 188 188 190 190 212 237 208 181 129 102 91 85 106 110 96 109 107 121 117 102 101 94 89 103 110 111 115 117 103 83 77 71 69 64 67 64 64 68 79 85 90 97 100 98 94 99 106 102 97 99 91 89 93 83 81 84 76 80 101 109 107 128 114 118 124 111 123 124 122 173 154 151 139 157 121 116 99 101 90 96 101 115 111 121 125 128 122 124 120 118 190 190 200 194 199 202 204 229 200 174 116 80 75 88 94 105 102 89 98 127 127 113 100 101 93 93 92 101 99 109 105 92 80 68 65 66 57 51 39 43 51 52 60 62 67 72 67 73 77 88 81 82 83 86 80 80 80 87 82 76 98 115 115 114 110 107 109 105 114 117 118 174 155 151 143 131 112 121 105 102 96 92 97 114 110 121 126 131 124 123 124 123 203 201 213 203 200 195 202 212 190 156 105 62 69 80 82 97 101 89 89 118 132 117 109 95 98 88 87 87 92 101 98 98 86 69 56 63 52 43 29 24 30 28 30 28 37 45 48 63 64 76 70 63 77 75 74 67 71 73 78 80 94 117 103 98 101 88 99 99 112 116 122 175 166 146 142 118 100 123 103 105 94 106 90 103 110 114 130 134 127 123 123 123 224 214 215 205 203 202 193 187 167 125 85 67 63 60 82 90 96 94 90 98 131 124 113 107 93 89 86 85 93 97 98 90 89 74 56 55 48 50 41 28 25 25 22 25 25 32 46 67 62 68 65 53 60 70 68 62 72 76 75 93 108 103 89 93 85 82 90 94 109 112 134 179 164 139 132 113 96 124 104 105 93 108 95 98 108 114 126 128 125 122 120 123 210 207 216 207 197 185 168 162 146 85 68 64 59 54 81 91 89 87 88 97 112 132 121 116 100 91 84 84 85 90 95 87 86 89 74 64 60 52 47 39 36 31 33 38 36 43 57 61 51 59 52 52 52 67 69 62 82 93 88 106 101 90 92 81 71 73 77 79 103 106 126 170 168 133 113 109 87 123 120 95 98 101 94 90 102 117 124 126 123 120 118 117 201 199 190 186 185 167 137 143 124 76 65 56 65 66 80 85 76 76 78 99 93 117 117 122 105 101 90 86 84 82 89 87 90 86 95 91 84 67 67 57 56 59 60 56 55 59 67 63 58 57 65 66 73 77 76 80 97 103 98 92 91 85 84 73 72 69 76 90 99 112 116 159 151 132 98 105 71 107 131 115 90 97 100 95 101 121 127 126 129 128 121 116 184 177 174 169 163 144 114 100 103 85 83 55 70 72 70 73 63 71 66 100 93 100 108 110 119 103 96 88 82 78 82 87 90 88 93 92 87 96 92 84 86 82 86 85 84 79 76 72 75 77 89 90 97 105 107 96 93 97 89 85 88 81 81 77 70 68 79 85 98 111 116 149 133 122 100 98 71 89 120 131 104 79 94 101 101 112 128 124 135 135 132 126 159 153 154 138 144 122 91 88 99 96 85 58 65 68 50 65 58 56 62 96 95 86 97 100 122 118 102 92 88 75 76 83 86 80 83 84 85 83 84 86 92 96 106 107 107 112 104 104 108 99 101 100 101 102 90 91 89 89 88 86 86 85 80 71 65 67 78 76 94 103 129 148 127 108 99 109 77 86 105 117 120 100 72 98 101 108 118 121 128 134 136 130 144 135 127 121 117 103 95 101 94 112 75 66 70 79 45 59 67 45 61 92 92 84 85 97 105 120 106 98 93 82 77 74 81 81 76 77 78 76 75 75 71 81 81 90 96 96 98 92 98 93 94 94 93 91 93 87 88 87 84 87 88 80 79 67 62 75 72 77 90 100 124 137 133 94 95 119 83 88 98 109 105 108 80 89 96 101 110 127 123 128 128 131 