P2
92
112
255
70 71 70 71 72 74 76 76 75 81 81 82 90 95 97 101 105 102 105 102 98 95 97 97 94 85 75 66 64 76 80 86 81 79 87 94 101 99 106 108 105 103 99 104 104 99 107 109 116 128 133 131 136 134 127 123 117 127 120 112 107 108 108 107 97 106 102 92 91 92 98 99 97 89 85 85 84 78 79 78 81 78 81 78 81 79 83 83 82 82 82 80 70 71 69 71 72 72 78 78 80 84 88 92 95 100 101 104 105 102 99 95 91 91 92 80 79 73 69 74 76 77 80 78 77 77 83 95 102 98 102 99 94 86 104 106 109 110 111 112 132 140 142 149 153 145 141 138 136 134 133 118 112 111 108 104 104 98 100 95 96 88 94 96 99 96 86 85 82 80 79 79 79 77 80 79 80 80 80 84 80 82 82 82 70 71 69 71 74 74 76 82 85 89 94 98 101 101 103 103 100 98 93 91 86 89 81 70 79 81 80 76 71 71 74 76 73 73 83 92 91 88 93 90 88 93 111 110 115 112 115 128 141 132 136 152 155 151 146 141 148 151 150 136 125 117 111 113 113 99 97 97 94 90 92 97 99 98 97 88 81 80 77 77 76 78 75 80 78 78 79 80 81 79 80 82 72 70 71 72 75 76 79 85 91 97 102 104 105 103 100 98 96 94 91 82 78 71 77 85 84 83 74 75 68 69 70 60 62 75 81 88 82 83 91 96 95 101 111 115 105 105 117 129 141 131 135 155 152 156 148 146 153 159 158 149 143 136 124 118 114 109 101 97 90 87 88 91 96 103 104 99 95 80 79 75 77 76 75 75 77 79 78 80 81 80 80 81 71 71 71 70 75 82 87 91 93 97 103 104 103 102 98 97 93 91 86 74 71 76 81 85 84 84 78 67 63 57 63 57 67 64 81 84 83 86 99 102 93 96 104 107 94 100 117 132 147 131 139 152 151 156 155 153 163 159 163 156 154 147 144 133 128 123 116 104 93 90 88 92 90 96 101 105 103 95 83 76 77 75 76 73 76 73 77 81 79 80 77 79 70 70 72 75 78 88 93 98 98 100 109 103 99 98 95 94 92 79 70 73 72 88 90 80 75 81 73 61 62 65 69 66 73 67 77 87 86 81 103 104 91 93 102 111 102 103 115 131 134 124 132 138 143 147 146 152 162 165 170 166 162 151 149 144 138 138 132 117 104 96 92 91 98 96 93 101 109 102 92 81 79 75 77 75 74 75 72 77 75 82 78 79 72 70 73 78 86 92 96 102 103 109 106 98 95 98 95 92 77 76 69 79 91 93 82 70 71 70 71 63 65 74 70 77 70 75 85 82 91 88 108 107 88 90 103 116 112 107 113 117 122 118 122 129 136 141 141 143 153 158 163 164 163 162 155 158 146 149 140 136 124 120 110 102 105 101 95 95 106 104 98 96 83 77 74 73 75 73 71 72 74 78 77 77 73 69 82 85 90 96 100 102 110 110 97 92 91 95 88 75 73 86 90 90 87 79 68 68 75 71 74 79 79 80 74 85 79 80 90 92 86 89 99 100 87 87 100 111 109 99 98 110 107 109 116 125 136 134 132 139 143 146 151 161 165 163 156 154 154 147 142 138 131 130 132 117 111 103 97 94 102 102 102 98 95 76 72 71 71 67 71 69 74 74 77 78 70 74 85 90 95 99 103 107 107 100 91 88 89 86 82 78 91 97 99 91 84 74 65 69 79 76 80 84 90 88 83 81 86 86 91 94 86 85 88 89 83 87 99 102 101 90 86 97 102 103 112 115 123 121 121 128 134 142 138 145 144 148 147 153 147 143 141 137 134 132 135 126 117 117 108 101 96 100 99 102 94 85 69 68 68 67 66 69 70 75 74 79 71 80 91 95 100 104 106 102 95 93 86 85 81 76 81 90 101 101 98 89 82 78 78 82 83 80 88 91 94 88 84 87 79 77 90 88 84 79 78 78 79 84 91 94 96 92 89 89 92 92 94 101 106 104 111 113 123 128 130 131 137 134 139 129 133 127 131 128 129 120 125 125 124 120 114 105 91 90 95 93 91 89 77 65 63 68 66 70 73 71 76 75 79 90 97 100 105 106 106 96 86 85 80 83 83 82 94 100 94 93 83 73 74 77 81 82 79 85 90 90 92 84 80 82 78 74 81 84 76 75 75 78 80 85 92 94 90 95 93 86 81 86 87 93 101 102 113 114 111 120 123 122 122 123 128 125 123 121 122 123 126 120 116 119 125 124 115 110 94 86 90 88 88 89 91 72 62 66 66 68 73 71 71 75 84 95 100 105 105 101 99 90 84 80 81 73 79 90 101 102 91 85 76 73 79 86 95 96 88 90 89 88 83 77 72 76 71 70 67 66 59 63 66 61 63 66 83 90 84 89 88 84 78 82 88 91 92 92 93 103 94 105 111 120 122 123 119 121 121 121 117 118 109 111 119 111 111 120 113 113 99 86 87 83 84 86 90 85 66 60 64 64 65 69 70 73 90 100 106 104 105 100 96 91 82 81 81 80 90 99 98 95 82 76 73 71 87 92 98 100 97 93 89 83 70 67 64 64 58 51 48 51 44 47 50 42 40 47 59 68 69 74 77 78 77 81 85 84 84 83 87 90 91 99 105 113 120 118 118 121 121 114 109 110 105 106 112 113 106 112 110 102 115 97 81 82 79 81 78 78 81 66 60 60 57 64 67 72 97 107 108 104 100 98 93 87 72 73 78 88 98 101 94 89 83 77 76 87 102 102 91 93 90 85 79 72 60 53 55 49 41 36 35 34 29 27 35 32 31 34 42 46 50 55 65 67 70 71 75 72 76 73 79 85 85 87 94 101 105 110 111 117 117 113 110 105 106 104 109 107 106 98 107 104 102 102 84 86 85 73 73 69 69 76 63 60 56 58 64 68 103 104 104 103 93 90 82 73 73 75 85 91 107 94 79 78 74 71 87 105 110 99 96 87 76 66 65 59 49 40 40 36 26 24 23 17 11 11 14 22 23 28 33 46 47 53 62 60 64 69 72 73 72 69 69 74 76 72 83 94 96 100 106 105 105 103 98 96 102 101 102 109 103 101 102 95 98 89 99 82 92 85 70 68 69 66 64 59 59 56 60 65 107 106 104 95 92 80 69 69 71 69 77 91 94 77 75 75 72 76 94 109 101 99 90 74 69 64 50 45 39 35 31 25 20 18 15 10 0 1 11 19 26 38 43 52 47 56 65 63 61 74 77 75 76 69 65 66 68 67 75 82 88 93 98 97 99 99 98 95 96 92 107 109 104 104 101 87 92 84 88 88 83 83 77 61 66 64 64 63 53 62 59 60 109 108 102 92 79 73 69 72 66 74 85 88 76 66 65 71 76 88 102 103 102 93 79 62 59 57 45 41 37 30 26 21 20 12 14 11 10 22 22 36 44 45 49 56 58 68 69 73 79 83 86 84 84 83 78 69 74 72 77 82 87 89 95 99 97 92 98 92 92 94 98 101 107 106 93 88 89 89 77 84 81 83 82 61 53 60 62 69 62 60 61 65 107 107 89 86 73 65 65 59 64 78 87 75 58 65 74 74 78 96 105 102 93 81 70 59 58 51 52 42 36 32 28 20 21 18 17 28 33 39 37 46 57 57 59 65 66 77 84 83 90 91 91 91 94 93 87 84 82 81 85 85 88 91 88 97 87 85 91 92 91 91 95 99 99 103 96 94 85 74 85 82 79 85 94 65 46 51 64 66 73 66 60 63 102 91 82 77 61 53 53 57 66 81 85 76 69 73 76 77 89 99 102 96 82 71 65 61 59 57 50 38 32 35 42 36 33 27 36 48 54 53 55 60 65 70 70 73 76 86 87 90 95 97 98 100 103 100 94 91 87 91 90 90 90 91 87 89 88 90 83 87 91 87 88 92 89 96 94 96 89 69 73 83 82 85 85 74 46 45 54 64 72 74 64 59 89 79 75 73 58 53 58 57 65 78 85 81 77 84 85 89 96 100 97 87 77 72 66 62 64 56 52 39 43 48 55 49 41 45 55 64 67 72 78 80 83 84 85 88 90 91 96 92 99 101 100 103 105 103 101 96 94 92 93 91 92 90 89 92 90 92 92 88 85 90 83 85 84 94 90 81 87 80 67 72 76 82 80 75 62 52 50 55 67 75 76 60 84 77 83 75 60 53 54 59 71 81 77 79 79 85 92 94 103 105 94 78 69 68 66 61 59 54 58 53 57 58 63 59 56 67 79 82 85 87 93 95 99 100 96 100 100 101 101 99 102 105 106 104 108 107 108 103 93 91 91 87 88 89 87 91 93 90 93 90 85 88 86 78 80 83 87 78 77 80 70 65 75 75 80 74 67 58 56 53 57 69 77 70 85 84 86 67 57 52 61 67 69 76 77 84 83 91 91 100 106 98 86 72 65 62 64 52 55 61 65 69 66 70 76 76 84 89 96 95 95 97 99 101 106 109 111 109 110 109 107 109 104 103 107 106 105 106 104 100 91 90 90 86 86 87 86 89 95 87 95 95 92 86 89 85 79 81 88 82 77 75 75 67 64 69 76 78 75 62 58 57 59 63 77 79 78 82 73 55 52 50 58 59 68 74 83 85 87 90 93 97 98 85 71 61 58 56 54 57 67 77 74 79 79 86 93 100 105 106 107 107 105 103 110 107 111 114 114 114 116 113 112 113 111 104 108 109 102 104 95 90 86 83 81 74 70 76 76 83 87 88 86 89 97 95 89 87 80 75 84 84 71 70 74 75 64 68 67 66 73 71 65 56 59 67 72 82 81 77 58 51 47 47 49 61 69 76 82 76 85 84 90 95 79 66 58 54 50 43 60 70 80 85 82 88 99 106 110 116 116 116 121 121 115 110 112 112 113 116 114 113 116 118 116 115 112 105 104 98 93 90 86 83 82 80 76 71 61 62 65 72 77 78 81 86 91 95 96 87 79 75 82 82 74 65 67 63 68 65 68 57 66 70 73 60 49 65 73 83 78 65 54 57 50 57 69 77 73 67 73 74 82 79 81 77 54 49 59 51 38 49 63 73 81 88 97 113 113 119 128 127 126 125 124 125 121 117 115 116 116 117 118 117 117 117 113 113 110 106 103 93 88 84 81 76 79 75 76 73 65 57 56 61 68 72 74 79 86 94 92 93 82 71 74 75 74 65 61 63 70 59 54 61 58 67 69 67 55 60 69 84 76 61 67 69 65 69 78 71 62 60 62 72 74 80 76 58 49 54 57 42 43 64 74 79 90 105 118 123 125 128 135 135 131 127 128 127 127 120 121 118 114 119 117 116 116 115 112 112 109 107 99 94 86 82 84 74 73 69 70 72 66 57 54 52 54 63 69 69 77 90 88 93 80 77 69 70 67 66 56 60 58 67 53 55 54 66 68 69 57 59 68 72 68 67 84 75 76 85 78 75 69 61 65 72 75 85 70 55 54 52 49 52 69 81 86 96 109 125 130 124 132 132 135 138 134 131 128 129 129 123 122 120 119 116 116 117 111 113 107 109 103 103 95 92 87 86 80 76 73 72 66 65 59 54 51 51 47 57 60 65 68 75 82 86 85 80 76 66 65 66 70 62 55 54 64 46 44 56 76 67 58 59 76 76 69 71 81 75 84 82 80 76 71 68 74 74 72 74 62 52 50 48 56 74 76 92 98 113 127 132 130 132 134 138 137 134 131 133 131 132 130 125 121 122 121 117 112 113 110 108 106 106 101 95 92 84 83 79 75 74 72 71 67 63 60 52 46 45 46 48 54 57 56 60 70 81 80 83 81 70 63 64 68 67 60 53 51 54 43 52 72 69 63 62 74 81 62 75 80 73 80 85 85 74 67 71 76 67 63 64 57 47 46 56 69 85 87 102 114 127 129 128 136 140 144 142 136 133 131 134 136 135 134 129 128 127 126 121 120 115 115 109 112 105 101 95 97 88 86 78 77 73 69 67 64 58 52 48 41 40 38 40 43 46 47 51 58 68 76 82 81 76 63 65 65 72 58 64 60 53 47 52 66 63 65 65 70 81 70 80 76 66 74 86 78 68 72 79 70 63 68 64 55 46 55 72 80 86 100 115 127 131 127 134 141 143 141 137 140 140 138 142 142 139 134 130 132 126 126 121 121 119 116 110 111 108 99 95 95 90 82 79 72 71 70 68 68 66 60 55 48 41 40 41 41 42 43 44 49 57 69 76 77 78 63 63 66 75 66 59 59 48 40 52 73 75 66 64 68 75 73 72 68 69 83 84 81 75 78 80 68 65 69 55 51 49 73 80 83 96 110 123 130 137 133 139 145 146 140 140 145 146 144 144 140 140 134 132 129 126 123 121 121 121 115 111 111 106 101 97 90 88 84 80 76 76 73 74 72 72 68 67 61 58 54 49 40 39 41 40 44 51 57 75 77 73 71 60 63 75 73 63 50 55 41 41 70 80 75 69 65 69 82 69 73 80 85 79 78 73 77 72 61 58 57 47 50 66 82 85 93 107 121 134 141 141 143 148 151 152 149 144 148 148 145 140 136 134 132 129 130 128 121 121 117 120 114 111 108 105 103 99 95 89 87 85 83 82 83 87 85 83 82 80 76 71 69 60 53 41 40 34 42 46 55 65 79 74 69 68 60 73 81 74 56 51 45 39 63 73 74 80 74 66 81 73 74 77 75 78 74 71 75 76 55 47 44 46 61 79 86 92 107 120 132 137 148 146 152 151 152 152 147 142 137 138 133 131 128 126 126 125 127 127 124 121 118 118 109 106 107 104 105 103 97 94 91 91 90 89 92 94 94 94 93 92 89 84 80 71 66 56 47 36 38 43 53 59 78 74 74 66 65 64 80 88 70 46 43 46 63 76 80 84 81 69 78 75 77 73 74 69 73 73 78 78 52 44 44 55 75 87 91 109 121 134 139 142 151 148 155 156 156 152 144 140 136 134 134 130 127 128 126 124 123 125 125 123 120 116 108 108 106 106 104 104 100 94 93 94 94 95 95 99 97 99 99 97 92 89 86 78 74 68 57 50 36 43 46 60 71 81 76 75 66 70 78 83 84 54 35 51 65 84 96 90 81 76 80 75 75 69 70 66 71 75 77 72 53 43 53 69 87 88 97 115 129 130 131 148 156 158 159 161 157 155 153 148 147 145 141 140 136 134 130 126 128 127 127 123 121 116 110 111 109 106 103 106 100 95 92 95 96 96 101 100 100 101 100 97 93 89 83 76 73 69 63 57 51 42 44 57 66 74 83 81 68 73 82 82 82 65 49 46 72 89 99 92 93 86 84 71 64 63 63 73 70 71 74 71 53 48 58 80 86 92 108 123 128 121 132 147 156 153 153 152 153 157 154 153 150 146 143 141 137 132 126 118 116 121 119 120 116 114 111 111 107 104 100 104 97 95 93 98 100 101 103 101 100 100 97 93 93 88 78 73 71 68 64 56 57 52 37 44 61 67 73 84 78 68 90 83 77 60 66 58 73 99 108 102 98 93 87 64 63 63 70 75 70 64 74 64 49 45 66 84 87 98 113 117 117 120 135 149 154 142 146 144 144 147 144 141 143 137 135 128 128 122 118 112 106 104 108 107 105 99 105 105 102 97 96 102 94 93 95 99 100 100 99 97 94 95 88 87 87 83 72 69 67 59 55 52 47 53 37 35 46 65 74 77 85 74 85 91 80 56 62 68 81 96 115 113 105 98 76 66 65 74 76 75 66 65 75 55 47 48 70 87 92 102 110 109 109 119 133 139 139 136 142 138 134 132 132 124 127 130 130 123 121 114 111 105 101 98 98 96 93 84 88 90 85 84 86 89 87 90 92 95 96 99 102 100 91 92 85 83 80 79 72 67 62 55 52 52 44 51 47 38 35 56 73 83 86 79 86 87 81 61 57 66 93 99 110 114 116 105 82 74 68 70 80 72 63 68 75 56 43 50 73 85 96 100 102 105 107 112 126 126 134 127 128 125 123 125 121 115 117 121 125 118 116 112 110 104 102 96 91 87 84 80 78 79 80 79 80 87 86 94 97 97 97 101 101 98 96 94 87 82 81 80 75 70 67 59 54 49 50 48 56 51 40 45 63 83 90 85 86 89 73 67 57 65 88 99 119 117 110 105 87 80 68 82 83 73 63 73 80 55 40 52 69 78 94 99 95 95 99 101 113 120 122 114 113 115 116 115 115 111 113 118 118 119 116 113 110 104 101 98 91 88 84 78 78 78 84 82 81 92 92 96 99 100 101 100 99 92 90 89 88 86 80 84 79 77 73 66 63 52 56 53 56 60 48 51 59 71 90 90 87 99 75 64 65 60 89 101 107 123 113 107 98 87 78 84 87 83 70 77 77 50 33 50 70 80 94 102 88 85 85 94 103 102 102 106 110 107 114 110 111 111 115 117 121 121 122 119 119 115 111 106 98 95 89 82 81 82 87 85 86 95 96 97 99 99 99 97 94 92 89 88 91 90 83 80 80 86 84 78 75 64 61 58 52 63 45 51 61 57 81 92 87 93 78 66 71 61 79 96 109 118 115 108 118 110 88 96 90 90 79 85 79 44 31 64 70 77 90 84 67 67 62 77 85 88 98 97 104 104 111 111 111 113 118 125 124 126 126 126 124 121 118 116 116 108 95 92 84 84 89 88 92 95 96 99 98 94 90 91 91 90 87 89 89 82 78 76 76 71 78 79 74 71 66 64 59 72 64 51 69 54 70 90 95 80 75 75 69 69 87 103 121 123 105 121 127 118 106 99 99 96 80 94 73 45 46 62 72 85 98 84 80 78 80 95 104 106 108 108 110 106 109 106 109 112 113 112 113 112 118 121 118 116 118 116 123 112 95 91 84 81 85 91 90 92 90 93 91 85 83 82 77 72 73 74 68 69 64 65 64 62 66 75 69 72 74 74 73 83 89 63 80 58 74 92 87 89 75 79 75 80 101 121 120 135 108 121 121 105 103 105 105 111 97 93 64 46 51 67 83 92 79 70 59 51 73 85 91 94 95 97 93 91 93 95 93 99 100 98 100 104 108 108 103 101 104 105 109 108 87 79 72 70 76 82 83 87 84 87 84 80 73 72 70 67 65 65 65 61 61 63 64 61 68 72 75 82 83 78 84 85 100 73 81 76 81 89 84 80 75 85 77 96 118 136 128 138 127 125 113 93 108 127 135 138 113 92 63 44 50 68 72 68 65 62 43 57 86 89 92 95 95 96 103 107 113 114 111 104 94 99 90 92 93 93 93 93 91 104 112 109 93 95 84 86 92 90 89 88 87 87 82 80 79 79 79 80 79 76 76 75 73 77 71 65 72 71 72 75 80 87 88 95 112 100 99 91 92 99 78 71 78 90 80 110 137 141 139 153 144 128 104 101 121 144 154 150 127 90 61 27 41 66 60 59 67 51 54 80 100 98 95 98 89 99 117 127 120 119 105 99 99 101 100 106 94 95 97 88 92 92 102 122 104 95 93 88 100 104 99 99 96 88 88 88 91 93 96 93 97 91 94 89 91 89 83 75 92 90 90 86 72 84 89 89 110 110 99 109 94 102 82 75 86 92 96 121 142 141 144 147 153 138 107 117 128 162 164 159 147 87 54 25 33 58 54 60 55 54 62 86 105 111 111 113 109 110 123 129 123 121 112 107 109 111 104 110 99 102 108 100 88 85 100 113 101 85 79 76 89 99 106 109 106 101 100 105 105 102 105 105 114 104 103 101 111 107 103 108 112 112 107 110 92 83 93 92 98 111 101 97 88 88 76 75 92 108 119 133 144 147 157 151 156 138 111 129 140 168 164 151 164 100 66 34 44 55 54 44 48 54 86 97 119 128 134 128 123 134 154 155 148 143 127 123 124 125 121 109 110 118 115 107 97 97 86 90 86 81 75 69 77 92 101 108 115 102 112 111 113 119 115 118 120 122 117 119 123 123 123 135 133 138 136 140 134 98 97 103 105 115 107 96 94 87 72 71 88 130 146 149 160 158 164 160 163 132 113 139 144 171 159 145 148 99 65 38 51 66 55 44 53 62 105 115 126 141 137 136 134 143 155 170 144 137 133 135 127 126 123 110 113 122 120 111 102 96 88 76 89 94 85 76 80 86 97 108 107 99 104 104 114 122 118 129 124 123 122 120 113 123 127 143 135 129 149 150 150 129 116 101 101 113 121 95 104 91 82 84 91 138 164 162 175 174 169 151 159 128 122 135 140 164 152 145 128 104 57 40 49 72 63 40 52 81 114 130 124 136 124 129 138 129 129 134 126 117 130 132 138 122 117 97 107 116 114 99 105 88 88 79 89 98 70 75 79 86 102 108 114 92 100 101 107 106 112 105 109 116 117 111 111 119 135 117 121 130 130 135 141 142 138 113 100 119 130 110 101 103 89 101 104 155 170 180 180 179 172 160 155 126 127 138 128 160 151 143 105 105 58 45 48 77 63 57 57 97 128 120 128 126 124 151 136 126 144 128 123 113 126 126 138 137 120 103 120 115 111 96 93 91 89 84 90 89 75 77 81 85 95 110 113 93 94 101 104 100 103 101 102 97 102 98 92 122 114 101 102 112 110 114 136 144 141 121 117 117 130 123 111 101 91 106 120 170 179 189 183 174 174 167 149 114 129 140 132 134 132 130 79 82 46 40 57 84 72 62 61 93 116 107 112 96 119 134 116 135 149 138 118 123 139 125 136 154 132 120 122 117 114 112 90 87 84 84 74 80 76 82 84 78 86 94 95 89 88 96 94 85 80 91 102 90 114 112 89 105 118 121 119 89 102 94 112 150 156 129 131 137 123 121 123 103 92 113 128 168 186 208 195 190 175 170 141 107 133 140 147 132 125 114 74 67 52 46 67 94 82 78 91 94 115 94 104 103 91 104 111 123 141 132 127 119 138 135 130 142 136 119 123 122 105 112 87 72 67 78 79 73 82 94 93 83 84 89 87 85 88 94 96 90 88 94 105 101 114 109 98 84 91 111 94 99 80 97 104 137 160 141 129 140 131 124 114 109 101 123 137 179 192 204 198 197 188 162 135 105 119 133 144 136 129 109 74 58 52 50 86 106 84 94 107 109 96 96 105 76 94 112 111 105 128 134 132 132 123 122 132 128 128 116 117 110 103 108 96 89 74 83 86 80 82 86 86 85 84 83 83 80 89 80 90 89 85 89 91 111 123 112 115 107 109 106 96 121 107 96 117 127 148 143 133 139 132 130 118 112 104 117 142 177 182 185 182 189 181 146 115 108 112 122 126 143 122 101 76 55 54 46 83 114 94 96 114 104 103 110 105 99 107 117 113 104 96 104 118 124 130 122 130 117 108 108 103 85 74 75 69 60 70 71 75 86 92 88 81 78 82 81 102 89 98 87 101 86 89 79 91 109 108 102 114 115 122 105 98 121 131 117 126 131 132 140 130 137 128 132 125 115 113 121 139 156 169 176 175 187 174 137 100 105 106 114 116 132 122 103 90 68 61 43 70 116 104 100 117 100 100 95 100 98 98 95 90 73 75 82 102 111 134 140 118 108 111 109 91 79 82 75 75 78 84 73 67 84 82 73 76 78 74 81 101 95 101 106 104 89 91 88 92 105 106 110 121 127 129 132 115 121 127 137 136 129 126 137 134 151 134 124 132 115 108 121 122 147 168 172 172 188 160 121 93 98 104 113 114 109 120 118 109 81 75 46 62 116 105 104 110 114 107 106 112 105 94 94 93 79 80 83 101 122 122 116 98 92 99 105 91 83 92 89 82 82 80 92 83 83 83 75 84 66 68 79 95 119 99 115 99 91 80 83 77 97 109 121 117 120 114 112 120 114 126 143 141 141 137 132 128 154 137 112 119 114 105 123 116 147 160 173 184 174 148 115 87 95 102 120 123 102 120 141 123 103 90 60 60 115 106 103 121 121 120 122 128 119 103 110 109 103 106 110 115 126 120 107 99 96 96 97 94 90 90 92 91 97 90 102 89 85 81 78 76 66 62 82 100 123 110 109 116 100 77 79 79 80 102 107 108 103 108 108 113 119 125 140 148 137 142 138 128 148 131 107 116 113 104 131 113 146 148 166 168 153 129 109 95 86 103 134 127 98 131 146 125 90 104 87 61 111 110 112 128 125 126 140 143 142 126 117 119 116 118 123 125 126 121 116 108 102 99 103 106 94 110 108 100 102 100 108 96 85 68 69 66 70 70 80 102 117 124 111 140 132 101 85 89 83 91 98 92 96 99 112 108 123 128 134 140 138 136 135 128 127 128 101 112 102 99 129 107 134 141 146 158 138 127 101 98 83 111 153 142 97 120 152 119 87 99 96 53 101 111 117 125 121 123 135 141 144 135 124 125 119 121 120 122 126 121 119 115 110 118 116 105 102 111 109 106 99 101 98 91 84 68 53 60 56 61 76 88 94 115 112 117 135 120 93 95 86 87 90 90 95 103 105 109 117 123 129 125 123 129 122 117 108 117 100 105 96 88 106 106 125 125 124 148 140 115 94 94 84 105 175 170 111 129 169 151 88 104 80 60 88 101 115 126 120 131 129 136 141 141 129 124 126 121 117 117 120 122 119 124 124 120 118 120 125 129 121 109 105 90 78 86 76 59 55 55 56 60 70 71 87 108 119 120 121 127 99 103 87 88 92 91 95 95 99 104 108 114 110 109 116 118 110 99 95 103 96 95 95 83 105 106 101 112 116 139 148 107 84 95 85 108 198 187 113 114 176 174 98 86 86 56 100 93 108 117 123 136 124 134 138 143 137 126 125 125 121 124 130 137 139 139 134 130 129 146 139 133 123 110 103 77 72 75 70 58 54 56 47 54 61 67 84 99 114 128 121 103 94 90 94 86 80 84 90 87 93 97 98 101 100 105 113 107 101 87 85 94 87 97 90 85 104 86 81 100 98 119 144 101 76 97 80 107 212 190 114 105 168 191 125 81 73 74 96 87 106 115 117 126 133 134 138 144 139 145 138 138 138 145 151 155 154 144 139 133 136 142 131 125 119 105 89 85 77 71 77 75 62 51 51 47 66 72 85 90 107 117 116 97 80 80 87 87 85 76 83 87 91 95 98 97 92 101 105 104 96 83 82 85 87 93 96 89 107 67 66 91 79 117 139 92 73 96 77 117 220 195 118 121 171 189 136 92 71 68 81 95 97 121 125 117 135 138 148 139 143 149 148 144 139 142 153 153 145 136 139 139 138 137 118 120 110 80 78 79 82 75 84 73 56 53 50 50 63 70 81 87 100 109 110 106 85 87 80 88 88 83 84 79 88 94 87 94 86 96 97 103 95 79 72 79 79 86 105 106 112 73 69 80 76 111 122 79 73 89 72 129 226 233 141 155 174 194 142 95 76 66 68 83 94 118 126 118 119 127 134 135 141 147 150 142 137 139 148 149 143 139 142 136 127 124 117 111 84 60 69 74 76 83 84 79 60 57 53 52 57 75 68 77 88 102 116 101 88 84 87 83 77 85 80 81 83 78 81 91 89 88 95 97 90 77 72 72 87 82 113 104 109 87 80 72 87 109 97 61 74 86 70 137 215 255 162 176 167 189 144 87 91 63 64 74 79 105 116 125 116 123 131 130 132 137 137 140 135 138 149 147 134 128 127 118 120 112 100 88 75 56 65 83 78 75 84 81 68 62 57 52 66 78 67 73 84 95 115 109 105 85 90 87 67 67 75 82 75 77 82 79 83 84 82 79 84 66 64 69 87 80 95 106 120 107 83 75 84 112 84 51 67 82 73 136 175 247 177 180 167 166 149 83 92 63 57 63 80 103 117 118 120 119 127 128 129 131 128 132 132 138 144 142 126 123 124 108 97 94 87 69 58 55 61 76 76 70 82 92 78 71 61 55 70 71 75 75 94 93 103 102 100 93 80 81 69 59 63 70 67 75 76 82 83 77 86 82 78 63 67 79 75 73 84 102 147 119 97 77 82 110 79 45 70 77 70 127 139 241 181 177 190 156 157 104 89 58 45 63 87 103 112 113 117 119 127 126 126 138 132 138 140 142 137 134 127 116 105 97 91 85 82 63 59 57 63 75 85 82 82 93 93 81 67 58 76 80 90 94 100 92 94 97 101 93 79 79 78 72 70 64 65 66 65 68 68 73 74 85 75 66 69 74 70 66 77 100 138 123 113 85 92 102 73 41 69 69 74 106 132 218 189 178 206 156 153 112 81 62 41 54 85 97 110 110 117 118 126 128 129 128 125 126 131 128 119 119 113 101 91 92 81 67 69 62 68 70 69 76 83 84 82 89 93 86 79 72 85 88 99 99 99 95 93 95 104 97 83 86 84 81 71 66 71 68 68 66 66 70 71 80 77 71 70 81 69 62 83 101 128 116 128 121 104 92 69 35 72 71 73 84 112 197 191 186 205 171 146 122 69 49 50 47 80 88 102 109 111 118 125 128 130 126 124 124 129 124 118 114 113 97 92 91 80 65 68 69 76 88 80 89 87 88 89 99 100 92 83 82 99 106 104 102 102 107 108 107 116 98 89 93 93 87 77 73 74 69 66 72 65 67 76 72 73 80 86 85 74 70 90 110 116 124 145 137 95 89 62 37 71 72 75 74 86 161 187 185 198 187 142 133 72 38 48 43 69 85 89 104 113 125 129 133 131 127 127 130 129 125 118 105 103 87 81 86 85 82 75 87 92 94 91 92 94 89 93 107 102 95 91 98 108 116 107 106 116 115 116 108 114 107 96 97 99 96 87 80 76 77 68 66 70 68 78 68 70 79 87 82 78 92 102 120 114 123 153 128 83 85 53 36 69 74 69 81 73 117 179 175 190 181 134 135 87 45 40 44 69 79 78 100 109 126 128 131 131 130 129 136 132 123 114 109 102 90 86 82 88 78 86 100 105 98 99 97 94 89 92 105 105 93 93 92 102 108 98 108 111 107 109 103 108 107 96 93 96 97 89 93 84 81 71 69 78 79 87 80 70 80 87 82 94 105 109 123 121 121 141 103 74 78 45 40 69 69 62 79 78 89 151 166 180 151 133 127 88 48 34 42 66 72 70 103 115 127 128 133 135 140 136 144 133 112 113 106 100 97 103 98 87 87 105 98 98 100 86 93 94 83 92 99 105 92 87 88 93 98 102 103 105 100 102 108 114 107 97 89 92 89 89 87 90 83 76 74 84 86 93 86 76 84 91 83 101 116 114 124 111 115 115 88 76 65 37 43 63 61 60 81 86 79 116 163 168 146 120 128 95 52 40 46 57 66 73 101 115 126 132 131 141 142 137 139 125 114 120 116 102 109 106 94 77 86 101 101 88 91 84 83 85 84 82 91 91 91 77 79 85 91 94 95 101 99 99 108 112 107 104 84 86 81 81 76 84 87 81 83 90 91 101 90 85 88 96 93 109 123 118 113 100 114 88 63 66 49 32 41 63 56 59 77 86 76 95 135 169 137 110 110 101 51 44 50 42 67 77 93 113 126 135 138 138 141 139 137 120 111 116 114 105 107 97 76 75 85 82 82 88 83 83 73 79 72 76 78 77 74 71 73 79 86 86 94 101 97 99 104 100 103 100 84 76 71 74 74 77 83 90 95 101 96 106 102 94 97 101 102 114 116 104 96 90 96 57 47 56 40 27 38 60 55 57 83 77 79 84 116 157 140 94 95 94 35 33 54 46 60 64 90 119 127 129 134 138 136 137 139 123 117 117 109 95 87 79 66 64 72 69 70 81 78 82 78 80 80 75 73 71 67 60 65 69 74 77 89 95 96 99 93 84 90 87 77 70 70 66 77 76 84 87 101 96 95 108 106 94 102 101 100 111 110 96 82 75 66 43 49 58 43 18 33 57 58 62 75 76 77 81 111 126 146 100 83 79 15 19 42 42 52 63 78 107 122 120 134 144 140 141 141 125 119 108 101 82 67 56 50 46 44 54 58 65 70 77 76 80 88 94 92 87 79 75 68 65 72 69 84 82 83 91 85 79 80 78 75 67 67 69 76 88 95 91 103 104 95 96 108 99 102 103 97 110 103 87 62 57 45 39 50 56 33 18 34 54 58 60 64 69 79 87 97 120 115 98 81 70 13 21 33 40 42 70 76 102 118 124 132 143 142 138 143 135 122 110 85 60 58 49 43 40 41 47 52 64 68 77 83 85 90 95 95 88 82 82 72 76 79 69 76 74 77 82 76 85 78 73 73 72 68 76 82 99 108 101 106 111 96 96 108 102 108 106 96 109 89 79 58 40 30 42 60 48 24 16 39 46 57 53 60 66 77 88 91 118 108 84 89 70 17 25 36 39 37 55 66 92 112 124 134 143 151 143 147 143 126 104 72 52 50 45 44 38 35 43 53 71 68 74 87 95 93 91 82 77 72 73 72 69 67 68 66 73 73 72 71 75 83 76 71 71 73 77 81 100 123 105 107 109 93 104 102 102 109 100 92 109 78 70 55 29 32 56 63 41 23 21 42 46 48 47 61 67 81 89 88 107 119 88 94 81 34 37 38 44 34 46 61 75 113 129 144 143 152 144 153 153 126 93 72 51 47 48 46 38 36 40 58 70 79 88 93 101 103 93 78 77 80 83 77 79 78 73 69 70 69 67 69 75 77 72 78 72 76 72 80 95 117 112 107 114 92 99 98 104 103 95 93 107 73 67 51 31 50 68 49 33 28 29 38 41 39 50 61 73 81 89 100 107 109 114 84 68 30 35 35 33 26 36 56 74 111 126 146 148 154 149 158 158 133 100 87 67 58 57 53 45 40 47 55 70 81 93 94 106 113 105 95 90 94 95 91 97 96 88 85 82 76 74 78 75 71 70 86 84 75 79 79 98 114 113 111 109 97 104 97 104 99 88 96 96 68 77 57 52 65 55 37 40 38 30 35 42 31 38 58 73 78 86 104 100 116 104 90 57 38 24 29 22 24 33 47 72 108 128 147 158 151 154 157 157 126 104 90 71 57 49 49 49 48 51 56 60 72 88 86 92 102 107 106 102 100 94 95 99 99 96 94 92 91 84 78 70 67 76 83 84 88 93 83 102 111 112 115 104 100 100 104 104 97 80 101 89 75 88 65 59 64 43 42 46 35 32 29 37 35 30 65 68 68 88 98 98 110 113 98 55 47 29 25 17 21 33 49 77 98 128 144 145 149 148 146 133 102 75 61 59 51 42 40 36 40 43 49 52 63 79 97 91 99 108 114 107 99 97 99 100 100 98 97 102 94 86 70 68 69 76 89 96 109 105 98 99 106 105 107 104 97 94 99 103 94 79 103 91 78 87 71 65 62 43 39 34 38 35 27 30 38 33 63 62 76 84 91 95 111 112 108 63 47 36 28 22 19 28 52 77 86 131 139 130 142 135 130 108 83 64 55 47 46 37 39 38 45 45 54 54 51 70 87 85 91 99 95 102 93 91 95 87 83 84 86 92 85 83 78 85 88 84 101 103 113 108 100 95 101 96 97 102 94 92 96 99 91 76 97 76 75 83 67 64 54 47 36 34 40 43 29 27 38 35 63 68 77 80 86 101 111 109 111 77 50 45 28 30 23 35 53 72 84 122 132 123 130 118 106 93 63 61 53 43 39 37 33 41 53 57 55 65 81 78 89 90 84 103 91 91 84 73 73 74 74 83 92 96 90 93 94 100 105 102 104 102 110 107 100 80 90 85 88 92 97 90 91 94 80 80 83 74 70 68 61 68 60 52 37 32 42 53 34 20 35 41 70 72 76 75 86 102 108 107 117 93 59 51 37 32 29 38 38 77 86 103 122 116 115 110 95 84 40 52 48 52 54 50 44 52 70 77 80 97 109 113 109 109 112 117 114 110 100 86 79 81 90 97 101 111 118 114 113 108 113 110 107 112 119 111 93 83 79 77 87 83 88 91 89 91 69 78 76 64 66 67 65 70 62 57 43 34 45 55 43 24 27 40 72 71 70 77 89 101 97 100 114 105 76 55 48 39 39 42 47 78 72 95 115 103 107 100 91 73 43 50 52 54 66 65 66 75 96 104 110 125 115 131 126 124 127 120 107 101 106 94 101 98 105 114 114 118 122 107 108 107 110 114 106 97 110 97 77 70 61 62 68 79 79 87 82 86 69 74 67 57 61 66 63 67 67 58 49 38 43 58 49 30 23 30 69 67 71 81 94 98 80 94 106 109 92 54 54 40 47 47 48 71 76 89 96 92 98 89 78 68 44 45 40 44 42 47 70 92 102 91 110 118 97 116 114 113 105 102 88 92 92 89 96 97 107 119 119 115 120 97 96 92 95 98 88 75 70 65 54 58 38 46 57 67 79 78 77 81 77 74 60 52 62 64 60 65 66 58 51 51 42 57 52 33 24 22 65 69 77 88 98 84 69 91 98 106 99 63 53 45 46 56 56 70 78 84 92 83 91 85 77 66 40 45 34 46 48 59 78 95 103 92 81 94 83 102 94 105 96 84 62 53 53 57 61 72 77 87 94 91 101 89 85 71 72 78 68 64 53 52 52 56 43 45 52 73 79 71 72 77 76 68 56 58 65 61 59 66 70 56 53 46 49 48 59 37 23 23 70 80 83 97 94 70 66 84 89 104 109 74 62 55 50 71 61 74 88 83 96 81 90 93 83 70 50 54 40 56 68 75 80 90 94 93 76 79 79 88 81 80 82 59 53 49 45 45 50 52 55 62 66 71 85 81 77 72 68 70 68 57 50 48 49 45 47 52 55 70 81 70 70 79 72 65 52 59 62 63 59 70 72 59 58 46 47 47 59 50 26 22 82 86 88 97 80 64 68 77 92 102 112 84 68 61 53 70 64 70 86 87 95 89 94 96 83 78 61 60 55 61 84 88 81 96 99 101 94 97 104 100 85 78 71 64 56 56 61 57 57 62 61 63 77 79 92 87 87 78 74 74 67 55 42 41 39 37 39 50 55 70 76 69 75 79 66 65 54 62 61 65 61 74 73 68 57 55 46 48 62 59 34 26 86 88 94 84 72 67 69 77 91 102 113 86 71 69 56 65 54 60 77 79 79 91 90 86 91 76 62 66 69 78 94 99 99 110 119 115 121 120 119 111 101 99 94 87 88 79 88 84 79 81 80 69 79 87 90 94 95 89 82 78 65 56 45 33 38 41 42 46 61 69 71 69 78 71 66 69 60 64 65 63 66 73 77 72 63 56 55 49 59 65 49 34 83 88 86 77 70 65 74 75 91 110 104 92 76 70 61 63 44 51 69 72 68 80 91 72 74 81 66 57 70 73 78 81 88 100 115 112 123 123 120 116 114 113 112 111 110 100 98 98 99 96 91 90 90 92 97 93 98 95 88 74 59 50 37 34 36 42 40 50 60 68 65 76 71 62 74 81 71 67 68 70 70 71 75 73 71 54 59 53 51 62 58 46 90 88 79 77 72 75 73 81 92 110 108 89 74 70 69 54 42 50 61 77 60 73 82 75 67 73 68 63 66 62 72 65 65 70 90 99 107 110 108 110 113 114 113 115 112 106 104 109 107 103 104 102 103 101 95 96 97 92 80 69 53 43 36 28 32 35 39 52 59 66 66 77 63 55 74 86 82 75 72 78 74 73 71 70 74 65 59 56 55 53 58 58 89 83 80 79 84 83 73 83 97 114 104 85 81 75 65 47 43 55 53 73 67 56 84 73 71 67 62 68 61 66 73 58 62 75 93 90 87 92 95 99 104 106 107 102 102 99 92 96 102 101 101 103 100 100 88 91 88 73 63 55 40 29 29 28 30 36 42 53 63 64 67 73 62 56 81 88 80 82 80 83 81 77 67 68 75 73 71 57 59 57 54 57 82 85 82 85 93 87 70 87 106 111 105 90 85 82 53 45 40 58 55 68 73 67 76 83 76 78 71 72 73 68 71 67 69 73 82 70 77 75 84 88 93 93 92 87 87 84 84 85 87 87 87 93 89 87 77 77 70 61 55 39 30 23 27 28 33 35 44 60 63 67 65 70 72 53 88 86 83 80 90 87 92 82 73 66 75 80 81 70 67 67 63 60 83 88 87 89 100 87 68 91 112 121 109 97 90 70 40 39 42 61 63 60 74 75 65 78 87 87 96 82 87 84 78 77 78 80 78 73 78 76 75 81 81 80 79 80 83 78 77 79 80 80 82 82 77 68 63 56 53 50 36 26 18 19 24 29 31 36 49 62 66 60 69 73 76 68 81 84 80 79 96 98 90 82 77 70 72 84 87 82 84 73 74 67 92 92 92 99 104 90 76 98 120 128 111 100 77 53 30 34 49 67 69 62 71 80 71 67 80 93 91 94 92 97 90 85 81 84 86 87 84 81 78 83 81 82 82 83 79 79 76 72 73 74 74 74 68 62 55 52 43 38 24 19 19 21 20 21 31 37 53 67 70 67 71 82 94 77 85 89 82 75 101 104 95 79 78 74 73 77 84 87 92 89 82 80 96 94 90 107 107 92 94 106 128 131 112 96 63 41 22 32 57 63 75 68 68 90 81 84 76 88 84 97 92 100 94 95 86 84 87 86 90 78 83 86 84 85 85 85 78 77 74 70 69 65 64 59 52 50 43 39 30 24 18 20 16 22 19 22 36 47 69 70 73 73 81 91 107 79 94 91 91 81 93 103 98 79 79 80 76 74 77 88 94 92 92 87 92 95 96 110 108 99 100 112 130 134 102 91 53 33 17 36 62 63 75 68 72 95 86 90 79 83 88 90 99 97 103 98 92 85 88 92 82 80 83 87 85 86 81 79 73 73 69 68 64 56 54 45 40 33 28 23 16 19 16 15 17 14 24 30 44 64 74 78 85 84 89 106 105 83 97 99 86 89 98 99 95 84 80 85 81 78 72 87 100 98 93 93 91 97 101 113 113 102 103 112 130 128 98 74 51 23 12 46 55 58 73 69 75 83 91 89 90 86 91 93 94 95 99 101 93 85 82 83 81 81 84 83 83 82 73 72 69 65 61 59 56 49 45 38 32 21 19 14 13 15 14 20 17 27 31 45 65 75 81 88 95 89 102 116 110 88 92 98 90 85 99 100 94 87 87 89 89 78 79 79 97 100 99 95 92 100 107 113 115 101 105 110 131 123 89 56 44 16 19 65 50 47 71 66 73 87 88 87 102 93 90 92 86 85 93 92 87 82 80 80 75 75 77 76 76 73 70 65 61 61 57 51 51 42 40 32 26 18 19 15 13 16 17 22 25 38 45 62 72 85 90 102 99 99 115 119 110 99 89 109 99 84 98 93 99 90 94 99 95 84 78 85 87 93 94 97 98 102 105 118 116 104 113 113 128 116 75 48 36 23 40 63 85 64 68 73 68 85 91 89 103 105 92 93 87 84 92 87 81 82 78 74 70 66 66 66 65 63 61 57 60 51 50 45 41 36 33 26 24 19 16 13 17 18 23 29 31 46 62 77 80 93 106 99 101 108 118 111 106 96 89 108 109 90 96 93 92 98 92 98 90 87 79 86 85 88 89 88 99 98 112 121 118 110 111 123 121 109 59 42 38 51 27 67 114 86 69 60 63 82 85 100 98 103 97 92 89 89 87 80 77 79 78 71 68 62 59 58 59 54 53 47 51 42 37 37 32 31 26 20 16 15 14 18 24 26 33 37 49 65 78 89 93 101 108 106 110 107 132 124 95 101 81 104 114 104 102 90 89 102 93 94 87 84 81 83 87 83 84 86 103 105 121 122 124 116 104 116 125 92 50 31 60 36 18 85 113 111 82 45 51 75 85 100 102 100 100 92 94 88 90 84 79 79 77 75 65 61 57 56 55 42 45 39 39 40 32 33 31 27 26 18 18 21 26 34 37 41 48 55 69 87 99 103 109 112 115 111 115 118 137 125 90 102 77 96 121 123 110 88 88 103 99 93 91 88 82 82 82 84 83 86 110 112 124 120 123 114 106 121 121 74 48 46 37 27 34 84 125 119 96 68 36 67 90 99 106 98 102 95 89 90 85 89 89 76 77 76 72 67 59 62 52 46 44 43 33 38 36 33 35 29 28 27 27 32 41 47 50 59 64 76 88 107 111 112 117 119 117 112 120 120 134 114 86 93 72 82 120 132 113 95 94 100 107 95 93 93 84 82 80 87 85 86 117 115 121 108 117 109 103 121 87 67 54 24 22 46 37 87 128 121 107 95 48 54 88 92 100 105 101 95 88 83 83 93 97 88 81 82 76 79 69 66 55 57 51 46 42 42 40 38 38 36 37 39 46 54 56 63 62 75 84 102 104 116 114 122 123 123 112 113 116 129 132 89 85 100 67 79 105 125 123 109 95 103 114 106 97 95 91 82 80 85 85 81 115 114 111 98 111 95 87 97 59 74 27 14 37 56 42 96 124 132 116 112 77 49 81 90 93 106 104 98 94 89 87 95 99 91 89 84 81 85 81 78 68 64 59 59 56 54 52 51 48 50 55 63 64 71 70 76 86 97 104 112 117 120 125 131 125 124 118 117 128 137 139 87 73 113 64 73 92 117 121 118 108 111 109 120 110 96 101 87 84 79 85 79 114 110 95 87 100 80 75 68 64 51 12 7 42 65 41 91 126 133 128 109 112 89 93 79 87 91 97 102 99 98 91 93 96 92 91 93 88 85 84 84 81 79 77 74 68 67 68 71 71 76 83 84 88 91 97 106 117 114 113 115 118 129 136 130 128 114 114 122 129 141 148 103 69 98 79 62 81 97 115 119 113 122 113 123 125 115 110 94 88 80 85 80 111 95 86 80 84 70 58 66 62 30 17 21 47 72 48 80 124 139 128 106 120 129 115 101 80 80 84 93 98 103 102 94 95 91 90 90 95 92 93 94 93 95 99 93 94 90 92 97 104 106 113 117 117 122 125 124 113 109 114 121 124 134 137 131 119 109 113 132 117 125 140 123 61 92 69 60 66 71 101 119 110 124 120 122 133 130 115 106 92 86 87 88 97 79 77 73 65 75 78 60 39 43 54 39 63 73 60 64 123 136 134 99 119 140 136 125 94 72 75 81 87 99 103 102 98 102 104 101 98 98 106 109 108 108 110 111 117 122 122 123 126 129 130 129 129 128 119 106 108 117 122 127 129 137 132 121 117 112 126 130 108 116 143 115 76 87 59 60 58 61 89 105 109 122 127 120 134 139 122 110 98 88 92 94 82 86 79 60 82 91 69 62 56 71 88 61 63 64 77 55 113 132 139 94 115 139 144 135 128 79 78 81 75 89 98 103 106 100 110 112 112 112 117 118 125 123 127 125 127 128 131 132 133 132 130 131 125 116 110 111 120 123 126 128 130 136 129 111 113 120 132 129 110 107 146 101 92 81 60 60 50 65 83 98 101 117 134 120 120 133 127 119 106 87 91 96 