P2
92
112
255
61 63 62 62 64 67 68 68 67 74 74 76 85 91 94 99 105 104 108 106 102 98 99 99 95 85 74 64 63 75 80 85 80 76 84 90 97 95 102 105 103 102 98 104 104 100 109 112 120 133 139 136 141 138 131 127 121 132 126 118 113 115 115 113 103 111 103 91 91 91 97 99 95 86 82 82 80 73 74 72 76 74 76 74 77 75 78 77 76 76 75 74 62 63 61 63 64 65 70 70 73 77 83 87 90 96 98 103 105 105 102 98 92 93 94 81 80 73 69 74 75 76 78 76 74 73 79 91 97 94 98 97 93 86 103 105 108 109 111 114 133 141 145 152 156 149 144 141 139 138 136 123 115 116 113 111 110 102 104 96 96 86 93 96 98 94 83 81 79 76 73 74 73 71 74 73 75 76 76 79 74 77 75 76 62 63 61 63 66 67 68 75 78 82 88 94 99 100 101 102 101 101 97 95 88 91 82 73 82 81 81 76 70 69 73 74 70 69 78 87 87 84 91 88 87 93 109 108 112 110 112 129 142 133 137 155 157 154 149 145 152 154 153 140 128 121 115 118 118 101 100 101 95 91 91 95 98 96 94 85 77 77 73 71 70 71 69 74 72 72 74 77 76 73 75 76 64 62 62 64 67 68 70 77 85 92 98 101 103 101 100 100 99 99 97 88 82 76 81 88 87 84 74 75 68 67 67 57 57 71 77 85 79 80 89 95 94 100 108 114 104 104 116 129 142 132 137 157 154 158 150 150 156 162 160 152 145 139 126 120 117 111 100 97 90 87 89 91 96 102 101 96 92 76 74 70 71 70 69 69 71 73 72 74 77 74 74 75 63 63 62 63 68 76 79 83 88 92 99 101 102 102 100 101 97 98 92 81 75 81 85 87 85 87 80 68 63 56 61 56 65 61 80 83 81 84 97 100 93 97 104 108 94 103 121 133 148 133 140 153 151 159 156 154 164 160 163 158 156 149 148 135 129 125 118 104 92 86 87 92 90 97 99 102 100 91 78 69 71 70 70 66 70 66 71 75 75 76 71 74 61 62 63 67 69 80 86 93 94 97 107 103 100 100 98 98 98 86 77 78 76 92 95 83 78 84 74 60 62 64 68 66 73 66 75 86 86 81 103 103 91 93 102 109 103 105 117 131 134 124 133 138 142 147 146 152 162 165 170 165 165 154 151 146 140 139 132 118 104 93 90 90 97 96 93 98 104 98 88 74 72 69 70 68 68 68 65 70 69 77 73 72 64 62 65 70 78 85 92 97 100 106 105 100 98 101 99 98 84 83 76 84 95 96 85 74 75 72 71 63 65 75 69 75 72 76 86 82 91 87 107 107 88 88 102 112 110 106 112 114 122 118 123 130 135 139 139 142 153 156 163 164 164 164 155 158 147 150 140 134 123 119 107 99 105 102 95 94 103 100 94 91 77 69 67 66 69 66 64 64 68 73 72 72 64 62 75 77 82 90 97 98 107 110 99 95 96 100 93 82 81 92 93 94 88 80 69 71 77 74 74 79 79 79 74 86 82 81 92 94 89 92 102 106 91 89 101 112 108 99 96 107 106 108 117 126 136 134 131 137 141 144 150 160 165 164 156 155 155 147 140 136 129 130 129 114 109 101 95 93 102 100 99 93 89 70 64 64 64 60 64 63 66 67 71 73 61 67 77 84 90 94 99 105 106 102 95 94 95 94 89 85 96 99 100 91 84 74 64 70 81 79 81 84 90 88 84 83 87 86 91 96 88 88 91 92 85 89 100 103 102 90 85 96 100 102 110 113 123 121 120 126 132 140 136 142 142 147 146 152 147 142 138 134 133 131 133 123 114 115 104 99 94 98 96 99 89 81 63 61 61 61 60 63 63 68 68 73 63 73 85 90 96 101 102 100 97 97 90 89 86 82 86 93 101 100 97 87 79 74 76 82 84 79 88 91 94 88 83 87 78 75 89 89 84 78 78 79 78 85 90 94 94 90 86 88 90 91 92 98 106 104 109 110 122 125 129 128 132 130 135 124 129 123 129 126 127 119 123 123 119 116 111 102 89 88 92 90 88 85 72 60 55 60 59 64 67 64 68 68 72 84 93 96 102 103 104 97 89 88 81 85 87 86 96 98 93 89 79 68 69 75 79 80 77 81 87 88 92 82 78 79 75 72 80 84 75 73 75 77 78 84 90 92 88 93 88 83 78 83 83 90 99 101 111 111 108 116 119 120 119 118 123 119 115 113 117 118 121 116 113 118 121 119 111 105 91 84 87 86 86 85 85 65 54 58 58 60 66 65 63 67 78 91 97 101 103 100 99 92 85 80 81 76 83 91 99 99 87 77 69 66 73 83 92 93 84 87 85 86 80 76 70 73 69 68 65 64 56 61 65 60 62 66 81 89 81 87 86 79 74 79 85 88 89 89 90 101 93 101 108 118 120 118 114 116 115 115 111 112 103 105 112 106 108 116 108 107 95 84 84 82 82 83 86 78 59 53 56 55 57 62 63 65 85 97 103 101 104 100 95 90 81 80 82 82 90 97 93 89 74 68 65 64 79 88 94 96 93 89 86 81 68 67 64 63 57 49 46 49 42 46 50 41 39 47 59 66 64 70 73 74 72 76 81 79 78 79 83 86 88 96 100 108 115 115 114 118 116 108 103 104 98 100 105 106 99 105 103 96 111 94 77 80 77 77 77 73 75 59 53 53 50 57 61 66 94 104 106 102 100 97 91 85 72 74 80 86 93 96 86 79 73 66 67 79 96 98 87 90 88 82 77 71 59 53 55 48 40 35 35 34 28 26 34 31 30 32 39 42 46 50 59 60 64 66 69 68 71 69 75 81 80 82 89 96 99 105 107 112 112 107 106 103 100 99 104 101 99 90 99 97 94 95 79 81 81 70 71 68 64 69 56 54 49 50 58 63 100 102 102 102 92 87 81 72 73 77 85 86 99 85 69 66 63 60 78 98 107 96 92 83 73 63 63 59 49 41 41 38 27 25 25 17 11 13 15 21 22 26 30 41 43 48 58 56 60 62 66 68 66 63 63 69 71 66 76 89 92 94 102 101 100 99 93 93 98 96 96 104 98 94 95 88 90 79 90 75 85 80 69 68 68 61 58 53 53 50 51 58 105 103 103 95 89 77 68 70 72 68 75 86 87 67 63 63 61 68 87 105 97 96 85 69 66 62 50 46 40 39 34 28 23 20 18 13 1 3 11 17 24 35 39 47 43 52 59 58 56 68 72 70 71 65 59 61 63 62 69 77 82 86 93 92 95 95 93 91 93 89 100 103 98 98 95 81 84 74 78 79 76 78 74 60 65 63 58 57 48 56 50 52 106 106 102 90 76 70 69 73 66 71 78 81 67 54 53 59 67 81 98 99 98 88 74 58 57 58 47 44 40 35 31 25 23 16 17 13 12 24 22 34 40 42 46 52 53 63 64 67 73 77 82 80 81 79 73 65 69 68 72 76 80 83 89 93 92 88 93 88 89 90 93 95 100 100 87 82 80 80 69 76 72 75 76 59 51 59 58 63 56 54 54 56 104 105 89 83 72 65 67 58 62 71 78 63 45 52 61 64 71 90 100 98 89 76 66 57 57 51 54 47 41 38 34 26 25 23 20 30 35 40 38 46 55 54 54 60 59 71 76 76 84 86 85 87 90 89 82 78 76 77 79 77 80 86 84 93 85 84 89 90 88 88 92 95 94 98 90 88 77 65 78 75 72 77 85 61 43 49 60 60 65 59 53 55 101 91 80 73 60 53 53 55 61 74 74 64 58 60 64 68 82 93 96 91 76 67 63 60 59 58 53 42 39 43 48 42 39 32 40 51 57 54 57 63 65 67 66 68 71 80 82 84 90 93 94 97 99 96 89 87 81 85 84 83 84 86 83 87 85 89 83 86 89 86 87 90 87 94 90 90 83 61 65 77 75 77 77 70 44 43 50 60 66 67 58 52 90 80 72 69 59 53 55 54 60 70 75 70 64 70 74 79 87 92 92 82 74 70 65 64 65 58 55 45 52 55 62 54 47 51 61 68 71 73 79 81 84 82 80 84 86 88 92 89 96 97 97 101 103 101 99 94 91 86 87 85 87 85 84 88 88 89 90 87 83 90 83 86 83 93 88 77 82 73 60 66 69 75 73 70 59 49 47 51 61 69 70 54 85 77 79 73 61 51 50 56 65 73 66 65 63 72 80 83 92 99 89 72 66 65 66 63 62 57 61 59 63 65 70 66 62 74 85 87 87 88 92 95 98 98 93 97 96 97 98 96 99 103 105 102 106 106 107 102 90 86 85 81 83 82 81 86 90 88 91 89 85 89 87 80 81 84 87 76 77 76 65 59 67 70 75 68 63 55 53 50 52 63 72 63 87 83 83 66 56 48 58 61 62 64 63 67 68 79 79 88 97 93 78 66 62 61 66 54 57 64 69 73 71 75 82 82 89 94 101 100 97 100 101 102 106 108 109 107 108 106 104 107 102 101 105 104 104 105 103 98 87 84 84 77 79 79 78 82 89 82 92 93 91 86 90 87 81 82 89 83 77 73 71 63 57 63 72 73 68 58 54 54 54 57 71 73 80 81 71 54 50 45 53 51 56 58 68 68 73 78 80 86 91 79 61 54 53 55 55 58 68 80 76 82 81 89 97 104 110 109 111 110 107 104 110 107 111 114 113 113 115 111 109 112 109 102 107 108 101 102 93 87 81 77 73 64 61 67 67 74 79 81 81 86 95 94 89 89 82 77 86 86 73 71 71 70 60 65 63 62 65 64 61 54 56 61 68 78 82 74 56 48 41 40 40 50 54 61 65 60 72 70 77 84 70 56 49 47 45 40 59 69 81 86 81 87 98 106 112 118 118 117 122 121 116 111 112 112 113 115 113 112 114 115 113 111 108 102 101 95 89 87 82 79 77 74 68 63 50 52 55 63 69 70 74 80 88 93 94 88 81 76 85 85 78 68 68 60 63 62 65 53 59 64 68 57 48 60 66 79 77 63 51 54 44 50 59 63 58 52 56 60 67 65 68 64 42 38 52 45 32 45 60 71 80 86 94 110 109 117 127 125 125 125 123 126 120 114 115 115 114 115 115 115 114 113 109 109 105 101 97 87 82 79 76 70 74 69 67 65 56 44 46 52 59 65 67 73 82 91 90 93 83 72 77 79 79 71 66 62 67 54 51 57 53 62 65 64 54 59 63 78 76 61 65 67 60 62 68 58 48 43 45 56 58 66 63 47 37 46 50 35 37 58 69 76 86 101 115 119 120 124 132 132 128 125 125 125 124 117 118 116 112 115 113 112 112 111 106 107 103 101 93 87 79 76 77 68 68 62 63 64 58 46 42 42 43 54 61 62 71 85 85 91 80 78 72 74 72 71 63 64 56 61 49 49 49 63 65 65 56 60 66 66 69 67 81 72 71 78 66 62 54 44 48 57 61 74 58 45 44 44 42 45 61 75 80 91 104 121 126 120 127 127 131 133 129 128 124 125 126 119 118 116 116 114 112 113 107 108 101 103 97 97 88 85 80 79 73 70 67 64 58 57 51 44 39 39 36 47 51 57 61 69 78 82 84 80 78 69 70 71 73 67 56 52 60 41 40 52 73 66 57 61 76 72 72 71 77 71 77 74 67 63 57 51 60 61 60 63 51 42 40 40 48 66 68 85 92 107 123 129 126 127 129 133 133 130 126 128 127 128 126 121 116 117 117 113 108 108 105 103 100 100 95 89 86 77 76 71 68 67 65 65 60 56 52 44 36 34 34 38 45 49 47 52 65 76 76 81 83 73 66 68 71 73 63 53 49 49 39 47 68 68 66 64 76 80 66 75 75 68 71 75 74 60 54 56 63 53 51 52 45 37 37 49 63 79 79 96 108 122 125 124 132 136 139 138 132 128 126 129 132 130 129 123 122 122 121 116 115 110 109 104 106 99 94 89 90 80 78 71 70 66 63 60 57 51 44 40 32 29 27 30 34 37 39 44 52 62 73 78 82 78 66 68 68 76 62 67 59 50 44 48 61 61 68 69 73 82 73 81 70 58 65 76 67 55 58 64 56 51 57 53 46 39 47 65 74 80 92 110 122 126 123 130 137 138 135 133 136 137 134 137 137 134 129 124 127 121 120 116 115 113 110 104 105 102 92 87 87 83 74 72 65 63 63 62 62 60 54 48 41 32 30 31 32 34 35 37 42 50 64 73 76 81 65 65 68 79 71 61 60 49 38 51 70 73 67 69 72 78 76 71 63 60 76 75 70 62 64 66 54 55 58 46 44 43 66 75 77 92 105 119 125 134 130 136 141 141 135 136 142 143 141 140 135 135 130 127 124 121 118 116 115 115 109 104 104 98 94 89 83 81 77 72 69 69 66 68 67 66 62 61 55 51 47 42 31 31 33 32 37 45 54 73 76 76 74 63 65 78 77 66 51 56 42 40 68 79 77 74 70 72 80 67 65 68 76 70 66 59 64 59 48 47 46 39 44 61 76 81 90 103 118 131 139 140 141 145 148 148 145 141 145 147 142 137 132 129 127 124 125 123 116 115 112 114 107 105 101 98 96 92 88 81 79 77 76 75 77 81 80 79 77 76 71 66 65 54 47 34 34 27 35 41 52 61 79 75 71 71 62 76 84 76 59 53 49 40 61 71 75 86 79 68 77 67 64 64 67 70 62 56 61 62 42 35 35 39 58 76 83 89 106 118 130 137 147 145 151 149 150 149 143 138 134 135 129 127 123 119 119 119 121 121 119 115 112 111 103 98 100 97 98 96 89 88 84 84 83 83 86 88 89 89 89 89 85 79 77 67 60 50 41 31 32 38 49 55 79 77 76 68 69 66 83 91 72 48 48 50 64 74 81 90 88 71 71 66 66 61 63 58 60 58 63 63 39 34 36 50 74 87 89 107 121 134 138 143 151 146 152 153 152 147 138 136 131 129 129 125 122 120 118 117 116 118 119 117 114 109 101 101 99 98 97 96 93 86 85 87 88 89 89 92 92 93 95 93 87 84 81 73 69 63 53 45 30 38 44 57 73 84 80 77 69 72 80 85 85 56 40 57 69 85 98 95 88 80 71 65 64 56 60 54 57 60 60 58 41 34 47 65 89 89 98 116 130 131 131 148 156 157 157 157 152 149 147 142 141 138 135 133 129 126 121 117 119 118 120 115 113 108 102 103 100 99 95 98 92 86 84 88 89 90 95 94 94 95 95 91 86 82 76 70 67 62 57 53 44 37 42 56 70 79 88 85 71 74 84 84 82 67 53 51 75 92 104 96 97 91 76 61 52 50 53 61 56 55 58 58 42 41 54 79 89 94 111 126 131 123 133 146 156 153 151 148 147 150 146 146 142 138 134 132 128 123 117 107 105 110 110 110 106 104 102 102 98 95 91 94 88 87 85 91 93 95 97 95 94 93 90 85 85 79 69 64 61 59 57 51 51 47 35 44 65 73 78 90 82 69 93 86 78 62 70 62 77 101 113 108 103 98 81 56 54 51 58 62 56 48 59 51 39 39 65 84 90 101 116 119 119 122 135 147 154 141 143 137 137 139 134 131 133 126 125 118 117 112 107 100 94 93 97 96 95 90 95 96 92 87 86 92 85 85 86 91 93 94 94 92 89 88 81 80 78 74 63 58 57 48 46 45 42 49 34 36 50 72 82 82 90 77 87 96 82 57 66 73 85 99 118 118 109 100 70 57 54 62 65 63 52 49 60 42 38 43 69 88 95 106 113 111 111 120 133 138 138 134 138 132 125 122 121 113 116 119 120 113 112 103 100 94 90 87 87 86 83 74 78 80 76 74 76 79 78 81 84 88 90 94 97 96 86 85 77 76 73 71 64 59 53 46 44 44 38 47 43 37 38 62 81 91 91 82 88 92 86 63 60 72 98 102 114 117 118 106 75 65 55 58 70 60 47 50 60 44 34 47 71 86 98 101 103 105 107 113 127 126 132 124 123 118 115 115 110 105 106 110 115 108 107 102 100 92 90 85 81 78 75 70 68 69 70 69 70 77 77 84 88 90 91 95 95 94 91 88 81 76 74 73 69 64 59 50 45 43 44 44 53 49 40 49 69 91 97 90 90 93 77 69 62 71 94 102 123 120 110 103 80 70 55 70 69 62 47 56 67 45 33 50 68 78 93 98 95 93 97 100 114 120 120 110 106 108 108 106 105 102 104 109 109 111 107 105 101 95 91 88 83 80 75 69 69 70 75 73 72 83 83 88 91 93 93 93 94 87 85 84 83 81 75 78 74 70 66 59 55 47 51 49 53 59 48 54 64 77 98 96 93 104 79 67 69 66 95 103 110 127 111 103 89 76 68 71 73 72 54 61 65 43 27 47 69 78 91 101 86 82 84 95 104 102 100 102 104 101 106 103 103 103 107 110 114 114 116 113 113 109 105 100 92 89 82 74 74 76 80 77 79 88 90 91 93 92 93 92 90 89 87 85 88 88 81 78 79 84 82 76 73 61 58 55 49 60 44 53 66 62 88 98 94 97 83 70 75 64 86 99 112 120 114 103 107 101 80 84 79 80 65 72 70 38 25 60 67 75 89 85 65 66 63 80 88 90 100 97 102 101 108 107 108 108 113 121 121 123 123 122 120 119 114 113 113 103 90 86 78 78 83 83 86 89 91 95 95 90 86 88 89 89 87 90 89 82 79 78 77 72 80 80 76 72 66 64 58 71 63 53 73 58 77 97 101 84 79 79 75 74 95 107 123 123 103 113 115 108 98 88 88 83 68 83 66 40 41 59 68 83 97 85 80 79 81 95 104 106 107 106 107 104 108 105 109 112 112 110 111 110 117 119 117 115 116 115 122 110 92 87 80 76 81 87 87 89 87 90 89 83 82 81 78 73 74 76 72 73 68 70 69 67 69 79 73 77 78 78 76 86 91 65 84 63 79 99 93 93 78 83 81 88 108 123 121 131 104 113 112 96 95 96 93 100 89 84 58 41 46 64 80 89 78 72 60 52 76 87 92 95 96 96 92 90 92 94 93 99 101 98 100 105 108 108 103 100 102 104 109 107 85 77 69 67 73 80 82 85 83 86 83 80 73 73 72 69 67 67 69 66 66 69 71 67 73 78 81 89 90 84 89 89 104 77 86 81 86 95 89 83 77 90 83 104 125 138 128 135 124 116 106 86 100 120 124 130 109 84 57 42 48 67 70 66 64 63 44 59 90 92 93 95 96 95 103 108 113 114 111 104 94 99 91 93 93 92 93 93 89 103 111 108 92 93 81 83 91 90 88 89 87 87 81 80 78 79 80 82 82 79 80 80 79 83 79 72 81 78 80 84 88 93 92 99 115 102 101 95 98 103 82 72 78 93 84 116 142 143 138 150 140 116 98 94 113 138 144 145 124 82 57 27 40 64 57 56 63 49 53 81 101 100 96 100 91 100 117 127 118 117 103 98 99 101 100 107 94 96 97 86 90 91 100 121 103 93 91 86 99 103 100 99 98 89 88 88 92 95 98 96 101 96 99 96 97 96 91 84 101 99 99 95 78 88 93 93 111 111 99 110 96 105 84 75 86 92 98 126 146 144 145 143 145 127 102 108 119 154 156 155 144 82 51 24 31 56 51 56 52 53 62 86 105 113 113 114 112 110 122 127 121 119 110 106 109 110 104 110 99 103 108 98 86 82 97 111 99 83 76 74 87 98 106 110 107 102 100 104 105 104 107 108 118 108 109 106 116 114 111 116 121 120 115 116 97 86 95 94 99 111 101 96 88 87 77 74 90 108 120 137 145 148 157 146 146 127 105 122 130 160 154 146 160 96 64 33 42 54 52 42 47 55 86 97 119 130 137 131 126 134 151 153 145 140 125 121 123 123 119 108 110 119 115 104 95 93 83 87 83 76 71 65 73 90 100 107 114 101 110 108 111 121 115 121 123 125 121 122 126 130 130 141 139 144 142 144 135 98 97 101 103 113 104 91 92 85 69 68 85 129 146 153 161 157 163 155 152 122 108 133 134 163 147 139 145 95 63 35 49 63 51 42 52 63 104 115 126 141 138 138 134 143 152 167 139 133 129 132 124 123 119 107 112 120 116 107 97 91 83 69 81 86 76 69 74 81 94 106 104 96 100 100 110 117 117 128 125 125 124 122 117 127 131 145 137 131 148 149 148 125 112 98 96 108 117 89 101 91 80 79 88 136 164 165 176 173 167 145 149 118 116 131 132 154 141 138 125 99 55 36 46 67 56 37 51 81 113 130 123 136 124 128 137 126 127 131 121 112 125 127 133 116 113 92 104 110 105 90 96 79 78 69 80 87 59 65 70 80 97 104 110 88 94 97 101 101 109 102 108 117 118 113 112 121 136 116 120 128 128 131 137 136 131 108 95 113 122 103 99 102 89 96 100 154 170 178 180 177 166 152 145 115 122 133 124 152 143 137 100 99 55 39 46 73 60 55 55 95 127 119 127 125 123 148 132 121 138 123 117 106 117 118 129 129 113 96 115 106 100 84 82 80 77 72 79 79 65 67 73 78 88 102 108 90 86 94 97 95 98 97 99 97 103 98 91 121 113 99 100 108 107 112 134 140 136 114 111 113 125 119 110 103 90 101 117 172 179 185 182 168 166 158 139 104 126 134 127 129 126 123 75 77 45 37 56 82 71 62 62 91 114 107 111 93 115 130 111 129 142 131 109 113 127 113 125 142 122 111 112 106 101 97 78 74 71 72 64 71 68 75 77 71 78 85 89 85 83 91 90 83 75 86 100 88 112 108 84 101 115 121 119 88 103 94 111 145 151 123 125 134 121 118 122 104 92 109 125 168 185 203 189 180 164 160 132 96 130 136 140 125 120 108 70 63 53 45 67 94 82 79 91 92 113 92 101 97 85 98 106 117 134 124 117 109 127 124 118 131 128 110 113 110 93 98 75 61 56 67 70 65 73 87 86 77 77 82 80 79 84 91 92 87 86 90 102 97 110 104 91 80 91 111 92 99 78 96 103 134 157 137 125 137 127 120 113 107 99 118 134 177 189 199 190 187 177 151 125 95 118 131 137 130 127 105 74 55 53 52 87 107 85 95 108 110 95 94 103 72 89 107 106 99 122 127 123 124 115 113 121 121 121 110 106 98 92 96 84 77 62 72 77 71 74 79 79 79 78 81 81 74 86 76 88 87 83 85 88 109 118 109 111 103 108 104 94 117 107 98 119 126 146 139 127 135 128 124 115 107 99 113 138 175 177 179 175 182 171 137 105 100 111 117 120 140 122 99 77 54 55 48 87 117 97 97 115 104 101 108 100 94 103 112 109 100 91 99 111 116 121 112 119 110 103 100 94 75 65 68 62 51 62 63 66 79 85 83 74 74 79 78 102 85 92 81 95 81 85 72 84 105 103 99 111 114 120 102 99 122 130 117 125 130 128 135 123 132 122 126 120 110 108 115 134 152 163 171 170 181 165 129 95 99 106 110 109 130 122 101 90 71 62 44 75 120 108 101 117 100 98 95 98 93 94 88 84 67 70 75 93 99 122 128 108 100 108 103 84 73 73 67 67 71 76 66 60 78 77 72 75 78 72 77 98 93 98 100 98 83 83 80 86 101 103 108 117 122 124 129 116 120 126 135 132 125 120 128 126 144 127 117 126 109 103 116 115 142 162 165 169 183 154 119 89 93 105 110 109 107 118 117 108 85 79 46 67 120 110 106 110 114 103 105 109 100 90 88 86 71 72 75 93 112 111 104 89 87 93 99 84 75 84 82 77 76 73 87 78 78 80 73 83 65 65 75 94 119 96 109 94 86 72 73 69 91 106 119 113 116 112 108 117 112 123 139 135 135 129 122 119 145 128 104 111 109 101 116 109 140 153 167 182 166 144 114 82 88 106 118 120 98 115 137 119 103 94 59 63 119 112 106 120 121 117 120 126 116 100 103 101 95 97 102 106 117 108 96 92 89 89 89 86 81 83 83 84 92 85 99 88 83 80 76 77 67 61 81 101 126 110 107 112 93 70 71 72 74 97 102 101 98 101 99 105 112 119 133 140 130 131 126 118 138 124 98 107 107 101 123 103 138 142 163 165 143 124 106 92 79 107 132 125 92 125 140 119 87 106 88 63 114 114 116 130 125 125 139 143 139 123 112 111 108 110 116 118 118 112 107 101 96 92 95 97 87 102 100 93 98 100 108 95 84 68 68 65 69 68 80 103 119 124 108 136 126 94 79 82 76 84 91 83 88 91 101 97 113 118 124 129 127 123 123 117 117 120 93 102 94 96 120 97 125 134 140 153 132 121 97 95 78 116 152 138 89 112 146 110 80 98 99 55 104 114 121 126 121 123 135 142 143 131 120 119 111 112 112 113 118 112 109 108 103 110 107 98 95 103 104 102 98 102 97 91 83 68 53 59 55 60 75 90 95 114 108 113 130 115 89 89 80 80 81 82 86 94 97 99 108 112 117 114 112 117 111 105 98 108 91 95 88 83 97 95 116 117 116 141 132 111 89 91 79 110 174 164 102 121 162 144 82 102 83 59 92 105 118 128 122 132 129 137 139 140 127 120 120 114 110 109 111 112 111 116 116 111 110 112 118 123 117 106 103 90 77 85 74 57 53 53 53 58 68 70 84 104 114 114 116 121 94 97 82 80 85 82 86 84 89 94 97 103 98 97 104 107 100 88 85 94 88 85 87 76 96 95 91 104 106 132 137 104 80 89 80 114 198 181 102 105 171 167 95 87 87 58 100 95 110 120 125 138 126 136 138 142 135 123 121 120 116 118 121 128 129 129 122 119 121 139 131 127 118 106 100 78 73 75 69 57 52 53 43 49 58 64 79 92 108 122 115 96 88 82 88 79 72 76 81 77 82 88 88 91 90 95 102 97 91 76 76 85 78 88 84 78 93 73 74 92 91 112 133 98 72 92 74 114 214 184 102 96 163 186 121 84 76 77 97 87 107 118 121 129 136 137 140 144 138 143 137 135 134 140 145 147 147 137 131 127 131 140 129 123 117 104 87 85 77 73 77 73 60 50 48 43 61 66 77 82 99 112 112 91 75 75 80 82 78 67 76 78 81 85 88 88 82 91 96 96 87 74 74 77 80 86 91 82 96 55 59 83 74 112 131 90 69 91 73 124 223 191 107 111 162 185 133 95 74 72 83 95 97 122 127 119 137 139 149 140 144 150 149 142 137 139 150 150 143 135 137 137 136 136 117 119 109 79 76 78 84 77 85 74 56 52 50 47 59 66 75 81 93 102 105 102 81 84 74 82 83 77 78 73 80 86 81 89 79 89 91 95 88 71 65 73 73 79 99 100 102 63 59 72 70 105 116 77 69 87 70 131 228 230 132 145 162 188 139 96 78 68 69 85 95 120 128 120 122 130 135 137 143 149 151 140 137 139 148 149 143 139 141 134 126 124 117 111 85 61 69 75 79 85 84 80 61 59 55 54 57 72 66 74 82 98 112 99 85 83 83 80 74 81 77 78 79 75 77 86 84 83 90 92 84 70 67 66 81 77 108 99 100 79 70 64 80 104 92 58 70 85 69 135 215 255 155 167 155 177 142 88 92 64 63 73 81 108 118 127 119 126 132 131 135 141 139 140 135 138 149 147 135 130 127 118 119 112 100 85 74 59 68 86 82 77 83 81 68 64 60 56 68 80 69 71 83 94 112 107 103 84 87 83 64 66 72 80 73 76 80 77 80 81 79 75 79 61 61 65 83 76 91 103 111 97 77 68 78 108 79 49 65 82 68 134 174 247 173 172 157 154 146 83 92 62 54 61 80 106 120 120 124 123 130 130 133 135 129 133 133 140 146 142 126 124 123 107 97 94 88 70 58 60 66 80 80 73 83 94 79 73 63 57 72 74 75 74 92 94 104 104 101 93 81 81 68 59 64 71 69 75 77 82 84 77 85 79 76 62 65 76 71 70 80 98 139 112 91 70 77 106 75 42 72 81 68 126 137 241 176 170 180 147 153 102 88 57 42 61 86 104 114 115 120 122 130 128 130 140 134 140 141 144 139 135 129 118 106 100 94 87 85 66 64 64 71 81 90 85 84 95 96 83 70 60 79 83 91 92 98 92 97 100 105 95 82 82 81 74 73 68 69 71 67 70 70 73 73 83 74 66 69 73 68 66 77 97 132 119 106 78 88 99 69 38 70 73 72 106 131 216 186 170 197 146 148 109 81 63 38 53 84 97 111 112 118 120 128 131 130 130 128 129 134 132 123 123 117 104 93 94 84 70 74 69 75 77 76 84 89 89 87 93 96 90 82 75 87 93 102 99 96 94 94 98 109 100 85 91 89 85 76 71 75 73 73 70 69 72 72 81 76 70 70 79 68 63 83 99 124 113 120 112 102 90 66 32 76 74 76 84 113 195 190 180 197 163 139 116 67 50 49 45 80 88 102 110 112 119 126 129 130 126 124 124 130 125 120 116 116 99 95 95 84 71 74 75 81 94 86 96 94 94 96 103 104 98 88 86 103 111 107 102 100 106 108 109 119 102 93 99 99 91 82 78 80 75 72 76 69 69 77 73 72 78 84 84 73 69 87 107 112 120 137 127 94 86 59 34 72 76 79 76 87 161 187 182 191 179 135 125 67 36 49 42 65 85 89 104 113 125 129 132 130 126 126 128 127 125 117 105 104 88 83 89 87 87 81 92 97 100 97 99 101 95 98 110 107 100 96 103 115 121 111 109 117 114 117 109 116 109 99 102 104 101 93 86 84 84 74 72 74 71 81 69 69 76 84 81 77 89 98 117 110 120 146 120 83 83 51 33 70 77 72 82 75 119 180 174 185 175 130 130 83 42 36 42 65 78 78 100 108 126 127 130 129 128 127 133 128 121 112 107 100 88 86 82 89 79 89 104 110 104 105 104 99 94 97 107 108 97 96 95 108 114 102 111 112 106 109 103 108 107 99 97 100 102 95 100 92 88 78 74 83 83 89 81 70 79 84 80 92 101 104 118 118 118 137 98 75 77 45 35 69 74 66 80 80 91 153 168 178 145 131 123 84 48 30 40 62 69 69 102 114 127 127 131 132 137 132 139 127 108 111 104 98 95 102 98 86 85 104 100 102 104 90 98 96 86 95 101 106 95 90 93 97 102 103 103 104 97 100 106 111 105 96 90 93 93 93 91 95 87 80 77 87 89 95 87 77 83 89 82 98 111 110 118 109 113 111 84 76 65 38 38 63 65 62 81 87 80 119 167 167 142 117 125 92 49 37 44 53 60 71 100 114 125 130 129 137 137 132 134 119 109 116 113 99 105 104 92 74 82 97 100 89 93 86 86 86 84 83 92 92 93 81 84 90 94 94 94 98 93 96 103 106 102 101 81 86 82 82 77 86 87 80 84 91 92 101 90 85 86 94 92 105 118 114 109 98 111 85 60 65 51 31 39 65 58 61 77 85 77 98 139 170 134 105 108 98 50 42 48 39 63 74 92 112 124 132 134 133 136 134 130 114 106 111 111 101 103 92 71 71 80 78 78 86 82 83 75 79 72 76 79 79 76 74 76 83 88 86 90 96 91 93 98 93 96 94 79 72 68 73 71 75 82 89 93 99 95 105 101 92 95 99 100 109 111 99 92 86 93 55 46 56 42 25 38 61 56 60 83 77 79 87 119 159 140 89 93 92 34 32 53 43 57 63 89 118 126 126 131 133 131 131 132 116 111 111 104 90 81 72 60 57 66 63 64 77 75 81 79 81 80 75 74 71 66 59 66 70 74 74 83 88 89 92 88 75 82 80 70 65 65 63 72 72 82 86 100 92 91 104 104 92 99 99 99 107 104 88 75 70 64 43 47 56 44 15 34 58 59 63 76 76 77 84 115 125 145 101 82 76 15 20 43 41 50 61 77 107 121 118 131 139 134 134 134 118 113 103 95 75 59 49 43 40 40 49 54 61 64 75 76 80 86 91 88 81 73 69 63 61 67 61 74 73 75 82 78 69 70 69 68 61 62 64 71 82 92 88 99 99 88 91 104 95 99 101 95 104 95 80 56 55 46 37 50 56 32 16 37 58 60 64 66 71 79 91 102 121 115 98 81 73 13 21 32 39 42 69 75 102 117 122 130 139 136 131 137 127 116 103 77 52 50 41 35 35 36 41 46 57 59 67 76 78 82 86 84 77 72 73 64 67 70 58 63 63 66 73 67 76 68 67 66 66 63 70 76 95 104 98 102 105 88 89 103 97 103 102 92 102 82 73 53 38 30 41 62 49 22 14 42 51 59 57 61 68 78 90 95 119 107 85 89 72 20 25 35 38 36 54 67 93 111 123 132 140 147 137 141 136 119 96 63 45 43 38 36 31 27 33 42 60 56 61 75 80 78 76 68 63 59 61 60 57 54 55 52 60 61 62 62 66 74 68 64 65 67 71 76 95 119 100 102 103 86 96 97 95 104 95 87 102 71 64 50 28 31 56 65 40 21 20 43 48 50 49 63 70 83 92 91 109 119 90 97 85 40 41 39 45 35 47 62 77 113 129 143 140 148 139 147 146 118 83 61 43 40 41 39 35 31 31 48 59 67 74 78 84 83 76 64 61 65 69 63 66 65 60 54 55 55 55 59 66 68 64 71 67 70 68 76 90 112 107 101 107 84 91 91 97 97 91 86 99 67 61 45 32 51 70 52 30 26 28 39 43 40 53 63 75 83 91 103 109 111 115 89 72 35 42 38 35 30 38 57 76 112 127 146 146 151 145 153 152 125 90 77 57 49 47 45 40 36 45 51 63 73 85 85 91 96 87 80 77 81 83 78 83 83 75 71 66 62 63 68 66 64 62 80 79 71 74 74 93 109 107 104 101 88 95 90 97 93 83 89 89 62 70 52 52 65 56 38 36 36 30 37 43 32 42 58 73 78 87 106 101 117 106 95 62 44 28 30 23 28 36 49 74 109 129 146 156 148 151 152 151 118 94 80 60 47 37 38 39 39 48 52 55 68 82 79 83 88 93 94 91 89 83 85 86 87 84 81 80 81 76 70 62 61 70 81 80 84 90 80 97 107 106 107 96 91 92 97 97 91 74 93 83 70 83 62 57 64 47 40 43 32 32 30 38 36 31 63 67 67 88 99 100 112 114 101 60 53 35 27 15 22 35 52 79 100 128 143 143 146 144 139 125 93 66 51 48 40 30 27 26 31 34 42 47 58 73 90 83 88 97 103 97 88 88 90 91 89 86 86 92 85 78 64 63 65 73 87 94 107 104 95 95 103 100 100 96 88 85 92 96 89 71 94 85 75 85 68 61 62 48 36 33 36 35 29 32 38 33 62 61 74 84 91 96 113 114 109 67 52 41 30 22 18 31 55 80 88 131 138 127 137 128 122 99 74 55 46 36 36 28 28 28 38 38 47 48 46 65 80 78 84 90 85 92 81 81 86 79 75 74 76 83 76 75 71 81 84 80 98 101 112 107 99 92 98 92 91 94 87 84 89 92 86 69 90 74 76 81 61 59 54 52 37 35 37 44 30 28 38 36 62 68 76 80 86 102 113 111 112 79 53 48 29 30 21 37 55 74 85 122 131 120 127 113 100 87 56 54 46 35 32 31 27 35 49 55 53 60 77 75 86 85 80 97 82 82 75 66 65 67 68 74 83 87 81 86 89 96 100 97 101 99 109 106 100 79 88 82 82 86 90 83 85 89 75 74 78 75 72 65 55 67 61 57 42 32 42 53 34 22 36 42 68 71 75 74 86 102 109 109 119 95 62 54 37 30 26 39 40 78 85 103 121 114 112 106 91 80 35 48 43 47 50 46 42 49 68 77 82 98 108 113 109 108 109 115 110 106 95 82 74 75 84 89 94 105 113 110 110 105 109 105 104 109 118 111 92 82 76 74 83 77 83 86 83 85 64 74 73 65 68 63 58 71 65 59 47 35 46 55 43 25 29 42 69 69 69 76 87 101 96 100 115 108 79 58 48 38 36 41 47 79 71 94 114 102 105 98 89 72 40 47 48 50 62 63 65 75 96 104 111 128 118 132 128 125 127 119 107 100 104 93 99 95 103 111 111 115 118 105 105 104 106 110 103 96 108 96 75 68 58 58 64 75 73 81 78 80 64 71 67 59 59 61 56 66 67 60 49 39 42 60 49 32 25 32 67 65 69 78 91 96 77 92 108 111 96 59 54 41 45 46 48 70 74 88 95 91 97 88 76 66 41 41 35 40 37 41 66 88 99 88 107 116 96 115 111 111 102 100 85 87 86 82 90 92 104 113 113 111 114 92 92 88 91 93 83 71 66 62 49 55 34 41 54 63 74 74 73 76 74 71 61 54 59 60 56 64 64 57 50 51 42 59 53 34 25 24 62 66 74 84 95 79 63 89 99 107 102 68 56 47 44 57 57 69 77 83 92 83 91 85 76 64 38 42 30 41 42 52 73 88 96 85 75 88 76 97 89 99 90 76 53 44 43 46 50 62 67 78 86 84 92 81 79 64 66 72 63 57 47 47 47 53 38 41 49 70 75 67 68 73 72 68 58 58 62 59 57 64 68 54 53 47 49 50 59 37 25 24 65 76 79 93 89 62 59 81 89 104 111 77 64 55 49 71 62 73 88 84 96 82 90 93 82 69 48 52 37 52 64 70 74 82 86 86 66 70 70 80 73 72 73 49 42 38 32 33 39 40 43 51 56 60 77 74 71 65 61 65 63 52 45 44 44 41 43 51 53 67 77 66 66 75 70 65 56 60 60 62 57 67 69 58 58 46 47 49 58 49 28 23 77 80 83 92 72 53 60 71 90 101 112 86 69 61 54 71 65 70 84 88 96 91 94 96 83 78 60 57 52 58 81 85 78 91 94 95 86 87 93 88 73 66 60 53 45 45 50 46 46 49 48 52 68 69 83 79 79 71 68 68 61 51 37 37 36 35 37 49 53 67 72 64 72 74 66 69 57 60 60 62 59 71 70 67 57 54 46 50 59 57 35 27 80 82 88 75 61 57 60 71 88 101 112 87 71 69 57 67 56 61 77 78 81 94 92 86 91 77 62 66 68 76 91 95 95 105 115 111 115 113 111 101 90 87 81 73 75 65 75 71 66 67 68 57 67 78 83 89 90 86 79 75 62 53 42 30 35 39 40 44 59 66 67 64 75 68 67 75 63 64 63 61 64 71 74 69 63 54 55 52 57 63 49 34 76 82 78 68 59 55 65 68 86 108 103 92 74 69 59 64 47 52 71 73 68 83 96 74 75 81 68 59 70 73 77 78 85 95 110 108 120 118 115 109 107 105 103 101 100 90 88 87 88 86 82 80 81 86 93 91 96 93 87 72 57 49 34 31 33 39 37 47 59 65 61 71 68 59 78 87 72 66 67 69 68 68 72 69 70 53 60 56 48 61 56 45 83 79 69 68 60 64 63 72 86 104 106 86 71 66 65 50 41 53 64 79 60 74 87 78 69 75 69 67 69 65 74 68 66 70 87 96 105 107 104 105 108 110 108 110 106 102 100 104 100 95 97 96 97 96 93 95 95 91 80 67 50 40 33 24 30 31 35 49 56 63 60 72 61 54 79 91 83 77 72 78 73 70 66 67 72 62 60 58 52 52 55 56 80 72 70 69 72 70 61 73 89 104 101 81 75 68 58 40 39 56 56 76 68 56 86 77 73 68 64 71 63 68 74 62 66 78 95 90 85 89 93 95 98 100 102 99 99 95 89 91 96 95 96 97 94 94 86 88 85 73 61 52 36 25 27 25 26 31 37 50 58 60 60 69 59 57 86 90 83 84 83 85 82 77 64 65 73 72 72 59 55 56 52 54 71 74 72 74 80 73 56 76 94 100 99 85 78 73 42 35 34 57 56 70 74 65 76 84 79 79 71 74 76 71 73 71 73 78 85 72 76 72 82 84 88 87 86 81 82 78 78 77 80 80 81 86 82 81 72 73 67 57 52 35 25 19 24 24 28 29 39 56 58 62 59 68 71 53 91 87 86 84 95 91 96 83 73 63 74 80 84 73 64 68 62 58 72 77 75 78 87 72 54 81 101 108 102 90 81 56 27 30 34 58 62 59 75 72 62 78 87 86 95 80 88 86 80 78 80 82 79 72 75 72 72 76 75 74 74 74 76 71 70 71 73 73 76 76 70 63 58 51 49 45 33 21 15 16 19 24 25 31 44 57 61 55 63 71 78 68 80 86 82 83 102 104 96 84 78 68 71 86 94 85 82 76 75 67 82 81 80 89 93 75 61 88 110 114 104 92 64 37 17 23 40 63 67 61 69 79 68 63 79 94 89 92 91 96 89 84 81 83 84 84 81 76 72 75 71 72 73 73 69 70 67 63 64 65 66 67 60 55 48 46 38 33 20 15 14 16 15 16 26 30 48 62 66 62 65 81 95 76 83 91 85 79 107 111 102 82 81 75 72 79 92 91 93 93 83 81 84 81 77 98 97 79 80 98 117 117 104 86 49 24 9 19 48 58 72 65 65 87 79 79 74 87 82 96 89 97 91 91 83 80 83 82 85 71 75 77 75 74 75 73 66 66 64 61 60 57 55 51 44 42 36 32 24 20 13 16 12 18 14 17 30 42 63 65 69 69 73 90 108 76 94 95 95 84 96 111 105 84 82 82 78 76 84 91 98 98 95 88 79 81 83 101 98 84 85 103 119 118 91 79 37 15 4 24 53 58 72 65 68 93 83 88 77 81 84 88 98 95 100 95 88 82 84 87 76 72 75 78 76 76 71 70 63 63 60 58 55 48 46 37 32 25 22 17 10 13 10 11 12 9 18 24 37 58 69 73 83 80 80 107 109 81 96 107 92 91 102 105 101 89 84 90 85 84 77 89 105 105 98 96 77 84 88 103 103 86 86 99 116 108 84 63 36 8 0 35 48 53 70 66 71 79 88 88 88 83 85 88 93 94 99 100 91 83 78 79 76 75 77 75 74 74 65 64 61 57 53 50 47 41 38 31 26 15 15 10 8 9 8 14 12 21 25 38 58 70 77 84 93 84 94 120 115 85 91 105 96 87 103 105 99 91 92 95 95 85 84 80 103 108 105 100 76 87 93 103 101 82 83 95 115 101 76 46 31 1 6 54 44 41 68 64 70 83 84 86 100 89 84 86 85 85 92 91 87 81 78 75 70 69 71 69 68 65 61 57 53 53 49 44 44 37 35 27 21 13 14 10 7 10 11 16 19 31 38 56 67 81 86 98 96 93 109 125 113 98 90 113 104 87 106 97 103 95 100 107 103 92 82 90 92 101 100 103 82 87 93 105 99 83 89 99 110 92 63 39 24 12 28 53 79 60 64 69 65 82 88 88 99 100 85 87 84 82 91 86 78 80 75 72 66 61 61 60 58 57 53 49 52 43 43 38 35 30 27 21 19 13 10 8 11 11 16 22 24 39 55 72 75 89 103 96 98 101 115 119 109 97 94 111 113 92 104 100 95 103 97 106 99 96 81 92 92 96 94 94 82 81 99 105 100 91 88 108 104 84 47 36 30 42 16 59 109 82 65 55 59 80 82 97 93 97 90 85 84 86 87 78 75 77 77 69 64 57 54 53 53 47 46 39 43 35 29 30 26 25 20 14 10 10 8 12 18 19 25 30 42 58 73 84 89 98 106 104 107 101 132 132 96 103 88 107 119 109 108 97 94 106 98 100 96 90 83 88 94 90 91 91 84 87 107 105 106 98 79 98 108 69 39 26 57 27 8 79 108 109 78 40 46 71 83 94 97 95 94 85 88 83 88 82 76 77 76 74 62 55 52 51 49 36 38 33 33 33 26 27 26 22 21 13 14 16 21 29 31 34 41 48 62 83 95 100 106 109 113 108 112 114 139 130 92 104 83 101 127 130 115 93 94 108 102 98 97 91 85 85 89 92 88 91 90 94 110 100 104 94 80 102 105 54 35 43 36 19 27 79 121 118 93 63 31 61 88 92 101 93 96 88 84 84 84 86 87 75 76 75 69 63 55 57 45 39 36 35 26 31 30 29 31 25 25 24 23 29 36 42 45 55 58 70 84 105 108 109 115 119 115 110 118 118 138 117 89 95 78 91 125 138 119 98 99 107 114 100 96 95 87 85 85 93 90 92 96 97 103 85 98 89 79 105 75 53 43 23 23 41 32 86 126 122 106 92 43 50 84 87 95 101 96 90 85 81 82 92 94 86 80 80 73 75 64 60 49 51 45 40 36 35 33 33 34 33 34 37 42 50 52 58 59 71 80 99 102 114 112 119 122 124 111 111 114 130 135 91 88 102 75 89 110 129 127 113 100 110 122 115 101 97 94 83 83 89 88 85 94 95 93 77 94 79 69 85 50 65 18 16 38 55 42 96 122 130 115 109 72 44 78 83 89 103 98 92 92 87 85 92 95 87 86 81 78 81 77 73 63 59 55 54 51 48 46 45 42 45 52 60 60 67 66 72 82 92 101 111 115 117 123 131 126 125 118 115 127 139 141 88 78 115 73 85 100 118 121 121 113 119 117 127 116 105 105 87 84 80 85 79 95 95 81 70 85 68 61 56 58 46 5 10 45 71 39 88 123 131 128 107 109 85 90 73 83 87 93 96 95 96 88 90 92 88 86 88 83 80 80 80 76 75 72 69 63 62 63 66 65 71 80 81 84 87 93 102 113 112 112 113 117 128 138 131 131 115 113 120 129 143 149 106 73 100 87 75 91 99 112 119 117 131 120 126 132 124 117 100 89 77 85 79 96 84 74 66 72 60 49 56 57 27 14 24 51 75 46 75 121 137 128 104 118 127 112 96 76 75 81 89 94 100 99 92 92 88 86 85 90 87 88 89 88 90 94 88 89 84 87 91 99 103 110 113 114 119 122 120 110 107 113 120 124 135 138 133 121 108 111 132 117 126 142 127 66 97 78 73 77 75 100 118 111 132 126 127 141 137 122 113 96 85 87 87 86 72 67 63 56 69 74 50 35 40 54 37 65 74 61 58 122 135 135 98 118 139 134 122 91 68 71 77 83 96 100 99 96 98 101 96 93 93 100 103 102 102 105 106 111 116 116 116 121 125 125 124 125 125 116 104 106 117 122 127 131 139 135 122 117 109 126 131 107 115 148 119 81 93 67 72 68 64 91 108 108 123 132 127 142 145 127 117 101 89 93 98 74 80 71 52 76 88 66 58 52 69 88 58 64 65 80 52 113 132 138 94 115 138 143 134 127 76 75 78 73 88 95 101 103 98 106 108 108 107 111 111 118 116 120 119 120 122 125 126 127 126 126 127 121 114 108 110 120 125 127 131 132 139 132 111 112 118 134 131 108 108 150 104 98 87 68 69 59 69 89 104 100 114 136 124 126 138 132 125 111 87 92 99 