P2
92
112
255
169 168 170 168 168 169 172 169 170 169 170 166 169 167 167 165 165 151 150 141 141 150 138 134 125 118 121 117 109 103 102 91 89 84 84 89 82 83 81 75 71 59 58 54 63 59 67 67 68 77 86 98 93 93 105 108 110 114 110 106 108 110 113 117 124 133 149 149 157 160 160 157 157 157 161 163 163 156 163 163 165 167 168 166 165 165 169 170 168 170 167 163 171 170 167 169 168 171 170 172 172 174 172 167 170 169 170 167 160 147 143 140 142 132 125 121 108 102 96 88 89 78 90 76 88 82 82 75 66 59 55 49 36 25 36 32 39 47 51 51 68 74 80 84 91 93 93 96 104 106 108 112 108 105 107 108 112 121 122 139 142 161 159 149 153 158 153 160 160 156 159 163 165 163 167 165 167 165 164 169 168 168 170 167 169 171 167 168 171 169 168 174 176 173 174 168 171 160 166 160 151 138 131 127 139 129 121 95 85 89 85 82 84 81 84 77 68 56 64 68 50 40 27 23 27 18 23 27 23 29 39 32 45 50 52 60 71 69 78 80 95 103 105 111 113 100 105 105 101 115 112 118 128 143 160 156 156 157 159 157 159 159 163 160 164 162 164 168 163 165 164 166 167 165 167 169 168 169 168 166 169 173 169 173 174 172 169 167 158 156 152 145 137 126 120 122 124 114 110 95 83 83 81 77 75 84 78 75 60 52 56 52 39 32 23 20 15 8 19 14 13 9 21 24 33 38 41 59 52 64 75 78 87 96 100 107 110 100 104 114 104 103 122 114 123 128 142 150 152 154 162 170 157 159 164 165 165 161 160 162 163 164 166 167 165 165 166 165 170 169 168 167 166 172 175 173 171 174 167 156 146 142 135 118 119 114 120 117 126 120 103 104 99 76 72 69 70 71 65 57 51 44 57 38 33 31 28 15 4 0 7 12 2 1 4 26 38 36 41 59 54 54 69 76 94 101 106 100 98 96 101 115 114 109 126 126 113 127 138 134 140 137 160 177 174 160 160 165 164 159 161 161 160 161 166 170 165 166 163 164 167 168 169 170 169 171 174 171 167 166 155 138 137 127 122 110 111 108 113 126 128 125 118 108 98 86 74 80 64 60 47 45 49 46 43 37 29 15 25 26 12 7 8 20 17 12 22 33 36 43 36 49 53 54 58 76 95 105 108 102 94 91 100 116 114 116 131 134 131 129 126 122 127 124 133 165 186 172 167 163 164 160 162 164 161 160 165 165 162 168 164 164 170 168 168 171 173 171 171 169 169 162 143 135 132 123 114 110 106 116 120 134 133 129 129 120 105 100 99 83 67 56 53 52 39 31 39 32 26 20 20 14 14 18 24 41 38 36 46 63 56 49 54 51 60 62 65 72 81 95 99 107 108 103 106 118 127 120 130 143 142 142 126 124 109 120 124 145 169 171 172 176 160 163 163 161 161 159 163 163 161 166 164 161 170 167 175 176 170 169 162 171 170 154 139 135 130 120 111 105 103 125 135 137 147 156 147 133 113 95 97 97 90 82 67 58 44 48 45 39 34 35 32 30 30 39 38 58 63 60 61 79 76 67 67 66 70 61 65 73 83 85 97 117 115 113 119 109 123 126 138 130 138 135 143 135 117 119 127 128 139 159 172 175 174 157 165 163 157 159 165 159 163 163 160 163 167 170 173 172 166 164 167 170 161 145 137 126 127 117 114 119 130 149 148 154 160 164 168 142 134 107 107 100 96 91 82 71 62 68 70 63 67 71 64 58 65 70 71 68 82 85 87 93 91 84 92 86 78 74 83 84 84 96 106 123 120 132 132 136 129 138 147 139 130 121 134 136 132 134 131 122 126 140 156 163 162 157 153 159 155 156 163 158 158 164 158 164 167 173 171 167 166 165 170 166 150 134 120 129 124 115 122 143 169 168 163 175 186 188 167 159 150 144 137 120 111 107 109 94 82 90 94 88 92 98 105 96 98 96 96 104 102 117 123 109 109 105 110 100 90 88 100 112 96 104 109 132 136 135 143 140 143 145 153 145 135 121 127 132 143 138 132 124 117 121 137 148 147 152 154 147 149 153 158 159 161 155 161 162 168 170 168 166 166 163 166 152 135 120 125 126 115 121 147 176 186 185 185 212 212 197 178 187 172 167 159 149 130 129 128 115 112 110 110 115 107 115 116 127 134 131 125 129 135 137 141 135 128 125 127 121 113 111 114 125 122 122 115 125 136 135 148 150 157 163 152 154 141 135 125 125 138 144 133 134 122 115 121 126 128 143 156 150 146 153 154 158 161 157 158 163 165 169 168 172 164 158 153 148 134 123 122 104 116 148 166 187 201 202 225 237 219 213 204 201 197 185 178 167 160 157 155 138 135 135 132 134 131 130 127 133 137 148 151 154 157 157 153 151 147 143 138 138 133 123 122 125 125 128 131 127 136 138 142 148 156 158 152 153 145 143 139 126 127 132 131 138 128 119 111 115 129 130 136 149 146 142 149 152 156 159 158 160 165 167 172 171 161 160 154 152 137 122 113 115 149 166 184 194 208 224 238 240 226 222 214 209 201 197 187 182 175 164 157 151 152 161 163 155 154 149 145 150 147 154 165 166 170 171 174 166 170 167 163 160 157 143 138 144 142 139 142 140 146 144 145 145 146 157 151 149 152 150 150 149 139 128 127 134 139 132 117 116 118 124 119 132 145 138 141 144 145 155 152 152 169 172 173 167 160 158 157 153 139 121 114 147 174 173 198 215 228 254 255 241 222 215 210 195 191 200 199 186 184 179 166 167 163 167 165 159 162 165 162 165 161 163 168 174 169 173 183 179 175 175 179 172 168 166 160 161 156 154 153 152 151 148 150 149 147 151 163 147 146 141 153 153 152 140 137 128 140 137 131 130 115 115 120 110 132 147 138 139 140 143 146 151 171 166 171 167 154 157 146 146 138 122 134 169 180 194 213 228 246 252 243 222 213 205 200 193 200 201 187 177 179 180 173 166 167 161 161 163 166 162 166 169 167 170 176 183 181 179 182 186 184 189 195 185 184 176 173 168 167 158 163 158 153 153 154 147 149 144 148 153 155 141 145 148 145 155 150 136 140 145 149 134 124 118 107 109 123 142 138 134 139 131 142 153 173 169 173 162 154 162 145 142 130 130 144 171 181 204 228 243 245 232 216 208 206 195 196 200 198 185 181 173 174 163 161 166 161 160 157 161 166 162 169 175 175 182 187 189 185 184 190 198 196 193 197 194 193 182 180 173 172 166 166 164 157 159 155 152 146 146 147 150 160 149 149 145 145 148 151 149 138 145 149 152 137 128 116 114 119 127 139 132 132 135 143 148 174 173 166 155 155 149 143 132 133 132 154 170 190 215 233 238 229 217 199 200 195 193 198 188 185 170 171 160 165 161 154 162 162 162 164 171 172 173 177 180 184 180 191 192 194 195 196 202 210 204 199 196 191 185 181 180 177 170 171 172 170 157 155 153 143 139 135 137 146 144 150 146 144 143 143 148 159 146 145 153 147 148 134 114 122 119 131 145 139 140 143 148 176 172 156 148 149 135 127 132 135 148 165 192 216 222 229 223 208 196 189 185 187 186 190 184 174 167 157 153 158 152 147 155 152 156 161 166 167 172 173 177 183 177 186 189 197 194 198 203 205 202 202 200 193 194 187 184 176 167 166 165 162 153 142 139 129 126 118 118 123 132 135 140 147 139 142 144 158 161 142 146 153 155 168 126 119 122 128 144 144 141 142 143 170 161 144 153 138 123 122 131 146 164 185 201 209 213 211 199 194 187 177 181 182 179 176 173 164 155 148 148 144 141 138 150 147 152 158 159 159 171 165 170 175 179 179 183 181 187 188 195 196 194 196 191 186 183 176 168 162 158 153 150 148 144 131 121 123 115 115 105 110 111 124 128 132 131 133 141 150 162 151 146 150 166 169 154 123 127 126 137 142 140 146 139 160 147 150 151 128 105 131 136 157 164 183 198 211 214 203 190 186 174 165 172 166 170 161 155 149 147 139 135 130 131 132 146 146 150 152 152 160 165 169 171 171 179 179 179 177 177 179 180 186 183 179 175 172 171 162 153 149 144 138 136 133 130 130 122 111 113 113 105 107 99 108 110 122 126 123 131 136 152 164 149 151 158 169 171 150 134 133 134 145 147 149 141 151 151 159 133 118 118 140 144 154 170 198 218 214 198 192 192 178 159 167 168 165 163 150 141 136 136 125 128 128 128 132 137 142 144 144 147 156 162 166 167 171 175 178 167 166 166 166 166 166 166 161 157 159 158 152 146 138 134 129 128 123 123 126 121 114 108 105 101 103 99 96 98 108 117 118 136 120 143 160 155 154 148 162 171 168 152 145 137 142 154 150 154 148 157 153 132 121 143 145 145 152 195 223 220 197 190 177 175 162 159 171 164 157 146 132 135 125 119 112 126 133 137 137 136 144 147 148 147 155 155 160 164 166 168 162 155 151 151 150 152 154 154 148 148 145 147 141 139 133 127 127 123 121 122 120 120 117 114 106 106 101 98 88 92 99 110 112 126 125 128 153 151 155 148 155 174 172 170 157 149 151 156 152 152 148 161 140 124 137 151 141 155 182 213 221 209 198 174 162 153 152 162 164 156 150 132 124 132 123 111 122 132 141 140 142 138 140 153 151 147 145 148 148 150 152 154 149 145 139 140 139 138 144 141 134 137 138 139 141 134 130 125 127 124 122 120 122 122 118 117 112 107 100 96 91 82 91 97 103 116 125 115 142 149 147 149 156 164 184 180 177 167 153 153 149 153 151 157 132 132 143 137 149 167 202 206 214 207 190 160 160 150 158 170 159 150 137 133 122 125 118 120 137 139 141 144 143 144 146 148 145 141 141 143 144 140 140 145 142 140 137 136 136 134 138 139 131 135 137 141 139 135 135 128 125 127 125 120 119 120 115 117 112 108 98 96 93 79 87 90 95 108 114 112 117 143 142 154 151 155 177 189 173 176 164 159 155 151 149 149 139 130 138 129 160 172 200 203 211 188 165 158 155 152 170 166 147 133 142 130 127 130 126 135 135 130 138 135 135 138 139 142 141 135 136 132 135 134 134 138 140 135 135 137 135 141 142 142 136 137 139 138 141 136 134 133 135 133 128 126 122 119 114 114 113 106 100 98 95 78 78 94 91 100 109 108 96 137 138 149 149 150 167 188 178 174 171 168 173 167 151 144 131 120 136 135 168 170 183 200 192 169 158 145 135 152 158 142 128 131 134 128 126 127 132 126 117 125 125 125 126 128 126 132 134 132 132 129 130 132 133 133 137 139 133 132 137 140 141 144 134 137 136 138 139 143 132 132 135 138 131 132 126 120 115 116 109 106 102 98 97 85 76 94 88 93 116 105 94 107 139 152 149 148 161 173 177 177 167 161 172 182 148 140 129 131 143 142 175 180 197 196 168 151 135 122 123 134 128 115 113 122 119 124 123 119 121 110 115 116 117 120 116 116 116 123 129 124 116 124 122 124 128 128 137 139 135 134 141 139 144 140 135 135 138 135 140 141 136 134 136 137 130 132 127 124 119 113 110 110 105 100 93 86 73 87 88 98 109 115 104 97 138 147 146 141 150 167 175 162 164 156 157 177 141 129 134 141 143 152 172 182 186 183 149 136 125 119 119 121 115 104 105 109 119 119 122 113 105 106 106 110 112 107 111 108 114 113 116 110 111 114 124 122 126 133 135 139 140 140 138 141 142 141 134 140 134 135 137 141 136 133 133 134 130 131 126 122 120 115 108 106 109 104 89 83 76 87 89 96 106 116 112 97 117 138 136 132 140 165 177 161 144 155 152 161 133 126 139 147 154 158 171 176 179 170 137 132 119 114 111 113 104 99 96 101 111 111 111 107 103 104 96 102 103 98 102 103 108 105 107 105 112 115 122 127 130 133 137 140 148 149 147 144 148 143 143 143 140 141 142 144 138 133 131 133 130 128 128 127 119 118 111 108 106 100 94 91 77 87 93 98 99 114 119 101 117 122 131 127 137 147 176 164 145 140 140 153 126 130 145 150 159 151 169 169 179 151 131 128 119 102 107 107 105 95 91 96 103 101 102 102 100 93 90 93 99 95 97 94 99 105 105 110 109 114 120 124 128 133 139 142 145 154 147 148 152 149 146 148 145 144 149 148 142 141 140 136 135 132 126 129 123 122 116 110 111 106 98 98 86 84 96 99 100 110 119 115 106 126 120 116 129 136 160 165 148 137 128 141 123 137 148 160 161 152 160 179 171 147 124 123 116 90 98 102 98 92 91 96 96 90 98 89 86 84 81 87 95 89 95 99 102 111 112 111 111 115 117 121 126 130 137 142 146 151 149 151 151 149 148 146 146 151 153 150 146 146 139 138 137 138 133 133 132 130 121 111 107 113 104 98 88 89 91 95 97 112 123 119 103 118 120 104 122 125 143 155 147 130 131 134 137 148 157 171 169 149 159 180 169 142 120 115 101 90 97 91 89 93 86 87 84 81 78 78 79 83 85 87 92 95 100 103 111 115 120 118 121 123 123 121 123 133 138 139 144 145 145 145 143 140 139 141 148 151 152 148 149 145 141 141 144 142 143 140 138 137 128 118 109 115 113 107 96 88 83 91 101 103 123 118 105 119 115 95 99 114 137 153 147 132 133 135 146 162 159 169 162 146 164 173 157 131 122 109 89 84 82 83 80 84 79 78 79 73 79 82 88 91 91 95 104 107 115 118 125 129 133 134 137 135 136 132 128 133 140 142 147 144 140 135 135 139 137 137 144 143 143 143 147 143 143 148 151 149 151 148 140 139 139 130 122 114 116 117 104 96 82 83 106 103 113 128 103 114 123 95 84 90 114 146 153 135 130 136 154 174 156 168 163 154 151 170 147 131 127 103 78 72 70 71 79 76 74 73 75 82 91 98 107 109 113 126 131 126 131 139 138 148 146 147 145 143 143 144 132 128 131 139 138 132 133 131 133 142 137 146 149 148 150 150 154 152 150 160 161 160 168 165 157 155 153 148 135 130 121 118 118 104 88 73 94 113 107 115 109 114 120 97 80 77 105 141 155 148 129 135 160 171 157 176 167 163 154 164 142 134 120 86 73 65 59 69 64 63 64 62 78 89 96 96 106 122 133 143 150 152 158 166 167 162 156 155 155 155 151 148 138 135 135 133 135 136 134 133 138 142 145 151 156 156 158 151 160 159 165 167 170 172 176 169 165 169 156 161 151 142 147 126 117 115 95 78 82 109 108 113 109 109 116 83 81 84 102 133 142 143 150 137 161 167 169 186 168 170 158 174 155 131 107 79 69 54 58 60 54 66 69 72 86 101 94 106 118 128 142 151 155 155 163 168 172 168 162 162 163 159 159 154 148 144 141 143 137 140 139 140 145 143 149 155 159 161 161 160 163 165 170 177 174 176 176 172 171 176 168 168 168 151 156 140 126 117 95 87 87 106 111 118 106 104 106 75 67 91 107 135 150 137 146 139 159 171 181 192 186 170 164 172 150 127 102 80 55 53 55 54 67 70 67 81 97 104 104 118 130 138 143 153 151 159 162 166 171 164 161 161 164 162 162 162 152 146 146 147 149 149 148 149 149 144 149 154 155 154 157 157 160 158 168 170 171 171 173 169 169 175 171 174 174 166 155 148 138 118 100 80 75 102 104 113 110 103 91 77 62 85 110 126 147 155 141 141 164 172 186 195 173 171 165 163 150 119 104 77 57 51 53 62 75 66 77 94 104 108 108 122 133 133 140 143 148 149 161 170 169 170 167 168 166 165 163 163 160 153 151 157 154 152 150 152 148 145 149 150 153 152 150 152 162 160 164 169 170 168 170 168 165 170 170 166 169 163 153 142 144 126 116 91 80 81 101 103 100 97 85 69 65 70 97 120 140 159 142 142 160 173 194 192 177 185 175 158 145 121 113 82 73 59 59 66 64 70 82 91 102 109 110 124 138 139 142 154 151 147 153 162 169 167 162 164 165 165 160 160 158 155 152 159 158 159 149 148 147 148 151 152 155 155 153 157 161 162 163 166 169 163 160 162 157 158 165 165 164 163 153 141 134 122 115 100 92 78 95 101 98 86 72 55 72 64 87 121 145 148 143 142 154 168 185 189 192 187 168 151 129 124 125 87 54 61 63 68 73 89 98 100 100 105 113 127 140 141 150 151 148 148 152 161 165 164 162 161 161 162 158 157 157 153 157 159 159 154 149 147 149 149 151 148 154 158 161 163 166 164 161 167 169 163 159 159 157 164 172 169 168 165 155 146 144 131 117 100 97 82 86 93 101 94 74 50 64 66 82 122 144 147 144 144 159 165 176 203 192 168 166 140 125 141 129 77 56 83 75 69 94 106 98 98 98 104 116 125 136 133 143 146 145 144 148 149 149 156 153 154 158 153 152 148 151 150 158 162 160 151 145 144 146 146 147 146 146 155 156 160 157 160 159 161 165 163 159 158 151 156 158 155 150 166 158 148 157 158 142 110 102 98 92 103 99 96 79 74 65 70 79 116 155 143 147 143 176 162 183 184 183 157 143 144 139 143 130 89 77 94 86 83 115 108 103 106 105 105 106 119 118 116 121 128 126 124 129 130 131 137 142 146 147 146 143 143 138 150 161 166 165 162 145 137 141 139 141 140 137 146 144 144 142 143 141 147 151 141 146 144 142 146 143 150 148 157 154 151 151 154 158 129 115 112 93 106 114 104 88 87 85 77 76 115 155 154 145 146 182 176 171 175 184 176 152 171 143 157 136 96 94 90 96 91 106 107 115 123 120 114 118 126 126 121 117 120 120 115 123 122 126 124 133 137 132 136 140 137 130 139 148 160 156 154 138 135 138 134 135 136 129 132 130 129 125 124 123 126 118 104 122 121 120 125 128 141 139 121 124 134 136 122 137 137 126 110 106 91 103 93 99 98 97 91 77 116 141 160 145 142 166 168 179 202 191 182 172 169 158 171 131 93 108 104 106 87 115 128 116 115 119 115 118 125 120 117 115 116 114 115 112 111 111 110 115 117 118 127 138 132 131 139 149 158 157 152 138 136 134 129 133 137 125 114 119 118 122 118 115 119 92 95 111 106 108 112 122 129 120 107 113 131 129 122 131 131 112 113 94 96 101 89 90 114 115 88 74 119 134 154 159 148 163 155 182 195 171 157 175 154 173 166 120 88 115 113 119 100 136 124 113 112 123 121 119 119 115 101 103 119 110 115 125 125 115 121 126 121 120 131 147 147 142 137 147 152 147 146 136 133 132 124 129 134 126 126 133 127 130 124 111 124 112 93 111 99 98 98 104 122 121 104 108 126 130 128 137 144 119 113 81 96 107 114 101 114 112 91 101 122 121 157 163 149 165 163 171 179 180 146 169 158 174 145 118 96 114 122 128 126 140 129 123 111 119 119 107 114 112 109 136 149 150 148 147 151 144 131 141 126 131 145 156 150 153 134 143 144 143 136 133 125 125 124 120 126 124 127 121 116 108 113 99 105 97 95 101 95 97 91 101 112 117 118 111 125 135 126 137 140 126 113 89 91 91 112 115 120 103 92 102 111 125 147 164 153 173 170 178 174 181 164 193 169 173 137 125 101 113 121 130 127 135 140 124 116 118 113 102 129 137 150 173 175 168 161 162 171 159 140 143 125 135 151 162 158 147 140 147 143 144 137 136 125 119 114 115 121 130 126 121 112 113 104 96 98 100 107 111 97 90 89 96 105 116 122 115 118 128 129 132 132 125 126 113 114 96 98 111 107 113 115 102 98 122 140 156 159 170 182 183 174 189 195 218 188 165 140 126 86 108 124 133 133 140 138 142 132 114 113 114 139 161 171 185 194 185 172 171 179 164 156 133 123 129 144 146 138 139 134 146 144 149 142 143 140 129 122 126 130 131 132 130 124 117 114 112 108 109 130 128 104 103 109 112 115 111 128 133 134 130 143 145 142 131 136 123 125 115 104 110 103 113 129 106 90 128 151 157 146 178 188 198 188 208 227 219 202 170 156 132 100 125 128 135 131 151 129 147 136 114 117 130 145 171 179 193 197 190 171 171 161 163 151 127 127 144 159 162 150 142 141 156 156 159 150 157 159 140 132 136 128 139 133 144 144 131 136 128 120 127 131 128 121 128 127 122 124 134 142 140 152 141 136 151 163 155 130 122 110 102 107 96 111 115 112 101 98 134 148 158 145 190 198 208 196 206 231 219 212 194 170 138 118 145 133 142 143 161 128 133 131 124 130 144 161 164 175 179 188 186 172 173 162 148 145 116 129 152 181 174 160 164 158 165 160 147 151 156 159 146 142 132 125 147 141 143 128 127 134 124 118 126 117 117 121 110 124 123 122 134 143 153 167 167 149 157 177 179 155 116 101 89 101 83 98 106 113 116 114 137 139 157 145 192 214 203 182 195 209 224 213 219 182 127 107 134 126 125 140 137 118 127 141 133 138 146 167 163 169 186 189 184 178 168 157 156 147 110 149 165 175 160 165 165 163 162 151 135 141 141 151 151 168 134 136 156 148 153 126 122 117 116 114 112 107 109 120 111 110 99 132 131 144 150 163 169 169 162 166 174 162 131 100 85 103 81 86 99 122 136 116 140 143 146 135 189 230 221 177 203 207 224 193 204 173 122 112 123 110 115 134 123 104 132 158 146 136 144 147 163 168 181 175 177 177 161 174 161 148 127 145 160 171 146 155 150 152 156 140 140 129 119 135 157 175 161 146 149 140 146 124 137 111 103 100 91 99 108 109 103 106 99 103 119 137 145 160 159 171 164 154 157 156 133 101 78 93 77 85 93 127 154 128 129 157 133 130 177 209 228 172 211 216 217 180 181 153 124 112 122 105 125 121 111 125 139 167 161 152 134 146 161 164 158 143 141 140 153 140 129 112 133 136 161 144 152 156 147 147 144 135 137 140 131 135 161 162 172 150 132 142 153 140 136 114 91 97 73 77 92 108 96 101 104 98 110 126 124 137 144 157 156 148 167 159 135 121 83 102 93 101 93 137 164 128 128 146 137 137 177 205 211 169 177 203 200 179 182 150 117 108 114 115 135 124 118 111 121 153 140 134 114 131 133 134 140 127 126 126 141 113 107 95 116 128 144 136 154 155 157 153 148 146 137 147 150 142 148 153 177 162 132 145 147 135 114 118 77 71 73 69 91 96 98 96 97 110 103 94 113 117 125 139 149 154 166 163 136 122 87 101 107 100 108 136 147 112 116 126 124 133 187 227 200 175 162 192 197 179 191 163 112 93 117 119 132 139 133 111 122 134 111 115 104 101 107 102 103 112 128 129 124 99 87 95 89 113 128 129 139 139 144 150 156 151 137 137 150 155 143 151 170 176 166 143 152 140 112 121 102 57 65 61 86 92 98 91 75 97 105 101 112 115 120 140 150 156 165 165 146 125 98 99 107 112 117 124 120 112 113 122 102 130 181 226 201 181 169 196 196 166 186 182 120 92 97 109 126 133 133 105 115 118 102 115 117 107 104 98 105 115 120 130 95 95 81 91 88 98 120 128 135 135 148 136 162 144 126 117 130 139 145 163 165 167 175 161 142 126 120 110 90 73 53 61 85 110 109 108 87 102 109 111 116 114 132 155 150 160 165 165 153 142 104 103 107 117 118 114 110 119 132 114 100 125 171 203 202 194 187 181 191 157 170 177 128 94 84 113 127 134 143 107 112 111 89 107 116 119 114 105 116 111 100 99 89 85 96 81 83 91 103 109 112 127 131 130 150 135 114 126 118 133 155 171 148 135 149 157 124 108 115 101 88 70 50 46 75 97 91 106 109 114 117 124 136 126 153 167 157 159 164 166 173 150 107 115 103 108 89 111 111 135 144 113 97 124 154 189 185 209 205 179 196 170 145 176 133 89 83 114 135 135 141 110 118 129 98 106 113 112 115 112 118 112 103 101 92 89 88 85 86 90 94 106 118 121 99 110 121 111 110 120 111 113 136 148 139 120 123 122 113 115 107 94 82 77 68 62 78 90 111 124 125 130 134 141 147 142 173 176 169 167 166 183 192 152 117 118 107 96 81 113 109 151 141 108 94 117 140 172 184 223 216 203 215 200 153 146 139 92 96 119 123 120 122 114 108 123 106 95 106 108 118 112 104 103 94 90 78 75 76 95 94 107 111 121 116 97 73 95 100 102 102 110 115 114 139 138 138 125 129 125 106 106 101 95 93 95 99 91 97 97 110 129 143 139 141 152 158 173 190 184 186 179 176 185 194 164 114 130 110 99 115 119 113 144 131 97 100 108 127 145 169 243 231 223 215 221 166 133 145 102 100 126 134 130 120 119 109 117 123 99 121 128 122 119 112 104 107 103 78 79 87 100 95 107 112 112 94 76 83 98 105 107 105 100 110 122 135 138 128 134 139 145 125 123 100 95 90 103 104 117 122 119 119 122 137 139 149 170 173 179 190 177 188 183 182 182 198 166 113 128 123 116 127 138 129 133 112 81 104 99 125 122 141 238 228 209 199 221 177 141 150 110 111 126 136 130 127 116 112 112 117 107 110 119 117 106 106 104 105 90 83 90 102 100 94 96 109 104 95 97 108 110 111 118 112 108 114 129 140 152 142 156 157 156 154 131 124 100 106 98 102 106 127 130 143 143 148 159 161 176 178 181 184 180 191 187 186 182 194 162 121 137 152 126 142 153 146 135 95 79 106 95 139 107 128 232 224 181 194 196 170 145 147 111 113 125 132 113 125 115 104 106 117 126 110 118 114 99 94 96 93 89 100 111 110 112 105 110 113 104 107 116 113 123 122 120 116 111 121 122 140 147 152 159 169 168 164 152 131 117 121 119 113 110 122 126 138 145 145 156 166 167 171 178 177 184 189 186 186 181 180 157 131 149 158 132 127 148 147 129 86 79 108 102 125 95 113 218 221 181 186 197 161 148 132 111 122 123 118 112 113 117 114 114 121 124 116 103 99 98 102 103 99 101 107 117 109 104 102 102 104 109 122 127 131 128 121 125 128 125 114 128 141 159 163 161 158 174 164 152 135 116 114 115 110 113 119 122 142 144 150 153 164 168 169 168 164 179 186 187 177 168 167 159 131 152 143 129 127 150 127 123 75 85 105 95 114 75 107 173 226 195 187 195 162 156 119 115 111 125 116 112 107 119 110 117 110 104 107 102 99 93 104 107 106 108 114 111 109 114 110 107 114 121 135 144 141 127 119 131 130 123 120 119 140 155 154 153 156 162 168 148 127 113 111 112 102 108 111 116 118 136 137 139 136 154 158 155 168 165 180 175 166 161 168 156 135 138 125 129 127 147 127 110 76 90 87 95 110 61 76 140 188 209 194 186 171 156 123 121 115 119 113 109 105 101 104 107 104 98 98 99 101 98 103 103 110 106 119 114 116 126 118 118 122 126 132 138 137 129 128 134 126 115 114 114 120 131 141 136 141 152 160 147 114 108 101 104 99 99 105 109 111 119 120 128 132 142 146 151 154 159 171 171 163 160 157 148 145 143 135 136 126 145 127 113 69 90 82 93 112 71 53 113 141 194 217 179 166 154 141 137 127 116 111 104 105 92 98 108 102 88 88 92 100 106 109 123 121 116 110 116 118 129 120 118 142 144 139 148 143 137 130 138 124 123 114 110 113 123 129 115 135 142 147 144 124 102 98 98 104 101 95 104 107 112 112 116 122 131 141 142 151 156 167 158 159 162 144 141 144 142 132 108 122 130 135 106 71 89 77 96 106 93 60 106 117 150 209 181 162 149 150 145 139 122 110 105 106 97 91 98 93 89 92 89 92 97 101 109 119 115 115 129 130 135 128 135 154 160 153 153 143 138 131 123 129 121 113 110 111 125 119 121 135 142 129 116 104 97 89 86 87 93 93 84 93 99 103 112 115 122 129 134 147 147 151 150 156 154 127 139 140 130 121 102 127 122 145 98 79 88 77 80 101 111 68 106 108 145 176 178 179 154 149 151 140 126 112 108 106 96 98 90 89 84 94 92 97 102 106 117 120 117 124 125 122 127 137 143 148 150 151 151 145 142 134 122 115 109 112 114 114 125 123 127 148 150 129 110 98 95 92 83 81 80 83 84 80 83 86 99 106 116 133 141 148 149 152 150 152 145 123 140 138 121 101 113 131 121 140 101 83 79 76 73 102 99 80 104 103 133 162 158 174 155 132 146 139 125 114 110 105 104 100 90 84 91 82 82 94 98 106 117 114 117 130 130 129 133 139 141 139 138 143 140 135 132 130 114 109 104 107 115 111 118 113 125 136 152 141 130 110 100 97 82 68 68 73 69 78 80 78 84 99 106 118 129 134 146 150 149 155 137 128 147 135 117 99 136 149 129 132 106 88 82 81 73 106 89 95 96 99 117 156 160 160 161 136 143 144 121 114 115 105 110 104 95 97 98 100 102 102 108 118 123 122 124 131 126 120 124 113 129 135 135 139 139 133 130 130 115 109 106 105 99 99 103 102 112 141 150 145 134 119 111 111 88 66 59 68 69 69 75 74 90 97 110 125 129 141 151 153 154 153 133 137 155 135 123 120 158 158 126 124 101 92 90 78 77 96 91 93 91 78 86 160 157 152 163 142 138 145 129 114 114 112 112 108 100 107 109 117 126 122 126 134 131 132 129 129 126 113 116 110 117 121 135 138 141 136 138 135 126 114 106 105 98 95 87 93 98 116 134 138 132 122 116 121 103 75 66 69 66 69 69 77 92 98 112 127 126 147 151 155 151 150 137 154 152 132 117 131 160 164 117 109 91 96 89 76 72 93 97 109 76 71 68 144 169 132 153 144 155 139 125 114 109 112 111 104 104 111 121 123 133 130 143 140 133 136 130 134 130 128 125 131 133 134 138 138 140 129 126 121 118 123 109 104 105 99 95 95 101 111 125 135 131 125 119 112 106 95 77 70 69 68 68 79 94 106 115 128 133 147 148 149 148 152 147 161 150 136 118 144 161 153 109 97 84 93 82 72 70 100 101 118 92 68 63 103 168 131 141 137 163 145 128 117 112 109 108 108 108 117 126 128 142 138 157 150 138 135 128 131 129 134 140 146 151 143 141 144 139 131 126 121 119 120 116 111 102 96 100 104 112 123 130 137 142 142 137 129 121 111 97 86 76 86 88 96 102 111 122 130 136 151 149 152 149 148 150 165 144 136 119 145 154 150 116 91 77 89 74 63 70 103 119 122 101 77 85 94 150 144 141 151 157 155 136 127 112 108 108 110 114 120 128 131 140 143 152 146 140 125 123 133 134 139 154 157 163 149 141 147 135 132 122 131 127 129 125 115 111 104 102 113 123 128 136 144 151 153 146 141 131 127 117 104 95 108 103 113 118 119 125 134 141 150 158 155 151 147 155 169 147 124 116 155 156 149 110 79 74 71 75 61 76 93 123 122 108 114 97 114 146 139 141 162 161 164 135 126 111 109 108 115 122 124 134 137 136 147 145 133 133 124 122 129 142 156 158 160 156 154 147 148 139 137 138 133 142 137 133 126 123 117 121 119 131 143 144 157 164 157 149 150 147 144 132 127 114 115 115 115 120 130 135 138 147 155 163 160 157 151 160 171 150 134 143 164 156 132 104 70 67 73 73 64 73 96 108 123 108 126 108 128 149 149 150 162 173 170 140 126 106 101 104 114 122 127 129 130 134 141 136 133 136 130 134 149 164 159 161 157 157 161 161 158 150 152 156 152 149 140 135 135 134 133 130 133 140 154 159 156 164 151 144 139 141 138 138 134 128 122 119 115 116 132 140 143 152 165 163 161 151 150 159 165 159 142 151 152 129 130 105 68 61 73 77 63 81 100 100 118 110 109 128 132 144 143 151 166 169 168 142 126 112 102 99 112 120 121 121 128 130 127 127 131 134 142 151 164 165 161 158 150 160 162 165 167 155 159 169 166 170 166 165 164 163 156 153 153 149 157 157 150 161 156 142 138 135 131 133 137 136 132 129 120 117 133 141 154 156 168 164 158 153 155 169 160 151 137 144 131 121 104 99 58 64 72 75 56 76 96 100 113 120 110 133 141 140 138 142 165 170 163 144 126 113 97 97 109 114 106 113 120 128 123 132 129 140 153 158 165 167 164 156 157 168 167 179 181 176 183 181 187 187 186 183 187 182 171 177 169 154 156 148 147 154 149 144 143 131 129 127 129 139 129 136 131 120 131 145 158 159 165 162 158 156 158 178 159 147 148 136 127 115 87 82 54 69 65 65 57 80 98 99 109 128 124 122 145 142 132 131 151 165 168 148 124 115 97 90 104 103 96 105 117 121 118 128 129 145 166 154 164 163 165 155 155 167 174 187 185 184 188 189 194 191 180 183 183 183 171 166 160 159 154 143 141 142 139 132 140 135 129 123 124 126 123 129 128 124 131 144 158 158 163 161 157 153 163 178 149 138 138 128 124 103 85 75 64 58 64 62 61 80 111 96 112 126 126 137 129 138 122 105 124 150 162 148 124 113 99 90 96 92 96 103 109 115 118 126 130 153 159 152 158 160 156 150 156 158 178 183 186 188 184 187 188 183 180 179 175 178 162 165 169 167 162 148 148 143 140 134 131 133 123 121 112 117 113 121 131 126 131 142 160 157 159 156 157 150 168 168 136 125 126 119 114 82 78 71 68 54 70 60 63 82 110 103 113 126 130 145 129 127 116 111 108 124 143 153 120 114 95 87 87 90 94 98 103 110 119 127 137 162 162 165 160 164 155 155 159 157 174 190 190 191 184 192 192 177 178 174 160 166 166 173 163 166 168 162 158 155 150 144 133 140 127 120 109 109 114 123 129 133 137 150 159 154 158 153 154 153 165 150 123 117 118 112 92 70 63 61 59 65 68 66 63 77 106 110 112 123 129 145 131 130 118 113 106 116 130 143 111 106 98 86 86 87 93 98 103 108 123 129 153 167 177 180 185 177 172 164 160 158 164 182 184 193 181 187 182 174 174 171 158 159 162 189 175 170 173 172 175 162 153 146 142 138 123 116 106 101 112 121 124 133 140 152 156 157 151 153 148 151 164 130 115 103 102 104 79 54 47 53 63 72 72 68 70 73 106 110 117 131 127 133 135 132 125 114 106 116 125 138 111 98 91 82 80 87 91 99 105 124 143 155 173 188 181 188 189 193 191 181 167 170 162 174 180 172 177 183 181 169 164 163 153 151 150 159 175 174 177 174 183 164 155 145 140 131 127 114 102 102 106 119 117 125 135 150 155 156 154 152 138 149 147 117 104 96 105 104 76 49 47 59 72 84 77 66 77 73 103 107 122 129 133 134 143 132 135 119 115 118 126 135 115 93 86 78 78 84 86 104 115 143 158 174 181 185 173 176 180 170 180 179 170 167 166 167 163 155 166 164 163 153 158 155 151 148 138 146 161 163 173 166 175 161 164 157 152 146 141 135 119 115 108 121 112 127 122 147 155 152 154 152 137 142 123 101 96 93 102 98 57 51 48 58 79 93 76 65 80 77 107 108 120 125 130 135 144 142 143 134 124 122 116 120 119 86 85 79 78 84 90 106 118 139 154 159 167 163 168 159 163 150 145 146 147 144 143 149 141 137 143 158 152 162 168 154 142 136 135 140 142 160 162 168 177 175 173 164 164 161 153 139 125 130 113 119 119 116 124 140 147 148 146 146 135 128 106 88 94 83 98 84 54 51 54 63 79 103 84 62 77 81 121 113 116 122 125 139 137 143 144 131 121 117 111 114 121 86 88 81 83 90 91 103 115 127 143 147 157 145 149 141 138 131 120 124 121 134 133 123 130 124 122 138 142 140 153 145 130 122 138 140 148 150 155 168 168 166 163 159 155 160 149 137 128 124 113 110 119 115 121 136 142 142 139 136 126 115 97 86 88 83 92 74 59 53 59 65 86 102 86 68 74 77 114 118 116 119 125 132 135 126 140 123 116 112 105 108 117 91 82 78 92 92 86 105 112 121 132 135 147 137 144 143 138 136 121 122 121 141 137 125 124 116 118 122 138 128 133 134 126 119 129 129 130 142 147 153 160 159 150 158 157 158 145 134 131 122 123 115 121 124 123 125 139 141 129 132 116 108 90 81 78 76 83 62 66 65 66 74 85 102 93 73 70 73 109 114 120 120 125 133 108 120 136 132 107 107 102 103 109 95 82 83 90 93 85 100 106 114 128 128 144 144 151 146 156 154 146 138 144 170 174 166 170 161 165 162 169 159 159 159 156 160 151 147 124 139 158 151 164 165 158 158 159 156 144 141 133 120 130 119 125 121 121 121 133 140 125 120 120 106 86 80 76 75 76 64 71 70 72 84 81 91 96 78 69 64 110 115 121 129 136 111 93 120 138 139 112 107 95 98 107 96 80 82 89 90 89 95 102 114 119 120 132 134 143 140 139 137 139 141 150 166 181 180 190 184 193 174 179 173 178 178 173 168 163 153 151 152 161 157 165 153 158 161 156 152 137 137 130 121 124 116 120 116 118 120 131 133 122 114 127 100 82 87 75 73 64 66 75 71 82 79 79 85 99 77 67 66 123 124 126 141 125 90 94 124 135 146 127 111 98 106 104 98 84 83 86 94 99 90 96 107 115 109 113 119 122 118 111 114 122 134 141 150 166 176 183 185 183 172 172 174 170 181 167 165 158 160 162 162 160 169 155 148 151 159 154 142 134 123 123 126 126 118 113 116 120 122 131 134 115 117 125 95 79 90 72 74 59 70 79 72 90 77 73 78 98 91 66 68 128 133 136 128 102 89 103 121 142 151 136 111 108 105 105 98 93 85 92 101 101 92 86 99 108 106 103 104 102 91 83 91 101 112 119 132 146 155 158 167 168 162 151 148 143 160 159 152 153 152 153 147 149 159 152 150 147 151 146 137 129 122 118 121 121 120 114 121 120 123 129 127 113 131 122 94 81 90 76 69 58 75 79 86 91 79 71 78 93 96 76 70 129 136 136 109 91 92 110 123 140 156 136 114 112 107 106 102 100 96 88 99 105 91 83 97 97 106 106 93 91 83 80 88 99 103 105 119 135 145 152 160 162 160 152 142 139 146 142 142 139 137 135 128 133 134 134 131 132 134 131 127 122 117 111 111 115 116 117 121 121 123 124 128 117 134 125 90 86 88 76 65 63 77 85 100 92 79 75 75 98 104 89 72 132 134 113 93 87 99 117 119 135 158 137 117 112 109 117 110 108 105 87 99 112 96 88 90 96 100 100 91 84 77 75 87 98 113 117 122 127 139 150 166 164 162 160 150 146 148 145 139 135 132 127 129 128 129 128 126 123 127 122 121 119 108 113 110 112 118 116 125 122 119 123 134 125 136 125 91 93 87 75 63 75 77 86 106 94 74 87 76 86 99 96 84 135 118 89 87 93 106 113 118 124 152 143 117 116 111 127 121 121 112 96 101 117 104 90 97 93 94 93 91 83 72 70 76 90 106 116 119 133 143 155 162 163 164 162 157 157 151 149 152 145 146 138 139 140 140 134 130 125 118 117 124 117 111 111 115 114 116 123 124 124 119 128 143 121 143 127 103 95 90 86 69 87 85 84 90 90 90 89 78 89 95 99 92 114 97 87 92 99 108 107 112 117 145 145 120 126 110 127 139 133 111 105 93 112 111 95 95 97 99 94 85 90 81 73 75 85 92 95 119 135 148 151 158 162 162 160 157 155 152 154 159 154 151 147 155 153 146 136 136 125 123 117 123 111 111 110 116 117 123 129 125 125 124 136 143 126 148 140 102 100 107 91 88 103 100 84 74 101 98 104 82 91 97 97 98 96 96 93 95 105 115 102 107 122 136 140 125 127 122 127 145 133 109 110 97 115 121 104 97 102 102 106 93 89 84 85 86 87 89 99 117 138 151 157 169 168 167 161 162 160 156 155 157 157 155 155 158 149 143 141 139 133 129 126 122 119 116 112 122 125 127 125 125 125 131 140 154 126 153 151 96 104 120 103 112 127 124 104 77 102 112 116 102 104 113 112 107 94 100 94 97 119 118 92 103 124 127 135 129 131 133 137 137 138 112 102 109 107 127 123 111 107 109 110 117 103 103 96 100 108 110 124 140 148 161 166 172 174 169 166 166 168 164 159 158 158 155 162 154 152 143 143 144 135 134 125 121 120 123 125 127 131 128 124 127 129 137 149 153 130 164 155 95 111 114 124 134 149 132 123 97 97 125 124 122 128 126 123 122 107 102 102 116 132 119 91 104 124 122 134 137 134 133 140 129 135 113 100 101 112 129 130 128 126 114 120 126 125 125 120 115 121 130 140 148 153 167 179 189 193 186 185 185 185 177 174 166 167 162 164 160 157 151 150 144 140 132 124 126 123 129 126 125 130 133 125 132 139 141 156 151 136 165 145 98 109 112 131 156 165 142 132 118 112 117 136 138 141 141 137 131 109 100 103 128 138 107 88 108 123 123 123 144 137 138 136 134 126 107 95 102 114 128 129 135 130 128 129 124 128 135 134 136 136 143 152 159 163 179 185 195 193 197 193 192 189 181 179 172 172 171 166 161 156 155 153 148 143 134 131 131 127 128 130 130 134 137 134 138 145 150 160 155 138 156 142 97 106 115 140 167 172 149 144 139 129 117 126 143 157 153 148 146 99 101 104 130 135 87 88 109 120 109 126 143 144 145 131 123 126 116 91 104 121 122 126 135 125 128 127 128 116 127 128 126 133 140 146 153 161 171 172 181 182 184 179 178 181 177 174 173 172 167 162 153 150 144 142 141 137 134 132 132 130 132 135 133 136 138 137 145 150 159 168 155 148 152 139 93 107 117 153 172 172 146 152 156 150 137 126 149 165 175 162 159 91 102 107 131 123 76 86 99 110 102 126 146 152 148 128 115 116 120 95 98 121 123 120 127 133 124 127 126 112 110 108 108 114 129 138 144 147 155 156 162 166 163 161 165 169 165 163 166 166 161 151 147 142 136 134 128 132 128 129 132 126 131 136 135 134 133 141 150 160 161 174 158 156 160 140 98 109 125 161 176 172 152 163 171 164 145 142 150 167 180 177 176 89 100 112 121 102 67 77 85 97 108 127 146 158 149 123 108 111 118 97 94 112 122 120 125 139 131 123 127 118 112 106 104 107 120 123 133 139 146 145 150 150 150 153 153 156 159 160 157 152 144 141 132 129 130 129 129 132 131 126 126 127 131 134 132 133 135 145 158 164 168 182 158 165 163 149 113 110 140 159 177 170 167 166 188 187 159 151 158 163 173 173 181 91 98 104 105 92 74 69 79 91 113 133 144 164 141 113 109 95 100 101 100 102 118 120 126 141 137 127 123 116 118 105 102 110 112 114 114 119 126 129 132 132 134 142 138 142 141 142 142 135 127 129 126 122 125 128 129 131 131 126 130 131 130 131 134 133 144 149 155 166 170 172 154 167 169 151 119 119 150 155 170 180 165 160 181 181 164 154 161 160 166 172 166 87 93 96 97 88 68 58 72 96 115 141 156 167 129 127 108 76 96 100 110 106 115 119 128 138 138 127 122 118 117 110 104 106 108 103 101 109 108 111 111 115 118 119 122 125 122 122 117 116 112 113 117 115 117 124 127 129 128 130 128 125 129 131 133 136 142 149 155 172 178 166 170 178 175 134 121 136 160 156 155 168 167 156 168 169 164 154 154 168 157 170 168 79 86 92 91 80 59 68 77 105 117 150 168 147 151 131 98 81 83 105 114 121 116 122 137 135 136 131 120 120 118 110 104 102 101 99 96 99 103 95 99 102 101 105 105 105 108 104 104 101 98 104 106 108 113 118 122 127 124 124 121 121 121 129 124 139 146 147 163 170 183 177 174 171 170 135 126 156 175 167 148 158 170 159 160 165 173 157 150 166 163 165 168 72 76 82 86 74 71 79 82 106 122 162 161 145 154 121 98 91 86 101 111 123 131 126 143 140 135 133 125 120 119 111 107 98 95 94 98 94 95 90 89 93 90 92 93 90 96 93 92 88 93 97 101 105 111 117 119 119 116 113 114 117 121 120 128 141 139 148 164 172 183 182 163 162 159 139 126 171 172 166 160 162 171 159 154 164 173 165 153 154 171 164 169 65 66 79 81 71 74 69 88 109 127 170 165 156 129 117 94 99 102 101 108 124 138 142 138 142 147 136 126 120 116 110 112 104 99 90 94 93 95 92 86 85 89 87 89 86 90 90 88 87 92 100 101 100 104 114 116 109 106 106 110 118 117 123 135 139 139 145 158 175 186 177 161 151 159 142 129 159 174 162 172 175 188 179 153 161 168 182 169 161 175 169 168 72 66 79 64 68 72 81 98 117 132 183 154 146 114 114 101 113 111 112 111 121 148 145 147 141 147 146 137 124 120 118 119 116 108 101 98 95 98 93 94 89 89 86 87 87 91 91 93 94 100 100 102 101 110 109 108 107 106 108 116 117 121 131 133 134 144 155 160 176 186 163 168 149 154 146 133 145 169 156 174 186 205 210 192 168 173 197 192 187 185 195 195 68 79 87 63 82 88 106 124 114 150 185 169 140 117 124 114 111 121 119 118 120 144 143 148 147 143 151 144 138 132 124 121 121 119 119 119 112 108 107 105 103 100 98 95 95 97 99 102 107 103 104 108 116 113 107 103 107 107 114 116 118 127 129 136 135 146 153 163 177 178 151 163 160 165 146 128 143 162 138 158 187 209 219 201 170 177 199 197 188 177 188 200 79 89 86 87 104 121 147 136 116 166 167 180 141 110 132 126 110 111 124 129 123 134 144 145 148 147 145 148 143 146 136 123 121 122 126 129 131 125 123 122 120 122 118 117 112 111 110 112 114 114 113 116 111 110 102 109 108 112 109 119 127 133 127 139 145 148 155 161 178 172 151 167 169 165 153 134 145 150 142 153 171 191 218 212 188 179 186 207 189 179 184 196 104 129 119 124 121 136 133 117 126 161 158 187 143 110 132 141 109 111 129 145 130 130 139 141 148 145 150 150 142 146 142 131 116 121 123 127 129 133 144 141 141 136 132 132 132 131 131 128 129 127 123 121 116 109 107 108 107 113 114 124 133 132 129 144 146 156 160 161 179 174 163 179 179 163 149 138 137 148 147 148 160 170 200 209 211 187 188 219 216 194 190 196 119 135 117 110 98 110 110 103 120 140 167 176 154 123 119 161 122 118 134 154 135 131 133 137 133 144 148 154 141 142 140 139 128 121 122 127 130 132 142 146 146 144 145 140 137 134 131 130 129 129 127 123 120 108 105 106 108 111 119 124 131 129 136 147 147 159 159 161 187 177 172 186 180 160 150 142 139 152 156 144 152 169 182 200 207 184 184 203 226 211 204 196 