P2
92
112
255
95 93 93 95 94 92 91 92 92 93 91 96 93 95 96 97 94 107 106 114 114 108 117 122 132 139 140 145 153 161 159 168 172 177 176 171 179 177 179 185 189 200 202 206 197 198 192 188 186 178 168 154 163 165 155 152 153 150 153 156 154 153 151 149 141 134 121 123 115 109 109 112 113 112 106 104 102 109 101 101 100 97 97 99 98 99 94 96 96 96 98 101 91 93 96 94 94 91 94 90 90 89 90 95 92 95 93 95 99 110 114 116 112 126 132 139 154 162 168 176 174 188 175 186 174 178 178 188 196 202 206 209 222 232 222 227 221 212 207 208 188 182 176 172 165 162 163 164 158 157 157 152 155 158 156 158 154 144 143 132 129 111 112 121 118 112 118 109 106 109 106 102 99 101 99 100 97 98 98 95 96 97 95 97 93 92 95 95 92 93 95 89 87 89 88 94 92 102 98 102 107 117 124 125 114 126 137 167 177 175 180 183 182 184 180 186 194 206 198 192 210 220 231 235 228 235 234 230 234 227 217 223 210 201 202 198 186 187 177 176 164 157 158 152 150 164 158 159 167 153 156 150 141 124 112 116 115 113 112 113 109 108 100 104 99 102 102 99 103 99 100 97 97 100 97 97 94 93 94 95 94 90 94 92 89 91 93 96 104 106 109 115 121 127 131 131 132 144 152 170 182 182 185 190 190 179 184 188 202 210 204 206 219 223 233 234 238 245 235 244 243 244 231 227 223 213 210 195 204 191 181 178 171 164 161 155 154 164 161 150 163 166 147 155 145 140 125 118 117 116 108 97 112 110 100 98 99 103 106 105 103 101 98 98 98 100 98 99 93 93 95 94 96 91 90 92 92 89 95 106 114 118 124 138 135 137 129 137 134 138 157 159 166 187 191 194 193 193 196 203 207 213 198 218 222 223 223 238 249 254 248 243 255 246 244 223 212 215 213 193 198 200 186 178 162 158 152 160 164 165 160 147 152 159 139 141 154 143 131 135 127 130 107 89 93 107 106 100 99 105 104 106 106 105 100 96 99 96 102 99 95 95 93 93 94 93 91 94 96 96 106 122 123 130 137 146 142 145 141 132 132 133 141 152 162 174 188 182 197 200 212 213 206 208 211 214 224 237 226 224 237 246 249 235 236 236 225 219 218 208 215 203 201 199 197 180 159 150 146 155 164 168 159 141 148 148 132 129 133 138 143 146 142 142 131 99 77 95 100 101 101 103 101 101 104 107 101 101 103 96 100 100 91 95 95 92 91 94 92 94 92 98 116 123 126 134 141 145 149 138 138 124 125 129 130 138 153 159 162 177 193 203 207 206 214 223 214 221 226 234 233 237 233 233 229 216 216 214 205 187 193 199 192 200 193 191 188 184 174 158 152 146 147 151 150 137 130 140 131 118 121 124 143 145 159 145 139 117 92 93 95 90 104 102 100 103 103 106 102 103 104 99 100 103 92 96 89 89 94 95 101 92 92 106 119 123 125 132 143 150 152 135 125 124 115 105 112 125 150 166 164 163 169 180 194 200 209 205 208 213 215 213 212 215 215 206 211 193 188 188 190 174 169 180 179 182 179 190 186 180 172 169 155 133 138 140 135 145 132 130 123 129 121 130 126 134 152 147 135 133 122 103 92 90 92 107 98 101 106 106 99 106 104 103 105 100 96 92 92 92 97 99 96 92 99 112 121 130 129 136 142 136 131 114 116 110 105 98 93 116 125 152 155 161 163 168 178 185 193 187 184 189 185 177 182 189 184 179 180 186 171 163 163 160 161 164 158 165 172 175 168 167 169 158 146 131 133 121 122 119 127 118 109 117 128 143 133 130 139 132 132 142 137 121 106 99 103 109 110 105 109 109 102 106 107 103 108 100 96 91 93 95 97 97 92 95 106 122 137 126 134 143 136 119 95 97 102 91 80 76 96 99 108 115 124 142 148 153 152 165 176 168 166 168 163 153 145 153 155 158 158 151 155 136 128 141 143 145 139 150 160 161 150 138 156 152 144 120 117 119 112 116 112 113 100 109 122 139 135 133 125 127 132 141 146 141 126 116 115 111 111 116 114 111 107 105 103 112 105 103 96 93 94 96 97 101 94 105 121 136 135 136 148 139 115 90 80 81 80 53 52 62 81 72 85 92 101 111 131 132 131 145 148 149 149 143 151 143 137 127 120 122 130 125 118 118 112 116 123 127 121 128 136 138 136 123 125 131 139 128 116 118 106 105 100 95 103 100 116 122 134 133 124 121 134 132 139 148 142 137 134 118 106 114 116 109 109 106 104 107 108 102 99 94 93 90 98 102 104 110 124 135 141 158 146 116 102 83 67 67 41 27 43 47 55 58 62 74 80 91 100 102 103 122 124 126 128 129 131 132 132 125 119 103 100 97 95 95 98 100 103 108 114 111 115 126 127 122 120 121 118 124 113 114 110 105 98 96 102 100 112 115 118 133 130 131 135 126 136 143 153 148 133 130 125 114 117 120 115 111 108 105 106 106 97 94 88 91 99 98 104 105 122 140 148 148 117 103 87 76 60 45 27 22 35 36 45 50 59 62 70 76 85 96 104 114 112 102 101 107 108 112 114 109 111 102 88 89 86 81 80 88 81 84 91 91 93 105 111 104 103 108 108 110 107 106 106 106 106 95 101 105 103 106 106 106 118 131 138 131 125 134 148 147 144 139 141 130 119 124 121 118 120 110 112 112 93 89 88 95 98 99 102 106 120 141 148 121 99 99 75 59 42 15 11 21 37 43 48 63 66 59 62 75 77 83 97 98 102 97 99 101 99 93 97 93 97 95 89 83 88 86 75 77 80 77 73 78 82 83 89 87 91 95 97 96 101 103 99 101 103 101 90 103 107 112 100 99 101 118 124 135 125 128 134 137 152 150 142 151 132 119 123 123 122 122 119 114 92 94 88 91 102 100 109 109 120 139 132 104 94 81 61 44 22 15 20 40 46 53 59 66 60 62 77 86 85 83 90 96 96 101 99 96 94 96 91 89 91 86 82 75 74 77 72 67 68 64 56 64 65 74 76 80 82 90 86 89 97 96 95 102 101 106 104 97 97 113 111 102 108 98 105 123 126 125 119 134 147 151 156 152 138 124 128 129 123 132 124 111 86 92 83 94 104 94 110 113 129 134 123 99 92 70 46 29 23 31 46 53 54 64 65 63 65 77 81 88 87 97 99 92 97 97 100 96 91 94 88 81 81 73 67 68 67 67 64 52 53 58 52 54 52 64 66 72 74 79 81 83 92 90 94 99 105 105 106 103 92 104 109 109 108 104 101 108 124 122 122 116 132 143 150 149 143 138 130 134 130 126 120 116 86 86 90 101 101 106 112 126 129 139 119 105 88 64 39 32 36 46 62 59 62 66 65 76 77 90 88 98 92 95 103 95 96 94 91 83 82 79 75 73 71 73 61 60 57 55 54 49 39 45 46 46 51 56 61 60 65 71 72 76 79 92 95 97 107 112 121 119 109 112 111 114 114 113 111 108 103 118 122 112 120 119 137 150 142 140 136 123 126 120 117 114 85 84 98 109 105 117 130 130 129 125 112 89 65 54 42 46 59 69 75 75 74 78 74 76 87 92 100 103 98 102 108 100 103 96 90 83 81 75 74 69 67 74 66 65 55 57 54 47 42 42 43 41 48 45 53 56 65 72 76 83 85 96 108 110 120 125 139 142 138 130 127 124 116 122 117 116 102 104 123 119 109 110 103 140 146 139 134 124 123 123 118 116 87 94 110 102 116 131 137 132 122 111 97 83 70 62 61 71 73 79 87 81 83 86 88 89 97 106 111 111 112 114 115 103 103 97 89 84 84 75 79 73 72 70 71 68 70 65 63 55 53 52 48 52 58 60 68 75 83 87 94 100 101 107 121 131 131 139 141 156 154 154 140 138 133 131 130 123 112 102 114 117 111 95 94 110 142 136 137 129 126 128 119 122 95 107 104 105 123 149 130 128 113 110 96 84 68 62 69 80 82 94 99 95 100 96 104 107 114 115 123 125 125 121 120 105 101 94 90 90 82 82 76 75 74 70 71 71 74 75 73 70 63 64 68 72 73 73 82 93 97 107 112 115 119 124 128 135 148 146 147 160 160 168 160 158 146 138 143 134 126 110 99 113 109 102 91 92 111 129 131 132 122 119 119 121 104 103 95 118 133 139 124 122 115 103 80 63 65 77 79 78 94 108 99 103 104 106 115 123 129 130 138 132 127 124 118 112 105 99 98 96 91 86 85 82 78 76 74 86 88 87 88 85 85 83 90 92 90 91 96 103 113 120 127 127 133 135 134 140 148 155 159 165 168 171 175 175 164 153 151 132 145 118 104 107 106 111 94 89 90 106 116 126 125 111 115 112 105 97 98 117 133 119 121 122 116 82 56 60 79 84 95 97 107 106 100 108 114 121 132 131 141 146 149 131 121 116 114 112 103 98 97 97 92 92 88 85 85 83 92 98 103 103 106 102 100 100 107 105 106 105 109 114 123 130 131 138 139 140 144 144 149 152 161 163 170 175 186 184 177 166 159 144 144 139 112 115 109 110 99 83 88 86 101 109 112 110 112 112 102 88 110 129 122 113 126 113 93 65 57 70 77 98 113 119 116 105 111 118 123 136 142 133 142 150 138 124 115 113 109 111 106 94 96 100 104 105 103 104 102 100 105 109 115 115 117 116 112 115 121 117 116 115 113 122 128 134 133 139 139 143 143 144 148 150 157 162 171 177 185 195 187 182 171 155 147 153 123 118 117 107 99 90 78 80 79 87 106 112 115 109 96 91 119 123 120 127 116 102 74 69 64 69 81 113 115 123 111 104 116 125 135 137 145 140 143 139 123 120 116 110 109 106 103 102 104 110 112 111 111 116 117 112 115 117 120 121 121 123 121 119 127 123 121 116 118 123 122 130 136 135 138 144 146 146 152 150 156 162 174 179 183 198 192 190 183 168 159 156 149 126 126 109 103 98 84 73 87 82 93 102 111 112 98 99 114 125 123 134 105 101 73 70 64 85 108 116 118 121 103 109 127 141 131 141 140 135 136 124 125 129 122 124 120 117 116 112 113 119 121 126 122 125 126 123 121 124 125 124 126 118 118 118 123 123 121 120 118 124 124 128 129 129 136 142 145 147 154 154 156 165 172 177 182 200 202 187 190 179 165 164 171 130 132 120 111 108 90 72 82 84 85 89 89 95 96 105 121 133 124 125 96 99 86 72 84 107 118 128 136 121 117 133 145 145 140 143 142 139 133 136 143 136 136 135 132 130 134 126 125 127 127 132 131 128 129 130 126 123 129 129 126 121 121 118 127 124 126 125 123 119 129 131 127 125 134 137 143 147 153 153 160 165 171 176 178 193 205 187 193 188 163 170 177 162 129 122 117 112 97 83 81 80 91 92 87 78 99 110 124 124 115 120 90 85 70 78 107 124 138 149 151 141 147 160 163 154 153 144 146 147 143 151 145 145 145 141 144 146 147 138 134 138 145 140 141 138 135 134 128 124 129 129 125 126 119 122 128 127 126 128 124 123 128 130 129 128 136 136 143 148 153 158 160 163 168 176 182 192 207 194 192 185 173 163 172 171 132 124 125 122 109 89 84 93 93 100 101 84 106 121 119 113 117 109 89 78 79 88 122 137 146 153 157 154 161 172 170 165 154 150 147 153 157 155 154 153 150 154 150 155 151 150 147 153 153 151 142 142 138 130 129 126 125 124 127 124 122 123 130 125 132 131 128 124 129 132 134 133 136 136 144 150 154 158 164 167 165 170 185 194 203 194 190 186 178 164 167 174 154 131 134 137 119 92 80 95 108 100 105 101 113 124 116 111 108 103 85 84 84 98 135 142 154 162 165 162 171 176 177 171 161 157 154 157 159 158 165 160 160 163 160 160 157 161 157 160 152 150 143 138 134 130 127 125 118 116 118 122 118 123 122 122 126 126 124 122 127 134 137 134 139 142 144 146 155 156 163 167 168 175 180 185 200 193 186 182 185 167 160 173 156 147 136 139 123 108 81 92 107 112 115 107 120 118 110 110 103 108 85 89 85 119 144 145 154 173 167 168 169 177 182 174 167 165 162 162 162 169 172 170 166 167 164 166 164 159 158 154 155 150 143 139 135 130 126 123 119 112 118 117 115 117 119 118 121 122 117 118 124 125 126 130 133 136 143 143 150 152 156 164 162 168 177 178 191 194 183 181 185 173 161 160 167 146 147 147 132 118 93 88 104 113 126 117 120 112 107 99 95 103 93 79 92 123 149 148 159 184 174 172 174 177 180 172 172 176 167 173 175 178 182 176 168 172 164 160 158 150 150 152 151 148 146 141 137 134 127 123 118 114 118 115 116 117 118 120 121 116 113 115 118 117 125 126 127 127 133 135 136 140 152 163 166 161 170 176 186 186 186 181 185 171 157 156 170 154 146 158 136 129 109 98 105 120 123 124 108 101 100 91 87 103 95 77 94 127 151 157 175 184 175 180 182 176 181 178 181 181 182 181 181 177 175 174 168 163 157 154 148 144 141 145 141 139 139 140 139 131 127 126 121 120 122 122 124 127 127 126 118 115 113 116 114 117 120 120 118 120 120 124 126 128 139 153 163 157 159 164 176 187 190 185 179 178 157 156 170 153 153 169 158 139 115 100 106 120 119 122 101 92 102 93 93 106 91 86 104 137 147 164 185 189 187 184 187 182 183 184 183 184 176 175 168 167 168 164 155 151 143 141 135 132 128 130 125 127 128 131 134 130 124 123 118 123 128 134 132 129 132 128 121 122 121 120 116 120 118 112 110 112 111 115 121 122 126 136 146 156 155 153 166 177 188 189 171 178 163 146 171 160 147 169 173 164 136 103 101 118 123 123 100 85 105 93 92 100 105 88 114 134 140 169 196 199 195 193 185 185 184 184 182 172 160 158 147 147 144 131 127 130 126 118 119 112 115 117 118 120 122 120 132 135 133 126 127 135 134 135 134 126 130 122 118 118 115 114 109 113 113 103 100 101 95 98 105 105 110 114 128 135 148 149 149 166 181 195 179 166 170 159 165 160 151 169 179 178 145 106 95 107 126 122 96 90 103 84 86 92 102 94 122 131 148 186 198 202 201 193 195 192 187 190 174 162 153 154 147 130 120 111 104 103 97 89 90 97 104 108 111 111 114 117 126 130 131 132 131 130 133 133 129 126 123 117 113 111 108 114 105 106 99 97 94 92 88 93 97 91 104 103 110 119 116 139 146 150 169 185 185 162 167 159 163 165 158 183 178 170 151 117 106 112 106 118 96 91 91 74 85 86 98 85 109 132 162 191 197 206 198 195 199 183 178 178 163 148 153 141 130 121 109 100 98 98 92 87 83 88 95 97 98 104 105 110 117 121 126 123 130 126 129 128 123 127 120 115 111 108 107 107 103 101 95 89 91 88 87 91 92 86 95 95 93 109 105 120 135 145 165 172 177 158 160 155 164 169 166 191 193 164 145 117 98 117 111 115 95 85 76 67 69 83 92 86 114 137 168 188 207 203 197 196 183 176 181 168 150 143 140 127 115 111 107 98 101 94 91 89 85 92 97 96 96 98 99 101 112 118 120 119 119 118 120 120 120 126 120 115 114 114 110 108 106 106 97 95 93 92 90 94 93 88 91 90 86 93 103 108 120 141 156 176 182 160 163 159 160 167 181 189 200 173 141 127 103 96 118 114 92 86 72 66 81 82 91 95 111 144 164 188 202 201 195 185 173 182 170 153 142 139 137 123 112 113 111 109 104 105 93 85 87 87 91 90 93 95 98 98 103 111 113 109 112 114 118 117 121 124 120 118 115 115 114 112 102 103 100 94 94 95 92 94 96 92 91 95 90 95 104 113 112 132 141 165 177 177 165 166 168 169 183 199 198 188 155 134 113 91 116 114 96 86 67 69 75 70 85 101 113 143 153 179 183 191 188 179 183 178 165 155 143 135 135 120 110 108 107 98 103 107 102 93 88 90 96 95 94 96 102 102 104 107 110 106 108 108 118 120 123 120 117 116 112 110 110 105 101 99 98 95 92 99 100 98 102 101 95 96 95 93 102 113 118 133 142 157 165 178 167 163 170 178 193 212 190 195 165 131 109 103 116 117 98 88 75 68 64 67 92 107 130 140 138 172 201 187 186 179 176 162 149 147 144 138 132 120 111 108 100 99 105 106 101 92 89 89 93 96 97 97 103 105 103 107 106 105 107 111 118 120 118 118 115 117 110 104 101 98 94 95 97 93 90 97 100 100 102 96 89 90 91 91 98 107 109 121 138 154 161 177 172 170 164 169 191 215 200 191 170 128 112 106 115 114 91 90 79 56 65 84 93 119 134 121 133 182 196 165 175 178 156 143 149 148 148 142 133 125 118 119 110 106 108 109 106 105 106 99 101 101 98 103 105 110 108 109 103 102 104 113 119 121 120 119 116 118 116 107 106 100 101 96 98 97 94 95 98 98 105 101 99 103 105 89 95 105 97 97 115 144 154 163 167 161 164 168 184 189 196 191 172 135 99 112 110 117 71 86 72 75 73 95 114 113 121 117 132 169 177 157 161 165 136 143 146 140 141 142 142 132 136 139 133 126 127 130 123 122 121 115 108 106 105 107 111 112 117 108 99 97 100 103 119 127 123 125 122 123 125 116 118 118 119 116 117 111 107 117 112 113 113 110 111 106 106 96 98 99 100 97 97 127 138 146 166 156 150 161 175 176 174 183 176 134 99 101 114 114 65 72 81 83 71 77 103 84 118 103 124 162 160 160 150 156 141 137 131 121 125 133 131 125 128 133 135 133 132 137 130 132 128 130 119 115 121 117 115 118 124 118 113 102 108 112 127 128 126 130 129 127 134 132 136 136 140 141 142 138 145 159 140 140 138 131 129 115 115 130 125 114 112 127 113 117 126 147 154 168 158 169 165 164 160 166 176 137 114 96 113 118 80 81 70 52 65 66 79 85 103 91 130 164 142 145 140 160 132 117 126 129 128 135 132 126 135 139 141 140 142 140 144 146 147 145 139 136 136 129 119 124 125 120 112 106 109 114 127 128 130 134 132 128 140 151 147 147 143 147 151 146 173 170 153 156 151 145 135 125 133 141 133 115 119 127 117 122 142 143 167 165 160 174 172 147 143 166 180 138 124 102 98 113 84 94 62 51 84 91 71 101 88 95 138 167 137 138 130 150 112 120 127 131 122 126 130 133 136 150 149 132 143 140 130 129 141 135 128 134 135 125 110 109 113 119 113 109 118 118 127 129 129 138 135 130 139 139 133 137 134 140 151 139 150 167 150 162 163 160 151 131 130 144 136 121 118 120 110 105 136 144 179 166 155 153 162 146 146 165 156 136 137 98 94 113 82 82 71 66 71 100 78 97 87 115 141 161 141 133 124 128 108 115 116 131 124 128 145 138 138 142 111 99 100 104 103 97 106 122 113 128 124 112 100 106 104 119 113 117 120 128 129 134 135 136 143 139 140 136 144 147 156 149 160 154 160 160 152 160 157 161 147 135 129 127 136 123 112 123 112 109 129 143 174 173 170 153 148 139 155 166 157 148 131 106 96 108 72 73 64 69 68 80 52 85 87 125 137 158 145 139 128 128 117 105 120 126 124 134 147 120 111 101 78 76 86 95 92 83 95 114 112 132 121 107 98 103 113 117 112 120 123 128 127 136 140 146 147 142 132 136 140 151 148 157 159 157 154 145 138 150 156 158 146 135 127 119 130 131 120 120 118 117 126 130 151 153 166 166 150 153 146 142 159 162 133 113 105 104 72 60 59 66 55 48 25 64 93 120 136 173 152 139 127 126 113 111 105 112 128 134 137 110 86 79 67 58 69 85 87 76 95 106 128 138 131 119 118 125 126 130 116 121 116 124 121 122 130 137 134 135 132 129 131 132 143 141 141 145 143 118 122 146 142 136 132 125 130 113 110 114 120 108 106 107 120 121 138 139 148 161 151 159 146 127 156 168 128 104 104 117 61 51 43 49 34 14 23 50 89 103 129 158 136 136 127 132 101 122 100 107 133 133 122 106 80 72 63 59 67 89 91 100 96 114 138 139 119 103 102 114 124 127 106 105 104 114 105 103 119 127 124 136 125 129 117 117 130 119 125 135 124 122 125 135 123 121 128 125 112 104 105 96 109 117 101 87 93 125 134 151 159 158 167 151 145 143 157 159 122 110 106 118 47 39 33 43 35 9 26 43 67 93 127 143 118 132 124 119 89 122 116 117 127 125 107 90 87 78 79 70 72 88 89 102 117 124 153 139 117 86 91 107 101 108 96 102 117 111 104 98 111 115 123 135 117 119 117 130 131 126 133 135 126 135 141 138 145 130 131 132 119 105 95 80 80 102 94 72 70 98 143 162 175 162 180 166 153 145 141 145 123 122 110 117 43 22 36 58 45 31 25 46 42 83 138 156 130 138 140 119 115 137 125 110 122 117 109 87 90 85 72 71 81 86 97 111 113 122 155 118 102 92 107 104 103 108 105 116 132 121 119 108 108 89 122 122 107 115 108 134 138 145 144 141 143 149 153 140 149 149 159 127 125 106 97 82 76 83 90 83 74 90 128 164 181 160 181 176 158 136 122 147 125 122 120 128 45 5 19 64 39 36 29 68 59 93 141 151 139 150 147 124 132 152 120 96 108 116 108 104 88 82 77 86 90 91 105 91 106 118 140 122 110 101 124 115 123 121 116 131 127 134 144 130 105 86 98 112 111 120 115 136 124 153 154 160 167 161 157 154 157 151 159 159 137 118 103 89 89 84 87 95 91 96 125 162 188 169 187 177 162 131 106 138 137 112 135 135 59 25 10 71 31 31 38 84 82 115 139 150 140 153 133 140 147 133 115 86 99 106 119 104 88 91 102 119 121 126 116 129 137 158 135 134 110 130 118 114 125 127 130 136 131 121 132 129 101 99 91 113 131 118 108 123 126 149 170 167 190 184 172 154 161 155 151 156 148 125 128 113 103 91 93 98 83 91 121 141 185 161 172 160 162 123 99 138 136 124 132 127 62 29 26 75 62 46 55 84 82 114 143 152 144 142 117 129 139 147 131 100 115 121 139 121 122 125 122 136 137 140 124 155 161 174 155 144 127 136 118 120 117 121 126 124 130 112 111 120 112 101 80 100 127 113 110 126 148 146 186 190 191 189 170 164 162 163 162 143 150 157 133 133 124 109 102 96 87 90 121 141 182 167 160 161 148 123 117 151 150 145 144 128 51 6 38 67 75 53 56 80 72 97 145 163 139 137 121 117 125 147 135 121 145 143 152 155 154 161 162 152 133 135 140 167 179 171 178 155 141 135 126 127 122 119 111 115 128 123 108 102 113 105 83 80 91 119 108 122 152 147 169 213 203 198 173 167 158 164 176 151 141 150 138 134 134 111 104 98 91 88 112 137 171 170 163 153 143 132 144 151 155 147 158 127 58 9 41 62 66 45 52 89 72 78 137 160 156 147 130 126 124 152 139 140 158 147 145 155 158 167 159 149 141 130 173 172 184 175 181 171 149 138 131 129 116 131 101 119 137 140 122 111 109 92 91 85 78 98 119 139 146 160 180 197 215 201 174 148 145 144 162 144 138 135 133 135 123 101 104 93 91 89 104 119 163 167 164 150 144 144 153 143 135 149 159 131 67 35 42 45 47 56 56 96 88 85 131 159 171 142 130 126 120 153 146 149 174 158 148 145 151 160 147 152 168 171 184 184 172 188 186 187 172 163 157 139 135 139 113 128 147 131 134 119 99 85 107 118 107 99 137 158 152 168 183 200 222 222 190 162 164 147 141 132 131 123 112 125 99 89 98 94 92 93 87 110 157 156 168 157 174 146 148 129 120 149 162 137 87 55 59 33 32 59 50 81 112 88 128 166 172 139 120 122 119 150 140 126 163 157 150 152 149 152 146 153 170 173 181 182 183 185 187 186 181 169 153 146 170 158 144 153 149 136 141 139 116 105 115 134 130 131 143 146 159 171 186 193 202 209 193 173 148 134 129 123 116 106 103 108 80 81 88 88 92 78 69 110 150 151 166 169 181 143 149 116 123 153 164 142 105 74 59 19 21 35 29 48 101 111 123 166 159 132 129 135 135 142 149 130 153 167 154 153 143 150 160 161 177 185 196 199 197 177 179 167 164 154 154 171 197 172 169 163 158 146 139 141 115 115 116 129 124 132 151 156 167 173 176 175 171 180 175 170 153 132 117 122 116 101 97 84 67 75 74 80 83 78 67 99 153 139 163 166 150 140 146 119 133 163 156 150 119 97 71 0 8 17 37 33 87 123 117 157 155 125 118 125 134 134 145 136 132 160 137 131 137 143 152 160 163 173 196 194 184 172 178 166 159 159 173 189 183 168 162 159 159 160 149 135 118 114 125 120 118 113 136 139 166 174 182 167 167 153 148 149 149 142 127 124 110 90 88 80 69 84 74 79 78 81 65 98 155 143 151 149 141 124 138 133 150 178 151 155 122 116 99 4 16 30 53 39 78 117 111 148 145 127 117 125 125 137 140 143 137 152 151 142 145 158 159 162 168 183 190 182 172 172 179 176 159 163 171 169 159 157 153 145 151 153 144 126 116 103 113 104 106 109 114 138 144 170 163 172 171 166 143 140 127 125 120 109 103 87 86 79 76 82 72 77 76 82 70 103 147 131 119 142 126 113 125 134 165 180 152 158 106 127 111 11 21 58 58 66 90 115 117 149 145 129 120 141 127 139 149 150 138 130 148 143 147 166 174 175 179 184 173 164 164 158 162 157 154 163 159 151 153 142 143 144 145 150 137 134 116 110 106 105 100 100 105 120 143 157 153 150 158 162 148 146 133 126 123 111 100 98 93 84 86 81 77 78 78 83 83 107 135 115 112 136 139 117 123 141 173 180 150 152 117 135 125 28 24 55 60 61 98 115 132 149 138 132 132 140 141 136 139 139 133 131 140 156 164 166 164 165 171 167 161 152 159 158 157 158 158 151 141 141 136 138 145 137 132 134 146 129 116 101 99 107 109 95 103 115 138 160 162 159 162 160 153 149 130 126 118 112 102 99 95 97 103 88 82 80 88 96 97 102 134 111 130 139 139 114 134 143 183 174 151 158 123 156 129 74 18 42 59 62 98 109 145 146 149 133 136 137 144 133 143 135 144 152 148 154 162 170 157 154 156 152 146 153 152 146 148 152 145 140 131 123 127 139 144 129 126 134 139 139 118 103 108 114 108 103 98 116 142 159 162 165 176 168 164 158 158 138 133 126 128 112 109 111 98 102 88 90 97 104 96 105 126 127 147 139 140 118 135 151 183 169 167 156 128 171 155 104 57 32 50 68 88 110 143 144 145 139 141 141 146 152 148 148 151 156 157 156 157 161 157 156 150 155 142 149 145 133 139 140 136 136 132 128 128 134 134 125 132 141 142 144 138 127 119 130 127 111 103 116 152 163 171 172 179 179 170 166 163 154 152 142 134 125 121 113 111 106 96 91 101 105 106 110 118 124 133 132 142 123 133 145 193 167 171 160 126 166 177 125 104 54 28 75 94 110 126 129 136 143 143 147 144 159 155 146 152 165 164 165 156 151 147 132 137 142 149 145 142 131 136 137 118 118 122 116 121 123 128 120 134 136 142 148 143 134 130 150 133 126 115 119 142 169 173 175 173 177 180 169 166 160 158 153 146 135 125 121 114 109 96 103 102 101 117 117 116 126 137 157 145 137 122 150 188 164 177 163 131 145 175 131 126 99 42 72 99 114 115 122 125 138 145 146 145 152 159 153 157 159 159 166 162 159 155 148 141 145 144 134 129 123 128 121 105 103 109 112 120 124 131 136 129 139 145 150 149 134 143 147 138 130 138 151 163 173 181 185 186 184 183 189 180 173 165 154 149 141 136 129 117 116 109 110 101 108 133 118 122 138 149 163 142 143 108 157 180 161 175 177 139 130 169 133 136 98 77 76 81 109 117 117 125 135 146 146 146 152 150 159 160 163 155 158 152 151 148 139 140 143 135 135 137 129 119 112 111 109 108 109 116 120 130 143 147 153 151 148 148 134 138 140 125 123 143 159 171 173 178 188 191 193 190 189 190 189 182 168 159 149 130 122 114 113 108 109 105 115 135 116 122 146 167 153 140 140 110 156 173 173 177 183 141 144 158 131 144 107 86 95 88 108 132 120 127 135 144 144 146 145 149 157 163 158 168 167 155 152 145 137 141 140 128 128 129 124 119 117 119 119 116 122 129 132 134 149 155 158 156 147 153 144 148 139 134 122 133 141 159 167 173 187 200 203 198 201 192 191 190 182 166 157 146 134 127 116 111 109 101 122 128 106 125 147 168 129 119 129 114 149 164 168 172 177 145 155 146 138 145 124 87 93 102 104 129 122 123 140 145 141 149 140 145 153 150 151 148 145 147 143 135 132 135 132 127 131 137 133 144 131 122 123 120 122 129 131 133 147 151 154 155 161 162 157 156 150 127 121 127 136 150 157 158 179 199 208 200 199 198 191 192 175 166 151 134 130 119 108 108 103 102 124 117 104 126 139 143 105 110 127 123 150 159 162 171 172 152 160 154 146 162 157 80 93 106 102 126 125 121 137 146 143 143 139 141 148 140 138 130 120 126 124 119 126 126 128 129 131 144 143 149 141 135 124 118 118 125 120 127 135 145 153 155 160 162 170 165 163 147 134 133 140 149 155 150 164 189 197 196 198 196 193 184 170 161 144 130 130 109 106 104 106 103 118 101 109 130 147 131 103 102 130 139 158 156 164 173 176 153 149 142 165 170 176 98 80 122 108 122 111 127 142 148 150 144 142 146 145 138 127 125 114 118 109 113 123 123 132 127 128 132 135 132 126 124 119 120 116 129 134 138 138 134 148 152 152 156 160 163 159 151 140 136 141 145 153 159 160 170 185 190 192 192 189 178 162 150 140 126 121 107 107 108 109 102 107 97 111 128 144 117 101 105 137 152 163 164 172 174 179 142 145 130 149 174 182 148 82 123 116 124 103 121 142 148 147 146 145 143 144 134 123 121 108 112 98 107 118 126 133 130 131 126 121 118 113 118 117 115 119 125 131 134 134 132 139 142 150 156 152 152 147 139 137 135 128 127 135 141 145 151 165 173 184 172 170 162 155 143 132 125 119 105 106 105 107 107 104 93 115 127 141 110 105 102 130 156 172 169 178 183 181 141 127 122 139 162 161 155 99 107 114 111 108 110 134 142 150 149 146 142 138 131 121 118 110 109 103 112 119 135 139 130 129 123 111 111 103 114 118 112 123 125 133 122 125 123 129 139 142 147 151 142 135 133 129 125 116 115 124 128 134 136 144 156 165 151 155 146 141 138 130 122 114 106 100 101 104 108 101 89 111 136 143 99 100 100 135 167 178 183 174 189 176 149 122 122 127 127 145 136 104 111 110 96 102 99 136 142 154 151 147 138 130 128 117 115 117 107 112 126 127 136 140 134 122 110 108 107 109 112 114 112 119 120 117 121 110 115 122 128 131 137 134 138 129 120 122 111 103 107 118 119 120 121 130 135 147 147 146 145 140 129 124 119 110 102 96 96 98 104 96 86 107 124 116 90 96 114 140 177 184 177 178 186 178 146 135 120 129 111 131 116 103 101 100 96 89 89 129 141 160 159 153 140 131 125 123 122 122 115 122 126 123 130 131 119 104 110 108 112 110 106 104 106 112 108 104 108 108 115 124 123 124 122 126 126 123 110 107 113 104 114 125 132 129 128 127 130 135 143 144 147 144 125 119 115 107 93 96 95 103 102 96 92 99 118 107 99 117 113 139 179 192 176 174 187 174 143 144 124 129 127 116 113 102 108 102 91 88 89 124 142 156 162 159 143 132 130 131 126 126 129 131 127 124 119 115 105 105 109 112 118 107 106 99 99 107 101 92 97 93 100 102 101 100 106 110 112 118 110 110 117 107 112 128 135 137 137 132 127 128 133 134 142 145 126 118 108 105 91 94 97 101 98 88 97 102 118 108 115 122 136 144 191 187 176 174 195 175 144 140 129 119 128 110 105 107 114 107 92 87 96 121 139 153 166 160 147 140 146 141 135 129 132 126 128 120 110 110 103 103 105 112 110 100 101 85 86 92 83 86 81 82 86 89 83 85 96 91 102 118 116 122 122 115 121 128 130 138 139 140 137 126 134 124 129 142 129 114 104 102 93 96 98 100 96 78 98 105 106 114 119 128 152 163 199 183 184 181 195 169 141 139 131 114 115 120 102 106 120 120 101 92 91 114 143 151 166 169 153 153 157 150 137 133 136 127 129 116 98 113 103 106 106 112 113 102 96 80 84 87 82 85 80 82 94 92 90 90 102 107 117 116 121 131 134 132 136 142 132 134 140 144 141 139 139 129 130 137 130 114 103 103 95 97 99 104 91 78 107 114 118 122 118 140 156 174 189 195 185 187 188 171 128 141 127 114 116 105 115 108 129 146 127 104 96 113 141 152 164 170 162 163 158 152 145 139 135 127 127 108 104 112 104 106 109 110 106 107 88 86 81 82 90 89 92 93 95 97 100 96 114 111 108 109 115 128 129 132 135 140 139 135 142 145 153 147 149 139 126 133 130 116 101 104 99 102 99 106 87 88 119 128 132 132 129 160 164 184 184 198 178 188 186 167 127 134 127 114 113 98 114 117 132 143 147 127 116 109 142 148 168 174 170 166 160 156 151 144 132 123 115 93 93 94 99 98 106 102 98 98 82 69 71 71 80 78 83 103 97 99 110 103 106 101 112 109 105 113 117 118 122 129 136 129 137 142 154 154 148 139 128 125 122 109 101 106 99 104 102 101 88 108 132 138 140 139 153 173 187 196 195 186 179 183 185 170 133 128 128 118 112 98 114 115 128 143 150 142 134 123 150 155 164 175 171 170 162 156 150 144 128 119 98 84 75 74 70 82 88 96 98 93 88 71 72 64 78 75 89 99 96 98 109 107 105 78 93 101 96 97 94 105 114 122 123 127 138 143 153 158 149 140 134 124 118 107 103 101 105 101 105 104 90 128 139 151 154 148 169 191 207 204 194 176 174 178 178 175 136 131 124 111 114 109 109 113 122 141 150 143 141 133 154 163 171 178 178 168 165 155 148 128 110 96 81 66 71 64 64 63 69 79 92 87 94 80 74 82 77 76 82 96 100 102 112 113 112 102 87 91 87 89 79 96 105 116 120 129 132 143 154 153 152 140 141 134 123 108 103 101 103 100 113 106 107 140 146 157 151 151 174 194 211 193 184 166 168 180 172 175 137 132 119 112 107 107 99 110 111 135 142 141 141 135 154 168 175 182 181 170 167 152 140 112 98 81 74 68 79 77 73 85 78 79 89 91 90 87 91 99 87 91 94 106 104 108 113 113 123 113 96 96 85 91 80 94 90 95 101 109 115 122 137 140 147 138 147 132 135 110 103 106 101 101 114 112 131 153 152 162 157 161 195 194 201 193 176 157 169 181 169 171 133 134 122 116 109 106 97 99 101 117 135 139 151 150 150 175 177 182 181 170 163 150 137 118 104 98 88 90 84 94 90 105 111 111 107 109 110 105 109 114 110 95 102 92 91 108 119 124 127 121 115 97 94 87 77 78 79 86 86 94 104 120 132 127 142 138 138 142 135 117 109 110 108 107 118 123 148 161 155 177 165 174 198 195 190 187 172 149 164 183 170 167 124 130 125 119 115 100 105 99 98 116 136 142 155 156 150 177 173 181 176 167 164 152 141 130 114 109 100 109 104 113 116 124 136 134 133 117 115 126 118 123 130 115 114 113 101 113 126 134 121 119 109 106 102 86 85 85 88 92 97 97 110 124 132 133 146 146 138 142 136 121 114 115 114 117 125 133 153 161 164 179 171 182 191 194 186 183 162 150 164 177 171 170 130 126 125 122 117 108 111 117 102 121 137 146 159 160 154 176 180 184 169 166 169 151 143 136 125 122 112 119 113 116 121 122 135 133 130 109 110 120 122 132 130 129 115 126 120 122 131 138 129 129 124 114 108 99 93 93 102 95 100 101 116 126 129 138 138 145 140 136 134 132 119 115 124 122 135 140 157 167 181 187 178 195 186 184 184 174 165 148 159 171 174 172 135 129 124 124 116 111 143 124 106 109 137 147 160 164 160 173 180 180 170 166 171 157 149 142 130 131 117 117 112 116 108 112 116 120 110 82 77 82 81 87 87 89 84 94 96 99 104 101 109 113 134 121 99 105 93 94 100 101 102 105 117 121 130 141 132 143 137 140 135 136 126 117 128 134 130 143 161 172 184 187 183 192 183 183 179 165 166 158 155 167 175 178 133 129 125 116 106 138 161 124 105 103 129 143 162 166 161 170 182 179 171 169 167 162 154 142 137 138 129 127 121 124 126 129 121 119 106 89 75 75 67 68 61 82 78 87 84 84 92 100 104 114 116 117 104 107 100 114 105 105 108 110 124 124 134 141 137 146 142 144 138 136 127 124 133 141 124 151 170 167 185 185 194 190 181 182 168 169 171 162 154 171 176 178 124 122 122 106 122 164 162 121 107 97 114 136 156 156 163 166 177 177 174 162 155 165 161 148 142 149 147 141 141 145 152 146 138 126 117 106 93 82 75 72 75 89 91 93 100 90 105 109 117 115 114 111 109 100 113 117 116 107 112 119 126 138 141 137 137 146 148 138 136 137 126 124 138 139 125 158 175 166 187 182 198 185 177 178 160 171 177 169 156 161 176 177 121 117 115 121 151 169 152 127 102 92 106 135 145 154 159 166 169 176 170 156 154 162 168 155 147 150 156 156 160 171 176 167 157 144 138 123 111 106 103 97 100 106 119 124 131 112 113 118 119 121 120 124 120 111 114 117 119 115 118 125 132 139 146 141 141 141 144 135 137 134 129 129 141 127 130 159 173 169 182 187 198 180 176 167 158 170 178 167 162 157 171 175 121 116 116 145 165 166 142 126 106 88 106 132 140 150 157 161 162 166 173 162 152 164 171 159 157 150 151 164 167 177 181 171 159 154 149 135 120 110 107 103 105 109 120 132 132 126 130 129 132 137 138 144 137 133 133 134 132 128 129 132 136 142 149 151 146 143 141 137 137 135 135 129 141 125 130 162 169 173 181 192 192 178 169 155 158 170 175 169 156 151 162 175 122 119 141 163 170 157 136 132 113 86 108 130 140 146 146 154 156 158 174 162 147 160 165 166 160 156 154 164 170 178 180 169 156 142 138 133 126 116 104 91 94 98 103 115 121 118 123 131 135 138 143 139 140 136 134 136 137 132 135 136 140 149 148 151 147 141 144 135 136 142 137 125 136 125 129 163 166 174 183 195 179 179 170 149 158 175 162 169 167 155 159 167 121 140 168 169 164 149 142 135 126 97 102 133 138 146 137 145 144 152 167 161 145 154 164 159 164 162 162 162 170 180 181 172 159 144 136 134 120 110 100 93 94 92 97 103 106 109 112 112 121 120 128 126 125 123 126 129 134 139 140 134 143 149 150 146 145 145 138 136 136 143 134 118 142 119 127 155 168 171 174 188 167 171 172 166 163 164 160 169 163 158 156 161 145 163 172 165 158 150 149 142 134 109 103 131 130 151 138 130 134 154 157 170 150 152 163 161 160 160 164 169 164 172 179 173 162 154 152 133 118 108 104 97 96 98 98 103 105 109 108 107 113 115 117 108 111 117 125 125 135 136 143 137 151 152 151 144 143 139 134 135 138 139 127 122 138 113 115 162 161 154 171 170 151 155 173 182 155 158 148 165 164 156 156 157 165 165 166 162 152 144 157 148 132 120 111 128 130 141 141 123 134 156 155 165 147 142 156 162 155 156 154 162 162 168 168 163 161 158 148 134 115 105 98 88 91 93 101 102 103 110 112 113 112 112 111 106 116 121 122 124 129 132 134 142 144 146 149 139 137 137 137 136 139 133 125 112 137 108 109 169 161 142 159 147 129 135 153 182 155 145 136 150 154 141 144 148 170 163 166 159 140 143 169 153 130 132 120 126 128 133 131 129 128 153 162 155 155 137 142 150 153 150 149 141 151 148 153 149 142 140 128 115 109 97 92 86 86 93 96 98 96 101 108 108 107 110 101 108 111 120 120 119 128 129 137 141 142 139 139 135 131 135 138 138 136 130 117 114 132 95 109 171 155 151 137 126 110 128 136 164 163 133 128 133 135 131 134 135 157 163 160 140 128 142 172 154 133 141 122 122 130 133 127 138 129 149 163 161 152 132 135 140 135 143 139 133 132 130 132 135 130 122 114 107 103 92 79 70 69 77 78 80 81 89 92 98 98 101 97 101 104 111 112 118 122 129 138 135 139 132 136 137 131 131 138 133 126 126 113 115 127 94 119 167 157 155 131 107 98 121 128 144 150 143 116 119 123 118 124 129 158 166 160 129 122 155 178 152 138 144 137 119 130 129 129 132 138 153 166 159 148 133 132 131 133 133 132 134 130 122 123 120 118 111 104 97 93 80 75 65 67 65 69 71 76 83 84 91 92 92 97 101 106 107 109 112 117 126 130 128 134 131 130 132 128 126 130 129 123 117 110 111 123 106 120 167 160 154 123 98 94 115 118 123 133 143 128 116 105 105 113 117 171 165 159 127 125 177 177 154 146 164 141 124 123 120 132 140 138 143 167 156 141 137 136 128 139 135 137 133 141 129 127 130 123 115 111 103 98 89 89 79 78 76 81 84 83 87 89 91 91 97 100 110 112 117 117 118 122 125 128 126 129 127 125 129 127 125 129 124 118 109 103 108 109 109 124 167 157 151 112 95 96 119 111 105 111 123 132 112 95 83 98 103 179 162 155 127 137 189 181 168 163 176 144 120 113 115 134 145 146 141 162 159 140 135 139 133 132 141 139 139 146 146 146 145 139 126 119 114 111 103 103 97 94 98 100 97 93 97 99 97 97 101 111 114 120 123 124 128 125 130 129 127 132 127 125 125 128 131 126 119 108 107 96 100 100 100 123 162 153 141 104 92 98 114 102 89 97 114 117 115 95 78 82 87 182 165 151 137 162 201 196 189 182 172 142 116 106 111 137 151 148 143 159 161 147 134 137 134 125 137 147 141 143 145 149 151 147 135 133 124 119 112 113 111 112 111 108 109 106 105 103 104 109 116 120 128 131 127 129 128 126 127 132 130 131 127 127 130 130 132 123 110 103 102 85 99 94 96 112 148 150 124 102 92 100 101 100 73 74 101 114 106 99 89 89 82 181 169 157 156 175 197 208 199 189 169 131 114 96 118 146 149 159 157 154 156 156 135 133 129 122 129 145 147 149 143 151 154 144 142 141 140 137 130 128 127 128 125 119 123 121 121 120 120 126 133 131 133 136 134 130 128 126 126 130 125 128 130 131 130 133 122 118 112 99 99 93 104 92 89 107 141 143 114 106 98 91 105 109 85 81 98 115 105 104 95 92 98 185 175 170 169 182 204 221 206 182 166 121 99 89 127 137 148 174 158 157 147 153 139 133 126 123 126 142 149 151 147 149 153 150 145 150 153 147 148 145 146 145 141 140 139 136 138 138 143 144 148 146 142 143 140 133 128 126 127 124 128 134 132 131 132 131 125 117 110 94 90 96 88 83 84 120 140 125 104 108 108 100 106 114 101 95 102 116 114 97 107 96 98 195 184 177 178 190 213 210 201 168 161 113 84 105 108 132 156 170 169 152 146 140 139 129 119 123 123 133 148 147 149 152 157 157 154 155 158 156 153 161 157 157 158 154 154 155 151 154 155 158 161 154 151 149 143 137 132 127 132 131 136 139 141 136 141 129 121 116 100 94 83 81 86 87 90 120 132 105 90 99 119 108 101 116 112 102 97 114 120 102 102 103 100 204 196 191 188 196 197 196 193 164 151 101 86 106 104 138 156 163 167 156 149 138 128 127 112 115 121 126 138 142 147 149 155 161 162 162 158 162 160 166 168 166 170 168 167 170 164 165 166 170 164 159 154 151 144 138 135 135 139 145 145 145 144 144 138 126 124 114 97 90 80 73 99 97 99 115 124 90 95 103 110 106 97 113 118 107 100 108 120 116 97 106 100 217 209 196 194 198 194 202 182 158 138 90 84 95 126 141 158 155 152 156 149 137 120 114 116 111 108 120 131 138 143 149 147 157 161 168 164 166 164 167 172 173 171 173 172 175 172 172 174 172 166 157 154 155 152 142 140 147 152 154 152 147 149 142 131 125 122 116 101 86 73 80 103 107 97 108 121 100 93 110 100 92 80 89 114 111 106 91 106 111 96 102 103 205 207 197 211 199 191 185 166 144 123 74 94 101 137 140 149 146 149 148 145 139 113 109 107 113 106 109 120 130 137 141 139 144 155 161 163 166 164 168 167 171 173 176 177 176 174 174 172 170 162 159 155 158 147 150 151 155 158 155 151 148 145 135 131 127 115 103 97 82 69 93 95 107 101 101 115 110 101 118 98 85 62 55 76 102 95 72 82 86 87 76 76 205 190 183 206 183 172 151 139 141 99 71 80 106 131 133 142 150 140 141 140 139 114 110 106 107 112 104 112 117 121 132 135 138 142 146 146 154 156 157 159 161 166 168 171 171 170 168 164 160 162 158 153 147 151 157 161 159 160 152 152 149 138 134 128 125 113 106 95 80 76 101 97 94 89 100 118 109 105 138 117 85 59 46 69 101 93 70 71 84 98 84 72 189 177 181 181 160 137 106 125 136 83 89 70 110 142 126 136 151 150 136 133 135 123 109 107 106 109 109 107 112 108 118 132 134 135 135 133 132 141 143 143 147 146 149 150 157 157 158 156 154 150 153 150 156 158 165 158 160 156 158 148 138 130 136 123 114 111 103 96 78 85 101 86 82 85 96 114 107 113 131 122 103 78 48 54 81 94 86 62 82 94 88 79 158 134 145 137 141 117 116 141 127 89 94 68 111 148 128 125 149 148 132 118 128 127 112 109 105 112 104 105 113 106 110 123 138 133 132 130 130 127 119 123 124 130 135 136 138 139 138 142 140 142 147 149 153 159 161 160 162 154 150 141 130 131 132 117 113 102 96 93 77 83 88 75 68 85 102 113 116 115 120 123 116 105 69 54 57 88 87 50 54 77 81 74 142 126 144 149 158 139 138 151 133 115 85 84 105 138 141 106 137 140 127 108 123 125 118 112 117 112 106 99 113 110 112 114 126 132 130 127 126 125 117 115 116 119 121 126 131 134 138 140 140 140 142 146 149 161 165 162 158 152 145 139 132 132 124 113 110 98 95 91 69 78 79 66 66 86 101 113 117 113 106 122 119 106 91 65 59 90 93 69 43 57 65 76 