P2
92
112
255
147 145 148 145 146 143 144 141 143 141 134 131 130 129 129 123 120 114 110 106 107 107 106 104 109 120 131 140 141 138 137 128 129 140 135 131 133 140 131 134 136 124 129 134 130 134 127 126 128 114 105 94 88 83 79 85 88 85 82 77 82 84 88 91 91 98 110 116 114 117 116 116 118 130 137 140 142 143 141 142 139 141 141 141 137 139 139 139 139 140 139 141 148 146 145 147 145 144 143 139 139 136 132 128 125 126 128 125 116 108 106 104 104 107 112 124 133 145 158 161 159 160 148 151 136 143 140 133 138 142 141 138 132 128 120 130 134 127 127 133 130 125 118 108 100 102 96 99 94 86 91 83 80 81 81 81 86 90 87 104 109 117 117 118 119 118 129 140 141 143 143 143 140 142 141 139 140 139 139 140 139 140 139 140 145 145 145 144 146 141 141 137 132 130 126 123 123 126 126 117 111 99 98 96 106 110 128 139 151 168 174 174 178 166 151 147 146 146 144 122 131 136 122 120 122 118 110 115 117 117 117 113 110 113 115 106 108 104 110 105 98 96 94 89 85 83 80 80 83 91 92 91 96 102 112 116 114 117 118 127 137 142 142 143 142 142 144 141 141 140 139 139 139 140 140 140 144 143 145 140 142 141 138 130 124 119 117 120 118 121 117 107 103 95 93 101 117 126 131 153 172 181 185 177 167 163 148 146 154 133 126 112 107 113 101 101 99 105 97 103 105 109 107 90 93 105 103 99 105 99 109 100 96 97 101 101 97 91 91 89 89 89 95 93 94 95 97 101 108 109 112 113 120 134 139 146 143 146 144 145 140 139 142 141 140 138 140 137 147 144 144 142 136 132 129 125 122 122 115 117 112 110 104 94 96 97 101 117 131 129 150 169 177 174 168 170 158 157 145 132 128 120 95 100 102 95 85 92 96 100 89 86 102 110 100 88 86 105 106 99 108 110 109 102 100 102 112 111 104 97 93 96 102 96 96 99 99 102 99 95 92 97 105 107 114 118 130 145 143 144 143 146 142 141 142 142 139 139 140 138 147 144 143 141 136 127 123 122 117 115 111 104 104 98 99 94 100 110 125 134 143 157 167 172 167 159 156 156 146 133 126 119 114 106 104 92 96 88 82 81 91 97 89 85 99 101 95 94 96 104 99 106 114 117 116 114 112 111 112 116 110 104 103 113 119 113 114 107 103 109 104 95 95 92 92 99 108 111 116 133 140 143 144 145 144 143 144 142 141 140 139 140 143 145 140 134 130 126 121 116 112 107 100 95 96 94 99 104 119 128 135 146 160 171 166 158 160 152 138 126 125 122 123 119 113 105 104 104 100 95 92 83 88 93 87 84 93 103 101 94 103 108 109 108 115 117 122 126 123 122 126 120 114 112 118 122 123 126 130 129 123 122 119 109 100 93 92 95 97 103 115 119 133 141 146 144 144 144 148 146 141 141 141 140 144 142 136 130 125 124 115 114 107 93 90 93 87 92 112 128 135 148 155 165 173 171 162 150 157 145 134 117 116 118 118 116 100 106 97 100 104 105 102 93 99 102 97 85 99 110 111 105 105 105 108 112 113 121 128 132 129 132 140 131 133 127 131 129 127 138 145 141 137 134 133 121 115 104 99 93 89 93 99 111 120 140 144 145 148 146 146 147 146 143 141 137 145 136 129 125 120 116 114 108 96 84 92 89 93 105 123 135 150 165 172 177 175 166 166 150 141 137 139 126 117 118 116 110 110 107 101 94 104 102 97 101 112 102 105 100 110 117 123 123 120 120 123 124 125 133 133 137 136 142 148 152 149 152 150 150 150 158 158 157 156 151 141 127 128 126 116 100 93 92 93 101 115 122 142 148 148 148 147 146 148 141 141 138 142 131 124 118 119 116 110 103 88 89 100 101 118 131 136 157 172 173 172 165 165 160 148 132 132 126 123 120 114 112 109 104 112 113 103 101 103 104 102 102 110 111 114 113 118 119 119 118 112 119 125 133 129 136 138 138 134 137 146 152 161 158 158 158 163 168 163 161 168 168 162 141 135 131 130 108 92 92 90 94 102 114 127 146 147 151 148 146 145 143 138 139 133 125 118 118 117 113 102 94 94 98 108 117 125 132 158 181 179 175 171 167 152 134 138 128 125 132 116 105 100 106 102 102 105 103 104 100 113 117 119 111 110 120 124 119 116 122 119 117 120 122 125 127 133 133 133 135 132 143 148 153 154 156 153 157 168 171 170 170 179 171 179 162 152 137 134 128 96 90 95 93 91 106 114 132 144 147 150 149 147 144 141 139 128 121 119 117 112 106 95 94 100 106 118 126 138 159 180 177 171 171 165 152 121 121 122 122 114 112 105 92 91 87 81 80 92 93 99 104 115 118 118 120 127 126 123 120 127 130 125 134 131 123 124 125 126 126 138 140 138 144 149 152 154 157 154 159 171 172 167 169 177 182 183 178 174 161 147 140 121 99 94 90 96 102 106 114 136 148 147 152 149 145 143 141 122 118 117 115 106 94 101 96 106 116 122 132 157 172 180 165 162 168 153 139 141 132 130 117 101 93 92 91 85 82 82 83 91 97 99 103 110 108 116 125 137 130 123 130 132 130 131 132 136 126 119 130 131 136 141 139 140 155 149 153 158 159 160 156 160 170 163 167 176 184 192 189 185 180 181 149 141 131 105 100 98 101 103 111 120 143 149 147 152 150 144 139 117 118 115 109 103 96 101 102 111 120 131 153 172 172 163 163 160 147 136 144 136 129 124 107 104 93 93 86 90 88 85 87 98 104 105 107 115 117 122 128 135 136 133 133 132 136 132 133 129 126 132 138 136 141 144 139 142 153 150 147 163 170 165 164 162 159 161 155 169 183 192 193 196 193 200 175 156 149 132 114 119 99 98 101 118 131 148 147 150 152 148 145 119 122 111 104 100 100 100 107 112 120 140 166 167 166 165 164 157 145 143 135 128 118 115 107 107 104 97 91 95 93 92 94 104 109 109 114 124 128 132 133 135 133 136 131 133 134 132 131 130 125 132 131 130 136 140 136 143 155 147 147 158 155 159 156 162 157 158 155 163 175 184 182 203 200 209 195 186 165 165 137 131 121 102 97 111 127 138 146 149 148 152 147 118 123 108 100 104 98 102 107 117 141 157 166 163 165 162 157 148 143 138 133 123 112 114 113 106 96 95 93 93 92 94 101 107 109 116 124 137 141 138 132 131 131 129 130 136 131 124 123 120 118 118 119 118 123 124 129 136 139 138 143 150 144 153 153 157 153 154 155 164 169 189 182 201 202 204 199 210 188 168 156 134 133 119 101 104 120 134 135 145 147 150 150 122 118 106 104 107 105 104 113 132 156 169 167 164 168 152 147 136 140 127 124 112 113 113 112 99 94 94 91 92 96 101 108 116 125 128 133 136 133 133 131 131 131 128 132 133 120 117 122 114 112 111 102 112 113 115 120 126 127 132 135 132 136 137 139 143 151 150 152 159 162 181 186 192 193 198 203 212 206 177 165 158 134 143 99 107 100 130 133 136 143 146 144 122 115 110 114 105 99 117 137 158 176 173 170 165 148 132 135 132 131 125 116 107 114 111 105 100 98 92 95 98 103 106 115 125 130 135 132 131 129 129 131 130 134 132 134 130 121 119 116 114 109 104 104 106 107 112 119 120 124 124 128 127 125 133 123 126 137 135 137 145 156 164 179 175 181 185 199 201 213 195 170 170 152 147 118 102 100 115 136 132 131 147 140 126 125 115 119 113 117 146 160 176 181 177 166 141 128 125 121 122 118 115 101 107 106 104 99 96 95 99 102 109 109 112 124 130 134 129 125 122 128 129 130 135 131 131 128 124 123 115 116 117 108 103 106 104 102 111 114 114 122 130 130 128 130 133 127 127 130 131 133 138 154 159 179 184 173 181 187 199 200 216 186 168 176 138 124 117 103 110 129 131 129 140 143 130 119 117 119 111 123 158 171 175 172 164 154 132 123 114 111 117 117 105 96 104 100 100 98 95 104 111 118 116 117 118 124 127 126 124 120 120 125 127 126 132 127 128 124 123 120 118 116 114 109 112 111 107 107 116 115 121 129 130 132 131 134 135 130 128 126 125 128 140 143 154 161 181 172 172 182 192 207 216 211 184 169 163 137 126 113 115 118 129 127 132 144 125 116 110 109 111 141 159 163 165 158 155 151 138 123 105 111 115 102 95 101 104 102 100 107 107 119 124 121 122 118 116 121 121 120 120 119 126 126 126 127 126 127 124 123 126 123 126 122 117 116 118 116 113 120 117 117 121 131 130 132 137 135 135 133 132 126 124 126 133 141 146 155 167 171 167 171 169 187 213 214 204 173 167 154 136 123 110 111 128 131 130 139 116 110 105 114 130 167 158 168 173 172 154 145 141 123 117 110 106 97 108 111 114 115 111 121 126 126 128 124 121 116 113 118 121 120 122 121 126 127 124 126 128 129 129 129 129 129 130 123 117 117 121 119 115 126 120 121 128 129 127 135 136 130 135 138 136 129 127 128 127 145 147 151 159 168 164 162 159 164 184 207 211 182 173 161 155 133 113 101 121 135 130 129 122 111 113 131 152 169 167 178 184 173 144 139 140 130 123 114 105 110 129 125 129 125 129 135 130 128 134 126 122 119 117 120 118 126 127 125 128 135 137 141 143 143 138 139 138 138 139 131 124 128 127 121 126 128 124 129 133 132 134 143 136 137 136 143 142 130 131 130 132 141 151 156 156 163 161 158 162 158 172 206 200 187 171 163 157 153 131 109 102 127 127 126 111 115 128 149 166 182 184 193 190 167 144 147 143 132 130 126 127 138 142 138 138 136 136 133 130 129 136 134 129 124 123 122 126 133 134 135 137 142 148 157 156 157 157 156 154 149 149 147 143 143 140 133 136 130 125 133 134 135 144 142 141 139 142 143 140 138 135 132 136 141 144 150 154 163 161 158 156 158 171 201 205 194 175 159 160 164 145 123 100 113 124 126 115 123 145 151 168 178 184 193 174 150 151 156 156 141 137 139 153 155 143 145 150 148 136 135 137 136 139 141 143 139 129 130 137 140 142 145 150 154 160 163 167 170 167 168 164 160 159 154 153 152 150 150 148 147 134 137 134 141 146 146 145 151 151 148 148 145 138 142 142 142 141 145 151 158 164 158 146 153 169 188 197 202 180 163 153 167 157 135 101 101 125 123 113 127 146 145 166 174 186 188 163 149 166 176 169 153 143 156 170 165 157 163 164 150 143 149 156 148 150 155 151 146 141 144 149 148 152 156 158 163 169 169 173 176 175 175 171 172 168 165 164 158 164 161 162 152 149 144 142 148 152 146 147 153 156 151 157 158 147 150 147 147 145 148 153 156 169 165 151 150 158 181 192 197 190 165 145 160 170 143 110 93 115 121 120 132 133 147 162 176 190 173 160 157 173 192 173 152 164 172 181 180 173 171 161 148 149 156 160 151 151 155 153 150 148 158 155 154 165 164 164 167 172 175 174 180 178 178 176 176 177 173 171 169 172 171 164 161 155 152 153 156 154 153 156 154 155 152 159 162 156 159 155 154 156 161 159 165 169 169 170 152 163 170 186 202 188 164 140 150 175 149 111 89 102 113 132 133 140 151 168 192 185 163 166 159 172 196 174 168 181 185 194 187 178 163 164 155 160 154 150 152 154 158 158 153 152 156 158 160 162 167 165 168 174 175 176 176 178 179 177 174 180 175 173 170 169 171 168 166 164 159 161 160 159 159 158 159 162 160 158 160 159 162 157 158 162 167 167 167 171 171 179 156 162 163 189 196 188 162 140 147 164 145 111 87 94 107 138 137 153 163 186 195 178 168 164 170 189 201 183 183 195 194 195 189 179 165 168 160 155 151 150 155 150 148 150 148 152 154 156 158 159 165 164 166 169 171 172 173 174 179 175 174 176 175 175 173 172 174 172 168 168 165 166 165 163 162 161 164 166 166 162 160 156 156 155 155 159 165 171 170 170 175 184 161 155 158 175 185 180 156 135 135 154 134 116 84 88 106 136 142 164 178 186 187 172 166 173 184 206 200 181 189 196 195 193 190 182 173 167 157 146 150 149 150 145 147 155 153 152 152 153 151 155 157 158 160 165 166 167 169 173 175 174 171 173 171 173 174 172 172 170 169 170 167 165 163 165 163 161 164 164 166 164 159 154 154 153 152 157 164 171 172 169 174 183 169 155 156 161 178 173 153 136 130 138 131 116 92 88 94 143 163 173 182 170 180 168 174 179 189 211 185 183 192 196 198 196 187 174 170 156 154 151 146 148 148 148 149 155 151 149 146 147 146 150 154 153 157 159 159 162 164 168 171 169 168 171 170 168 169 169 166 168 163 163 162 158 156 155 156 155 158 159 156 159 156 149 146 149 150 157 158 168 167 169 169 172 167 160 157 156 170 165 150 121 122 121 128 123 100 93 90 151 167 181 182 172 179 176 175 179 197 194 187 194 198 201 194 193 177 164 155 150 144 141 141 139 141 140 144 145 145 142 141 142 139 143 146 147 152 155 153 159 164 161 166 164 166 166 167 166 163 165 162 161 156 159 155 151 149 146 147 149 148 150 149 149 147 143 140 142 143 153 157 158 165 163 170 166 161 161 155 158 158 149 138 107 115 111 112 129 112 97 97 160 171 186 177 179 180 179 188 191 194 181 200 194 196 197 191 183 163 144 136 135 132 128 131 128 130 135 137 142 140 140 141 140 140 140 144 145 147 154 152 153 153 156 157 159 165 165 164 165 166 163 154 152 148 148 146 142 144 140 139 138 137 140 140 139 135 139 136 135 137 140 151 152 153 157 167 163 162 150 152 158 151 141 113 97 110 101 95 117 121 104 102 176 177 178 168 169 185 186 190 190 193 177 198 198 184 187 178 163 140 121 116 113 118 119 125 124 128 131 130 131 130 130 131 130 134 136 142 145 143 152 150 151 151 154 155 152 157 159 159 155 161 154 150 145 145 141 144 140 140 135 134 129 124 131 130 130 126 132 130 129 128 127 134 140 143 151 161 158 150 142 141 158 159 136 89 85 93 93 89 103 125 118 103 183 181 176 165 164 189 186 189 197 191 185 198 193 174 172 161 133 115 100 95 94 103 109 114 118 115 117 116 119 120 122 121 123 131 133 139 142 145 150 150 150 153 151 150 148 151 151 153 149 154 150 149 145 146 140 139 137 139 135 133 124 121 122 121 119 117 118 122 120 119 117 118 121 133 145 147 143 138 136 129 147 153 143 81 72 86 97 96 96 124 128 110 180 176 174 157 167 182 187 195 199 182 191 193 186 159 151 135 107 87 82 84 85 94 99 97 94 93 103 106 112 114 117 115 114 119 119 125 122 126 133 139 139 143 146 149 148 146 147 145 141 150 147 149 149 147 142 142 139 140 135 136 127 123 120 121 118 116 118 116 111 103 99 98 97 109 125 120 126 113 124 124 130 149 135 77 62 82 96 102 96 114 129 114 161 162 159 147 165 176 189 198 198 175 191 185 168 137 125 107 93 78 80 84 84 92 86 87 92 94 98 107 125 119 116 122 114 132 132 121 125 119 119 128 131 133 135 138 146 143 143 148 141 149 145 147 148 143 142 137 134 127 127 124 117 114 112 111 109 108 110 113 107 101 85 85 77 89 101 114 111 103 97 114 120 134 123 72 61 75 98 107 97 102 128 118 131 160 154 141 156 166 197 194 193 178 185 169 150 113 105 89 83 81 81 86 90 94 90 95 99 97 104 126 137 140 131 120 120 127 122 118 116 119 116 122 123 126 130 135 135 136 136 143 146 140 141 140 142 135 132 128 125 121 121 118 112 109 109 104 104 100 101 102 102 99 83 78 75 76 85 104 101 95 97 100 125 127 95 66 65 66 86 103 100 103 127 123 131 156 148 141 135 167 195 191 187 181 168 146 123 105 98 100 98 103 101 100 99 93 91 98 106 99 105 122 141 143 138 131 130 128 127 127 125 125 122 124 123 121 123 132 134 135 137 142 144 142 139 140 141 135 127 123 121 116 117 115 111 111 112 107 106 102 101 105 100 98 86 77 77 67 78 90 104 99 83 85 113 130 89 60 57 62 82 90 93 110 128 128 135 151 147 137 131 163 188 186 186 171 137 140 131 116 115 115 118 116 118 117 106 98 100 106 116 106 110 121 134 139 129 122 126 123 124 128 127 127 123 119 121 119 123 128 131 132 138 138 139 138 138 132 132 133 126 124 117 114 117 118 114 115 114 112 113 113 109 106 106 98 91 84 81 71 75 83 105 101 94 91 105 95 73 66 59 64 69 92 92 108 136 137 147 144 128 136 138 151 179 188 183 133 147 162 140 124 131 125 124 117 113 103 97 93 102 108 122 116 109 114 124 129 123 123 127 128 128 130 130 130 124 122 124 126 126 132 127 130 133 134 134 134 131 128 127 129 127 129 126 123 127 128 125 120 122 121 123 125 118 118 119 113 102 93 88 82 78 80 97 95 96 92 106 96 50 53 51 69 76 86 89 111 128 150 137 127 116 137 129 145 178 177 163 136 159 173 149 127 122 124 118 107 95 84 83 82 93 107 114 120 117 123 139 142 135 134 133 135 134 137 136 139 139 136 137 143 144 151 148 147 148 147 143 142 139 135 133 135 137 136 135 138 138 142 141 140 133 130 130 129 124 125 126 128 119 110 104 97 96 87 99 103 92 91 106 98 62 46 32 64 81 96 93 111 126 155 126 120 96 120 112 146 164 138 164 146 158 155 139 129 120 134 128 114 108 100 103 115 123 129 131 137 127 134 130 132 135 136 136 136 137 137 136 138 141 137 137 144 155 154 162 168 159 157 153 153 153 148 146 143 143 143 145 143 143 145 156 157 149 129 128 132 125 122 119 118 114 108 108 102 92 91 98 98 102 97 99 88 65 44 35 42 96 117 105 121 135 148 136 107 80 107 124 127 126 136 148 137 158 158 131 121 105 106 86 82 84 89 105 123 131 133 138 138 137 140 141 138 139 137 136 134 137 138 135 142 145 140 135 139 136 138 153 160 163 148 150 148 156 152 150 146 141 143 144 143 138 140 148 144 127 124 120 124 121 114 111 109 105 110 107 103 96 91 111 101 112 102 91 70 76 38 45 47 92 116 125 131 134 145 132 99 77 101 144 128 116 149 144 127 140 149 117 105 106 102 83 88 92 106 113 119 127 132 133 136 138 138 139 143 143 129 132 134 133 139 136 143 137 138 137 136 144 150 159 160 155 152 149 149 157 155 147 143 148 142 143 144 138 134 137 138 124 125 123 115 109 101 95 94 93 107 99 102 108 107 124 124 127 117 87 55 79 38 53 62 87 122 145 137 141 147 99 83 82 94 138 136 135 151 151 124 139 143 114 117 119 120 105 110 96 117 119 126 133 129 131 134 123 122 113 115 108 96 105 122 121 129 133 140 136 136 145 137 141 145 159 156 158 152 146 149 149 154 143 130 133 131 136 136 131 128 127 121 121 121 118 120 117 110 105 102 101 107 101 95 113 120 137 146 149 143 98 59 60 43 71 78 101 132 133 139 148 149 80 74 72 93 134 134 123 146 141 129 133 118 124 132 132 128 114 112 121 121 113 125 122 106 115 123 123 115 108 111 97 92 103 118 116 124 134 136 137 143 149 145 145 135 147 146 151 145 144 141 146 141 132 125 132 127 131 130 125 125 124 114 107 106 104 108 102 100 108 102 120 120 124 108 111 129 136 147 167 156 108 74 63 65 80 80 128 143 137 141 151 154 63 55 79 96 128 106 128 159 135 124 111 116 121 123 131 134 121 120 123 119 100 95 105 91 97 110 104 101 87 91 86 82 91 114 122 124 129 140 143 150 154 155 143 137 150 149 156 155 146 145 148 151 138 121 125 127 129 113 107 116 116 105 97 100 90 94 93 94 104 103 96 113 128 125 127 133 138 151 160 144 112 77 71 78 96 86 122 147 147 141 158 157 41 48 82 110 138 104 121 156 142 112 105 123 115 124 132 134 96 102 101 85 92 94 99 86 90 98 109 99 91 110 108 107 109 120 128 133 131 140 142 149 158 161 157 159 164 171 166 157 159 156 153 147 144 124 118 120 121 111 102 104 92 109 101 102 96 91 94 92 91 91 93 95 103 126 127 130 142 159 154 134 106 81 76 89 107 91 116 148 144 135 159 145 25 43 84 122 124 104 121 161 116 120 116 125 115 101 124 107 79 101 92 79 90 113 98 85 92 105 120 108 112 126 133 141 142 148 146 138 146 141 141 162 160 166 154 157 177 180 175 174 179 172 157 152 160 138 121 120 139 131 126 108 95 99 116 117 103 96 94 101 87 92 97 89 103 122 130 120 134 144 146 127 110 74 85 88 105 106 116 142 147 161 160 139 15 42 71 119 129 105 106 155 109 131 116 130 100 92 110 101 96 110 108 105 121 131 113 112 118 111 123 117 130 142 151 156 157 157 147 142 149 155 155 162 164 173 169 170 172 165 169 171 180 174 161 157 151 146 128 133 146 147 134 112 96 98 109 118 101 92 103 117 111 91 108 93 102 118 123 118 120 133 133 123 113 84 85 81 97 104 127 155 150 176 173 132 22 27 49 84 108 106 86 150 99 132 120 129 95 101 106 100 104 116 109 103 124 110 96 116 130 117 123 129 159 152 154 155 157 160 155 154 157 169 156 164 168 178 154 158 153 155 165 170 180 170 161 148 145 142 149 140 155 156 136 119 115 109 107 112 104 103 106 108 108 111 106 112 120 127 127 111 117 137 143 119 109 93 100 87 92 112 151 170 166 184 161 147 24 12 56 94 97 113 94 146 95 119 113 118 99 112 110 108 119 126 110 106 126 115 97 100 118 132 130 139 137 141 143 151 160 156 153 174 172 171 145 141 143 164 143 150 152 157 169 168 168 165 164 156 152 151 161 183 186 168 161 140 136 116 113 102 88 89 90 98 106 108 112 121 132 132 134 109 126 147 144 125 115 98 107 96 95 134 174 177 163 198 157 149 20 11 51 93 95 127 93 132 96 108 121 119 89 119 102 100 115 125 99 85 104 104 95 96 119 134 138 141 130 127 131 142 146 136 136 162 154 167 144 152 167 161 157 144 145 147 169 174 171 159 156 157 151 146 146 167 177 170 154 152 152 121 122 105 104 114 109 108 91 97 90 125 138 140 149 120 130 146 152 121 129 109 129 106 118 152 198 165 142 185 144 139 25 12 45 74 78 91 83 116 99 90 99 107 97 115 103 102 123 134 112 101 114 122 103 96 109 124 133 128 124 128 135 126 130 113 110 129 133 134 132 138 142 133 139 136 155 155 161 170 177 161 154 157 154 161 159 168 177 177 173 165 152 122 131 120 119 115 93 102 92 107 112 133 137 135 149 135 140 137 159 127 132 115 145 129 133 151 211 167 124 159 122 106 18 16 37 68 70 69 79 73 88 81 89 91 101 109 109 106 115 124 108 116 126 125 120 106 104 121 122 128 126 130 137 127 128 118 118 132 153 136 135 142 140 136 109 124 139 141 142 170 171 162 153 151 146 165 167 162 165 169 176 169 152 128 138 130 126 137 110 113 115 115 122 128 127 142 142 136 141 133 159 122 130 127 151 139 152 160 225 157 125 143 109 92 13 13 31 40 60 67 83 57 66 112 86 88 111 108 114 120 131 138 126 123 129 132 129 130 129 137 132 133 135 145 158 143 139 144 131 155 166 154 139 134 122 130 107 121 139 149 158 163 168 159 153 148 148 155 165 172 171 167 171 170 161 151 141 133 123 127 124 113 118 130 129 138 134 143 143 137 137 128 149 117 132 147 156 141 177 164 207 156 124 132 115 83 3 28 7 10 51 62 83 68 67 122 96 83 109 107 117 125 128 138 139 118 137 139 137 140 142 150 150 150 159 165 163 153 144 136 145 164 158 163 158 146 134 138 121 127 139 156 163 159 165 154 159 155 140 137 140 153 162 159 166 169 157 162 149 133 138 136 132 131 122 131 144 132 138 153 148 141 130 123 146 132 128 168 155 163 170 141 196 140 117 127 105 70 14 39 0 2 52 67 94 83 78 98 101 102 106 106 115 123 122 130 134 122 139 143 134 139 137 140 152 156 170 171 162 156 149 154 162 152 171 178 151 132 116 136 130 137 139 153 164 170 181 162 162 165 152 157 155 164 169 170 178 179 167 164 163 161 148 159 149 152 145 139 145 147 140 149 143 133 130 124 145 134 132 172 164 157 151 151 192 131 127 130 88 71 14 42 9 5 43 65 82 91 81 98 104 107 126 108 118 122 124 127 133 123 126 139 134 135 138 144 150 152 164 167 159 152 166 166 149 158 166 149 132 124 126 129 141 156 150 155 172 161 178 159 149 158 162 160 151 162 167 171 176 180 175 166 168 169 174 160 157 154 150 150 147 141 134 143 139 133 134 124 149 140 133 159 156 122 159 164 171 140 121 127 73 74 1 35 22 11 36 64 96 105 83 80 143 107 110 131 123 115 118 120 125 126 123 133 134 137 144 147 150 155 163 162 163 165 163 154 153 174 168 148 134 143 126 127 148 155 154 162 171 153 173 163 145 168 168 166 160 167 170 179 183 182 175 169 169 170 172 166 168 165 155 154 151 144 139 150 144 139 136 130 152 131 141 134 133 139 162 171 157 171 103 128 66 80 1 22 24 24 38 49 97 100 78 84 117 134 130 135 117 120 121 112 120 122 120 124 132 138 143 156 170 174 174 168 168 161 159 157 162 151 153 137 135 131 115 130 143 159 153 159 160 157 157 158 146 159 166 157 162 168 160 169 186 180 176 166 170 169 165 164 162 161 159 152 150 148 151 153 145 142 140 137 153 133 123 119 132 141 162 148 163 163 100 121 73 86 8 22 30 42 53 66 111 110 94 93 111 131 136 149 123 113 117 118 119 130 134 128 137 145 157 164 172 176 170 165 163 163 153 144 134 137 142 133 130 132 122 128 144 150 149 153 162 156 157 170 152 152 148 152 149 148 147 143 172 176 158 164 160 166 168 167 164 157 162 157 148 143 149 146 146 136 142 135 149 124 122 122 134 140 156 142 151 146 108 109 76 79 27 29 51 64 83 102 122 128 114 117 111 128 150 133 126 117 116 119 126 135 137 144 141 142 155 154 156 152 147 142 145 153 136 130 126 127 137 127 122 132 135 143 141 145 136 132 142 150 150 159 154 150 138 138 154 134 150 134 151 172 166 161 159 157 161 161 152 136 137 142 139 134 140 137 140 130 128 131 137 125 110 120 137 142 159 160 134 121 115 86 72 78 44 46 62 84 110 116 136 140 132 138 123 124 124 136 135 132 127 127 125 137 143 141 145 144 145 140 146 144 143 142 141 141 124 124 119 125 129 119 112 122 125 122 129 131 130 124 125 139 144 147 140 136 136 119 129 135 138 142 138 156 162 154 147 137 146 143 140 133 124 125 127 127 131 131 134 124 125 139 124 124 114 127 138 146 168 163 117 96 113 74 72 84 50 52 55 75 110 131 142 136 135 150 136 128 128 124 128 121 139 134 135 136 149 146 151 153 146 136 132 132 140 137 137 138 120 121 110 104 121 121 108 116 110 107 107 116 116 127 114 133 130 143 147 138 132 129 104 119 136 144 136 146 153 150 140 124 134 138 137 140 129 124 122 125 130 129 124 121 120 138 123 112 102 136 165 143 155 130 107 95 97 77 81 83 58 49 62 72 108 121 149 138 143 157 153 149 134 130 127 134 136 133 140 134 143 145 151 151 147 145 143 145 149 142 135 142 125 118 107 104 120 118 105 103 100 95 98 107 116 126 115 123 130 136 136 136 143 140 118 122 136 147 144 142 147 146 149 134 128 131 133 133 137 134 138 144 145 137 131 127 134 132 111 103 97 162 174 136 153 122 96 94 102 88 86 86 72 63 63 76 117 122 152 162 170 170 163 161 145 139 127 133 138 133 138 143 152 152 160 146 145 152 149 155 156 155 150 150 139 114 108 105 112 110 98 86 87 100 104 110 116 117 127 131 137 134 125 128 139 139 121 121 137 143 148 149 148 142 150 143 137 142 126 133 129 125 130 141 135 120 122 132 126 133 101 94 108 171 165 152 148 119 86 98 107 92 88 86 82 64 68 74 105 117 136 152 161 172 150 144 137 135 130 130 133 140 145 144 152 165 159 145 154 160 157 158 157 154 151 145 137 116 104 108 101 96 97 88 94 96 104 99 105 108 126 137 143 142 122 133 134 143 131 126 136 142 146 145 141 144 149 146 148 148 140 139 143 138 149 147 141 140 138 132 135 112 109 93 123 161 165 160 149 126 74 103 105 89 89 85 94 65 71 72 93 115 114 139 147 159 127 134 136 132 126 130 134 137 139 143 152 168 157 143 147 156 167 164 167 157 149 134 123 114 90 102 104 105 105 90 96 91 100 99 100 107 115 125 139 145 126 137 152 153 153 138 137 144 138 138 136 137 143 154 156 150 143 147 143 136 142 137 138 142 152 144 140 109 106 112 144 153 154 163 160 111 68 100 97 92 88 87 98 80 67 91 98 123 114 116 146 155 121 117 130 137 127 125 140 140 141 148 152 159 155 142 148 155 160 168 158 148 138 130 118 117 101 103 110 111 99 98 109 93 102 104 109 113 121 127 129 142 136 130 142 161 167 162 149 148 147 136 133 128 135 147 154 145 141 144 144 141 150 142 138 139 152 136 122 105 119 138 163 158 157 178 157 71 83 95 103 101 83 86 104 84 68 100 106 123 127 110 128 140 119 120 124 138 126 121 134 137 140 146 149 153 159 151 155 164 157 157 156 149 144 131 131 129 127 115 120 118 116 120 121 122 111 108 119 129 138 148 137 140 145 136 135 147 160 159 148 152 138 121 119 118 120 132 141 136 138 136 143 146 150 153 145 137 142 127 112 122 142 140 164 162 163 178 115 61 86 99 113 98 86 94 98 98 70 93 102 125 125 113 125 119 106 124 113 134 123 120 131 131 141 148 156 160 163 164 167 169 164 156 160 144 140 124 124 123 132 137 125 134 138 139 149 139 138 134 137 152 155 155 153 141 151 155 144 139 146 148 145 158 145 126 118 114 119 128 136 143 149 147 151 147 148 150 152 143 144 121 111 133 159 133 153 157 149 140 81 66 85 107 120 98 95 97 95 93 86 90 91 124 129 112 116 119 94 117 114 135 121 117 128 127 134 147 153 158 159 160 170 166 169 156 150 147 137 125 112 124 126 140 126 135 138 139 156 163 150 151 153 161 171 177 166 158 154 154 150 145 145 143 145 156 145 133 118 110 108 114 133 148 160 165 158 154 154 153 156 152 141 125 114 145 156 135 131 145 131 105 70 70 94 123 128 96 102 102 92 95 83 86 86 110 122 104 102 114 94 112 107 128 113 113 117 124 132 142 153 149 157 160 161 158 162 146 141 139 130 133 126 124 132 143 142 146 137 137 146 162 167 167 173 179 174 182 176 164 156 156 149 150 150 151 145 145 150 140 125 115 100 101 119 135 155 169 165 166 163 159 161 160 140 132 116 142 134 123 119 128 122 83 73 84 113 143 128 103 106 106 92 106 90 86 86 101 112 96 96 103 91 104 94 124 105 100 109 119 131 130 145 139 151 158 158 158 158 142 137 132 133 142 143 136 138 150 155 145 143 142 141 157 163 168 175 183 168 171 169 153 147 155 147 147 155 151 148 144 143 141 130 121 106 105 112 129 146 161 157 163 161 157 160 152 140 127 110 124 114 114 104 98 98 82 73 89 127 158 134 111 107 106 97 105 98 80 83 94 103 84 100 93 77 76 79 114 103 99 106 104 118 123 133 146 156 154 160 160 148 131 126 133 135 138 140 141 130 133 141 136 142 141 151 154 168 170 173 176 169 178 172 153 139 144 148 147 154 149 146 143 142 138 132 124 118 112 114 127 143 157 155 161 165 157 155 150 139 125 111 118 108 106 96 79 83 96 93 90 141 155 133 115 114 108 107 110 98 86 79 85 100 71 110 86 70 69 68 96 94 97 102 99 116 118 128 145 151 160 159 160 138 128 134 139 139 140 136 139 127 126 131 141 149 150 157 158 161 167 173 176 163 160 156 149 145 149 157 153 156 140 135 139 133 129 135 129 126 123 118 124 142 153 155 161 161 155 158 141 134 124 112 111 111 110 97 75 83 86 101 107 152 169 139 120 114 114 121 111 99 94 85 82 96 66 96 94 63 68 70 81 90 95 92 103 115 111 128 140 147 155 159 152 135 129 141 146 142 140 134 121 125 125 128 142 158 167 165 171 169 160 162 167 164 165 162 156 166 164 164 164 157 143 133 131 127 127 132 129 123 124 116 123 136 144 152 157 154 162 149 133 121 117 97 110 113 115 92 70 87 94 99 124 161 179 141 125 118 115 123 110 96 93 88 75 93 79 76 92 70 68 72 70 85 87 91 99 118 116 132 136 143 150 149 149 137 124 129 131 125 122 122 108 114 114 118 135 151 161 172 162 162 150 144 154 159 162 163 165 172 166 168 167 155 140 130 139 131 134 130 129 124 117 118 127 135 139 151 152 156 156 149 130 115 97 99 101 113 111 94 75 87 101 110 142 164 178 142 132 131 119 118 108 98 90 80 69 90 86 68 92 76 72 72 70 73 78 85 104 115 126 138 138 142 142 140 139 131 128 120 119 105 115 112 114 117 111 117 128 135 147 149 141 145 140 129 138 141 142 149 164 160 161 164 169 158 157 155 157 146 139 145 133 129 125 123 133 133 141 149 150 151 150 149 128 113 87 101 105 115 113 90 80 96 118 142 164 170 165 137 133 142 137 111 104 102 88 74 74 88 90 70 94 88 78 85 74 66 72 83 104 118 128 138 148 136 130 136 127 122 116 109 102 81 103 110 118 122 116 122 132 124 132 134 131 139 135 124 123 120 117 132 136 142 145 146 153 151 154 159 165 157 144 142 141 146 142 133 138 136 134 146 145 150 144 146 127 98 89 101 101 117 102 77 90 103 145 170 173 173 152 148 136 141 155 106 108 103 84 76 70 79 95 88 84 101 83 89 96 73 64 80 98 113 124 139 139 134 129 133 125 130 116 92 92 85 99 123 119 129 121 129 132 120 124 119 125 134 128 121 121 114 110 111 114 114 122 125 141 139 141 145 149 154 150 143 142 153 142 142 143 140 134 135 143 141 142 137 126 92 99 100 104 110 91 70 98 120 164 189 167 169 142 147 152 140 150 112 110 97 83 78 74 66 76 94 85 102 100 98 101 83 58 73 96 104 122 131 138 140 141 139 133 127 121 106 116 115 115 134 132 151 137 144 132 118 122 114 117 110 108 109 119 111 106 107 105 100 108 109 123 129 140 134 139 147 157 156 157 162 152 142 143 138 135 126 133 133 144 126 122 94 103 96 100 95 81 81 112 140 169 179 176 151 136 148 159 144 146 114 102 99 89 84 70 57 67 84 89 111 113 109 106 88 61 74 99 104 128 134 142 145 144 145 143 133 123 119 131 130 136 137 146 157 155 150 158 138 129 118 106 113 109 111 123 119 112 124 120 115 111 120 131 140 153 144 144 145 160 160 165 161 157 141 134 134 127 127 130 126 141 125 120 102 102 95 85 84 78 95 124 142 170 168 177 136 130 153 160 148 142 113 106 103 94 90 68 64 66 84 97 109 121 113 105 103 72 81 108 118 128 134 133 138 143 140 129 123 127 131 136 144 147 147 162 161 163 162 166 158 159 155 146 152 133 124 133 130 126 133 130 130 132 136 151 158 159 145 143 157 165 161 170 166 151 139 127 128 122 126 134 134 131 126 116 101 87 96 88 76 77 108 131 152 167 162 173 129 133 146 159 157 139 114 108 113 95 92 71 77 96 88 94 113 120 133 103 113 101 90 111 126 132 132 129 127 130 125 118 126 113 137 140 152 163 159 156 148 147 151 150 153 159 154 148 153 149 131 140 145 143 146 143 135 139 143 151 159 150 142 144 158 170 164 162 166 159 146 136 130 130 127 133 141 138 120 117 106 81 94 85 82 90 119 136 151 156 163 161 137 128 148 153 163 153 114 110 113 102 90 78 131 119 83 91 107 117 139 113 120 115 99 120 132 134 135 128 123 132 132 127 129 124 139 157 173 187 176 170 157 154 164 161 161 157 162 161 164 161 154 155 155 157 147 152 153 153 152 155 162 165 164 166 173 173 170 168 171 164 157 141 130 130 132 128 141 132 121 112 103 80 92 78 87 100 125 139 150 158 157 144 144 137 143 153 159 165 123 117 111 104 87 125 163 118 85 94 101 112 131 126 128 133 108 115 132 134 136 130 125 131 128 123 121 118 135 151 159 176 172 173 163 153 161 155 163 163 166 170 173 180 170 166 166 170 158 160 158 162 158 156 167 175 178 182 175 173 165 164 163 157 149 142 134 132 134 129 140 126 115 115 83 82 72 73 91 99 130 147 145 162 143 143 146 150 138 155 165 167 136 115 111 93 119 181 167 129 93 91 98 106 125 141 131 157 127 116 131 125 127 121 125 117 119 118 117 119 128 149 154 151 158 162 149 147 152 150 154 157 159 169 169 174 180 170 170 174 168 166 169 169 162 166 173 177 183 183 176 163 166 171 162 146 143 141 132 135 132 136 132 119 102 102 68 73 66 76 90 103 138 141 145 155 133 147 156 154 135 146 165 175 128 117 109 116 180 198 167 144 102 85 98 105 117 147 130 163 141 134 137 132 121 114 113 104 107 105 112 119 122 128 136 144 143 152 162 162 162 164 171 179 178 179 182 177 180 167 167 160 158 167 168 170 169 170 172 174 173 169 160 154 160 165 157 139 140 133 132 133 127 132 129 107 101 85 64 58 61 80 89 112 142 137 139 132 130 144 158 157 142 143 162 174 129 119 114 174 207 202 167 138 109 85 100 90 117 143 130 151 137 137 133 131 123 115 109 107 104 101 113 120 125 126 135 148 145 145 145 154 164 162 166 172 178 182 187 182 178 171 174 169 169 173 173 172 176 169 169 160 157 146 140 140 149 145 154 134 138 132 133 131 123 123 123 100 90 78 61 52 68 88 93 120 145 138 131 121 126 146 151 158 143 143 152 170 133 121 165 203 218 195 162 153 129 90 106 85 111 138 136 152 136 142 133 138 128 117 109 106 100 97 110 121 117 125 127 140 151 158 154 157 160 162 161 165 169 173 172 178 179 172 176 176 176 174 177 175 179 173 160 156 146 144 133 140 146 139 145 138 137 130 131 131 117 122 117 93 82 73 60 60 74 95 100 128 137 149 138 121 122 151 142 151 152 149 149 156 134 165 209 213 224 193 175 168 155 116 111 97 104 144 143 146 144 146 138 145 144 118 110 116 109 108 115 117 125 120 128 126 146 157 159 167 162 162 166 166 171 171 170 171 173 164 167 168 175 167 172 172 169 166 151 140 134 134 127 140 141 139 141 142 135 130 133 129 120 124 105 93 82 76 51 69 83 93 112 134 121 146 158 137 121 144 145 149 147 155 147 151 175 208 222 218 222 200 191 183 173 140 108 92 105 145 140 139 152 155 139 135 147 120 108 114 117 117 117 125 129 130 138 135 146 155 159 171 174 173 169 166 175 174 171 175 176 173 168 168 168 170 165 168 164 159 141 136 128 132 128 134 131 129 131 130 133 135 138 127 126 115 98 100 88 77 55 73 78 95 114 127 111 130 176 157 129 134 136 150 145 149 152 155 217 213 224 221 219 206 203 192 182 155 104 95 111 142 143 146 147 156 149 140 147 134 117 108 120 121 123 123 128 131 139 139 152 149 160 162 165 171 166 167 166 165 166 168 165 167 162 168 166 167 161 157 154 149 139 139 140 140 134 134 133 131 122 134 142 143 135 130 129 101 105 101 97 82 68 72 86 102 127 111 97 127 152 189 141 130 120 133 139 137 145 151 220 217 231 224 212 216 213 204 177 169 113 97 121 137 126 136 141 152 155 148 153 146 130 114 111 118 121 124 129 136 131 138 148 146 153 162 161 164 156 162 164 161 164 166 163 164 164 164 160 166 158 157 155 143 143 142 148 152 134 131 134 130 135 139 145 142 137 132 116 108 108 108 102 86 73 73 99 118 117 108 91 134 143 177 176 134 113 118 124 133 128 143 216 221 232 215 209 214 224 209 181 175 125 96 127 129 98 120 149 147 157 158 156 151 139 130 108 106 114 121 119 133 127 130 142 140 149 146 148 152 153 159 165 165 167 167 164 159 157 155 155 160 156 156 151 142 143 148 148 148 134 131 131 133 138 138 143 139 137 128 123 115 110 115 109 86 80 82 115 123 115 105 102 142 138 163 176 166 122 115 118 120 126 130 224 232 237 210 200 220 219 215 186 179 136 107 121 110 78 105 155 145 150 167 156 155 143 136 119 108 112 109 111 119 118 129 133 138 151 146 150 156 163 159 155 157 153 154 158 148 143 143 147 145 151 147 145 145 140 149 140 133 133 126 125 128 133 138 142 141 137 129 134 117 112 116 112 95 89 105 124 134 114 104 110 150 143 151 167 179 151 118 107 116 119 123 239 234 239 209 201 229 219 223 187 191 147 115 110 97 66 86 144 141 142 163 168 155 147 138 114 107 109 110 106 107 102 108 122 123 128 132 143 146 151 145 146 144 141 145 143 139 134 133 132 136 134 136 134 129 135 138 134 125 127 130 122 131 137 139 136 135 133 139 138 119 119 115 103 92 100 115 129 146 104 106 118 161 146 139 151 168 166 131 102 96 109 114 241 231 237 206 216 232 231 234 193 197 158 99 102 68 58 77 126 127 142 148 173 158 154 141 125 105 108 106 96 100 96 93 103 113 116 127 131 141 141 137 141 142 140 142 136 132 129 130 131 131 125 130 128 125 126 126 128 126 128 132 127 135 139 131 132 133 140 143 135 122 126 112 99 95 112 108 136 144 99 104 128 157 145 120 136 159 158 153 120 94 97 103 244 233 234 214 231 242 244 241 200 203 146 89 82 43 54 74 109 124 143 144 169 159 152 139 127 116 111 105 96 100 96 98 95 104 110 123 132 137 136 140 145 141 136 140 140 141 134 123 129 122 129 138 140 135 136 128 140 142 139 134 135 140 137 134 133 143 148 146 132 132 126 106 102 96 105 117 143 130 97 110 126 143 148 109 109 152 164 147 148 124 120 108 254 239 228 220 243 245 249 233 201 204 128 79 56 37 57 65 108 116 139 156 160 153 148 143 134 121 123 112 97 107 106 107 103 101 115 116 128 132 135 143 147 143 146 142 140 143 136 130 140 137 143 145 147 151 141 137 155 149 149 143 144 140 144 135 145 147 151 142 133 138 130 105 106 89 90 130 160 118 99 118 125 158 165 132 120 148 177 162 155 143 141 142 247 246 221 228 250 246 251 227 198 202 113 62 56 38 55 63 99 113 136 156 161 153 143 135 134 125 126 118 107 106 111 115 111 109 115 123 138 138 143 152 162 159 156 159 158 154 154 150 151 155 160 156 155 154 150 150 156 151 152 152 152 147 147 144 155 153 140 141 142 141 121 99 98 97 83 141 146 114 113 122 133 168 174 155 140 148 174 178 150 163 145 148 250 248 218 236 253 248 244 226 199 186 109 47 59 37 49 63 107 108 136 148 165 150 145 135 129 125 131 121 119 111 115 113 125 119 127 125 140 147 156 162 168 170 172 168 174 171 171 173 174 163 170 159 157 157 161 158 162 159 154 159 156 146 145 154 163 150 138 145 153 140 107 100 107 107 80 123 129 115 122 148 137 167 185 172 150 144 171 182 160 157 161 154 254 248 222 247 252 241 239 217 198 164 108 43 67 28 40 65 111 110 134 147 145 166 143 138 135 128 130 127 123 120 117 114 129 131 136 137 145 150 166 171 169 178 187 183 186 182 183 177 176 168 169 165 165 171 175 172 166 170 165 165 153 145 154 163 163 148 147 147 143 130 98 102 107 107 76 68 114 125 144 163 147 159 192 187 162 147 165 181 172 149 162 152 255 247 225 249 244 238 231 197 176 137 90 53 62 17 36 72 103 114 131 142 141 148 149 121 136 142 134 132 133 130 120 125 128 132 147 158 158 159 167 172 168 179 183 187 185 191 181 176 180 173 171 175 179 183 180 180 174 175 174 162 142 154 164 165 158 160 153 143 126 124 102 100 99 101 61 48 109 132 164 171 147 147 177 193 172 159 151 168 166 145 162 166 242 233 223 252 230 212 194 160 143 111 71 45 44 27 38 67 94 121 126 129 152 138 132 123 132 144 143 146 140 141 136 138 142 137 145 154 162 171 179 179 175 179 180 185 189 188 183 184 188 185 187 191 192 185 181 188 184 173 162 145 147 158 160 164 162 161 153 142 124 120 100 100 86 88 38 36 99 140 174 180 163 139 149 172 180 165 142 150 153 151 151 165 230 213 197 218 205 188 153 137 112 86 51 29 32 34 40 65 93 110 121 126 143 143 118 110 131 133 141 152 153 154 146 145 153 153 155 157 161 168 178 190 190 190 193 193 194 191 186 196 196 196 192 194 195 196 193 193 180 160 144 147 154 161 163 170 165 157 151 140 140 120 95 106 71 75 24 18 85 138 185 193 174 151 146 173 189 170 141 145 160 173 157 162 203 190 184 193 180 160 118 94 85 77 49 26 39 36 48 75 100 110 111 128 129 137 124 116 115 133 129 143 152 164 164 151 154 155 162 162 162 166 172 178 183 194 197 194 201 195 193 200 200 197 199 200 200 197 185 185 167 153 146 157 155 167 171 173 163 164 155 150 143 139 105 78 45 50 21 18 71 125 166 189 177 165 146 165 184 183 155 142 168 186 175 166 172 159 168 165 157 125 96 82 80 72 36 24 37 53 62 83 80 100 99 111 119 126 115 115 120 122 114 123 134 152 157 163 160 161 165 170 172 170 185 187 181 182 185 186 196 195 200 201 197 209 211 214 205 197 185 164 158 155 156 161 165 175 173 175 167 166 156 146 129 126 103 61 25 34 13 29 73 111 144 174 176 176 159 156 168 193 174 136 160 184 181 169 153 148 152 143 137 109 93 82 80 65 28 27 46 57 61 83 70 84 93 99 108 123 108 108 113 119 111 109 115 139 153 160 162 161 164 174 180 185 195 203 206 201 203 198 205 206 211 217 211 216 211 209 199 181 172 162 158 152 164 165 168 170 174 171 162 156 149 133 123 118 96 31 22 21 21 27 100 107 124 169 158 167 178 151 158 194 195 158 150 174 178 169 