P2
92
112
255
155 151 155 152 154 150 151 148 150 147 140 136 138 137 137 130 128 120 115 109 109 108 105 105 107 119 131 138 140 137 137 128 128 139 134 130 131 140 131 135 139 126 130 135 131 135 129 131 134 119 111 98 93 87 83 90 93 90 88 81 85 87 89 92 91 99 110 115 114 117 116 116 118 132 139 142 144 145 143 146 144 147 146 146 142 143 144 144 144 146 144 146 156 154 152 155 152 152 150 146 146 143 138 135 132 134 136 133 123 112 108 105 104 105 110 122 130 142 157 160 159 158 145 148 133 142 139 132 136 142 141 137 130 124 116 126 131 126 127 137 137 131 124 112 103 107 100 103 99 90 96 88 83 84 83 82 86 89 86 102 107 117 118 117 119 119 130 143 143 145 145 146 144 147 147 144 145 143 143 145 145 146 144 145 153 152 152 151 153 148 148 144 138 136 134 131 131 133 133 123 115 100 96 94 105 109 128 136 149 166 172 172 174 161 146 142 139 139 139 118 124 130 115 112 116 110 102 107 110 111 113 111 110 115 116 107 110 106 114 109 102 102 99 94 88 84 83 82 85 90 90 89 94 100 113 117 114 117 118 128 140 145 144 146 145 145 150 148 147 145 144 144 144 145 145 146 151 151 153 147 149 149 145 137 131 126 125 129 125 127 122 111 103 93 90 99 116 124 129 150 170 178 180 171 159 156 140 138 146 124 117 103 95 102 89 89 88 93 85 92 93 98 99 83 89 105 102 100 107 101 112 104 101 101 106 105 100 93 93 92 91 89 94 91 91 91 95 100 108 108 112 116 121 137 142 149 146 149 148 151 146 145 147 147 145 143 145 142 154 151 151 150 142 139 137 133 129 131 123 124 117 112 105 93 95 95 100 115 130 128 149 168 174 168 159 159 147 147 134 118 117 106 85 88 90 82 73 78 82 85 76 73 89 98 89 80 81 102 104 101 110 112 112 105 107 106 116 115 108 101 97 100 107 101 99 100 96 98 96 92 90 94 104 110 117 120 132 148 146 147 146 152 148 147 148 149 144 144 145 143 154 151 150 148 143 134 131 131 125 124 118 108 108 98 98 94 99 110 125 135 144 159 169 171 162 152 145 145 133 119 110 102 100 90 90 77 82 72 67 67 75 81 74 71 87 91 85 85 89 99 94 105 115 119 117 118 118 117 119 122 116 107 107 119 124 119 121 113 106 109 102 92 92 88 89 98 112 114 120 136 144 146 148 149 149 149 151 148 146 145 144 145 150 152 147 142 138 135 129 125 121 116 106 98 99 95 100 105 120 131 137 149 163 173 165 154 154 145 130 115 111 107 107 104 98 89 91 90 87 80 77 67 70 76 71 71 80 93 93 88 97 104 106 105 114 118 124 130 127 128 133 126 120 117 123 128 130 133 138 136 131 131 122 110 97 92 89 93 99 105 119 124 136 145 151 148 149 150 155 152 146 147 146 144 151 150 144 138 133 133 123 125 118 102 95 98 93 95 115 131 140 155 162 170 177 171 160 147 152 136 123 107 105 106 104 102 85 93 83 86 90 91 88 77 83 87 82 71 88 101 103 100 100 102 107 111 114 123 133 138 135 139 148 140 142 135 137 133 135 145 153 148 145 144 142 126 117 104 97 91 88 95 102 116 124 143 148 148 152 152 153 153 153 150 145 142 152 143 135 134 128 125 125 120 106 92 99 95 99 110 129 143 159 177 181 181 177 166 165 149 138 129 130 115 106 107 104 98 98 94 89 80 91 91 84 88 100 91 94 88 102 110 117 120 116 119 124 126 127 136 138 144 144 151 158 162 158 162 158 159 158 166 166 166 165 159 148 134 135 132 116 98 91 93 95 104 118 126 146 153 151 152 153 152 155 148 146 143 149 139 132 127 130 126 121 113 97 98 105 108 125 139 147 170 187 184 180 170 168 162 148 130 127 120 117 110 104 103 99 94 101 103 92 90 93 94 93 93 101 103 107 106 113 117 117 115 110 118 126 134 131 139 143 145 142 147 157 164 174 169 169 169 173 177 172 168 177 176 171 150 141 136 133 108 90 91 92 96 104 116 130 150 150 155 154 152 151 149 144 145 141 133 128 130 129 123 112 103 102 103 114 122 133 143 174 199 196 186 178 176 159 138 138 128 121 129 112 99 93 98 94 93 95 94 93 92 106 110 112 106 107 118 123 117 114 121 119 117 119 123 127 131 137 139 141 145 143 156 161 165 165 167 165 169 180 182 180 179 189 180 187 171 162 142 138 131 95 89 95 94 92 108 116 133 146 152 155 155 153 150 146 145 135 131 131 128 122 114 103 103 107 111 123 133 149 175 199 196 185 180 174 160 127 126 125 124 114 110 102 88 86 82 74 71 84 84 91 97 108 111 112 115 124 125 126 123 130 133 128 138 133 126 128 130 131 131 146 150 149 157 164 165 166 169 166 171 182 181 177 179 185 192 193 187 182 168 151 143 123 98 93 91 97 102 108 115 137 151 152 157 155 151 149 147 131 128 129 126 116 101 110 105 111 120 129 143 174 192 199 179 172 178 162 148 149 139 135 122 103 93 91 90 81 77 77 77 85 92 95 98 106 104 113 122 135 130 125 135 136 135 136 138 141 131 125 136 138 144 150 149 152 168 162 167 171 172 172 168 172 180 172 175 184 192 203 200 193 187 188 153 147 134 105 102 99 101 103 112 121 145 152 151 157 157 149 143 128 131 127 119 111 105 110 109 117 127 140 169 192 188 177 174 170 157 147 154 144 137 130 110 106 96 94 86 88 85 82 83 93 101 102 104 113 116 121 128 136 138 137 137 136 140 137 139 134 132 139 147 145 151 155 150 154 167 163 159 176 183 177 176 173 170 171 162 177 192 201 204 206 200 209 181 161 155 136 117 120 99 98 100 119 134 150 150 154 156 154 149 131 134 122 113 108 107 106 113 119 128 150 184 186 180 175 173 168 157 155 145 138 126 120 110 111 108 99 91 95 93 91 93 103 107 107 113 124 129 133 135 138 138 141 136 139 140 138 138 137 130 140 139 137 144 150 146 155 168 159 159 171 166 170 166 174 168 168 164 172 184 193 193 215 209 217 203 193 171 174 143 135 125 102 96 112 129 140 148 153 151 156 152 130 135 118 110 109 105 110 115 124 149 170 183 177 175 171 167 159 155 150 145 133 118 120 118 111 100 99 96 95 93 94 102 108 110 117 127 140 144 142 136 137 138 135 137 143 138 131 130 127 124 126 127 126 132 132 138 148 152 150 155 162 155 165 164 168 165 165 166 176 178 200 192 213 213 213 207 219 195 177 166 140 140 124 102 106 123 135 135 148 150 154 154 135 129 115 113 112 111 114 122 140 164 183 181 174 176 162 157 147 152 139 138 122 122 122 118 104 99 100 94 95 100 104 112 121 131 134 141 144 140 140 139 138 138 136 141 142 127 124 131 121 120 118 108 120 123 126 132 139 139 144 148 144 146 148 150 154 161 160 162 169 171 192 198 204 204 207 212 222 215 184 177 168 142 153 102 111 104 132 135 138 145 149 149 134 127 118 121 111 106 126 143 165 187 187 181 172 155 140 145 144 143 137 128 117 123 120 114 108 106 98 101 104 110 112 123 132 137 144 142 141 138 137 140 139 142 139 141 140 130 127 125 125 118 111 112 114 117 122 130 131 134 134 139 135 133 140 131 133 145 144 145 154 166 174 189 187 191 195 210 210 225 205 180 184 164 162 125 105 104 119 141 134 133 149 144 138 136 123 127 121 122 151 165 185 194 189 173 146 134 133 130 133 128 127 111 117 116 114 110 106 104 108 109 118 118 121 134 139 144 139 135 132 138 138 141 146 141 139 136 132 132 124 125 128 117 111 114 111 109 117 121 122 130 139 138 135 136 138 132 132 136 136 139 146 162 168 187 193 182 191 197 209 209 228 199 180 195 153 136 123 107 114 135 136 130 143 146 141 129 125 127 118 126 163 179 186 183 174 159 137 129 121 119 125 127 115 106 115 111 110 108 105 116 122 129 129 129 130 136 138 137 136 131 131 137 138 138 146 139 138 134 134 130 129 126 125 118 121 120 115 115 125 121 128 137 136 138 136 137 138 133 132 130 128 132 145 149 161 168 188 180 179 190 201 218 229 224 197 185 181 154 139 119 121 124 136 131 136 147 135 126 120 115 116 145 165 172 175 168 162 158 144 129 111 120 124 111 106 112 116 114 112 119 118 132 136 134 136 131 129 133 132 133 132 131 140 139 138 140 139 141 137 135 138 134 138 132 126 125 127 124 119 128 124 122 124 136 135 135 140 136 136 135 135 129 126 129 137 146 151 162 174 178 175 180 176 199 226 225 219 187 184 171 152 134 118 118 135 138 136 144 126 122 116 120 135 175 166 177 182 181 160 152 146 128 122 118 114 107 119 123 126 129 125 135 138 139 142 139 136 130 126 131 134 133 136 135 140 140 138 139 142 143 142 142 141 139 139 134 126 124 128 125 120 132 124 124 129 130 129 136 137 129 133 138 138 130 128 131 130 149 152 156 165 175 171 170 167 172 196 219 224 195 187 178 171 146 124 109 130 143 136 135 131 123 122 137 158 179 175 187 192 179 149 143 145 135 129 120 113 121 141 138 142 138 142 149 143 141 148 141 136 134 133 135 132 141 142 138 141 146 150 153 156 156 152 151 149 148 148 141 132 135 133 127 132 132 127 129 132 130 133 142 132 133 132 141 142 129 130 132 134 144 155 160 161 168 168 165 170 164 182 219 212 198 183 177 174 169 146 121 112 135 133 133 121 126 138 158 175 191 193 201 195 172 148 151 149 136 136 132 136 150 155 153 151 149 150 145 142 142 150 149 143 140 139 137 140 148 147 147 148 152 160 169 168 170 170 169 165 160 159 155 151 151 146 137 140 132 125 133 133 134 143 140 136 134 138 141 138 137 133 132 137 144 148 153 159 168 167 165 162 163 179 212 217 204 186 170 178 184 161 138 112 121 133 132 124 134 155 161 178 185 194 199 178 150 153 159 160 144 143 146 163 168 157 158 162 160 148 148 149 149 152 154 157 153 144 143 148 153 154 156 161 163 171 175 178 183 179 180 175 171 168 163 162 159 154 153 150 148 134 136 132 139 144 143 139 146 146 144 144 143 136 139 142 143 142 147 155 164 170 164 151 156 172 198 207 213 188 172 167 188 176 151 114 111 134 130 124 138 157 154 174 182 195 191 162 147 166 178 173 157 147 163 180 177 170 175 174 161 154 160 168 160 161 167 163 157 152 154 158 158 163 166 168 172 179 180 184 186 185 186 181 182 178 174 172 165 169 165 163 152 149 144 140 145 149 142 142 148 151 145 152 154 143 147 144 147 146 148 155 160 174 170 156 153 158 187 202 207 198 170 155 176 190 160 123 103 125 129 131 143 143 155 171 184 197 175 160 154 172 195 175 155 167 180 190 190 184 181 169 157 159 166 171 160 161 165 164 160 158 167 163 163 175 174 172 174 180 183 183 189 187 188 185 185 186 182 180 177 178 176 166 162 156 152 152 153 151 150 151 148 148 146 153 156 151 155 151 151 154 160 159 167 174 174 174 155 164 172 195 210 195 168 144 161 195 166 123 98 111 123 144 144 150 160 176 200 189 161 164 157 172 198 176 171 185 192 202 196 186 171 172 163 170 164 159 161 163 168 167 161 161 164 166 168 170 174 171 173 180 182 185 185 186 187 185 182 187 184 181 177 174 175 170 166 163 159 161 157 157 156 154 154 156 154 152 154 153 156 151 152 157 164 166 169 174 175 183 158 164 165 195 203 193 166 141 155 178 162 122 95 103 118 149 150 164 172 195 200 178 164 161 167 189 202 184 185 200 201 202 197 186 171 175 168 165 159 157 163 157 156 157 154 158 161 163 164 166 170 170 171 175 177 180 181 181 186 184 183 184 182 183 179 177 177 175 170 168 165 165 162 160 158 156 160 161 161 156 154 150 149 148 146 153 161 169 171 172 178 185 163 157 158 178 191 185 158 137 139 164 148 128 92 95 117 148 157 176 187 194 189 170 161 169 180 204 201 183 191 200 201 202 197 188 178 174 164 154 157 155 155 151 153 162 158 158 158 161 158 161 163 163 165 171 172 174 176 181 182 181 179 180 178 180 180 178 176 172 171 170 167 164 162 164 161 159 162 160 161 160 154 148 147 147 143 149 159 169 172 170 176 182 171 155 159 162 182 177 154 135 133 147 143 130 102 93 102 157 177 186 193 176 179 163 172 175 186 208 185 184 194 198 204 203 192 177 175 160 158 157 151 152 152 152 153 161 156 155 154 155 155 158 161 160 163 165 165 168 170 175 178 176 175 177 177 174 174 174 169 170 165 165 163 157 155 155 157 154 158 158 154 157 153 144 140 141 141 148 151 163 166 170 171 172 169 161 160 157 172 166 150 118 120 129 139 137 113 101 96 166 181 195 194 175 176 171 172 176 194 191 184 194 198 204 199 199 182 167 158 152 146 144 144 141 144 143 147 150 150 148 150 151 148 151 154 155 159 162 160 164 170 168 172 169 172 172 172 170 167 168 165 164 158 161 157 153 150 147 148 151 150 152 150 149 145 140 135 133 134 145 149 152 163 163 170 165 160 164 156 158 160 149 135 103 111 114 120 142 126 106 102 173 186 199 186 179 175 174 184 187 189 175 195 190 195 199 196 188 167 146 138 136 134 131 134 130 133 137 141 146 144 147 149 147 148 148 151 153 154 162 159 159 158 163 164 165 170 169 168 168 170 166 157 155 150 151 149 145 147 142 142 141 140 143 143 141 135 138 132 129 128 131 143 145 150 155 167 162 160 151 152 157 154 141 107 92 104 99 99 128 135 114 108 189 193 188 175 168 181 179 186 183 184 171 193 192 180 189 182 167 143 123 116 114 120 122 127 127 131 134 134 135 134 134 137 136 141 143 148 150 150 158 157 157 156 159 160 157 160 163 163 159 164 157 152 148 148 145 148 145 144 139 138 134 128 135 134 133 127 133 130 125 121 118 126 132 139 149 159 157 149 141 140 157 162 136 82 76 88 92 92 114 143 130 111 197 196 187 169 164 184 178 184 187 182 178 191 188 170 174 164 135 116 99 92 91 103 111 115 119 117 119 119 123 125 129 129 131 139 140 146 148 151 157 157 156 158 155 155 153 156 155 156 153 158 155 153 150 153 147 145 144 146 141 140 131 127 127 124 121 118 117 120 117 114 111 109 113 127 143 144 140 138 135 127 146 156 144 73 61 80 96 99 104 140 145 120 195 190 183 160 168 177 181 189 191 173 183 185 182 154 150 135 107 87 81 80 83 93 99 98 94 92 104 109 115 117 121 120 118 123 123 129 126 128 137 144 144 146 150 154 153 151 152 149 145 155 152 155 157 155 150 150 147 148 143 144 134 128 125 125 119 116 117 113 108 97 94 91 87 102 122 116 123 112 123 121 129 150 136 68 52 75 95 106 107 129 146 126 174 174 169 150 168 172 184 192 190 164 182 178 163 131 123 107 94 77 77 81 83 92 86 87 92 93 98 109 126 121 118 124 117 135 134 122 127 120 121 132 134 137 138 143 152 148 148 153 145 154 151 154 156 151 151 145 142 134 134 131 122 118 116 113 110 108 108 111 103 96 78 78 68 80 95 109 106 100 94 111 118 135 122 63 49 69 97 110 108 117 144 131 141 170 161 144 157 163 193 188 183 165 174 161 145 106 102 88 84 79 77 85 91 95 90 96 100 97 103 127 136 140 133 123 123 131 125 121 118 121 117 125 127 129 134 139 139 142 141 148 151 145 147 147 151 143 140 137 133 128 128 123 116 112 112 105 104 99 99 98 98 93 75 71 68 67 77 99 97 90 94 94 122 125 92 58 54 59 84 106 111 117 144 136 141 166 153 145 136 165 191 183 175 168 158 138 118 99 95 99 98 101 99 100 100 94 92 100 108 99 104 122 141 142 137 133 134 132 130 130 129 129 124 127 128 125 128 137 139 141 142 147 149 148 145 147 151 144 136 132 129 123 124 121 116 115 115 110 107 102 100 103 98 94 80 69 70 59 69 83 99 95 80 78 109 125 81 50 48 53 78 93 105 124 145 141 144 159 152 143 132 161 182 177 173 158 127 133 124 111 111 114 117 115 118 118 107 100 102 108 119 106 109 121 134 139 129 123 128 126 127 132 131 131 128 123 126 124 129 134 137 138 144 144 145 146 145 140 141 142 135 134 127 122 124 126 121 121 119 117 117 117 112 107 106 95 86 77 75 64 66 75 99 96 91 84 101 90 64 55 49 57 65 96 100 124 151 151 157 153 135 141 142 148 172 177 169 122 137 154 134 121 128 124 124 117 113 105 100 95 104 111 126 117 109 115 125 130 126 127 133 134 134 136 137 137 131 129 131 132 134 139 134 137 140 141 141 142 139 137 135 138 137 139 135 131 136 138 135 129 130 128 128 132 123 121 121 113 100 88 83 79 72 73 93 90 94 87 102 90 40 42 43 61 73 88 99 126 144 163 147 138 124 142 134 141 169 166 152 125 150 168 146 125 121 124 118 107 95 85 84 83 96 109 116 122 120 126 144 147 140 141 139 142 142 145 144 148 148 146 146 153 153 161 157 157 157 154 151 151 148 144 143 145 147 146 145 147 147 152 152 148 142 138 137 135 130 131 130 131 120 109 101 95 95 83 96 98 88 86 101 91 50 36 25 59 81 99 106 126 139 168 136 132 102 126 119 145 156 130 154 138 152 148 138 129 119 135 130 115 109 102 107 119 128 134 135 141 131 138 136 139 142 142 143 143 145 146 144 147 152 148 147 154 165 165 172 178 169 167 164 164 164 159 156 153 153 154 156 154 154 155 166 165 158 136 134 138 130 128 124 120 116 109 108 100 93 91 98 95 99 91 92 79 53 34 28 39 100 126 119 137 147 160 147 115 87 119 131 129 123 130 140 131 151 154 131 124 105 105 86 82 84 89 106 126 134 137 143 143 145 147 148 147 147 143 143 141 144 146 143 151 156 150 144 149 145 147 162 169 172 158 160 158 167 164 161 154 150 152 154 152 148 151 155 150 133 129 125 128 127 118 114 110 106 114 109 104 100 92 112 102 110 98 83 58 63 31 40 45 98 131 140 146 149 157 143 104 86 114 152 130 116 141 139 121 132 144 116 107 108 100 82 87 92 106 113 121 129 135 136 141 144 146 145 152 154 137 138 142 141 146 143 152 147 148 146 145 152 159 166 168 164 162 159 159 168 166 157 153 160 154 156 156 149 147 147 146 132 132 129 119 114 107 99 96 94 110 102 106 114 111 127 128 128 115 79 45 66 32 48 64 96 140 161 152 159 161 108 88 91 106 151 141 137 144 148 117 131 137 113 120 122 120 105 113 95 119 121 129 135 132 135 140 130 129 118 122 114 101 111 131 130 137 142 149 145 144 154 145 149 152 165 162 165 160 155 159 159 163 152 140 145 142 148 148 140 137 134 127 128 128 124 122 120 114 109 106 100 108 102 98 119 128 141 150 152 142 90 49 50 37 70 83 112 149 151 153 167 163 90 77 80 103 149 142 131 143 138 122 126 113 124 137 136 130 116 115 124 125 117 130 126 111 121 132 133 124 117 121 105 101 112 128 124 131 144 146 147 152 156 151 151 139 150 149 156 150 149 146 152 149 139 131 139 135 140 138 131 131 130 120 113 108 105 108 101 101 111 104 119 119 125 109 114 135 141 152 174 158 100 64 54 61 86 88 141 159 156 154 166 168 69 60 87 107 143 116 143 164 135 120 108 111 124 127 136 139 124 121 130 126 106 101 109 97 105 120 115 110 94 98 92 89 97 124 128 129 134 147 149 154 158 157 145 138 151 151 159 159 150 150 153 157 142 127 130 131 135 117 107 119 119 108 103 104 90 95 94 94 106 105 96 113 128 128 132 138 143 157 168 147 108 69 62 79 107 100 137 161 166 157 172 168 44 55 90 124 153 118 138 166 144 110 104 121 119 128 137 138 97 102 108 89 96 99 104 90 98 109 120 108 97 120 115 112 114 124 130 137 134 145 147 152 159 162 158 160 165 173 169 161 162 161 158 149 147 127 123 123 125 113 100 103 90 110 104 106 98 91 93 91 91 92 94 95 102 129 131 134 149 166 162 139 105 74 69 93 119 103 131 163 164 151 175 155 28 50 95 135 136 118 136 174 123 121 117 127 121 103 127 111 82 105 98 83 96 121 104 90 99 116 131 118 122 138 144 148 146 149 144 140 150 148 148 165 163 168 155 157 177 181 177 178 183 177 162 154 162 140 124 119 140 131 125 106 92 96 118 120 103 93 94 102 87 92 98 90 103 123 132 123 139 150 152 133 111 68 80 95 116 117 136 161 164 176 177 149 16 50 83 131 139 116 118 167 120 136 120 135 105 93 111 106 100 116 116 113 128 141 119 118 127 121 137 128 144 156 164 167 164 161 150 150 157 164 161 167 169 176 172 172 172 168 173 177 186 182 167 160 156 151 133 133 148 149 136 110 91 96 111 124 103 90 100 118 112 94 112 96 103 121 126 121 125 138 139 129 114 80 85 90 108 117 150 171 167 193 189 139 24 36 63 90 119 115 96 156 107 139 124 136 100 103 106 104 108 122 118 112 134 118 101 122 139 126 133 141 175 166 165 167 168 170 164 164 167 180 162 169 172 183 156 160 157 159 168 175 188 178 168 155 153 148 157 142 159 159 137 116 111 108 109 116 107 105 107 108 112 115 110 117 125 134 134 116 121 142 150 125 110 89 104 95 101 126 173 185 180 203 174 153 26 20 69 100 110 126 104 150 100 124 117 125 107 115 114 112 124 134 119 116 135 125 104 105 127 143 140 149 147 152 153 159 170 163 164 186 184 183 153 148 148 170 146 153 158 164 176 175 177 174 175 164 161 159 170 190 192 172 163 143 135 114 113 103 88 90 88 97 106 110 116 126 138 138 138 112 132 154 151 133 118 100 116 106 103 149 199 193 176 216 169 156 23 19 62 100 104 141 102 135 102 113 128 125 95 126 107 105 119 132 105 89 110 112 100 101 126 143 147 150 139 135 140 148 153 142 143 169 165 179 155 163 176 169 165 150 152 155 177 181 178 168 170 166 159 154 154 174 181 175 154 155 155 120 125 108 108 115 109 108 92 96 93 130 144 145 155 127 140 154 162 131 135 115 141 119 128 166 223 180 154 199 153 145 32 21 53 83 87 101 91 119 107 95 106 112 103 122 110 109 131 142 117 105 119 129 108 99 112 127 137 131 130 133 139 127 130 115 111 132 139 142 138 143 147 140 146 144 163 163 168 177 181 166 169 170 165 171 170 175 181 182 180 167 153 119 136 125 125 115 92 103 93 108 116 137 141 141 156 147 152 147 171 138 143 124 158 145 146 164 230 181 136 170 126 108 22 24 42 76 80 79 87 76 94 88 94 92 105 114 115 112 122 129 111 120 131 130 123 106 103 119 122 129 130 137 137 126 128 119 118 133 158 141 141 148 145 141 114 130 144 145 147 176 176 166 161 161 157 178 178 167 168 171 181 173 149 126 142 138 132 145 112 116 118 117 125 131 131 148 149 147 153 144 173 134 142 141 163 156 167 170 240 172 138 152 110 92 15 21 35 47 71 77 91 59 70 119 90 89 112 114 119 128 140 144 133 128 132 135 132 132 131 139 136 138 138 146 156 140 140 144 131 157 170 156 141 138 126 136 111 126 143 153 161 166 173 163 156 156 156 166 173 179 174 167 170 171 158 148 142 138 126 130 125 114 120 133 133 142 138 148 148 147 149 139 163 128 145 162 168 153 187 174 221 170 136 141 114 83 2 37 9 17 61 72 91 72 67 129 99 84 110 112 124 132 136 144 147 124 140 142 140 142 147 155 157 156 163 167 162 150 142 134 144 164 156 164 160 150 135 140 124 129 143 159 166 159 167 157 162 163 146 144 147 160 166 157 162 165 154 158 147 133 139 138 132 132 124 134 149 135 143 160 154 150 142 134 160 144 142 183 165 173 176 149 207 152 124 132 103 69 11 45 0 8 63 79 101 90 80 101 103 101 109 112 120 128 128 138 142 127 143 145 136 142 141 144 156 161 173 172 159 151 145 152 161 152 173 180 151 133 114 137 133 139 141 155 164 170 183 164 167 171 162 164 165 173 174 171 178 178 165 161 159 158 146 160 151 154 146 142 150 151 145 156 151 142 143 136 159 145 145 187 172 163 161 157 202 140 132 130 86 68 12 45 9 13 53 79 88 99 84 102 107 108 129 115 124 129 131 135 139 129 129 141 138 138 141 148 153 154 166 167 155 146 162 165 147 158 166 150 131 122 124 128 144 161 152 154 171 159 179 160 151 162 172 168 159 173 176 174 179 181 173 163 165 167 173 158 157 154 150 153 150 144 140 150 147 142 146 134 162 151 144 171 165 128 168 169 184 146 121 122 69 69 0 35 22 20 47 75 104 115 88 83 148 108 113 137 131 121 125 126 132 131 125 135 136 142 148 150 153 156 163 159 157 160 159 151 151 175 169 148 132 143 125 126 150 158 155 160 170 151 176 167 146 175 177 176 170 177 179 183 188 185 175 168 167 169 171 165 170 168 157 157 154 147 145 157 152 149 148 142 164 142 151 144 144 144 170 175 171 177 100 122 60 73 0 20 25 30 47 57 107 110 85 87 124 137 134 140 123 126 128 117 126 128 124 129 135 143 148 161 175 176 174 165 165 159 158 158 165 153 153 135 135 132 114 131 145 160 152 157 159 156 157 160 147 165 174 166 175 180 167 176 190 185 178 165 169 167 165 165 165 166 164 156 155 153 157 161 154 152 151 148 166 144 130 127 139 145 164 150 173 166 96 113 67 78 4 19 30 45 60 71 122 121 98 98 117 135 141 155 129 118 123 124 125 137 143 133 141 150 162 170 179 180 171 165 161 162 152 144 134 137 142 132 132 133 125 129 147 152 150 153 163 157 158 174 155 157 153 162 161 160 155 147 177 178 160 165 158 166 169 170 168 161 168 162 154 150 157 156 157 147 152 145 162 135 128 129 138 142 157 144 156 150 101 101 69 70 21 25 48 60 91 109 132 136 118 124 114 131 154 140 133 123 123 127 134 145 145 152 148 147 160 159 162 156 149 144 147 155 136 130 126 127 138 128 123 136 139 148 144 149 138 133 144 154 154 164 158 155 143 146 166 145 159 137 155 175 167 162 158 158 163 163 155 137 140 147 146 140 148 146 151 139 137 140 147 135 118 127 140 143 160 162 137 120 105 76 62 71 40 42 56 77 116 123 145 147 138 144 125 126 126 142 142 139 133 134 132 146 151 148 152 151 152 146 152 147 145 143 142 142 124 124 118 126 131 120 114 126 131 126 134 136 134 125 127 143 149 151 144 140 142 125 140 148 145 147 143 160 165 154 146 137 147 146 142 136 126 129 132 133 138 138 143 134 132 149 132 132 123 135 143 149 168 168 121 92 99 62 64 76 48 49 48 63 108 138 150 142 141 157 140 132 131 127 134 126 147 141 142 145 158 153 159 160 153 144 138 138 143 138 135 137 119 121 109 102 122 125 113 125 119 113 111 121 121 132 117 137 134 148 155 143 138 138 113 132 146 151 141 150 157 152 139 124 136 142 140 145 133 128 127 131 137 137 131 129 127 147 128 115 109 145 173 145 155 133 113 87 81 65 72 75 55 45 58 62 101 119 155 143 147 163 158 152 137 134 132 140 143 140 147 141 150 153 159 158 154 152 149 149 152 143 135 143 126 120 109 106 126 127 117 115 110 102 102 110 121 131 119 126 133 143 143 144 153 152 129 133 147 157 150 146 152 150 152 134 131 135 138 140 143 141 146 153 154 147 141 136 143 139 113 107 103 175 186 140 153 123 99 83 87 77 76 77 71 58 60 68 109 120 153 168 179 176 168 166 148 144 132 139 144 139 145 150 159 159 169 152 152 159 155 160 160 160 154 154 142 118 112 111 121 121 110 99 97 111 110 114 119 121 133 137 144 142 134 137 153 153 132 133 148 155 157 155 153 147 156 147 141 148 131 139 135 131 138 149 145 131 133 142 135 140 103 98 115 183 175 159 151 122 84 90 92 81 78 77 79 59 64 67 95 113 134 153 166 179 153 145 141 139 134 135 139 147 153 151 159 174 166 150 160 167 163 164 162 160 156 149 141 119 108 116 111 108 110 101 107 107 113 103 108 112 132 147 153 152 131 144 146 159 144 139 148 154 157 151 146 150 155 150 153 154 145 145 150 145 158 156 152 153 150 142 144 119 113 98 130 169 173 170 157 131 70 96 88 79 78 74 90 59 67 66 83 111 111 136 147 162 127 137 140 135 129 136 139 144 146 150 160 177 164 148 151 162 175 171 173 164 154 137 125 116 91 109 113 117 118 103 109 102 110 106 105 112 123 132 147 154 135 147 166 169 168 151 148 155 148 144 140 141 148 158 160 155 148 153 150 144 151 145 148 154 165 155 150 116 111 117 152 161 164 175 172 114 62 92 81 83 78 77 93 75 62 86 89 116 113 111 146 156 120 117 133 141 132 130 146 147 149 156 161 167 164 150 153 161 168 176 163 153 140 132 119 120 104 109 119 124 113 111 122 105 114 113 116 120 128 133 135 151 144 138 153 177 185 178 162 160 158 144 138 132 139 150 157 148 145 149 150 149 159 151 148 149 163 145 131 112 127 145 172 164 166 192 170 71 78 84 88 92 74 76 102 81 64 94 98 114 128 109 127 140 117 121 125 143 130 124 140 144 149 154 157 162 167 160 162 171 164 163 161 154 149 136 137 136 133 123 131 132 132 134 133 133 119 115 127 136 144 153 140 146 153 143 144 158 174 173 159 162 146 127 122 120 122 135 144 138 140 140 148 153 159 162 156 145 150 136 121 132 152 148 174 169 173 194 123 58 80 88 100 89 76 85 97 96 67 88 93 116 121 117 128 118 103 127 117 140 127 123 137 138 149 156 165 169 173 175 175 177 171 161 166 149 146 130 132 131 141 149 136 147 154 153 160 148 145 140 143 159 162 159 156 145 158 162 152 147 155 159 156 170 155 134 123 118 121 131 139 148 153 152 157 155 156 160 163 151 152 129 119 142 169 141 161 161 157 149 82 62 76 95 107 89 86 89 93 93 85 87 83 116 124 109 121 119 90 118 121 143 125 120 134 134 142 156 161 167 168 170 178 173 177 162 156 153 143 131 118 131 135 152 136 146 151 152 168 170 158 158 159 168 179 184 171 164 161 162 158 154 154 153 155 166 154 140 122 114 110 116 136 153 167 171 165 161 162 162 166 160 148 134 122 155 166 142 135 147 138 109 67 64 82 109 114 88 94 95 89 94 82 83 81 104 120 99 101 113 93 116 112 133 117 117 122 130 140 151 162 157 165 167 168 165 168 151 146 143 134 139 132 131 140 152 152 156 147 147 156 170 172 173 179 186 182 190 183 172 164 164 157 159 159 162 154 151 157 147 129 118 100 101 120 139 161 177 172 174 171 169 171 170 148 141 124 152 142 128 121 130 127 82 66 76 100 128 114 95 99 99 90 104 89 82 82 93 111 90 94 102 89 110 100 130 108 101 112 125 139 137 154 146 158 165 165 164 164 147 141 135 137 150 148 140 144 159 165 155 152 153 150 165 168 173 182 190 177 179 177 161 153 161 153 154 162 159 154 146 146 144 131 123 107 105 113 132 151 168 164 170 167 166 172 161 148 136 118 134 121 118 104 97 98 75 64 78 114 143 121 104 100 100 95 103 96 76 80 85 100 82 98 90 73 75 83 120 107 101 109 108 124 130 140 152 163 161 166 165 153 135 129 137 140 143 145 146 134 140 151 147 153 152 161 165 179 180 183 187 179 189 180 159 145 147 151 149 156 151 149 143 142 137 132 124 119 112 115 129 148 163 163 168 171 164 165 157 146 133 120 129 114 109 93 77 79 86 80 81 127 141 122 109 106 101 106 109 95 83 74 78 94 66 110 86 67 67 67 98 100 101 104 101 120 122 132 151 156 165 165 166 143 131 137 142 145 145 140 144 133 131 138 151 159 161 170 171 176 182 189 189 172 170 163 155 152 152 158 153 155 140 136 139 132 127 134 129 127 125 120 128 148 160 162 170 167 162 167 148 141 131 121 122 115 112 96 69 74 73 88 96 137 157 130 113 107 108 119 110 97 92 80 75 89 59 92 93 60 67 71 82 92 98 93 104 118 113 131 144 152 160 164 156 138 131 143 148 146 144 138 123 126 127 131 149 166 176 175 183 182 174 174 178 173 173 171 162 173 170 165 164 157 144 134 130 127 125 131 128 123 125 118 126 143 150 159 165 160 171 158 140 128 124 104 119 115 115 90 62 76 83 89 112 146 169 135 118 113 110 122 108 94 92 84 70 87 72 69 88 67 69 72 71 88 89 92 99 119 118 136 140 148 154 154 153 138 124 127 130 124 122 122 107 113 116 122 141 158 171 182 171 171 160 153 163 169 172 170 172 181 173 172 168 157 141 132 140 131 135 131 129 123 117 119 129 140 144 155 157 162 163 156 136 122 103 105 107 113 109 92 69 78 90 100 130 153 170 137 127 126 116 116 106 96 88 76 66 84 79 60 87 70 71 71 70 74 77 83 103 116 128 142 142 146 147 144 143 132 127 119 116 100 111 109 111 114 111 121 134 142 159 161 150 154 148 137 145 147 149 155 172 169 169 170 173 161 161 160 162 150 144 150 137 130 126 125 138 138 146 153 154 155 156 154 133 119 92 107 109 116 113 89 75 86 107 131 154 163 159 133 129 138 133 110 104 101 86 71 72 83 82 62 88 82 72 81 73 65 69 80 103 119 130 141 153 140 134 141 131 124 116 106 97 76 97 105 114 119 117 124 138 132 142 143 140 145 141 130 130 125 121 138 145 151 152 153 160 160 161 166 172 163 151 149 147 151 145 137 143 141 139 150 148 153 148 151 132 102 92 106 103 119 103 75 85 92 133 163 166 168 148 144 133 137 151 105 108 104 83 73 68 76 88 81 77 95 76 82 93 68 58 77 97 112 125 143 143 137 133 136 127 133 116 87 87 80 95 119 116 128 121 131 138 126 131 126 132 140 132 124 127 117 114 116 119 120 128 133 149 148 147 150 153 160 156 150 149 160 147 145 147 144 136 138 145 143 146 141 131 95 103 103 106 111 92 68 94 111 152 182 162 165 139 144 149 136 146 111 110 97 81 75 72 65 71 88 77 96 93 92 97 78 51 68 95 102 123 133 142 143 145 143 135 128 120 102 112 111 112 132 131 153 139 147 136 121 126 118 120 114 111 110 122 112 108 109 108 102 111 115 127 133 143 137 144 153 164 163 165 170 159 146 146 140 137 127 134 135 147 130 127 97 105 98 101 96 81 78 108 128 158 171 171 147 134 146 156 141 144 114 101 98 89 82 67 56 63 80 83 104 108 102 101 83 54 69 98 101 129 138 145 149 148 148 145 133 122 117 129 129 135 134 146 164 162 155 163 144 134 124 112 118 117 117 127 122 114 127 124 116 113 122 135 145 158 149 150 152 169 169 173 169 165 146 137 136 128 127 131 129 144 128 125 105 104 95 85 84 77 93 118 131 159 160 172 133 128 152 156 145 139 113 104 102 93 87 65 62 63 81 91 102 116 106 99 99 66 76 108 116 128 136 136 140 145 141 129 121 125 129 134 145 148 148 166 168 173 174 178 169 170 166 158 165 145 137 145 138 132 140 135 134 135 141 160 167 167 152 149 163 174 168 177 173 157 141 129 129 122 126 136 138 134 129 120 102 85 96 88 76 75 105 124 141 157 155 168 127 132 146 156 155 136 112 106 112 94 89 68 72 91 85 88 107 115 125 98 108 97 85 111 124 132 132 131 128 131 125 116 123 109 135 139 153 167 164 162 155 157 164 164 167 172 167 161 169 162 144 152 155 150 154 149 140 147 150 159 166 157 147 149 164 177 170 166 172 164 149 138 131 129 127 135 145 142 122 121 106 78 94 84 81 87 116 128 141 149 158 157 135 125 148 150 162 150 113 108 111 100 89 74 123 114 79 86 101 111 132 107 115 110 92 118 128 133 134 128 122 130 130 124 125 120 137 159 176 192 184 178 166 166 179 178 177 173 180 179 182 176 167 167 167 167 153 159 158 162 162 163 171 172 170 173 181 180 173 170 174 165 158 142 129 128 132 128 145 136 124 115 104 78 93 77 86 97 121 131 143 153 152 142 142 134 142 151 158 162 121 115 109 102 86 119 151 112 79 90 95 106 124 120 123 127 102 111 129 130 134 129 123 129 125 119 117 114 131 149 160 179 178 178 169 161 172 168 177 179 183 186 189 193 182 176 176 178 163 165 162 168 165 161 173 178 182 188 180 177 164 163 162 156 148 142 133 129 134 131 144 129 118 117 82 81 71 73 89 95 124 138 140 158 138 140 143 147 137 153 163 165 134 113 109 92 115 172 155 122 89 86 94 99 117 136 126 153 122 110 129 120 124 117 123 116 117 115 113 117 124 147 153 152 160 164 150 149 155 156 160 166 169 178 178 183 189 180 177 181 175 173 176 175 167 171 178 181 187 187 178 164 165 169 161 144 142 140 130 136 134 139 136 123 103 105 67 72 65 76 87 99 131 133 141 150 130 144 153 150 135 146 162 174 127 115 107 113 173 187 157 136 97 81 94 97 109 140 126 161 136 130 135 128 117 108 108 100 102 100 107 114 117 122 132 142 140 151 163 164 163 166 176 185 183 184 185 181 184 174 175 163 161 171 171 172 174 176 179 181 178 173 162 154 158 165 155 137 139 131 132 136 129 135 133 110 103 86 63 57 60 79 86 107 134 131 135 129 127 141 155 154 142 143 160 172 126 117 110 169 197 192 157 131 103 82 97 81 108 136 125 149 132 133 130 127 117 110 102 102 99 95 108 115 120 120 131 145 141 141 143 154 167 167 171 178 184 188 192 184 179 173 175 169 168 172 173 171 177 172 173 165 162 151 142 142 149 145 154 131 136 131 134 132 126 126 127 102 92 80 63 53 68 89 90 113 138 133 129 119 123 144 147 154 144 143 151 169 130 119 161 195 208 186 153 144 123 88 104 78 102 131 131 149 133 139 130 135 123 111 105 100 95 93 106 118 113 120 121 135 148 155 153 158 164 166 167 171 176 182 180 186 185 178 181 180 178 175 177 175 181 176 164 160 151 149 136 142 147 138 144 136 136 130 131 134 120 125 120 95 86 75 65 64 76 96 97 122 131 143 136 119 120 148 139 147 153 149 148 155 133 162 202 205 215 185 166 159 147 113 109 90 94 136 139 143 140 144 136 144 144 113 106 111 105 105 113 114 123 115 123 118 140 154 158 168 167 167 173 174 180 183 181 182 184 175 177 180 184 175 180 178 175 172 156 145 139 139 130 143 142 139 140 141 135 129 135 131 124 128 107 97 83 79 55 77 88 97 112 131 117 144 155 135 119 141 143 145 148 155 148 151 172 202 214 210 214 191 182 172 164 136 106 83 96 138 135 137 149 154 137 133 148 116 103 109 114 114 115 122 127 126 133 130 142 152 157 173 179 180 177 174 185 185 182 187 188 184 179 179 180 180 175 179 173 166 146 141 132 135 130 136 129 127 130 129 132 136 139 130 129 119 100 106 90 83 62 79 85 102 117 128 113 131 175 155 129 133 135 149 145 150 153 156 214 208 218 215 212 200 194 181 175 152 101 88 103 138 136 142 143 156 148 139 149 134 114 104 117 119 121 120 125 127 135 135 149 147 161 165 171 179 174 176 176 176 176 178 176 176 171 177 176 178 172 167 162 154 144 144 144 142 135 134 131 129 121 134 142 145 137 134 134 104 108 111 101 83 77 76 93 111 138 119 107 134 157 190 145 133 121 134 143 140 149 152 216 214 226 218 208 212 203 193 171 165 109 90 113 132 119 130 138 151 154 148 155 148 130 112 108 115 120 123 127 135 128 136 148 148 157 167 166 171 163 171 173 170 173 176 172 171 170 171 166 173 165 163 160 146 146 145 151 154 134 128 132 128 135 140 146 144 141 138 121 112 112 119 109 88 78 76 108 127 133 126 106 143 151 183 180 142 119 125 131 139 134 149 217 220 230 214 210 213 216 200 177 172 122 90 118 122 88 112 147 145 155 158 159 157 142 130 107 104 112 120 119 134 127 128 141 141 152 151 153 159 161 167 173 173 176 176 171 165 163 159 158 164 159 161 153 144 146 150 149 149 133 130 130 134 139 139 145 143 142 134 128 121 116 126 116 87 81 84 122 131 132 128 124 158 150 175 185 175 133 127 129 129 135 139 226 231 236 213 202 218 212 208 184 178 131 101 114 103 66 96 154 141 146 165 157 163 148 140 118 107 110 107 109 119 118 129 133 139 155 149 155 162 171 167 163 165 160 160 164 153 147 147 151 149 154 149 146 147 142 150 140 132 132 127 125 129 134 141 146 146 144 136 142 125 120 128 118 91 88 106 132 144 129 129 136 170 162 167 181 189 162 133 123 129 132 135 239 234 239 211 203 224 213 217 186 191 144 111 105 89 54 75 143 139 137 160 170 160 153 144 113 106 107 107 103 104 100 106 121 122 128 133 145 147 154 148 149 148 144 148 146 141 136 135 134 137 135 136 134 126 133 137 132 124 126 131 121 131 139 142 140 140 140 148 148 129 130 125 107 86 98 115 134 157 122 129 143 186 168 161 170 186 180 148 121 114 125 130 239 231 237 208 216 225 225 229 192 196 157 97 97 62 45 65 122 126 137 144 175 161 157 146 128 104 107 104 91 94 90 86 97 109 111 125 128 140 139 136 140 141 139 141 137 132 129 131 131 133 125 130 127 122 124 125 126 124 127 132 127 136 143 136 138 139 150 154 147 133 137 120 103 90 110 107 141 152 118 127 154 183 171 145 158 179 178 173 141 116 118 124 243 234 235 214 226 234 240 236 198 202 145 86 79 36 41 64 104 121 139 139 169 160 153 141 132 117 112 103 91 94 89 89 86 96 102 116 126 131 130 135 140 136 131 135 137 140 133 122 129 121 128 137 140 134 135 128 140 142 139 134 137 144 142 139 139 152 160 158 144 143 138 112 106 92 103 118 149 137 112 132 153 171 177 139 137 177 188 171 170 149 143 133 254 240 227 217 238 241 244 227 196 203 126 74 55 32 46 55 103 111 133 152 158 153 147 144 138 126 124 112 92 101 100 99 95 93 105 107 118 122 125 134 138 136 138 133 134 137 131 125 137 133 141 143 146 151 142 138 156 150 149 145 146 144 150 142 154 157 164 154 144 148 139 109 110 85 87 130 168 127 112 141 152 187 193 163 149 175 205 190 178 169 166 168 250 246 219 226 247 242 245 221 190 199 110 62 58 36 47 53 93 109 130 151 158 153 141 135 136 128 128 119 104 101 105 108 103 100 106 112 127 126 132 142 153 149 146 149 149 146 147 143 146 150 157 154 154 154 151 152 158 152 153 155 156 153 152 153 165 164 152 153 154 152 127 105 98 97 76 138 152 126 129 140 158 200 203 184 169 177 202 204 178 188 173 175 252 247 216 233 249 241 239 217 193 181 109 48 61 38 40 52 100 104 132 143 163 149 143 135 129 127 132 122 118 107 109 108 118 111 119 116 131 135 144 150 157 159 162 158 167 165 164 168 171 160 169 158 157 159 164 161 166 164 157 163 161 154 154 164 175 162 148 156 164 151 113 104 106 107 72 119 135 131 139 165 158 197 217 202 180 176 200 207 189 185 189 183 252 244 217 243 245 233 234 208 192 159 111 45 68 26 32 56 108 110 132 144 141 166 142 139 135 127 131 127 121 118 115 110 126 125 129 131 136 140 156 161 158 166 177 173 178 175 178 174 174 169 169 166 166 175 179 176 172 178 169 171 161 155 164 173 175 158 157 157 152 138 103 103 105 103 67 60 122 140 162 183 168 185 223 216 193 181 196 209 201 180 191 182 251 239 218 242 233 227 222 191 167 133 98 55 64 13 28 63 102 116 133 142 138 149 151 120 136 144 136 134 134 129 117 125 126 130 144 156 154 153 161 165 160 172 175 181 179 186 176 174 179 173 173 178 183 188 187 187 182 182 181 172 151 164 174 175 169 169 161 149 133 131 107 97 95 96 51 40 112 146 183 195 171 173 207 221 201 191 184 200 196 177 192 196 236 222 213 240 216 197 186 153 134 107 77 44 44 23 28 60 96 127 132 131 154 138 133 121 132 147 146 150 142 143 137 139 144 137 145 155 162 171 178 177 172 176 178 184 189 188 184 186 190 188 192 198 197 192 189 197 192 182 171 155 156 165 169 174 171 170 162 146 129 124 103 97 81 80 26 28 98 149 189 204 189 170 182 205 211 194 176 185 188 184 186 200 219 200 188 203 192 177 147 133 104 82 56 31 28 30 31 60 97 119 131 130 150 148 119 108 130 134 144 157 158 159 149 148 157 156 159 162 165 172 182 194 194 194 198 198 200 197 191 202 202 202 200 203 205 207 204 203 191 171 154 154 160 170 172 179 174 164 158 144 144 123 94 105 65 66 11 7 83 144 193 210 199 182 178 207 218 198 174 178 194 206 191 198 192 178 174 184 174 156 120 97 78 73 51 30 36 30 43 71 104 119 122 135 136 145 127 116 114 133 130 146 157 171 170 156 159 160 168 168 169 173 180 186 191 203 208 205 213 206 203 210 211 207 210 213 213 211 197 197 177 162 151 163 162 176 180 183 171 172 160 153 144 142 102 76 37 41 10 9 69 126 174 203 196 194 176 197 215 213 185 178 200 218 207 202 164 155 165 165 155 125 98 80 73 68 37 31 38 50 64 80 83 108 111 120 126 135 121 118 121 121 111 123 136 157 164 171 166 167 171 176 180 180 197 198 193 195 198 200 211 210 215 215 212 225 225 228 218 208 195 173 165 162 162 169 174 183 182 183 174 172 161 147 129 126 103 57 15 24 0 22 71 110 151 185 191 198 185 184 200 224 206 171 195 215 212 203 150 150 152 141 134 107 89 77 74 62 33 36 52 55 63 85 72 90 103 108 116 133 114 110 116 117 108 108 114 142 158 167 170 167 169 180 188 194 206 216 220 216 218 213 221 221 227 233 227 231 226 223 210 191 182 171 165 159 172 173 175 178 183 179 168 160 153 134 124 116 98 23 12 10 10 21 97 108 131 180 170 183 200 171 184 225 227 192 187 205 210 202 