P2
92
112
255
89 91 89 89 91 89 86 88 87 80 80 76 78 74 70 63 75 68 72 78 85 86 90 99 104 121 125 134 146 136 144 156 148 157 157 152 137 156 151 150 158 155 146 142 133 146 137 145 135 107 108 112 103 103 108 108 109 107 115 119 120 112 106 102 93 91 67 57 50 46 35 30 35 46 53 54 67 69 74 78 73 78 77 78 83 76 81 79 79 82 78 82 93 91 92 89 91 89 84 84 82 74 74 74 71 68 68 69 74 74 80 96 108 95 102 109 110 120 135 139 148 140 141 152 148 160 161 135 137 153 147 146 155 151 131 127 130 129 133 142 140 127 125 116 107 119 124 113 112 106 112 115 113 112 115 110 99 94 92 65 61 51 42 28 25 28 35 52 56 62 72 72 74 79 75 77 79 80 83 80 82 82 81 84 92 92 93 90 89 89 86 79 73 71 74 77 71 71 66 69 76 85 87 99 116 107 122 123 120 128 139 145 146 144 133 140 138 146 144 139 134 137 130 126 137 136 107 109 117 124 127 114 114 141 125 96 104 115 123 127 113 113 111 111 109 116 117 116 104 103 99 83 80 66 49 41 26 24 27 36 56 55 69 74 80 76 73 74 76 81 80 81 79 82 83 79 93 92 92 91 89 84 76 71 67 65 74 75 72 71 66 76 78 91 105 113 131 120 117 114 129 129 129 123 135 138 134 147 150 125 122 125 122 124 110 109 110 117 106 86 105 117 112 105 94 132 131 103 103 119 117 124 111 109 117 106 107 114 116 115 106 108 101 99 86 78 68 56 46 27 34 37 39 55 65 71 75 70 73 70 81 78 79 78 79 81 84 80 93 92 90 89 83 69 66 66 68 70 74 77 79 77 73 74 87 112 130 129 126 130 136 135 127 114 109 110 114 125 121 118 135 125 118 109 121 112 117 101 106 110 95 97 104 120 97 96 93 125 122 123 131 125 123 125 121 113 116 116 114 120 120 118 116 112 107 114 106 83 78 69 58 50 41 42 45 38 53 62 69 68 68 71 75 76 72 72 81 80 82 82 93 91 90 82 75 62 62 68 68 78 77 79 79 82 77 82 94 125 145 139 142 150 149 145 130 117 109 119 104 97 81 88 99 111 102 103 106 107 102 111 118 107 88 93 117 128 112 94 89 121 122 130 133 139 136 132 137 127 123 123 123 122 127 137 128 119 119 128 128 106 92 88 74 68 58 48 49 48 38 58 63 69 71 69 73 72 73 77 82 79 81 83 92 90 87 78 68 63 71 75 78 80 85 81 86 89 100 100 119 135 140 140 150 143 131 129 122 119 111 103 86 72 73 82 101 89 93 103 106 109 101 95 119 115 99 86 107 127 124 126 121 130 141 128 132 138 154 146 139 149 154 136 129 134 133 137 142 131 122 129 132 125 114 106 93 92 76 74 69 56 42 48 57 65 71 69 70 73 75 76 79 80 83 80 94 87 73 62 69 71 67 76 76 81 86 83 101 110 111 126 152 147 147 141 137 131 138 126 103 92 77 68 65 52 62 65 70 80 77 82 93 91 98 86 102 110 87 78 96 119 121 117 135 141 144 136 144 147 171 165 155 162 166 159 149 148 143 144 151 143 130 136 137 124 115 111 111 107 110 101 84 69 62 56 44 61 70 70 75 71 77 73 75 79 82 81 91 85 66 65 72 76 77 78 77 90 83 98 109 123 136 154 154 156 136 122 116 121 129 114 95 65 54 46 42 37 41 60 58 61 61 61 72 92 83 87 97 103 89 69 94 123 126 119 123 135 132 141 140 159 161 168 165 158 164 171 164 164 149 149 148 143 144 153 148 138 122 123 119 129 123 112 96 90 75 61 52 47 71 72 74 71 75 74 75 72 79 78 90 72 65 78 82 81 79 83 93 91 96 119 128 144 166 166 160 143 128 106 105 100 85 70 60 58 40 28 30 28 33 38 53 57 41 48 65 84 94 91 90 86 91 88 92 119 128 120 115 129 144 153 146 153 162 167 157 154 159 170 173 169 162 163 161 146 154 152 163 158 148 137 125 131 136 118 119 105 92 68 71 55 53 73 74 72 73 74 72 73 77 82 75 70 77 84 82 73 81 91 102 102 110 114 135 162 179 174 164 140 118 116 109 86 70 58 56 59 45 32 20 30 36 29 38 45 36 46 60 72 88 95 104 111 105 102 113 111 117 125 125 130 149 158 157 150 161 170 174 173 173 164 169 174 162 167 167 157 163 162 164 165 164 162 150 137 126 128 117 116 112 91 83 66 60 58 72 72 70 71 71 73 76 81 71 77 89 85 76 81 89 96 102 117 116 146 166 181 170 155 135 120 109 103 88 81 57 58 55 44 41 40 37 36 37 31 41 41 48 49 64 61 73 90 106 123 126 124 130 125 125 142 145 135 143 157 157 156 170 178 187 184 185 166 167 166 166 161 165 158 165 161 156 167 165 164 169 155 140 134 122 110 116 110 88 78 71 53 65 71 68 70 71 75 77 78 79 90 92 84 82 89 102 108 112 123 152 167 177 184 161 134 112 103 101 99 101 76 69 65 54 49 49 43 39 37 42 34 48 59 68 68 81 81 92 101 109 116 131 131 135 140 136 140 149 145 137 156 163 175 179 179 183 188 171 171 163 162 165 159 162 168 166 168 163 150 169 168 158 167 168 141 131 117 123 121 98 77 71 63 45 70 70 74 68 76 75 76 82 85 88 85 97 110 107 125 140 156 172 169 186 165 136 105 97 85 90 97 83 75 79 78 68 57 48 41 49 48 46 45 63 73 80 91 102 116 115 127 136 144 148 148 144 144 138 150 147 155 154 169 172 178 182 174 177 185 175 168 171 174 169 163 163 162 158 160 172 173 160 168 170 165 170 162 142 143 137 124 105 92 77 73 56 44 71 71 71 69 70 77 84 89 99 102 121 124 140 149 152 168 156 178 170 143 114 101 103 101 99 83 68 70 75 82 67 58 54 50 53 63 68 77 88 94 101 120 131 136 149 148 156 166 162 151 161 164 155 158 154 154 161 164 173 176 183 177 181 198 185 177 180 171 169 169 173 168 167 169 169 174 168 168 172 168 168 178 159 148 149 135 118 102 86 75 70 49 51 60 71 64 68 79 90 94 109 132 135 146 168 159 170 174 181 192 156 119 96 97 99 98 95 76 76 72 74 74 66 65 74 79 77 83 88 108 119 123 131 144 161 170 170 171 177 178 172 165 182 174 170 171 172 159 164 173 172 176 178 185 194 201 192 191 182 174 174 170 171 169 163 168 174 167 169 178 173 173 172 168 182 158 157 152 135 117 96 84 77 67 45 39 67 65 69 75 95 100 120 145 150 167 172 166 161 158 185 168 125 96 96 94 93 88 86 86 86 86 80 80 80 81 95 96 98 110 112 131 142 153 160 174 186 186 191 188 184 184 180 179 190 175 173 174 172 170 163 172 180 188 189 196 195 195 186 182 175 165 162 162 156 162 151 157 158 153 148 175 175 163 173 171 169 173 163 171 163 144 125 96 85 81 63 36 43 64 70 66 98 116 147 158 161 180 184 171 167 169 173 143 103 84 87 87 84 81 82 85 87 84 77 93 101 109 109 111 117 133 136 150 164 176 187 196 200 202 198 198 198 201 193 188 196 187 182 181 180 174 172 176 179 186 188 190 186 187 179 170 162 148 143 140 141 141 132 130 132 136 130 137 163 161 168 173 160 177 182 174 192 171 147 117 87 85 76 53 26 42 63 70 115 138 171 171 184 193 186 172 169 176 146 95 67 71 77 73 69 75 87 86 84 91 85 100 106 115 123 125 134 144 154 165 178 192 195 208 202 203 203 204 204 206 201 195 191 187 185 181 184 178 173 173 163 162 162 160 152 157 162 149 142 131 125 118 115 117 117 109 112 118 119 116 134 148 161 165 163 159 183 181 179 208 167 136 113 85 81 66 38 20 43 64 137 153 176 178 194 196 179 181 184 175 124 61 62 59 64 62 62 84 86 83 87 86 97 101 106 123 131 151 152 160 165 175 190 194 195 201 201 198 197 197 207 200 204 201 195 187 184 183 177 169 162 160 148 149 149 141 143 142 137 127 118 110 99 97 98 96 90 82 93 94 104 105 114 120 136 160 167 172 175 194 186 201 192 161 143 105 88 76 60 33 26 55 144 157 172 185 193 185 174 181 173 149 94 60 63 52 54 57 71 79 80 82 87 90 106 109 118 136 146 153 161 165 167 172 180 185 185 190 191 192 189 193 196 193 194 195 187 180 179 169 158 152 150 146 138 141 133 122 117 115 112 105 99 91 79 81 79 79 74 78 73 81 86 96 97 107 116 137 155 168 173 171 194 190 199 176 165 134 104 93 70 54 35 41 143 166 181 197 193 175 179 178 163 107 73 59 53 32 45 63 79 78 84 92 94 109 120 130 140 149 157 163 167 166 168 165 166 171 173 175 180 182 181 180 176 175 178 176 169 162 159 152 143 135 132 130 131 124 115 103 93 94 86 85 77 66 66 67 62 63 57 66 68 65 72 71 78 80 96 103 125 143 151 156 177 190 194 180 172 153 115 108 85 65 45 36 170 187 194 202 177 186 190 163 129 82 53 45 35 35 46 67 80 82 91 98 112 127 141 146 148 153 162 169 162 164 164 162 159 164 163 161 156 150 156 152 156 161 160 158 154 147 143 142 130 128 120 117 116 105 97 86 78 75 69 69 55 49 50 52 56 53 44 58 50 53 60 64 66 68 82 90 103 136 139 151 163 179 185 194 175 164 141 121 105 67 49 47 185 190 207 199 190 207 195 149 101 71 49 37 43 47 54 66 81 94 106 119 134 145 151 151 153 157 167 174 161 160 159 155 145 143 141 137 135 133 135 142 141 145 145 149 145 139 134 130 125 124 113 102 97 83 80 78 68 69 66 58 46 43 51 54 53 55 52 46 50 47 54 59 59 59 67 83 91 108 136 145 166 157 185 186 189 172 150 132 122 84 57 46 183 193 202 213 204 198 161 117 87 67 42 27 41 47 63 79 94 110 115 128 147 157 153 152 159 160 157 150 145 143 136 126 119 117 119 117 119 119 124 132 130 135 135 138 131 124 124 118 119 113 102 95 86 80 75 72 69 60 58 46 48 46 47 52 49 48 51 40 45 39 51 49 54 64 56 73 78 78 105 149 146 159 163 179 187 184 164 137 124 107 78 53 181 186 204 207 179 176 135 105 71 52 23 23 41 41 70 81 96 108 119 127 140 142 135 139 144 135 134 133 127 125 115 105 102 104 105 108 111 118 123 123 124 122 124 126 121 122 120 114 115 105 97 90 79 76 77 76 76 66 61 54 50 43 45 47 44 46 51 47 43 49 43 46 44 54 59 54 74 78 76 120 154 133 149 167 168 176 180 140 121 107 98 78 183 188 199 181 166 141 124 88 55 31 21 18 28 27 55 70 87 96 107 117 121 117 121 129 122 111 111 117 115 109 105 103 102 103 107 106 108 108 114 115 120 118 115 119 119 117 114 110 109 107 93 90 79 78 76 76 70 60 60 62 54 46 41 44 46 45 49 47 41 44 37 44 34 40 46 55 59 76 75 90 140 140 135 159 155 160 181 156 114 97 89 80 178 202 203 176 156 131 117 68 33 32 18 15 25 32 45 66 79 91 95 103 111 101 118 113 103 101 106 108 108 103 104 106 106 105 101 105 103 107 107 108 116 114 111 111 111 114 106 108 108 105 96 84 77 74 71 72 75 63 65 63 56 53 52 47 43 46 53 47 43 39 37 41 41 38 36 45 48 64 78 88 127 138 146 155 151 156 158 156 127 92 86 81 189 204 204 168 147 120 93 51 27 39 10 11 24 32 50 63 85 89 86 86 93 103 113 101 102 106 108 105 99 99 104 106 105 99 100 103 103 108 106 107 111 109 109 106 108 110 107 102 98 90 87 81 73 70 65 66 64 62 58 59 52 56 54 50 50 48 53 54 50 36 41 45 50 38 38 32 30 56 67 77 98 138 138 140 143 153 150 142 129 105 87 91 197 206 198 165 135 105 75 51 24 16 0 11 15 36 54 71 85 81 79 77 86 93 101 98 103 103 104 99 95 97 101 104 98 101 100 101 105 109 107 107 110 108 108 107 109 111 105 99 94 84 83 75 70 66 62 62 61 60 62 63 62 61 66 60 58 58 54 56 55 41 42 54 59 55 46 35 28 53 57 77 80 112 135 128 130 152 154 144 132 124 89 94 223 208 192 168 119 83 66 47 22 4 5 16 23 46 59 73 80 79 80 80 79 85 96 97 100 95 92 94 95 100 102 107 102 106 106 106 108 105 109 111 110 107 110 108 110 109 105 96 92 87 84 79 75 68 65 64 66 64 67 70 71 67 73 71 70 63 63 58 59 51 41 54 61 69 55 42 25 42 60 69 85 104 126 128 118 137 150 146 135 131 107 91 218 204 186 156 105 75 52 45 18 12 26 26 38 54 62 79 89 88 87 84 83 92 102 101 97 94 92 96 104 103 108 113 114 118 118 120 120 113 111 114 108 106 107 106 107 109 102 97 90 90 87 84 81 73 79 77 78 78 82 84 80 82 82 79 78 71 67 67 63 59 55 54 62 80 72 45 31 39 58 66 73 92 107 110 116 129 133 140 147 128 120 105 215 191 178 153 103 66 40 34 23 31 38 31 44 61 73 93 99 104 100 98 101 110 111 108 108 105 100 99 103 103 106 108 114 116 118 118 119 123 116 116 115 112 108 103 102 101 93 88 90 86 88 86 84 83 87 84 87 85 88 91 90 88 93 92 90 86 79 78 74 70 65 63 65 90 89 61 35 43 59 59 73 85 86 101 109 128 134 137 135 134 123 109 208 187 169 144 96 59 38 34 27 32 36 37 58 75 90 104 112 125 121 122 128 122 118 113 103 101 99 96 97 104 103 106 110 109 109 103 104 108 102 109 109 105 104 96 96 90 89 92 93 87 89 85 85 93 93 90 90 89 91 92 91 91 90 92 89 85 82 82 81 75 71 77 68 78 100 80 51 42 61 66 63 93 84 86 95 120 135 130 134 140 135 113 202 191 173 129 88 53 35 30 29 20 42 54 74 88 103 116 125 136 130 126 126 116 114 105 98 92 87 87 90 94 95 102 97 97 98 94 92 98 96 97 98 96 96 99 98 98 90 97 98 93 94 90 94 99 104 102 102 97 102 98 95 90 90 93 87 76 86 73 77 83 72 74 83 85 106 95 77 61 56 55 70 84 94 86 92 100 134 130 124 142 140 128 206 193 161 113 84 46 33 25 17 28 56 67 90 97 113 127 146 144 139 129 118 112 103 97 93 85 83 84 79 80 82 84 79 77 80 80 84 85 84 86 89 90 91 96 94 96 96 94 99 101 102 107 108 114 114 113 110 108 107 103 101 97 96 98 85 78 76 71 69 78 77 79 76 91 113 116 102 84 62 45 65 81 99 92 88 90 115 134 115 129 138 129 208 183 147 101 87 48 26 30 19 44 66 80 97 112 129 142 153 144 130 126 117 111 106 100 95 85 85 77 65 68 77 72 74 68 65 72 71 77 81 84 89 93 95 96 99 103 103 102 109 111 115 118 123 121 126 121 115 115 106 105 96 99 101 93 83 76 74 69 68 69 75 83 68 86 107 129 126 104 72 55 64 78 100 96 85 93 115 134 126 118 131 136 195 181 139 99 93 53 33 36 34 56 70 87 114 125 143 155 159 143 127 130 124 113 112 109 96 90 82 72 57 56 69 76 74 75 74 74 78 83 81 84 93 96 100 93 96 104 108 107 117 121 122 127 131 126 132 126 117 120 111 108 100 99 102 93 90 82 73 70 67 76 77 79 71 77 87 130 138 119 85 63 59 87 98 115 84 98 116 134 132 121 129 139 199 173 123 115 92 44 31 47 41 55 74 101 130 125 143 149 143 131 132 131 121 123 120 111 102 91 78 76 62 60 65 74 82 80 81 79 81 91 87 90 97 101 108 103 100 105 115 119 122 131 132 135 137 138 140 132 129 121 116 114 105 107 112 105 105 99 84 74 71 79 78 78 77 82 82 102 117 127 104 74 67 77 95 102 100 110 119 136 117 123 142 146 214 180 136 117 83 55 37 49 42 53 91 103 117 127 131 144 134 122 128 126 135 137 125 119 108 96 78 79 69 68 68 73 76 78 81 83 85 91 98 95 103 110 108 107 108 118 127 128 129 142 140 144 144 139 139 135 129 121 118 116 112 112 122 120 113 108 88 81 78 78 83 77 74 76 81 93 100 114 114 85 83 83 78 104 97 127 124 140 112 118 149 158 222 185 144 90 94 78 45 48 48 73 80 89 119 135 126 143 137 123 134 144 142 138 126 122 110 104 90 87 85 77 94 96 101 99 102 101 100 107 113 118 120 120 116 113 118 130 136 137 138 145 145 146 143 139 138 130 127 124 124 121 121 123 125 126 117 120 105 96 93 83 77 78 70 68 78 96 98 105 108 89 78 80 77 93 110 111 144 136 106 125 140 172 215 185 127 92 106 83 59 52 80 64 65 86 120 127 138 153 146 137 150 151 142 141 139 127 116 110 103 101 109 111 114 113 113 108 111 107 106 110 117 127 130 123 121 120 117 129 140 143 144 148 147 146 144 137 135 132 130 126 122 119 121 124 127 126 121 121 116 101 101 90 84 77 76 73 77 90 95 87 101 92 75 71 71 89 119 112 135 132 108 121 141 170 213 173 133 106 118 109 64 88 76 51 71 89 129 134 147 167 167 156 157 161 148 144 139 133 126 128 133 123 127 129 125 121 119 119 114 117 117 120 122 132 133 130 122 126 123 125 145 155 151 158 153 149 144 141 145 139 144 140 135 135 129 131 130 137 134 129 128 112 118 116 107 97 96 105 98 99 98 97 91 101 85 69 81 85 111 117 128 126 106 112 146 167 207 156 143 116 104 128 102 86 64 44 66 103 139 149 166 170 163 161 157 158 150 148 151 151 150 149 160 151 153 153 142 133 137 134 135 134 133 128 133 136 138 130 120 120 115 114 137 164 165 171 166 157 155 153 148 147 146 142 146 152 140 139 138 146 142 133 134 121 129 130 119 104 106 115 113 108 116 117 110 102 96 72 88 105 98 108 128 128 105 96 130 164 189 151 172 138 98 134 105 66 64 42 71 109 141 159 169 158 152 167 160 157 153 165 157 149 150 160 156 154 146 154 155 148 140 144 149 149 150 146 150 138 138 136 121 115 115 125 146 170 169 177 168 163 167 164 162 161 158 168 166 165 161 165 154 160 156 157 160 142 139 145 127 117 115 117 114 108 120 125 136 96 97 71 76 124 110 104 112 125 95 86 117 158 189 160 178 125 118 118 84 61 57 41 72 107 141 155 158 145 150 164 148 172 164 169 164 155 154 157 161 142 140 149 143 140 145 157 158 154 166 152 157 152 130 135 127 118 112 127 140 156 168 181 180 173 171 181 177 175 177 176 180 170 165 167 173 166 164 155 151 140 139 140 123 113 102 110 112 114 115 124 132 95 105 87 94 136 111 108 107 118 101 105 106 156 200 155 166 131 121 112 77 63 57 42 71 114 141 151 155 141 130 141 153 169 171 163 165 160 163 161 156 142 143 146 138 141 153 162 155 155 165 151 147 139 115 122 116 112 104 109 119 136 141 159 160 175 155 161 156 154 161 157 163 163 161 183 167 161 161 138 133 128 124 124 116 102 103 97 99 111 115 116 126 93 102 103 102 137 112 112 117 113 95 105 117 145 193 148 153 140 135 111 86 72 75 62 82 115 158 139 139 122 105 109 139 154 162 147 137 129 116 124 116 106 107 111 101 114 117 135 129 130 115 115 112 106 102 112 103 101 94 99 108 115 132 144 146 155 155 155 147 127 142 148 128 150 148 148 157 152 138 134 120 111 115 114 101 89 91 85 95 99 103 116 140 106 117 107 107 132 125 112 102 103 101 116 129 137 181 156 150 155 126 104 108 97 79 80 94 115 156 137 131 110 84 105 139 131 140 139 118 94 88 94 101 87 86 103 97 97 103 93 89 108 90 92 87 91 88 99 94 90 89 94 101 110 124 142 146 151 143 147 140 114 112 117 108 112 108 120 124 121 107 102 97 92 97 99 92 69 66 84 84 79 94 120 150 132 142 118 105 116 121 121 110 117 112 127 142 148 173 167 163 168 126 111 114 103 90 80 95 119 141 114 103 98 80 106 129 119 120 123 106 86 91 103 105 93 98 110 102 80 75 65 68 85 79 84 88 87 97 96 93 80 92 90 98 107 112 122 132 143 129 143 136 104 97 103 116 120 109 108 121 114 110 93 104 102 102 92 85 59 45 55 57 55 68 106 145 153 160 134 120 117 120 130 122 140 134 135 152 161 159 164 186 158 126 119 113 76 100 93 106 119 140 114 96 90 80 99 107 111 103 94 90 83 96 106 117 112 119 118 112 95 78 65 90 103 88 87 88 91 101 88 79 76 82 91 96 111 107 110 117 134 139 137 142 111 102 102 117 120 107 118 123 125 120 106 98 84 86 93 79 70 43 46 47 62 66 94 136 154 159 135 121 134 127 128 138 156 162 151 156 162 161 165 182 144 130 124 116 74 86 88 111 116 129 114 106 95 82 107 106 104 94 102 104 105 115 112 104 108 119 125 115 94 84 94 113 108 97 85 82 90 87 78 68 68 81 92 89 92 101 105 102 133 145 136 148 113 99 88 95 94 95 104 117 132 123 111 106 107 97 92 75 60 54 61 52 57 64 87 123 138 150 136 127 134 132 116 128 142 157 154 167 157 156 167 163 122 143 120 119 87 86 78 108 119 133 121 109 108 92 110 109 109 106 122 122 124 122 114 100 110 113 114 113 98 102 100 111 85 89 93 102 114 110 91 77 79 97 97 89 83 106 118 120 123 138 132 137 102 87 68 67 93 84 78 88 109 105 97 86 78 84 84 88 62 66 56 45 53 66 78 118 128 139 142 130 123 131 112 142 141 171 146 166 152 154 171 175 134 150 124 119 102 95 93 122 118 139 128 107 119 102 110 112 111 118 126 135 130 124 118 110 113 129 128 121 101 104 96 91 72 91 107 114 135 125 110 107 110 117 104 87 74 88 108 134 109 114 123 131 100 78 69 58 65 71 63 89 100 98 87 82 72 91 91 98 83 60 61 60 73 89 89 130 142 158 144 127 134 134 135 168 174 205 150 166 155 162 188 174 130 174 139 123 118 109 100 130 119 145 129 111 124 116 119 116 125 131 140 139 135 122 108 105 104 121 129 125 106 105 114 95 81 99 118 122 133 122 123 116 112 115 102 88 94 89 100 133 119 101 119 138 107 92 77 83 54 53 54 90 93 102 78 93 80 84 95 100 77 74 74 73 99 104 111 140 163 176 155 131 150 152 165 170 173 221 156 165 157 166 195 171 126 166 133 135 117 109 115 128 112 133 126 111 117 124 121 116 128 134 134 128 124 119 101 95 112 114 128 122 117 115 121 109 96 107 125 142 138 125 127 120 122 132 121 116 120 105 98 112 116 107 126 125 115 100 91 90 77 54 69 94 101 96 109 110 86 78 84 89 88 82 76 72 101 118 124 141 151 180 170 157 158 171 163 148 181 202 171 162 162 157 217 161 140 158 134 127 118 97 108 125 107 106 118 109 118 122 126 132 129 127 124 127 129 127 122 115 119 116 107 100 101 118 113 101 92 100 104 113 126 132 134 114 129 136 126 115 119 117 99 98 111 120 136 119 119 121 108 97 87 62 68 92 124 116 114 94 77 69 71 81 75 73 70 69 94 119 140 143 156 181 166 167 152 168 153 137 179 184 169 158 166 133 208 150 140 155 141 110 113 86 104 113 109 114 113 110 103 106 108 123 125 118 114 116 120 127 123 125 121 105 100 91 89 103 99 94 82 77 83 93 113 109 101 103 121 135 111 122 123 129 105 76 99 123 146 132 125 141 124 107 87 74 57 82 92 100 93 76 66 69 62 65 68 63 71 69 97 132 147 139 154 184 170 154 150 155 145 125 163 165 151 158 158 103 187 137 147 160 152 100 118 106 103 108 91 117 116 107 103 109 115 119 113 112 113 108 122 130 128 118 106 87 87 76 77 77 91 94 95 86 88 94 113 115 88 108 121 135 124 120 118 123 93 85 95 129 128 133 126 126 113 110 100 97 78 87 81 77 78 68 60 63 62 64 60 63 76 85 100 137 141 134 146 184 159 140 148 179 123 123 141 151 136 163 149 107 180 151 154 163 162 116 126 117 112 119 96 107 108 110 103 113 118 118 121 116 118 116 116 122 118 117 109 100 91 78 71 72 87 93 96 88 103 105 110 90 80 105 111 118 105 101 108 110 82 75 76 102 112 123 118 122 104 95 80 77 76 83 84 79 71 74 66 69 70 68 67 71 85 89 104 126 128 134 143 183 142 140 172 155 99 132 134 138 135 147 139 116 155 168 171 165 158 137 139 126 121 124 103 111 101 105 108 112 116 123 116 106 105 100 112 112 108 108 109 95 78 69 60 68 80 85 96 88 95 104 100 92 94 97 109 107 97 104 102 105 82 71 84 82 92 97 103 105 96 90 89 75 76 75 90 80 79 86 78 73 74 78 80 83 89 94 106 124 138 135 156 173 139 149 147 112 83 129 115 127 139 131 136 108 133 178 171 161 164 148 152 137 126 141 97 109 105 107 106 105 109 112 112 112 107 104 109 109 106 101 94 85 81 73 67 75 91 101 110 98 92 101 103 92 100 99 94 96 97 96 106 95 73 64 83 76 85 97 88 87 104 87 91 92 85 80 80 81 91 95 100 90 83 88 79 82 93 99 113 124 140 141 160 154 138 136 120 96 88 104 106 127 144 117 118 91 111 155 151 143 155 137 142 121 131 139 112 106 111 109 111 107 110 110 118 118 107 103 103 101 103 98 84 82 81 76 79 82 100 106 103 100 89 101 102 99 97 98 95 89 95 99 102 91 79 63 80 84 92 95 98 84 100 97 87 91 88 77 88 88 90 97 94 89 85 91 85 88 102 103 112 126 140 150 148 140 129 126 105 91 90 79 116 123 132 111 123 84 101 109 128 128 144 132 122 119 124 113 115 111 108 106 117 124 112 116 112 113 116 110 106 111 108 95 86 83 89 90 89 93 103 105 110 103 97 103 115 106 108 102 101 95 95 101 113 102 85 75 87 97 105 110 116 114 98 106 96 86 83 74 83 96 89 93 94 94 94 91 86 92 101 107 112 123 142 144 141 133 123 112 100 78 70 68 112 109 120 113 130 97 88 92 111 113 130 120 105 121 110 101 105 112 113 111 122 134 131 124 119 122 119 116 111 115 108 100 93 87 92 91 94 103 104 110 118 114 115 125 129 122 109 106 111 113 106 107 125 126 108 86 88 103 107 122 132 134 122 116 112 99 84 78 81 82 90 87 92 90 95 100 101 103 105 109 113 123 146 140 132 128 120 117 102 72 73 77 105 95 123 121 123 116 91 75 85 81 102 114 103 127 106 104 104 112 118 118 125 134 143 137 136 138 139 137 132 122 115 103 99 89 94 94 103 111 123 132 129 116 122 144 146 140 123 113 120 130 134 124 129 132 122 110 108 103 119 122 136 141 143 133 129 122 107 107 97 99 103 102 109 115 116 114 115 116 117 108 126 141 140 140 118 116 118 121 110 82 86 88 91 92 119 123 116 131 89 73 74 73 56 86 97 122 102 105 103 104 120 117 127 135 146 150 146 146 147 147 141 136 121 113 109 104 104 110 110 122 135 139 126 124 135 152 151 149 143 130 129 140 150 146 154 145 137 135 129 120 125 136 155 159 161 150 145 142 128 124 122 118 126 125 134 127 133 133 130 126 128 132 138 145 138 122 115 102 125 139 122 83 84 83 90 93 115 117 111 135 93 67 77 63 50 61 89 116 107 97 108 108 116 113 122 133 149 155 154 161 161 149 136 127 114 112 106 105 118 129 129 138 135 132 124 124 139 145 147 148 144 138 145 143 153 161 171 169 153 142 146 134 135 142 154 163 153 157 153 156 136 139 139 135 139 142 145 143 144 134 130 127 138 136 140 146 143 130 116 108 133 141 119 102 100 77 114 87 107 119 110 122 94 69 79 50 44 59 76 90 113 90 101 111 118 115 116 133 148 151 160 168 171 152 138 130 121 113 106 109 124 132 135 137 127 125 131 141 146 151 154 154 154 147 148 154 159 171 183 182 171 158 153 137 133 131 134 150 154 159 158 157 148 145 145 145 151 154 152 155 157 147 145 143 147 147 146 148 147 143 117 106 119 143 127 124 101 94 110 72 131 117 115 104 97 67 69 57 64 62 69 71 95 92 102 114 117 117 122 131 147 150 164 173 163 147 129 123 117 118 112 116 125 127 123 125 125 120 124 135 143 146 152 159 159 157 161 163 168 171 177 169 171 157 154 145 126 116 110 112 122 135 145 147 147 147 150 148 156 160 159 157 161 156 151 153 158 157 153 158 150 151 113 111 117 134 117 124 109 108 102 72 135 116 124 121 99 53 64 62 82 63 68 72 80 91 98 112 122 126 128 133 144 150 158 164 155 147 136 126 119 119 119 114 122 122 130 132 135 130 127 140 142 151 151 148 161 172 173 179 184 175 171 162 161 153 145 137 134 126 117 115 110 121 131 138 147 146 155 159 160 165 157 156 166 168 162 164 160 162 158 156 156 144 114 108 108 121 100 124 133 119 89 69 125 130 130 153 121 59 55 47 69 72 74 81 78 90 97 109 128 132 129 135 148 151 154 150 153 141 140 132 125 121 119 115 124 130 137 142 140 130 130 138 147 151 150 144 156 176 186 184 192 189 175 170 158 155 156 132 133 124 117 113 103 107 127 129 140 155 162 168 165 166 167 165 168 174 169 167 159 159 153 158 154 130 103 106 108 104 107 124 137 121 76 70 128 138 127 177 143 92 64 37 44 81 86 107 86 85 100 117 137 133 126 134 144 149 148 141 141 140 148 136 128 128 120 124 136 138 135 137 131 130 134 140 153 155 159 142 151 178 186 191 194 194 191 184 167 162 166 146 138 122 116 108 101 109 129 144 140 156 169 172 173 172 173 171 165 162 166 160 155 151 152 155 139 112 102 99 95 91 104 113 115 106 69 80 133 144 126 173 143 134 114 45 25 68 75 107 96 74 95 127 140 132 130 138 140 142 140 138 136 137 143 130 128 136 125 137 139 130 126 128 127 128 135 135 147 154 161 156 162 190 205 202 196 187 193 195 191 180 176 168 163 148 134 121 109 109 119 140 142 152 160 163 166 171 168 162 155 152 154 158 146 146 150 146 123 105 109 101 107 84 91 86 105 83 80 95 134 150 129 180 157 150 145 75 25 59 79 97 89 74 96 117 135 131 132 136 141 136 133 133 132 131 133 123 130 142 132 132 129 117 129 125 122 129 138 141 150 154 165 168 171 184 193 200 200 192 188 200 205 193 186 168 169 161 150 136 118 118 122 131 141 136 143 150 153 156 155 150 142 142 147 148 138 137 148 146 118 104 117 102 100 76 79 68 80 66 94 100 138 152 139 175 176 163 156 105 31 56 76 93 80 76 99 117 137 128 131 136 135 133 128 131 125 127 121 122 132 136 128 122 116 116 123 121 119 125 139 138 141 144 157 150 142 153 163 188 187 190 187 192 200 182 168 149 142 146 129 125 115 108 110 114 121 121 125 131 135 144 150 140 132 129 132 133 129 132 147 146 120 104 116 103 90 75 65 55 47 72 99 106 142 156 137 173 177 174 158 136 41 42 69 87 83 84 94 114 133 135 132 128 128 128 124 127 128 126 116 126 129 124 120 109 110 111 115 113 116 118 126 130 135 131 144 138 136 137 131 142 164 161 162 158 156 148 132 123 114 123 104 101 102 91 93 108 111 118 111 114 115 129 143 128 123 117 122 122 118 128 138 146 119 117 124 94 102 79 53 40 50 86 105 122 153 148 134 193 192 175 160 140 64 38 53 76 88 92 92 105 119 136 133 129 125 125 118 123 120 115 114 125 117 120 107 98 105 112 111 107 125 126 115 117 119 113 124 118 128 128 125 129 132 120 123 114 111 124 116 104 103 102 102 101 98 93 97 107 104 107 108 114 102 112 129 121 114 111 120 117 118 124 132 142 120 128 136 119 101 68 55 51 44 89 102 142 166 150 136 200 199 186 164 145 92 50 43 51 84 88 98 102 106 126 130 124 128 117 115 120 110 108 110 121 111 109 97 91 109 114 115 116 129 132 116 105 98 99 104 103 117 122 125 131 129 124 120 129 127 123 121 113 115 113 116 118 108 105 107 110 117 110 107 114 107 106 110 117 110 104 113 109 114 123 130 134 117 136 146 132 113 73 73 71 68 88 114 158 164 160 139 192 195 183 174 146 108 74 55 47 76 85 93 90 96 124 126 128 129 120 125 120 112 109 114 113 109 102 88 93 108 109 117 128 138 134 137 126 105 102 103 114 119 118 128 133 126 128 119 126 128 128 129 117 111 121 127 128 119 118 128 129 125 121 114 118 113 100 96 106 99 96 104 102 111 117 129 121 121 156 162 145 126 93 82 90 87 102 137 159 163 160 139 187 186 181 180 145 121 95 63 70 76 87 91 86 89 125 114 127 132 128 128 129 126 118 114 104 103 99 91 97 100 108 111 128 135 140 148 138 119 111 127 134 132 116 112 118 122 117 124 120 121 130 122 117 113 123 126 132 135 138 144 149 144 137 127 121 119 105 87 89 87 88 97 97 107 115 124 112 138 171 179 161 138 96 102 110 111 126 149 169 160 160 146 189 182 188 174 150 132 105 77 78 80 92 75 85 88 122 120 124 138 129 131 129 131 122 116 102 93 96 100 90 87 98 104 109 125 146 151 147 144 134 135 137 127 118 118 123 119 112 119 116 123 117 116 120 115 122 130 143 152 154 154 150 151 146 142 132 123 109 88 82 78 77 89 99 100 114 124 104 157 185 191 173 136 105 115 142 128 118 156 171 166 149 153 179 180 186 163 151 143 119 82 82 83 95 73 76 81 113 126 128 137 131 126 130 127 121 104 83 73 81 84 83 85 93 100 100 114 139 151 158 162 147 143 128 128 119 112 115 110 101 107 109 114 117 113 122 107 114 132 141 140 153 149 134 144 142 130 124 114 105 83 78 70 70 87 92 98 117 117 119 170 188 196 178 137 115 137 137 129 113 161 177 168 140 149 189 188 176 157 153 148 126 102 80 84 84 68 72 75 109 131 129 137 133 125 126 123 105 89 75 67 74 86 86 90 102 110 106 114 142 152 156 156 155 142 123 115 112 91 96 90 80 93 92 91 107 112 121 95 104 108 113 121 127 131 114 115 123 111 107 98 94 82 81 65 67 87 90 99 119 116 139 179 202 196 171 130 124 135 136 127 126 158 177 164 140 149 181 174 172 165 164 145 137 115 86 78 74 66 68 88 104 134 133 137 128 124 128 114 98 84 72 74 84 95 96 97 113 121 123 125 156 158 168 160 160 147 134 126 125 112 102 90 91 98 96 96 93 96 98 97 86 88 91 110 108 113 111 107 105 98 102 98 88 89 85 72 70 90 98 110 124 128 154 201 200 207 163 126 125 124 137 131 137 148 164 175 148 141 158 160 175 169 158 142 129 126 92 87 78 76 72 92 96 140 140 138 123 118 119 109 92 83 74 78 88 99 98 98 105 117 130 134 150 154 176 174 161 155 152 142 141 135 135 118 109 108 105 101 97 96 104 102 94 94 94 95 94 92 91 99 94 91 93 99 90 85 85 82 95 97 116 122 133 127 165 202 205 199 140 120 109 117 126 134 144 138 161 174 167 143 158 152 169 162 140 135 109 105 100 95 89 82 71 102 101 137 144 135 107 110 115 104 90 82 80 87 89 94 95 94 99 112 131 127 131 129 155 163 165 152 148 146 143 131 141 133 124 121 113 103 105 114 107 105 89 92 86 86 82 82 93 93 89 93 91 98 91 85 93 107 105 107 123 131 140 135 183 201 192 174 131 115 103 109 109 133 146 134 156 168 178 163 161 161 152 136 143 120 74 84 99 95 104 89 86 94 106 133 143 139 105 102 114 109 101 93 95 99 99 100 103 114 118 125 142 137 142 142 147 154 157 154 153 158 155 146 147 143 137 137 120 131 126 129 122 115 103 99 92 94 98 95 98 98 99 100 96 99 100 98 111 115 116 117 133 143 134 146 198 200 192 156 124 98 92 100 106 126 143 129 143 174 179 175 159 153 131 125 134 89 49 86 95 88 106 97 106 99 110 127 144 143 119 99 112 115 105 105 104 106 107 112 105 113 121 126 130 126 120 125 135 140 143 142 147 144 144 130 134 128 127 123 121 125 117 120 111 104 95 89 88 96 99 96 96 95 96 91 94 102 104 112 122 120 124 124 141 149 124 163 200 196 186 150 119 89 82 97 109 131 121 132 130 162 178 168 129 132 113 115 99 50 42 82 107 94 100 96 114 109 115 131 145 139 132 99 103 116 109 108 103 106 105 112 106 101 114 119 121 106 100 99 99 112 111 111 121 121 118 121 123 127 118 118 115 118 108 106 101 96 91 88 86 83 91 88 99 106 109 103 100 101 110 126 127 126 128 128 149 143 131 176 207 192 175 149 112 80 86 98 114 127 117 126 129 145 165 168 112 103 98 99 56 32 53 81 99 100 97 99 113 110 120 130 137 143 134 102 96 110 113 105 108 101 96 103 102 97 95 100 97 79 81 80 72 72 72 71 72 81 82 91 102 119 109 101 95 89 77 71 76 81 89 92 90 92 90 88 96 114 116 108 107 106 116 125 124 125 132 138 146 122 139 182 209 186 161 137 105 80 88 90 119 115 119 128 127 128 147 154 97 100 93 65 43 36 60 71 93 110 104 98 114 116 125 129 127 132 134 112 94 103 108 105 115 102 112 120 118 115 109 101 91 78 74 74 75 74 75 63 57 62 61 59 65 79 70 70 62 58 47 42 41 62 70 85 92 93 87 91 109 120 125 118 119 116 118 118 123 127 137 134 135 115 147 203 205 176 150 130 90 80 95 95 106 118 110 127 135 112 127 144 98 102 74 47 39 45 62 67 94 123 108 108 111 117 115 125 122 131 139 129 96 96 103 108 112 109 119 135 140 145 141 129 119 102 94 91 92 83 82 71 71 75 70 64 63 65 66 63 59 51 54 43 48 66 81 84 94 95 98 111 118 123 124 127 127 122 122 118 125 137 140 118 135 112 157 210 210 165 143 119 87 80 91 93 97 110 106 124 135 125 112 131 96 78 50 42 46 60 66 69 94 127 120 118 107 114 114 111 105 135 142 135 116 97 103 104 108 117 125 133 144 148 151 151 142 136 125 123 109 103 95 84 89 92 85 87 88 89 93 91 87 83 77 75 73 88 97 100 101 117 118 122 126 136 134 130 126 128 124 120 129 140 126 114 127 117 166 202 198 162 135 111 91 81 74 86 98 87 113 110 132 134 119 120 71 62 47 48 60 74 68 72 105 141 137 120 108 126 114 94 102 132 141 148 134 117 100 100 101 109 119 131 135 142 152 156 158 149 144 140 132 127 119 112 110 112 109 109 110 107 106 104 105 104 102 99 98 100 110 108 118 126 129 125 140 143 136 126 125 121 121 127 129 136 112 114 109 126 154 204 185 151 134 106 104 84 63 77 83 84 92 109 120 124 131 117 47 49 46 56 76 85 65 83 123 145 145 142 122 126 98 80 104 136 139 147 137 128 105 98 97 103 112 123 135 142 146 148 158 160 158 153 143 138 132 130 124 124 122 121 121 122 121 116 114 116 115 110 111 110 114 116 128 125 132 138 139 141 143 131 122 122 127 135 135 125 112 104 116 115 137 192 163 141 119 107 112 86 69 51 69 75 79 87 109 101 113 112 42 56 59 69 89 92 63 94 136 150 155 159 136 108 83 82 107 135 141 148 141 122 108 104 94 99 106 114 128 135 142 140 145 154 155 151 144 136 135 131 134 131 129 134 123 124 122 119 111 110 107 109 104 113 113 113 127 130 138 143 141 140 142 135 122 131 142 141 126 125 106 105 127 104 118 167 144 123 118 110 112 73 71 55 46 69 77 73 73 88 90 98 49 56 58 71 87 87 72 104 147 146 154 162 132 100 74 87 112 140 143 147 144 125 110 102 88 93 102 110 113 127 127 133 139 135 136 144 147 138 135 129 123 124 121 121 116 120 117 115 107 112 105 109 104 107 107 112 124 137 144 146 146 139 143 135 134 132 148 129 122 124 101 111 131 89 105 142 129 93 115 111 98 73 75 61 51 51 78 77 73 68 78 78 62 67 65 82 91 86 89 108 146 140 143 154 131 116 77 87 128 146 149 148 138 132 112 98 84 86 90 101 107 110 118 121 130 129 124 128 131 127 127 121 123 118 118 107 108 103 106 105 107 105 105 102 104 105 105 112 122 139 140 145 149 146 142 140 138 136 132 120 117 120 97 113 123 77 94 130 109 88 96 110 99 69 79 75 60 46 63 80 83 74 70 72 65 75 74 95 103 99 98 113 148 149 133 156 144 127 91 91 131 156 151 145 129 124 121 99 84 86 84 87 94 102 105 115 125 130 120 129 124 120 116 114 121 112 111 101 101 95 95 99 97 98 99 102 104 104 110 119 122 138 142 151 145 142 143 143 139 128 114 116 116 113 92 113 106 75 81 118 92 86 92 99 96 64 77 88 71 61 54 75 83 89 81 74 62 82 86 109 118 104 121 132 157 159 133 144 148 142 105 103 130 151 160 142 128 125 121 106 87 88 90 79 89 93 100 99 110 114 108 114 111 110 104 101 100 94 93 88 85 83 87 88 89 95 98 106 108 112 118 133 127 137 147 151 155 151 151 142 138 118 110 108 115 116 80 105 90 68 57 96 90 75 89 92 87 71 77 96 86 73 63 65 76 88 90 85 73 92 105 126 136 131 153 137 158 148 119 135 157 158 113 113 130 139 156 148 128 129 116 99 93 85 89 82 77 84 85 88 93 96 94 92 94 92 87 84 85 83 76 77 74 70 72 80 87 92 98 108 118 119 130 142 143 147 153 160 161 161 154 129 123 109 102 104 106 106 77 94 82 64 46 80 79 74 87 73 80 78 78 100 100 77 63 61 63 69 77 81 91 99 123 145 152 151 160 141 149 142 122 143 166 156 122 119 135 138 142 143 140 132 121 104 92 91 84 85 75 77 83 85 93 94 89 90 85 90 86 85 86 82 71 72 68 76 74 79 97 103 111 118 121 131 139 149 152 156 153 158 162 150 133 115 108 96 97 103 102 101 81 87 69 55 49 69 58 81 81 69 72 64 68 80 95 79 59 54 52 62 68 65 104 122 136 161 155 154 154 155 152 149 127 145 175 162 112 119 141 137 124 146 133 136 122 106 91 89 89 87 77 73 74 86 88 95 92 94 91 86 90 87 85 83 81 81 83 92 94 99 111 117 123 134 138 141 159 158 155 158 153 149 149 132 104 97 95 93 94 94 98 91 79 92 58 48 43 55 62 84 80 64 63 59 56 66 80 79 62 43 57 49 60 59 121 128 142 165 159 160 181 162 159 154 135 151 161 159 112 127 144 123 110 144 139 129 122 109 95 92 86 88 80 74 68 75 82 88 90 88 96 86 89 91 81 87 85 94 104 106 112 116 132 138 136 144 150 154 159 158 159 163 147 125 123 110 85 95 84 80 81 87 93 85 69 89 58 39 43 44 64 84 81 55 60 59 49 60 76 84 68 48 49 55 52 56 133 134 148 176 185 184 206 179 168 154 140 155 148 147 122 135 132 124 104 139 137 125 118 102 97 85 86 79 81 76 72 64 76 79 81 85 82 83 86 86 77 81 85 92 102 111 119 125 139 150 147 146 155 158 155 155 160 154 125 115 105 85 84 83 71 70 82 83 88 79 66 78 57 40 39 68 66 90 54 69 54 67 42 52 73 83 74 61 50 65 53 54 147 156 181 202 209 203 221 201 163 154 151 152 140 142 124 137 124 115 109 129 137 129 116 104 92 88 84 84 83 79 74 66 59 68 80 79 73 68 78 80 84 89 86 97 100 106 117 130 137 141 145 144 142 149 149 141 147 131 105 92 80 74 74 63 65 64 86 81 82 66 62 61 58 41 47 90 79 91 49 62 62 74 59 48 63 76 90 75 66 75 68 51 176 182 199 206 218 216 227 207 169 163 161 147 134 139 121 134 113 117 106 123 132 128 129 107 98 93 85 83 85 86 77 71 64 53 67 78 73 65 72 78 80 82 91 95 96 102 115 123 124 124 127 128 127 135 132 125 114 102 82 66 62 52 56 62 55 66 74 72 79 56 59 47 53 35 62 94 90 98 79 59 61 88 94 70 60 73 105 94 84 83 91 78 190 198 213 213 226 218 238 209 176 171 171 151 132 129 118 125 108 111 102 119 123 128 127 116 105 99 81 86 83 88 88 82 79 63 61 57 65 67 71 69 73 77 84 88 100 106 104 108 102 103 104 111 111 112 103 97 83 72 57 46 48 46 58 54 60 62 74 72 66 57 43 54 32 39 61 94 92 87 96 81 62 87 102 79 53 69 100 102 84 79 84 84 202 204 210 217 228 235 255 207 179 180 168 153 130 108 115 104 100 108 96 122 117 122 122 115 114 103 89 83 87 85 92 99 100 87 79 69 64 60 65 66 72 70 78 84 95 98 95 90 83 80 86 90 90 89 82 71 62 57 53 45 46 51 68 62 57 67 70 59 49 53 40 46 23 52 58 88 84 76 98 109 89 75 96 94 63 60 85 102 86 81 84 86 209 215 214 227 231 244 241 193 180 190 175 157 125 99 93 85 107 98 84 119 117 114 115 111 118 110 90 83 88 83 88 99 111 98 98 88 86 78 66 68 67 74 78 79 81 85 81 79 83 77 78 76 80 80 68 63 59 55 59 53 51 61 71 58 61 63 68 49 40 49 59 42 26 59 51 91 75 72 107 113 109 97 83 101 80 60 74 103 100 90 89 92 208 221 216 211 225 234 215 175 169 194 191 158 125 106 81 70 104 95 83 108 119 108 109 110 119 110 97 86 87 88 88 93 106 106 102 96 94 87 75 72 71 74 68 75 78 76 79 78 83 77 77 72 75 72 74 67 66 64 59 57 55 65 70 60 65 69 65 51 45 43 59 28 44 55 59 97 63 71 119 122 109 102 83 98 92 66 61 84 108 104 94 89 