P2
92
112
255
166 164 166 167 165 167 170 168 168 175 176 180 176 179 183 191 178 186 181 178 170 168 168 159 157 142 138 128 116 126 117 106 114 107 108 113 128 110 116 117 109 115 123 127 135 123 131 124 133 161 159 154 163 163 157 156 155 156 150 146 144 152 158 160 170 170 193 203 210 214 225 228 223 212 205 204 191 190 185 181 185 179 181 179 175 181 176 178 178 175 179 176 162 165 164 167 164 167 171 171 173 181 181 180 183 186 185 184 179 180 177 162 151 164 159 152 152 143 128 124 114 122 120 110 115 104 104 131 129 115 122 124 117 122 140 143 140 140 136 127 127 140 142 151 158 146 141 150 151 156 151 148 151 152 149 153 163 168 171 195 200 209 217 231 234 230 224 206 202 196 187 187 185 179 182 182 178 177 174 177 175 176 177 174 164 163 163 166 166 167 170 176 182 184 181 176 181 183 187 185 179 172 172 162 143 153 139 139 141 132 120 114 114 117 128 123 125 120 122 128 135 133 142 146 135 137 164 162 155 148 145 159 157 131 146 173 164 153 143 138 149 149 151 151 154 148 148 147 159 158 164 180 183 197 212 219 234 236 232 223 201 202 189 184 180 183 185 184 182 177 178 176 178 176 175 178 163 164 163 165 166 171 180 184 187 189 180 179 182 184 189 179 180 168 156 147 129 140 143 145 129 128 129 134 125 123 128 116 114 142 146 144 148 148 163 165 163 156 167 185 167 156 161 169 177 141 142 167 166 150 148 142 153 155 147 156 154 148 146 146 155 154 160 164 177 185 194 205 215 233 225 222 220 204 193 186 184 189 187 188 178 179 179 179 179 177 174 178 163 164 165 166 173 187 189 188 187 183 180 178 178 180 185 185 173 150 131 131 132 129 122 123 129 143 149 148 146 135 141 147 131 143 151 162 151 160 158 173 168 163 179 176 168 154 178 178 179 147 149 149 140 145 145 143 145 152 149 149 150 143 143 143 143 148 155 148 158 179 184 194 205 213 220 218 213 221 206 196 190 191 191 188 184 182 186 185 177 178 176 176 163 164 165 173 180 192 192 186 185 175 178 178 178 177 182 179 166 135 115 119 114 107 107 111 126 141 150 140 158 167 185 178 169 159 167 169 165 167 170 162 155 166 183 178 154 145 161 175 179 150 149 140 137 131 132 134 129 138 141 142 141 143 137 126 133 141 142 135 137 158 170 176 190 196 207 215 212 210 221 202 196 189 188 190 185 186 185 181 176 178 176 175 164 166 168 177 186 190 182 179 175 173 171 176 172 172 162 160 140 124 118 116 106 112 123 127 135 139 147 158 178 192 191 182 166 180 176 167 164 161 169 176 152 155 170 181 161 142 145 142 146 138 128 140 135 129 114 120 126 116 112 128 136 132 131 126 120 129 137 131 130 136 148 157 171 171 188 189 194 205 217 210 202 194 188 190 189 186 182 183 180 177 174 178 162 168 181 192 185 182 186 176 176 173 170 175 160 153 150 134 109 111 108 115 118 122 116 128 152 166 181 193 197 208 199 198 197 186 190 187 177 178 172 184 170 161 182 189 170 147 145 148 131 127 124 131 123 120 97 102 110 104 99 105 113 115 120 119 110 119 128 124 123 134 143 149 151 157 154 164 180 193 199 205 215 198 190 189 185 188 181 185 183 179 176 177 164 171 189 189 181 178 176 174 176 166 174 162 151 139 124 106 104 98 118 131 136 131 122 142 161 193 204 214 218 224 220 204 207 204 205 206 193 174 184 181 170 164 175 195 170 141 136 142 139 128 131 124 124 106 104 98 100 104 99 91 99 98 112 110 112 116 114 107 111 122 136 137 140 131 139 152 169 175 188 202 209 213 189 187 186 188 184 183 182 186 180 180 166 182 189 175 171 171 173 170 162 167 164 142 131 116 94 90 93 109 125 145 145 149 167 186 196 198 216 229 229 231 226 224 210 205 220 214 198 180 170 174 173 176 171 173 168 141 132 142 146 133 117 110 117 110 100 96 107 108 103 91 89 92 99 97 98 112 105 107 96 101 111 121 134 129 124 145 145 161 173 195 193 208 207 187 187 189 185 185 186 185 183 176 179 185 176 168 170 179 173 164 156 157 150 144 125 97 78 79 88 111 133 133 140 166 183 195 200 196 211 225 240 228 223 231 223 216 224 214 201 188 173 166 155 150 153 155 146 147 141 135 136 131 111 102 104 111 101 91 89 89 88 96 90 86 98 92 92 101 96 96 95 94 95 98 108 122 132 132 148 149 153 173 182 199 203 204 189 188 190 188 187 184 183 177 183 175 164 167 177 173 167 159 155 142 142 115 94 75 82 95 115 130 139 145 164 172 196 194 199 211 215 218 222 223 222 229 219 219 211 210 194 196 186 169 152 136 131 134 126 131 132 116 113 124 117 103 103 104 91 84 76 78 77 96 93 94 95 98 92 100 95 99 104 92 95 96 92 104 119 125 139 154 148 156 176 187 193 210 197 190 192 190 188 183 181 181 174 163 160 168 172 166 152 147 144 136 109 95 79 69 90 116 138 144 147 152 149 175 182 187 200 206 208 215 219 222 218 224 210 199 189 190 177 177 166 156 148 142 127 125 120 117 120 116 107 111 119 100 95 84 81 81 77 72 89 90 95 97 94 100 97 90 94 93 97 108 89 92 103 94 91 119 127 142 139 143 165 186 193 201 218 192 192 187 191 183 183 183 171 168 164 169 158 144 147 131 118 102 88 87 66 86 114 142 150 160 158 154 170 177 174 177 188 198 208 215 207 209 212 212 194 183 176 166 155 142 141 128 120 113 109 108 113 110 115 104 108 101 101 88 85 79 77 86 82 73 85 93 88 84 89 96 97 97 99 100 88 86 98 90 89 94 89 98 118 116 123 135 155 170 187 192 208 217 191 190 190 191 189 181 168 164 155 153 135 131 118 109 107 92 101 74 79 106 134 145 143 146 150 168 185 183 179 174 188 197 203 207 203 194 190 181 169 163 156 138 125 121 108 109 100 92 95 105 97 93 102 99 103 101 93 92 85 82 75 82 78 61 75 83 80 88 90 91 87 93 93 89 89 85 91 92 86 90 89 81 99 110 109 124 140 157 176 190 193 213 211 201 190 196 191 180 162 160 147 125 121 110 90 98 90 86 75 60 95 130 150 149 149 153 157 177 178 183 180 181 190 193 185 180 181 177 171 151 141 136 128 114 96 88 87 87 81 80 86 91 76 84 85 85 85 97 92 84 87 86 83 77 66 61 70 69 78 86 85 90 88 91 97 92 83 90 87 81 85 84 84 89 74 99 101 105 123 141 163 177 186 195 216 224 194 196 191 185 158 155 137 111 107 91 86 90 97 99 68 83 123 150 151 154 158 164 168 168 170 170 175 178 179 179 167 165 162 150 148 128 117 105 98 84 72 72 68 70 72 73 77 78 67 82 84 81 83 86 95 87 80 74 76 69 69 68 76 79 86 96 99 98 104 98 109 104 101 103 105 81 82 95 84 85 86 82 94 87 93 112 131 164 174 182 198 225 218 198 191 194 155 141 110 98 97 80 75 86 91 84 77 104 143 163 162 163 169 172 173 171 170 172 180 167 159 152 153 151 145 128 125 110 95 84 73 64 59 57 63 62 59 56 62 65 58 70 74 75 77 85 87 84 82 76 75 74 78 78 84 93 100 112 118 122 122 121 130 132 128 122 125 116 91 95 88 82 93 76 75 84 66 85 105 141 173 175 186 205 235 219 198 191 140 120 86 84 74 67 73 86 86 73 100 150 181 178 175 181 185 179 170 171 172 167 174 161 154 147 139 137 129 119 108 95 83 69 65 53 59 56 59 58 55 51 55 60 65 69 73 76 73 82 89 88 98 101 100 103 112 107 101 113 119 130 137 144 146 145 144 153 149 140 137 138 120 108 96 91 90 94 70 75 79 47 89 120 147 174 180 194 222 240 217 197 119 103 81 78 65 65 79 77 69 75 124 186 186 189 189 193 192 171 172 174 172 173 163 161 154 137 130 112 112 104 97 86 73 69 68 61 61 61 63 64 54 57 52 56 62 72 74 76 82 91 100 102 115 115 114 122 121 122 128 135 144 152 161 164 163 165 171 177 165 164 152 150 140 135 119 96 88 82 77 61 71 56 64 94 117 154 171 184 199 227 233 205 112 99 84 74 68 75 82 75 80 102 153 186 184 198 200 196 183 178 177 174 172 168 155 152 143 123 115 109 103 100 97 91 83 79 78 72 68 65 67 65 61 63 62 62 70 78 79 91 101 110 111 116 124 121 130 141 146 149 152 159 164 171 182 180 181 181 186 181 184 176 170 160 157 147 138 118 102 88 78 81 61 67 59 79 92 126 154 166 189 204 224 218 114 89 75 63 67 81 76 77 91 140 173 186 197 221 210 192 176 181 171 164 162 150 142 130 121 111 105 99 97 97 95 98 96 91 90 87 80 78 79 78 82 82 78 82 89 96 100 107 118 126 128 130 131 137 148 159 169 170 178 177 186 196 195 193 197 197 202 192 189 190 184 183 176 172 158 151 131 114 105 98 77 68 66 76 82 105 143 152 174 194 214 224 88 69 64 57 80 69 66 92 120 165 194 202 217 220 210 188 179 176 163 158 144 133 121 113 112 109 100 94 100 99 98 100 104 97 99 101 105 109 104 107 103 99 99 101 106 112 116 119 130 132 142 145 146 156 165 176 184 188 195 194 209 212 211 208 203 207 215 201 207 203 195 190 188 185 172 164 150 122 118 104 93 80 76 66 77 88 116 137 154 192 210 212 74 68 52 59 65 49 61 103 146 178 199 212 211 209 201 190 177 160 149 137 124 115 110 110 109 106 94 88 100 102 102 107 118 119 121 125 126 127 125 119 119 114 114 111 115 120 126 130 134 135 147 158 164 178 183 184 194 195 197 205 217 220 210 206 207 205 207 213 208 209 202 196 195 194 186 170 162 148 122 110 89 99 76 76 64 78 106 125 135 176 202 213 77 66 56 46 52 60 92 133 163 184 207 225 214 209 194 179 161 144 142 130 111 103 107 108 102 102 105 111 114 117 125 135 141 144 142 145 141 141 137 128 130 124 124 122 128 135 135 141 139 146 158 165 175 182 188 189 193 202 203 215 213 216 215 210 212 211 209 220 213 217 205 207 201 189 195 179 175 175 152 106 109 95 96 81 70 68 90 120 134 151 179 206 79 74 54 52 77 83 117 148 183 199 227 230 214 216 190 176 158 148 139 130 118 118 125 121 116 126 127 128 132 135 146 155 157 157 154 152 150 142 136 137 135 137 134 133 138 137 138 144 143 153 163 171 182 185 184 185 185 194 200 206 210 217 215 215 217 215 209 212 216 209 213 211 211 198 193 196 177 175 180 135 100 120 109 93 91 79 75 118 135 151 160 180 78 71 61 77 90 116 129 166 199 219 232 236 228 233 203 186 169 162 151 141 138 142 138 131 137 150 150 144 145 151 156 156 157 157 151 153 152 151 146 146 140 141 143 139 140 142 143 147 149 151 167 171 182 183 185 185 190 201 200 198 206 214 219 216 215 216 212 212 218 214 221 213 222 213 205 195 191 175 176 165 112 112 119 101 107 97 72 103 144 162 169 178 82 57 55 80 99 126 138 188 222 220 237 240 233 226 212 190 178 168 165 156 147 158 141 147 158 160 155 152 152 157 157 154 152 154 158 154 157 152 152 151 144 145 148 146 147 144 151 149 150 153 164 176 183 187 190 189 185 198 195 195 204 207 208 215 217 215 209 213 217 220 222 217 215 216 216 205 201 186 172 166 125 115 109 105 112 103 96 101 135 167 174 175 71 55 53 86 106 135 164 204 228 214 245 244 234 225 206 194 175 171 174 174 165 157 147 160 159 155 153 155 160 162 156 154 153 159 158 156 156 151 153 152 147 150 149 151 148 147 150 155 158 168 172 178 187 190 196 195 197 198 203 201 208 203 205 211 212 214 209 208 211 225 219 214 208 217 214 218 219 194 182 176 154 115 117 121 120 109 105 115 133 156 174 165 64 53 58 89 117 151 183 207 231 237 255 245 242 222 204 187 175 180 181 184 173 167 160 163 159 158 157 160 164 163 161 158 161 157 159 158 154 150 152 152 148 150 149 150 147 144 152 158 163 175 177 185 191 194 199 198 200 201 199 198 199 199 194 200 204 203 209 206 206 220 218 206 200 202 208 217 222 197 194 175 174 140 121 133 132 112 105 113 130 137 172 165 39 50 62 83 135 175 194 210 234 250 250 242 233 214 200 185 179 181 180 181 181 176 164 165 162 166 168 166 164 162 160 154 158 152 152 153 151 154 151 149 149 151 147 148 146 146 151 160 165 170 174 180 185 193 196 197 196 198 196 193 191 195 188 189 190 199 200 205 203 209 219 207 199 189 200 211 227 208 191 184 170 149 131 134 146 128 112 112 124 131 153 169 43 53 67 94 148 184 206 212 237 243 231 231 220 205 196 181 171 172 174 177 179 170 161 162 166 167 169 165 158 158 154 149 146 141 140 138 138 146 148 146 151 152 150 149 149 146 154 159 167 167 172 175 178 187 181 185 184 185 181 178 182 181 180 182 182 190 195 197 199 202 205 207 198 180 185 209 221 213 193 189 181 161 149 152 149 137 129 120 113 131 138 155 47 64 73 98 152 193 217 222 233 226 221 227 216 199 186 167 162 158 163 165 161 155 153 156 156 157 162 162 158 159 154 152 145 142 140 138 138 135 142 143 144 147 149 153 153 155 163 168 167 171 169 174 176 178 174 178 174 177 174 170 172 173 169 169 172 175 183 185 187 192 196 197 196 171 169 196 218 208 196 195 182 168 169 162 158 139 131 127 125 124 135 150 53 66 83 108 160 200 220 223 231 227 224 222 202 186 171 158 150 138 145 143 135 143 147 150 158 160 161 163 162 156 158 154 150 149 148 152 151 150 155 148 149 154 154 161 161 167 169 165 165 170 169 173 173 166 165 168 169 169 169 167 169 170 170 168 172 177 179 180 181 187 191 185 193 183 159 178 205 210 194 190 192 160 171 178 173 147 130 133 127 116 123 145 57 61 80 123 170 205 225 228 230 239 218 207 188 174 161 147 141 131 138 142 140 149 152 160 164 170 172 172 169 164 164 156 160 160 159 160 160 156 159 159 159 162 162 160 159 160 167 161 160 164 163 167 161 156 151 153 153 158 152 157 161 167 168 169 174 186 177 188 184 179 190 190 179 176 154 165 182 195 200 202 186 170 160 179 177 168 129 131 135 115 116 129 55 62 92 139 174 212 226 232 240 232 205 195 173 167 153 140 123 125 131 139 149 153 163 168 171 178 177 176 180 179 176 174 179 180 177 176 172 170 171 170 168 168 165 160 162 160 160 162 157 154 154 147 147 139 140 141 145 145 147 151 154 159 161 160 175 183 185 190 191 185 186 186 189 172 150 145 159 176 195 212 192 174 158 174 182 177 149 125 144 128 116 129 53 75 107 150 168 209 232 227 239 218 195 183 168 155 140 128 116 126 140 141 148 153 160 165 169 178 177 184 195 191 182 186 183 190 193 187 187 180 176 173 168 164 162 160 156 153 152 152 146 143 140 137 131 133 128 133 140 140 148 150 160 158 157 166 176 182 184 191 194 194 190 183 199 179 158 135 137 157 187 202 194 177 158 171 185 173 149 125 133 139 123 121 69 77 115 151 165 205 224 223 225 207 191 177 153 145 128 116 111 128 143 136 140 151 152 155 168 173 179 189 203 204 188 181 183 181 183 184 180 175 177 173 165 161 157 163 160 151 148 148 138 134 133 128 124 129 123 129 138 135 144 147 157 159 156 166 168 176 185 189 195 189 189 188 196 190 177 134 126 144 175 198 200 171 162 151 186 170 148 126 126 137 125 119 67 85 130 136 164 212 225 212 219 207 189 164 136 146 128 122 128 137 135 133 142 140 143 151 160 171 183 184 197 199 194 184 174 176 176 178 176 166 170 167 161 157 149 153 156 150 141 137 132 123 123 119 117 117 115 124 126 135 141 142 152 151 146 153 154 159 174 184 190 185 189 189 191 187 185 164 147 137 158 188 193 183 169 166 169 160 147 125 141 136 114 112 52 80 119 135 170 200 221 212 220 209 171 162 152 144 139 125 133 142 136 137 129 126 138 143 152 165 182 181 190 191 191 186 181 179 176 174 172 165 158 161 155 149 149 149 147 138 129 128 126 113 114 111 110 115 115 119 125 134 138 140 144 144 135 136 144 148 166 175 180 184 181 188 192 192 187 175 164 150 149 178 177 178 187 164 172 143 143 122 145 139 108 99 44 77 114 160 158 182 214 214 214 189 182 178 151 133 141 125 127 140 130 120 122 125 136 140 149 156 169 172 175 182 164 161 155 158 155 155 156 149 143 139 136 137 140 142 137 126 120 119 117 109 110 108 112 116 116 123 127 130 130 133 132 131 129 128 138 134 149 158 162 173 183 186 194 196 188 172 168 159 154 173 181 181 189 174 159 158 124 125 150 132 118 85 51 78 130 160 149 178 202 210 181 198 197 177 147 139 129 114 117 126 115 114 122 123 124 133 142 148 155 157 149 147 144 145 144 149 146 148 150 145 139 129 127 131 133 133 135 123 113 112 110 105 107 108 110 117 118 121 123 126 131 133 130 129 126 128 133 133 139 152 153 164 173 184 188 192 187 176 170 176 163 169 183 189 194 177 149 156 131 128 147 137 117 87 52 89 127 150 137 151 196 173 184 208 190 175 136 131 120 98 96 108 105 102 113 117 121 125 130 128 125 134 131 128 132 136 138 138 142 140 140 137 133 124 124 125 132 126 129 126 107 98 102 94 99 103 109 111 106 112 107 112 116 115 122 121 123 117 121 126 127 143 138 140 152 164 166 160 167 165 166 167 171 163 177 195 183 180 155 149 135 132 151 145 113 92 56 107 120 139 150 129 156 175 196 213 195 160 125 116 101 98 104 105 110 106 111 112 107 107 106 107 96 105 103 103 113 123 119 122 121 122 124 128 122 120 119 125 135 134 139 139 116 90 89 83 86 95 97 100 104 104 105 109 106 100 114 114 115 110 114 124 122 135 130 130 141 156 154 148 151 155 147 146 152 161 168 194 179 158 165 157 134 127 151 160 126 95 72 114 93 120 155 124 151 196 193 215 191 155 123 107 95 108 113 99 106 106 108 94 103 109 109 98 102 101 111 102 100 108 116 112 107 107 107 110 104 117 118 121 134 139 138 128 108 84 85 77 85 89 86 89 90 91 92 83 87 87 92 92 100 96 100 101 100 118 122 118 136 142 146 145 149 154 141 136 127 166 167 193 189 140 155 159 146 129 160 169 137 100 73 107 86 134 135 140 171 199 199 220 190 156 123 109 104 117 112 99 117 91 98 92 96 105 105 101 97 115 117 107 114 117 112 100 98 104 91 104 98 104 125 124 130 139 142 128 115 100 88 74 73 80 82 72 75 78 76 78 76 85 92 92 85 93 95 107 112 122 123 123 139 146 158 153 150 148 147 138 128 166 161 178 172 130 154 154 149 137 155 152 148 101 65 111 99 130 133 145 176 196 199 220 189 151 122 110 105 119 130 121 108 93 92 97 96 101 96 96 100 112 111 108 116 113 102 94 102 103 92 104 108 116 141 136 141 146 152 148 138 122 118 100 97 80 101 96 101 102 94 99 94 95 97 76 93 101 102 127 133 138 141 142 147 157 158 166 165 152 148 144 132 166 164 163 165 128 148 147 137 144 162 153 139 110 75 119 111 122 121 147 164 181 184 200 179 151 105 121 120 136 154 151 120 107 102 116 124 132 142 132 138 149 148 144 154 141 140 120 128 127 142 141 144 151 155 146 156 160 165 159 151 143 129 117 114 102 103 104 112 130 116 111 131 110 111 112 103 110 126 131 146 157 152 151 163 171 171 178 167 163 160 144 119 153 147 159 159 131 133 142 151 155 154 140 125 121 88 110 112 105 128 151 143 155 178 181 168 150 106 122 126 147 176 157 121 133 125 124 144 168 172 163 154 168 171 152 157 160 153 162 167 148 167 164 169 165 170 159 166 170 171 165 159 150 137 118 115 108 115 113 120 145 147 142 154 149 153 140 137 139 155 163 168 175 169 166 171 193 198 180 178 182 167 141 111 129 124 148 162 144 136 136 145 142 144 129 111 110 98 98 98 92 133 145 139 147 165 177 165 143 118 147 154 159 182 157 135 148 146 140 158 178 173 159 154 166 160 148 154 175 181 190 190 173 177 170 167 170 160 161 168 181 169 170 163 155 149 139 130 118 128 116 125 160 164 157 144 141 153 154 139 144 151 172 161 162 163 174 179 205 218 208 205 205 192 155 116 109 105 134 147 144 138 126 134 117 122 121 100 99 110 100 76 103 133 139 142 172 152 162 154 141 119 147 164 171 184 164 156 154 162 169 175 181 168 158 143 147 138 139 144 161 178 191 171 155 170 169 169 164 155 167 179 184 179 170 165 150 153 148 144 125 120 123 119 153 162 160 144 144 157 145 139 136 141 157 166 177 177 170 182 192 219 215 214 199 194 165 123 106 105 131 145 127 133 129 117 102 93 102 96 100 108 98 78 120 129 135 140 178 168 166 149 143 131 148 155 167 182 157 157 159 168 163 163 159 147 150 157 151 135 130 141 160 172 164 147 149 160 169 175 165 169 176 192 192 180 170 173 169 158 153 158 127 116 125 111 149 163 176 169 170 171 160 145 131 141 152 157 155 164 168 186 201 207 198 208 205 198 172 134 123 114 130 136 127 130 141 125 115 100 96 88 103 111 98 96 141 115 136 136 166 168 177 150 139 124 138 150 152 171 152 154 152 154 139 143 140 139 145 158 148 146 143 142 156 154 160 147 169 162 160 155 141 145 163 181 181 163 164 171 178 152 139 136 135 123 128 122 156 169 191 194 169 182 190 178 156 162 169 180 188 180 179 174 199 194 203 215 209 193 181 140 131 123 121 129 136 130 143 109 115 87 104 88 108 113 94 86 129 112 130 137 153 159 162 135 140 120 129 152 141 160 152 152 153 145 137 130 134 138 141 147 143 128 128 134 156 155 164 167 182 162 146 139 117 126 144 148 147 142 156 172 185 172 153 123 148 148 138 127 157 180 187 204 199 193 203 171 161 165 176 181 193 175 174 166 177 201 200 200 187 169 170 127 117 102 115 128 123 125 121 83 85 54 103 92 106 103 75 89 131 90 121 133 139 145 156 129 141 112 128 148 134 144 141 148 139 134 122 125 130 140 153 152 153 136 126 130 152 156 147 169 178 160 142 136 126 136 133 140 145 142 157 172 163 170 158 124 139 159 140 119 149 167 179 172 207 209 212 172 167 160 187 174 186 183 168 162 185 187 187 186 159 152 148 116 96 82 104 124 103 105 92 84 84 38 101 96 107 100 66 91 133 100 129 123 144 147 140 132 149 127 134 149 142 138 141 148 135 130 128 134 140 145 161 165 146 142 128 135 141 147 139 153 163 149 134 117 122 133 130 138 137 127 141 146 139 155 160 145 143 153 133 134 144 159 167 166 180 208 195 166 159 166 150 154 178 186 180 173 174 178 183 188 157 140 134 115 108 78 89 99 96 83 94 102 73 53 86 101 101 111 46 99 124 109 131 131 145 161 145 134 154 154 142 151 140 136 135 130 133 136 138 134 132 135 139 146 139 141 149 154 159 141 147 161 167 155 153 145 132 127 122 145 130 126 136 148 143 142 158 162 148 138 121 141 139 140 151 162 173 198 194 167 136 147 148 169 188 194 191 181 186 187 188 191 165 139 118 112 103 78 91 92 105 89 105 115 73 69 88 106 99 137 53 115 124 109 124 149 148 175 149 146 154 148 147 149 155 152 152 136 136 144 148 146 141 132 136 134 138 150 154 165 169 157 163 166 174 179 173 163 144 151 156 156 140 126 152 142 141 132 156 186 161 139 115 127 133 117 139 153 172 186 203 176 170 161 169 186 196 195 200 196 194 196 187 190 162 126 110 114 104 73 86 105 110 106 114 129 87 89 108 107 111 166 75 128 118 102 110 160 143 154 155 150 172 144 145 153 156 151 145 141 147 148 148 154 139 129 130 140 153 169 166 180 181 184 169 163 161 168 165 163 146 146 172 151 139 127 139 144 145 139 171 176 166 131 132 125 133 129 145 149 158 161 181 172 180 184 181 191 199 198 198 196 198 194 181 172 157 120 115 120 110 74 95 118 113 77 133 130 111 105 127 102 119 161 85 116 109 99 96 141 128 142 146 139 165 153 152 150 156 147 141 141 139 144 142 144 144 138 141 142 150 154 160 177 186 187 171 165 161 169 153 155 153 172 180 154 147 143 159 161 156 154 183 189 186 155 145 134 139 134 150 159 177 179 180 174 173 179 188 184 192 190 187 189 191 187 172 167 153 131 129 119 112 75 114 116 89 98 156 114 118 120 130 120 131 153 113 99 91 95 100 120 112 131 139 132 158 150 158 154 152 148 144 137 143 154 155 160 148 147 152 151 148 158 176 185 195 187 178 172 160 169 163 157 160 168 166 162 151 154 166 160 163 157 180 190 172 172 161 155 151 150 159 164 166 179 178 180 165 175 177 169 177 184 183 179 178 174 166 162 150 132 118 119 101 86 119 107 111 141 170 116 134 136 127 136 137 158 138 90 91 100 98 109 101 118 134 115 162 150 153 153 154 155 152 150 147 147 152 155 150 150 153 156 160 167 171 177 183 178 164 156 147 157 163 157 154 167 158 160 165 166 166 169 158 167 188 196 171 174 165 152 162 165 148 165 162 161 169 174 173 173 163 160 154 164 172 168 177 174 163 156 143 132 116 114 99 106 122 122 138 161 168 144 146 136 123 152 153 177 160 113 110 117 107 120 111 136 126 118 147 152 147 151 149 153 149 150 141 140 152 156 155 156 154 158 169 170 172 177 174 174 159 154 156 158 169 155 153 157 159 159 165 172 169 163 160 170 179 194 173 169 159 156 154 169 153 153 164 162 165 177 165 165 164 157 162 165 168 163 169 165 152 150 142 129 117 106 113 123 130 133 155 167 168 178 140 142 135 158 149 184 170 160 135 128 114 124 130 136 131 146 144 146 150 153 144 136 146 142 146 144 142 147 151 144 147 160 170 172 168 167 166 165 156 155 149 155 159 153 139 149 148 157 159 167 168 161 148 158 174 183 167 157 149 142 138 139 156 144 153 163 168 178 170 156 163 161 162 162 160 162 169 162 153 147 143 133 114 112 118 129 135 148 159 178 188 188 149 157 147 157 141 172 183 177 151 143 126 136 149 134 144 157 154 148 145 148 138 126 128 135 139 136 139 142 146 140 148 155 162 167 163 162 160 154 155 149 140 143 140 131 125 133 149 153 149 149 158 158 138 136 154 174 168 150 148 132 121 121 130 136 138 150 166 173 172 170 163 166 162 165 160 155 155 152 150 145 144 134 110 117 131 132 136 141 155 184 182 180 159 173 145 149 146 154 178 196 182 179 152 142 152 129 147 152 153 147 142 142 137 126 118 123 122 120 121 121 123 134 141 153 156 165 160 160 151 145 133 126 130 139 132 112 109 115 135 148 141 130 126 140 134 132 140 149 148 151 133 133 116 111 109 119 122 127 142 145 154 153 149 151 144 140 139 142 142 139 139 150 132 117 116 119 146 144 137 133 148 173 172 170 175 178 149 147 154 139 180 196 193 190 203 169 158 132 151 149 153 154 140 144 134 127 115 111 114 113 113 112 115 120 133 141 144 147 148 143 142 133 121 119 133 130 118 103 103 106 114 130 132 119 109 116 107 117 122 122 124 129 123 115 97 92 90 102 107 108 122 126 130 134 125 128 120 128 122 121 124 128 129 128 120 113 119 139 148 158 128 112 134 172 174 177 177 176 154 150 158 135 174 200 190 200 209 196 163 135 145 156 148 149 143 148 139 129 114 107 107 99 100 110 123 130 141 142 146 145 133 123 124 117 121 124 132 131 116 110 109 108 112 120 114 115 106 97 87 89 104 113 106 114 113 108 98 88 98 94 99 96 115 112 112 118 113 112 109 113 112 122 125 129 119 124 119 114 116 133 148 152 118 113 135 150 158 186 150 183 162 148 160 145 174 198 188 213 217 200 179 160 139 166 156 147 142 146 145 130 114 111 104 94 90 108 123 128 136 144 148 144 128 122 121 118 129 131 125 116 111 105 102 101 102 111 111 104 100 89 75 76 84 97 97 112 114 117 114 101 97 93 96 98 105 108 108 108 102 101 104 101 100 108 111 113 109 110 113 113 115 122 148 152 134 112 124 126 157 172 155 200 137 150 154 161 172 199 199 207 197 199 188 180 157 165 155 144 144 145 140 132 116 113 100 90 98 114 131 137 142 139 142 137 128 128 134 132 133 139 133 123 114 110 104 97 98 101 98 97 93 89 83 90 85 97 96 102 121 131 138 138 128 116 108 109 108 108 105 108 99 96 97 100 98 102 108 105 100 99 105 102 113 113 148 146 139 122 134 122 151 159 165 200 132 152 146 146 169 212 202 203 181 199 192 182 171 166 161 146 136 136 135 129 119 113 106 98 106 113 124 134 140 138 137 142 134 136 129 128 124 130 133 119 115 106 105 108 97 86 85 80 76 85 90 98 96 100 107 113 112 120 129 133 139 127 122 118 111 110 103 98 98 93 100 103 93 91 98 96 99 95 101 106 108 117 144 148 148 133 146 121 131 147 180 202 142 140 141 114 147 204 210 217 194 192 188 178 175 167 158 151 130 129 133 127 115 112 110 112 108 119 119 128 132 137 140 143 135 129 124 118 120 129 129 119 110 106 107 115 104 85 75 77 68 73 86 93 100 99 97 120 116 124 131 137 147 144 128 127 118 104 96 91 94 94 93 95 92 85 91 92 101 100 106 104 108 128 154 149 148 149 139 128 130 146 194 199 140 132 142 93 124 174 200 228 219 180 175 154 171 175 156 142 120 127 137 129 120 114 115 121 119 119 110 123 128 130 140 136 125 123 128 125 131 129 122 118 104 103 100 120 111 85 78 72 68 67 72 79 94 96 88 107 113 126 133 143 149 142 125 113 117 102 90 87 86 87 87 90 96 98 93 98 105 109 108 106 122 143 156 155 164 167 148 145 154 164 202 188 138 127 144 97 123 133 152 222 239 195 189 154 165 185 162 132 117 126 132 125 124 121 122 123 124 122 116 128 130 123 136 125 124 133 137 137 136 132 122 125 113 106 99 106 103 76 60 62 67 75 69 68 71 80 81 87 89 103 116 131 143 144 136 117 117 107 101 96 93 87 90 98 105 109 105 100 112 113 109 116 136 150 148 157 153 174 164 176 165 188 190 174 137 122 139 92 110 118 124 188 240 204 185 166 174 188 162 142 123 127 128 127 123 126 128 127 128 129 126 135 129 118 130 132 135 147 135 140 142 133 122 120 111 107 95 94 93 83 73 63 61 70 75 64 57 68 72 88 84 92 102 117 136 136 132 126 118 124 118 110 106 103 104 110 115 116 111 109 118 122 110 116 140 154 143 158 160 181 180 199 191 205 178 171 132 119 130 97 93 106 114 160 235 210 189 169 181 187 161 144 121 131 130 128 128 130 133 128 136 132 137 137 127 124 135 144 150 149 142 146 148 138 122 122 120 116 103 111 119 110 101 75 75 72 76 73 64 78 91 109 114 108 126 132 140 147 145 144 138 139 136 129 124 117 111 121 126 130 125 123 127 126 114 117 139 155 144 157 170 186 203 216 226 200 174 165 127 115 132 98 93 96 112 133 224 222 199 176 177 180 170 148 128 125 128 135 137 134 138 135 133 134 141 133 130 138 145 158 157 155 152 151 148 149 138 133 127 129 116 122 123 123 130 119 96 101 101 105 106 113 128 136 145 134 154 157 154 163 162 150 148 142 149 145 146 132 118 134 137 139 134 133 139 132 123 116 140 143 138 170 164 189 217 233 223 187 167 149 116 124 135 78 79 95 109 129 202 226 215 188 176 171 170 157 142 126 128 135 140 138 145 139 140 147 147 135 141 142 156 168 162 152 153 158 140 138 150 145 143 149 135 140 130 130 133 129 128 142 139 149 150 135 144 155 156 157 157 158 159 162 161 151 154 152 152 146 160 149 131 140 147 146 137 139 139 135 127 119 138 134 127 146 167 201 217 224 229 183 168 128 104 121 132 71 71 84 104 123 177 214 225 213 181 180 165 160 156 135 131 140 137 146 149 143 150 152 149 141 148 151 164 173 156 149 147 145 134 130 145 155 162 160 152 152 140 136 133 128 130 139 141 131 133 136 137 144 142 144 142 140 148 151 151 147 141 149 153 147 155 156 151 143 150 154 145 149 144 138 130 128 143 128 118 134 156 200 200 204 205 183 156 113 107 111 129 76 76 86 94 122 159 192 211 219 189 183 173 173 169 139 137 135 137 143 139 143 148 150 146 147 151 158 173 167 156 156 146 134 124 125 123 132 153 155 153 140 135 136 128 122 130 131 140 133 129 126 125 138 145 134 130 129 137 139 130 130 134 139 146 145 149 161 165 154 160 163 154 156 149 144 133 141 140 109 105 121 144 179 193 184 183 168 133 111 108 110 130 80 83 89 89 122 144 172 203 197 187 179 177 179 176 142 152 138 134 136 136 134 135 141 145 155 155 161 169 163 160 155 151 132 126 120 111 120 137 145 127 120 119 134 139 133 130 138 133 135 132 123 130 136 138 129 128 123 120 120 114 110 116 123 133 140 141 157 174 171 172 172 162 163 154 145 139 149 124 96 88 106 132 177 173 161 159 144 120 102 111 110 121 81 87 82 96 118 134 160 188 189 182 172 190 176 175 146 147 142 127 135 133 133 130 138 144 156 166 163 160 171 174 165 158 153 136 114 110 114 115 124 120 118 125 132 132 127 131 140 136 139 129 136 136 133 139 129 125 113 103 103 104 110 110 115 119 128 137 152 174 179 182 183 171 162 162 150 140 158 108 84 78 97 134 168 157 130 141 152 112 99 105 121 115 91 90 84 106 118 125 146 182 183 180 167 190 185 179 152 142 138 128 134 139 132 134 140 156 175 185 177 175 179 177 171 162 159 146 122 110 102 99 114 117 130 127 134 140 138 141 153 148 147 143 139 141 132 148 141 126 117 117 106 109 125 117 119 132 136 146 156 179 183 190 191 174 168 164 147 147 146 97 82 73 92 135 155 133 132 141 156 109 93 102 128 119 82 82 93 111 115 120 140 164 184 179 177 192 186 182 154 138 138 128 132 140 138 138 156 170 182 191 185 174 176 172 159 153 154 145 115 107 102 103 108 120 139 146 148 168 162 165 177 165 167 168 153 147 137 164 156 153 147 139 132 128 144 143 136 150 154 161 166 180 182 197 193 173 172 164 146 148 128 91 71 74 100 141 146 133 133 142 143 112 93 106 127 119 89 95 97 104 104 124 130 150 178 185 186 192 191 170 158 135 134 128 137 140 136 148 162 175 186 186 177 167 166 165 150 141 140 136 104 102 92 99 102 117 130 136 138 149 156 168 169 162 164 164 169 165 163 164 174 171 167 149 151 145 146 149 152 159 159 163 173 174 178 190 192 170 164 153 141 137 116 72 73 64 107 143 145 143 132 138 132 121 105 95 120 126 109 109 94 100 111 126 137 140 172 176 183 183 186 165 163 126 127 125 141 145 144 154 170 178 187 185 176 164 166 165 157 145 133 127 113 109 87 87 100 107 110 118 118 126 123 140 152 154 155 161 164 164 156 157 163 164 165 163 164 164 165 156 162 166 166 163 171 178 178 180 167 164 147 142 133 141 106 73 68 72 129 149 160 151 142 136 124 130 109 96 102 125 110 115 100 107 129 132 157 161 164 169 172 178 188 156 156 125 122 129 155 152 149 159 174 180 183 178 175 172 168 168 162 150 132 136 134 135 108 101 99 110 115 117 117 130 120 126 135 139 146 156 156 144 151 154 170 167 174 172 174 173 163 163 167 164 167 162 170 177 170 155 156 154 141 133 126 135 89 74 80 96 137 155 166 159 160 136 122 134 114 101 91 105 107 106 115 131 126 147 191 182 165 169 158 172 172 165 150 125 122 124 158 161 149 155 163 171 168 165 166 166 160 148 142 134 116 123 120 120 113 107 103 107 106 102 104 115 113 116 121 120 138 127 133 127 134 144 154 159 166 163 157 161 158 159 158 158 163 161 161 166 154 148 144 144 131 122 133 124 76 73 80 113 146 172 178 169 162 141 126 138 126 95 90 95 110 115 136 141 133 178 217 179 169 174 157 166 154 158 146 130 119 121 143 164 151 149 160 159 162 161 160 157 161 151 141 133 131 133 140 136 124 119 114 117 111 116 116 130 126 132 130 134 136 131 138 132 142 152 158 166 169 159 157 160 162 163 161 168 167 160 159 152 143 143 135 137 123 114 144 107 73 76 83 118 151 182 186 172 158 137 146 136 139 108 91 101 137 134 152 150 168 217 223 183 158 168 163 168 147 148 143 124 116 126 130 164 160 149 155 158 161 159 162 155 163 165 152 145 142 153 160 162 160 146 147 148 137 137 139 135 132 126 136 136 136 133 142 144 151 155 161 164 167 171 163 169 160 154 151 157 161 160 154 142 138 135 132 133 116 120 137 94 65 79 93 120 158 190 183 170 153 142 151 141 139 125 104 101 153 161 166 167 210 233 212 184 164 164 166 165 150 149 138 125 122 119 128 159 165 154 152 161 157 164 170 164 166 172 172 165 169 186 182 183 189 185 184 184 181 173 171 163 151 133 143 152 157 161 173 179 173 167 161 158 161 160 164 167 162 146 144 154 155 158 151 141 140 137 128 125 117 141 128 88 63 83 107 133 166 189 180 177 148 154 149 139 141 141 121 114 167 163 171 200 224 229 206 194 170 153 160 168 149 145 133 127 130 127 128 149 167 159 157 160 151 163 152 145 148 150 155 162 172 185 190 190 186 185 181 191 196 190 191 193 188 172 182 182 190 192 204 208 208 189 181 168 161 161 169 168 152 141 137 145 145 150 148 146 140 134 124 129 128 147 118 67 65 89 118 140 180 188 174 171 161 151 157 140 133 156 140 124 165 162 191 219 227 221 201 198 170 140 155 158 152 144 144 130 135 127 121 130 164 166 161 157 154 158 145 129 126 121 125 136 144 160 167 169 169 177 177 186 186 182 185 191 191 189 187 188 193 200 198 208 204 187 174 172 162 161 163 150 143 140 139 136 138 143 142 144 136 123 121 144 125 150 106 58 57 99 125 150 183 189 177 174 170 158 161 143 134 144 156 137 167 186 216 224 221 205 198 196 171 136 142 149 158 146 143 146 151 122 116 123 142 163 160 159 157 148 139 131 120 117 114 116 123 129 138 139 152 157 163 173 166 164 170 168 166 167 163 162 165 170 175 177 179 165 158 156 155 141 142 140 137 127 127 133 138 135 139 141 131 119 134 144 134 143 98 63 64 102 130 156 178 186 194 182 169 179 154 157 137 135 149 148 193 204 218 217 205 192 197 194 161 124 127 147 156 135 145 168 155 124 116 110 124 140 161 162 162 154 144 133 129 123 113 111 108 116 121 122 130 133 141 146 147 144 147 146 145 148 148 147 147 149 152 155 155 153 145 148 140 132 132 137 124 119 127 139 140 142 140 135 131 123 148 142 151 134 109 58 78 111 128 158 162 180 202 190 183 181 172 156 149 144 137 150 216 214 218 207 190 180 203 184 144 120 119 123 143 137 167 184 156 122 117 110 120 127 153 161 164 160 151 142 131 124 120 121 110 107 108 110 119 122 128 127 132 131 133 133 134 133 133 137 139 138 140 145 143 145 142 142 131 135 131 124 124 123 122 134 142 140 134 126 124 134 147 149 144 147 122 70 97 117 139 153 147 173 192 212 193 186 181 175 157 163 151 155 221 206 205 196 176 173 204 172 129 114 109 106 129 161 188 186 158 124 118 108 116 132 146 154 164 161 154 148 136 130 125 127 121 111 109 111 117 123 123 126 121 124 126 121 130 130 131 134 143 144 148 147 152 145 146 147 133 130 124 120 123 124 121 129 141 131 119 118 133 132 151 147 132 157 141 96 114 134 137 144 143 184 187 205 213 189 179 185 186 171 172 163 211 205 203 191 174 177 193 158 115 117 110 102 138 173 201 185 156 120 117 113 114 132 144 150 168 165 156 148 147 133 137 132 125 128 125 117 114 121 123 127 132 131 133 132 135 131 134 139 146 144 151 148 153 152 153 147 136 124 118 118 117 124 119 128 129 128 112 129 133 131 152 143 126 171 154 120 128 164 139 139 152 178 182 194 205 205 175 178 183 187 180 180 197 194 197 179 170 177 173 150 114 120 119 112 141 159 200 188 141 116 113 114 120 125 144 154 169 170 167 157 152 148 143 140 131 132 136 131 129 131 130 135 134 136 136 146 144 148 147 150 148 151 151 155 154 154 155 148 139 123 122 117 113 116 120 122 123 123 126 137 136 134 155 140 134 182 164 130 148 168 158 138 147 180 173 178 194 209 190 175 171 179 184 183 195 186 189 168 159 164 164 142 111 114 134 115 131 149 188 187 138 109 113 118 129 135 136 155 170 169 174 171 165 157 155 146 135 130 140 130 133 137 141 143 136 143 144 152 152 159 160 156 160 159 159 158 156 158 152 142 141 124 120 112 119 121 120 120 123 131 142 137 135 139 160 141 151 185 175 140 164 169 160 148 149 184 172 163 180 189 197 179 169 162 171 179 198 181 176 155 142 159 142 128 106 108 135 130 127 136 176 176 142 116 105 124 131 135 138 150 166 167 166 178 171 167 161 163 152 147 152 145 148 147 154 157 157 162 163 167 169 171 169 166 167 162 160 152 152 149 145 130 137 127 117 112 110 114 111 120 123 140 143 144 135 136 171 150 166 190 198 163 165 180 163 156 157 175 169 153 164 177 187 187 174 160 160 165 188 171 158 136 126 136 116 128 107 119 151 140 117 122 170 166 143 130 108 118 133 132 145 159 162 170 166 174 181 175 176 174 170 166 167 168 165 167 172 173 172 173 182 181 183 186 186 178 172 168 161 153 143 144 133 122 122 118 112 107 104 103 109 132 136 146 150 146 144 146 174 160 175 193 208 175 177 180 165 175 165 164 167 146 147 169 185 188 185 177 171 167 172 165 142 120 114 119 110 124 116 125 150 132 106 122 161 160 139 132 121 117 123 131 143 158 166 166 170 169 181 180 176 177 169 169 173 172 177 172 175 175 174 177 189 188 192 185 187 182 165 161 151 146 143 132 126 117 113 111 114 109 104 114 129 144 148 157 154 147 149 152 170 166 188 201 206 186 195 173 170 180 174 176 177 164 152 167 189 192 195 184 178 182 165 146 132 107 113 115 116 111 113 118 146 128 95 115 166 159 131 131 138 115 129 128 143 158 170 170 167 168 179 182 182 174 173 168 171 170 172 178 173 175 175 179 182 182 180 172 170 166 154 148 142 132 128 126 108 111 113 111 116 118 116 131 156 159 160 158 157 158 153 160 172 160 198 205 214 201 190 168 171 186 185 183 188 178 165 168 187 203 188 197 185 186 151 142 126 104 109 108 89 103 103 115 136 120 107 113 159 145 124 143 150 118 123 137 143 157 168 170 172 170 176 181 187 182 178 175 174 176 168 178 175 173 182 176 178 171 160 159 154 149 134 128 130 123 118 114 110 112 111 106 120 141 140 150 172 161 168 172 171 165 158 166 182 163 200 214 216 214 187 165 168 194 189 183 195 185 169 164 181 199 195 190 193 189 137 134 119 91 82 83 63 85 94 115 130 114 113 119 148 135 134 142 156 123 127 138 148 163 167 179 176 182 177 181 186 194 185 184 182 179 182 181 178 178 187 183 178 171 162 153 147 142 126 116 121 124 115 112 114 113 108 112 140 148 156 172 172 171 180 182 170 169 165 172 186 176 203 217 221 194 186 158 192 179 194 176 198 192 174 166 175 189 198 180 189 190 121 110 84 65 56 61 46 58 96 111 114 111 117 126 146 131 139 146 152 132 127 135 149 164 173 174 180 180 179 183 189 194 202 193 183 182 189 194 185 184 180 175 178 166 164 157 147 135 130 126 124 126 127 119 118 125 118 132 157 168 180 182 182 189 186 187 168 174 171 184 189 194 202 216 215 171 174 157 195 183 184 168 180 193 183 171 158 175 185 173 175 190 91 82 63 57 42 45 34 51 89 97 100 116 126 128 148 134 149 143 153 138 130 136 138 161 167 169 177 179 177 177 186 190 196 207 194 183 188 195 189 183 183 180 171 166 166 159 147 138 138 139 139 137 137 129 131 138 147 159 177 193 196 204 198 189 198 186 180 183 175 195 194 208 209 221 201 170 168 150 166 184 184 152 143 169 182 169 141 154 165 164 154 164 71 60 45 48 32 42 22 48 83 86 89 111 130 135 151 143 155 148 156 139 136 134 141 154 161 166 180 175 176 172 174 181 182 198 198 202 195 193 187 189 185 182 175 171 160 153 156 151 157 157 158 150 149 147 155 161 174 187 202 211 208 208 194 196 193 191 180 183 187 193 213 201 231 216 203 171 166 163 152 162 181 150 136 160 186 173 143 144 164 170 160 157 55 52 48 41 25 19 0 50 81 76 93 108 132 158 153 162 162 152 163 136 141 139 144 153 155 164 175 179 174 173 167 163 163 176 182 191 195 199 193 192 185 186 178 172 161 159 163 166 172 178 170 166 166 166 174 185 196 200 204 211 208 201 184 189 196 187 185 195 204 197 216 211 243 205 206 175 174 177 151 134 155 164 144 145 174 180 158 140 158 164 158 155 48 37 40 25 20 8 14 68 80 66 86 106 138 165 169 179 156 163 175 140 141 145 150 156 148 157 177 182 175 176 170 160 151 164 164 173 175 181 191 189 190 183 178 176 173 169 173 174 170 176 175 176 173 175 187 194 197 200 197 201 202 190 181 194 192 191 187 205 213 204 196 214 239 201 214 169 184 184 142 132 135 145 158 139 157 179 167 140 142 152 151 146 45 29 39 43 29 21 46 86 92 63 68 104 135 155 180 189 159 167 177 151 139 149 155 154 147 156 170 180 179 173 172 167 155 155 161 165 166 172 182 183 184 180 186 179 175 177 174 174 170 175 174 179 177 183 181 189 189 191 195 196 198 187 182 192 190 186 188 203 209 211 195 231 219 208 205 161 194 183 131 124 138 143 156 144 149 173 180 160 131 137 146 149 