P2
92
112
255
154 152 153 155 154 154 151 152 151 152 153 153 157 160 161 161 160 161 153 157 150 150 140 139 140 136 130 111 115 122 113 120 114 114 118 121 125 136 138 135 129 137 123 119 119 116 120 119 122 127 128 128 144 152 154 151 156 171 173 165 165 169 165 159 144 141 136 141 152 155 145 150 149 149 150 149 146 144 142 142 143 143 143 142 144 144 146 145 146 144 147 147 153 154 153 154 152 153 152 149 153 155 154 158 159 161 155 159 158 159 157 158 151 145 135 134 127 118 105 106 100 98 97 94 111 112 122 131 130 143 138 132 131 127 125 111 121 123 124 117 119 122 120 130 132 135 144 141 146 162 168 163 164 164 162 160 155 146 145 143 149 157 156 148 156 155 154 151 149 146 146 141 143 144 147 141 141 144 145 146 146 147 145 147 154 152 155 153 152 154 153 155 152 155 157 158 156 161 157 159 158 159 158 157 150 143 134 124 118 104 98 87 71 76 89 99 109 116 120 140 131 127 134 125 134 127 125 120 130 123 134 131 134 128 123 129 123 128 130 141 141 156 154 159 168 162 162 161 165 155 159 152 154 159 164 154 155 157 170 159 150 152 152 144 144 143 146 143 141 142 144 145 145 145 146 145 154 154 154 154 152 151 157 155 157 156 163 160 163 160 157 161 158 158 154 148 142 131 123 112 102 90 73 66 70 84 96 102 107 118 124 137 131 123 131 132 131 132 138 129 123 138 129 140 146 142 133 127 130 125 122 132 139 146 148 153 157 156 159 161 160 168 161 156 151 151 158 162 161 164 177 172 160 159 156 150 149 146 150 143 143 143 141 146 146 145 146 145 153 154 152 153 154 156 157 157 157 155 159 163 167 161 161 165 163 154 144 127 122 121 111 92 85 76 73 64 79 88 101 106 113 116 135 143 138 136 140 144 136 140 145 138 132 132 132 152 147 143 147 148 139 132 131 131 133 128 138 147 149 149 161 152 157 160 159 153 156 151 153 165 165 173 175 181 173 172 165 157 151 150 150 149 142 143 142 145 142 144 144 146 154 153 153 155 158 160 159 159 156 158 163 165 163 164 163 163 156 141 131 126 112 112 96 76 75 75 79 83 92 106 107 107 118 124 126 142 129 129 144 146 130 130 140 142 138 139 143 147 149 144 151 150 146 138 141 142 136 137 141 138 146 147 154 143 146 155 151 151 154 151 155 160 167 173 170 179 182 181 179 172 160 148 154 151 147 143 143 145 142 145 144 146 154 153 152 158 162 161 158 160 156 161 164 161 165 168 163 157 143 134 122 109 105 90 81 76 73 84 95 108 103 114 111 118 128 126 127 132 137 138 145 148 126 127 136 140 132 134 142 146 150 144 153 147 146 151 148 147 143 140 130 129 142 145 150 145 143 149 148 153 158 152 161 166 166 170 167 168 181 191 185 188 174 159 157 154 150 143 142 142 143 145 143 146 156 152 157 162 164 163 158 156 159 160 161 160 162 163 151 140 138 128 115 99 82 68 70 83 87 97 102 113 108 112 116 120 127 121 126 136 132 125 133 136 118 123 126 129 128 122 124 136 140 139 147 149 153 152 155 152 153 151 132 128 133 140 144 145 148 144 149 158 152 150 161 164 165 161 162 165 176 187 191 191 185 169 160 156 151 143 144 137 139 142 140 149 154 153 162 161 161 162 157 161 153 155 156 159 150 149 141 141 134 119 100 75 64 66 69 83 101 102 101 100 113 109 115 117 115 116 120 126 115 117 120 119 114 123 120 122 127 121 116 126 131 136 134 143 144 143 142 144 150 151 136 130 125 124 127 130 138 133 142 153 156 153 158 166 159 160 156 167 174 187 193 188 187 176 164 158 153 148 146 137 139 142 142 145 154 157 165 164 164 161 156 153 146 153 144 149 140 139 150 140 118 101 88 70 68 73 85 95 102 110 105 106 111 110 115 118 110 109 113 113 110 107 111 111 105 109 115 115 124 118 117 125 129 131 128 132 137 135 135 138 147 146 147 131 132 126 127 122 127 127 135 131 148 145 151 159 159 152 150 163 169 181 189 190 189 182 171 159 159 155 150 144 143 140 145 142 161 166 165 163 161 158 150 143 141 143 142 140 150 159 143 126 103 86 66 62 78 90 96 97 99 102 107 108 118 111 109 110 107 104 101 113 108 106 102 111 112 112 123 122 126 121 124 124 115 127 122 131 133 136 145 145 148 147 152 139 134 137 134 126 125 119 118 117 133 132 134 156 146 148 148 153 173 174 180 191 198 186 180 169 160 162 157 152 145 143 142 141 166 166 162 159 157 152 148 145 141 149 139 143 153 147 131 115 85 69 58 68 100 109 106 115 106 107 111 114 119 113 115 118 111 109 110 113 102 106 102 110 110 111 127 125 122 119 125 119 113 124 125 132 132 140 139 139 144 140 149 139 134 135 138 130 117 115 118 117 115 125 127 137 138 138 142 148 152 160 174 183 188 185 181 178 162 160 162 155 146 144 141 142 167 164 163 157 155 146 151 154 147 142 149 157 150 146 118 99 75 63 71 81 104 106 109 119 119 122 125 119 124 122 130 130 121 116 116 121 109 114 112 113 108 111 121 122 118 122 118 121 116 128 134 127 126 134 135 135 140 140 138 142 131 135 136 135 130 111 112 112 103 114 112 123 136 143 134 139 141 139 161 170 168 179 179 175 173 165 159 159 148 144 142 141 164 168 162 156 153 155 154 155 143 139 153 147 149 132 103 81 78 71 82 97 113 115 112 132 132 131 125 128 133 122 136 130 125 122 126 125 115 116 120 119 120 121 125 121 120 125 121 118 120 124 124 120 124 122 127 129 130 132 136 136 135 132 135 133 129 128 107 104 109 104 106 119 122 127 130 132 130 139 144 153 157 167 176 176 167 169 158 157 153 147 142 137 166 169 159 156 160 159 157 145 143 148 152 153 142 104 80 78 69 80 101 122 121 124 135 140 128 130 135 141 137 133 137 142 133 133 133 129 120 126 120 125 133 137 134 128 128 128 121 123 121 126 124 123 123 118 123 128 126 127 131 131 132 135 133 136 129 131 122 103 103 102 104 122 116 116 113 127 128 135 140 142 149 156 166 173 169 159 160 156 151 155 144 136 165 166 164 163 165 159 158 149 152 139 143 148 120 82 75 74 80 99 118 125 127 140 139 142 135 151 154 151 150 153 152 151 142 144 144 142 130 132 133 144 147 139 137 143 134 130 136 133 130 135 130 133 129 128 127 129 135 136 135 138 131 137 143 136 134 134 132 121 104 99 99 116 110 110 113 115 131 135 133 142 148 139 157 162 175 168 157 166 152 153 148 139 162 170 166 170 161 166 160 157 148 144 153 129 89 72 79 80 96 113 134 138 155 151 148 147 154 166 168 168 170 168 166 163 161 153 156 153 158 148 151 152 146 142 143 147 150 138 146 143 138 136 127 127 127 127 131 136 136 140 143 150 146 147 151 149 148 139 137 128 115 112 94 113 109 115 111 111 118 137 137 137 146 150 141 160 167 177 163 164 164 155 147 147 158 165 161 167 158 161 158 140 141 142 137 101 77 86 96 90 112 135 151 155 162 159 157 165 175 182 189 189 182 188 185 174 171 162 161 159 156 154 159 149 142 155 152 153 161 150 147 147 144 129 129 126 133 129 125 135 135 135 143 146 144 147 153 151 157 151 151 140 131 121 113 100 105 110 109 111 115 119 134 135 142 146 143 148 159 176 176 169 171 165 152 148 155 157 164 159 149 136 142 133 131 132 116 90 91 101 109 116 131 148 168 165 171 171 173 178 195 204 204 196 190 199 195 178 181 176 171 170 162 163 156 150 147 155 157 157 153 153 149 141 141 139 134 132 134 130 122 129 131 134 137 139 144 148 147 148 152 160 147 147 140 131 123 107 102 108 108 106 111 114 112 137 157 142 153 156 152 157 171 176 183 174 159 152 150 148 158 152 144 141 134 127 123 131 111 88 98 103 120 132 143 164 181 180 190 185 195 193 210 209 211 209 200 204 204 195 188 185 174 177 172 172 161 161 162 162 166 163 162 161 157 154 149 148 141 140 136 127 129 127 131 131 127 133 136 143 147 150 157 156 152 149 144 137 122 115 100 107 106 101 102 111 101 118 154 159 150 153 153 154 158 171 185 181 175 155 144 140 156 154 141 133 123 123 138 135 102 84 97 111 133 140 162 182 185 185 184 191 205 204 212 215 217 206 204 206 205 201 192 188 185 186 180 178 173 172 173 170 175 169 170 168 163 165 156 151 150 146 138 134 134 126 130 130 125 129 131 137 139 151 157 156 153 149 146 142 133 122 118 100 104 101 104 111 107 105 135 157 163 145 150 152 160 169 174 181 187 165 139 146 158 143 134 118 114 134 136 111 81 95 116 123 141 161 178 178 185 191 192 203 216 211 218 225 219 217 210 212 213 204 193 188 190 183 183 178 177 173 171 172 173 169 170 165 161 165 161 153 152 148 143 139 137 130 134 132 125 128 132 130 133 144 151 155 157 153 150 136 144 129 130 111 112 107 104 120 117 106 118 147 153 158 145 149 153 170 171 175 189 181 136 143 151 139 123 109 124 135 114 91 89 105 119 137 161 174 178 171 188 194 200 216 221 208 219 228 215 225 215 213 208 202 193 189 188 185 180 175 179 171 169 170 170 164 166 159 157 158 156 153 146 143 145 141 134 131 134 134 130 131 140 134 143 141 144 145 153 158 151 140 140 132 126 115 115 110 94 110 121 108 113 129 144 148 152 140 146 153 176 175 186 187 143 153 146 135 121 108 127 120 93 98 90 99 124 153 166 173 174 164 188 201 210 213 217 225 224 226 217 221 212 208 201 196 191 183 182 182 175 168 174 168 167 170 171 170 166 163 158 159 162 159 154 150 148 144 140 139 141 140 140 139 145 145 140 142 144 146 147 149 147 140 136 132 126 114 112 105 100 99 116 108 113 119 140 140 143 148 147 149 162 177 191 187 148 155 139 150 120 125 133 111 96 85 82 101 139 150 164 167 159 162 203 209 201 209 222 223 218 217 210 202 198 199 200 187 181 173 175 175 175 170 170 172 166 167 167 166 168 166 170 166 172 165 156 153 150 151 139 139 139 143 146 145 145 147 147 145 144 150 148 149 141 138 128 124 119 124 111 103 98 85 109 112 112 119 135 140 131 150 154 148 160 170 184 192 161 156 159 150 128 139 127 102 83 72 80 103 140 151 162 149 159 179 206 197 199 209 223 210 199 200 193 187 188 186 190 182 179 172 168 172 171 171 168 167 162 161 167 166 168 167 170 165 174 167 159 154 147 143 139 139 137 136 141 140 141 147 150 143 143 150 153 150 144 131 135 121 121 120 118 105 87 90 93 110 107 119 128 136 129 133 144 158 156 170 182 187 171 162 169 145 130 137 119 93 77 57 94 115 146 159 155 149 176 188 195 197 206 202 215 200 187 180 183 177 183 182 184 183 174 168 160 163 163 160 157 159 159 156 161 161 165 162 167 165 168 166 157 154 144 141 133 137 138 136 139 135 138 142 139 141 143 145 155 157 149 135 133 124 125 119 122 102 85 86 89 105 103 103 126 137 123 133 136 155 167 166 192 191 170 164 158 135 126 119 110 80 70 77 110 121 145 153 147 154 177 193 196 206 196 195 195 193 177 178 178 170 170 172 176 170 167 160 155 154 153 150 149 152 156 157 157 158 160 160 159 161 165 156 150 150 140 135 128 129 132 130 135 136 138 137 134 135 143 139 149 151 156 141 138 123 128 122 122 111 83 81 85 96 94 101 116 127 122 121 133 159 167 169 191 190 160 165 148 118 115 109 94 73 72 88 107 113 139 155 154 161 185 199 203 201 185 190 189 183 174 161 162 163 165 161 157 157 157 153 153 147 150 149 147 148 148 151 149 150 160 158 157 155 159 151 147 149 142 136 129 128 130 122 127 136 132 137 135 136 138 144 149 148 148 143 136 129 126 123 126 115 89 90 84 94 101 95 119 133 119 131 131 160 168 167 192 184 173 171 141 112 104 100 85 72 71 91 93 118 145 164 160 167 197 193 195 194 184 187 183 167 150 149 155 163 158 150 155 157 158 157 152 152 151 154 146 148 145 144 143 142 148 148 151 149 150 150 149 145 144 135 131 132 129 126 129 137 140 136 139 139 141 150 150 148 145 146 138 137 127 123 126 122 90 96 95 88 110 104 114 130 122 122 131 159 170 164 190 192 178 155 130 109 91 91 92 74 73 89 97 127 151 170 168 185 185 187 189 184 175 174 162 157 151 153 157 156 151 150 159 166 164 162 164 159 156 153 148 148 141 140 138 134 142 140 142 140 142 141 143 143 137 137 136 134 134 133 135 139 141 142 141 149 149 151 150 146 146 141 139 140 137 128 121 122 93 91 102 101 107 110 116 129 129 120 126 150 165 168 174 197 177 141 132 104 77 88 76 79 72 81 109 135 156 178 174 171 175 183 179 170 166 155 153 155 160 159 161 162 163 165 172 174 175 175 172 171 166 161 151 155 144 137 136 131 131 136 131 130 128 134 132 137 137 137 134 139 135 139 138 138 144 147 150 155 156 152 149 148 148 140 137 137 139 128 134 124 96 96 104 109 108 108 118 136 135 129 136 138 151 157 166 190 164 141 129 93 74 86 65 86 77 103 126 144 169 177 162 165 171 178 170 164 157 155 154 161 165 163 164 168 169 170 168 173 170 169 168 171 170 168 154 153 146 139 134 128 122 126 120 120 127 129 132 139 144 144 147 148 143 142 140 135 141 145 147 152 156 156 154 151 150 146 140 132 138 130 132 127 105 87 111 111 108 112 113 138 140 126 136 126 146 143 157 179 153 130 122 86 78 72 79 81 96 118 128 148 173 171 153 160 175 175 166 160 163 155 163 169 168 165 161 170 167 161 162 166 165 160 155 156 150 152 144 138 132 127 124 122 119 118 123 130 130 130 135 136 133 136 141 138 141 138 134 131 135 135 143 137 140 147 146 153 150 147 143 141 137 138 124 134 116 101 109 118 123 112 116 139 154 132 118 119 131 133 152 172 149 130 116 79 75 70 91 88 95 102 130 156 172 159 144 160 177 173 170 163 164 158 165 157 159 159 161 160 157 153 154 158 156 146 144 139 140 140 136 130 126 122 114 117 123 114 116 121 123 119 126 130 130 130 128 124 128 131 121 120 122 126 127 135 134 135 134 143 147 141 145 147 146 144 138 129 128 112 115 136 127 125 112 144 149 148 122 108 117 130 143 164 147 128 97 69 66 69 88 67 73 103 139 156 167 146 146 162 175 171 167 164 158 162 154 153 157 159 153 146 146 142 135 132 133 128 130 131 133 135 129 121 115 106 111 112 109 108 109 109 116 108 111 119 117 117 116 113 116 111 116 113 112 117 120 121 122 125 131 134 141 136 145 147 150 151 145 129 126 118 119 145 138 132 120 135 156 150 136 107 119 124 140 165 148 121 73 55 54 77 76 72 75 109 139 154 160 149 154 171 170 175 163 159 153 149 148 151 150 150 147 143 147 136 127 129 128 134 130 129 132 129 126 122 115 108 106 109 102 102 103 103 102 97 108 115 114 113 112 110 110 111 112 110 112 113 114 114 114 120 125 130 133 138 147 150 152 152 155 143 131 122 128 130 148 134 123 139 158 144 130 112 119 115 144 168 154 114 61 41 64 80 62 86 74 106 136 159 165 147 155 169 168 164 159 157 146 144 155 152 145 146 147 147 143 139 127 122 124 125 120 122 123 121 124 121 117 114 110 109 103 107 110 107 106 105 108 114 116 114 111 107 107 107 108 107 108 106 111 112 110 119 121 125 133 140 146 154 165 159 154 145 132 130 132 140 152 136 128 122 160 148 129 112 114 111 143 176 161 105 58 49 68 68 50 98 79 112 138 149 153 144 157 169 167 165 168 160 146 148 147 150 135 140 137 131 138 135 131 125 122 121 120 120 123 124 124 124 121 122 116 112 109 109 115 112 111 109 107 109 111 108 107 105 101 102 103 101 102 105 105 111 108 118 122 125 135 143 152 158 177 175 167 160 131 125 128 139 146 151 135 145 143 150 132 111 117 123 140 171 168 119 70 66 71 61 64 97 89 108 124 137 147 148 147 160 151 141 146 148 149 145 146 143 135 132 129 130 132 132 126 123 122 121 117 122 124 124 124 125 122 120 114 107 106 107 112 110 109 107 103 105 103 102 101 100 100 99 98 99 101 101 103 109 107 107 109 115 125 134 150 159 165 172 176 178 147 125 131 134 127 133 141 148 156 144 128 119 121 132 151 171 172 146 88 66 79 78 79 95 103 98 126 134 142 138 131 140 144 140 148 151 148 139 138 135 125 127 121 123 121 124 122 119 122 122 123 122 126 125 128 129 122 121 112 107 105 106 113 108 106 104 99 102 99 100 97 98 97 98 98 101 102 106 106 108 115 110 118 120 129 132 145 154 156 162 162 187 165 132 133 137 128 129 139 139 144 150 129 128 127 136 151 182 183 176 102 89 81 92 94 91 91 108 133 113 132 118 121 120 140 136 143 155 148 146 138 126 123 126 125 128 135 139 132 137 134 133 139 137 140 134 134 132 125 116 115 106 98 96 105 109 105 100 99 99 95 97 92 95 97 98 99 105 106 108 101 104 113 110 122 121 134 144 144 161 163 175 166 179 177 142 135 139 123 118 132 138 124 140 142 133 142 143 149 197 201 174 133 112 101 118 90 96 98 99 117 100 122 106 106 116 137 136 144 163 163 155 149 140 136 127 127 126 129 133 134 128 127 129 136 136 133 133 134 131 126 119 123 110 108 104 106 105 104 99 96 93 93 88 85 87 87 90 87 94 97 98 97 88 96 102 111 117 121 136 152 160 171 181 181 185 185 144 130 143 127 130 123 137 128 126 153 145 154 159 162 207 188 171 150 119 113 114 98 115 101 89 95 97 109 117 119 116 135 148 158 156 143 144 127 120 119 119 123 115 114 117 114 114 110 116 118 122 127 126 126 128 123 116 123 110 111 114 119 109 106 99 92 95 96 89 88 89 89 90 86 86 89 89 86 84 95 104 115 126 126 131 150 161 169 186 194 178 186 147 135 127 121 136 143 116 141 149 152 146 155 170 156 212 183 171 184 144 119 121 102 122 99 75 72 88 98 125 124 112 143 150 153 138 129 130 127 122 117 115 116 112 107 115 126 129 124 128 131 122 127 128 126 132 125 117 123 117 113 120 122 116 110 104 100 102 100 97 99 96 99 94 100 96 89 87 89 91 92 100 118 131 135 128 148 162 167 184 197 185 177 155 132 131 108 113 142 144 158 136 124 142 164 170 164 208 184 170 196 157 126 135 115 128 108 86 63 63 97 125 123 124 146 152 136 136 135 139 134 122 114 110 117 116 120 127 123 124 131 123 138 126 130 122 117 125 122 112 122 124 123 123 125 126 121 116 101 96 96 95 90 95 89 97 96 101 95 88 87 103 104 116 132 139 140 135 149 163 174 186 193 189 177 171 128 128 126 123 126 153 185 147 105 142 154 174 183 204 193 179 219 168 142 157 131 126 118 98 58 61 97 106 122 110 129 136 123 144 150 140 134 131 130 127 134 122 127 128 122 130 127 118 130 117 117 108 115 110 100 110 121 122 121 123 125 124 131 125 115 102 112 115 115 110 106 113 106 123 115 107 114 109 105 115 126 139 146 151 149 158 175 185 192 191 181 163 120 114 131 128 137 150 192 141 104 145 162 185 193 205 209 188 215 189 189 185 151 138 129 114 74 95 118 107 108 94 104 103 108 131 146 143 138 156 143 140 142 137 133 134 130 134 132 135 120 113 95 94 96 89 89 101 118 125 130 133 129 128 130 132 123 106 113 121 124 135 121 114 116 123 122 125 134 116 111 117 128 135 134 137 149 149 158 178 185 187 186 168 131 113 120 131 125 136 180 130 103 166 153 171 183 219 220 183 214 200 203 199 176 168 142 118 86 112 137 121 97 85 89 82 116 112 131 143 153 158 174 157 180 163 147 148 151 148 148 140 110 101 96 93 96 88 101 113 126 121 134 151 134 124 130 129 127 106 108 124 138 141 132 128 129 124 115 119 137 133 138 135 143 149 150 155 145 160 152 162 175 174 184 170 145 127 134 125 125 121 169 149 140 161 153 152 176 207 219 177 202 210 201 201 190 167 143 126 96 111 130 118 90 75 94 95 129 127 148 159 167 188 208 218 220 205 184 184 169 167 135 137 122 131 110 125 133 122 121 128 133 131 157 162 163 155 140 139 144 132 112 122 134 143 143 145 150 136 130 135 141 147 120 140 148 149 147 162 154 164 155 154 159 171 181 167 154 134 133 151 154 137 175 165 151 136 144 170 168 204 204 182 187 207 197 196 189 161 150 153 124 134 132 121 103 90 98 128 144 150 168 152 170 196 201 209 210 203 189 190 180 171 140 139 140 157 137 159 152 138 137 133 144 145 170 181 177 168 162 156 153 153 141 132 142 142 146 160 155 150 134 150 157 157 142 145 153 139 156 163 151 141 147 159 157 168 186 160 138 129 135 153 178 144 185 170 156 132 130 159 173 192 197 187 167 205 201 183 176 166 155 167 152 153 144 139 103 105 109 148 170 182 178 180 192 184 185 173 194 188 181 192 180 167 157 157 169 160 145 155 157 151 158 157 156 158 184 185 179 170 173 164 159 164 158 137 148 146 170 173 161 159 131 155 175 160 158 149 151 140 150 164 162 140 134 154 175 182 195 177 139 152 145 167 198 151 184 167 151 134 143 150 170 185 203 198 172 197 213 168 160 166 147 144 152 140 135 148 110 103 108 164 172 180 196 201 192 182 173 173 182 183 184 180 172 156 158 162 174 147 151 151 163 150 156 150 140 167 182 183 171 171 167 172 169 159 164 146 145 141 153 165 165 172 153 162 185 181 168 151 162 163 152 169 165 157 151 158 187 187 203 202 147 163 147 169 180 155 170 138 149 132 152 153 159 182 204 198 178 188 224 179 155 161 136 143 128 136 143 146 132 117 146 171 176 202 178 195 179 187 173 171 181 181 171 168 167 149 154 164 162 143 159 159 148 132 133 129 128 153 169 178 176 167 172 169 172 155 172 162 157 140 143 156 150 161 156 153 168 171 157 149 152 164 157 160 174 167 168 175 193 191 196 209 165 149 140 153 162 153 172 133 143 134 136 148 148 173 190 168 167 165 210 186 147 155 140 139 137 112 144 143 135 127 161 163 170 172 167 175 179 172 168 167 158 163 174 167 150 154 146 163 156 149 144 162 140 146 128 121 144 150 158 169 171 159 159 154 169 174 174 159 153 145 139 148 154 152 149 156 149 173 162 167 160 166 168 171 173 185 170 172 182 196 185 199 176 147 140 153 145 153 163 127 122 111 112 140 148 160 174 157 128 143 212 182 149 134 136 138 148 110 145 155 140 143 149 170 174 149 152 162 149 157 146 142 149 163 172 184 154 153 146 155 149 138 139 133 124 137 136 129 154 158 140 153 159 161 158 147 145 164 163 162 155 139 129 140 141 136 134 142 144 153 165 166 157 180 180 183 180 177 163 173 182 191 187 196 182 151 141 142 130 156 142 131 102 94 92 131 157 150 173 159 115 151 207 174 138 133 118 141 134 124 129 158 138 126 145 157 171 157 142 151 147 147 145 155 172 180 179 152 128 124 131 124 133 123 125 103 116 128 138 116 149 147 141 145 152 160 154 155 124 147 160 167 157 132 124 116 126 131 129 123 134 135 159 155 166 175 183 180 183 169 167 169 176 185 188 188 166 145 141 134 141 171 156 137 94 101 90 120 155 152 182 153 127 160 192 168 128 123 97 125 119 116 134 147 125 115 124 133 148 150 127 139 137 142 151 157 166 167 158 129 104 114 121 122 126 118 93 102 105 129 133 120 146 138 142 153 157 153 145 155 139 136 159 172 175 154 111 122 107 109 126 108 112 137 152 159 164 169 177 173 165 157 159 162 168 172 175 163 157 146 130 131 135 173 152 127 128 96 86 116 147 156 169 147 131 175 181 157 120 117 77 109 132 105 125 133 111 110 124 128 127 131 123 129 138 143 131 137 137 148 131 111 85 89 103 102 103 103 93 88 102 125 113 136 141 152 141 148 148 135 125 146 145 135 155 151 164 165 121 109 114 101 109 106 101 117 124 144 158 158 168 164 154 139 143 146 153 155 163 162 163 141 127 137 140 168 136 138 158 108 87 130 132 153 177 136 121 178 165 121 88 106 75 105 140 106 123 130 113 107 121 125 113 126 117 110 124 129 124 121 120 118 110 101 83 82 85 83 92 93 96 70 96 125 132 141 149 152 148 154 141 127 124 136 136 141 147 141 150 171 148 126 128 126 101 109 93 101 118 126 139 141 145 138 133 134 144 144 154 158 174 168 155 148 136 145 156 152 136 155 152 105 95 132 118 158 182 128 103 160 118 84 47 91 83 103 154 109 110 128 115 103 113 124 119 128 111 110 115 131 128 124 119 113 103 88 82 77 83 79 88 94 89 79 106 128 130 141 152 146 145 138 124 118 114 134 139 137 149 130 135 135 130 119 123 127 117 110 107 100 107 110 112 120 131 126 121 131 139 135 147 156 168 157 152 149 151 174 166 155 124 149 123 99 96 125 113 163 191 116 102 147 111 50 32 61 71 105 132 108 112 120 116 113 118 123 136 135 130 123 124 133 139 133 118 103 94 89 88 91 88 90 91 101 103 99 110 125 137 146 150 135 140 127 121 124 128 133 138 138 144 134 130 126 120 115 103 106 94 100 104 107 115 114 115 121 132 126 127 134 140 151 154 172 168 153 155 153 165 194 172 146 151 146 126 91 104 116 119 162 192 107 107 137 129 53 33 71 79 103 113 103 113 122 124 116 119 126 126 125 129 121 116 118 121 128 115 102 98 97 97 91 93 101 92 100 99 100 109 128 140 154 143 137 142 127 119 129 134 133 137 137 140 150 143 143 128 123 116 99 93 97 102 101 112 125 130 128 136 130 136 135 132 150 151 167 165 157 149 161 171 190 166 175 163 145 152 91 119 99 130 163 194 92 115 136 131 66 34 64 83 110 121 95 99 124 132 125 124 123 130 134 122 120 120 110 114 125 114 104 106 104 106 102 106 105 90 95 99 104 128 140 136 139 143 146 139 132 126 119 136 136 130 124 130 138 144 140 116 119 125 95 85 97 101 105 109 115 133 135 135 140 143 140 138 147 158 169 168 155 141 165 178 188 174 196 164 161 164 116 112 95 129 155 203 80 80 128 100 61 44 75 101 114 128 102 105 109 123 115 112 117 116 127 120 118 118 122 127 126 109 95 95 98 95 89 96 97 84 90 91 96 121 121 136 147 157 148 130 120 117 119 118 121 132 118 112 124 140 133 123 120 120 103 90 87 97 107 117 126 123 132 139 140 134 145 137 142 162 168 165 147 147 173 168 180 183 196 162 157 164 139 106 95 137 152 202 105 58 112 55 57 56 74 98 108 130 110 110 105 119 115 115 108 111 120 113 114 112 121 128 131 116 108 93 94 79 77 85 91 84 79 77 90 110 118 125 144 152 144 127 113 118 114 112 104 107 99 99 98 121 130 122 106 112 97 95 85 87 104 110 123 126 131 124 124 129 130 135 135 152 154 151 138 144 174 173 180 179 202 159 157 166 160 99 114 154 151 191 141 63 97 48 26 54 53 87 101 120 110 124 110 116 114 115 112 115 120 112 113 111 118 121 116 101 87 87 83 74 71 81 83 77 70 85 111 116 121 121 128 133 132 124 118 117 111 113 110 95 89 84 83 92 83 83 89 92 92 71 78 76 82 97 111 119 128 129 118 127 124 130 133 142 148 155 149 154 178 184 178 167 171 158 151 168 153 108 139 152 155 181 151 66 100 49 22 43 35 83 101 118 119 130 115 114 117 120 120 120 121 116 115 110 115 114 104 96 79 80 76 69 70 66 70 70 74 95 112 123 126 125 128 130 125 121 129 117 110 108 113 106 90 93 94 90 80 70 75 77 78 65 67 68 75 86 89 98 110 118 121 132 136 134 141 149 149 156 142 144 174 180 165 145 161 136 140 173 147 140 151 157 161 149 153 57 73 64 15 45 20 71 106 105 126 142 123 123 118 126 123 128 125 120 118 115 112 106 102 88 77 77 70 67 62 58 64 75 83 101 118 123 125 122 128 129 123 120 124 123 114 109 104 105 96 97 103 96 93 85 77 83 85 76 72 70 70 81 81 92 102 103 110 117 123 133 137 144 147 156 150 143 172 173 156 147 158 131 148 173 144 170 154 158 161 121 151 58 52 54 23 44 33 55 90 115 127 138 128 126 121 127 134 135 130 127 117 120 117 107 100 89 83 79 79 73 62 57 62 74 88 101 113 118 122 125 132 127 118 124 126 120 113 110 98 104 101 100 114 111 111 113 94 106 98 92 78 81 80 89 86 95 105 108 115 120 124 138 140 145 149 154 153 148 160 175 163 162 157 134 153 172 161 190 149 162 157 115 157 67 32 29 10 31 45 58 71 112 128 142 140 128 126 129 138 134 132 125 114 111 121 109 93 86 82 89 84 79 79 74 73 80 99 110 112 117 118 129 132 124 116 117 119 114 109 107 104 96 95 95 109 113 110 112 115 120 118 112 103 89 85 91 93 102 110 118 121 124 124 136 142 141 150 157 158 144 153 156 164 148 148 136 157 173 185 191 155 163 159 122 140 101 17 17 3 18 38 70 81 101 133 149 143 131 130 130 137 129 126 118 119 114 122 106 91 85 90 97 93 91 97 98 99 107 110 109 119 130 127 141 140 123 120 113 111 109 98 93 102 98 91 99 103 111 112 114 117 113 119 115 106 93 91 87 95 95 104 122 120 126 124 136 141 141 154 159 155 145 159 164 163 146 145 151 165 173 188 194 157 162 163 137 120 122 43 20 18 0 23 58 87 94 133 149 146 140 143 137 135 126 121 115 116 117 112 95 89 87 100 104 108 103 112 116 131 131 120 126 133 144 142 149 155 139 127 125 118 115 102 96 116 115 105 109 110 117 130 134 130 124 123 118 111 95 98 102 107 103 110 122 121 127 132 134 137 140 160 161 156 149 170 171 154 147 150 171 185 189 196 200 155 159 161 142 116 112 89 29 33 16 22 47 75 100 122 145 157 147 146 139 131 123 116 108 113 106 105 94 90 93 107 114 120 114 121 137 145 139 134 142 147 148 156 152 160 148 134 130 124 130 119 119 129 130 120 119 120 126 140 149 145 133 131 120 113 108 106 106 106 109 117 126 128 128 130 134 134 142 159 157 163 158 170 158 147 156 159 195 202 195 197 196 162 155 159 163 122 112 123 54 50 43 34 49 60 104 127 132 145 146 142 146 129 116 109 99 103 96 93 96 102 99 110 118 124 120 132 156 153 146 149 156 154 159 163 153 153 147 137 129 130 138 135 135 133 138 139 128 127 123 137 152 149 140 136 132 123 119 118 113 111 118 122 129 130 132 134 132 136 145 155 161 163 166 162 148 152 159 174 221 225 204 201 201 154 153 157 165 139 122 140 88 57 46 30 47 57 102 130 132 143 142 143 144 126 107 107 100 97 93 88 93 107 107 116 119 121 131 151 157 151 151 155 155 163 162 167 158 159 158 154 148 141 145 145 149 141 138 139 139 136 123 144 151 145 141 138 136 129 131 127 119 115 120 124 138 134 137 135 137 140 146 156 161 167 179 171 161 158 177 199 245 237 201 208 193 148 153 151 161 151 130 150 110 99 50 30 46 74 124 122 127 139 150 148 149 128 110 110 105 96 102 91 97 103 110 118 123 130 144 156 145 141 145 142 144 152 159 166 160 157 170 173 165 161 163 160 154 149 145 140 139 137 136 149 150 143 142 145 138 133 129 128 126 131 124 123 141 138 137 145 148 144 148 159 161 174 186 182 184 178 188 232 255 225 205 202 174 144 154 159 160 153 146 144 141 113 89 70 59 83 134 127 116 138 151 145 144 123 112 108 103 97 103 100 102 101 112 115 130 138 145 151 146 139 131 128 133 151 156 163 155 161 172 178 170 166 167 167 163 152 140 136 133 135 145 144 144 137 135 140 141 139 132 132 127 140 134 124 136 143 143 151 156 151 157 160 165 174 186 178 183 192 198 233 249 231 217 193 152 139 153 162 144 156 153 144 152 129 110 102 86 97 146 139 124 148 148 158 137 121 107 103 104 99 103 100 104 101 108 116 133 130 141 133 133 135 122 126 128 137 147 146 142 149 163 173 153 148 144 144 139 127 120 122 123 123 133 141 139 129 130 129 134 132 128 132 126 140 140 133 132 148 147 153 163 153 163 161 168 173 177 170 181 185 212 229 228 232 208 170 147 142 152 163 135 151 159 149 151 148 118 119 101 113 162 150 134 148 148 150 142 116 98 94 103 99 98 99 97 100 107 117 121 117 119 117 115 117 107 108 110 118 125 134 132 136 137 148 142 138 140 139 135 130 122 118 121 122 126 126 127 127 124 121 114 116 113 126 126 127 143 137 129 144 150 159 167 163 162 164 165 169 167 161 178 179 216 229 214 210 188 152 144 150 151 166 146 153 156 151 158 142 140 116 123 131 157 162 137 147 146 147 134 107 100 96 98 95 93 92 98 99 114 114 101 97 102 98 101 107 97 90 101 117 128 142 131 142 137 137 138 129 134 130 121 124 122 112 121 124 122 121 118 113 114 119 107 95 101 114 115 117 129 142 139 149 160 157 173 171 163 165 170 164 168 164 180 178 214 215 193 183 163 147 140 154 158 160 154 159 156 154 163 148 131 130 131 135 141 153 129 139 148 146 133 109 101 100 92 96 98 93 100 109 111 105 91 80 94 87 85 93 98 93 97 116 126 134 122 134 133 127 127 116 126 121 118 123 122 113 129 133 131 120 118 111 112 120 114 104 105 108 111 119 122 142 148 161 162 171 176 178 170 168 174 160 172 171 181 173 199 188 170 173 161 148 140 153 161 156 161 166 155 161 166 156 140 133 128 133 135 143 131 145 151 148 131 102 104 100 95 99 98 96 94 104 106 106 100 94 100 92 79 90 95 104 108 114 122 134 121 122 132 131 123 125 135 128 136 131 127 120 132 144 148 126 123 125 121 124 132 123 114 114 119 131 129 148 151 159 165 171 174 185 168 175 177 163 173 168 174 172 188 180 178 165 164 142 139 154 157 157 162 159 164 167 159 161 145 139 128 127 134 131 125 136 153 150 130 106 98 101 102 111 106 109 105 109 114 112 109 100 101 100 90 99 107 113 118 128 136 146 151 151 160 166 155 152 160 160 163 156 145 134 148 155 158 135 129 137 133 138 150 146 129 134 136 154 143 155 160 164 164 167 178 189 175 172 178 161 169 165 175 174 183 184 174 165 157 141 144 148 160 155 155 165 163 166 156 170 152 135 131 134 131 118 131 129 145 149 129 117 109 108 116 120 114 117 123 120 123 123 122 109 115 108 104 110 136 123 130 144 156 158 166 178 186 187 188 168 172 172 173 167 156 145 148 154 155 149 139 139 146 144 150 149 135 140 142 156 152 157 159 167 169 166 180 184 174 171 170 162 169 159 171 167 177 183 166 164 158 140 138 147 156 158 153 160 160 163 158 173 153 135 128 128 137 125 126 136 143 146 137 122 121 124 121 124 123 124 136 135 143 132 132 130 130 134 128 144 152 159 157 147 151 161 162 179 180 190 195 182 182 175 186 182 159 156 147 151 156 157 151 147 154 156 158 144 137 140 148 153 149 157 156 171 169 166 177 180 171 180 172 164 165 153 168 165 176 185 169 159 154 141 145 143 146 159 156 151 152 161 165 169 138 147 132 127 136 132 138 138 141 149 146 126 139 135 125 138 132 133 143 147 155 140 144 140 127 133 146 152 152 169 178 172 178 164 167 174 183 184 190 181 172 171 171 164 156 157 151 152 152 159 161 154 166 163 163 162 156 142 144 136 137 137 151 162 161 162 177 169 167 172 163 171 161 154 169 159 177 174 174 155 149 148 145 142 143 154 158 152 151 163 178 162 155 156 125 122 141 144 140 138 145 145 145 134 142 137 133 139 133 135 141 141 148 134 136 135 127 124 130 124 134 157 160 157 171 151 159 161 163 161 157 140 143 149 145 143 134 140 139 139 145 161 161 162 167 167 163 161 149 141 137 135 141 141 146 151 155 156 170 162 165 167 153 169 158 155 171 161 170 171 167 158 154 155 148 144 148 149 158 157 161 164 173 180 169 163 122 115 142 154 149 140 146 142 147 131 137 135 138 140 134 140 138 143 145 135 140 134 123 115 120 122 134 147 164 158 168 149 157 145 144 145 152 142 142 136 138 131 131 131 134 140 138 134 143 159 163 161 160 160 151 143 141 134 143 131 139 150 152 152 163 152 162 154 143 165 153 161 163 164 176 173 162 157 164 153 153 151 147 154 157 163 164 164 188 196 165 157 127 115 133 151 154 149 147 141 147 141 126 148 141 139 133 143 136 143 147 138 140 136 124 113 121 121 124 134 144 148 152 144 154 141 136 144 147 153 141 145 151 149 140 146 144 147 132 133 137 144 157 156 157 156 149 145 148 137 137 134 141 146 150 157 160 146 160 138 146 155 149 165 158 167 179 175 157 160 165 161 157 152 151 149 168 162 162 184 204 190 170 157 134 122 126 150 159 157 147 141 144 145 129 142 139 132 125 133 136 133 136 135 132 123 106 103 110 114 111 120 128 129 131 129 143 136 135 133 136 148 146 129 143 143 143 142 150 143 143 144 143 153 159 157 155 148 146 146 140 140 142 136 144 145 153 154 157 146 153 126 144 142 149 161 161 175 178 175 153 169 168 167 158 159 154 152 175 162 169 206 207 195 175 162 143 122 129 145 157 169 146 138 135 136 130 132 144 134 128 140 133 136 136 125 115 104 94 95 98 97 100 111 121 128 133 136 146 144 153 153 154 159 152 144 143 136 137 141 146 148 151 158 154 162 164 166 151 150 147 140 139 139 138 135 144 143 151 155 150 139 139 107 138 136 157 151 172 177 177 165 159 171 170 163 156 158 159 163 168 165 198 219 213 196 174 169 158 127 136 149 159 165 150 131 124 129 127 123 144 150 141 145 142 141 137 129 113 105 101 101 103 102 111 116 121 126 133 146 145 150 156 155 156 162 157 151 148 142 137 150 146 148 152 157 153 155 156 156 149 150 138 137 137 135 130 136 142 144 143 155 131 135 127 114 128 143 159 147 176 183 178 164 171 172 164 165 156 156 159 164 168 196 223 227 216 197 181 182 181 149 151 157 159 163 152 134 116 123 126 129 142 157 157 150 149 143 141 130 123 116 109 111 117 121 125 123 141 148 156 155 155 159 150 146 146 151 153 163 151 154 152 149 148 149 152 156 155 146 141 150 144 138 130 132 132 128 130 142 146 141 144 145 124 128 103 110 125 146 143 158 168 186 189 179 171 172 159 169 158 151 157 166 195 227 229 228 220 200 197 197 199 167 150 162 150 164 149 130 121 118 128 131 130 163 161 158 154 150 145 135 130 122 116 124 122 117 114 132 150 165 175 174 175 176 175 162 156 156 161 162 159 160 161 159 155 149 153 155 145 144 139 139 135 128 128 131 130 130 129 143 147 136 144 134 119 114 91 98 111 142 131 159 159 167 189 189 159 157 152 153 154 152 153 157 208 211 214 210 211 195 198 198 202 173 147 158 148 155 142 138 134 128 130 134 134 161 176 166 155 156 156 149 135 127 125 123 118 118 118 141 158 171 178 176 177 174 179 168 165 159 157 159 160 159 160 158 153 150 151 149 145 142 141 131 129 124 120 126 127 126 134 147 143 136 134 123 121 96 85 86 104 123 127 130 134 143 156 170 145 132 121 130 127 127 125 135 205 206 210 209 207 202 192 194 184 175 150 147 149 145 131 143 143 137 134 140 132 170 180 181 166 168 156 164 143 136 128 120 129 128 132 146 157 169 181 182 183 172 173 170 166 165 162 162 162 158 161 161 157 157 154 150 145 143 132 129 123 124 114 118 124 130 132 143 145 128 128 121 112 96 78 82 89 112 134 125 119 140 137 156 147 119 104 103 98 95 96 99 178 175 172 182 175 179 172 170 164 158 148 130 142 139 131 137 159 139 139 149 137 166 187 186 181 171 173 169 158 148 137 135 140 139 143 156 163 167 186 190 189 183 180 174 168 167 163 160 157 155 153 158 158 160 159 148 146 145 129 126 120 121 110 113 122 130 133 144 135 125 120 125 108 107 82 76 84 101 127 123 119 141 136 144 149 136 108 101 98 102 94 95 167 168 173 176 165 170 150 151 147 141 147 126 134 143 131 132 156 149 141 157 145 163 172 188 186 174 185 169 170 150 145 141 148 149 154 165 162 176 181 186 186 182 180 175 167 162 161 156 151 149 147 147 149 151 152 148 142 136 125 121 114 109 112 110 120 130 138 137 131 122 123 117 108 115 86 67 87 103 112 111 113 148 142 140 142 145 124 104 94 100 103 97 161 171 182 183 167 170 146 146 136 150 120 118 145 148 128 126 146 153 149 157 151 159 168 188 184 180 177 174 163 160 146 145 148 149 143 143 151 149 156 158 159 152 151 150 144 142 143 143 140 138 138 140 141 145 140 136 137 124 116 107 107 102 111 115 125 134 140 135 125 126 128 120 113 113 97 74 89 107 104 102 115 154 146 139 140 143 132 110 93 89 104 99 155 175 179 183 171 170 156 156 125 133 118 101 144 146 133 123 142 143 148 156 163 164 166 186 189 180 179 171 164 159 149 140 134 132 137 130 133 130 130 131 134 124 122 122 118 119 121 119 120 123 120 124 128 127 124 127 127 117 109 101 102 106 109 126 129 137 137 136 128 127 134 123 112 119 95 92 100 104 102 103 112 148 138 130 135 139 133 123 103 90 96 93 161 171 181 175 181 171 168 164 124 102 105 111 118 143 130 104 142 149 140 166 153 160 159 185 189 187 174 171 163 162 148 135 132 129 125 119 118 112 111 115 114 111 107 106 105 103 110 107 109 112 109 111 112 117 115 117 116 104 104 99 101 110 118 131 133 133 140 137 132 143 140 111 100 120 86 109 114 104 95 101 113 133 141 121 118 134 131 123 118 105 106 101 168 171 173 180 186 164 176 166 109 101 100 108 113 98 105 107 111 139 147 154 149 153 156 179 198 189 178 168 158 159 141 132 131 125 115 109 106 98 100 102 98 100 96 100 103 99 106 105 108 108 108 108 113 113 115 113 108 104 104 104 104 112 125 129 130 131 140 141 138 145 142 97 107 97 88 117 145 102 97 107 113 137 144 127 118 129 134 123 119 115 113 119 172 171 168 175 189 164 187 166 102 105 111 112 106 70 81 99 80 121 148 142 142 152 152 171 202 194 178 175 161 152 146 140 129 124 116 106 96 91 92 94 88 86 88 91 92 92 98 99 102 106 109 110 112 112 113 112 102 100 108 110 110 119 130 130 131 136 141 148 137 133 133 99 91 78 101 123 150 105 105 116 120 138 148 131 120 127 132 126 113 125 106 116 169 164 147 173 191 165 209 169 111 110 119 120 69 82 69 64 69 110 136 143 142 143 152 161 185 197 189 181 171 159 145 144 130 125 114 106 95 87 89 87 88 80 81 85 90 94 94 95 101 102 110 109 108 109 114 109 104 104 111 118 119 126 137 136 139 151 147 143 141 131 131 104 89 68 104 137 144 111 106 128 122 141 145 132 122 117 126 124 107 113 111 105 164 150 143 183 192 188 226 156 116 117 125 107 77 72 54 49 45 89 120 118 141 142 152 158 167 182 193 187 179 165 158 148 131 123 116 111 98 95 88 88 88 84 82 84 87 94 96 97 97 100 107 114 109 108 112 110 110 112 115 125 134 136 147 150 151 158 150 143 137 127 126 109 82 62 108 127 140 120 114 136 127 140 145 138 129 113 117 120 114 103 101 96 167 145 154 200 195 203 220 153 123 118 127 128 91 47 43 36 38 72 103 95 122 150 147 154 162 170 183 191 186 171 164 155 145 137 122 113 105 104 94 95 98 93 92 90 95 99 102 99 104 103 110 115 113 115 115 116 109 120 128 137 148 154 155 158 156 157 154 146 122 107 124 98 69 56 94 125 153 129 126 134 135 137 148 142 126 112 112 117 116 107 109 108 167 144 169 196 187 198 207 173 149 112 147 129 91 40 34 35 33 69 89 73 105 145 151 138 163 165 172 182 189 189 180 173 163 157 145 134 121 114 110 107 110 105 102 103 104 103 107 104 112 111 115 117 116 119 122 124 125 133 150 159 168 166 162 157 158 163 164 145 116 107 111 89 57 54 77 110 154 145 150 142 138 138 149 150 130 117 117 118 125 123 130 136 166 147 172 189 187 210 214 185 153 132 155 125 88 36 39 41 39 60 81 64 74 107 134 139 155 160 161 174 182 192 194 196 187 182 170 164 153 144 130 127 122 122 123 124 120 119 122 122 121 122 126 126 134 136 142 145 148 166 174 171 168 162 157 155 165 162 158 138 113 105 86 76 61 66 60 106 153 156 170 166 144 138 149 154 133 114 107 118 132 140 129 136 155 147 175 187 192 216 221 163 152 162 148 116 79 38 51 57 49 56 73 72 60 65 104 120 149 162 158 168 175 186 193 201 204 204 198 192 190 183 170 162 154 149 150 151 143 144 142 142 141 146 142 152 157 158 159 167 174 174 172 163 158 153 160 161 163 164 155 131 117 119 72 53 62 53 70 102 148 171 176 184 167 140 151 160 137 119 99 111 132 146 137 126 164 162 192 201 207 210 183 152 158 154 132 117 64 49 64 72 54 63 73 66 53 53 65 86 121 147 157 163 170 181 189 196 205 209 209 206 206 205 200 190 189 186 176 174 170 161 163 158 158 163 165 166 166 168 176 180 179 169 165 158 155 151 161 164 165 165 149 122 120 122 56 49 55 46 68 88 147 176 177 186 181 161 165 155 142 125 110 112 140 150 142 130 174 166 193 198 179 177 180 151 139 123 125 104 68 60 55 77 62 69 70 71 46 51 50 60 78 120 142 152 166 175 184 192 200 205 210 211 209 207 203 201 201 195 189 181 175 169 167 170 172 173 173 167 173 181 180 175 171 165 156 155 155 158 161 164 171 157 139 114 121 108 58 61 34 59 66 79 147 165 171 182 186 180 190 172 145 135 119 112 131 153 153 123 