P2
92
112
255
166 162 164 165 164 163 159 162 159 161 162 165 167 168 167 169 165 169 162 165 155 154 141 140 139 133 124 103 105 113 102 109 105 106 111 112 117 128 133 133 126 135 122 119 119 116 120 123 129 136 133 131 149 157 156 154 159 173 174 166 167 172 166 160 148 142 132 137 148 152 144 149 148 149 149 147 144 144 143 144 147 147 146 145 147 148 149 149 151 147 152 153 163 165 164 164 163 162 161 159 162 164 163 169 169 169 160 164 164 166 163 161 151 143 133 129 120 109 94 95 88 86 83 81 100 104 114 127 127 142 140 135 133 130 126 113 122 124 126 122 125 127 122 130 132 135 144 139 146 161 167 163 163 167 164 162 158 150 147 144 148 154 152 145 155 155 155 150 147 145 146 141 144 147 151 145 145 147 148 149 151 151 149 152 166 162 166 164 161 164 163 164 161 165 167 169 164 169 162 164 164 164 160 158 145 139 127 115 110 93 85 70 54 60 77 87 100 109 114 138 131 128 139 131 139 132 130 126 135 127 140 139 141 134 128 135 128 129 130 141 141 155 152 158 165 162 164 163 167 156 161 155 159 162 163 151 153 155 169 159 149 151 150 144 144 145 150 147 146 145 148 148 149 149 151 150 165 164 165 167 162 161 169 167 168 169 174 170 171 167 163 166 162 162 154 144 134 121 113 102 91 78 58 50 53 71 85 92 100 115 125 139 133 128 138 140 137 138 145 136 129 144 137 148 157 151 140 136 138 129 125 134 142 147 146 150 154 152 159 161 161 169 161 157 152 153 161 161 159 161 174 171 161 159 154 148 148 146 153 148 148 147 145 149 149 150 151 150 164 165 163 166 166 168 170 170 170 167 169 173 175 167 167 172 169 155 139 119 112 111 98 79 72 62 59 48 66 77 94 101 110 115 140 151 144 143 147 153 144 147 154 146 141 142 145 167 162 152 156 157 146 137 135 136 137 129 137 146 148 149 161 154 158 162 161 152 157 152 155 167 166 173 171 179 171 174 166 156 151 151 151 153 148 149 146 150 145 148 150 152 165 164 163 167 171 174 171 171 171 171 176 179 175 173 171 171 161 138 123 116 100 100 80 60 61 61 67 71 86 106 110 111 125 130 135 152 137 138 153 154 136 137 148 151 145 147 154 159 162 154 160 157 154 144 146 148 141 142 146 141 149 149 156 144 145 158 154 153 155 154 158 162 170 176 172 178 180 178 182 173 159 148 155 152 150 149 149 149 147 149 149 152 164 164 164 170 176 174 171 174 171 176 178 175 176 177 170 162 144 131 113 98 93 76 66 61 58 73 86 104 104 119 117 125 137 136 137 142 149 147 154 156 130 130 142 148 139 142 152 158 162 155 163 156 153 161 155 154 150 145 133 133 146 147 153 146 143 152 151 154 159 154 163 168 167 169 168 168 179 189 185 190 176 158 157 155 152 147 148 148 149 150 147 152 166 163 168 175 177 177 173 170 174 176 178 176 175 170 157 142 139 124 108 89 71 53 54 68 75 90 98 116 114 119 123 129 139 132 139 150 145 137 145 147 126 131 136 138 137 130 132 146 150 149 159 161 162 162 165 162 163 160 138 130 134 141 145 145 149 146 150 160 156 153 164 166 167 161 161 166 177 187 191 192 188 172 161 157 153 148 149 143 145 148 144 154 165 165 174 175 176 178 172 176 170 173 174 175 160 155 143 142 133 115 92 63 50 50 52 73 95 101 103 104 121 120 125 129 127 129 134 140 127 127 131 129 120 128 127 130 134 127 121 132 139 146 145 155 155 154 152 157 161 161 145 134 126 123 127 129 136 133 142 153 160 156 159 167 163 163 153 167 177 189 194 191 190 181 168 160 155 151 151 143 145 149 148 150 166 170 179 178 179 176 171 168 164 173 159 160 145 144 152 140 114 95 80 58 55 59 76 92 102 113 110 113 120 121 126 133 121 121 126 125 120 116 118 118 111 115 121 121 129 122 121 132 137 139 135 140 146 144 142 146 157 155 156 135 136 126 126 123 127 126 134 128 149 146 154 161 159 152 149 162 169 184 192 195 194 188 175 162 162 158 155 149 149 147 153 149 175 180 179 177 175 172 165 163 158 157 153 146 154 163 143 124 96 77 55 48 67 83 95 98 101 106 113 116 131 123 121 123 119 115 111 124 117 112 107 115 114 116 127 126 127 123 127 129 121 133 127 137 140 145 154 152 158 155 159 142 134 137 133 123 124 115 115 114 133 131 134 158 144 143 146 151 173 172 181 194 206 192 184 174 164 167 161 158 149 150 147 149 181 179 176 172 170 166 165 163 155 160 146 148 156 148 130 112 78 58 45 57 95 110 108 118 109 113 119 123 129 124 127 129 121 119 119 122 108 111 106 114 111 113 131 129 123 120 128 121 114 128 128 135 136 145 145 144 152 147 156 145 136 136 138 127 113 111 115 115 113 126 128 140 139 135 139 145 151 161 174 185 193 193 189 184 166 165 170 162 152 150 147 149 181 177 176 170 170 160 166 167 156 150 154 160 153 146 115 92 66 52 62 77 104 109 111 124 125 128 134 129 133 132 140 138 128 122 121 127 113 117 114 114 109 112 122 123 114 121 118 121 113 127 135 125 125 135 136 138 144 144 142 147 132 136 136 134 128 105 105 106 97 112 111 124 139 144 132 134 140 139 161 172 174 186 186 184 179 168 165 166 156 150 149 147 178 181 175 168 168 167 164 162 149 144 156 151 149 127 96 72 69 61 78 98 118 120 117 138 141 140 134 137 141 130 145 138 130 126 130 128 117 117 120 117 117 118 122 117 116 119 116 111 113 118 119 116 120 120 127 130 133 134 140 140 136 130 132 131 127 125 97 94 101 98 102 117 120 126 129 128 126 136 144 153 159 173 181 184 177 174 161 162 161 153 150 141 179 182 169 168 170 167 162 148 146 149 152 153 137 95 70 69 59 74 102 129 129 132 144 149 138 141 146 152 146 143 145 149 138 137 137 130 118 124 115 122 128 133 129 124 122 122 115 117 115 116 116 116 116 112 118 126 125 125 131 130 130 132 129 133 125 130 117 93 92 93 97 119 114 113 109 123 125 131 138 141 149 161 172 180 177 166 164 161 155 163 152 141 176 175 173 171 171 163 161 152 152 136 140 143 112 71 66 64 74 100 125 136 137 151 150 153 149 166 168 163 160 164 160 157 148 148 145 143 127 128 127 138 141 132 130 136 125 122 126 124 121 125 120 125 122 123 123 127 133 135 134 135 128 135 140 132 131 131 130 116 94 89 90 107 105 106 109 110 127 130 129 140 144 141 164 169 185 174 160 172 157 158 155 145 172 178 175 177 163 168 163 156 147 139 147 122 78 61 72 74 98 120 146 150 167 163 159 161 169 181 185 184 181 178 174 168 166 156 157 153 155 144 146 145 137 132 133 139 140 127 136 132 126 124 117 117 120 123 130 137 138 140 143 150 144 147 151 147 148 138 135 126 109 105 87 106 100 109 106 108 113 132 129 132 142 145 143 166 177 189 167 168 170 160 153 154 165 174 165 169 159 161 158 136 136 133 127 88 63 77 92 90 117 146 166 168 173 172 173 183 191 198 207 205 195 198 192 180 172 162 160 157 153 149 154 144 130 142 137 137 146 137 131 134 133 117 118 116 123 122 119 134 136 136 144 147 143 146 154 153 158 152 153 140 130 118 109 93 97 103 102 106 110 113 128 129 138 141 141 151 168 189 185 174 178 172 158 156 163 164 166 158 148 133 140 127 122 120 105 78 83 97 110 121 141 161 184 176 183 187 192 197 213 222 221 209 203 210 203 182 184 176 169 168 158 157 149 144 137 141 141 141 136 139 134 127 128 127 123 121 124 122 115 127 133 135 138 140 146 149 149 151 154 162 147 150 141 131 122 104 95 100 101 99 107 107 106 133 152 138 149 158 159 168 183 184 191 182 165 160 156 154 158 152 141 135 129 120 113 122 104 81 92 102 126 140 154 177 195 192 206 202 214 214 228 225 226 221 214 214 211 200 190 187 175 176 168 165 154 155 154 148 148 147 146 147 143 141 138 137 132 132 131 123 127 125 132 134 130 136 139 146 150 153 159 158 154 151 145 138 121 114 97 100 99 93 95 104 95 114 150 154 147 153 157 163 169 183 193 190 184 163 150 144 156 153 136 126 117 118 130 129 96 77 92 112 141 149 172 195 198 199 200 208 225 223 228 228 231 218 217 215 213 207 197 192 188 186 176 171 163 163 161 157 161 154 156 155 151 157 148 145 142 139 132 129 131 123 129 132 130 135 136 141 143 156 161 160 156 153 149 144 135 122 118 96 99 95 98 108 102 99 131 152 161 143 150 157 170 180 185 189 197 173 145 149 159 140 130 111 108 127 128 106 76 89 116 130 150 170 188 193 198 206 205 219 236 227 232 237 231 228 220 220 220 213 199 192 195 186 181 175 174 167 163 163 162 159 161 156 152 159 156 147 146 142 138 135 135 128 134 134 130 134 139 136 139 150 158 161 163 157 155 139 148 132 132 110 110 104 101 117 115 104 114 143 149 156 141 151 162 181 182 183 198 192 138 142 151 135 117 101 115 127 106 88 86 104 125 147 171 182 191 186 201 209 212 232 238 219 231 241 225 236 223 222 215 210 200 195 193 188 182 174 181 169 166 167 167 160 162 154 152 155 153 149 144 140 143 139 134 130 134 138 136 137 148 141 150 148 151 153 161 164 158 147 145 137 130 117 114 108 91 108 118 105 110 127 140 142 146 138 152 160 188 186 196 198 144 152 147 132 113 98 118 112 87 96 89 100 132 164 175 182 187 176 201 214 221 226 229 235 235 238 225 229 219 216 208 204 199 191 190 188 179 171 178 171 169 170 172 169 165 161 156 155 158 156 152 148 149 146 141 139 144 146 146 146 152 153 147 149 152 153 155 157 155 147 142 137 131 117 114 103 97 97 114 105 108 116 136 133 133 145 151 155 171 188 204 197 149 157 137 147 110 117 127 104 92 83 81 107 148 159 173 177 168 172 217 221 210 219 231 232 226 226 219 210 205 207 210 196 190 183 184 184 181 175 175 176 168 169 168 168 169 167 171 166 170 162 154 152 151 153 141 141 142 146 150 150 150 153 153 152 151 157 155 158 149 146 134 129 126 128 114 102 95 82 108 107 109 113 132 134 121 147 156 157 167 180 192 201 165 157 158 146 119 134 123 96 80 71 82 109 150 160 172 159 168 192 221 208 207 219 233 221 208 209 202 196 196 195 202 193 189 182 177 180 179 175 172 173 166 164 169 168 170 169 172 167 174 167 159 155 148 145 140 141 138 138 145 144 146 153 156 149 149 156 159 157 152 139 143 128 128 125 122 106 83 87 92 106 104 115 124 130 122 130 145 166 165 180 189 192 174 162 168 141 122 132 114 89 78 56 100 122 156 174 167 159 188 200 209 207 216 212 226 210 197 190 193 186 193 192 196 193 183 178 167 171 170 164 161 164 164 159 164 165 167 164 169 167 171 169 159 156 147 143 136 140 140 139 141 139 142 148 145 146 150 151 160 163 156 143 140 130 132 123 127 104 83 84 85 105 99 99 123 133 116 128 136 165 177 175 201 198 174 164 155 129 118 112 104 76 73 77 118 130 158 169 159 165 188 206 209 219 205 206 207 204 188 189 189 179 180 182 187 179 174 167 162 161 159 155 153 156 161 161 160 161 162 161 161 163 168 160 155 154 143 137 130 132 135 133 138 138 142 142 140 142 149 145 153 156 161 147 144 129 134 127 126 114 82 80 84 96 91 97 112 124 115 114 132 168 180 179 202 198 163 165 144 111 104 99 88 69 72 88 115 122 150 167 165 171 196 210 215 215 195 202 199 194 184 170 171 172 174 171 167 166 162 159 159 152 154 153 151 150 151 154 152 152 161 159 159 157 162 155 151 153 145 139 132 131 133 124 130 139 137 142 139 142 145 151 154 153 153 148 141 135 131 129 131 117 87 88 82 93 100 91 116 128 114 125 128 166 182 180 204 192 176 172 138 104 93 94 82 70 69 94 98 125 154 175 172 178 208 203 203 207 195 199 192 177 157 156 163 171 165 158 163 166 166 164 158 157 156 159 150 152 148 148 146 144 150 148 152 150 152 154 154 148 148 138 133 135 132 129 132 141 144 141 144 145 147 157 158 154 151 151 143 142 132 128 131 125 89 94 94 89 112 101 112 124 116 118 131 163 183 178 204 202 180 157 126 103 83 86 91 72 71 91 101 134 160 181 181 196 194 196 197 195 186 184 171 165 159 160 164 163 158 157 167 175 173 169 169 165 162 158 152 152 146 143 141 135 144 141 143 142 145 145 148 147 141 141 140 139 138 137 140 145 147 148 147 154 155 158 158 152 151 146 143 144 140 131 125 125 93 91 100 105 110 110 114 128 122 115 129 156 176 184 187 207 179 142 129 101 70 86 75 78 70 83 113 138 163 189 186 180 182 191 185 179 175 165 162 164 169 166 168 168 170 173 181 184 185 183 177 177 172 166 156 161 148 139 139 133 132 138 133 133 131 138 136 141 142 141 139 144 140 143 143 144 148 152 156 160 160 157 155 155 154 145 141 140 143 131 138 129 97 97 105 113 112 110 117 135 131 122 136 146 162 173 176 200 166 141 127 90 68 84 64 86 75 106 130 148 175 187 170 172 177 184 177 171 164 164 162 170 173 171 170 174 175 176 175 182 177 175 173 173 174 173 157 158 150 142 137 131 124 129 124 124 131 133 134 144 149 148 153 155 149 147 143 138 144 148 151 155 158 160 157 157 154 151 145 135 140 132 136 134 109 87 116 113 113 118 117 138 137 119 136 133 158 155 169 187 156 129 120 81 75 70 79 80 96 121 132 153 180 177 160 167 182 180 172 166 169 163 173 176 174 169 164 174 170 166 168 173 172 165 160 157 150 156 146 141 135 129 127 126 124 123 128 137 136 135 140 139 136 139 145 144 147 142 136 132 137 136 143 138 140 149 148 156 154 149 148 145 141 141 127 140 123 105 112 120 127 118 122 142 153 129 117 125 143 145 165 182 151 128 114 76 74 69 93 88 94 103 134 162 180 164 151 168 184 179 176 169 168 164 173 163 162 161 164 163 160 157 158 163 161 148 147 140 139 140 136 130 128 125 117 122 128 118 121 126 129 123 131 135 134 135 132 130 133 136 123 122 125 128 127 133 134 137 133 143 147 141 147 150 150 147 141 134 134 119 119 140 131 133 117 149 150 149 121 111 130 145 155 175 149 128 96 67 66 67 89 65 70 102 143 162 175 151 154 170 181 179 176 171 164 167 161 159 159 162 154 148 147 143 134 132 134 130 131 131 133 133 129 123 118 108 115 116 113 112 114 114 123 114 116 124 122 120 120 115 119 114 117 115 116 120 121 121 123 126 130 133 138 135 144 146 153 156 149 132 131 127 125 150 144 139 125 139 160 150 137 109 135 140 152 178 147 122 74 53 50 76 76 70 70 109 143 160 167 156 163 180 177 183 171 166 159 154 153 156 155 152 148 146 148 137 128 131 129 134 130 130 132 128 125 124 118 112 110 114 107 107 108 107 107 103 114 121 118 117 115 113 114 114 114 112 116 116 115 114 117 122 126 130 133 137 145 148 153 155 157 145 134 126 134 135 154 142 128 142 161 145 131 115 132 130 158 183 152 115 62 38 64 79 61 84 69 106 140 167 173 155 165 180 177 171 167 166 152 149 161 158 151 152 151 151 146 141 128 125 127 127 123 125 126 124 126 123 122 119 114 113 108 112 116 112 111 111 114 119 121 118 115 110 111 109 109 108 110 109 112 113 109 121 124 128 134 139 144 152 165 161 155 145 133 134 137 144 159 142 135 125 163 150 130 115 126 128 159 190 159 108 58 48 68 68 47 99 75 113 144 157 161 154 168 179 176 171 177 170 153 154 154 157 140 145 141 135 140 136 132 127 124 124 123 123 127 127 126 127 125 127 121 116 115 114 121 118 117 114 111 113 114 111 109 108 103 104 104 102 104 107 107 112 109 119 125 129 139 143 150 156 177 176 169 160 130 127 132 141 151 156 139 151 146 151 133 113 129 142 159 186 167 122 72 68 70 60 62 97 87 109 130 143 153 158 156 169 158 148 155 156 157 154 154 151 141 139 135 134 136 135 129 126 125 124 120 125 127 127 126 128 125 124 118 111 110 112 118 116 114 111 106 108 106 104 104 102 102 102 102 102 103 104 106 110 107 107 110 118 127 132 148 156 162 170 176 177 145 126 135 135 129 136 144 153 160 144 128 123 134 152 170 184 170 152 94 71 81 77 78 94 102 101 130 138 150 146 139 147 151 147 157 160 157 150 148 143 131 134 128 130 127 129 126 123 125 124 124 124 129 127 129 131 124 123 115 109 108 111 118 113 111 107 102 104 102 103 101 102 100 101 102 105 105 110 110 111 116 111 117 118 128 128 142 151 153 159 161 187 165 131 137 138 130 130 141 143 147 152 129 133 141 158 171 195 182 184 110 98 84 93 94 88 90 109 135 117 139 125 129 125 146 141 150 162 157 154 147 133 130 132 133 134 139 143 136 139 137 137 141 139 142 136 135 134 126 116 114 106 99 97 108 113 108 103 102 101 98 101 96 99 101 102 103 108 108 111 104 107 116 112 124 121 132 141 140 158 159 171 162 176 174 140 136 140 124 118 133 142 127 142 143 138 161 166 167 210 202 185 144 124 107 120 89 96 97 99 119 103 131 115 115 123 144 143 151 172 174 164 158 148 142 132 134 132 134 139 140 133 132 136 141 142 138 137 136 134 129 121 123 110 108 104 108 109 107 102 99 97 96 92 90 93 93 97 94 100 102 100 100 92 100 106 113 119 121 134 151 159 166 175 176 182 180 141 129 141 125 128 121 143 131 131 157 156 177 186 181 222 192 184 161 131 121 116 100 117 101 91 97 101 118 128 128 122 142 155 167 164 151 151 134 127 125 126 131 123 121 126 123 122 118 125 125 129 134 132 130 132 126 118 124 110 110 113 119 112 109 101 95 100 100 93 93 95 94 97 94 94 94 92 91 89 100 109 118 130 126 128 149 163 168 184 192 177 182 143 133 124 116 134 139 117 146 156 159 160 180 199 177 226 190 180 198 159 125 125 107 123 99 78 74 93 106 136 133 116 150 158 162 146 135 134 132 128 123 122 125 122 117 124 137 141 133 138 140 129 134 134 130 135 128 119 124 118 114 121 124 118 112 105 103 105 104 102 105 103 106 99 107 104 96 91 95 94 97 103 121 134 137 127 147 161 165 183 196 184 170 151 127 129 102 111 137 147 165 142 134 160 190 199 188 225 192 177 209 173 134 138 121 129 110 88 63 67 107 134 131 130 153 160 145 144 141 143 138 128 122 116 125 127 132 139 135 137 142 132 147 132 136 125 119 127 123 112 123 125 124 125 127 128 124 117 103 100 99 100 95 100 94 102 99 107 100 91 92 106 108 118 132 141 140 134 146 160 171 185 193 187 170 163 121 124 121 120 123 154 196 157 115 160 183 202 209 220 198 183 232 181 154 165 140 127 121 99 59 67 104 112 126 116 136 144 131 153 156 143 140 138 138 134 143 134 139 140 135 143 138 126 137 122 122 111 117 111 101 109 122 121 120 123 126 123 132 125 115 103 114 116 117 113 109 116 107 126 118 110 116 109 105 114 125 137 145 150 144 153 171 181 192 190 179 157 113 110 126 126 134 153 210 152 114 166 192 212 217 220 213 194 228 199 202 197 163 144 131 117 79 102 124 112 113 100 111 110 115 137 153 150 146 166 153 150 154 151 146 146 143 146 142 143 124 117 97 93 94 87 87 100 116 124 128 133 128 124 128 129 120 105 111 120 122 132 122 115 115 119 119 127 134 114 109 113 125 132 131 135 144 146 153 173 184 187 188 166 128 113 117 129 121 140 198 147 116 187 180 199 200 236 224 191 222 209 216 211 188 177 147 122 90 118 142 125 101 92 98 91 124 120 136 148 164 173 187 170 195 178 160 158 161 157 156 147 112 103 95 89 93 84 96 109 122 117 130 149 131 122 124 125 122 101 103 121 135 137 129 124 125 119 113 117 135 129 134 130 138 146 146 151 141 159 151 158 175 175 186 171 144 128 134 122 124 125 186 168 160 182 178 176 191 222 223 181 208 216 210 212 203 178 151 131 99 113 132 121 94 83 103 104 136 132 152 164 177 201 222 232 235 218 195 193 176 174 138 140 121 130 107 123 131 115 114 122 127 122 151 157 156 150 134 132 139 126 104 114 128 138 137 139 143 130 125 133 137 144 115 134 142 145 145 160 150 163 155 154 159 173 182 165 153 135 132 150 159 147 191 182 173 157 167 190 183 217 207 186 190 211 205 204 199 172 159 156 127 136 134 124 108 94 105 136 153 153 171 157 176 205 209 218 218 211 194 193 181 173 140 137 138 156 133 160 152 134 131 127 136 135 165 177 171 162 156 148 148 147 132 126 136 136 142 156 149 144 128 146 154 154 139 140 148 136 152 163 150 141 151 163 162 171 188 157 135 128 133 153 187 157 201 187 182 152 153 178 187 204 197 191 171 209 209 188 182 173 162 170 155 154 147 142 105 108 115 157 178 186 181 186 198 191 189 177 199 193 182 192 180 165 154 156 170 162 146 156 158 150 156 153 149 151 180 181 174 165 168 161 158 163 153 131 144 141 167 170 158 153 122 149 170 156 150 143 146 137 150 164 163 142 140 158 180 187 199 177 137 152 145 168 210 164 202 188 178 156 161 167 183 197 204 202 176 200 223 171 165 168 151 144 154 141 138 152 111 109 113 173 181 190 203 210 201 191 180 181 190 189 188 182 170 153 159 163 178 152 156 155 166 150 157 148 137 165 180 180 167 168 165 170 166 155 164 141 141 137 149 164 167 169 148 159 180 176 163 144 162 163 155 172 169 166 160 165 194 193 208 202 148 165 147 174 191 169 189 161 179 154 165 171 171 192 201 201 184 193 234 185 159 159 135 142 126 134 145 150 133 120 153 182 191 217 189 208 189 198 183 183 190 191 179 173 168 151 159 172 172 153 166 164 152 133 133 127 125 155 169 177 174 166 171 173 173 152 172 160 154 136 140 156 151 165 157 157 167 168 157 150 158 169 163 169 183 178 179 185 202 197 202 211 167 155 142 158 173 170 192 154 168 151 145 165 160 184 186 169 171 171 219 190 148 150 136 135 133 110 146 145 134 126 166 172 184 187 181 190 194 185 182 182 172 175 184 174 155 161 152 174 169 161 152 169 143 148 127 123 147 154 161 171 175 157 157 153 168 174 177 161 152 143 136 148 155 156 154 163 154 177 170 177 171 178 179 182 185 198 183 182 190 202 190 202 180 153 142 159 153 171 183 145 141 125 120 154 157 172 168 154 129 148 220 184 147 128 129 133 143 105 146 158 140 145 151 178 186 161 164 176 164 174 161 159 167 178 183 193 159 157 155 164 162 152 151 141 129 140 137 134 162 165 144 156 163 160 157 144 142 165 167 166 158 142 128 139 148 143 139 148 151 158 176 176 169 192 191 194 194 189 176 182 191 196 192 201 186 153 146 150 135 172 159 144 115 104 102 141 164 162 167 154 115 156 216 176 134 126 110 134 126 120 127 161 137 125 146 162 179 167 153 164 162 164 160 172 191 196 192 160 134 132 141 134 145 136 137 112 123 135 145 123 156 154 144 149 156 163 156 156 127 149 163 170 164 144 129 118 133 140 138 131 144 145 171 167 178 187 195 192 195 180 177 178 185 191 192 191 167 146 149 141 148 186 169 150 106 108 100 129 161 164 176 146 127 163 195 167 125 117 88 118 109 112 133 148 123 113 124 135 153 157 136 152 151 157 166 173 181 180 166 134 113 124 132 131 137 130 103 113 112 136 138 126 152 143 145 157 159 156 148 160 147 143 164 179 185 167 124 131 114 118 138 119 120 150 165 171 176 182 190 185 177 168 167 170 176 178 177 162 156 150 137 136 145 185 162 137 140 104 95 125 152 170 165 138 132 175 183 155 118 114 69 103 123 99 124 131 107 108 124 128 128 136 131 140 152 157 143 150 150 161 141 118 95 98 112 111 112 110 100 95 107 130 116 139 146 156 145 154 151 136 127 154 157 142 162 160 174 181 134 120 125 110 117 115 107 127 134 155 170 169 180 175 164 147 150 152 157 157 164 161 163 142 131 144 149 175 142 146 172 119 96 137 137 165 174 127 120 178 166 121 82 98 66 99 134 99 119 128 109 104 120 125 112 128 122 115 132 139 135 132 130 128 115 102 87 85 92 89 96 98 101 73 98 128 133 143 151 155 151 158 145 128 129 145 146 153 155 147 158 186 165 141 144 141 109 116 96 106 124 133 147 148 152 144 139 139 151 150 158 160 175 168 154 148 137 150 160 154 141 165 165 112 105 137 127 168 182 120 101 160 117 84 39 83 76 97 147 103 106 125 110 99 110 123 118 126 111 113 120 138 136 133 127 119 103 89 83 79 83 80 88 95 91 79 107 129 129 143 153 146 147 142 129 121 120 146 151 148 157 135 142 147 144 135 139 145 128 120 113 102 108 113 116 124 135 129 125 135 145 139 149 156 168 155 149 149 151 179 169 159 132 161 136 105 106 129 120 172 192 111 102 148 107 49 23 55 65 100 126 103 108 117 112 111 114 121 137 134 130 125 129 139 146 142 126 106 94 86 84 86 84 87 89 98 101 97 108 120 136 145 148 132 140 130 128 131 135 145 150 147 152 141 137 138 133 129 117 121 107 109 112 111 119 118 120 126 138 133 133 140 146 155 157 172 168 151 154 153 168 197 175 155 167 160 140 99 112 119 125 171 194 103 107 138 127 49 26 67 75 101 110 99 110 120 123 115 118 125 124 124 129 122 117 121 125 134 122 105 97 95 92 83 87 97 91 100 99 100 106 124 135 151 141 134 141 131 129 140 144 145 147 144 147 158 153 156 143 136 129 112 105 109 112 109 117 131 134 134 142 138 143 142 139 154 155 169 166 155 148 164 178 195 170 189 179 160 168 105 124 103 135 171 197 90 114 135 128 63 29 62 82 111 121 91 97 126 135 127 125 124 132 138 125 123 124 112 117 130 121 111 109 105 105 99 101 101 87 95 100 102 125 137 132 137 144 147 143 141 138 132 150 151 145 134 138 147 154 151 130 133 136 106 97 109 113 115 118 121 139 142 143 148 152 148 145 152 161 171 169 155 139 167 188 192 182 210 181 176 183 129 116 101 133 163 211 82 81 129 99 60 42 73 102 117 131 101 103 111 127 117 113 119 118 132 125 124 123 126 131 132 115 97 95 95 90 83 90 94 82 89 91 94 119 118 133 147 161 151 137 132 131 134 132 136 148 133 123 134 150 143 133 130 132 111 101 99 110 119 128 135 131 138 146 150 142 151 143 147 164 172 167 146 146 178 176 185 191 211 178 177 186 151 108 99 141 158 211 107 59 111 54 58 56 73 99 114 133 110 109 106 123 117 117 110 112 121 116 119 117 125 133 140 124 113 94 92 74 69 78 84 78 76 76 90 110 118 125 147 156 149 135 125 132 128 126 119 125 117 112 111 132 139 132 117 121 105 104 95 96 113 120 131 134 138 130 131 135 136 139 137 155 157 150 136 143 179 181 185 191 216 174 178 188 168 100 114 158 159 199 146 63 96 45 29 55 55 88 107 125 109 123 112 120 116 117 114 118 121 115 118 116 123 126 122 106 88 84 78 67 62 74 79 76 69 86 115 123 127 125 132 136 136 129 126 128 121 124 123 111 104 92 91 101 89 91 98 100 101 79 88 85 90 106 118 126 135 135 124 133 130 135 137 148 152 157 148 156 183 193 188 180 185 170 171 190 158 110 137 154 165 188 156 67 100 47 24 44 40 88 108 124 119 130 115 116 118 122 122 123 124 120 121 115 120 122 113 101 81 78 71 64 65 63 69 71 77 103 123 135 135 130 131 133 127 124 133 122 116 116 123 120 100 98 101 101 91 81 86 86 89 74 77 79 85 97 98 107 118 126 127 140 143 140 146 155 153 159 144 147 180 191 176 160 174 145 161 189 150 141 152 161 169 155 159 59 71 65 17 46 24 74 113 111 128 143 123 125 119 126 123 131 127 125 124 123 117 115 113 98 83 81 73 66 62 58 66 78 90 111 131 135 134 127 131 132 127 123 127 126 117 112 110 115 106 103 111 106 106 97 90 94 96 86 83 81 80 93 91 101 112 111 118 126 131 141 144 149 151 160 155 149 180 187 169 160 168 138 169 184 149 170 156 161 164 128 158 60 50 54 23 45 37 55 94 120 132 139 129 126 121 128 133 137 131 130 120 126 125 115 110 99 91 85 82 75 64 59 65 79 97 114 126 126 129 128 133 128 120 123 124 122 116 114 103 113 109 107 123 122 123 127 106 118 109 105 91 92 89 99 96 106 114 118 124 131 134 146 148 150 153 159 158 153 168 189 177 175 165 143 171 177 165 191 152 165 157 120 166 72 30 29 8 32 51 61 73 114 135 146 139 129 125 128 137 134 133 126 117 116 127 114 99 95 89 97 90 85 83 78 76 87 111 123 123 124 121 130 130 121 111 110 114 112 109 109 110 104 102 102 117 123 121 124 128 133 130 126 115 101 94 99 103 113 120 128 130 133 132 145 148 145 152 164 164 150 161 170 178 162 162 148 169 177 190 193 159 164 161 126 147 109 17 17 1 24 45 77 85 103 137 153 140 130 129 129 135 128 125 118 120 116 125 108 93 90 95 101 98 94 99 102 104 113 119 116 125 133 126 138 134 116 113 104 102 102 93 89 105 104 94 104 106 117 121 124 127 124 130 127 119 103 101 96 105 105 114 132 129 134 131 143 146 145 156 164 161 150 170 178 178 161 163 162 171 176 191 197 162 163 166 139 124 129 45 20 17 0 32 64 94 102 139 155 144 136 142 136 132 122 117 112 115 116 111 95 89 88 102 104 108 104 113 118 135 138 126 130 133 144 142 146 148 131 119 114 106 105 93 88 111 116 104 108 110 118 134 139 137 132 131 125 121 103 106 109 116 110 116 129 128 134 138 138 139 142 162 166 163 154 182 183 169 162 165 177 189 190 199 202 160 161 167 146 119 115 90 29 31 14 25 54 83 108 127 152 158 142 145 137 128 119 112 104 110 102 101 91 87 90 105 111 117 112 119 136 146 142 136 144 145 148 157 152 154 140 124 119 111 119 109 109 120 124 116 116 118 125 141 151 148 137 136 124 118 114 111 111 111 114 119 129 132 132 134 136 134 143 160 162 168 163 178 170 160 168 170 199 202 195 198 196 166 158 165 168 124 112 125 50 47 40 32 55 67 116 137 137 144 141 139 142 125 112 104 93 97 90 87 90 98 95 107 114 120 117 128 153 152 146 150 156 152 155 161 154 148 138 125 115 115 125 122 120 121 129 132 124 125 124 138 152 148 141 138 135 126 123 120 115 114 121 124 128 130 133 135 132 136 145 157 165 167 170 167 156 161 169 184 225 226 204 200 199 158 157 161 170 139 122 141 84 51 44 26 51 63 111 142 140 142 139 140 142 123 104 102 95 92 88 83 88 103 103 112 117 119 129 146 152 148 151 156 156 162 158 161 156 156 149 143 133 126 133 133 136 130 130 133 135 133 122 142 148 140 137 136 136 130 134 129 119 114 121 126 136 131 136 133 137 139 146 159 162 169 180 171 164 160 184 208 247 237 199 205 191 151 156 153 165 153 129 150 108 91 44 26 48 76 128 132 136 144 149 145 149 127 106 107 103 91 97 87 93 98 106 116 122 129 141 153 144 141 146 144 147 154 157 164 160 156 166 168 158 149 153 152 147 142 142 136 135 134 132 145 146 135 136 140 133 131 128 127 125 128 124 124 142 136 133 142 144 143 150 161 160 173 184 180 185 179 195 234 255 225 202 199 172 145 157 161 163 154 147 140 138 107 81 65 58 93 139 132 120 141 153 144 145 122 109 105 101 94 98 93 98 98 109 115 130 138 144 150 146 140 133 129 134 154 158 163 159 165 175 179 169 162 162 164 163 151 140 135 128 130 139 138 137 128 128 135 135 135 131 130 126 140 137 127 137 143 140 148 153 150 157 158 161 171 181 173 182 192 200 235 247 229 214 190 152 139 156 165 144 156 154 139 148 124 102 97 81 104 156 144 130 151 148 158 139 120 106 101 103 98 100 95 98 97 105 116 134 130 139 134 133 134 118 123 128 138 149 146 144 152 164 174 153 147 144 143 138 127 121 122 119 117 125 133 130 118 121 121 127 125 124 128 126 141 143 135 133 149 146 151 162 153 164 160 164 169 171 163 177 185 211 227 225 229 205 167 147 144 155 169 136 152 158 145 148 144 112 113 99 116 170 160 143 154 151 152 143 116 97 93 102 98 97 96 93 96 105 114 117 113 116 115 112 112 101 105 110 119 127 136 131 132 131 146 141 137 141 140 135 128 119 114 116 113 114 113 117 116 115 112 107 110 108 123 125 127 145 140 130 144 149 157 165 163 163 163 161 165 159 153 173 180 215 226 209 208 186 150 146 153 153 173 148 155 155 147 155 140 135 110 119 131 160 170 147 153 151 151 133 106 99 95 98 94 92 90 96 97 112 110 97 92 96 91 92 98 87 84 99 116 127 142 130 134 127 127 133 123 131 128 115 117 118 108 115 114 111 112 109 103 105 112 102 90 97 110 113 116 130 146 141 148 159 155 171 171 162 163 167 159 160 154 175 179 214 212 189 184 162 147 142 158 162 164 159 164 156 153 162 147 126 123 125 135 143 154 133 144 152 149 133 109 101 100 91 95 97 93 100 109 110 100 85 74 88 78 76 86 88 87 93 112 122 133 123 132 123 117 117 105 118 115 113 118 119 110 124 127 127 114 110 102 104 114 111 101 102 104 109 117 124 146 150 161 162 170 175 177 169 165 171 156 165 162 176 174 201 185 169 175 164 151 143 157 167 160 168 173 160 162 167 156 137 127 122 132 136 143 132 145 150 149 133 103 105 99 95 99 97 95 93 104 105 102 95 88 94 84 70 82 85 95 99 109 118 134 121 121 124 121 113 115 127 123 134 130 124 117 132 142 147 121 117 119 114 119 131 121 113 115 116 130 131 152 154 160 166 171 174 184 167 172 174 160 169 162 171 175 190 177 179 168 168 145 143 158 164 162 168 165 171 172 162 162 145 134 124 126 137 132 126 137 154 152 133 108 100 101 102 112 106 108 104 109 113 110 107 97 98 94 84 94 99 106 113 124 134 148 152 150 160 165 151 150 160 163 165 162 151 138 152 158 159 133 126 132 129 136 149 146 132 138 139 156 146 160 164 167 166 168 179 189 174 171 178 159 168 163 175 179 185 182 173 168 163 143 147 153 167 162 162 171 169 170 158 172 152 133 127 134 134 121 134 132 147 152 133 121 112 110 118 123 117 118 125 122 124 124 123 108 114 105 100 106 134 122 129 141 155 162 169 181 189 192 192 171 179 181 182 176 166 151 150 158 157 148 137 134 143 142 150 151 141 146 148 162 158 164 165 172 172 168 181 185 174 171 171 162 169 159 174 167 179 183 163 167 165 140 142 151 162 164 160 167 165 168 161 176 155 134 125 127 139 127 130 139 145 150 139 126 126 128 124 128 126 127 139 137 146 135 134 132 132 136 129 143 150 160 160 151 152 167 169 186 188 200 204 188 192 187 198 193 168 162 151 153 156 155 149 143 152 155 158 147 142 145 153 160 156 165 163 176 172 168 178 180 172 184 174 165 166 154 172 164 175 186 168 163 162 142 147 147 151 167 163 158 158 167 171 174 143 148 128 125 136 133 141 142 143 150 148 130 144 140 130 144 139 138 147 150 158 144 147 144 132 140 153 160 159 178 187 182 188 171 177 185 197 196 201 189 180 179 180 173 163 161 153 154 152 159 160 153 166 165 167 166 161 146 149 142 143 143 158 166 163 164 179 170 171 175 164 173 164 157 175 161 177 177 178 160 156 149 144 145 148 158 165 160 159 171 186 169 159 157 125 120 140 145 145 141 147 145 146 138 147 142 139 145 141 141 144 143 149 135 137 138 132 130 134 130 141 167 171 169 182 162 169 172 175 172 166 146 148 153 148 147 139 143 141 139 144 159 159 161 167 170 165 163 151 142 140 139 145 144 154 156 159 159 173 164 172 169 155 172 163 160 175 163 173 176 173 165 161 156 149 146 153 152 165 164 169 173 181 186 172 163 123 114 141 154 155 144 149 142 148 133 141 141 143 145 139 144 141 144 144 134 139 133 122 115 121 122 136 151 170 164 176 160 166 151 151 150 157 146 143 136 139 131 131 128 132 136 134 130 139 154 160 160 159 160 154 144 142 136 146 136 147 154 155 155 166 156 169 157 145 169 158 165 168 166 183 179 169 164 171 156 156 153 151 158 164 171 173 174 195 201 171 157 128 115 131 151 159 153 151 143 149 143 129 152 145 143 139 147 139 145 149 138 140 137 124 111 119 118 122 133 143 148 154 148 158 142 136 143 146 152 139 142 149 147 137 143 143 145 130 133 134 141 154 157 157 157 149 145 148 139 142 145 150 151 153 160 164 153 168 141 149 163 153 170 163 172 187 182 165 168 172 163 161 155 155 153 176 172 173 192 207 195 175 158 136 124 125 150 163 160 151 146 146 146 131 145 143 136 130 138 139 136 139 138 135 128 108 105 112 118 117 126 133 130 133 130 144 134 130 129 134 147 144 127 140 139 141 142 153 145 144 145 144 152 157 157 155 149 147 145 142 144 153 149 154 151 156 158 163 154 160 127 150 148 154 166 165 182 186 185 161 177 175 170 162 161 158 155 184 173 179 210 209 199 180 165 145 124 127 145 161 172 150 144 140 139 132 135 147 136 132 145 137 139 137 126 116 105 95 97 100 101 106 119 129 134 135 138 148 143 151 152 154 159 150 143 140 130 136 143 149 152 155 161 156 165 166 171 156 155 151 143 140 146 149 146 153 149 155 159 156 151 144 108 143 142 162 154 177 184 188 176 169 178 175 165 159 159 163 168 177 173 204 219 214 201 179 171 158 129 134 148 162 169 154 137 131 134 128 124 146 153 144 150 145 144 139 131 114 105 102 104 107 106 116 122 127 132 138 152 151 155 161 161 161 169 162 153 148 140 137 150 148 152 155 161 156 159 160 161 154 156 142 141 142 143 140 146 153 149 147 162 141 146 133 118 131 147 163 149 183 189 189 175 182 179 169 168 160 156 164 169 178 202 224 226 217 199 185 183 180 149 148 156 161 167 154 143 125 129 130 128 141 159 161 153 154 149 145 133 124 118 111 114 121 126 131 129 149 156 163 165 164 170 160 157 157 166 167 176 160 160 158 152 152 153 158 163 160 153 147 156 150 143 134 137 141 137 139 150 155 147 150 153 135 139 106 115 128 149 144 162 177 193 197 190 182 181 164 173 164 153 161 171 202 228 229 227 219 200 201 194 195 167 147 162 151 166 152 140 131 124 132 132 129 162 163 162 158 154 150 138 130 123 118 130 129 123 122 141 159 175 185 185 185 185 186 175 169 170 173 172 170 171 171 167 162 156 159 162 151 151 145 145 138 132 135 139 138 137 137 151 154 145 151 143 133 125 95 98 112 144 133 163 168 176 195 197 170 165 156 159 159 155 157 161 208 212 212 207 206 195 200 193 196 171 146 157 146 154 147 147 144 136 134 136 132 157 177 166 158 158 158 150 138 127 124 127 126 126 127 151 167 180 188 184 184 182 188 178 175 169 168 167 170 170 170 167 162 157 157 155 151 149 146 134 132 129 128 134 133 133 141 154 151 146 142 136 135 104 89 86 104 123 132 135 142 150 162 173 152 137 125 136 131 128 127 137 205 205 206 203 200 201 193 187 178 172 148 145 145 145 137 152 151 144 142 143 133 166 177 181 166 166 154 162 144 139 130 124 134 135 139 154 165 176 189 189 188 177 179 176 170 169 166 168 169 166 167 167 162 162 159 155 149 146 136 131 128 131 120 124 129 136 139 150 154 137 135 136 124 101 80 81 91 113 141 137 130 146 143 161 148 123 106 109 102 96 98 100 175 171 165 173 166 177 170 160 156 153 143 127 143 142 136 145 165 144 146 155 140 169 184 183 181 170 171 166 156 146 136 137 144 145 151 163 172 175 193 195 192 185 184 177 170 172 169 166 162 162 159 164 163 166 165 155 150 148 134 131 128 130 119 120 127 135 139 151 144 133 127 140 119 109 79 75 84 106 134 135 133 147 143 150 151 137 111 108 103 105 97 98 164 163 165 165 154 164 145 138 138 135 141 123 136 148 135 137 160 154 147 162 148 169 175 185 183 172 182 165 167 147 141 139 147 150 158 169 169 181 185 190 190 187 185 180 171 169 170 166 160 159 155 156 157 160 161 155 148 141 132 130 126 120 121 119 124 134 145 145 137 130 133 130 116 117 83 63 90 109 121 124 127 157 152 146 146 145 126 113 100 103 108 101 156 164 172 170 155 162 140 134 127 146 112 116 149 154 133 130 148 157 154 162 155 165 173 188 181 178 175 171 160 157 143 143 145 146 144 146 155 154 159 162 162 158 160 161 154 153 155 155 153 150 150 151 152 155 150 143 144 131 125 118 117 114 118 121 130 140 148 142 131 132 140 127 117 112 95 68 91 113 116 116 129 167 157 147 145 146 134 116 97 94 110 105 149 167 168 168 156 162 149 144 116 128 110 98 151 153 138 127 145 146 153 161 169 168 171 189 187 177 178 170 162 157 147 139 133 129 134 131 137 135 135 136 139 134 132 135 132 135 138 135 134 138 135 140 141 139 136 138 137 126 118 110 111 115 116 132 136 145 146 144 135 134 145 125 112 112 91 86 98 108 115 120 127 164 150 140 139 141 138 128 106 96 103 100 154 160 168 159 166 164 162 152 115 98 96 111 125 153 136 108 146 152 143 170 161 163 165 187 188 186 172 169 160 159 146 133 130 128 123 120 119 116 116 121 122 121 119 121 121 121 129 124 128 132 128 128 127 130 128 128 125 112 112 107 109 116 125 139 141 143 149 144 139 150 150 110 97 110 79 104 112 106 104 118 134 150 154 133 125 139 137 129 119 111 113 109 158 159 159 164 171 156 169 155 102 97 94 108 124 109 112 111 116 142 151 158 155 157 161 184 198 190 177 164 155 154 138 129 129 124 113 109 107 99 104 109 107 110 108 114 119 115 124 122 125 126 126 122 126 126 128 123 117 112 112 112 111 119 133 140 140 141 149 148 147 152 147 91 105 83 76 106 143 106 103 120 134 155 157 139 126 136 141 128 120 120 117 125 162 158 154 159 173 155 181 157 97 103 108 116 119 83 91 103 85 126 157 146 146 155 156 176 203 196 179 174 158 147 141 137 124 121 114 103 93 90 94 98 94 96 98 102 104 104 111 112 115 119 122 122 124 123 122 121 112 107 115 117 118 130 141 142 141 145 151 158 143 139 133 94 89 64 87 108 144 108 114 126 137 155 162 142 130 136 138 128 117 129 113 122 158 150 132 157 176 155 208 163 105 109 121 129 83 98 81 67 73 116 147 147 145 146 155 164 186 199 190 181 169 154 140 141 124 120 111 103 90 84 87 87 91 85 88 92 98 102 102 104 110 113 121 120 118 119 122 118 112 111 118 128 128 138 150 146 148 159 159 153 144 134 129 99 88 54 90 124 139 114 111 138 132 156 160 143 133 128 133 125 110 119 117 110 152 136 128 172 179 180 227 153 110 119 132 120 92 90 68 53 50 97 130 123 144 144 152 162 169 187 196 189 178 162 157 146 130 120 112 107 94 91 85 85 87 83 81 82 87 95 100 105 104 109 115 121 115 116 119 117 116 119 124 137 146 148 156 157 160 169 161 152 140 125 122 103 79 50 93 115 137 123 119 145 137 148 158 148 141 125 123 121 118 109 108 103 157 134 146 194 186 196 223 155 123 124 141 144 109 65 57 41 42 81 112 100 124 150 145 157 167 174 189 198 189 174 165 156 147 136 119 109 101 101 90 92 95 90 89 86 90 95 98 98 105 106 113 120 118 120 120 122 115 127 139 152 158 163 163 165 166 167 164 155 125 105 119 92 65 42 81 115 150 133 134 142 144 144 156 150 134 123 118 122 123 115 117 117 159 135 165 193 181 195 215 180 155 124 165 145 110 57 45 36 39 78 99 79 108 143 148 141 167 169 179 189 195 194 182 175 165 158 144 130 117 110 105 102 105 101 97 98 99 98 102 99 106 109 117 120 118 122 124 129 132 143 162 170 176 174 169 165 169 173 174 151 116 106 106 82 54 39 67 99 153 151 158 151 145 147 159 159 137 122 121 125 133 132 141 146 161 142 173 189 185 210 226 200 163 148 175 142 104 47 50 45 47 70 93 69 78 103 131 139 156 164 168 182 189 198 198 199 188 182 170 163 150 140 125 122 116 117 118 118 114 113 116 116 116 118 126 126 133 137 144 150 156 176 183 178 175 170 165 164 175 173 167 140 114 103 83 67 55 51 49 95 153 162 180 176 152 144 156 163 138 114 108 121 138 149 139 148 153 144 178 192 199 224 240 187 168 178 165 133 92 49 63 67 58 65 87 76 63 62 101 120 149 163 164 177 184 193 198 206 205 205 198 190 189 180 166 156 147 143 143 144 136 137 134 136 136 145 141 150 156 160 163 171 181 180 176 170 164 161 168 171 175 175 160 131 117 118 68 46 57 39 60 95 149 177 185 195 179 150 156 164 141 120 98 114 133 150 143 136 164 165 200 214 220 224 203 176 175 167 143 133 76 65 82 86 62 73 85 71 53 52 62 86 120 146 160 170 178 188 195 201 209 210 209 205 205 203 196 186 184 181 170 167 164 154 157 152 153 161 164 165 165 168 179 185 183 173 171 164 163 158 170 173 177 173 150 120 119 121 50 43 51 34 60 83 147 182 187 198 196 174 175 158 144 125 111 113 142 152 145 136 180 177 206 213 194 192 197 169 154 134 139 123 84 76 73 92 69 79 81 75 47 51 48 60 77 119 143 157 174 183 191 198 205 209 212 212 209 207 201 199 199 192 186 177 171 163 163 165 168 171 172 166 173 182 183 180 174 170 162 163 163 167 170 174 181 160 137 113 120 107 50 54 29 50 59 77 147 171 181 195 202 194 205 178 146 138 120 109 134 157 157 129 