P2
92
112
255
42 41 42 41 40 40 36 37 38 36 37 35 34 36 36 32 30 26 20 15 16 13 8 6 9 3 0 1 5 5 9 19 20 13 15 14 13 20 19 16 13 22 17 17 19 19 23 25 23 29 34 39 36 40 39 32 29 36 32 32 33 27 22 27 24 23 25 30 25 21 15 18 16 19 23 23 25 27 29 29 30 31 32 32 32 32 31 32 32 31 32 34 42 41 42 41 41 39 37 37 36 37 34 33 36 34 31 30 26 24 18 16 15 12 8 8 7 5 2 6 9 10 12 15 21 14 14 14 15 19 18 19 25 29 32 30 28 30 29 24 28 34 38 42 43 40 44 38 34 40 40 37 41 30 33 27 23 23 23 23 24 23 19 14 15 17 18 21 24 25 28 29 30 31 30 31 31 33 32 32 33 32 31 32 43 41 42 40 40 39 37 37 36 35 35 31 32 33 29 29 29 21 20 16 15 13 14 12 11 10 10 12 11 15 15 14 17 17 19 20 21 24 28 27 29 35 37 36 36 40 40 36 35 39 37 39 43 41 42 47 42 45 41 41 41 37 35 37 28 29 31 23 23 19 14 15 10 14 14 21 22 23 26 30 32 30 32 29 33 32 32 33 33 33 33 31 41 41 42 39 38 39 38 38 36 33 32 30 31 32 28 29 26 17 22 20 21 18 22 16 15 12 12 10 12 12 17 18 16 22 22 27 33 30 37 35 35 36 43 40 38 41 44 45 34 35 39 38 35 34 38 46 42 43 38 39 39 34 38 42 35 36 34 31 28 25 12 11 11 9 12 19 22 21 26 27 31 30 31 30 32 31 33 33 32 33 33 34 42 41 41 39 38 38 38 36 36 33 31 29 31 29 28 22 19 17 22 24 24 24 26 24 16 16 14 11 10 12 20 21 30 29 35 35 33 40 49 48 44 46 49 49 45 54 54 54 55 48 47 53 48 38 42 43 48 38 41 41 41 36 47 42 45 40 35 37 36 26 19 17 13 9 12 13 16 19 19 23 27 29 30 31 32 32 31 32 32 34 33 34 43 41 41 39 41 39 36 33 31 29 26 25 30 26 22 21 17 19 24 21 25 27 25 23 20 17 15 14 16 24 31 34 40 44 43 52 50 52 57 61 58 55 56 58 61 62 65 64 64 61 58 58 55 54 47 45 53 49 52 51 50 55 57 53 53 53 49 42 46 38 30 28 20 16 13 9 12 18 16 18 21 26 28 30 31 31 33 33 34 33 34 34 42 41 40 41 40 38 33 30 27 24 28 25 28 23 21 20 22 26 32 29 32 26 21 23 17 18 23 27 31 35 39 44 48 53 57 62 63 61 66 69 71 69 72 71 71 67 67 72 70 64 68 63 59 59 56 54 56 58 63 59 62 62 64 65 62 64 62 61 58 46 42 37 28 22 18 12 8 13 13 17 16 22 26 27 29 31 31 35 33 34 34 35 40 42 41 42 39 34 28 30 25 25 25 26 29 24 21 22 31 31 33 30 28 20 20 19 16 22 34 41 46 47 51 58 65 67 69 74 74 75 78 78 76 78 78 84 81 77 73 77 79 75 73 71 69 63 64 67 58 63 61 65 66 65 70 68 70 72 73 81 73 54 49 47 40 33 27 21 14 11 9 13 18 22 21 26 30 31 31 33 33 34 34 35 41 41 42 39 35 31 28 24 25 24 23 30 24 21 25 30 37 33 30 27 21 19 22 25 31 36 41 50 58 63 65 69 75 73 77 83 80 82 87 87 84 87 90 88 87 90 85 82 82 76 78 74 73 72 69 71 66 63 65 67 67 64 67 73 72 74 79 87 81 70 64 64 53 44 36 26 18 17 12 5 15 21 22 24 27 30 31 32 32 33 34 33 43 42 40 37 33 29 27 25 27 31 26 25 27 30 36 37 33 31 27 22 24 22 24 38 45 55 58 60 68 71 74 79 78 78 82 84 86 88 93 96 93 92 92 92 88 90 91 88 90 86 84 84 85 82 83 86 77 70 70 74 72 71 75 76 77 77 80 90 95 80 79 79 70 60 49 37 29 24 15 6 13 17 21 23 23 29 31 30 32 33 33 35 43 40 36 33 29 26 22 24 32 31 32 28 36 36 38 36 35 28 29 23 24 28 38 47 58 62 67 71 76 76 80 82 82 82 84 88 87 85 93 96 93 97 90 94 97 88 89 95 95 97 95 93 95 88 87 91 88 78 75 72 74 76 79 81 77 80 76 80 92 94 89 94 87 77 66 57 42 33 26 15 13 15 16 20 22 24 29 31 32 33 34 34 42 38 33 31 28 26 21 31 35 43 38 46 43 36 36 35 27 29 26 27 36 45 53 59 66 71 75 82 84 84 88 91 94 93 92 97 94 91 97 101 100 103 98 98 96 91 90 97 98 99 99 100 98 94 87 89 88 86 83 79 83 87 86 85 84 82 78 84 92 96 102 99 100 91 78 76 58 40 33 24 13 14 13 14 19 22 23 30 32 35 33 34 39 35 29 29 28 24 27 33 41 43 55 52 46 49 40 36 34 27 25 30 48 49 59 65 73 78 81 86 93 96 98 98 102 104 104 110 109 105 113 110 110 111 113 104 102 99 97 97 101 104 96 98 97 97 91 93 90 87 89 87 87 92 93 94 86 85 88 87 92 102 105 105 114 107 100 83 75 56 44 32 19 13 14 14 16 18 21 26 30 34 33 32 35 31 28 30 28 29 30 44 44 52 58 51 51 52 40 36 31 30 32 44 53 60 68 78 79 80 84 92 99 103 105 107 109 111 114 116 117 118 121 123 121 122 119 119 113 107 108 103 99 104 97 96 96 96 96 94 94 91 93 94 95 93 97 96 96 92 92 98 97 105 110 116 117 111 115 101 85 75 59 39 25 19 18 19 17 22 20 20 27 32 33 31 34 31 29 27 33 37 44 49 52 60 58 53 52 44 41 34 34 35 48 56 60 69 76 84 83 84 91 97 103 107 108 113 115 117 121 125 122 122 126 128 126 123 119 120 120 117 114 109 106 101 96 99 99 99 97 99 98 97 98 100 99 101 104 104 104 105 102 100 105 112 112 120 119 116 116 115 102 83 76 48 33 27 26 18 16 22 24 18 18 26 34 33 30 30 30 35 38 43 52 51 59 63 55 52 45 39 40 37 40 49 58 58 64 73 78 83 87 96 96 105 107 111 113 117 114 117 115 118 120 121 121 125 124 123 121 117 121 117 117 113 114 108 103 104 103 103 105 105 101 102 102 100 101 103 104 107 110 112 110 107 105 110 116 118 120 114 116 120 111 102 80 77 53 30 31 26 16 24 25 24 20 19 29 32 31 32 32 37 45 52 55 58 62 60 53 42 36 37 39 41 50 59 66 63 69 74 80 86 95 98 102 109 109 111 111 112 108 109 107 106 108 114 117 118 117 122 121 115 112 115 114 112 113 113 112 109 109 107 105 106 105 104 103 99 101 105 107 107 110 112 113 109 108 111 115 115 118 116 113 114 125 120 102 88 79 51 34 41 25 25 26 24 26 24 22 28 32 32 32 38 48 56 61 61 59 55 48 38 35 40 48 49 57 64 64 63 68 78 80 89 96 97 103 105 105 105 106 104 103 100 101 101 104 108 112 112 111 111 110 107 103 105 107 109 107 111 113 109 105 108 105 103 105 105 102 102 102 103 105 111 112 114 117 115 114 115 118 124 118 113 115 110 122 130 118 103 95 73 49 45 35 27 24 27 28 30 23 23 31 33 36 41 51 59 61 63 59 52 38 38 43 49 54 56 63 69 69 71 74 82 83 91 93 97 97 97 98 97 99 95 96 93 92 95 98 95 99 100 102 99 100 101 100 99 100 101 102 106 108 107 104 104 102 101 103 101 98 95 94 95 102 105 108 111 113 114 111 116 119 120 116 119 110 112 117 132 126 114 112 94 64 55 44 32 28 26 28 32 27 24 32 32 40 44 51 62 63 63 59 48 38 41 46 49 55 59 65 70 70 72 79 79 85 93 93 90 88 88 89 89 86 84 90 89 88 90 86 82 83 83 86 84 85 88 88 90 90 92 94 96 96 95 97 98 91 92 93 90 94 90 91 91 92 96 101 102 108 111 108 117 120 123 122 121 118 113 114 125 133 127 119 111 87 66 58 41 34 27 30 33 33 26 32 34 38 47 56 61 64 71 65 53 41 40 43 49 56 59 65 73 72 77 79 83 88 90 85 81 81 81 81 83 80 78 80 81 80 80 73 72 69 70 73 71 72 78 78 78 81 81 84 84 84 88 88 85 81 81 83 81 86 87 87 86 89 88 92 96 100 108 109 111 120 122 125 124 124 122 122 128 136 136 127 120 107 80 68 57 46 39 30 34 33 31 32 40 47 53 60 56 70 77 65 45 42 42 46 51 60 65 70 75 73 76 78 85 89 83 83 78 78 74 74 73 72 73 71 70 70 71 69 70 66 64 62 59 62 66 70 69 72 73 79 79 76 79 80 77 74 76 73 77 79 79 83 84 86 86 87 90 95 103 107 107 112 117 121 121 124 124 131 134 140 139 138 130 118 100 77 64 53 49 36 36 35 33 37 41 47 54 56 63 80 75 54 44 45 46 43 56 64 70 73 78 75 75 80 87 87 81 79 78 73 71 68 67 66 66 68 61 61 65 64 61 59 57 57 56 56 60 60 64 62 68 70 72 74 75 72 73 72 73 74 76 76 78 85 85 88 89 86 89 89 93 102 106 106 113 117 119 124 123 127 134 139 141 145 139 132 107 91 63 57 55 46 35 35 32 44 44 49 51 64 72 78 62 50 47 48 42 48 61 62 68 70 73 77 79 82 88 84 80 79 76 69 68 65 64 62 62 60 56 56 57 58 55 54 52 55 50 53 53 56 56 57 60 63 65 71 75 75 76 78 76 77 76 75 78 87 90 91 93 97 95 92 91 96 105 108 110 116 119 123 121 127 131 131 142 147 146 138 122 91 75 58 51 50 43 33 38 45 46 50 64 76 78 73 60 59 58 45 43 55 62 65 69 70 76 81 84 83 85 86 79 79 73 70 67 60 60 58 56 53 53 52 52 50 50 50 50 51 49 49 51 55 57 60 61 62 64 67 70 71 74 76 76 80 76 76 79 86 92 93 95 101 99 97 98 96 104 107 113 119 122 123 125 130 132 126 135 151 142 140 131 96 86 67 57 56 48 42 42 49 51 59 85 82 88 70 69 67 55 44 49 53 56 69 71 76 79 80 79 82 83 80 76 70 70 69 63 59 58 56 51 52 53 50 49 49 50 50 50 50 50 50 53 56 60 61 58 60 63 65 64 69 74 72 77 80 79 78 86 88 95 96 100 100 104 102 103 106 103 105 112 120 123 125 122 129 133 126 129 139 151 142 133 113 86 79 66 55 51 45 46 52 54 71 86 93 90 76 80 68 55 48 48 55 59 67 74 79 78 79 77 84 83 77 75 68 71 66 63 60 59 57 53 52 53 48 49 53 52 56 53 53 53 52 55 56 63 61 59 59 62 65 65 67 69 72 75 77 78 81 87 89 96 101 103 106 108 110 110 109 110 107 112 121 125 125 122 126 131 129 128 142 151 144 131 120 100 86 65 64 58 48 46 49 60 73 88 98 89 84 85 70 59 53 50 56 59 65 75 78 79 81 81 81 80 75 75 74 72 66 60 58 58 56 57 54 54 52 53 55 57 57 55 56 56 58 58 59 64 62 63 63 66 69 67 70 71 72 74 76 80 82 87 89 94 101 107 109 112 115 118 118 114 113 111 119 127 126 128 124 128 130 131 137 151 146 125 121 111 103 66 61 64 54 46 52 66 74 88 96 95 90 85 72 61 55 50 56 59 65 77 84 84 83 84 82 82 80 76 75 70 65 61 57 60 58 56 54 53 53 56 57 60 60 59 61 61 60 65 62 65 64 69 68 68 70 72 72 75 75 76 81 80 83 87 90 96 101 107 113 116 119 122 126 125 120 116 116 126 131 133 126 126 133 133 145 149 151 131 115 122 108 79 62 66 60 54 66 72 76 92 97 101 91 84 75 64 55 53 58 66 75 85 87 89 89 87 84 82 80 74 72 69 65 59 56 56 59 60 56 58 57 57 60 61 62 62 63 64 63 67 65 67 70 71 73 73 75 77 76 79 79 81 84 85 87 91 95 99 104 109 112 115 121 125 128 133 129 124 117 125 130 133 134 127 135 135 147 155 146 135 116 115 111 89 68 64 66 59 76 75 79 91 105 105 99 85 79 66 60 62 68 77 88 87 90 90 93 86 81 80 76 74 69 65 61 59 56 60 60 58 58 58 57 59 58 60 61 63 65 65 67 70 68 71 71 73 75 76 78 80 82 80 83 86 87 87 89 89 95 103 108 110 116 119 121 130 131 136 135 130 126 125 131 135 138 133 133 135 148 157 149 131 118 116 108 89 69 62 66 63 78 75 78 94 106 106 99 91 84 70 71 72 79 81 91 97 96 91 89 84 78 81 77 72 68 62 61 60 61 62 61 60 59 59 58 56 57 58 60 62 64 65 68 70 72 70 73 75 75 77 79 81 80 79 82 83 83 84 86 91 94 100 105 110 115 122 124 125 130 134 136 136 136 126 133 135 141 139 135 138 141 155 153 127 117 119 108 95 73 61 68 64 73 76 80 96 107 110 102 93 86 83 80 83 85 89 100 103 98 91 85 83 78 77 75 66 61 61 59 62 62 63 61 59 54 58 57 57 57 58 61 63 66 68 70 70 74 73 77 74 77 79 82 80 81 80 83 83 84 83 88 85 90 97 105 109 115 122 129 128 127 129 135 135 143 134 134 136 144 145 143 148 143 155 154 134 112 118 121 102 79 64 68 66 67 73 84 101 109 109 107 99 97 88 85 89 93 98 105 104 94 88 86 79 76 71 70 60 56 55 54 57 59 60 62 57 59 60 61 60 61 62 64 66 70 74 72 73 76 78 78 74 76 79 81 80 81 83 86 87 86 85 89 89 91 96 106 112 114 122 130 133 132 133 130 132 143 146 137 140 144 152 150 151 150 155 156 136 123 116 121 105 84 66 66 67 67 75 88 103 110 107 107 105 96 87 93 97 101 102 108 100 91 88 87 83 75 68 65 57 52 51 50 51 51 52 54 54 57 57 57 58 59 60 64 68 69 73 74 76 77 80 81 76 78 82 82 81 83 84 87 89 88 90 90 93 93 97 104 114 115 119 134 133 133 137 136 133 138 148 147 142 145 157 153 158 155 154 155 138 129 126 118 104 84 67 72 69 71 78 86 104 107 108 108 105 93 91 100 105 104 105 107 98 89 90 91 81 70 68 64 55 54 53 50 50 50 52 53 52 52 51 53 53 55 59 62 66 70 74 75 76 78 81 82 80 81 84 87 83 85 85 88 90 91 89 91 93 98 100 108 114 116 121 129 134 133 136 139 142 136 141 149 150 153 158 160 164 161 156 156 135 133 134 125 109 97 71 67 71 78 83 91 103 108 107 110 104 95 97 108 107 107 107 108 100 94 95 87 78 73 69 62 58 56 59 56 56 55 53 55 50 53 53 53 55 57 57 61 64 69 75 77 78 79 81 83 83 82 83 85 84 84 85 85 88 87 90 90 94 95 100 105 114 116 122 128 136 139 141 142 148 145 139 148 155 158 162 166 165 166 165 158 139 137 131 129 111 101 88 70 75 79 87 91 99 111 108 111 104 98 106 110 112 108 113 110 101 99 96 88 78 79 75 72 66 62 62 61 59 57 56 53 52 53 54 54 58 60 61 64 64 66 71 75 78 80 79 82 83 81 81 82 83 82 82 83 80 82 83 87 86 91 97 100 108 115 119 126 134 143 151 151 152 154 148 146 158 164 162 171 169 164 169 160 142 137 134 135 113 100 87 79 74 79 85 89 101 112 112 113 105 102 113 118 118 115 118 114 108 101 95 91 84 85 80 80 74 69 64 61 57 56 55 53 52 51 55 55 57 59 61 65 65 65 68 71 76 78 79 82 81 81 78 79 79 79 78 78 74 74 77 79 79 84 91 96 102 108 119 122 129 139 152 156 155 156 153 147 154 161 163 171 180 166 173 160 149 136 135 136 124 103 88 82 70 72 80 96 105 113 116 116 103 107 123 127 124 128 128 121 116 109 102 100 96 91 87 84 78 74 66 62 58 55 54 53 52 52 55 55 56 59 61 64 66 68 68 72 75 78 78 81 80 80 76 73 72 73 71 69 69 70 71 78 81 82 87 92 94 102 114 124 131 145 154 161 159 160 158 152 149 157 156 170 173 170 173 161 149 143 137 138 127 99 88 82 73 68 87 109 115 119 122 116 105 112 128 132 137 137 139 132 128 120 107 105 103 96 88 85 80 72 70 65 68 62 58 58 56 54 55 56 56 57 61 65 68 69 69 74 77 80 80 80 81 78 73 71 69 67 67 64 66 67 67 71 75 74 78 81 85 93 99 112 125 142 153 160 160 160 168 158 154 152 151 173 171 169 169 156 148 146 138 134 122 101 82 81 76 66 95 117 123 126 125 118 107 120 133 136 144 145 146 143 143 130 119 110 108 99 96 86 78 72 65 61 62 59 55 51 48 50 47 49 49 52 55 62 65 67 68 74 76 80 82 78 78 75 71 67 64 63 63 57 56 58 54 55 60 65 68 72 75 78 81 96 108 124 141 152 155 157 169 164 159 165 145 162 179 167 157 149 147 153 134 140 124 105 89 76 78 68 104 123 135 134 127 122 113 127 137 144 153 153 147 140 138 123 117 104 103 94 90 78 74 73 64 63 59 54 48 44 43 42 41 43 50 52 57 64 65 70 75 78 78 80 82 78 77 71 69 63 60 59 52 49 46 43 46 49 53 60 67 64 68 69 73 82 95 117 130 145 156 162 173 175 162 181 156 158 182 174 156 149 146 149 142 141 131 110 100 80 76 71 106 124 143 142 129 126 116 135 140 151 156 155 144 141 140 129 118 113 109 95 88 83 81 77 73 74 64 58 53 45 42 39 40 45 47 48 52 63 66 73 79 82 85 87 86 88 86 81 79 70 65 61 52 43 40 37 37 43 49 51 55 54 57 60 65 74 89 108 129 144 145 164 173 183 166 182 171 167 181 181 160 152 151 142 151 151 141 120 100 88 74 78 109 127 142 138 146 129 117 133 141 155 164 159 148 142 141 126 114 112 98 88 79 77 73 71 75 73 68 66 59 57 52 42 41 44 43 50 57 61 72 80 82 83 91 88 89 89 89 89 88 77 71 61 57 49 52 48 48 55 51 51 59 54 60 58 69 86 90 104 121 142 157 157 172 183 175 190 177 169 184 182 157 151 151 145 163 161 150 127 106 97 79 86 112 137 135 134 153 139 119 130 147 164 170 158 147 142 131 121 113 105 88 83 84 80 81 72 72 76 76 68 59 56 54 49 51 49 50 60 64 68 67 78 88 88 95 95 91 95 94 92 90 88 75 65 56 54 57 57 56 62 58 55 60 58 57 59 72 94 95 104 115 130 155 162 168 185 184 189 195 173 185 175 155 154 158 155 175 166 151 131 107 99 89 96 114 142 131 135 152 140 128 135 154 175 178 160 151 153 137 120 117 98 93 91 84 86 84 72 66 71 72 63 53 52 49 48 50 51 54 65 72 72 71 77 90 96 104 107 103 101 103 98 102 97 89 72 63 57 60 61 63 69 69 66 74 68 69 67 77 88 99 102 107 120 136 155 157 181 195 196 199 186 188 177 156 157 159 168 178 171 159 132 110 101 85 101 124 142 128 133 147 140 140 148 157 173 179 168 155 158 145 138 130 118 120 107 93 92 90 80 76 73 78 72 61 57 61 59 59 74 74 77 88 88 87 87 91 103 113 116 111 111 111 113 109 113 101 94 76 69 64 70 80 81 85 86 90 86 86 80 90 96 113 120 130 134 145 157 166 181 196 199 198 194 187 182 164 164 171 173 176 173 160 140 121 103 80 106 129 139 132 130 137 151 156 160 162 178 179 176 166 170 161 159 156 144 144 129 117 118 109 92 89 84 73 78 69 67 71 73 69 82 92 100 110 103 105 105 103 114 122 128 122 119 127 130 129 126 119 110 91 83 83 83 86 93 92 103 103 94 99 90 99 104 115 129 140 149 155 169 180 193 204 205 199 198 189 174 166 165 176 182 183 180 163 138 128 108 87 106 133 140 143 143 142 161 168 174 169 186 191 181 180 183 187 190 177 172 166 148 137 137 124 112 104 95 87 85 84 92 88 91 88 91 99 116 118 119 121 124 122 138 145 140 142 141 138 148 149 142 127 127 122 107 91 100 105 110 113 108 110 111 114 113 106 115 126 135 143 155 169 186 196 199 214 216 207 198 191 171 161 159 186 187 184 185 170 146 134 109 86 101 129 150 150 153 157 169 184 185 182 197 198 192 194 191 205 212 188 179 177 165 152 145 134 126 121 118 106 102 101 111 110 113 108 116 121 130 131 135 138 139 137 151 158 153 154 155 155 158 164 157 139 137 140 130 116 113 123 123 125 118 114 116 135 131 122 121 147 144 153 159 179 200 205 212 220 228 219 206 192 170 161 163 196 187 185 182 173 158 144 118 86 102 129 153 156 165 164 179 185 183 185 194 196 198 200 206 217 224 203 200 187 180 170 162 149 145 144 126 120 119 118 126 135 133 135 130 138 142 138 146 148 149 154 166 167 161 160 159 160 165 175 169 148 146 145 152 135 123 126 127 120 120 119 122 137 143 143 138 139 153 164 169 183 206 215 221 228 240 234 206 192 174 160 174 199 185 180 168 164 154 144 116 90 97 123 143 156 169 173 186 181 177 186 193 195 199 199 217 218 223 213 206 202 197 189 179 171 166 155 140 135 133 131 137 139 144 138 134 147 151 155 154 162 166 171 179 174 171 171 167 167 173 179 177 163 152 150 153 153 143 135 137 142 138 134 126 133 141 150 157 148 157 168 169 182 213 220 224 231 242 240 215 199 181 169 178 192 180 171 169 172 152 149 113 90 94 117 129 156 177 176 198 186 178 187 192 197 195 196 215 213 217 211 211 207 205 200 196 186 184 171 162 157 148 154 153 142 146 142 139 155 159 162 162 171 169 177 185 186 185 180 173 176 184 181 175 168 162 151 160 158 156 150 150 147 145 143 140 142 145 147 158 166 168 170 183 185 210 224 233 231 242 242 225 210 188 175 183 182 182 180 188 182 166 151 115 89 93 119 132 151 178 175 191 186 179 179 191 197 193 190 214 213 210 214 212 213 209 200 196 190 180 175 171 169 167 166 163 158 154 147 153 154 162 165 168 168 173 178 179 186 184 186 181 181 189 181 176 165 164 147 158 160 166 154 152 151 149 143 148 155 166 164 168 181 185 185 194 201 218 231 238 237 244 252 244 216 199 180 180 175 184 187 195 183 174 148 113 85 97 113 140 154 168 160 177 187 170 169 182 185 185 183 196 202 204 208 209 207 209 196 190 180 170 166 171 173 179 181 164 161 160 154 157 156 163 169 173 164 165 165 179 181 182 181 181 175 180 181 176 165 164 157 152 165 163 156 155 149 145 146 155 160 175 178 177 190 194 200 207 214 229 230 242 243 246 252 246 223 191 189 175 169 190 187 187 190 181 155 109 93 91 110 131 158 161 161 164 177 167 157 172 176 175 185 188 195 192 199 197 194 195 192 183 173 169 172 175 174 168 170 160 161 157 156 156 153 155 166 159 160 161 163 174 177 174 169 170 166 168 173 167 161 157 159 149 157 164 166 159 143 137 142 140 161 176 182 188 193 197 207 216 222 230 235 240 237 242 252 249 226 197 190 166 163 187 189 193 188 180 150 114 94 84 97 119 144 156 166 152 158 168 155 168 174 168 183 187 187 184 187 184 188 184 183 180 175 168 168 171 170 164 165 162 157 155 157 156 146 156 156 152 157 154 152 162 157 164 156 157 158 156 162 162 155 160 153 153 157 158 161 159 145 135 138 141 154 175 180 186 192 205 213 220 227 230 233 237 237 243 255 254 223 209 194 167 167 180 193 191 185 179 134 112 92 78 91 105 126 147 158 142 146 163 160 161 168 166 180 181 178 173 180 176 175 173 171 172 171 160 163 168 171 170 162 157 151 149 149 148 152 154 151 146 144 147 143 148 147 150 149 148 152 153 152 158 159 153 153 153 153 151 152 154 149 147 148 151 155 172 180 187 191 199 215 220 228 231 236 240 242 242 245 247 231 208 189 162 157 174 187 181 189 168 121 108 94 80 96 108 116 138 144 146 140 155 162 153 162 162 175 177 174 172 173 171 165 161 161 162 166 160 163 165 169 166 159 153 146 143 146 151 154 151 151 144 134 138 133 134 131 135 136 141 144 145 143 148 156 149 143 143 159 150 145 148 155 164 164 168 169 175 179 193 196 201 212 222 223 230 235 237 238 235 235 239 230 206 198 169 158 162 184 174 176 157 118 97 91 81 95 113 121 133 143 151 145 153 158 137 156 154 166 169 166 170 164 165 155 155 156 152 156 156 156 158 159 156 150 138 134 134 145 150 149 147 137 130 128 139 137 130 129 131 131 137 132 133 138 136 146 142 126 134 143 151 144 146 150 156 169 166 176 180 186 194 201 199 211 220 221 229 232 231 233 227 229 232 224 207 207 175 160 164 180 166 164 142 119 85 86 66 93 114 115 118 150 150 156 160 151 146 145 150 159 165 156 163 155 153 149 148 151 146 150 149 145 147 141 138 133 126 127 131 137 139 140 131 118 114 118 122 129 125 124 129 132 131 130 126 131 132 136 133 121 123 128 130 137 142 149 154 160 165 166 172 181 185 194 196 202 211 212 220 225 228 226 222 221 225 214 209 200 176 174 172 178 166 149 143 116 80 76 55 87 108 105 103 132 144 149 156 156 143 146 143 148 160 157 158 154 150 152 146 142 142 141 142 133 132 129 124 124 123 122 127 131 132 134 125 111 104 100 110 116 119 123 122 126 125 123 117 113 126 123 123 125 119 120 123 119 131 138 143 151 154 159 168 176 178 182 193 200 205 210 217 221 222 222 217 218 215 212 197 192 178 178 179 186 161 149 134 105 73 78 40 78 87 82 88 108 137 145 153 152 138 138 133 146 152 153 150 153 149 150 145 138 135 130 133 127 125 121 116 119 118 120 117 120 124 127 119 103 92 88 90 100 111 114 118 116 112 108 109 109 110 110 112 119 119 114 114 112 112 124 126 137 143 146 158 164 173 174 189 194 201 211 212 218 215 214 215 213 208 205 183 187 178 174 179 181 169 155 125 93 75 80 41 64 79 66 83 104 121 138 148 142 130 135 130 134 149 146 149 149 153 144 143 138 132 127 125 126 123 119 114 115 118 116 112 115 120 123 109 101 89 86 87 85 94 98 107 100 94 96 101 102 103 96 100 100 105 112 105 106 102 106 117 121 136 135 139 148 158 167 177 190 197 205 207 210 206 209 208 204 202 199 178 176 178 180 180 163 167 158 116 91 79 77 53 61 76 58 80 102 106 134 143 141 125 127 130 127 140 147 146 146 147 141 137 133 129 126 126 122 118 115 111 107 108 107 110 112 118 116 105 98 90 87 84 78 83 90 92 88 89 85 89 89 86 77 79 82 87 94 97 97 96 92 108 119 123 126 135 138 148 161 171 180 189 196 200 199 200 203 208 205 199 196 186 172 169 187 188 160 159 148 112 97 79 72 69 57 75 65 73 89 96 120 134 134 125 120 128 131 137 142 142 144 139 139 134 135 130 120 119 116 110 106 99 98 100 105 115 108 112 109 97 90 86 78 71 71 75 73 82 77 78 77 73 80 67 62 61 67 78 84 93 100 92 93 98 107 117 121 124 132 145 160 163 175 184 189 192 190 193 200 210 206 194 194 184 166 169 173 189 149 152 140 116 91 80 71 71 55 73 70 75 98 102 124 132 129 131 125 125 131 134 140 142 143 140 133 134 134 130 123 122 117 108 103 98 99 105 112 110 104 110 107 98 93 83 75 71 72 68 69 66 68 69 72 74 72 65 56 64 66 68 73 86 95 95 96 100 98 108 117 118 129 139 153 161 167 177 178 183 185 188 200 208 199 192 196 182 172 164 165 181 141 154 142 114 84 80 72 54 64 67 69 70 98 106 120 124 130 130 120 128 133 133 139 143 144 143 137 134 132 125 118 116 113 107 101 101 103 110 114 113 111 114 117 109 95 87 76 67 63 57 58 59 65 68 71 76 67 62 56 55 61 65 72 88 97 99 95 101 104 107 112 124 131 138 151 156 160 166 175 182 182 187 200 205 191 186 195 187 176 162 170 176 151 159 132 111 86 77 72 47 63 61 70 76 100 114 118 116 115 127 129 127 133 136 142 148 147 147 143 140 135 132 124 118 115 109 106 105 112 110 111 115 115 116 114 109 99 86 66 58 57 56 62 69 70 72 74 71 62 59 61 63 64 69 80 90 93 97 96 97 102 108 116 124 133 142 148 156 159 165 174 180 183 188 195 199 185 183 185 195 185 170 176 176 153 158 127 112 85 75 74 56 60 57 66 83 98 121 118 118 111 123 132 132 134 142 144 150 150 151 148 145 142 138 130 127 122 121 116 115 120 117 120 124 129 130 123 121 106 84 65 53 62 66 67 71 75 71 71 69 62 60 63 68 84 91 97 104 111 109 108 108 109 114 121 129 142 147 150 155 162 166 174 183 185 192 195 194 184 178 176 186 181 162 175 175 144 151 120 112 84 78 76 64 62 45 58 87 102 121 123 127 122 127 129 140 134 144 148 151 153 157 154 150 147 140 135 133 129 132 129 130 129 128 130 136 140 139 140 126 116 96 79 69 74 80 75 79 79 74 73 68 64 62 67 76 91 101 101 108 117 114 117 117 122 128 131 141 150 152 156 163 168 172 181 183 189 194 194 189 181 176 173 181 180 163 171 170 147 136 117 109 82 78 75 70 65 49 54 80 102 116 128 138 131 137 136 139 140 143 151 156 161 163 161 157 151 147 144 142 138 139 142 140 141 141 142 145 150 151 149 143 130 114 104 96 94 97 90 87 82 79 77 74 71 78 86 93 105 110 109 115 121 126 131 131 136 144 148 152 160 161 162 174 177 178 184 188 193 192 190 184 180 180 174 185 175 162 162 173 162 140 117 114 80 76 74 72 65 59 47 75 92 103 126 145 138 140 152 140 138 144 156 161 168 168 166 163 158 158 158 153 149 149 155 157 157 149 152 154 156 158 152 155 141 129 127 121 116 110 106 102 91 83 86 92 93 94 101 111 120 124 127 128 134 135 135 136 141 151 154 159 163 167 173 179 186 187 188 193 196 190 188 179 183 184 175 172 163 157 166 180 173 139 120 109 78 78 71 74 63 58 53 64 95 98 118 147 149 142 152 157 146 152 157 164 169 171 170 166 165 166 167 165 162 162 168 170 167 160 157 156 160 158 154 158 150 143 146 139 134 120 115 117 110 105 102 106 113 120 120 130 137 140 143 145 148 150 149 151 145 151 158 165 173 178 181 189 191 195 193 197 196 191 187 181 185 185 171 159 162 162 171 182 176 133 116 106 74 79 71 69 62 60 57 56 98 98 112 144 155 154 148 160 156 159 163 165 171 173 171 169 172 173 178 175 172 172 173 174 171 163 159 159 163 161 157 158 156 143 147 147 141 132 132 132 129 125 125 120 124 135 136 142 141 143 156 159 160 163 159 156 153 156 163 168 179 186 187 194 194 196 199 202 198 196 193 192 193 185 169 164 170 163 161 182 161 128 110 99 73 81 69 64 61 62 61 63 94 104 115 139 156 159 162 163 156 156 163 168 173 175 174 177 178 182 182 185 180 178 181 181 169 161 159 158 156 164 163 157 157 148 153 154 148 144 145 146 142 137 139 135 130 135 146 150 150 148 164 172 167 167 164 161 159 160 164 171 184 190 187 196 202 199 199 206 204 203 201 197 198 189 172 174 178 159 165 176 159 128 107 87 76 81 70 64 60 61 56 60 90 99 120 138 151 155 166 171 168 161 162 170 176 176 177 180 182 186 185 189 183 184 185 179 166 160 154 152 153 161 164 162 156 151 152 155 147 141 144 145 142 143 140 139 135 135 134 139 138 140 161 170 170 167 167 161 156 160 165 169 185 188 189 193 203 199 203 210 210 211 207 199 199 189 176 181 176 159 171 174 155 127 96 77 78 77 71 59 62 63 53 63 82 97 109 138 153 159 163 170 184 165 163 170 176 179 181 187 186 190 185 190 185 185 181 173 163 155 148 150 154 152 156 153 152 144 137 139 127 125 129 132 126 127 130 129 125 127 124 121 125 135 145 153 153 157 158 154 153 159 161 163 177 187 188 195 204 201 207 211 212 212 209 201 199 187 177 183 173 165 172 165 150 117 84 71 76 76 68 55 64 67 56 57 70 91 100 127 150 164 165 178 186 170 163 169 175 180 185 190 189 189 187 190 185 177 166 158 145 145 144 148 150 144 147 141 138 132 125 120 116 115 111 119 120 116 116 119 123 123 121 116 117 129 135 142 145 144 146 146 146 150 158 160 172 181 185 194 202 201 210 214 213 214 211 204 202 185 177 179 169 169 167 153 124 102 68 69 73 73 68 59 65 68 57 58 63 76 95 112 136 156 163 175 184 175 169 171 175 181 188 187 188 189 188 189 182 171 154 145 131 127 130 136 137 135 135 127 124 119 114 112 107 105 99 99 107 105 107 107 112 119 115 112 117 127 136 142 143 137 134 142 141 146 151 161 169 178 187 191 200 202 210 215 217 217 216 209 195 179 177 179 161 154 150 115 99 74 65 67 73 68 64 63 66 66 62 61 61 64 85 101 119 141 152 161 173 173 172 175 178 187 190 189 191 190 190 187 185 172 151 137 127 121 121 120 123 121 116 116 116 112 107 108 103 100 92 91 99 97 100 102 106 109 110 112 115 123 128 135 139 138 140 147 144 148 151 155 166 177 186 195 199 203 213 217 220 219 218 217 189 185 174 170 144 134 113 83 76 68 66 63 69 67 60 66 62 61 62 63 61 65 76 88 110 128 140 152 162 175 175 178 183 185 192 191 194 190 190 189 190 177 163 146 134 130 122 120 123 119 112 111 118 116 113 113 110 107 100 100 106 102 101 100 104 105 107 112 117 120 119 128 137 143 153 160 156 159 158 157 167 178 188 197 201 206 213 218 223 218 220 214 189 186 171 158 131 123 87 74 72 65 64 61 66 63 60 68 65 63 60 58 63 66 76 77 101 119 125 140 155 172 180 183 185 182 195 192 200 196 195 195 194 183 174 160 151 139 135 127 124 123 114 112 116 115 114 125 121 116 115 113 117 110 109 106 114 112 112 109 120 123 123 132 142 154 165 173 173 171 166 167 180 186 196 201 207 211 213 220 224 215 213 206 181 180 163 150 119 107 83 75 70 64 63 61 63 64 61 63 67 65 62 59 61 67 71 68 84 106 111 131 147 160 182 190 191 193 199 200 203 208 204 206 203 193 189 179 170 165 154 147 140 138 129 129 126 129 126 132 132 124 126 121 125 120 117 113 114 115 113 114 122 130 145 156 154 157 168 171 175 177 178 175 185 194 201 202 210 215 215 220 224 207 206 196 176 171 150 136 104 99 84 74 66 67 60 56 62 63 64 59 63 64 63 61 62 67 71 60 71 97 109 121 142 151 178 190 199 204 205 206 210 212 213 215 214 201 196 191 184 179 169 165 158 164 155 155 151 154 154 147 148 142 136 131 132 133 127 121 122 118 117 118 128 139 154 165 168 168 174 178 179 182 188 184 192 199 206 205 213 214 220 219 219 202 203 187 174 157 144 124 99 94 83 77 67 65 59 58 62 60 65 61 59 59 65 61 61 68 66 61 65 81 109 115 137 145 166 186 199 204 210 210 217 221 223 222 218 212 207 199 192 180 172 175 174 182 183 178 174 171 171 168 164 155 148 146 139 131 123 117 121 116 116 121 136 149 160 166 172 179 181 186 181 186 187 191 194 198 199 205 213 216 217 218 211 199 203 186 170 147 143 122 100 88 78 76 65 65 61 59 62 60 64 64 62 57 62 63 59 70 62 62 62 77 108 118 132 138 160 175 192 198 208 208 217 222 224 221 218 215 210 201 192 179 168 177 177 182 182 184 179 170 168 159 156 144 136 129 121 114 113 113 113 116 121 127 144 153 164 174 177 183 184 187 185 189 184 189 196 196 196 204 211 218 218 217 207 202 204 179 161 143 141 119 95 81 73 72 70 66 63 61 60 64 63 64 62 59 60 58 66 70 63 62 59 72 98 123 132 134 159 163 175 187 194 204 207 213 216 215 214 208 207 197 191 182 171 184 183 189 187 179 176 170 164 158 153 143 135 125 120 112 116 114 115 112 120 127 137 146 158 174 181 185 188 185 185 188 188 193 198 198 197 205 214 218 215 212 200 208 199 174 155 141 143 112 93 80 77 70 71 69 66 63 63 65 62 52 60 60 57 58 69 67 61 64 57 62 86 115 126 134 150 162 166 180 189 196 196 199 202 198 204 199 198 189 186 182 178 182 182 181 184 174 163 153 151 146 143 130 123 119 119 119 119 116 116 120 126 129 135 141 157 167 178 183 185 181 183 191 191 195 195 198 199 206 212 216 217 208 203 209 195 168 148 142 139 105 89 80 77 72 70 70 68 64 66 65 62 53 55 58 56 56 67 67 60 62 60 56 79 102 119 133 146 161 164 172 188 192 188 185 191 184 189 181 178 174 171 166 174 177 179 175 177 172 160 157 149 140 134 127 125 122 121 120 120 116 114 117 122 127 129 143 153 165 172 176 180 182 187 187 190 191 194 196 199 207 212 215 213 212 208 208 187 165 142 142 131 102 85 80 78 72 74 72 69 67 67 65 64 54 56 56 58 62 65 66 64 64 62 57 76 96 110 131 146 159 165 166 177 187 189 182 186 187 185 176 172 167 164 162 169 171 171 167 168 166 160 155 146 143 140 132 131 124 122 124 123 127 126 127 131 139 143 153 162 173 179 181 181 187 192 188 191 193 195 195 199 206 211 212 217 217 211 205 178 159 142 139 123 96 80 82 75 74 77 74 69 67 65 66 67 56 56 57 59 62 66 66 65 63 58 62 75 93 103 124 148 160 166 167 169 187 189 189 182 183 186 178 173 171 165 165 167 170 170 169 164 167 156 153 147 147 141 137 133 133 130 130 130 134 140 145 150 159 162 169 177 184 190 190 191 193 195 193 195 194 193 194 200 208 210 211 225 213 214 205 173 152 143 134 111 91 82 80 75 79 78 73 73 66 65 65 69 55 58 56 59 64 66 65 62 59 58 62 80 92 103 116 146 162 168 168 166 179 187 191 190 186 187 181 174 173 169 168 169 169 168 173 170 170 166 160 157 154 146 139 137 139 136 133 135 139 146 153 161 170 175 182 189 193 196 197 200 196 200 200 195 192 193 198 201 208 208 212 227 214 221 194 168 153 143 124 105 89 84 75 77 80 78 73 75 69 63 67 69 56 57 58 59 61 62 65 55 57 58 66 82 92 105 114 140 163 169 167 170 170 179 190 190 188 182 178 177 170 172 169 167 163 166 172 169 169 167 167 162 158 149 144 141 142 139 141 144 147 153 156 164 172 181 189 196 199 198 200 202 201 200 203 197 193 197 203 201 205 206 215 225 221 215 184 163 148 139 116 100 89 81 75 79 76 77 77 74 70 68 65 64 59 58 62 62 59 63 64 54 55 60 70 86 89 102 117 132 160 171 165 169 168 176 184 185 190 185 177 176 172 169 169 166 162 166 167 167 163 161 161 160 157 152 154 148 148 145 147 150 152 152 157 163 167 179 188 198 200 200 204 200 202 200 200 198 195 197 197 200 201 204 216 220 222 209 178 161 146 126 116 102 90 80 80 78 76 77 77 77 72 68 64 61 59 59 63 60 59 65 63 58 58 59 73 86 90 106 121 130 151 165 166 161 164 174 175 179 184 179 175 170 172 165 163 163 159 161 163 167 166 161 157 159 152 151 151 146 142 142 143 144 147 150 155 161 165 173 183 189 192 195 201 198 198 197 197 196 197 195 191 188 196 202 220 223 218 205 182 153 142 123 108 106 92 77 81 78 77 74 80 78 74 67 69 64 59 63 64 61 61 65 63 65 61 59 72 89 98 110 115 126 146 160 164 160 162 166 172 167 171 169 167 165 164 160 154 154 148 152 151 154 154 152 151 149 146 145 145 140 135 135 134 136 138 145 151 153 161 164 172 175 184 187 195 194 191 192 193 190 191 187 185 180 198 203 220 225 216 211 184 151 139 123 108 100 95 82 79 77 77 76 79 75 72 71 68 65 61 63 65 59 62 61 61 69 65 64 78 94 102 108 111 120 146 160 158 159 159 168 159 159 162 157 156 156 154 153 149 149 144 138 137 133 136 135 138 139 135 135 129 129 124 121 124 127 130 135 141 144 151 154 160 163 173 180 186 186 183 187 188 181 180 177 177 179 191 203 217 224 216 212 187 149 136 123 111 100 97 86 81 78 77 76 78 76 73 71 70 69 63 62 63 58 62 59 63 73 68 68 84 94 103 105 110 116 143 163 158 157 155 164 158 158 152 149 146 148 151 147 142 140 138 131 128 119 122 119 122 119 119 117 113 112 107 107 111 112 118 123 127 134 140 145 151 157 162 169 176 173 174 181 179 174 173 170 170 180 189 199 218 220 208 202 189 148 135 123 112 105 98 91 82 77 77 76 79 75 73 70 72 71 64 62 62 58 63 61 71 77 72 75 85 93 99 109 111 113 139 162 166 158 156 158 159 166 154 145 144 143 143 139 132 125 124 121 120 115 110 110 108 103 105 104 101 100 98 98 102 104 109 114 116 123 131 134 143 148 152 156 164 169 168 175 175 166 164 167 165 178 187 195 222 217 204 198 187 158 133 119 114 108 101 93 88 78 77 78 78 75 74 69 72 70 64 61 62 62 69 67 77 78 75 80 83 87 98 110 111 114 138 158 166 166 157 158 162 175 164 149 142 139 139 138 127 123 114 111 113 111 106 104 102 100 99 98 93 94 94 96 98 100 103 108 112 119 125 129 135 141 147 149 158 163 166 167 166 162 160 160 165 176 186 202 223 216 197 192 189 175 133 119 110 111 109 93 90 81 75 79 80 73 74 71 71 70 62 61 64 63 71 73 76 76 79 83 82 83 91 117 122 110 143 161 165 169 162 161 160 173 174 159 147 144 135 142 131 126 117 112 107 104 103 98 96 95 94 93 91 94 92 95 99 100 102 106 113 116 123 126 130 136 142 143 150 154 159 158 155 156 156 155 162 175 192 203 218 209 197 188 178 168 137 121 111 111 110 99 90 87 76 78 76 76 74 72 73 73 61 66 64 64 72 77 78 78 79 85 82 77 95 127 118 110 150 166 168 164 165 169 161 166 177 171 159 152 143 141 141 134 126 119 115 109 106 102 100 99 97 95 94 94 95 94 98 103 106 111 116 118 122 129 131 133 139 139 144 147 151 148 148 149 146 153 164 183 193 205 216 209 205 187 176 165 134 121 118 109 112 104 94 90 83 79 76 76 75 76 75 75 64 68 64 69 74 79 82 78 77 90 83 77 107 120 118 120 152 170 172 163 165 172 171 169 175 180 172 167 157 148 148 145 140 134 128 122 115 112 108 107 107 102 104 100 102 102 104 110 116 121 124 127 132 132 133 136 138 141 144 141 146 144 145 146 149 157 176 190 193 205 218 206 211 187 173 170 139 119 118 113 110 107 101 94 89 79 78 78 77 76 78 77 69 73 69 78 78 80 83 80 79 93 86 87 105 115 125 124 153 171 173 167 166 168 179 178 178 183 186 182 175 161 163 157 150 148 140 134 127 121 121 116 118 113 116 113 113 116 117 123 128 134 131 136 139 139 139 140 140 144 141 141 142 143 144 146 154 163 182 197 196 207 210 204 203 185 174 162 145 120 119 117 110 102 107 100 91 86 78 78 80 77 79 79 75 82 78 85 83 83 87 80 85 93 96 84 103 117 132 129 153 169 173 169 163 172 178 184 186 186 195 196 192 182 177 173 166 164 154 145 143 140 134 130 128 129 128 128 127 132 135 144 144 150 147 144 143 147 142 143 144 146 143 142 145 146 148 151 160 172 190 200 197 208 201 204 190 184 180 162 149 117 125 117 106 99 104 106 95 90 80 80 81 80 78 82 80 84 84 91 85 87 89 80 87 96 90 88 101 123 137 128 152 166 165 170 166 163 183 181 192 193 195 203 205 203 194 191 184 180 173 169 160 158 156 152 148 148 149 151 151 152 159 161 158 161 158 156 153 150 148 152 153 153 152 149 150 154 157 157 170 185 195 198 198 213 202 203 183 179 186 158 152 126 121 119 109 99 98 104 101 91 81 80 80 81 79 79 81 85 89 92 86 87 90 81 93 94 85 93 104 129 138 128 151 161 169 159 168 164 179 183 189 195 198 204 211 216 211 207 204 200 193 190 187 181 176 174 170 174 174 172 174 174 178 178 174 170 168 165 164 165 162 159 158 162 161 158 161 164 164 168 178 188 193 191 201 218 206 198 185 178 185 154 148 130 121 116 111 101 93 99 106 94 84 81 79 79 80 79 81 88 90 89 87 86 89 89 96 86 86 101 106 125 142 136 155 159 167 155 157 166 178 182 187 194 200 208 211 219 219 216 217 217 214 207 208 203 198 192 189 188 188 187 189 189 185 185 184 179 178 173 178 175 174 169 171 174 168 168 167 169 170 171 178 185 187 191 199 215 207 197 182 173 178 157 140 133 119 115 113 111 96 92 104 99 89 83 79 79 79 79 81 86 86 87 89 89 97 91 96 91 89 103 116 130 147 143 156 161 159 151 155 162 175 181 181 190 199 207 210 219 221 221 218 221 222 221 219 215 215 209 209 205 201 200 198 193 191 188 187 182 183 182 179 181 178 185 181 176 173 174 173 170 169 174 182 185 181 191 199 209 211 200 184 170 177 162 131 130 123 119 115 113 115 93 96 100 93 82 79 78 79 78 83 90 90 90 98 96 99 94 99 105 101 122 131 132 143 145 152 165 153 143 153 161 169 176 180 180 193 204 210 217 223 224 225 225 226 228 227 223 221 217 219 214 209 205 201 192 191 188 186 185 184 182 184 188 187 186 181 178 176 177 171 171 168 175 187 182 181 197 203 203 207 194 181 171 180 166 136 126 125 126 118 117 132 112 95 99 98 85 79 79 78 81 