P2
92
112
255
39 39 39 38 38 37 34 35 36 34 35 32 32 33 33 29 27 23 17 12 14 11 7 5 8 2 0 2 6 6 10 21 21 14 16 16 15 21 20 17 14 23 18 18 19 19 24 23 21 27 33 39 36 41 40 33 30 38 33 33 33 27 22 26 23 22 25 29 25 21 14 17 16 18 22 21 24 26 28 28 29 30 31 31 31 31 30 31 30 30 30 32 39 39 40 38 38 37 35 35 33 35 32 31 33 32 28 27 24 21 16 15 13 11 7 7 7 5 3 6 10 11 14 16 23 16 15 15 17 20 18 19 25 28 33 31 29 32 30 24 28 34 37 42 44 40 45 40 36 42 42 39 43 31 34 28 23 23 23 24 24 23 18 14 14 17 17 20 22 23 26 28 29 29 29 29 30 31 30 31 32 31 30 31 40 38 40 38 37 36 35 35 34 33 32 28 30 30 26 27 26 19 18 14 13 11 13 12 10 10 10 13 12 16 15 15 19 19 20 21 22 24 29 28 30 35 39 38 38 42 42 36 36 39 37 39 43 41 42 48 43 47 43 42 44 39 37 39 30 31 32 23 23 18 14 15 9 13 13 20 21 22 24 29 30 29 30 28 32 31 31 31 31 32 32 30 38 39 39 36 36 37 36 36 34 31 30 28 28 29 25 27 23 14 19 18 19 17 22 16 14 11 11 11 12 13 17 19 17 23 23 28 34 32 39 36 37 38 45 42 41 43 45 47 35 35 39 38 35 35 39 46 42 44 39 41 42 37 41 45 37 39 37 33 30 26 12 11 10 9 12 18 21 20 25 26 30 29 29 29 31 30 32 32 31 31 31 32 39 38 38 36 35 36 36 34 34 31 29 27 28 27 25 20 17 15 20 22 23 23 25 22 15 15 14 11 11 12 20 21 31 30 35 36 35 42 50 50 46 48 51 51 47 54 54 55 55 49 48 54 49 39 44 43 49 38 42 41 42 38 49 44 47 42 36 39 38 29 21 17 13 9 12 13 16 19 18 22 25 27 29 30 31 31 31 31 31 32 32 32 40 38 39 37 39 37 34 31 29 27 24 23 27 23 20 19 14 17 22 20 24 25 24 22 19 16 15 14 16 23 30 33 39 44 44 53 51 53 58 63 60 58 59 61 64 64 67 66 66 63 60 61 57 56 50 46 55 51 53 52 51 57 59 54 54 54 49 43 47 38 31 29 21 16 13 9 11 18 15 18 20 25 27 28 30 30 32 32 33 32 32 33 40 39 38 38 38 36 31 28 26 23 26 23 26 21 18 18 20 24 31 27 29 24 19 20 15 17 23 27 30 34 38 44 46 52 57 63 64 63 68 72 74 73 76 74 75 69 69 73 71 65 69 65 62 61 59 56 58 60 64 60 63 63 65 66 63 65 62 61 58 46 43 38 29 23 19 13 8 13 13 17 16 22 25 26 28 30 30 34 33 33 33 33 38 40 38 40 37 31 26 28 23 23 23 24 26 21 19 19 28 28 30 27 25 18 18 18 14 20 32 39 44 46 50 56 63 66 68 72 72 73 76 76 75 78 79 85 82 78 75 78 80 76 73 71 70 64 65 69 60 65 62 66 67 67 71 70 72 74 75 82 74 55 50 48 40 33 28 22 14 10 9 13 17 21 20 26 29 30 29 31 33 33 33 33 39 38 40 36 33 29 26 23 23 23 21 26 22 18 23 27 34 30 27 24 18 17 20 22 29 34 38 48 56 60 63 66 73 71 75 81 77 80 85 85 82 86 90 88 87 90 85 83 83 76 79 75 73 72 70 72 67 65 65 68 68 64 68 73 72 75 81 88 82 71 66 65 53 44 37 28 19 16 12 4 15 20 21 23 25 29 30 31 31 32 33 32 41 40 37 35 31 27 26 23 25 28 24 22 25 28 34 34 31 28 24 20 22 20 22 34 42 52 55 58 65 68 71 75 75 76 79 82 84 85 91 93 92 91 92 92 89 90 92 88 90 86 84 85 85 81 83 87 78 71 70 75 73 72 76 77 77 78 80 90 96 80 80 81 71 61 50 38 31 24 16 6 13 16 21 22 22 27 29 29 30 31 32 34 40 37 34 31 27 25 20 22 29 29 31 27 36 35 36 34 32 26 27 21 22 25 35 45 55 60 65 69 72 73 77 80 80 79 81 85 85 83 90 94 92 95 89 93 97 88 89 95 94 97 95 94 95 87 87 91 88 79 76 72 75 78 81 83 78 82 77 81 93 96 90 94 89 79 68 59 43 35 27 15 12 14 15 20 21 23 28 30 31 31 33 33 40 36 30 29 26 24 19 30 34 42 37 45 42 34 33 33 25 28 24 26 33 42 50 56 64 68 73 79 81 80 85 89 91 90 90 95 92 88 95 98 97 99 96 96 95 90 89 97 97 98 99 100 98 94 87 89 87 85 82 79 83 88 86 87 85 83 79 85 92 96 104 100 101 94 81 78 60 41 35 25 13 14 12 14 18 21 22 28 31 34 32 33 37 33 27 27 26 22 26 33 41 43 55 52 44 47 39 34 33 25 23 27 45 46 57 62 71 76 78 82 89 92 94 95 99 102 102 107 107 102 110 107 107 107 110 102 101 97 95 96 101 104 96 99 98 97 91 93 89 86 89 87 87 92 93 94 87 86 89 89 93 103 106 106 114 109 103 86 78 57 46 33 20 14 14 14 16 17 20 25 29 32 32 30 33 29 26 28 26 28 30 44 44 52 58 50 50 52 40 36 31 29 30 41 50 57 65 74 75 77 81 88 95 99 101 103 106 108 111 113 113 114 118 120 117 119 117 118 112 107 108 103 100 104 97 95 96 96 95 93 92 89 93 93 94 93 96 96 96 93 93 98 99 106 109 116 117 112 117 105 88 78 61 42 26 21 19 18 17 22 19 19 25 30 31 30 32 28 27 25 32 37 44 49 52 60 57 53 52 45 41 34 34 33 45 52 56 66 72 80 79 79 87 93 99 102 103 109 110 113 117 121 118 117 122 125 123 120 117 118 118 116 112 107 104 101 95 97 98 99 96 98 96 96 98 99 98 100 104 103 103 104 102 100 105 114 114 120 118 116 116 117 105 86 78 51 35 28 27 19 16 21 24 17 17 25 32 32 27 28 27 33 38 43 52 51 59 63 55 52 45 39 39 36 38 45 55 55 61 70 75 79 82 91 92 100 102 106 109 113 109 112 110 113 116 117 117 122 121 121 118 116 118 114 116 111 111 107 101 102 101 101 103 102 99 100 101 99 100 103 103 107 110 111 110 106 104 111 118 120 120 114 115 120 114 105 83 80 56 31 32 27 16 23 25 22 19 18 28 31 29 29 29 36 45 53 55 60 62 61 54 43 37 37 39 40 47 55 62 59 66 71 77 81 90 93 96 102 104 106 106 107 103 103 101 101 103 109 112 114 115 119 118 111 109 113 111 109 112 111 109 106 105 103 101 101 101 100 100 97 100 104 106 107 109 110 112 108 107 110 115 116 120 117 113 114 126 123 105 90 82 55 36 42 26 25 25 23 25 22 21 27 30 29 31 39 48 57 61 62 59 56 50 41 37 41 48 47 54 61 60 60 66 75 76 84 91 91 96 98 98 99 101 98 99 95 95 95 98 102 106 106 109 109 109 107 103 104 107 108 105 108 110 105 101 104 101 99 100 100 98 99 100 101 102 109 108 110 115 114 113 114 117 123 119 114 116 110 122 132 121 105 96 75 52 47 36 28 24 26 27 29 22 22 29 30 35 42 51 59 61 63 59 53 40 39 43 50 54 54 61 66 66 69 72 79 78 86 88 92 92 91 90 91 94 89 89 87 86 89 93 90 93 93 98 97 98 100 99 98 99 100 101 104 104 104 101 100 98 96 98 96 94 92 91 93 98 102 105 107 109 111 110 115 117 119 115 119 111 113 118 133 128 116 113 96 66 56 44 33 28 25 28 31 25 23 29 30 40 45 51 63 63 62 59 48 39 42 47 50 54 58 64 68 68 71 75 75 81 87 88 85 83 82 81 82 81 78 83 81 80 84 80 77 78 77 81 81 85 87 88 88 89 90 92 93 92 91 92 93 86 86 88 86 89 86 87 87 89 93 98 99 106 108 106 115 118 121 120 120 118 113 115 126 133 128 121 112 89 67 58 41 34 27 29 32 32 25 30 34 39 47 57 62 64 70 65 53 41 41 45 50 56 58 66 72 71 75 76 80 84 85 81 78 76 75 75 76 73 72 73 73 72 73 68 68 67 67 70 70 71 78 78 77 80 78 81 80 80 84 84 80 76 76 78 77 81 82 83 83 86 85 89 93 97 105 106 108 118 120 123 122 122 121 121 128 136 137 129 122 107 81 68 57 47 39 29 33 32 30 30 40 48 54 60 57 70 77 65 45 42 44 46 50 59 66 70 72 73 74 76 82 84 79 79 75 74 69 69 67 67 66 64 62 62 64 64 64 61 60 59 56 61 64 68 68 71 71 76 75 73 76 76 72 70 72 68 72 74 76 78 81 83 83 84 87 92 100 105 105 109 114 118 119 122 122 129 135 140 138 139 131 117 99 79 63 54 49 35 35 34 31 36 41 48 55 56 64 80 75 54 44 46 48 42 55 64 71 72 75 75 73 79 83 82 77 75 74 68 66 64 62 60 60 61 53 54 58 58 57 54 52 53 51 52 57 57 61 60 65 67 68 69 70 67 68 67 69 69 72 72 75 81 82 85 86 83 86 86 90 99 103 103 110 115 117 122 121 125 132 138 141 145 138 131 106 93 64 56 55 46 34 34 31 43 44 50 52 65 73 78 62 50 47 49 43 46 60 63 69 68 72 76 77 80 84 81 77 76 72 65 64 62 60 57 57 54 50 50 50 52 50 49 46 49 45 48 48 52 53 54 57 61 62 68 71 71 72 73 71 72 71 72 73 84 86 88 90 94 92 89 88 93 102 106 108 114 116 121 119 125 129 130 142 148 146 138 121 93 76 57 50 50 43 33 36 44 46 51 65 78 78 73 61 59 58 46 42 54 61 65 69 68 75 79 82 81 83 83 76 76 69 66 63 57 56 54 52 48 47 46 46 45 45 44 44 46 44 45 46 51 54 57 57 59 61 64 66 67 69 71 72 74 72 72 75 83 90 90 92 98 96 94 95 93 101 104 111 117 120 120 122 128 129 124 134 151 143 140 131 97 86 66 55 56 47 41 41 47 52 60 86 84 88 70 69 67 56 44 48 52 56 68 70 75 77 77 77 79 81 77 73 66 66 65 59 56 55 52 47 48 48 45 43 44 46 45 44 45 46 46 49 51 56 57 54 57 60 61 60 65 70 67 72 75 74 73 81 84 92 93 97 96 101 99 100 104 100 102 110 118 120 122 119 126 130 123 127 138 153 142 133 113 85 77 64 54 51 44 45 50 54 73 87 94 90 77 80 67 56 48 47 54 57 65 72 77 76 77 75 82 81 74 71 64 67 62 59 56 55 53 50 49 48 44 45 48 48 51 48 48 48 47 50 52 59 57 56 55 59 61 61 63 64 68 70 72 73 78 82 85 93 99 101 103 105 107 107 107 107 104 109 118 122 122 119 122 128 128 126 140 150 144 131 119 99 84 62 63 58 48 45 47 60 75 89 99 89 84 85 68 60 52 49 53 56 64 73 76 77 78 78 80 78 72 72 71 68 62 56 54 55 52 53 52 50 48 49 51 53 52 51 51 51 53 54 55 60 59 60 59 62 64 63 65 66 67 69 71 75 77 83 84 90 97 103 107 110 112 115 116 111 110 108 116 125 123 124 121 125 127 128 134 149 145 124 120 110 101 64 58 64 53 45 50 66 76 90 98 96 89 85 71 61 54 48 54 57 64 75 81 82 81 81 80 79 77 73 72 65 62 58 54 56 54 53 51 50 50 53 54 56 56 56 57 57 56 61 59 62 61 65 64 65 66 68 68 70 70 71 75 76 79 82 86 92 97 103 109 112 117 119 124 122 117 113 113 124 128 129 123 123 131 131 142 147 149 130 114 121 107 78 59 65 59 53 64 72 77 94 99 101 90 83 74 63 54 51 56 64 73 82 84 86 87 84 82 79 77 71 68 66 62 57 53 52 55 56 53 56 54 54 57 58 58 59 60 60 60 63 62 64 66 68 70 69 71 73 71 75 75 76 79 80 82 86 90 94 99 105 108 112 117 122 125 130 126 121 114 122 127 129 130 125 132 133 144 152 144 133 115 114 110 87 65 62 65 57 74 74 80 92 105 104 98 84 78 66 59 60 67 75 85 84 88 88 92 82 79 77 73 71 66 62 59 57 53 57 57 54 54 56 55 57 55 57 57 59 61 61 63 66 65 68 68 70 72 73 74 77 78 76 78 80 82 81 83 84 90 97 102 105 111 114 117 127 128 133 132 127 123 122 128 131 135 130 131 132 145 154 147 128 116 115 107 88 67 59 64 62 75 74 80 96 107 104 97 89 82 69 69 71 77 79 89 94 94 89 87 82 75 78 74 69 65 60 59 58 59 59 58 57 56 56 56 55 55 55 57 58 61 62 65 67 69 67 70 72 72 74 76 78 76 74 78 78 77 78 80 85 88 94 99 104 110 117 119 121 127 131 133 133 132 123 130 131 137 136 132 134 138 153 151 125 115 117 108 95 69 57 66 63 71 75 82 97 106 108 100 91 84 81 78 80 83 87 97 101 96 89 83 81 76 74 71 63 59 59 58 61 60 60 58 55 52 55 55 56 55 56 59 60 63 65 67 67 71 70 73 71 73 76 79 76 77 75 78 78 79 77 82 79 84 91 99 103 109 117 124 124 123 126 131 132 140 131 130 131 140 142 139 144 140 153 151 131 110 117 120 102 76 59 65 65 65 74 86 103 108 107 105 97 96 86 83 87 91 97 103 101 93 87 84 77 75 68 66 58 53 54 53 56 58 58 59 54 56 58 58 60 60 60 61 64 67 71 69 70 72 75 75 71 73 76 77 77 77 79 81 83 81 81 84 84 85 90 100 106 109 116 124 128 127 129 127 128 139 143 133 136 139 148 146 148 148 153 154 134 120 114 120 104 81 62 62 65 65 76 90 104 109 105 105 103 95 85 91 95 98 101 105 98 90 87 86 82 74 66 62 54 50 50 50 50 49 50 51 51 54 55 55 57 59 59 62 66 66 70 71 73 75 77 78 73 75 78 79 78 80 80 84 85 84 86 86 89 89 93 99 109 109 113 128 128 128 133 133 129 134 144 142 136 141 152 149 155 153 151 153 136 127 124 118 103 80 63 68 66 70 78 88 106 105 106 106 103 92 89 98 103 101 103 104 95 88 88 89 80 69 67 61 53 52 52 49 49 49 50 51 50 51 49 51 52 55 59 61 64 68 72 73 73 76 78 80 78 78 82 83 80 81 82 84 86 86 85 86 89 93 95 104 111 111 116 125 129 129 132 136 139 132 138 144 145 149 153 155 161 158 154 154 134 132 132 123 108 92 67 63 67 76 81 91 104 107 106 107 103 94 96 106 104 104 106 105 98 93 94 85 77 72 68 60 56 54 58 55 55 54 52 53 49 52 51 51 53 56 57 60 63 68 73 75 76 76 78 81 81 79 80 82 81 80 82 82 84 83 85 86 89 91 96 102 110 112 119 125 133 134 137 139 145 141 135 144 151 154 158 163 162 164 162 156 138 136 129 127 109 97 84 65 72 77 85 91 101 110 106 109 103 97 104 108 110 106 112 109 100 98 95 86 76 77 73 70 64 60 61 61 58 56 55 52 50 52 53 52 57 58 60 63 62 64 69 73 76 78 76 80 80 79 79 79 80 79 79 79 76 78 79 83 83 87 93 97 105 112 115 124 131 138 147 148 149 151 144 142 154 161 158 168 166 161 166 157 140 136 132 133 112 97 83 74 71 77 84 89 103 112 110 111 104 101 111 115 116 114 116 112 106 100 94 89 83 84 78 80 73 67 63 61 57 55 54 52 51 50 53 54 55 57 59 64 64 64 65 69 74 76 77 79 79 79 76 77 76 76 75 75 71 71 73 75 76 81 87 93 99 106 116 120 126 136 148 153 152 153 149 143 151 158 160 167 177 164 170 157 148 135 135 135 124 100 83 78 67 71 79 98 107 115 114 115 102 106 121 125 122 127 125 119 114 107 101 98 95 89 85 83 77 73 65 62 57 54 53 52 51 50 53 54 54 57 60 63 65 66 66 69 72 76 75 78 77 78 73 71 70 71 68 66 66 67 68 73 77 78 84 89 92 100 111 121 128 143 151 158 156 157 155 149 146 154 153 167 169 167 171 158 147 141 136 138 126 98 84 78 70 66 87 108 116 120 119 115 104 110 126 130 134 135 136 130 126 119 105 103 101 94 87 84 79 71 69 65 67 60 57 57 55 53 54 54 54 55 59 63 66 67 67 72 74 77 77 78 78 75 71 69 67 65 64 61 62 63 63 66 71 71 74 77 81 89 95 109 122 139 149 157 157 157 165 154 151 149 148 170 168 166 166 154 146 145 138 133 121 99 78 77 73 65 94 116 125 127 123 116 105 118 130 134 142 143 144 140 141 129 118 108 106 98 95 84 77 71 64 60 61 57 53 50 47 48 45 47 47 50 53 60 63 65 66 72 74 77 79 75 75 72 68 65 62 61 60 55 53 55 51 51 55 61 64 67 71 74 77 92 105 121 138 149 152 154 166 161 156 163 142 160 176 164 154 146 145 152 133 139 123 103 85 72 74 67 102 122 135 134 125 120 111 125 135 142 150 151 144 137 136 122 115 102 102 94 88 77 73 72 63 62 57 52 46 42 41 39 39 41 47 49 54 62 63 68 73 76 75 78 79 76 75 68 66 61 58 57 50 46 44 40 43 45 49 56 63 60 63 65 68 79 91 114 127 142 152 159 171 172 159 178 154 156 179 171 154 146 143 147 140 141 131 108 96 75 74 70 105 123 142 142 128 123 114 133 137 148 153 152 141 138 138 126 115 111 108 94 86 81 79 75 72 72 62 56 51 42 39 36 37 42 45 46 49 61 63 71 77 79 83 84 83 85 83 79 76 68 63 59 49 40 37 34 34 40 45 47 51 51 52 55 60 71 86 105 126 141 142 162 171 181 164 180 169 166 179 179 158 150 149 139 149 151 142 118 96 84 72 77 107 126 140 140 145 125 115 131 138 152 161 155 145 139 138 123 111 109 96 86 77 74 71 69 72 71 65 64 56 54 49 39 38 41 40 47 55 59 70 77 80 80 88 86 86 86 86 87 85 75 68 59 55 47 49 45 45 52 48 47 55 51 56 53 65 82 87 100 117 138 154 155 171 182 173 189 176 168 183 180 156 150 149 143 162 162 150 125 102 94 78 84 110 135 133 134 152 136 116 127 143 160 167 154 143 139 128 117 110 102 85 80 81 78 79 70 70 74 73 66 56 53 51 46 48 45 47 57 61 65 65 75 85 85 92 92 88 92 92 89 87 85 72 62 54 51 54 54 53 59 55 51 56 54 53 55 68 90 91 100 111 127 154 160 167 184 182 188 194 173 184 174 154 153 156 154 174 167 150 127 103 96 89 93 112 140 130 135 150 137 125 131 150 171 174 157 148 150 134 117 114 95 90 88 81 83 81 69 63 68 69 60 49 49 46 45 47 48 51 62 69 69 68 74 87 93 101 104 99 98 100 95 99 94 85 69 60 54 57 58 61 65 66 63 69 64 65 63 73 84 94 98 103 117 135 154 156 180 194 195 199 185 187 175 155 156 158 167 177 173 158 128 106 100 85 98 122 140 127 133 143 138 136 144 153 169 175 165 152 155 142 135 127 115 117 104 90 89 87 77 73 70 75 69 58 54 58 57 56 71 71 73 85 85 84 84 87 99 109 112 107 106 107 110 105 110 97 91 74 66 60 67 77 77 81 82 85 81 82 76 86 91 108 116 126 132 144 157 165 180 196 199 198 194 187 181 163 163 171 172 176 174 158 137 118 102 80 104 126 138 130 129 134 148 153 156 158 174 175 172 163 167 158 156 153 141 141 126 114 114 105 89 86 81 70 75 66 63 67 70 65 79 89 96 106 100 101 102 99 111 118 124 118 115 123 126 125 122 116 107 89 81 80 81 83 91 89 99 99 89 94 86 96 101 112 127 138 148 155 168 180 192 204 204 200 198 189 173 166 165 177 183 183 180 162 135 125 108 86 104 130 138 142 140 139 157 165 170 166 182 187 177 176 179 183 185 173 168 162 144 133 133 120 107 100 92 84 82 81 89 85 88 84 89 97 114 115 116 119 121 118 134 141 137 139 138 134 144 145 138 123 124 119 104 89 96 102 107 109 105 106 108 110 109 104 113 124 134 142 154 168 185 196 199 213 217 208 199 191 171 161 159 187 188 186 184 168 143 132 109 86 99 126 148 148 150 153 166 181 181 178 193 193 187 190 186 201 208 184 175 173 161 147 141 129 122 116 115 104 99 98 109 108 109 106 114 119 129 129 133 135 136 134 148 155 150 151 152 152 156 161 153 134 134 136 126 112 110 118 119 121 114 111 114 133 130 121 120 145 144 151 158 179 199 205 212 220 228 219 206 192 170 161 163 198 188 186 180 172 156 143 118 86 99 126 150 154 162 161 176 182 178 180 189 191 193 195 200 212 220 199 196 183 176 166 158 145 142 141 123 117 117 116 124 134 132 134 129 137 142 136 143 146 147 151 163 164 157 157 156 157 162 173 164 143 142 141 147 131 119 123 123 117 117 118 121 135 142 142 138 138 152 163 168 182 206 215 221 227 239 234 206 191 173 160 174 200 186 180 167 162 153 145 116 91 94 121 140 154 166 169 182 178 173 181 188 190 192 193 211 213 218 209 202 199 193 185 175 168 163 152 138 134 132 130 136 140 142 137 133 145 149 154 153 161 164 169 176 170 168 168 164 164 170 176 174 160 148 145 148 148 138 131 134 140 136 132 126 132 140 148 156 147 156 168 168 181 213 220 223 231 241 240 214 198 180 168 178 193 181 170 168 170 152 150 113 90 91 114 127 153 173 173 195 183 173 182 187 192 188 190 208 207 212 207 207 203 201 196 192 182 180 168 161 157 148 154 154 141 146 141 138 154 158 160 161 170 168 175 181 183 182 176 170 173 181 175 170 166 159 147 156 155 153 146 148 144 143 141 141 143 143 145 157 166 167 170 183 184 209 224 233 230 241 241 225 209 187 174 183 182 182 178 187 181 167 152 115 90 90 116 129 149 175 171 187 183 175 174 185 191 186 183 207 207 205 209 208 209 206 196 192 186 177 172 169 170 167 168 164 159 154 148 154 153 161 163 167 167 172 176 176 183 181 182 177 177 185 177 170 161 161 145 155 158 164 153 151 149 147 141 146 155 166 163 167 181 185 185 194 200 218 231 238 236 244 252 243 214 198 179 180 175 184 185 193 181 176 149 112 85 94 110 138 152 165 156 173 183 166 164 176 179 178 176 190 197 199 203 205 204 205 193 187 176 166 163 169 173 181 183 166 162 158 153 156 154 160 168 172 163 163 163 177 179 179 178 177 171 176 177 173 160 159 153 150 162 162 156 154 147 143 145 154 159 174 177 177 189 194 200 207 215 230 230 241 242 246 252 246 221 190 186 174 169 190 186 185 189 181 154 108 91 88 107 128 155 156 156 160 173 163 153 166 170 168 179 182 189 188 194 192 191 192 188 180 170 166 168 172 173 169 172 160 159 155 154 156 152 154 165 158 160 160 162 172 175 172 167 167 163 164 170 162 157 154 157 147 155 163 166 158 141 136 140 140 160 175 181 187 193 197 207 217 223 231 236 240 237 242 252 248 225 195 188 164 163 186 187 190 187 180 149 113 94 81 94 116 141 153 163 147 154 164 151 163 169 162 177 181 182 179 182 179 183 181 179 177 172 164 164 168 168 164 165 159 155 153 156 155 145 155 155 151 156 153 151 160 155 162 154 155 155 154 158 156 149 157 152 154 159 157 160 159 143 133 136 141 153 174 180 186 191 205 213 220 228 230 233 237 238 243 255 253 222 206 191 165 166 179 192 190 186 179 133 111 93 75 87 102 123 144 154 136 140 159 157 157 164 161 173 176 173 168 176 172 170 169 167 168 168 157 160 165 168 168 161 154 149 148 148 147 151 152 149 145 143 147 142 147 146 148 147 146 150 148 147 151 153 149 150 154 154 152 151 152 147 146 147 151 154 171 180 187 191 199 215 221 228 231 236 240 242 243 245 247 230 206 186 160 157 175 188 181 189 169 120 107 94 76 93 105 113 135 141 142 135 151 158 149 157 158 170 172 169 167 169 166 161 157 157 158 162 157 160 162 166 165 160 152 145 142 144 150 153 150 150 142 132 137 132 133 129 133 134 139 142 139 137 142 151 146 141 143 159 150 145 147 153 163 163 167 168 174 179 193 195 201 212 223 223 229 235 237 238 234 234 239 229 204 196 168 158 163 184 177 178 157 117 96 91 78 91 110 118 130 140 147 141 149 154 134 152 150 162 165 162 166 159 161 153 152 152 149 153 153 153 156 158 157 150 138 133 134 144 151 149 145 136 128 127 138 136 128 127 130 130 134 129 129 133 132 143 140 126 134 143 150 143 145 147 156 168 166 176 180 186 194 201 199 211 220 221 228 232 231 233 226 228 231 223 206 206 174 161 163 179 167 166 141 118 85 86 63 90 111 112 115 147 146 151 155 147 142 142 146 155 161 151 159 151 150 147 145 147 143 147 146 142 144 141 139 135 129 130 134 138 140 141 132 119 114 118 121 128 123 123 127 130 127 128 124 127 129 135 134 122 123 128 131 137 142 147 152 160 164 167 174 182 185 193 196 202 211 212 220 225 227 225 221 220 224 212 207 199 175 172 170 176 165 150 142 115 80 76 51 83 105 103 100 128 140 144 151 151 139 143 140 144 156 153 154 150 147 148 143 139 139 137 139 131 129 128 125 124 124 123 128 130 130 133 124 110 104 100 110 116 118 121 120 122 121 120 115 110 124 123 124 126 119 120 124 120 131 137 142 150 154 159 168 176 178 182 192 200 205 210 217 220 221 221 215 216 214 209 194 191 177 176 176 182 160 148 134 104 73 77 36 75 84 80 85 106 132 140 148 147 133 134 130 144 149 150 146 149 146 147 142 135 132 127 132 126 123 118 114 117 116 119 117 119 123 126 118 103 92 88 89 99 108 111 115 112 108 103 104 105 107 109 112 119 118 114 114 112 113 124 126 137 142 145 158 164 174 173 188 194 200 211 211 217 214 212 213 211 206 203 179 187 177 173 177 178 169 154 125 92 74 78 38 62 77 64 80 102 116 133 143 138 126 131 127 132 146 144 147 147 150 141 140 134 129 125 124 124 122 118 114 115 118 115 112 114 119 121 108 101 89 86 86 84 92 96 104 95 89 91 96 97 99 93 99 99 104 112 106 106 102 106 117 120 135 135 139 148 158 167 177 190 197 204 206 208 204 206 206 202 201 195 174 177 178 180 179 161 166 156 116 90 78 76 51 59 73 56 78 100 102 128 138 136 121 123 126 124 137 144 143 143 144 140 135 129 125 125 125 120 116 113 110 106 107 107 110 113 118 115 105 97 89 86 83 76 81 88 90 85 85 80 84 84 81 73 77 81 86 94 97 98 96 93 108 119 123 127 135 139 149 161 171 179 188 195 199 198 198 200 206 203 197 193 183 172 170 188 188 158 158 147 111 96 78 73 67 54 73 63 71 87 92 115 129 130 122 117 125 128 134 139 140 142 136 137 132 132 126 119 118 115 108 105 100 99 101 106 115 108 111 107 96 89 83 76 69 70 73 71 81 74 75 74 70 77 63 59 61 66 78 85 94 101 92 93 98 107 117 121 125 132 145 160 162 174 183 188 190 187 188 196 207 204 192 192 182 167 170 175 189 146 149 139 114 89 77 70 69 53 71 68 73 96 98 119 127 126 127 122 122 128 131 138 139 140 137 131 131 130 127 121 119 115 106 102 98 100 105 110 108 101 108 104 95 90 80 72 70 70 66 68 65 66 66 68 71 69 62 55 64 66 68 73 85 94 95 95 99 98 107 116 117 128 138 152 160 165 175 176 181 182 184 197 204 196 189 192 180 173 164 167 182 138 152 141 113 82 77 71 52 62 65 67 69 96 102 115 122 126 127 117 125 130 130 136 140 141 140 134 131 129 122 115 113 109 103 97 98 100 107 111 110 108 111 114 105 92 84 73 64 62 55 57 57 63 66 67 73 64 59 54 55 60 65 72 87 96 97 94 99 102 105 110 122 129 136 148 153 157 163 172 179 179 183 196 201 187 181 190 186 177 163 172 179 149 157 131 109 83 74 70 44 61 60 68 75 98 111 113 116 112 124 126 124 130 133 139 145 144 144 140 137 132 130 120 115 111 105 102 101 109 106 107 111 112 113 110 105 95 84 63 56 55 54 61 68 68 69 71 68 59 57 60 62 63 69 79 89 91 95 94 95 99 105 113 121 130 140 144 152 154 161 170 177 179 185 192 195 181 178 181 194 185 170 178 179 151 157 126 111 82 72 72 54 58 56 65 81 96 117 114 117 110 121 128 129 133 139 141 147 147 148 145 142 139 135 127 124 118 116 113 112 117 113 116 121 126 127 119 117 102 81 62 51 61 65 66 71 74 69 67 66 59 57 61 66 83 91 96 103 109 107 106 105 106 111 117 126 138 143 146 150 157 161 169 179 180 189 192 190 181 174 172 183 181 162 177 178 142 150 118 111 81 76 74 61 60 44 57 85 100 116 118 126 120 125 128 137 134 141 144 148 150 154 150 147 144 137 132 129 126 127 125 127 126 124 126 131 137 136 136 123 112 93 76 67 73 79 74 78 78 72 70 65 61 60 65 75 90 100 100 106 115 112 115 114 119 124 128 137 146 148 152 158 163 167 176 178 184 190 192 185 177 173 171 179 180 163 171 172 146 135 116 108 80 76 73 68 63 48 52 79 100 114 121 136 130 133 134 136 139 142 148 153 158 160 157 154 148 144 141 139 134 135 139 136 138 137 138 141 146 148 147 141 126 111 101 92 93 95 88 86 81 77 74 70 68 76 84 92 105 111 108 113 119 124 129 129 133 141 145 148 155 156 158 169 172 173 178 183 188 189 188 180 176 178 172 185 173 159 162 175 161 139 115 112 78 74 72 70 63 58 46 72 90 101 121 140 135 138 149 137 136 145 153 158 165 165 163 160 156 155 155 150 145 146 151 153 153 145 148 150 151 155 150 152 138 126 124 116 113 108 103 100 89 81 81 87 89 91 99 110 120 125 126 127 133 133 134 133 138 149 151 155 159 163 169 174 181 182 183 188 192 187 186 175 179 182 173 172 160 155 166 182 172 137 118 108 76 77 69 72 62 57 52 62 92 96 115 144 145 138 148 154 144 152 156 162 166 168 167 163 162 163 164 161 158 159 165 165 162 156 152 151 155 154 151 154 146 139 143 134 129 115 110 113 107 101 97 102 109 118 119 129 137 140 143 145 148 149 147 148 143 149 155 163 170 174 177 184 187 190 188 192 192 188 185 178 183 182 169 158 160 161 171 182 175 132 115 104 73 78 70 67 60 59 56 55 96 94 109 140 152 149 143 155 154 158 162 163 168 169 168 166 169 171 175 172 169 169 169 169 165 157 152 152 156 156 152 153 151 139 144 140 134 125 125 126 124 121 121 116 120 132 135 141 140 141 154 158 160 163 158 155 151 154 161 166 178 182 182 190 191 192 195 197 195 193 189 188 191 184 169 164 170 162 159 183 162 127 109 97 72 80 68 62 59 61 60 61 93 101 110 135 155 156 157 158 152 155 163 166 170 172 171 174 175 180 181 182 177 174 176 174 162 155 152 152 149 157 156 151 151 143 148 147 140 138 139 140 138 132 134 131 127 132 144 149 148 146 162 170 168 168 165 160 157 158 162 169 182 188 184 192 199 197 196 204 201 199 197 194 197 190 173 173 177 157 164 175 159 127 105 84 74 80 68 62 58 59 55 58 88 97 116 132 146 152 163 167 164 157 161 167 173 173 174 178 180 184 184 188 180 180 181 172 159 153 147 145 146 154 158 156 150 146 149 150 143 138 141 142 138 138 135 135 132 133 132 139 137 139 160 168 170 168 166 161 155 159 163 167 181 185 186 190 200 197 201 208 208 209 206 198 199 189 176 181 175 158 170 173 154 125 95 74 76 76 69 57 60 61 52 61 81 96 106 134 148 154 160 167 180 162 161 167 173 176 178 185 186 189 184 188 183 183 178 167 156 149 142 145 149 148 153 150 148 140 135 136 126 124 129 130 124 123 127 126 122 124 121 121 124 135 144 152 153 157 158 154 153 158 159 160 175 185 185 193 202 199 206 209 211 211 208 200 199 187 177 183 172 164 171 164 149 116 83 69 75 75 66 52 61 65 55 55 69 90 97 124 146 159 160 172 181 166 160 166 172 177 182 188 187 188 186 189 183 175 164 156 141 139 139 143 144 141 144 138 134 129 123 120 117 118 113 120 120 114 113 117 121 121 119 115 117 130 135 141 145 143 145 145 145 150 157 159 171 180 184 193 201 199 209 214 212 213 210 204 202 185 177 180 168 167 166 152 123 100 66 67 72 72 66 56 62 66 56 57 61 74 93 109 133 152 157 169 178 168 164 169 172 178 185 185 186 188 188 189 182 171 153 143 129 125 127 133 132 130 130 122 119 116 110 109 108 109 105 103 107 105 105 106 111 118 115 112 119 128 136 141 142 136 132 140 140 145 151 160 168 177 186 190 199 202 210 215 217 217 216 209 195 178 178 180 161 153 149 114 98 72 63 65 71 66 62 61 63 65 61 59 59 63 84 99 116 137 148 156 167 167 167 171 175 184 187 186 189 189 189 187 185 171 150 136 125 119 119 117 120 118 111 110 111 107 104 104 102 102 94 93 102 99 101 102 106 109 110 113 115 122 126 133 137 136 138 144 141 146 151 154 166 175 185 194 199 203 213 217 220 219 218 218 189 184 175 171 143 132 110 82 75 67 64 61 67 65 58 64 60 59 61 62 59 64 75 86 108 124 136 148 158 171 172 175 180 182 190 189 192 189 188 188 189 176 161 145 132 128 120 118 121 116 109 108 113 111 109 109 107 108 102 102 107 104 103 100 103 105 107 112 116 118 116 126 135 141 151 157 153 156 156 157 167 178 188 196 201 206 212 218 223 218 220 214 189 184 172 159 131 122 83 73 70 64 62 59 63 61 58 65 62 61 59 57 61 65 75 75 98 115 121 136 151 168 177 180 183 179 192 189 198 194 193 194 192 181 173 159 150 137 133 125 122 120 111 109 113 111 110 122 118 115 115 114 118 111 110 108 114 111 112 109 119 121 121 130 139 152 163 170 170 168 163 165 180 186 196 201 206 211 212 220 224 215 213 206 180 177 163 151 118 105 79 72 68 64 62 59 60 62 59 60 65 63 60 57 60 66 70 66 82 103 108 128 143 157 179 187 189 190 196 198 201 206 201 204 201 191 187 177 168 163 152 145 138 134 125 125 123 127 122 128 129 122 124 121 125 121 118 113 114 114 113 113 121 129 143 153 153 156 167 170 174 174 175 172 184 194 200 202 209 215 214 219 224 207 206 195 173 168 150 136 103 96 81 71 64 65 61 55 59 61 62 57 61 62 62 59 60 65 70 58 69 94 106 119 140 149 175 187 197 201 203 204 207 210 210 213 211 199 194 189 182 177 168 163 156 161 151 150 147 152 150 143 145 140 134 129 131 132 126 120 120 117 116 117 127 137 152 164 167 167 174 177 177 180 186 183 191 199 206 205 212 214 219 218 219 201 202 185 171 154 145 124 98 91 80 75 65 63 59 57 60 58 62 59 57 57 63 59 59 67 64 59 63 79 106 113 135 143 164 184 197 202 208 207 213 218 220 219 214 209 204 196 190 178 168 171 170 178 179 174 169 167 167 163 160 152 145 143 137 129 121 115 120 114 115 121 134 147 158 164 171 178 179 185 179 185 187 190 193 198 198 204 212 216 216 218 210 199 202 183 166 146 143 122 99 86 75 74 63 64 60 59 60 58 62 62 60 55 60 61 57 69 60 60 60 74 104 115 129 136 159 173 189 195 205 205 214 219 220 217 214 210 206 197 188 175 163 173 173 179 177 178 173 165 163 154 150 138 130 123 118 111 111 112 112 115 122 128 143 152 163 173 176 183 183 186 184 188 183 189 196 196 196 202 211 218 218 216 207 200 203 175 157 142 141 118 95 80 72 70 67 64 62 61 59 62 61 62 59 57 58 57 64 69 61 60 57 69 94 119 128 131 157 161 173 184 192 202 204 210 213 210 209 202 202 193 186 179 168 181 181 187 183 174 173 166 159 153 149 138 130 120 117 110 115 114 116 113 122 128 137 147 158 173 181 185 187 185 185 188 188 192 197 198 196 202 214 218 215 212 200 206 197 170 152 140 142 111 92 79 76 68 68 67 64 63 62 62 60 50 57 58 54 56 67 66 59 62 55 59 83 111 122 129 146 158 164 177 186 193 194 198 201 195 200 195 193 185 181 178 175 180 183 181 183 173 163 152 148 143 140 129 121 117 119 119 119 118 118 123 129 131 137 142 158 168 178 184 185 181 183 191 191 195 195 197 194 203 212 215 217 208 203 207 193 165 145 141 137 104 89 79 75 70 68 68 66 65 66 62 60 51 53 56 54 55 66 66 58 60 58 54 75 99 114 129 142 158 161 169 185 188 185 184 190 182 187 178 174 171 167 163 171 174 176 173 174 170 161 157 150 141 134 128 126 124 122 121 121 118 118 120 125 130 133 145 156 167 174 178 182 184 187 187 190 189 192 192 195 204 211 215 213 213 207 205 184 161 141 141 129 101 84 80 76 70 72 70 66 68 67 63 62 52 54 54 56 60 63 65 63 63 60 55 72 92 106 126 142 155 161 163 174 184 186 180 185 185 183 174 170 164 162 160 166 169 168 164 164 162 158 155 146 144 141 134 134 127 125 127 125 130 130 130 135 143 146 156 165 175 181 182 181 187 191 188 190 192 193 191 196 205 210 212 217 217 210 203 174 156 140 138 122 95 80 82 74 72 75 72 67 68 66 65 65 54 54 55 57 60 65 65 64 61 55 60 72 90 100 120 145 157 163 164 165 183 186 186 180 182 185 176 171 170 163 162 165 167 168 167 161 164 153 151 144 144 139 135 132 133 129 130 132 136 143 147 153 161 163 170 177 185 190 190 190 193 194 192 194 191 190 191 198 207 210 210 225 213 212 202 170 150 142 133 111 90 81 79 75 77 76 72 70 66 65 65 68 53 56 55 57 62 64 64 61 57 56 60 78 89 100 112 142 158 164 164 162 175 185 188 187 185 186 180 172 171 167 165 164 164 164 170 166 167 163 157 155 152 144 137 134 136 132 130 133 138 146 153 162 170 176 182 190 195 196 196 199 196 200 199 194 190 191 196 200 207 208 212 228 213 218 191 165 152 142 123 104 88 83 74 77 78 77 72 73 69 63 67 68 54 55 57 57 60 61 63 54 55 56 63 79 89 102 111 136 160 166 164 167 166 178 189 187 186 181 177 175 168 170 167 162 158 161 167 164 165 164 164 160 157 149 143 140 140 137 139 144 147 152 155 164 172 182 190 197 200 198 200 201 201 200 201 194 191 195 202 200 205 206 215 225 219 212 181 162 147 140 116 100 89 81 74 78 75 76 76 72 70 68 65 65 57 56 60 60 58 61 62 52 52 58 67 83 85 100 115 129 158 168 163 166 165 176 184 185 187 183 176 174 168 167 166 160 155 160 161 161 159 157 158 158 157 152 155 148 148 146 148 152 153 154 158 164 169 181 189 199 200 199 203 199 202 199 198 195 193 195 195 199 201 204 216 219 219 206 176 161 147 126 116 103 89 80 79 77 76 76 76 75 73 68 65 62 58 57 61 58 58 63 61 56 55 57 70 83 88 103 118 127 149 163 164 160 160 174 175 180 183 179 175 170 170 161 159 158 153 155 157 162 162 158 155 157 152 152 151 147 144 144 146 146 149 152 157 162 166 174 184 189 192 194 200 198 196 195 194 193 195 193 190 188 196 202 220 221 214 202 181 154 143 123 108 106 92 77 80 78 77 74 78 77 75 67 70 64 58 61 62 60 60 63 61 63 58 58 69 87 95 107 112 124 143 158 162 158 160 163 173 169 171 169 168 165 162 158 151 150 144 148 146 150 150 149 148 147 146 145 145 142 138 138 137 139 141 147 152 154 162 165 172 175 183 186 194 192 189 190 191 187 188 186 184 180 198 203 221 223 212 208 184 151 140 124 108 100 95 83 79 77 77 76 77 74 74 71 69 66 59 62 64 58 61 59 59 67 63 62 75 90 99 106 108 117 143 158 156 157 158 166 158 160 163 158 157 156 154 153 148 147 141 135 134 130 134 133 137 137 134 135 130 131 126 124 127 129 132 136 143 145 152 155 160 163 172 179 185 184 181 185 186 178 179 175 176 179 191 202 220 222 213 210 185 149 137 124 111 101 98 87 81 79 77 76 77 76 75 71 70 71 62 61 62 57 61 57 61 70 66 67 81 92 100 103 108 113 141 161 157 155 154 162 158 158 155 151 148 149 150 146 141 139 137 130 126 118 120 118 120 118 119 117 113 113 108 108 112 114 119 124 128 134 140 145 150 156 161 167 175 170 172 178 176 172 172 169 169 180 189 200 221 218 204 201 187 147 135 124 113 106 99 91 82 77 77 75 79 76 74 70 73 72 62 60 61 57 61 60 69 74 70 75 82 90 96 106 109 110 136 160 164 156 155 157 158 165 157 148 147 145 143 138 131 124 123 120 119 114 108 109 107 102 104 103 100 99 97 97 101 103 109 114 116 123 130 134 141 147 150 155 162 166 166 172 173 165 163 166 164 178 187 197 225 215 202 198 186 156 133 119 115 109 102 93 89 78 78 77 77 76 75 69 72 71 63 60 61 60 67 66 75 75 73 79 81 85 95 108 108 111 135 156 164 164 155 157 160 176 167 153 147 143 140 137 127 123 114 109 111 110 104 103 101 99 97 97 91 92 92 94 95 98 101 106 110 116 122 126 133 138 144 147 155 159 163 164 164 160 158 159 165 177 188 204 225 214 196 193 189 174 132 119 109 112 110 93 91 81 75 78 81 74 75 72 72 71 61 60 62 62 70 72 75 73 77 82 80 80 88 115 119 107 140 159 163 167 160 159 158 171 177 163 153 149 138 142 131 126 117 111 106 103 102 97 94 93 92 91 89 91 90 92 95 96 98 102 109 112 119 122 126 133 138 139 146 151 155 155 153 155 155 154 162 176 194 206 220 207 195 190 178 168 137 122 110 110 111 100 91 88 76 78 78 77 76 72 74 74 60 65 62 62 70 75 76 75 77 84 80 74 93 125 116 108 147 164 166 162 163 167 159 167 181 175 164 157 147 143 141 134 126 118 114 108 104 101 98 96 94 92 91 91 92 90 94 99 102 107 112 114 118 124 127 128 134 135 140 143 148 146 146 149 146 154 165 184 195 208 217 206 205 189 177 165 134 121 118 108 112 105 95 91 82 79 78 78 76 76 76 76 63 66 62 68 72 76 80 75 74 89 82 74 104 118 116 117 149 168 171 161 163 170 169 170 177 184 176 172 161 152 149 146 139 133 126 119 112 110 106 105 104 100 101 97 99 98 100 106 111 116 119 123 127 127 128 130 132 137 141 138 143 143 145 145 150 159 177 192 194 208 218 205 209 190 174 171 139 119 119 113 110 107 102 95 89 80 78 80 78 77 79 78 68 71 67 76 76 77 81 77 76 92 84 84 103 113 123 122 150 169 171 165 163 166 177 180 180 185 190 186 178 164 162 157 148 145 138 131 125 119 118 114 116 112 114 111 110 113 113 118 124 129 126 131 133 133 133 134 136 139 138 138 140 143 144 147 156 164 183 198 198 208 210 203 201 186 176 162 145 120 120 117 110 101 108 100 91 87 80 79 81 78 81 80 74 80 76 83 80 79 85 76 81 91 95 82 100 115 130 127 149 167 171 167 161 170 178 185 187 187 196 197 192 181 175 171 165 162 152 143 141 138 132 128 126 127 126 126 125 130 133 141 140 146 142 138 138 141 137 139 140 142 140 140 145 146 149 153 162 173 191 200 199 208 202 203 189 185 180 163 150 117 126 118 107 99 103 105 96 92 81 82 82 82 80 83 78 82 82 89 82 84 87 77 83 94 89 87 99 121 134 125 151 165 165 169 165 162 182 182 192 194 196 204 205 203 193 190 183 179 172 167 158 156 154 150 146 146 147 149 149 150 157 159 156 158 153 151 149 145 145 148 150 151 150 148 150 155 159 158 171 186 195 199 200 212 203 202 180 180 186 159 153 126 122 119 110 99 97 104 101 91 81 81 81 82 80 80 79 83 86 90 84 84 87 78 89 90 84 91 101 127 136 127 151 161 169 159 168 164 179 183 189 195 199 205 210 215 211 206 203 199 192 189 186 180 174 172 169 172 173 170 172 173 176 177 172 168 163 161 161 162 160 157 156 161 161 159 162 166 165 170 179 189 194 193 201 219 207 197 183 180 185 155 149 131 123 117 112 101 92 100 106 93 84 80 80 81 81 80 80 86 87 87 85 83 86 87 93 83 85 100 105 125 142 136 156 159 167 155 158 167 178 182 187 194 201 208 211 219 218 216 216 216 213 206 207 202 196 190 188 187 186 185 188 187 184 184 183 177 176 172 177 174 172 169 171 174 169 169 167 169 171 172 179 186 188 193 199 216 208 197 179 174 179 158 141 134 121 115 113 112 97 93 104 100 89 83 79 79 80 81 79 84 84 85 86 85 93 89 92 88 88 105 117 130 148 143 156 161 159 151 155 163 175 181 181 190 199 207 210 218 221 220 217 220 221 220 218 214 214 208 208 204 200 199 197 193 190 188 186 181 182 181 178 181 178 185 182 177 173 174 172 170 169 175 183 186 183 192 199 210 211 200 182 171 178 163 132 132 124 118 116 115 116 93 97 101 94 82 79 78 79 78 81 87 88 88 95 93 96 92 97 103 101 124 132 132 144 146 152 165 153 143 154 162 169 176 180 180 193 204 210 216 222 223 224 224 225 227 226 222 220 216 218 214 209 204 201 191 190 188 186 185 184 183 184 188 188 187 182 178 176 177 171 171 168 176 187 184 181 197 205 203 207 195 180 171 180 167 137 127 126 126 119 119 133 112 96 101 99 85 79 79 78 81 