P2
92
112
255
94 97 98 98 100 105 110 105 107 106 109 97 101 101 103 103 105 94 91 95 117 121 134 135 144 156 166 171 176 177 185 189 175 167 167 179 177 182 175 169 173 172 168 165 161 162 167 155 147 152 163 169 167 167 172 177 178 190 195 194 187 189 191 186 175 181 194 191 191 184 174 176 170 165 168 177 175 161 157 151 143 141 143 142 143 141 144 143 137 141 132 131 95 96 95 96 97 106 107 101 106 108 104 97 95 102 103 107 100 96 103 130 146 154 160 165 169 171 179 176 178 180 185 186 176 164 168 159 156 157 147 144 150 146 148 142 145 152 157 155 142 150 167 178 175 177 180 187 190 191 191 195 189 179 180 182 178 172 178 185 186 193 190 179 177 171 167 166 176 167 162 158 155 142 144 140 136 143 144 145 132 140 141 133 95 96 96 96 101 103 97 105 106 103 97 89 98 96 103 105 100 115 133 150 165 174 178 182 180 178 186 189 182 176 173 174 160 152 146 143 130 130 124 116 116 125 123 123 122 136 136 142 137 148 152 158 160 177 179 191 191 194 193 193 196 191 178 178 181 176 179 182 175 180 189 186 179 181 175 167 168 174 178 161 162 150 145 136 132 140 138 147 141 134 140 135 95 97 93 89 99 97 95 93 101 92 91 94 99 103 102 105 118 130 155 168 180 189 188 188 180 170 172 175 179 159 153 149 134 123 117 116 119 107 105 111 113 111 112 111 109 113 120 127 129 133 146 147 154 171 172 181 174 179 188 193 188 189 183 183 183 185 179 174 172 171 170 183 187 193 190 181 164 172 179 172 165 162 148 130 132 135 136 140 143 134 134 136 94 96 92 89 91 93 90 88 89 88 94 90 100 105 110 113 126 151 173 185 188 191 193 184 172 170 163 164 153 140 126 121 118 112 105 96 104 100 109 98 101 115 109 108 96 108 99 99 108 131 131 140 146 159 168 162 158 167 175 185 183 179 189 178 179 182 178 180 170 166 166 173 184 187 201 198 188 166 172 175 169 165 160 140 128 126 136 137 140 140 128 131 95 94 94 90 89 83 89 87 77 79 85 85 87 103 113 120 137 163 184 194 196 196 199 193 177 176 157 142 124 104 96 90 90 91 80 90 92 96 101 103 105 107 103 99 105 112 102 91 94 106 125 131 134 138 147 144 155 160 162 173 169 174 180 177 175 167 160 168 173 161 161 170 178 177 176 187 197 191 170 171 175 166 160 153 139 126 128 132 131 141 134 126 100 93 91 91 86 81 83 84 75 77 85 79 89 108 122 134 151 172 189 197 197 200 191 189 178 162 146 125 109 98 84 74 85 79 80 75 76 85 90 97 106 104 104 92 93 96 93 89 88 95 107 115 119 118 130 132 136 148 162 166 167 166 156 165 170 163 155 160 164 152 158 161 175 182 173 174 185 191 182 174 170 176 167 156 146 132 122 125 129 131 135 128 99 93 93 88 82 77 73 75 73 73 70 73 98 127 137 149 163 179 181 190 192 193 189 189 165 148 134 119 105 92 90 81 79 75 76 77 81 83 89 99 104 99 96 100 94 91 95 91 92 99 103 102 111 111 109 112 115 122 137 157 164 165 159 165 162 163 162 156 151 155 159 156 163 169 172 166 178 186 179 173 164 163 175 164 148 130 128 114 122 124 132 134 95 89 94 80 76 70 70 68 62 59 66 87 114 142 155 160 164 170 177 190 193 189 180 170 157 138 123 114 100 88 83 82 79 75 71 83 80 90 88 96 107 114 104 103 106 106 105 98 92 92 91 92 98 101 105 103 109 110 121 135 154 165 157 158 167 162 160 161 147 156 168 165 152 150 168 162 162 172 177 163 158 150 159 164 154 139 131 120 116 120 127 133 88 86 85 79 70 70 64 61 54 61 80 108 132 145 154 158 166 175 180 190 180 172 158 150 137 123 113 106 96 84 74 74 77 72 72 81 84 88 100 103 102 107 105 106 105 106 103 102 95 95 92 97 98 100 106 108 110 110 117 130 134 147 158 147 155 165 163 169 152 147 143 155 164 163 163 163 157 154 158 150 149 143 148 150 152 145 133 127 121 117 123 119 82 79 77 71 68 73 63 44 59 88 96 122 139 144 156 157 178 183 186 182 171 160 146 138 128 113 106 96 90 79 72 68 72 74 81 82 84 92 100 110 113 112 110 106 116 115 104 107 101 101 96 96 102 101 103 109 102 108 117 130 135 137 149 154 146 160 163 160 157 156 148 152 162 180 161 159 160 162 157 148 135 141 140 141 146 138 137 127 126 115 125 116 80 81 77 74 72 68 58 48 69 96 115 127 146 146 152 157 176 178 180 170 155 145 137 134 117 108 99 100 92 87 81 85 85 84 86 84 91 94 101 99 114 116 108 110 112 114 112 107 109 110 109 106 104 103 107 115 106 109 111 126 137 135 141 149 152 162 161 157 155 144 145 142 145 164 171 165 157 149 155 150 130 123 124 133 142 137 128 127 122 122 118 124 80 80 78 69 63 65 59 65 88 102 127 141 143 148 158 171 172 174 163 148 135 131 130 121 112 115 106 95 97 96 98 100 98 96 99 97 99 107 107 105 103 109 114 111 119 118 118 117 116 112 109 116 115 114 118 115 109 112 114 118 132 134 141 147 148 160 171 167 166 152 141 137 138 136 154 170 155 150 138 139 122 118 116 112 123 133 127 125 116 120 118 129 79 78 75 72 67 74 70 93 100 113 139 139 139 161 165 167 164 156 137 130 127 121 120 114 111 106 103 98 98 100 101 98 100 104 104 104 105 111 113 115 120 120 120 120 122 124 122 128 129 125 121 125 125 122 120 118 112 115 116 119 126 134 142 143 146 145 168 179 172 163 158 148 148 142 140 154 155 157 142 131 123 115 115 103 100 113 129 134 121 120 116 124 80 76 85 82 84 90 99 99 112 128 147 139 158 167 167 161 158 139 121 122 121 114 107 107 100 96 100 99 98 98 105 105 102 106 107 108 115 118 125 122 128 131 129 128 134 132 134 139 143 142 134 139 142 133 128 124 120 123 123 135 138 136 150 146 144 140 151 170 177 171 169 164 149 146 142 139 142 140 140 130 127 102 111 105 93 102 115 124 131 122 110 119 85 83 93 98 101 102 99 108 122 147 144 156 167 172 157 151 139 127 114 112 111 105 96 94 91 93 96 97 97 102 107 107 109 112 117 113 118 127 136 138 141 147 145 138 154 148 150 149 157 157 152 149 151 143 138 134 129 127 125 138 137 129 136 143 139 140 135 148 165 168 164 174 152 144 142 138 138 137 130 129 133 107 97 97 85 95 119 112 120 134 113 114 88 91 95 101 111 106 101 116 128 159 152 158 168 164 145 137 121 112 106 107 107 104 96 94 92 98 92 95 102 107 114 116 114 119 123 125 134 143 148 153 152 159 162 156 164 166 159 159 167 167 166 168 163 157 143 135 131 131 128 131 131 123 126 132 129 135 136 137 150 150 150 156 162 153 145 136 137 136 147 139 127 136 94 85 71 79 104 111 110 132 126 116 93 93 110 104 112 118 115 129 151 155 157 156 160 149 135 121 110 101 100 103 104 97 92 89 93 96 96 100 105 117 118 124 131 136 136 142 149 156 164 163 172 177 178 178 175 176 180 172 174 177 174 175 179 168 158 145 133 135 133 129 129 124 124 127 132 136 136 138 137 135 138 144 154 155 148 140 129 129 138 147 130 132 104 88 73 64 97 102 113 122 127 109 85 94 104 110 110 117 130 150 157 151 154 161 152 137 123 111 99 99 91 101 98 91 90 88 90 94 99 111 114 119 129 133 142 144 149 157 164 167 176 180 184 188 194 192 190 187 194 190 185 189 190 187 187 180 165 152 132 133 130 132 125 124 124 124 130 133 138 134 134 129 134 138 152 158 154 147 132 134 130 133 143 123 126 100 76 60 72 96 106 117 117 109 86 83 106 102 114 136 141 152 150 147 149 152 138 118 106 104 98 94 99 97 98 91 91 91 93 99 106 116 121 132 138 142 150 152 156 167 172 178 182 188 195 199 204 203 200 200 200 200 192 190 190 187 178 175 167 162 145 133 131 128 125 125 120 120 126 128 132 125 130 130 130 127 130 153 152 150 140 138 129 123 135 127 124 101 93 68 60 77 100 111 104 108 85 86 109 110 127 143 140 142 150 143 141 134 126 109 101 101 95 97 100 90 93 88 88 93 103 105 111 118 128 139 146 146 153 158 162 171 173 183 184 192 200 203 202 208 203 199 199 192 188 186 189 187 176 178 173 168 155 141 127 124 127 124 119 118 121 121 127 120 116 121 122 124 122 138 146 147 141 137 126 131 127 140 130 106 104 87 69 68 84 104 97 101 84 94 98 116 126 137 135 152 158 134 126 122 113 102 103 102 100 99 89 86 91 90 92 101 105 114 118 126 137 145 151 148 153 159 160 169 174 179 183 186 195 193 197 195 194 190 192 184 182 185 182 182 180 177 174 170 154 148 136 122 121 121 112 116 115 118 120 116 111 111 115 115 119 128 140 141 135 144 131 135 132 132 145 118 109 96 72 69 72 96 100 95 99 106 95 113 126 132 145 157 141 124 122 108 100 99 106 108 102 91 82 80 88 94 99 107 114 122 126 135 143 143 151 152 158 157 164 166 165 166 164 173 181 185 181 181 181 180 179 173 173 176 175 175 173 172 170 166 161 147 137 129 124 121 118 115 113 112 116 115 109 102 108 106 110 115 135 138 134 140 145 139 143 137 143 145 111 92 81 74 68 83 101 99 105 103 94 107 122 139 142 146 129 124 113 101 95 95 107 107 95 82 79 82 96 95 107 119 124 129 137 143 143 143 151 153 156 150 154 159 159 156 154 165 166 171 171 173 170 171 171 175 172 174 170 170 164 162 163 161 155 148 140 139 128 124 119 113 112 112 110 111 105 103 107 105 106 105 119 137 139 135 146 144 146 139 146 149 123 92 85 80 66 79 86 111 106 103 99 109 126 138 132 136 129 122 107 94 93 100 106 103 88 81 84 91 97 102 117 124 132 135 136 135 137 136 138 139 141 139 140 148 152 146 152 158 161 164 162 166 163 162 161 165 170 167 166 167 159 165 158 153 150 148 147 147 137 125 126 116 117 113 110 111 109 100 104 105 96 99 104 126 141 138 141 152 141 143 140 141 133 94 85 71 76 75 94 114 108 111 104 117 136 130 129 139 128 104 93 89 84 97 102 93 85 82 83 87 97 108 116 118 121 130 130 131 130 129 128 127 131 131 134 139 142 149 153 153 154 154 158 157 159 160 155 155 158 157 162 162 161 154 157 150 150 149 147 138 134 123 122 119 121 118 117 112 110 105 106 106 96 98 99 114 132 137 138 152 133 141 140 142 133 108 96 74 68 76 100 120 110 113 115 120 131 140 135 140 116 100 82 93 92 88 88 88 89 91 81 89 102 112 111 115 116 124 125 125 121 123 123 125 125 128 131 133 139 143 153 152 151 152 155 154 156 158 152 151 150 150 154 157 154 156 149 147 146 147 142 134 133 124 117 117 115 120 122 116 113 110 116 110 106 109 102 103 126 130 139 135 142 135 139 137 145 124 95 72 70 75 91 113 102 115 115 117 129 147 139 141 112 105 87 93 89 81 83 86 93 94 94 95 103 109 104 109 119 122 120 116 112 116 118 122 122 128 133 130 136 141 144 146 148 150 153 150 152 158 151 149 141 139 142 147 151 154 149 146 141 148 138 134 133 126 117 115 114 115 124 118 118 116 124 117 113 112 116 106 120 121 117 127 132 138 139 138 149 135 105 70 74 77 88 102 104 114 114 118 134 154 154 134 123 111 93 91 90 87 86 95 104 106 109 99 104 104 113 113 120 119 110 110 110 113 113 115 115 119 124 127 132 134 138 141 144 145 147 148 147 150 150 148 139 144 142 146 152 154 153 146 146 144 143 138 131 125 121 118 117 114 122 121 117 123 124 119 121 118 114 120 134 125 120 131 127 140 146 152 145 151 111 81 70 72 79 89 105 108 107 118 134 145 146 135 138 109 101 101 102 99 92 101 109 119 125 109 104 113 118 116 114 114 112 112 112 114 114 115 108 111 117 121 127 127 131 132 134 136 137 141 139 146 147 145 139 144 139 147 145 148 154 144 146 145 143 142 134 125 122 120 120 118 117 118 115 122 124 122 121 120 119 123 131 127 129 123 127 139 143 163 153 148 111 96 66 65 73 85 118 97 107 104 134 152 148 142 140 113 107 113 105 107 102 110 121 125 128 118 113 119 113 118 114 116 117 115 112 110 114 109 109 107 116 113 118 120 125 127 125 129 130 137 132 136 139 138 133 136 132 138 142 147 149 144 144 145 139 134 133 130 125 124 124 125 117 117 119 120 129 126 129 132 124 118 135 129 136 121 123 132 150 151 165 153 112 94 72 54 65 90 115 103 92 91 132 150 146 138 148 123 109 129 115 111 110 121 129 130 129 119 119 120 116 121 119 117 117 116 113 110 109 104 102 102 108 102 106 116 123 120 123 128 126 128 126 126 127 124 124 123 126 126 129 139 133 135 135 138 134 132 135 134 125 130 126 125 125 118 117 121 132 139 135 131 127 124 133 131 124 125 119 123 142 151 164 168 121 83 78 59 71 84 111 101 80 91 140 154 143 141 154 130 125 132 129 115 120 124 131 131 130 123 121 119 122 122 119 116 116 119 114 118 112 103 106 104 106 109 109 110 119 115 116 122 118 116 120 116 117 113 113 114 120 119 120 129 120 118 120 125 131 127 132 134 135 135 133 124 131 122 118 122 126 137 137 132 130 119 130 129 122 131 122 106 122 156 167 180 136 100 74 69 79 88 108 102 85 97 129 147 145 146 159 147 136 131 124 121 118 124 125 130 130 124 121 120 121 121 124 126 124 121 122 118 118 110 110 109 109 114 120 112 113 115 114 117 112 110 104 104 103 96 101 108 111 120 119 121 115 112 113 113 119 125 128 134 141 140 141 130 129 131 122 131 124 133 133 139 129 127 126 123 129 133 131 107 118 145 166 167 140 108 81 60 73 90 103 100 85 94 124 144 146 153 169 157 142 130 125 123 125 120 131 130 134 128 130 130 132 131 136 134 130 124 121 116 110 107 107 113 111 116 121 120 118 120 115 110 111 101 94 103 104 106 106 110 110 110 108 109 110 105 108 107 117 119 125 130 139 147 140 130 145 133 133 137 134 140 134 139 136 135 133 125 131 135 135 105 115 140 166 158 144 116 78 51 70 86 103 99 77 91 122 149 147 159 172 168 139 135 122 128 127 127 128 124 122 125 126 133 133 133 137 136 134 127 130 129 128 127 133 134 134 130 134 130 125 118 114 113 106 105 102 105 104 101 100 99 102 99 101 101 105 106 108 108 112 114 117 125 140 141 133 127 134 136 138 144 145 153 141 131 139 135 133 130 128 136 133 118 122 146 162 165 139 114 67 51 64 75 122 104 79 86 120 146 145 162 181 167 141 131 122 123 120 119 126 125 126 125 124 132 137 131 128 134 136 130 138 130 130 129 130 143 139 137 140 131 125 116 110 105 107 104 104 104 101 100 96 88 90 93 97 94 100 103 104 106 106 113 113 124 137 143 130 125 124 128 133 144 145 158 151 137 144 143 142 136 134 138 141 116 126 148 166 161 140 115 72 54 54 65 133 108 77 82 118 136 147 162 179 167 142 125 110 113 117 108 118 130 127 119 123 126 124 122 123 123 121 131 139 136 126 115 118 121 116 116 119 116 115 116 106 103 106 105 100 98 96 92 89 82 84 86 88 92 96 102 100 106 108 114 117 119 130 134 137 129 124 126 134 146 152 155 154 147 147 151 155 149 142 152 152 140 124 137 167 164 147 115 79 48 48 71 137 100 78 76 107 126 153 154 179 162 135 112 102 109 107 117 124 131 125 114 128 123 120 118 119 119 124 125 138 142 133 123 119 117 118 117 114 109 109 110 106 104 102 101 97 95 93 89 88 84 84 84 92 93 97 98 99 105 114 116 117 119 124 131 128 132 123 120 126 145 158 159 161 158 153 159 167 157 145 167 155 167 150 133 148 170 156 115 85 44 38 65 135 106 74 62 104 131 153 163 180 158 126 117 119 116 116 115 123 122 119 117 115 111 112 108 110 111 112 123 129 134 126 120 121 124 123 122 120 115 111 109 107 105 104 101 99 96 91 89 90 84 86 85 86 88 82 87 89 88 96 102 105 107 111 120 125 123 123 123 136 150 158 167 167 172 166 175 180 160 154 174 165 172 163 143 150 168 157 116 68 41 38 69 137 103 76 56 86 132 156 167 177 140 144 144 122 118 115 119 119 117 114 107 102 96 95 98 97 98 97 104 108 116 107 110 105 116 122 117 113 114 115 110 109 109 106 105 100 95 94 88 89 86 88 86 83 83 73 77 84 87 86 91 92 97 95 106 121 120 131 141 150 163 162 160 166 166 161 166 172 161 148 171 166 177 166 146 151 158 155 109 59 38 43 76 145 103 72 50 85 136 163 172 157 153 159 141 116 113 117 130 120 118 109 109 103 106 98 97 89 90 93 103 112 113 111 118 110 108 121 117 118 116 120 112 115 116 119 115 107 102 94 92 90 84 86 84 79 79 70 72 80 80 83 93 97 99 93 98 112 115 126 139 149 163 172 167 171 182 180 178 191 179 167 179 174 174 176 146 143 150 149 112 42 36 47 79 144 94 80 52 72 117 164 143 164 153 146 140 105 96 106 111 104 113 105 101 99 104 101 97 100 98 93 95 96 96 94 93 93 96 104 106 105 109 111 108 111 114 125 118 115 114 99 88 85 80 78 76 79 69 58 56 58 59 58 71 85 107 92 87 98 104 110 120 140 154 168 159 171 197 190 175 200 191 182 201 201 199 178 134 139 124 130 80 29 20 53 77 125 83 89 59 75 110 133 137 153 133 139 124 94 77 100 110 106 109 109 107 102 99 96 86 81 74 66 67 69 67 65 72 69 75 83 88 91 100 106 105 118 116 127 128 132 132 121 96 91 91 82 74 78 79 61 58 63 59 50 54 88 97 84 95 100 106 111 122 146 171 176 158 154 172 171 160 189 185 188 197 211 197 197 146 129 121 111 56 26 13 46 82 110 99 83 67 92 108 114 156 141 120 136 116 93 78 94 116 109 106 109 107 103 105 107 96 95 88 81 67 72 69 64 66 74 74 80 87 89 100 108 121 122 126 131 129 125 125 115 104 103 107 94 89 82 71 64 61 60 68 70 57 76 102 89 109 104 117 135 132 144 167 181 177 162 165 171 168 202 186 198 200 214 180 210 138 128 123 82 43 30 21 31 63 110 120 96 73 84 126 117 152 132 132 137 115 79 86 100 112 110 109 114 102 110 119 116 110 95 101 87 76 70 67 68 67 75 84 88 98 105 116 120 123 130 136 136 137 131 122 119 123 110 109 96 83 78 63 60 71 71 75 93 81 98 115 108 118 124 144 170 162 168 172 189 191 186 171 166 173 205 210 204 203 213 183 192 155 108 99 80 54 13 22 26 74 133 138 110 99 83 116 105 145 128 136 121 103 90 87 112 112 106 115 106 102 121 126 116 108 95 101 95 79 68 63 61 63 72 86 94 108 107 116 121 126 135 141 139 137 134 120 121 126 129 121 114 94 92 94 97 87 87 98 108 100 115 113 135 151 157 182 189 199 194 201 205 195 197 189 170 173 184 199 196 189 210 175 194 147 67 91 78 54 23 38 46 78 154 138 121 130 91 104 92 121 136 130 96 99 94 91 105 106 109 116 112 125 126 130 124 119 109 96 85 83 82 82 72 81 92 89 113 118 132 133 143 150 142 138 150 145 152 128 129 142 136 127 126 109 112 102 115 133 107 108 125 135 143 135 141 157 173 187 193 207 204 199 209 188 185 193 175 177 170 178 173 168 183 171 183 135 60 42 57 65 41 30 72 81 162 136 139 134 100 106 100 109 121 118 101 116 108 99 104 102 107 118 114 129 141 139 115 103 109 101 93 88 98 106 103 106 106 107 122 125 147 154 151 155 165 153 163 158 153 138 145 134 151 134 136 123 126 120 127 140 131 137 148 148 141 140 150 161 179 191 200 194 197 196 186 188 173 175 172 167 169 167 174 156 166 174 172 131 71 48 52 77 46 29 69 86 173 155 147 149 130 117 102 100 102 116 113 131 120 118 110 93 110 111 118 136 140 135 117 106 111 113 112 111 122 130 127 127 134 137 146 156 152 146 147 175 167 166 172 182 156 156 159 157 169 164 153 146 151 150 149 162 162 155 158 157 160 155 161 158 167 186 184 178 172 183 182 182 179 173 175 169 177 188 171 151 159 170 141 113 85 60 52 66 47 59 54 96 168 156 151 164 148 141 115 106 94 134 125 140 124 124 115 128 125 111 108 138 140 127 126 116 119 119 121 119 130 142 157 154 156 169 164 165 168 142 150 167 171 173 181 196 168 163 169 165 172 169 159 152 155 140 140 152 150 143 146 150 158 147 143 154 153 162 180 177 178 153 163 164 161 163 164 164 172 181 167 151 153 170 117 89 91 73 39 66 37 54 63 97 175 147 132 173 148 152 132 138 115 131 133 141 118 128 135 140 132 113 121 127 134 122 128 122 130 135 126 123 130 131 143 162 159 164 155 144 143 145 149 156 161 174 185 189 167 163 171 164 165 156 151 142 146 144 140 153 159 156 146 146 163 149 137 149 171 164 173 159 157 152 165 154 148 141 153 154 163 175 165 154 152 165 101 98 82 64 32 55 66 47 68 97 178 151 139 181 135 148 131 154 123 140 137 141 113 125 142 117 130 109 109 108 117 105 112 116 121 111 101 105 107 122 138 148 147 147 140 129 126 131 143 144 134 153 154 152 141 154 151 154 145 138 136 139 129 143 148 152 142 138 130 135 160 150 157 166 172 177 158 169 153 161 151 138 132 140 146 150 154 189 161 146 149 134 97 84 64 45 17 59 92 49 66 110 188 153 129 160 148 143 140 170 134 148 146 157 122 128 154 135 125 98 89 92 100 94 108 108 104 90 92 81 83 97 116 128 131 129 118 113 117 122 126 120 121 126 124 109 119 139 146 147 148 138 127 140 145 153 159 157 142 120 124 121 130 131 139 149 152 147 135 156 143 133 132 124 129 130 131 129 133 172 149 110 123 113 85 47 53 51 34 84 94 58 67 105 183 139 140 140 140 159 149 183 156 148 161 150 123 132 148 147 130 102 88 86 86 77 83 90 81 80 81 74 83 88 92 103 117 103 103 88 95 100 125 119 132 99 99 97 107 122 123 147 159 148 138 141 140 137 144 156 149 126 124 127 131 127 118 135 123 131 118 129 133 117 114 120 110 126 125 116 118 137 124 103 107 99 94 23 37 58 57 87 79 67 84 95 183 144 123 131 156 164 166 184 171 145 162 166 130 135 154 142 138 105 99 86 88 80 73 69 72 64 61 65 77 87 80 97 105 99 84 71 69 94 98 113 126 97 84 87 97 119 123 149 155 159 143 142 136 134 149 140 153 143 116 122 138 131 114 128 130 121 112 126 127 124 106 105 98 121 122 121 117 120 116 118 89 87 94 33 38 74 71 74 56 70 102 87 190 144 122 139 160 179 179 192 172 156 167 163 151 136 158 149 140 118 106 98 89 85 72 64 72 63 60 69 71 75 79 88 91 91 81 63 69 89 94 98 93 73 86 78 106 118 133 137 135 139 134 131 133 126 133 109 124 131 109 101 117 127 104 94 117 116 123 126 120 118 109 105 119 122 121 122 115 109 112 119 83 88 86 54 68 91 89 75 51 72 115 92 200 152 142 146 162 191 183 191 192 154 172 164 149 142 153 157 147 133 118 117 101 87 78 67 69 64 72 78 83 86 77 85 88 100 92 76 86 82 101 94 107 96 89 88 99 128 140 135 128 131 130 129 138 117 111 113 100 113 110 97 105 112 103 98 105 116 124 123 113 118 112 111 126 122 118 122 118 117 119 104 74 94 69 85 92 101 106 56 60 79 115 86 194 167 143 156 157 183 187 178 173 156 174 177 149 152 159 145 143 144 130 117 102 89 79 70 67 67 71 75 78 73 72 76 95 95 86 94 94 87 105 100 102 123 87 95 94 112 135 136 139 137 119 132 120 128 120 108 96 114 103 102 111 115 118 116 119 118 121 119 122 120 117 124 130 124 130 126 119 118 112 113 89 70 74 95 81 112 94 65 65 101 111 98 182 186 143 144 144 140 169 162 161 152 156 170 159 152 155 142 137 135 131 121 106 102 94 81 75 72 73 80 80 89 90 100 110 103 102 101 108 96 113 119 128 121 106 105 105 117 125 143 141 148 130 123 124 131 125 114 92 102 91 97 114 129 133 127 132 129 127 132 137 133 128 133 120 111 120 117 120 129 117 118 93 75 73 96 85 103 68 74 65 117 90 121 152 194 138 128 121 125 150 143 151 144 159 161 154 153 154 150 146 134 133 132 139 120 108 105 92 84 83 88 97 104 105 114 118 121 119 117 129 113 123 125 133 125 127 117 116 123 121 140 141 150 136 122 120 132 127 114 104 87 88 80 99 113 135 127 134 133 130 133 142 139 128 129 118 110 121 121 123 126 122 115 102 85 70 91 76 82 47 75 68 118 105 139 152 186 138 117 136 118 130 116 124 135 141 156 151 150 152 141 156 145 129 127 133 130 109 106 100 92 94 91 99 103 108 119 123 131 131 130 134 130 129 143 149 149 146 133 128 123 119 124 137 135 132 121 111 118 119 107 97 86 86 80 82 101 112 127 133 123 121 120 124 123 121 124 113 106 107 112 121 128 119 113 99 105 86 67 65 68 67 65 81 113 123 135 166 185 142 117 135 134 140 120 128 121 129 146 151 142 144 142 142 144 146 134 131 129 128 118 106 103 101 100 106 116 122 132 134 140 139 135 129 132 132 137 151 151 148 149 142 132 107 117 119 118 123 116 114 111 109 105 92 81 83 76 71 75 87 102 117 112 119 121 120 114 118 114 106 110 101 112 116 123 113 115 106 100 77 63 67 74 93 49 100 102 134 141 167 174 166 138 131 139 139 122 119 119 135 135 137 137 137 139 137 143 135 130 123 119 120 126 110 99 106 110 116 131 129 131 143 147 144 130 124 126 124 125 138 142 141 147 149 128 111 108 112 114 107 102 109 102 100 98 81 76 80 69 59 72 76 87 86 104 110 118 109 107 104 106 106 106 109 112 116 123 117 117 108 102 68 69 58 98 69 61 113 89 137 132 149 155 161 132 120 130 133 139 123 116 124 125 133 125 127 134 131 131 132 115 111 106 111 114 104 105 109 118 122 127 138 137 141 144 143 130 120 115 117 120 132 133 133 135 118 111 112 106 111 115 102 82 82 91 96 91 92 77 73 72 58 56 66 75 82 90 100 110 111 99 99 110 105 107 116 115 114 121 127 127 94 95 83 71 64 62 51 79 115 102 146 132 144 155 162 160 124 114 115 139 118 94 109 115 125 124 128 135 129 130 133 123 113 107 110 107 97 93 102 112 120 125 138 142 143 142 139 132 121 112 112 105 115 126 133 113 95 83 102 103 111 102 76 58 67 59 77 83 83 73 71 69 66 48 58 72 77 82 95 101 104 106 109 112 113 118 125 118 123 126 128 135 102 93 78 86 71 54 53 109 114 130 144 129 151 147 161 164 142 107 106 114 114 87 92 114 124 124 123 133 128 129 123 124 111 109 111 103 95 91 104 114 116 127 130 135 135 126 121 119 102 90 87 90 99 103 118 115 99 90 96 98 110 94 68 50 60 51 53 63 63 61 66 54 53 41 47 61 65 74 90 98 107 103 98 96 99 114 114 112 120 126 119 117 98 79 55 70 84 48 71 120 116 166 151 119 150 145 153 167 142 119 106 93 89 87 91 109 121 127 126 132 134 131 125 119 107 105 104 106 98 91 100 112 118 121 119 122 119 115 107 100 89 77 79 87 97 106 110 107 107 105 105 102 97 91 61 56 61 56 38 42 43 47 55 50 44 39 35 47 58 65 73 89 96 100 99 101 104 112 112 114 125 118 115 121 89 69 47 73 83 43 99 113 138 157 135 128 136 143 141 174 141 118 116 97 88 88 94 106 117 129 127 131 138 137 126 125 111 101 98 111 97 90 94 102 111 104 107 108 106 107 102 90 84 77 79 91 94 110 109 100 102 108 116 107 100 88 64 55 59 52 42 32 40 47 52 56 62 47 52 55 61 69 82 89 92 93 88 96 94 96 107 117 122 113 113 118 80 66 62 82 69 54 117 114 169 145 137 152 126 133 133 172 145 131 126 100 84 88 96 101 114 129 131 139 140 146 131 134 123 113 109 106 107 97 95 101 103 106 101 102 106 106 101 88 75 77 92 96 115 126 119 112 122 127 112 114 105 93 69 61 55 53 43 48 51 54 58 62 69 59 65 75 82 84 84 94 95 97 95 101 105 102 108 115 120 112 113 107 71 60 65 80 52 71 124 137 169 126 143 174 131 119 112 148 139 132 129 100 81 79 92 96 108 120 126 140 143 147 143 137 136 127 117 119 121 115 109 105 100 100 94 102 114 112 108 93 86 87 108 115 133 142 137 139 143 137 120 117 118 96 73 67 62 56 49 50 53 60 57 75 72 77 74 87 95 98 101 103 111 112 109 114 110 111 112 122 121 117 108 93 59 52 55 55 44 101 136 157 160 128 160 162 133 125 104 123 136 132 111 95 85 75 91 87 105 117 126 132 141 152 149 149 141 140 134 133 138 128 123 123 120 113 112 120 112 113 112 109 105 114 130 148 164 170 156 155 155 155 147 135 137 109 83 81 80 75 70 64 70 71 69 79 80 74 85 86 95 99 105 112 111 116 119 127 122 125 124 125 126 115 107 84 55 50 51 36 72 123 142 167 151 130 159 142 144 125 119 120 135 146 104 71 80 76 80 81 91 109 128 136 144 159 158 160 152 147 142 140 142 135 134 139 138 135 129 128 126 125 117 114 126 142 150 147 172 179 180 171 180 180 168 163 157 153 120 112 104 92 83 88 97 90 88 89 95 83 88 89 103 106 114 120 124 125 131 136 138 141 135 130 128 121 114 84 62 57 64 54 103 134 162 174 148 129 150 129 144 130 129 136 136 142 135 93 75 81 75 87 90 106 125 133 146 156 161 160 158 153 157 155 153 150 144 145 149 145 138 140 140 134 127 125 133 151 148 135 150 178 181 179 181 189 186 179 174 175 158 139 119 107 101 102 116 115 105 106 109 102 95 101 111 116 122 129 136 134 139 143 145 149 143 135 128 130 114 95 71 67 77 78 128 151 179 175 159 137 138 129 151 143 145 139 147 160 135 112 86 90 78 79 96 110 125 131 146 154 158 161 160 158 160 158 161 156 147 147 153 152 145 142 149 144 139 132 131 146 154 150 147 168 176 179 181 187 185 193 199 187 179 166 139 121 101 112 131 135 123 111 118 119 110 116 117 119 127 130 142 146 146 146 150 150 148 139 132 128 119 105 86 77 85 99 150 176 192 186 176 137 133 137 154 160 154 150 157 182 149 122 94 85 86 71 93 111 124 130 140 148 155 157 158 156 149 148 156 155 153 157 156 150 145 148 154 147 144 139 126 134 144 155 146 155 166 170 179 179 174 179 197 188 178 165 148 133 123 142 154 147 138 128 131 129 124 129 127 129 127 131 148 151 155 153 151 151 147 142 141 132 130 124 102 98 116 141 190 212 197 193 181 137 140 149 150 156 162 164 164 191 170 140 103 94 104 89 90 108 122 130 133 145 156 151 153 151 148 145 155 156 161 162 160 155 161 157 157 149 144 134 127 126 134 138 136 140 159 165 168 176 176 171 173 178 165 160 150 153 152 164 158 156 144 142 145 143 136 136 135 139 131 132 145 153 156 157 156 153 146 144 152 136 151 147 127 127 138 191 220 204 198 192 174 146 148 152 154 159 163 184 178 185 184 159 123 91 101 99 100 113 124 124 131 143 145 147 148 143 146 152 155 159 163 160 167 167 168 164 164 150 139 126 125 134 138 139 127 128 141 151 151 166 174 162 159 165 147 149 159 164 176 167 167 161 148 148 153 154 147 146 141 142 140 134 146 155 161 157 160 152 145 145 157 141 167 161 144 136 160 196 227 209 203 197 155 149 143 139 162 161 163 189 185 182 190 170 147 107 104 101 94 122 126 125 127 140 139 139 140 146 150 154 157 158 164 166 176 175 174 163 160 156 145 139 131 138 145 146 140 139 147 145 134 147 154 156 146 147 136 142 153 163 167 171 164 161 156 157 155 158 152 154 145 152 151 146 146 156 158 158 155 145 144 142 158 153 168 166 143 131 183 202 217 209 200 189 149 144 137 120 157 162 167 187 181 177 189 177 154 131 121 108 96 122 123 125 126 136 137 134 137 142 146 152 154 161 164 176 182 181 176 163 166 168 162 143 126 136 145 149 146 145 142 133 125 130 136 145 137 143 139 140 149 161 163 171 164 165 166 162 159 157 154 153 150 151 161 155 154 159 160 158 160 151 144 143 152 153 167 165 143 135 184 214 213 195 191 174 142 141 139 119 150 153 171 190 184 162 186 183 164 140 129 124 99 118 124 131 134 134 135 136 135 142 143 145 154 163 170 181 180 181 176 173 173 182 177 153 149 152 153 146 144 143 142 137 123 126 133 139 144 146 131 130 146 150 148 160 158 161 165 156 156 150 151 149 150 151 160 161 160 166 163 161 166 157 142 147 153 154 168 167 146 143 191 213 201 179 179 152 136 137 133 130 132 143 161 174 174 161 180 189 177 144 133 134 105 112 124 130 134 131 133 133 134 137 142 143 151 166 169 184 188 183 181 187 180 176 177 175 169 169 166 145 137 127 138 138 134 132 134 133 136 141 136 126 144 161 142 160 163 165 169 159 155 153 155 155 150 157 160 160 163 167 167 170 167 166 150 151 156 155 169 175 154 155 180 204 189 171 167 139 130 133 120 129 128 133 137 161 162 161 169 187 175 150 137 142 113 108 124 130 126 126 131 134 131 134 144 150 160 163 170 178 187 183 187 189 182 180 181 177 179 172 165 150 144 136 145 147 146 145 141 129 131 131 138 132 129 155 151 171 170 173 175 167 157 163 160 158 161 162 156 157 159 163 164 164 161 168 153 156 159 155 170 165 160 160 173 200 179 166 153 132 128 133 118 123 133 134 132 146 150 158 154 177 172 151 130 133 109 107 117 127 125 121 123 133 135 133 146 154 157 158 171 174 173 172 167 179 180 176 181 176 171 170 171 154 167 168 160 155 151 146 137 135 139 123 125 121 123 144 159 176 175 182 177 169 165 165 153 156 161 155 150 150 154 159 157 155 155 162 158 152 157 164 164 147 157 157 172 188 180 163 136 146 126 133 121 118 129 132 129 145 152 160 152 157 166 147 137 125 111 98 107 123 123 123 122 133 136 132 136 145 150 152 158 166 165 169 166 168 179 177 175 170 167 172 173 163 166 168 171 162 152 150 135 126 127 124 128 130 146 149 161 171 180 193 185 176 166 155 144 144 146 145 145 139 143 150 154 148 149 153 150 145 148 158 163 139 144 179 177 180 181 156 121 155 136 128 118 121 128 130 136 139 148 150 143 147 163 152 146 139 116 95 105 116 128 122 123 129 131 131 136 143 149 152 152 159 163 164 165 163 167 170 180 173 168 163 170 153 147 146 147 140 135 139 127 122 123 127 135 140 140 149 162 169 178 183 184 174 164 149 142 141 142 141 138 136 137 142 146 137 139 142 133 143 150 158 157 131 145 184 197 173 175 151 111 150 155 128 125 122 127 125 130 131 136 135 124 155 160 157 150 145 129 105 105 120 128 119 128 126 126 130 131 136 145 148 152 155 154 154 150 151 154 155 166 166 161 157 158 156 150 145 131 136 130 134 129 125 125 124 129 139 144 149 160 166 172 171 169 158 146 146 147 143 130 127 128 129 127 131 132 132 136 131 120 142 148 154 137 123 130 174 191 170 157 140 115 151 165 134 125 131 126 117 121 127 129 130 153 163 145 152 158 151 127 110 104 119 122 118 121 123 124 129 124 133 137 143 151 148 147 143 136 133 140 142 144 141 137 133 135 134 132 129 122 126 126 122 119 123 133 126 124 124 128 150 147 152 160 159 157 149 148 147 145 146 136 129 121 125 120 119 115 116 123 122 115 144 149 144 124 120 145 175 181 162 146 129 119 150 163 141 122 137 130 125 124 122 122 153 170 163 138 148 157 157 127 109 100 120 117 120 118 120 128 132 130 137 134 141 142 143 140 137 135 130 138 138 137 133 125 123 120 116 118 123 121 126 123 123 120 122 115 114 112 112 118 134 135 135 151 152 150 145 147 149 138 145 139 128 122 120 114 116 111 110 117 109 118 136 140 130 115 126 146 182 161 156 133 127 127 146 157 146 127 132 133 125 122 116 147 176 162 164 144 143 156 162 133 123 102 112 119 125 123 131 135 133 126 140 139 143 142 142 138 134 132 141 143 139 140 140 135 127 120 120 115 128 122 120 116 108 109 109 108 110 113 117 118 126 129 123 137 138 140 139 143 145 137 134 134 126 117 116 112 106 111 106 115 98 113 130 132 116 115 130 151 171 155 148 121 122 134 148 153 149 136 134 131 119 114 140 187 175 164 167 143 137 156 165 143 136 105 102 121 127 125 129 132 130 123 129 136 132 131 129 129 124 125 125 135 131 125 124 122 121 115 113 114 122 121 118 106 99 110 104 112 112 116 112 103 109 119 120 127 131 139 136 140 134 130 136 130 123 112 104 104 105 108 105 109 96 113 135 119 104 118 141 165 160 145 131 118 129 131 148 155 168 137 140 132 115 124 181 199 185 166 168 144 132 151 159 144 144 106 98 107 121 126 123 127 132 126 130 135 135 131 131 124 120 117 117 117 121 120 121 119 119 121 120 114 119 122 115 116 103 116 110 117 113 110 109 107 98 109 116 130 137 142 139 128 125 127 128 133 119 107 100 94 100 103 101 97 77 104 125 114 94 121 152 167 159 133 118 116 135 139 158 159 180 143 137 124 124 165 209 206 182 161 173 165 132 152 158 146 142 119 96 91 108 119 122 127 134 135 132 137 138 135 136 131 129 125 120 121 122 118 119 126 124 126 124 123 124 118 113 116 111 105 105 110 116 109 118 119 113 120 123 135 141 138 131 129 125 123 125 129 113 100 97 89 96 95 98 70 75 97 105 109 105 129 161 161 166 138 116 116 139 145 150 149 180 151 142 125 160 211 220 211 187 169 190 188 150 156 157 152 143 134 99 89 101 110 126 124 127 139 138 136 137 137 142 142 136 133 130 129 132 125 123 124 123 125 118 117 114 106 98 98 95 97 94 99 105 109 117 116 118 120 125 131 126 123 123 125 118 114 119 116 107 99 97 90 87 94 79 65 69 101 90 93 112 133 157 139 158 157 125 117 132 149 147 143 167 156 151 161 206 224 222 219 192 183 212 209 162 154 157 150 148 133 108 91 94 106 114 120 119 129 141 139 142 137 145 151 148 144 133 129 134 126 124 123 121 122 119 118 114 106 99 99 95 97 91 90 95 106 112 111 111 111 115 114 112 114 117 119 110 103 108 110 104 98 98 89 78 83 63 61 67 91 100 106 123 127 147 123 135 161 143 119 130 139 135 143 156 159 155 201 205 223 221 224 191 196 222 212 171 143 150 157 152 136 127 105 94 101 111 121 120 125 132 135 140 143 149 146 152 153 145 134 131 130 123 124 124 123 124 117 117 107 103 102 96 92 97 94 94 105 105 103 104 112 110 107 109 114 112 112 104 93 101 112 104 102 95 84 66 72 36 68 88 84 102 107 120 110 117 95 115 137 161 124 125 129 122 134 152 147 158 203 205 225 231 232 195 200 228 203 176 145 147 166 159 139 131 121 103 97 103 117 127 122 127 130 142 145 152 150 146 152 149 145 133 127 123 119 124 120 125 123 117 112 111 115 111 112 111 111 112 119 115 115 116 119 118 115 116 108 112 103 97 93 101 112 103 97 93 74 59 67 26 62 104 95 111 99 116 99 70 71 118 115 144 161 127 116 107 117 133 134 144 196 202 213 232 227 198 200 219 193 173 157 143 157 158 147 131 142 113 105 104 108 123 124 118 128 141 140 146 147 153 155 149 144 134 128 123 120 125 132 138 142 132 124 125 119 108 107 110 114 111 119 118 122 125 126 116 116 119 105 108 96 97 93 102 110 100 92 89 70 58 55 32 73 113 125 119 115 106 96 57 44 103 106 120 150 153 106 94 108 115 120 130 196 202 222 236 229 206 187 213 186 166 167 150 154 144 151 141 144 128 112 115 112 108 115 120 125 137 143 146 147 149 155 151 150 144 138 135 132 137 142 144 143 135 127 127 120 102 99 97 97 96 104 106 109 107 106 116 112 114 106 100 88 87 96 100 108 105 90 78 72 59 50 48 90 125 141 135 113 106 89 40 31 86 88 111 129 163 128 93 104 111 109 112 202 210 234 250 235 208 185 208 178 168 172 158 149 137 145 144 144 131 125 124 113 113 110 118 126 127 136 142 139 145 145 142 145 146 134 128 124 126 133 134 132 116 108 101 92 87 83 82 83 84 93 93 100 104 104 115 120 106 104 92 94 91 107 105 103 99 81 71 69 64 50 86 129 147 140 155 125 110 61 32 35 68 73 95 111 130 132 106 101 89 99 105 202 222 240 255 241 207 188 213 171 162 180 153 135 127 142 146 140 127 133 127 111 123 116 117 130 121 120 129 136 137 138 133 135 137 136 125 115 110 114 113 115 100 96 88 81 71 68 70 79 83 82 87 94 106 108 114 118 113 107 102 98 104 107 110 96 80 69 68 70 69 65 124 157 173 157 154 147 122 53 24 21 51 55 70 107 118 104 116 107 77 83 84 210 233 248 253 242 203 188 220 173 149 183 152 112 111 142 139 138 141 137 135 112 132 127 127 135 121 114 123 131 135 131 132 132 130 131 119 120 112 108 105 105 100 93 89 80 68 70 72 72 74 76 86 95 111 114 116 121 118 114 116 102 112 104 98 89 68 69 73 72 86 83 138 172 205 170 156 154 122 75 25 7 23 52 50 73 96 100 105 127 85 86 77 225 239 245 250 248 197 190 215 166 154 173 147 79 91 136 138 136 146 133 128 123 137 138 144 144 128 111 120 123 133 126 131 131 132 130 128 125 122 114 107 102 98 93 90 86 86 84 85 87 88 92 105 111 117 120 126 130 128 129 126 114 106 101 80 71 70 71 74 82 97 110 156 174 220 200 196 164 110 82 45 3 22 56 48 63 86 95 106 123 96 96 94 235 244 240 244 254 197 193 209 158 153 169 119 61 75 105 139 136 134 117 130 133 144 143 155 164 140 117 118 122 127 125 129 133 134 136 135 130 128 123 114 102 95 97 96 98 102 103 103 110 112 113 121 125 127 141 139 135 134 140 128 109 95 93 72 75 76 75 80 102 100 138 156 172 211 220 232 185 113 76 62 28 20 48 62 51 69 101 119 97 109 85 92 237 244 230 240 250 201 181 194 162 148 140 92 56 55 73 129 132 122 105 128 138 148 152 162 170 155 138 123 122 124 121 118 134 142 137 139 137 134 133 131 118 110 111 111 114 115 119 120 120 116 122 129 127 133 148 143 138 134 131 118 102 83 81 85 84 88 80 93 120 119 152 157 180 214 233 231 176 115 99 79 62 29 42 61 51 57 88 122 94 93 88 88 230 228 219 222 227 195 173 169 165 135 117 69 40 32 63 112 119 112 102 118 137 145 170 164 169 158 154 138 131 132 124 120 124 136 140 142 140 140 137 137 132 129 122 130 128 134 133 123 121 121 130 140 137 138 143 141 142 129 118 106 93 87 97 102 92 95 90 105 129 142 163 166 188 217 239 224 160 116 105 86 76 60 49 57 52 47 81 116 102 76 77 81 217 199 187 198 202 191 163 127 134 108 73 49 16 28 67 108 111 99 106 111 138 158 178 170 162 158 151 148 145 140 138 127 118 127 136 136 140 140 138 141 144 141 141 139 142 140 138 127 135 133 140 145 141 143 142 139 129 120 107 86 107 107 116 114 101 106 105 117 129 144 164 171 188 221 233 205 169 114 94 84 77 68 61 71 68 48 69 84 87 64 68 66 196 179 170 184 180 172 113 101 111 65 39 51 25 34 84 128 98 92 93 112 127 167 188 172 167 162 144 141 147 147 147 141 131 130 133 140 140 137 142 147 150 145 139 136 138 138 143 140 150 143 141 143 144 141 141 132 117 106 95 105 122 118 117 113 112 116 119 137 146 146 163 177 187 223 218 210 172 108 96 85 86 48 43 56 71 72 70 66 64 58 47 56 171 153 134 152 145 147 79 57 91 42 23 38 46 65 86 119 93 80 80 107 109 164 184 178 174 166 145 140 139 146 152 153 150 146 141 143 144 146 145 151 152 146 145 146 149 144 150 150 148 147 146 143 148 138 134 126 110 103 116 124 123 120 116 114 121 112 122 156 150 145 171 187 200 217 211 207 165 119 104 87 89 59 61 63 86 99 80 78 75 69 46 38 138 136 121 109 87 87 23 0 61 38 39 46 59 83 83 93 90 85 66 104 112 149 175 173 178 181 152 139 134 138 142 150 164 163 164 161 158 157 158 163 157 155 160 160 157 158 158 153 148 150 145 151 145 134 126 125 117 118 133 123 126 116 117 117 115 112 148 167 157 152 176 186 206 210 201 184 154 130 103 82 68 56 78 89 82 104 91 67 90 88 68 45 120 101 88 56 50 51 18 9 52 51 71 59 68 55 44 81 91 87 78 96 119 128 165 164 170 181 175 144 136 137 139 140 148 160 166 166 168 168 167 170 165 166 162 164 160 154 160 157 154 153 148 147 141 139 131 126 122 132 131 122 120 121 118 118 115 133 172 175 157 158 177 174 194 199 193 162 159 129 101 78 58 58 68 95 95 103 89 76 77 87 82 59 83 54 62 46 42 51 57 45 65 61 46 34 41 45 38 63 99 85 84 99 113 122 156 156 162 171 177 158 145 135 137 141 145 150 163 165 167 165 168 169 164 159 160 162 155 163 159 160 156 154 145 140 141 132 127 118 130 128 123 120 123 120 121 112 126 163 178 166 159 164 182 180 191 196 180 139 163 121 98 75 59 68 49 94 108 96 95 100 68 75 75 53 