P2
92
112
255
103 104 106 107 108 112 118 112 115 112 113 102 105 104 105 102 101 86 82 84 106 109 127 133 146 161 177 186 193 195 203 207 197 193 193 204 201 210 206 200 206 206 203 202 197 198 203 196 185 186 194 197 194 195 197 200 198 207 210 209 198 195 194 188 179 185 203 200 198 187 178 173 169 168 167 176 172 162 159 155 149 146 147 146 143 142 145 147 142 146 139 136 105 105 104 106 106 113 115 110 113 114 109 101 98 104 105 106 98 88 92 122 142 151 160 169 177 185 195 195 199 202 208 210 202 193 197 188 187 188 182 180 188 186 187 183 184 194 199 201 190 195 207 214 206 207 210 213 215 212 213 214 205 193 190 187 180 175 181 188 193 201 195 181 175 172 170 171 174 165 166 161 161 148 150 148 140 145 143 148 138 144 147 138 104 105 105 105 110 109 106 112 112 107 102 91 98 96 104 103 95 104 119 141 162 175 187 192 190 191 200 207 205 200 195 197 181 177 173 168 154 157 153 146 146 155 155 158 157 175 177 187 184 193 196 202 201 214 216 222 217 219 219 213 211 205 193 191 190 181 183 183 177 183 196 192 182 182 175 172 173 174 177 165 166 155 153 145 141 146 142 147 144 139 145 141 104 105 103 97 107 106 105 102 105 95 92 96 98 101 98 100 106 119 146 165 183 194 196 197 190 183 186 192 198 178 174 172 157 143 134 134 135 127 123 129 136 131 134 137 135 139 153 160 160 171 185 189 197 213 211 217 206 210 217 218 208 208 198 194 194 194 186 180 178 177 173 186 191 191 191 184 168 177 181 174 169 167 158 139 142 144 142 144 143 139 139 141 103 105 101 99 98 100 99 95 93 92 94 90 99 100 101 99 118 147 173 190 195 199 202 196 184 176 169 171 161 154 139 131 132 123 118 105 115 111 124 107 110 121 123 125 111 123 119 119 130 157 164 177 185 197 205 201 198 205 205 211 208 204 209 194 193 198 188 192 182 173 171 178 186 185 198 199 191 169 177 180 173 169 166 150 140 138 146 144 144 142 136 137 104 103 104 99 98 91 96 92 80 81 82 80 82 95 106 116 133 164 190 200 203 204 209 203 184 184 163 148 128 106 95 91 90 92 81 90 95 100 103 103 105 107 103 104 110 122 113 99 102 121 143 155 163 171 177 173 186 189 190 198 192 194 198 194 187 181 178 189 188 177 171 179 182 179 175 189 203 193 172 175 182 172 166 162 149 139 142 142 138 145 138 134 109 103 100 98 96 90 87 87 76 77 81 72 85 106 126 135 154 177 196 206 204 207 196 195 183 168 154 129 115 95 82 69 78 77 80 74 73 84 85 85 99 97 97 87 90 97 97 96 90 104 115 129 137 139 154 155 159 173 189 192 190 188 175 178 182 172 165 174 182 176 174 174 182 186 176 177 190 195 186 179 173 185 176 164 157 143 136 140 140 139 139 132 107 103 100 96 90 84 76 79 76 72 66 72 103 132 142 156 174 192 194 202 206 202 198 195 170 149 132 115 104 85 82 70 70 70 71 66 70 73 77 81 92 85 83 87 83 83 92 91 90 106 110 111 119 127 128 131 136 144 162 181 183 184 178 176 173 170 168 163 163 170 173 170 178 181 181 173 182 187 183 181 171 168 186 173 159 143 139 129 137 136 139 138 104 97 100 89 82 75 76 73 65 60 67 93 123 151 167 174 180 187 194 206 207 199 188 180 157 129 113 105 88 78 73 75 73 70 65 73 72 81 78 85 96 104 95 90 95 100 100 94 89 93 98 101 106 113 119 120 130 131 143 155 176 184 175 173 179 170 166 167 153 166 177 177 166 164 182 169 169 179 181 169 166 156 166 176 165 150 143 132 132 135 137 140 98 93 91 84 75 73 71 67 55 66 89 119 143 160 172 178 188 197 199 209 194 181 164 149 125 112 104 93 84 77 67 71 77 70 71 76 80 88 95 97 98 103 103 100 96 105 102 100 96 98 98 105 107 108 120 125 130 135 139 152 160 175 179 173 172 174 170 174 156 152 153 164 176 176 176 175 165 166 168 156 158 153 155 158 165 157 145 140 134 132 137 131 88 84 81 76 74 77 69 47 65 93 111 134 156 162 180 180 206 206 209 207 185 168 144 130 112 103 101 90 84 77 70 67 74 78 83 82 87 97 103 115 118 116 108 101 108 109 102 109 108 107 106 107 114 114 119 127 123 136 142 151 157 160 170 174 166 177 180 174 165 165 156 154 175 191 172 169 172 176 168 159 140 152 150 151 156 151 150 141 139 128 139 131 84 84 82 78 75 69 59 52 74 105 127 147 170 170 178 186 207 208 209 191 168 148 131 121 108 100 92 98 89 89 85 89 89 89 92 89 99 99 107 103 118 120 111 111 113 114 111 112 116 116 123 119 118 116 125 131 126 137 136 150 157 157 163 168 170 175 181 176 171 159 162 152 155 174 182 177 171 164 167 165 140 132 135 144 155 149 142 141 138 136 131 139 82 82 80 74 64 64 60 70 94 113 147 166 166 174 187 203 203 202 185 169 140 127 122 113 111 110 101 97 99 100 104 108 106 103 109 101 106 114 112 106 104 112 121 118 125 124 126 128 127 121 122 127 130 130 137 132 127 134 139 142 156 154 161 165 170 178 190 189 186 166 162 156 150 148 168 185 172 162 156 154 137 128 125 124 137 149 139 139 132 138 131 141 80 81 78 77 66 74 73 99 112 131 158 163 164 187 196 197 189 178 160 140 122 117 118 109 104 104 102 103 99 108 108 103 106 110 109 109 112 118 115 115 124 129 131 129 132 133 129 140 143 138 132 141 141 139 141 137 135 143 141 141 150 156 159 164 169 167 188 199 191 181 176 162 161 152 152 171 180 174 161 153 140 129 126 113 117 134 149 147 134 136 132 137 83 78 87 83 83 90 103 111 130 147 166 159 180 198 195 186 183 165 134 121 120 116 101 100 99 97 103 103 102 107 110 108 109 108 109 115 122 124 130 128 135 141 140 140 147 148 146 152 155 152 147 155 154 152 149 142 145 152 147 156 162 157 166 168 170 167 178 196 199 193 190 180 166 161 154 153 163 166 162 157 149 122 123 116 105 124 138 142 146 136 131 134 88 87 97 101 97 105 111 123 141 170 164 172 195 203 183 177 166 148 121 116 116 104 96 95 98 95 104 105 102 106 107 107 115 112 117 119 126 133 143 145 152 158 156 151 168 162 160 160 169 166 166 164 165 168 162 158 156 155 150 160 162 154 156 166 165 168 166 181 193 193 191 197 174 162 155 151 148 157 163 156 159 133 117 110 97 113 141 131 136 148 132 134 93 97 98 101 111 111 117 131 145 176 170 181 197 190 173 161 149 125 114 114 108 107 104 101 99 103 98 98 101 106 113 117 117 123 125 130 139 147 153 159 160 164 169 166 173 175 169 170 176 178 180 180 180 183 172 166 161 158 150 156 156 142 145 152 149 161 166 171 180 176 178 180 188 174 161 148 150 144 167 170 153 163 123 106 87 94 124 131 129 147 142 138 99 101 109 106 116 129 131 142 167 170 176 184 189 172 156 147 134 111 105 112 110 105 102 98 102 101 98 101 109 115 117 125 130 138 140 147 152 160 166 169 177 178 178 176 176 181 187 181 181 190 187 187 195 188 185 171 162 162 157 157 151 141 137 146 147 154 162 170 168 168 164 170 182 180 171 153 142 143 151 173 159 159 137 115 93 80 113 122 130 138 142 128 91 99 106 114 122 135 141 164 175 170 178 186 175 159 144 136 118 109 99 114 110 103 100 101 95 94 99 112 118 118 126 135 137 143 148 156 164 167 177 184 188 191 190 190 191 191 203 198 195 198 200 200 198 196 185 172 160 158 156 155 142 138 135 138 143 146 158 161 165 157 159 159 174 186 182 170 147 148 146 152 165 151 157 130 104 80 89 115 121 132 135 125 92 88 109 111 129 148 151 173 173 165 173 175 158 142 126 122 108 103 108 113 109 107 100 100 96 103 111 123 129 136 137 140 145 147 152 163 169 178 182 191 197 199 200 202 202 203 206 207 201 196 198 201 189 191 184 175 164 161 156 145 141 138 129 130 137 138 144 144 152 155 157 150 150 179 179 176 161 153 143 140 152 152 150 133 127 93 83 98 119 125 120 125 89 94 116 119 141 157 156 168 169 163 162 160 151 130 120 118 106 106 116 109 112 106 96 100 110 112 116 128 137 142 146 142 148 153 158 166 169 180 180 190 197 200 198 208 202 200 202 192 193 188 193 193 182 188 181 177 167 158 150 140 142 134 128 127 129 131 139 134 135 141 144 149 142 163 171 177 165 154 137 142 140 157 153 137 137 118 94 92 106 122 111 118 89 105 111 129 144 157 160 174 177 156 152 148 133 119 119 118 112 117 106 105 111 106 103 113 113 118 124 134 145 147 148 144 149 156 155 166 170 177 181 184 192 188 194 195 193 189 192 183 180 184 185 182 183 179 176 173 160 158 152 139 135 131 122 122 122 125 126 127 128 131 133 138 141 150 162 166 162 163 143 145 141 146 165 145 141 131 103 96 97 117 113 109 108 120 112 131 143 163 172 179 162 143 147 128 117 116 119 122 120 113 99 103 107 110 111 119 120 126 132 139 145 146 154 154 159 158 162 162 159 158 158 169 177 181 180 180 179 179 179 173 171 175 175 177 174 171 169 167 162 150 147 141 130 126 123 119 116 119 122 121 119 117 126 127 135 138 156 158 163 162 160 148 152 145 161 170 143 128 119 105 95 104 115 111 117 116 116 125 148 175 170 170 145 143 134 122 111 114 124 124 119 108 102 107 117 114 121 124 127 132 143 147 147 147 159 159 156 151 151 155 153 150 148 164 164 171 168 174 169 170 170 171 168 173 167 167 164 158 162 161 154 150 144 144 128 125 122 116 113 113 116 118 115 116 124 127 130 131 141 159 158 153 159 153 155 142 159 170 158 124 124 117 98 103 108 122 119 119 118 131 158 169 159 156 147 140 126 114 109 121 127 126 114 110 107 113 120 120 128 131 137 141 142 139 141 140 141 139 138 136 137 144 148 142 150 158 157 164 160 165 160 160 159 162 168 163 162 166 159 162 160 154 148 147 148 144 134 126 125 116 117 111 114 114 118 111 121 125 120 124 126 148 156 155 145 157 150 145 144 160 163 127 120 111 109 101 115 127 118 125 124 142 165 160 153 157 146 122 112 112 103 117 126 120 108 108 108 112 114 121 122 123 129 134 135 135 134 133 127 125 126 129 133 137 139 149 154 153 154 153 156 155 157 158 154 155 157 154 162 166 162 156 160 151 150 150 145 133 129 121 121 119 119 113 118 114 116 118 119 122 118 120 119 133 150 153 142 152 136 142 146 155 164 137 128 113 101 102 122 138 119 128 135 144 161 169 160 163 135 119 102 110 106 108 107 115 107 113 104 108 112 121 115 121 123 130 128 132 125 126 124 124 125 130 134 136 141 146 154 154 153 153 153 152 154 156 150 152 149 151 155 160 158 163 156 152 148 147 139 132 131 123 118 118 116 118 120 115 114 118 123 122 123 125 118 123 147 145 145 134 142 136 142 148 169 147 127 110 101 100 111 132 111 130 136 142 161 178 159 157 130 124 105 108 104 101 102 106 110 115 112 109 115 116 115 117 126 127 128 127 121 122 123 128 126 133 139 137 142 146 148 149 152 153 153 148 150 157 149 151 141 144 148 152 159 163 158 154 146 150 140 133 132 124 120 119 116 117 125 118 118 120 127 126 126 128 123 118 142 140 129 129 130 133 138 151 169 157 127 105 105 101 107 122 114 132 137 151 164 178 166 146 139 125 108 110 110 107 104 114 122 121 122 108 113 113 126 121 130 132 124 123 120 124 124 126 124 129 132 136 141 142 145 146 151 149 150 147 145 150 151 151 141 152 149 153 160 165 164 156 153 152 151 140 133 126 124 123 124 120 127 125 121 125 129 126 131 131 123 125 148 145 136 132 123 137 141 161 165 169 125 111 100 100 95 111 120 126 132 152 163 163 154 147 152 120 118 120 122 116 107 121 123 131 134 115 110 122 131 129 132 129 126 124 124 128 129 129 121 125 129 133 139 138 141 141 142 144 140 143 139 147 149 151 144 153 149 156 158 163 166 156 158 157 154 150 141 132 125 127 127 125 124 125 120 121 127 128 131 134 131 126 138 145 142 131 122 131 138 170 169 164 128 117 101 98 89 102 135 115 132 137 157 160 152 154 152 126 121 136 124 122 110 121 132 135 136 124 121 129 125 133 130 128 128 126 127 127 129 124 125 122 129 125 133 134 138 139 137 139 137 141 134 140 142 145 142 147 145 153 159 165 166 159 161 159 156 151 149 141 134 132 131 133 127 126 122 122 128 129 130 140 135 125 142 145 148 128 121 120 142 158 176 163 131 110 107 89 90 99 135 125 119 125 151 152 151 146 162 140 132 148 133 119 111 132 141 139 138 127 128 129 131 135 131 127 128 127 126 125 123 120 117 116 122 115 120 129 138 133 137 141 137 135 133 132 135 134 137 138 143 144 147 161 153 154 157 158 154 152 153 150 141 142 134 133 136 128 121 123 132 136 134 142 131 130 140 143 137 132 115 115 133 153 176 175 129 101 105 95 100 94 132 121 105 122 149 153 149 145 167 140 144 136 137 115 123 133 144 144 144 134 133 132 136 132 127 124 127 130 125 131 127 118 120 119 119 122 120 122 136 130 131 137 132 130 132 130 132 128 129 131 137 138 139 150 140 137 142 147 156 151 154 154 157 155 146 135 146 132 121 122 126 133 134 142 132 120 132 141 133 135 120 99 112 153 179 186 139 113 98 105 107 105 129 127 107 124 137 151 144 153 160 140 147 134 127 121 124 137 138 148 148 139 133 133 132 127 130 135 134 129 130 129 129 121 120 122 122 127 134 127 131 134 134 137 130 127 121 121 123 111 118 123 128 137 140 142 136 130 134 136 143 150 154 158 167 167 164 148 148 144 129 137 127 131 127 141 131 119 124 129 139 134 124 101 108 145 172 170 148 117 102 103 103 109 127 127 111 112 135 144 139 157 165 155 147 135 125 127 135 134 146 147 149 142 139 142 141 140 144 140 133 128 127 125 121 120 121 128 126 132 134 136 138 142 137 133 135 123 115 124 126 126 125 130 131 129 130 130 132 125 129 128 139 141 151 154 168 177 170 158 172 153 147 149 146 142 130 134 131 126 127 128 137 133 125 96 111 143 169 157 149 127 94 90 109 110 133 129 104 110 137 148 145 163 178 170 140 135 124 135 137 142 145 142 136 137 133 141 142 143 143 139 139 134 138 139 141 142 150 150 150 146 149 145 145 143 140 140 131 128 125 127 128 122 119 122 127 122 127 126 132 130 132 133 137 141 146 154 167 173 165 158 164 164 159 165 166 170 145 129 134 126 128 130 131 131 122 103 117 153 164 164 139 124 85 88 103 102 154 134 114 107 136 143 148 164 185 168 138 133 129 131 132 133 145 140 140 133 130 137 141 136 129 138 142 135 140 136 140 139 144 155 153 152 158 149 147 143 137 132 133 127 129 127 125 124 120 111 116 118 125 122 130 131 130 133 132 143 142 153 167 174 161 156 151 156 159 168 168 179 168 138 139 135 136 135 134 136 128 95 122 157 167 161 139 122 94 91 93 96 177 140 109 106 132 134 152 161 178 165 135 126 119 124 130 126 138 146 137 122 127 128 124 126 128 127 122 130 136 134 131 127 130 137 136 137 142 139 139 144 135 131 133 131 126 122 121 116 112 105 109 112 116 120 126 133 129 134 138 145 148 150 160 163 163 154 146 149 159 173 176 177 172 156 146 148 152 143 138 144 135 119 119 154 170 163 149 122 100 82 90 96 180 132 104 99 118 128 164 149 171 151 130 120 116 122 120 131 141 138 124 106 125 121 117 118 126 121 123 127 137 141 136 131 131 131 136 136 134 134 133 138 135 133 131 131 125 122 118 114 112 107 112 112 123 125 128 130 132 137 147 148 149 149 152 156 153 152 141 138 149 170 180 180 179 174 159 161 164 154 143 157 141 136 144 142 161 176 155 127 106 75 79 93 166 130 102 82 112 136 158 155 167 149 128 131 136 127 125 128 131 128 116 112 112 109 110 108 116 111 112 125 131 133 128 125 129 130 132 136 135 134 133 135 134 133 131 131 129 124 116 115 115 112 117 115 119 120 114 118 119 118 126 132 134 133 137 142 146 142 138 135 150 167 177 184 186 186 172 177 176 158 146 163 150 152 159 147 155 180 161 127 82 75 73 97 160 121 107 70 95 138 152 156 156 137 136 152 136 128 119 130 123 119 114 109 105 103 101 104 104 101 98 105 112 117 117 122 118 128 134 130 125 128 133 133 134 133 131 132 129 123 119 114 117 114 119 116 115 114 106 106 111 110 106 113 113 115 112 121 132 130 138 145 152 169 170 173 178 182 175 168 165 161 139 156 144 160 164 146 162 170 163 111 74 67 75 96 157 118 99 56 105 140 150 161 142 145 148 134 126 130 130 147 127 130 121 123 111 118 110 105 94 95 97 107 115 118 120 125 119 117 128 126 126 126 131 127 132 131 137 132 127 123 114 113 112 109 112 112 108 108 97 98 104 98 97 103 107 107 103 109 117 118 126 140 147 158 173 171 174 185 189 184 186 174 162 160 152 162 170 143 158 166 159 109 56 61 76 97 151 103 99 66 96 110 157 135 144 140 131 138 114 115 114 118 100 113 101 94 87 97 93 90 94 96 96 93 101 103 101 100 101 103 110 114 114 119 123 123 126 129 137 135 130 129 115 105 104 98 97 99 100 91 81 77 77 76 75 83 92 113 101 99 106 109 112 122 144 151 165 159 171 196 193 175 198 188 175 180 178 183 169 129 149 144 137 87 42 38 75 93 129 96 111 77 86 100 129 122 143 126 127 123 97 95 116 133 123 119 114 104 94 95 91 80 77 72 71 71 75 74 72 79 79 81 91 96 97 107 114 116 131 130 145 149 150 150 133 114 108 109 98 91 95 97 79 72 77 73 67 72 99 106 95 106 106 109 113 121 147 170 170 152 149 166 171 157 182 186 180 183 195 183 177 144 129 139 125 74 41 18 71 95 112 117 92 77 90 95 108 137 133 122 139 116 108 105 114 140 120 110 106 98 94 101 102 89 90 91 87 70 73 72 65 65 77 79 83 93 95 106 113 128 132 139 141 139 131 133 122 114 116 120 104 99 95 87 80 77 73 83 84 72 89 113 99 118 111 125 141 138 149 172 180 171 162 162 168 161 194 183 191 182 204 181 188 128 124 144 107 69 46 21 57 83 126 142 100 81 86 114 104 133 122 146 145 124 102 117 117 126 107 103 103 94 106 118 116 110 96 110 87 65 61 61 63 58 71 92 95 108 112 125 127 130 139 153 150 152 139 129 125 131 121 120 107 92 92 81 81 91 92 95 108 94 108 126 119 125 126 142 167 156 164 175 185 182 182 173 166 173 198 206 201 184 196 179 179 141 100 118 111 74 36 24 43 92 160 156 112 99 85 100 95 132 125 150 140 126 117 121 131 126 109 110 100 95 121 128 118 112 97 108 93 72 65 67 65 66 80 102 106 123 121 129 132 137 149 157 154 159 154 134 135 140 140 135 127 108 109 110 114 104 102 114 116 105 119 121 139 155 160 178 183 194 189 198 196 185 182 188 162 170 179 199 202 180 196 172 180 136 61 108 109 77 47 40 58 89 171 157 118 122 75 89 72 99 134 142 126 122 124 126 129 125 116 116 116 132 136 145 128 122 105 98 80 72 74 80 73 82 101 103 130 134 151 153 161 168 160 153 171 170 174 146 145 160 154 144 141 124 129 123 134 138 124 117 121 141 147 128 145 162 174 189 190 206 205 198 206 182 180 195 175 173 161 178 181 163 180 176 176 138 58 62 93 81 66 34 80 83 171 150 133 119 73 88 81 79 113 133 135 136 137 125 127 122 120 132 130 145 164 163 119 102 105 100 79 72 84 108 104 107 111 116 138 143 166 175 168 174 183 166 176 170 162 149 156 151 170 152 155 145 146 144 148 157 147 142 145 150 135 136 154 168 184 198 202 197 202 199 193 188 181 188 178 166 165 165 178 161 165 180 175 141 74 60 76 92 72 43 77 87 180 160 143 130 112 97 80 65 103 122 143 159 149 156 138 119 132 132 144 165 171 158 122 101 106 101 98 101 117 133 136 132 143 144 158 173 173 162 162 187 181 177 185 204 170 168 171 169 183 179 169 162 168 169 172 180 171 159 155 155 156 150 171 164 180 195 200 190 183 189 192 189 178 185 183 158 173 192 179 168 166 168 137 122 85 63 74 91 68 62 63 101 176 153 156 149 122 122 103 74 94 135 153 164 154 158 143 164 148 136 130 161 163 145 133 110 113 119 118 114 141 156 172 166 174 181 182 186 190 156 162 178 184 185 195 218 186 179 186 182 184 181 176 159 175 162 164 176 171 155 157 157 164 159 160 175 175 182 193 192 186 161 168 173 157 169 170 156 163 176 175 174 162 162 118 95 88 75 57 83 57 53 65 103 181 139 152 174 132 139 135 111 116 136 147 162 145 148 157 174 159 134 140 143 154 139 139 114 124 134 128 130 147 147 159 180 180 185 176 164 166 157 166 163 169 182 206 219 190 185 192 186 177 168 167 153 162 163 154 170 172 169 158 161 187 170 158 176 201 190 198 179 167 159 170 162 145 145 154 146 154 166 165 173 164 157 95 101 80 65 44 69 79 43 77 94 186 147 148 182 118 140 134 128 123 160 152 163 143 138 161 143 158 130 126 118 130 118 122 109 112 105 102 113 119 135 154 164 161 168 157 143 136 149 160 155 145 166 179 175 166 174 170 176 166 151 144 152 144 160 159 158 143 145 136 148 189 175 184 194 204 211 184 190 172 173 158 136 122 131 138 141 143 177 163 162 169 134 100 91 69 54 22 68 98 44 78 108 206 151 133 162 126 130 144 153 139 167 170 178 150 138 167 151 144 122 100 94 115 106 119 104 98 88 91 79 88 104 125 135 142 143 137 124 133 135 144 138 135 149 152 133 150 164 164 163 162 150 134 147 149 159 160 158 141 120 132 132 153 144 149 164 173 166 150 176 163 136 133 118 124 123 121 128 131 164 151 136 147 135 97 65 51 52 33 91 105 60 84 106 211 147 144 147 127 153 153 175 166 165 196 180 142 148 171 171 153 125 102 92 102 90 90 92 82 76 72 66 80 81 88 102 124 112 123 103 117 108 133 130 147 125 118 117 129 141 134 151 164 155 144 144 144 141 148 154 150 129 133 140 147 136 132 140 134 140 119 134 140 117 110 110 106 130 127 123 122 137 127 129 143 131 115 43 37 62 51 99 96 75 96 102 218 160 138 136 146 167 165 201 189 163 197 201 151 152 182 165 164 124 109 101 107 93 82 66 78 63 56 58 72 82 79 99 112 110 106 86 80 101 111 125 135 112 96 107 119 135 132 143 154 160 146 142 140 139 154 139 157 146 118 129 151 142 120 136 131 115 109 122 126 124 103 100 100 130 129 131 126 129 123 148 129 127 128 57 43 74 63 89 72 81 116 94 226 174 140 155 161 188 183 214 202 169 205 194 174 156 183 176 166 140 123 114 112 98 81 67 79 63 58 66 67 77 80 98 103 110 105 83 74 92 98 105 109 88 99 101 126 129 138 134 127 133 140 133 131 130 135 110 135 142 114 105 122 135 108 97 113 112 119 122 118 117 108 108 121 128 130 134 128 131 126 150 115 127 119 69 65 90 84 85 57 87 127 108 237 183 171 174 164 203 192 214 225 164 210 199 171 169 181 184 175 160 138 127 122 99 85 70 74 64 74 82 87 95 89 98 107 127 115 85 93 86 101 97 122 104 106 108 115 132 141 133 118 121 125 130 140 120 110 115 108 124 118 101 108 120 115 106 108 119 124 121 110 118 114 114 131 130 128 137 140 145 133 129 110 129 101 89 93 106 85 64 71 93 129 107 228 200 172 190 161 197 195 204 209 172 200 208 171 177 185 174 169 170 155 128 116 104 84 74 71 71 76 81 87 80 88 93 119 115 98 109 101 88 113 113 125 134 106 109 108 117 136 136 133 133 113 131 127 132 120 113 103 121 112 113 119 126 133 128 128 124 125 123 123 124 125 133 139 135 148 149 145 145 125 135 129 105 101 100 95 112 63 66 69 112 129 116 213 220 170 177 163 158 193 183 199 172 176 195 171 177 182 171 165 158 156 141 122 122 108 90 85 82 84 91 89 98 108 120 125 118 126 115 109 111 134 138 141 134 123 115 115 117 120 150 141 147 128 115 124 133 125 117 97 100 89 100 121 135 146 138 140 137 134 138 144 145 142 146 130 126 140 142 144 153 133 136 136 111 95 115 98 93 54 77 69 129 114 135 184 230 169 160 162 147 185 170 185 181 160 188 176 169 178 181 175 160 160 154 157 138 128 121 108 100 96 98 107 117 115 123 128 142 137 125 135 130 145 138 145 136 140 127 124 126 120 151 148 146 136 115 114 136 131 119 111 90 87 80 103 118 143 140 145 145 143 148 153 155 145 142 131 125 143 148 148 154 137 142 137 115 97 100 92 66 53 70 84 129 135 153 171 224 173 142 182 153 171 154 163 169 161 172 168 165 178 165 179 170 153 149 145 144 123 119 114 108 108 102 105 106 107 122 134 146 141 143 139 140 142 155 158 152 152 140 132 126 125 131 137 130 129 117 105 118 124 112 105 89 89 82 88 108 120 134 142 135 136 135 134 134 133 133 127 126 131 136 145 154 135 145 128 129 113 76 60 59 71 68 97 127 151 145 176 221 176 135 169 158 170 145 157 153 151 163 167 147 160 166 166 163 167 151 145 138 136 124 110 109 109 104 106 114 120 135 142 148 151 143 134 140 141 146 160 153 152 154 145 137 114 121 117 115 118 113 110 110 109 110 99 88 79 76 74 80 93 111 129 121 129 135 130 124 131 127 124 129 125 135 137 150 134 147 133 122 108 61 57 70 90 57 111 120 156 151 164 207 190 150 149 148 160 133 140 141 157 158 146 148 144 156 156 162 149 141 133 129 122 129 109 98 106 110 113 129 125 128 144 152 152 134 125 131 130 135 151 146 146 150 149 134 118 116 112 110 105 104 111 106 100 104 86 77 76 66 62 72 77 92 97 113 118 130 121 118 116 118 121 122 130 133 136 144 143 144 129 123 87 63 42 86 62 68 122 113 155 140 142 182 176 132 130 138 143 146 131 129 138 153 155 137 135 147 148 147 149 129 119 113 115 113 103 102 106 114 115 119 128 133 142 147 148 133 123 126 128 135 145 140 140 142 126 119 124 115 115 118 104 85 89 100 103 99 93 77 71 71 58 55 64 75 83 95 109 119 120 109 117 126 121 123 137 135 131 145 148 149 115 114 91 59 44 53 44 85 128 126 162 135 142 173 185 161 145 124 121 152 129 97 118 140 152 146 143 154 140 142 147 133 121 113 112 106 97 89 98 105 112 114 127 138 143 143 142 141 130 129 128 126 135 136 143 124 108 93 113 112 115 109 82 65 79 76 92 95 87 75 70 70 66 50 60 72 78 86 99 104 113 117 126 130 134 142 145 137 145 142 145 152 125 109 75 67 55 56 53 110 129 148 151 137 151 159 189 166 160 129 112 127 125 86 91 130 148 148 142 149 143 140 130 134 117 113 112 101 90 84 96 105 105 116 120 132 135 129 130 136 113 106 107 111 119 118 134 126 108 97 104 106 114 99 70 58 77 70 74 86 77 66 69 54 58 44 51 63 67 78 94 100 109 109 106 106 114 136 136 130 132 142 131 131 120 86 51 64 72 52 69 121 128 168 141 120 154 151 182 170 154 135 110 94 83 77 86 119 136 147 149 155 152 145 136 124 110 107 106 103 89 83 93 102 107 111 113 120 121 121 117 113 102 92 94 111 117 127 129 119 114 110 114 114 108 96 65 65 80 77 57 60 57 56 62 52 52 46 41 50 61 69 81 94 103 110 109 107 121 139 137 129 144 134 131 138 104 70 48 71 81 44 95 116 141 158 123 127 146 150 174 188 149 136 116 99 80 78 95 118 134 150 146 154 157 154 140 139 118 107 104 113 92 83 88 94 99 97 105 111 113 113 112 100 98 90 95 116 117 135 130 109 109 118 128 123 119 99 67 59 72 70 57 43 48 56 57 58 68 52 57 58 61 73 88 95 100 103 94 103 110 114 125 136 138 135 133 134 86 65 61 82 69 47 112 118 161 138 124 143 138 144 168 197 158 151 131 104 84 88 106 110 134 150 156 164 164 167 150 150 138 122 112 105 108 93 92 96 95 102 102 110 115 117 114 107 91 96 115 123 136 145 137 124 132 141 130 130 122 102 71 61 61 61 51 51 53 56 60 61 68 63 68 76 79 82 84 95 100 106 98 108 119 121 122 127 133 135 136 126 68 59 64 81 46 63 122 138 156 121 130 167 148 128 149 180 158 153 146 106 91 82 106 106 124 140 153 168 167 170 163 153 147 135 118 117 120 113 109 107 97 98 98 109 123 128 127 109 100 105 134 138 147 159 156 155 156 153 138 131 131 100 74 70 70 61 56 55 57 61 52 70 64 73 75 86 89 90 94 98 110 117 111 123 124 125 123 135 139 142 129 108 59 46 50 42 36 100 138 150 143 117 154 158 153 141 128 159 158 152 134 114 93 76 109 95 120 138 155 162 168 179 176 170 157 153 140 134 139 128 125 125 121 122 129 139 132 127 128 121 116 131 153 167 178 184 170 166 167 166 159 146 149 111 84 85 91 83 77 72 79 76 73 81 79 72 86 86 90 87 94 102 105 117 120 129 128 134 132 138 146 136 120 95 54 42 39 20 69 131 146 157 132 125 152 135 163 148 136 149 163 162 129 104 103 80 100 95 111 134 155 166 173 191 186 187 170 158 151 146 148 140 140 143 148 152 152 159 153 142 128 125 136 153 165 162 177 182 178 168 181 185 174 168 163 154 120 113 111 103 92 96 108 99 96 95 100 88 91 94 101 100 109 114 121 125 133 138 143 147 144 142 145 134 120 91 59 51 63 47 103 143 159 156 126 131 146 126 162 155 149 157 164 162 158 122 102 90 89 105 117 134 154 165 178 188 191 187 178 164 168 163 160 160 155 158 170 170 168 176 174 158 149 141 146 160 156 143 154 175 183 178 181 190 190 180 175 174 155 138 124 117 112 108 125 125 121 117 123 114 104 115 116 120 126 130 140 137 145 147 149 155 151 144 146 139 119 96 73 66 79 72 128 156 164 153 137 136 142 127 163 162 169 151 172 178 162 141 104 104 95 97 121 139 157 165 176 187 191 188 180 176 173 172 172 168 162 169 180 182 177 175 183 174 162 146 149 157 159 154 152 169 180 182 179 188 189 195 204 188 177 163 140 126 107 116 135 143 132 122 131 132 126 134 133 132 135 135 150 151 151 154 156 156 157 150 152 141 128 112 95 81 83 93 143 168 170 161 155 139 136 133 164 169 171 156 173 195 179 156 115 100 108 90 116 145 159 164 172 184 190 185 180 178 165 164 170 168 171 182 187 189 181 183 188 181 171 158 146 149 153 163 152 152 165 171 184 185 185 190 204 196 177 164 152 139 126 147 158 154 145 136 141 143 138 146 150 146 145 146 162 162 164 164 159 157 156 157 164 150 144 136 113 110 114 131 176 197 179 166 161 136 144 149 156 163 172 166 178 193 193 189 131 108 125 105 114 144 161 164 163 182 191 180 178 175 167 161 171 172 182 191 196 194 198 194 194 183 181 167 154 147 150 150 143 142 162 168 180 192 191 186 186 191 179 171 166 166 159 174 170 165 152 147 154 155 151 152 156 159 148 150 164 168 168 166 163 159 155 158 175 157 164 158 136 139 138 171 196 197 179 168 156 141 151 145 159 163 168 181 178 189 196 195 159 108 122 114 127 145 166 160 165 180 177 177 173 163 167 171 171 174 186 188 200 204 205 198 203 186 176 160 155 153 156 158 143 142 155 167 175 190 195 184 178 182 173 176 187 185 194 192 190 177 158 155 160 165 161 164 163 162 154 149 164 173 175 169 167 161 155 158 182 164 182 175 160 144 152 174 206 197 177 172 143 146 145 128 166 162 166 183 177 187 192 194 175 126 123 120 120 151 168 159 162 176 171 174 163 165 168 171 175 171 182 187 203 208 205 193 195 188 177 166 157 163 164 163 158 165 174 172 165 179 186 186 177 177 173 178 183 190 195 204 199 188 176 172 169 171 169 173 169 170 168 163 164 170 171 171 168 161 164 160 187 176 182 182 162 135 172 189 208 194 173 169 145 145 139 116 155 162 167 182 174 176 192 188 176 143 138 131 117 153 164 158 159 173 171 168 160 163 162 168 170 175 175 193 206 213 205 193 197 190 181 171 152 164 163 170 168 173 176 165 153 162 170 178 172 175 171 173 180 191 197 210 206 199 196 189 182 178 175 176 176 171 179 170 171 171 174 171 170 169 167 172 180 175 183 185 161 143 180 200 203 175 169 160 140 141 139 113 146 151 170 187 176 165 186 191 183 153 142 146 125 151 166 164 167 170 167 168 159 167 161 162 168 173 175 189 197 201 198 199 198 200 192 173 167 167 162 162 164 161 167 165 148 152 160 171 176 175 162 161 173 176 177 193 189 193 200 192 187 180 177 174 176 174 182 173 174 177 174 176 174 174 165 179 176 178 188 191 164 152 181 198 186 163 167 143 135 137 130 117 136 146 163 176 169 164 183 192 193 156 145 155 125 148 163 161 168 162 162 161 157 158 159 162 163 174 175 195 205 201 205 216 208 199 199 196 188 188 187 157 151 137 151 153 150 156 158 159 164 167 164 154 167 183 165 185 189 192 198 189 184 184 181 175 172 177 180 175 176 175 176 180 176 183 177 183 178 179 191 199 169 162 171 180 178 156 157 133 129 132 116 118 135 137 144 162 158 163 176 189 184 165 146 161 133 141 160 161 156 157 157 159 153 155 162 168 171 173 176 188 206 202 212 218 202 202 204 200 200 197 190 165 161 148 157 161 160 160 158 148 153 157 163 157 147 170 165 192 190 189 192 182 173 184 178 175 171 173 170 165 172 172 172 174 174 183 181 184 182 180 190 183 172 172 160 164 158 154 143 132 128 129 112 115 141 139 138 147 148 160 164 184 178 168 138 147 130 132 153 155 155 148 147 155 155 149 160 164 165 164 175 176 179 180 175 198 190 188 191 190 178 181 190 168 180 176 168 163 159 154 145 141 145 133 138 137 135 152 164 187 187 191 184 174 168 169 158 162 165 154 152 154 167 167 167 165 169 178 188 177 179 186 182 165 170 161 149 147 155 147 132 145 124 128 114 110 133 137 134 147 150 158 163 167 175 155 143 135 128 121 141 147 149 145 137 147 150 143 142 150 150 151 157 165 165 173 170 177 190 188 186 180 174 174 178 168 176 178 176 168 154 154 138 125 128 125 133 141 159 158 167 174 181 193 186 177 167 151 143 145 150 147 145 145 153 155 165 159 163 173 178 163 171 179 177 159 155 168 151 137 151 141 117 153 134 124 110 112 129 132 139 143 147 146 152 160 174 156 153 142 131 113 131 141 149 140 131 134 139 140 141 142 148 155 153 154 158 160 165 160 169 177 192 181 175 168 177 156 150 145 144 142 137 141 129 123 125 128 141 147 152 156 166 166 178 182 179 172 160 141 138 138 140 146 141 141 142 146 158 152 154 165 159 154 170 179 172 151 151 167 164 137 150 138 108 146 153 124 117 114 130 126 133 134 134 130 130 157 169 165 153 147 128 125 122 147 146 136 128 125 129 136 135 138 149 155 151 158 146 150 148 150 152 154 167 164 161 160 160 160 153 152 130 138 131 137 135 125 125 123 133 144 149 151 160 161 168 169 160 149 136 132 135 136 130 134 136 137 138 142 145 144 152 159 140 156 171 173 155 140 134 162 162 148 139 128 113 141 161 127 120 122 129 122 122 126 128 125 144 156 154 161 155 151 120 125 115 134 137 133 118 122 123 133 129 135 144 153 162 160 151 145 139 136 145 145 144 137 136 136 136 141 143 140 132 140 143 145 142 137 139 131 131 132 135 157 153 151 158 155 150 138 133 134 135 141 140 138 134 139 135 134 127 128 140 149 133 163 177 160 145 132 144 162 164 146 129 121 115 136 156 136 118 128 131 127 122 119 120 139 150 153 146 157 156 157 115 112 106 120 132 135 118 116 126 136 132 139 143 157 159 167 152 148 148 142 148 142 137 130 123 127 120 122 125 138 138 148 145 149 145 144 131 128 126 120 129 144 144 140 154 151 144 139 136 138 129 143 147 143 137 136 130 131 122 126 139 131 134 162 167 148 131 130 144 167 147 141 120 120 116 132 151 140 120 123 128 122 117 113 133 149 143 152 151 153 158 161 121 114 110 102 124 136 131 122 131 135 128 145 146 157 157 164 160 150 151 162 156 143 142 141 135 128 124 129 126 146 143 141 139 131 134 131 123 124 127 125 127 131 134 125 139 136 132 132 133 131 133 139 146 141 133 135 130 118 123 125 134 121 131 161 154 134 126 132 145 154 143 130 113 113 122 130 148 146 124 125 123 113 110 128 157 146 143 154 144 149 160 164 133 121 108 90 118 135 137 122 127 130 124 137 141 143 146 144 151 144 147 140 150 136 127 126 122 121 117 117 115 131 132 132 119 112 128 123 125 125 127 117 105 111 121 119 127 128 134 129 130 125 128 145 144 140 129 120 120 115 121 127 125 117 136 168 140 121 126 141 155 145 136 120 111 119 118 129 151 161 124 127 121 111 116 154 166 155 143 153 140 143 159 166 133 126 105 91 104 124 138 126 118 129 126 133 142 146 143 148 145 144 141 130 126 127 126 122 120 120 123 121 114 123 128 120 118 102 120 114 122 120 117 111 105 96 105 116 132 138 140 135 125 123 128 137 149 136 120 115 109 113 119 122 116 96 132 164 134 112 127 151 152 143 129 112 107 126 125 137 155 169 133 126 117 119 143 173 171 154 138 154 153 141 160 173 141 124 120 91 92 104 127 128 122 123 132 132 139 150 143 147 152 148 142 132 126 120 116 117 127 124 128 123 126 131 124 119 121 110 105 107 112 119 111 116 117 109 118 124 140 144 143 132 130 125 128 134 143 130 113 110 103 111 116 116 94 96 128 140 132 117 132 156 148 149 131 113 109 126 131 130 146 169 141 134 121 145 177 180 176 158 146 166 167 153 162 175 158 130 136 102 90 96 109 128 129 118 129 135 133 138 143 145 148 144 137 127 120 123 116 119 119 117 118 111 111 114 108 103 102 97 99 94 101 109 110 116 113 115 117 125 135 128 130 128 130 124 123 128 128 120 115 108 103 103 113 100 86 92 140 125 120 127 140 149 131 143 140 118 113 121 135 127 141 159 150 144 146 177 186 183 183 166 159 183 182 162 167 173 167 147 142 120 91 88 101 115 131 116 119 132 138 142 137 146 153 150 143 126 113 120 111 113 115 111 111 108 109 109 97 92 94 91 91 85 89 93 106 113 111 110 109 116 122 116 123 128 130 122 115 122 125 121 114 111 104 99 107 83 80 94 137 137 142 142 138 144 126 130 143 132 118 127 132 122 143 150 154 149 182 185 195 191 199 174 180 193 190 170 159 169 176 163 144 132 106 92 97 109 128 120 114 125 129 140 143 149 144 149 150 143 128 122 122 110 115 113 110 111 103 108 98 95 96 89 87 91 90 93 107 106 101 104 117 116 116 116 127 127 125 118 112 120 131 123 116 109 101 89 95 60 88 114 129 146 146 144 131 134 117 126 142 156 134 135 135 127 150 156 154 159 188 189 202 205 212 183 188 199 188 175 165 173 182 174 155 132 124 103 94 102 120 131 119 119 124 130 142 149 146 143 149 145 136 126 121 113 109 114 107 109 108 105 101 103 108 101 102 101 100 103 114 110 110 119 124 125 121 125 121 127 118 114 119 125 133 122 114 111 95 81 90 47 83 128 137 157 139 143 125 101 101 132 132 152 168 149 132 133 149 153 159 164 201 206 212 226 226 204 199 198 190 183 182 177 175 174 172 141 144 113 100 100 117 130 128 116 123 131 130 138 142 148 153 145 133 124 117 111 108 113 119 121 129 119 108 111 105 92 92 96 100 102 111 112 117 127 131 120 122 128 119 125 114 117 116 125 134 121 112 107 84 78 77 54 93 132 158 160 149 137 125 94 79 120 130 135 162 168 124 127 144 135 150 156 208 212 224 236 234 218 196 201 191 186 192 185 181 165 181 163 148 130 109 106 115 118 121 129 118 135 134 139 141 143 156 150 144 135 126 119 114 120 128 128 130 122 111 110 107 88 85 87 88 91 98 102 108 108 109 118 121 125 117 116 104 106 116 123 135 125 111 96 84 76 77 71 106 132 164 169 144 137 124 82 70 108 113 132 147 172 142 132 145 137 137 142 218 220 237 246 237 217 198 198 187 184 212 199 178 164 179 177 153 137 122 114 112 120 119 127 125 128 136 138 135 142 144 143 143 140 126 118 109 112 122 124 120 107 94 86 81 78 75 77 79 83 92 94 102 108 106 120 127 121 119 108 113 112 130 130 129 118 102 85 76 83 75 98 137 153 158 179 149 139 104 78 75 91 100 121 133 146 149 147 144 128 131 140 217 231 242 252 235 214 197 199 185 183 224 211 167 164 176 183 157 142 136 119 102 124 117 122 135 125 126 132 136 136 136 136 135 137 133 120 104 96 102 103 105 88 86 75 72 63 63 69 81 87 84 90 98 106 114 124 127 129 127 125 121 126 130 136 121 98 88 77 77 89 82 127 164 175 179 176 163 146 99 72 64 79 85 104 132 136 132 155 146 120 122 126 226 245 253 250 230 208 189 205 183 185 237 207 159 155 180 181 157 160 145 132 103 132 124 129 141 128 127 131 133 135 133 136 135 129 129 115 114 104 97 95 93 88 84 80 75 66 72 79 76 82 82 94 105 120 127 134 140 139 137 143 129 137 130 120 108 86 81 80 79 100 93 141 182 203 193 174 170 144 109 72 54 59 83 91 109 119 135 145 160 125 126 119 245 253 250 240 234 199 186 198 176 191 227 200 132 152 179 184 160 171 145 130 119 136 133 140 147 137 122 134 134 135 132 138 136 136 129 125 121 120 106 100 94 91 87 88 86 93 91 94 97 99 104 118 126 135 144 154 154 154 154 152 143 133 124 100 87 79 76 80 85 105 109 158 182 227 217 207 166 137 114 79 50 58 85 83 100 114 133 143 155 133 136 131 253 255 239 232 236 191 186 191 164 187 218 173 109 141 169 191 175 165 134 137 134 144 138 150 158 144 130 134 138 137 131 139 141 140 137 138 131 130 120 112 97 93 99 100 103 116 116 116 127 128 128 142 147 153 173 170 165 165 167 155 137 118 109 89 88 79 75 78 100 104 132 156 178 228 229 233 177 135 109 89 64 56 78 93 87 106 139 150 137 142 130 133 250 247 229 226 227 186 165 170 161 178 187 137 108 123 150 196 179 159 126 145 142 148 145 160 162 151 141 137 136 138 128 131 148 152 145 147 146 141 138 134 120 117 119 121 129 132 135 137 140 139 143 156 157 169 183 178 173 170 158 142 124 100 94 96 90 86 71 83 113 122 147 154 183 231 238 227 169 128 126 96 90 56 74 91 87 105 128 156 138 135 135 136 236 226 215 203 193 164 147 149 158 161 163 111 89 114 146 187 178 162 134 147 149 148 166 161 158 150 150 144 138 145 138 137 145 155 155 154 154 152 147 147 142 144 134 144 149 156 157 149 146 152 161 175 178 178 182 177 178 159 143 127 111 103 108 104 91 83 74 87 117 140 155 165 197 234 242 220 159 122 125 97 98 80 69 83 92 100 123 153 143 127 132 135 215 190 174 172 161 149 133 115 128 132 120 82 64 119 152 178 176 149 148 147 163 169 177 164 148 150 147 153 147 149 152 147 142 149 157 155 158 155 155 160 166 161 161 163 169 166 170 160 169 169 181 185 180 181 179 170 160 144 127 105 129 116 116 107 89 86 84 95 119 135 158 172 203 242 237 195 152 116 105 97 93 84 73 84 102 99 114 130 131 115 123 121 186 162 153 156 141 132 92 86 100 87 80 84 70 114 157 193 171 156 148 157 161 189 196 164 156 151 132 138 141 146 152 150 148 151 158 165 164 157 162 170 175 171 168 168 169 174 178 176 186 181 181 178 178 174 174 158 141 127 116 125 133 118 110 100 88 90 98 115 135 125 164 183 209 251 224 202 147 95 92 87 95 64 57 73 98 101 109 114 111 105 98 100 155 134 120 124 107 105 53 45 83 48 61 78 82 123 156 188 173 156 136 168 159 194 196 181 163 158 129 129 126 134 146 153 156 155 157 164 170 172 170 173 176 172 175 180 183 182 187 184 185 179 181 175 176 164 157 144 128 123 135 131 124 111 99 90 91 87 100 137 129 122 173 195 229 244 224 203 139 96 82 71 91 69 72 80 104 121 116 113 114 112 98 88 122 119 102 85 54 52 0 9 58 28 70 86 97 142 147 161 163 163 132 169 170 195 194 179 176 174 138 123 119 120 128 138 159 161 166 170 173 176 179 183 182 179 186 189 188 193 194 185 178 178 171 172 163 150 141 136 136 136 141 123 123 99 95 88 86 87 123 146 132 125 169 193 239 241 216 186 136 97 78 51 53 63 85 96 96 126 129 105 119 120 109 98 102 86 65 30 15 19 3 24 50 38 96 106 121 114 104 142 164 160 150 163 183 186 202 182 175 186 167 134 125 118 124 124 132 144 155 157 166 173 173 180 182 185 184 189 185 181 185 183 181 169 163 157 149 147 141 143 136 137 132 117 105 95 91 89 88 106 144 150 138 138 172 182 225 231 210 171 146 99 70 36 32 50 63 96 103 123 120 112 105 114 114 98 67 40 39 20 17 27 37 45 64 66 73 89 97 98 101 119 166 152 158 167 179 182 203 185 181 184 180 155 139 117 117 123 129 132 145 146 150 150 157 161 161 161 168 175 171 182 173 173 167 161 151 143 142 143 141 131 134 127 117 107 101 93 94 86 97 134 154 145 144 149 187 191 223 223 197 153 140 102 64 25 30 45 26 76 111 112 117 129 99 100 104 96 