P2
92
112
255
141 140 138 139 136 136 128 130 137 136 128 139 139 150 155 154 157 150 142 130 122 112 105 108 112 103 103 110 114 121 121 135 144 147 141 138 141 140 147 153 149 153 149 160 167 165 165 175 179 177 168 164 157 158 141 123 112 105 93 90 88 76 65 70 64 70 80 84 81 85 90 86 86 93 92 88 85 95 92 96 99 101 96 97 93 100 97 95 103 93 104 105 143 141 137 140 135 134 132 138 139 135 137 142 152 149 154 152 151 140 124 110 101 100 101 106 113 116 113 125 129 131 134 139 153 155 149 162 169 163 175 175 173 179 180 182 186 186 181 176 198 196 180 175 171 165 168 145 135 129 126 110 102 94 86 76 66 61 58 57 73 80 86 90 87 91 93 101 89 92 94 94 96 101 98 98 100 98 97 96 104 98 96 102 140 139 138 137 139 132 137 139 136 138 145 148 149 156 151 146 146 124 106 100 107 109 121 120 123 127 123 135 149 149 144 150 161 169 172 162 169 171 170 171 179 184 179 180 184 179 180 184 196 184 185 184 184 170 173 159 152 150 149 135 116 96 101 94 79 69 64 56 52 63 72 83 91 92 88 106 97 93 90 100 95 101 103 103 103 101 100 97 98 102 98 99 139 135 139 138 133 140 143 138 133 136 141 146 145 144 141 143 125 114 106 107 115 117 119 126 134 145 142 147 145 153 168 174 179 169 158 160 153 156 151 146 159 159 165 170 167 176 177 175 161 171 171 177 175 169 165 160 160 159 156 144 141 134 113 105 92 86 75 72 68 66 59 67 77 77 86 97 104 95 95 99 100 100 106 112 104 104 105 101 99 102 104 100 140 138 139 140 137 140 141 138 138 142 137 144 141 136 130 124 121 115 114 119 112 116 129 142 145 148 152 150 156 171 185 171 169 150 151 153 143 139 139 144 134 130 145 146 138 152 164 156 152 139 156 162 163 156 148 152 152 147 148 140 139 149 139 126 115 112 93 84 88 72 65 63 60 62 69 85 97 101 98 99 103 102 101 110 113 109 109 108 98 104 107 103 141 140 140 143 144 149 142 139 139 142 132 130 134 123 119 130 121 114 116 106 107 121 131 138 136 143 155 162 161 155 152 154 137 134 136 125 126 120 122 119 113 107 113 121 111 117 133 135 135 131 133 142 147 153 144 138 139 132 134 120 128 125 129 120 117 121 118 115 98 96 83 79 61 60 67 74 92 94 104 100 103 107 109 107 109 117 117 110 103 103 106 111 137 139 138 142 150 153 146 136 138 135 138 126 128 131 133 127 119 116 117 111 117 119 124 127 141 155 159 152 155 140 145 144 132 138 136 136 125 119 120 107 104 98 96 103 97 91 100 112 121 127 127 132 133 134 137 129 137 138 134 126 119 126 130 116 109 106 120 121 120 117 101 99 79 75 75 79 86 93 105 107 103 107 108 111 113 117 126 117 111 106 104 109 136 139 146 148 150 152 146 143 143 136 132 131 132 127 121 120 122 124 127 126 121 115 124 131 148 144 130 120 125 123 127 131 132 129 124 117 111 121 118 102 92 86 93 85 86 83 85 92 104 109 108 121 125 128 136 121 131 137 136 129 121 123 136 117 110 103 105 121 125 116 104 108 101 94 90 88 79 85 95 109 115 111 105 109 117 118 124 131 123 115 104 107 136 141 142 153 147 147 150 149 144 135 133 135 125 114 114 127 134 137 141 137 125 128 135 145 124 110 103 106 109 121 127 125 123 119 116 112 116 108 120 114 96 91 101 91 84 87 90 101 104 112 112 114 116 128 121 117 128 138 135 124 122 117 128 130 124 112 107 112 109 107 97 109 107 110 111 93 87 92 94 104 117 120 113 115 115 119 117 127 132 121 110 107 140 143 146 150 150 148 153 146 137 140 135 126 115 116 131 130 140 137 138 137 134 134 139 116 94 99 101 99 105 119 133 130 128 132 134 122 117 116 107 104 103 103 107 97 91 94 96 105 114 118 126 123 127 127 133 129 130 141 139 132 138 140 127 139 128 107 107 107 108 102 111 108 106 110 109 112 100 106 104 101 117 129 122 122 122 124 121 118 128 125 112 115 140 148 149 148 153 144 137 134 139 127 134 117 121 137 137 128 137 132 140 141 128 130 103 88 74 91 106 102 110 126 129 136 133 142 140 133 135 142 134 130 121 117 115 110 97 91 102 109 115 117 134 137 139 139 141 144 143 154 152 143 146 146 134 130 122 116 116 115 107 104 103 95 108 104 112 111 116 113 107 118 110 129 134 125 124 128 127 127 128 131 117 119 140 147 148 147 149 136 126 140 135 133 118 138 139 137 142 149 143 147 143 131 125 104 88 76 87 94 97 104 106 115 126 132 131 134 138 135 136 142 137 137 131 126 133 126 119 113 107 117 120 122 140 149 150 147 147 138 151 159 161 144 141 146 144 136 134 114 120 125 115 112 118 100 104 91 99 115 119 127 118 127 127 135 140 141 136 132 129 139 132 129 128 116 139 143 145 149 139 123 131 143 129 132 142 153 135 141 139 153 147 139 133 129 107 89 86 84 101 89 93 111 118 126 127 136 128 125 128 126 128 133 132 129 132 126 138 134 129 127 129 129 139 144 150 145 147 155 148 137 154 167 152 147 147 154 153 142 148 129 120 126 115 117 130 122 117 112 97 109 124 111 140 137 141 137 148 150 154 155 139 133 141 137 131 117 140 153 146 144 125 124 134 129 133 145 143 140 134 141 147 148 142 138 145 114 80 94 93 100 90 98 94 118 124 129 124 122 123 121 124 127 131 131 126 119 128 134 143 135 132 137 132 136 145 155 151 151 145 147 154 141 160 173 153 141 157 159 151 154 152 152 140 134 121 118 125 131 128 117 110 111 134 118 128 150 150 142 151 159 164 180 168 139 138 142 139 127 146 151 136 122 119 116 132 143 149 157 136 123 129 154 138 132 138 152 132 95 95 112 95 92 95 95 97 116 123 124 112 119 128 121 125 136 138 138 136 134 139 141 137 136 144 150 138 142 137 147 152 154 136 147 150 146 160 168 147 143 155 157 142 161 165 170 159 159 138 129 127 132 136 131 132 116 124 141 131 156 155 164 156 151 170 180 184 157 146 138 152 137 150 146 128 118 106 119 149 161 159 139 130 117 138 141 135 141 149 142 115 98 108 103 106 102 102 97 112 121 117 111 112 116 125 118 125 137 144 141 137 138 145 134 136 147 146 144 143 140 141 139 153 152 135 157 152 151 166 163 155 153 156 159 154 164 177 182 177 173 164 152 143 139 141 144 147 127 112 135 159 152 163 165 178 163 164 187 181 169 157 145 153 149 146 148 125 116 108 132 164 169 146 125 120 126 131 126 139 138 152 123 114 111 106 108 113 102 103 102 113 105 111 112 112 116 123 125 127 136 137 129 131 131 134 122 131 137 131 131 139 144 138 141 141 141 148 155 157 163 162 171 161 167 165 164 168 168 174 186 182 187 174 176 166 144 148 136 136 134 123 115 139 155 158 166 188 189 179 182 192 181 176 152 150 157 144 144 112 120 126 154 165 147 131 129 123 136 132 127 128 142 145 119 102 122 119 114 106 102 111 105 104 110 119 117 120 117 115 118 133 132 127 121 114 122 121 119 117 115 123 117 127 127 123 124 125 130 143 143 157 157 172 171 172 172 173 173 173 174 180 184 189 187 183 188 179 166 155 147 144 128 139 120 117 146 158 163 187 196 185 188 181 194 180 167 152 160 147 134 117 121 151 163 143 132 138 139 134 134 124 130 131 145 137 117 118 131 125 121 104 108 103 94 99 106 117 112 112 117 109 118 115 114 108 109 103 103 104 109 98 102 104 106 107 103 115 109 108 122 124 133 155 157 167 170 171 165 168 168 164 173 178 180 187 195 187 192 185 168 161 157 149 136 131 132 117 127 157 161 179 191 193 195 188 194 186 171 166 158 141 131 117 138 161 148 126 143 142 134 134 122 131 140 131 132 115 120 126 130 117 125 108 99 98 107 112 120 123 118 114 107 101 98 98 95 93 102 92 93 89 91 85 89 95 88 89 99 103 99 105 122 116 127 141 138 151 164 160 155 159 163 160 167 177 174 175 198 191 196 188 178 166 167 159 143 131 124 119 120 141 165 163 190 198 197 201 190 194 177 179 160 135 133 126 147 159 148 139 148 143 145 124 135 141 138 128 129 125 124 135 134 126 127 104 97 111 121 116 118 111 106 102 97 92 87 89 87 87 93 90 84 78 78 76 80 82 86 88 90 95 90 102 110 109 118 121 122 139 140 147 146 151 150 147 163 165 173 173 180 194 201 192 185 173 171 162 155 143 112 112 117 119 142 166 185 201 202 202 201 191 192 184 171 130 138 151 159 163 151 154 152 148 141 131 146 146 127 127 132 126 130 136 135 135 129 112 120 120 116 115 112 108 96 92 90 84 85 81 79 80 79 81 77 70 68 76 80 81 82 85 90 84 86 102 93 106 104 98 104 126 127 123 139 143 136 142 146 153 158 161 172 182 196 194 191 185 176 168 162 154 122 92 93 98 123 146 184 202 213 206 211 198 191 189 180 130 142 168 168 151 175 167 164 147 121 138 142 128 131 128 136 133 136 140 149 139 133 122 122 114 107 104 101 95 95 92 92 86 82 78 72 74 68 74 69 64 65 77 78 79 80 86 84 84 92 93 91 100 95 92 102 110 107 112 126 121 121 131 131 137 142 149 163 171 183 194 198 194 187 170 155 160 130 97 74 83 97 130 164 211 216 224 219 201 188 186 180 142 148 175 163 175 189 179 163 120 123 133 135 128 149 140 139 147 147 152 156 151 138 125 112 103 105 103 100 96 94 100 91 76 80 71 72 70 71 71 80 74 76 74 86 81 84 86 82 86 95 93 91 94 91 95 105 105 106 109 113 109 114 121 124 124 131 142 150 169 179 185 200 198 197 180 157 145 129 106 76 72 76 118 144 211 214 227 214 216 194 183 172 137 152 168 184 200 189 182 152 124 120 124 143 148 152 150 145 150 150 149 154 148 139 124 111 109 107 102 98 96 96 93 83 75 70 74 75 76 82 84 85 74 80 76 80 81 84 91 88 97 93 92 98 99 91 94 104 98 106 105 101 100 107 112 115 115 122 134 136 153 164 175 190 198 201 190 170 136 136 106 78 73 58 93 143 180 217 227 232 216 203 193 175 135 152 181 202 202 197 170 140 121 120 138 164 164 159 160 155 149 160 163 164 141 131 120 110 117 112 106 97 103 102 89 84 81 84 85 83 83 92 88 85 86 84 82 82 85 89 93 98 103 98 104 106 101 98 99 99 105 106 96 100 100 103 106 107 109 106 126 132 146 152 163 172 191 194 197 184 148 134 117 92 71 62 86 120 179 189 208 239 222 207 192 174 143 156 188 201 206 195 168 143 120 121 158 164 167 166 160 164 149 163 171 163 134 124 120 123 123 112 100 111 111 106 102 95 102 100 102 104 101 99 91 89 90 85 81 78 86 87 93 101 103 106 105 108 102 106 104 104 105 100 96 101 104 105 104 106 109 105 122 129 132 142 146 160 178 183 186 184 168 137 118 108 73 69 75 109 146 176 196 233 227 207 198 174 149 166 188 208 209 189 152 123 125 134 157 165 166 175 165 160 155 172 170 155 144 125 139 131 119 115 124 134 129 122 119 117 115 114 113 114 112 105 95 96 96 92 85 81 85 88 90 97 102 111 111 110 109 111 105 108 107 101 105 105 106 103 109 106 111 115 118 124 127 131 139 149 162 168 169 173 178 152 133 106 84 63 69 97 129 155 176 224 220 210 200 189 162 188 186 214 199 169 122 120 132 133 162 176 186 179 170 166 173 172 167 149 142 136 143 126 131 141 151 146 137 137 133 134 134 134 128 124 122 115 109 106 106 102 96 88 87 90 95 102 104 115 111 112 112 115 112 113 114 110 112 106 109 112 116 111 112 119 123 126 131 129 129 139 148 153 170 153 162 164 144 109 86 73 67 96 120 135 150 216 221 218 202 200 185 194 194 209 194 145 109 119 121 141 166 187 188 178 164 173 167 161 156 140 134 138 141 134 153 152 152 147 144 148 147 148 148 151 147 140 139 133 124 122 116 113 101 96 95 93 100 108 107 116 120 116 121 120 115 119 122 119 119 122 125 124 123 117 116 117 117 122 128 124 123 127 134 146 159 150 137 167 141 112 95 68 63 98 116 111 140 195 231 231 208 200 190 189 200 208 163 119 106 115 121 147 169 193 184 180 149 164 160 153 150 137 138 139 140 148 153 149 143 144 150 154 154 153 154 156 154 149 149 144 137 133 129 121 111 101 102 103 102 107 116 120 126 130 127 130 127 125 135 128 135 142 139 133 132 134 129 122 116 121 122 116 113 120 123 133 146 162 135 153 143 115 90 64 58 99 110 105 125 168 234 243 223 184 183 180 202 195 139 104 101 111 123 150 189 183 184 164 141 162 159 150 148 137 137 130 144 141 145 139 143 145 151 155 156 160 159 158 158 155 152 147 143 141 141 133 125 114 112 110 112 117 122 129 132 138 135 141 135 138 143 144 150 148 146 142 142 146 142 133 127 121 117 111 99 104 109 123 134 146 138 136 147 120 87 66 58 87 113 107 107 140 204 240 234 188 174 173 199 172 116 100 101 105 125 136 177 149 171 145 144 156 162 155 153 139 136 137 140 135 127 134 142 148 151 155 161 161 154 158 153 156 150 148 151 147 145 138 130 131 119 128 129 131 134 141 140 148 146 150 152 149 154 160 166 163 155 150 149 155 150 146 144 123 117 107 96 88 93 114 116 134 127 131 134 116 92 69 56 72 110 92 98 109 179 235 222 200 151 173 178 161 103 96 93 113 110 101 153 151 159 145 146 156 159 161 152 143 141 138 136 129 128 142 146 145 140 142 141 143 141 145 146 148 146 146 153 148 148 149 139 138 131 137 149 140 142 137 142 143 146 151 159 150 160 166 168 166 161 156 154 155 155 151 151 139 126 118 95 90 86 95 110 113 116 123 126 108 88 69 49 76 103 82 99 101 153 243 221 202 157 181 182 128 104 86 88 108 82 99 138 155 149 146 145 153 158 156 147 145 137 141 135 137 139 139 130 131 130 138 145 146 150 147 147 151 148 148 154 154 155 155 147 145 148 141 149 144 140 139 146 147 154 156 161 156 161 167 169 162 162 154 158 159 164 167 162 154 149 128 118 95 94 86 103 98 102 116 115 107 74 65 54 82 86 86 92 105 138 233 242 206 166 180 163 121 109 79 102 90 92 111 129 139 148 142 136 149 157 150 145 139 126 131 132 136 130 124 125 126 130 136 142 141 145 141 140 145 138 145 152 157 152 150 149 152 149 141 148 141 134 143 146 150 159 162 162 161 164 167 173 169 162 161 157 162 166 168 169 168 159 147 144 128 109 95 95 90 93 94 111 100 77 50 54 81 84 86 89 108 144 218 246 221 180 173 160 119 101 80 102 91 93 101 113 137 149 137 139 149 144 143 138 123 118 117 113 120 111 119 120 119 120 125 128 132 138 142 144 141 149 146 153 160 158 152 148 146 146 138 143 144 139 136 149 154 163 167 171 166 167 171 174 171 161 160 157 158 163 164 164 163 162 153 149 143 135 104 101 90 90 89 97 88 63 40 52 84 73 81 88 95 151 202 252 237 195 163 141 111 91 87 98 96 80 88 98 133 152 134 134 148 143 142 123 106 109 105 109 119 123 123 117 118 111 117 127 132 137 147 152 152 152 156 157 166 167 158 154 152 146 142 148 147 144 141 152 158 165 168 169 175 173 174 176 169 164 160 157 152 149 152 148 152 157 154 150 151 143 128 110 96 83 80 85 70 49 30 59 91 77 70 85 96 137 185 255 224 184 150 116 113 92 93 91 86 66 70 95 139 154 135 132 140 143 127 110 92 104 106 102 115 124 115 106 112 117 123 128 132 138 143 149 150 155 162 164 173 169 168 165 164 155 152 153 151 150 153 162 161 175 176 176 178 187 182 180 174 166 162 154 147 147 138 140 147 149 155 151 151 156 145 123 115 82 75 80 56 51 10 62 93 87 81 74 100 125 183 243 224 163 125 123 121 88 94 79 68 55 69 95 142 163 134 120 134 125 117 101 102 110 111 108 110 125 109 103 113 122 118 123 123 128 124 127 141 147 153 163 169 166 162 159 160 159 156 148 151 153 167 171 171 180 183 183 182 185 187 181 176 170 161 153 147 143 139 132 128 135 139 146 147 152 141 118 117 85 79 64 50 33 11 69 86 84 92 70 97 119 191 223 223 142 125 143 113 105 96 62 60 49 68 78 138 150 117 107 122 111 111 112 121 124 126 120 114 120 113 99 103 113 114 134 141 152 145 144 146 146 152 162 167 165 157 155 153 156 154 149 151 157 164 173 174 178 183 190 189 188 183 173 172 166 159 154 146 146 135 132 126 127 129 125 141 135 140 131 124 84 84 64 44 27 18 68 72 89 90 85 92 136 171 214 206 119 146 149 112 134 87 51 57 44 61 78 92 126 122 108 119 109 130 137 146 134 142 140 125 119 127 120 123 142 149 151 152 158 157 152 155 152 151 155 158 149 142 141 135 138 140 139 145 150 160 165 173 177 179 179 181 181 174 169 163 161 153 155 149 141 136 130 128 126 125 123 136 121 119 125 128 96 76 68 27 15 36 56 65 89 103 121 96 153 166 200 205 123 131 142 140 151 76 64 55 36 47 58 86 113 127 89 99 93 106 102 109 96 104 100 93 98 116 126 118 146 156 155 153 151 149 152 151 147 147 148 151 143 135 132 130 130 130 133 135 144 145 148 160 159 164 166 167 162 157 161 155 149 141 144 138 131 131 127 121 126 128 120 128 129 110 118 114 106 75 62 18 6 33 46 67 97 123 142 143 159 173 193 199 132 139 148 143 133 68 77 54 60 58 54 82 84 124 107 137 136 130 128 111 95 110 101 96 99 111 132 129 138 142 145 142 147 139 140 141 137 133 128 131 128 124 130 130 125 133 121 128 127 129 129 139 141 147 152 151 149 151 157 154 141 132 133 119 112 116 113 111 104 111 110 112 120 105 116 100 96 85 56 26 4 34 29 55 90 146 154 179 174 177 209 191 136 155 127 132 104 70 93 60 61 78 80 84 102 141 123 140 124 122 110 92 91 102 94 88 90 119 129 119 113 121 116 108 125 132 128 129 125 117 104 113 114 116 114 107 97 111 102 106 110 107 104 112 120 133 138 141 143 141 141 145 132 122 118 108 101 104 97 107 105 102 106 100 119 103 113 89 84 80 53 19 5 46 14 48 87 154 171 201 204 168 234 205 167 152 123 132 115 96 96 62 69 117 87 82 123 156 125 126 93 101 77 95 103 110 107 98 100 119 99 68 75 90 89 74 93 122 123 126 112 108 96 99 111 122 122 125 103 102 98 106 107 102 98 96 114 128 138 135 142 140 133 135 126 120 113 107 93 83 82 79 82 95 93 88 109 119 110 115 84 91 60 21 0 34 16 36 107 167 177 198 217 177 213 203 184 138 120 103 120 103 112 73 97 123 102 105 138 161 132 120 113 99 93 101 118 118 106 99 106 110 88 69 83 109 102 99 116 132 129 128 113 106 100 98 108 116 123 135 128 120 117 114 113 117 110 103 118 125 131 134 141 136 129 138 121 112 102 102 91 76 72 77 81 80 82 94 75 107 91 107 100 100 93 46 17 49 13 47 135 163 190 200 224 180 189 186 159 136 110 92 101 113 88 68 96 119 133 131 162 173 139 126 110 91 101 120 132 141 102 107 85 101 80 58 64 85 98 92 109 137 138 128 122 123 112 106 110 109 128 142 137 137 126 122 125 124 119 103 111 137 134 133 145 124 98 140 129 86 108 100 94 78 67 72 83 74 77 91 87 104 110 94 86 99 96 49 38 75 31 77 146 182 212 200 212 163 171 167 129 112 92 84 89 111 93 54 88 113 140 132 164 159 136 129 106 108 132 121 152 158 106 87 94 92 70 47 42 93 101 109 125 138 142 129 124 128 114 111 114 106 115 106 108 131 114 112 125 123 122 122 119 148 143 146 149 127 102 123 90 95 129 128 120 107 84 86 84 85 101 96 117 133 123 105 117 102 91 75 45 66 61 91 145 174 198 185 210 174 160 149 110 74 90 74 95 95 88 33 96 99 142 138 154 176 139 132 124 133 159 150 176 159 102 82 96 82 76 74 75 100 121 122 122 132 143 133 135 140 135 119 113 108 109 128 140 140 132 122 117 123 140 130 114 137 155 166 158 129 133 127 108 103 140 132 131 115 128 108 90 92 104 114 91 135 127 82 107 105 107 111 65 50 62 98 136 145 179 173 174 148 151 137 112 52 96 81 61 88 97 37 88 99 152 156 162 174 153 155 125 162 162 153 169 148 118 101 101 110 100 85 124 143 140 135 140 135 158 144 142 146 138 121 112 108 114 134 150 161 157 144 126 127 152 141 137 139 161 180 175 167 173 160 146 167 168 165 156 152 140 118 112 123 119 117 86 121 120 90 104 90 100 137 87 43 97 100 127 134 157 143 142 118 135 125 112 44 111 113 78 89 110 47 99 136 146 172 182 163 143 153 137 157 159 151 164 153 139 93 100 101 122 135 162 168 168 168 176 163 157 163 150 134 155 120 119 110 125 152 157 169 166 161 132 124 140 141 141 152 145 171 164 168 190 194 193 188 191 176 185 178 181 152 133 131 121 106 72 108 125 109 118 99 91 148 120 64 114 103 134 128 133 128 127 103 143 97 124 60 95 110 80 94 104 53 101 158 155 182 202 163 139 137 147 166 155 138 168 166 147 86 86 100 129 164 175 168 169 161 159 168 156 161 147 153 143 124 123 125 138 153 176 170 167 173 159 145 141 148 147 155 143 154 168 186 187 187 213 189 201 186 191 192 178 168 136 137 131 106 82 93 123 119 125 114 98 151 143 99 131 127 146 131 107 104 99 94 141 89 151 67 83 102 72 85 101 66 111 160 174 180 211 167 146 136 152 185 143 125 153 155 136 101 91 109 133 139 150 147 148 136 129 137 143 137 169 156 135 132 131 144 158 165 194 186 169 162 155 151 147 135 127 131 122 131 155 175 182 186 197 171 160 169 162 156 143 159 149 108 120 107 122 117 128 152 147 126 118 166 159 161 163 170 133 108 85 94 77 109 133 91 184 85 82 96 80 90 93 82 123 160 207 201 196 180 175 157 179 198 153 115 151 149 130 105 112 105 95 95 111 104 100 104 126 128 136 152 168 136 108 116 118 148 152 166 183 182 156 151 150 145 151 139 132 122 119 115 130 147 165 177 169 164 171 141 134 131 114 117 120 118 114 115 124 145 151 178 159 146 141 174 194 192 178 187 133 113 74 93 71 106 146 109 188 110 86 84 79 106 80 121 139 161 224 216 204 182 186 165 172 188 155 135 155 138 115 88 113 108 95 102 114 119 124 128 131 137 148 152 145 92 99 115 109 131 129 163 163 159 151 125 124 118 126 131 126 120 100 90 99 111 126 141 150 152 147 133 101 112 108 116 129 139 132 126 130 155 163 177 174 168 158 184 204 198 197 193 130 115 88 102 65 124 150 113 192 147 87 105 89 105 86 132 160 162 229 216 205 197 181 169 167 189 176 149 160 128 113 105 114 110 114 117 120 137 149 149 142 156 166 147 109 68 78 92 130 131 129 164 155 132 128 112 92 97 116 140 117 139 104 94 107 108 109 129 124 132 127 113 85 97 112 120 131 139 137 145 126 140 162 178 182 195 162 176 192 198 189 173 120 105 77 105 59 123 142 100 195 149 105 126 89 106 84 131 157 145 217 208 199 212 184 180 170 187 183 138 157 129 112 110 122 119 124 131 135 147 146 148 147 161 154 114 89 74 65 98 139 118 156 169 158 118 112 108 82 87 103 125 118 132 117 106 94 109 111 112 117 121 130 127 109 111 115 118 123 132 134 130 125 143 157 171 188 185 152 167 196 196 190 134 125 99 49 84 72 119 135 111 191 154 103 141 85 107 75 139 157 148 191 192 186 202 189 193 181 184 187 151 156 156 120 115 123 127 132 140 147 145 148 151 156 137 121 122 101 77 94 132 154 136 162 163 153 120 107 109 78 93 97 115 139 117 120 116 113 103 113 114 108 111 124 125 107 117 116 118 119 125 134 123 117 134 154 169 185 180 152 155 201 216 190 132 138 97 45 71 58 128 127 118 192 157 107 148 117 101 93 128 168 159 179 181 165 195 188 197 199 189 195 178 156 165 148 125 133 134 138 138 144 141 156 153 124 119 144 119 84 104 140 157 149 157 172 159 144 113 94 106 90 97 111 95 136 114 101 115 120 99 107 115 111 106 104 112 111 116 117 114 120 125 122 120 117 141 158 177 184 171 152 153 217 229 195 145 142 87 91 78 90 133 133 119 204 166 113 141 148 91 100 134 159 190 142 181 172 175 184 190 199 197 203 194 155 154 154 143 149 150 142 139 140 142 135 124 120 130 131 109 95 130 156 156 145 148 167 149 140 117 91 113 103 79 105 93 116 114 94 103 105 112 108 113 118 116 106 109 106 108 117 117 119 120 118 111 121 137 161 184 177 174 146 174 211 222 199 147 151 88 127 69 128 128 123 109 186 173 128 124 158 100 108 143 168 180 164 158 165 165 190 184 184 191 202 199 157 147 156 143 152 158 149 148 138 134 129 126 126 123 113 123 113 132 143 146 136 124 137 137 126 111 101 111 91 76 88 95 100 111 96 93 101 93 95 112 117 118 115 110 109 115 127 129 123 118 116 109 132 162 176 190 176 165 150 185 196 206 197 153 127 106 127 100 136 128 119 108 177 178 144 113 155 82 96 119 147 177 158 153 157 141 174 188 189 182 180 177 165 136 132 138 137 142 135 129 126 118 117 115 113 115 117 116 114 123 128 134 128 120 125 126 121 102 108 102 93 95 91 100 99 103 97 100 95 98 88 105 114 120 118 122 120 122 126 136 125 117 125 125 144 156 178 181 171 169 155 187 176 200 213 145 122 108 121 115 134 130 120 106 156 172 142 123 138 65 79 80 137 160 174 168 140 141 148 171 174 175 168 165 156 156 133 134 127 130 118 114 107 104 103 105 106 110 108 100 98 114 130 142 142 121 126 119 95 102 101 106 91 85 99 111 113 113 101 110 100 101 108 100 113 108 106 113 125 117 121 130 130 123 126 128 134 143 172 179 167 156 158 181 162 198 200 147 113 100 127 122 131 142 131 115 131 151 121 121 125 63 70 84 119 146 168 189 169 141 139 145 156 155 163 165 149 152 140 132 133 123 110 105 99 98 91 99 99 94 92 96 97 122 133 148 139 130 131 124 109 97 99 93 83 88 104 113 124 124 116 112 95 98 108 106 105 102 95 94 104 113 119 121 120 115 133 131 134 134 165 172 156 157 150 165 167 193 166 125 109 116 131 127 140 144 125 110 119 127 127 121 139 75 57 100 130 126 155 185 181 159 147 150 137 138 148 144 141 143 134 132 137 123 109 94 90 88 78 92 92 91 90 102 101 130 136 148 145 127 132 133 135 110 95 88 72 86 108 115 128 136 136 128 97 95 102 104 92 100 96 93 99 107 107 101 108 103 118 128 142 146 148 155 160 130 142 146 182 184 144 121 110 145 146 132 140 145 116 92 113 126 133 114 128 121 68 96 134 121 134 173 180 161 156 145 146 135 129 141 139 133 127 127 125 119 100 89 85 84 78 89 87 88 100 117 119 140 143 147 142 134 133 128 120 105 91 88 75 83 92 110 134 143 142 140 112 94 97 103 104 95 98 93 97 95 98 90 93 91 110 116 133 142 147 150 136 143 139 158 193 167 147 145 110 156 141 141 135 130 107 111 117 115 134 96 117 100 67 63 92 99 124 160 166 156 163 160 149 141 134 129 127 127 127 116 104 109 103 85 85 84 86 89 90 98 110 121 126 132 132 153 144 149 142 117 109 98 99 107 101 101 100 114 141 143 132 124 106 105 99 94 101 106 98 90 92 86 94 87 95 101 111 110 138 155 155 137 146 143 145 162 179 152 152 147 122 144 136 137 135 131 110 111 119 121 142 97 104 113 68 70 81 98 132 166 177 164 159 166 152 147 145 145 135 129 131 125 107 102 98 85 77 82 87 93 96 96 106 111 119 120 131 153 148 148 138 106 97 104 105 118 125 115 109 112 133 143 132 116 100 97 92 90 92 98 92 87 74 75 79 83 85 93 93 101 129 139 139 144 134 156 149 152 160 153 132 144 122 115 120 147 123 121 108 117 106 133 147 110 104 119 80 83 100 122 158 155 181 170 169 167 159 155 155 148 142 129 117 111 105 83 86 85 79 86 93 100 96 102 109 128 123 132 152 159 138 130 126 111 105 109 123 115 127 119 120 120 130 131 129 116 108 104 101 90 85 94 88 74 64 62 62 71 77 89 79 85 114 130 127 125 129 156 157 161 140 144 130 145 120 106 130 149 116 120 118 114 110 128 156 135 118 121 94 82 120 125 165 153 167 171 174 171 164 161 153 142 124 114 92 85 82 71 73 76 67 71 82 87 83 100 109 111 116 128 156 152 127 124 118 111 107 119 127 117 122 120 128 131 144 130 126 124 117 113 97 88 78 81 83 72 59 47 44 55 66 81 75 93 107 115 117 123 140 156 154 161 146 135 114 127 122 121 156 142 114 111 123 126 128 131 142 147 127 123 106 104 111 115 167 156 164 174 180 184 172 170 165 148 131 120 101 86 76 69 64 66 64 80 99 114 114 95 107 96 105 127 148 140 131 118 103 89 96 100 110 111 116 118 129 122 144 144 137 135 133 130 125 109 101 100 91 85 63 42 32 31 51 67 73 78 89 101 107 125 134 148 141 159 147 129 108 125 132 152 159 134 103 116 133 136 132 144 120 140 145 117 117 128 130 109 158 163 174 186 186 191 179 179 166 157 133 117 110 94 82 74 72 70 82 100 114 136 129 103 87 90 98 111 122 123 101 89 51 43 65 86 95 92 102 107 113 110 127 142 144 146 150 148 135 122 111 113 106 98 78 59 54 47 62 69 76 81 91 94 102 122 138 133 137 157 155 133 138 140 144 177 152 113 108 127 136 136 131 134 117 127 139 126 114 120 122 100 136 167 183 195 193 195 187 177 169 158 137 111 104 92 83 79 86 95 110 120 131 147 144 126 109 97 107 102 95 106 97 76 58 41 55 72 94 92 88 85 85 85 103 123 131 135 141 146 164 145 135 128 117 122 98 93 84 80 86 86 88 84 89 97 103 119 144 135 142 139 152 143 156 136 165 183 125 98 118 133 132 130 128 115 115 128 131 126 127 117 101 99 136 163 177 195 201 203 190 179 172 157 132 118 101 100 83 89 92 112 124 131 138 143 147 137 114 104 118 108 93 104 98 75 68 56 59 87 105 92 84 74 71 60 71 91 101 105 117 133 138 141 130 121 127 127 118 109 94 92 106 100 100 109 102 107 111 124 154 154 157 145 160 157 149 138 172 166 111 94 121 123 131 124 122 94 100 117 123 111 126 123 97 94 145 158 159 205 207 203 194 188 173 155 135 127 108 108 93 93 100 116 126 141 139 144 141 134 126 115 124 117 110 114 98 76 80 81 95 108 113 101 88 83 66 62 83 101 91 103 108 121 126 130 125 125 125 128 138 120 112 109 124 119 113 122 119 113 114 134 156 172 177 160 171 177 155 150 158 137 115 95 114 113 126 107 116 100 92 107 125 112 115 152 123 102 150 135 155 197 212 203 193 196 177 162 144 134 120 114 115 107 109 123 127 133 137 143 140 132 138 138 131 119 112 129 119 102 103 99 111 117 108 109 104 98 98 97 117 121 108 120 124 121 128 124 121 125 128 130 137 132 118 113 130 128 126 132 130 121 118 139 165 188 170 163 183 180 157 145 149 145 119 99 96 109 124 114 111 102 85 78 100 115 110 146 160 109 154 140 156 188 218 203 197 191 179 168 155 137 133 120 122 109 120 121 120 129 139 132 141 133 135 131 130 107 106 126 115 107 107 117 132 129 114 127 124 109 127 135 146 141 142 160 155 136 129 120 119 125 125 133 136 135 117 112 126 131 130 142 136 136 136 146 176 188 169 171 188 174 142 130 143 146 105 88 96 113 125 131 90 101 92 62 81 114 95 137 149 133 154 155 158 183 216 206 194 190 180 179 153 147 138 130 125 108 115 111 113 117 128 123 134 135 127 122 123 121 111 114 120 110 112 122 129 123 117 120 133 127 145 149 145 147 160 174 184 168 154 134 135 122 130 134 140 132 128 124 126 131 129 143 153 149 165 165 182 182 155 172 188 159 137 137 130 135 94 86 103 111 126 139 81 101 98 71 74 105 102 122 139 133 172 168 151 176 209 196 189 190 182 173 156 154 140 134 125 118 107 115 128 135 120 124 135 134 119 125 118 132 111 118 123 128 136 136 133 142 141 138 152 147 154 155 152 155 170 185 194 184 170 153 140 133 132 146 146 131 135 119 125 128 134 148 148 163 178 194 188 172 155 172 183 152 145 125 123 103 91 85 105 119 124 139 96 109 91 73 80 108 103 114 149 140 166 184 166 178 204 186 184 175 171 173 157 158 145 139 131 120 109 106 118 119 115 124 136 132 121 124 120 124 112 147 144 141 148 141 142 165 167 168 168 163 177 166 156 161 170 169 172 169 172 176 154 148 138 146 146 139 138 116 127 127 138 147 149 168 181 205 182 169 162 178 174 145 123 107 99 88 87 96 108 122 126 130 116 117 92 86 93 109 101 116 144 140 154 185 161 186 202 177 181 162 163 166 153 151 144 148 133 122 116 116 117 109 120 127 124 118 127 129 121 135 151 135 137 140 146 147 154 177 180 175 175 158 170 164 154 154 160 151 153 155 153 159 159 159 146 134 139 134 130 123 130 129 132 146 149 173 195 208 179 158 159 173 145 120 107 92 82 87 87 105 108 125 132 121 127 118 105 94 102 108 118 115 132 145 146 178 167 199 202 178 170 159 155 154 151 152 144 147 127 125 106 108 120 115 122 125 101 112 124 128 127 132 144 134 145 139 154 160 158 161 172 166 172 173 162 159 141 140 141 137 135 134 129 123 141 143 128 127 115 121 119 113 135 134 133 145 157 174 197 203 171 157 149 141 108 98 104 81 75 97 95 101 110 121 125 123 125 118 116 103 105 111 129 130 126 150 136 160 179 190 211 171 165 150 143 149 146 144 132 122 118 107 93 89 96 94 91 115 85 91 99 113 95 107 126 125 128 126 137 148 149 143 145 134 136 139 130 128 121 123 114 116 115 116 110 109 118 117 106 117 109 107 105 114 146 133 138 143 164 179 204 195 162 138 129 126 97 81 93 78 87 102 102 89 111 113 126 123 116 124 122 104 104 108 136 141 132 133 129 139 171 184 203 162 150 140 131 131 138 131 115 106 96 86 81 81 79 86 83 97 91 105 117 106 102 94 99 90 108 118 118 122 123 122 117 105 111 109 108 114 123 114 113 107 102 97 98 95 112 103 105 115 114 115 106 118 134 125 146 147 166 187 205 174 158 129 116 116 93 69 87 89 97 101 116 74 91 114 122 130 105 116 118 107 108 116 138 142 136 127 132 124 154 174 183 166 137 129 117 112 122 121 110 88 90 97 87 64 66 70 85 75 91 114 139 121 113 108 114 107 106 107 102 119 121 123 120 113 117 114 110 115 128 124 132 115 116 108 105 108 112 98 105 110 111 124 109 119 118 125 152 159 166 189 194 154 157 132 112 111 89 73 70 100 106 104 119 78 79 113 115 129 113 108 109 115 115 124 133 139 141 145 131 125 128 175 167 185 141 132 105 103 107 115 103 95 100 107 88 82 67 79 80 78 81 89 89 91 100 109 116 117 110 116 98 113 122 127 136 131 123 116 125 129 122 119 120 106 113 111 104 104 102 90 96 101 113 124 121 120 132 143 153 152 170 196 176 151 156 130 119 113 108 77 67 102 109 105 112 85 72 105 115 122 121 119 108 115 123 115 124 131 147 151 141 138 118 170 167 168 149 135 98 105 100 101 100 91 104 110 111 99 87 90 88 92 97 82 75 73 86 98 107 108 125 124 120 133 138 151 167 143 119 110 121 123 117 120 129 116 115 110 107 103 87 92 92 103 116 129 136 132 138 149 149 154 174 191 170 157 147 125 123 119 111 83 76 95 107 115 115 95 74 98 121 118 113 115 109 112 117 112 115 127 140 141 149 149 121 157 167 144 163 134 112 101 102 103 90 87 105 121 125 127 108 110 112 111 104 89 85 78 91 103 102 104 110 127 130 141 144 146 155 149 135 127 133 126 134 133 135 128 129 125 112 113 103 96 95 107 125 143 141 133 136 154 152 162 179 177 157 166 140 125 123 127 111 78 93 100 110 116 117 100 79 99 121 119 89 107 110 104 104 106 106 113 132 136 142 144 123 131 170 123 149 138 130 103 107 107 95 101 112 135 133 142 141 133 138 131 117 98 88 94 99 100 115 118 129 145 155 162 171 171 171 172 159 146 149 139 136 129 131 132 134 123 113 111 102 84 103 120 139 141 142 135 140 149 152 171 167 175 151 159 134 120 124 125 101 84 99 111 115 122 117 107 85 94 119 112 96 99 106 101 90 98 96 101 118 132 132 142 115 114 157 120 129 147 139 110 116 115 104 115 110 138 145 140 157 149 158 137 132 104 93 98 102 110 116 122 127 144 158 161 157 157 166 170 161 166 160 154 146 137 130 129 134 124 118 111 98 90 108 129 136 142 138 126 146 140 157 176 158 169 160 152 130 117 128 112 89 91 110 116 117 121 122 109 88 81 112 109 98 101 99 90 89 90 96 99 114 128 136 148 109 106 142 120 118 127 142 128 119 120 112 110 109 136 145 141 152 157 161 138 126 115 118 107 111 111 120 124 135 145 159 155 150 145 158 159 161 168 170 156 147 136 126 135 132 132 124 117 99 100 104 119 136 135 123 130 148 151 165 173 163 161 164 152 122 130 123 97 84 94 116 110 121 123 118 105 82 65 101 117 99 96 94 85 86 96 97 94 100 122 133 159 121 93 131 107 112 98 138 139 129 111 115 111 99 123 135 133 139 138 133 119 104 89 100 102 112 115 121 121 130 147 152 156 153 146 153 154 154 162 157 148 142 132 130 135 133 127 129 112 99 100 106 114 122 132 119 133 147 158 172 169 167 158 167 151 114 127 117 86 88 98 107 107 129 121 106 113 89 66 87 110 99 93 86 78 86 89 97 85 89 106 131 155 130 92 123 104 102 90 110 137 154 123 110 116 99 96 117 116 116 117 108 91 76 65 71 82 91 92 99 104 110 124 137 145 141 138 137 139 140 148 145 137 137 126 120 121 129 116 120 104 94 98 115 112 120 120 130 134 147 162 170 176 153 159 162 143 133 130 109 89 97 100 100 117 127 114 104 113 93 70 81 99 96 84 78 82 79 86 93 81 77 95 138 148 141 115 122 98 83 87 99 130 158 147 117 114 119 105 99 105 106 96 88 74 51 53 45 64 80 77 81 81 90 103 100 108 108 106 107 115 114 114 120 118 118 110 115 114 118 116 109 109 100 111 115 121 124 132 134 139 155 163 180 170 144 152 164 130 141 127 112 101 112 111 110 128 120 118 116 123 95 83 76 81 103 96 91 94 87 94 101 85 81 97 137 151 148 130 101 82 80 88 98 120 147 164 130 127 117 112 105 109 91 81 76 74 58 55 52 54 75 77 75 79 77 86 86 82 92 80 81 85 90 91 99 98 98 105 114 112 113 109 116 116 109 114 122 131 132 139 134 145 161 170 175 174 152 117 161 135 144 127 138 127 146 136 140 138 144 137 138 146 110 100 89 76 105 102 97 100 83 101 113 90 93 101 143 155 132 122 105 70 86 92 93 115 131 170 168 135 129 111 112 113 95 86 70 60 58 62 64 62 70 78 76 76 80 84 84 86 94 84 79 76 73 79 87 90 88 103 107 109 106 115 118 125 120 122 140 142 140 140 141 156 171 170 173 163 154 109 143 138 134 135 145 164 150 137 153 147 141 148 166 168 133 123 118 103 130 130 132 119 104 126 137 108 111 112 154 154 122 106 121 93 93 94 84 103 131 156 185 167 143 125 119 112 104 94 86 73 60 57 56 60 56 62 66 67 75 76 65 73 69 62 64 59 60 69 75 84 81 93 105 103 113 117 122 120 125 132 135 139 149 149 154 166 162 172 166 166 136 111 129 127 120 137 149 166 169 150 159 156 150 151 175 171 145 140 131 119 140 143 135 116 108 150 157 121 120 123 151 140 127 115 131 120 100 103 86 83 122 154 173 201 163 148 136 131 122 102 104 92 84 71 63 58 43 53 60 57 64 62 57 58 67 63 60 67 63 74 72 79 84 96 100 101 114 116 109 117 117 121 130 139 156 153 169 172 162 166 161 153 120 90 124 127 125 137 149 175 181 167 167 161 161 151 175 171 151 146 141 133 145 143 129 104 110 155 159 126 119 112 172 148 122 124 137 148 118 110 90 75 117 147 159 207 179 166 149 139 140 126 113 108 105 91 76 70 62 59 72 71 60 66 55 59 65 67 71 73 68 74 72 86 86 97 96 99 105 119 108 109 115 121 132 142 150 158 182 164 148 166 143 122 100 81 123 132 121 135 161 179 181 184 179 163 165 167 182 166 160 159 149 143 145 136 125 105 109 155 147 116 122 119 182 172 127 139 135 156 139 133 98 87 104 132 135 187 179 179 161 150 155 152 134 129 117 111 106 94 84 70 73 75 69 69 70 64 70 72 77 87 87 91 89 90 93 87 95 104 98 113 112 121 117 117 126 149 156 169 187 158 143 152 122 102 84 73 133 145 121 125 164 178 190 190 189 172 158 172 191 167 165 173 163 154 148 136 127 111 102 146 129 106 114 136 199 173 150 145 137 161 143 146 110 105 99 121 110 166 165 176 181 164 165 167 156 141 133 121 113 98 89 79 71 79 73 74 76 71 81 88 97 103 91 107 102 105 113 100 109 114 111 112 114 119 121 123 136 154 161 178 168 151 135 130 111 103 74 59 130 153 139 122 158 179 197 200 189 179 173 185 185 176 165 183 174 164 150 137 126 101 98 143 122 96 111 136 193 175 170 167 127 172 134 153 126 117 111 112 93 120 144 159 177 182 187 179 178 158 140 129 111 107 94 90 78 81 83 81 78 88 93 106 111 108 109 110 110 113 116 118 123 127 115 116 113 112 118 133 145 159 164 152 150 148 117 107 98 95 66 59 104 129 147 128 163 180 197 207 190 187 186 190 189 179 173 188 180 171 143 135 112 100 97 135 113 86 106 128 174 192 163 163 167 174 147 158 148 118 113 110 87 79 106 136 167 187 194 189 194 180 157 140 121 120 108 104 94 101 95 91 99 104 105 123 123 117 123 128 119 129 125 131 135 128 120 114 109 119 132 141 148 161 156 139 129 119 99 91 89 82 41 73 90 103 113 133 157 183 195 213 203 188 206 196 182 180 187 184 191 181 132 128 114 98 93 121 91 73 106 125 173 178 166 172 193 183 147 177 158 141 114 100 88 59 74 101 136 173 194 196 203 203 181 161 142 137 133 118 118 112 114 116 116 123 128 135 132 133 137 140 135 138 141 148 143 136 128 132 123 133 144 148 154 159 153 133 104 86 85 89 88 73 26 67 77 98 105 127 142 168 188 212 216 199 211 199 189 182 195 193 194 194 123 128 108 93 82 97 78 77 99 132 164 158 180 201 199 189 165 191 178 161 123 111 82 52 47 74 105 149 175 186 209 216 209 194 172 157 152 141 139 136 135 144 142 143 164 157 156 159 155 157 158 158 160 158 153 146 145 144 140 148 155 157 158 143 139 110 87 60 56 85 85 77 39 60 69 77 110 120 153 149 179 197 223 216 208 207 194 185 194 204 205 200 105 117 96 77 72 74 75 100 107 141 155 159 192 219 191 188 193 187 195 167 144 125 77 36 37 66 86 124 144 168 190 213 223 217 202 190 177 167 168 167 172 165 169 178 187 182 188 183 178 176 180 179 176 168 171 154 154 150 160 167 174 161 136 127 112 92 74 43 49 68 94 63 56 68 51 50 67 114 155 160 167 178 208 224 206 215 195 195 197 203 210 211 96 104 86 79 75 72 94 95 102 145 151 156 187 205 179 166 193 204 200 153 158 130 89 14 44 55 60 101 119 139 160 179 205 219 221 215 210 197 194 194 199 196 203 210 209 215 208 206 202 201 200 191 188 183 183 165 167 170 187 186 169 145 125 113 79 73 74 45 49 47 100 69 59 98 33 41 36 84 122 155 156 187 198 207 214 211 191 193 196 199 202 200 97 98 97 84 75 71 90 99 103 126 153 162 152 163 154 165 209 226 200 186 172 123 80 43 39 49 42 68 98 109 129 152 172 186 204 216 225 220 214 209 209 217 217 231 220 229 219 216 217 212 213 206 195 191 189 184 188 199 197 165 149 122 106 83 62 67 65 48 42 46 73 73 79 100 43 45 33 65 88 130 150 181 177 194 208 195 193 194 193 199 209 210 100 100 95 95 91 87 105 114 100 113 145 133 137 145 138 177 210 233 222 199 180 141 82 45 50 52 37 47 74 91 105 120 141 156 164 183 205 219 217 213 222 215 224 228 223 232 231 225 221 217 213 204 199 198 203 189 209 199 174 151 138 105 92 70 59 69 48 51 49 36 39 43 83 98 63 59 54 45 75 99 130 186 156 163 202 194 197 204 195 197 205 212 95 99 94 104 95 84 105 115 104 95 116 110 130 158 175 175 216 232 241 198 182 170 99 62 49 65 39 49 63 78 99 107 115 118 136 139 159 183 186 190 211 214 217 223 224 222 220 222 223 203 198 187 186 185 199 208 204 172 152 137 113 76 76 74 68 59 41 57 59 43 23 32 69 97 73 62 65 50 55 81 110 139 155 155 167 193 201 189 192 196 200 215 105 110 96 108 96 88 81 102 86 92 112 122 142 151 190 174 205 225 242 211 180 176 121 75 62 67 52 51 55 68 78 98 109 108 111 113 120 129 140 149 170 180 188 198 204 206 196 194 186 177 179 172 171 202 209 203 175 155 140 118 90 77 77 80 62 38 57 62 50 42 48 44 56 95 72 68 45 69 43 54 93 91 146 122 144 190 197 185 193 190 197 219 