P2
92
112
255
132 128 128 130 128 127 123 123 129 126 120 126 127 135 139 136 134 121 111 102 101 92 93 98 106 105 112 119 128 137 140 156 163 165 159 161 162 167 174 179 178 184 178 186 190 187 190 200 199 197 189 185 183 187 171 156 146 143 132 129 120 108 93 94 87 90 105 109 105 103 102 96 97 104 102 100 95 101 98 102 104 105 101 99 94 100 99 99 105 98 106 106 132 130 127 131 126 125 126 129 130 127 127 129 136 133 135 130 129 112 97 97 98 99 102 109 116 121 122 135 142 145 152 158 171 170 168 179 184 183 193 191 194 199 200 198 202 207 206 207 222 221 207 204 196 191 197 177 172 166 164 150 137 127 115 103 89 83 81 82 97 106 108 103 99 103 106 113 101 99 104 101 105 105 105 104 101 99 97 100 105 102 101 103 130 129 129 128 130 124 128 130 127 128 132 130 131 135 131 125 120 101 89 95 107 115 130 129 129 131 131 143 154 155 150 160 164 173 176 169 168 172 174 172 179 186 185 187 192 194 199 209 220 209 210 214 210 203 206 196 188 187 185 171 150 130 132 125 110 95 90 82 76 86 99 104 106 107 104 120 111 106 104 109 105 107 111 109 107 104 101 98 100 103 102 102 129 126 130 127 124 130 135 129 124 122 125 128 127 124 118 120 102 98 101 109 124 127 130 134 135 140 135 144 146 147 163 170 169 158 146 151 144 144 142 140 156 153 162 169 165 175 183 186 178 191 195 204 206 205 200 198 194 192 189 178 171 164 144 135 125 119 102 97 90 89 79 89 100 97 109 118 116 114 111 112 112 110 117 115 109 109 106 104 99 103 106 103 129 128 128 129 125 129 132 127 124 126 121 123 122 113 108 101 107 112 118 127 124 128 138 144 139 135 135 132 138 152 160 146 149 129 135 133 127 123 131 127 120 120 138 142 128 142 155 153 155 152 174 186 189 187 182 184 184 177 175 171 170 179 171 154 144 147 120 112 112 93 85 87 86 85 94 113 120 117 118 118 116 114 112 118 117 113 114 112 100 104 108 105 131 130 131 131 133 136 130 126 121 122 113 108 109 102 102 118 114 117 126 121 120 131 138 138 128 135 136 136 130 120 114 116 103 103 102 99 103 100 103 101 93 90 97 107 99 111 123 120 123 127 141 154 164 173 166 160 164 160 161 150 154 151 156 142 136 143 137 139 121 116 102 102 88 85 85 98 122 120 122 119 123 121 121 118 117 121 123 114 105 105 106 111 129 129 128 130 139 140 128 121 118 116 118 100 106 116 126 122 121 125 130 126 126 126 123 126 131 140 141 128 126 106 106 100 94 101 102 101 92 93 94 79 77 74 75 80 75 75 86 98 101 114 118 130 137 141 149 143 151 156 156 152 144 147 145 131 125 120 130 134 138 136 121 119 102 100 94 97 110 120 128 130 122 128 125 122 123 120 126 121 115 109 104 107 127 130 135 136 137 136 127 125 124 116 107 107 120 125 123 123 133 140 139 137 130 117 123 130 136 125 108 97 98 88 89 88 92 91 88 80 75 83 82 68 62 55 62 59 59 57 65 75 83 98 99 113 119 128 138 126 138 145 147 146 139 141 148 127 122 114 116 129 134 132 125 126 124 116 111 104 103 110 118 132 134 126 128 125 125 122 125 129 125 118 105 109 127 129 131 138 131 129 130 130 121 111 110 122 123 122 127 139 146 148 150 144 131 129 129 140 114 89 77 77 76 84 87 88 87 83 78 78 79 75 83 80 68 68 75 65 62 66 68 79 82 94 98 104 107 120 117 117 133 141 139 130 135 131 137 137 134 118 114 119 114 118 114 128 125 125 127 107 106 115 117 121 132 132 129 134 127 125 121 125 132 124 112 109 128 130 133 133 131 127 132 123 109 118 121 124 120 128 145 145 154 151 148 148 136 130 130 104 74 75 75 69 72 85 93 96 95 94 99 89 84 87 79 78 77 80 86 74 68 76 76 85 95 100 106 108 114 114 126 126 133 149 145 137 147 154 141 152 137 115 112 113 109 105 116 120 124 126 124 128 114 123 124 116 129 138 132 132 136 133 127 121 129 126 117 115 126 131 131 129 132 124 116 105 113 114 129 121 134 150 154 144 159 148 152 153 132 127 93 72 50 65 82 75 84 94 93 99 99 108 106 101 104 113 106 110 104 99 95 87 76 73 81 92 98 102 116 121 127 129 136 140 141 159 159 149 152 153 145 142 132 128 127 123 112 111 105 99 122 124 124 123 132 132 123 132 118 137 139 134 134 137 135 132 130 130 121 122 124 130 131 127 127 112 101 112 114 126 118 145 156 153 157 165 163 163 157 139 128 100 75 61 66 68 70 81 81 91 99 107 106 107 111 108 111 114 112 110 109 105 113 106 100 94 89 99 103 107 129 135 137 136 142 135 147 161 163 151 147 153 153 145 141 122 132 135 124 118 125 105 107 105 116 128 133 139 134 143 131 134 141 144 143 138 137 142 135 130 127 121 122 125 127 128 113 96 105 121 115 124 149 166 150 157 158 174 164 153 139 131 98 76 71 68 85 73 73 89 97 105 110 122 111 105 110 104 106 113 110 102 102 101 119 115 113 111 115 118 123 128 138 132 137 145 144 134 147 163 154 150 154 157 158 149 156 138 134 141 127 122 133 126 118 113 108 127 137 122 149 145 143 135 141 145 152 158 140 138 141 139 130 121 123 134 126 122 101 103 111 117 124 144 154 155 148 161 167 164 153 142 143 106 68 80 78 83 72 82 77 102 103 111 110 105 105 104 105 107 110 111 105 96 108 118 127 119 118 123 116 125 136 142 136 141 137 140 149 137 155 171 153 143 159 160 152 159 159 158 150 147 135 127 131 131 128 115 110 122 149 133 137 156 150 142 145 147 154 174 168 143 139 142 139 126 129 130 117 103 100 100 119 130 144 158 148 135 149 174 154 143 146 152 122 85 85 99 77 74 78 78 85 102 106 109 98 102 110 101 104 116 117 119 116 115 123 130 126 126 134 142 129 135 130 138 142 147 130 142 145 141 157 168 148 145 159 158 145 166 172 175 168 170 151 142 139 140 136 129 124 114 130 150 140 163 158 158 150 140 152 169 178 157 149 141 152 135 132 125 113 107 91 107 138 152 156 150 140 131 158 159 144 147 151 138 106 91 100 89 88 85 90 86 103 111 103 99 97 99 110 99 106 118 123 122 125 127 138 131 132 141 143 141 139 135 139 137 150 150 135 160 153 152 167 165 156 156 160 161 154 167 180 187 183 183 174 163 155 155 145 141 139 119 107 135 167 159 170 163 169 150 145 170 175 163 155 149 153 149 129 130 110 105 97 120 154 162 145 137 134 145 151 140 148 140 151 116 108 105 98 98 104 93 94 95 104 95 98 99 100 104 110 111 113 122 126 120 124 128 132 119 130 136 134 133 139 144 139 143 145 143 152 164 165 170 168 172 160 170 168 160 165 168 172 187 188 194 181 180 171 154 159 143 134 125 118 109 144 165 162 174 181 176 159 165 178 172 169 154 151 159 127 128 100 107 116 146 157 140 135 136 136 150 146 137 133 143 144 113 97 119 113 108 102 96 107 99 98 102 111 108 111 109 106 110 123 125 121 119 115 122 124 122 119 117 127 124 135 134 130 133 134 136 153 152 166 163 176 173 173 176 171 166 164 172 175 181 195 197 191 193 180 168 165 157 150 125 129 114 116 155 163 169 185 185 168 167 169 183 174 166 152 157 124 116 104 110 139 153 135 132 142 143 146 147 136 139 134 147 135 114 113 131 123 118 103 108 100 91 96 103 114 109 110 115 104 114 111 113 110 111 108 112 114 120 108 111 115 120 125 119 130 124 124 136 137 146 162 161 172 172 173 167 162 161 154 166 171 176 186 199 196 193 186 166 164 169 160 143 125 125 111 127 162 162 184 188 178 171 170 182 179 169 163 153 117 108 104 123 149 143 121 147 147 139 146 135 137 144 131 132 112 117 126 134 121 129 110 102 99 109 115 123 127 123 118 110 102 99 99 102 101 113 104 110 109 109 103 108 115 111 113 121 123 116 121 140 128 140 151 143 155 170 163 152 153 156 149 157 170 167 171 194 191 196 188 175 159 174 169 151 133 120 110 113 141 166 166 186 191 178 177 175 185 172 171 155 110 113 117 133 150 145 135 152 149 151 130 141 145 136 130 130 123 125 141 139 133 134 108 101 117 125 121 125 121 116 113 103 98 94 98 99 100 109 104 104 100 101 98 106 106 109 112 109 114 105 118 125 120 131 130 129 142 145 152 143 148 143 138 154 156 164 168 173 187 195 188 183 167 172 167 163 147 114 102 108 112 145 167 181 196 191 184 183 179 185 175 163 106 125 139 146 154 147 153 158 156 143 132 149 144 126 129 136 129 139 139 140 142 135 120 127 126 123 123 125 123 111 106 101 96 97 94 95 97 98 101 97 93 89 99 103 103 102 105 107 100 101 116 105 118 113 107 111 129 131 129 139 141 132 133 136 143 150 152 163 175 186 186 185 181 172 170 167 158 130 93 90 92 121 150 181 195 204 192 195 183 182 178 169 113 132 153 155 141 174 169 169 147 118 139 137 123 130 132 142 141 142 141 153 144 140 130 129 121 118 115 115 111 112 112 111 105 99 95 88 88 79 86 85 82 85 96 96 95 96 102 98 96 104 103 103 110 103 100 108 114 110 116 128 118 116 124 122 125 133 141 153 159 170 183 187 188 181 171 158 164 136 106 76 83 92 131 167 203 204 211 202 187 176 176 170 129 135 160 148 166 190 178 164 113 121 130 128 121 148 145 146 153 149 153 162 159 145 134 121 113 118 117 116 112 112 122 113 95 95 85 86 81 78 78 93 87 91 88 101 94 97 98 93 96 106 101 99 102 96 101 110 108 110 113 115 106 110 113 115 112 119 132 141 156 167 175 190 189 187 175 159 147 129 110 79 76 71 118 146 208 200 216 204 201 182 178 167 127 143 151 172 193 187 180 148 120 114 116 132 140 152 155 152 151 151 154 161 153 144 135 122 120 120 115 110 108 108 108 95 85 79 81 84 84 86 91 95 83 92 86 92 90 93 99 97 106 99 98 106 104 98 101 106 99 107 108 101 96 103 106 105 105 109 124 126 143 152 165 180 186 190 178 167 136 134 101 81 76 57 87 142 179 203 212 218 203 188 184 172 127 144 169 191 198 194 166 136 117 107 122 150 153 157 163 156 145 161 166 165 140 136 126 114 120 118 113 104 109 109 95 88 84 88 88 87 87 98 96 93 92 90 88 88 92 96 99 103 108 101 109 114 107 101 104 101 105 107 95 93 93 97 99 99 99 93 115 120 135 143 154 162 179 181 180 172 144 132 107 89 65 60 82 117 179 177 195 223 206 193 184 175 133 148 179 190 200 196 165 143 113 106 138 148 154 163 153 161 146 163 167 159 132 128 121 123 122 115 103 115 112 108 105 97 101 101 103 106 104 102 97 96 96 90 85 82 91 92 97 105 105 109 108 113 106 112 108 105 104 99 93 94 97 97 95 98 98 95 111 115 119 132 137 150 168 170 170 168 160 131 109 95 67 60 72 104 147 167 184 217 211 192 188 174 134 158 178 195 205 191 148 120 114 122 141 150 154 164 154 152 150 170 167 152 141 124 136 130 120 116 126 133 125 120 118 117 112 114 115 114 112 107 98 99 101 97 89 83 88 93 92 101 101 112 114 113 114 117 110 110 105 100 101 98 99 93 100 98 101 104 110 111 116 120 130 139 153 160 153 155 167 143 119 91 70 51 61 97 131 149 162 207 205 195 189 186 142 179 175 206 194 168 119 110 121 121 145 160 173 168 158 159 170 170 167 144 136 132 144 127 132 140 147 143 133 133 129 130 128 131 126 122 120 114 109 105 108 103 98 88 87 92 98 104 103 118 113 116 118 122 118 115 114 109 112 102 102 101 106 103 106 112 117 118 121 119 121 130 140 147 155 138 153 155 133 96 69 61 60 98 123 137 135 201 204 202 185 191 169 181 180 202 189 141 102 111 116 125 149 172 180 171 153 169 165 161 157 135 127 137 145 135 151 147 147 143 139 144 144 145 142 146 141 136 136 131 121 119 113 112 97 94 91 93 100 110 107 121 122 120 127 127 122 121 124 121 119 121 120 116 112 110 111 114 113 116 117 112 114 121 128 142 151 136 125 158 132 101 79 55 56 103 120 115 131 179 215 213 187 186 182 170 185 195 157 114 98 111 117 134 151 186 179 174 139 159 158 153 149 134 135 139 138 148 150 144 139 139 145 148 150 148 149 150 149 142 144 140 134 130 124 117 105 97 94 99 99 106 114 120 126 133 133 138 135 129 140 131 137 142 138 129 125 127 122 119 114 116 112 106 104 113 114 129 141 147 126 145 136 104 76 47 52 102 117 106 121 151 218 223 203 168 176 167 185 181 132 96 95 104 124 142 177 180 180 155 130 158 159 150 147 134 134 127 143 141 142 135 138 140 145 148 149 153 151 149 150 144 144 140 140 135 136 129 120 107 103 103 106 111 117 125 130 137 135 147 138 142 146 147 150 147 145 141 138 141 133 125 124 117 108 102 93 98 103 122 126 135 128 131 137 109 71 51 50 89 122 112 100 125 186 221 215 168 164 160 176 159 106 92 94 98 127 129 171 140 165 132 134 151 162 158 155 139 135 135 140 133 123 127 136 143 143 149 155 152 145 149 143 146 139 138 146 140 137 131 123 123 111 120 122 122 126 133 134 143 142 151 148 144 150 158 165 160 154 149 151 156 146 137 142 119 106 97 88 81 88 114 109 120 116 123 126 107 79 51 42 75 123 104 94 99 162 218 205 183 142 163 157 147 92 90 85 110 108 93 148 142 149 133 136 152 157 164 156 143 138 136 133 123 124 137 140 139 133 134 134 134 131 136 136 139 138 137 144 141 141 142 131 129 121 125 138 125 130 126 133 136 141 146 154 141 153 158 161 162 160 157 160 160 158 147 148 136 117 112 90 84 78 96 102 98 102 113 119 99 75 51 37 79 116 92 100 93 139 226 203 186 147 171 163 111 95 76 77 106 84 97 133 145 137 136 140 149 160 160 152 146 137 141 135 134 137 135 123 122 121 128 133 135 139 137 137 143 140 142 148 149 148 148 141 136 135 131 140 134 132 131 139 139 147 150 155 147 154 158 163 158 164 158 166 169 171 168 168 153 143 125 118 96 86 82 94 84 91 106 109 100 64 47 44 88 98 93 94 98 120 211 224 191 157 171 143 104 101 72 93 90 99 113 121 128 135 134 132 150 160 153 147 139 124 131 132 135 128 120 121 119 124 129 135 136 144 142 140 143 139 144 151 156 150 147 144 146 141 135 143 133 127 136 140 142 153 153 156 153 156 158 164 164 162 166 167 174 172 170 173 172 159 152 151 139 110 91 89 78 83 88 104 95 68 35 48 91 98 95 87 99 124 198 226 202 177 165 146 101 93 71 96 91 100 102 104 127 139 130 135 148 151 147 141 122 115 115 113 117 105 116 118 114 114 118 123 127 136 143 143 141 152 147 154 160 157 150 145 142 142 133 138 137 132 124 139 145 155 157 164 159 158 163 165 168 160 164 167 171 172 170 166 167 162 159 157 156 146 102 97 83 83 84 94 86 60 23 49 96 90 92 84 86 135 184 230 216 204 158 125 95 83 76 92 94 83 88 88 121 140 126 131 148 149 148 125 102 106 101 104 112 118 117 109 111 104 108 117 123 130 143 148 148 152 154 156 166 165 156 151 148 141 137 141 137 133 128 139 146 154 158 161 169 165 166 170 167 165 162 164 162 157 158 151 156 162 164 162 163 155 135 111 96 85 78 84 73 50 23 55 104 96 84 87 88 125 165 233 202 195 144 98 94 81 80 92 81 65 64 84 127 143 128 127 141 148 129 107 83 100 100 96 108 118 107 98 104 109 116 120 123 130 135 145 146 151 159 160 172 168 166 163 162 151 146 145 141 140 139 149 148 164 166 167 170 178 176 177 172 167 164 158 153 151 143 142 147 155 165 165 166 169 160 131 122 89 79 82 64 54 11 66 102 103 100 80 96 118 161 219 203 168 119 106 96 74 83 80 65 53 62 85 135 158 129 117 134 124 117 95 94 101 100 98 100 115 97 91 105 114 110 112 113 119 117 120 136 142 149 159 167 163 160 157 157 156 151 140 142 143 153 159 158 168 169 169 167 170 171 169 168 164 156 150 147 143 139 131 127 142 148 158 162 168 159 132 132 98 84 67 59 39 21 81 94 96 113 82 94 101 173 197 202 143 117 130 83 84 86 58 55 39 60 70 136 145 114 100 121 108 105 103 111 113 115 108 103 106 98 83 89 100 102 121 130 138 136 136 137 136 143 155 162 161 153 151 149 152 148 141 141 148 151 160 161 163 168 171 168 168 162 150 153 149 144 137 134 137 127 127 124 129 136 135 150 147 156 145 135 94 91 63 51 28 31 83 79 105 110 96 81 115 151 189 183 121 137 133 77 117 80 44 51 33 56 75 85 118 121 107 124 106 127 132 141 125 136 130 111 100 106 102 108 126 134 137 139 142 141 140 143 140 140 146 149 142 135 136 129 131 131 127 132 137 143 149 156 159 160 155 157 159 148 141 137 138 131 131 128 124 119 117 122 123 127 131 141 129 135 142 145 113 89 78 37 21 46 70 70 102 119 128 82 124 143 177 183 125 118 127 110 133 57 62 42 25 40 50 81 104 120 81 90 77 94 85 91 77 88 82 73 78 93 105 94 124 135 133 130 129 128 134 135 132 135 137 141 135 127 128 126 123 122 119 117 126 124 126 139 138 139 136 136 131 127 129 125 121 121 120 114 110 110 108 108 123 126 128 130 134 129 137 128 128 94 77 35 21 50 57 65 103 129 139 121 127 140 168 178 122 123 140 120 111 45 66 36 52 48 43 71 69 112 102 135 130 122 118 96 77 90 78 67 70 79 100 97 106 111 113 113 117 111 116 119 117 117 116 119 124 121 133 134 128 136 116 117 113 114 109 117 120 125 123 118 117 120 123 123 119 113 110 101 95 98 98 100 104 118 120 115 119 115 127 108 111 104 73 44 28 53 40 59 87 148 150 155 141 131 181 172 121 144 114 111 83 45 72 46 50 67 73 69 91 134 116 140 117 110 95 73 69 82 75 63 67 95 103 87 82 92 85 78 97 106 103 107 105 102 95 108 111 115 114 107 93 108 94 95 100 98 88 94 101 110 111 114 113 115 116 115 108 107 99 97 88 96 98 106 109 114 121 114 126 113 123 98 104 97 74 37 33 66 31 45 82 158 162 177 170 122 201 184 161 154 113 113 94 78 73 48 53 115 82 72 112 152 119 121 82 87 62 74 85 97 95 84 80 104 75 37 43 59 58 43 66 102 105 112 102 102 93 96 109 125 124 128 101 97 91 101 98 93 84 75 93 104 113 114 120 121 116 113 108 109 101 98 86 81 90 85 91 107 109 106 125 133 121 127 106 114 85 37 24 53 33 38 93 160 170 173 181 132 177 184 193 147 117 94 100 80 89 61 84 121 99 99 132 157 131 116 101 87 76 82 109 110 97 88 88 96 69 43 56 82 75 75 94 117 116 121 108 103 99 98 111 120 124 139 130 114 110 110 107 109 100 86 103 109 116 116 121 123 112 116 107 100 99 102 94 87 85 95 98 102 100 110 91 125 102 119 115 122 117 61 40 63 32 47 107 152 178 178 193 141 160 165 173 151 109 90 78 90 61 46 89 117 129 124 158 169 137 122 100 80 91 115 131 144 101 104 75 87 61 36 43 66 76 74 97 125 134 126 127 128 120 114 114 109 133 147 144 133 121 122 122 117 111 89 100 123 125 120 131 107 81 126 121 75 107 104 101 92 83 95 105 95 103 107 100 125 125 109 97 116 113 59 55 90 48 81 117 154 195 180 188 126 147 143 147 125 96 80 63 90 71 27 74 111 141 133 167 156 133 123 100 104 129 124 162 169 103 78 86 82 52 28 28 86 90 97 112 126 136 128 132 138 122 120 125 109 120 108 108 125 112 108 125 116 116 113 111 140 139 145 142 116 92 113 76 83 126 132 129 123 104 106 108 108 121 118 132 151 140 116 125 112 107 86 59 85 78 98 124 145 177 170 188 138 136 129 133 91 97 74 84 78 67 4 85 96 146 150 164 186 141 126 124 131 161 161 188 166 99 73 90 74 68 67 74 104 123 120 120 127 141 144 145 144 139 131 123 116 119 143 140 140 134 123 123 127 138 127 114 136 157 168 156 125 124 118 101 97 144 136 140 131 149 127 110 114 124 134 106 152 143 90 120 126 124 126 78 66 67 101 120 119 162 161 151 119 122 125 132 67 107 86 54 81 86 14 77 102 162 171 173 185 158 168 131 161 160 162 176 147 114 89 91 105 95 81 129 152 154 147 151 146 168 164 162 151 144 133 127 122 131 158 161 169 167 153 136 134 156 133 141 137 160 179 173 159 164 151 141 162 170 175 166 166 158 139 131 132 128 128 93 137 135 97 112 102 114 151 97 56 97 92 114 115 135 125 116 85 105 115 132 55 126 129 77 89 112 37 96 137 153 184 187 167 151 170 149 161 164 155 168 152 139 81 91 96 117 131 163 167 172 180 186 177 171 173 164 142 165 128 130 128 150 180 176 183 181 174 141 131 145 138 141 149 139 170 166 169 180 186 194 189 193 188 206 193 200 167 144 138 133 116 76 113 131 110 122 107 100 162 131 74 103 95 116 107 106 106 108 67 119 83 147 76 108 129 76 94 105 46 97 169 161 189 202 161 146 142 158 165 154 133 166 160 144 78 76 87 114 150 163 163 172 166 163 177 165 161 147 160 159 134 129 138 154 166 184 180 173 181 164 144 136 145 143 151 139 145 151 175 172 180 222 196 213 207 216 218 198 189 156 154 140 108 75 89 121 117 124 124 107 162 158 101 123 116 123 105 72 82 88 59 118 82 182 85 91 116 70 81 105 68 112 172 185 191 210 162 154 139 156 180 134 114 146 147 133 93 78 92 114 115 130 132 142 133 134 144 151 138 172 159 146 137 130 147 160 160 194 191 173 165 159 151 137 130 125 134 124 128 139 154 168 173 195 169 163 180 179 168 151 177 165 114 122 101 115 108 117 145 142 133 122 169 165 163 150 147 103 77 51 80 71 81 115 83 214 96 92 106 80 97 101 92 133 166 228 211 190 177 184 169 183 188 142 102 139 133 117 94 95 86 73 69 91 82 80 92 121 128 142 142 161 125 108 115 121 142 142 155 174 177 151 146 149 142 143 134 130 120 119 115 124 135 159 174 171 161 164 144 139 138 112 122 127 113 105 104 111 141 143 168 149 142 133 172 199 194 171 154 97 84 40 80 62 84 127 99 219 122 91 90 89 121 92 145 157 167 241 232 201 183 200 175 181 179 144 122 144 124 99 69 94 81 68 74 91 99 97 109 120 129 142 133 122 81 93 112 108 119 114 151 151 153 142 114 120 117 120 122 122 118 108 90 104 112 118 136 154 152 137 135 106 105 100 113 125 132 118 110 114 150 157 170 164 160 148 189 204 200 191 164 96 87 50 84 46 100 138 98 226 164 92 118 107 131 106 162 184 166 245 228 208 198 194 180 177 184 169 141 152 117 96 82 96 84 87 93 97 113 118 126 125 141 153 126 84 52 66 82 120 108 114 148 146 124 121 102 80 88 108 126 109 130 105 87 106 109 99 113 117 130 115 98 82 91 107 114 122 128 124 130 118 134 156 172 172 186 153 182 185 196 181 149 90 86 52 83 31 102 135 98 236 168 126 152 107 138 109 162 188 147 234 224 203 215 195 190 181 190 178 132 149 117 95 85 99 92 101 110 115 127 121 127 133 156 145 95 72 57 52 81 130 100 138 149 141 110 106 98 65 74 89 113 115 123 110 109 91 105 100 93 105 113 121 117 102 107 112 113 113 122 121 118 121 137 150 167 183 183 145 164 186 190 175 116 104 90 26 58 50 101 131 111 226 178 126 173 102 135 99 163 179 154 205 210 190 206 196 197 187 189 184 140 140 138 99 91 94 98 104 114 123 115 120 125 145 127 103 108 83 53 83 119 144 127 143 142 132 105 97 96 66 85 80 103 129 114 116 118 106 101 104 101 98 106 120 120 106 112 113 113 114 119 127 119 117 130 155 170 183 180 143 154 197 198 174 115 121 90 15 48 33 114 125 118 222 188 126 174 134 112 116 141 184 164 185 193 166 200 194 198 198 186 188 168 141 150 131 103 108 107 111 115 116 117 135 138 114 107 134 105 68 87 132 150 141 147 156 139 127 98 78 101 80 97 100 81 123 109 100 116 113 90 95 102 103 105 104 109 109 113 115 115 121 126 123 121 115 134 157 175 183 175 145 151 212 213 173 134 124 70 61 56 60 125 126 125 222 200 130 158 162 97 114 142 172 199 141 190 177 174 187 195 200 194 198 189 152 146 144 132 133 130 121 116 119 124 115 109 109 125 124 97 87 118 150 145 137 139 157 132 123 103 75 109 100 83 104 82 103 111 96 102 101 96 92 95 107 111 110 106 105 109 117 121 125 125 119 111 117 129 159 183 179 178 141 173 205 210 178 127 131 56 95 39 103 119 129 122 198 206 147 131 178 107 113 143 171 185 167 161 164 163 192 183 187 193 196 190 150 141 141 130 138 141 131 123 113 107 102 109 117 119 107 118 106 125 135 142 139 123 134 123 111 96 89 102 88 73 85 86 87 103 97 92 98 81 79 90 98 106 108 108 112 114 125 127 122 117 115 107 125 154 169 184 175 168 145 185 190 200 182 123 92 71 101 68 117 116 132 116 188 206 162 115 168 85 99 114 146 176 157 154 159 133 171 187 188 181 181 170 157 128 122 122 117 122 117 105 99 94 94 99 104 109 114 110 104 115 121 130 131 120 122 119 112 94 96 96 84 85 83 89 88 95 91 99 92 89 69 81 89 96 100 110 116 116 122 135 122 113 125 124 139 152 171 178 169 172 151 189 175 191 195 111 86 79 104 80 117 117 131 117 162 195 162 125 138 64 77 70 128 152 174 166 133 140 145 170 175 177 165 159 146 144 118 120 106 107 100 96 89 91 85 87 97 105 104 91 85 103 119 134 139 116 121 117 96 101 96 100 85 77 87 97 102 102 90 104 87 83 86 71 81 81 83 96 109 108 116 129 126 119 122 124 130 138 169 176 166 159 158 183 164 191 173 115 72 77 100 92 118 128 139 118 134 166 133 110 114 59 59 78 105 132 159 184 167 135 133 143 153 153 161 155 135 133 121 113 111 103 91 85 78 77 72 82 90 90 87 86 84 110 123 139 136 125 127 122 103 92 98 90 79 84 94 93 104 111 106 103 82 79 85 80 72 68 68 74 86 100 110 117 119 111 129 131 130 130 167 171 154 160 155 169 161 182 144 94 67 83 99 106 125 134 136 108 130 143 143 120 131 65 41 95 114 99 137 175 177 156 144 151 130 133 145 135 125 124 113 109 113 100 90 75 69 66 58 77 82 82 82 95 91 120 126 140 141 124 131 124 121 95 92 84 69 78 88 88 105 113 122 117 85 75 78 77 66 66 66 71 79 91 96 93 103 101 119 129 143 150 153 156 162 130 144 154 178 171 117 94 75 116 119 117 126 142 121 97 126 140 153 116 124 109 47 80 114 87 103 155 174 159 153 144 142 129 119 132 120 114 106 105 98 91 75 65 59 60 56 72 74 76 90 109 103 124 131 136 134 126 129 118 104 87 82 80 71 72 67 81 109 116 118 121 91 70 71 69 70 59 63 64 71 77 86 83 86 83 100 105 124 143 148 148 132 141 136 155 187 145 110 116 83 123 120 127 120 130 98 104 131 125 154 105 109 89 43 33 57 62 91 138 154 153 163 161 149 138 127 116 106 105 104 94 79 80 77 59 59 59 61 66 71 83 93 105 110 114 118 146 136 143 135 105 94 84 88 96 90 86 74 86 118 121 103 97 77 74 70 59 66 69 61 56 65 63 80 77 88 96 105 101 134 160 157 134 148 137 142 162 166 122 112 120 97 108 121 120 124 131 94 108 126 130 157 114 100 99 46 39 45 62 104 147 167 162 157 166 154 147 139 138 118 109 111 107 82 75 70 58 52 55 61 68 75 78 91 94 105 106 119 149 142 147 133 90 80 93 98 108 114 98 80 80 105 119 103 83 68 68 62 59 65 65 61 55 48 55 66 73 76 84 80 89 120 132 136 142 133 155 145 151 137 118 98 120 93 82 109 130 119 109 91 111 112 138 158 132 104 112 66 54 63 88 134 135 170 168 172 172 164 160 154 145 135 115 100 93 88 63 65 62 54 61 68 77 78 87 97 115 106 120 144 156 139 134 124 101 98 107 116 108 116 99 90 84 96 101 97 84 78 73 72 61 59 65 62 50 42 44 48 60 69 82 68 79 110 125 121 119 125 156 154 154 109 109 99 116 81 78 118 140 113 101 104 116 118 130 163 146 116 112 85 56 88 88 142 133 154 166 175 178 170 168 157 142 122 106 79 75 72 57 59 60 48 50 58 68 73 94 106 104 105 119 155 151 129 132 123 113 108 119 119 106 111 96 94 98 109 97 94 93 88 85 66 64 52 58 60 52 39 30 33 44 60 76 67 90 105 112 110 121 142 158 148 142 107 91 76 82 80 109 150 138 105 90 119 125 135 136 141 147 124 113 94 82 84 78 144 131 150 168 182 188 178 181 174 155 132 121 97 83 73 59 56 58 55 71 91 109 110 90 105 94 97 126 155 148 143 132 110 95 99 102 106 100 105 95 97 93 118 114 109 108 109 105 99 89 80 76 71 64 44 23 19 21 42 61 67 74 87 99 103 125 140 147 130 138 106 83 64 75 104 148 155 133 91 102 126 123 142 147 122 138 143 112 100 103 107 78 134 139 161 180 189 196 187 195 178 169 138 119 110 93 79 69 68 68 82 102 115 141 133 108 88 88 99 116 133 130 112 101 62 49 72 91 95 87 95 99 94 88 107 121 120 125 136 130 117 106 96 94 84 80 63 45 43 39 55 65 75 82 92 96 103 123 142 131 122 135 116 89 101 100 128 174 151 112 92 118 127 123 141 142 122 129 138 120 110 98 100 75 112 146 173 191 196 202 198 192 184 170 146 115 110 96 83 81 85 97 117 127 138 158 157 133 117 100 111 109 101 108 100 83 70 50 62 79 100 92 87 87 81 76 91 109 116 118 134 137 153 133 127 118 103 112 88 83 78 74 83 84 89 87 91 100 106 121 147 134 126 117 120 103 124 106 156 180 125 94 102 124 127 118 139 125 128 126 135 127 125 103 80 77 115 142 165 191 205 211 201 193 187 170 141 127 108 106 90 96 94 118 134 142 147 151 161 149 125 106 121 112 98 107 100 78 71 58 60 89 109 98 95 83 78 65 68 82 85 94 113 130 130 130 125 119 123 126 117 107 93 87 104 101 101 111 103 110 116 127 158 151 144 128 134 123 119 117 166 168 113 89 112 117 123 112 133 106 114 118 127 118 131 115 81 72 127 136 149 203 211 211 204 202 188 169 145 138 113 111 100 100 108 128 141 156 152 154 154 147 139 123 126 119 111 118 97 71 75 76 94 108 118 110 101 97 75 69 86 97 81 103 112 123 124 124 122 126 125 131 142 122 112 108 126 123 119 127 121 116 119 140 164 172 172 150 153 155 138 140 167 154 118 90 107 105 122 105 122 109 104 112 130 118 127 159 110 85 139 118 144 196 219 211 201 210 193 173 156 141 124 117 122 114 122 142 148 154 159 162 163 151 154 149 137 123 115 129 114 95 103 102 118 128 122 120 116 114 113 107 125 126 110 129 132 126 127 122 123 130 132 135 144 138 119 116 137 135 133 137 133 124 122 144 176 189 175 164 171 171 150 148 161 163 119 97 89 99 122 106 118 109 96 88 106 122 122 158 155 94 144 126 149 187 229 211 205 204 188 177 163 140 135 123 128 119 138 141 145 157 166 159 169 155 152 139 136 115 115 136 121 114 119 132 149 149 134 143 139 126 143 151 162 155 158 175 169 145 131 122 124 134 134 143 146 143 124 118 136 142 141 150 141 141 139 150 189 193 181 177 186 166 139 134 159 159 105 87 85 104 120 113 98 107 102 74 87 122 105 150 152 124 146 145 149 186 226 213 202 200 186 186 157 153 142 134 129 115 132 133 142 146 155 148 161 158 143 134 132 133 125 128 132 130 135 145 146 145 140 141 151 145 162 167 163 163 179 196 203 180 162 141 142 133 142 147 153 145 142 135 136 142 140 151 161 156 173 169 199 191 163 177 186 147 139 147 150 147 93 85 95 107 119 121 83 106 105 82 82 109 112 131 147 130 168 164 142 182 220 204 198 200 187 176 156 157 144 137 129 126 119 137 154 161 143 145 155 149 133 141 128 145 124 137 139 147 157 154 144 157 159 159 169 162 167 168 167 173 189 208 216 202 187 169 154 147 145 161 162 145 153 134 138 139 145 157 157 173 187 204 201 181 162 178 182 146 151 140 139 108 90 81 97 111 116 119 93 107 99 86 89 111 111 125 158 141 163 183 160 184 215 196 193 183 175 176 155 160 147 142 137 129 119 123 138 141 135 142 151 144 130 130 128 133 121 156 154 149 157 153 150 167 173 180 179 173 183 172 167 171 179 185 186 185 191 195 171 162 151 159 160 152 157 133 141 141 149 158 159 179 188 218 192 179 172 188 177 144 132 121 108 89 89 87 98 113 113 107 112 117 100 98 98 112 110 126 155 142 152 186 150 190 211 185 190 168 165 166 151 148 144 151 136 132 127 133 137 129 144 153 146 137 141 143 134 148 165 138 139 135 143 145 150 175 182 177 181 167 177 168 163 169 168 166 167 170 171 176 175 175 161 146 151 148 149 140 146 142 144 159 160 187 207 222 192 170 173 189 154 127 114 94 89 85 87 93 94 113 112 100 124 117 108 102 105 113 124 124 137 150 143 179 159 196 207 186 175 164 158 154 147 148 145 152 135 135 118 125 145 136 149 153 121 133 143 146 147 151 160 141 150 137 152 159 156 161 174 166 176 178 172 166 146 152 151 156 152 150 146 138 153 159 143 140 127 134 134 127 149 145 145 157 168 188 212 218 187 170 163 155 121 116 105 69 72 94 89 91 96 107 105 103 125 117 116 106 104 114 133 138 130 155 132 157 168 180 212 177 171 152 143 147 145 141 134 126 123 113 106 102 110 107 103 135 102 108 115 128 108 122 144 136 144 141 150 157 154 147 149 140 144 142 135 133 126 132 126 135 134 134 126 122 128 129 114 127 121 115 113 122 159 145 149 152 174 192 222 207 178 156 143 137 113 93 85 58 78 93 94 84 95 98 107 102 112 122 119 108 103 111 140 142 135 132 125 133 161 171 201 166 156 143 128 128 136 127 112 106 96 87 87 90 89 97 94 109 110 121 134 120 113 106 117 106 129 141 140 142 136 133 125 109 117 113 114 123 135 126 125 119 115 115 115 110 121 107 106 117 120 120 111 125 142 134 156 154 173 199 217 181 171 145 130 129 105 76 77 65 80 91 101 73 82 97 100 108 100 112 115 109 106 113 138 143 139 124 132 120 148 160 177 168 142 131 112 107 118 118 107 86 90 101 92 71 74 80 97 85 103 129 158 136 128 121 129 116 114 115 110 128 130 131 124 116 121 119 118 124 135 128 137 119 126 120 116 118 117 95 103 109 111 129 114 125 123 129 158 161 167 195 198 160 169 149 126 121 98 75 62 79 91 91 101 73 79 96 94 108 108 101 104 111 109 114 123 134 142 143 128 123 118 167 159 187 145 133 101 96 101 113 101 93 102 112 91 91 71 84 86 86 89 99 103 104 112 122 127 128 119 128 104 120 126 131 138 127 120 113 124 131 124 119 121 108 118 118 109 103 96 84 92 97 109 122 123 121 133 144 151 149 171 199 173 158 167 143 128 116 108 78 62 92 98 90 96 76 75 90 96 102 115 111 100 107 116 105 114 124 141 146 135 136 104 160 152 161 144 132 88 96 92 98 96 88 103 111 116 104 88 89 87 89 99 85 79 74 86 99 107 111 129 126 120 135 142 153 167 141 118 105 115 119 114 122 126 113 114 111 105 96 78 84 86 100 114 127 135 131 135 144 140 145 170 191 166 166 163 135 130 118 112 86 79 89 92 99 98 82 74 87 102 99 108 108 101 103 108 105 105 120 132 136 143 146 103 139 146 127 153 129 100 88 92 100 85 84 102 123 126 132 107 107 110 106 103 85 81 74 83 96 93 97 104 124 126 142 146 148 154 147 128 119 123 112 123 127 127 116 121 117 104 103 92 87 87 105 124 141 138 130 131 147 139 152 176 171 155 175 153 132 122 121 109 82 92 94 94 99 99 85 79 91 102 100 83 100 100 94 98 99 95 105 127 130 136 141 105 110 148 96 134 133 120 90 98 102 89 102 110 138 138 148 142 130 134 135 118 93 84 90 93 92 104 109 120 141 149 155 164 163 163 161 148 137 140 127 126 120 120 116 122 109 99 99 90 73 94 115 137 138 138 134 135 136 140 162 164 167 150 170 141 122 119 120 99 83 97 98 98 102 101 90 85 91 99 93 88 89 94 95 86 88 87 95 110 128 128 139 103 94 134 89 112 137 132 96 102 104 94 111 106 133 142 137 156 146 152 128 129 96 82 87 89 95 100 105 110 133 143 148 141 140 156 155 148 153 151 139 129 122 119 116 125 113 110 100 87 77 97 126 134 140 134 120 138 127 146 168 153 161 162 165 133 114 122 111 90 89 106 103 98 105 103 90 89 85 94 91 90 91 89 89 85 84 87 95 105 122 132 147 96 88 117 92 97 114 136 116 100 106 100 104 108 132 139 138 146 150 152 123 110 101 103 91 96 96 106 109 117 130 146 140 134 122 141 138 143 148 152 138 129 115 109 123 128 131 123 115 90 91 97 116 136 133 117 121 136 137 153 164 156 148 164 164 122 121 119 99 85 92 111 98 101 109 102 88 85 72 91 101 89 89 89 85 84 90 86 89 94 115 131 161 113 77 115 82 89 78 124 124 112 96 104 104 97 126 130 131 140 134 126 109 91 73 82 85 99 101 109 108 119 138 140 143 141 131 133 134 134 142 135 130 124 114 116 125 132 129 130 107 94 94 100 111 124 129 111 123 134 145 160 162 153 145 165 154 116 119 115 90 88 97 102 97 112 106 93 94 88 71 83 100 93 91 90 81 85 84 88 83 85 103 129 160 129 80 113 89 79 67 90 120 138 106 100 108 96 98 118 115 115 114 101 76 59 51 56 69 79 79 88 90 96 112 121 128 124 120 120 121 122 133 128 122 121 113 109 116 130 114 118 100 93 93 107 107 118 116 122 122 133 146 160 162 137 145 165 142 130 128 109 90 93 99 95 107 114 101 92 95 91 73 83 96 95 91 84 85 81 84 91 82 76 96 139 153 145 111 120 97 65 61 77 110 142 128 103 105 115 107 100 105 107 96 85 64 34 38 29 48 67 64 69 69 77 91 84 88 89 89 88 94 97 98 109 109 108 99 104 108 115 107 105 106 98 105 106 115 120 125 124 128 141 147 167 151 127 140 168 135 147 133 112 103 110 106 104 119 111 110 104 104 97 83 79 81 112 107 101 100 96 98 108 87 84 100 137 153 151 133 103 86 71 67 77 99 132 144 114 115 107 109 105 110 88 81 74 70 50 43 42 39 62 64 63 66 62 74 72 67 77 62 65 69 76 79 92 91 88 93 106 104 103 100 111 111 104 105 113 125 128 132 124 134 145 152 157 148 136 112 162 145 154 133 138 130 143 132 138 137 141 134 128 134 117 103 93 83 118 114 109 109 99 110 121 91 95 104 144 159 138 133 116 74 85 76 73 95 113 156 150 123 117 102 109 112 92 83 71 59 54 54 55 50 57 66 63 63 65 68 68 72 80 67 64 62 59 67 80 79 76 96 101 104 98 107 110 117 110 113 132 136 135 133 130 144 154 148 153 131 134 107 148 152 143 140 148 159 145 136 152 150 148 153 155 164 143 126 128 113 150 150 149 141 128 146 147 107 113 120 158 161 131 122 141 101 98 81 67 83 118 146 172 150 132 116 109 106 100 93 88 72 54 51 47 50 46 54 60 61 72 68 53 62 55 44 47 44 45 56 64 74 73 90 105 96 105 110 112 113 116 125 127 134 144 141 143 152 139 147 143 135 118 109 139 142 130 144 153 162 157 148 159 157 158 160 162 170 154 138 139 129 163 163 157 143 136 171 163 120 124 134 160 153 145 132 156 136 104 96 71 65 107 143 159 189 146 140 127 123 117 98 107 92 81 65 57 50 34 46 57 54 63 59 49 50 56 46 43 50 46 59 58 66 75 86 92 93 106 109 103 112 109 112 123 135 153 145 156 153 136 138 143 130 106 87 131 137 133 144 153 166 165 160 165 163 166 160 170 177 163 147 145 140 171 166 156 134 137 170 166 124 124 126 192 170 145 143 161 168 122 107 79 60 100 134 147 193 164 156 143 131 130 121 109 105 100 84 67 58 47 45 61 63 51 53 40 42 46 47 50 55 51 58 59 73 76 89 85 93 102 114 104 102 109 116 131 140 146 148 165 139 119 142 128 106 98 85 128 140 127 142 162 168 168 173 173 164 167 169 183 180 172 161 153 152 168 165 153 136 128 168 153 115 128 133 208 204 148 161 158 176 143 131 93 73 82 121 122 172 170 167 153 142 144 141 124 121 106 101 94 79 63 46 53 56 52 46 49 41 48 47 53 66 70 79 75 79 84 81 91 105 98 114 112 120 114 116 125 150 149 151 164 130 115 134 110 92 95 84 144 151 128 131 164 168 173 177 177 170 163 171 192 185 176 175 165 161 176 169 160 138 117 157 135 111 120 151 232 206 169 166 162 180 148 151 107 95 77 112 99 155 161 167 173 157 152 153 142 128 121 106 97 79 70 56 46 56 51 50 52 48 58 62 76 84 73 93 87 94 104 99 111 120 117 116 118 124 120 125 135 146 147 155 142 124 110 119 101 97 90 79 148 159 146 126 152 168 180 180 177 175 172 180 193 191 180 186 178 169 185 173 155 122 114 150 128 102 114 156 224 204 180 188 155 193 142 162 123 106 95 104 86 116 145 156 166 175 175 163 160 144 128 117 94 89 75 71 56 58 57 56 52 64 71 87 93 93 96 99 102 108 115 122 133 140 126 127 124 122 123 133 141 145 141 126 122 122 97 98 88 93 83 88 129 146 150 131 157 165 179 186 177 177 181 186 199 191 187 194 189 180 183 169 138 118 114 136 120 90 102 145 205 212 163 181 195 198 160 166 141 110 103 105 82 83 112 138 162 181 185 175 174 165 143 127 106 103 89 86 73 77 66 62 74 80 84 108 110 105 117 123 116 132 132 141 154 147 135 128 125 128 133 135 136 141 134 113 103 96 83 79 83 82 58 105 120 127 117 134 152 166 178 191 187 178 194 194 195 191 196 193 199 191 169 156 132 112 105 117 93 69 100 138 196 187 165 186 214 209 163 183 148 136 108 98 84 69 83 106 135 170 185 185 181 185 168 150 129 123 118 102 101 94 90 94 95 105 114 123 123 125 132 139 136 146 151 163 163 154 144 147 133 136 139 134 137 139 130 110 78 65 73 83 87 72 45 101 110 121 108 121 143 154 173 184 199 187 199 202 196 196 203 201 204 206 150 143 119 99 78 84 72 66 89 138 183 159 168 212 219 213 183 200 173 157 121 107 87 63 56 78 109 148 168 179 195 201 196 182 161 146 140 129 123 120 119 127 121 128 151 150 152 155 151 160 163 170 173 172 169 160 160 152 142 145 146 144 144 125 117 88 61 41 47 82 85 80 62 93 103 100 113 109 149 135 168 173 195 196 201 209 199 198 206 212 215 212 123 116 92 72 52 53 59 76 88 136 164 147 171 232 214 206 207 191 197 166 148 130 87 49 42 71 90 129 141 164 184 203 211 205 191 177 166 156 155 156 165 155 159 168 181 175 185 178 178 179 189 190 186 180 183 164 161 150 154 155 170 150 123 110 90 68 51 26 40 60 94 72 81 104 85 67 66 101 140 145 153 157 177 195 198 213 198 205 207 209 217 217 99 88 74 65 46 44 65 66 76 123 147 145 168 211 197 189 210 215 209 161 163 146 108 27 52 60 60 102 115 136 158 173 197 211 215 210 201 187 183 187 195 191 196 205 203 212 208 205 207 205 207 196 193 189 190 167 164 163 178 180 165 133 110 93 58 51 57 33 43 31 103 82 88 134 65 60 34 61 100 132 140 158 165 180 198 195 189 200 201 202 203 201 82 71 73 57 36 36 48 61 75 89 142 152 137 165 174 191 230 239 205 198 180 142 101 62 48 58 41 66 90 102 126 150 169 181 200 214 223 218 209 205 205 212 216 231 222 230 225 220 221 214 218 208 199 192 188 179 180 191 194 159 140 107 86 60 41 46 49 43 30 29 81 89 116 134 76 66 30 43 58 94 129 149 150 173 189 183 188 190 196 203 210 208 71 68 64 57 38 39 47 77 69 67 130 129 128 158 158 195 226 248 226 213 194 162 104 63 65 66 40 45 67 80 96 115 141 157 166 186 208 222 220 216 224 215 228 234 229 240 239 230 223 219 214 205 198 194 194 181 203 194 169 140 126 83 69 47 37 49 38 46 35 20 45 61 126 133 92 76 50 24 47 53 91 150 133 143 178 184 194 196 191 197 202 213 62 63 52 50 32 29 51 84 72 51 108 121 138 161 176 187 232 245 251 211 201 190 126 81 64 84 53 51 62 68 89 96 107 113 134 138 161 187 188 195 217 221 224 232 231 227 226 227 227 203 196 183 179 178 190 203 197 163 142 121 93 52 53 50 47 44 36 49 49 36 31 48 108 130 100 75 66 30 24 29 62 99 120 131 147 181 193 184 183 190 194 206 63 61 48 52 38 36 41 70 60 64 98 127 144 147 189 178 220 236 255 225 199 195 149 97 81 88 70 61 62 60 68 89 101 100 107 107 115 124 137 146 166 177 189 201 206 212 197 196 186 175 174 163 162 195 202 193 164 142 123 98 68 52 54 56 44 31 53 53 46 40 61 65 92 125 95 76 41 52 9 0 47 51 92 88 127 173 185 182 183 178 187 209 