P2
92
112
255
165 168 169 165 169 168 169 170 165 167 169 164 150 136 128 130 119 114 113 107 105 92 97 97 101 99 83 71 72 74 80 100 92 96 99 109 113 117 119 125 131 132 125 135 133 134 140 143 150 150 153 150 144 143 126 115 108 105 107 101 93 90 90 99 112 104 120 130 131 137 142 147 148 153 163 167 169 171 176 172 175 174 176 177 179 181 182 180 180 182 181 179 166 166 166 166 168 165 168 167 165 167 161 145 140 131 117 114 114 113 105 108 97 89 96 92 87 79 73 81 82 82 79 88 85 92 96 115 122 125 133 132 136 131 134 138 146 147 146 146 159 160 160 160 154 151 147 138 131 127 121 111 97 96 101 97 102 107 109 121 129 130 136 137 143 148 148 157 162 167 167 171 173 171 173 173 177 179 178 181 179 180 182 180 166 166 165 165 166 167 165 163 168 163 146 131 127 119 111 112 115 112 104 104 92 93 89 82 86 77 80 82 80 78 70 80 81 103 113 115 115 123 125 120 127 138 138 137 149 152 142 155 162 162 153 152 149 149 147 145 139 142 141 124 112 110 104 107 98 100 107 109 123 127 125 135 138 145 141 150 150 156 164 165 169 170 167 171 171 175 176 180 180 179 181 180 165 165 166 164 166 166 165 166 160 151 137 121 120 115 109 113 109 110 110 95 91 83 82 89 86 85 79 75 70 71 74 74 89 101 101 105 105 112 115 120 128 136 137 140 137 143 146 156 145 155 154 152 143 151 140 141 139 140 144 128 123 128 113 104 96 98 99 103 116 126 115 114 121 137 140 149 139 146 158 160 166 166 164 165 169 172 175 175 180 177 179 182 167 167 166 164 164 162 160 155 151 141 130 118 121 116 112 114 112 114 104 91 88 84 92 92 81 86 81 72 65 67 75 76 87 87 91 104 104 107 120 128 128 139 137 137 128 148 159 147 153 152 154 158 157 156 147 147 140 133 135 130 131 134 131 120 110 113 98 95 113 113 112 118 120 123 136 143 144 142 145 157 161 162 166 162 165 169 171 174 176 179 177 180 165 165 164 164 161 158 149 141 136 123 117 116 116 109 106 114 112 101 95 86 87 96 101 98 83 83 76 67 72 69 75 77 76 77 91 102 103 109 119 124 129 134 130 129 131 142 144 140 143 145 151 156 155 154 149 141 147 135 136 133 146 141 138 135 129 122 109 104 102 93 100 113 116 119 126 134 135 139 137 144 156 158 159 161 161 166 167 170 176 176 178 177 165 162 162 163 156 144 136 134 125 115 123 114 111 111 111 112 98 100 109 99 108 106 89 83 84 80 74 70 70 76 71 78 82 91 104 106 113 119 128 131 128 130 129 121 125 127 126 124 129 136 141 148 141 144 147 141 148 146 152 141 137 149 138 141 135 138 119 117 109 99 87 86 92 97 102 105 115 126 124 128 141 151 155 156 160 162 162 166 172 173 178 175 164 164 160 158 146 130 127 123 117 125 120 115 115 115 104 97 105 114 110 111 109 89 83 88 89 89 82 84 84 84 84 95 97 103 101 108 112 123 131 128 126 125 128 122 125 122 123 121 127 135 137 140 140 145 149 145 140 149 152 148 147 149 143 148 155 139 120 124 121 114 101 91 91 93 97 90 104 115 116 118 129 139 146 153 154 161 159 162 164 166 176 176 163 163 158 141 128 123 121 115 120 123 116 116 108 105 96 103 113 114 115 117 102 90 89 100 99 99 101 100 107 108 102 105 109 100 102 109 111 114 119 127 123 124 130 127 130 129 127 128 132 137 139 137 143 149 141 141 144 148 151 154 151 146 153 161 156 147 124 117 120 128 115 109 98 99 97 84 89 107 117 110 120 126 136 141 149 155 160 160 159 165 171 175 162 159 143 125 121 112 117 114 122 123 111 111 99 96 105 111 112 116 125 113 103 91 101 105 108 104 109 106 113 111 102 105 108 97 100 105 107 106 111 120 117 118 124 120 124 125 118 123 125 128 129 138 142 137 143 148 150 150 157 160 160 153 155 157 155 144 133 130 125 118 121 125 110 110 102 96 84 92 99 107 112 125 127 133 139 149 155 160 162 159 170 171 162 141 124 112 111 112 109 113 119 118 110 101 99 101 110 111 117 127 127 105 101 103 108 107 108 112 110 103 109 101 93 96 94 92 101 100 108 107 114 113 120 118 123 120 121 120 118 123 122 127 128 135 142 140 150 159 156 158 164 165 165 165 164 157 150 146 149 138 135 125 118 125 127 120 110 103 91 81 87 91 104 110 120 131 136 146 150 157 158 160 166 171 149 125 113 110 113 109 109 115 115 119 109 109 106 99 107 118 120 122 101 97 105 113 117 117 110 109 104 104 100 88 81 88 91 88 94 96 95 97 105 105 113 113 123 123 121 122 124 130 128 127 131 137 139 140 141 155 152 158 167 166 171 170 166 168 152 152 152 144 133 122 121 112 119 125 112 113 98 82 86 87 87 100 101 116 125 136 145 150 158 162 160 166 137 118 113 110 112 107 114 120 115 118 120 116 96 106 111 129 123 110 96 96 121 123 126 123 117 109 108 105 93 90 92 91 91 83 85 95 95 96 107 103 108 109 120 120 117 123 119 126 127 129 125 130 135 144 148 146 146 154 156 164 166 168 170 170 168 152 147 144 138 129 129 113 109 115 115 102 113 92 93 93 83 87 94 110 113 124 137 144 150 155 158 162 126 113 112 110 107 116 113 117 114 120 120 103 100 122 120 122 117 95 96 114 134 141 129 136 128 113 100 103 95 93 97 87 85 86 94 98 98 101 108 105 114 115 121 122 122 120 119 124 123 131 124 129 134 134 142 140 140 146 149 153 159 167 164 165 163 160 151 145 147 137 143 126 123 111 114 109 102 104 99 95 86 84 89 98 111 120 124 136 140 150 152 158 114 115 110 104 113 115 122 121 118 125 118 98 111 126 119 111 107 101 123 140 145 142 139 135 117 104 105 107 99 96 100 100 95 97 103 103 100 105 108 113 121 125 122 122 129 125 120 122 124 126 127 132 129 131 130 134 135 138 140 150 157 157 164 162 159 162 157 147 146 143 143 149 141 124 121 109 103 88 97 91 95 93 88 87 89 116 123 125 129 141 149 156 112 112 113 110 114 118 131 126 128 117 105 99 117 114 110 107 108 118 144 152 143 140 136 120 113 116 107 112 103 110 104 107 106 105 109 108 105 115 119 125 129 125 124 124 128 119 121 117 119 122 120 132 131 130 126 130 134 136 136 144 147 144 157 160 163 165 159 155 145 141 150 153 150 145 139 116 107 87 89 93 92 94 94 85 82 97 117 130 127 131 148 154 111 117 113 112 114 129 135 132 121 109 97 106 106 105 105 111 121 137 158 156 149 143 132 116 116 120 114 116 115 117 117 115 117 116 115 116 123 123 129 125 121 119 122 126 124 121 121 117 117 115 116 115 123 120 117 119 127 130 142 147 142 145 155 162 167 163 159 155 148 143 138 145 153 147 140 132 115 103 87 100 96 97 106 100 79 98 95 119 134 135 138 148 110 119 114 117 123 138 135 122 119 102 107 99 96 110 114 123 137 152 153 151 140 133 120 117 123 122 127 126 122 127 129 123 120 121 121 119 123 123 125 118 113 123 117 119 122 119 116 114 115 108 109 110 116 116 112 113 117 121 128 138 137 141 146 157 163 163 166 161 155 144 141 143 143 146 147 149 129 108 110 101 114 105 111 107 82 92 94 100 133 137 141 147 115 116 117 117 130 129 131 122 112 103 106 103 108 118 122 133 144 149 156 145 133 129 117 120 122 130 131 122 127 132 132 122 125 122 119 118 115 117 108 109 110 115 112 115 111 115 115 111 113 110 109 113 113 110 108 107 110 115 118 126 130 134 135 149 154 156 157 161 158 148 140 132 133 143 147 146 146 116 120 115 110 123 109 106 96 83 89 93 122 135 131 144 116 112 118 122 138 138 129 114 109 110 115 121 114 122 127 136 141 151 151 136 135 124 124 124 129 133 134 134 132 133 134 127 124 123 116 117 108 105 104 103 110 110 109 112 113 114 111 109 113 111 114 111 110 106 110 107 108 107 111 111 117 131 134 135 141 144 148 155 150 152 142 130 120 138 141 141 147 144 124 120 110 120 114 105 107 92 79 85 110 130 133 137 113 111 123 140 141 128 122 122 121 125 113 115 117 127 132 132 143 149 143 130 124 123 131 130 132 133 137 126 128 129 132 126 120 117 116 112 103 105 101 103 107 108 107 109 110 108 114 109 109 109 113 110 106 106 107 108 119 123 115 124 133 137 146 135 135 133 137 147 148 143 145 134 123 132 144 142 150 144 136 125 117 116 119 111 106 98 87 82 95 120 137 123 114 120 139 142 139 123 133 134 123 109 107 118 125 130 136 140 146 140 133 126 124 133 139 132 132 135 134 131 128 132 131 124 113 109 108 103 103 98 101 98 99 103 105 108 110 105 109 108 105 105 107 107 104 114 119 125 136 139 133 136 143 140 152 143 135 144 137 138 142 137 139 132 126 123 136 145 152 140 136 130 117 116 118 108 117 98 93 92 87 107 133 128 116 131 145 136 125 134 138 123 101 97 117 122 119 135 139 141 136 130 124 121 126 134 134 124 128 132 124 132 130 128 122 115 110 99 99 98 98 94 98 97 97 97 104 102 104 104 104 103 102 103 103 101 112 123 129 135 137 139 141 148 140 133 132 135 131 147 152 137 137 135 132 130 125 124 131 141 148 154 138 140 123 118 113 108 112 106 101 94 88 102 125 124 126 135 141 125 135 145 121 105 89 115 120 120 127 141 133 130 114 116 120 123 129 123 129 128 130 126 121 127 120 120 116 108 103 97 93 94 91 92 92 94 96 90 98 100 97 97 98 90 86 88 91 95 114 117 131 136 131 135 145 146 141 138 124 125 116 122 137 154 138 135 131 132 127 125 129 139 148 148 153 132 129 118 120 104 113 111 110 91 87 100 116 125 125 131 126 145 152 146 115 107 104 119 119 128 141 130 123 111 99 110 125 128 117 117 129 130 128 123 119 114 112 114 113 102 97 92 91 93 90 89 93 93 93 91 89 94 89 82 83 77 70 72 75 93 103 114 126 127 129 135 139 138 138 130 126 117 119 111 123 143 148 147 134 139 132 130 129 136 148 149 151 132 128 108 100 111 107 120 110 105 89 93 112 133 128 125 143 172 157 146 111 111 110 114 116 135 135 129 128 106 110 125 132 119 117 123 135 125 113 116 111 107 109 104 108 101 99 94 91 93 90 91 92 91 90 88 83 79 80 82 78 72 70 66 86 93 102 114 115 121 128 134 125 123 129 127 120 121 120 101 103 127 133 144 142 135 138 135 136 130 137 147 144 137 128 107 91 95 98 118 120 104 94 102 110 128 126 130 164 163 163 147 110 118 116 117 131 138 136 137 125 116 122 128 123 127 130 124 131 120 107 105 105 102 105 105 109 107 104 102 94 100 98 93 91 93 89 85 79 78 82 77 75 76 70 78 87 92 101 115 114 121 128 128 126 130 128 128 121 125 121 112 95 98 113 131 143 137 139 133 137 130 132 137 149 143 120 112 99 85 80 103 129 120 91 101 114 127 124 147 161 156 167 139 118 116 125 126 147 146 133 128 120 120 120 130 129 136 126 122 115 119 106 109 107 107 108 114 115 112 108 109 107 109 108 97 94 95 91 84 80 79 77 78 75 76 77 84 90 99 109 118 125 119 124 118 121 125 130 132 132 134 126 115 111 92 107 126 137 148 137 129 132 124 126 127 145 150 134 117 103 91 86 102 109 123 118 106 119 117 129 156 160 150 155 144 123 126 125 138 152 135 125 119 120 118 131 135 131 129 119 121 120 110 108 109 119 118 123 124 118 119 112 119 121 115 115 109 104 100 99 96 87 85 80 81 84 83 91 95 106 107 121 130 128 129 135 133 140 136 138 144 134 140 141 132 129 113 108 125 128 134 141 129 132 117 117 128 135 145 123 136 111 80 88 100 100 108 123 126 131 115 146 163 150 135 142 142 119 129 129 146 149 130 124 127 127 130 138 127 119 117 111 120 117 108 113 123 125 127 123 123 123 128 123 129 130 124 122 118 111 105 104 100 92 90 84 88 90 93 97 106 113 117 129 138 140 139 144 145 144 143 138 137 132 133 133 135 138 123 113 123 125 120 139 135 130 118 110 122 131 139 127 119 123 77 73 102 119 122 124 132 138 121 160 150 142 131 137 131 126 127 135 147 148 133 131 135 132 132 122 115 114 108 112 115 107 117 119 124 125 127 124 124 129 127 127 126 128 124 124 121 117 109 105 101 94 92 91 87 94 100 111 115 123 126 133 134 134 136 136 135 131 136 134 129 125 130 126 131 129 122 115 115 117 126 128 131 132 118 114 116 126 133 137 123 107 100 63 91 122 129 135 145 134 124 164 141 139 131 130 130 124 125 134 141 142 128 139 129 133 119 114 107 108 102 105 108 112 121 130 126 126 126 129 126 125 127 130 129 125 121 119 119 114 110 105 101 97 95 91 92 103 110 119 126 133 132 134 131 129 130 127 126 121 120 115 111 107 110 113 112 116 113 111 110 113 116 118 116 135 118 116 119 125 131 137 131 106 90 86 84 104 121 133 149 144 128 152 139 135 130 128 131 118 116 133 150 129 126 126 129 124 111 114 109 109 101 101 106 114 119 119 120 125 130 132 133 132 135 137 135 128 126 123 116 111 107 102 93 93 91 90 102 109 120 119 129 133 129 133 128 122 123 124 121 116 113 110 103 99 94 98 97 98 95 88 103 104 114 104 102 126 126 116 121 128 115 136 147 117 82 86 91 109 118 128 150 146 125 138 134 133 133 125 120 124 120 140 143 116 128 128 123 115 110 119 109 105 95 105 108 116 121 116 120 128 129 125 135 135 132 132 128 128 130 130 125 120 107 105 98 98 96 101 107 111 120 118 127 127 132 132 124 117 124 115 116 111 104 102 97 96 96 96 97 93 82 88 93 97 106 99 92 116 129 123 125 134 135 128 147 132 95 66 101 109 120 143 158 146 131 131 138 136 126 126 118 126 122 132 131 121 135 130 115 111 115 112 103 92 109 115 117 125 124 132 127 130 132 130 130 126 119 120 129 130 131 131 125 119 111 102 102 103 104 106 106 107 114 118 123 128 130 124 121 116 115 113 114 102 104 101 105 108 105 106 106 103 93 88 83 97 100 92 87 104 128 125 133 140 138 144 153 142 113 76 81 114 120 144 157 157 148 138 142 127 119 124 124 129 116 129 131 134 137 130 114 111 111 105 93 108 123 116 123 128 128 135 135 144 141 132 133 126 133 134 144 145 141 137 135 134 131 120 112 116 116 118 117 119 122 129 124 124 127 125 110 111 107 110 114 104 111 119 118 116 124 126 121 118 115 103 93 94 97 92 79 87 117 125 134 142 128 157 158 150 117 100 77 110 132 142 156 164 156 137 127 121 113 119 127 125 117 135 132 141 132 120 111 109 109 100 93 124 121 119 128 135 142 152 160 167 162 157 155 155 156 154 149 152 150 151 148 148 152 134 131 130 130 134 132 131 132 132 131 126 121 125 114 113 114 113 107 110 118 124 125 129 137 139 134 132 126 123 116 99 96 94 78 73 95 129 136 138 133 147 167 155 114 102 96 121 134 152 150 164 165 116 124 116 116 123 132 125 124 140 132 136 127 111 107 105 104 105 121 119 114 128 139 151 169 175 181 182 180 178 170 175 180 172 169 171 171 168 165 161 163 152 149 146 148 141 145 143 146 142 135 128 118 121 116 116 120 122 118 120 130 136 139 140 145 143 141 140 133 130 130 121 107 110 96 75 94 116 135 137 129 149 162 160 136 101 105 134 139 149 153 169 162 117 126 108 123 123 134 125 129 143 132 130 132 114 104 98 105 108 121 110 120 142 152 160 178 181 192 188 189 179 178 182 189 188 185 187 182 177 168 167 161 158 152 148 150 147 148 152 152 146 140 130 127 128 124 125 125 125 132 132 140 150 151 145 148 151 139 143 139 131 137 135 124 116 112 87 90 110 133 136 130 154 157 152 142 114 110 136 145 150 159 171 159 130 119 105 121 124 142 136 131 149 138 136 131 116 88 101 104 121 120 122 136 148 159 180 191 192 191 187 185 184 175 177 186 186 186 186 182 178 167 159 155 151 149 146 148 145 147 155 154 150 140 140 134 134 133 132 131 129 140 137 144 150 152 144 143 144 143 146 136 137 133 143 128 121 121 93 85 100 119 135 145 154 166 143 146 119 125 141 151 141 165 175 162 141 126 99 112 134 154 134 134 156 151 136 132 116 92 115 109 121 115 124 134 138 162 175 181 174 171 171 166 171 167 167 171 171 168 166 165 159 150 137 139 134 136 136 141 142 137 146 146 147 139 135 127 129 132 131 131 130 135 134 127 132 130 129 127 128 122 122 120 118 124 134 132 131 134 114 79 92 107 132 145 155 157 146 146 137 113 146 149 143 163 171 168 153 125 96 111 129 144 142 149 181 142 131 147 115 102 99 93 102 96 104 116 116 137 151 138 144 144 150 142 140 146 140 133 133 133 133 130 128 127 128 131 121 121 118 125 132 128 137 133 140 129 124 121 119 118 118 113 110 114 115 114 115 112 111 108 111 112 111 116 100 92 102 113 126 127 122 92 99 109 125 140 154 146 144 158 140 127 154 147 157 156 160 174 171 109 96 102 116 112 130 165 171 140 143 144 113 116 105 124 111 116 124 136 139 146 142 134 128 124 131 118 127 133 128 123 122 121 123 123 119 122 123 126 120 118 113 119 115 119 118 125 123 120 116 115 111 111 104 100 102 97 100 99 95 94 95 99 99 94 97 106 108 88 83 90 94 99 114 99 110 116 134 136 149 145 141 166 150 143 158 158 141 148 156 177 153 89 100 93 115 109 141 155 150 142 148 147 120 131 99 108 85 87 105 116 111 119 120 117 114 116 126 116 113 117 110 110 107 103 104 109 107 112 114 118 108 121 107 111 105 104 105 107 108 109 108 106 101 94 92 91 93 91 94 96 95 92 98 104 103 96 96 93 96 98 92 101 102 101 118 103 111 130 142 142 149 139 134 159 144 153 162 157 129 135 161 179 125 75 100 107 127 139 143 151 135 148 144 149 113 120 98 112 89 99 122 118 109 111 111 110 103 113 111 94 95 100 97 93 103 103 99 103 104 108 100 112 113 118 123 132 128 125 122 123 116 113 108 105 98 94 95 99 101 104 105 114 115 114 116 117 115 102 100 96 89 96 89 100 105 113 136 130 125 137 156 143 148 135 133 150 137 153 147 146 129 131 166 175 116 94 112 122 139 161 143 149 122 123 133 129 120 136 125 148 112 135 122 102 116 124 125 114 105 105 99 85 92 90 89 80 84 91 92 107 96 106 89 96 108 125 138 135 135 135 135 135 128 120 123 114 112 105 111 114 115 117 122 128 133 133 129 136 123 109 114 108 107 109 84 85 87 98 128 148 126 132 156 146 146 142 132 150 134 138 138 132 135 131 155 172 121 115 105 128 146 149 147 148 110 118 121 120 126 150 143 151 120 126 107 104 118 124 119 93 99 91 91 92 85 90 90 89 92 101 98 113 91 91 93 93 108 125 137 127 123 130 134 129 132 133 126 120 116 109 113 111 115 116 117 132 129 124 124 131 119 116 113 111 115 135 109 89 92 86 100 139 143 135 168 146 140 133 127 151 143 126 137 129 140 139 153 161 126 122 96 122 130 120 144 152 126 121 131 124 115 136 131 139 120 123 99 109 98 69 67 74 76 68 66 69 68 69 73 78 90 89 96 92 101 97 98 100 106 117 121 118 122 130 131 123 129 132 136 125 122 109 113 114 110 112 106 128 121 116 112 105 111 114 123 121 120 125 122 99 92 99 101 123 138 147 161 143 134 138 135 161 156 134 145 138 137 147 146 156 126 126 84 129 112 85 112 130 126 126 124 125 126 143 135 135 112 115 92 82 61 60 58 49 66 59 84 65 56 56 71 80 90 86 99 83 82 93 82 89 112 116 137 132 143 153 145 147 140 143 133 130 118 101 107 117 108 97 102 112 107 107 107 104 113 113 113 120 124 118 102 100 99 120 132 126 151 153 171 139 150 149 149 154 160 129 145 149 145 141 141 148 136 118 86 129 95 90 106 142 117 135 131 124 127 118 115 114 103 114 85 80 81 75 58 54 75 81 85 70 56 54 66 75 62 84 97 82 86 90 89 93 99 102 123 125 157 162 151 141 147 151 138 127 116 110 98 118 118 112 118 122 117 113 114 121 101 108 114 115 110 135 109 110 119 151 152 123 141 146 158 172 171 155 174 151 159 145 134 146 142 140 145 142 139 118 101 114 89 108 112 157 125 139 135 130 127 115 107 112 116 123 112 112 121 89 86 101 96 83 101 83 73 77 81 78 72 86 92 78 91 89 93 89 88 100 115 127 150 166 161 144 158 147 149 124 113 111 110 121 119 138 135 141 128 131 128 131 129 122 121 162 123 152 129 126 143 162 170 131 130 138 149 172 181 160 176 163 175 151 130 136 138 139 144 132 138 118 113 79 66 113 99 157 130 163 158 146 134 127 108 109 126 127 132 127 133 100 97 106 108 81 98 91 98 108 112 116 115 116 109 97 98 90 89 82 91 113 104 114 126 147 162 166 179 180 176 131 107 97 110 121 115 149 144 154 131 126 139 125 136 140 132 148 121 121 144 129 131 148 164 137 127 129 158 161 180 164 181 170 184 157 114 119 121 133 138 127 141 116 131 69 58 105 101 145 154 152 162 154 140 135 126 107 133 143 140 136 160 134 109 108 117 111 107 111 115 111 116 110 119 132 115 108 107 116 92 89 95 117 116 131 136 147 171 162 172 166 155 143 121 109 128 160 136 152 157 143 130 111 115 112 115 121 157 150 150 145 139 138 135 144 170 137 143 130 148 167 178 170 176 168 191 151 117 118 128 123 135 117 144 114 121 73 65 94 116 140 163 140 156 152 145 146 136 107 148 155 135 143 133 132 108 114 117 114 132 131 115 119 117 123 118 132 139 141 114 123 100 112 113 122 131 142 149 152 168 181 191 182 138 157 142 129 126 147 151 151 158 156 151 134 127 120 105 131 143 162 143 132 126 137 162 154 172 154 154 143 165 202 186 168 162 167 196 153 108 130 148 118 123 119 157 112 117 77 72 94 124 149 171 147 128 148 149 149 135 128 150 149 139 121 127 121 104 95 94 103 110 123 123 118 120 134 141 124 148 128 100 110 86 107 115 122 118 136 160 177 190 173 208 203 145 158 174 148 148 160 167 166 149 168 174 154 115 120 131 154 127 166 168 134 128 151 171 171 162 163 153 155 175 209 199 186 159 175 198 159 108 121 152 120 124 132 147 99 109 79 74 94 120 146 152 147 130 133 158 145 139 136 129 146 146 113 123 122 109 105 98 114 124 127 137 143 130 134 127 123 120 106 107 97 100 119 130 114 91 123 145 165 172 166 194 195 185 167 189 174 174 184 175 169 155 159 189 154 120 126 134 108 122 142 129 133 141 141 161 168 157 158 159 151 190 186 204 194 166 179 194 157 103 127 152 104 118 142 145 92 82 70 72 93 101 147 146 160 129 126 163 157 140 130 128 145 139 124 127 133 122 121 123 130 136 139 138 142 138 136 115 127 121 118 112 99 101 118 123 116 95 134 144 179 178 177 183 182 215 173 193 186 197 192 180 165 169 164 181 174 144 133 125 111 127 129 119 131 130 147 154 162 156 161 154 145 171 190 203 183 162 179 176 160 129 138 145 108 122 151 130 88 60 52 81 95 83 122 137 174 142 132 160 163 138 128 119 138 133 127 136 146 134 133 132 148 139 138 142 140 145 145 130 143 146 139 132 132 128 142 126 115 120 121 141 180 184 183 178 180 179 175 209 194 193 213 183 186 187 175 185 195 185 173 170 154 150 149 150 151 160 158 160 166 161 156 138 138 161 207 197 180 169 166 160 169 144 162 152 118 136 164 122 88 54 44 92 80 82 111 104 179 158 130 158 152 138 127 119 132 135 143 148 160 156 141 132 135 141 148 153 142 152 152 154 157 171 135 146 150 127 137 129 124 141 126 148 188 201 199 200 203 179 186 208 205 193 230 208 190 200 183 166 183 188 187 186 184 173 162 165 164 164 163 160 155 148 149 145 143 164 190 181 182 163 164 159 157 140 168 156 129 148 167 121 93 71 30 88 46 60 111 87 164 190 149 150 154 145 130 136 134 138 146 151 160 159 157 148 144 147 150 151 147 163 162 177 173 157 151 167 162 145 134 120 131 137 137 162 182 209 189 208 209 185 178 186 193 164 197 193 176 178 184 162 167 156 155 159 158 157 154 155 151 139 144 148 142 149 148 155 145 159 166 169 177 134 148 138 120 125 174 149 140 156 165 130 97 99 42 44 28 38 95 109 131 198 152 142 159 150 129 139 143 145 159 164 169 166 171 166 156 151 152 157 163 170 182 171 160 164 184 177 171 145 135 111 128 128 138 153 180 197 195 204 212 200 183 175 168 159 153 162 155 164 161 163 163 158 154 143 152 147 141 143 134 127 128 131 127 142 129 161 150 150 151 153 160 132 123 121 96 117 190 134 140 153 165 121 87 100 65 11 7 35 77 104 140 182 167 140 149 141 138 140 132 147 144 147 150 159 154 155 156 166 163 175 176 178 172 161 162 178 180 173 150 142 112 102 119 118 117 148 170 197 202 202 204 200 177 175 158 159 152 139 126 146 158 153 155 151 146 137 141 140 133 130 124 122 122 126 137 136 133 156 149 158 140 147 145 125 97 106 86 103 180 124 139 153 160 127 71 107 102 9 3 31 75 102 133 175 171 144 163 148 132 134 139 138 138 139 149 160 154 156 165 164 167 172 175 168 161 150 166 166 171 172 144 111 112 104 114 102 117 138 167 198 205 201 212 194 174 168 156 150 152 157 115 122 152 148 160 148 140 143 133 139 136 127 121 127 120 114 131 126 126 145 152 158 130 154 142 105 82 99 65 112 170 113 139 153 165 159 73 111 141 44 21 31 63 106 130 148 162 154 150 160 150 135 144 145 156 145 151 155 151 149 154 157 161 156 151 144 146 154 171 167 163 165 115 108 122 106 110 97 123 137 165 197 198 197 205 200 182 162 159 151 141 147 145 111 125 138 139 144 135 123 118 121 126 112 119 123 115 112 120 127 124 139 146 144 134 160 130 95 95 100 52 105 133 112 143 151 158 178 98 116 166 93 47 48 47 108 122 142 137 143 143 149 152 137 137 135 145 142 142 152 147 141 148 145 142 141 136 143 153 159 169 161 154 132 102 107 105 100 109 113 128 151 176 197 202 197 203 198 177 156 163 141 133 129 131 130 115 111 121 133 127 114 98 92 99 111 112 114 118 102 110 139 131 146 147 132 138 139 109 91 102 108 68 92 94 119 147 150 154 202 114 102 162 125 71 76 30 108 115 141 125 118 120 136 132 149 140 139 143 144 140 138 134 138 135 134 129 133 134 139 150 155 161 158 139 135 112 103 100 107 111 116 134 146 170 178 182 187 198 187 162 155 141 129 135 131 126 115 133 121 118 118 122 109 99 99 86 89 95 103 108 111 115 129 130 132 130 123 139 102 93 129 107 92 52 87 78 120 148 154 155 215 156 103 152 117 112 87 52 106 124 136 130 113 106 127 135 136 140 145 142 144 138 134 125 123 122 118 110 109 122 132 151 155 166 160 134 125 117 102 100 102 112 103 116 128 148 160 158 163 176 165 161 141 139 129 125 117 122 116 124 123 115 116 114 92 90 88 86 83 81 86 101 109 110 133 137 142 115 131 121 83 143 138 140 85 55 79 85 106 151 158 151 203 181 103 145 116 105 92 67 117 140 121 126 124 108 120 124 127 133 133 140 141 132 132 126 126 127 122 112 110 114 121 123 132 135 136 133 127 118 104 101 103 110 108 109 122 123 136 133 143 160 154 151 142 139 130 125 122 119 116 121 115 117 106 104 98 92 93 80 76 84 84 97 99 108 120 132 123 113 121 97 79 134 159 152 92 71 80 82 96 150 154 154 170 181 117 132 123 92 93 70 122 146 127 116 122 113 117 124 124 129 130 134 131 135 124 117 121 123 117 110 112 123 127 133 133 138 138 140 125 110 105 93 98 99 106 114 121 123 115 115 113 136 141 144 136 138 135 136 134 131 132 127 118 116 114 105 96 92 96 91 86 89 87 93 102 113 117 121 125 110 107 89 77 125 155 150 122 82 85 87 87 153 159 153 161 180 123 126 110 67 75 83 99 129 122 110 117 121 109 118 120 127 127 126 125 130 117 110 111 110 108 110 113 124 129 125 124 128 132 141 126 110 107 91 98 106 113 123 130 130 122 116 112 133 140 138 136 138 145 149 150 142 137 134 126 122 114 107 95 93 94 93 84 86 88 86 95 105 121 128 123 112 97 76 72 122 135 137 120 84 94 97 79 150 159 154 164 172 133 106 87 41 58 83 90 105 111 112 115 124 119 118 125 127 126 130 128 121 116 101 103 100 101 106 108 115 114 116 116 120 121 132 136 121 111 103 106 119 119 129 136 129 129 130 129 139 150 144 141 145 145 147 144 136 136 129 126 126 113 110 106 97 96 91 82 82 91 86 89 102 117 122 108 101 104 75 84 111 119 123 105 97 112 93 72 141 162 152 169 166 138 93 87 37 39 70 92 109 98 105 120 135 124 114 123 123 125 124 117 118 116 101 102 98 99 102 107 109 108 117 125 135 138 136 147 144 126 124 123 128 132 136 139 140 142 145 142 142 143 141 141 139 133 137 131 129 130 127 123 126 120 116 110 101 94 90 89 81 93 93 99 101 111 110 97 100 104 77 83 110 109 108 95 108 119 93 60 144 158 149 167 160 151 102 83 43 28 51 79 109 90 96 119 145 123 118 118 120 125 122 118 114 111 105 103 97 98 104 103 106 103 96 109 128 142 147 149 151 145 132 133 130 128 137 141 147 147 151 150 136 131 129 124 124 121 123 118 120 121 117 118 119 114 112 109 99 91 86 87 80 89 96 101 104 116 108 95 90 106 85 87 95 106 103 95 102 100 69 64 145 148 145 162 157 155 123 79 32 12 29 67 92 79 92 130 148 131 119 120 116 122 121 121 112 108 104 105 93 98 100 97 99 89 86 97 121 126 139 146 143 144 147 140 134 130 131 135 143 143 144 140 132 127 120 115 120 117 119 110 111 112 118 113 113 113 106 114 105 93 80 77 82 97 106 107 116 119 106 90 85 100 91 94 99 106 96 66 89 65 51 82 139 141 143 172 154 154 144 94 37 26 10 54 75 66 100 139 142 136 116 120 121 120 122 115 106 103 109 102 99 95 93 87 85 74 91 110 111 124 137 142 145 142 151 137 130 115 116 124 128 128 128 125 129 129 115 111 113 108 107 104 98 97 103 107 111 108 97 103 97 92 84 80 94 112 105 111 123 129 113 89 85 91 88 93 103 102 64 37 62 47 50 79 131 141 141 174 161 164 152 126 45 33 0 41 59 64 108 138 150 137 122 116 116 114 115 113 98 99 99 98 102 92 86 86 85 85 101 102 111 116 132 144 147 134 149 130 118 110 106 119 120 117 112 115 126 121 120 107 100 102 94 92 94 90 96 104 104 101 88 87 82 76 78 86 104 118 110 109 127 129 113 91 96 96 85 92 101 83 46 35 52 55 45 73 125 139 143 178 170 167 172 143 87 46 4 33 52 76 103 132 144 138 132 116 109 110 112 105 109 100 93 103 96 88 93 95 97 97 93 102 106 101 114 129 138 131 134 121 112 108 105 106 112 117 130 135 145 145 135 125 118 104 94 88 85 90 86 95 100 94 85 81 78 76 79 98 113 129 119 108 132 130 106 94 105 102 100 81 85 64 36 36 52 54 48 82 128 131 145 177 178 171 173 159 111 79 33 45 67 82 104 122 134 144 139 112 106 117 102 104 107 103 93 109 94 93 103 106 96 96 100 104 119 111 117 123 136 139 143 127 126 132 135 142 144 150 156 160 174 172 159 147 135 122 98 81 84 80 80 85 92 89 83 80 83 83 83 102 121 133 123 119 139 130 109 96 101 94 97 78 63 40 36 55 42 40 33 104 130 132 144 169 179 179 174 163 131 89 65 49 94 86 107 125 127 136 150 112 109 120 100 104 102 111 107 116 110 104 118 123 97 99 103 108 114 118 121 124 141 147 143 156 159 170 179 180 185 189 193 189 193 190 176 163 152 129 108 84 84 84 87 86 92 96 84 89 88 89 91 114 130 137 130 125 142 131 113 96 106 87 97 87 55 38 57 67 42 26 61 118 130 134 143 157 173 181 185 162 155 106 80 54 103 108 118 120 120 138 140 123 113 122 110 115 111 116 118 116 124 134 135 135 114 106 105 113 121 116 129 131 142 149 159 158 172 187 186 176 184 192 187 186 176 176 168 166 152 129 115 99 100 110 102 103 98 101 88 86 99 100 114 124 125 141 134 135 142 136 108 104 113 99 111 91 62 72 74 58 33 48 92 121 130 132 142 167 171 178 188 181 167 135 90 72 100 115 122 123 115 132 121 122 111 124 119 128 121 128 123 125 129 155 162 157 133 116 125 125 118 108 120 115 119 121 132 136 132 147 142 142 154 175 173 167 162 167 158 152 134 112 113 117 121 123 121 120 117 109 95 94 102 102 121 129 130 137 130 140 144 133 106 116 126 109 129 105 92 100 86 57 74 89 108 127 131 132 138 175 174 175 181 187 174 150 117 86 94 124 102 119 102 129 124 122 115 124 129 125 132 127 126 128 138 166 169 160 149 117 127 121 115 97 105 105 103 109 114 124 114 119 122 126 136 158 159 164 156 167 158 147 134 115 122 117 124 124 125 127 128 115 107 104 108 108 123 124 132 137 136 143 145 129 106 128 138 122 149 117 108 123 99 100 102 99 118 128 137 137 133 178 175 174 181 184 182 166 125 117 97 130 104 104 91 119 124 127 108 119 126 131 130 122 124 126 157 177 172 167 163 143 128 134 118 109 108 121 115 119 135 132 128 139 146 150 159 183 180 184 181 174 172 156 139 122 132 124 121 130 138 140 139 122 115 107 116 112 119 120 131 128 141 137 140 130 113 140 145 128 144 126 120 126 125 103 104 106 130 129 133 130 131 182 181 180 179 186 187 177 151 125 98 117 106 102 92 110 130 121 113 110 123 129 132 117 120 126 156 182 199 196 193 175 169 168 143 130 127 136 129 119 140 148 153 173 189 184 198 219 210 217 207 193 197 178 177 150 167 165 150 171 166 147 143 127 114 93 112 108 125 127 127 125 136 136 139 129 128 145 145 124 138 124 118 132 129 112 107 114 141 132 130 130 135 173 183 181 182 184 189 191 168 141 114 104 118 100 108 108 132 122 116 98 115 129 127 111 112 120 139 178 199 203 200 194 187 186 179 160 144 142 138 135 120 125 129 162 182 183 197 208 212 226 224 210 209 201 195 166 173 176 161 173 168 156 137 119 112 95 113 115 138 136 133 131 136 137 138 122 140 150 144 124 141 123 137 145 126 121 111 130 143 128 135 133 130 163 175 185 182 185 187 186 182 154 140 105 126 117 112 103 136 131 114 86 109 122 119 106 101 112 118 166 192 200 199 199 193 204 194 194 162 141 128 122 125 117 118 134 149 142 145 182 200 218 214 202 195 183 167 131 131 139 132 136 137 137 130 114 103 95 115 125 135 132 132 138 130 136 131 116 136 147 134 132 140 129 148 140 126 123 116 136 136 140 133 134 137 169 169 175 183 176 188 178 166 159 158 124 127 133 128 113 135 136 113 87 103 108 112 93 85 98 108 148 164 182 182 176 176 193 194 187 173 151 135 127 119 116 128 117 129 117 121 123 136 140 158 149 133 129 127 127 121 131 128 124 125 122 112 102 95 103 96 105 111 115 128 135 129 130 129 126 136 144 117 132 136 131 147 137 119 118 117 135 142 141 135 130 142 167 171 164 170 176 178 149 151 164 157 150 128 150 134 131 138 144 129 96 95 102 101 87 76 84 84 110 128 146 158 165 164 163 152 128 120 105 98 100 82 89 93 83 90 69 75 89 86 85 97 99 94 80 91 92 104 115 108 110 109 100 85 83 82 94 81 103 111 115 123 135 122 126 133 130 136 139 114 141 134 134 138 124 114 119 125 134 136 141 139 136 142 162 166 156 163 172 153 132 150 159 151 154 130 160 151 133 141 154 141 113 79 97 90 80 85 77 77 86 100 126 126 139 138 140 125 112 99 100 86 95 71 68 66 55 83 71 77 85 86 80 90 75 51 50 49 55 69 94 93 91 92 81 79 83 84 93 78 112 122 130 124 120 120 117 136 127 133 133 124 140 138 135 133 123 114 121 132 126 135 138 138 138 139 139 154 151 159 149 123 126 143 160 155 147 133 160 157 137 151 156 154 128 86 95 84 76 83 82 81 81 79 99 104 107 115 117 110 104 110 106 98 92 72 73 70 58 74 68 68 84 70 65 75 85 66 59 51 47 54 69 68 74 72 74 82 90 90 98 91 108 133 127 124 114 118 122 138 128 132 127 131 150 134 134 132 123 121 128 130 126 125 142 142 134 130 137 141 144 144 114 109 122 134 149 154 147 121 153 153 148 152 152 158 135 96 89 92 83 80 84 82 88 83 82 86 90 104 102 107 106 117 111 111 105 98 102 92 89 89 86 63 74 80 72 87 88 81 74 66 66 69 74 71 67 69 84 84 86 91 100 101 111 137 122 117 112 115 127 131 129 134 132 140 141 132 132 134 124 129 133 130 131 130 137 144 129 129 135 138 144 117 105 103 127 134 152 154 145 117 142 152 148 149 147 156 139 109 86 88 78 76 81 72 87 78 75 79 81 105 110 110 104 124 125 111 113 111 120 119 114 108 104 81 81 81 85 85 94 91 99 85 89 76 63 65 68 79 95 94 90 97 106 112 121 129 115 110 110 112 132 121 120 136 124 141 138 129 134 132 133 129 134 129 130 133 139 144 131 130 136 137 118 103 98 112 133 135 148 158 141 112 140 145 149 158 154 158 139 131 84 91 82 76 77 73 76 76 59 58 67 89 101 106 109 113 115 114 111 112 124 125 115 115 111 94 86 93 94 90 90 95 97 88 80 77 67 62 67 86 93 105 100 107 121 115 128 121 109 110 111 122 132 118 111 124 117 131 124 129 139 133 128 133 136 125 130 136 136 140 131 133 132 114 93 98 99 116 130 130 131 143 130 115 141 163 144 175 178 153 142 132 98 85 88 75 69 70 67 68 62 49 54 69 92 108 94 98 97 96 101 102 97 104 104 105 105 92 86 90 90 87 82 89 86 86 85 79 64 68 71 92 99 102 107 107 122 121 132 108 105 107 115 124 127 121 121 118 122 124 109 118 146 136 114 133 139 124 129 133 132 137 137 138 106 90 90 98 107 115 117 122 124 140 126 134 143 151 139 187 199 156 142 129 108 94 82 82 69 70 58 57 57 57 55 71 85 94 89 91 95 101 98 91 85 86 87 80 83 82 71 74 81 76 76 79 81 85 73 76 68 77 76 88 103 105 114 122 128 130 130 108 108 109 116 113 130 129 131 129 128 114 113 116 145 132 98 117 130 126 136 129 131 134 137 132 86 89 94 104 105 108 106 121 128 130 137 135 142 130 175 193 199 166 145 127 122 111 90 83 76 75 67 65 61 58 65 72 78 81 93 98 100 107 100 94 91 90 94 85 86 77 79 74 71 71 72 74 74 76 70 78 79 85 94 92 102 114 125 139 136 135 119 115 110 109 119 101 132 150 137 143 135 108 112 126 138 122 106 88 114 128 137 133 130 136 132 127 83 92 90 100 105 101 100 120 125 127 128 135 145 169 194 186 191 171 158 137 117 122 99 97 82 93 78 84 76 70 64 81 85 90 101 114 115 116 115 109 96 99 100 95 93 85 81 79 72 71 72 72 73 76 79 78 83 87 97 103 112 120 136 138 131 120 109 104 107 101 112 99 146 150 174 159 140 110 122 129 136 116 109 91 92 113 136 132 129 129 134 129 87 89 89 100 107 95 98 119 121 130 119 148 183 196 179 177 175 180 163 146 117 132 116 105 97 100 102 98 94 91 83 82 100 95 104 117 123 123 138 129 125 122 115 109 101 91 90 82 77 79 82 87 85 94 103 100 98 91 104 118 128 135 145 134 123 112 108 106 99 101 105 112 165 160 184 174 144 137 128 129 127 108 109 98 94 100 120 122 126 130 132 130 86 84 81 107 105 88 104 112 124 130 129 178 188 178 163 156 161 184 168 142 115 142 127 116 103 107 120 115 107 99 93 94 107 107 117 124 130 140 147 147 141 137 131 126 120 113 110 113 100 95 92 104 104 111 110 110 99 100 117 131 137 144 137 134 121 106 106 103 91 94 121 119 164 179 191 174 165 140 150 132 125 104 106 104 97 96 104 119 128 128 130 129 78 80 82 105 100 95 103 113 129 136 149 181 182 158 150 123 138 187 183 139 111 129 136 118 103 112 113 126 112 113 106 98 109 110 120 131 141 153 160 156 152 151 147 149 136 137 130 134 126 118 118 120 122 124 118 119 110 116 138 143 146 147 135 128 125 103 103 92 92 91 135 126 153 193 195 167 183 144 156 145 125 100 108 108 106 102 95 109 134 135 131 127 77 81 84 98 102 104 103 123 137 162 160 172 169 147 140 101 106 180 194 147 114 135 140 125 108 107 112 120 115 117 118 106 112 114 120 127 142 153 163 156 159 162 155 160 155 154 149 145 142 139 138 135 134 132 135 131 126 137 155 155 153 147 134 124 120 103 94 85 93 108 139 128 163 186 186 155 182 173 164 151 129 104 106 117 113 103 101 93 125 138 135 132 75 72 85 98 117 112 110 123 144 194 159 159 159 139 128 76 98 158 190 149 131 142 142 115 119 106 109 116 117 119 119 114 120 121 125 133 135 141 148 150 158 156 152 161 159 159 159 152 155 151 152 155 151 159 159 148 146 163 166 165 153 144 127 120 109 95 84 79 96 123 134 129 179 189 182 134 171 196 181 164 137 110 110 122 123 108 97 102 106 122 125 130 62 69 89 112 126 113 115 125 176 204 164 159 142 130 123 53 76 131 166 156 152 160 146 119 115 115 105 111 111 109 113 114 116 121 122 122 135 138 141 145 148 147 150 152 160 154 157 157 151 150 152 153 156 165 165 156 160 170 173 162 158 140 125 125 96 79 74 93 106 114 125 129 184 198 183 142 144 198 185 160 151 105 104 114 118 111 92 99 101 113 111 114 63 76 103 119 128 117 114 135 210 198 161 145 134 104 136 36 48 108 140 158 151 169 160 136 110 107 111 104 101 103 101 110 104 111 115 115 120 134 138 143 148 144 149 152 157 155 155 150 141 145 151 151 151 158 152 160 168 169 171 163 153 133 130 117 87 67 82 105 94 92 140 133 210 205 168 142 150 196 184 160 154 103 98 106 107 107 95 95 101 100 105 107 77 88 110 127 136 128 108 161 198 190 156 138 120 113 134 21 48 64 128 140 150 168 168 156 128 103 108 103 104 97 98 102 100 107 109 111 113 129 137 147 150 152 151 150 144 149 150 146 134 136 140 147 148 145 150 157 171 168 161 154 137 132 126 100 81 74 94 102 79 98 160 141 213 222 172 131 162 199 186 152 155 106 90 101 100 107 95 91 93 96 94 99 91 98 117 131 141 123 113 164 196 183 146 121 129 133 112 15 35 63 105 111 140 166 176 163 154 118 108 98 97 99 93 96 104 98 105 108 115 124 134 148 156 153 149 153 141 141 137 137 132 135 135 134 142 141 157 153 164 152 153 145 125 123 102 84 79 88 98 100 81 100 163 147 205 239 170 138 162 199 182 144 153 113 95 96 95 100 98 89 86 96 92 96 106 113 124 127 143 122 120 150 186 158 116 144 130 120 127 10 24 65 85 80 122 158 175 160 156 148 128 111 98 96 96 100 102 100 105 108 109 118 128 138 140 146 146 142 144 140 129 131 133 135 125 123 133 141 142 153 151 140 139 128 104 92 88 86 83 96 97 97 82 93 145 167 207 236 182 156 159 201 177 136 145 127 97 103 110 101 97 81 80 91 86 81 119 127 133 141 154 131 117 125 167 124 117 143 123 119 141 23 19 60 76 63 97 144 162 165 149 166 154 139 120 106 103 111 107 95 102 106 108 108 118 128 130 136 136 136 141 136 133 134 127 127 125 126 130 137 137 138 139 135 118 94 84 83 91 94 103 101 101 106 85 89 135 180 214 223 206 167 159 205 181 136 135 115 85 92 104 106 102 78 67 66 66 48 139 143 141 147 152 125 93 134 140 130 122 127 139 129 138 47 16 48 63 55 70 118 135 147 149 155 159 164 147 137 116 116 120 103 101 101 103 105 105 118 131 129 132 135 140 129 134 131 127 126 117 119 122 127 135 134 130 109 86 81 84 91 102 113 106 106 103 109 100 87 133 187 224 235 211 172 159 181 189 149 136 115 92 95 121 130 122 97 74 63 72 48 154 151 146 131 130 106 77 127 133 148 126 102 141 140 137 75 23 40 51 60 63 89 128 138 119 146 152 159 167 165 148 133 128 118 110 106 105 103 104 105 106 117 119 122 128 126 121 121 119 115 119 121 124 133 136 124 102 84 85 81 85 95 116 111 106 97 95 96 106 98 153 169 241 240 218 179 154 160 169 152 146 115 108 106 121 132 138 107 88 70 76 69 144 125 122 95 114 90 69 138 137 146 105 89 129 146 136 116 33 31 50 66 68 74 117 133 129 139 135 134 148 166 169 160 147 135 134 121 120 115 110 110 105 110 109 110 117 119 117 116 115 124 127 129 132 135 121 92 88 85 87 86 90 105 120 103 103 102 85 103 109 128 174 182 243 255 216 189 148 142 157 149 145 135 117 118 121 128 125 103 73 64 78 85 136 105 97 98 89 85 108 135 121 118 72 97 129 155 135 146 52 33 54 68 65 77 108 118 116 159 134 125 130 146 161 161 159 149 145 134 136 129 125 121 126 123 117 122 119 119 122 123 125 124 127 125 119 112 103 92 96 89 91 88 94 111 112 101 100 99 92 106 125 158 190 182 249 246 215 203 138 136 145 146 131 130 125 123 125 127 124 122 86 49 61 87 