P2
92
112
255
170 172 174 170 174 172 175 175 170 171 173 168 153 139 130 131 118 113 112 106 104 92 98 97 103 102 85 75 75 77 83 104 96 100 103 114 119 122 124 130 136 137 130 139 137 138 143 145 151 152 155 152 146 146 130 118 111 108 110 103 96 92 91 101 115 107 123 133 134 139 145 150 151 157 166 170 173 175 181 178 180 179 182 182 184 186 187 185 186 189 187 185 171 171 171 171 173 170 173 172 169 171 164 149 143 133 119 114 114 113 104 108 97 89 97 93 89 81 75 84 85 85 82 92 89 97 102 122 128 132 139 138 141 136 139 143 152 153 151 150 163 163 163 162 157 153 151 141 135 131 125 115 101 99 105 100 105 110 112 124 133 134 139 139 146 151 151 160 165 170 171 175 178 177 179 179 182 184 183 186 184 185 188 186 170 171 170 170 170 171 170 168 172 168 149 134 129 120 112 112 114 111 103 102 91 93 89 83 87 78 81 84 82 81 73 84 86 109 119 122 122 130 132 127 133 142 143 142 156 158 149 159 166 167 157 155 152 152 150 148 143 147 145 128 116 114 108 111 102 104 111 112 126 130 128 137 140 147 144 153 153 159 167 169 173 175 172 177 177 180 181 184 185 185 186 186 169 170 170 169 170 170 169 171 164 155 140 124 121 116 108 112 109 109 108 93 90 82 82 89 86 85 80 76 72 75 79 79 95 108 108 113 113 119 122 127 134 142 144 145 143 149 152 162 150 159 159 155 146 154 144 145 142 143 148 131 127 133 118 109 100 104 104 108 120 130 117 117 123 140 143 152 142 149 161 163 169 171 168 170 174 177 180 180 185 183 185 187 172 171 171 168 169 167 164 160 155 144 133 120 123 116 111 114 111 112 102 89 87 83 91 92 82 86 82 73 68 71 80 81 93 94 98 111 111 114 128 136 135 145 144 143 134 152 163 152 157 157 159 163 161 159 151 150 143 135 138 133 135 139 136 125 115 118 102 101 119 118 116 122 122 125 139 146 146 145 148 161 164 166 170 167 170 175 176 179 181 183 182 186 170 170 169 168 166 163 154 145 140 126 120 118 117 109 106 114 110 98 93 84 86 95 100 97 83 83 77 71 76 74 80 81 81 83 97 108 108 116 126 131 135 140 136 137 137 147 149 146 147 150 155 160 159 158 153 145 151 139 139 137 149 144 142 139 133 126 113 110 108 99 105 117 120 122 129 137 138 142 140 147 160 162 163 165 165 171 172 175 181 181 183 183 170 167 167 168 161 148 139 138 129 118 126 115 111 111 110 110 96 97 107 97 106 104 87 81 83 81 77 74 75 80 76 84 86 96 108 112 119 126 134 137 134 136 136 128 132 132 132 130 133 140 145 151 146 149 153 145 152 150 155 144 139 153 142 145 138 141 123 122 114 103 92 91 96 100 105 108 118 129 127 132 144 155 159 160 164 167 167 172 178 178 183 180 169 168 164 162 150 134 130 127 120 128 122 116 115 114 102 95 103 112 108 109 108 89 83 87 89 90 84 86 87 88 87 97 100 107 105 111 115 126 134 129 127 128 131 126 129 125 127 126 130 139 140 143 144 148 154 151 145 154 156 151 149 152 146 151 159 143 124 129 125 118 106 96 95 97 102 94 107 117 119 121 133 143 150 158 158 166 163 167 170 172 181 181 168 167 163 145 131 126 124 118 123 125 117 116 107 103 94 102 113 114 114 116 100 89 90 99 99 99 102 101 109 109 104 107 111 104 105 111 113 115 121 128 125 126 133 129 132 132 129 131 134 139 142 140 146 152 145 145 148 152 155 159 155 148 155 163 158 150 128 121 124 132 120 115 104 104 101 89 94 110 121 113 123 129 139 145 154 159 165 165 164 170 177 181 167 164 147 129 124 115 121 117 124 125 112 110 98 95 105 111 112 116 124 111 103 91 101 105 107 105 109 107 114 113 104 107 111 101 103 107 109 109 113 121 120 120 126 122 127 129 121 125 128 130 131 141 144 139 146 152 155 155 160 164 165 158 160 162 159 148 137 133 129 121 125 130 117 116 107 101 89 97 103 111 115 129 132 137 143 153 160 164 166 164 176 177 166 145 127 114 114 115 112 115 121 120 111 102 100 101 111 113 117 128 127 105 101 103 108 106 108 113 112 105 110 103 96 100 98 95 103 103 111 110 116 115 123 120 125 122 124 123 123 126 125 130 132 139 145 142 153 162 160 163 169 168 169 170 169 162 156 152 154 142 139 130 121 129 133 127 115 108 96 86 91 95 108 114 124 135 140 151 155 162 162 164 172 177 152 128 116 113 115 111 112 117 118 122 111 111 108 101 108 119 121 124 101 97 106 113 116 118 111 112 106 107 103 91 84 93 95 92 99 101 98 100 108 109 115 114 125 125 124 124 126 134 131 130 134 141 142 144 144 158 154 162 171 170 174 174 171 172 156 155 157 148 137 127 127 117 124 131 119 119 103 86 92 91 91 104 105 121 129 139 150 154 162 166 165 172 141 121 115 112 114 108 117 122 118 122 124 119 99 109 114 131 124 110 96 98 123 123 126 124 119 112 111 109 96 93 95 95 95 87 89 99 99 100 110 106 110 111 123 123 121 127 122 130 131 133 129 134 139 148 151 150 149 156 161 168 170 171 174 174 173 155 152 150 143 133 133 118 114 122 122 110 119 97 98 98 87 92 97 114 117 127 141 147 153 159 162 167 128 115 114 112 109 118 116 120 118 124 124 107 105 126 124 125 119 96 99 116 135 141 131 139 130 116 104 107 99 96 101 92 89 90 98 101 101 104 111 107 117 119 126 127 127 126 124 129 128 135 128 133 138 138 146 143 143 149 153 157 164 170 168 169 167 165 154 147 152 141 146 129 127 116 121 117 110 111 106 102 91 89 93 101 115 123 127 139 143 154 156 162 116 117 111 106 116 118 125 124 122 129 121 103 116 131 122 113 109 103 126 142 146 143 142 138 120 108 109 111 102 100 103 103 99 100 105 107 104 108 111 117 126 130 127 128 135 131 124 126 128 131 131 136 133 135 134 138 138 142 145 154 161 162 168 166 164 166 162 149 149 147 147 152 144 128 125 115 112 97 105 97 101 99 93 90 92 120 127 127 131 144 153 160 113 114 114 112 117 122 135 129 132 121 109 104 122 118 112 109 111 120 146 153 145 143 139 124 117 120 112 115 106 113 107 110 109 108 112 111 108 118 123 129 134 130 129 130 133 124 127 122 123 127 124 136 135 134 131 134 138 140 141 148 152 150 162 165 167 169 164 160 147 144 154 159 154 147 142 120 113 95 97 100 99 100 99 89 85 99 121 133 129 134 152 158 113 118 115 115 117 133 138 136 125 114 103 112 110 108 108 114 124 139 160 157 152 147 135 120 120 124 118 119 118 119 119 117 120 119 117 117 126 126 133 129 126 124 127 130 129 126 126 121 121 119 119 117 126 124 121 124 131 134 146 152 148 150 161 168 171 168 165 161 152 146 141 149 158 151 143 136 121 110 95 108 102 104 112 105 83 102 99 122 137 138 141 152 112 121 116 121 127 142 139 126 122 107 113 105 101 114 118 126 140 155 156 153 144 138 124 121 127 126 130 129 124 128 131 124 122 122 122 119 124 125 127 119 116 127 122 124 128 124 122 119 119 111 113 112 119 119 115 117 120 125 132 145 143 145 150 162 167 166 171 167 160 149 143 145 147 150 151 152 133 114 117 108 120 111 118 113 87 97 98 103 137 140 143 150 116 117 120 121 133 134 135 125 116 108 112 108 112 123 127 138 147 152 160 150 138 134 121 124 126 134 135 125 129 133 133 123 124 122 119 117 115 117 109 109 112 118 115 119 115 119 120 116 117 114 112 116 117 113 112 110 114 119 123 131 134 139 139 153 158 160 160 166 163 153 143 134 135 146 150 150 150 121 125 121 116 128 115 111 100 87 93 96 125 139 134 146 116 113 121 126 141 142 134 117 113 115 119 124 119 128 132 141 146 156 156 142 140 129 129 128 133 136 138 137 133 133 134 127 123 121 113 116 107 105 104 103 110 112 113 115 117 118 115 113 116 114 117 115 113 108 111 108 111 112 115 115 121 135 138 139 145 148 152 159 154 155 145 132 122 140 144 145 150 148 127 125 117 126 119 110 111 97 83 89 113 133 136 140 114 113 127 145 146 133 127 126 126 130 117 119 124 133 138 138 150 155 148 136 129 128 136 133 135 137 141 129 129 129 132 126 119 115 113 110 102 104 103 104 108 109 110 113 114 112 117 112 111 111 116 112 108 108 109 110 121 128 120 128 136 142 151 140 139 137 141 151 152 146 148 136 125 133 146 145 153 147 139 128 122 121 124 115 111 102 91 86 98 123 140 126 115 122 143 147 144 127 138 140 128 113 112 125 131 135 142 147 153 146 140 133 130 138 143 136 136 140 137 133 130 134 131 122 112 106 106 100 102 96 100 97 100 104 108 110 112 108 112 110 108 107 110 109 106 116 121 128 139 143 138 142 147 145 157 148 140 149 141 142 146 140 142 134 129 124 137 147 154 144 139 132 120 122 122 112 122 102 97 97 91 110 136 130 117 135 149 141 129 139 144 130 107 103 123 129 124 141 146 149 143 136 132 128 132 139 139 128 132 136 127 135 133 130 122 115 108 97 96 96 97 93 97 97 97 97 105 104 106 106 107 104 104 106 105 103 114 125 131 138 141 143 145 154 145 138 137 141 136 152 157 141 141 139 135 133 128 127 133 142 149 157 141 143 125 121 118 112 118 111 104 97 93 106 127 126 128 138 146 130 141 152 129 110 94 120 127 126 132 149 141 138 122 123 127 131 136 129 134 133 134 130 125 132 124 122 117 108 102 95 92 93 90 91 92 94 96 91 98 102 99 99 100 93 89 91 94 98 117 120 134 139 134 139 150 150 146 143 130 130 121 127 142 159 142 139 134 136 130 128 131 140 149 148 155 135 133 120 124 108 119 116 114 95 90 103 121 126 127 135 130 152 160 154 122 113 111 125 125 133 149 138 131 119 107 118 133 136 124 124 135 136 132 127 123 118 116 117 115 103 97 91 90 92 91 90 93 94 94 92 91 95 91 85 86 80 74 75 78 96 107 117 129 131 131 138 144 142 143 137 131 123 124 116 128 148 152 151 138 142 135 134 131 137 147 147 150 133 131 112 104 116 112 125 114 109 92 97 115 136 131 128 149 179 163 154 117 116 115 120 123 142 143 136 137 114 118 133 140 128 126 131 142 130 118 120 115 111 112 107 111 103 101 95 92 94 91 92 93 92 91 90 85 81 83 84 81 76 74 70 89 97 105 118 119 125 131 138 128 126 133 133 126 126 126 106 108 133 138 149 146 139 142 138 138 131 136 146 143 136 130 111 96 101 104 121 124 108 97 105 113 131 128 134 171 169 170 154 116 123 121 123 138 144 143 144 134 123 129 135 132 136 138 131 137 126 112 109 109 106 109 109 112 111 107 104 96 102 100 96 93 94 91 86 81 80 84 80 78 80 74 81 90 95 104 119 118 124 131 131 129 133 131 134 127 132 127 117 100 104 118 137 146 141 142 134 138 131 132 137 149 142 120 114 104 92 86 105 132 123 95 103 116 130 126 151 168 161 174 145 124 120 129 133 153 151 140 135 127 127 127 138 137 145 134 129 122 125 111 112 111 111 112 118 118 116 112 112 110 112 111 100 97 97 94 86 82 82 80 81 78 80 80 87 93 102 113 122 128 122 127 121 124 128 133 136 137 140 133 121 116 98 113 132 141 151 141 132 132 124 126 127 146 149 133 117 106 98 91 106 111 126 121 108 122 120 130 160 168 155 162 150 127 130 129 143 157 140 132 127 127 125 138 143 138 137 127 127 126 115 112 113 123 122 127 128 121 123 116 123 124 118 119 112 107 103 101 98 89 88 83 84 87 86 94 98 109 110 125 134 131 132 137 136 143 139 141 148 139 145 147 138 136 119 114 131 132 138 144 132 133 116 116 129 136 145 123 135 113 85 93 105 103 112 126 130 134 117 148 167 157 142 147 146 122 132 133 151 154 135 130 135 133 137 146 133 126 123 118 126 122 113 118 127 130 132 127 127 126 132 127 134 133 128 126 122 114 108 108 103 95 93 87 91 93 96 101 109 116 120 133 141 143 142 147 147 146 145 141 140 135 138 139 142 144 130 120 128 130 125 142 138 131 118 109 124 133 140 127 120 124 79 77 105 122 126 128 135 142 123 164 154 146 136 140 133 128 130 138 152 153 138 137 142 138 138 129 121 120 113 117 121 112 121 123 128 130 132 128 128 133 130 130 130 132 129 128 125 120 112 109 104 97 95 94 90 98 104 114 118 127 130 137 137 137 139 139 137 134 139 137 132 128 134 130 136 136 129 121 121 122 131 131 133 134 118 114 117 128 134 138 123 108 102 66 93 125 132 138 148 137 127 168 144 145 138 132 131 126 128 137 144 149 135 146 136 138 124 119 113 114 108 109 113 116 125 134 131 131 131 133 131 130 131 134 133 130 127 123 124 118 113 109 104 100 99 95 95 106 114 122 130 136 136 138 135 132 133 131 129 124 122 118 114 110 113 116 116 121 119 117 115 118 120 122 120 136 120 116 119 127 133 138 132 106 92 88 85 108 124 135 151 146 132 156 143 141 136 129 131 118 118 135 154 136 133 133 135 129 116 119 115 114 106 107 110 118 123 123 125 130 135 137 137 137 139 142 140 133 133 128 121 116 111 106 97 97 94 94 105 112 123 123 133 137 134 138 133 126 127 128 125 119 116 113 107 103 98 101 100 103 101 93 108 109 118 108 106 128 126 116 121 129 117 138 148 118 84 88 92 111 121 131 151 148 128 142 139 139 138 127 121 126 122 143 148 123 134 135 130 118 114 124 115 111 101 112 113 120 126 120 125 133 134 131 140 139 137 136 132 132 136 135 130 125 112 109 102 102 100 105 111 115 124 122 132 132 137 137 129 121 128 120 120 114 108 105 100 100 99 99 100 96 86 93 98 103 111 103 95 117 129 122 125 137 137 130 148 133 98 69 102 110 122 145 159 147 132 137 145 142 131 128 119 128 125 136 135 127 141 137 121 115 120 118 109 98 115 122 122 129 128 136 132 135 136 135 134 130 123 124 133 134 136 137 131 124 115 106 106 107 108 110 110 112 118 123 127 134 136 130 127 122 120 118 119 107 108 107 110 113 110 110 110 106 98 92 87 103 106 95 90 105 128 126 133 142 141 146 154 144 117 80 82 115 121 143 159 159 150 144 149 133 124 125 124 131 118 132 135 140 144 136 119 115 116 111 100 113 129 120 128 132 131 139 139 147 144 135 136 129 136 138 148 149 146 143 141 140 137 125 117 121 121 123 122 124 127 134 129 130 132 131 116 116 112 115 119 108 116 125 124 123 130 132 127 124 120 107 98 100 103 97 83 88 116 126 134 144 131 159 160 152 121 103 80 111 133 141 156 167 158 144 133 125 117 120 128 126 119 138 138 147 139 126 116 114 115 106 99 130 126 123 132 137 145 154 163 171 165 160 159 159 160 159 153 157 155 156 154 155 158 140 137 136 135 139 137 137 138 138 137 133 126 130 119 118 119 118 112 114 124 131 131 136 144 147 141 138 134 128 121 105 102 100 82 75 96 129 137 140 135 149 167 157 119 106 99 122 135 153 150 166 169 124 131 120 120 125 133 125 127 143 138 142 133 117 112 110 109 111 127 124 118 132 141 153 172 177 184 186 184 181 174 179 185 176 174 176 176 174 171 167 169 159 155 152 154 147 150 149 153 148 141 135 124 127 122 121 125 127 122 125 136 142 145 147 152 150 148 147 140 136 135 127 112 116 101 78 96 117 136 139 131 151 162 162 141 106 107 135 140 150 154 171 167 126 132 114 127 125 135 126 133 146 137 136 139 121 109 103 109 112 125 114 124 144 154 163 182 184 196 192 192 183 182 186 194 192 190 192 187 182 175 173 168 165 159 154 156 152 153 159 159 153 147 137 133 134 130 131 131 130 137 138 145 156 157 151 154 157 145 148 145 138 142 140 129 121 118 92 93 111 133 137 132 156 157 153 147 119 114 137 147 151 160 175 164 139 127 111 126 127 142 139 136 152 143 142 136 122 92 105 108 124 123 124 139 150 162 183 194 196 195 191 189 188 179 181 191 191 190 191 187 182 172 165 162 157 155 152 153 151 152 161 161 157 147 147 140 140 139 138 137 134 144 141 148 155 157 149 148 149 147 150 141 142 137 147 133 126 126 98 89 101 120 135 145 154 166 145 150 124 130 143 153 143 166 181 168 149 135 106 115 138 154 138 138 159 156 142 137 121 96 117 112 125 119 127 138 141 166 179 186 178 175 175 169 175 171 172 175 175 172 170 169 162 154 141 144 139 140 140 146 147 143 152 151 153 145 141 133 134 137 136 135 134 138 137 130 135 132 132 129 131 124 124 122 119 125 136 136 134 138 119 83 94 108 132 146 153 157 149 150 142 119 148 151 144 166 176 175 161 134 102 116 134 146 145 152 185 146 136 149 120 105 101 96 107 101 109 121 122 142 156 142 147 147 154 146 142 150 143 136 136 136 135 132 130 129 130 134 123 124 121 128 135 131 141 138 144 134 129 126 123 122 122 116 113 115 115 114 115 112 112 109 112 113 111 116 100 93 103 115 128 130 125 96 101 111 126 140 154 146 145 162 144 132 156 149 160 160 165 182 180 117 103 108 123 115 133 170 175 143 146 146 118 119 107 126 114 120 128 141 143 149 146 137 131 128 135 120 129 136 130 126 125 124 126 125 121 124 125 128 122 120 115 121 117 121 121 129 126 124 119 117 113 114 107 102 104 99 101 100 94 93 95 99 99 94 98 106 108 88 84 90 95 101 116 102 112 117 134 136 148 145 143 169 153 147 160 161 145 153 161 185 160 97 108 98 120 112 144 160 154 143 149 149 122 134 103 113 91 94 111 121 115 123 123 121 117 120 130 119 116 120 113 112 110 105 106 111 109 114 116 120 110 123 109 114 108 106 108 110 111 112 110 108 103 97 95 93 95 92 96 98 96 93 99 105 103 97 97 95 97 97 92 101 102 103 120 104 112 131 143 142 150 141 137 162 148 157 165 161 133 139 166 188 132 84 109 112 131 141 143 153 137 148 145 149 116 125 102 117 95 105 127 122 113 115 115 114 106 117 114 97 99 104 100 96 106 106 102 106 106 110 102 115 114 120 125 133 130 127 124 125 119 115 110 107 100 97 97 102 103 106 107 117 117 115 117 118 115 104 101 97 91 97 89 101 106 114 138 131 126 139 156 144 150 138 137 154 142 157 150 150 132 134 171 185 125 101 120 126 141 162 143 151 123 123 132 128 124 142 130 152 117 139 125 106 120 128 129 118 108 108 102 88 96 94 93 83 88 94 96 109 99 109 91 99 110 126 140 137 137 137 136 137 130 122 125 115 114 108 114 117 118 119 123 130 135 135 130 138 124 110 114 108 107 110 85 87 89 100 131 150 127 133 157 145 148 146 136 156 140 143 141 135 137 135 161 182 131 122 114 132 148 149 146 149 111 119 120 121 130 154 148 155 124 129 110 108 122 128 122 98 103 95 95 95 89 94 93 94 96 105 103 116 94 94 96 95 109 127 140 131 127 134 137 132 133 135 127 122 118 111 115 113 116 118 117 135 130 126 126 132 119 115 112 110 114 136 110 91 93 87 102 141 145 136 169 146 142 138 131 156 151 131 141 132 143 143 161 170 136 129 104 126 134 122 142 150 127 123 132 127 120 140 134 141 122 125 102 113 103 74 71 78 80 72 69 72 72 72 77 82 95 93 100 96 104 100 100 102 107 120 124 122 125 135 134 125 131 133 137 127 123 112 115 113 112 111 105 129 121 116 113 105 111 113 122 119 119 124 124 101 93 101 103 125 141 149 163 145 137 144 139 167 163 139 149 141 139 152 153 166 136 133 90 132 115 87 112 129 127 128 126 128 131 147 138 138 115 118 97 87 67 66 63 54 71 62 88 68 59 60 76 85 96 91 104 87 85 96 85 91 114 118 140 135 146 157 148 149 143 144 134 132 120 104 111 120 110 97 102 112 107 106 106 103 113 114 113 121 125 120 105 104 102 122 134 128 152 155 174 142 155 155 155 159 166 134 149 153 148 146 148 157 145 123 91 133 98 92 106 141 120 137 133 127 132 123 118 116 106 118 90 85 86 79 61 58 79 85 89 74 60 58 71 79 66 89 102 88 92 95 94 97 102 106 126 127 161 166 154 143 147 151 139 129 117 112 101 121 119 114 119 123 118 114 116 122 103 110 117 118 113 138 112 113 121 154 154 124 143 149 162 176 177 163 181 157 166 152 138 150 147 145 151 151 147 122 106 118 92 111 115 157 128 141 138 132 132 120 110 114 118 127 116 114 124 91 88 104 99 87 104 87 78 82 86 83 76 90 97 85 98 96 99 94 92 104 118 130 155 170 165 146 161 149 151 123 115 113 113 124 121 140 137 143 129 134 132 135 132 125 124 165 125 154 130 128 145 166 174 133 132 139 152 176 186 166 184 169 182 158 134 141 144 144 150 141 145 122 117 84 69 116 104 158 132 166 160 148 138 130 110 112 128 130 135 130 135 103 101 109 110 84 103 96 104 115 118 122 120 122 117 105 106 98 96 87 96 117 107 118 131 152 165 170 182 183 178 132 109 98 110 123 118 153 144 156 133 130 145 130 140 143 136 151 123 123 146 130 131 151 167 139 129 130 159 166 185 170 189 176 191 163 119 124 128 138 144 135 148 120 134 74 62 107 105 147 155 153 164 156 143 138 127 110 135 148 145 142 166 141 115 112 121 115 112 117 122 117 123 116 123 139 123 115 114 125 101 95 101 121 120 136 142 150 174 166 176 169 158 147 124 109 129 159 136 153 158 147 134 116 120 117 119 123 161 153 153 148 141 139 135 145 172 139 145 132 150 171 184 177 182 174 198 156 122 122 134 128 142 124 150 117 126 78 69 96 119 142 164 140 156 153 149 148 137 108 151 160 140 150 139 139 115 120 121 119 138 137 121 126 124 128 124 137 146 147 122 130 108 120 119 127 135 148 155 156 172 184 194 183 139 160 145 131 127 147 151 153 160 158 155 137 131 124 107 134 147 166 146 134 128 139 163 156 174 157 157 146 167 207 192 175 168 173 203 157 112 134 154 124 129 126 162 116 121 79 75 97 127 151 172 148 129 148 152 151 136 129 154 154 145 128 134 129 111 101 100 109 115 128 129 125 125 140 147 132 156 134 108 115 90 113 120 126 123 142 166 182 194 175 209 205 144 160 177 152 151 162 168 169 152 171 179 157 119 122 134 158 129 168 169 136 130 153 174 175 167 168 156 159 179 214 206 194 164 182 204 164 109 123 159 126 127 138 153 103 113 81 77 96 121 148 154 148 131 133 160 148 142 138 134 151 151 120 131 129 117 113 105 121 132 135 146 151 137 140 133 130 128 114 114 103 105 124 135 120 97 131 151 169 175 167 196 196 186 168 190 177 177 186 178 172 158 162 192 157 123 129 137 111 124 145 131 136 145 145 165 174 162 163 164 156 194 191 211 200 172 186 200 161 101 129 155 107 123 148 151 98 86 74 75 93 102 149 147 161 132 127 163 159 141 132 132 149 144 130 134 140 129 128 131 137 143 147 146 150 144 141 121 134 129 127 117 103 104 122 130 123 102 142 151 184 181 180 185 184 216 173 195 189 200 196 185 170 174 167 183 176 147 135 128 115 131 132 123 134 134 151 158 168 162 166 159 152 175 195 208 188 168 187 181 163 126 140 145 110 127 160 137 92 64 58 85 97 83 124 138 174 145 135 161 165 139 128 122 142 137 131 141 153 141 140 139 154 146 144 150 147 151 151 137 151 154 144 135 136 132 146 133 120 126 128 147 184 188 186 181 182 178 174 210 197 198 220 189 191 192 179 188 198 189 177 175 160 155 154 154 155 164 162 165 171 166 162 144 144 164 211 202 184 177 172 165 172 141 164 153 120 140 173 128 92 57 52 97 82 81 112 105 180 162 132 159 153 138 129 121 135 138 146 152 165 162 148 138 140 146 153 158 148 157 158 161 163 176 141 149 154 131 141 135 129 148 133 155 193 206 202 202 204 179 186 209 208 198 236 214 194 204 187 170 187 193 192 191 189 179 168 170 169 169 168 166 160 154 155 151 149 168 194 186 187 170 170 165 159 139 169 158 131 152 175 126 97 74 39 94 48 62 113 89 166 195 151 151 156 146 131 138 136 140 149 155 164 165 163 154 150 153 155 156 153 168 167 181 178 163 156 171 165 150 140 126 136 144 143 168 188 213 193 210 212 186 179 189 197 168 203 199 180 183 188 166 171 159 159 163 162 161 158 160 156 145 149 153 147 155 154 160 151 163 170 175 183 141 155 144 123 129 177 152 144 161 172 136 100 103 50 50 30 39 97 112 135 200 154 144 159 151 131 141 145 147 162 166 171 170 175 170 162 157 158 164 168 174 184 175 165 171 188 181 174 150 141 116 134 134 144 159 186 200 199 208 216 203 187 179 171 163 157 167 161 168 166 168 168 163 158 147 156 151 146 148 139 132 133 136 132 148 135 166 155 154 157 160 168 139 130 126 100 122 193 137 143 160 173 126 88 105 73 17 9 35 79 106 144 186 169 141 149 143 140 141 134 150 148 150 152 162 158 159 161 171 168 180 180 182 177 166 167 182 185 177 156 147 119 108 124 123 122 153 175 201 207 207 208 204 181 180 163 163 156 145 132 152 162 158 161 156 152 142 147 145 139 136 130 128 126 131 143 142 140 162 154 161 145 154 153 133 103 111 91 109 183 127 143 160 168 131 71 111 109 15 3 29 75 104 138 179 173 146 163 149 134 135 141 139 140 141 150 162 155 158 168 166 170 175 177 170 163 153 169 168 173 176 147 115 118 110 119 106 121 143 171 202 210 206 217 199 180 174 163 155 157 163 122 127 156 152 165 155 145 148 138 145 142 132 127 132 125 119 136 132 133 151 158 162 135 160 150 114 89 104 69 117 174 117 143 159 173 160 72 114 147 47 20 28 62 108 135 154 166 157 153 162 152 138 146 147 158 147 153 156 152 151 157 159 163 158 152 145 147 156 174 169 166 168 119 113 129 112 114 101 127 140 169 202 202 201 210 205 188 168 166 157 146 152 151 116 130 142 144 149 140 128 123 126 132 117 125 129 120 117 125 133 130 144 151 149 139 166 138 103 103 106 56 110 137 115 149 156 165 180 97 115 169 95 47 46 46 111 126 148 143 147 146 151 154 140 140 137 148 144 144 153 149 144 150 147 144 143 137 143 154 162 171 163 156 135 106 112 111 106 113 118 132 155 179 200 205 200 207 203 182 163 170 147 138 134 136 134 119 115 125 137 131 118 102 96 104 117 118 120 123 107 115 145 136 152 152 137 142 144 116 99 109 113 73 97 98 123 154 156 159 206 113 99 164 126 71 75 29 110 119 147 131 124 125 140 135 150 142 141 145 146 142 139 136 140 137 136 131 134 135 139 151 157 164 162 143 138 117 108 105 111 116 122 140 152 175 182 186 190 201 191 166 160 147 134 141 137 131 119 137 126 122 122 126 113 102 102 89 93 99 108 113 116 120 134 134 137 133 128 143 107 100 136 113 97 59 92 83 124 153 159 163 218 156 100 153 119 112 85 52 108 127 141 137 119 111 130 137 138 142 147 144 146 138 134 127 125 124 118 110 110 123 133 153 157 169 163 138 128 122 107 105 107 117 109 121 133 153 164 162 166 179 167 165 146 144 134 130 121 126 121 128 126 119 119 117 95 93 91 88 85 83 88 103 112 112 136 140 145 119 136 126 89 149 143 147 91 61 85 91 110 153 161 157 206 183 100 146 117 105 89 65 118 143 126 133 130 113 124 127 130 136 135 142 142 133 133 127 127 128 122 112 110 114 121 123 133 137 139 135 130 122 108 106 107 115 113 114 126 127 139 137 146 163 157 155 146 144 135 129 125 121 120 124 117 120 108 106 99 94 95 82 78 87 87 100 103 112 123 134 127 117 126 101 85 139 165 158 98 75 85 88 100 154 157 160 173 182 116 131 125 92 91 69 123 148 131 123 129 118 122 127 127 131 132 136 133 137 126 119 121 123 115 108 110 121 127 133 134 139 140 142 128 113 109 98 102 104 110 118 126 126 119 118 116 139 143 147 140 143 139 139 137 132 134 130 120 118 115 106 96 93 97 91 87 91 89 95 105 115 119 124 129 114 110 93 82 129 160 155 127 85 90 92 91 156 163 156 163 182 124 125 112 66 74 84 100 132 128 116 125 126 114 121 123 130 129 128 128 131 119 111 112 110 107 108 112 122 129 125 125 130 135 144 129 114 111 96 103 111 117 127 134 133 125 119 115 134 141 140 139 142 148 151 152 143 139 136 128 124 115 108 95 93 94 93 84 86 88 87 97 108 124 130 126 116 101 80 77 126 139 141 124 86 99 102 84 155 162 157 166 175 134 104 87 40 55 84 92 108 117 118 122 131 124 123 128 130 128 132 130 122 116 102 104 99 100 106 108 115 114 117 117 123 125 135 139 125 116 108 110 124 123 133 140 133 132 132 131 139 151 145 143 147 147 149 146 138 138 131 127 128 115 111 106 96 96 91 81 81 91 87 91 104 120 125 111 105 107 79 87 115 122 126 109 101 118 98 76 145 166 156 171 169 140 91 84 35 37 70 95 112 104 112 127 142 128 119 127 127 128 126 119 119 117 101 103 98 99 102 108 110 109 119 127 137 142 139 150 147 130 127 126 131 135 139 142 142 144 147 144 142 143 142 142 141 136 139 133 132 133 129 126 129 121 117 110 100 93 89 89 80 93 93 100 102 113 114 100 103 106 81 87 112 110 111 100 113 124 97 65 149 161 154 171 163 154 101 81 40 28 50 81 112 95 103 125 152 130 123 123 124 128 124 119 115 112 105 104 97 99 105 104 108 104 98 110 131 145 151 153 153 148 134 134 132 129 138 143 150 148 151 149 136 131 131 126 128 126 126 121 124 124 121 121 122 117 114 110 99 91 85 86 79 89 96 101 105 118 111 98 93 108 89 92 97 108 107 101 108 105 72 69 152 153 151 167 161 158 124 76 28 10 28 67 94 85 98 136 155 138 125 125 120 125 123 122 113 108 105 105 93 99 102 99 101 91 88 99 123 130 142 149 145 145 148 140 134 131 132 136 143 143 143 138 132 128 121 117 125 122 124 116 116 117 122 118 117 117 109 116 106 93 81 77 82 97 107 107 118 121 109 94 87 103 95 99 102 109 100 72 94 68 55 87 145 148 149 177 158 158 146 92 32 24 10 55 75 70 106 146 149 144 123 126 125 123 124 116 106 103 109 102 100 96 95 89 88 77 93 113 115 128 140 145 147 143 152 137 129 113 113 122 127 126 126 122 129 130 116 114 117 113 112 110 104 103 108 113 116 113 101 107 99 93 83 79 94 112 106 111 124 131 116 93 89 95 92 97 107 106 69 43 67 49 54 83 138 148 146 179 165 169 156 125 40 29 0 42 59 68 113 144 158 144 129 122 120 118 117 114 99 99 99 99 104 94 89 88 88 88 103 105 115 120 136 147 149 134 149 129 115 107 102 114 117 115 111 114 127 123 123 111 105 107 99 97 101 96 102 109 109 106 93 91 85 77 77 85 105 119 111 110 129 131 116 95 100 102 91 98 107 87 52 42 59 57 50 76 131 147 150 183 174 171 176 144 85 43 2 32 53 81 107 137 150 146 140 123 115 114 115 106 110 100 94 105 98 91 97 98 101 101 97 107 111 105 117 132 140 132 133 118 109 106 103 107 113 119 132 137 148 149 140 131 124 109 100 94 91 96 92 100 105 99 90 86 81 77 80 99 114 132 122 110 135 133 110 99 110 108 106 87 90 68 41 41 58 58 52 85 131 138 150 181 182 176 176 160 111 77 32 43 66 87 109 127 140 151 146 119 112 120 105 106 109 104 94 111 97 96 107 110 100 102 105 110 124 115 120 127 138 141 146 129 128 135 139 147 149 154 159 164 180 178 166 154 142 130 105 88 90 86 85 90 96 94 88 84 85 85 84 104 123 137 127 122 143 134 114 101 107 101 104 85 69 44 42 58 45 44 36 107 133 138 148 172 183 184 177 165 132 89 65 47 94 90 111 131 134 143 157 119 114 123 104 107 105 112 109 117 112 108 123 128 102 106 109 115 120 122 126 129 145 150 147 160 166 178 186 187 191 195 199 195 200 198 183 171 159 137 116 92 92 91 93 92 97 101 88 93 90 91 94 116 133 141 134 129 147 137 118 102 111 94 103 94 61 43 62 71 46 30 63 121 135 140 149 160 176 185 189 165 157 106 80 53 102 111 121 124 126 144 146 130 118 126 113 118 114 119 120 118 126 137 142 143 121 113 112 120 127 121 135 136 148 154 165 165 181 197 196 184 191 200 194 194 183 183 174 172 159 137 123 107 108 117 108 108 103 106 93 90 103 103 117 128 128 146 139 140 148 141 115 111 119 106 118 99 68 77 77 60 38 51 94 126 135 138 147 169 174 182 193 185 171 136 90 73 101 117 124 127 120 138 126 128 115 127 122 130 124 131 125 127 131 159 167 164 141 124 133 132 123 111 123 119 123 125 137 141 139 156 153 151 161 182 180 173 169 174 164 159 142 120 120 123 128 129 128 124 120 113 100 98 106 106 125 133 134 142 135 145 150 139 114 121 133 116 137 113 97 105 89 59 79 92 111 131 136 137 142 180 178 179 186 192 178 152 118 87 96 125 105 122 107 135 129 128 120 128 132 127 134 130 129 131 141 170 174 167 156 126 136 129 124 103 109 108 106 114 118 129 120 127 131 134 144 164 166 169 162 174 165 154 140 122 128 122 129 129 130 130 131 118 110 108 112 111 127 128 136 141 141 147 151 135 113 134 145 128 156 124 112 127 100 104 106 103 122 132 142 143 137 183 180 179 187 189 186 168 127 117 99 132 106 108 97 126 130 132 112 122 129 133 133 125 127 129 160 181 177 174 170 151 137 141 125 115 115 127 119 124 139 137 133 147 153 157 165 191 186 191 187 180 179 163 145 128 138 130 125 135 141 143 141 123 117 110 120 115 123 124 136 133 146 142 146 136 120 148 152 134 150 133 126 130 125 108 108 110 135 133 137 135 136 188 186 186 184 191 192 181 153 126 101 119 107 105 96 117 137 127 117 113 125 131 135 120 123 128 160 185 203 201 199 180 176 174 149 135 133 141 134 125 145 154 159 181 196 192 205 228 218 224 215 201 204 184 183 156 171 170 153 173 168 149 145 128 114 94 114 112 128 133 131 130 142 142 145 135 135 153 151 129 144 132 125 136 130 115 110 120 147 136 134 135 139 177 188 187 187 189 194 195 172 142 117 107 120 103 113 116 139 128 120 102 117 130 129 113 114 122 142 182 203 207 204 198 191 191 184 165 147 146 143 140 124 130 135 168 189 191 204 216 219 233 230 216 216 207 201 171 176 177 163 175 170 158 139 119 113 96 116 117 143 141 138 135 141 142 144 129 146 157 150 128 148 131 142 148 127 121 114 134 150 133 139 138 134 168 180 191 187 190 192 190 186 155 141 108 128 121 118 109 143 136 118 89 112 124 121 107 102 114 121 170 195 203 202 202 196 208 198 198 165 143 131 125 128 120 122 139 153 148 150 188 206 224 221 207 200 188 170 133 132 141 134 138 140 139 132 116 105 98 119 129 140 136 137 142 135 141 137 122 142 152 138 137 148 137 152 143 128 124 118 141 142 146 137 138 141 174 174 180 188 182 193 183 169 160 160 127 129 136 134 119 142 142 116 90 105 110 114 95 87 100 111 152 168 185 185 180 178 196 196 189 176 154 137 130 122 118 132 120 134 121 126 128 141 145 163 153 137 132 129 129 122 132 130 126 127 125 114 104 97 107 100 110 115 119 133 139 134 135 135 132 142 149 121 139 144 138 153 140 122 122 120 140 147 148 139 134 147 172 176 168 175 181 184 152 153 165 158 150 130 153 138 136 144 149 133 99 97 103 102 89 77 86 87 114 132 150 161 168 167 166 155 130 122 107 100 103 85 92 95 86 92 72 79 94 91 89 101 103 99 84 93 95 107 117 110 112 112 103 88 86 86 98 85 108 116 119 128 139 126 131 139 135 142 143 119 148 140 140 143 128 119 122 128 139 140 147 144 140 145 166 170 161 168 177 157 135 152 161 152 155 132 163 154 137 144 159 145 115 81 99 92 82 87 78 79 88 104 129 130 143 142 143 128 114 101 103 88 98 73 70 68 56 85 74 81 89 91 86 95 81 56 54 52 59 72 96 96 94 95 84 82 87 87 97 81 117 127 134 129 124 124 122 142 132 138 138 130 146 143 141 138 128 118 124 135 129 138 145 143 142 143 142 159 155 164 153 127 129 145 162 156 147 135 162 160 140 153 160 158 130 87 96 87 79 86 85 84 84 83 103 107 110 118 120 113 107 112 109 102 95 74 75 72 62 78 72 73 90 76 72 82 92 72 65 56 52 59 73 72 78 75 77 84 93 94 102 95 113 136 130 129 118 123 128 144 133 138 132 137 156 138 139 137 129 123 132 134 129 128 149 149 137 134 140 145 149 148 117 113 126 137 151 156 147 123 156 155 152 153 154 161 139 97 90 94 86 85 88 86 92 87 88 90 94 107 105 109 108 118 113 114 108 102 106 95 94 94 91 69 80 86 78 93 95 88 80 72 71 73 78 75 72 73 88 86 89 95 104 105 114 139 125 121 116 121 132 137 135 139 137 146 145 137 136 139 130 133 136 133 135 132 144 151 133 133 139 142 148 120 107 106 131 138 155 157 145 120 146 154 151 150 149 159 142 112 87 89 81 80 85 76 91 82 79 84 85 108 113 112 105 125 126 113 115 113 123 123 120 114 110 88 88 87 92 92 100 97 105 90 93 79 68 71 73 83 97 97 92 101 110 116 124 133 118 114 115 118 137 127 126 139 129 146 143 134 138 137 139 135 137 133 134 135 146 151 136 134 141 142 121 105 100 115 137 139 151 160 142 116 144 147 153 159 156 160 142 133 85 92 83 80 81 77 79 79 64 62 71 92 103 108 110 114 116 114 112 114 126 127 118 118 115 98 90 98 98 94 94 98 100 91 84 81 71 66 70 89 95 107 103 111 125 119 131 125 113 115 116 129 138 124 114 127 122 136 129 133 144 138 134 139 140 129 134 138 143 146 138 139 136 118 95 100 102 120 133 134 133 146 131 120 146 166 148 179 181 154 144 133 100 87 89 77 72 75 71 71 65 52 56 69 92 109 95 99 97 96 102 104 99 106 106 107 107 95 89 93 93 90 85 91 89 89 88 83 69 71 75 95 103 106 111 111 126 125 136 111 109 112 122 130 132 126 124 121 127 128 113 122 151 140 119 139 144 129 133 136 139 144 144 144 110 92 92 100 109 120 121 126 127 145 128 140 149 156 145 194 203 158 144 131 109 97 84 84 72 75 63 60 60 60 57 72 85 93 87 91 96 103 99 93 88 89 89 82 85 85 73 77 85 80 80 82 85 89 77 82 73 80 81 92 108 110 119 127 133 134 134 112 112 115 122 118 135 132 133 133 132 118 116 120 149 136 101 122 136 131 140 131 138 140 144 139 87 91 94 105 108 112 110 124 132 135 141 142 148 137 182 200 206 169 148 129 123 115 93 86 77 77 72 68 62 60 66 72 76 80 91 98 101 108 102 96 94 93 98 88 90 82 83 80 76 76 77 79 80 82 75 83 83 89 98 97 107 120 130 143 140 140 124 120 115 114 126 105 135 152 139 148 139 111 114 129 142 124 107 90 117 132 139 135 136 141 137 133 84 93 92 102 108 105 104 123 129 132 133 143 152 177 204 194 199 176 161 141 118 126 103 100 85 96 81 87 77 70 65 81 84 89 100 114 116 118 117 111 99 102 103 99 97 89 86 83 76 75 77 76 76 81 84 83 87 91 102 108 116 125 141 143 136 125 113 109 112 107 118 102 147 151 177 163 143 112 123 132 139 117 111 92 92 115 136 133 134 131 138 134 87 89 90 100 108 98 101 120 124 136 123 156 192 206 189 187 182 185 167 151 120 134 121 110 100 102 105 102 96 92 84 83 100 96 104 118 125 125 141 132 128 126 119 113 105 95 94 86 82 83 85 91 90 99 108 104 102 95 109 123 133 141 150 139 127 116 112 112 104 106 110 115 166 161 187 178 147 140 130 131 130 110 110 99 95 101 118 124 131 132 136 134 86 84 82 107 107 90 107 112 126 135 134 187 197 190 173 167 168 190 173 146 119 146 130 121 106 111 124 119 110 102 96 96 109 108 118 126 132 143 150 151 144 141 135 130 124 117 114 117 104 100 96 108 109 116 114 114 103 105 122 137 143 149 142 139 126 111 110 109 96 98 128 121 164 181 192 175 166 142 153 135 127 104 107 105 97 95 101 121 131 130 133 133 78 81 83 106 101 97 106 112 132 143 154 191 194 171 161 134 146 193 189 143 114 133 140 121 107 117 119 130 115 116 109 101 112 112 122 133 144 156 163 159 155 154 151 153 140 141 134 138 131 123 122 125 126 129 122 123 115 122 145 148 152 152 139 133 130 108 108 96 96 96 141 127 152 195 196 166 183 146 159 147 128 100 109 109 106 100 92 111 137 137 133 131 78 81 85 99 103 107 106 124 141 171 167 181 180 161 153 112 114 187 199 152 118 140 144 129 113 113 119 126 119 120 121 110 115 117 124 130 145 156 166 159 163 165 159 164 159 159 153 150 147 144 143 140 139 138 140 136 131 142 161 160 158 152 139 129 124 107 98 89 97 113 145 127 162 188 187 154 181 174 168 155 131 105 107 118 114 101 99 95 126 139 138 135 76 73 86 99 119 117 117 125 150 203 166 168 171 155 140 87 106 166 195 154 135 147 146 120 125 113 117 124 122 122 123 118 124 125 128 136 138 145 151 154 163 161 157 166 165 164 164 157 160 157 157 161 156 164 165 154 151 168 172 170 158 149 132 124 113 99 88 82 100 129 139 125 177 190 181 134 169 197 182 168 140 111 111 123 123 106 97 103 105 121 127 132 64 71 90 114 129 118 122 127 182 214 171 168 154 143 133 63 82 138 172 161 157 164 150 123 123 123 114 120 117 113 116 118 121 125 125 126 138 142 145 149 152 152 155 158 166 160 163 163 157 157 158 159 161 171 171 161 165 176 179 167 163 145 130 130 100 82 77 97 110 121 127 125 183 197 181 141 143 200 185 161 154 106 104 115 118 108 93 98 100 111 111 115 66 79 105 123 132 121 121 138 216 209 169 153 144 116 147 46 53 115 147 163 156 174 163 142 118 115 120 114 109 108 103 114 108 115 118 119 124 138 142 147 152 149 154 157 162 161 161 156 148 152 157 157 156 164 158 165 173 174 175 167 157 137 134 121 91 70 85 108 97 97 141 130 210 204 165 141 149 197 185 159 156 105 99 107 105 106 97 93 100 98 105 108 82 91 112 132 140 132 115 167 203 202 164 146 127 125 145 28 53 69 133 148 155 173 171 162 134 112 116 113 112 105 102 107 104 111 111 114 116 132 141 151 155 156 155 155 150 154 155 151 139 142 146 152 154 150 155 161 174 171 165 158 141 135 130 103 84 77 97 105 82 101 161 140 212 220 170 129 163 201 187 153 155 106 92 101 99 109 97 91 92 95 94 99 96 102 120 138 147 128 122 171 201 194 155 127 134 144 123 23 39 68 110 118 147 171 180 169 159 125 116 106 104 107 97 101 108 101 108 110 118 127 137 152 161 158 153 158 146 146 142 142 137 139 139 138 146 145 161 156 167 154 156 149 129 127 106 87 82 90 101 101 83 102 163 147 204 237 169 137 164 201 183 144 154 111 93 94 97 103 99 90 86 97 93 97 113 118 131 137 150 129 129 156 191 167 125 149 135 131 137 15 27 68 89 85 128 164 180 166 160 153 134 118 103 101 101 104 107 104 109 110 111 121 131 142 144 150 150 147 149 144 134 135 137 139 128 127 136 144 145 155 153 143 142 131 108 96 92 89 85 97 99 99 85 93 144 168 206 235 180 156 162 204 178 137 146 127 94 98 110 103 99 84 82 93 88 83 128 134 141 151 161 137 126 131 172 130 126 148 128 126 148 28 25 66 81 68 102 151 167 171 154 169 157 144 123 110 107 115 111 100 106 110 111 110 120 131 134 140 141 140 145 141 137 138 132 132 128 128 133 139 139 140 141 138 122 99 89 87 94 96 104 102 103 108 87 87 134 180 212 223 205 167 161 210 185 138 136 115 83 91 102 103 103 81 71 70 70 51 147 150 149 157 159 131 100 142 144 135 131 132 144 132 147 55 24 56 68 61 75 124 141 153 154 159 162 168 149 139 119 120 124 107 105 105 108 109 108 120 134 132 136 138 144 133 138 134 131 129 119 121 124 129 137 137 133 113 91 86 88 93 103 114 106 107 105 111 100 84 131 185 223 234 210 173 160 185 196 153 139 115 92 95 118 126 120 95 75 67 76 51 162 158 154 140 138 113 84 136 137 153 134 109 147 146 146 86 30 48 57 67 68 93 132 143 125 152 156 162 169 165 150 135 131 122 114 110 109 107 107 108 109 119 121 124 131 129 125 124 122 117 121 123 126 135 138 127 106 90 90 85 88 96 117 112 106 98 97 97 105 96 151 166 240 239 218 179 155 164 176 158 152 115 110 107 118 130 136 105 86 71 77 72 151 131 130 103 121 96 74 147 142 150 112 99 136 153 143 127 41 39 57 74 73 78 120 136 133 145 140 139 152 167 170 162 149 138 137 124 122 118 112 112 108 113 111 113 119 122 119 119 117 125 129 131 133 137 124 97 93 90 91 89 91 105 121 103 103 103 86 101 109 128 171 181 242 254 218 189 148 147 162 154 152 141 120 117 120 127 124 103 72 63 78 84 143 111 104 106 95 90 113 139 126 125 80 108 137 163 141 156 61 41 61 76 71 82 111 120 117 164 139 130 135 148 163 162 161 151 148 136 137 130 126 122 127 124 119 124 121 121 123 124 126 125 129 126 121 116 108 97 101 92 93 90 95 111 112 102 101 100 91 104 125 158 187 181 247 246 216 205 138 141 148 149 138 138 129 126 125 127 124 121 86 49 61 87 