P2
92
112
255
148 147 149 148 148 144 148 146 146 145 143 144 140 129 132 131 122 120 125 138 139 131 136 133 129 134 133 116 108 100 101 106 102 116 108 114 118 133 128 125 123 121 122 118 118 136 127 121 122 110 107 108 119 123 130 138 148 149 155 148 155 160 151 145 158 148 150 152 144 136 129 122 124 130 140 143 142 138 142 143 145 145 144 139 138 141 141 142 144 141 142 144 148 150 149 149 148 148 147 149 143 145 143 136 136 129 130 132 127 124 134 150 146 144 142 147 128 123 116 109 100 94 94 101 99 107 117 121 121 137 136 138 135 127 127 120 127 130 142 135 134 126 107 111 111 122 131 128 135 142 147 151 153 152 156 149 152 158 156 166 156 155 134 123 123 128 136 138 145 143 146 142 146 145 150 145 143 140 138 140 146 142 143 144 150 146 148 150 147 147 147 149 142 142 137 128 134 131 132 128 131 123 137 149 151 157 158 136 125 118 105 97 88 86 83 92 94 110 122 130 120 126 136 139 136 140 135 137 145 152 157 150 145 149 135 120 122 127 132 128 130 136 133 139 155 142 156 144 147 153 158 163 172 169 160 132 135 133 134 134 141 145 153 149 146 147 153 152 144 144 140 143 141 143 141 145 148 151 149 152 151 149 149 145 144 139 133 132 131 130 128 130 128 135 144 153 155 143 139 134 119 102 90 81 81 92 97 97 108 113 114 122 118 129 133 130 139 143 150 151 164 163 164 161 159 164 154 144 149 146 141 131 138 144 148 145 152 149 144 149 144 141 159 160 169 176 170 157 143 136 134 142 133 150 155 155 152 150 153 151 146 145 147 143 145 142 142 143 151 147 153 154 151 151 148 144 141 138 134 132 129 128 127 127 137 145 156 147 144 139 134 124 112 87 87 81 82 91 97 99 115 111 122 124 126 129 137 131 144 151 151 168 171 170 166 166 169 169 173 168 173 166 159 159 153 159 163 162 164 161 149 150 137 134 150 152 167 173 168 174 161 141 146 151 144 147 159 160 154 154 153 155 151 151 151 150 140 143 142 144 147 149 152 151 150 147 146 138 142 134 132 138 135 138 132 137 144 145 151 154 138 132 117 114 106 101 95 94 101 111 113 116 120 123 132 137 134 137 138 144 155 162 162 168 182 184 180 174 172 182 180 180 179 177 180 173 172 173 179 174 172 171 156 160 150 140 147 145 148 170 170 172 167 152 146 161 164 148 152 166 162 153 161 159 156 153 154 148 143 141 144 143 152 151 152 148 145 144 138 137 139 137 135 138 143 135 146 155 153 145 137 137 124 120 100 103 103 102 107 112 111 120 123 128 129 134 142 143 147 158 153 152 160 164 166 163 177 192 192 190 186 185 184 185 185 186 187 181 179 183 182 176 172 176 176 170 160 151 157 150 151 166 156 160 154 149 138 155 157 150 149 157 169 158 165 160 160 155 154 153 147 144 143 144 149 154 149 147 140 142 141 135 137 129 129 132 138 146 157 157 156 142 125 118 104 97 95 102 96 105 109 115 122 117 122 130 134 137 146 142 148 151 158 148 150 150 149 157 169 178 179 180 190 191 192 191 195 196 203 198 194 198 199 186 181 180 181 181 173 176 168 159 164 162 162 159 154 145 136 137 149 143 152 163 163 164 169 163 159 159 156 154 152 147 139 145 156 149 148 144 141 137 130 133 131 123 125 134 146 151 155 162 145 133 113 97 88 91 92 103 111 107 108 112 118 121 121 134 134 137 140 140 144 147 140 136 138 144 156 149 160 173 169 172 183 193 190 193 199 203 203 207 205 202 198 200 185 173 182 180 171 179 176 175 172 166 157 155 151 164 151 135 138 143 146 159 157 147 165 165 160 155 160 154 154 153 145 145 154 150 148 137 136 138 131 129 127 122 136 151 167 168 167 162 139 121 100 97 90 93 97 105 108 106 110 110 119 119 118 130 130 129 133 136 140 145 141 136 142 144 155 157 153 169 166 166 169 177 183 187 193 192 192 194 192 186 183 186 183 170 158 161 160 158 169 171 168 183 174 154 151 159 153 141 126 135 139 149 144 147 150 157 165 159 161 161 159 149 151 146 156 147 138 141 134 134 132 134 127 132 156 160 171 176 167 147 133 105 97 97 90 105 113 112 110 118 122 125 122 124 124 129 128 131 131 134 135 131 138 138 147 152 152 150 144 147 152 157 163 163 173 178 182 181 180 183 186 178 176 176 178 171 150 140 145 142 155 157 158 173 178 182 168 155 153 148 140 137 128 136 135 138 147 158 166 170 165 169 156 154 148 149 154 142 137 137 134 133 132 134 135 148 152 166 181 166 152 133 114 97 100 95 95 110 119 114 123 120 121 127 126 128 128 130 134 133 130 127 127 122 128 126 129 139 146 141 140 144 142 146 153 148 152 158 166 170 170 173 176 175 176 168 168 164 148 141 138 131 138 144 151 160 160 183 189 172 159 157 151 141 128 134 134 135 140 147 153 165 172 170 161 158 155 152 141 131 133 136 135 129 134 140 155 157 164 171 156 152 129 113 100 95 94 105 107 126 124 126 129 124 127 130 130 136 138 132 134 134 134 131 128 116 122 114 118 126 130 135 131 129 128 132 137 138 140 143 146 152 154 155 160 161 166 161 154 153 141 141 140 127 127 127 133 146 147 151 170 175 175 164 160 153 125 118 126 127 134 143 146 155 166 171 160 157 150 146 138 136 136 136 132 137 143 146 163 163 163 151 136 129 104 90 96 90 102 109 127 138 130 123 129 133 130 144 140 138 141 136 136 129 128 128 124 122 123 125 122 123 121 121 122 120 119 120 119 125 128 130 128 135 138 143 144 147 151 147 145 140 133 134 136 133 119 108 121 133 141 132 136 154 179 179 163 156 141 120 112 113 130 130 150 153 156 161 164 157 151 141 136 137 139 138 128 132 141 157 178 156 152 139 116 104 79 82 91 100 117 120 143 142 127 120 128 129 137 146 143 142 140 138 136 132 133 128 121 121 120 120 120 121 121 125 131 133 126 119 115 117 124 125 121 125 124 124 124 131 129 127 130 125 120 121 122 128 125 109 108 122 125 123 129 144 155 176 174 161 141 133 112 115 115 128 137 151 153 161 156 160 157 145 136 138 142 136 130 128 152 174 169 152 148 118 99 81 76 84 93 116 124 143 148 142 133 123 128 133 134 143 142 143 140 139 135 131 131 129 125 126 132 126 130 134 130 139 134 141 133 128 124 122 124 122 121 121 115 119 117 119 117 115 119 115 118 112 115 115 124 118 102 116 124 115 123 139 148 160 177 170 154 136 118 118 117 114 135 142 146 163 162 163 165 156 134 137 139 144 136 136 151 171 152 139 125 103 80 70 84 88 111 127 134 138 137 126 129 123 127 134 132 134 139 139 138 132 137 135 129 131 133 141 141 143 143 142 143 143 137 140 136 136 136 134 133 127 133 128 127 125 123 124 119 115 114 108 106 102 108 102 106 113 103 101 114 124 114 132 151 157 161 177 161 136 133 110 113 114 129 147 144 158 169 170 166 168 132 139 138 146 136 137 140 148 149 134 110 83 64 74 83 100 123 126 122 137 130 120 125 128 131 122 121 130 132 133 135 130 136 137 140 151 153 153 147 149 154 150 147 147 145 144 142 141 143 140 140 136 135 136 137 135 136 130 127 121 114 107 98 102 86 91 90 88 86 87 97 103 113 125 135 152 159 168 176 150 134 119 115 112 119 147 144 158 175 170 181 168 139 148 147 148 133 129 136 141 142 115 83 55 59 77 87 109 128 122 123 127 123 125 127 130 132 122 114 121 128 128 139 144 142 141 147 154 158 155 153 155 161 157 150 152 149 151 147 145 148 145 136 138 135 131 129 124 127 127 123 118 111 105 94 96 82 86 85 83 78 73 87 88 101 115 125 132 151 156 174 168 143 132 114 112 112 122 146 154 176 181 179 181 139 142 142 137 136 133 134 146 125 94 77 57 66 89 93 112 115 112 117 112 113 125 121 122 130 123 114 110 126 139 150 144 140 147 152 159 153 155 161 158 160 156 150 151 150 150 149 141 143 140 135 135 136 128 126 119 121 120 118 110 105 103 99 95 80 77 80 81 74 71 76 89 91 102 120 126 143 147 161 179 163 142 123 117 106 122 137 149 166 180 189 184 136 140 141 125 127 143 132 136 104 83 54 64 76 97 96 104 113 114 114 111 114 126 123 122 129 125 119 123 138 149 150 154 147 154 160 158 156 161 164 159 161 156 150 150 149 147 143 134 136 129 128 123 128 123 122 119 122 119 119 118 111 110 109 96 86 74 78 78 80 61 79 84 79 83 95 116 131 141 151 172 172 152 129 124 105 120 131 145 163 174 189 193 128 141 142 125 137 144 136 125 102 72 55 77 90 106 96 111 114 118 107 107 116 123 123 126 126 125 127 144 149 153 157 162 167 169 175 166 164 163 161 156 150 147 147 146 144 138 135 131 125 120 123 121 119 119 122 122 125 125 124 124 125 119 121 107 102 90 78 78 88 61 75 87 85 74 78 97 119 132 137 152 166 165 137 120 117 112 123 144 164 174 189 193 142 150 144 131 141 156 133 121 85 63 73 93 98 104 98 118 120 116 111 113 116 122 125 136 135 142 143 151 154 161 166 172 178 179 174 172 158 159 163 154 151 149 145 145 144 136 135 132 123 118 117 118 118 129 127 128 130 132 133 135 136 131 127 127 113 108 99 82 88 82 75 82 90 81 74 87 114 126 130 145 152 161 151 120 113 120 122 126 167 177 194 189 153 162 150 144 157 152 140 118 79 79 92 106 102 103 112 123 118 116 117 122 122 119 136 143 144 156 154 153 165 176 179 183 183 178 173 173 162 153 160 158 152 156 152 149 150 147 141 140 137 129 129 128 134 134 134 138 138 139 141 139 142 139 135 140 125 115 116 107 98 92 88 90 88 85 78 91 102 125 132 148 155 157 150 135 115 124 126 130 148 182 200 197 163 171 147 155 168 157 155 113 89 83 92 110 102 114 124 123 117 121 131 135 124 129 145 146 146 161 162 168 171 176 184 179 177 178 171 168 166 157 159 158 155 158 158 156 155 154 151 149 145 141 142 145 150 148 147 148 152 150 150 150 154 149 144 144 142 125 131 126 115 112 99 100 100 90 82 84 98 120 132 143 157 155 158 146 116 134 128 144 138 177 204 210 159 170 158 157 170 170 155 110 103 89 102 112 108 124 118 122 122 132 135 133 128 142 153 143 150 165 168 169 175 175 179 175 172 174 166 165 167 156 160 160 155 159 157 160 158 156 157 156 152 150 154 156 157 161 158 156 159 161 156 163 162 161 159 154 149 146 140 140 134 131 116 112 115 103 91 84 98 115 131 140 157 153 151 140 126 132 139 140 154 168 206 220 173 160 158 163 173 173 143 121 112 101 111 114 116 131 114 132 132 134 134 142 149 159 153 154 162 175 176 169 178 175 174 172 162 164 160 164 162 157 157 158 158 164 156 159 159 158 156 159 153 157 159 161 162 167 165 166 165 166 167 171 168 169 165 164 162 159 150 150 148 147 135 132 133 116 107 100 110 116 131 146 155 159 135 128 123 133 146 146 157 165 202 220 180 159 166 168 174 170 148 133 119 116 128 127 124 120 124 134 139 140 146 155 155 166 164 169 172 177 178 173 168 170 168 167 160 162 160 160 160 156 153 156 160 165 153 158 157 157 155 157 155 160 166 164 166 167 171 169 166 166 169 170 174 172 177 175 172 168 166 157 161 163 153 149 152 127 116 103 125 122 140 148 157 160 139 119 129 130 146 158 165 169 201 221 171 181 164 182 172 168 153 140 131 120 136 124 126 120 135 145 145 157 166 166 164 170 178 180 175 168 163 168 168 164 158 158 163 164 160 157 151 149 150 147 151 153 146 149 153 151 153 149 154 158 163 168 166 163 166 166 167 170 172 174 178 183 181 184 182 180 176 173 171 177 172 161 162 147 124 116 126 130 149 147 160 161 148 131 128 134 145 163 172 170 196 214 177 189 182 181 181 171 158 151 133 132 131 131 138 135 138 152 161 174 179 171 172 179 183 175 165 160 159 166 168 164 165 161 167 163 157 155 147 146 148 149 144 146 143 139 141 140 139 147 153 158 160 160 161 160 157 160 167 164 164 168 171 176 181 191 191 191 188 190 183 190 184 182 175 165 143 131 125 138 142 149 161 157 155 149 132 132 155 151 178 177 190 210 186 196 194 185 179 166 157 159 144 147 133 143 148 147 142 157 177 182 183 177 174 176 176 176 167 164 165 166 168 170 169 166 165 162 160 156 152 150 147 150 145 143 140 133 133 134 134 141 147 149 156 156 162 158 157 159 162 163 165 166 170 171 176 186 186 188 198 196 201 204 192 192 190 173 158 141 134 138 142 144 156 155 157 161 125 135 151 157 176 187 196 200 194 204 197 178 172 171 164 158 155 151 143 136 151 144 153 169 187 190 182 179 175 169 178 172 166 164 167 168 166 166 165 164 163 159 155 157 157 150 149 149 145 146 140 136 135 132 133 137 141 146 152 154 156 152 159 160 158 160 161 161 161 163 171 175 177 181 192 200 212 212 206 193 193 182 167 144 140 145 148 154 150 160 160 157 146 132 153 160 163 181 189 186 203 209 195 178 165 171 170 156 162 140 136 131 147 146 169 183 190 190 189 182 178 169 168 164 164 163 162 162 156 155 151 154 149 148 145 146 145 147 146 151 149 147 150 143 140 143 140 140 144 145 148 155 157 155 161 163 158 159 156 155 154 156 167 167 171 180 181 194 204 220 216 207 199 188 174 150 136 136 150 153 154 165 155 142 156 137 149 155 157 178 172 175 209 208 195 175 169 173 166 166 148 126 131 137 150 158 183 194 196 197 192 184 177 167 154 150 151 149 146 142 138 138 135 137 137 136 136 140 138 142 145 148 150 151 157 154 156 154 156 157 156 152 153 149 152 149 151 154 153 152 148 146 147 145 158 159 157 168 171 181 195 206 224 217 210 192 177 165 138 128 143 153 156 168 160 137 149 143 156 152 151 179 174 178 218 203 195 169 167 166 160 160 130 130 135 147 158 172 196 195 204 202 202 181 167 155 145 140 138 135 130 123 123 126 126 128 128 129 131 132 133 132 139 141 146 156 159 165 162 158 159 161 161 156 149 151 147 147 145 143 143 146 137 136 139 144 151 153 156 157 161 172 179 185 201 213 219 206 185 168 156 139 140 154 158 167 154 133 140 154 154 162 156 184 173 176 225 202 196 169 174 159 169 155 142 135 137 152 180 186 195 205 210 209 193 174 163 147 141 136 127 124 120 118 117 113 115 119 122 123 124 124 128 133 136 143 149 157 162 157 163 164 163 162 162 160 149 146 145 137 139 135 135 133 134 136 140 145 145 151 159 160 162 168 170 173 180 189 213 215 198 175 157 150 140 148 166 164 149 122 137 152 154 157 166 180 174 175 220 195 199 181 161 164 179 152 137 129 134 166 197 201 207 214 219 202 183 173 157 139 137 126 121 119 121 122 120 120 118 122 125 127 126 129 131 136 139 142 149 154 158 156 157 158 159 157 157 152 142 135 136 131 133 131 130 128 130 133 139 142 146 147 155 164 163 171 172 178 177 174 187 208 203 183 167 155 144 147 164 165 148 123 129 144 154 159 162 176 170 164 218 178 182 179 162 175 179 150 129 129 140 185 214 212 217 221 219 199 181 166 150 139 135 130 124 125 128 128 130 129 124 126 127 130 131 136 138 139 143 142 146 150 155 151 153 152 152 148 146 140 134 131 127 125 125 126 125 124 129 131 138 140 144 147 147 155 162 167 171 180 178 170 181 192 182 182 167 160 141 148 161 163 142 121 129 134 145 163 173 175 164 146 203 178 171 179 169 175 162 139 132 135 149 196 216 217 226 225 217 193 176 163 141 132 137 130 126 125 126 125 127 125 127 127 126 128 130 132 134 137 140 141 143 143 149 143 145 142 140 145 139 132 132 125 125 123 121 119 123 122 126 126 134 136 135 138 140 143 153 159 161 170 175 174 175 184 182 166 156 158 149 141 153 156 129 121 136 134 136 162 161 182 161 138 170 173 164 174 161 159 147 138 132 135 153 201 223 222 224 223 203 173 160 142 135 130 128 125 124 123 122 122 119 121 120 118 120 122 121 126 125 130 131 134 136 139 139 142 142 139 136 138 137 125 126 120 120 119 123 120 124 125 127 129 130 132 133 129 124 125 127 137 144 148 163 162 162 166 183 173 154 147 158 147 148 136 115 119 125 132 137 154 165 188 159 142 159 163 169 153 142 153 137 135 126 140 154 209 226 216 216 222 193 166 152 143 128 124 120 122 112 110 110 113 114 115 114 111 113 114 107 114 116 113 113 120 123 128 128 133 136 132 129 130 127 117 118 115 112 114 114 118 117 117 118 117 116 118 121 119 112 108 106 114 122 126 137 150 152 154 172 180 172 136 148 151 156 132 102 111 130 131 150 161 176 183 159 139 160 151 152 145 137 147 138 135 119 147 168 203 220 217 218 210 179 161 145 131 118 119 114 105 101 94 97 89 90 94 85 81 89 91 88 95 95 100 100 104 113 108 105 104 111 105 114 114 112 104 107 105 103 104 107 107 103 103 99 97 102 109 106 106 106 105 103 97 103 110 115 124 140 143 147 157 160 134 126 140 149 126 94 104 127 140 151 158 171 169 160 149 147 130 126 130 135 121 143 126 120 155 168 198 215 219 208 192 169 153 129 129 125 124 121 114 101 90 90 83 82 84 85 87 88 93 92 95 101 99 104 106 114 114 106 104 104 99 104 107 108 101 105 106 104 107 106 101 103 103 105 106 106 103 105 100 99 97 105 98 97 104 121 119 122 133 140 154 147 140 113 132 127 110 88 109 125 143 151 154 155 146 159 155 115 115 111 104 114 106 137 137 145 161 176 200 216 233 204 187 158 139 132 123 112 115 109 108 109 105 104 103 100 101 102 100 104 108 112 108 107 106 108 115 125 121 119 115 114 111 119 122 126 122 126 119 114 105 110 107 107 106 106 112 107 108 108 107 104 102 108 107 107 101 113 125 126 145 145 154 156 141 121 124 127 100 81 96 114 146 141 146 135 121 153 161 95 116 120 102 108 114 142 156 152 173 185 198 214 221 194 175 140 133 128 119 111 112 115 115 124 133 132 125 129 128 125 125 117 123 118 120 128 125 117 115 126 130 120 112 109 116 126 132 141 139 139 128 124 118 117 116 114 112 113 121 112 112 113 110 112 115 113 115 119 118 118 133 131 145 144 148 142 144 134 116 112 95 70 101 103 131 125 130 132 114 146 165 98 125 125 122 82 111 135 162 169 196 186 189 202 212 191 163 146 136 126 132 119 118 125 133 145 142 141 134 124 130 132 131 132 146 140 144 148 137 127 128 127 133 120 113 108 120 130 132 145 145 152 150 139 129 127 119 110 115 110 117 110 113 116 112 114 113 96 98 104 110 127 140 129 140 146 144 143 138 142 121 122 94 75 83 99 103 114 117 135 126 138 155 117 137 124 124 95 102 123 170 176 191 188 179 182 197 181 168 144 132 145 146 123 122 137 150 147 140 142 145 140 146 150 155 151 157 153 156 166 147 136 139 147 131 116 116 120 128 134 141 143 152 154 166 160 139 128 123 120 115 114 117 112 116 119 112 110 112 102 95 95 111 118 122 142 130 140 137 141 136 133 124 123 104 92 92 88 96 96 110 138 134 139 147 127 154 119 111 100 109 129 173 171 173 189 177 165 159 163 169 145 139 149 152 156 157 164 159 154 152 152 156 147 151 154 165 164 161 163 167 169 159 155 165 154 146 122 119 118 132 141 146 152 161 163 172 175 153 148 135 124 126 117 125 117 132 132 118 113 118 109 107 103 115 130 107 115 118 124 125 142 148 148 134 124 100 108 112 84 87 101 106 138 146 128 151 132 153 128 116 102 122 142 163 164 153 166 163 140 133 151 165 144 161 159 163 178 182 183 170 158 161 155 155 154 161 157 158 167 154 155 162 161 147 149 150 138 134 112 111 114 128 132 159 156 163 165 175 170 153 163 153 137 143 133 134 128 135 129 116 103 108 107 107 123 116 112 108 104 101 116 113 123 147 154 140 145 101 120 116 83 71 98 107 133 144 139 144 146 142 132 121 137 132 149 161 159 134 149 152 130 137 146 159 134 162 172 176 184 188 187 175 170 182 176 184 181 192 192 180 160 130 150 143 145 140 141 132 129 131 116 111 124 130 129 151 150 151 173 177 168 164 156 148 155 153 154 159 145 147 143 137 137 111 107 128 126 124 104 98 113 113 98 104 102 121 147 135 144 114 138 105 89 76 98 119 126 134 155 142 152 148 132 132 150 148 162 169 146 123 144 145 130 144 146 135 139 144 165 160 168 184 173 153 166 184 181 182 184 187 173 186 163 153 176 168 164 160 152 133 133 126 128 118 128 129 136 153 157 148 176 196 180 194 187 176 182 189 179 178 168 169 162 152 141 131 123 127 126 117 104 98 115 113 106 96 100 100 134 126 140 111 156 100 103 91 104 121 131 135 171 138 141 164 153 146 159 148 148 161 141 122 131 142 141 153 143 135 146 166 152 138 155 169 159 144 140 163 157 170 168 163 154 139 144 162 181 170 160 148 148 131 128 131 135 130 133 139 141 156 160 165 180 204 199 189 193 183 167 179 182 171 172 176 166 162 139 131 119 131 124 116 102 105 114 111 102 91 95 98 115 116 137 126 152 112 117 116 133 151 144 140 165 150 141 161 139 139 159 140 122 118 120 141 137 139 156 166 144 155 158 156 146 131 117 136 150 138 132 158 166 163 161 159 150 145 159 161 164 158 142 145 144 132 143 140 145 142 141 139 144 157 159 160 164 176 193 176 171 176 166 169 185 176 169 174 169 158 139 122 142 138 159 138 120 125 127 118 113 96 100 92 119 124 123 132 149 144 150 144 149 157 146 151 161 151 128 141 121 125 150 138 113 94 113 132 142 133 151 165 151 158 143 163 161 126 135 147 146 129 141 158 144 149 157 149 145 141 153 158 159 152 140 146 133 129 132 140 143 144 144 139 139 158 161 157 152 158 177 174 169 161 158 159 164 169 158 155 161 150 139 149 169 149 152 162 134 136 137 133 132 116 123 110 126 150 130 140 135 166 177 145 137 121 139 140 165 148 124 117 86 111 128 129 93 93 106 111 142 144 136 156 150 139 147 162 158 139 149 156 161 148 141 143 148 156 158 150 156 150 150 153 157 138 132 136 126 129 120 135 127 128 123 137 151 147 160 165 145 157 168 176 183 161 163 163 155 161 148 146 145 155 168 175 177 169 157 159 157 142 154 151 139 128 130 128 135 153 141 153 139 184 195 150 138 118 154 146 157 148 123 91 69 85 118 122 86 100 109 105 126 136 142 149 135 128 136 153 170 148 152 157 162 154 143 131 153 156 156 156 161 154 150 150 151 134 133 126 136 137 118 122 124 130 133 143 164 153 164 170 167 155 170 173 201 183 177 166 153 155 154 138 138 160 180 171 171 164 153 153 163 158 157 155 149 135 124 132 140 139 157 147 151 202 207 167 159 128 180 167 151 143 127 89 71 77 106 130 101 92 105 98 112 140 142 144 127 130 133 145 164 157 159 161 169 160 160 152 142 139 145 153 142 140 142 147 144 128 122 110 130 138 128 117 128 147 142 154 170 169 170 178 176 157 182 178 210 194 187 178 164 158 157 148 145 163 170 165 160 159 154 157 158 156 153 154 150 137 125 129 139 143 157 136 162 202 223 185 168 134 171 172 158 149 132 90 82 82 100 144 122 95 103 87 104 139 147 134 124 118 119 115 138 143 148 155 153 147 138 131 128 122 129 135 130 141 151 164 157 131 111 127 129 138 125 127 136 145 145 162 171 176 165 175 161 155 192 192 202 204 190 201 181 160 170 160 170 170 178 165 157 157 164 159 161 159 158 158 152 143 126 126 131 158 151 134 180 207 229 197 167 150 183 177 167 163 124 97 109 75 105 142 131 90 110 87 78 122 135 128 119 118 118 103 107 122 123 137 141 128 109 104 104 110 119 108 109 121 154 151 139 126 126 130 130 132 135 127 150 132 155 170 167 165 167 172 158 159 184 189 188 205 186 191 194 170 168 174 173 169 171 165 155 150 153 164 167 153 159 157 152 140 128 135 137 156 146 145 185 219 218 207 168 161 168 171 181 163 119 106 118 68 108 134 138 90 115 99 71 105 125 126 122 117 120 110 89 107 109 106 117 113 105 104 101 107 107 111 113 119 137 138 136 130 135 140 136 142 123 135 137 123 139 151 156 148 154 165 148 160 148 168 184 183 182 176 181 176 156 163 157 156 149 154 151 150 149 155 156 157 167 158 160 142 133 131 136 152 145 137 174 209 214 213 176 163 152 169 182 158 123 120 122 71 117 131 158 112 131 111 78 108 119 122 118 116 113 122 98 112 107 103 102 104 98 101 111 112 111 111 109 109 125 128 135 136 123 130 140 128 122 126 124 124 125 139 141 136 131 151 144 153 143 136 158 160 154 157 169 175 162 154 157 155 147 147 139 144 149 155 153 162 161 148 147 128 136 133 135 152 153 151 180 194 219 196 169 160 140 174 173 155 118 133 133 71 87 137 166 136 132 120 97 118 117 120 114 124 112 122 125 111 110 104 91 95 99 100 100 101 93 96 100 115 117 112 124 126 113 120 123 104 104 100 100 98 112 128 147 145 144 147 141 140 135 124 134 143 148 152 147 160 160 160 151 144 146 150 147 150 151 155 157 160 154 149 144 131 133 136 138 154 155 161 191 184 191 196 165 141 147 173 168 145 106 140 129 74 70 122 158 152 120 116 99 108 119 121 123 126 118 116 123 109 107 101 86 77 80 91 91 87 83 88 91 95 101 101 109 110 109 117 114 108 104 97 83 76 92 119 135 150 147 146 137 138 134 131 124 129 152 157 143 150 148 153 154 141 146 153 155 155 152 153 161 158 150 149 131 126 132 138 149 144 173 177 188 179 183 197 159 135 155 166 160 141 104 133 116 57 67 113 157 154 131 118 95 94 105 124 128 131 137 118 130 127 110 102 89 73 72 82 86 87 89 93 90 97 104 96 101 108 122 123 117 111 93 83 90 87 90 111 134 132 143 143 134 137 133 135 128 123 139 143 140 131 142 145 151 145 147 149 156 155 160 164 162 152 157 146 128 130 136 144 151 143 183 178 178 191 186 190 161 149 146 158 151 145 108 131 116 51 88 122 143 152 130 118 93 98 108 120 128 126 130 119 114 123 121 104 95 94 91 89 78 73 79 81 84 94 107 104 100 108 120 122 110 96 91 90 99 100 104 116 130 141 129 132 130 130 125 131 123 125 130 137 128 133 128 138 154 151 145 150 147 151 164 171 164 163 158 149 135 130 143 149 143 156 173 170 178 192 193 193 156 158 143 146 144 139 125 120 133 73 111 137 152 166 118 123 93 95 118 131 137 140 133 125 119 119 121 111 101 103 101 98 90 91 94 88 91 99 100 101 104 119 117 105 101 101 95 97 99 105 104 124 134 142 137 131 130 133 135 117 111 121 135 144 132 137 141 145 152 160 148 152 152 147 152 159 164 160 153 152 130 131 133 137 138 162 162 174 182 185 187 176 154 147 148 146 132 128 151 130 136 85 125 138 146 166 110 116 95 92 114 141 143 144 143 130 128 125 121 115 107 115 103 98 90 84 93 96 103 101 96 103 108 101 95 95 114 115 110 107 104 91 96 115 140 143 145 137 141 152 136 115 103 98 114 131 117 116 116 137 138 141 147 161 153 155 145 141 138 147 142 139 125 126 137 139 144 149 162 172 176 173 180 164 149 133 143 136 117 126 169 136 160 100 117 134 134 155 117 113 105 94 114 140 146 149 151 144 145 136 134 131 122 115 114 101 93 86 94 95 91 87 84 80 85 88 94 112 123 114 103 102 102 105 111 115 129 139 151 147 152 155 148 138 130 127 130 128 116 103 109 124 135 135 141 151 154 156 156 155 147 148 144 143 128 133 141 130 131 146 153 173 176 167 180 161 139 124 141 133 116 121 155 147 176 148 123 128 129 132 109 115 117 103 114 138 148 147 155 149 157 149 147 141 134 119 119 117 103 98 104 99 91 84 82 75 73 83 101 120 123 119 110 109 114 112 116 125 123 129 141 154 155 154 159 166 153 146 142 138 125 106 115 120 133 130 139 155 151 150 150 151 149 147 146 137 132 135 148 141 131 147 161 163 185 159 179 161 129 122 143 120 119 122 153 145 180 187 134 130 122 106 99 93 110 110 115 142 153 147 167 159 163 161 156 149 137 128 123 124 110 118 118 108 96 96 94 87 84 94 121 132 117 119 116 113 112 111 113 124 129 123 130 136 146 146 160 178 169 160 153 141 128 116 120 125 132 131 139 152 163 159 165 164 165 160 157 152 145 145 146 139 146 156 172 172 179 147 164 154 114 132 138 116 125 116 158 156 165 194 150 137 134 111 107 87 107 111 118 144 156 149 162 160 161 162 159 149 138 143 135 120 124 133 130 128 121 114 116 114 121 119 134 135 120 120 120 116 118 111 110 110 122 128 131 136 136 145 147 167 171 151 141 135 130 123 121 133 136 140 140 156 174 169 174 179 174 169 167 158 153 154 146 149 153 165 162 178 165 137 157 148 105 133 135 109 122 110 150 160 146 186 160 138 139 119 125 100 100 107 126 146 151 147 156 153 155 155 160 152 147 143 143 132 138 144 147 150 142 132 128 132 133 134 128 127 118 120 125 124 117 116 110 109 116 124 134 136 135 149 148 156 165 159 143 130 124 129 124 130 145 140 154 162 182 184 182 185 183 176 169 160 158 156 152 159 159 161 164 167 153 146 149 136 109 134 122 110 120 109 147 157 145 187 179 149 143 118 130 111 111 102 127 144 148 143 154 152 150 147 150 150 148 144 141 140 152 154 160 164 160 158 145 142 143 136 127 124 121 131 132 135 135 125 119 111 122 136 138 144 149 160 161 154 156 150 139 130 128 128 125 134 140 146 163 180 187 194 190 188 184 177 164 160 160 158 156 167 158 161 149 149 138 150 141 130 112 123 109 114 109 106 146 154 148 176 194 167 150 112 127 111 113 96 114 133 138 145 149 152 150 145 139 149 143 139 137 148 158 157 172 182 171 166 157 142 147 140 134 125 127 142 144 144 146 144 141 131 132 145 151 152 158 170 178 163 160 151 138 132 125 124 128 136 139 149 167 180 193 198 193 189 186 177 162 156 156 152 154 165 157 165 142 145 135 148 128 120 108 110 102 111 109 107 145 146 143 168 179 185 164 129 129 112 106 99 94 121 128 145 140 144 146 141 139 142 142 140 145 154 165 167 176 177 176 159 150 148 150 146 140 130 128 147 149 147 147 150 152 146 147 149 155 156 159 177 182 179 168 164 140 134 135 125 133 141 148 157 171 179 198 194 185 190 185 165 155 151 150 150 153 152 142 152 138 136 129 127 111 111 104 98 108 105 106 106 142 139 140 149 175 171 176 145 133 128 100 99 92 108 119 131 142 145 144 139 140 146 151 147 156 167 185 175 182 184 184 155 151 156 152 155 144 134 133 148 152 147 146 151 149 137 143 150 150 151 155 177 169 169 170 160 146 142 136 127 134 144 144 152 160 174 188 192 179 179 177 157 142 146 145 143 143 135 121 128 122 121 110 111 101 101 99 102 114 104 101 102 144 138 135 134 174 142 169 158 139 132 89 89 90 106 118 128 146 146 137 135 144 151 161 158 164 177 182 193 196 186 179 167 163 167 162 155 150 135 142 143 150 144 138 138 134 141 149 150 148 153 156 168 160 157 163 155 152 147 137 129 139 136 141 144 151 165 178 193 175 174 167 142 132 137 141 131 131 115 112 110 107 118 122 101 98 106 100 112 110 103 99 101 153 143 134 121 148 143 139 155 139 132 98 82 87 98 105 123 141 147 133 138 147 155 162 166 162 169 181 191 185 183 172 175 179 183 166 156 159 146 157 163 157 165 157 155 149 157 160 151 150 159 165 177 165 162 160 151 151 142 138 129 136 132 132 144 154 157 174 190 173 163 148 133 125 134 137 127 133 110 115 109 101 130 121 95 94 113 101 112 107 102 99 105 153 146 140 125 132 146 133 138 148 129 103 86 87 91 105 112 137 149 137 148 156 151 155 148 156 160 180 176 171 183 163 168 173 180 167 161 168 162 172 177 172 178 173 177 175 179 185 181 173 177 185 192 188 176 167 162 153 135 132 135 133 136 138 144 150 151 169 180 175 160 140 124 122 131 127 122 131 108 112 106 106 128 109 91 94 109 102 115 109 106 102 110 148 144 138 130 124 136 138 137 148 148 115 97 88 96 102 112 135 146 140 145 147 145 142 139 144 157 159 159 158 154 154 153 159 160 155 164 168 165 159 159 168 175 172 168 176 183 194 188 195 185 180 182 189 179 171 160 154 143 144 142 142 143 141 144 151 156 156 171 165 151 130 118 120 129 121 116 123 106 114 101 119 128 98 83 105 106 107 114 108 106 108 110 152 140 138 130 125 131 130 146 134 138 129 112 97 93 98 108 132 150 144 140 143 142 134 132 134 139 135 138 137 131 133 138 147 148 146 148 149 150 143 137 137 147 140 146 154 157 173 173 171 168 166 163 172 169 163 166 158 153 152 148 155 147 144 142 148 147 150 160 149 139 120 123 118 125 115 116 119 111 118 100 125 127 86 89 111 99 107 113 110 110 114 114 152 145 140 130 122 138 127 130 129 126 125 122 105 100 100 107 119 144 138 140 137 137 126 124 122 134 121 121 118 114 120 129 136 139 128 135 141 141 133 130 125 126 123 127 130 129 144 149 155 163 165 167 175 170 170 171 166 156 156 154 151 151 155 149 140 139 148 150 140 121 116 116 123 118 110 119 117 123 121 110 136 128 89 101 106 99 111 114 114 115 119 117 152 152 143 133 127 134 133 130 123 124 125 121 113 107 104 111 116 135 138 137 132 125 119 112 104 109 106 104 113 113 121 128 127 131 129 126 133 133 127 130 121 123 131 128 123 128 141 149 161 160 165 175 185 183 182 185 180 161 155 158 143 150 159 145 145 132 145 147 130 113 114 115 117 114 103 124 124 127 121 124 144 131 96 108 101 115 109 115 116 117 113 117 157 153 144 136 128 136 134 137 129 126 131 128 111 112 103 108 113 127 135 131 126 118 125 109 101 101 103 101 106 111 114 124 129 132 130 129 137 139 145 153 142 142 149 149 141 155 171 171 179 174 186 202 201 196 191 186 181 158 151 157 142 145 155 147 151 137 148 146 134 117 114 116 117 115 110 125 136 141 128 137 152 125 102 103 108 112 109 114 116 122 114 115 154 148 143 142 132 125 135 141 135 136 138 130 118 116 104 111 114 124 127 125 118 119 124 115 102 108 102 103 111 112 118 119 132 134 137 130 129 144 163 179 180 174 175 178 170 178 196 189 200 197 200 213 200 193 179 169 156 144 147 149 129 137 145 143 144 137 145 152 139 122 113 119 120 119 113 131 151 147 143 154 163 120 94 94 115 118 112 105 117 123 118 110 148 143 145 143 132 115 141 144 142 133 146 131 120 123 115 113 116 123 134 123 122 123 124 123 114 116 108 116 118 132 138 142 145 155 152 146 148 168 162 172 174 169 174 179 173 172 193 192 194 193 192 195 184 161 148 132 118 114 124 119 112 126 134 135 133 138 145 148 140 123 116 117 120 121 119 143 150 154 155 159 153 109 90 95 115 115 113 107 114 122 123 113 146 142 142 143 122 109 153 141 145 143 141 134 115 133 123 122 123 127 124 131 131 127 128 129 124 120 113 127 126 133 148 155 152 152 154 144 159 167 163 172 171 162 173 174 163 159 168 165 175 175 170 165 156 143 135 125 112 115 117 111 104 116 126 132 126 129 134 132 130 122 117 111 118 119 131 152 154 159 155 155 148 98 91 106 111 112 111 106 110 121 122 121 147 143 143 135 117 115 162 135 141 143 135 137 117 131 127 121 127 120 116 132 140 133 128 129 124 126 117 128 127 123 133 139 139 151 148 129 135 148 137 154 159 158 163 163 162 161 164 160 167 166 169 170 157 144 135 119 108 107 108 98 94 93 113 126 126 128 131 134 133 128 116 111 120 121 132 157 162 161 152 158 146 114 104 105 106 109 114 106 108 121 124 123 148 144 138 134 111 132 163 130 139 141 134 141 115 130 131 124 129 124 107 128 138 142 131 131 129 131 119 132 130 133 140 156 152 157 149 133 116 125 109 127 127 146 157 162 159 162 156 164 167 169 164 156 142 130 119 114 100 103 101 92 90 93 113 131 134 131 129 139 135 121 109 111 122 121 143 165 168 157 143 167 130 110 100 107 105 110 110 112 107 119 125 130 143 135 137 120 119 149 159 138 142 141 132 135 111 123 137 133 128 129 116 126 128 141 136 129 127 131 127 134 135 142 152 168 160 156 155 138 129 129 119 126 125 129 137 133 141 142 156 150 146 151 147 147 139 127 121 118 103 100 96 99 96 111 118 127 124 134 138 138 135 117 109 120 130 127 151 168 164 145 153 158 123 107 102 109 107 112 113 110 107 111 124 129 133 132 138 118 137 167 156 142 139 139 133 128 115 111 128 138 131 129 127 127 120 127 131 126 124 129 132 133 139 147 156 153 156 156 156 142 134 137 136 133 127 123 120 129 141 137 146 133 135 142 143 141 144 139 145 130 119 109 109 107 109 117 120 128 130 131 136 138 133 119 113 125 130 133 154 172 158 144 164 147 118 106 100 102 104 110 114 118 103 110 116 124 135 138 131 133 160 168 152 141 130 136 134 122 102 104 120 142 132 136 135 117 117 125 134 132 133 137 133 142 142 144 152 149 145 148 140 126 132 131 135 132 122 129 130 140 140 135 133 128 137 133 135 146 144 152 145 137 132 127 119 117 124 123 130 139 134 135 140 137 126 120 124 123 137 136 160 166 150 156 158 130 121 100 103 97 101 110 111 111 109 105 111 119 144 139 136 138 164 163 141 136 130 139 130 113 101 101 126 153 146 137 135 124 113 126 135 140 140 142 140 155 157 158 158 156 153 148 133 128 134 129 128 127 127 131 130 137 137 142 136 140 142 140 138 143 138 141 137 129 135 134 129 128 131 128 136 145 143 135 144 137 125 128 129 128 147 148 152 141 145 165 146 122 117 105 97 94 103 106 105 112 112 106 105 113 158 154 147 143 168 153 144 145 143 147 130 114 109 101 104 160 159 139 135 129 114 124 133 137 150 145 151 158 162 161 165 159 161 153 152 151 142 137 135 134 132 136 130 132 138 140 143 145 145 142 139 137 124 130 124 124 126 133 136 131 138 135 135 146 139 140 143 133 131 135 131 138 148 157 155 139 144 164 135 122 115 108 99 102 94 98 99 110 110 110 107 107 165 161 150 143 154 164 160 159 148 147 132 109 94 92 100 172 171 139 141 133 121 119 132 133 141 146 152 165 167 165 173 162 157 167 178 159 150 138 138 135 138 142 148 140 139 143 144 142 141 140 136 131 119 116 120 115 123 122 125 126 136 137 139 142 140 141 138 135 138 137 135 150 150 169 161 152 170 163 133 122 116 107 103 110 99 100 102 112 106 109 111 108 175 173 163 141 162 182 181 159 146 139 123 86 84 83 122 163 172 148 142 136 124 113 128 132 139 150 145 155 165 164 166 165 162 167 180 160 142 140 128 124 124 132 137 139 136 140 143 143 141 145 140 129 121 113 115 114 120 122 128 130 136 138 147 148 141 143 138 137 144 144 145 157 149 180 157 168 184 157 143 144 129 126 121 123 120 117 114 122 115 119 116 113 190 173 169 145 171 188 187 155 139 122 120 93 86 100 141 166 167 157 143 139 131 101 116 127 141 138 143 136 154 163 168 170 158 165 165 161 148 142 128 124 121 121 125 129 122 124 128 131 133 134 131 126 120 118 117 117 119 121 130 132 138 142 143 149 135 145 135 144 144 148 146 141 154 171 168 185 189 161 152 143 147 131 135 139 135 137 128 133 122 131 130 134 198 194 187 167 190 205 192 153 133 128 128 107 108 118 142 160 166 154 156 137 143 107 106 121 132 135 132 132 143 155 161 153 157 169 173 167 167 162 153 144 138 133 132 132 135 135 139 147 143 141 136 132 131 128 130 132 131 125 129 144 146 148 143 149 135 145 144 139 146 143 148 135 135 163 161 183 178 185 151 147 154 149 141 145 145 148 144 136 126 125 132 136 205 195 195 171 193 207 168 160 133 128 122 133 136 123 136 151 166 151 155 150 140 117 104 116 122 125 119 128 133 145 147 148 151 154 167 161 162 150 154 151 148 149 159 155 157 159 160 159 158 154 151 148 142 132 139 136 136 132 140 148 150 148 148 149 140 143 143 139 136 139 144 133 130 149 147 166 175 186 167 152 153 157 160 149 149 155 156 147 140 131 129 132 212 194 192 167 188 166 160 156 126 107 148 159 162 132 134 152 156 162 156 157 137 123 116 114 123 121 123 123 128 137 136 142 141 137 139 144 141 137 140 137 136 140 153 157 166 166 165 166 170 169 165 157 151 147 150 148 139 141 152 161 159 158 152 152 153 144 143 134 136 125 144 131 135 141 136 141 179 176 174 164 162 151 170 152 152 162 163 154 150 145 136 137 206 193 183 171 155 148 141 141 116 102 159 196 182 139 136 144 149 167 164 156 139 121 126 124 126 121 126 121 130 131 131 135 131 125 119 126 127 129 134 128 134 129 142 152 159 164 164 163 162 164 154 151 148 151 155 151 146 151 161 162 167 162 159 150 155 142 136 132 126 130 145 121 134 136 142 135 169 184 166 173 168 159 158 157 155 156 166 166 162 153 144 144 207 191 188 158 123 124 114 129 101 118 180 212 182 158 149 151 149 164 165 160 141 127 134 138 128 127 118 127 122 128 129 128 123 117 114 121 129 127 132 132 137 133 144 156 161 164 163 156 156 152 147 145 141 153 152 153 159 161 168 166 172 161 160 151 146 137 130 124 129 121 135 121 136 120 151 132 151 182 173 179 163 161 153 164 161 164 170 170 173 173 158 153 211 197 173 126 105 114 94 113 97 122 184 195 181 189 181 150 171 172 174 153 144 137 141 139 137 128 123 119 118 128 128 124 118 121 121 118 134 132 137 145 145 152 155 160 164 160 158 152 155 154 150 148 150 151 160 161 162 165 166 167 173 159 158 152 139 130 121 122 138 115 116 120 132 135 147 140 132 175 170 182 168 157 159 160 172 171 172 179 178 180 172 167 202 184 149 105 95 93 85 88 86 121 181 190 190 223 210 167 196 182 170 157 149 143 153 150 139 139 130 118 119 119 124 121 118 117 118 115 124 131 137 138 140 148 151 161 163 159 158 153 147 151 151 153 155 154 161 166 164 168 164 164 162 156 150 140 131 119 117 130 127 112 104 112 140 152 143 143 119 155 167 189 173 148 157 164 178 178 171 181 184 187 177 176 164 168 129 92 76 67 67 65 80 115 184 190 220 220 225 198 217 192 167 161 161 148 154 155 146 147 134 127 115 112 113 108 117 113 114 108 116 129 127 132 136 140 153 154 158 159 156 150 145 148 147 151 156 160 163 163 166 160 156 152 148 144 139 126 113 116 120 124 108 107 109 94 148 164 149 133 105 131 161 183 181 151 159 164 172 184 180 187 194 191 191 188 135 141 113 79 36 46 43 48 70 121 199 211 219 219 240 221 241 218 184 177 166 155 150 155 152 153 140 130 127 113 104 100 97 101 105 106 107 116 121 124 137 134 139 141 138 144 143 142 141 143 139 151 159 160 162 153 152 143 143 146 135 134 124 117 114 115 110 121 106 105 115 87 151 166 151 124 114 106 155 177 176 168 151 157 172 174 189 189 200 199 202 198 103 106 77 60 4 24 29 37 93 137 215 195 218 232 240 246 246 229 215 198 179 165 150 151 149 149 144 135 131 122 108 94 87 88 94 97 100 105 109 114 121 123 123 125 127 131 133 132 130 137 139 143 145 150 147 143 134 134 128 128 131 117 115 109 109 115 111 113 102 114 114 120 149 163 151 110 109 106 132 169 173 173 154 147 164 179 186 200 204 204 202 214 78 69 62 44 0 18 38 41 93 161 197 196 211 245 246 240 240 233 223 222 196 171 147 153 149 146 146 137 134 129 117 100 93 88 89 89 90 90 93 100 101 104 108 111 113 111 116 120 119 126 124 127 127 131 126 121 121 121 123 117 119 112 109 104 116 113 115 103 93 108 118 138 166 143 154 120 111 85 96 138 166 165 157 144 155 179 170 194 208 206 201 205 55 57 60 38 2 30 49 54 102 150 176 213 199 246 255 219 228 235 223 227 217 193 154 152 150 150 145 138 126 127 121 108 104 96 88 86 87 84 86 84 91 92 96 96 104 98 110 112 114 113 110 111 114 111 103 104 106 117 118 113 111 106 103 112 121 123 116 100 102 105 138 146 166 124 148 124 115 101 55 85 146 144 150 137 137 160 168 180 203 213 212 215 40 64 59 48 26 43 62 93 113 116 165 231 206 247 239 202 210 232 224 226 221 215 174 163 153 150 152 141 131 122 119 114 105 101 99 91 86 84 81 76 78 83 84 89 93 96 97 101 101 98 95 92 100 94 94 100 106 115 108 106 102 102 110 123 126 122 104 109 111 103 156 157 156 123 133 130 115 110 74 45 93 124 130 123 129 144 174 178 198 202 206 210 53 84 71 68 38 50 104 109 113 109 156 227 234 225 212 187 197 217 210 223 222 212 198 186 162 167 158 155 142 125 115 113 112 97 92 93 90 85 82 74 75 76 77 78 80 80 81 85 85 82 83 89 88 90 97 106 107 108 107 103 104 115 120 124 121 114 101 112 113 105 160 159 155 111 133 141 128 107 84 55 56 74 86 118 122 134 166 185 194 204 202 202 68 101 92 88 72 73 105 117 139 128 148 213 234 212 199 184 177 197 198 207 232 207 208 199 188 179 167 166 163 145 128 119 115 113 98 92 87 81 76 72 64 67 58 66 72 75 75 79 79 83 83 85 90 96 103 104 101 107 102 108 117 120 121 127 119 106 104 118 113 122 140 157 163 116 129 136 145 112 92 69 48 48 32 72 119 133 152 175 188 205 202 211 