P2
92
112
255
147 144 147 146 147 143 146 144 143 142 140 141 135 123 124 124 113 112 115 128 129 121 127 125 121 129 132 117 115 108 110 112 111 123 116 119 120 137 133 132 135 136 137 132 129 146 140 142 141 127 123 123 135 137 144 154 161 163 167 160 165 171 162 154 170 155 154 155 148 139 130 123 126 133 140 142 140 138 139 140 142 141 140 135 134 136 136 137 139 137 139 141 147 147 147 148 146 145 145 145 140 141 139 132 129 121 119 121 119 115 124 140 141 138 136 139 124 120 119 111 106 103 101 109 106 114 120 120 119 138 138 142 143 138 135 130 133 138 151 154 150 142 125 126 123 136 141 140 146 152 157 161 162 164 165 158 162 169 165 173 162 158 138 127 126 129 139 139 144 141 145 140 144 142 146 142 139 136 134 136 141 138 139 140 148 144 147 148 144 146 145 145 139 138 132 122 125 122 122 120 119 115 128 144 144 150 150 133 125 117 110 101 90 88 87 95 93 105 114 123 113 122 136 139 137 142 139 142 149 157 162 164 156 161 148 138 136 142 145 142 140 144 140 148 159 153 164 154 158 163 167 173 181 177 166 138 138 136 137 136 143 146 152 149 145 144 151 148 141 140 137 138 137 139 138 141 147 148 147 151 148 146 147 142 140 134 127 124 122 122 121 121 118 128 139 150 151 143 137 132 118 101 88 82 83 86 87 88 97 103 102 111 109 121 127 128 139 142 147 152 162 159 165 162 166 172 165 158 167 161 158 150 153 152 153 150 153 152 150 155 156 149 164 168 175 182 178 163 149 138 139 144 135 154 154 154 151 148 153 148 144 142 142 139 141 138 139 139 148 146 151 153 149 148 145 139 136 131 126 124 121 119 119 119 131 142 150 146 146 141 134 120 106 83 81 72 71 75 77 83 101 98 111 112 117 121 129 123 139 147 147 163 167 167 165 164 171 175 179 176 184 181 177 176 168 171 168 168 169 164 154 155 147 144 155 158 170 177 173 178 170 151 148 153 147 149 161 160 153 155 152 153 149 149 147 145 136 138 139 141 146 148 149 149 147 143 140 134 136 128 126 132 127 131 129 132 141 147 154 157 143 136 119 110 101 95 82 75 81 91 93 99 105 109 117 124 125 129 129 135 146 153 153 156 174 181 175 166 168 178 181 184 186 183 187 183 181 183 187 184 180 176 161 161 153 148 151 150 151 171 172 174 173 163 153 162 163 150 154 167 162 154 160 157 154 151 151 145 140 137 140 140 150 150 149 145 141 140 132 132 132 130 129 132 136 132 144 152 157 155 144 145 129 123 103 104 98 91 91 96 95 105 106 109 114 118 126 125 133 145 139 139 147 152 156 151 164 183 183 181 177 181 178 183 184 188 187 186 180 184 185 183 178 176 174 167 159 154 157 148 150 166 158 161 159 154 142 156 159 152 149 158 169 158 166 160 158 152 150 150 144 141 139 140 147 152 145 143 135 136 135 129 130 125 125 129 138 147 160 163 163 153 135 127 113 101 96 102 91 96 99 105 112 106 109 114 122 126 134 129 136 138 142 136 143 141 139 146 157 169 173 173 182 188 187 188 189 194 199 198 192 194 195 183 181 178 173 172 166 169 163 154 159 160 163 159 160 151 140 140 154 148 154 163 162 166 171 163 158 156 153 150 148 144 136 141 155 146 144 139 136 133 126 128 125 120 125 136 151 161 164 168 153 140 123 106 98 93 89 101 108 103 103 105 109 111 109 124 125 128 130 131 133 140 129 127 132 136 146 140 152 164 162 164 176 187 186 189 197 199 200 204 202 198 194 190 180 168 172 169 161 168 164 166 166 162 155 152 154 162 148 136 142 148 148 159 156 149 168 167 160 154 158 150 152 149 144 141 152 146 142 132 132 132 125 124 122 121 137 156 172 177 173 168 148 130 113 108 95 94 96 106 107 102 106 104 112 113 108 123 124 119 123 128 132 137 133 130 136 138 146 148 145 161 159 159 163 172 176 181 188 189 188 189 191 187 183 180 176 164 153 156 153 151 157 158 158 175 167 150 147 153 150 139 129 138 143 153 146 148 151 160 167 159 160 158 156 148 149 143 152 141 134 135 128 127 128 129 123 133 154 161 175 179 173 155 147 118 110 109 99 109 116 114 107 111 115 118 118 117 117 119 119 121 121 123 125 119 127 130 140 145 145 141 134 141 143 149 156 158 167 171 177 181 180 181 186 180 176 173 171 164 147 139 142 136 149 150 150 162 168 172 159 146 146 142 137 138 131 139 139 139 143 159 169 170 164 167 152 152 146 147 148 136 132 130 127 127 128 126 129 143 152 166 183 170 160 142 127 108 112 106 104 116 122 113 117 112 113 121 120 124 122 122 126 125 120 118 119 112 119 115 122 130 138 135 132 137 137 138 147 144 146 151 162 167 170 175 178 176 175 170 166 159 144 138 136 128 135 140 148 155 154 173 175 162 150 147 145 139 129 136 132 134 137 145 155 166 173 168 160 155 152 151 137 126 129 129 129 124 128 131 145 148 160 169 162 158 142 125 112 109 106 114 112 129 123 124 123 119 121 124 122 128 130 124 127 125 126 121 120 109 115 105 109 117 121 126 121 121 120 125 129 129 133 135 143 151 156 159 163 164 167 161 153 149 137 139 137 128 126 125 131 141 142 148 162 162 163 153 149 147 124 118 126 123 130 141 141 154 165 171 161 156 149 146 134 130 129 129 129 131 132 136 153 153 160 156 143 137 117 103 107 101 108 114 132 137 128 119 125 129 127 136 129 129 133 127 127 121 119 119 116 114 115 116 112 113 110 109 112 107 106 109 110 114 119 126 129 136 142 148 149 151 154 150 144 137 129 130 133 128 118 111 120 131 139 129 131 145 164 165 149 147 134 116 111 112 124 126 144 144 153 162 165 158 153 141 132 132 132 134 124 125 130 141 162 144 153 143 125 113 94 98 104 107 120 126 145 139 124 117 128 130 137 142 137 135 134 131 127 122 122 117 110 111 109 108 107 109 109 112 115 117 114 108 106 105 115 117 116 123 125 127 128 134 134 130 129 123 118 116 119 124 122 112 111 123 124 121 126 137 142 159 158 147 132 129 109 110 112 122 128 142 146 161 158 164 157 144 130 131 136 134 123 120 137 158 154 147 150 125 111 95 91 96 101 121 130 151 150 138 130 123 133 138 137 143 140 141 135 131 129 124 123 120 114 114 118 112 115 121 117 121 117 126 117 114 112 111 114 115 116 117 115 121 119 123 123 118 120 117 115 110 113 114 119 116 106 120 126 115 121 133 136 147 159 152 141 130 115 115 113 108 128 131 136 158 163 165 164 155 129 129 133 138 127 123 136 152 144 139 130 114 97 88 97 98 118 133 142 147 139 127 133 130 134 140 139 140 139 138 135 129 133 130 125 125 125 130 128 129 128 127 126 127 123 124 119 122 119 120 121 118 126 126 128 127 128 126 122 115 114 108 103 100 107 101 105 109 102 103 118 125 115 130 142 145 147 155 145 130 128 109 109 105 121 137 131 148 162 169 166 166 125 132 134 135 124 123 128 136 143 132 116 92 77 89 94 110 130 134 135 144 134 127 137 140 141 133 133 136 136 134 135 131 134 134 134 143 146 146 138 140 142 135 131 131 130 132 127 128 132 130 130 127 125 131 133 133 136 130 126 119 112 106 96 102 87 91 92 89 88 90 102 107 115 125 131 142 145 153 158 141 128 118 109 104 113 137 135 145 163 165 177 167 131 141 140 135 118 115 127 134 136 115 92 69 74 91 98 117 135 131 133 134 130 137 143 145 145 136 127 130 136 136 143 146 142 140 144 151 155 151 149 152 154 149 140 140 139 142 137 137 139 136 129 130 125 125 122 121 126 126 122 119 111 103 94 97 82 87 87 86 83 78 92 97 105 118 126 127 139 144 161 155 134 129 113 107 108 115 137 143 163 172 173 177 133 136 133 122 120 121 128 139 123 97 90 76 78 98 102 120 125 122 127 124 128 141 138 141 146 138 128 121 138 146 154 149 145 151 155 161 156 156 160 159 161 154 146 147 145 147 146 137 139 136 130 130 131 127 124 119 122 120 120 112 107 102 96 93 81 79 83 80 77 75 82 94 95 108 120 124 138 138 153 167 150 135 125 112 104 115 126 142 155 171 177 179 130 131 130 110 112 130 124 130 104 89 69 78 85 102 106 114 118 123 127 127 131 143 142 142 145 138 132 137 150 158 160 161 154 162 168 165 162 164 164 163 164 160 151 152 148 146 144 134 136 130 126 120 125 123 121 120 122 121 124 122 115 110 109 95 86 76 81 79 80 65 82 90 85 91 102 117 128 140 144 163 162 144 125 120 102 115 123 135 155 164 177 182 122 132 127 107 119 133 127 118 101 80 65 84 94 114 107 118 120 131 121 124 133 140 145 141 139 139 141 156 160 163 168 171 176 177 182 175 171 171 169 163 159 155 152 150 148 142 138 133 129 122 123 122 119 121 125 125 127 129 132 129 130 123 121 106 101 91 81 79 86 64 76 90 89 83 88 103 119 131 138 151 161 155 132 115 109 107 116 132 152 164 175 180 135 136 125 113 126 141 119 111 85 73 79 92 105 113 109 125 130 129 124 127 130 138 142 148 148 156 155 161 162 169 177 181 186 187 183 180 166 165 170 162 160 158 152 152 148 142 140 138 129 121 121 123 123 133 133 132 133 137 141 142 141 136 128 127 113 109 100 83 86 81 76 83 93 86 84 97 119 127 134 148 153 155 144 116 101 112 115 117 152 166 181 177 143 145 130 126 136 134 122 110 82 85 94 106 108 108 118 129 128 127 129 134 132 133 148 153 155 165 161 159 170 183 187 191 192 186 183 180 169 159 165 163 159 162 158 153 154 151 145 143 139 131 132 131 138 138 138 141 143 146 148 146 148 143 137 138 124 114 115 107 95 90 88 89 90 88 86 98 110 129 134 150 157 154 143 130 103 112 118 124 136 168 188 185 153 156 128 131 138 135 137 107 89 85 94 109 103 116 128 130 124 131 140 142 131 137 152 153 152 165 166 171 173 179 188 185 183 185 178 175 170 159 162 162 159 162 160 160 157 157 152 151 145 141 142 147 150 151 149 149 155 153 154 154 156 152 146 143 141 123 128 124 113 109 97 98 98 89 86 90 106 125 134 146 157 155 149 135 111 118 118 133 128 160 187 195 151 155 136 129 143 145 141 106 103 91 100 107 105 125 120 128 126 139 140 135 130 145 155 148 151 164 169 171 175 176 182 179 175 178 171 169 169 155 162 163 157 161 158 160 158 158 158 156 150 148 153 157 157 159 157 154 157 159 158 161 160 160 159 153 149 143 135 135 129 128 113 109 109 100 90 89 104 121 132 143 156 152 146 130 118 122 127 127 139 153 184 203 162 145 130 135 141 148 130 117 112 100 102 109 112 133 116 136 136 139 135 139 145 158 152 153 161 174 176 169 177 174 175 173 162 166 161 164 161 156 157 160 160 163 157 160 157 158 156 157 151 155 159 161 161 166 163 164 163 164 164 168 166 166 164 161 158 156 143 140 140 140 131 125 127 113 105 98 109 118 131 145 153 157 134 123 118 124 135 134 139 149 180 202 167 141 136 138 143 148 135 132 119 111 120 123 121 121 125 137 141 140 141 148 148 160 159 164 171 175 175 168 163 164 165 164 158 161 160 159 157 154 153 156 160 164 154 157 156 155 154 158 153 158 164 164 166 165 169 167 165 164 165 166 170 169 173 171 165 160 158 147 150 153 145 142 144 125 114 102 121 120 136 145 153 158 138 119 125 120 136 143 148 151 178 201 156 157 136 152 144 148 144 134 126 115 129 119 120 118 135 145 140 149 158 158 155 162 172 176 171 163 155 161 162 158 154 154 156 159 156 155 148 146 147 145 150 151 147 147 149 149 152 148 153 157 163 166 166 164 165 165 166 168 170 171 175 177 175 178 176 173 165 162 158 165 163 152 153 143 121 117 124 124 144 142 155 159 147 131 128 129 136 146 152 149 172 192 156 165 153 155 158 158 152 144 131 124 123 123 133 131 137 149 153 164 170 164 165 172 177 171 157 153 151 158 161 157 158 156 159 154 150 149 142 142 144 144 141 143 141 138 139 138 139 146 151 159 160 159 162 162 159 160 165 163 163 165 167 170 173 182 183 184 179 177 169 175 172 169 165 160 139 129 126 131 136 148 154 154 155 151 134 137 151 135 157 154 166 185 166 172 168 160 164 160 152 155 140 138 122 135 142 140 141 152 169 173 172 171 168 170 170 167 157 156 156 157 159 160 160 159 158 153 150 147 145 144 142 145 140 139 137 133 129 133 132 140 145 149 155 154 162 159 161 160 161 163 162 163 166 165 169 176 177 181 189 184 184 188 180 180 177 166 155 137 136 135 136 143 152 152 160 163 131 137 152 146 156 161 170 175 173 183 170 160 164 168 164 154 154 146 130 127 142 138 149 161 176 180 170 172 168 163 169 164 156 155 156 157 155 154 153 154 151 147 143 144 145 141 142 143 138 141 136 134 129 129 132 135 139 144 150 151 154 153 159 160 157 157 157 155 155 156 163 166 167 171 183 188 195 196 194 184 183 174 162 143 140 146 143 149 146 156 161 162 151 136 152 153 148 161 162 160 180 186 167 164 162 170 174 155 162 135 126 122 136 138 162 172 179 179 177 173 169 161 160 155 155 153 150 149 142 142 139 142 137 137 133 132 133 136 137 142 140 139 144 139 136 136 137 137 139 140 141 148 150 149 153 156 151 150 146 146 146 147 158 157 159 167 170 182 188 203 202 196 190 181 169 149 139 137 149 149 150 161 155 150 161 147 150 154 146 160 153 152 188 185 170 162 167 177 169 165 146 123 124 128 137 146 172 182 182 183 180 172 163 157 147 140 141 139 134 130 127 127 126 128 128 126 126 128 128 133 135 139 142 144 149 148 150 146 148 148 148 144 144 139 143 139 140 143 143 139 135 136 137 136 149 151 150 157 160 169 181 190 209 204 199 187 172 159 141 132 141 147 151 164 162 145 155 152 158 155 147 159 156 157 193 179 172 160 169 170 161 161 134 131 128 135 142 158 185 183 188 187 189 167 154 147 139 132 129 126 121 115 116 117 116 119 118 119 122 123 122 123 130 133 139 148 152 158 154 152 151 152 153 148 140 140 136 137 134 132 131 133 125 125 130 136 143 146 149 149 154 161 165 174 188 202 205 197 177 164 154 143 140 148 154 163 156 144 150 160 157 162 154 165 151 157 196 178 177 163 177 164 168 162 148 135 128 139 160 171 183 190 192 193 180 162 153 140 137 131 121 119 116 114 113 108 108 114 118 120 121 120 123 126 130 140 146 154 156 152 157 159 156 154 156 153 142 137 136 127 130 123 124 122 120 123 131 138 139 146 153 151 154 159 159 164 169 182 200 201 188 168 155 152 141 146 161 162 155 136 149 157 154 155 165 167 151 155 192 175 187 175 167 166 180 159 143 128 127 150 177 183 191 196 202 187 171 164 151 136 136 124 120 116 119 119 118 116 115 119 121 124 122 126 128 132 134 139 146 151 154 151 153 154 154 151 151 146 136 129 128 123 124 122 120 119 118 123 131 135 141 144 151 157 155 163 163 169 166 167 181 195 190 174 164 154 146 150 163 164 157 136 144 152 155 158 158 168 149 142 191 161 174 179 168 175 183 153 135 130 133 168 190 194 199 203 202 186 171 160 147 138 133 127 122 123 124 126 129 126 120 123 123 125 126 131 134 136 138 138 143 147 151 147 150 150 147 143 141 135 128 125 120 118 119 118 116 115 118 122 130 134 138 144 143 150 157 161 164 174 170 163 174 183 173 174 165 159 143 151 165 167 151 136 144 147 150 162 169 168 147 128 181 166 165 176 173 176 171 140 137 134 140 177 192 199 208 207 203 184 169 158 141 131 136 129 124 124 127 126 126 122 123 123 121 122 126 129 131 133 135 137 140 141 146 140 143 141 137 140 134 126 125 118 116 114 113 111 113 114 117 118 127 130 131 136 137 142 151 154 157 165 168 167 167 176 175 162 159 162 152 148 159 167 142 134 148 146 144 161 161 174 145 121 153 163 158 169 163 164 156 140 135 134 144 185 203 207 210 209 194 171 160 143 136 131 130 127 124 125 125 126 122 123 120 119 119 121 120 124 123 127 128 131 134 138 138 141 140 137 134 135 133 118 119 113 112 110 113 109 113 115 118 121 121 125 128 125 124 126 129 139 145 148 159 158 158 162 177 169 159 153 163 154 158 151 133 133 137 143 148 156 161 180 142 125 144 154 165 152 143 158 143 136 125 136 148 195 209 207 206 210 187 164 151 142 131 127 125 128 117 115 117 119 120 120 115 111 110 112 106 113 114 111 110 118 122 127 128 132 135 131 127 127 124 112 112 109 107 107 105 108 108 108 108 109 108 110 114 115 111 110 111 118 127 130 141 146 150 152 166 171 170 142 153 154 163 150 122 125 142 143 154 157 169 175 144 119 145 141 153 142 139 152 143 135 117 143 161 193 206 210 212 205 175 159 143 132 124 123 120 113 108 102 105 98 95 97 89 86 90 92 91 97 97 102 100 104 115 111 110 110 115 109 115 114 111 101 105 101 100 100 102 102 98 98 95 94 98 106 102 104 106 106 107 103 108 115 120 125 140 145 147 153 160 143 137 148 157 143 114 116 138 148 151 154 161 163 146 127 131 128 129 129 133 125 149 121 118 155 164 191 203 211 204 186 162 149 127 123 125 125 123 118 107 95 96 91 86 87 88 90 91 96 94 99 105 103 107 109 118 119 114 113 112 108 108 109 109 101 105 105 103 104 102 99 102 102 102 104 106 105 105 100 102 100 107 104 104 110 125 120 121 137 140 150 148 150 129 146 143 130 106 117 133 146 148 145 148 139 144 132 108 119 117 112 116 113 137 127 141 161 174 192 205 218 196 179 152 134 127 121 115 116 112 111 110 105 102 102 98 101 102 101 104 110 113 111 111 111 114 120 132 128 128 126 125 122 125 124 127 123 126 119 115 107 108 105 105 105 104 109 108 109 106 109 108 106 112 110 116 113 121 126 124 142 142 149 152 147 135 140 145 119 97 106 119 145 141 140 133 115 138 136 96 120 121 109 116 119 140 144 147 172 184 192 204 207 184 169 136 128 124 118 111 111 117 117 127 131 129 123 128 127 124 125 116 121 117 120 128 129 124 123 134 137 129 123 120 124 131 134 140 141 139 128 125 118 116 115 112 112 114 115 111 115 113 115 118 121 124 122 126 128 127 137 131 144 141 145 143 146 146 135 137 113 91 102 107 135 129 129 131 110 131 141 98 130 126 127 96 118 136 150 160 192 188 192 193 197 179 155 141 129 128 127 116 116 124 134 143 141 137 134 124 128 131 131 131 143 136 141 148 142 135 135 134 139 127 121 119 128 135 136 144 145 149 146 134 125 123 119 111 117 113 116 110 114 117 116 121 123 112 114 118 121 134 143 133 141 145 141 147 143 154 140 143 111 95 88 99 108 124 119 137 120 125 133 115 140 125 132 106 108 125 162 166 190 195 183 176 184 171 162 138 130 141 139 118 119 135 146 140 136 138 141 134 137 142 146 142 149 144 151 164 149 141 145 153 137 122 121 125 130 135 141 141 146 148 155 150 131 124 120 116 115 114 111 112 115 120 116 118 124 118 114 113 124 127 129 146 136 144 138 143 142 144 141 141 116 109 98 83 101 106 117 140 125 126 125 122 156 125 123 104 107 129 164 165 175 192 177 159 153 159 167 147 143 148 147 148 151 160 154 151 147 149 153 145 145 144 154 151 148 154 160 166 159 158 168 156 147 125 120 122 129 138 144 146 151 152 160 161 139 137 126 118 121 117 114 112 128 127 121 118 127 122 124 121 128 138 119 124 129 131 134 147 151 153 148 139 111 121 116 77 88 111 114 140 135 119 130 127 157 134 125 103 119 140 154 159 158 174 167 138 133 151 164 150 163 154 161 171 171 174 167 155 158 150 156 158 158 149 146 149 136 142 155 156 146 149 151 141 134 115 115 117 124 130 153 147 150 151 158 154 138 145 139 126 132 129 124 122 128 122 114 104 112 116 118 131 124 122 120 115 112 126 124 129 149 157 150 151 113 130 123 82 74 107 118 134 132 127 126 141 152 138 128 135 128 144 153 157 142 160 161 132 138 150 160 142 161 163 172 174 175 180 170 165 174 170 179 181 187 181 168 152 120 136 134 139 132 133 131 129 131 118 115 117 122 122 142 143 142 156 158 153 146 139 132 141 141 140 143 135 140 134 130 133 113 110 129 130 132 114 110 125 125 115 120 113 130 148 138 145 119 137 112 87 77 109 129 126 125 136 128 144 156 140 138 151 146 153 162 147 133 156 154 132 142 148 145 152 145 159 157 159 173 164 145 157 172 171 175 176 179 168 178 157 145 161 157 155 147 144 131 133 129 130 123 124 122 128 142 148 137 158 168 159 168 161 154 162 167 155 154 150 147 144 140 133 125 124 134 131 120 113 111 129 125 122 111 108 111 138 127 138 115 147 103 97 92 113 126 127 127 150 127 135 165 157 153 159 148 145 156 145 127 141 146 138 149 149 147 158 164 150 135 148 159 150 138 133 154 148 160 157 149 142 132 135 149 163 156 150 139 141 130 128 134 140 136 132 133 136 147 151 154 165 181 174 168 169 163 153 161 159 146 151 154 143 147 130 123 116 129 126 119 113 120 133 121 112 103 104 108 124 119 134 125 135 110 105 114 134 147 137 131 146 139 135 162 148 151 157 145 126 121 127 147 141 138 148 158 150 161 165 150 143 128 111 126 142 136 130 149 152 145 144 146 138 136 147 149 147 148 136 138 139 130 136 137 145 139 132 132 135 146 147 144 146 155 165 155 155 161 149 151 163 152 152 158 152 147 134 122 140 139 164 145 127 136 138 130 120 107 103 102 130 123 123 125 136 135 130 137 146 154 142 141 141 143 126 148 132 141 154 143 124 103 120 140 147 136 142 157 154 162 146 153 155 123 130 138 142 128 139 148 132 134 144 137 139 136 150 155 152 149 135 140 132 123 125 133 136 131 130 129 132 149 152 150 136 143 157 158 158 154 144 141 148 152 146 147 151 143 141 149 168 153 157 167 139 143 144 137 131 114 117 111 128 143 126 130 124 144 149 136 139 130 138 133 148 141 121 125 107 134 136 138 109 103 113 117 147 147 128 149 152 142 142 150 150 138 143 145 153 147 137 139 143 150 151 141 150 147 144 146 153 132 125 130 129 124 120 127 118 118 113 127 144 138 153 156 132 141 154 162 171 156 154 150 147 154 145 142 137 152 167 175 176 173 162 158 154 144 152 148 135 115 119 119 126 141 130 138 127 152 163 140 137 130 150 137 142 141 121 100 93 112 134 135 105 115 116 106 125 138 135 145 139 132 135 142 157 144 145 149 156 151 140 128 149 148 147 145 147 143 142 139 143 126 124 125 134 132 116 115 117 118 123 135 155 146 156 162 153 140 159 165 196 179 175 159 149 152 154 139 134 159 180 168 169 164 153 149 155 152 152 148 142 121 111 118 126 130 140 136 134 167 176 152 155 133 173 156 138 137 124 92 95 102 129 148 121 109 115 97 109 137 139 139 132 134 132 137 151 149 153 156 162 153 154 147 137 135 138 141 129 129 132 135 132 120 119 117 131 133 119 105 118 131 130 146 163 162 162 167 168 145 170 165 205 192 184 174 160 153 158 151 143 158 173 166 161 159 152 152 151 150 149 148 143 125 111 111 124 133 143 125 143 169 190 172 171 133 168 163 147 145 130 92 107 106 118 160 142 115 119 88 102 136 140 130 128 126 125 117 132 139 146 153 151 143 133 127 125 120 125 128 123 131 142 153 147 126 117 131 132 129 115 118 119 124 126 153 162 167 157 166 157 150 183 177 190 202 191 194 177 157 167 163 168 166 176 166 160 159 161 157 157 157 155 151 144 133 112 111 118 144 135 123 156 180 200 188 171 147 178 169 155 156 126 100 129 97 120 154 150 109 124 90 78 123 130 125 123 120 122 108 106 118 120 132 139 127 105 100 102 108 117 104 106 114 145 142 130 122 125 129 130 122 120 118 128 111 134 155 157 154 162 168 154 153 170 180 182 203 184 192 189 169 167 175 171 169 175 166 158 154 155 162 165 155 159 153 146 133 115 120 121 143 133 126 160 189 190 198 166 159 165 162 169 157 120 111 132 84 117 144 150 98 121 101 68 105 122 123 122 117 117 109 89 101 105 104 114 113 103 102 100 107 104 108 109 115 134 133 128 125 132 133 126 127 110 119 116 106 123 141 147 145 152 165 145 155 136 162 182 182 178 179 179 174 158 166 162 159 154 157 155 156 152 156 159 159 164 152 150 132 120 120 121 139 129 119 147 183 188 196 166 161 146 159 169 156 114 127 131 84 124 144 165 114 131 108 74 106 117 119 115 114 110 115 94 103 106 104 105 106 100 103 112 111 109 112 109 111 124 127 131 129 123 121 126 111 109 112 109 108 113 132 137 135 135 159 146 150 136 136 163 165 157 158 170 172 160 156 161 156 152 152 144 150 153 159 156 163 158 144 139 120 124 121 122 136 133 130 151 170 197 175 156 159 135 162 167 155 110 140 138 81 101 151 169 134 129 114 90 115 116 119 113 120 111 118 115 101 106 104 91 98 100 103 105 100 94 92 96 111 117 114 123 121 110 113 113 96 99 95 94 91 105 124 144 145 147 155 147 138 132 123 143 155 156 157 152 158 157 157 153 147 152 152 148 150 152 157 159 160 151 139 133 117 121 126 125 137 134 137 162 161 166 171 156 138 141 159 166 146 104 147 132 82 84 138 166 149 122 111 94 106 117 118 120 123 115 112 118 104 103 103 90 82 85 95 100 92 84 89 90 95 104 102 107 107 106 112 106 100 100 94 85 77 91 122 139 153 150 149 142 138 134 133 129 141 163 161 149 151 145 148 152 142 148 153 153 153 152 154 159 157 149 141 123 116 120 127 135 132 156 148 158 156 159 175 156 134 146 154 158 145 107 143 124 62 76 127 165 156 128 111 93 92 104 122 126 127 133 116 125 122 107 101 92 77 76 89 96 96 96 102 97 100 105 95 101 105 115 115 106 101 90 86 91 92 100 121 143 144 154 152 140 138 132 134 132 131 146 148 141 135 139 142 150 145 146 149 154 152 158 161 158 152 154 142 121 119 126 134 140 130 166 153 151 165 161 175 153 141 139 148 153 147 114 143 127 53 91 132 151 157 128 111 88 92 104 117 126 125 128 120 115 120 118 103 95 94 93 97 90 83 88 88 90 96 105 104 101 105 113 113 102 90 92 91 103 105 112 128 144 156 147 148 139 132 123 128 123 131 137 143 133 135 131 135 150 151 145 150 148 151 161 167 161 160 156 147 129 123 133 140 136 145 156 148 156 169 166 176 146 148 135 138 150 142 130 134 148 76 111 143 156 169 116 115 85 87 110 126 134 138 130 126 120 120 119 111 102 102 103 104 100 100 101 95 97 102 100 99 101 114 114 103 98 99 98 103 106 108 107 130 148 157 154 145 137 135 130 115 110 125 141 147 135 138 142 142 148 156 148 152 154 151 155 162 164 160 151 150 132 127 126 133 132 155 149 153 162 165 164 161 145 136 138 139 138 132 152 138 154 91 124 143 149 167 109 107 85 82 104 135 139 141 139 130 128 124 119 116 110 115 105 103 99 93 99 101 106 102 99 105 110 106 96 94 113 113 111 109 108 96 99 118 148 153 158 147 144 147 129 110 103 104 122 136 124 120 121 136 139 141 145 159 155 159 150 148 141 146 141 143 129 124 131 132 137 139 147 153 155 153 162 148 142 120 133 133 119 129 169 141 174 108 118 142 142 160 116 105 95 84 102 132 141 144 146 141 142 133 130 130 123 118 119 109 102 96 103 103 98 92 90 87 89 92 100 113 125 116 106 105 105 107 111 118 134 145 156 150 150 145 136 129 124 128 134 132 123 112 116 125 136 136 145 155 159 161 160 158 150 147 145 146 132 132 137 125 126 137 139 152 154 151 161 147 132 111 130 133 115 125 159 148 183 154 124 136 135 139 111 109 108 92 103 131 140 141 150 145 152 143 143 137 134 122 124 126 115 113 118 111 99 91 89 82 80 89 108 127 126 121 113 115 117 113 114 125 129 133 142 151 150 144 144 152 141 139 141 141 130 114 126 128 138 135 147 162 161 159 158 157 155 150 148 141 137 134 145 137 129 138 143 142 166 146 159 151 124 109 134 116 115 124 163 147 179 190 135 139 132 114 103 91 101 102 103 132 145 143 160 153 156 156 151 146 138 133 131 135 124 131 130 120 105 102 101 94 91 99 122 133 119 120 120 119 115 113 115 125 131 129 134 136 141 137 145 162 155 150 147 139 129 122 130 133 139 139 148 160 172 167 173 169 169 167 160 154 146 144 144 138 139 143 150 152 165 134 144 146 104 120 129 110 122 119 169 157 167 194 152 142 146 119 111 87 98 104 109 131 148 144 156 155 156 158 157 150 144 150 145 133 139 146 142 139 129 121 125 121 127 125 134 134 120 118 122 119 121 115 114 115 122 128 132 136 130 136 136 154 161 146 138 135 130 128 130 140 143 147 147 164 182 175 180 183 176 173 169 159 152 152 147 147 144 147 141 154 154 121 136 139 95 122 126 107 119 114 157 162 147 185 163 143 151 128 129 101 95 101 115 132 143 141 150 150 153 155 159 154 153 151 152 142 151 156 158 159 149 138 135 138 135 138 126 126 120 121 128 128 121 122 115 114 118 122 130 132 129 140 138 142 152 150 139 126 122 130 126 131 146 144 158 166 184 186 184 186 182 177 170 160 156 154 153 156 148 144 142 146 141 128 133 125 98 129 117 109 117 109 153 160 147 182 179 156 147 129 135 114 108 99 121 130 138 136 149 150 150 149 153 153 152 149 150 149 159 163 168 169 164 162 152 149 148 140 129 126 127 134 138 141 145 135 127 117 126 134 136 140 142 149 148 138 140 141 135 126 125 126 126 132 136 145 161 179 184 191 187 188 183 177 165 160 160 157 156 162 145 144 127 132 127 131 125 114 104 124 104 113 110 108 151 158 150 173 192 169 159 122 137 121 113 94 114 125 128 136 144 151 151 147 144 153 150 147 146 156 163 161 173 180 171 167 161 147 152 145 138 132 136 146 148 151 156 154 147 135 139 147 152 151 154 162 168 151 146 141 134 127 119 119 126 133 132 142 160 174 186 189 187 185 183 176 161 155 158 152 151 158 142 146 124 126 120 130 112 104 108 114 98 111 112 109 148 152 148 159 177 185 167 136 138 125 114 101 94 113 120 137 134 143 146 144 145 148 148 147 153 159 167 167 175 175 174 158 150 151 155 150 144 137 135 147 152 153 154 155 154 147 149 154 159 157 158 176 176 170 158 156 137 130 129 119 130 140 142 149 163 172 191 186 178 183 180 162 153 151 152 149 147 143 126 135 121 117 116 115 98 101 110 103 105 110 110 108 144 147 145 141 168 174 182 151 144 138 105 103 99 101 112 123 137 143 146 142 144 151 154 151 160 167 183 174 181 182 180 154 152 158 156 159 147 138 136 145 152 150 147 152 149 138 147 155 156 156 157 176 164 160 161 154 144 138 131 121 130 142 140 146 152 166 181 186 172 172 173 153 140 145 146 141 138 126 109 114 106 102 104 105 94 100 108 107 114 112 108 103 144 144 140 129 165 142 176 167 149 140 93 96 98 105 115 122 138 142 138 138 148 152 158 157 161 173 180 189 194 185 177 166 167 171 167 159 155 145 150 144 150 147 145 144 137 139 151 157 157 161 161 165 156 152 155 149 147 140 130 122 133 135 140 140 145 159 172 186 171 170 163 139 128 137 141 129 127 108 104 104 92 103 118 99 96 110 105 116 115 110 107 100 155 147 139 121 139 138 145 161 146 145 102 87 93 99 107 121 135 143 131 138 146 151 156 161 158 167 178 188 187 185 173 177 183 185 170 159 160 155 166 165 162 171 166 162 156 158 161 156 158 165 166 173 158 156 153 141 141 135 130 124 130 132 135 143 152 154 172 186 172 163 148 130 123 130 134 121 126 102 107 103 88 113 118 94 99 117 106 123 117 111 107 101 160 150 142 125 127 138 135 144 153 137 110 92 93 94 104 109 133 143 133 144 152 149 151 146 152 158 176 176 176 187 167 172 177 180 168 163 166 166 177 180 176 183 180 182 179 183 187 183 175 178 183 187 181 168 158 152 141 125 123 128 128 136 140 146 151 153 172 178 173 160 142 125 122 129 123 117 125 103 105 99 91 111 109 95 106 113 109 129 119 116 108 107 156 150 138 128 124 126 137 139 152 152 117 105 96 104 105 112 132 140 135 142 142 140 140 137 143 154 157 159 158 156 157 155 159 159 156 164 167 165 163 164 169 171 167 164 173 181 188 184 185 180 175 175 180 169 158 149 141 132 136 137 142 145 145 146 155 160 163 177 167 154 135 119 120 125 118 110 116 100 105 92 101 115 99 94 117 113 118 129 118 113 114 107 155 144 138 128 120 122 128 146 134 138 126 114 102 101 103 111 129 146 140 137 138 138 132 130 134 139 134 139 138 135 136 139 142 144 143 147 149 148 142 134 136 136 128 134 143 147 161 162 159 159 154 154 162 156 146 152 146 144 146 143 154 149 149 146 152 152 160 172 156 145 125 126 120 122 111 109 112 103 109 91 106 119 95 104 124 111 121 124 120 116 116 112 151 146 143 129 114 129 126 129 128 126 124 118 105 104 102 109 119 141 135 136 134 133 124 124 124 137 123 124 124 122 126 134 138 140 126 135 142 137 127 124 121 115 107 112 114 114 127 134 143 152 154 155 161 159 157 160 156 149 151 149 148 152 159 154 146 147 160 162 150 129 125 121 124 117 108 111 111 114 114 101 119 128 101 115 120 111 123 122 122 118 117 118 149 152 146 130 119 126 127 130 121 123 123 118 108 101 99 109 116 136 137 135 131 123 121 116 113 118 116 113 122 122 129 135 134 136 130 127 133 133 127 128 117 114 114 110 108 114 127 135 148 147 155 162 169 171 170 175 170 154 152 154 141 150 163 154 153 142 157 159 142 123 124 121 119 114 103 117 118 118 116 116 132 138 106 117 112 125 118 121 122 121 114 118 155 152 142 133 121 128 125 129 125 123 129 126 103 103 95 106 115 129 137 132 127 119 129 117 111 113 117 113 117 122 123 131 138 138 133 130 138 140 144 149 141 138 142 139 129 143 159 162 172 166 176 189 187 185 183 182 177 157 151 155 141 146 159 156 161 146 158 154 141 127 124 121 118 115 109 119 128 134 125 129 142 131 107 108 116 122 116 117 122 127 115 117 153 145 138 139 126 117 124 127 127 130 133 129 111 105 96 107 118 128 130 130 122 122 131 124 115 122 118 116 124 126 131 130 144 142 143 138 135 146 163 180 181 172 172 176 165 174 190 186 198 194 196 204 193 189 178 170 160 148 152 151 132 139 149 148 152 145 154 158 145 132 123 123 119 116 110 125 143 141 138 146 155 123 101 99 119 127 116 107 124 128 118 110 147 141 139 140 125 107 128 131 133 126 139 128 115 109 105 108 118 129 137 129 127 129 132 134 126 128 121 132 133 146 149 153 155 159 153 150 153 171 165 174 179 171 176 180 175 173 192 193 195 192 192 193 181 161 147 135 126 123 128 125 116 129 137 139 139 145 155 156 148 131 121 118 118 117 115 138 143 149 149 149 148 112 96 100 119 124 116 108 119 127 126 112 143 141 141 138 117 102 140 131 136 132 134 130 110 116 111 112 121 132 129 136 138 134 138 140 135 130 124 140 137 141 155 164 162 162 165 155 166 172 165 172 174 166 176 175 165 161 166 160 170 172 167 163 156 144 136 130 121 123 122 117 109 120 131 137 132 137 144 143 138 126 118 112 116 115 124 145 148 152 147 146 143 105 99 111 119 120 117 105 112 125 126 120 145 142 143 132 114 108 150 129 134 135 125 131 111 116 109 107 117 120 121 135 144 140 138 140 133 135 126 137 134 130 140 144 146 161 160 143 145 157 142 160 163 161 167 164 163 159 156 153 163 164 166 165 157 146 136 122 114 115 115 105 101 99 119 133 133 135 137 140 139 129 115 110 117 116 128 149 158 152 145 149 142 120 114 113 115 115 120 106 111 124 127 126 148 144 138 131 110 126 152 125 133 136 125 132 109 114 110 109 112 119 110 131 140 146 140 138 137 137 125 137 134 135 141 154 153 159 154 141 123 131 116 135 134 150 159 164 160 163 153 159 161 165 159 148 139 128 117 112 100 102 103 94 92 98 117 136 138 135 133 144 140 121 107 109 118 117 137 156 161 147 138 156 131 120 108 118 112 116 115 114 109 119 128 131 148 137 136 121 119 145 152 135 137 137 126 128 106 110 116 115 111 120 116 128 130 142 140 134 131 136 133 139 137 143 149 166 157 155 158 144 132 131 120 129 125 129 133 128 134 134 145 137 136 144 141 140 135 123 119 113 102 100 97 101 98 116 120 128 126 137 141 147 140 116 108 115 125 122 144 160 153 139 144 152 130 115 110 117 112 116 119 112 107 111 127 131 137 134 137 121 137 161 150 139 135 137 131 123 110 104 110 119 115 116 122 126 121 124 129 126 122 126 130 133 137 147 152 148 153 157 159 147 138 136 135 133 125 122 112 121 130 125 137 121 125 132 136 132 137 133 143 129 120 111 111 108 113 120 122 128 133 136 144 148 137 120 110 118 126 126 145 164 148 139 154 145 127 115 108 107 110 113 118 118 105 108 119 128 137 139 131 135 156 164 148 137 127 134 131 119 101 99 106 125 120 126 126 114 114 122 131 130 132 131 127 138 137 138 144 141 138 144 140 130 134 134 134 131 120 124 123 130 130 121 119 112 121 116 122 134 134 143 140 135 133 130 124 124 130 128 135 141 138 141 150 144 128 118 118 116 129 130 149 160 143 148 150 135 129 108 108 103 107 113 112 113 110 104 112 122 144 139 138 139 161 159 136 133 127 135 131 112 101 102 118 140 136 130 125 116 110 122 132 136 138 139 136 151 154 153 153 151 149 145 132 128 134 131 129 127 129 131 128 135 134 137 128 128 128 123 122 129 128 131 130 126 136 137 134 133 138 135 141 148 150 143 151 141 128 122 121 121 137 141 142 137 141 152 140 128 125 111 104 100 105 111 108 113 116 106 105 113 156 154 150 146 163 149 139 139 137 141 129 115 110 104 104 152 151 133 128 120 106 120 131 134 147 146 150 156 159 160 164 157 159 154 152 153 145 140 137 137 134 140 131 134 139 141 144 144 140 136 131 129 117 125 122 126 129 138 141 137 144 140 138 150 149 148 148 136 130 126 123 127 142 147 148 137 138 152 132 127 120 114 105 105 97 105 104 111 114 112 109 107 164 162 152 144 151 155 155 150 139 140 130 111 99 96 106 171 164 132 132 123 113 109 128 131 139 146 152 164 165 165 172 165 161 170 181 161 153 143 142 140 141 144 151 144 143 148 147 142 141 140 136 133 120 115 120 118 126 126 130 131 140 141 144 149 148 146 141 136 132 129 124 137 147 160 156 149 162 156 131 125 120 112 109 113 106 107 106 116 112 112 114 110 178 178 165 143 159 175 176 149 137 133 122 89 89 89 128 169 167 140 133 126 115 101 121 127 136 147 142 153 165 164 166 168 168 171 183 163 146 143 133 129 128 135 141 144 140 143 147 144 143 147 143 132 123 113 117 116 121 125 131 133 139 141 151 152 147 146 141 137 136 133 132 143 146 178 154 164 176 154 145 147 129 128 128 132 129 124 120 128 124 124 122 120 193 177 169 147 167 184 181 143 130 118 119 94 89 110 149 172 165 148 135 128 125 93 105 123 135 132 138 132 152 163 169 174 161 166 166 161 148 143 132 128 124 125 130 132 126 126 130 134 136 138 134 129 124 122 120 123 121 125 132 133 141 145 146 151 140 148 138 140 135 134 133 131 150 173 168 179 186 159 154 144 146 135 140 149 146 144 133 142 133 138 139 143 206 200 191 172 190 206 187 143 127 125 125 107 114 132 152 164 163 145 147 127 135 106 96 111 125 129 125 126 138 150 159 155 156 167 170 163 165 160 151 144 139 133 134 133 134 137 138 146 143 143 138 135 134 133 134 137 133 128 131 146 148 152 147 153 140 146 143 133 133 128 136 126 137 165 163 182 179 185 153 148 150 149 147 152 153 156 148 145 134 129 140 144 212 201 198 176 193 208 164 150 130 130 122 133 145 135 148 155 160 142 145 139 130 114 101 105 112 117 109 119 123 137 142 144 145 148 161 154 158 145 150 148 146 148 154 151 151 154 156 156 156 153 151 148 144 136 143 141 139 134 145 153 154 154 153 154 145 144 138 130 122 125 136 129 134 152 152 169 179 187 170 150 148 154 161 152 155 161 162 156 146 134 133 137 218 200 197 171 187 167 157 149 126 114 151 159 170 143 146 155 148 149 146 146 129 119 113 104 108 110 110 110 117 127 128 135 131 128 132 136 133 131 131 132 132 135 148 151 157 158 158 160 167 166 164 157 153 150 153 153 146 146 158 167 164 165 159 158 156 143 135 125 123 114 138 127 142 146 144 149 183 179 176 160 155 150 166 155 155 164 169 163 153 147 139 141 212 200 188 173 154 148 141 137 119 110 163 199 185 149 146 147 140 150 153 144 129 117 120 113 109 107 111 105 115 118 119 123 119 114 109 117 118 121 126 122 128 123 138 146 153 157 159 158 158 162 156 155 153 158 162 161 158 161 169 168 173 170 166 157 157 138 127 122 115 121 141 120 143 141 153 142 174 187 167 169 160 156 155 157 157 158 171 173 164 154 145 145 214 197 191 160 124 127 117 131 105 128 184 213 187 163 159 154 140 149 153 145 132 121 129 124 112 109 102 108 105 111 113 114 109 105 103 111 120 118 124 124 130 126 138 149 154 156 158 154 156 155 152 152 150 164 164 166 171 171 177 175 179 171 168 154 145 131 123 115 120 115 133 122 146 127 162 138 158 183 169 175 158 154 149 161 159 163 175 175 175 172 158 152 218 202 178 129 109 118 100 119 103 133 189 198 183 193 192 153 165 161 160 140 133 130 138 129 120 114 105 100 100 109 111 109 106 109 109 108 124 123 128 135 135 143 146 151 156 153 153 150 155 157 156 157 160 164 175 175 177 179 181 182 185 169 163 151 136 128 115 115 130 111 117 123 144 144 159 147 137 174 165 174 163 150 153 154 167 171 175 182 180 180 173 166 211 190 154 109 99 100 95 96 94 131 187 190 188 226 216 169 193 173 156 146 139 135 148 143 126 127 115 101 99 100 106 106 105 105 107 104 113 121 126 127 128 139 142 152 155 153 154 152 149 154 159 163 168 168 178 182 181 185 184 181 174 164 153 138 129 117 115 126 123 111 108 114 152 163 156 150 120 151 163 177 167 140 150 157 170 176 174 182 185 187 178 175 175 172 133 95 81 75 80 75 87 125 187 187 217 221 227 202 215 183 156 146 148 142 148 150 137 137 122 112 97 94 93 93 102 101 105 101 108 120 119 123 125 133 144 146 151 152 153 149 148 154 156 164 169 174 179 180 184 180 175 169 159 151 140 125 112 113 120 126 108 109 114 96 161 176 162 140 105 125 156 171 172 138 149 158 166 179 178 187 192 190 191 188 144 143 115 82 40 52 54 57 79 126 199 206 210 220 242 221 240 211 174 164 154 145 145 152 148 145 132 119 112 97 90 85 86 91 97 100 103 111 115 117 128 125 130 131 130 138 142 144 143 151 149 162 170 172 176 170 171 162 160 159 144 137 125 116 113 116 112 125 111 107 117 92 164 178 163 130 114 101 149 163 165 150 137 149 166 171 183 185 198 195 200 197 111 106 79 63 8 29 40 44 97 137 213 185 205 233 246 243 243 221 204 187 168 153 146 152 149 145 140 130 123 113 98 84 76 79 87 91 97 102 105 110 116 117 118 119 121 126 128 130 133 142 147 152 155 162 160 159 152 149 142 137 134 117 117 108 111 115 114 120 108 118 115 126 162 177 164 114 107 99 124 154 157 151 135 137 157 173 177 192 198 197 195 208 82 67 64 48 1 21 42 47 96 155 191 186 199 244 249 237 237 223 214 216 185 159 144 157 150 145 145 134 131 124 110 94 85 80 83 85 87 90 93 99 101 103 105 107 111 109 114 118 121 128 131 133 135 140 137 135 132 131 128 120 120 112 110 103 120 115 119 111 102 113 121 145 181 158 168 124 109 77 87 123 147 140 135 128 145 166 160 185 197 196 191 194 56 50 59 38 0 27 47 57 106 140 167 199 188 240 255 218 225 224 215 220 208 182 153 156 150 152 148 138 127 125 119 106 100 91 85 82 84 83 86 87 92 92 96 96 105 99 110 113 114 114 113 115 119 117 109 110 109 117 116 110 111 107 104 111 124 127 122 107 110 110 147 154 183 139 162 126 112 91 47 70 127 119 127 122 126 147 156 170 192 201 199 201 36 55 54 40 13 32 49 94 115 104 153 215 192 240 240 201 208 223 215 214 214 208 175 168 154 151 156 145 133 123 119 114 105 101 99 92 85 83 82 79 79 84 86 91 95 98 97 101 99 99 95 94 101 95 91 98 104 110 102 103 101 102 107 123 130 128 114 112 118 108 166 172 177 139 145 132 112 98 62 28 74 103 108 107 116 130 159 164 183 189 193 198 43 69 56 49 20 37 89 111 113 96 143 214 220 217 209 188 194 209 202 210 215 207 203 193 166 167 161 158 146 128 117 113 111 100 95 95 92 87 85 79 78 79 80 81 81 80 82 84 85 83 86 90 88 88 92 102 100 101 104 101 103 113 119 123 127 123 110 117 120 111 171 174 177 130 143 143 124 94 71 36 39 56 68 101 105 119 149 165 175 186 185 185 54 80 72 65 56 61 98 118 137 116 134 202 220 200 195 181 172 190 190 193 223 203 213 207 195 183 171 170 167 147 130 120 114 113 102 95 92 86 82 78 70 71 65 71 75 79 78 82 83 87 86 87 89 90 97 97 94 102 98 105 114 117 119 128 125 116 111 123 122 130 154 171 183 133 140 138 137 98 77 50 34 34 17 57 101 116 135 157 166 184 183 192 