P2
92
112
255
124 124 124 125 126 125 124 120 124 123 125 125 116 111 108 109 100 109 98 97 93 100 101 102 106 121 139 155 166 163 153 137 137 133 134 129 118 118 128 131 136 141 139 137 142 132 141 148 147 145 135 135 138 140 134 142 143 146 144 140 142 150 153 142 158 137 143 153 165 177 167 161 163 159 151 137 136 141 129 133 126 127 123 130 122 120 117 116 116 117 117 120 125 125 125 125 125 124 123 121 125 120 122 116 109 105 98 95 99 100 98 94 107 101 105 118 142 157 163 162 162 158 144 139 137 141 131 127 126 121 129 134 139 146 150 149 145 144 138 145 142 144 139 135 129 135 127 125 130 129 136 132 130 138 134 133 141 150 144 152 159 173 178 172 170 167 167 154 146 141 139 135 132 136 127 129 122 124 122 115 119 118 118 118 123 125 126 124 123 126 124 122 123 120 116 110 97 94 92 96 91 105 103 102 106 102 118 148 157 155 154 148 145 137 138 134 130 125 122 128 132 136 144 150 152 151 152 153 145 141 138 149 143 140 136 142 131 126 129 125 120 123 123 124 120 122 128 127 133 143 148 152 161 179 179 172 168 168 173 169 161 153 145 142 137 137 141 129 126 127 125 120 120 119 121 116 124 125 126 124 125 121 130 125 121 116 109 102 93 98 98 95 103 106 96 104 114 139 130 139 141 141 133 131 130 126 115 119 121 127 126 135 139 149 146 151 156 148 148 152 136 130 139 135 137 133 132 143 140 131 136 136 129 127 123 120 117 115 120 123 131 129 141 145 151 157 176 177 177 165 164 170 170 173 154 149 143 144 144 139 131 129 123 126 121 117 125 117 122 126 125 130 125 125 124 121 118 110 103 99 100 99 103 104 106 97 100 128 128 125 123 121 120 118 116 109 110 109 108 120 126 127 131 131 137 139 141 144 140 140 140 137 128 131 134 133 134 134 138 140 139 140 143 142 132 137 127 126 124 122 119 121 128 125 123 135 142 151 159 155 176 189 169 164 172 177 170 162 146 146 144 146 136 136 126 128 124 118 123 121 126 126 124 127 127 124 117 117 109 105 97 102 97 103 108 103 101 115 133 130 120 121 120 104 100 99 96 91 92 100 106 117 115 120 123 124 132 133 134 138 134 127 127 126 121 127 130 128 133 131 132 135 138 132 133 136 133 132 129 128 127 122 120 115 119 130 127 132 128 136 141 134 145 173 182 168 159 169 182 170 158 151 144 146 141 139 135 129 128 123 120 121 123 126 123 125 125 121 108 113 99 91 93 98 99 110 104 103 120 137 124 117 108 107 105 101 96 92 94 97 101 106 108 113 110 113 119 111 120 121 127 127 125 124 123 124 115 117 122 123 123 131 124 130 132 132 126 127 122 117 117 125 118 113 113 110 112 120 120 122 118 115 120 122 122 148 159 163 163 160 173 171 165 157 154 152 146 147 142 138 134 129 122 125 130 124 126 126 120 111 105 98 83 81 94 101 101 98 111 129 126 131 119 112 112 103 98 99 98 97 99 107 114 115 115 114 115 121 119 113 112 117 113 118 125 126 123 118 114 113 119 122 119 126 121 126 119 124 123 124 120 116 113 112 112 107 102 94 101 99 106 104 109 110 106 104 113 131 147 154 160 167 161 174 169 169 165 164 157 153 149 144 136 137 129 122 128 123 125 120 111 104 100 90 73 82 100 99 90 108 126 126 122 122 121 116 116 102 100 103 105 103 109 111 112 116 115 118 118 119 121 118 121 125 122 122 121 118 114 113 110 108 111 113 116 117 123 121 122 118 118 118 112 119 116 105 108 102 94 90 87 86 85 89 96 99 99 97 101 112 129 144 162 168 171 173 181 185 179 178 170 163 159 149 148 133 136 123 126 128 120 113 110 98 83 85 75 91 91 90 95 122 128 121 127 120 122 122 112 110 110 115 109 107 115 112 115 121 119 122 120 118 118 120 120 120 119 122 119 116 111 108 109 114 116 114 118 123 123 120 119 121 121 120 125 129 127 119 114 109 110 110 99 92 84 75 86 87 91 88 83 86 112 122 149 166 173 184 185 189 187 189 174 167 158 148 142 140 133 130 124 124 114 103 101 90 80 78 81 85 77 89 116 121 126 126 131 121 122 127 118 121 119 119 110 110 115 117 119 121 125 120 120 118 117 111 110 107 109 114 118 115 113 115 112 122 118 116 117 122 125 125 124 132 138 136 139 145 135 126 120 117 125 127 119 110 103 99 91 80 85 74 77 77 84 98 122 148 166 181 183 181 180 186 180 167 163 153 144 140 140 132 125 116 109 97 89 84 83 74 76 72 83 103 119 121 129 125 126 122 124 127 127 126 125 115 115 115 120 123 123 128 127 123 120 118 114 112 114 112 114 114 119 112 120 125 123 125 126 123 125 125 127 129 134 133 140 145 144 145 141 139 130 124 128 131 130 121 117 113 104 95 100 80 73 70 75 79 97 124 146 163 168 180 174 187 191 180 172 165 155 145 143 138 121 109 106 94 86 84 81 71 63 64 96 117 124 123 131 124 122 129 129 136 129 131 123 122 121 121 120 125 122 121 116 116 118 114 115 110 120 121 123 123 120 117 121 123 120 125 123 121 123 125 134 133 147 144 150 155 158 157 148 143 141 132 134 131 138 135 124 127 113 104 106 112 89 81 74 79 85 99 131 151 158 161 180 191 187 192 184 179 177 162 152 142 119 109 101 90 97 81 70 60 63 78 106 129 125 124 126 124 125 135 142 133 132 127 122 118 119 126 126 124 119 121 118 118 116 117 119 122 125 124 124 121 118 113 117 119 122 118 121 124 128 129 135 142 154 156 162 160 168 162 155 156 146 145 142 137 137 137 137 142 123 115 112 115 115 93 80 79 87 96 111 140 159 161 161 179 192 183 192 187 183 176 163 158 113 106 97 98 97 78 62 57 65 88 116 122 130 127 126 128 135 142 137 131 130 124 118 120 129 133 129 129 123 127 127 124 119 122 120 124 123 124 119 120 115 114 112 109 97 100 110 111 117 119 130 131 136 151 160 167 171 165 170 165 156 155 150 143 147 146 140 152 142 127 120 119 119 108 94 84 88 98 113 137 153 160 161 170 175 181 182 186 195 194 168 162 108 106 97 106 91 72 58 62 79 104 115 127 133 129 126 130 139 136 135 141 133 120 121 130 141 144 142 140 141 138 135 133 136 134 132 129 124 120 108 104 98 99 101 89 82 88 94 102 102 107 112 127 129 133 147 155 160 165 177 169 166 171 157 154 152 156 145 145 156 145 132 129 125 117 103 93 90 93 116 132 148 159 162 164 176 166 178 187 186 191 174 164 109 104 108 101 82 72 68 74 99 109 125 133 133 131 130 142 144 138 142 153 139 131 147 145 150 149 154 156 151 151 145 148 145 142 145 133 122 109 102 94 93 86 81 81 80 87 86 93 87 94 98 111 115 125 139 142 152 152 153 150 154 163 157 161 151 152 153 147 150 155 146 133 138 125 104 94 93 86 99 130 138 160 161 147 168 166 165 169 179 178 178 156 104 104 108 92 79 77 90 87 106 112 134 135 136 140 137 150 146 142 151 152 147 149 166 165 162 168 170 168 166 162 160 159 146 142 134 119 117 110 92 98 88 79 78 79 80 87 83 89 91 91 94 104 98 112 120 121 130 133 134 134 141 153 147 152 153 142 147 150 155 162 155 146 144 137 120 103 93 94 92 115 137 156 158 145 147 156 177 160 161 170 164 164 102 103 99 83 82 89 85 94 106 126 140 141 141 142 142 150 149 148 154 159 158 170 176 174 179 180 179 174 172 174 165 155 146 142 136 127 120 111 104 97 86 88 84 81 87 87 84 88 93 89 95 92 92 99 105 114 120 120 126 128 135 138 138 144 142 137 138 145 153 167 156 151 145 144 132 121 101 91 96 105 122 150 161 150 152 144 158 170 155 157 161 162 110 101 87 75 83 78 91 105 122 131 140 152 146 153 156 158 157 156 158 172 173 184 180 183 186 188 185 179 182 167 158 160 152 144 145 130 129 115 108 104 99 98 94 95 93 91 91 91 94 94 90 89 92 99 103 110 115 113 117 121 127 124 123 128 136 137 133 131 140 152 156 149 143 149 135 121 114 103 98 104 113 139 159 156 157 147 149 165 161 156 144 153 105 85 72 75 85 78 103 108 121 136 149 155 153 156 164 163 155 158 169 180 186 188 188 188 186 184 182 185 171 157 158 153 149 144 140 136 130 116 112 111 105 103 105 100 96 95 96 95 97 98 93 91 98 96 97 105 110 117 124 125 128 126 129 122 124 135 134 130 127 149 142 151 150 154 150 132 119 117 103 103 118 124 146 151 161 152 148 149 172 160 158 143 96 72 60 79 82 96 106 103 116 140 150 157 150 161 159 155 157 165 177 191 191 189 194 188 183 184 183 170 161 153 151 144 139 134 128 132 124 122 120 121 114 114 110 105 103 105 101 103 102 96 96 96 98 100 105 110 114 120 132 130 133 133 128 120 115 124 128 125 120 146 140 137 142 154 158 146 132 115 122 110 113 118 137 148 151 160 147 139 152 169 153 152 89 56 60 95 93 109 96 101 127 140 149 145 157 160 152 148 153 169 177 188 192 193 196 198 189 187 180 156 145 140 143 138 129 137 132 131 131 128 129 128 127 127 114 111 109 106 106 109 106 100 100 103 102 103 117 114 112 122 131 130 134 133 122 119 116 119 117 116 116 129 134 140 143 149 158 156 146 125 123 120 116 122 126 146 143 154 154 142 132 166 152 149 72 51 78 100 94 100 91 116 129 138 148 152 158 149 145 142 154 174 177 185 189 197 200 189 188 177 165 146 141 137 133 130 133 134 139 133 135 128 132 129 130 133 123 118 120 115 114 113 110 106 106 106 105 111 116 115 118 124 129 129 131 129 125 113 115 113 115 115 108 113 120 128 140 145 155 147 145 137 125 114 119 118 125 134 141 145 153 147 130 149 151 139 71 68 104 98 80 92 101 110 126 133 154 146 141 142 138 144 159 172 175 178 185 186 180 176 169 157 146 144 139 137 133 135 136 140 140 139 138 131 130 136 134 134 131 128 124 123 121 117 112 112 111 113 114 122 119 121 126 126 124 127 133 130 122 116 116 107 110 112 104 102 110 116 126 136 150 147 147 136 128 120 112 120 118 120 147 136 153 139 134 119 140 134 81 102 103 78 82 87 102 111 126 143 136 131 135 137 129 149 150 169 169 175 168 164 159 165 154 143 142 141 143 140 137 137 137 139 139 137 135 126 132 135 133 135 133 127 126 125 124 122 114 111 115 119 121 124 121 122 122 122 125 123 128 127 126 119 118 110 101 105 99 99 99 101 107 120 141 143 141 136 124 121 112 113 120 125 135 143 135 143 118 114 119 130 102 116 88 77 77 88 103 116 134 136 123 129 124 130 131 145 145 161 161 154 144 149 155 153 149 144 148 148 145 137 136 131 127 130 133 129 125 127 131 133 133 133 136 131 129 126 128 122 117 114 123 123 123 127 125 129 128 130 129 129 128 127 128 125 121 116 97 95 91 96 87 85 92 104 125 133 121 132 122 122 112 116 125 130 135 143 128 136 115 110 107 119 117 104 83 82 78 91 103 130 130 124 120 123 121 125 132 137 147 150 136 137 135 140 150 145 149 144 146 140 129 120 122 122 124 126 128 127 124 125 128 133 138 137 137 129 131 128 129 130 124 124 126 129 128 129 130 131 130 130 128 129 130 130 126 124 123 110 95 89 89 91 92 78 77 102 110 134 110 121 124 122 112 117 116 140 141 140 131 124 109 101 101 114 123 97 82 82 81 94 112 127 118 116 115 116 113 117 125 132 131 129 127 129 131 139 140 145 141 137 129 124 120 115 118 120 121 121 121 124 125 123 124 127 132 133 134 125 129 133 132 134 132 132 133 130 136 135 137 138 134 135 136 138 134 128 123 121 121 114 102 93 86 91 86 80 73 92 110 124 107 111 121 118 117 115 118 134 153 138 139 118 105 94 96 111 114 98 83 84 89 104 118 116 115 104 109 103 106 108 118 128 120 121 120 125 132 135 142 141 127 123 120 120 121 119 118 118 116 112 114 121 124 123 122 125 124 126 125 121 123 122 125 132 132 135 138 138 141 144 143 141 139 139 140 135 130 124 120 114 112 114 105 95 88 84 87 76 79 87 98 118 108 103 115 122 113 115 117 127 147 154 148 120 108 91 97 95 112 95 88 88 105 115 111 112 107 100 95 97 103 97 112 126 124 117 119 121 123 128 128 117 120 117 118 119 127 119 117 119 119 114 115 116 122 122 122 122 121 121 119 119 113 114 117 123 128 133 135 139 142 144 150 146 145 144 140 136 134 125 116 115 111 110 106 92 84 81 81 82 79 83 95 111 114 105 111 120 116 114 120 131 149 147 151 134 111 89 96 88 91 92 93 105 117 119 116 108 105 96 86 85 90 96 112 121 121 120 112 114 113 115 109 117 117 115 117 119 119 115 113 116 112 114 112 111 113 118 118 120 117 117 117 118 110 111 117 120 124 128 133 134 140 146 142 146 141 135 132 127 125 118 116 112 111 105 101 95 82 87 81 88 80 81 92 102 107 112 110 111 113 117 118 133 145 146 147 139 115 102 89 92 86 78 92 111 117 117 121 99 99 83 80 76 82 94 106 116 122 123 115 112 106 109 112 114 115 117 114 111 113 111 109 115 117 115 115 111 113 118 115 116 117 117 117 120 112 116 119 123 124 121 125 126 130 134 132 131 132 123 121 116 117 114 110 103 105 102 102 99 91 88 89 88 81 87 84 99 107 115 111 110 111 118 127 136 144 143 140 146 120 107 93 96 88 72 95 114 125 122 111 99 82 73 80 83 78 95 107 119 121 115 108 103 101 104 112 105 107 110 108 109 116 114 117 120 122 116 118 115 118 123 118 119 122 122 121 122 124 125 125 123 123 115 121 124 125 123 121 118 116 114 112 111 108 108 111 105 107 106 100 99 97 96 92 89 84 83 85 87 104 113 105 98 105 117 127 143 138 137 132 147 133 106 92 99 90 76 99 122 139 121 104 96 78 80 75 79 77 97 108 121 116 107 96 97 96 108 109 104 104 113 114 118 122 118 115 117 118 118 119 118 120 124 122 125 126 130 128 130 131 130 127 124 121 120 119 120 120 120 116 110 107 107 100 101 105 107 109 112 113 109 111 103 102 97 100 97 81 80 78 80 95 106 105 94 101 118 126 146 145 134 127 142 138 109 95 100 83 81 113 129 141 127 102 101 88 78 72 77 78 100 111 113 113 100 91 95 102 105 109 110 110 116 122 124 125 119 121 130 129 130 131 129 128 128 128 138 140 140 137 135 135 135 130 128 132 123 118 119 115 112 111 100 101 101 96 99 107 111 109 115 120 116 119 115 114 105 101 104 87 77 76 77 88 100 106 98 91 113 128 148 150 133 124 137 145 120 97 104 78 93 131 139 157 130 111 93 86 76 74 80 85 107 112 108 101 91 93 97 104 107 112 117 125 124 127 129 124 125 131 133 134 124 129 131 131 132 137 142 142 143 139 137 138 138 135 133 130 128 119 118 110 109 106 100 100 98 96 99 105 110 111 115 120 119 119 121 122 112 98 101 100 78 67 71 83 92 102 104 89 114 129 143 146 133 132 131 137 137 102 100 80 98 138 153 155 135 117 86 87 82 81 84 89 115 109 101 93 92 93 96 104 111 109 120 125 127 127 126 126 119 124 134 130 130 131 136 140 140 142 142 144 141 139 134 139 137 130 134 130 126 121 113 107 104 103 99 99 97 95 102 104 107 107 111 109 112 113 117 117 117 104 94 100 85 70 68 85 87 97 97 90 110 136 151 142 134 135 132 133 139 115 105 97 117 142 154 162 138 117 82 90 90 89 95 102 113 103 89 89 89 87 89 105 108 115 122 129 128 134 132 124 118 121 129 132 127 130 138 134 140 141 142 141 140 137 132 138 137 127 129 126 116 114 112 102 98 100 98 95 100 94 96 101 103 101 104 101 102 107 107 109 110 104 93 98 88 76 74 88 97 101 99 95 100 134 147 144 131 131 132 139 138 119 113 117 125 155 171 158 145 113 84 89 97 103 101 104 105 96 87 92 99 100 107 112 119 128 131 133 134 141 135 134 131 131 142 138 135 137 136 135 139 140 140 138 139 133 134 133 131 128 127 125 114 113 106 105 101 99 99 96 101 99 96 97 97 95 95 97 94 100 103 101 103 102 95 98 96 81 72 88 104 104 94 105 108 141 141 141 125 133 135 134 140 114 121 131 133 166 183 168 147 108 87 83 110 99 97 107 111 103 90 97 103 107 120 130 138 150 148 148 148 152 147 147 141 137 137 129 127 133 129 129 131 128 132 135 135 133 133 129 130 128 127 126 118 117 113 114 111 106 109 104 105 99 97 94 92 93 89 88 90 91 86 86 90 98 98 105 107 91 78 82 110 111 92 100 115 149 148 142 131 120 129 138 135 121 104 115 152 187 181 186 138 104 86 91 107 96 105 109 121 118 112 112 116 123 132 148 148 154 160 165 165 158 151 135 129 133 129 123 119 126 127 124 126 129 131 134 135 135 132 136 135 140 136 136 128 133 130 126 129 124 116 112 108 103 107 103 98 100 98 95 98 102 101 104 93 90 93 106 106 101 89 94 108 124 101 99 119 141 149 151 137 118 131 147 140 113 101 107 178 200 193 184 148 106 93 93 113 108 113 117 130 127 114 105 111 120 105 121 116 112 122 130 140 145 148 138 135 133 136 131 132 132 134 134 139 138 139 142 148 143 151 146 143 143 148 146 145 140 146 139 140 136 133 131 127 121 124 114 111 121 124 124 125 122 127 123 117 100 93 98 98 100 84 89 104 124 104 104 125 138 149 150 151 129 145 160 152 117 99 166 217 210 216 179 171 116 97 104 122 120 115 112 115 116 112 117 114 121 124 135 135 134 143 143 139 135 134 135 135 133 134 136 133 136 140 139 140 143 142 145 144 142 145 139 137 134 141 142 141 140 139 143 138 136 137 130 130 130 130 117 114 118 125 124 125 125 125 128 123 107 98 101 98 104 97 78 103 111 116 108 124 125 143 148 150 150 173 173 164 127 99 204 228 192 218 201 168 138 87 105 131 129 126 112 110 101 102 108 106 120 122 127 121 132 138 139 126 125 123 128 126 126 130 126 122 124 130 127 133 128 137 142 136 135 140 132 134 133 133 130 130 129 135 136 134 135 134 130 133 132 127 126 118 119 123 121 121 130 130 128 118 109 98 100 100 99 92 74 88 96 117 121 137 126 127 150 167 183 191 180 169 141 104 191 200 179 212 240 181 154 85 102 127 130 138 124 92 80 77 82 89 121 109 115 115 118 134 129 125 123 128 132 125 129 137 131 124 120 125 126 129 126 128 131 137 133 133 132 131 128 128 123 120 117 117 123 126 131 132 127 129 131 127 123 116 115 121 117 120 131 134 129 123 99 83 97 106 103 94 71 78 77 110 110 127 136 124 158 185 196 191 196 157 141 107 159 168 161 202 224 192 177 107 110 128 142 147 127 99 74 79 84 104 110 113 116 120 126 126 117 120 122 117 119 108 121 111 115 116 117 124 124 126 125 122 127 132 124 120 122 122 120 118 115 111 107 95 97 101 114 124 120 122 125 122 117 107 89 102 116 110 127 129 134 104 101 100 81 107 109 102 86 85 80 109 105 130 121 133 165 181 202 196 184 142 135 117 131 154 162 196 191 177 170 121 123 152 163 152 128 125 106 108 119 126 118 114 122 124 132 127 127 138 136 135 131 121 115 102 99 101 105 112 107 117 120 110 118 117 118 118 122 116 113 111 108 106 98 86 84 91 97 96 115 124 136 105 101 88 76 109 113 108 125 127 137 115 93 123 125 109 111 108 91 70 72 109 113 126 121 122 151 185 215 185 167 140 144 116 118 164 149 169 171 166 160 120 133 168 172 148 124 123 109 108 136 122 104 118 117 116 137 162 155 154 143 155 155 129 111 97 84 81 93 102 105 113 118 118 122 117 124 128 131 124 123 120 106 103 95 92 97 103 81 88 112 120 132 120 124 110 94 99 104 108 116 122 101 110 130 125 142 137 126 126 104 76 70 108 102 120 129 123 141 185 194 168 152 135 147 125 96 161 146 140 130 146 141 112 152 162 169 131 93 104 98 112 137 113 105 124 118 120 149 169 167 153 145 154 159 144 121 115 116 106 104 108 116 113 116 112 121 123 127 136 120 119 116 113 109 104 100 87 92 91 101 97 107 117 110 112 118 115 94 97 102 100 98 84 98 112 137 143 138 154 150 131 112 84 73 101 103 103 111 131 131 164 182 167 145 137 149 131 89 141 156 140 115 118 107 91 149 143 167 133 99 90 101 128 147 115 110 123 121 128 142 159 159 146 143 145 140 137 132 124 135 120 119 121 127 126 128 126 129 132 134 137 128 127 119 114 117 107 112 86 87 86 82 104 109 111 99 99 108 100 99 105 104 99 93 111 92 111 118 156 150 152 165 147 117 106 88 103 100 95 96 140 113 145 167 154 145 154 132 129 90 113 150 134 100 106 109 90 149 144 164 122 102 90 108 136 148 115 115 112 117 121 129 145 143 133 129 125 118 119 116 126 130 119 114 122 127 129 133 128 130 139 151 150 135 127 123 124 122 128 132 115 101 102 98 111 116 114 108 105 106 104 96 101 103 97 100 93 93 97 123 154 172 154 154 156 136 114 107 106 93 82 79 119 108 128 148 143 142 156 136 114 84 107 144 143 93 118 137 102 155 149 143 121 103 89 112 132 141 113 124 126 117 109 118 135 129 105 109 92 105 109 114 116 111 111 104 120 122 126 122 118 116 128 145 134 122 122 119 120 122 116 111 112 92 97 101 108 103 109 113 106 110 114 104 98 94 103 110 108 125 121 126 153 158 159 153 161 119 105 109 94 92 81 79 100 96 135 144 138 152 137 123 117 96 112 155 169 125 126 158 115 153 157 140 126 113 93 112 129 139 120 130 129 123 109 113 121 112 96 93 87 94 96 109 104 108 112 115 114 111 115 116 104 110 122 126 114 113 114 119 123 128 126 103 110 78 76 77 98 91 99 102 101 105 102 92 95 104 113 121 137 133 119 118 137 158 151 146 133 105 87 90 96 79 83 94 92 76 120 148 175 160 151 120 127 93 124 171 197 166 127 161 129 144 156 144 130 113 104 124 119 118 122 126 136 127 115 110 117 112 103 94 102 105 96 108 105 102 100 107 104 101 94 101 89 103 110 104 105 106 110 122 112 128 129 103 90 87 84 82 105 97 100 110 113 117 108 105 102 112 122 112 136 133 115 108 137 148 140 136 108 102 94 92 84 69 67 84 72 69 118 148 190 153 151 120 128 105 126 188 196 173 148 155 158 146 149 136 120 117 115 133 124 116 116 100 132 126 114 125 126 125 121 124 119 111 96 102 104 99 98 100 102 103 95 92 79 80 98 110 103 106 111 122 113 131 118 104 91 98 99 101 107 100 88 109 116 121 113 98 102 99 96 107 125 130 119 123 137 142 128 137 98 101 96 93 84 70 72 80 68 70 123 155 188 148 151 112 141 98 116 190 185 178 161 147 155 152 134 128 107 117 123 134 130 113 121 97 109 132 124 129 133 132 138 143 147 134 112 111 109 102 107 99 112 110 105 92 87 87 98 111 113 106 124 128 128 135 124 134 107 115 115 120 129 121 105 122 123 124 121 114 103 109 113 122 134 139 136 134 152 128 124 140 109 104 97 89 83 82 86 86 72 61 114 173 178 161 141 116 141 102 110 182 182 158 139 131 151 162 132 112 109 115 131 135 136 126 140 124 117 149 141 147 142 139 142 148 150 138 125 106 105 113 106 106 106 109 103 99 97 86 103 104 100 101 133 124 129 126 128 141 123 127 117 121 139 141 116 129 134 123 135 133 124 125 129 136 141 142 149 155 156 133 129 139 120 105 89 83 90 93 102 106 80 76 125 164 194 153 148 110 147 111 105 163 174 149 131 121 147 176 142 109 107 125 128 137 136 132 144 135 122 142 143 150 153 137 134 139 147 148 129 111 114 116 101 90 98 102 101 103 97 89 104 112 98 106 123 124 124 129 146 144 133 116 131 131 146 144 130 125 145 129 137 138 144 145 141 146 150 146 144 156 158 138 136 129 128 101 86 79 91 101 118 107 83 96 126 163 188 159 138 110 150 115 94 139 163 149 163 132 118 158 143 117 120 121 135 138 143 136 139 150 120 129 150 142 156 148 142 139 135 138 129 126 124 114 106 98 100 95 101 99 83 84 92 98 109 116 127 126 129 141 147 147 135 107 131 131 141 138 143 122 132 142 128 132 141 145 139 140 143 140 140 154 150 135 144 124 126 95 84 79 87 112 135 108 99 105 112 168 182 165 128 126 144 106 87 121 163 164 178 139 127 126 155 107 127 139 144 143 141 142 130 150 135 136 159 173 160 163 165 159 155 149 152 142 134 127 124 121 106 107 101 91 82 82 94 102 108 127 136 133 126 153 149 142 138 121 134 142 143 135 144 137 128 136 141 132 135 143 139 144 143 133 140 154 141 140 148 126 123 92 88 82 103 111 132 112 109 126 120 174 176 175 124 133 147 110 90 99 149 181 190 130 141 135 143 125 113 142 149 154 144 148 139 141 146 139 143 175 176 164 175 176 160 159 146 137 135 147 147 126 112 111 106 97 103 100 103 111 123 130 135 116 138 140 157 141 130 129 124 140 154 152 145 153 129 129 137 149 138 143 140 141 137 134 148 148 140 148 131 129 110 95 88 88 115 119 122 113 123 116 114 168 183 165 123 144 155 121 94 80 134 178 173 132 127 140 157 142 124 126 141 150 147 147 144 139 149 135 147 156 178 177 170 174 157 146 142 141 148 156 135 113 107 110 113 103 107 112 117 137 142 130 137 159 138 144 152 149 128 127 124 116 132 156 135 146 134 112 126 136 148 145 145 134 130 138 148 132 139 152 122 134 108 100 95 95 123 114 96 132 130 116 95 162 194 150 132 144 159 131 115 84 98 152 150 135 126 134 145 144 144 142 136 140 139 135 139 131 131 149 154 158 158 167 177 168 148 142 147 156 152 137 120 114 109 108 104 103 112 133 148 138 132 139 148 159 169 161 159 167 142 118 122 119 118 128 137 127 141 124 117 127 131 153 139 126 122 134 127 127 148 140 137 124 112 104 96 100 123 97 100 138 132 108 98 152 172 147 141 150 170 119 135 101 87 133 138 132 125 131 141 140 141 140 142 144 146 144 147 149 146 148 160 163 157 159 168 175 163 159 162 153 140 122 119 118 110 102 98 110 133 146 144 139 137 152 152 153 167 173 183 164 148 137 110 111 121 116 129 139 132 140 125 113 117 127 130 134 127 118 125 136 125 139 138 120 115 103 104 101 116 104 110 133 133 89 122 157 153 146 135 160 177 98 124 125 96 132 136 136 121 140 138 135 137 141 142 142 139 142 141 145 148 144 153 157 160 166 165 163 150 151 156 146 139 129 123 111 105 114 121 125 140 149 138 141 144 148 150 147 157 161 168 164 149 130 139 109 103 91 105 115 116 115 120 113 90 109 126 131 128 136 133 127 131 131 128 130 115 108 120 105 111 112 115 136 121 100 134 152 137 127 127 170 178 74 104 134 100 120 155 147 141 141 137 131 141 142 146 141 138 138 140 142 146 148 154 160 158 157 159 153 148 147 147 135 138 133 128 127 132 120 134 136 140 134 135 129 133 133 143 142 152 156 152 136 131 130 136 148 148 133 118 132 125 127 118 127 120 97 103 113 122 121 140 139 133 135 136 133 123 111 115 107 112 119 135 139 143 114 133 151 119 122 126 167 176 72 84 120 88 108 151 156 150 144 135 125 144 138 145 135 136 139 138 144 145 149 152 163 160 155 160 152 149 149 149 146 142 138 130 124 127 133 141 144 137 141 151 146 145 136 138 136 148 144 132 120 105 113 120 130 134 131 130 136 140 135 120 120 114 119 117 113 116 118 118 125 118 128 134 134 126 125 129 113 110 127 128 139 155 115 140 139 128 113 139 168 167 97 71 106 79 89 147 131 142 151 138 125 144 140 143 134 132 136 137 139 142 146 151 163 160 152 151 152 151 149 147 143 141 138 130 125 122 137 146 140 143 155 160 155 153 143 138 145 153 148 123 112 99 102 108 108 115 125 128 128 138 149 135 126 128 126 125 131 134 140 140 147 145 150 157 151 133 133 130 125 124 120 125 142 148 111 142 139 128 100 150 165 165 123 97 95 88 71 127 136 133 162 156 131 144 142 135 134 134 125 127 133 138 142 153 163 164 170 164 165 164 160 154 146 139 138 133 122 135 141 146 149 154 158 165 168 157 157 148 153 155 161 138 119 112 105 109 105 100 101 110 119 130 141 139 129 130 133 121 124 130 140 141 144 152 146 154 147 138 139 143 131 123 117 134 149 141 123 139 123 117 106 161 162 165 130 120 116 106 70 104 150 135 165 163 133 141 150 135 132 126 118 126 136 140 141 158 172 170 172 170 175 177 173 168 159 152 147 140 133 143 145 147 140 143 150 156 166 160 158 162 151 144 145 152 132 127 125 125 126 123 113 114 112 123 131 127 127 126 131 127 118 129 138 145 140 143 142 146 141 138 146 146 128 128 126 128 143 131 124 123 114 110 114 169 155 172 139 122 124 121 91 99 157 152 161 165 142 146 141 132 134 122 121 129 138 148 147 154 174 177 175 177 178 182 180 170 163 161 161 151 146 151 139 148 151 144 149 156 161 164 167 164 151 140 131 149 151 130 131 125 127 125 122 114 108 117 122 118 115 127 134 124 120 126 136 145 136 136 140 137 136 141 146 144 125 134 123 130 145 130 123 113 110 108 129 167 163 181 142 139 126 123 111 112 149 183 179 165 145 150 144 130 133 118 124 129 138 153 155 150 173 177 187 188 184 184 178 170 167 179 178 176 171 165 150 157 173 166 166 179 185 180 181 175 160 145 143 158 155 133 129 129 127 139 136 126 116 113 121 113 113 121 112 114 115 119 134 142 135 136 136 129 141 142 146 130 119 132 118 135 142 117 111 109 110 120 135 173 179 188 142 145 133 136 125 127 158 177 197 177 155 144 156 139 131 119 124 130 133 146 155 154 166 178 182 193 182 184 179 166 171 181 189 182 182 177 170 178 188 182 173 178 196 196 189 177 180 165 164 170 162 144 139 136 137 140 143 128 123 112 117 113 107 106 97 106 109 117 132 134 137 136 130 131 141 142 142 123 117 112 111 114 117 108 108 113 118 128 141 184 183 188 134 145 135 123 136 129 150 177 191 185 162 151 157 132 126 123 126 132 128 138 152 155 161 167 169 175 179 181 177 171 170 176 175 176 176 180 182 193 187 175 174 185 198 198 187 177 176 176 178 179 173 167 155 142 142 143 137 125 118 115 113 124 112 105 103 102 111 121 130 129 135 136 129 134 145 141 135 127 118 105 105 102 113 122 117 120 125 130 145 193 184 183 134 140 133 116 121 128 151 169 193 186 156 158 173 134 124 120 126 132 134 134 145 148 152 155 151 151 160 164 171 176 161 172 174 175 173 173 183 196 191 176 177 184 193 189 183 180 185 180 185 193 186 174 159 142 131 132 121 113 111 109 104 114 112 105 113 103 114 123 122 132 137 136 129 136 141 135 127 124 124 110 106 108 125 125 119 119 132 131 153 190 182 175 131 138 130 119 114 117 137 170 184 182 156 159 175 142 130 121 119 126 132 133 140 137 138 136 129 132 140 149 164 167 150 151 159 161 161 161 174 199 195 182 174 183 194 191 190 165 170 185 205 208 207 172 160 152 128 128 120 108 99 97 87 103 111 105 112 115 120 121 127 136 137 135 125 137 141 128 127 128 117 114 110 105 126 118 112 129 122 139 165 184 177 168 130 135 125 121 115 105 125 145 166 182 162 162 171 148 134 126 124 119 125 133 126 121 118 125 115 128 131 145 172 169 150 147 144 141 136 142 138 176 175 160 159 170 187 184 200 179 165 187 192 198 181 153 146 141 128 124 112 108 97 88 81 91 108 106 117 118 128 125 134 138 135 130 127 132 138 125 119 128 103 120 112 102 126 116 115 125 116 145 180 184 175 166 136 134 125 123 113 105 110 129 148 163 163 170 174 150 130 128 121 117 118 119 113 113 110 119 111 117 117 133 158 167 144 137 134 124 115 117 114 126 132 126 139 142 151 159 167 169 156 161 166 162 157 133 131 123 121 109 96 98 88 88 90 90 97 108 116 120 136 133 134 140 139 137 134 140 140 130 116 123 107 115 106 112 124 119 130 121 126 154 178 182 171 171 135 140 122 116 127 105 101 114 132 146 143 166 163 155 134 133 120 111 114 120 115 112 110 113 115 108 108 120 130 136 129 113 115 106 98 94 89 90 89 91 88 95 93 100 115 123 110 106 109 122 129 119 118 112 99 91 82 77 78 84 90 92 101 106 121 127 143 148 147 146 153 143 135 138 138 132 122 115 104 107 100 114 125 127 135 128 146 163 177 173 166 163 133 137 125 116 121 116 101 106 118 134 128 145 146 149 137 134 121 112 114 122 118 116 106 102 111 106 94 108 112 119 107 98 91 92 89 77 63 58 55 45 42 35 43 48 52 70 61 58 70 83 89 90 79 81 72 66 68 76 74 80 88 86 103 109 121 131 148 157 159 149 156 150 138 141 136 126 118 108 101 107 98 121 140 137 137 146 151 169 174 171 161 161 132 134 130 123 118 120 110 100 113 121 121 129 138 140 130 134 123 118 119 120 121 119 111 107 107 105 96 96 106 107 100 98 93 89 79 63 54 32 27 24 19 10 11 18 16 20 17 23 35 43 61 67 52 55 50 47 55 66 62 64 69 78 101 109 123 124 148 159 162 153 160 147 138 139 138 126 118 99 99 107 94 131 157 143 142 151 152 169 172 164 159 163 125 133 132 120 125 112 110 103 109 119 112 120 127 125 117 127 129 127 125 121 125 122 122 125 119 118 111 98 97 101 99 97 89 77 63 55 42 29 26 25 21 5 13 18 7 3 13 14 23 24 38 44 39 37 40 37 40 42 46 49 64 74 88 109 114 128 145 153 162 161 158 148 143 135 140 120 114 101 103 111 98 141 157 140 137 148 152 167 171 159 160 160 122 130 130 124 118 117 110 101 105 116 113 115 116 116 108 120 138 131 125 125 130 123 129 133 127 130 121 109 103 115 110 107 96 75 50 46 46 48 45 41 43 30 27 35 25 21 30 41 48 45 38 38 31 36 40 53 48 41 47 55 64 70 82 103 114 124 140 145 159 160 157 152 146 134 131 119 111 99 108 118 101 137 149 136 134 148 161 159 169 158 157 162 126 126 126 126 117 118 121 94 106 110 106 107 106 110 108 115 137 134 128 131 139 134 139 144 147 157 147 135 127 137 134 120 118 108 94 89 82 93 90 84 78 62 55 63 57 60 64 80 89 77 68 61 69 72 76 85 77 58 60 63 73 79 91 102 115 124 136 151 156 158 158 148 140 130 127 113 114 107 109 112 97 130 147 130 134 145 161 156 163 155 160 155 129 126 125 126 116 132 112 95 108 106 105 97 102 105 110 115 125 137 129 129 135 140 143 153 155 155 160 157 155 147 139 136 129 128 126 128 128 124 128 131 136 121 115 105 101 100 116 119 110 103 96 97 96 97 83 86 86 85 75 87 87 91 103 109 124 130 142 158 159 156 148 145 136 132 129 117 115 111 111 108 105 135 134 134 133 151 165 154 150 157 157 151 125 128 131 122 127 131 99 96 106 99 112 93 90 93 104 94 116 135 130 127 138 144 153 155 154 154 155 159 152 141 137 137 140 138 149 149 142 140 132 140 144 141 142 142 142 139 130 120 117 121 113 107 106 100 98 103 102 95 88 101 104 96 107 122 142 153 162 171 170 158 152 148 140 137 129 114 117 107 113 101 106 145 138 138 138 153 171 150 144 155 154 147 121 129 130 124 143 128 72 95 107 95 97 92 82 96 88 82 97 117 130 126 131 144 154 154 158 155 153 160 152 145 150 143 148 159 163 162 161 159 146 159 157 153 157 154 145 131 114 121 132 133 127 125 126 123 125 119 117 119 115 113 114 118 124 133 148 153 161 167 169 160 153 151 146 142 136 112 113 107 113 100 111 144 142 138 144 157 160 149 145 150 152 146 123 129 133 130 155 96 44 97 97 101 94 99 78 84 85 69 73 98 127 132 130 142 150 146 152 149 142 150 150 141 140 138 141 152 156 157 152 156 154 162 164 170 168 170 161 159 143 155 152 154 151 136 142 131 129 123 121 126 126 123 120 126 129 135 146 153 163 169 168 159 150 152 148 143 133 112 112 111 109 95 123 149 138 137 150 160 150 149 143 140 149 139 139 139 132 145 143 61 56 87 96 113 104 100 91 84 89 72 61 81 113 129 127 128 140 146 137 141 138 141 144 138 135 136 134 143 150 155 150 144 141 141 139 150 145 140 138 142 142 138 137 146 148 143 147 137 130 124 130 131 128 131 123 124 127 134 142 155 166 174 169 155 151 145 134 144 124 106 100 113 103 101 134 140 137 138 152 155 149 141 136 142 143 140 141 137 134 150 103 56 61 85 106 126 118 105 112 91 83 73 56 68 97 111 117 109 109 125 113 113 116 126 125 135 128 120 126 140 147 154 155 149 148 150 141 137 120 120 121 116 127 113 114 122 131 128 128 129 133 133 139 134 131 131 131 126 128 133 148 158 169 175 167 156 143 144 134 141 112 99 96 112 104 107 140 134 135 145 161 145 147 134 136 127 142 140 140 135 139 118 87 69 63 70 96 135 132 107 112 100 87 77 71 74 83 102 109 108 111 113 114 108 109 110 109 110 109 101 106 111 119 124 123 136 129 133 124 118 115 111 94 85 83 74 84 92 105 116 123 124 126 128 129 131 129 131 136 137 132 136 147 161 172 173 167 150 139 143 134 143 105 102 97 106 102 122 136 131 136 154 160 144 137 135 134 124 137 134 131 138 125 101 83 72 56 57 105 143 145 115 116 123 111 85 96 84 82 91 110 106 121 114 115 112 114 108 109 106 105 103 101 106 105 108 110 110 107 100 108 101 97 105 105 100 95 93 86 84 93 101 113 106 109 117 125 122 128 131 135 142 142 137 147 167 166 164 166 140 141 139 133 131 94 112 96 82 95 121 135 127 137 153 148 141 138 130 138 127 128 131 137 135 117 99 84 77 55 62 116 157 153 142 137 137 131 108 107 97 91 87 106 121 122 127 126 131 127 121 116 117 116 108 107 107 108 110 114 113 113 119 109 114 108 108 112 111 108 112 109 108 103 101 104 104 106 115 124 126 135 136 136 142 145 142 161 162 164 158 156 133 141 132 147 119 91 112 98 66 97 103 132 124 125 141 146 144 138 133 136 127 126 132 131 129 110 95 94 93 69 85 127 163 170 151 146 137 146 140 108 99 92 96 111 116 128 123 134 135 136 129 127 124 122 127 124 122 122 116 120 123 123 127 124 131 136 124 124 128 124 122 125 120 120 118 117 110 118 123 126 129 130 139 140 146 155 165 169 164 163 157 145 139 137 126 156 113 99 98 79 82 92 89 126 123 111 127 151 145 148 137 140 131 127 128 129 139 112 99 128 116 84 96 133 160 171 158 153 142 161 153 113 99 92 98 110 117 123 130 130 138 138 132 134 135 128 134 139 133 135 132 138 130 134 133 131 128 131 133 133 131 135 127 131 127 127 124 121 118 125 127 130 133 138 142 146 153 163 166 167 165 158 156 140 139 137 122 147 137 113 95 66 92 105 94 118 115 122 124 147 154 163 154 149 144 144 135 131 142 112 121 138 135 90 94 134 151 178 172 164 167 176 150 120 101 96 99 110 125 127 130 125 123 131 136 134 130 127 129 121 121 122 124 128 128 137 137 133 136 135 130 134 129 125 124 124 124 125 126 131 133 133 140 133 139 143 149 155 159 167 162 167 163 160 146 140 133 139 125 140 143 131 93 78 81 96 109 112 117 117 125 132 148 165 165 163 156 159 150 166 157 141 152 159 161 105 91 147 159 173 187 192 195 181 152 116 105 103 100 108 128 130 125 122 122 116 120 118 111 114 119 100 108 103 106 112 109 106 107 110 116 119 119 118 124 118 115 115 119 119 121 119 125 125 133 129 130 148 141 155 159 167 168 171 163 158 142 130 131 145 125 145 145 135 111 93 89 99 112 115 98 120 117 117 125 150 162 154 147 156 154 169 162 151 167 164 170 105 100 150 175 169 200 226 199 183 158 111 98 113 101 98 124 136 129 126 120 108 105 100 102 103 104 89 91 90 82 88 91 93 94 100 98 89 91 91 100 106 108 109 112 111 116 119 126 122 128 129 127 144 151 155 164 163 159 173 162 150 140 123 133 153 134 146 136 142 129 104 106 119 110 116 89 107 116 114 111 135 157 153 148 145 149 164 170 158 173 160 155 108 106 158 169 197 222 240 203 185 157 97 91 104 107 111 119 129 132 125 117 106 94 95 86 91 98 88 90 95 79 78 81 74 78 84 81 78 75 73 77 81 88 94 99 105 115 119 126 123 127 133 138 146 152 161 171 165 166 170 158 144 141 123 144 149 123 129 130 155 142 119 113 132 123 101 96 90 120 105 107 120 150 148 156 140 141 158 176 166 179 152 139 124 122 158 175 214 255 219 207 178 155 98 85 99 96 118 121 114 122 115 121 101 88 88 85 83 96 85 82 83 81 78 81 75 82 75 75 78 69 75 63 73 74 85 92 100 112 116 122 126 134 143 152 153 160 162 172 173 172 167 151 141 131 131 140 143 114 130 120 170 160 130 126 147 138 111 96 101 118 115 112 113 127 136 152 147 138 169 180 178 181 149 140 126 134 147 191 226 246 227 186 189 145 97 90 100 96 111 115 115 107 110 118 110 89 83 76 77 84 78 81 75 81 81 87 84 85 82 75 84 80 82 80 82 90 95 104 110 122 124 124 133 143 156 160 162 167 171 177 178 170 163 148 140 134 135 132 130 121 132 117 176 180 152 148 141 150 131 101 104 119 122 109 107 116 116 127 131 128 187 181 184 175 153 142 134 149 148 193 225 235 207 187 201 145 102 95 95 106 95 103 117 109 106 119 108 100 94 80 77 79 78 74 76 79 86 85 94 92 89 87 99 99 99 101 94 112 115 125 124 131 134 140 152 159 168 166 176 177 187 183 173 170 159 152 141 140 129 119 127 123 138 131 173 173 161 152 142 135 146 109 97 111 115 109 107 103 109 115 119 108 194 187 174 173 154 139 145 154 153 189 227 214 184 175 195 152 114 110 109 110 102 95 110 113 105 120 109 107 101 91 83 83 82 79 80 78 78 81 84 97 94 99 100 107 103 106 108 114 126 130 144 146 149 156 165 163 175 186 187 189 187 179 168 162 156 147 142 136 122 129 135 119 149 153 167 168 151 164 143 122 135 117 102 102 114 107 108 98 112 104 113 103 189 170 160 157 147 137 158 149 158 176 203 189 162 175 169 158 127 112 125 101 94 98 101 112 104 116 117 115 103 103 91 93 85 77 83 83 87 87 92 94 97 106 98 108 110 101 111 114 128 138 146 154 159 167 170 176 183 198 192 196 186 176 163 154 148 138 143 138 125 135 141 116 141 156 165 178 163 164 141 106 123 101 101 101 121 104 98 93 102 109 101 107 171 142 146 141 129 124 157 143 161 156 195 167 122 174 165 143 139 131 126 112 96 93 103 112 114 109 114 121 108 106 104 98 98 95 87 93 105 101 103 93 97 101 102 93 108 106 113 133 131 147 147 155 166 168 175 183 184 186 196 189 175 162 154 142 138 134 136 139 135 133 130 123 138 160 161 161 176 161 142 95 119 85 100 109 116 118 89 95 94 107 100 104 152 116 127 132 109 114 147 130 134 132 171 140 96 170 176 129 149 145 135 122 106 95 107 119 124 111 117 121 119 110 107 104 104 99 98 100 108 109 106 106 101 98 100 97 107 111 119 128 138 138 144 149 164 168 174 177 188 187 188 172 157 145 141 131 130 127 131 138 135 144 119 127 141 176 155 150 134 144 134 100 99 86 91 121 115 116 95 84 93 98 97 82 129 97 126 125 97 102 125 115 118 106 135 130 101 149 164 129 151 144 147 145 117 101 109 127 119 120 121 119 125 123 118 116 113 111 109 108 106 116 114 112 114 116 112 113 118 121 124 132 141 143 146 147 157 155 165 171 178 173 161 152 141 140 134 117 130 125 132 135 149 144 124 139 147 192 157 137 110 123 104 94 92 84 81 111 114 96 113 91 87 85 85 67 120 87 119 98 74 85 99 111 120 83 117 114 93 120 145 135 157 144 155 148 137 103 116 128 113 118 124 125 128 125 125 134 126 125 126 124 119 121 122 127 124 125 127 130 135 134 134 136 139 140 138 141 143 149 154 148 146 145 138 135 137 130 119 117 130 131 133 137 150 138 144 143 167 192 171 125 98 93 73 70 85 77 74 107 124 104 114 104 89 85 83 66 89 76 93 62 29 58 64 108 116 76 95 91 72 97 141 153 150 149 157 142 143 129 124 130 114 111 120 124 128 129 128 131 136 138 139 142 142 137 139 143 140 142 145 147 145 146 140 137 132 132 129 136 137 138 131 129 137 130 127 129 128 120 112 121 136 136 137 126 154 117 150 170 188 194 164 123 89 58 55 43 60 83 76 94 122 112 100 101 80 77 80 78 73 56 50 22 7 44 65 108 103 66 86 93 64 106 145 170 151 149 163 138 141 145 140 143 127 114 114 119 117 127 128 129 127 142 145 143 144 150 152 159 161 159 159 158 153 153 149 141 144 142 147 143 141 132 131 130 124 120 125 121 120 119 121 125 138 143 131 130 157 123 151 183 210 199 153 116 78 44 38 26 45 57 95 91 100 110 95 81 69 63 70 75 57 33 28 0 9 46 90 103 91 60 93 111 85 105 140 157 148 155 168 139 132 153 152 151 140 133 122 120 115 114 120 122 124 127 145 144 145 151 153 155 159 162 170 164 161 159 157 155 158 155 152 142 137 128 125 121 117 121 116 118 125 123 120 133 135 139 128 135 152 139 165 189 211 198 146 119 49 46 32 12 45 51 98 87 79 98 87 86 68 55 61 73 