P2
92
112
255
118 121 121 120 122 122 124 118 122 123 127 123 118 112 113 115 108 116 110 113 111 123 124 123 131 143 159 175 175 162 149 131 122 116 118 121 113 108 117 117 119 121 121 121 133 121 129 122 125 129 122 124 125 128 122 128 136 136 144 140 143 152 157 145 158 144 155 166 178 191 186 180 176 168 162 152 151 154 144 149 140 140 137 145 135 134 133 131 129 132 128 130 120 120 120 120 121 123 122 122 123 121 125 116 112 110 108 107 106 111 114 115 127 123 129 147 168 181 177 174 163 153 137 129 127 131 126 129 128 113 122 127 124 130 137 134 137 134 125 119 119 122 119 119 115 119 116 114 122 123 131 133 128 132 134 134 142 152 152 161 169 191 194 188 184 183 178 163 161 155 152 152 146 150 140 143 136 138 136 130 131 130 132 130 120 120 121 120 121 123 120 123 124 120 119 112 104 100 99 103 104 119 122 119 130 127 145 171 174 172 160 151 147 138 137 131 130 133 134 138 142 141 141 146 148 145 143 143 137 134 129 130 124 121 116 116 108 104 110 105 107 114 116 116 121 115 128 124 130 144 152 156 168 191 194 186 184 182 186 180 172 165 162 155 152 151 155 141 138 141 138 135 134 130 134 129 117 123 120 118 123 119 126 124 123 119 112 107 100 104 104 106 119 125 113 119 134 158 149 158 152 151 144 133 131 138 130 130 134 143 148 153 156 162 155 156 155 146 149 147 135 130 134 135 125 121 116 122 109 109 110 106 106 112 116 112 113 114 116 121 122 130 150 150 158 168 188 192 192 185 176 187 183 183 171 165 157 160 154 150 142 143 138 140 135 128 135 130 117 121 120 125 120 124 123 121 120 115 110 105 107 110 114 122 122 111 118 146 142 136 132 137 135 127 130 129 130 134 138 147 145 150 152 152 153 156 156 159 150 147 147 143 131 131 136 136 131 128 127 130 122 118 116 118 111 120 119 117 115 117 112 117 116 115 129 143 154 162 173 172 186 201 191 183 187 190 186 180 163 159 159 158 147 147 141 142 139 131 132 133 120 121 120 122 124 122 119 116 109 108 101 108 103 114 117 114 113 122 144 141 125 126 124 114 113 115 120 125 128 134 140 146 142 146 150 149 149 149 152 156 153 146 142 144 135 134 139 137 138 139 132 133 130 122 122 121 124 121 118 116 118 116 113 119 118 116 122 133 136 146 152 147 156 178 199 190 183 185 199 190 175 164 158 162 154 151 147 142 140 138 131 130 120 122 120 122 123 119 109 114 103 95 95 104 105 115 108 111 120 134 124 116 107 109 109 106 109 112 122 127 131 133 138 144 137 141 146 140 143 143 148 148 149 147 141 144 137 132 136 138 135 136 135 135 132 130 127 121 121 120 117 121 115 118 114 119 120 119 119 127 124 119 122 126 127 158 175 187 180 178 194 191 183 175 169 166 161 161 154 151 146 142 136 135 126 119 124 124 118 110 104 99 84 77 91 101 100 98 110 129 122 122 108 103 105 107 106 105 108 114 122 131 136 138 139 140 137 142 139 136 134 139 140 141 142 147 142 140 135 130 132 134 133 132 131 131 127 125 127 125 122 122 123 125 119 117 116 112 120 116 116 110 117 116 107 105 107 133 157 172 174 180 177 193 188 184 181 179 172 168 162 157 150 148 141 133 124 119 125 119 110 100 95 85 68 75 94 90 79 97 117 124 113 112 108 109 108 106 112 114 117 118 126 130 133 136 137 137 135 137 140 135 141 142 144 142 138 137 133 131 126 126 124 125 125 124 128 124 122 121 122 122 116 121 123 126 123 117 115 114 109 111 109 105 105 108 106 101 96 116 144 157 178 182 188 192 201 199 193 193 186 177 174 163 157 144 145 137 122 126 121 113 107 96 79 80 70 87 86 82 86 114 122 114 116 109 106 111 112 115 120 127 125 126 132 131 133 136 138 135 133 137 135 135 137 137 139 139 135 131 127 127 126 130 131 128 127 130 130 127 122 122 126 128 125 125 127 133 131 125 126 123 117 110 111 102 104 102 100 95 87 97 120 134 156 176 185 199 202 206 206 201 188 182 171 162 152 147 142 140 122 126 113 102 98 89 75 74 79 81 78 86 111 118 119 114 111 107 110 117 115 125 128 134 133 134 135 138 134 137 139 139 138 137 135 131 129 129 131 133 134 129 126 130 133 136 137 134 131 131 135 134 128 130 137 140 140 140 134 132 134 131 139 136 132 130 123 119 109 103 103 90 94 93 94 109 134 161 180 195 197 200 205 203 193 183 178 166 157 147 150 140 126 117 108 98 88 83 82 75 80 78 83 104 115 112 115 108 111 109 115 123 127 132 136 133 139 143 146 143 144 144 144 141 138 136 135 132 131 130 133 136 135 132 135 138 139 139 139 140 138 136 138 141 139 136 139 145 143 146 142 140 138 135 140 142 139 136 135 128 112 107 113 98 99 93 94 95 111 135 157 177 191 203 196 209 208 195 186 182 167 156 153 147 121 110 104 95 83 85 83 77 75 77 103 119 113 110 110 109 110 114 123 136 135 143 139 139 142 144 145 148 145 143 136 133 134 135 136 134 141 140 141 144 140 137 141 141 141 144 140 137 140 142 146 147 154 147 150 154 154 151 148 147 145 141 142 141 148 143 137 140 127 115 118 120 102 102 97 99 105 112 139 163 174 184 203 211 211 209 202 194 186 172 160 149 118 109 102 90 94 83 81 70 76 90 109 121 110 108 108 108 114 129 144 141 141 141 139 135 138 145 146 147 145 145 141 141 138 138 142 143 145 146 144 143 141 136 141 145 146 143 146 147 147 149 153 153 160 160 161 159 162 156 155 158 151 151 151 149 147 151 147 149 136 127 122 126 124 107 104 105 113 116 126 153 170 178 187 202 216 210 213 204 196 186 167 167 112 105 99 98 98 86 72 78 85 102 113 112 113 111 106 109 123 141 143 136 141 139 136 136 142 147 143 146 143 149 149 147 144 147 146 150 149 148 146 148 144 139 137 137 130 129 135 137 140 144 149 149 152 161 167 171 171 164 170 170 162 163 162 155 154 155 152 155 146 135 130 131 128 122 114 112 116 117 127 145 163 176 181 197 202 210 206 202 211 204 178 172 109 106 99 108 99 82 75 83 98 111 109 112 114 112 107 119 134 139 136 139 142 136 134 141 146 151 151 152 156 155 156 158 157 159 156 154 152 148 136 131 127 127 128 121 114 118 124 130 128 127 132 144 147 146 157 161 163 166 177 174 173 175 169 165 158 160 156 155 157 145 137 139 134 131 123 112 119 117 134 142 154 171 175 188 202 196 206 206 200 209 189 174 110 107 110 109 97 89 86 98 110 110 113 112 108 107 115 133 140 138 137 148 146 140 151 147 152 153 157 160 166 168 164 167 164 162 161 151 141 134 128 121 119 116 113 110 107 117 117 118 118 121 122 133 134 136 146 146 151 152 153 157 162 170 166 171 157 158 158 156 157 157 141 135 144 132 121 114 114 120 123 143 144 165 169 167 191 196 197 196 203 197 196 170 108 107 111 108 99 100 108 106 116 110 118 117 120 122 126 140 140 135 138 147 147 147 159 160 159 165 165 172 175 174 173 171 162 159 151 136 134 129 116 120 111 106 106 106 105 111 111 115 115 118 119 126 121 129 134 131 135 138 136 140 148 156 152 156 155 144 147 154 158 162 150 143 145 141 132 121 115 115 125 134 150 159 168 161 163 179 206 192 191 191 184 177 105 104 107 102 106 113 101 107 114 118 122 119 123 125 131 141 141 137 142 152 152 159 163 161 169 170 170 173 173 176 169 162 157 153 149 141 134 125 120 112 104 107 106 105 107 107 107 111 115 113 119 115 116 118 122 123 122 123 129 127 136 139 140 143 143 136 135 141 148 163 150 140 141 144 136 133 122 110 118 130 138 159 166 159 161 159 182 199 184 181 181 177 111 102 97 99 110 100 104 115 121 120 118 125 128 140 145 147 145 141 146 155 156 166 161 162 169 173 171 170 175 165 158 161 156 149 149 136 134 120 117 111 105 108 107 109 108 104 104 106 110 112 110 106 111 112 113 115 117 112 116 119 125 124 124 128 133 134 129 129 135 146 150 142 139 143 139 131 127 122 114 127 134 149 159 162 164 160 171 185 186 180 169 169 108 89 84 98 112 103 117 117 119 124 125 133 140 148 149 151 144 143 150 156 162 165 164 163 166 167 166 173 162 153 152 150 147 141 137 133 127 116 116 112 108 104 109 106 105 103 102 105 105 109 106 104 111 106 106 111 113 116 118 120 121 125 126 121 119 129 125 126 124 141 136 141 141 144 143 138 131 128 120 121 139 137 155 159 169 164 165 172 195 184 185 165 97 78 75 110 113 118 120 113 115 124 134 143 144 149 143 142 143 146 154 163 164 163 163 167 165 166 166 157 152 145 141 136 132 128 123 123 118 116 114 116 109 111 109 105 104 107 103 107 106 103 104 104 106 107 111 112 113 118 123 122 124 126 128 118 111 118 120 119 118 138 135 128 132 140 144 142 140 122 131 119 128 139 151 155 164 170 163 163 180 195 182 179 93 68 82 123 120 132 114 117 124 127 140 144 149 145 133 134 136 147 152 162 166 168 174 184 174 171 171 147 138 134 131 128 121 130 126 127 126 127 126 126 125 125 111 110 110 106 106 108 107 103 105 105 104 105 117 114 110 117 120 118 123 121 116 114 112 116 110 111 112 127 129 133 134 139 143 146 144 135 128 128 125 141 145 159 159 167 169 162 161 193 180 174 78 68 104 127 126 126 117 126 124 132 144 154 150 136 131 127 137 152 154 160 170 177 186 182 177 170 162 143 137 131 124 122 127 129 134 133 134 128 134 133 130 137 127 123 124 119 118 118 113 109 108 106 102 108 115 114 110 112 116 114 116 116 116 108 110 108 111 112 107 111 117 124 131 138 142 139 141 140 135 121 127 134 147 148 158 160 166 161 152 179 176 166 76 87 134 133 123 124 124 116 130 135 155 150 138 133 127 129 146 151 157 160 173 177 175 171 166 157 147 145 141 139 132 133 136 141 142 140 145 138 137 142 142 141 141 135 131 127 126 120 117 118 115 115 117 122 121 122 124 120 118 118 126 117 110 110 110 101 106 110 102 101 109 113 124 133 141 141 143 138 137 130 121 130 141 142 161 158 165 158 152 149 174 165 86 127 135 117 121 122 120 116 131 145 143 139 135 129 121 137 140 152 154 167 167 162 161 164 159 150 148 146 150 146 142 141 144 144 144 143 144 139 141 146 143 148 145 137 135 132 129 127 120 117 121 123 125 134 130 130 128 127 124 126 129 122 116 113 112 107 100 105 100 100 97 103 110 120 139 135 140 134 135 129 128 123 136 147 152 162 153 160 140 140 160 165 113 143 129 117 123 124 122 124 142 142 138 135 125 120 123 134 134 151 158 156 149 155 161 161 159 153 158 157 155 146 142 136 133 136 140 138 135 139 143 144 145 150 150 143 144 137 136 130 124 121 129 127 131 137 136 140 136 136 134 134 131 127 125 122 121 115 97 100 96 100 88 91 95 105 125 134 123 135 131 134 126 128 132 146 151 159 144 152 137 136 145 156 131 133 126 122 119 125 125 140 139 134 131 125 121 117 124 128 142 150 144 146 146 153 160 155 158 153 158 153 142 133 132 131 133 133 136 135 136 137 139 146 150 153 149 144 145 142 141 137 133 134 133 135 136 137 142 141 139 137 138 136 134 133 128 125 125 113 99 94 95 99 98 86 85 104 111 135 116 128 135 137 127 128 124 151 157 163 145 143 135 129 138 149 144 130 122 121 118 126 134 145 134 127 122 120 116 113 119 129 139 141 141 142 146 153 153 156 153 151 143 136 131 127 128 129 133 131 131 133 136 135 138 142 146 148 146 139 144 146 144 144 142 141 141 139 143 142 148 147 143 146 144 145 140 135 127 125 124 117 107 100 95 100 94 90 84 96 112 124 110 124 133 133 131 130 126 142 166 153 154 136 134 126 134 146 140 131 122 115 118 126 139 135 127 116 118 113 109 106 114 130 133 139 137 139 147 149 154 152 142 137 134 133 133 133 131 129 129 127 127 134 136 135 136 141 139 141 138 132 135 133 134 143 143 142 147 147 148 149 149 148 149 149 150 145 139 133 128 121 116 117 109 104 97 95 96 87 93 94 100 123 112 117 131 133 129 127 128 129 155 160 158 142 135 125 133 129 137 126 120 113 125 130 129 127 119 112 107 106 103 101 112 133 142 136 141 137 137 142 141 133 136 130 131 133 141 137 135 134 133 131 133 131 137 135 135 137 135 133 130 128 126 123 126 133 139 140 143 148 149 151 153 153 154 151 150 146 145 137 124 125 119 114 112 99 98 93 90 94 95 95 97 115 115 112 128 131 130 126 124 135 146 158 159 150 135 125 131 124 113 118 125 121 129 132 123 121 111 102 100 97 95 100 117 136 142 143 135 130 127 129 124 131 132 131 135 137 138 136 133 134 131 133 132 133 134 136 132 134 133 130 127 128 124 120 126 128 132 136 142 143 149 153 150 154 151 148 145 143 138 134 130 125 124 115 109 104 97 101 90 95 90 94 101 104 112 117 126 129 127 132 123 132 146 149 157 152 133 126 123 130 111 104 120 122 125 125 121 107 102 87 94 90 95 103 117 135 146 145 137 130 124 126 129 131 134 136 136 132 137 134 130 137 140 137 138 136 136 138 133 132 134 135 132 132 125 130 128 132 134 132 139 140 147 147 147 145 149 142 141 136 136 134 130 120 121 120 115 113 107 105 102 99 87 98 94 104 107 121 123 124 127 132 134 130 144 138 143 158 133 123 114 131 114 96 120 127 133 122 112 106 89 80 93 96 94 112 125 143 149 141 131 126 124 123 129 124 125 129 131 131 139 138 140 143 145 140 141 141 140 143 141 138 140 138 138 137 139 141 140 138 137 131 139 143 146 143 142 140 136 136 135 134 129 129 133 122 120 124 116 115 116 117 109 102 93 86 94 99 106 115 118 116 121 131 132 140 132 133 134 151 145 126 108 127 123 100 122 134 142 124 112 100 81 86 89 95 99 119 131 147 148 135 121 121 118 126 125 122 122 132 134 139 145 142 139 141 142 143 143 141 145 147 143 143 143 146 142 145 146 145 144 142 139 138 138 141 143 141 139 134 130 132 125 126 128 130 130 128 127 124 122 119 120 113 118 108 94 88 88 94 105 108 115 109 118 134 131 137 139 130 129 144 144 126 117 127 120 108 133 137 142 131 111 98 89 88 88 97 108 128 139 146 148 132 114 117 123 124 123 126 130 133 141 143 144 139 142 150 150 150 151 147 149 151 147 153 154 155 151 149 150 149 147 147 149 141 137 141 136 133 129 123 122 124 120 124 127 130 127 128 135 132 131 129 131 117 118 111 99 91 90 95 101 109 114 104 104 129 130 136 138 132 128 141 145 127 120 130 115 119 143 144 151 138 117 94 88 89 91 104 118 142 148 145 135 121 114 117 120 119 124 131 140 140 143 144 140 143 147 151 154 144 150 152 151 152 156 157 157 157 154 154 154 154 151 150 147 145 134 134 128 126 122 119 119 116 117 118 125 127 127 128 135 135 134 136 138 126 114 109 104 92 82 89 98 106 112 106 93 130 126 130 130 130 137 134 140 139 117 125 119 123 147 152 151 144 118 92 91 94 99 114 127 151 148 138 127 118 116 113 118 121 121 137 140 141 143 141 141 136 143 151 147 148 150 155 157 156 160 157 157 155 155 149 154 150 145 149 143 140 134 128 124 120 118 116 117 116 116 123 125 125 123 124 122 124 126 130 129 127 116 102 106 92 78 79 97 104 106 101 90 116 131 137 127 125 136 134 136 144 123 126 131 136 154 155 160 144 113 91 98 105 111 127 141 152 141 126 117 109 103 104 114 120 127 134 142 138 143 140 136 133 136 144 148 143 145 152 147 152 153 154 151 152 150 143 148 146 138 140 137 129 130 129 120 116 117 115 114 118 111 116 120 119 113 114 110 107 114 116 117 117 112 100 106 93 77 74 90 106 110 98 94 94 123 132 133 123 129 136 138 142 128 131 144 148 166 178 160 143 112 96 101 113 125 130 141 139 127 115 111 105 103 108 115 123 132 135 139 137 143 137 136 137 139 147 146 144 149 147 144 149 149 149 147 147 142 143 143 141 139 137 136 130 129 123 123 120 120 120 118 121 118 113 117 115 108 105 100 94 100 102 100 102 106 97 99 97 79 73 85 108 114 96 101 93 119 129 129 118 127 137 138 141 126 142 154 153 175 187 170 143 113 99 99 128 122 126 141 135 127 114 112 108 109 122 126 136 147 145 146 145 148 144 143 140 139 140 136 134 140 137 136 139 138 140 143 142 140 139 137 140 139 139 137 132 133 130 130 127 124 126 120 123 116 114 111 110 108 97 91 88 84 78 77 83 92 103 105 109 96 86 87 113 121 103 104 98 125 136 133 119 121 137 145 138 132 130 136 171 191 188 183 134 111 98 103 128 123 131 139 142 138 129 123 122 127 132 141 142 148 153 159 156 146 139 124 121 123 119 117 114 123 124 120 124 130 134 135 134 133 129 135 136 145 144 145 139 143 142 136 140 135 126 118 115 109 111 109 106 108 104 95 98 96 92 95 84 83 90 105 103 100 89 95 105 124 107 105 106 124 141 144 129 121 143 162 145 122 130 127 191 204 197 183 145 108 108 106 128 129 137 144 150 145 130 118 116 120 109 115 107 101 111 116 128 135 132 127 123 122 127 122 123 124 124 126 133 134 136 139 144 137 142 139 138 142 151 150 152 147 153 143 148 144 136 134 126 123 127 116 110 126 128 126 124 123 123 118 109 97 93 99 90 100 87 86 100 119 103 100 107 130 148 147 154 135 159 172 160 132 129 177 226 212 211 174 162 120 120 119 133 138 138 141 139 134 129 127 118 125 123 126 126 125 136 137 134 133 129 130 127 125 126 130 124 129 132 130 129 131 135 137 136 133 134 127 128 132 144 148 147 148 144 143 133 139 137 130 129 131 135 119 119 126 130 125 122 123 125 121 109 99 102 107 102 111 107 81 108 110 116 103 114 123 143 150 158 151 178 174 177 142 135 208 238 200 215 190 160 142 116 122 139 143 145 137 134 122 112 111 109 124 120 124 118 125 130 132 122 123 120 124 118 119 123 118 116 117 124 120 122 113 125 132 128 124 128 118 124 130 137 136 133 134 139 135 133 132 133 130 132 129 139 134 122 128 123 120 119 122 128 125 110 101 102 107 105 107 101 69 91 95 111 110 132 119 145 155 165 176 187 178 179 156 135 192 201 186 211 221 172 159 113 123 138 139 146 143 113 99 86 84 92 121 112 118 113 114 130 132 125 129 131 134 125 130 139 131 125 122 124 122 119 112 116 125 134 128 125 121 123 125 127 130 125 127 129 133 136 138 132 122 127 128 132 132 125 125 124 118 112 114 118 117 117 94 83 97 107 109 104 66 73 73 104 106 126 128 138 167 180 180 188 188 165 155 135 160 167 168 196 211 188 180 129 132 134 141 152 139 113 85 84 86 105 114 123 121 122 129 133 129 127 132 127 130 121 137 128 131 130 130 132 128 123 118 115 123 129 122 119 120 122 123 123 120 121 117 110 110 109 113 126 122 118 124 130 119 115 93 103 115 100 113 110 119 97 97 95 78 100 103 105 84 78 76 106 104 134 119 142 180 177 187 186 171 152 150 151 142 153 163 186 189 187 174 141 136 153 161 159 143 134 112 108 117 125 125 126 136 135 141 137 135 150 147 149 139 132 132 121 122 119 117 121 114 119 120 110 118 122 120 120 121 121 119 119 122 126 118 105 104 108 108 103 120 133 139 119 107 97 83 111 117 106 119 118 128 115 94 119 121 96 100 97 83 64 74 111 116 128 124 126 165 182 194 167 156 158 158 153 132 163 151 163 176 183 166 140 146 165 160 142 126 121 109 109 138 129 117 132 131 135 156 175 167 165 157 162 158 134 122 113 108 106 115 116 119 122 126 126 126 123 131 134 138 136 133 142 128 133 126 124 128 130 106 106 127 140 143 140 143 129 105 103 109 112 114 121 105 117 135 122 139 128 111 109 94 68 72 113 114 121 132 119 142 180 172 144 143 159 174 164 108 156 147 135 141 165 156 130 161 156 153 113 85 102 92 116 137 123 121 139 135 138 168 185 183 172 159 167 165 153 137 134 133 123 130 127 134 132 135 125 134 136 141 149 142 146 141 144 137 135 140 126 126 129 131 121 126 137 130 141 141 135 109 112 115 107 100 90 106 118 146 142 133 145 132 111 94 70 73 111 120 114 127 127 137 163 163 151 146 159 191 163 102 140 155 139 124 131 126 105 152 129 148 111 94 95 100 123 144 120 124 135 136 145 160 178 178 171 162 158 149 146 138 135 150 140 149 148 153 155 152 142 145 146 151 151 149 154 147 149 151 144 157 140 128 132 125 140 138 140 132 136 142 136 126 126 122 113 92 106 90 119 120 156 143 143 150 132 106 93 89 115 117 108 119 145 125 144 153 154 159 183 181 160 101 120 149 135 110 113 120 101 147 134 145 104 99 94 107 132 145 125 127 126 132 139 149 163 159 156 144 135 123 130 125 136 145 146 150 153 156 156 156 145 144 151 166 162 155 149 144 153 155 165 173 167 155 146 142 145 136 141 140 143 140 138 127 124 116 113 105 96 92 97 117 147 164 149 146 144 124 99 100 108 106 99 110 134 129 129 148 160 165 188 183 151 91 109 131 139 106 121 141 105 144 136 135 117 106 96 111 135 141 127 139 142 129 124 135 146 139 120 125 110 120 118 119 124 127 131 135 143 141 145 140 136 140 149 168 155 145 141 142 145 158 157 154 158 149 138 129 126 120 127 140 138 133 139 126 112 101 107 116 107 122 119 124 146 156 151 145 146 111 85 98 94 99 102 100 117 125 144 155 158 173 171 168 152 95 104 138 161 136 134 155 111 142 144 126 116 123 98 114 134 144 140 150 146 141 128 124 128 119 109 105 98 101 101 109 104 111 119 131 126 123 125 125 124 129 144 151 142 139 134 135 139 150 152 142 143 118 107 97 109 109 116 118 116 112 111 102 99 99 112 123 133 132 120 122 134 154 149 144 135 109 74 85 107 88 100 108 121 116 140 158 182 184 182 167 156 89 117 143 177 174 128 149 123 135 150 133 117 119 107 129 125 131 144 146 151 145 134 126 127 121 111 102 110 110 101 111 108 111 112 116 114 113 103 103 104 111 131 119 122 119 125 136 125 143 152 134 121 116 109 102 115 111 118 113 114 114 111 114 104 116 124 120 139 135 118 114 137 153 146 140 123 112 99 99 101 86 84 99 115 115 141 169 193 184 188 164 153 105 111 161 171 168 143 139 147 140 152 135 109 116 116 130 126 126 136 122 147 142 130 137 137 135 130 133 131 126 111 116 117 112 116 115 117 117 103 102 88 88 117 125 121 125 127 140 127 149 137 136 124 125 117 111 117 104 97 112 114 114 110 102 101 99 97 114 128 131 126 134 147 156 134 143 113 115 110 107 97 92 87 104 113 116 155 183 198 180 192 149 161 99 108 162 162 162 149 126 139 142 137 133 106 115 127 129 130 118 136 116 124 147 135 143 148 143 147 152 154 141 125 124 123 119 128 120 126 114 103 99 101 106 124 131 140 129 146 147 149 159 149 164 139 140 140 131 136 128 113 128 127 118 113 116 112 107 111 120 136 139 142 143 161 134 130 146 120 119 117 104 100 100 104 119 117 116 147 189 198 188 176 151 157 101 102 148 156 144 128 110 128 146 133 118 111 119 136 133 134 123 146 136 131 160 151 156 152 145 148 154 154 139 129 112 120 129 124 122 114 105 100 101 117 106 127 136 133 133 156 146 154 153 152 159 144 151 147 147 151 148 128 137 139 123 130 134 130 127 124 129 137 147 154 160 164 137 135 147 131 122 108 95 109 116 126 147 124 128 149 183 225 182 181 139 172 101 96 134 147 136 124 108 130 167 143 114 112 131 140 140 140 134 148 145 136 155 155 159 159 144 140 144 151 148 131 112 125 130 117 105 106 104 104 108 114 117 123 149 130 146 157 152 150 150 164 162 153 146 152 147 157 153 132 131 147 130 133 138 142 140 137 137 141 141 146 160 159 138 140 135 137 119 105 94 106 124 155 149 132 148 150 192 215 187 171 140 169 106 78 118 143 144 166 133 115 159 149 124 127 130 149 151 153 146 147 159 135 142 162 153 163 155 147 142 136 140 131 130 129 120 116 110 109 102 121 117 106 107 120 133 139 146 153 152 149 160 161 167 157 135 150 140 145 146 139 122 133 140 122 125 137 133 132 131 131 132 135 150 148 140 153 134 137 110 95 95 101 140 168 147 138 152 147 207 208 192 162 156 155 118 67 107 149 168 181 147 135 134 169 116 138 148 160 160 155 156 146 166 154 146 167 177 162 162 165 160 159 152 152 143 131 130 128 129 116 112 118 113 108 108 122 132 138 153 157 152 139 160 156 157 158 139 144 142 138 133 143 134 132 138 138 124 133 133 130 136 131 124 133 150 141 146 156 133 130 105 100 92 125 142 159 148 143 156 160 217 195 201 161 155 153 122 70 93 141 173 194 141 159 152 163 143 125 152 164 169 160 161 155 164 169 155 152 185 179 169 175 171 163 160 150 141 138 150 149 132 123 119 118 117 121 117 123 131 145 153 153 131 151 150 162 148 142 137 127 134 141 141 138 144 131 133 141 147 134 135 136 139 135 129 144 148 139 153 143 142 122 106 98 99 140 143 149 149 149 151 159 200 202 192 162 157 161 123 77 74 128 167 169 131 142 147 175 158 132 136 155 165 162 161 160 156 167 150 154 160 181 178 167 165 153 144 141 142 151 158 142 125 120 123 130 127 126 126 131 146 153 140 143 166 145 151 160 152 133 132 119 108 118 141 126 132 126 112 129 137 145 141 142 132 131 134 145 134 141 156 130 145 117 110 106 113 141 137 130 167 155 148 132 186 211 181 166 153 162 120 97 66 87 143 144 134 134 144 163 149 150 150 149 152 155 149 151 146 146 162 162 162 162 167 172 160 140 134 139 152 154 142 129 125 125 130 127 127 132 146 154 148 137 139 143 157 163 156 157 168 145 125 124 108 105 113 126 114 127 120 114 123 125 152 136 124 123 137 129 131 149 143 143 131 119 115 108 116 139 121 132 169 159 142 121 173 195 174 169 151 178 95 113 81 78 134 136 125 124 136 157 149 151 152 156 155 159 158 155 157 156 158 167 168 162 161 161 165 156 152 159 150 142 132 129 129 128 125 122 133 148 152 152 141 138 150 144 143 157 158 173 158 149 143 116 106 105 98 112 125 119 129 121 111 111 121 127 131 124 119 130 141 129 142 143 122 121 111 118 109 128 123 132 157 157 124 152 176 172 179 159 157 184 72 93 100 90 140 140 131 123 143 153 150 149 156 156 155 153 156 148 152 153 150 157 161 164 166 159 153 144 147 152 144 142 139 138 130 128 134 136 141 150 150 137 137 143 149 145 134 143 145 159 162 151 140 146 110 89 71 90 100 104 104 116 111 88 104 123 128 120 133 132 129 135 136 130 126 118 117 129 109 119 127 138 160 143 134 163 168 154 164 147 165 190 52 79 100 92 130 161 146 145 141 151 148 154 157 158 153 151 152 149 150 155 155 157 161 160 157 154 145 140 141 144 137 143 140 140 140 143 135 148 149 148 134 135 125 129 132 143 135 144 145 145 139 139 142 147 152 139 116 102 113 112 115 114 121 114 94 101 108 116 113 136 138 140 139 132 128 125 121 126 110 122 136 162 167 171 145 160 164 142 157 142 175 182 51 61 88 76 113 153 152 147 143 144 141 155 153 158 146 149 154 149 157 157 160 159 167 162 155 154 145 139 139 141 143 142 141 134 134 137 139 153 153 141 141 149 145 148 142 140 133 144 143 131 125 120 131 134 141 135 128 122 122 121 120 113 118 110 113 109 106 109 112 117 125 121 131 131 129 129 135 137 116 121 147 162 175 184 152 167 154 156 144 149 181 169 76 52 86 73 94 152 135 134 144 142 139 156 152 154 146 145 150 149 155 157 159 164 169 163 149 143 141 136 133 134 136 141 139 135 130 128 143 149 141 142 155 157 157 163 156 145 142 153 152 130 122 113 122 126 124 127 132 126 120 122 132 121 120 123 116 117 121 127 136 140 147 149 156 156 148 138 143 138 129 139 150 163 177 176 151 167 158 160 124 168 185 170 97 81 90 89 74 126 138 124 153 156 139 149 154 150 146 144 141 140 149 152 155 165 170 167 168 158 153 154 149 142 139 142 141 138 130 145 159 159 155 159 160 167 177 167 167 157 159 157 164 145 132 126 124 132 124 115 109 113 116 118 125 128 121 120 126 113 116 126 139 147 151 155 152 160 149 145 149 148 146 146 151 169 175 166 160 166 154 147 127 183 177 171 105 108 105 111 73 107 152 127 158 161 138 142 158 151 143 133 128 136 148 153 150 167 178 175 173 165 168 170 167 164 157 156 151 148 146 156 167 167 153 155 158 167 176 168 166 166 162 156 156 163 146 146 145 148 145 130 114 111 106 111 113 115 117 121 129 124 117 132 146 157 153 151 152 156 151 149 154 154 147 159 160 164 169 159 167 156 144 137 131 185 170 176 119 112 119 125 95 102 161 150 158 166 147 147 149 147 145 127 129 135 146 158 156 161 180 183 178 178 176 179 178 170 166 165 164 161 161 170 163 168 162 155 157 164 171 171 176 169 161 159 153 169 170 151 154 151 149 138 125 113 105 114 114 113 117 128 141 131 134 142 155 164 158 149 154 150 150 153 152 154 149 165 156 166 173 167 159 147 143 125 141 178 177 191 127 128 127 137 122 114 163 185 181 163 149 146 146 142 143 121 128 133 142 158 161 156 181 186 194 194 192 187 182 177 177 188 184 183 182 179 165 172 179 176 169 188 191 185 187 181 169 166 164 182 178 159 156 154 148 150 138 123 114 111 118 114 121 128 126 127 136 144 162 165 157 153 152 145 152 151 154 144 147 163 150 166 169 151 142 147 135 126 143 184 186 196 129 134 136 149 142 137 164 183 198 171 155 139 150 141 138 123 128 134 136 149 158 162 172 186 189 202 194 196 192 183 187 194 200 190 192 187 178 183 192 190 182 185 203 203 202 190 187 179 181 190 187 168 162 155 156 154 144 128 124 112 118 117 117 121 115 125 134 145 160 160 159 155 148 145 150 150 154 137 147 144 140 147 143 138 134 146 130 125 151 193 188 193 126 135 132 146 152 145 162 186 194 180 152 140 156 135 130 124 130 135 131 140 156 164 170 177 178 187 196 201 195 190 188 193 190 186 183 189 188 198 198 190 183 193 204 207 200 190 186 185 189 197 194 183 176 159 158 155 137 126 121 118 114 125 121 121 121 122 135 146 154 156 157 155 146 147 153 150 148 143 144 135 135 132 137 140 133 140 123 127 149 197 186 191 130 129 130 137 144 140 158 180 191 189 154 150 166 137 129 122 128 135 136 139 152 160 168 172 168 170 182 184 191 194 179 186 188 187 179 178 191 204 205 198 192 195 205 198 191 183 187 183 188 204 202 192 177 157 145 140 121 114 113 111 104 116 119 119 131 122 136 146 143 154 155 154 143 148 151 144 140 137 142 134 132 141 138 134 126 124 122 122 157 189 180 190 130 131 128 136 140 129 139 176 185 179 156 156 172 141 129 121 122 132 134 137 148 152 158 156 151 156 162 172 186 186 167 165 172 172 168 165 177 198 196 192 184 189 192 191 191 166 166 176 196 209 214 186 172 162 138 138 127 115 103 99 89 100 112 115 127 133 140 143 143 152 154 147 139 145 152 136 137 139 131 127 134 131 135 119 111 123 112 132 163 183 173 184 127 132 123 135 142 120 123 149 165 175 161 162 173 147 127 122 126 125 129 140 138 139 139 147 134 149 154 169 190 186 164 157 150 151 142 146 144 172 171 159 154 163 176 173 191 176 161 177 178 196 187 161 157 148 134 138 124 116 103 90 83 84 102 109 127 130 143 145 147 148 145 139 133 141 149 137 130 141 116 136 134 129 128 112 106 115 102 132 176 180 171 184 128 130 125 137 132 127 111 127 147 159 157 166 173 144 124 125 122 125 124 130 126 128 129 137 131 138 141 151 170 178 151 141 139 133 120 119 117 123 124 116 128 128 135 146 158 164 155 160 163 163 163 142 142 135 134 122 108 106 92 92 90 83 89 106 120 127 146 148 148 150 144 142 135 148 149 139 125 133 119 133 134 137 120 108 113 109 109 141 174 178 169 186 126 130 125 130 141 129 106 113 130 143 138 157 154 144 125 129 119 119 123 130 127 126 125 129 133 132 129 139 147 145 136 118 123 115 103 96 89 85 77 73 75 90 85 93 107 116 114 106 117 124 130 126 130 126 119 108 99 89 86 87 89 86 93 103 119 133 143 149 155 151 155 146 135 146 144 138 130 128 122 128 130 133 116 108 114 109 130 156 174 173 168 176 129 129 128 132 142 138 110 104 117 132 125 139 142 138 128 130 124 119 123 130 129 129 120 116 127 123 110 123 125 126 115 105 104 104 99 80 60 56 48 34 25 34 41 48 49 69 63 60 74 85 95 94 85 95 92 86 86 89 83 82 89 82 96 104 121 134 144 149 158 148 156 151 135 146 141 133 127 123 120 130 131 135 127 119 119 133 144 167 171 173 168 176 134 130 127 133 139 142 116 99 111 118 117 130 142 133 126 134 125 123 125 129 129 132 122 117 116 114 105 107 115 109 104 102 100 96 87 66 50 30 24 17 7 6 12 18 16 20 18 27 36 43 63 73 63 61 61 58 67 74 69 68 70 75 99 108 121 123 140 150 157 148 153 144 137 139 141 136 127 120 118 136 130 141 147 132 135 146 150 172 171 171 172 174 127 134 130 132 144 130 125 101 106 117 110 120 136 127 119 132 132 128 129 128 132 129 126 127 113 115 108 96 98 103 100 98 89 78 65 54 37 20 14 15 12 0 19 26 8 0 9 13 22 24 36 48 51 43 46 43 49 44 47 54 65 75 87 102 107 119 136 142 152 153 150 144 141 131 140 130 126 125 121 140 133 149 151 142 135 148 156 173 173 165 170 171 125 131 133 133 136 138 128 111 105 118 111 116 126 123 112 126 140 132 127 130 133 124 129 127 118 121 112 103 101 113 110 105 91 70 45 42 40 43 42 36 37 25 22 35 25 19 25 35 40 41 38 44 41 38 38 52 49 38 45 59 64 68 78 92 101 114 132 139 152 150 149 149 146 132 133 126 127 125 126 147 130 146 150 141 137 147 166 174 172 162 168 170 127 130 133 134 134 140 140 114 117 118 114 107 116 124 116 124 139 133 124 129 136 133 135 137 138 150 138 130 123 133 129 114 108 100 88 80 77 95 95 83 74 59 52 55 50 51 59 72 79 69 64 63 72 70 66 76 67 49 51 62 66 74 85 96 104 115 126 147 153 150 149 146 142 132 132 122 135 134 132 141 124 146 149 134 141 144 167 179 169 159 171 166 132 131 135 135 132 151 132 114 123 117 119 103 114 126 123 127 131 136 123 122 131 138 138 146 147 149 155 151 151 142 134 130 121 126 129 132 131 130 134 139 135 122 113 101 91 90 113 112 99 95 89 92 95 91 75 74 69 68 62 74 76 83 96 102 117 119 132 151 154 149 145 146 139 136 138 128 137 136 138 139 127 152 140 138 139 152 168 175 165 162 166 164 130 130 136 131 141 147 120 116 120 117 131 100 99 123 123 111 125 137 122 122 134 143 149 150 150 149 150 153 147 138 135 134 134 130 146 147 145 144 140 151 151 146 148 149 142 138 132 125 119 120 112 104 102 93 89 90 83 78 70 86 90 81 94 112 136 144 152 161 164 156 153 148 143 142 141 130 140 131 140 128 123 156 142 143 138 155 173 172 167 163 159 160 124 131 130 132 153 144 95 110 116 104 114 103 90 125 117 102 114 121 123 124 130 144 150 149 156 154 153 159 151 142 147 144 147 159 162 158 161 162 153 169 167 162 165 162 152 138 122 130 137 139 131 127 123 117 119 107 103 102 97 95 96 101 110 121 139 145 157 162 166 163 159 157 151 150 147 129 131 131 136 122 127 153 146 140 142 159 164 166 165 163 158 155 124 132 135 138 163 112 66 111 104 105 105 115 82 109 118 90 96 107 122 127 131 145 150 149 150 150 143 154 152 143 146 149 149 161 161 159 152 160 159 168 170 179 181 179 167 165 150 163 160 161 157 142 145 129 127 120 119 123 119 116 112 116 123 128 141 149 159 166 167 164 157 159 152 152 145 128 134 135 127 115 134 153 141 135 150 162 153 163 163 157 155 151 137 140 136 147 151 76 75 98 102 116 111 114 97 103 124 98 85 94 115 124 126 132 143 152 143 142 140 147 149 146 145 150 147 153 158 161 157 153 150 148 148 159 157 152 150 153 158 156 150 153 152 151 153 141 133 129 130 131 124 127 118 117 123 133 140 150 162 167 165 159 158 153 140 155 136 121 124 132 123 113 138 144 138 137 153 160 151 153 157 164 150 149 140 137 140 154 118 74 79 100 114 128 124 119 123 102 109 99 77 83 102 108 115 114 114 133 124 122 124 134 135 144 140 133 138 147 154 160 161 161 159 158 148 141 130 129 131 128 133 122 119 127 133 133 131 130 132 130 133 128 125 127 126 123 125 132 144 153 159 168 164 159 147 152 141 152 123 113 118 129 124 115 143 135 135 146 161 151 152 148 154 155 149 149 144 138 145 128 112 90 79 85 104 140 138 116 120 110 107 98 89 86 94 102 108 111 117 121 124 119 120 120 120 120 120 113 118 121 125 127 126 138 135 137 125 120 118 114 95 92 87 81 91 101 112 125 130 132 129 128 125 124 121 122 130 132 125 134 143 154 161 167 166 156 146 150 146 150 117 118 113 122 117 126 141 130 138 155 161 150 148 146 153 156 152 142 138 144 136 117 107 92 70 72 121 156 148 120 122 129 125 104 111 94 91 98 109 108 128 122 125 122 125 119 116 112 113 110 108 111 109 110 113 109 107 98 103 95 91 96 96 95 93 97 91 94 107 112 122 117 115 119 124 119 123 125 128 134 136 135 140 158 160 159 166 150 150 148 147 136 105 125 109 105 109 127 139 131 138 155 153 144 147 142 152 155 148 146 148 150 134 116 114 99 71 86 146 182 162 148 145 140 136 121 118 108 99 94 111 122 127 134 135 138 134 130 123 120 121 115 113 110 110 109 112 109 110 114 104 104 97 95 100 99 96 101 105 107 105 105 107 107 107 114 122 124 133 132 131 138 144 138 150 154 160 155 156 144 150 147 155 127 99 122 110 87 109 108 139 127 133 149 149 147 146 143 148 147 146 151 148 149 133 115 126 126 89 121 169 194 185 156 150 140 145 146 121 111 105 108 121 123 133 127 139 142 143 137 136 129 130 130 126 125 125 118 118 118 118 122 121 127 129 112 112 114 109 109 116 111 113 111 113 110 118 124 127 129 128 137 139 146 153 157 159 157 160 154 149 150 149 142 161 122 109 107 92 95 104 92 127 125 118 135 151 145 154 140 150 148 145 148 144 152 130 113 159 145 108 134 171 188 183 162 157 141 163 152 129 113 105 113 123 128 125 131 135 144 146 140 141 143 138 137 138 138 141 137 138 131 131 130 127 125 125 126 124 127 127 122 124 120 121 120 118 120 125 130 134 134 140 143 147 154 163 162 160 159 154 154 147 152 152 135 151 143 120 104 74 99 106 88 116 114 119 120 141 150 160 148 149 154 154 147 144 154 131 139 170 158 112 130 166 173 191 181 173 165 177 154 132 119 108 115 122 131 132 129 129 128 137 141 142 137 133 134 124 128 131 132 133 132 137 135 132 133 131 125 129 125 119 119 119 119 122 124 127 130 132 137 133 138 147 152 156 158 168 162 162 158 156 149 146 147 156 133 144 148 136 104 81 84 90 98 108 114 111 114 123 141 156 150 154 155 159 152 169 161 149 161 181 173 120 116 169 174 189 196 196 191 182 158 130 124 121 117 123 131 134 125 122 126 120 125 126 121 122 123 108 117 115 118 122 117 113 110 110 116 118 119 120 122 119 119 118 120 121 120 118 122 121 128 130 129 151 144 156 157 166 166 167 159 157 147 143 149 159 133 146 148 138 118 91 89 89 101 114 96 111 107 111 120 140 145 147 147 154 153 168 164 159 177 183 179 112 121 163 177 178 211 227 196 181 163 129 118 134 120 115 133 138 131 128 125 115 114 110 114 112 113 100 103 103 94 98 100 101 100 104 103 98 99 102 109 114 116 115 117 116 120 119 123 118 122 127 129 144 150 153 162 159 156 168 160 155 148 139 152 165 142 144 137 143 132 99 106 109 102 117 88 101 110 107 108 124 140 145 146 143 149 161 170 167 188 178 163 114 120 161 162 198 229 238 200 184 164 118 121 124 129 125 130 136 137 135 127 119 108 107 99 104 111 103 105 108 93 92 94 89 87 92 91 88 88 88 91 92 98 103 107 112 120 119 124 121 124 127 138 146 153 161 170 161 161 166 159 150 152 142 161 162 135 127 132 151 139 115 111 122 119 102 90 88 113 101 105 108 134 143 153 138 141 155 176 177 198 168 144 125 127 149 157 212 255 222 203 180 163 121 121 124 118 137 133 127 135 133 136 115 106 105 98 100 115 105 100 100 99 95 96 91 96 87 89 89 84 88 78 84 84 94 98 103 111 113 116 120 126 133 146 150 163 163 170 169 165 167 154 149 143 149 158 154 125 133 124 163 157 125 129 141 137 114 93 97 113 111 107 99 115 133 148 144 137 163 181 187 194 160 138 118 128 132 166 223 251 223 186 191 151 122 123 129 122 134 134 131 125 132 138 128 112 103 94 97 107 102 104 96 101 101 108 105 106 101 93 101 99 100 97 96 99 102 105 108 118 117 113 122 131 148 156 159 166 173 172 174 169 165 152 148 146 150 145 140 134 137 126 172 177 151 153 145 151 128 100 104 117 119 103 95 108 115 124 128 129 183 182 189 182 159 131 118 133 128 169 220 240 204 183 202 150 124 126 126 135 121 126 138 129 129 140 128 122 116 98 96 100 96 95 100 103 111 110 121 119 116 113 127 125 121 122 112 127 127 132 126 128 129 131 141 150 158 156 166 167 181 176 170 174 165 155 151 152 144 130 133 133 141 145 175 172 165 163 148 142 145 113 102 115 115 100 99 98 106 112 115 108 185 190 173 176 158 121 122 135 127 168 224 218 183 173 191 160 133 137 143 140 126 121 134 139 129 140 127 124 124 113 101 100 102 99 103 103 104 107 113 125 124 126 128 134 129 127 125 129 138 138 147 144 146 148 156 153 164 175 171 175 179 173 168 167 161 152 150 146 136 140 138 130 155 163 176 174 164 183 150 137 138 123 110 109 114 103 101 96 109 102 105 103 179 171 157 161 149 118 133 124 133 158 203 195 163 171 166 163 144 136 155 137 124 123 129 139 132 137 136 131 122 123 110 109 104 96 103 103 107 110 116 121 126 131 126 132 135 124 129 129 137 144 148 151 156 163 161 165 171 183 176 179 178 173 165 160 152 143 148 143 138 143 146 128 148 170 179 186 172 191 156 128 132 115 113 105 119 102 95 92 101 108 97 104 162 142 144 142 128 110 134 116 137 144 196 177 126 166 162 149 154 153 153 145 128 124 135 142 140 132 132 135 122 124 117 111 110 109 101 108 118 117 120 113 120 124 126 116 129 125 126 143 141 151 147 152 165 165 167 170 168 168 182 176 165 166 157 146 140 136 139 143 144 140 140 134 147 176 175 175 183 185 162 120 138 110 118 114 116 112 92 96 93 106 97 100 141 112 121 131 105 104 125 104 116 126 174 153 104 159 168 138 163 167 162 150 135 132 139 147 147 133 134 132 129 121 118 114 113 106 107 109 116 119 118 118 115 113 113 111 120 124 131 141 144 142 144 147 161 163 164 163 172 174 173 164 159 147 143 133 129 132 135 143 142 151 133 140 151 187 169 167 142 167 155 129 125 121 119 133 120 114 98 88 92 98 98 83 123 93 118 121 94 97 110 94 104 105 141 144 112 145 162 142 165 169 171 170 147 139 141 153 141 142 137 128 133 130 125 123 121 116 113 110 110 118 117 117 118 121 119 119 124 126 132 139 144 145 142 144 154 149 155 156 168 164 154 153 144 141 136 120 132 130 134 140 154 156 136 152 157 199 171 157 124 141 128 126 126 120 111 135 125 106 119 93 91 89 88 71 115 90 116 97 75 90 94 90 106 88 126 134 112 132 151 146 170 168 179 172 163 140 145 153 133 137 138 135 132 130 128 138 132 127 127 125 119 120 123 125 124 126 128 130 136 134 136 137 140 142 136 139 138 143 148 141 142 144 143 142 140 133 122 123 137 132 132 147 158 151 155 157 173 196 183 147 117 115 95 102 123 116 108 131 141 123 126 109 96 91 88 71 89 86 97 69 40 70 71 88 102 82 111 121 98 116 149 163 163 169 179 171 169 159 148 152 136 130 133 133 131 132 129 133 136 139 139 140 141 135 137 138 138 141 142 146 145 146 141 138 135 131 128 134 137 137 135 130 137 136 139 135 133 123 122 131 142 132 134 142 164 128 164 178 188 198 174 142 107 84 85 76 93 120 115 123 144 136 118 112 93 86 87 81 84 75 69 40 22 59 77 90 93 77 112 126 93 127 156 178 164 165 187 170 167 171 157 159 146 132 128 129 120 127 128 129 129 138 141 139 141 147 148 152 155 154 154 154 152 154 148 141 145 141 145 142 141 136 136 131 130 132 134 128 128 130 133 136 140 141 135 140 164 130 166 191 210 205 161 132 97 72 73 63 74 90 128 123 134 138 118 105 89 79 83 83 71 56 52 22 26 61 98 93 92 82 125 144 117 133 153 171 164 170 190 173 159 174 165 162 151 147 133 131 122 115 118 120 124 126 141 139 141 144 145 146 152 156 161 160 158 155 153 150 154 150 148 139 137 132 130 126 128 132 125 129 140 136 133 139 134 141 132 143 156 146 175 194 215 206 153 136 74 74 68 51 73 82 121 116 115 128 114 112 92 76 78 84 