P2
92
112
255
164 155 155 160 156 152 147 149 152 144 142 145 141 143 141 134 125 120 108 101 99 82 79 89 80 85 88 89 113 141 150 157 178 187 184 168 166 183 177 176 169 169 159 151 127 133 118 133 119 97 89 78 92 90 106 108 102 114 99 106 102 97 92 99 95 87 93 100 111 105 97 101 111 122 120 118 111 115 111 109 113 114 111 109 111 109 109 110 117 111 120 121 159 159 157 161 156 151 151 146 149 145 139 145 140 136 130 120 124 112 102 92 90 87 78 68 70 75 99 112 132 149 161 167 172 167 163 149 148 173 160 159 168 161 153 145 125 129 134 141 126 119 106 102 105 103 111 118 112 115 113 102 108 114 98 101 98 88 80 86 96 93 103 101 105 107 123 131 116 114 118 108 114 112 117 114 112 111 110 111 116 117 112 116 158 157 159 159 155 154 154 146 144 144 139 139 133 133 131 126 112 101 93 95 84 80 76 80 87 94 116 132 133 138 147 156 152 140 132 134 127 133 151 151 138 140 139 139 131 129 135 141 135 130 131 137 136 136 135 139 132 123 119 125 112 119 105 107 112 98 93 90 82 83 92 106 101 109 119 125 125 123 113 119 111 113 118 118 119 111 114 108 111 118 112 114 161 153 162 158 154 152 157 148 142 137 137 135 129 127 126 116 98 89 96 101 92 83 86 88 105 105 108 128 135 118 119 127 122 114 103 115 113 118 127 128 137 137 125 137 137 135 133 121 145 137 140 139 168 144 155 156 154 141 127 136 132 115 118 114 126 112 90 95 90 82 81 91 100 95 121 112 119 126 114 111 115 111 126 122 120 115 111 112 111 119 118 115 158 157 158 157 156 150 152 147 140 134 128 126 122 111 107 94 96 100 92 86 95 101 107 93 96 105 98 91 94 93 87 90 108 97 105 103 113 114 118 107 123 124 123 136 145 133 119 120 130 136 144 130 145 153 164 155 153 145 134 142 145 131 131 120 135 132 100 90 87 87 80 85 102 103 90 104 111 117 115 111 113 119 114 123 123 120 113 114 108 113 122 117 160 159 157 159 155 154 144 151 144 137 128 117 116 106 108 107 105 111 99 94 109 110 109 101 97 93 82 65 61 62 66 78 82 87 93 94 116 117 114 109 107 107 118 116 132 135 123 121 127 120 134 132 138 144 147 148 131 138 144 142 136 137 131 108 123 138 118 98 93 98 93 92 103 114 86 91 101 111 108 107 112 118 120 117 122 122 123 117 115 110 119 123 156 158 155 154 156 155 144 141 134 131 126 111 115 116 124 114 124 123 116 111 117 113 105 111 95 88 73 69 62 74 70 73 74 80 88 83 101 113 114 108 101 105 116 119 119 134 130 123 121 126 112 127 134 136 129 142 130 121 120 128 131 113 124 100 97 112 120 101 107 115 124 119 115 106 93 79 106 112 104 108 110 111 118 120 116 114 120 118 117 114 113 119 155 160 154 151 154 152 150 141 140 143 131 122 130 135 131 123 128 131 135 130 123 105 100 107 102 87 70 72 80 80 83 81 84 89 101 95 97 97 90 103 113 106 114 117 115 125 133 132 123 136 125 132 126 139 133 134 135 123 114 98 109 105 106 97 81 93 108 118 107 113 130 136 139 120 110 94 104 114 110 110 111 114 113 115 115 110 115 118 117 118 113 119 157 156 149 154 149 153 151 153 147 146 133 145 154 150 144 126 134 131 131 116 119 104 88 85 86 81 80 82 78 79 83 94 94 96 95 98 92 105 88 97 106 104 113 114 123 118 132 136 137 136 138 142 144 139 133 135 138 136 118 94 101 103 87 79 86 83 91 109 117 117 125 129 147 122 96 104 103 107 106 101 106 109 113 112 108 114 109 112 125 124 121 115 156 152 150 147 150 147 149 146 138 129 136 148 150 138 135 136 131 128 129 119 100 96 83 66 69 73 85 87 86 87 84 98 101 85 95 98 94 95 90 92 99 108 109 110 110 111 113 122 130 126 128 129 141 140 126 116 140 151 140 107 99 110 104 107 98 107 90 88 101 115 123 127 141 116 118 114 115 118 115 105 102 96 99 108 114 108 116 114 125 130 125 119 153 146 147 148 150 144 150 137 131 131 133 139 140 137 137 138 140 128 115 107 98 75 76 60 57 67 79 81 89 88 89 82 84 79 84 85 86 84 80 90 97 99 112 110 99 118 101 107 114 117 116 118 125 130 132 115 122 141 143 132 114 117 112 121 113 103 104 103 108 97 112 119 112 113 125 124 120 111 107 106 104 91 79 101 110 107 112 119 120 127 123 126 149 146 146 139 147 141 132 132 124 125 130 130 137 144 146 147 128 124 107 90 81 68 68 66 64 54 56 72 75 79 74 72 77 78 72 78 82 82 83 76 92 84 97 109 106 114 117 103 111 113 117 114 118 123 131 126 129 129 134 140 129 130 119 125 127 114 105 122 133 124 117 116 102 104 117 116 123 121 113 102 86 79 82 88 96 106 111 109 119 120 122 122 146 141 142 142 141 128 128 126 116 116 117 122 143 152 157 135 119 116 92 73 67 60 68 72 72 63 54 59 57 64 70 80 82 70 73 67 74 80 85 75 83 81 89 101 98 97 102 109 102 98 107 106 106 113 122 124 129 138 129 133 138 133 131 132 133 131 120 125 124 130 117 131 126 109 112 117 117 123 124 109 99 87 81 81 82 99 98 106 119 119 126 123 143 144 139 142 132 128 120 129 117 115 126 137 156 154 143 130 109 89 68 61 65 72 69 72 68 63 57 60 45 55 58 66 71 74 72 77 81 74 83 80 84 86 83 80 90 88 95 97 105 95 97 101 107 109 115 119 130 132 127 129 133 140 131 133 136 130 125 133 121 125 120 120 130 130 108 102 104 117 120 113 112 101 78 76 75 82 87 98 106 117 130 118 144 143 139 134 132 131 132 111 102 111 135 148 161 144 138 126 107 75 67 76 74 76 73 72 73 65 66 66 60 53 53 59 61 67 66 65 66 69 65 67 68 76 82 80 75 83 92 88 94 86 92 92 95 104 106 112 122 127 125 123 128 129 127 131 139 137 120 131 132 115 121 112 129 125 114 104 93 122 134 129 123 102 93 67 67 72 87 100 94 115 123 113 140 145 136 135 129 134 125 107 103 124 145 159 159 144 136 118 93 75 95 97 80 80 84 76 83 72 68 70 67 68 61 53 63 60 64 62 54 57 69 73 72 75 80 77 75 79 81 80 83 95 92 92 91 102 103 110 121 121 125 119 126 130 120 128 137 139 127 122 133 131 118 108 120 116 104 121 109 112 120 133 138 116 103 83 68 68 73 91 99 93 106 117 140 142 134 130 123 122 119 101 114 134 160 175 169 153 129 117 98 96 109 104 88 90 94 86 84 79 80 85 69 66 68 65 66 62 69 69 72 66 68 69 80 72 69 82 83 83 80 86 76 83 88 85 86 104 106 113 121 119 125 113 115 116 117 122 129 130 133 125 127 130 135 128 122 133 125 118 118 99 111 110 142 129 119 97 76 66 64 77 81 90 90 110 138 137 136 126 116 111 106 98 112 147 171 171 151 144 129 124 115 128 131 120 107 111 105 94 97 98 109 94 85 78 83 78 72 74 73 73 77 75 69 70 84 80 87 90 91 93 88 88 88 83 85 92 86 90 96 104 111 110 120 116 113 126 119 130 128 127 134 130 130 132 133 130 130 140 129 122 115 119 94 106 110 133 116 104 100 79 70 66 70 86 89 104 134 137 138 120 109 100 99 107 123 168 179 178 162 145 134 129 135 140 136 128 118 121 117 124 119 122 124 109 106 106 100 99 92 92 89 83 84 89 88 89 93 93 91 91 103 106 101 98 100 93 88 92 83 86 94 104 120 121 118 129 124 131 124 133 131 130 137 139 141 136 139 139 142 143 137 134 117 118 104 94 108 108 120 117 113 93 79 76 77 83 90 100 133 140 137 113 98 101 103 122 153 182 191 188 166 149 147 147 150 159 145 150 140 142 141 151 144 146 150 139 131 122 121 120 111 109 110 105 105 111 109 110 114 113 109 111 114 119 121 115 114 101 93 96 85 95 105 110 119 133 130 132 133 135 134 136 139 137 141 136 144 142 144 145 136 153 141 136 137 108 108 100 109 119 115 122 112 100 77 88 87 87 84 99 129 141 137 115 96 86 109 134 160 181 193 182 163 156 164 157 162 164 160 166 161 162 167 172 164 163 164 149 140 134 143 131 134 132 134 135 139 132 131 134 130 137 130 132 127 126 130 118 120 108 104 102 102 106 106 112 119 132 140 134 140 135 140 139 146 141 147 140 139 142 142 149 142 152 159 133 129 130 110 103 96 123 115 104 109 99 84 75 80 91 82 88 132 146 136 100 88 88 126 137 158 184 180 174 154 167 171 166 171 168 175 182 180 183 192 173 171 170 168 157 149 149 153 151 149 149 149 152 153 152 148 147 145 145 140 139 138 136 136 128 121 118 112 113 111 107 107 116 125 128 138 143 143 143 133 138 144 145 146 145 138 140 140 147 146 157 167 152 124 142 130 121 104 106 109 120 89 103 80 69 71 78 83 80 133 138 127 105 90 98 124 122 167 177 169 153 160 172 179 171 171 179 181 186 190 184 181 167 170 172 155 156 156 156 162 164 161 155 157 151 150 144 143 142 141 137 141 135 135 136 136 133 129 126 118 119 119 119 116 126 134 138 148 158 162 165 155 151 147 140 146 142 138 133 140 143 148 148 162 160 149 120 132 121 112 102 98 99 95 97 80 67 67 71 81 87 138 134 114 104 89 104 107 138 165 162 158 144 160 174 169 166 164 185 181 192 182 173 168 160 166 158 150 155 157 159 163 164 155 150 149 140 141 140 132 129 134 123 125 126 125 125 124 123 127 131 131 137 142 140 137 135 148 157 161 167 177 175 169 165 160 154 148 139 133 132 135 137 145 140 158 159 151 127 116 125 124 106 86 109 91 97 95 85 82 58 90 85 142 126 102 97 79 97 116 150 150 143 145 137 155 161 157 160 159 183 180 184 166 159 154 154 154 148 148 148 142 142 145 143 138 131 132 126 119 123 120 117 117 116 113 114 122 128 130 133 133 131 133 138 138 136 136 140 137 154 154 163 164 182 181 172 168 167 158 144 134 131 131 134 130 128 144 145 146 127 115 112 135 130 106 90 91 87 105 79 85 59 62 75 143 103 100 89 76 91 120 147 142 139 125 133 147 156 150 151 156 173 172 158 143 143 138 138 132 132 137 136 130 127 126 126 121 117 119 119 113 114 113 107 110 105 110 116 119 128 129 131 132 128 126 129 127 118 119 128 131 137 147 146 152 169 178 171 168 168 157 149 142 123 130 122 120 126 127 144 133 144 105 122 109 139 124 100 86 87 91 92 85 75 46 66 129 101 80 76 67 89 110 130 126 131 119 129 136 150 148 153 151 153 141 137 133 128 125 122 117 119 121 121 119 119 121 124 120 116 114 112 112 109 107 106 107 98 106 109 108 122 123 123 127 126 125 125 121 116 116 117 123 128 136 140 149 160 165 171 163 162 164 152 144 129 124 111 115 119 125 127 125 129 117 111 114 131 143 117 98 94 88 88 97 78 56 60 123 105 77 75 82 80 99 118 117 129 130 134 131 142 140 144 131 126 119 121 120 115 116 119 116 117 112 111 113 114 115 117 115 116 112 111 107 107 106 102 100 99 106 106 106 114 117 122 123 116 124 121 118 119 116 118 120 128 127 136 144 147 156 160 159 161 160 159 151 130 123 104 105 113 116 113 118 115 115 106 115 138 142 114 94 76 97 85 74 77 57 77 105 99 80 83 85 80 95 99 109 132 131 125 121 130 134 120 109 101 102 109 108 112 115 116 115 110 111 112 115 113 112 112 110 111 108 109 102 100 97 96 95 95 102 106 104 107 109 113 112 108 110 109 113 114 107 109 113 112 121 129 136 140 147 154 158 161 159 158 155 139 131 110 98 107 112 108 109 101 106 109 128 120 138 124 93 97 101 97 72 66 61 81 106 90 76 93 98 99 91 106 117 127 125 105 117 123 127 111 99 89 91 98 101 109 113 115 110 112 113 112 111 107 101 104 102 98 100 95 95 95 92 89 94 94 102 109 105 109 113 106 106 103 103 106 108 111 110 109 101 104 105 109 120 126 138 144 153 156 162 154 155 147 135 124 94 104 111 99 100 92 89 105 119 134 127 137 110 104 103 80 83 68 70 88 109 88 84 107 110 103 94 112 119 125 121 100 122 111 116 99 82 88 86 92 101 106 112 107 107 113 111 108 100 97 89 93 90 89 87 89 89 90 90 89 89 100 105 111 105 114 113 109 103 109 101 102 105 103 109 107 99 107 103 102 105 108 124 125 132 145 156 158 148 151 143 128 99 91 112 99 102 94 75 98 117 137 145 121 140 98 101 96 91 72 85 89 118 90 86 123 120 102 120 113 132 137 111 97 114 107 105 87 81 80 86 94 103 107 110 108 107 107 101 99 96 93 89 87 84 81 79 81 80 80 87 91 94 98 107 110 102 112 112 111 108 106 101 104 99 102 103 101 97 95 95 91 98 94 103 113 113 120 136 150 147 147 150 138 121 89 94 98 89 96 72 81 111 126 151 137 125 122 113 116 106 99 90 75 112 97 100 137 122 113 131 114 130 138 88 87 92 104 99 86 78 86 90 96 101 107 103 100 98 99 93 95 86 84 82 79 70 72 69 70 73 75 87 90 94 94 100 104 103 107 113 112 113 108 103 99 95 100 99 100 92 91 85 84 85 83 89 100 105 102 121 129 133 142 148 140 139 108 93 86 91 89 78 91 103 130 147 152 125 136 137 110 119 125 114 88 103 109 109 134 119 125 121 114 113 112 79 91 97 99 98 79 78 85 91 94 102 101 97 101 100 96 88 85 80 76 74 68 63 66 67 67 73 73 78 85 89 96 98 100 99 105 105 107 104 101 98 93 89 91 90 89 95 90 84 82 83 85 82 93 102 96 108 116 115 113 140 145 140 134 97 79 82 92 79 76 106 123 152 142 156 131 140 126 103 123 135 100 87 110 114 126 125 115 100 113 111 101 82 91 91 96 91 83 76 82 93 98 104 96 99 99 100 90 86 77 70 70 73 70 69 65 68 70 68 73 79 86 93 98 102 103 103 106 104 104 98 99 92 91 86 90 87 88 90 86 83 84 80 82 80 94 97 97 110 109 106 108 112 141 139 138 112 70 78 88 84 94 95 115 147 155 147 146 130 150 125 134 122 101 82 102 118 136 132 111 98 118 117 88 89 87 82 84 81 70 78 84 105 105 101 94 103 99 90 89 82 79 78 79 77 74 70 68 69 71 68 69 76 85 91 94 101 102 105 104 100 97 98 97 95 89 90 90 94 91 92 87 86 81 86 83 88 94 89 90 107 105 97 112 105 126 133 137 115 81 71 83 85 119 114 112 146 154 158 143 138 146 145 150 123 101 68 85 132 155 149 103 105 110 112 86 92 84 75 70 70 71 82 87 105 105 104 109 111 99 99 99 96 99 91 89 90 78 77 67 66 64 66 66 74 81 85 91 95 97 99 96 98 100 94 99 98 97 96 94 99 91 92 92 89 94 88 88 86 93 89 90 96 98 92 102 103 114 128 136 122 96 70 75 81 119 145 118 157 161 165 138 135 155 141 156 141 100 36 85 140 158 150 108 116 98 108 81 91 75 71 72 70 83 88 102 104 114 109 116 117 100 102 104 102 92 83 83 86 93 91 86 83 79 77 79 75 79 83 86 90 95 95 99 97 98 102 101 101 98 96 93 96 87 87 85 85 81 82 85 90 94 95 102 102 103 103 108 108 116 121 138 141 122 87 70 81 113 135 131 158 166 168 149 133 159 159 144 149 103 46 100 127 158 153 117 125 98 98 82 82 77 72 68 77 81 93 113 119 123 113 110 115 105 104 110 108 100 89 86 91 93 97 99 95 93 95 92 90 88 92 89 91 100 101 102 102 102 104 98 92 91 88 86 87 84 78 76 85 79 82 91 98 103 101 117 112 115 117 118 119 126 117 133 157 146 111 88 83 126 130 153 155 173 164 149 140 155 160 151 148 110 74 88 117 144 144 136 119 90 94 78 87 85 60 67 90 99 114 136 142 138 130 124 124 121 120 122 121 114 111 100 106 113 106 105 98 98 102 97 96 94 98 93 98 95 97 98 97 98 97 86 84 82 74 77 75 76 73 73 81 87 85 89 100 109 119 130 128 132 138 138 131 134 133 133 162 151 133 100 88 111 133 171 180 153 163 142 155 144 157 161 135 104 92 86 103 125 139 148 104 91 85 88 75 69 67 89 108 110 122 134 145 135 134 122 124 129 129 133 128 127 124 116 123 122 115 113 109 109 112 106 100 101 99 102 98 103 98 94 95 92 91 86 78 77 75 80 81 83 84 82 93 95 99 95 106 117 126 134 141 148 160 156 153 137 138 126 137 145 138 104 89 96 116 167 180 159 155 159 144 140 151 157 128 96 110 79 94 108 140 145 102 97 117 74 58 87 77 99 106 104 120 120 122 110 113 110 110 119 122 133 140 145 144 139 147 146 139 134 129 129 130 125 121 118 119 118 122 125 119 111 109 103 100 98 93 89 95 93 103 106 113 116 123 124 123 116 122 128 133 134 136 144 154 159 157 146 147 144 139 155 140 114 102 104 111 154 152 149 152 149 140 123 115 136 139 82 127 75 83 93 141 135 111 115 107 98 89 84 80 112 120 127 141 150 152 140 153 158 156 153 158 152 143 160 152 153 156 149 152 148 144 145 144 135 133 129 130 123 123 130 129 116 120 117 114 111 116 110 124 119 122 135 135 147 141 137 131 131 123 131 131 135 130 128 138 154 153 144 141 163 140 160 147 120 97 109 119 151 132 139 139 127 122 109 102 100 112 81 120 62 76 105 140 151 143 98 100 120 94 100 96 124 112 105 118 126 118 136 152 156 157 145 148 153 150 153 153 158 160 160 162 163 159 155 159 157 154 144 138 140 130 127 130 114 113 114 113 115 118 126 138 152 145 150 148 149 148 139 131 130 135 131 137 145 145 141 149 159 163 147 138 155 135 143 166 109 99 90 111 124 105 134 125 108 126 118 107 64 104 69 106 53 76 123 160 160 150 81 110 135 100 107 91 107 102 113 126 134 128 148 148 152 160 160 155 154 152 146 152 163 168 166 172 168 169 163 165 165 172 154 146 143 148 143 157 145 138 127 125 132 134 136 146 146 148 143 146 139 145 121 115 118 122 135 134 134 144 131 135 146 157 136 128 139 123 136 184 137 113 107 112 114 107 96 104 124 138 118 97 57 92 74 107 87 90 127 190 162 132 93 109 106 110 118 109 120 113 130 150 145 133 145 138 146 155 145 133 136 117 121 123 138 142 139 147 150 152 155 158 162 164 158 132 115 122 119 136 143 132 126 119 129 131 130 127 123 126 135 144 139 135 119 109 108 104 119 126 154 156 160 147 128 152 143 133 134 120 105 162 146 115 100 102 110 126 94 84 109 152 99 116 68 79 61 101 117 82 149 178 144 138 110 96 109 125 114 123 141 130 138 138 133 129 126 128 137 142 122 114 117 101 102 104 112 106 111 108 113 122 127 131 139 141 139 125 113 109 97 100 117 112 113 118 118 126 128 128 135 144 140 136 149 137 118 126 116 125 124 127 148 146 155 142 120 132 153 160 154 157 124 147 145 105 86 85 98 116 112 68 107 140 104 116 68 69 43 80 122 90 150 155 105 156 131 118 128 149 113 112 136 128 142 135 117 97 93 100 107 120 111 113 98 99 88 106 112 102 102 97 109 123 129 125 128 131 127 125 116 92 85 87 97 96 95 91 94 98 118 116 119 129 137 135 124 127 112 129 118 130 130 116 123 118 114 104 93 105 124 138 154 159 150 160 161 111 78 76 92 110 126 77 118 157 116 112 59 71 30 76 126 88 151 133 81 138 124 120 146 167 149 142 157 140 131 81 73 67 62 90 86 94 90 87 90 98 104 112 122 114 106 92 96 99 111 109 107 110 113 117 120 94 94 95 91 94 76 74 76 81 89 89 96 109 117 119 102 113 100 95 100 119 129 114 107 118 106 89 80 87 111 118 132 152 156 143 165 122 78 81 111 112 133 104 105 145 128 112 47 48 26 98 132 100 141 95 77 112 136 125 156 174 181 159 124 136 99 57 61 63 55 70 89 83 85 84 85 98 97 108 114 100 99 105 104 98 103 99 96 94 99 101 105 81 67 80 71 71 60 69 67 59 82 84 81 90 100 109 107 106 82 88 98 110 106 108 112 115 118 101 87 74 88 111 120 136 151 146 148 134 82 89 97 109 120 86 103 131 119 87 46 28 44 107 139 115 118 87 84 91 136 142 167 174 197 145 102 115 91 70 77 72 75 83 89 93 96 105 85 101 114 122 121 121 120 107 108 94 95 84 80 88 104 106 108 84 75 77 63 60 51 58 52 50 57 80 75 76 81 90 92 86 77 80 83 105 101 109 115 145 133 138 90 93 80 101 118 118 134 142 144 121 72 94 97 93 103 80 101 120 82 65 36 15 51 106 142 140 79 59 92 79 125 146 160 181 193 137 105 101 84 83 82 71 78 83 87 80 113 120 103 111 119 133 123 119 101 99 92 89 87 85 85 79 107 120 118 77 73 68 70 77 64 64 55 50 52 59 73 79 85 101 95 88 82 87 91 104 115 120 109 123 141 135 125 107 97 95 112 118 127 140 156 128 97 94 91 67 80 72 105 104 56 46 40 20 41 122 160 183 78 54 93 88 130 176 165 159 152 131 109 98 90 89 72 58 61 75 85 92 120 123 126 118 115 115 131 138 135 124 122 103 100 107 112 104 118 121 113 77 79 82 83 85 81 53 59 61 64 62 81 102 116 115 111 98 93 103 100 107 126 127 117 124 126 124 106 102 111 92 111 123 129 147 171 124 114 91 82 93 88 80 101 82 50 63 39 28 37 137 180 186 92 56 76 100 126 177 158 182 160 112 125 89 87 80 52 50 49 52 66 93 116 123 126 125 125 134 142 140 161 152 150 134 128 123 143 137 128 129 112 88 84 78 80 97 113 95 75 65 81 83 99 118 126 115 120 124 127 144 132 143 149 162 149 147 122 107 123 97 111 107 114 123 115 131 170 143 96 101 91 97 83 65 80 69 65 63 34 24 56 145 164 185 127 63 82 127 129 173 140 157 164 124 131 81 83 68 45 50 58 56 73 86 110 111 121 129 123 120 133 139 145 132 134 137 118 112 143 150 130 131 102 109 103 107 96 110 120 104 83 74 82 82 106 120 126 124 123 151 157 157 135 128 146 137 142 126 105 102 130 122 116 116 105 116 97 123 135 134 88 90 102 96 71 65 80 57 84 69 30 30 77 128 178 171 141 97 100 149 135 151 133 126 148 143 136 111 98 75 56 54 65 70 86 96 112 107 106 102 101 91 99 115 118 119 109 107 98 109 136 142 139 134 97 99 92 88 81 75 105 91 93 67 66 67 94 132 132 145 150 154 164 165 147 132 142 149 146 126 118 123 115 113 104 97 112 109 101 116 118 129 94 81 99 84 74 73 65 52 101 73 22 39 86 123 168 168 114 110 118 163 149 150 145 108 129 144 117 116 104 95 73 74 83 83 99 102 108 119 119 107 115 121 103 110 105 106 97 88 108 139 147 133 120 96 82 88 75 81 71 71 75 76 86 54 54 78 74 122 126 129 138 139 148 170 160 139 118 145 142 136 120 130 116 110 101 109 116 114 107 115 107 133 92 100 77 61 69 40 63 85 85 79 49 39 100 126 174 181 133 122 125 159 156 146 154 104 117 132 100 105 97 105 83 86 84 89 105 108 114 127 129 118 114 132 122 119 103 106 96 107 137 150 152 140 103 86 84 64 70 61 66 77 59 69 78 82 64 73 67 73 97 127 124 126 134 156 151 143 130 136 146 144 135 119 109 109 100 114 122 116 109 103 107 146 107 93 53 47 54 35 85 69 63 66 52 70 83 140 175 182 141 146 123 130 137 127 143 106 99 124 76 91 85 97 89 83 80 82 93 105 116 120 121 116 108 116 121 122 107 103 111 127 121 135 140 124 105 83 91 61 67 48 58 62 59 79 75 76 69 60 87 89 99 116 142 136 139 155 156 150 144 142 137 144 141 134 120 112 115 122 119 120 112 99 110 143 128 86 28 44 42 40 93 49 79 66 47 82 94 141 186 182 127 129 110 99 130 107 129 120 99 112 71 72 74 79 85 79 81 87 91 97 105 109 112 114 114 111 116 113 114 130 126 106 114 128 103 94 89 84 70 48 64 62 66 69 57 74 77 65 68 56 75 112 116 115 150 151 146 153 166 166 154 168 155 154 152 144 131 127 122 115 110 118 110 107 119 142 138 70 42 64 59 55 87 26 65 53 48 82 105 105 186 183 126 102 105 91 107 112 92 138 92 105 79 68 69 66 77 70 77 94 100 111 119 122 119 115 109 111 116 128 143 132 116 107 124 123 100 83 77 67 59 48 50 58 63 75 68 85 83 71 72 80 83 111 135 127 130 143 143 146 155 165 155 160 160 154 155 151 140 128 126 115 113 123 117 113 115 155 113 77 93 84 78 115 75 2 77 46 47 100 113 95 183 168 130 109 90 88 79 87 90 111 114 102 81 68 81 73 76 63 67 87 96 95 110 110 118 122 117 120 123 126 127 122 117 121 105 117 109 89 82 80 71 61 58 63 66 77 74 81 83 83 90 101 107 113 136 140 144 145 132 131 136 142 148 155 149 143 139 144 131 127 135 118 113 110 116 118 125 147 99 129 123 83 123 104 73 29 66 54 48 115 110 114 170 166 141 119 111 108 90 86 73 109 118 103 104 79 76 75 79 80 78 94 110 117 117 122 129 134 129 133 130 126 122 119 118 108 104 110 96 78 85 89 85 79 73 93 99 91 93 89 81 84 100 99 123 123 129 143 151 163 153 147 136 135 140 142 144 145 134 138 132 128 131 121 123 110 128 128 125 125 111 128 109 81 121 117 92 33 59 48 65 124 114 165 184 187 166 141 144 108 96 79 67 95 107 117 94 105 81 89 84 94 92 95 111 120 115 121 127 124 125 128 122 116 116 117 113 107 99 92 80 75 82 78 84 80 81 97 116 104 112 117 101 85 93 89 101 133 128 146 146 161 162 155 158 155 153 142 148 149 137 127 133 129 130 126 123 121 131 123 131 120 124 120 94 108 131 116 107 77 71 60 82 138 100 212 219 210 188 148 148 126 98 95 70 82 84 96 101 106 97 91 98 94 98 106 112 114 119 118 127 121 113 112 107 110 116 113 110 102 93 89 74 72 79 85 78 79 86 87 118 106 112 123 106 98 93 93 98 127 143 156 162 156 164 164 163 160 165 160 153 151 147 136 130 118 127 127 127 133 128 137 116 139 130 123 118 115 144 112 78 98 105 47 95 141 98 238 245 222 180 132 140 147 82 99 77 81 87 86 93 90 88 97 108 102 108 115 122 121 121 119 120 120 110 109 108 111 115 105 98 88 72 75 74 67 77 91 91 85 86 88 112 119 123 124 100 91 93 89 86 110 145 168 165 169 161 171 161 160 163 162 161 159 164 143 131 127 123 122 129 138 137 121 123 155 142 109 103 104 136 106 66 103 118 44 96 134 87 232 238 248 182 127 127 145 90 104 86 87 105 97 95 92 100 97 104 115 97 106 117 122 126 121 120 122 119 119 113 109 106 102 94 80 64 66 64 65 81 101 103 100 100 94 105 112 111 118 105 99 99 98 85 89 120 151 164 166 158 155 154 156 163 167 170 167 164 162 140 138 129 128 141 143 137 132 123 157 139 90 72 89 103 93 74 107 104 46 96 101 100 226 233 254 193 133 119 139 112 121 112 84 114 111 109 105 98 97 103 98 104 104 112 114 115 111 112 115 120 121 120 108 112 105 97 74 64 72 61 71 78 92 94 95 90 86 99 115 110 112 104 96 98 92 93 97 118 132 146 156 160 157 150 148 155 160 167 167 165 160 142 136 140 117 118 132 132 112 126 149 124 89 54 61 69 62 83 98 87 59 105 90 112 209 220 229 186 143 99 115 118 124 127 91 109 108 113 116 99 102 107 93 96 102 108 117 114 117 122 123 129 134 130 112 100 103 92 83 77 67 77 84 91 98 99 89 78 82 95 108 103 95 103 93 98 92 100 103 106 115 133 149 156 152 158 146 149 164 163 159 155 149 132 137 128 108 121 126 116 110 116 139 111 81 48 49 48 55 75 88 65 87 84 74 103 213 202 201 175 150 120 103 110 116 122 102 121 104 108 111 106 98 104 97 101 106 108 114 110 111 116 124 120 122 118 106 93 96 87 78 73 58 68 77 76 86 84 75 78 82 93 94 96 86 94 86 89 89 86 101 107 119 129 143 153 154 146 148 153 157 161 162 150 144 122 119 120 106 102 120 116 109 114 111 94 83 53 50 54 62 67 64 68 100 76 81 95 216 189 208 164 145 126 88 101 103 117 104 123 111 112 120 117 114 115 106 112 120 114 112 111 112 116 116 118 112 103 92 87 96 86 66 67 60 59 65 66 72 67 80 87 90 96 87 81 74 84 82 75 75 71 84 108 121 138 157 161 162 150 151 144 145 146 150 137 125 107 107 105 94 97 107 100 100 109 98 74 79 66 44 59 50 58 53 75 111 81 84 100 196 183 179 163 136 121 79 74 102 107 87 122 120 115 118 134 117 119 107 110 110 115 112 111 113 111 116 116 107 101 95 93 101 95 75 65 72 69 80 81 84 81 94 103 94 106 95 76 66 73 72 81 68 69 88 105 123 148 153 151 159 146 138 138 125 131 119 114 105 99 92 106 92 95 96 96 110 103 90 68 80 68 50 50 66 56 49 90 123 94 85 86 178 187 154 140 127 120 86 52 90 112 89 124 120 121 118 143 124 118 115 113 116 123 118 106 107 105 106 106 99 92 87 87 95 99 92 85 86 92 104 99 107 95 107 120 109 111 103 79 77 77 82 90 91 94 104 116 121 143 147 152 149 146 138 133 123 126 110 106 93 93 95 98 95 97 101 105 111 108 78 73 73 69 55 68 76 53 71 115 137 90 92 90 173 181 147 134 120 115 108 54 80 102 91 119 104 131 119 139 126 116 117 119 126 126 124 109 107 103 104 96 89 82 81 80 75 85 85 96 99 111 115 115 113 108 110 118 106 104 104 92 96 101 91 101 107 116 117 118 128 134 136 147 144 143 139 128 129 124 111 109 98 94 100 97 96 104 104 108 106 113 80 86 73 71 64 80 90 72 94 141 124 92 99 95 162 167 160 106 126 109 112 67 87 96 96 117 85 127 120 136 129 118 121 127 129 119 118 109 107 108 100 82 83 80 81 86 81 87 93 103 115 121 110 111 119 113 117 117 119 119 119 110 118 112 109 120 113 131 129 130 135 132 140 145 149 144 137 129 127 130 117 118 109 103 103 100 99 110 106 111 112 112 92 82 68 69 64 102 119 94 120 135 134 96 101 88 154 160 151 105 108 107 116 75 100 90 85 105 84 117 114 129 134 118 114 124 119 106 107 98 101 108 94 83 82 74 81 90 91 92 102 116 121 128 114 103 116 117 111 127 140 150 147 139 137 125 122 120 121 133 142 134 149 151 159 159 164 151 138 133 120 131 117 114 110 108 107 105 103 110 105 116 114 118 96 82 76 57 81 103 131 118 134 159 129 102 111 76 145 152 146 110 103 115 130 79 101 118 82 94 76 110 115 127 135 114 118 119 111 109 107 102 98 99 91 75 69 71 81 88 84 98 101 113 122 138 135 125 130 127 133 138 154 172 173 165 153 136 128 130 128 133 145 127 145 155 171 178 175 164 146 132 122 119 117 113 115 109 108 112 106 115 105 121 115 109 104 85 85 77 99 114 130 145 151 158 126 104 112 73 151 146 142 109 95 114 143 102 114 119 87 90 78 103 118 125 133 112 118 107 110 109 106 105 108 98 87 74 68 76 82 95 99 104 110 118 125 139 152 153 157 164 161 161 163 170 173 159 160 137 127 142 127 137 141 119 136 149 165 178 178 180 166 145 128 117 113 114 112 113 112 116 121 116 110 119 114 96 116 78 88 88 124 140 134 163 178 154 113 107 112 69 152 148 140 107 107 107 143 120 140 134 107 104 89 117 129 126 127 113 112 92 112 109 109 107 106 101 94 85 76 83 95 106 103 100 118 134 142 141 164 175 168 176 173 161 157 154 149 140 141 134 126 127 130 132 125 119 127 140 154 164 170 176 169 153 130 115 104 110 107 109 120 122 127 114 113 125 118 97 117 79 76 95 143 151 150 173 182 129 103 111 109 79 147 156 134 111 111 99 140 145 148 161 136 121 128 125 136 135 126 113 104 93 110 112 110 109 102 92 97 80 76 88 93 105 97 94 109 132 140 153 172 180 174 154 164 162 160 154 134 143 138 137 134 132 127 121 111 102 107 127 135 149 154 165 161 147 130 107 107 113 107 115 118 122 132 118 120 118 118 95 99 69 78 101 147 151 172 195 150 92 100 101 99 77 140 149 132 108 98 104 129 166 144 163 165 135 131 130 146 136 118 117 104 99 104 104 111 114 98 96 103 89 87 88 90 104 97 90 95 117 134 145 158 162 175 157 155 157 159 146 143 147 144 142 133 135 142 123 106 103 104 112 122 132 133 148 142 139 119 99 103 113 108 116 115 119 133 120 125 117 121 87 95 60 75 103 135 143 158 142 93 89 105 94 85 68 134 147 145 120 99 103 134 165 156 162 160 148 133 144 140 133 119 120 109 105 113 107 113 112 105 107 102 89 79 84 75 88 98 98 98 108 126 136 140 156 167 159 156 154 153 151 150 144 150 152 142 135 134 133 120 121 116 121 123 131 136 145 134 122 111 102 106 107 110 119 118 121 125 126 117 104 111 81 90 43 67 97 115 109 97 91 80 86 100 87 73 69 136 140 144 119 103 114 122 166 176 153 157 146 136 160 145 124 117 124 118 111 116 118 119 112 124 115 114 106 88 86 84 84 108 107 109 113 134 141 145 154 148 156 133 124 144 161 159 149 147 149 152 142 130 142 140 136 137 147 141 142 140 135 135 129 134 119 116 125 118 121 118 122 121 134 110 108 101 70 88 45 64 83 97 69 83 77 69 86 92 83 75 72 138 138 134 124 104 104 121 151 174 146 162 142 134 152 149 124 115 128 127 119 122 129 130 128 129 122 121 116 115 110 110 109 128 131 143 135 145 134 124 138 132 145 147 134 143 154 160 149 149 149 149 142 137 154 163 152 148 152 143 137 148 152 151 151 156 142 128 124 124 120 119 119 118 131 98 113 92 71 85 57 82 82 88 66 71 75 79 70 92 82 75 77 135 134 127 127 106 102 123 128 152 150 139 141 128 138 137 123 117 131 154 140 136 130 136 134 132 120 118 108 111 111 116 127 137 136 134 135 132 114 111 125 128 127 136 142 149 157 151 143 146 145 151 144 132 141 160 157 158 158 150 142 149 157 156 149 150 143 136 122 122 119 119 121 122 122 97 112 80 65 85 73 82 64 78 64 62 75 85 57 82 87 74 70 127 128 121 123 107 104 116 119 135 143 118 135 118 126 132 116 121 136 169 158 145 127 137 139 131 114 100 113 110 119 123 124 137 130 116 104 103 108 100 95 115 117 123 122 132 136 121 123 137 136 137 139 128 135 146 155 160 166 165 164 167 163 156 148 146 143 138 130 123 126 115 118 123 115 90 104 69 71 82 76 78 49 63 62 62 74 93 58 66 86 74 71 124 129 123 122 108 105 102 97 128 124 112 129 131 101 128 123 126 131 178 163 148 122 123 123 115 108 103 108 127 132 129 127 127 129 113 108 106 103 100 92 97 100 98 99 107 114 115 117 120 123 121 129 129 135 144 152 161 165 184 171 176 184 173 157 137 139 133 132 125 119 114 121 122 109 97 94 71 91 82 82 84 58 62 64 71 78 90 54 52 80 85 68 130 132 131 117 117 103 61 92 132 134 128 117 142 98 114 120 122 137 171 161 153 121 115 113 102 98 89 95 117 135 130 126 118 108 107 111 106 95 91 79 82 82 85 88 99 105 112 112 119 108 109 120 123 133 130 150 151 163 174 174 183 181 177 163 145 139 129 136 125 113 111 117 120 100 99 96 89 104 88 86 74 55 61 68 78 83 85 62 51 72 84 72 125 125 125 113 120 75 43 92 130 139 133 105 148 113 100 128 124 143 156 172 148 124 113 100 104 99 95 87 102 123 117 124 120 111 113 117 115 99 94 84 81 79 80 92 106 108 113 117 116 108 112 123 120 141 141 151 139 148 158 155 167 168 157 157 146 139 131 132 123 110 116 116 119 105 102 105 100 103 93 92 70 58 68 73 84 85 83 59 53 64 81 70 123 124 116 128 100 47 43 90 126 137 134 102 141 124 93 125 127 145 143 173 147 126 117 99 99 97 103 84 89 106 115 111 120 121 116 105 108 103 99 104 102 102 100 108 119 116 114 116 125 126 131 125 120 131 135 136 139 143 151 143 157 160 156 147 142 145 137 128 126 121 116 124 124 98 112 114 105 107 90 101 68 61 72 73 88 78 79 61 52 52 76 73 121 119 110 112 50 32 43 71 113 143 131 92 118 133 109 128 132 145 147 168 154 131 138 107 101 93 94 90 86 100 109 117 118 120 119 104 101 92 94 95 108 114 115 124 131 128 138 136 144 139 140 135 133 138 142 142 139 140 140 138 144 149 157 147 141 141 149 131 133 124 126 123 122 104 124 126 107 106 92 99 67 72 77 80 88 77 73 55 59 34 75 63 108 114 107 70 17 24 49 68 106 139 132 95 115 127 115 138 136 149 144 156 158 143 136 119 108 102 98 98 102 111 121 131 130 126 119 115 113 109 109 111 122 127 133 144 150 152 158 156 158 152 145 139 133 132 136 133 133 129 133 144 142 144 157 153 143 144 149 140 131 124 129 129 116 118 131 118 114 105 101 91 59 75 81 86 85 71 66 56 54 26 58 65 101 111 73 43 12 28 56 58 78 117 131 98 112 123 115 137 138 150 142 137 157 151 128 132 115 115 102 105 114 131 132 144 148 147 136 132 127 130 131 136 138 142 150 159 161 164 166 159 163 162 150 149 143 142 138 133 126 131 131 138 146 147 152 154 148 147 149 144 131 127 128 131 119 138 134 111 118 92 99 73 67 63 78 84 79 74 65 62 62 31 47 56 97 71 41 35 0 29 48 38 35 80 112 95 94 124 118 134 146 146 146 140 146 155 135 130 129 122 118 113 123 136 139 133 145 147 149 146 139 140 135 132 137 140 146 155 155 159 168 163 159 161 157 152 149 146 141 129 126 123 124 135 147 142 140 157 150 152 147 148 140 132 131 127 132 146 140 110 118 105 98 74 69 69 54 70 87 72 69 61 67 48 49 47 65 41 24 29 1 11 35 5 5 60 96 95 97 118 123 128 140 146 135 131 125 146 143 138 140 136 135 132 131 139 142 145 153 144 142 145 147 143 136 130 128 124 122 141 139 146 157 159 152 161 156 156 151 144 131 119 119 122 134 136 140 137 142 151 152 155 146 148 142 133 136 138 132 151 126 119 129 123 96 91 96 89 56 69 92 92 81 83 73 55 52 49 59 63 42 48 19 26 33 1 18 63 105 98 98 114 108 132 125 141 142 127 121 129 154 152 145 149 144 141 140 138 142 151 161 148 141 143 142 139 136 128 125 124 129 128 129 126 136 144 146 150 150 141 141 133 125 119 116 131 126 133 135 136 131 148 153 154 151 143 141 132 134 150 130 144 123 135 143 133 116 136 139 117 106 91 115 121 116 124 109 86 83 71 67 69 44 45 26 42 34 8 43 81 102 89 92 100 97 116 116 127 153 138 132 134 150 155 153 159 155 155 145 146 147 149 159 152 144 148 143 140 136 131 131 124 129 129 121 129 136 136 139 140 135 133 134 127 121 127 128 132 120 125 131 134 135 144 152 156 146 144 144 138 132 152 129 131 131 133 151 133 146 156 153 125 131 121 117 140 151 161 147 128 126 117 111 105 87 93 68 84 60 47 83 109 86 101 95 99 81 99 103 121 132 137 128 127 139 157 161 158 161 159 147 145 152 154 153 154 149 145 143 147 141 142 146 137 137 132 127 128 129 129 126 126 123 124 131 128 131 135 133 131 117 128 132 136 140 146 143 152 142 137 134 128 138 141 127 131 127 131 151 127 158 168 148 134 143 136 119 124 156 172 156 135 136 129 122 111 89 99 86 97 99 70 117 156 105 99 104 95 78 82 91 104 116 135 133 107 129 149 159 153 154 148 148 142 146 150 150 155 150 152 146 146 144 143 140 134 128 125 126 119 121 116 117 118 120 119 129 130 136 132 128 122 126 125 134 129 144 145 141 142 131 128 127 121 130 124 132 141 118 121 145 126 156 168 146 132 144 140 132 118 147 176 168 144 141 136 124 117 90 86 85 103 105 94 148 175 125 110 116 95 75 61 78 89 106 124 126 102 116 130 143 139 141 137 145 141 138 137 142 141 143 143 141 139 133 134 132 121 122 115 115 113 116 112 112 116 114 118 125 128 130 125 131 118 124 125 127 130 139 143 139 131 126 119 111 114 120 117 138 134 122 122 133 134 161 158 144 133 143 152 144 132 151 174 171 165 151 146 122 115 88 85 87 109 118 110 182 196 121 131 117 98 70 58 54 69 102 116 114 101 108 114 120 122 134 128 127 133 126 119 119 123 125 120 124 127 121 119 120 109 115 110 108 104 110 109 110 117 114 118 126 131 127 122 126 124 124 116 122 123 131 134 123 124 115 119 100 107 122 111 129 128 129 131 133 126 157 150 138 133 144 161 151 147 166 167 162 175 169 160 132 117 99 99 99 121 134 140 201 214 121 116 143 93 72 62 48 55 91 107 91 83 94 108 100 103 118 116 113 120 112 107 103 104 107 106 105 102 99 98 102 97 93 93 89 88 88 93 96 100 105 109 112 127 122 117 116 117 121 113 115 122 125 119 115 116 113 106 105 113 122 106 125 107 131 146 116 125 144 138 143 144 137 165 174 158 169 167 151 170 164 161 130 118 110 113 104 138 160 176 208 205 126 115 148 123 76 66 59 48 72 88 85 73 79 94 106 92 111 111 99 116 110 107 107 99 92 85 83 84 75 75 69 67 59 63 64 64 68 66 73 76 87 94 98 102 102 102 113 119 118 120 118 118 118 102 108 110 101 100 108 120 121 120 122 96 116 148 99 122 140 126 141 122 121 141 167 170 163 160 156 168 165 155 137 109 129 116 109 159 180 191 209 185 121 127 153 123 103 65 60 54 27 62 82 63 74 75 99 95 104 112 94 95 112 111 101 99 88 82 77 77 71 63 59 55 49 49 50 55 61 61 60 71 74 81 82 87 88 100 105 110 118 117 111 110 103 96 100 105 99 105 106 115 125 127 128 99 88 128 98 99 134 112 132 111 109 124 156 166 161 151 169 157 177 163 141 114 136 115 116 162 183 194 204 164 121 130 152 133 111 81 72 57 32 36 73 59 59 69 81 92 100 107 104 97 101 103 96 100 87 83 81 78 75 67 59 59 51 49 46 50 58 60 65 66 72 76 77 74 87 94 102 108 113 112 107 96 95 92 97 106 104 108 98 112 116 127 127 81 72 119 127 73 114 83 120 99 95 120 154 168 155 150 163 163 168 171 145 124 140 123 117 147 179 199 194 147 121 131 146 144 115 88 80 61 39 37 49 54 39 57 74 90 101 108 115 102 107 105 105 95 96 89 86 81 75 76 63 65 59 66 57 57 64 61 62 68 75 75 76 79 91 100 110 114 105 106 104 77 88 103 107 107 105 105 97 122 108 117 114 72 78 112 150 79 80 76 92 90 76 112 148 171 152 145 154 172 172 177 159 138 149 120 124 140 170 207 180 139 121 135 132 150 123 88 70 60 49 47 51 28 36 50 77 87 96 112 118 115 110 106 103 109 99 97 91 83 80 78 70 75 74 76 74 74 72 69 75 77 77 79 81 86 96 108 108 107 108 95 73 90 98 110 112 105 107 103 111 119 103 121 104 91 92 124 157 90 64 62 79 75 66 92 130 159 160 153 158 168 169 165 145 135 156 127 126 132 172 200 172 133 128 125 116 135 109 85 62 53 61 63 55 29 24 51 76 75 102 116 114 118 121 116 108 110 109 108 97 96 93 91 87 82 80 88 85 87 81 83 89 87 90 88 89 100 104 117 108 110 101 74 82 101 103 109 105 101 106 101 105 97 104 116 106 99 103 124 136 113 61 40 53 76 83 81 111 132 158 169 159 162 169 159 149 131 151 125 126 115 157 205 165 131 136 109 98 100 91 83 58 51 52 69 67 48 28 36 83 80 99 122 124 130 134 123 123 129 122 117 110 111 100 102 102 94 101 98 99 97 93 99 95 96 98 101 111 113 113 117 112 101 81 83 90 101 104 103 93 110 116 90 94 93 94 94 109 111 110 122 124 109 58 35 28 56 79 84 88 110 152 165 156 151 170 164 145 119 136 122 119 116 144 214 173 139 119 83 82 85 85 66 51 55 45 60 71 65 60 45 62 86 98 117 134 142 149 150 146 143 139 139 125 131 127 124 119 115 116 113 110 109 105 109 107 109 114 114 112 113 107 120 99 88 74 86 87 103 97 92 96 116 113 82 88 110 89 99 121 112 121 129 122 103 46 39 36 33 64 78 81 86 137 159 144 143 157 174 124 108 107 106 110 121 135 206 169 131 96 72 73 73 66 55 51 58 35 56 77 69 82 78 72 82 94 105 128 146 147 157 165 168 163 166 160 149 148 141 138 138 135 128 130 123 125 123 120 120 126 120 119 115 108 107 94 80 82 85 88 90 85 92 96 103 97 90 98 121 94 111 125 95 125 129 118 103 52 33 53 40 52 71 60 70 107 136 135 134 144 164 124 107 95 93 106 121 130 177 144 104 80 62 60 56 65 48 49 60 42 44 73 79 90 96 96 95 97 94 108 138 157 160 162 171 167 170 168 170 166 167 148 153 143 133 135 130 138 139 136 131 127 123 127 109 99 97 84 75 85 77 74 83 83 97 108 97 101 100 113 117 90 127 126 97 124 122 111 108 66 39 49 51 72 82 64 60 75 114 134 129 139 161 