P2
92
112
255
82 89 89 86 89 91 98 98 93 98 101 98 105 104 104 109 119 122 139 147 148 164 169 163 169 161 155 150 126 104 99 93 78 72 78 92 97 80 85 84 90 91 102 108 124 119 134 123 134 157 168 179 166 168 155 153 154 142 155 149 150 150 156 152 151 163 149 136 120 118 128 125 119 109 108 114 122 118 127 127 127 125 131 130 132 131 133 136 128 136 127 124 86 86 89 85 90 93 94 98 94 99 103 102 107 113 119 128 124 135 147 158 157 163 169 173 163 157 137 123 110 99 92 88 83 87 95 106 106 87 96 93 87 93 97 108 125 122 118 120 132 140 158 159 154 156 146 143 148 143 143 153 151 146 159 156 155 162 171 157 142 132 119 123 119 118 104 99 112 116 117 127 124 125 124 128 130 130 130 134 128 128 134 130 88 88 87 87 90 91 93 97 99 101 107 111 117 118 122 126 137 145 152 152 158 164 160 148 140 136 121 109 110 111 105 97 99 110 117 115 119 113 95 93 105 100 108 109 118 122 118 116 124 129 133 127 128 129 125 122 128 134 138 131 141 148 156 158 152 158 158 159 160 146 133 123 125 116 105 99 103 104 113 112 123 122 117 123 125 129 128 131 132 127 132 133 86 92 85 90 91 94 87 98 104 111 114 117 125 125 126 134 147 153 151 143 146 146 149 143 127 130 132 118 115 128 130 123 124 131 141 126 128 120 115 115 103 105 117 105 108 110 115 128 111 121 121 120 95 118 105 106 106 116 127 119 120 142 145 145 138 150 163 158 157 159 152 138 128 132 109 109 106 98 109 113 115 119 109 115 122 126 130 128 129 128 125 131 89 88 88 87 89 94 95 102 107 116 124 130 131 139 141 150 148 147 150 145 142 138 131 142 142 135 141 151 150 150 151 148 130 144 134 135 127 127 122 131 117 114 119 103 100 107 123 127 120 118 111 127 113 106 93 102 108 111 117 109 107 119 122 135 126 131 158 165 162 159 161 155 132 124 135 121 110 104 106 109 114 110 116 111 116 120 127 125 133 128 123 128 86 86 89 85 90 91 104 101 110 118 131 138 139 144 141 140 142 133 134 143 136 133 134 143 149 153 161 176 180 179 172 158 159 154 143 146 122 124 123 126 126 130 122 123 109 107 118 119 114 124 114 117 115 111 105 106 121 114 104 112 115 113 121 141 126 121 142 160 162 153 157 159 148 127 142 136 124 112 106 112 112 109 109 114 113 115 117 124 128 130 124 123 89 87 92 91 90 92 107 112 123 132 131 145 140 134 129 132 121 115 126 137 134 136 145 139 149 156 170 176 184 169 170 161 165 157 147 154 135 125 119 124 130 129 121 119 120 108 111 117 115 113 128 115 113 113 121 112 121 128 127 122 122 137 126 149 153 142 132 151 147 148 140 142 148 143 149 153 126 118 115 111 109 112 107 107 115 117 114 121 123 128 129 122 88 86 88 93 95 101 106 118 126 126 132 137 128 123 121 119 117 115 117 123 133 150 151 142 147 160 177 174 164 161 156 152 152 148 134 142 140 134 138 128 120 127 121 120 123 115 109 110 113 104 117 109 116 106 111 115 115 123 130 146 138 143 140 148 165 155 141 133 144 145 136 130 131 140 141 150 136 117 122 111 109 105 109 107 110 117 114 114 121 121 129 123 88 89 94 93 105 107 110 113 126 127 131 119 115 111 108 116 115 118 121 138 136 148 161 162 163 168 167 163 163 159 154 142 146 144 143 141 141 127 142 134 131 135 124 126 119 122 108 103 100 101 103 103 98 101 110 112 110 110 126 147 145 145 159 164 161 163 159 141 138 141 138 135 123 138 156 147 140 129 123 124 111 107 102 105 112 109 115 116 108 117 119 128 89 91 97 105 106 112 120 124 135 139 132 121 115 117 110 114 118 125 126 133 151 153 164 181 178 176 160 158 156 154 155 144 141 155 145 140 145 144 147 145 141 134 133 132 135 130 128 118 111 111 107 110 98 99 114 127 106 97 105 134 145 137 143 139 151 144 156 162 151 140 135 139 130 151 139 142 137 125 121 120 119 119 113 104 105 112 109 117 108 109 119 124 91 98 103 110 110 121 125 139 140 139 139 131 116 111 110 117 114 129 138 145 155 172 171 186 189 177 165 162 157 155 152 159 160 162 156 157 157 159 158 150 143 143 130 129 140 121 139 134 127 125 119 117 112 109 104 119 116 98 99 107 123 123 130 122 134 145 142 144 144 158 143 140 153 154 141 137 134 137 135 123 124 130 135 113 105 113 109 108 112 108 117 118 95 103 108 121 116 128 142 141 146 146 142 128 114 109 107 109 129 135 149 163 173 181 176 181 179 188 187 171 170 166 171 174 169 167 173 170 165 163 159 165 148 156 139 125 130 121 121 134 125 126 122 119 115 112 106 107 105 106 100 99 107 109 122 114 113 130 142 123 119 132 140 145 157 164 150 147 136 135 137 136 144 142 139 125 115 109 108 108 108 112 112 120 101 113 114 120 127 144 143 144 155 156 141 127 115 105 104 122 139 142 163 178 181 181 173 171 170 182 190 184 189 180 180 172 168 180 177 181 171 165 156 164 156 159 147 136 140 140 137 132 134 137 127 126 125 120 110 109 100 91 106 104 100 103 106 107 103 107 125 121 127 121 137 125 132 153 156 149 143 138 130 135 140 145 136 132 129 108 112 109 98 107 105 114 107 108 119 123 134 142 150 145 152 146 127 118 108 106 120 133 149 163 179 186 178 166 174 171 175 180 191 184 198 190 191 184 178 175 173 165 160 167 156 159 156 158 157 158 149 152 143 140 132 136 134 131 122 121 116 114 99 99 108 107 103 92 102 103 101 106 110 105 126 126 132 130 119 126 152 165 158 141 137 134 127 136 148 141 134 125 116 111 107 100 98 111 108 112 122 132 133 140 140 155 159 142 119 116 103 115 128 139 148 172 174 170 166 162 172 175 174 184 186 178 186 192 192 184 183 175 174 172 171 168 172 170 170 166 163 164 169 161 148 153 146 150 140 140 139 127 125 118 107 106 108 108 104 101 105 103 96 97 117 102 107 134 132 139 120 126 137 153 168 138 121 120 120 133 138 156 148 136 120 109 111 95 99 112 112 110 127 126 137 138 142 148 149 133 115 103 103 120 130 140 158 171 148 146 160 164 163 174 168 179 183 174 175 174 178 183 174 177 170 173 180 177 171 170 172 171 166 170 174 169 162 162 161 148 148 143 147 139 136 127 113 113 106 111 105 101 110 103 95 92 109 115 100 106 130 146 132 130 140 130 144 143 132 117 105 122 128 144 150 146 134 116 110 114 109 105 114 114 124 128 143 143 139 145 138 127 105 90 99 117 133 135 149 149 134 136 153 157 152 169 167 171 167 159 168 166 167 168 167 171 163 165 165 172 173 176 166 175 179 166 170 165 167 159 169 161 156 152 152 140 138 132 120 118 112 125 122 116 115 107 104 102 104 112 108 103 106 121 126 116 123 129 136 153 142 144 103 111 116 136 147 149 148 134 124 119 120 113 119 119 121 133 145 143 142 152 140 112 91 94 117 120 129 125 130 118 119 122 139 141 146 157 151 148 135 142 148 151 146 152 161 158 159 162 158 164 179 174 162 168 163 158 160 157 161 160 158 164 162 149 159 152 147 144 134 133 124 131 127 108 117 105 106 111 108 113 110 106 105 112 116 104 119 124 131 135 157 147 139 108 120 132 137 145 140 144 138 124 124 115 122 120 121 140 144 148 154 148 129 86 84 89 105 117 124 121 111 110 113 118 132 128 134 127 126 124 121 130 129 125 129 132 139 139 142 149 152 152 158 160 157 156 159 160 148 147 154 155 149 158 162 156 166 164 152 144 133 129 131 122 121 112 120 106 109 114 107 106 106 102 101 107 101 102 113 114 131 133 150 159 139 136 119 124 127 143 143 135 135 130 124 116 119 119 128 146 148 151 153 128 98 75 72 78 95 104 105 101 100 93 104 102 115 107 112 101 102 95 92 102 102 112 111 111 122 125 121 131 134 135 137 142 139 139 143 142 139 140 138 143 140 153 162 160 169 160 148 142 135 127 128 123 119 117 118 113 109 110 108 111 105 102 99 99 111 92 106 115 112 146 149 151 136 121 130 119 128 137 154 133 125 125 133 121 127 125 132 141 148 164 141 116 92 73 71 77 93 93 89 94 90 89 93 88 93 89 83 79 82 80 78 91 101 105 94 105 104 106 104 105 105 115 115 118 123 118 125 126 131 133 130 142 139 150 155 157 153 151 150 142 133 125 119 121 114 116 111 115 109 111 106 112 113 104 105 98 106 93 84 116 119 124 145 146 151 120 126 141 127 138 152 154 134 120 127 133 130 124 132 147 156 157 119 114 96 76 82 78 97 85 85 90 82 88 80 72 72 66 59 72 73 72 73 86 96 94 89 91 95 94 96 95 95 99 103 105 112 111 117 120 122 123 125 132 142 145 149 148 148 150 150 139 128 126 119 113 109 110 117 119 115 112 111 112 119 109 109 104 105 89 78 93 122 114 128 136 150 138 132 121 152 132 163 167 153 131 125 132 130 133 134 136 155 138 122 126 90 90 86 97 94 82 83 87 90 80 77 67 60 64 63 68 69 67 83 91 94 93 86 83 87 91 92 96 98 105 105 110 111 116 117 123 123 125 125 127 134 137 145 143 142 139 137 127 119 115 106 96 87 85 98 103 111 119 115 120 121 120 113 106 101 100 84 84 95 131 129 141 148 143 146 141 145 139 156 174 168 146 129 127 128 134 135 137 148 133 138 110 98 98 92 105 92 84 93 97 100 74 76 62 65 73 68 75 70 78 91 94 92 90 87 87 95 98 98 108 107 110 116 120 116 125 128 127 129 131 133 132 129 127 126 120 117 114 112 113 101 94 90 83 71 74 80 87 94 103 109 121 128 128 122 115 104 108 87 86 93 117 134 136 134 144 158 132 148 140 139 156 158 168 132 132 126 133 136 136 154 139 124 105 109 114 103 112 100 98 106 108 103 77 75 68 82 84 86 86 86 94 99 97 104 103 102 104 109 114 113 120 126 124 128 128 129 131 134 136 127 122 119 119 118 120 118 112 110 110 110 103 104 88 92 80 75 65 68 78 81 90 97 112 129 132 129 122 120 122 100 99 95 113 126 142 125 124 136 153 150 147 126 156 155 178 157 143 120 138 134 146 158 147 126 110 114 113 128 118 108 103 117 113 107 81 82 91 105 103 106 105 110 110 106 109 111 115 118 120 122 127 125 126 131 133 133 138 135 138 134 130 127 118 118 117 117 123 122 118 118 122 123 112 107 101 94 90 84 72 67 76 81 83 98 105 116 141 136 141 136 126 115 99 108 97 132 123 143 116 124 143 157 150 143 137 154 165 177 153 117 133 154 159 168 150 142 124 125 120 132 122 120 112 118 109 111 101 110 112 117 119 117 117 121 119 116 118 119 124 123 123 129 133 132 134 136 138 139 140 139 145 137 136 135 122 122 124 122 123 119 120 122 123 124 118 112 106 99 92 86 76 75 71 80 85 89 100 112 130 141 156 147 137 123 116 119 111 120 124 133 115 109 131 146 138 154 146 137 162 174 164 113 127 155 157 156 163 149 127 132 120 121 118 127 123 124 118 126 126 134 128 129 129 123 118 121 120 123 126 130 133 133 132 133 132 135 136 139 141 143 143 144 143 138 139 136 129 126 123 122 129 119 121 124 120 121 117 115 107 107 97 87 86 80 81 81 85 91 94 103 125 132 164 162 149 136 131 128 128 120 125 125 101 109 138 149 159 140 153 164 164 176 145 120 126 156 149 157 164 149 139 136 118 119 130 138 138 129 139 145 149 146 140 138 128 123 121 123 128 128 132 132 136 138 137 137 137 140 140 147 151 153 153 153 151 145 142 141 136 135 132 133 137 134 134 128 128 130 128 122 122 112 101 93 89 88 86 83 82 87 92 95 107 122 152 169 158 142 141 141 142 130 123 105 118 108 125 151 141 132 139 165 176 171 142 117 133 159 147 141 146 149 133 131 124 127 151 143 144 136 144 152 157 155 150 142 131 123 124 131 130 131 133 135 138 146 146 146 151 151 155 155 156 159 161 157 156 148 144 145 142 138 140 141 144 141 137 135 130 131 130 136 132 131 126 116 110 96 95 89 86 82 92 92 95 114 135 170 162 150 149 154 153 151 133 112 101 117 109 135 138 130 154 151 171 161 138 112 139 148 133 129 138 149 131 130 127 134 158 140 154 148 153 160 157 157 155 145 136 131 137 136 133 136 139 144 148 158 155 160 162 163 163 161 161 162 162 163 152 148 143 150 142 141 142 146 139 147 142 138 140 132 133 139 130 134 136 132 131 118 113 109 98 87 90 95 93 105 123 155 172 150 151 149 157 167 143 119 97 97 125 103 142 140 135 141 164 144 139 117 145 149 120 121 137 123 133 119 118 147 168 152 160 153 157 158 159 158 154 147 143 138 139 139 142 147 147 151 156 161 164 168 170 173 170 172 171 165 161 158 153 145 143 152 145 144 142 143 144 146 142 144 141 139 139 143 145 145 150 144 151 142 128 128 125 111 96 95 92 98 109 133 178 164 161 163 153 171 161 130 108 87 109 117 116 124 119 125 133 139 154 127 145 137 106 119 126 111 141 124 126 179 185 175 159 151 153 156 151 150 149 148 142 145 149 152 149 155 153 162 167 172 171 181 181 183 181 179 176 163 159 155 153 147 143 149 142 138 137 134 139 142 144 146 141 139 138 146 149 155 159 159 163 157 148 138 139 124 116 108 93 92 104 113 153 169 171 165 161 168 151 141 106 87 93 116 108 101 127 116 101 119 141 142 138 129 107 121 119 128 138 148 160 192 175 169 155 143 153 153 150 150 151 144 148 154 152 153 154 160 166 171 177 179 183 188 186 184 183 177 175 167 162 155 147 143 142 144 136 135 135 138 144 144 147 152 151 150 151 146 151 158 163 164 163 163 156 145 147 137 127 125 125 97 95 105 126 163 177 175 162 171 173 136 116 85 102 86 119 103 110 133 102 95 127 154 134 124 116 114 130 150 143 164 170 188 173 169 150 146 148 155 155 149 146 142 153 151 154 153 158 164 174 180 181 177 181 180 185 181 178 177 172 166 158 148 140 137 135 134 132 133 134 142 141 150 149 155 150 154 155 153 154 162 162 167 164 165 154 150 148 136 135 133 136 130 97 100 111 141 187 176 165 167 153 150 123 95 91 97 97 117 82 104 91 105 126 159 141 116 105 106 134 148 143 151 179 180 174 167 154 153 160 151 152 138 141 144 155 148 151 160 160 166 169 170 170 171 170 173 176 175 173 176 172 166 153 146 140 133 132 128 131 135 139 138 142 148 152 154 155 154 157 156 159 160 165 161 162 158 152 153 151 135 136 140 133 142 122 109 107 134 171 187 171 165 131 133 129 99 99 87 98 105 87 82 76 102 123 171 157 99 78 87 137 140 152 155 183 175 172 167 160 159 157 153 154 140 142 144 143 138 150 146 147 148 144 152 155 154 163 162 175 175 177 176 175 164 156 150 143 139 137 134 138 136 135 144 140 149 151 154 158 153 162 159 160 160 156 160 158 161 154 152 150 143 141 144 140 146 140 123 108 128 157 186 180 172 133 108 119 90 94 86 108 101 83 89 66 84 129 212 161 93 75 88 124 128 164 157 187 171 173 165 154 157 148 150 141 143 135 142 135 133 145 142 138 139 150 159 161 155 145 149 152 157 158 160 159 161 158 154 151 144 143 141 140 143 141 140 145 148 154 159 162 161 169 168 167 167 168 168 163 158 155 152 142 141 138 137 135 140 140 132 112 112 134 170 185 177 144 123 114 87 89 88 103 110 77 73 81 76 129 201 141 109 71 78 115 129 167 163 180 174 162 158 157 152 155 150 134 132 128 138 140 132 141 139 133 132 144 154 157 151 145 140 139 145 144 144 146 147 150 148 151 148 143 140 141 146 144 143 153 158 163 167 172 171 173 178 178 171 176 170 159 156 149 153 136 138 129 132 129 130 128 135 122 101 114 151 169 173 132 131 103 96 81 89 106 109 83 78 76 81 124 169 155 117 75 88 97 139 174 165 179 164 152 168 165 145 143 129 116 111 116 121 124 122 126 125 124 123 132 134 144 136 126 133 135 140 141 139 143 145 147 144 152 149 151 148 149 153 152 153 168 169 176 183 178 180 177 178 176 169 166 165 161 155 148 140 132 130 122 117 117 119 120 122 123 96 110 130 160 165 149 125 91 74 101 92 118 95 99 79 67 97 123 147 155 127 96 91 86 155 172 175 162 176 167 161 148 128 132 123 116 105 114 117 128 122 119 120 114 119 120 122 130 121 121 129 132 135 135 133 139 147 147 148 146 153 147 153 157 159 160 162 169 176 178 180 174 172 164 164 162 154 154 149 155 143 139 131 128 122 115 102 104 105 115 114 127 116 107 118 155 161 160 135 97 75 90 98 103 104 97 76 75 104 136 135 153 132 115 84 98 156 163 142 175 189 144 155 136 131 138 128 129 127 143 139 139 138 129 124 111 106 106 108 112 106 108 113 121 123 122 124 128 130 132 132 135 134 133 136 146 142 148 149 154 155 160 154 153 143 142 136 133 126 121 122 131 124 120 119 115 117 114 99 98 105 111 103 111 118 99 114 146 153 154 145 104 105 98 93 105 104 111 108 101 95 151 120 156 143 132 83 111 145 141 151 147 153 149 154 115 112 112 104 96 99 117 104 101 110 111 104 103 106 89 96 94 92 96 97 101 104 105 106 115 119 121 119 127 133 125 126 142 134 131 133 133 128 131 118 118 116 106 104 97 101 100 111 115 116 109 110 106 110 118 109 92 100 114 113 98 118 95 112 142 166 153 145 110 123 103 101 113 113 119 126 137 122 156 106 159 150 119 90 88 102 149 149 119 141 131 137 107 129 139 130 128 135 117 102 95 95 104 100 93 94 92 89 86 83 82 77 79 81 87 84 91 98 106 112 112 128 133 133 149 146 138 136 133 125 119 106 93 93 86 90 90 89 97 113 113 103 109 108 97 96 100 99 93 90 102 113 97 118 106 89 150 166 174 156 141 157 113 115 125 109 103 123 165 125 166 113 162 153 94 64 75 76 162 136 96 129 119 147 134 147 140 132 122 123 105 105 102 91 88 91 89 90 102 92 82 79 79 72 76 76 80 81 85 87 103 107 111 111 119 108 116 119 126 126 120 114 112 101 100 98 102 98 106 100 116 127 131 121 114 116 117 110 117 114 109 99 119 128 117 134 122 81 125 157 160 159 148 162 153 139 106 89 104 127 173 131 161 122 138 141 87 24 60 87 148 129 125 123 113 130 130 143 134 116 117 121 109 119 111 102 104 114 111 129 128 126 110 102 102 96 91 91 87 90 91 97 102 126 140 139 147 133 119 130 133 136 128 122 121 122 127 123 117 113 115 116 127 137 140 145 132 126 98 104 97 110 131 108 121 129 125 139 157 110 126 166 170 170 155 140 164 156 121 74 122 101 165 153 178 141 120 161 73 36 72 75 124 138 126 111 122 117 107 134 126 126 126 123 123 126 118 108 127 136 136 152 152 150 141 139 137 137 130 121 117 118 116 121 123 131 146 157 175 172 149 152 150 142 140 132 129 130 127 117 115 118 110 113 126 126 140 139 136 129 114 114 108 120 153 132 106 107 111 103 139 119 125 176 185 188 162 153 141 169 124 84 122 106 167 172 192 169 121 156 77 67 116 60 93 116 103 76 118 129 107 126 110 118 135 156 157 143 140 124 136 137 146 149 159 147 138 145 150 154 140 128 120 128 126 125 132 132 142 178 189 187 168 169 170 171 162 158 141 144 142 132 120 121 124 119 135 126 143 139 128 139 144 148 154 163 178 171 137 122 121 108 119 109 115 168 191 194 173 153 133 165 110 60 117 121 175 168 207 182 113 166 82 94 143 84 107 112 85 64 88 111 96 115 122 174 178 189 188 151 155 141 146 154 150 144 140 135 127 139 149 161 159 149 142 142 146 142 140 140 138 168 171 165 167 164 178 185 175 173 161 160 154 150 140 130 137 129 138 144 144 135 132 147 157 150 166 192 196 178 156 139 130 113 110 127 108 154 191 187 158 146 131 149 131 87 118 130 189 185 211 169 114 151 107 150 155 115 100 106 81 61 72 114 145 130 158 205 194 189 191 174 152 150 149 149 149 142 138 129 123 143 144 139 145 140 146 148 149 151 154 152 147 176 194 175 182 185 194 186 186 183 162 164 163 155 144 130 133 130 146 143 138 143 148 144 156 161 161 180 189 193 176 150 131 124 115 130 136 142 188 174 175 149 146 172 145 113 128 163 195 194 199 157 112 128 130 166 160 153 112 95 85 64 52 122 167 149 172 187 184 182 175 164 150 142 135 121 142 131 120 113 113 120 119 126 129 128 140 151 154 147 139 140 140 167 182 176 188 192 200 191 200 184 169 163 164 165 148 141 135 142 148 143 142 132 145 141 142 120 136 135 180 175 174 155 134 133 124 123 131 152 196 166 176 167 155 181 157 132 169 187 198 210 196 159 114 105 176 205 162 178 128 93 83 53 52 119 154 157 175 167 172 188 181 168 159 162 119 112 127 124 118 106 113 122 142 135 140 138 139 148 151 155 134 122 125 171 180 189 183 176 183 180 184 178 167 166 154 149 140 134 135 131 138 134 134 133 131 134 145 134 119 133 145 161 162 157 140 132 123 113 109 143 173 170 181 193 180 184 158 152 196 205 194 209 210 145 100 66 180 212 159 165 128 62 73 75 85 114 142 157 158 158 182 197 193 184 169 155 122 120 117 121 127 125 109 104 106 112 114 133 130 128 124 140 127 120 127 164 169 169 169 164 164 190 180 173 164 165 149 129 110 112 114 120 133 126 132 133 126 136 147 127 133 132 158 159 139 155 136 120 116 109 97 150 158 184 187 171 174 173 150 172 206 184 203 210 215 129 84 66 158 196 172 145 135 60 76 51 78 122 118 161 154 168 198 199 209 204 190 162 137 131 125 129 127 115 109 112 90 99 98 108 115 120 98 113 121 115 129 154 162 172 175 153 126 143 163 174 154 159 145 126 110 119 109 107 107 97 111 103 103 99 102 95 127 148 133 165 139 132 126 114 130 122 100 128 168 176 176 164 172 186 173 188 183 181 205 217 195 119 99 71 118 174 171 123 126 67 91 73 67 110 106 162 168 183 198 199 195 196 179 168 143 146 136 127 133 137 125 113 111 119 121 117 137 147 116 111 133 130 149 148 152 150 158 135 118 128 149 167 162 165 139 122 110 112 111 89 81 87 109 117 107 115 102 119 144 152 120 130 127 115 132 122 153 126 120 121 176 185 168 170 179 184 168 191 159 174 207 202 170 132 91 86 111 146 147 102 108 87 96 104 86 88 100 132 154 182 190 199 186 180 167 152 137 140 143 144 148 162 159 132 129 132 142 151 160 148 134 126 131 137 163 162 168 170 177 169 136 142 145 172 178 176 153 109 107 101 102 90 78 78 100 120 113 109 109 122 128 120 129 124 128 136 128 127 150 133 133 123 174 191 175 178 175 174 172 177 134 166 206 203 155 139 105 93 148 142 126 91 99 89 88 126 107 85 117 127 143 164 172 178 173 161 151 142 132 123 121 137 128 124 144 127 137 142 146 164 147 122 127 140 150 172 176 171 176 175 177 170 164 160 149 173 182 152 159 112 106 110 110 103 90 72 85 108 133 113 110 110 120 106 119 123 125 133 126 118 141 133 144 119 175 160 194 198 181 205 176 138 144 154 184 203 151 137 102 89 136 137 126 102 95 93 81 139 121 97 133 137 147 148 162 157 166 147 136 131 125 116 113 127 132 117 124 132 143 138 150 142 121 118 120 131 157 179 171 187 178 189 175 164 177 171 158 147 174 156 162 160 134 101 114 107 99 82 86 92 110 108 101 101 105 117 124 119 128 126 116 117 133 147 151 111 149 161 209 198 196 206 153 158 156 167 177 174 160 126 104 91 134 115 133 132 115 100 89 144 145 105 156 145 155 146 155 161 166 156 143 132 125 126 128 133 139 130 130 135 140 140 139 128 142 127 123 142 153 172 164 180 186 194 180 177 178 158 156 155 164 172 140 144 134 112 90 96 89 80 81 81 90 96 103 100 102 108 118 118 117 119 119 120 130 155 150 115 124 168 219 197 201 195 138 173 138 167 185 160 145 124 97 92 152 130 132 160 128 123 99 127 141 119 161 162 159 157 152 157 164 158 145 144 137 134 137 138 140 138 135 134 133 118 125 152 145 134 151 163 168 177 182 202 187 184 179 172 189 161 155 165 164 183 160 121 123 120 80 84 85 77 71 75 82 72 84 90 93 99 112 112 116 126 123 122 132 152 148 118 115 176 194 173 183 175 140 187 155 177 188 154 138 151 96 91 146 148 134 160 145 127 132 109 144 123 146 161 163 164 156 160 155 146 134 122 122 120 121 126 131 131 123 111 101 113 135 143 128 138 153 171 179 195 197 205 202 188 181 168 185 155 155 165 161 158 161 133 106 121 106 91 90 86 77 75 83 83 85 90 95 97 106 113 117 126 121 120 132 151 151 105 133 162 135 147 152 101 142 211 146 183 187 145 135 159 94 108 144 147 146 165 161 148 135 125 123 124 143 156 143 156 153 162 159 147 144 133 124 128 117 113 119 115 113 110 112 117 127 126 148 139 143 166 176 184 192 200 195 184 181 177 170 164 155 162 154 144 145 144 113 107 101 93 103 102 94 90 92 90 94 98 106 103 111 113 110 121 128 131 137 146 141 112 143 102 102 144 96 115 144 189 157 175 186 130 135 136 98 115 135 140 136 146 155 156 151 120 120 133 123 143 147 151 148 149 148 141 127 121 112 108 102 102 112 110 113 116 117 122 128 146 152 143 152 175 172 174 176 178 182 160 152 148 152 152 154 158 146 150 135 144 137 106 99 83 87 97 100 99 95 99 97 98 110 109 111 118 112 117 126 134 127 132 138 131 134 106 123 136 93 101 137 194 164 183 168 118 130 76 71 93 121 120 108 144 155 163 164 143 126 112 142 123 147 139 149 138 142 135 118 112 119 113 104 115 123 123 126 126 124 128 140 148 156 157 173 180 174 179 172 175 181 163 136 140 127 121 135 148 147 164 154 131 143 113 104 87 81 87 86 86 90 91 95 99 112 117 116 120 113 117 122 130 123 135 127 137 118 123 140 100 76 101 127 146 155 172 150 101 131 44 25 53 91 104 108 129 158 148 165 158 154 138 132 124 133 138 135 140 133 122 115 114 112 116 110 117 131 133 134 134 127 135 143 154 161 165 183 185 173 171 177 181 176 171 138 152 135 122 130 142 148 152 159 139 126 110 93 93 84 80 79 88 85 87 93 96 104 117 120 129 123 117 118 122 126 119 141 119 116 120 113 100 62 110 145 121 123 182 141 98 130 32 14 28 83 110 110 105 174 143 158 159 154 150 141 144 146 134 128 133 126 117 107 107 107 112 117 124 139 137 136 132 126 142 153 167 181 179 183 190 178 165 170 177 173 168 141 144 132 129 147 152 150 157 164 157 131 114 101 92 97 87 89 89 96 94 86 88 91 108 123 128 127 127 124 118 119 137 132 101 105 136 129 110 76 116 160 121 114 190 142 100 150 42 26 3 80 115 104 99 151 138 146 151 129 136 138 143 133 136 132 118 137 124 114 108 102 113 118 124 132 129 130 135 137 148 156 170 188 189 190 188 171 157 154 164 165 171 150 146 143 134 149 149 146 145 164 165 138 111 99 92 99 101 102 95 89 92 85 89 92 98 114 113 116 118 110 113 118 120 129 95 105 151 155 124 104 131 152 122 132 192 138 121 132 47 41 0 78 119 121 103 129 118 123 158 120 121 121 132 138 135 132 134 127 123 117 113 117 126 127 131 131 127 125 139 136 147 159 182 191 185 190 179 179 166 158 160 167 170 159 141 139 136 150 159 153 156 158 155 136 122 106 100 100 102 107 108 104 95 90 92 93 98 117 120 114 137 137 126 121 138 120 102 122 145 172 151 140 166 139 136 147 178 129 131 125 59 56 22 78 116 141 135 131 121 110 149 124 127 119 117 136 132 128 138 136 126 121 111 118 122 121 124 120 114 118 140 153 153 167 182 189 192 178 172 165 151 150 159 168 167 158 147 144 150 145 159 155 155 147 148 145 136 118 106 103 102 98 110 104 94 91 97 99 101 118 108 116 134 121 121 134 135 130 109 129 148 176 168 173 176 155 150 167 151 140 144 123 48 61 50 74 116 130 151 153 130 116 140 115 132 124 123 133 139 136 137 131 126 119 115 123 125 128 124 123 120 130 148 161 159 171 186 182 190 178 172 171 161 159 163 164 162 153 149 151 154 146 156 155 156 153 142 143 135 122 110 103 100 106 108 105 97 95 93 101 102 123 122 123 139 140 123 128 133 129 130 144 142 171 175 177 167 166 176 164 135 144 138 131 42 62 41 72 116 125 162 163 145 124 142 118 123 121 114 125 129 125 129 119 114 114 116 122 124 128 126 121 129 140 157 164 155 167 189 184 181 182 182 178 171 175 158 154 151 146 153 160 165 144 150 156 158 163 154 138 135 116 98 96 98 107 104 110 105 104 101 109 115 128 132 137 151 146 135 144 141 131 143 155 145 155 189 171 177 178 190 158 121 140 140 123 52 65 68 68 112 132 167 185 145 132 161 118 117 119 117 107 125 123 129 120 122 116 114 117 120 125 120 119 130 140 149 150 143 150 170 179 169 168 160 159 156 157 144 136 143 132 142 159 168 150 147 147 163 160 143 133 122 99 98 99 93 107 111 108 114 111 122 125 129 131 140 130 148 149 146 147 132 135 147 160 145 156 181 172 161 182 193 148 110 134 133 128 67 52 94 86 103 124 150 196 148 131 159 121 121 115 117 100 119 124 122 119 113 110 105 118 117 122 119 123 135 143 147 144 138 138 147 154 156 143 129 133 127 132 123 112 121 117 128 148 148 135 131 130 131 132 124 114 117 99 100 98 100 103 106 111 119 114 127 128 135 134 136 136 144 146 140 136 125 130 156 153 158 157 178 158 157 180 169 126 92 137 125 128 73 60 96 91 99 115 123 194 155 144 159 133 144 109 123 103 116 125 124 115 105 102 101 115 118 119 118 127 135 144 147 147 154 151 152 141 138 122 111 106 112 117 113 104 115 116 116 125 117 110 121 117 114 110 109 108 108 109 106 99 102 104 108 117 114 111 123 119 126 133 127 136 144 137 137 131 130 125 153 147 167 162 174 151 143 157 146 102 101 128 128 125 85 79 87 120 95 112 116 172 147 149 158 137 169 118 128 106 112 123 122 111 103 111 110 118 123 115 118 138 137 146 145 142 154 151 145 127 115 102 113 105 102 108 102 100 96 92 93 105 96 98 102 96 107 93 96 98 104 113 103 101 100 101 109 116 117 111 116 108 117 121 123 132 140 128 134 126 126 123 143 160 175 171 175 127 107 134 127 109 87 129 126 133 91 92 101 132 117 119 112 161 133 147 171 147 169 132 136 117 106 122 128 115 116 126 120 130 130 117 127 143 142 153 152 145 145 144 137 117 104 89 101 107 98 98 102 87 72 63 68 81 80 84 87 94 102 93 87 102 97 97 87 90 88 97 110 115 123 111 122 117 123 120 121 128 137 129 136 125 130 120 143 165 167 183 157 128 100 124 112 79 92 128 122 154 98 97 106 130 122 117 104 153 129 116 175 160 175 141 136 122 105 127 125 123 125 125 123 129 135 131 141 155 160 163 162 158 158 140 141 126 110 86 86 90 86 91 88 83 66 54 54 60 64 73 78 87 98 93 88 112 97 91 79 75 84 93 106 120 124 124 121 123 124 125 124 125 137 125 136 124 129 132 141 167 153 163 136 123 109 97 94 74 101 125 125 152 93 97 113 135 136 123 101 138 117 115 165 161 173 148 135 125 108 133 125 133 126 126 130 129 130 137 147 158 164 159 164 153 151 139 143 133 122 98 83 81 83 70 71 71 61 55 58 69 67 79 92 84 105 95 96 121 109 99 87 80 84 85 93 110 119 130 125 120 126 127 132 128 124 126 130 124 131 148 134 170 153 148 111 104 114 78 66 84 118 122 124 149 95 93 110 140 134 130 107 130 92 102 140 143 158 133 124 124 120 130 133 152 127 128 129 132 135 138 143 157 168 156 157 146 151 151 142 125 115 116 87 77 79 78 83 89 86 83 90 98 94 99 106 110 105 106 115 129 126 115 105 95 91 91 96 104 124 137 138 125 132 129 125 123 118 127 128 117 129 153 134 169 167 139 99 101 107 70 60 114 134 123 127 141 101 86 112 135 131 140 110 103 93 67 105 123 118 125 116 112 123 132 140 150 128 125 130 133 139 148 145 167 171 162 166 159 160 159 151 132 129 117 100 96 100 115 110 110 98 99 121 115 113 109 107 111 112 121 139 155 154 136 130 116 109 101 103 112 124 143 140 126 132 125 125 122 113 124 121 126 127 160 153 186 166 141 105 109 78 49 92 153 138 133 135 147 101 92 114 138 141 134 121 79 103 74 72 104 118 124 103 111 131 130 141 143 136 136 133 132 146 148 146 160 164 168 173 161 161 166 164 149 144 133 124 126 119 133 137 134 126 122 125 122 117 115 120 120 116 131 153 160 160 151 145 137 131 120 124 122 136 153 146 131 132 130 130 124 112 120 118 129 125 173 160 198 171 145 122 116 93 109 161 150 132 139 146 153 105 95 105 128 141 131 116 85 92 87 85 88 108 107 109 114 132 126 137 138 128 132 131 134 144 140 153 168 180 182 196 180 169 170 173 169 159 154 152 138 134 142 143 141 141 135 135 137 128 123 123 128 132 135 152 151 154 147 148 142 135 124 126 137 147 157 146 140 133 129 129 127 121 119 129 140 139 180 171 215 185 158 138 141 162 163 174 149 135 144 156 159 107 101 104 128 134 127 121 83 70 97 93 96 104 84 104 123 133 123 126 133 125 123 126 134 130 139 146 163 180 181 188 189 164 171 173 175 159 160 158 146 152 146 161 166 151 133 130 139 137 136 129 132 142 131 133 140 135 129 138 134 133 136 128 132 124 141 136 123 129 126 131 126 126 113 139 136 153 191 173 215 192 179 154 168 176 171 179 151 141 151 157 160 105 103 109 120 136 133 118 89 70 102 88 106 110 89 102 126 133 119 119 125 121 117 113 123 127 134 143 151 150 150 151 154 140 149 144 155 143 158 169 154 162 149 146 152 144 133 121 132 127 129 131 133 141 119 109 118 123 126 137 138 123 118 113 108 100 114 121 123 117 128 131 127 127 115 156 134 162 188 176 198 178 181 153 170 176 170 164 167 142 155 159 154 109 106 115 116 134 135 108 109 87 91 109 115 123 106 115 127 132 117 91 105 108 115 107 113 119 126 136 149 148 140 138 132 122 126 131 137 140 154 155 146 146 155 146 138 129 117 119 124 116 121 116 122 132 124 105 103 106 119 129 134 125 109 104 107 105 111 114 118 118 129 130 125 123 125 155 137 170 192 167 180 180 190 165 174 173 171 152 183 158 150 156 161 119 115 118 121 134 128 118 120 101 97 128 121 138 118 119 135 132 113 73 88 99 118 107 104 115 133 150 135 139 128 125 126 113 115 125 144 145 134 145 151 130 135 132 139 132 125 130 129 119 122 124 118 129 127 119 112 111 104 108 106 100 100 100 106 106 108 111 110 118 120 134 127 122 133 159 142 181 181 165 176 185 197 184 177 177 168 142 183 179 150 158 161 121 116 120 121 134 128 138 143 108 112 126 128 128 145 121 131 126 116 65 80 93 123 121 122 133 141 149 141 119 116 118 121 120 119 128 136 134 134 139 144 140 143 145 142 134 127 127 127 128 126 134 126 130 128 120 111 104 103 82 92 86 79 84 93 108 104 109 108 113 123 129 124 123 137 146 152 177 157 164 176 174 192 189 179 177 164 146 183 194 156 151 164 116 112 115 128 120 135 190 153 105 106 107 133 117 145 132 136 130 117 77 81 87 125 132 136 147 152 165 156 132 113 114 120 125 130 131 132 133 141 151 154 151 154 151 149 142 140 136 135 126 140 140 129 129 121 123 110 111 99 87 88 78 79 77 85 101 104 111 101 110 123 129 122 120 143 140 150 162 138 164 169 179 194 194 185 170 157 155 174 194 166 151 162 123 120 121 131 115 178 222 154 115 105 106 135 109 130 143 126 131 113 96 68 92 117 135 151 148 153 164 166 150 125 127 112 117 122 122 123 132 144 152 158 160 154 151 139 130 128 130 116 119 129 126 121 126 111 113 103 119 103 95 101 88 89 95 89 96 101 108 101 110 126 123 121 121 136 138 139 145 141 163 157 183 193 189 184 160 153 159 177 193 178 154 167 127 121 129 117 141 220 224 164 122 104 106 140 110 122 147 124 130 113 109 66 97 119 130 149 149 153 150 168 162 138 124 123 114 111 117 132 134 144 151 146 148 142 141 134 121 122 118 118 112 113 106 112 120 116 115 112 112 107 102 109 97 94 94 99 102 93 96 107 109 117 123 114 120 142 129 135 140 143 163 149 187 193 185 176 155 160 163 178 197 191 159 167 128 131 137 130 204 237 226 188 135 95 108 153 127 116 137 119 130 113 109 78 91 119 114 145 156 162 162 164 165 142 127 119 118 113 111 130 136 146 145 145 136 132 133 123 112 118 103 110 103 103 98 102 108 107 102 103 107 111 113 114 109 103 92 98 102 98 86 104 101 114 116 115 122 135 122 124 143 149 155 157 188 185 181 168 151 167 167 183 193 214 165 177 138 136 139 182 239 240 220 198 149 95 102 157 137 123 136 112 123 110 112 100 88 103 111 135 149 152 156 157 151 139 122 110 111 115 122 130 136 136 137 134 127 122 115 102 104 103 98 102 94 95 96 94 102 103 106 112 116 123 122 109 111 108 91 91 100 95 86 92 103 113 111 110 124 119 117 135 143 149 151 169 195 184 176 165 153 172 177 183 197 224 187 179 148 137 176 212 245 235 217 215 171 113 102 157 141 124 133 113 113 110 114 118 90 94 113 115 138 142 148 147 140 119 115 103 99 102 115 121 124 123 125 123 119 117 107 94 92 85 83 87 84 82 90 90 96 101 110 117 125 121 123 117 108 103 95 89 96 90 86 90 101 110 110 105 119 100 120 146 148 166 160 190 189 194 181 169 163 171 181 177 190 220 205 190 148 173 207 221 255 233 226 230 203 145 117 152 153 122 132 117 101 109 110 114 101 84 103 109 113 125 128 130 122 108 101 110 98 104 103 107 116 119 124 125 124 120 113 102 99 94 84 85 86 84 88 96 101 106 116 129 129 132 126 121 108 110 104 85 89 85 86 87 93 105 104 107 100 93 120 155 148 162 167 198 186 190 205 182 162 177 177 180 188 205 206 202 179 203 225 227 250 241 232 244 225 164 128 150 155 133 131 118 109 108 120 120 123 93 92 101 96 103 105 104 104 100 94 94 87 96 97 103 105 114 124 131 131 133 131 115 119 111 96 92 101 92 98 101 108 118 128 143 142 134 125 120 113 110 99 85 83 79 89 86 92 102 98 94 99 91 135 150 140 144 175 186 164 171 208 183 160 157 161 158 182 198 204 206 182 176 205 207 217 216 225 238 212 166 124 149 150 143 139 113 125 114 114 123 127 110 82 84 90 86 94 94 94 97 95 85 74 88 93 97 103 110 119 129 135 136 131 132 131 133 123 115 112 109 110 122 124 132 138 143 143 126 129 119 113 106 106 83 79 78 83 90 92 101 95 84 104 92 136 134 132 134 153 138 121 144 151 165 133 121 115 110 145 158 168 185 173 169 202 197 205 195 218 231 189 155 127 150 151 149 146 132 135 124 104 113 115 109 82 81 82 77 81 81 88 90 94 90 85 88 97 94 102 107 115 122 124 131 128 132 139 132 127 127 125 123 127 130 127 134 140 133 131 122 129 120 111 105 98 85 80 74 89 88 89 94 96 88 108 108 118 131 124 141 129 113 110 135 129 136 135 104 73 73 101 111 116 129 114 124 144 135 152 141 183 194 146 126 143 130 138 140 165 151 148 127 118 118 122 123 98 79 76 77 79 81 94 98 93 93 100 92 99 104 106 106 116 118 114 124 124 131 136 136 135 133 139 139 143 141 135 137 133 123 122 126 130 118 107 101 91 82 87 77 88 95 99 103 88 105 116 108 122 127 120 144 117 102 113 133 118 123 138 126 73 68 93 105 107 115 103 116 137 122 132 118 146 165 113 78 128 123 115 144 171 171 160 146 129 116 119 147 113 86 70 83 86 94 97 104 104 101 104 98 102 107 114 115 119 121 125 133 140 143 140 146 144 148 149 148 146 144 135 133 127 127 129 134 121 119 105 107 89 87 88 86 97 103 107 108 105 124 113 103 126 129 122 138 109 100 114 138 120 119 127 135 89 71 80 96 105 111 103 107 134 131 133 121 140 140 84 71 94 100 96 144 174 193 180 158 142 122 124 152 132 103 84 96 101 108 97 109 113 115 111 113 111 117 120 125 132 137 138 151 151 156 156 159 156 160 158 153 153 145 138 132 126 131 123 133 121 114 109 101 94 88 90 97 104 112 123 118 123 131 111 114 118 122 119 127 98 102 122 136 125 106 117 120 94 77 74 71 95 103 107 105 132 126 135 124 129 124 56 51 90 62 97 140 181 198 208 177 144 131 129 152 144 121 114 110 112 121 115 112 122 129 133 133 133 140 137 134 144 147 150 160 154 160 160 169 163 164 160 150 152 147 138 128 131 133 126 120 117 120 113 108 99 97 106 107 116 116 138 132 124 142 117 124 102 100 113 121 95 103 123 135 121 98 106 104 88 92 84 62 74 89 94 103 115 111 132 121 124 97 47 25 81 74 65 150 174 197 216 195 152 134 155 173 161 133 140 133 125 132 133 124 136 142 152 152 153 155 156 157 161 162 158 167 168 169 173 175 177 174 170 166 161 152 149 133 135 137 130 125 115 124 116 110 104 110 113 117 121 133 136 136 132 140 123 149 92 70 119 108 93 108 115 122 127 92 77 92 94 92 100 74 83 90 88 101 102 106 129 108 100 62 39 32 77 77 69 113 159 195 199 200 170 150 162 182 175 155 137 150 132 135 145 128 135 143 151 162 169 174 173 173 178 179 185 189 192 189 189 190 192 190 184 180 173 162 159 153 150 147 131 124 119 117 112 114 113 125 122 126 137 138 134 141 133 123 126 150 105 67 126 109 93 114 110 138 143 116 83 82 101 100 97 79 87 102 81 106 92 109 126 91 80 50 35 54 82 73 68 111 131 191 189 188 214 179 163 191 176 178 150 148 143 133 150 149 129 138 154 160 171 179 183 182 185 188 191 196 202 199 200 198 192 194 193 181 175 170 169 164 162 150 139 129 121 118 121 123 127 135 136 134 143 137 144 143 124 117 113 137 137 84 125 123 104 123 113 148 151 133 91 90 103 107 82 95 77 95 85 107 93 118 124 88 77 54 34 80 93 78 68 105 131 164 169 181 205 210 172 196 191 187 170 155 145 139 141 148 140 144 156 157 172 179 178 180 179 184 190 188 199 199 202 203 193 194 188 185 178 175 172 174 160 153 142 128 124 122 125 137 139 144 146 138 139 140 158 143 127 122 115 152 153 90 91 147 122 158 119 156 165 137 94 92 109 109 91 87 90 84 90 109 95 122 134 108 80 55 40 102 99 82 88 94 126 159 153 168 196 203 199 197 213 198 177 160 149 136 127 142 137 143 147 157 161 168 168 174 175 177 188 184 189 186 191 195 190 188 188 181 176 177 170 167 153 144 133 127 129 128 135 162 152 138 140 141 144 146 161 128 131 131 128 159 146 107 61 146 152 172 146 157 172 138 106 89 110 114 104 80 84 79 88 110 101 134 140 120 92 53 62 112 109 90 112 87 113 154 154 162 174 187 194 221 217 206 171 164 156 136 123 129 135 144 149 144 153 155 162 171 172 175 184 179 179 179 177 177 179 181 174 176 177 174 166 159 148 136 132 129 128 148 171 156 148 138 140 144 145 151 146 118 136 119 137 130 134 100 73 140 173 183 164 167 175 141 118 97 99 111 101 88 88 96 110 124 99 131 143 132 95 69 80 119 119 107 126 99 120 154 169 173 162 162 180 219 233 205 174 174 147 134 127 123 121 130 140 139 143 145 156 157 159 162 166 170 172 164 163 164 169 163 157 161 162 161 156 145 141 126 129 130 142 174 165 145 145 145 146 152 147 153 143 136 135 117 131 115 125 102 105 128 195 207 191 165 160 157 131 110 89 94 102 99 95 111 107 130 104 144 152 153 115 68 89 127 120 129 146 133 147 165 178 177 170 155 159 194 229 223 171 173 151 125 119 110 107 115 116 112 121 129 140 138 150 147 145 153 147 148 146 151 154 147 150 148 152 146 135 132 129 128 135 143 166 165 158 149 149 150 156 142 137 160 145 144 138 136 122 107 111 108 123 140 219 229 220 188 168 160 144 125 86 80 100 110 91 104 122 144 128 158 173 162 137 63 85 125 141 166 171 162 160 181 190 172 179 165 152 165 189 210 196 169 155 133 112 98 91 86 90 90 96 97 113 106 112 118 122 125 124 126 131 132 139 135 138 139 135 133 133 131 136 126 147 161 173 165 165 151 155 156 151 137 141 164 141 136 137 122 101 106 104 106 131 158 234 242 232 214 185 168 149 148 103 83 104 113 99 90 145 161 170 185 191 163 136 70 95 135 163 188 191 173 176 189 189 172 187 172 147 156 158 165 181 171 162 151 128 98 96 80 68 64 68 66 72 82 84 95 95 94 101 108 108 116 116 121 124 124 116 122 123 127 134 140 155 169 169 169 165 159 164 153 155 148 154 148 131 126 132 105 86 126 105 113 136 164 231 251 229 234 196 170 178 166 134 110 115 120 108 87 150 168 188 202 190 158 131 87 119 168 179 196 199 190 176 197 193 170 180 183 153 143 144 142 148 152 157 163 150 113 88 83 76 63 65 62 65 62 67 67 87 78 94 103 102 109 101 101 103 110 114 121 116 134 149 154 165 175 169 175 172 163 166 148 145 154 145 134 124 120 139 84 78 121 113 124 148 159 213 247 239 234 182 166 184 181 170 128 115 126 116 89 