P2
92
112
255
126 131 130 129 132 135 141 139 131 138 133 130 131 134 130 123 128 117 109 93 93 106 103 93 128 123 124 142 126 119 123 132 114 109 124 132 140 127 117 130 133 124 129 145 158 156 137 118 127 137 141 125 112 109 91 74 82 76 77 85 75 77 78 82 65 85 108 116 130 146 157 166 154 154 158 168 174 176 179 183 189 188 192 195 186 192 192 192 190 191 187 181 128 125 127 126 130 136 136 135 132 138 132 131 128 134 128 123 115 107 94 81 78 90 108 126 158 156 142 155 145 138 137 125 128 121 121 128 141 112 112 126 107 106 111 117 131 133 137 107 109 106 110 123 130 110 118 110 106 103 90 96 74 63 76 75 68 58 71 84 106 136 147 149 161 163 149 153 167 173 166 179 179 184 186 186 186 188 191 195 183 186 193 185 129 127 127 126 132 132 126 129 132 131 127 122 123 116 115 108 109 102 87 77 86 100 121 140 154 160 155 151 161 162 153 138 151 140 138 121 146 126 111 114 99 82 85 81 85 80 104 77 73 80 95 107 123 119 119 117 116 121 117 117 115 80 78 66 63 58 69 67 73 91 120 130 144 147 146 151 148 159 165 158 170 175 180 177 180 187 189 190 191 182 192 189 120 127 121 118 123 126 127 129 128 125 120 118 111 107 103 103 102 94 89 74 96 114 130 149 163 174 186 178 171 173 174 149 145 150 168 152 148 135 129 126 98 87 81 67 63 84 71 80 81 69 85 82 78 101 114 103 110 111 131 135 132 102 87 90 62 82 76 69 69 77 75 99 116 149 138 152 144 143 166 166 162 173 163 172 173 182 188 188 186 182 182 189 125 126 121 115 116 125 118 122 123 122 120 104 103 108 102 102 97 82 86 104 98 119 132 166 179 201 203 218 209 193 197 171 153 165 157 157 144 144 142 143 125 104 91 89 77 72 78 90 77 62 56 64 62 69 94 98 118 115 134 137 125 128 130 113 84 94 100 88 79 70 74 86 84 108 147 155 148 142 151 173 161 162 173 171 169 172 186 186 189 187 177 184 127 121 123 120 120 121 123 111 106 104 97 86 96 90 85 105 90 79 93 98 94 126 146 179 196 213 227 234 226 209 200 181 186 165 163 151 150 142 151 135 131 122 107 115 98 80 86 99 88 83 71 64 57 73 84 92 118 136 150 132 127 132 146 161 143 96 99 103 117 93 75 80 78 76 115 130 153 148 146 158 162 157 158 167 164 171 179 183 182 191 179 179 124 118 119 124 120 114 114 110 107 93 96 94 84 84 81 88 76 79 99 106 127 143 165 171 205 210 210 191 200 186 184 180 180 173 162 177 166 138 147 140 130 120 112 125 124 99 104 104 103 86 91 75 67 71 89 89 111 142 159 147 158 159 148 165 165 125 117 124 136 104 91 81 69 82 108 107 117 136 156 154 151 167 159 158 167 173 176 178 184 185 183 179 124 117 120 125 119 111 97 107 100 97 89 97 85 73 71 86 88 90 114 127 133 171 188 176 190 183 182 173 168 175 159 174 161 157 158 169 160 158 162 150 130 136 138 135 127 110 105 104 96 85 94 78 94 81 87 93 107 118 142 161 155 164 177 192 183 177 152 146 133 118 100 105 73 74 91 103 93 112 124 134 154 148 166 162 163 172 173 171 178 181 184 179 118 118 125 114 107 100 102 93 92 89 96 81 55 53 62 94 102 121 126 139 145 185 183 174 155 166 170 174 176 169 162 155 155 156 157 152 150 142 155 151 137 130 125 127 118 115 107 100 90 86 83 84 77 87 85 94 107 95 114 152 151 180 175 192 191 191 189 182 143 128 132 127 102 98 99 93 96 101 123 121 144 153 147 164 162 168 175 173 163 175 175 186 115 116 115 108 98 93 101 90 88 101 90 66 48 50 92 100 112 131 133 136 170 164 163 153 159 161 159 166 161 151 152 143 144 153 148 144 144 140 139 137 125 117 110 113 120 110 111 102 89 81 86 91 80 72 82 92 89 87 103 128 138 164 180 175 186 192 213 205 172 143 137 132 136 127 115 106 82 86 101 103 127 150 156 153 150 166 170 170 157 164 172 174 106 109 103 92 94 100 80 75 93 91 77 58 58 85 97 102 100 129 135 129 150 136 131 145 163 159 149 147 143 138 133 139 137 145 143 151 145 151 145 127 112 106 103 115 127 116 126 115 105 95 95 99 87 64 79 86 82 83 97 113 129 142 155 171 173 190 198 194 187 184 156 156 141 148 134 126 109 81 94 99 104 144 159 144 143 160 166 163 167 160 170 171 96 105 95 99 98 80 73 81 85 89 71 84 78 94 93 110 123 129 123 129 121 124 124 152 145 158 150 137 127 112 113 116 121 128 141 140 130 136 138 137 119 123 112 117 120 115 120 132 114 110 108 113 90 81 74 83 81 93 99 109 125 139 146 153 165 187 188 192 175 176 166 157 156 147 147 142 131 90 88 97 114 137 149 145 150 148 154 162 164 164 159 170 108 107 97 95 77 71 68 80 77 88 97 95 75 91 92 126 128 108 118 115 131 118 129 135 137 139 142 128 111 105 103 99 105 120 113 129 118 131 131 133 132 134 132 124 129 133 133 133 126 124 108 115 92 80 83 85 71 75 92 109 122 128 141 147 151 173 189 189 190 171 160 154 157 146 134 137 157 119 90 105 104 129 137 140 158 150 155 156 155 161 159 162 97 99 93 86 63 55 66 73 75 93 96 82 86 95 116 121 111 118 111 129 122 124 127 133 132 119 111 103 102 100 100 100 102 112 116 117 115 122 117 118 129 138 142 147 139 141 147 147 134 135 118 117 109 95 81 87 74 75 90 108 115 126 140 149 155 161 180 174 185 169 152 161 163 161 144 120 149 142 119 110 109 125 136 143 146 174 166 153 157 154 152 167 95 86 78 62 58 52 73 93 92 114 91 74 92 120 118 104 115 107 117 121 116 123 128 128 108 87 88 86 86 95 103 103 108 115 120 125 125 120 134 139 142 142 139 146 153 149 148 151 149 140 126 129 129 111 101 96 95 90 101 120 125 131 148 153 150 146 151 158 171 152 159 166 156 161 159 150 127 132 150 106 119 133 134 140 148 175 174 144 150 147 148 164 96 80 63 50 47 61 85 86 104 106 82 91 115 120 111 123 115 109 110 91 103 120 113 101 86 79 81 88 87 102 101 113 109 112 111 115 119 128 131 137 144 143 139 142 153 142 146 145 145 131 126 127 138 124 113 108 107 107 104 120 122 123 141 147 149 143 145 156 164 146 142 145 141 142 155 156 141 134 133 124 118 129 124 138 124 165 182 147 137 151 148 153 94 82 57 35 49 73 94 101 95 91 77 95 101 94 118 118 103 100 96 86 106 112 86 77 78 81 82 85 96 106 104 108 104 105 96 100 104 126 125 129 130 144 142 137 139 140 147 134 150 139 137 137 130 125 112 109 104 103 110 124 128 131 147 152 147 156 147 152 164 146 131 129 140 141 154 162 148 145 132 108 113 110 129 139 116 139 170 169 155 151 155 146 96 78 45 43 73 100 107 98 102 88 82 107 98 96 130 100 85 88 82 84 82 77 54 65 77 81 86 91 97 105 101 103 101 103 95 100 105 111 126 117 126 134 128 120 120 125 135 137 134 147 143 136 140 133 125 118 107 118 112 120 126 124 136 146 147 146 145 160 161 151 130 131 122 140 147 158 156 129 127 109 100 102 124 136 114 111 142 162 169 155 149 142 84 62 33 51 88 109 111 107 110 96 101 104 101 111 115 91 79 84 78 74 64 53 45 66 64 76 86 93 91 96 96 93 99 99 92 102 101 97 105 109 115 114 114 115 111 114 126 136 131 140 148 151 149 144 137 130 116 119 124 113 120 124 134 134 145 141 142 143 152 140 123 119 132 115 126 153 153 138 98 104 111 83 96 110 108 103 120 144 145 151 151 133 76 49 33 75 107 122 112 120 106 116 108 93 109 102 104 84 74 78 72 50 53 40 52 63 61 68 78 88 88 91 89 85 96 96 89 94 91 81 95 95 99 97 101 107 108 108 112 117 125 135 147 149 151 145 138 132 122 126 129 119 122 128 132 130 136 140 139 138 137 135 129 116 131 109 122 141 145 124 92 93 119 101 60 93 113 106 105 116 131 143 148 139 72 52 41 97 141 133 119 122 129 124 104 99 107 90 85 78 78 73 53 34 37 33 52 54 60 63 77 80 84 88 84 81 86 89 83 82 75 74 79 79 83 85 90 95 101 105 112 120 123 142 146 152 150 148 151 144 134 134 125 119 122 128 123 126 128 131 129 136 126 131 122 106 120 125 130 129 143 124 96 83 80 116 96 67 108 104 83 102 117 139 140 133 69 56 66 136 157 127 141 142 136 102 117 109 102 70 74 79 77 57 37 25 29 38 48 61 68 70 73 75 81 84 82 82 79 81 78 78 79 79 77 82 85 93 95 103 105 108 114 122 128 141 140 139 147 152 148 142 130 131 122 117 114 117 127 122 122 122 126 131 130 122 119 112 98 121 121 131 130 138 99 93 66 108 115 98 76 98 85 91 110 134 135 138 61 65 96 148 139 138 155 152 116 102 130 119 77 62 67 73 66 45 24 20 32 44 57 69 72 74 75 81 84 92 83 83 87 80 82 91 99 97 98 101 106 112 112 117 115 121 121 128 130 142 147 145 143 144 140 142 144 135 129 120 127 126 137 129 125 123 119 126 125 120 120 117 96 116 126 124 105 129 108 82 74 98 112 109 93 85 86 76 85 105 125 131 61 69 130 138 155 155 158 129 112 122 129 93 74 68 63 61 48 26 22 22 46 48 67 79 81 84 83 91 85 86 87 90 92 95 100 109 110 121 119 124 123 125 125 130 123 124 125 133 134 144 146 155 149 154 162 154 148 139 132 130 132 134 138 140 145 139 125 118 118 117 121 119 108 108 128 136 116 108 117 88 79 97 106 123 94 83 93 76 80 75 96 132 60 89 143 177 185 168 137 125 131 136 112 90 92 63 57 47 37 26 35 33 50 63 71 81 95 88 96 102 100 103 106 111 117 119 124 128 130 136 139 135 138 132 136 136 140 140 143 142 152 151 158 152 159 158 169 163 151 148 146 141 142 134 132 143 143 145 136 127 107 111 125 119 117 106 118 138 127 116 117 94 90 101 122 116 90 95 95 97 86 71 79 116 80 116 159 202 166 148 116 127 123 130 107 106 92 65 74 50 53 43 54 49 73 78 84 96 108 116 115 110 110 120 122 125 134 132 140 136 140 149 143 146 147 145 148 156 154 153 143 141 148 151 150 148 150 163 166 169 162 160 154 155 150 145 134 139 133 144 142 132 124 101 106 119 111 110 107 129 142 119 132 105 93 115 114 122 102 86 108 116 103 80 96 95 94 138 197 185 160 133 106 130 124 135 127 107 101 76 78 58 59 62 76 77 92 95 99 119 121 126 122 121 121 125 129 124 127 127 130 128 137 139 145 145 148 151 152 157 160 161 145 140 146 147 147 142 149 158 165 166 157 153 154 153 142 145 140 136 137 134 143 140 138 111 104 106 98 100 94 121 141 126 134 119 106 112 114 116 115 98 82 96 127 92 89 95 86 174 203 173 147 113 123 116 132 146 118 106 100 85 72 67 72 80 96 104 104 111 110 123 127 128 129 117 115 117 119 114 112 112 116 118 125 130 131 135 139 145 147 154 161 166 148 135 145 147 140 135 141 147 157 161 152 150 156 146 139 134 135 133 132 132 133 146 140 121 115 92 87 89 90 101 129 135 121 141 119 118 116 99 101 108 92 80 111 107 89 94 115 178 196 160 125 105 119 138 149 146 110 107 99 80 71 72 95 103 102 109 111 118 117 117 129 127 118 99 91 101 99 100 95 94 101 100 104 112 116 119 123 129 132 144 154 155 145 139 135 132 129 127 123 129 141 138 137 133 135 133 132 132 121 121 127 125 131 140 148 135 122 108 80 75 72 79 114 136 107 152 126 118 115 100 73 116 102 96 106 117 103 94 141 162 162 130 100 88 134 147 144 144 110 116 90 76 84 85 102 107 102 108 112 115 116 110 108 108 108 88 72 81 80 81 83 85 83 80 87 91 104 104 111 115 125 129 138 139 130 129 124 120 119 122 108 120 122 124 119 122 122 122 123 128 123 114 120 119 133 139 144 147 130 119 76 69 62 70 107 124 113 133 146 134 109 93 71 87 90 111 108 124 105 111 144 137 129 113 96 93 136 141 149 126 118 113 77 85 88 90 110 109 109 101 103 104 99 103 102 94 84 75 64 77 71 71 66 72 73 69 74 79 87 86 98 106 117 124 133 128 128 125 112 112 108 108 109 113 112 118 118 122 124 116 123 128 119 110 110 116 129 138 147 147 139 119 92 67 55 60 90 108 114 120 137 154 111 67 83 84 74 106 110 127 106 130 142 122 105 99 91 92 122 135 119 114 123 112 89 84 92 116 116 121 115 99 97 107 102 100 95 90 82 81 80 85 82 76 75 77 76 79 82 80 92 86 96 107 110 115 128 124 121 117 112 103 106 101 109 113 117 116 130 129 125 131 131 135 127 123 110 112 118 138 147 149 141 126 100 71 61 56 88 105 103 119 129 148 132 67 68 91 85 116 140 121 131 134 143 113 101 99 95 96 102 118 118 135 121 113 96 102 115 131 132 127 124 119 113 129 117 112 105 101 100 100 100 96 86 86 85 82 89 91 92 90 111 107 110 125 121 122 130 130 123 117 121 114 117 116 121 123 125 125 129 131 139 143 143 147 149 144 141 137 138 142 147 159 158 138 121 84 64 64 70 108 108 120 124 133 139 89 63 75 94 120 155 144 148 145 125 124 111 108 92 77 102 124 141 148 123 110 107 128 140 144 144 145 145 139 150 135 135 123 118 115 121 116 113 103 99 101 98 105 111 107 108 103 120 126 120 124 132 125 125 122 121 116 118 126 132 134 136 134 135 133 139 139 147 158 158 162 164 158 155 155 159 161 152 149 168 158 138 107 76 81 88 100 120 118 137 116 132 93 88 69 103 131 150 154 175 147 123 133 113 104 80 86 120 135 149 146 139 113 131 149 156 158 158 163 159 157 152 134 136 131 120 125 123 121 118 117 129 129 137 128 118 124 120 125 127 133 133 132 135 129 127 131 133 135 132 149 146 143 142 143 141 147 155 153 166 172 168 169 168 158 153 159 156 160 160 152 157 166 157 137 111 96 103 109 121 131 128 114 128 87 92 89 102 139 160 155 189 166 143 140 110 100 83 97 123 125 141 152 152 129 149 169 175 174 177 179 167 152 151 135 131 129 129 127 124 124 128 133 138 136 138 135 127 126 124 122 125 127 134 140 135 139 139 137 143 142 131 148 154 149 154 153 149 164 168 167 177 181 169 164 164 149 153 159 151 157 160 152 161 142 151 164 148 121 109 125 127 133 128 123 107 77 82 121 120 134 150 155 184 171 163 132 103 108 78 102 106 128 152 171 159 137 151 177 181 184 178 180 158 145 142 133 136 131 137 138 140 142 142 141 135 133 140 136 136 130 124 116 121 122 126 130 131 140 144 138 144 144 137 145 142 139 144 142 140 147 157 151 161 165 163 159 151 148 149 148 147 147 147 143 149 127 119 171 157 152 116 125 125 121 125 127 99 79 81 115 127 131 154 162 176 182 149 143 112 84 94 108 89 147 169 172 173 145 152 180 197 192 181 158 154 155 145 127 137 131 130 134 132 130 131 129 139 139 140 140 138 135 124 116 114 117 114 117 126 129 128 124 126 132 125 126 131 129 133 133 129 138 148 146 152 156 157 153 150 140 142 135 137 135 138 128 136 124 116 141 156 150 137 138 129 131 109 110 91 70 74 106 116 123 150 158 162 187 149 135 123 90 92 94 101 165 168 167 178 151 161 180 190 187 151 139 146 149 130 132 130 121 128 127 130 118 122 130 132 139 146 143 134 129 123 116 109 107 104 105 108 111 111 105 108 112 113 115 123 127 131 133 123 134 135 132 143 147 149 145 136 135 127 123 122 137 134 125 128 132 120 124 126 129 110 114 124 153 98 99 78 65 76 102 116 127 140 134 169 187 154 150 106 99 103 99 116 171 175 173 175 142 144 160 172 165 140 127 126 113 113 122 117 107 113 113 113 105 109 112 123 124 133 130 133 126 117 111 101 102 103 89 93 93 97 96 95 97 99 110 112 112 115 130 129 139 138 132 145 141 153 147 137 132 116 111 115 112 118 109 124 126 125 128 133 122 107 93 113 136 108 106 75 66 79 95 122 117 135 121 169 194 156 127 93 80 97 113 137 164 188 183 161 127 131 144 152 139 130 120 124 105 94 93 91 84 82 95 98 97 97 99 116 121 126 123 125 120 115 114 111 97 91 87 79 81 83 86 87 91 94 101 106 108 110 122 131 134 133 135 142 148 160 155 152 136 128 112 100 107 106 105 111 133 127 128 139 146 127 102 121 146 119 87 77 84 88 84 134 126 129 119 163 212 166 117 65 74 88 133 139 178 201 176 150 141 126 124 126 126 114 104 102 80 67 71 57 64 64 72 90 96 94 104 110 115 122 112 114 110 103 95 96 94 79 72 62 58 63 64 77 86 91 103 103 106 113 119 129 131 129 131 136 142 143 141 148 142 131 132 107 107 112 108 112 124 132 128 124 143 133 99 103 140 136 96 97 98 109 71 120 115 111 117 173 198 182 100 74 65 98 132 132 207 202 162 156 139 126 128 153 147 147 138 113 98 74 67 46 50 62 78 100 98 113 122 123 126 126 120 120 99 100 89 77 78 72 58 40 37 40 36 59 76 81 97 103 104 115 128 135 134 132 130 138 136 127 124 142 146 139 136 134 117 117 110 122 125 132 128 131 148 129 93 77 123 127 97 121 108 107 76 89 89 83 110 161 180 171 79 86 77 100 119 170 215 179 162 156 151 157 129 152 133 134 124 99 93 83 71 84 89 93 113 130 124 132 128 140 139 146 137 132 118 113 90 64 70 55 51 27 17 14 9 37 58 63 74 88 89 92 106 130 130 135 133 145 149 138 144 168 145 129 140 136 144 118 97 109 139 127 135 123 151 164 115 89 105 121 104 133 150 107 71 56 60 66 109 151 175 121 81 117 106 80 121 172 221 198 159 165 150 154 126 154 119 123 127 107 109 102 98 91 99 97 126 132 125 126 122 124 134 136 140 133 118 108 80 66 54 51 48 37 25 27 31 46 59 63 58 74 73 82 90 88 99 103 95 95 130 129 112 142 116 110 106 90 108 103 95 99 106 96 118 107 126 150 131 91 102 109 117 130 175 99 69 47 40 53 88 123 153 100 98 120 100 78 115 151 223 211 139 153 159 147 121 144 112 124 122 99 103 88 95 81 85 85 103 130 123 120 126 141 149 148 134 137 115 86 64 63 58 46 40 32 20 16 33 41 42 60 60 71 80 84 88 79 74 75 76 78 92 112 123 124 95 105 101 72 76 75 77 90 92 85 97 98 97 124 114 74 88 120 131 140 182 71 55 59 49 50 85 99 139 111 109 117 109 99 123 138 197 204 126 122 150 150 126 125 100 112 112 92 103 108 97 98 102 97 92 101 108 106 125 138 145 146 126 133 100 79 73 64 52 41 39 35 22 15 24 30 39 55 68 70 85 76 78 69 76 82 74 80 74 81 110 106 102 103 85 74 65 54 52 71 81 93 81 100 100 110 106 64 80 115 131 150 167 75 78 61 37 46 84 80 134 138 97 101 111 131 138 154 193 180 129 119 134 157 132 121 102 99 84 97 120 133 116 112 110 92 90 89 100 97 126 148 143 153 129 109 94 85 77 69 57 59 62 38 24 19 21 29 41 55 71 80 88 86 91 77 72 80 85 72 87 88 104 93 91 104 67 43 37 30 42 50 56 73 56 87 89 100 103 87 82 115 106 141 144 110 95 39 20 50 103 88 118 136 100 99 128 136 133 147 192 169 132 116 127 136 103 117 98 73 94 122 130 149 148 142 103 85 94 106 92 96 120 135 139 153 167 145 107 110 101 89 87 72 83 65 57 57 32 53 70 66 94 102 113 109 112 103 92 90 91 77 101 120 122 98 76 94 84 57 47 37 49 63 65 81 73 78 81 63 88 99 81 120 116 117 115 94 86 34 28 55 119 101 118 128 109 108 118 103 136 162 194 147 132 112 114 118 85 99 104 74 100 133 140 130 148 137 110 99 109 116 111 115 118 125 139 166 181 186 174 149 144 131 121 112 116 94 60 60 58 67 77 85 95 110 129 128 141 135 127 73 80 76 117 130 118 87 79 101 91 77 75 69 50 70 63 75 81 68 76 63 76 95 88 135 142 115 112 107 72 40 51 69 104 132 102 117 115 132 109 98 123 153 160 144 109 81 97 113 93 92 85 78 84 100 127 109 136 156 161 155 168 150 148 149 142 136 149 190 201 224 195 166 158 146 157 150 131 103 74 52 48 58 77 90 106 113 162 162 158 168 156 109 82 114 130 155 161 135 110 126 121 93 77 85 49 66 88 60 91 73 90 98 93 98 77 125 151 93 131 116 53 51 81 88 109 126 121 113 138 129 82 91 109 124 142 123 89 80 94 94 81 103 91 72 79 79 118 103 114 135 187 196 208 179 166 170 164 165 150 167 190 222 193 173 170 143 176 170 129 99 62 55 47 37 58 100 127 124 158 192 191 196 163 121 111 141 165 184 159 129 125 116 136 123 123 89 65 55 71 53 90 86 87 109 109 79 62 101 143 110 132 129 50 63 72 95 102 121 129 107 134 113 53 112 101 117 130 111 75 98 118 99 89 102 113 80 84 78 117 94 119 130 157 175 178 163 176 157 155 135 149 164 170 218 169 156 165 148 175 173 148 116 82 85 70 57 65 105 144 161 165 211 214 215 168 145 133 129 144 164 152 122 114 97 106 121 83 55 43 53 59 49 63 72 72 111 112 61 64 64 127 102 101 122 57 73 70 103 105 134 120 89 122 105 53 131 126 117 122 109 81 92 101 120 100 95 117 74 52 71 77 84 96 114 132 138 151 143 142 130 125 97 139 127 130 181 140 137 133 168 189 180 170 138 124 96 74 78 94 107 128 168 157 170 185 193 179 159 148 114 118 141 138 131 114 93 101 107 69 45 50 42 40 34 66 74 81 111 115 89 57 74 97 92 97 110 88 71 74 131 111 153 122 92 120 83 46 149 130 115 133 114 100 111 87 116 117 91 119 79 58 64 86 81 94 106 119 114 127 149 117 90 100 104 98 109 130 140 123 105 112 139 144 154 155 126 114 83 64 83 115 95 101 149 149 131 161 184 177 164 150 103 87 115 121 120 79 72 80 79 32 36 69 73 51 75 82 89 85 120 134 127 72 92 91 87 110 111 111 101 68 150 134 160 129 105 94 66 43 133 120 136 133 129 134 117 106 101 123 113 108 91 59 55 84 71 96 108 111 133 151 132 109 91 81 111 101 119 142 123 119 120 130 135 131 144 145 112 92 72 34 48 83 87 107 126 150 139 115 137 164 146 134 123 104 95 119 118 78 72 66 83 55 69 76 84 76 85 90 88 98 124 138 132 89 78 95 92 91 124 122 94 80 126 114 145 120 115 98 40 47 116 124 124 135 120 146 122 111 95 109 116 126 105 81 80 84 89 93 110 132 123 118 99 97 93 115 139 145 151 170 152 141 143 123 110 132 136 154 101 86 69 49 56 67 78 103 109 127 123 99 84 136 133 127 113 113 92 100 111 98 61 64 78 66 79 76 82 77 87 94 98 94 127 143 153 105 86 83 81 77 127 117 83 88 99 106 130 114 94 87 20 29 107 122 113 130 120 166 119 117 115 100 117 124 137 121 110 113 106 122 129 130 117 114 114 113 96 109 126 161 154 139 146 146 128 100 118 128 133 138 97 97 92 62 62 69 77 93 126 98 82 100 64 61 130 116 129 129 104 95 87 85 68 64 62 66 68 66 72 81 98 106 107 116 139 166 176 113 108 71 69 73 108 101 80 94 95 107 131 119 77 74 18 36 106 120 119 131 138 168 141 133 132 120 124 130 148 142 126 133 130 120 130 118 132 122 114 105 80 93 104 144 148 153 143 128 123 117 107 111 136 123 112 86 102 77 83 89 92 98 131 128 109 110 74 56 105 121 117 133 138 98 110 85 78 73 51 58 61 68 79 114 116 123 138 143 142 147 162 150 113 56 74 91 124 99 96 108 111 117 141 121 72 57 47 44 108 132 105 140 145 163 145 136 134 112 120 120 127 133 127 130 126 132 124 110 128 105 98 88 76 82 103 132 151 144 117 123 119 142 104 116 118 110 96 77 79 63 84 95 112 111 131 132 151 113 104 75 95 114 124 128 145 139 143 135 108 106 76 76 97 101 105 120 115 127 134 131 119 127 158 162 111 68 99 96 114 137 103 105 103 130 151 110 102 57 76 75 114 126 102 132 145 150 159 138 137 124 134 143 137 130 132 129 139 119 107 103 97 108 102 99 88 104 130 137 131 117 113 139 127 138 130 130 122 107 90 91 85 75 99 86 103 123 134 136 155 127 104 132 128 139 132 140 138 147 141 157 124 128 123 102 117 113 115 123 125 132 134 118 103 125 159 158 135 123 117 125 135 201 118 113 102 139 149 102 89 63 95 84 91 123 101 140 140 165 156 149 136 131 133 146 148 148 130 132 141 126 125 119 110 115 103 105 113 120 125 112 117 119 144 135 115 120 124 117 110 105 82 104 101 88 84 66 75 105 106 120 114 108 68 91 97 119 136 152 154 158 143 143 111 115 130 115 104 106 115 110 109 117 121 104 95 120 140 139 172 167 128 175 189 220 124 123 102 151 134 98 82 73 97 81 84 104 92 126 127 156 173 152 129 133 134 135 132 140 144 145 141 144 141 135 120 127 112 111 119 116 118 128 121 142 146 130 129 140 141 119 99 88 87 96 114 105 81 67 84 106 105 112 101 74 62 44 66 93 92 114 135 148 134 132 116 93 106 113 91 88 102 100 98 112 108 108 102 112 123 134 171 172 151 188 214 221 106 108 110 153 126 101 88 103 93 83 92 110 94 100 136 161 143 154 156 123 144 129 127 123 122 121 137 139 140 162 136 113 112 105 105 104 107 116 124 143 141 129 136 132 117 106 95 74 91 77 91 91 69 71 80 108 119 116 111 94 66 43 63 72 90 95 129 139 131 126 120 110 95 99 94 81 88 91 94 104 101 100 97 118 123 141 159 154 195 195 227 193 136 121 139 147 118 107 68 145 127 115 122 97 101 77 131 169 151 132 152 137 143 139 131 115 113 111 130 135 149 144 126 106 104 114 103 107 99 128 137 136 129 135 136 127 107 110 81 76 56 64 56 58 45 41 57 97 99 110 130 121 91 49 64 65 73 102 120 143 135 119 117 104 105 93 90 82 83 91 94 101 88 96 102 105 121 148 162 165 190 213 228 180 147 133 160 154 98 101 54 109 141 152 146 94 104 72 128 176 174 143 135 133 124 125 134 122 115 109 126 138 146 132 110 95 91 99 97 98 107 131 133 129 136 140 130 112 104 102 85 84 65 57 64 55 29 43 56 88 102 104 139 131 111 61 50 73 68 82 100 109 133 122 114 108 104 85 86 80 80 96 103 94 86 101 109 117 147 161 154 159 168 194 210 150 141 161 171 133 93 125 48 89 117 139 168 115 120 110 132 183 175 166 148 123 120 131 131 117 120 105 124 124 126 124 102 88 84 88 85 93 110 124 117 120 122 115 117 105 104 108 97 101 89 88 73 75 48 51 65 79 112 132 161 145 110 92 96 85 84 83 99 103 102 108 117 118 100 81 81 81 85 112 108 92 87 96 126 129 148 165 136 125 157 186 174 163 133 198 166 128 123 109 46 63 108 124 146 93 98 114 121 182 156 142 156 142 125 131 134 121 118 110 116 112 111 112 87 78 75 76 75 85 90 118 116 111 115 115 103 109 116 101 84 99 100 94 95 80 79 78 87 91 92 146 166 158 131 117 118 122 97 82 89 104 102 87 99 95 91 83 84 88 83 104 86 73 76 102 115 140 153 167 147 127 167 158 167 175 145 191 176 121 127 113 47 63 122 131 150 110 109 107 98 150 153 147 141 133 131 132 131 123 121 114 109 112 109 100 79 71 69 69 73 83 92 105 104 103 90 98 99 102 100 90 97 94 106 113 116 97 74 91 109 119 111 131 165 173 153 139 134 126 117 92 90 81 96 97 80 89 71 78 83 88 90 98 85 80 78 100 115 128 149 165 171 158 142 131 156 131 158 191 192 143 137 113 53 69 141 147 145 92 89 92 91 120 130 128 137 142 126 120 124 113 110 111 113 115 111 92 76 62 61 64 75 72 74 98 101 97 103 126 141 136 118 99 96 111 128 125 117 112 105 94 108 134 133 126 137 170 171 150 145 146 133 102 93 87 83 77 82 80 78 75 87 92 104 92 83 80 86 102 123 113 141 166 185 143 111 131 153 132 189 194 200 148 127 134 55 79 119 160 140 118 75 86 83 110 110 123 132 125 125 119 121 116 118 122 114 110 107 96 84 70 75 85 74 67 64 77 89 98 111 123 157 154 126 122 119 128 131 131 121 109 125 130 130 149 152 155 153 144 146 120 109 126 123 102 66 66 89 93 97 94 92 93 100 104 114 100 89 86 96 94 115 113 132 173 198 175 104 161 157 159 184 197 196 132 149 139 87 100 123 160 140 123 85 73 101 103 95 103 130 116 119 122 114 113 117 124 111 112 100 105 86 91 98 99 88 83 82 92 90 103 128 143 167 172 146 142 145 147 141 137 130 126 142 163 170 165 171 172 165 166 162 144 131 165 158 134 115 96 120 118 126 124 130 120 121 122 129 128 107 100 100 92 114 120 150 166 188 162 115 178 183 183 188 170 187 131 149 142 96 119 126 172 160 123 119 68 107 91 98 83 102 111 107 124 112 117 124 122 119 119 123 129 114 117 125 118 103 101 104 104 98 108 123 149 148 168 153 151 156 157 145 152 144 155 152 180 185 201 203 201 195 187 180 146 130 150 148 139 126 119 137 129 132 128 136 132 144 138 143 136 124 124 107 102 118 145 171 170 168 180 153 210 194 206 190 152 199 143 138 141 98 112 135 159 172 143 108 66 91 87 83 73 63 93 93 124 122 122 122 124 125 134 139 140 121 133 147 142 141 143 129 124 115 112 120 134 142 149 152 163 168 156 144 155 163 172 161 171 182 198 199 184 174 170 168 155 125 133 148 156 140 141 147 149 149 154 153 158 158 148 153 143 134 134 111 112 134 157 184 183 175 213 193 204 204 223 169 146 196 132 133 136 113 98 117 166 150 161 125 76 99 73 76 62 55 99 90 118 124 124 126 133 137 140 147 143 133 154 163 156 160 148 140 139 122 117 115 129 142 150 156 176 171 157 142 148 167 183 164 155 165 190 190 165 170 174 166 158 124 119 135 138 129 117 136 144 148 151 153 167 159 160 151 147 142 138 113 130 143 166 193 183 189 209 183 203 230 212 134 162 191 118 127 138 121 91 116 163 159 148 118 75 73 74 80 68 40 97 95 113 123 126 126 136 136 137 148 142 141 168 171 154 156 141 137 130 126 123 121 133 150 168 168 190 188 171 157 157 168 176 154 150 158 174 187 173 169 178 184 150 133 124 135 130 132 120 128 141 133 153 150 156 150 147 140 146 143 133 123 143 149 171 173 166 190 199 165 197 218 196 123 177 173 101 122 163 127 107 109 156 172 155 111 75 75 71 60 76 47 88 88 103 125 123 132 130 134 142 156 148 152 163 154 150 142 129 117 118 105 114 117 125 135 139 137 166 169 154 138 147 174 182 168 140 138 163 179 180 163 165 167 150 147 139 138 137 126 110 115 127 130 140 149 150 138 131 130 131 138 130 127 151 153 155 172 143 202 201 155 171 189 167 155 178 133 102 118 162 112 113 106 148 171 161 112 90 87 80 56 82 65 91 100 95 125 124 143 134 151 158 162 156 153 147 153 143 126 118 111 109 98 112 105 109 124 125 123 135 128 134 126 127 144 165 168 131 123 150 161 159 152 147 143 147 147 137 136 136 124 99 103 111 122 130 140 147 125 121 112 124 137 135 133 156 155 142 179 147 198 200 145 173 150 150 174 137 91 108 120 159 88 104 111 137 154 163 115 85 108 102 84 87 78 112 107 106 117 140 143 141 162 161 164 154 158 152 155 119 99 106 95 96 91 95 89 95 110 98 108 107 108 106 88 81 90 105 119 110 109 119 128 127 132 133 128 123 126 122 126 134 116 96 90 100 103 107 110 129 119 118 112 124 127 130 140 153 164 144 177 158 193 180 134 140 110 152 168 89 83 114 129 160 71 85 118 142 138 162 122 107 112 130 117 104 123 124 116 125 117 149 156 146 172 171 165 161 160 164 156 126 115 105 89 84 94 91 74 93 95 89 88 81 75 79 77 74 81 76 85 98 111 109 106 113 122 122 107 99 105 107 104 104 100 88 81 92 86 93 83 94 99 108 101 117 125 134 141 149 165 147 170 156 193 157 117 101 105 150 126 69 96 124 133 154 84 88 117 151 155 154 123 129 117 126 132 129 134 123 146 146 139 154 152 152 163 160 164 168 157 163 165 142 132 100 97 101 110 97 84 84 78 94 93 75 61 79 69 85 94 98 90 108 119 119 125 118 123 115 110 108 108 103 97 82 94 85 64 68 77 77 66 66 81 87 89 109 121 136 138 149 169 138 162 150 187 122 82 80 94 108 83 91 108 126 133 143 105 104 97 139 155 157 115 123 136 108 108 144 138 135 161 159 147 155 148 156 158 165 168 165 153 165 157 143 121 90 87 85 90 92 96 82 67 95 93 84 75 91 90 85 97 105 97 121 113 119 119 125 141 115 111 121 112 107 105 93 102 94 78 66 62 60 55 54 67 80 75 96 114 124 126 150 153 146 150 140 173 90 70 57 75 87 93 109 113 138 137 121 122 105 102 139 145 156 141 124 141 115 108 127 154 164 174 170 152 144 152 150 157 163 159 152 139 138 131 116 106 102 88 76 86 77 84 78 69 76 74 71 78 104 91 77 93 105 87 96 89 91 89 108 135 136 139 125 141 125 107 112 107 101 94 71 71 58 61 63 61 75 75 94 105 122 113 147 143 144 149 123 164 77 64 74 91 97 116 129 124 125 134 122 120 117 121 132 151 161 160 155 146 130 113 102 146 165 179 173 147 146 143 148 143 151 157 135 127 123 114 120 118 111 113 96 96 83 95 91 91 75 76 71 81 99 79 81 97 94 94 82 75 86 79 89 115 132 152 127 134 131 106 104 120 119 112 97 88 83 72 76 88 72 75 91 108 123 98 136 140 155 145 131 163 103 100 94 102 101 124 160 118 115 127 129 111 129 132 126 147 166 172 172 158 155 126 86 124 159 170 178 145 139 152 141 134 137 146 134 124 126 110 117 113 117 117 106 99 88 108 97 110 86 97 85 81 85 74 72 96 96 84 69 61 66 75 85 97 103 115 114 122 123 101 111 113 123 122 115 99 91 77 89 93 74 75 98 115 117 102 127 131 145 160 150 151 130 111 112 113 102 130 179 122 111 123 137 109 126 139 132 150 164 165 162 147 161 125 100 124 162 158 173 144 129 160 142 136 133 137 136 129 127 108 120 117 120 117 104 101 107 127 119 134 134 123 94 90 96 81 54 60 83 54 48 48 60 78 77 92 92 102 102 107 125 117 123 141 138 133 122 105 90 77 84 86 84 87 107 117 112 98 122 120 143 168 165 148 141 128 120 115 108 123 166 156 114 121 141 121 114 127 134 149 167 147 148 136 164 142 108 128 163 153 174 159 129 154 151 140 127 122 118 118 118 108 107 119 125 118 106 100 108 123 131 148 146 152 132 125 112 109 91 94 97 102 94 87 86 85 96 95 95 97 108 98 116 140 133 147 143 130 121 106 91 76 70 84 93 99 100 112 106 114 126 119 161 179 167 151 145 123 126 105 112 121 168 171 120 120 132 116 117 106 125 143 155 115 125 134 137 156 118 134 167 166 165 179 135 145 159 149 124 110 103 100 106 97 100 113 124 119 109 116 106 121 137 147 140 136 135 121 109 102 91 97 97 98 102 86 70 63 81 81 95 93 93 94 100 116 123 138 127 119 108 88 87 80 89 101 105 111 116 112 103 121 134 129 185 169 164 152 126 126 118 107 120 119 149 167 134 123 125 104 111 107 118 135 122 98 115 121 116 139 130 136 172 167 168 193 164 126 159 150 134 115 112 99 100 94 98 103 125 127 139 146 131 127 135 127 123 124 117 112 99 99 82 79 78 67 77 73 58 57 71 68 87 95 107 117 124 125 124 142 121 113 112 105 99 87 98 108 109 120 118 106 105 127 137 157 191 157 158 142 116 132 107 119 122 115 134 170 144 121 116 75 100 105 110 112 85 87 93 111 111 116 123 131 160 170 170 184 181 133 153 136 132 117 118 119 106 113 105 106 133 151 152 160 156 140 125 117 110 117 116 114 104 102 103 100 100 103 92 82 67 66 77 75 90 96 114 110 116 113 119 131 116 119 122 110 104 105 96 101 113 115 118 107 104 144 134 178 181 149 148 114 124 130 110 127 123 110 129 174 175 117 109 80 86 97 108 79 63 79 86 91 112 99 102 129 141 161 177 167 177 152 138 131 134 139 127 122 108 123 122 123 146 172 175 183 182 177 154 141 128 124 120 120 115 127 126 121 136 115 110 111 97 112 119 104 102 89 95 92 93 94 103 103 112 118 123 105 101 101 88 103 108 112 113 108 112 144 151 186 158 150 136 109 127 133 134 130 125 113 126 169 193 120 113 87 87 98 80 76 64 76 86 88 108 96 86 113 133 139 157 151 152 162 127 131 131 142 130 120 119 112 112 130 136 159 176 178 186 177 161 140 128 125 124 124 126 139 147 135 155 152 152 155 151 150 167 147 147 122 110 95 85 86 95 91 92 110 122 103 99 92 98 102 114 115 116 118 116 147 148 166 143 157 120 109 131 138 133 134 132 129 131 169 199 148 118 82 88 78 75 66 72 74 83 89 100 87 79 102 105 106 135 137 135 150 135 125 139 132 140 123 119 103 102 103 118 138 153 152 145 148 136 137 129 124 118 111 108 116 117 123 153 163 162 163 174 183 178 169 166 134 127 102 103 96 91 88 90 97 115 95 93 97 100 108 121 116 131 122 135 146 134 137 152 159 117 119 133 137 138 148 127 136 130 151 185 168 145 80 73 63 65 75 69 75 86 94 98 78 75 91 97 79 111 128 128 134 134 127 134 134 137 137 125 116 111 116 119 126 127 136 129 130 122 113 101 96 92 83 79 90 99 106 129 137 142 141 143 155 145 146 129 109 99 92 91 92 93 96 90 95 104 88 92 100 104 110 127 122 147 123 149 149 113 117 156 143 114 142 131 136 137 155 129 147 125 144 168 172 165 68 55 66 70 79 80 69 110 107 104 75 74 70 97 64 79 127 138 129 133 113 129 128 136 144 146 138 136 145 143 146 136 136 132 133 129 114 101 93 86 80 68 58 67 71 75 94 101 99 109 107 101 103 105 88 85 87 83 91 90 93 91 90 96 89 99 99 108 117 126 139 158 109 150 131 112 129 129 135 114 136 136 123 127 130 133 134 117 148 159 165 161 40 38 51 63 77 66 79 120 115 102 74 71 80 81 60 65 122 157 135 132 117 119 124 119 137 149 151 150 146 143 153 156 152 155 150 140 122 117 98 87 80 73 71 65 67 78 76 90 87 92 90 81 79 91 83 93 90 92 93 93 95 94 92 112 105 104 104 103 124 131 149 152 103 129 111 115 120 112 85 99 133 120 105 88 107 118 123 105 129 145 146 148 28 40 48 69 78 56 81 116 108 101 59 70 92 63 40 53 106 157 156 134 127 116 124 115 124 136 145 152 155 146 142 151 151 159 153 150 132 120 99 85 82 76 73 67 55 69 67 70 72 71 76 70 72 76 77 76 87 89 90 86 88 92 109 120 114 109 96 117 126 141 147 139 99 104 102 128 101 96 82 89 110 107 95 72 72 93 105 94 116 120 125 125 15 18 24 50 64 38 79 85 97 85 44 70 87 55 18 42 104 152 162 150 136 107 116 106 121 136 133 139 141 141 138 137 141 151 153 145 138 127 109 98 92 82 79 70 64 46 58 68 62 62 62 56 65 64 69 71 83 80 84 93 98 95 111 111 104 106 108 121 134 146 140 118 85 98 83 112 92 70 78 79 90 93 90 77 71 78 77 86 124 129 122 124 11 13 27 59 69 54 79 66 72 53 42 78 81 62 7 31 108 155 163 168 144 102 103 112 129 137 148 144 143 136 133 137 144 144 142 133 125 123 115 106 92 79 86 88 96 77 69 67 61 61 61 64 68 66 68 60 70 82 85 83 93 89 108 109 94 104 117 129 143 142 124 98 81 105 71 82 82 66 67 85 94 85 76 86 79 71 56 79 111 124 129 131 0 14 36 78 79 82 70 52 64 57 35 88 88 68 13 25 105 164 158 170 132 107 108 113 149 139 161 156 152 141 137 134 143 138 135 132 131 124 132 99 99 95 87 99 92 92 84 70 71 69 66 72 71 68 76 70 71 80 84 88 88 92 92 92 90 105 114 132 139 131 112 114 91 105 58 69 73 73 64 81 91 65 77 89 90 72 52 75 109 118 120 128 2 23 55 88 90 92 55 72 68 63 47 95 118 70 23 32 97 160 168 169 137 116 123 130 151 135 146 165 161 151 156 156 158 145 143 135 132 122 122 110 111 118 108 110 106 102 94 86 84 79 71 68 62 64 62 55 63 73 84 87 88 86 82 73 85 103 117 130 122 125 113 109 109 108 51 78 65 86 70 79 84 70 77 99 91 74 62 71 98 113 120 132 7 34 63 95 109 99 57 79 69 51 54 121 139 91 29 43 87 141 169 185 135 117 129 147 155 147 140 154 155 156 154 168 162 149 147 137 130 126 122 118 126 127 119 121 118 112 106 86 85 71 64 67 54 63 52 43 56 67 76 70 80 67 71 79 96 106 121 123 111 129 103 102 110 112 62 77 55 85 98 71 70 78 86 102 107 78 63 85 83 91 108 128 21 42 77 110 118 73 55 78 60 66 75 161 161 84 46 42 91 139 164 165 157 131 130 161 185 157 153 146 143 138 145 156 147 138 140 138 129 130 132 121 124 116 124 111 113 108 104 91 88 70 62 61 49 43 35 35 38 45 44 52 54 58 73 86 104 102 118 113 122 124 94 105 108 109 76 93 57 96 101 78 70 72 90 95 104 77 77 84 81 83 89 104 31 65 83 108 118 52 61 95 73 91 97 178 171 93 40 33 104 129 135 147 155 144 143 170 199 174 153 146 132 127 127 135 129 129 132 132 129 129 131 125 129 117 116 107 104 94 93 84 79 67 59 47 36 32 18 23 27 28 24 33 51 62 81 102 100 110 113 110 115 109 84 129 123 94 60 117 117 107 96 90 72 70 81 92 89 89 85 86 85 75 90 95 52 64 72 114 117 65 111 112 90 100 122 200 163 95 52 44 105 124 113 142 162 147 151 171 198 188 171 148 142 122 117 117 125 134 125 122 118 116 131 134 138 124 122 103 98 87 90 79 73 58 50 35 34 26 19 18 13 19 27 33 57 69 95 113 99 112 111 98 100 98 88 153 133 77 63 111 147 127 109 105 87 93 82 85 83 107 105 91 92 89 89 94 73 71 87 141 148 114 145 128 116 103 133 215 151 87 66 60 93 111 104 126 155 157 160 179 181 198 187 169 149 145 120 122 123 131 128 122 113 115 122 131 128 130 122 114 105 87 83 76 69 52 50 35 38 39 30 14 13 24 39 42 61 86 103 119 100 108 113 91 92 101 119 151 131 89 81 131 162 135 98 117 106 123 87 67 91 104 118 110 97 102 99 99 110 110 146 185 171 159 165 155 130 112 152 214 154 90 58 74 86 96 104 114 139 159 161 176 177 180 186 189 172 170 156 131 133 128 128 120 114 115 114 113 109 111 116 106 107 92 85 86 84 70 56 50 51 46 31 28 34 47 49 60 83 108 112 114 95 110 108 99 110 105 134 153 128 102 103 169 192 162 96 123 137 152 126 67 94 103 139 130 108 116 116 107 150 140 174 187 177 185 175 150 134 137 176 196 159 93 72 87 93 113 101 122 136 163 156 167 178 167 177 185 176 178 175 160 145 143 130 119 120 106 111 106 102 96 109 106 103 99 95 97 84 78 68 70 61 58 56 59 71 68 77 90 107 117 117 104 100 102 86 109 114 116 137 140 112 116 115 199 192 200 145 139 151 169 170 126 100 119 149 142 134 125 138 142 151 162 184 178 185 195 192 154 136 150 189 198 172 110 94 88 73 115 100 111 134 175 152 148 178 166 170 184 170 183 182 180 176 169 148 133 127 124 111 103 112 110 111 108 107 96 99 92 91 92 90 91 86 90 93 95 95 107 116 123 111 115 109 105 102 88 84 121 118 117 142 129 102 116 125 211 187 206 181 176 166 184 197 144 99 131 150 143 133 113 126 142 156 183 184 196 217 231 230 165 134 150 196 209 185 133 87 64 61 102 94 128 134 159 148 144 163 178 170 177 176 184 186 193 190 191 183 169 154 155 141 126 126 126 116 117 116 107 108 104 106 104 107 109 109 112 125 126 112 121 127 112 107 104 117 102 92 68 88 133 111 134 135 129 116 112 136 186 174 224 189 216 196 165 213 183 121 134 156 158 145 129 127 138 176 232 219 230 222 244 236 161 139 175 231 217 163 143 72 39 73 97 96 143 141 142 136 135 144 164 175 166 171 178 183 199 213 199 196 193 190 175 162 139 140 143 126 123 123 120 111 112 104 108 111 113 112 129 126 119 120 120 113 101 106 101 101 101 71 64 107 112 108 131 135 133 138 105 144 155 168 231 206 217 207 200 193 198 177 149 156 195 179 156 148 148 189 255 234 209 223 228 202 138 155 203 246 199 138 159 87 41 83 95 104 145 151 127 121 128 130 138 154 152 162 173 187 192 205 214 196 200 196 186 175 169 148 157 125 128 124 109 112 108 105 98 99 99 107 124 108 108 118 104 103 104 103 100 94 88 71 86 106 109 113 127 107 150 168 114 131 140 189 223 217 218 196 225 188 232 214 154 156 179 198 179 166 154 