P2
92
112
255
120 126 124 122 125 128 132 126 127 131 130 123 125 126 130 125 126 118 108 100 103 111 108 101 124 122 126 141 128 120 121 124 106 100 104 116 118 115 105 108 98 88 86 94 106 103 82 53 59 59 60 49 46 44 43 33 52 53 62 71 69 72 74 79 68 81 113 128 148 164 171 177 166 162 168 173 172 170 167 169 169 168 167 173 162 167 167 164 163 161 157 155 122 121 120 120 123 130 128 129 126 132 129 122 123 125 125 122 112 108 100 97 96 101 112 130 151 152 141 151 135 125 125 115 120 111 112 122 129 108 104 114 94 87 94 85 94 95 92 46 43 38 34 49 62 46 67 63 65 72 66 72 59 48 60 65 63 56 67 88 113 151 166 164 171 174 164 163 174 172 163 172 167 168 166 165 163 166 167 166 158 160 164 157 123 121 120 120 127 125 119 127 129 125 122 114 119 112 112 105 110 109 102 94 107 112 131 148 150 154 143 142 146 141 134 128 140 139 140 132 141 128 116 119 101 92 81 74 74 70 80 45 38 39 41 43 58 56 65 68 76 83 83 85 95 54 58 46 50 54 65 65 75 105 136 148 158 161 166 170 163 170 174 163 165 166 169 160 158 166 165 168 165 157 163 158 115 122 116 111 121 122 122 123 124 118 114 113 105 105 100 104 110 108 100 94 115 128 130 146 151 153 159 148 143 155 157 143 143 148 159 157 153 145 137 127 110 98 94 82 80 93 72 75 63 46 51 43 39 51 62 52 67 78 95 105 110 80 65 71 47 68 73 64 71 82 90 120 139 161 155 174 165 162 179 175 166 172 159 161 155 162 166 167 165 156 158 160 117 120 116 113 114 124 118 118 118 116 113 99 101 105 102 109 105 93 103 120 107 114 125 149 154 161 165 176 172 174 185 170 158 160 159 158 147 149 148 144 130 119 108 115 101 90 83 86 74 59 52 47 41 40 58 56 63 74 100 107 100 105 103 89 64 70 81 76 78 76 83 97 104 130 161 171 170 164 169 184 169 165 171 164 157 155 167 167 165 164 153 157 120 117 119 119 119 121 119 110 101 100 89 83 88 92 87 102 94 88 106 100 90 112 123 145 149 162 180 192 186 174 175 169 163 155 163 151 153 144 158 148 146 138 128 136 125 101 101 108 97 91 76 66 53 60 69 64 79 91 108 91 94 104 109 123 116 71 72 77 96 89 78 80 83 91 128 148 170 167 172 175 174 165 163 168 160 159 162 163 158 167 156 152 121 115 116 120 119 115 110 105 98 84 87 82 79 84 81 91 80 83 91 87 98 113 121 129 155 167 171 159 158 153 159 166 154 158 161 165 161 150 162 157 152 145 135 146 145 123 123 122 117 96 100 88 77 72 83 73 89 107 113 105 110 117 114 121 121 91 96 99 108 81 77 74 63 90 113 125 136 154 177 174 169 177 167 164 165 167 165 162 163 162 160 157 121 116 123 123 115 106 94 96 84 76 72 77 74 72 71 88 82 77 84 93 92 122 138 134 144 143 141 142 142 149 147 162 145 143 154 157 152 158 168 161 147 150 151 155 145 130 124 122 117 102 106 93 101 88 94 86 94 104 119 126 118 123 141 152 137 139 126 119 110 97 80 87 57 68 96 111 111 134 142 161 174 166 175 172 169 168 166 162 162 161 160 157 115 115 125 116 101 90 87 77 68 62 67 62 43 49 63 89 84 92 87 96 97 131 136 128 118 126 133 141 147 144 149 145 136 140 144 139 146 144 152 152 141 139 141 139 134 133 128 125 115 108 102 97 91 98 92 93 100 92 103 137 126 140 140 150 148 154 152 147 115 106 108 105 78 84 99 98 111 120 145 146 169 168 167 175 170 170 171 168 156 158 155 162 113 119 117 105 91 86 78 69 59 67 61 49 42 49 84 83 84 91 84 91 115 119 121 108 118 125 134 142 137 129 135 127 127 135 135 133 134 132 135 133 126 123 120 127 125 122 121 120 110 101 106 106 97 90 93 96 93 88 101 121 123 138 146 141 147 155 174 166 137 122 112 104 109 102 104 105 89 105 121 131 150 163 176 167 163 169 168 163 153 151 151 151 112 116 103 89 85 85 59 49 64 60 54 49 60 81 84 74 65 83 86 81 95 92 96 106 126 134 132 133 123 122 118 125 120 124 128 132 127 135 135 126 118 111 112 125 136 130 130 125 118 102 109 110 98 76 90 94 86 88 101 119 132 137 141 147 143 159 164 159 149 146 130 131 116 121 112 114 111 97 110 126 127 153 171 161 157 164 169 161 162 151 155 149 111 109 93 90 86 68 54 60 64 66 51 75 76 78 74 77 77 81 75 79 74 81 97 119 128 136 129 121 117 102 102 103 106 111 121 117 111 119 125 128 118 121 119 127 131 131 131 134 123 116 118 125 103 95 87 93 90 100 108 115 130 141 140 149 150 161 156 166 145 138 132 127 132 117 125 121 121 96 98 112 134 147 154 164 165 160 160 169 160 158 153 151 109 100 91 85 64 56 54 66 63 71 84 88 61 74 63 83 78 62 69 70 88 93 110 116 125 123 121 112 100 101 95 91 96 103 102 112 110 117 123 127 129 126 134 133 139 140 137 136 133 131 120 127 105 92 97 93 88 93 102 116 128 136 143 146 153 158 161 166 159 148 130 127 127 121 114 123 138 113 96 112 114 138 154 154 172 168 168 164 160 159 154 149 98 99 89 77 55 52 64 65 67 86 90 72 64 71 71 71 66 72 74 88 90 109 109 117 116 106 96 100 94 95 90 95 97 103 111 115 118 118 120 122 133 133 141 149 145 148 155 154 146 147 133 124 117 106 92 94 90 89 98 113 126 142 149 155 156 163 167 161 158 145 127 136 142 138 126 108 133 131 117 115 119 130 146 152 162 184 179 167 163 161 150 159 96 86 80 62 61 60 71 92 91 113 85 62 71 84 67 52 68 71 88 87 99 114 112 106 91 74 71 82 81 88 92 97 102 114 120 126 127 123 133 139 143 136 135 144 152 148 150 151 152 149 139 138 133 124 113 110 109 103 111 131 137 145 159 161 154 155 150 152 153 127 135 137 138 143 141 139 117 128 143 113 127 137 140 146 157 181 182 157 164 161 154 160 97 88 70 64 65 69 89 94 106 99 74 75 82 76 61 76 77 78 88 75 91 110 100 82 67 61 61 77 82 94 99 109 107 113 117 117 122 130 132 133 139 136 136 142 145 140 148 146 141 134 133 134 137 125 115 112 115 112 114 129 136 135 153 158 155 152 151 152 153 135 119 117 122 131 140 143 144 136 134 126 131 133 130 146 138 170 188 162 151 165 158 155 94 91 75 66 72 86 102 116 97 84 68 75 65 52 70 86 79 82 81 77 95 98 79 56 58 61 62 71 93 103 105 108 105 106 103 103 107 123 123 122 128 137 136 137 129 142 146 135 148 141 138 139 130 119 106 102 99 104 111 122 128 133 147 159 148 154 146 152 157 142 117 110 124 128 144 150 140 149 138 104 125 122 133 142 131 153 177 174 168 159 162 148 96 87 70 78 94 114 114 105 101 87 77 87 70 64 87 83 79 83 68 82 80 69 44 45 58 64 72 89 98 104 108 106 103 109 104 103 108 107 113 111 122 129 129 129 123 129 139 137 134 142 138 139 135 126 120 107 98 107 105 111 121 130 132 143 143 134 133 145 149 142 119 113 112 135 135 149 150 131 135 111 102 113 131 136 119 126 161 172 175 162 155 145 86 75 68 84 112 123 104 100 109 103 91 84 78 76 84 83 84 77 72 78 62 48 36 49 55 64 77 89 94 100 102 103 107 107 106 107 104 100 101 100 108 111 115 119 118 120 127 134 134 136 138 143 138 127 127 114 99 105 106 99 108 119 123 128 135 124 126 128 131 133 117 97 122 116 117 143 146 133 104 108 116 87 107 116 110 105 132 164 160 159 154 141 82 65 67 99 129 120 100 118 113 116 94 77 91 92 98 89 79 80 73 58 48 42 43 51 57 71 82 91 95 98 100 101 104 104 102 99 95 85 98 88 91 98 104 109 113 108 112 117 125 126 130 125 126 117 117 109 102 99 102 98 105 113 116 118 121 122 119 122 121 123 121 109 111 110 122 130 138 116 89 102 129 114 66 106 112 110 113 131 154 154 152 139 77 65 68 117 147 124 117 125 128 121 93 92 101 105 92 87 88 78 59 43 42 42 52 53 66 75 86 88 87 94 95 94 97 96 95 91 87 84 93 85 87 87 95 98 103 101 103 107 109 117 121 123 125 117 118 116 112 105 95 96 99 110 110 111 109 111 108 114 110 116 110 102 104 112 126 122 134 114 94 91 94 126 105 76 114 105 93 112 137 157 158 137 72 69 84 149 154 124 144 141 129 101 108 112 110 91 82 84 89 62 50 41 45 54 52 71 80 83 85 83 85 92 87 90 87 90 87 84 88 86 82 85 81 89 92 94 97 98 100 105 101 110 111 111 115 116 109 110 104 102 90 92 94 98 109 102 101 101 103 107 108 107 107 100 92 108 116 124 122 125 96 89 75 123 122 109 85 107 82 97 125 153 159 151 69 76 112 159 140 149 159 149 120 94 126 127 93 83 73 78 66 55 39 43 56 61 72 95 92 91 93 86 90 96 84 89 90 88 88 95 99 98 96 97 98 99 96 98 102 100 100 101 100 108 110 106 106 108 106 114 117 108 103 99 113 114 120 112 103 97 94 99 101 103 104 106 93 104 113 117 112 117 96 77 72 110 119 115 106 98 89 75 99 126 152 146 71 82 139 150 164 167 162 137 109 114 131 115 94 85 71 62 48 46 40 48 73 67 93 105 103 103 100 99 96 92 89 90 91 92 95 103 103 108 107 111 108 111 106 111 106 104 102 112 112 116 120 127 118 125 135 129 122 114 111 112 122 124 128 128 127 117 105 94 94 93 98 103 98 99 112 126 116 108 109 85 80 104 113 130 106 102 101 78 91 98 124 146 68 99 156 185 195 178 154 128 127 127 123 109 103 79 62 44 47 46 55 62 75 86 96 101 112 105 105 110 105 105 102 102 106 105 110 108 116 120 118 117 120 115 119 114 123 122 128 125 135 134 138 133 140 138 145 146 134 136 130 133 140 132 129 136 136 128 122 110 83 86 96 97 101 95 108 123 123 115 118 89 97 108 140 123 97 117 115 100 89 86 113 136 83 130 168 196 174 165 128 123 122 127 111 117 102 74 64 49 56 57 66 73 88 91 98 102 113 120 119 113 115 116 109 108 117 111 117 114 121 130 122 123 125 126 131 135 135 136 128 129 134 131 133 130 134 148 146 152 151 151 143 154 153 147 136 138 131 140 130 122 109 78 77 88 91 96 105 114 128 120 128 109 99 121 131 136 105 103 117 126 106 88 123 127 106 151 193 182 175 156 113 121 122 130 130 112 98 66 65 57 51 63 78 90 97 101 106 120 121 123 125 122 122 117 112 107 107 106 111 112 118 123 125 122 125 131 135 135 142 144 132 128 130 129 133 126 136 145 150 155 149 149 152 155 150 155 146 145 145 138 140 139 127 97 77 73 74 81 91 113 122 124 133 129 113 127 127 132 121 120 89 103 135 96 110 122 115 178 199 177 166 133 124 118 121 139 123 104 87 65 57 55 61 74 90 103 107 115 116 125 124 124 129 121 114 113 108 103 104 102 104 107 116 116 114 119 120 130 129 135 141 149 137 124 134 129 129 127 131 139 149 152 144 148 157 153 151 146 147 144 147 144 138 147 139 114 103 62 62 66 79 95 113 122 127 147 128 140 129 107 114 125 104 91 111 108 108 128 142 190 189 174 146 125 124 140 141 139 113 97 83 56 53 53 81 91 95 102 111 122 122 122 128 129 125 106 98 103 97 97 99 95 98 96 96 100 103 106 106 114 114 126 136 136 130 125 121 116 115 118 118 120 135 130 134 135 140 146 148 151 139 140 143 141 145 148 154 141 117 84 57 53 67 70 92 123 117 151 150 134 130 114 92 128 120 111 113 111 119 131 166 176 164 141 129 109 132 149 135 134 112 97 73 53 59 67 89 98 95 97 108 117 122 115 119 118 116 102 89 96 88 84 89 88 85 83 84 86 94 96 99 102 111 111 118 119 113 115 112 99 105 113 104 112 113 118 116 120 121 126 130 136 140 134 135 136 146 151 155 159 131 108 60 50 53 69 79 107 113 125 159 154 122 109 93 94 106 118 124 123 123 141 169 151 143 130 119 107 124 137 135 122 116 87 61 60 58 74 100 101 107 93 99 106 106 111 114 105 98 92 86 95 83 78 71 76 78 73 77 78 80 84 89 97 103 105 113 106 109 108 102 97 93 100 101 102 102 110 111 117 119 113 121 125 120 125 123 126 143 148 162 161 141 120 88 51 47 59 72 86 105 111 144 167 128 85 104 101 83 119 127 134 136 153 153 129 126 114 107 104 115 125 113 108 109 81 67 55 68 99 110 113 109 91 93 103 105 106 105 100 96 96 95 95 90 78 75 77 76 82 81 78 82 82 93 99 100 102 111 104 102 101 99 94 95 97 100 101 104 105 114 116 114 118 118 121 118 123 116 116 121 145 163 165 146 129 99 50 53 43 67 80 91 109 129 160 149 90 90 110 106 128 144 134 151 151 150 120 124 115 105 103 101 97 103 107 83 71 66 75 94 119 126 121 120 109 106 118 111 107 104 105 107 105 106 97 84 85 81 76 81 87 85 84 100 99 104 118 111 112 111 120 109 108 115 108 113 114 119 118 125 122 124 125 127 125 123 125 127 126 132 131 132 141 156 174 167 142 117 72 48 45 46 80 86 113 121 148 156 106 88 90 115 121 148 159 152 160 129 126 132 124 102 81 88 99 102 95 70 76 81 107 124 135 141 138 132 125 138 123 116 114 109 111 116 107 105 95 89 89 83 87 93 95 95 92 110 111 112 119 127 120 120 126 125 122 120 122 128 132 131 129 134 133 134 134 135 133 131 132 136 127 127 135 139 148 150 153 176 165 139 93 58 60 53 67 92 99 134 131 147 108 114 79 113 126 131 169 174 160 133 135 132 117 94 84 94 97 83 84 81 82 107 130 141 149 152 144 141 144 143 118 117 116 113 116 112 106 101 101 109 104 111 104 100 106 109 111 114 118 122 127 127 126 128 130 134 137 130 140 133 138 135 138 135 138 143 146 145 147 138 141 137 127 124 130 127 141 150 138 147 166 159 131 96 64 71 68 89 115 119 130 136 99 107 106 101 147 146 171 188 168 150 141 136 118 98 90 100 79 86 89 98 99 133 152 155 159 168 161 150 140 139 118 114 116 118 114 109 105 108 111 115 115 116 111 107 107 105 112 110 114 121 129 130 134 139 134 140 139 131 137 135 137 135 134 128 141 142 143 151 153 139 136 135 123 127 134 130 136 144 133 137 125 147 157 129 92 70 84 92 120 122 128 116 80 98 129 125 146 148 164 191 173 154 129 130 138 98 100 92 78 93 100 105 113 142 166 170 173 161 157 142 131 122 113 119 115 122 124 124 126 123 122 119 116 124 111 114 110 104 101 111 110 116 121 125 134 136 132 136 139 128 132 120 117 121 116 117 120 130 123 135 137 136 132 125 122 125 127 130 130 131 126 127 105 107 160 139 118 75 86 88 99 122 138 106 84 88 111 137 144 149 166 184 172 121 129 134 116 110 119 83 91 105 99 120 125 151 175 182 177 163 146 139 133 120 111 122 121 120 126 126 115 111 111 124 128 127 127 123 121 111 106 106 107 103 108 119 121 120 115 117 122 115 111 110 105 106 104 100 106 115 117 123 128 128 125 125 115 119 118 121 121 122 113 118 102 102 131 140 122 93 91 83 98 94 115 105 77 85 97 117 141 157 158 170 166 122 132 135 128 119 111 78 100 110 107 128 146 166 175 175 166 135 127 127 132 108 113 118 109 118 119 120 102 104 111 117 128 137 134 123 120 113 107 103 100 96 96 101 102 103 96 94 101 102 98 102 101 102 100 93 101 101 101 109 114 118 118 109 110 101 102 104 123 115 111 112 114 104 111 119 112 76 76 82 111 80 91 83 79 89 95 108 142 141 148 172 165 139 135 123 146 123 112 84 108 120 117 138 143 148 145 154 144 127 110 111 100 99 109 108 99 106 105 105 93 97 97 112 118 123 122 124 117 109 105 97 95 96 80 84 84 88 86 83 83 86 87 88 84 82 97 98 107 109 107 115 112 124 119 110 106 91 87 92 93 100 95 111 108 104 106 122 112 84 64 81 92 86 90 79 71 87 83 115 119 148 141 166 179 153 121 109 121 125 122 94 107 129 144 127 126 139 132 144 132 122 108 115 99 85 81 84 81 79 90 89 88 88 87 108 112 115 113 114 110 107 106 101 89 85 82 71 75 73 75 73 77 76 79 80 81 80 92 99 110 107 115 122 125 135 130 130 114 107 89 78 85 90 93 96 120 112 104 123 141 117 75 92 105 97 71 79 93 92 79 128 140 155 139 158 187 158 125 89 114 124 121 100 122 155 137 120 148 133 123 124 115 108 97 97 69 56 62 52 60 66 76 82 85 86 91 96 98 103 94 97 97 90 85 90 89 77 70 62 58 62 58 74 78 82 89 89 88 93 101 112 111 109 115 120 129 130 125 134 129 116 120 94 90 105 101 98 109 123 109 106 135 120 74 75 100 102 80 80 106 114 81 124 133 141 123 165 175 175 106 93 94 132 114 94 162 153 137 139 140 129 142 151 143 145 141 119 101 84 75 54 53 63 78 92 95 105 110 112 116 113 108 108 91 95 85 77 79 76 64 45 46 48 36 62 81 84 97 104 104 114 128 132 131 131 128 134 138 122 113 136 142 134 132 132 108 110 113 117 111 117 108 110 143 113 69 45 80 81 73 95 123 118 103 113 124 112 105 152 164 177 94 90 94 120 116 149 179 146 150 145 153 153 152 136 122 120 111 96 97 89 90 94 95 101 117 130 124 132 125 132 134 144 132 134 118 116 95 74 79 66 63 35 24 21 10 38 65 73 81 99 99 103 113 140 141 142 137 147 151 126 136 165 145 127 139 137 144 115 93 110 135 122 134 116 148 155 90 53 58 67 68 88 136 119 106 95 112 90 103 150 165 142 96 110 132 119 130 176 181 163 161 151 155 138 129 127 102 102 116 109 115 108 107 105 110 108 130 134 118 125 123 124 131 137 139 135 128 119 93 74 62 63 62 52 36 39 43 61 73 81 75 93 94 99 105 104 109 116 104 104 139 125 103 138 113 107 104 88 107 103 91 100 106 96 110 99 117 135 108 54 56 49 78 74 148 107 105 98 89 79 85 137 149 114 98 115 137 140 143 166 187 180 134 132 140 136 119 120 97 108 112 98 114 99 100 94 99 100 105 119 109 107 119 135 141 142 138 141 131 106 81 67 66 52 47 37 21 19 44 48 50 71 70 88 100 99 97 91 82 76 79 82 99 111 114 112 96 100 106 72 78 77 71 95 91 79 90 86 79 97 81 28 39 56 86 93 138 92 89 99 85 89 86 109 127 99 105 94 137 151 154 168 181 174 116 105 123 135 128 101 89 98 99 100 116 108 103 111 108 108 92 90 93 93 113 127 131 135 126 136 115 92 79 62 55 51 42 31 12 7 35 38 45 61 76 82 98 91 86 77 87 88 79 89 99 89 101 92 92 95 83 73 62 54 37 69 91 91 77 96 81 91 76 15 26 46 91 94 137 98 98 98 64 74 88 87 132 106 94 75 125 157 151 184 199 163 126 131 126 134 129 105 99 94 82 83 104 127 113 119 112 97 98 90 93 91 116 132 126 138 126 118 111 94 87 78 65 69 69 27 11 4 32 35 39 54 80 85 97 96 96 90 92 92 101 91 110 98 97 87 92 98 61 41 27 18 23 34 59 73 43 74 64 81 77 40 31 47 67 97 116 112 118 98 46 61 100 93 120 96 104 64 132 153 139 162 184 160 133 122 121 113 103 100 91 50 69 82 90 131 134 143 111 93 97 111 95 92 112 120 124 138 144 140 109 113 99 93 91 78 86 57 48 54 50 56 71 64 97 103 123 121 121 114 108 113 120 105 126 130 127 106 83 88 73 53 32 11 21 41 48 73 59 62 61 48 73 58 32 68 76 92 89 88 96 68 33 59 104 106 119 91 97 77 107 98 130 160 186 148 130 114 98 79 56 68 73 22 64 94 96 107 133 130 114 110 117 114 115 112 122 120 134 149 155 179 157 140 139 130 109 104 109 77 45 75 76 74 79 80 91 120 144 133 147 141 142 117 116 119 147 147 135 100 93 104 77 53 52 36 19 36 35 54 68 48 53 35 37 66 48 96 92 108 78 85 80 51 44 55 87 141 105 99 103 106 92 76 104 130 150 141 97 91 99 80 59 62 36 29 46 73 88 93 123 142 154 161 162 146 143 142 142 125 142 169 180 217 184 163 160 150 143 136 121 93 59 67 66 70 81 90 95 131 185 160 168 168 171 144 135 151 163 176 182 156 117 119 110 85 53 61 28 34 52 40 69 55 66 74 57 60 40 97 95 94 101 92 57 46 55 67 103 132 108 94 121 115 47 41 82 83 127 123 102 105 110 85 68 66 39 40 58 49 75 84 101 117 173 180 188 161 149 151 156 145 125 153 182 218 194 172 166 142 155 156 129 84 51 52 59 58 76 101 118 133 178 198 188 191 173 137 145 173 188 193 180 157 137 111 116 102 105 67 48 26 38 33 70 73 78 93 80 47 35 76 93 97 96 111 50 58 56 71 102 124 104 91 116 112 19 48 73 82 107 129 97 117 128 103 88 65 75 56 63 49 74 63 92 110 140 151 160 155 158 147 149 139 146 165 178 208 171 156 167 140 157 171 148 107 83 87 74 77 87 101 135 153 173 214 198 190 167 157 154 168 169 168 157 135 117 84 75 105 70 51 27 35 54 46 58 80 74 100 83 24 43 32 89 87 84 124 72 63 49 88 93 124 93 81 105 102 31 69 84 85 89 134 100 119 116 125 105 65 87 56 49 58 46 55 71 86 106 113 133 124 123 125 120 96 135 127 140 177 141 135 149 149 168 169 158 124 119 96 71 82 113 113 114 147 154 167 165 163 158 158 161 144 145 146 136 133 115 87 101 118 66 41 55 33 49 58 81 98 93 107 91 63 46 40 72 79 101 123 89 46 52 106 95 127 100 84 96 72 39 95 73 83 101 132 119 121 114 126 121 68 76 62 59 56 58 62 80 86 101 95 104 119 95 75 92 103 101 119 126 130 108 92 112 114 125 119 129 108 103 85 70 96 126 113 110 133 141 124 152 161 156 157 158 125 123 121 120 122 93 86 101 98 45 36 83 84 73 106 96 107 93 121 121 115 57 54 72 69 125 132 108 79 59 127 116 137 114 89 77 53 29 84 78 99 109 134 148 124 114 127 128 88 72 59 61 53 66 64 83 97 103 115 119 105 97 77 71 113 111 120 133 106 96 103 101 109 104 108 112 91 84 75 45 64 97 105 110 119 132 117 105 131 147 133 135 132 126 114 114 108 82 81 85 96 74 87 94 110 107 108 103 108 100 123 130 128 58 52 60 82 123 141 126 99 95 117 109 114 115 93 78 33 12 60 82 90 109 123 159 125 119 123 115 90 88 71 76 74 71 86 86 107 129 123 121 99 97 95 104 134 135 136 153 125 118 117 83 82 98 99 121 93 94 80 67 73 85 97 119 114 117 128 109 109 132 129 124 122 134 115 109 112 95 72 79 93 88 107 106 110 113 98 105 121 102 127 132 142 69 75 46 78 111 132 114 104 108 107 104 104 104 79 73 12 0 60 78 71 93 110 172 114 120 138 103 92 86 87 90 95 90 100 112 119 126 119 118 106 98 92 103 110 137 139 127 132 124 93 76 87 109 98 116 104 116 102 83 87 88 93 107 124 92 104 119 91 86 136 126 134 138 126 113 115 107 92 85 85 91 99 96 106 107 104 119 126 118 123 130 152 101 93 44 91 96 117 107 92 120 100 107 113 119 61 65 13 2 73 79 69 91 131 172 121 113 148 110 103 101 108 102 100 104 111 115 120 115 122 112 101 92 80 89 89 126 135 136 133 102 101 101 85 106 122 112 132 106 119 105 100 102 106 107 123 117 116 129 95 81 123 131 134 145 149 121 134 115 99 92 76 79 84 93 104 118 111 123 131 130 116 118 147 134 91 60 98 111 133 119 110 135 110 107 128 122 62 49 37 5 78 104 68 105 136 172 139 127 145 110 109 107 110 113 110 109 108 123 113 104 116 96 89 77 76 79 97 117 136 133 103 106 104 123 99 114 105 110 106 98 98 85 101 84 114 110 125 127 129 113 117 90 109 129 134 142 155 146 140 141 120 119 94 90 103 102 104 114 112 130 132 125 103 97 141 146 101 85 126 111 139 160 123 117 103 111 140 108 96 44 62 35 82 101 77 106 137 158 160 134 147 133 128 125 121 123 125 129 124 121 115 105 98 105 97 99 91 102 123 129 126 104 104 128 103 123 118 119 99 99 90 93 94 84 100 70 97 104 116 128 137 102 89 117 105 129 132 148 149 154 140 149 121 122 118 96 109 104 107 114 118 132 129 110 87 95 143 149 134 150 150 148 185 211 121 116 99 123 131 99 86 48 71 46 57 94 75 118 131 170 164 152 147 137 131 147 132 137 136 137 135 116 131 119 109 112 102 110 116 126 131 119 117 110 127 112 105 115 115 102 88 86 71 93 100 85 74 70 75 92 87 107 108 95 52 75 84 109 125 141 148 157 145 133 111 116 127 114 107 107 114 108 114 123 124 108 85 96 130 139 190 197 161 208 216 226 125 115 103 135 123 100 83 62 66 52 51 78 66 108 105 154 178 152 133 148 139 136 131 138 139 144 136 134 131 138 128 127 107 104 115 114 116 125 115 128 122 112 121 128 123 107 83 78 73 79 101 90 85 73 87 100 87 98 91 69 47 26 62 91 97 118 131 145 137 133 116 108 116 116 98 97 103 105 108 111 112 108 100 95 118 131 179 191 184 221 234 212 94 104 109 141 125 101 111 97 67 57 74 97 73 83 111 146 132 155 164 127 150 132 134 121 133 127 141 145 141 148 133 116 99 85 86 85 96 113 119 125 119 116 130 118 107 99 79 64 78 55 65 77 68 73 83 97 103 102 89 79 54 25 56 76 96 104 131 136 132 124 129 116 107 103 102 92 94 100 103 107 102 106 97 109 109 145 156 164 226 240 242 183 139 125 126 142 120 114 92 145 114 97 119 96 80 56 111 145 131 127 151 145 149 142 136 121 114 122 139 144 151 146 126 102 92 94 86 95 90 120 127 121 110 120 123 107 94 95 67 64 40 43 38 51 28 39 50 80 81 95 108 92 69 35 52 70 79 103 118 142 131 118 117 110 110 98 91 91 87 91 101 105 90 98 106 97 110 141 153 175 211 255 235 178 162 149 140 144 106 109 82 115 134 134 141 102 99 48 111 151 150 132 138 137 125 122 139 124 116 114 132 144 150 142 117 94 81 79 84 88 99 124 123 118 117 114 107 86 79 75 60 53 37 39 47 52 16 33 40 58 77 87 112 97 73 35 27 63 70 77 92 110 128 111 104 113 110 88 86 75 75 90 97 89 80 97 97 104 132 144 135 160 191 229 221 152 154 169 141 131 104 119 75 103 120 129 155 132 120 92 114 162 159 169 157 133 122 134 133 120 132 112 129 129 132 135 111 93 80 75 78 91 102 114 104 105 99 81 83 75 74 80 72 76 55 52 44 64 35 38 47 49 86 109 130 107 74 61 65 69 73 75 82 95 99 107 108 113 97 83 78 75 86 111 105 88 80 94 120 118 138 154 124 130 180 214 187 160 145 182 136 128 133 112 71 79 118 110 130 99 103 99 119 168 139 160 170 156 130 130 135 125 126 127 134 126 125 118 92 78 72 65 69 79 80 103 96 86 80 75 64 73 79 64 59 71 71 68 72 61 62 63 70 62 66 116 128 117 99 88 90 98 79 64 71 87 90 82 93 90 84 82 83 79 77 100 75 60 66 98 104 131 137 148 144 132 179 174 165 174 143 174 149 121 139 110 66 76 131 122 129 98 94 84 96 151 139 161 153 148 146 131 135 129 128 127 129 132 127 114 88 72 65 59 64 71 72 79 80 76 56 56 55 59 60 61 78 72 82 93 98 79 59 77 85 92 82 102 132 135 123 109 105 98 93 72 72 70 81 89 76 86 70 76 85 83 94 100 87 84 77 93 108 117 136 153 170 156 147 129 146 132 142 171 168 146 151 123 69 86 148 145 120 83 68 55 78 125 127 143 148 156 139 120 124 117 119 125 127 135 127 103 86 66 57 64 70 58 53 75 80 72 64 83 97 95 82 76 77 89 107 105 98 96 90 76 84 106 106 105 116 141 139 117 110 113 108 84 76 76 74 72 84 81 80 81 93 92 104 92 81 81 90 102 117 105 138 157 190 147 110 115 148 129 156 172 186 155 139 134 74 100 136 165 116 105 54 45 62 108 109 131 145 148 141 121 121 119 123 135 127 127 120 107 94 73 70 81 69 60 52 64 76 79 75 84 119 117 94 98 95 101 114 111 107 98 110 108 102 126 126 130 127 121 117 94 78 97 106 88 60 65 80 85 99 96 96 101 110 110 115 96 82 85 100 91 103 109 127 167 192 177 93 141 156 140 143 175 188 140 150 139 100 113 134 170 124 101 60 34 75 99 83 117 142 141 134 131 116 113 117 130 122 122 120 119 101 96 97 98 84 76 74 83 82 96 104 109 138 138 118 121 118 118 126 124 120 119 125 139 141 149 154 151 137 144 145 124 111 138 132 119 109 95 113 114 125 125 133 128 131 133 134 127 103 95 99 91 105 112 142 158 183 166 108 165 170 153 148 152 181 132 154 151 105 133 129 184 159 108 109 33 85 85 84 94 110 133 126 133 115 112 119 123 129 129 141 136 126 122 131 116 98 95 98 101 95 101 110 123 123 144 133 136 136 141 137 143 138 149 141 159 161 189 191 191 186 178 176 145 122 135 130 126 119 121 138 129 135 133 144 146 156 147 146 133 119 116 103 100 116 135 154 167 162 167 128 186 172 176 156 140 196 139 143 145 105 126 137 173 182 144 113 41 72 66 70 77 59 109 108 133 123 115 113 124 131 143 146 142 128 136 150 141 136 135 122 116 102 95 101 115 120 132 141 156 155 146 142 155 163 167 153 161 176 198 201 190 181 176 177 164 126 128 138 144 134 138 148 149 153 160 162 176 170 155 157 140 126 126 104 108 128 146 167 175 149 181 148 182 187 199 144 139 193 139 132 140 113 107 125 178 175 168 138 71 92 57 49 56 46 109 96 126 128 116 116 127 139 139 148 143 130 155 164 152 153 137 134 131 106 99 96 120 132 143 151 176 166 153 146 157 177 190 171 158 171 200 203 183 184 187 181 170 127 121 139 139 129 124 141 148 150 156 162 181 170 173 159 146 133 132 106 124 138 157 174 159 150 165 142 191 222 196 116 143 197 123 125 142 123 93 116 162 174 153 131 82 81 75 54 56 28 98 94 116 129 121 111 128 132 133 150 143 140 167 169 146 146 128 124 115 112 107 102 122 144 167 171 194 187 171 165 169 183 188 167 159 169 190 206 192 182 189 194 155 134 131 145 141 137 128 132 145 141 156 151 162 152 157 149 148 132 129 114 131 136 159 150 137 152 159 136 178 210 175 108 165 181 105 116 150 128 105 110 156 186 161 125 80 89 89 45 59 33 77 79 101 134 119 117 120 127 141 156 149 150 161 146 137 126 113 99 96 89 104 96 109 124 136 140 169 172 158 140 151 183 192 176 149 152 180 195 197 174 178 181 155 153 150 154 152 136 115 118 128 135 139 149 151 135 134 138 132 130 125 119 137 138 140 144 107 172 168 144 158 174 154 139 174 143 106 107 155 118 118 102 147 178 164 123 94 100 88 50 67 50 77 76 85 130 114 127 120 142 153 155 153 148 145 143 132 112 105 92 91 80 98 82 89 108 112 120 133 121 132 125 129 153 177 173 139 133 163 169 173 163 161 158 154 154 147 151 146 133 103 103 111 123 122 135 150 124 115 109 120 126 129 127 147 137 126 150 115 169 186 149 162 126 150 162 132 98 107 109 157 95 113 112 138 159 168 125 86 125 111 76 77 64 93 90 95 112 130 123 117 148 150 152 144 146 142 148 110 83 93 79 83 74 80 71 79 98 80 101 102 104 98 82 78 93 115 124 116 117 127 134 131 146 147 141 126 129 129 130 139 124 98 88 100 97 95 102 131 118 116 107 117 118 123 131 143 141 115 148 125 165 182 142 126 90 153 161 80 80 105 114 156 78 98 122 143 145 167 130 118 124 150 117 90 103 92 94 111 103 130 130 119 153 156 149 143 143 147 142 108 100 90 71 68 78 78 63 75 71 70 68 59 62 69 66 65 78 79 88 93 114 109 111 117 130 128 114 96 99 105 100 102 96 86 76 88 79 82 73 92 102 108 99 112 119 128 131 134 143 114 140 114 169 156 116 80 103 155 117 48 87 111 117 145 98 99 122 148 161 165 130 146 123 146 148 120 111 90 120 123 116 129 125 124 141 142 141 144 133 137 139 118 108 82 75 81 97 87 73 65 52 69 65 47 32 56 48 59 64 79 79 91 106 105 116 107 112 112 105 97 95 90 82 70 78 70 55 64 70 64 53 60 81 84 86 105 116 129 130 133 147 102 128 102 165 120 72 63 89 95 50 72 96 112 119 137 115 111 102 137 162 168 123 139 141 123 123 152 132 115 132 133 116 131 122 130 137 147 144 136 124 133 119 106 84 57 46 57 69 69 70 54 38 55 54 50 37 51 60 59 63 74 71 86 85 89 99 102 113 94 85 92 88 85 79 70 76 73 69 58 51 42 40 45 66 76 71 89 106 115 112 131 128 105 109 91 148 82 60 45 43 54 54 95 99 122 125 112 123 116 106 137 157 161 150 139 156 124 119 135 153 161 150 140 120 120 129 127 137 144 134 122 104 100 86 68 59 60 45 38 59 45 50 40 35 27 23 33 35 55 60 56 58 67 61 61 60 63 64 83 100 101 104 91 108 96 74 82 78 74 74 54 62 42 49 59 58 72 69 86 96 112 93 129 115 100 106 82 133 53 51 62 51 64 75 109 106 106 118 108 122 120 124 135 155 166 171 173 163 135 125 111 145 166 158 138 115 122 124 127 125 131 134 107 95 88 71 71 77 79 81 68 70 53 59 51 55 37 33 37 35 52 43 52 66 67 69 53 49 61 61 72 81 98 113 97 99 88 67 76 92 92 90 80 81 75 70 74 90 65 66 86 100 114 75 120 114 112 104 97 132 68 86 78 69 64 92 132 104 95 111 112 112 130 133 131 149 169 189 187 178 167 136 89 119 158 148 143 112 115 141 127 121 121 127 110 98 98 75 75 74 86 83 80 77 71 79 64 73 64 71 61 51 44 44 41 61 69 67 52 50 50 65 75 77 77 89 92 92 81 62 75 75 98 102 101 87 83 74 90 95 67 65 93 108 107 84 114 108 105 129 120 117 94 85 81 89 65 108 146 99 94 113 118 109 124 140 132 148 170 177 171 168 172 131 103 112 162 144 138 113 110 155 132 125 114 120 117 105 95 73 87 83 91 91 82 87 101 116 96 101 115 103 84 84 82 70 45 43 60 57 47 44 51 59 67 74 68 78 78 72 87 87 90 108 112 115 106 98 84 75 88 86 80 77 100 112 102 86 111 96 109 142 133 104 101 88 83 83 72 107 133 119 98 105 123 116 112 123 133 143 167 150 145 155 172 151 107 115 157 149 144 129 113 152 145 132 107 102 97 91 87 73 75 98 105 102 91 85 87 98 98 117 119 126 120 111 97 93 90 87 89 97 98 85 79 71 79 72 70 75 81 73 82 111 105 118 121 115 114 103 96 81 79 90 92 95 98 109 98 109 111 96 136 147 125 103 95 77 86 61 79 101 140 132 103 99 115 112 114 103 120 143 152 96 115 146 145 170 116 125 156 164 139 150 114 139 153 145 103 88 80 79 79 63 70 93 108 108 103 100 92 100 102 115 113 109 115 107 97 92 89 92 91 96 101 95 74 68 84 71 82 82 80 74 79 98 101 117 113 117 110 94 94 93 101 105 108 109 118 116 97 116 118 103 166 130 120 105 80 71 69 65 89 93 125 126 112 103 104 98 107 104 114 141 97 55 107 125 126 151 133 127 163 165 149 163 138 118 159 144 123 96 88 76 75 62 67 79 110 115 140 134 125 117 112 100 97 95 91 88 93 101 93 90 90 84 106 102 85 87 96 83 94 96 110 103 122 120 114 133 116 114 117 113 108 99 110 112 109 120 123 113 106 121 125 140 167 115 124 88 68 74 52 83 93 87 108 127 116 99 97 72 99 102 112 108 36 41 79 112 124 132 125 130 157 167 163 158 152 120 157 130 123 106 98 100 81 84 74 77 113 136 142 151 148 132 109 104 93 91 90 91 97 103 110 117 115 129 129 119 102 101 112 102 105 105 124 113 119 113 114 124 112 119 125 114 118 120 97 105 117 118 129 113 106 134 122 157 146 113 111 60 70 70 63 92 96 79 101 128 136 96 88 78 82 96 106 50 16 36 65 97 130 122 104 132 139 157 172 143 153 133 143 132 127 132 108 102 86 91 90 94 123 153 159 160 156 154 126 116 110 105 99 101 97 113 118 127 132 124 125 122 117 124 134 115 111 102 107 98 94 93 101 99 109 122 125 110 110 113 93 113 116 119 126 114 118 133 136 154 123 119 92 55 68 73 88 97 90 83 99 121 140 93 86 83 83 96 59 39 22 33 56 84 136 126 82 109 131 136 156 135 136 142 122 139 134 140 117 103 104 95 90 107 118 147 165 164 161 147 127 108 102 102 102 100 107 118 133 119 139 137 141 151 156 153 169 148 149 124 108 91 78 77 88 86 91 111 126 108 107 104 112 115 124 129 129 126 125 140 126 130 110 118 71 57 69 81 88 99 91 96 98 121 143 108 82 78 89 65 44 28 28 29 41 87 134 117 73 94 110 113 138 133 122 133 122 132 144 135 137 115 105 97 94 92 116 132 147 148 139 129 114 113 103 98 93 87 85 96 102 107 135 148 153 160 176 182 177 166 160 128 114 91 91 84 83 84 90 102 122 98 103 112 117 122 136 134 144 134 143 131 107 100 112 110 59 64 71 76 88 106 83 95 100 103 131 115 102 85 70 44 34 37 34 27 49 95 135 115 78 88 103 87 114 130 122 122 123 134 146 141 142 139 120 114 112 117 122 132 130 139 125 123 110 96 84 80 76 70 62 75 83 91 106 116 121 133 141 150 142 138 122 102 85 81 77 83 81 91 90 104 116 100 109 118 123 129 145 142 159 143 155 122 78 86 110 95 47 85 69 69 88 105 80 102 92 98 115 116 115 67 50 42 37 48 59 28 81 112 137 119 77 67 94 70 92 125 128 119 124 115 146 144 142 150 150 144 144 152 144 152 139 140 134 133 122 104 85 75 66 66 58 53 61 59 64 84 93 91 104 101 95 96 96 82 70 73 75 81 84 92 98 104 112 105 118 117 126 138 144 160 175 131 152 99 76 95 100 82 49 84 82 54 80 86 91 104 89 99 110 109 109 44 47 41 40 76 65 45 99 121 129 115 78 78 74 71 81 116 138 124 126 115 136 146 139 150 160 160 159 153 151 158 157 154 155 149 138 117 108 85 75 65 59 56 51 53 65 64 81 79 84 83 73 73 81 71 77 76 85 85 93 99 105 103 127 122 125 124 122 146 151 171 170 120 136 84 84 86 88 51 58 100 82 65 48 80 103 118 101 98 119 112 103 41 51 45 62 91 64 51 100 123 126 107 90 99 64 58 71 101 139 138 133 126 124 152 135 147 157 162 168 165 155 147 152 151 158 149 147 129 116 94 79 76 67 62 56 45 61 60 62 64 65 69 64 67 65 66 68 80 86 89 95 101 104 121 135 130 133 115 141 148 166 171 149 110 108 92 98 71 65 51 64 90 76 65 43 53 93 125 105 106 121 121 112 61 58 56 82 105 75 68 90 131 125 95 107 102 68 34 61 99 139 144 138 127 98 132 133 145 159 154 158 153 151 146 140 139 153 151 144 134 123 103 91 86 74 71 63 60 45 59 69 60 57 56 52 60 55 59 68 83 78 87 98 109 106 124 132 122 133 130 141 156 168 169 124 85 105 79 91 67 43 52 63 82 64 64 53 48 68 104 97 116 128 118 119 63 60 66 102 117 98 79 94 123 117 88 122 115 69 21 41 103 133 147 153 136 85 109 134 159 157 163 158 154 147 140 142 145 149 144 134 122 119 107 98 84 70 75 74 84 67 64 60 54 55 56 59 62 57 61 55 67 76 86 87 102 100 122 125 116 129 138 147 162 166 144 100 82 108 76 75 59 50 57 72 84 54 56 68 56 61 74 88 119 128 123 123 54 66 74 120 123 109 78 91 124 106 104 143 127 71 24 29 93 147 138 160 125 90 99 129 176 156 169 162 162 145 141 138 147 144 139 132 128 118 120 86 86 75 67 76 73 69 63 51 53 56 54 63 61 62 70 65 69 75 85 93 98 108 107 112 113 127 132 147 154 150 122 112 91 102 68 72 65 59 65 80 76 37 55 76 71 67 59 81 125 140 121 125 52 74 93 137 125 104 70 104 126 110 114 165 142 73 26 27 74 145 148 157 140 96 106 136 167 156 154 164 164 152 153 151 151 140 137 126 122 117 108 96 89 91 83 82 80 71 64 59 61 61 53 52 51 57 54 48 56 72 85 94 98 98 101 94 105 118 129 140 130 138 119 103 107 101 77 100 68 83 81 86 75 45 59 88 83 75 61 67 113 138 135 132 60 88 112 145 128 100 64 109 122 113 124 174 160 80 36 29 64 121 151 174 127 92 100 144 157 155 149 157 155 155 147 156 146 138 130 121 114 114 109 107 110 102 96 97 91 84 74 56 56 42 38 43 35 43 39 32 53 68 84 75 93 81 91 98 110 113 127 127 123 128 102 105 105 96 97 130 74 103 119 87 69 62 68 97 113 79 54 78 91 111 116 127 80 95 125 147 129 84 68 115 114 116 132 188 164 90 55 27 72 112 144 157 137 100 98 136 174 148 157 153 145 145 143 144 130 121 122 117 114 115 119 110 109 99 107 97 93 86 76 68 63 50 39 41 31 25 21 29 40 48 52 59 70 70 88 99 112 104 119 118 129 114 95 119 102 103 112 147 91 120 124 97 77 60 66 91 112 80 62 75 85 100 96 99 87 111 128 142 131 76 73 126 117 119 140 190 168 94 58 30 80 110 107 130 135 105 111 133 170 155 143 149 139 132 138 130 122 117 115 111 109 110 114 113 114 100 98 93 89 77 73 63 58 53 45 33 24 18 8 18 27 36 31 42 59 67 88 101 100 108 108 112 116 107 96 137 126 103 92 164 147 141 118 111 83 62 64 81 100 86 70 79 94 82 93 94 96 110 122 138 128 85 94 121 129 108 139 192 162 91 53 45 90 110 97 114 140 104 111 129 160 156 151 141 143 131 133 118 118 122 107 99 99 101 111 117 120 106 101 87 85 70 72 61 54 41 36 21 21 15 12 12 15 27 31 37 61 66 89 104 92 107 104 95 99 101 102 149 128 88 92 166 188 158 128 105 99 81 65 72 92 98 84 80 93 95 85 94 107 109 129 137 130 103 112 123 139 98 136 196 136 81 58 51 91 110 95 108 122 118 109 127 143 160 151 149 147 143 126 123 114 115 107 101 95 94 101 105 104 108 103 96 88 72 62 57 52 37 33 19 27 25 23 13 14 23 38 43 53 70 88 110 93 97 99 86 86 115 126 139 121 95 107 170 215 159 119 105 114 114 78 68 89 95 99 95 86 105 93 98 119 117 140 141 126 120 115 128 127 95 128 184 119 82 58 65 91 107 110 106 113 116 110 118 140 141 143 152 152 151 142 120 116 113 108 101 90 88 90 87 81 86 88 81 83 74 68 66 61 46 32 27 33 33 26 25 28 43 44 43 60 85 95 105 86 100 97 88 104 131 135 150 116 117 124 196 217 171 108 114 127 145 117 87 96 98 121 104 96 111 106 91 130 120 144 132 123 125 116 112 111 100 125 164 119 86 74 83 85 113 113 123 123 122 97 111 135 128 142 146 147 152 154 139 127 124 110 98 92 81 83 81 75 71 78 78 78 73 72 77 68 59 44 48 47 47 44 49 61 58 60 61 81 99 102 95 89 90 80 96 112 133 132 146 108 134 134 212 197 189 113 115 133 158 146 125 105 122 146 120 114 108 112 98 132 133 145 117 119 127 121 105 102 105 131 154 129 102 77 75 70 108 109 121 136 144 95 88 133 121 131 151 140 157 158 157 154 151 132 118 105 102 87 81 89 84 85 84 84 74 76 75 75 76 66 73 73 74 81 78 77 84 88 97 88 100 95 96 93 82 81 111 122 125 132 129 109 136 152 214 183 186 106 116 131 160 163 131 116 143 163 145 121 100 112 104 126 139 136 117 117 136 133 105 98 108 135 148 133 103 67 55 55 101 98 134 142 150 110 90 110 132 125 138 144 160 164 176 173 174 165 156 140 144 129 112 113 112 103 105 101 94 91 92 94 86 90 93 95 99 110 113 91 96 104 91 87 93 107 98 89 67 82 126 127 132 132 135 128 133 157 192 163 183 108 124 124 133 175 155 134 144 164 162 137 111 115 113 134 156 139 121 106 139 146 103 96 125 160 141 109 105 60 41 66 97 102 142 148 144 115 106 104 121 125 119 125 148 153 178 199 188 186 185 182 169 158 133 137 141 125 121 123 119 110 108 103 103 107 108 107 122 117 102 101 102 95 85 92 100 97 103 66 64 100 119 127 131 136 149 156 118 158 159 155 183 123 122 117 123 160 170 162 148 154 182 155 129 130 134 133 159 134 104 106 134 135 99 105 133 170 131 98 117 73 43 79 103 112 144 150 140 114 111 106 112 113 101 110 134 156 165 183 198 184 189 185 180 169 164 143 158 125 126 126 111 117 115 112 104 102 99 112 117 96 93 104 90 88 90 100 101 93 92 68 84 108 124 125 135 111 174 184 132 137 142 162 180 142 122 102 130 154 193 176 142 141 174 173 140 136 141 