P2
92
112
255
127 125 126 126 127 125 126 128 119 126 121 127 116 113 99 100 98 95 93 71 63 71 60 53 69 67 70 88 89 97 109 131 125 122 143 121 127 114 114 135 149 148 152 165 170 175 172 189 194 211 214 204 196 198 169 160 147 149 122 113 115 116 107 104 116 102 94 86 78 83 82 88 88 88 93 89 101 109 113 118 127 129 132 134 134 137 135 136 137 137 140 138 126 124 126 125 128 124 124 124 124 124 119 120 112 112 97 90 93 84 68 38 32 42 59 65 103 104 103 119 131 134 129 129 118 117 109 99 118 108 110 119 115 119 126 145 154 153 164 180 200 205 205 211 214 211 191 177 165 155 148 133 126 116 124 112 111 108 99 101 94 79 73 79 91 90 82 87 92 103 99 107 111 123 128 128 133 131 137 135 139 134 137 139 125 126 125 123 121 125 127 119 122 127 117 114 106 96 92 86 81 67 51 36 27 45 69 89 122 137 148 143 147 152 142 124 130 102 95 75 113 100 99 106 102 93 113 116 122 112 138 141 149 159 181 203 215 212 202 188 174 176 166 168 144 133 131 122 110 103 105 103 105 91 75 67 81 84 69 72 79 88 84 91 102 111 120 124 126 129 135 134 136 136 137 143 122 124 123 126 119 121 126 126 121 124 110 105 90 91 88 79 68 52 55 39 51 75 107 128 162 176 175 178 165 146 138 115 109 104 112 100 96 92 99 105 86 94 93 94 85 101 105 104 124 124 145 161 170 186 199 195 188 180 187 174 171 153 139 140 122 103 100 105 105 102 80 65 60 73 63 63 73 79 85 89 91 101 104 123 122 125 131 133 135 135 136 137 129 126 123 122 123 123 119 123 122 117 105 93 83 88 81 66 59 46 48 70 78 112 139 165 180 207 197 192 176 144 139 109 111 109 102 107 103 96 97 111 102 84 77 70 70 76 91 108 103 89 101 119 129 152 172 174 205 187 183 184 180 176 178 161 148 139 119 114 102 96 81 76 69 64 68 67 71 77 76 89 81 96 99 111 117 124 121 131 133 133 135 138 126 122 122 124 119 121 119 113 116 105 98 91 102 84 78 79 62 63 79 99 107 150 171 184 201 204 197 186 173 167 150 134 146 117 108 99 104 95 98 92 84 78 73 79 63 65 82 102 99 87 90 90 105 121 132 152 179 198 204 188 180 171 192 186 168 166 163 144 130 114 94 89 77 66 73 63 63 68 68 76 77 83 91 98 105 119 121 124 134 133 135 139 118 122 120 126 117 114 113 114 112 95 106 109 97 82 79 74 86 98 114 142 164 171 190 179 200 188 174 154 167 159 150 145 149 127 109 126 121 84 97 91 76 70 73 88 79 64 80 82 97 98 93 83 92 106 119 129 142 176 196 191 193 184 185 192 187 174 166 159 152 145 112 99 80 65 61 56 57 47 56 60 73 75 87 91 101 116 124 122 128 133 133 137 123 117 117 122 115 111 108 111 105 113 114 111 87 67 81 95 113 134 177 174 168 180 180 174 190 169 163 138 135 141 119 135 136 127 122 130 118 111 107 95 73 75 87 79 79 74 74 79 80 79 81 85 106 101 107 120 131 138 153 177 184 184 178 178 180 172 163 164 155 145 135 124 105 87 66 55 53 43 42 49 70 79 83 91 94 115 123 122 121 132 133 131 123 118 119 110 112 111 118 108 111 118 121 102 78 69 94 119 154 180 191 177 175 188 172 173 153 150 143 143 140 137 120 120 135 131 132 129 115 106 116 105 86 77 83 84 72 68 66 69 73 75 78 87 93 101 100 112 122 122 124 135 145 172 161 170 167 159 169 178 162 136 140 137 129 116 92 63 45 42 36 49 60 85 79 92 91 107 119 120 118 124 132 132 122 117 111 104 109 108 113 108 113 122 116 85 88 98 136 160 187 189 184 171 188 181 167 154 143 132 122 126 131 132 128 128 126 132 130 125 118 111 97 93 91 85 83 81 91 80 86 71 71 76 85 91 94 92 101 102 103 108 107 111 119 137 150 145 149 141 157 166 159 141 141 136 136 127 115 83 59 44 38 40 46 82 78 92 79 100 112 117 114 120 128 133 114 105 104 99 108 107 105 110 111 113 91 82 101 135 166 180 188 165 164 164 168 155 131 130 121 115 108 108 116 121 125 128 129 138 129 134 126 123 112 93 82 93 91 96 87 84 94 80 75 86 94 103 109 97 104 104 101 109 100 93 100 106 111 129 132 126 132 142 148 156 142 140 139 132 125 105 68 48 40 33 32 60 77 79 87 96 101 112 111 120 119 130 96 99 98 106 104 96 92 101 97 90 89 111 129 167 183 185 173 160 165 159 143 131 117 117 98 110 112 106 97 101 107 111 119 128 126 129 120 123 119 111 96 97 101 100 92 88 84 101 90 90 95 102 102 95 95 99 97 101 97 94 95 97 96 98 124 125 120 123 128 146 145 141 132 129 118 120 96 66 52 44 28 58 75 72 78 86 100 102 114 115 118 125 110 103 106 105 103 94 90 84 78 82 115 135 159 181 182 177 159 153 156 146 137 111 107 105 100 101 107 104 98 94 95 98 100 113 99 111 98 110 109 103 104 109 100 95 91 91 95 95 100 100 96 99 96 96 90 95 95 98 93 91 96 93 96 96 95 119 126 114 118 115 137 135 142 131 121 112 126 94 63 62 54 44 63 82 79 80 94 99 112 111 118 116 103 99 99 98 92 75 61 60 68 96 124 149 175 173 175 164 150 160 143 136 121 107 101 99 97 99 95 90 98 90 92 88 95 99 93 96 90 94 94 97 91 102 99 95 85 90 94 93 88 93 92 100 98 94 94 97 94 98 92 91 87 88 91 95 100 91 120 110 123 115 121 128 128 130 126 113 119 107 76 74 72 49 53 71 86 95 90 88 106 104 115 120 98 93 83 78 64 32 49 51 79 106 128 151 172 175 157 154 162 147 134 125 109 102 95 100 95 87 93 93 96 92 93 95 94 91 93 95 91 90 97 97 94 100 96 91 85 89 88 85 84 87 88 94 94 86 89 86 89 89 89 88 83 84 83 89 95 87 90 110 128 119 114 119 112 121 136 118 113 110 108 86 83 80 64 59 78 103 101 86 89 95 99 117 92 88 65 51 23 15 39 59 87 113 139 163 168 151 149 159 148 134 116 108 107 102 94 98 97 96 101 101 98 97 94 100 96 92 86 91 89 92 92 96 96 93 89 85 85 82 84 80 89 83 81 88 90 84 86 86 88 89 87 85 81 87 82 82 97 93 84 99 124 124 125 120 106 108 123 121 97 104 113 101 88 86 84 58 60 87 101 93 87 89 91 103 94 77 55 20 3 11 45 71 87 112 140 153 147 133 150 138 128 113 108 98 103 96 89 92 100 103 109 103 100 102 95 96 96 91 88 86 89 91 89 95 91 87 86 75 81 70 72 78 83 78 74 84 83 88 89 89 95 96 95 97 97 102 102 91 99 108 103 97 110 117 138 124 109 105 110 112 115 94 102 106 99 87 97 67 53 63 84 98 93 92 99 92 90 73 39 5 3 19 59 70 92 121 135 130 109 117 145 115 102 97 99 96 93 88 88 100 109 105 107 96 97 104 95 94 94 79 77 87 88 89 88 83 89 84 77 66 72 64 68 74 71 70 73 72 75 81 87 92 98 104 105 101 103 100 110 106 103 113 109 112 109 111 131 140 106 98 104 102 106 97 83 103 97 96 98 83 56 56 62 81 97 98 96 98 90 72 15 0 5 33 61 85 107 127 122 109 98 123 122 104 92 100 92 87 88 92 95 111 111 108 98 100 92 99 98 87 83 82 73 81 82 75 77 75 80 78 70 65 62 57 59 64 60 64 69 74 78 87 93 101 104 109 116 111 115 110 114 112 114 120 122 115 118 107 115 147 131 92 94 96 93 99 81 84 103 101 90 77 68 64 67 67 80 94 99 96 89 64 6 1 14 49 74 100 106 113 113 88 107 106 103 95 84 85 86 78 89 92 103 109 110 100 91 90 90 91 88 79 81 79 68 76 72 73 66 74 75 69 65 63 55 55 56 55 56 68 78 96 93 101 100 109 108 116 118 117 115 120 124 118 126 126 128 122 117 112 113 118 149 105 89 90 90 85 92 77 90 103 96 80 79 72 67 67 68 94 103 107 85 57 3 2 41 67 76 88 102 101 82 93 95 74 86 85 84 85 85 80 85 91 100 99 102 94 87 87 85 86 83 79 74 74 65 69 63 63 60 65 69 70 63 59 58 66 70 73 79 91 95 103 105 110 116 118 123 126 126 127 128 130 128 126 129 131 136 128 115 116 114 108 137 129 99 83 80 83 79 79 69 95 99 86 83 75 65 64 67 88 91 101 78 47 13 26 58 73 82 97 102 82 81 93 71 60 72 91 84 85 77 75 80 85 97 94 94 91 85 84 82 78 88 80 73 71 67 65 62 63 67 69 77 76 78 82 79 81 87 93 101 105 108 105 115 125 134 135 140 144 144 142 143 142 138 131 135 133 133 135 126 116 118 123 118 139 113 96 75 83 65 78 66 74 92 104 89 72 74 61 62 83 83 97 70 36 22 45 59 73 88 96 77 68 88 78 51 52 74 89 92 81 74 68 74 85 88 81 87 88 72 79 75 76 87 79 77 72 72 74 80 81 89 87 91 98 97 101 97 104 103 112 113 118 120 122 128 139 146 146 149 152 150 152 151 145 146 139 139 143 138 132 130 119 125 131 121 135 131 105 67 73 76 64 72 65 81 94 95 81 75 68 50 70 77 90 59 27 43 52 71 75 92 81 68 70 86 40 43 54 77 87 87 70 74 72 76 81 78 77 83 82 68 69 67 73 79 80 82 87 101 102 99 107 107 106 110 113 113 112 114 118 117 118 121 126 119 128 141 148 147 154 162 158 159 154 150 149 140 135 135 138 135 135 120 122 125 130 131 130 145 116 81 70 68 60 66 64 73 94 100 84 81 68 51 53 57 92 59 43 56 80 82 81 89 80 67 66 56 34 56 61 81 89 72 70 79 75 75 77 76 77 79 74 75 75 75 82 91 105 107 113 119 127 121 121 128 124 121 124 123 129 127 133 129 127 131 127 131 136 140 148 153 152 157 154 158 152 142 141 136 133 128 132 131 131 126 122 130 127 127 120 136 130 92 78 64 63 60 62 56 89 95 89 80 80 66 45 47 76 71 60 81 100 90 77 89 77 60 69 51 52 65 82 99 93 91 91 100 88 85 88 86 94 92 97 87 86 90 104 114 121 125 133 138 136 133 128 131 132 136 135 137 141 141 138 139 132 135 137 136 141 145 142 149 149 148 145 148 139 133 136 136 125 124 121 124 123 127 118 126 127 126 123 118 145 115 80 78 66 52 69 57 70 99 88 89 84 75 53 41 52 77 73 100 104 80 73 84 90 61 75 57 69 95 115 109 111 116 112 117 102 105 104 99 109 109 112 97 101 106 113 126 125 129 130 133 126 127 126 134 136 143 137 138 145 143 143 138 137 140 140 137 139 138 140 143 142 144 137 138 134 126 127 126 120 116 112 112 106 119 122 125 126 127 127 114 133 135 93 85 74 66 53 64 56 89 85 99 78 80 70 42 50 74 94 112 109 80 67 91 82 81 84 59 88 109 125 122 128 128 124 122 121 109 108 110 112 119 121 113 107 104 104 112 111 112 117 119 115 113 120 124 126 138 137 137 142 147 145 135 134 133 143 138 132 133 134 129 133 137 129 124 124 122 119 117 108 107 96 98 103 110 114 117 124 121 126 124 128 134 115 80 79 78 49 60 56 76 75 104 79 68 79 47 39 81 111 115 112 77 67 86 89 87 84 76 98 117 128 130 142 133 131 130 126 112 110 115 110 116 108 100 94 90 88 92 92 96 97 104 103 106 111 116 117 129 131 133 137 146 149 139 135 138 143 143 134 129 132 126 132 126 117 118 114 115 110 106 101 102 97 96 101 100 109 112 124 113 122 109 129 147 118 88 93 65 65 63 66 59 84 95 86 63 72 53 35 98 114 114 113 83 68 98 80 89 94 72 112 124 129 138 143 134 124 123 122 119 112 114 103 88 87 87 79 71 68 76 81 87 92 91 91 98 103 110 110 117 119 123 128 137 138 134 132 131 148 138 132 120 128 131 126 119 115 117 111 110 113 103 99 106 103 98 101 101 110 115 115 108 112 107 114 146 128 91 104 80 71 56 80 61 83 95 95 60 65 52 39 103 113 113 117 95 82 108 95 104 90 74 128 124 135 140 140 129 119 115 116 110 98 96 89 80 83 74 71 61 63 71 85 85 91 92 92 94 101 106 105 109 111 117 126 125 133 127 126 118 132 128 121 122 129 134 126 126 128 125 118 117 119 116 101 103 109 104 108 107 112 121 115 113 112 104 114 137 132 100 95 82 77 60 70 71 66 83 96 70 57 42 46 116 121 106 120 104 85 109 105 96 87 99 122 123 132 138 142 126 127 116 111 100 93 89 85 80 78 73 76 70 76 84 92 96 96 101 100 104 102 112 107 101 111 111 117 119 120 119 116 110 110 118 111 119 130 131 132 135 132 129 123 123 119 117 110 108 109 112 110 110 116 124 128 118 117 104 116 133 138 102 96 84 78 68 62 67 74 72 84 93 68 59 49 123 118 111 118 103 100 111 114 110 106 119 117 126 132 139 141 131 127 118 119 104 106 103 98 91 89 84 85 78 81 84 87 90 93 98 101 107 110 114 113 109 111 111 112 118 106 108 99 97 97 102 109 111 123 116 117 118 115 122 121 123 124 124 121 120 120 122 116 121 123 131 129 133 118 116 114 124 130 109 99 85 73 74 69 68 83 81 94 106 89 84 61 115 126 118 117 101 101 118 133 129 125 133 115 118 132 138 136 126 131 133 126 125 112 118 103 99 96 93 98 95 87 90 94 102 105 107 103 103 104 100 109 104 105 97 99 103 84 91 85 92 92 99 105 108 107 99 98 103 101 109 121 119 122 129 133 138 133 128 127 127 129 133 137 134 130 117 124 130 125 108 98 86 60 71 62 76 81 107 116 119 95 105 74 109 131 121 110 93 100 126 150 140 141 145 113 120 136 137 132 123 140 134 115 109 114 109 94 86 94 96 99 100 93 100 111 112 108 98 103 100 103 101 105 103 105 106 105 104 100 97 95 99 103 104 99 99 102 97 99 98 95 106 114 116 119 129 139 140 138 152 138 135 139 141 146 143 138 128 128 127 136 110 97 83 45 63 67 85 87 116 122 128 101 113 96 123 131 105 103 93 104 132 151 137 147 135 109 116 130 138 125 128 137 124 104 101 100 94 82 81 89 94 97 99 92 99 100 103 105 104 107 101 96 105 112 112 113 109 109 103 106 104 104 99 106 109 98 107 107 112 110 113 108 110 116 123 126 130 136 140 138 145 150 145 147 149 159 146 137 144 128 127 125 126 95 81 49 50 65 84 114 108 121 133 120 111 108 154 134 110 100 100 104 126 149 140 146 130 108 111 123 123 124 128 132 104 100 104 99 90 88 91 92 98 100 97 93 100 98 100 100 101 101 105 103 103 111 110 106 103 105 110 106 113 111 108 107 105 102 101 107 107 108 112 110 106 112 112 120 127 134 134 134 137 143 143 144 135 147 145 136 139 143 135 117 119 114 78 52 52 61 77 117 107 113 136 136 122 129 173 138 106 100 106 106 116 154 141 142 135 113 112 126 129 127 119 102 93 107 106 89 88 81 80 84 84 92 102 92 93 99 100 100 103 106 108 109 108 110 114 109 103 104 107 105 106 110 105 100 102 95 92 98 98 108 113 107 104 107 108 113 114 124 124 121 124 128 138 146 140 137 136 131 124 135 148 133 125 121 90 64 52 56 64 106 120 112 128 125 131 137 170 128 107 91 106 101 118 154 131 137 144 112 115 119 127 119 98 89 100 90 98 92 92 93 93 95 103 106 104 101 100 103 104 100 106 109 111 113 111 114 111 109 102 99 104 100 100 105 102 98 99 95 96 97 97 103 108 109 110 106 108 107 104 112 112 113 118 119 122 131 142 141 139 136 119 115 130 126 124 148 91 80 65 51 60 100 112 113 126 110 130 133 148 135 97 87 113 105 115 143 125 145 151 116 105 129 119 115 94 98 97 98 103 105 105 104 101 106 109 110 114 108 105 112 112 109 105 108 104 109 107 110 105 105 98 97 98 95 94 100 98 96 97 91 94 94 94 95 97 97 103 105 104 99 95 97 100 99 106 107 110 111 129 139 149 151 135 111 114 107 107 134 109 100 83 55 70 100 113 115 102 112 120 135 135 122 115 81 98 119 127 128 134 143 137 108 95 127 106 96 97 101 105 110 115 122 117 108 99 107 108 106 112 111 107 108 111 106 105 102 98 97 97 98 97 95 89 88 89 89 90 92 94 89 92 89 94 93 96 101 103 94 90 88 86 79 77 78 88 87 96 103 102 91 108 121 127 137 126 113 99 97 102 117 99 97 89 58 80 90 112 102 92 101 124 138 134 114 110 85 97 142 124 132 137 144 135 94 95 110 100 115 115 115 119 133 142 138 127 117 105 105 118 116 111 119 120 120 115 111 107 103 101 97 96 91 86 81 71 67 70 64 74 81 82 80 85 87 93 92 92 91 99 86 86 85 83 77 76 72 78 76 85 92 87 80 86 104 113 133 124 117 123 95 99 119 112 91 96 60 93 76 106 93 80 111 120 137 122 107 116 104 118 158 139 142 152 139 129 107 107 93 108 110 109 110 108 110 105 102 89 95 103 107 119 115 118 127 122 116 114 114 115 107 101 98 93 91 88 80 70 66 64 59 62 70 75 71 73 79 83 78 78 81 80 80 80 77 79 82 72 69 71 75 77 80 79 88 83 87 106 135 130 95 122 100 98 132 130 113 101 49 94 61 78 67 68 116 115 117 131 104 127 128 123 161 156 151 158 132 123 111 113 75 137 122 140 143 125 123 121 100 106 110 108 114 124 117 118 120 124 114 108 116 107 107 101 95 86 87 82 74 71 67 63 63 59 67 66 70 66 69 77 85 71 76 80 82 79 77 83 70 64 57 61 73 73 76 82 92 78 67 87 97 103 85 112 100 101 127 137 111 116 95 85 60 56 66 81 106 109 104 111 119 141 111 85 146 146 155 167 126 140 112 129 102 144 126 150 142 116 114 110 105 98 109 106 124 128 135 124 121 123 125 111 116 112 97 96 89 94 88 77 70 64 62 54 60 57 56 54 62 56 54 67 75 75 79 79 81 84 68 78 79 65 73 66 72 81 71 74 82 74 64 67 89 92 82 114 99 107 127 143 104 125 104 80 67 60 71 87 95 90 96 121 135 132 85 54 112 123 149 175 150 149 140 122 102 122 104 134 129 115 101 91 114 100 102 90 117 142 139 137 133 124 127 128 106 107 84 87 78 101 94 80 77 73 72 62 61 68 76 71 77 56 46 58 73 73 83 100 91 96 79 84 83 82 69 78 72 88 78 73 75 71 74 79 90 95 89 111 125 108 122 143 106 130 133 66 69 78 81 85 102 73 105 158 132 144 90 63 99 99 138 189 162 153 151 131 90 129 107 124 131 105 105 130 116 107 119 103 120 137 133 138 136 127 129 125 108 104 85 95 101 108 92 70 76 77 82 77 59 61 75 81 81 72 60 56 82 88 84 101 99 100 78 88 99 98 91 91 84 83 82 77 77 74 64 74 85 96 97 98 122 105 117 146 107 140 125 60 94 73 81 93 96 73 81 168 132 144 105 91 114 99 129 180 163 135 127 138 105 127 111 117 109 133 148 150 147 131 140 123 126 133 136 142 149 151 147 136 128 108 94 84 92 88 70 67 57 78 78 86 56 63 83 84 74 78 63 66 86 75 84 97 92 97 84 95 101 97 95 97 86 75 83 88 84 80 65 72 86 102 113 96 98 105 113 150 108 124 119 83 92 61 85 103 92 83 60 161 131 164 114 85 119 141 158 168 159 147 136 140 101 122 114 134 135 172 179 175 181 161 151 146 149 143 140 158 172 173 166 159 159 122 121 100 106 87 77 63 59 60 59 55 31 55 74 76 64 71 57 56 83 75 74 82 76 83 78 94 93 88 91 103 96 85 90 96 103 108 91 82 94 108 119 97 86 114 126 135 116 104 118 98 100 92 109 110 97 75 46 143 146 168 122 104 126 156 149 166 149 150 143 135 116 136 129 160 134 172 193 182 188 174 163 151 157 157 160 185 175 173 168 178 165 134 161 133 123 103 91 78 69 70 53 11 7 29 46 58 58 57 51 66 81 93 80 57 66 74 88 99 90 86 79 91 96 107 91 101 114 113 117 100 118 122 120 116 118 104 112 117 126 69 130 115 85 102 116 103 89 54 47 115 123 176 140 127 139 161 136 160 152 135 126 133 114 113 143 157 135 132 172 160 170 181 181 157 174 178 175 195 187 189 183 187 169 155 155 123 114 93 108 90 66 57 47 6 5 14 33 51 66 41 45 85 68 100 88 62 51 78 73 83 85 86 100 107 100 110 132 110 97 107 134 109 137 136 131 121 123 118 106 104 130 61 125 110 78 106 116 98 67 37 50 115 124 151 169 168 138 176 130 144 109 111 104 114 101 125 149 120 100 114 146 126 135 157 157 162 165 179 188 207 181 193 182 170 141 130 122 102 109 98 123 97 56 68 60 41 25 10 19 62 95 69 63 77 104 125 102 104 73 82 83 98 87 76 91 114 114 124 121 103 90 111 125 112 122 127 122 132 130 113 109 98 124 75 115 103 80 104 93 104 57 41 41 115 134 132 151 197 141 172 132 122 109 102 106 114 97 137 139 118 103 117 144 127 147 138 135 138 134 135 161 161 160 145 145 127 101 125 102 101 94 89 95 53 50 57 40 44 47 13 19 61 79 93 74 73 121 166 145 121 104 74 98 125 117 101 101 103 115 122 111 111 109 102 106 88 108 111 117 119 142 124 98 87 104 89 104 82 61 99 89 115 54 53 45 108 136 126 135 211 167 172 149 110 121 101 101 111 101 134 141 115 75 96 120 108 114 128 123 122 117 127 136 128 133 124 109 91 71 95 84 100 63 102 88 74 74 72 51 55 59 50 50 74 102 104 96 69 110 145 159 111 114 65 74 127 118 109 104 103 104 103 131 108 75 77 78 75 84 92 87 102 128 112 84 84 95 106 85 54 55 109 93 108 65 54 59 110 137 137 138 214 190 166 155 113 106 132 89 100 107 129 147 112 83 86 124 102 99 107 98 103 109 132 136 133 127 112 78 51 77 79 95 83 50 91 64 94 83 82 76 58 54 66 79 85 95 107 96 86 99 145 164 121 88 87 60 115 112 103 76 74 83 56 84 95 70 61 69 70 90 92 73 88 112 106 79 93 92 106 49 34 67 88 86 97 59 54 70 125 136 127 130 215 175 172 162 122 109 127 103 78 107 139 135 113 66 64 96 82 97 103 89 104 135 146 135 132 111 95 73 62 85 89 100 96 77 85 81 98 99 94 74 41 36 67 80 83 97 102 115 119 103 127 150 130 85 96 83 78 106 114 97 85 76 75 80 80 65 60 57 61 95 93 76 91 102 99 104 80 105 79 32 52 76 67 66 69 67 66 77 136 134 120 159 217 182 167 162 119 100 115 98 63 100 135 146 134 86 80 85 84 97 97 101 98 106 111 121 125 129 120 101 94 106 109 101 109 103 84 99 111 109 80 63 41 48 74 85 83 91 96 104 115 95 86 148 140 113 95 89 80 87 101 93 77 82 89 78 77 67 72 62 77 91 93 80 90 103 103 107 83 98 55 35 60 83 63 55 45 60 80 83 133 123 140 166 191 183 155 158 125 96 102 97 70 102 130 147 161 120 105 103 101 110 118 112 101 105 126 139 129 122 119 127 105 97 102 98 115 102 117 106 115 100 52 32 51 65 58 83 76 93 128 105 85 84 63 94 125 105 117 108 88 85 68 71 86 92 87 87 72 75 77 73 99 104 97 107 113 130 119 97 93 84 35 48 73 94 55 38 59 63 87 71 151 104 141 174 164 168 138 139 127 94 113 105 80 108 125 138 155 147 114 123 124 112 124 110 104 104 114 125 113 113 104 115 102 104 80 120 127 123 121 100 94 103 52 39 56 51 78 94 89 117 143 135 105 100 89 101 103 109 96 108 105 80 86 76 93 105 96 100 90 86 99 123 133 127 144 146 122 119 100 122 100 51 45 62 82 84 47 41 74 78 96 96 145 105 126 174 152 149 121 114 122 92 99 92 77 91 99 116 118 127 106 103 107 103 109 105 108 104 107 110 108 115 102 110 95 94 105 123 111 111 101 96 104 86 65 53 60 61 82 118 115 131 127 121 141 118 110 113 107 117 107 101 110 111 117 110 112 100 96 104 118 129 139 147 128 127 135 129 106 116 99 118 98 48 54 95 64 71 59 79 89 101 110 112 113 106 102 174 146 135 116 114 104 99 90 95 87 79 91 118 119 97 94 84 96 85 84 93 103 117 122 118 114 119 113 105 100 115 129 125 131 120 119 101 112 95 84 79 82 92 98 119 135 155 143 131 153 149 145 161 156 155 144 112 116 126 131 132 130 128 132 134 137 145 146 145 137 130 132 120 100 119 102 115 100 83 66 94 76 95 82 116 96 103 121 122 96 106 94 155 157 135 106 118 104 96 84 78 88 86 103 96 124 115 83 87 98 104 91 112 111 124 123 118 119 111 109 106 114 128 137 143 122 117 103 107 110 100 90 100 97 107 103 104 114 149 148 141 146 134 132 155 152 145 165 149 140 145 138 145 127 126 132 131 129 136 137 130 121 111 114 90 94 114 95 102 101 97 78 99 89 95 104 138 89 102 128 107 105 107 94 116 159 127 116 126 138 132 107 96 87 64 93 106 109 106 106 105 100 105 104 99 102 117 129 127 122 119 117 116 118 119 122 117 109 104 97 101 110 100 109 113 114 124 111 98 110 139 160 156 147 136 114 125 140 122 137 140 123 135 133 134 133 112 122 124 131 121 125 118 117 113 103 99 89 104 86 104 107 94 100 103 103 112 119 134 88 116 115 107 83 106 103 84 120 105 122 126 163 161 156 117 93 79 84 86 91 104 88 90 99 97 102 116 115 117 133 132 133 132 128 124 113 120 117 96 92 91 90 101 124 119 112 114 116 123 116 118 119 151 166 167 151 140 133 114 123 120 124 133 133 134 129 131 122 117 111 112 113 107 108 115 112 114 106 92 86 99 103 110 107 103 118 103 115 126 115 110 116 108 121 119 74 94 89 72 80 91 136 149 179 189 177 139 118 85 96 88 93 93 106 89 104 106 116 116 117 128 138 144 145 144 135 131 116 111 109 95 84 93 93 127 130 109 123 127 129 118 126 123 138 171 175 160 164 144 132 127 121 118 118 136 143 130 126 113 117 103 110 112 114 103 115 113 111 110 110 95 88 107 107 135 130 123 131 118 118 120 100 94 117 104 119 126 61 86 100 85 80 71 130 161 184 197 183 153 126 104 105 104 92 99 99 102 107 112 115 115 120 125 136 149 146 138 122 127 107 103 95 103 94 109 116 145 148 134 142 141 134 125 134 143 149 177 185 165 166 158 136 134 138 127 118 131 137 123 123 115 116 102 99 107 110 113 115 116 120 116 114 98 105 118 130 154 154 140 134 118 103 116 98 106 110 98 120 119 59 71 102 84 102 56 115 169 179 192 165 137 123 113 115 107 102 98 82 96 104 108 113 115 108 112 117 127 131 129 117 125 107 95 102 109 102 114 133 146 144 141 150 149 145 131 141 147 158 173 167 175 173 168 155 158 159 140 135 124 131 115 121 112 101 100 93 89 97 100 95 93 105 107 100 95 98 123 136 141 147 136 121 123 104 117 99 124 102 105 120 123 75 61 93 75 104 75 91 163 148 176 160 119 121 114 114 117 109 100 93 81 87 91 106 113 102 115 111 123 134 134 124 122 108 89 93 101 116 131 148 154 139 155 150 144 142 137 143 153 158 174 163 164 172 175 155 152 145 142 139 139 133 123 108 95 97 99 86 84 87 96 95 90 106 112 103 98 116 121 136 136 126 123 129 126 105 114 109 113 103 107 113 135 79 70 90 57 86 92 96 156 144 151 151 121 137 116 102 118 104 100 99 89 83 86 96 101 93 106 107 118 132 129 129 123 110 89 91 108 135 162 169 161 146 155 149 134 130 132 138 139 163 167 161 161 167 178 153 143 140 139 137 139 140 123 115 98 95 95 85 82 75 89 85 86 92 98 102 112 116 128 125 125 119 120 131 126 111 96 117 104 109 107 112 134 88 82 90 62 63 75 99 159 169 138 150 130 138 117 108 118 110 100 89 90 90 84 93 97 92 90 105 109 127 135 124 108 101 93 97 120 134 158 171 156 146 153 146 136 136 131 132 140 163 172 157 157 164 172 167 150 150 144 137 135 143 124 113 101 91 89 83 71 69 74 85 89 93 97 104 104 116 123 111 129 116 122 137 143 105 83 111 115 106 101 126 146 96 85 83 76 61 68 97 168 176 141 139 137 142 110 105 115 110 105 97 84 88 86 83 88 89 89 108 119 118 118 114 105 91 96 113 126 140 153 151 153 151 145 138 138 127 132 125 134 154 166 165 159 169 178 184 169 155 160 139 133 133 118 120 108 95 89 78 71 64 69 78 96 95 94 97 107 127 123 116 139 141 137 124 136 80 87 117 112 107 110 141 152 124 92 72 78 68 71 97 157 179 143 146 127 140 105 105 110 112 110 108 99 89 92 71 83 76 94 109 117 122 122 111 103 96 84 117 131 127 152 153 144 161 155 131 125 123 124 131 132 142 142 156 154 164 169 172 164 151 163 153 124 121 112 114 107 98 87 68 56 58 60 72 91 91 92 98 106 122 131 123 135 139 113 108 117 99 105 108 102 105 121 144 145 128 110 74 70 67 72 78 140 162 142 145 126 134 110 107 114 118 121 116 111 90 86 77 96 85 102 105 122 130 126 108 112 103 103 116 141 131 147 152 143 162 152 126 125 127 135 134 137 145 142 150 150 146 155 153 150 153 164 153 127 115 105 103 98 80 78 65 47 54 63 77 98 95 97 108 114 117 134 134 127 129 131 142 139 117 104 108 100 116 134 149 150 131 114 83 70 58 55 70 110 143 152 147 129 143 123 112 122 120 125 119 110 86 76 83 94 85 101 115 129 141 134 119 128 130 131 135 139 149 143 132 135 142 142 118 121 130 137 151 139 136 133 129 120 123 134 135 129 143 148 148 128 109 104 86 80 68 70 63 57 66 67 83 93 98 106 112 117 124 136 144 134 147 158 172 127 107 115 109 105 127 134 150 150 138 114 77 71 36 47 49 76 116 132 155 140 140 116 125 129 118 125 120 105 85 81 77 80 85 93 110 127 138 133 127 123 132 138 141 124 135 133 105 119 128 130 120 109 117 131 131 130 124 117 121 111 111 122 120 124 132 128 122 112 103 96 87 73 71 64 61 61 74 73 92 97 106 112 121 123 129 136 145 147 150 160 153 114 120 117 110 118 135 135 154 146 129 116 96 86 53 43 39 46 78 83 130 133 137 123 124 124 120 126 125 99 83 76 64 65 73 89 107 118 132 139 131 129 122 130 142 132 122 119 99 106 120 128 124 119 122 132 119 115 115 109 115 117 116 125 127 136 125 109 101 87 96 94 86 74 67 62 63 65 79 82 95 100 106 111 119 121 124 133 145 144 141 137 134 136 127 129 119 128 127 134 163 147 125 122 100 87 64 60 39 43 62 74 107 110 125 125 130 126 120 122 128 100 88 69 65 60 75 84 98 117 130 129 125 125 115 111 127 129 128 119 109 113 122 126 146 144 142 132 135 139 148 142 137 124 129 135 124 132 118 97 86 75 76 87 87 70 65 71 68 70 86 94 96 106 104 119 118 120 125 126 133 134 123 114 111 130 137 131 127 130 115 144 163 141 117 116 106 84 75 71 52 55 56 79 107 106 115 126 138 131 121 131 127 110 95 72 73 69 76 77 95 111 126 123 127 127 126 114 110 110 114 127 123 133 134 146 159 157 160 153 155 154 159 160 140 129 133 139 133 124 117 102 89 74 70 78 81 74 73 78 80 74 88 100 102 107 120 124 127 116 131 116 125 124 113 92 97 122 142 122 131 123 125 153 160 143 111 115 112 83 84 70 61 66 58 82 111 114 117 138 131 125 121 129 130 127 105 89 83 76 76 72 87 104 124 131 126 120 129 112 101 100 112 127 130 143 159 164 165 154 149 142 141 144 142 141 139 129 128 127 120 119 108 101 100 87 78 82 83 78 80 84 93 83 93 104 109 110 125 125 132 122 140 127 124 124 108 85 97 129 129 116 129 123 129 155 156 140 105 114 115 96 78 80 72 60 67 80 119 130 128 155 132 126 128 134 135 131 121 100 85 82 77 76 81 105 119 123 111 107 121 119 96 101 115 122 130 144 144 146 143 129 136 130 109 124 120 139 142 131 131 130 104 104 97 89 94 88 82 88 90 86 86 89 105 108 107 108 111 114 127 132 132 133 135 127 116 119 106 92 115 128 118 110 133 128 133 149 153 142 105 122 113 99 89 74 79 65 78 79 99 129 118 137 133 128 136 137 137 140 125 112 92 83 82 88 94 104 112 109 106 105 102 106 92 94 104 117 121 123 124 130 125 131 150 139 117 123 131 146 146 143 146 129 109 103 90 97 93 97 93 86 81 78 81 88 111 122 115 109 115 119 131 139 128 137 129 122 112 120 102 94 116 116 106 117 133 134 138 146 134 131 105 119 111 105 91 82 81 73 89 78 91 104 86 109 125 125 137 134 132 135 124 113 104 99 95 108 114 112 109 104 115 104 89 92 89 90 94 113 115 112 110 126 114 120 141 132 116 140 127 145 143 143 153 134 131 118 104 102 97 95 93 90 77 77 81 90 112 123 114 114 117 128 135 142 133 132 126 119 116 118 91 84 107 112 111 129 137 129 136 140 128 125 120 104 104 104 91 87 82 85 79 84 87 94 75 85 117 130 132 131 128 125 117 115 116 115 113 117 122 118 114 111 115 108 83 86 86 97 93 115 119 100 106 127 108 94 122 128 121 129 119 115 123 129 139 142 141 126 117 105 101 95 94 89 81 84 84 98 107 116 115 114 117 125 132 143 136 129 129 119 118 110 90 91 131 118 126 136 141 131 137 133 130 122 117 118 111 98 94 92 82 82 75 89 81 84 70 77 109 132 128 121 118 115 114 117 120 121 114 122 125 129 111 103 109 108 95 92 92 104 104 109 114 100 118 122 112 107 117 119 142 150 142 137 113 110 134 145 160 133 129 120 107 91 94 94 85 92 92 99 98 111 118 118 121 117 128 137 128 121 126 115 117 105 95 117 147 127 129 146 140 137 127 129 126 135 115 123 117 99 96 94 87 77 64 75 73 73 65 71 103 125 121 119 111 113 114 113 113 119 115 127 133 140 133 120 141 127 124 111 126 119 127 111 122 113 127 141 119 135 154 150 139 151 140 141 120 117 128 142 150 140 136 125 118 102 105 98 91 90 93 100 103 113 114 118 122 114 122 127 115 107 118 113 111 103 102 136 159 147 141 146 139 134 124 121 124 134 114 122 120 107 106 96 94 89 63 70 74 67 66 63 89 123 113 104 106 110 109 112 111 116 125 137 146 150 148 146 147 144 142 137 148 146 164 148 147 128 134 145 142 120 144 155 123 132 133 142 156 146 144 145 139 132 130 134 126 128 125 120 112 105 100 108 109 115 112 115 116 115 114 122 96 110 112 109 108 113 128 155 163 160 156 147 139 132 125 124 125 131 122 116 121 116 113 112 111 95 69 82 74 75 69 64 78 115 120 94 99 101 102 115 114 118 129 144 152 159 145 147 146 140 142 158 165 178 190 183 172 151 151 144 160 128 150 152 149 131 138 153 152 158 153 145 143 144 130 135 147 139 136 130 123 111 106 103 105 105 108 113 109 105 116 117 90 114 108 107 118 128 154 175 164 166 165 142 140 133 122 124 126 124 118 122 117 118 116 112 109 94 83 85 70 87 73 73 66 110 119 100 94 100 96 112 114 118 126 138 150 155 147 136 134 127 138 136 145 168 170 162 152 146 144 135 143 131 129 129 128 139 131 134 125 144 153 143 143 134 125 132 140 133 128 117 114 110 99 96 93 101 108 103 99 96 108 107 98 125 114 106 125 145 169 181 174 164 164 154 138 132 133 117 130 125 115 118 115 117 110 116 117 86 82 79 76 85 85 75 62 94 110 108 95 103 106 107 106 116 128 135 140 147 144 132 124 105 119 114 119 129 128 125 121 119 127 109 109 103 103 101 96 101 108 111 107 104 106 116 116 95 103 103 109 104 101 97 97 101 102 95 100 105 107 102 93 92 104 92 113 125 113 112 127 156 181 184 181 169 158 151 142 135 136 115 131 113 100 111 117 112 107 121 117 81 79 78 68 83 81 72 71 80 104 114 101 104 108 107 99 111 115 132 136 136 143 131 130 121 118 122 113 115 107 111 112 110 113 97 95 85 81 96 82 70 70 84 89 86 87 96 86 76 81 82 92 96 94 93 95 100 105 100 103 115 112 97 92 89 93 96 123 125 116 121 139 165 186 185 180 171 160 142 146 133 131 133 125 113 103 110 109 109 101 118 112 83 73 74 59 74 73 75 77 82 97 109 113 99 103 100 89 106 106 119 141 140 142 142 137 125 140 154 144 143 143 142 141 151 142 139 131 129 110 126 115 95 106 101 127 115 125 123 102 96 102 104 103 99 97 84 84 98 102 101 102 105 101 94 89 90 90 101 128 131 123 121 145 172 181 189 183 174 163 147 141 130 140 134 130 122 107 112 108 102 105 110 109 86 79 70 53 74 73 76 74 75 88 98 113 95 95 99 95 105 106 117 123 129 134 132 128 120 123 135 137 134 140 138 141 145 150 152 162 166 157 157 149 133 134 133 135 144 149 141 121 120 115 120 119 110 98 89 87 93 102 101 101 97 93 87 87 88 95 98 121 125 121 128 158 173 173 187 181 171 167 158 140 139 137 136 134 130 108 105 101 101 104 112 110 94 75 64 55 75 80 66 78 76 83 96 113 110 92 98 102 103 102 111 114 116 117 110 114 110 109 114 122 123 127 131 130 128 135 137 140 152 162 171 160 150 136 129 133 135 140 128 117 121 118 119 115 106 98 95 88 94 101 99 95 95 91 84 83 96 91 105 110 110 110 138 159 176 174 182 182 170 174 162 149 141 135 133 137 137 100 97 87 96 105 102 111 91 69 56 56 75 82 73 82 92 92 93 110 116 92 100 105 109 109 112 117 116 116 113 103 101 104 103 107 115 121 123 125 132 125 137 138 147 154 174 170 174 140 126 126 119 124 116 105 108 107 108 108 101 98 90 84 90 96 91 94 89 90 81 87 94 87 101 120 111 104 137 148 178 176 183 164 160 180 167 156 142 133 132 139 139 93 79 90 94 95 94 106 92 69 67 58 84 78 78 79 95 96 102 104 111 93 95 98 112 112 111 110 114 116 119 109 106 101 108 112 115 114 123 128 131 128 133 137 135 143 147 156 153 133 126 118 112 106 95 100 100 98 93 92 92 94 87 86 99 96 94 90 91 89 85 89 91 85 104 117 119 123 112 152 169 174 171 153 147 162 163 149 144 139 132 135 128 74 73 77 89 76 89 105 95 82 69 61 82 80 73 79 90 95 119 108 99 94 94 101 107 106 113 107 110 109 104 104 105 102 102 110 110 113 115 115 115 121 126 132 129 136 131 136 127 125 119 110 99 89 87 96 93 92 91 96 90 89 85 92 100 95 93 90 93 91 90 88 86 84 99 115 124 137 110 137 158 156 147 133 132 136 135 138 131 128 121 121 119 68 76 74 76 67 89 107 99 76 52 56 84 75 86 86 71 94 119 120 93 89 102 95 107 103 102 104 104 106 97 95 98 86 91 91 99 103 104 103 107 106 116 119 118 117 117 116 114 111 105 98 93 88 95 93 95 87 90 90 89 84 90 95 94 97 91 87 93 99 83 81 78 91 98 119 141 140 126 142 149 140 129 128 122 108 102 120 120 123 101 103 103 54 56 57 49 57 68 107 84 57 36 57 79 104 89 84 71 88 113 131 109 93 106 104 98 99 97 97 96 99 93 90 84 82 82 84 87 95 93 95 96 94 102 102 103 96 96 89 90 86 89 89 88 86 94 98 93 86 87 84 91 92 101 97 93 93 87 91 102 90 80 76 76 88 98 117 137 142 131 143 135 113 124 123 121 104 94 101 108 116 114 105 103 56 52 53 51 54 69 85 66 37 19 54 96 115 114 77 83 80 120 134 123 94 103 98 102 97 94 95 94 93 88 89 84 80 74 81 79 80 84 94 89 88 87 90 96 91 93 89 90 84 84 83 85 91 92 95 96 89 86 91 99 96 99 99 89 92 89 97 104 90 74 84 69 84 97 110 127 144 120 141 136 118 114 118 116 111 84 93 101 96 108 112 112 54 51 53 53 60 68 72 54 32 27 67 109 133 132 77 90 82 97 143 123 103 112 106 106 98 92 96 92 91 91 78 84 79 69 72 66 68 67 78 71 76 82 88 98 93 94 91 88 91 90 85 87 89 93 96 95 92 91 97 93 97 95 93 90 92 97 107 98 81 76 82 72 86 100 102 121 145 119 134 127 124 110 113 116 108 90 88 94 87 93 102 102 56 48 60 52 64 72 66 69 39 52 93 129 154 139 85 93 95 84 136 129 96 122 118 113 100 92 89 89 93 98 91 91 85 72 74 73 74 68 76 73 82 90 97 99 105 101 100 95 93 91 92 93 91 96 102 102 106 103 104 96 95 95 88 91 100 108 111 96 80 79 85 66 79 96 97 100 138 125 119 123 121 114 114 118 107 95 96 87 83 87 95 103 61 46 59 55 76 88 76 75 35 61 109 152 168 158 94 98 90 97 124 129 104 129 140 128 109 105 89 85 91 100 96 103 92 77 80 80 86 79 78 78 88 94 101 105 113 115 115 111 110 115 116 119 110 121 111 109 108 104 98 99 90 95 88 102 112 123 104 95 79 86 80 59 79 87 95 72 106 113 121 113 118 114 111 115 105 107 97 90 73 79 91 102 60 54 69 68 86 85 60 68 42 89 139 180 189 141 104 99 83 111 126 115 121 134 143 143 131 122 99 86 92 94 96 97 95 81 80 81 83 78 80 86 95 95 101 104 114 111 113 110 118 115 117 115 112 115 119 103 104 103 102 101 97 101 108 115 120 116 104 97 85 79 65 50 78 89 79 79 79 99 120 116 119 96 111 100 102 110 99 95 78 71 81 88 64 74 69 69 83 63 59 65 82 127 159 197 191 149 122 86 98 106 125 119 129 142 142 152 152 147 117 98 87 94 91 93 85 77 79 78 78 82 84 92 94 102 100 106 103 104 103 106 112 108 113 115 105 114 111 99 100 101 105 106 110 115 122 129 116 113 112 102 78 59 57 49 76 93 49 82 73 85 106 101 114 87 91 101 95 107 100 89 80 73 88 80 64 66 49 68 71 56 111 103 105 151 189 214 171 170 150 89 105 100 109 129 124 151 147 142 153 162 143 119 99 84 85 92 88 83 81 84 81 81 94 91 98 103 104 100 97 97 102 100 102 105 103 109 108 108 109 106 101 102 109 125 121 131 138 130 119 121 119 102 63 57 62 52 81 83 50 59 77 73 106 103 111 99 85 104 99 111 117 97 88 83 92 88 55 51 44 90 93 93 138 122 131 160 217 213 168 186 160 106 103 102 100 119 139 139 155 147 138 161 162 146 116 100 87 92 96 96 94 88 92 94 98 102 107 104 100 94 101 92 102 103 93 95 96 106 106 109 110 103 103 108 125 127 135 143 140 128 122 130 118 92 66 49 66 53 83 87 56 50 87 72 94 120 100 102 84 86 103 113 122 111 101 95 101 94 60 63 93 141 109 120 151 143 154 173 242 203 191 182 149 120 109 99 99 106 132 142 153 154 134 140 161 167 146 129 112 97 105 101 100 94 100 109 104 109 111 103 112 104 109 102 101 98 104 104 110 111 116 113 110 106 113 117 136 140 154 149 138 126 119 120 105 89 65 41 57 58 80 95 61 52 100 96 84 115 120 114 102 67 92 107 139 135 118 115 112 114 96 83 120 141 110 130 153 139 168 202 255 187 191 166 154 111 114 108 94 102 111 138 157 149 142 136 136 159 158 152 135 119 111 114 110 102 105 101 111 105 111 111 113 112 111 111 104 103 107 113 117 112 115 107 115 114 122 125 143 154 157 146 136 114 125 111 94 86 61 41 57 65 77 98 67 70 90 106 116 113 122 129 148 100 89 113 136 150 143 140 151 170 91 97 135 128 123 136 169 177 179 208 240 210 171 144 169 112 96 121 95 98 91 122 151 158 146 146 135 139 147 144 142 138 130 124 111 103 109 101 99 100 103 112 110 111 109 107 114 107 109 113 116 108 105 113 107 121 124 145 155 155 149 128 119 114 112 106 93 70 58 33 72 80 83 93 66 83 85 100 127 122 139 137 161 116 70 95 119 139 140 131 139 170 91 121 128 148 164 184 212 192 172 192 210 225 165 136 152 109 85 113 102 98 87 99 136 156 157 153 151 144 144 137 136 128 126 126 126 112 107 103 98 96 91 92 93 93 94 96 101 98 97 105 100 103 107 103 110 118 139 149 149 140 131 110 114 109 106 97 88 57 49 34 78 90 95 90 73 83 80 100 121 128 144 124 150 141 85 81 109 138 144 148 145 162 113 181 165 202 186 193 206 172 173 181 196 229 151 130 116 102 83 105 93 98 91 90 125 140 146 162 168 167 161 149 147 136 128 120 119 114 108 102 92 89 85 84 79 79 75 73 77 83 79 86 92 95 97 103 117 136 144 137 132 123 114 101 107 99 103 90 71 57 49 43 82 89 102 88 82 79 78 89 115 115 130 128 118 146 119 92 112 150 172 171 160 162 137 208 188 174 181 170 169 146 169 170 190 194 134 127 96 98 77 88 89 93 98 76 115 131 134 154 164 178 179 170 159 153 144 137 130 122 112 101 95 89 82 76 73 76 72 78 72 75 78 83 85 89 88 119 129 132 126 127 117 117 105 103 95 99 94 80 65 55 60 52 88 95 108 79 82 69 79 84 107 103 113 132 92 136 148 102 114 124 174 194 174 158 