P2
92
112
255
131 135 133 135 134 137 137 136 141 136 138 132 145 151 164 160 167 166 167 184 191 180 195 200 198 196 191 173 166 157 142 122 125 132 115 141 140 150 147 126 116 115 113 106 102 98 96 77 71 57 56 58 60 54 78 83 96 87 116 127 122 120 136 139 117 142 156 165 179 176 182 177 173 175 172 181 170 163 163 158 152 149 148 147 146 144 146 146 145 144 141 141 133 135 133 134 132 138 137 137 135 137 140 141 149 153 168 176 170 176 189 215 216 208 198 197 165 163 158 143 129 124 128 126 137 138 149 161 145 148 147 144 142 139 130 115 109 112 104 80 59 54 56 51 49 46 63 76 83 90 93 109 110 120 116 128 126 126 141 139 156 178 187 182 173 175 179 177 176 167 171 166 164 153 150 151 146 148 143 148 140 146 146 142 135 133 135 136 141 135 132 139 137 131 141 144 154 166 172 177 180 190 202 215 223 209 187 169 137 123 112 117 118 114 121 136 133 160 167 181 150 160 154 148 149 155 135 132 127 138 119 112 101 95 77 57 47 47 56 65 75 74 84 80 105 110 109 115 127 129 132 133 132 152 178 190 180 177 191 189 180 175 182 174 169 162 155 151 151 150 145 147 146 143 146 138 136 136 134 131 138 138 132 132 135 132 148 155 171 170 172 180 189 201 198 209 199 176 147 129 98 89 97 91 104 122 132 147 153 160 157 162 165 167 158 152 164 153 151 147 155 146 142 145 124 125 109 90 79 67 54 55 62 71 70 83 82 92 103 99 110 137 137 131 131 135 160 181 191 190 198 197 184 176 179 176 176 169 166 150 154 152 149 145 144 145 142 145 130 133 134 132 132 134 135 131 134 140 153 165 177 173 177 189 195 206 203 180 172 141 115 99 86 68 78 91 102 130 135 160 151 158 161 156 157 164 163 150 154 168 171 176 174 171 159 142 145 156 142 126 114 95 79 81 54 72 80 77 74 74 73 84 89 101 127 129 138 140 157 167 171 184 194 196 186 178 181 175 184 170 171 161 156 150 158 147 146 147 142 141 133 135 135 131 136 133 137 139 136 148 155 160 155 168 172 176 190 183 168 148 141 103 89 87 75 77 87 99 111 112 128 137 128 150 158 164 159 167 163 165 173 178 177 172 186 182 166 145 146 160 154 152 136 123 115 97 75 60 57 69 77 87 67 79 91 79 87 107 125 131 146 154 166 173 178 195 199 189 186 184 185 179 174 171 165 153 155 153 143 147 143 139 139 134 136 131 138 139 141 138 142 157 144 144 157 170 174 177 160 145 135 108 95 93 79 93 80 92 105 120 112 115 122 123 123 143 158 145 145 175 161 165 180 182 176 162 172 184 169 166 150 147 154 161 147 136 127 119 111 84 70 72 77 85 78 77 82 82 85 98 110 109 140 149 166 179 193 194 198 215 204 199 184 188 176 174 168 155 151 154 150 145 145 140 134 138 137 134 140 143 142 143 151 140 139 147 169 185 166 153 136 113 75 84 98 96 99 99 85 105 111 136 137 131 148 134 131 140 143 139 150 157 161 169 189 187 174 178 177 178 177 169 166 166 168 159 139 143 136 127 119 114 108 89 79 84 97 100 94 100 98 97 102 108 114 131 145 160 184 198 193 209 218 209 189 176 180 171 173 156 147 149 155 143 146 146 132 137 137 144 142 141 136 146 146 137 137 154 171 176 148 129 94 73 66 90 95 89 105 102 116 125 133 132 135 136 150 148 133 136 134 136 150 157 150 162 178 184 174 174 184 188 188 179 172 170 167 158 149 145 144 136 129 124 131 129 121 103 115 110 112 119 104 93 99 123 120 122 126 137 159 189 204 208 221 206 199 172 175 169 173 160 151 150 151 151 143 148 133 136 142 151 142 142 145 148 144 138 141 168 156 139 108 84 62 69 81 95 86 87 104 118 131 141 150 148 140 137 138 136 139 134 134 138 146 152 168 172 169 172 171 173 164 172 165 180 175 168 159 154 148 149 143 145 142 137 144 147 144 132 124 129 128 140 128 115 111 121 123 126 127 135 140 172 189 203 212 207 211 180 178 164 180 165 156 154 153 151 147 142 135 146 149 152 145 151 150 145 149 143 163 161 135 104 75 65 59 100 106 100 102 111 135 141 155 158 160 159 151 142 135 134 133 125 135 131 139 144 154 167 173 160 159 155 168 168 160 174 178 163 152 143 134 142 138 139 142 134 147 161 158 155 155 141 140 152 152 138 130 119 126 129 124 134 139 155 187 196 209 215 220 205 188 177 168 167 164 155 159 149 153 145 150 153 153 147 153 157 163 152 155 163 160 134 109 73 56 64 88 106 97 105 119 134 145 153 169 160 156 157 163 156 148 144 138 130 138 134 142 139 144 151 161 162 151 151 160 163 169 156 163 162 154 146 141 146 146 144 146 146 151 159 163 163 169 167 143 153 160 157 149 129 126 127 137 138 147 144 165 182 193 204 228 204 188 187 180 173 160 162 154 154 150 149 142 152 145 148 151 157 158 168 173 173 133 107 76 56 60 83 107 107 106 115 129 151 156 159 163 162 157 157 158 159 158 153 153 144 156 149 160 150 150 157 156 151 158 158 163 165 162 162 154 152 149 148 146 144 152 148 143 141 153 162 159 164 165 168 168 152 152 164 165 160 135 133 128 135 140 147 140 160 184 188 197 218 196 176 185 180 166 162 149 155 149 154 146 154 153 157 154 170 187 191 181 151 119 85 62 69 80 97 110 99 113 129 143 154 163 166 168 158 163 162 154 162 161 163 156 156 162 159 164 164 161 157 167 158 162 165 173 168 163 165 165 160 155 150 150 151 147 146 144 142 153 161 166 168 169 168 166 175 151 162 154 160 151 143 143 140 137 142 143 152 180 175 177 208 210 191 174 176 175 171 154 156 148 148 151 158 168 170 181 212 203 205 173 146 116 83 64 77 106 105 96 107 124 138 150 157 169 164 163 165 158 155 151 160 161 157 159 163 163 161 166 166 162 162 166 161 164 171 181 174 174 179 179 169 164 161 161 163 157 158 156 155 158 166 172 172 179 175 168 175 176 156 141 148 157 156 160 151 135 147 144 146 153 160 166 176 194 206 188 168 170 174 167 159 161 149 162 164 186 189 218 234 216 191 166 140 102 74 83 109 112 102 109 123 142 145 147 156 164 158 156 154 149 148 148 156 156 153 157 161 166 163 166 166 167 166 167 171 174 177 184 183 177 183 175 175 175 167 171 175 168 167 163 161 162 168 172 166 176 179 165 167 177 167 143 138 138 146 162 159 146 151 163 154 141 150 159 169 170 201 199 184 171 170 170 168 167 160 159 179 191 213 241 241 209 176 165 135 97 89 105 124 111 119 124 142 146 152 150 162 160 159 150 148 140 147 149 150 156 154 153 161 160 165 164 169 172 166 168 178 180 190 186 195 194 183 182 184 191 178 179 174 169 169 160 156 159 159 159 153 159 171 164 156 158 168 158 144 118 133 155 160 159 159 149 166 151 142 146 157 157 194 200 195 186 174 171 170 160 170 166 182 200 233 246 236 195 182 164 121 104 121 145 137 116 138 146 152 151 149 151 158 153 146 137 144 142 152 152 145 153 156 155 173 174 166 166 168 178 179 171 179 182 190 185 196 193 188 192 199 195 193 192 185 175 169 159 156 151 158 154 155 150 156 161 153 155 156 158 152 125 118 150 163 162 166 161 160 172 145 149 146 153 176 200 195 195 184 171 164 166 162 167 177 221 241 247 222 200 174 146 115 124 146 158 133 134 144 151 147 154 153 151 146 143 131 127 136 150 147 156 148 148 160 168 169 177 173 172 178 183 189 182 180 187 192 193 200 202 201 203 203 203 197 192 183 173 165 158 153 145 147 144 147 148 148 149 145 143 150 149 153 140 107 126 162 166 170 175 163 169 165 144 137 152 175 191 190 186 191 180 167 166 162 166 179 232 249 241 213 190 159 144 137 140 167 146 142 147 147 157 159 154 154 149 139 134 133 125 137 151 157 156 156 157 166 169 174 184 177 181 175 190 184 184 185 187 192 201 204 203 207 208 200 195 176 182 172 171 159 157 150 150 145 147 142 137 143 134 137 135 140 146 149 145 134 108 146 169 177 176 176 160 172 161 140 137 166 181 183 184 185 186 165 161 156 166 188 236 255 226 197 186 170 154 155 176 158 155 170 156 155 154 154 149 148 145 136 135 138 131 139 153 155 163 163 163 167 175 179 186 181 184 184 185 183 180 179 186 193 197 191 189 191 185 181 177 171 167 163 158 153 142 140 138 134 134 130 131 133 131 129 124 135 146 143 144 143 115 127 162 180 189 180 174 168 174 153 144 152 168 179 180 186 184 168 165 161 174 197 233 240 214 190 184 164 158 171 180 154 178 179 169 148 152 152 150 149 145 143 136 141 141 144 154 159 165 169 158 168 176 180 184 187 189 188 183 180 173 177 173 173 178 177 173 170 164 166 162 164 157 148 137 133 121 118 116 115 112 113 120 128 124 125 127 126 135 142 137 130 129 113 141 166 190 183 191 176 177 176 159 140 151 178 175 188 190 171 171 162 179 215 234 223 209 190 178 166 178 190 172 173 193 187 164 147 145 152 150 154 149 144 145 151 148 148 168 167 173 176 161 170 177 179 178 179 175 173 165 169 166 160 162 160 163 158 159 152 153 152 154 151 143 130 119 119 116 109 111 104 105 111 114 120 120 115 120 129 131 140 131 121 124 116 124 154 189 193 182 188 176 186 172 155 146 163 175 180 198 177 174 166 190 227 222 214 197 192 171 174 191 193 171 208 202 186 158 148 147 156 149 148 149 148 154 158 154 157 175 180 180 176 171 171 172 167 153 155 158 154 152 156 152 147 148 151 146 142 144 144 141 141 150 143 128 120 122 111 101 104 99 105 107 109 120 127 130 126 124 124 141 138 135 125 118 119 109 144 178 189 194 194 181 189 181 162 140 157 169 179 197 188 189 164 193 213 209 193 192 188 163 177 197 202 201 218 195 178 154 144 158 156 147 148 153 154 157 160 165 170 175 177 177 171 164 152 151 146 141 135 139 142 137 139 142 137 138 135 136 129 133 136 134 138 137 130 127 118 117 114 105 106 102 107 115 115 122 130 136 135 132 130 132 139 133 133 128 131 115 130 168 182 198 191 192 191 202 164 150 155 167 174 184 201 194 175 185 197 186 182 178 184 160 185 204 196 207 204 183 156 145 142 145 138 131 139 152 150 154 151 158 156 169 170 163 152 144 139 137 128 125 127 131 139 133 134 129 129 125 125 124 128 121 129 127 126 127 122 118 124 118 118 116 119 115 124 128 123 120 137 137 144 142 139 135 140 133 136 130 131 131 110 149 180 187 189 200 186 199 186 149 155 164 174 179 197 209 194 180 188 178 171 186 182 165 172 204 191 207 186 154 128 137 124 120 123 120 135 139 140 146 143 145 144 159 156 148 145 134 134 131 131 127 134 137 137 130 131 122 128 126 121 122 123 122 123 121 123 126 122 125 126 125 124 120 125 124 129 133 133 134 139 145 150 155 160 147 136 134 134 128 126 133 121 127 168 178 184 188 204 191 200 164 160 148 178 181 181 208 198 175 176 165 159 181 185 163 175 187 184 202 167 142 122 121 110 110 115 123 125 138 141 137 140 137 135 143 145 149 152 147 145 142 138 138 144 147 141 137 136 124 125 127 123 118 122 126 125 129 120 123 128 128 129 138 135 127 136 143 138 137 140 143 152 152 166 167 166 156 147 142 132 132 124 123 119 124 147 179 186 179 210 199 196 172 174 142 169 194 177 203 210 174 155 162 149 177 183 169 173 183 184 181 158 134 117 111 96 111 115 116 124 137 141 135 141 140 147 152 154 156 164 161 162 152 152 148 150 149 146 141 141 129 128 127 125 116 113 121 125 121 116 114 123 128 129 138 131 138 145 144 145 143 149 150 156 158 163 166 165 170 155 150 135 140 126 133 112 106 144 165 174 193 192 194 184 181 168 152 163 198 191 203 214 161 148 151 141 161 178 163 187 178 174 188 146 122 114 108 99 112 123 122 128 131 140 136 147 163 164 164 167 170 178 171 168 160 156 157 155 150 147 144 143 137 137 135 132 123 122 124 127 124 108 118 125 136 131 130 134 141 146 144 150 150 149 155 157 152 153 165 164 167 157 148 146 143 135 136 124 106 129 164 159 183 189 201 166 178 162 149 159 199 204 204 219 152 145 139 130 149 166 154 169 165 171 188 128 119 112 109 103 118 130 131 131 139 152 151 161 169 164 171 171 179 182 173 158 158 151 150 149 149 144 143 141 142 143 139 133 135 125 133 133 136 122 126 134 135 128 122 133 132 132 137 142 144 145 145 154 154 149 157 156 159 153 143 144 139 135 138 123 110 121 155 166 180 190 195 169 172 178 160 156 188 212 215 217 146 132 138 124 141 164 149 158 164 173 164 135 126 116 109 107 121 121 132 136 149 162 161 166 170 170 172 168 176 172 162 153 148 147 141 142 140 141 136 139 149 142 144 137 141 139 140 142 148 144 136 142 137 126 127 126 128 131 133 143 143 149 149 154 150 150 148 154 154 148 140 131 135 131 140 125 116 115 151 163 178 186 192 177 170 170 171 174 176 198 207 216 143 134 132 127 145 148 140 145 150 165 146 145 126 120 114 111 121 123 134 133 148 154 153 157 161 161 166 166 174 171 167 163 158 154 149 144 139 134 139 139 144 146 146 145 143 155 153 162 164 162 156 148 147 134 142 142 143 149 145 150 148 148 149 151 149 147 146 151 142 141 134 132 126 132 130 133 124 126 148 160 176 187 187 177 167 156 164 165 168 182 189 206 148 129 128 130 146 144 136 125 140 152 133 145 138 125 120 120 130 124 125 131 136 148 144 155 158 159 164 158 160 169 165 161 151 150 150 150 151 149 159 150 154 154 165 161 155 175 167 173 166 171 164 156 154 156 163 163 161 165 160 155 159 156 150 144 138 141 149 148 142 135 134 128 128 126 133 127 126 133 155 163 177 197 189 186 165 159 141 146 155 177 176 194 151 124 125 139 151 148 134 112 137 135 126 149 143 125 127 128 137 121 129 150 154 146 156 170 174 165 163 160 159 167 164 151 153 156 164 156 154 155 160 159 160 156 156 154 153 160 163 167 160 164 162 165 161 156 161 162 167 170 164 158 155 153 145 137 134 138 122 136 136 131 128 120 121 124 131 131 133 126 155 168 181 214 198 179 157 155 132 138 148 171 170 179 143 128 140 146 152 148 127 112 137 130 141 159 150 137 131 142 136 130 144 163 164 163 171 182 183 173 167 165 165 175 169 165 160 155 154 150 154 157 148 142 147 148 148 149 153 150 154 153 153 155 157 165 159 160 154 160 159 164 166 160 147 140 135 126 128 134 124 120 125 122 123 103 117 131 123 137 136 144 142 172 184 213 207 181 156 134 146 137 136 151 168 169 117 124 135 148 141 147 126 116 138 139 151 160 153 144 146 146 139 136 166 165 160 165 176 177 173 172 167 166 169 173 162 161 160 161 159 158 150 148 148 140 142 146 150 150 147 149 144 145 148 154 159 163 165 159 158 160 158 159 166 160 158 147 135 126 125 125 123 118 123 122 135 115 111 135 130 129 129 152 147 148 187 211 203 187 166 133 148 145 134 136 154 151 94 125 145 140 140 143 132 118 144 146 149 154 148 140 144 146 152 166 177 162 160 175 178 183 182 178 176 168 158 169 170 163 160 160 157 152 146 142 140 139 135 140 149 150 147 148 148 144 149 156 160 169 176 168 167 159 156 162 167 163 161 153 150 135 135 134 132 127 124 114 125 126 122 134 148 137 120 139 144 146 170 194 200 190 179 145 132 142 138 150 140 144 98 132 148 150 134 144 138 125 153 147 138 154 145 149 145 155 168 176 163 175 164 170 166 163 166 163 154 149 152 158 159 157 158 161 151 146 142 136 136 131 134 138 146 152 145 149 152 146 150 158 161 168 170 170 166 164 158 156 159 163 160 158 158 149 147 144 137 136 137 128 120 122 120 124 143 152 131 137 143 124 166 176 183 192 185 150 143 143 139 156 145 149 121 131 151 152 129 144 149 138 162 140 126 145 153 133 151 154 169 161 163 157 152 151 148 146 152 147 144 141 137 144 151 143 146 147 152 146 147 140 138 135 142 138 147 149 148 153 155 149 151 160 160 169 168 173 172 174 170 168 166 163 167 169 171 167 160 159 152 147 143 147 132 124 111 111 127 151 146 150 156 135 151 160 162 189 176 152 145 142 162 147 158 147 135 133 127 155 143 137 145 155 160 143 135 148 160 131 160 167 161 155 151 138 130 122 126 133 144 140 141 143 135 137 147 147 147 150 152 154 156 157 156 150 149 150 155 157 156 157 158 157 156 166 165 168 166 170 171 165 163 171 179 184 189 195 197 191 177 174 161 154 151 164 151 145 136 127 138 153 164 162 162 155 164 157 157 192 167 158 149 155 167 160 153 151 142 134 120 148 140 121 149 160 161 136 129 162 158 142 157 141 136 131 124 104 89 95 103 118 129 131 127 132 137 131 133 137 145 146 151 153 153 154 153 158 159 163 171 175 172 180 170 166 167 174 169 168 165 168 170 173 165 179 182 183 185 192 195 199 188 188 171 165 167 172 173 161 152 131 138 148 138 163 159 149 156 165 159 195 160 167 149 160 173 149 160 147 156 137 116 124 116 99 126 155 142 133 136 152 145 162 157 153 151 147 140 133 131 135 146 141 135 135 129 132 135 128 136 141 146 143 142 145 150 149 149 152 152 157 161 166 168 174 177 172 169 179 177 171 170 180 182 181 180 181 183 183 179 175 191 198 193 188 183 178 177 159 170 178 159 127 134 175 141 155 154 130 136 142 162 209 158 182 165 177 177 143 161 163 134 129 109 101 113 88 114 142 121 137 145 153 152 183 126 138 115 106 119 116 116 135 136 134 135 136 131 136 138 136 137 147 155 144 151 148 151 150 152 153 153 161 158 160 163 162 173 170 171 170 177 176 166 163 185 180 179 177 184 187 178 193 207 208 200 191 188 187 174 154 170 196 175 165 160 187 160 161 155 131 128 147 151 176 168 178 177 163 158 153 163 174 133 109 103 126 146 106 117 138 114 143 132 153 138 156 121 132 102 109 131 133 134 138 145 137 139 129 128 119 129 132 130 131 149 144 144 156 154 152 142 147 157 165 169 171 181 173 180 182 183 173 183 185 173 167 168 168 169 164 162 188 179 175 198 182 188 181 166 182 177 166 172 183 184 170 167 186 158 168 148 129 119 158 141 171 169 167 166 151 143 157 172 174 118 106 113 153 176 135 134 143 107 109 120 131 144 160 146 158 122 126 133 144 151 129 139 137 151 129 110 112 114 119 135 133 132 151 149 168 154 160 134 140 155 158 161 160 171 176 171 160 169 160 188 200 189 172 170 158 142 151 145 166 168 174 175 179 172 178 154 166 171 171 172 168 167 162 161 171 156 137 146 131 122 162 136 143 171 160 152 145 143 148 184 161 87 117 103 153 174 150 152 142 84 93 106 118 136 175 133 149 131 120 139 138 113 125 133 122 138 119 105 114 106 114 128 129 133 146 151 161 142 138 129 143 166 162 162 156 159 179 181 167 163 165 175 195 196 166 158 161 145 144 141 159 153 153 154 160 160 163 162 161 162 167 166 173 176 167 161 162 165 138 148 136 117 157 128 144 178 141 157 143 136 152 177 184 89 112 98 137 154 139 154 144 87 90 118 136 128 157 131 144 135 136 113 100 96 93 108 98 113 106 100 102 97 98 105 108 124 122 139 148 161 149 153 172 178 194 167 166 156 185 182 162 165 178 176 198 193 170 179 165 150 155 142 160 150 152 151 150 152 158 163 156 147 155 160 168 174 163 153 143 164 165 154 141 111 149 140 147 169 150 159 135 130 163 166 201 100 114 77 135 163 125 103 110 93 93 104 123 122 151 137 140 112 116 80 73 76 65 83 81 82 83 92 93 78 70 76 87 99 104 137 124 148 142 158 172 189 199 197 199 202 219 199 180 178 198 192 210 207 173 182 179 166 169 158 170 159 163 160 150 145 153 157 151 143 136 130 148 166 155 143 133 153 173 148 124 127 143 152 140 153 141 131 119 129 165 175 215 121 102 74 127 140 121 93 118 83 101 97 114 127 138 121 129 91 123 87 66 69 65 75 76 84 80 86 78 52 63 71 82 81 103 135 97 122 130 149 166 181 195 193 206 247 250 230 210 204 206 206 215 200 183 165 179 184 176 163 161 153 160 156 160 156 154 141 160 147 125 130 123 150 127 125 132 136 139 154 142 148 141 188 127 140 154 126 122 144 167 206 209 145 130 71 103 117 110 94 129 89 94 99 120 125 142 142 113 96 119 122 86 91 87 79 78 100 85 75 77 54 60 59 69 80 103 118 104 133 141 163 154 175 200 203 211 246 243 237 220 203 194 217 227 190 207 173 182 194 195 174 184 181 178 167 147 148 156 135 110 140 143 139 113 135 107 103 120 136 137 143 145 157 140 189 137 150 161 130 132 156 189 223 214 144 138 100 66 74 112 75 131 103 131 124 141 138 148 133 107 130 148 133 115 129 120 100 115 112 112 87 72 52 78 67 75 90 127 142 138 156 149 156 141 170 204 192 192 209 220 234 228 193 162 189 200 201 173 152 168 152 182 181 189 180 177 176 161 137 147 131 133 147 155 130 121 129 126 120 125 122 130 141 136 158 144 181 149 162 162 135 153 146 195 217 229 141 124 117 78 50 105 76 124 121 126 142 148 136 154 121 119 133 149 131 113 125 107 116 129 134 137 130 106 100 99 108 112 135 164 148 157 153 162 164 169 215 213 206 218 212 204 238 231 199 187 175 194 209 168 116 127 145 157 185 159 141 147 151 151 148 142 132 135 122 125 137 132 151 133 129 124 138 118 126 150 163 160 164 149 179 183 145 159 133 202 213 220 141 118 122 92 34 83 75 105 134 114 140 146 144 153 122 116 132 168 149 126 143 138 127 137 143 152 138 128 128 120 121 154 167 185 171 171 148 184 156 180 197 201 198 217 204 195 206 207 184 162 170 170 207 168 130 111 163 149 194 186 137 142 144 144 143 144 142 103 122 160 160 154 155 157 147 159 155 136 146 162 172 159 141 166 206 204 136 154 152 190 220 207 142 118 104 84 32 60 82 102 134 135 112 155 154 151 123 115 137 160 159 125 147 152 147 160 152 151 132 121 114 122 138 176 208 178 185 166 173 208 172 205 182 193 183 186 199 197 185 181 167 155 162 172 179 171 127 101 152 177 156 186 137 143 150 165 163 153 185 141 134 170 182 165 169 153 153 178 172 154 160 174 169 163 142 208 227 197 167 158 171 207 221 197 131 109 113 94 25 71 81 93 130 142 118 148 174 152 119 124 143 179 183 155 165 155 149 164 156 131 109 109 108 131 161 182 200 179 173 161 164 190 181 188 176 171 163 180 213 207 171 168 164 158 159 153 147 156 131 113 133 179 154 163 172 150 141 143 153 159 166 151 156 178 184 183 184 151 150 181 171 165 167 155 177 157 174 218 212 183 181 178 197 187 207 185 124 114 112 68 24 65 83 94 133 157 134 152 188 154 126 117 124 166 172 169 166 154 156 155 157 144 134 118 111 119 139 170 176 169 163 167 159 162 178 169 157 161 173 185 209 193 164 154 158 159 159 159 136 152 156 100 114 145 157 163 167 166 150 155 159 152 149 156 160 172 168 178 172 158 152 174 173 165 171 158 173 158 197 210 201 175 180 190 214 194 184 176 118 123 83 52 49 65 98 100 131 171 150 158 187 151 131 115 106 144 154 158 152 147 139 144 152 145 124 110 113 128 142 145 165 170 167 172 150 153 142 155 151 165 201 223 204 177 184 156 167 154 130 151 156 160 167 124 115 148 138 147 161 163 175 171 148 140 145 146 163 159 159 169 151 146 151 149 152 148 164 166 168 167 208 196 178 155 188 206 194 191 177 187 94 142 80 46 77 81 125 125 131 174 147 158 181 152 136 125 112 120 149 141 135 142 132 143 154 153 141 127 130 133 152 151 168 168 189 141 132 131 132 153 171 156 202 210 197 193 167 151 162 132 116 126 149 145 141 117 130 136 156 150 154 168 163 166 146 131 133 133 144 151 139 127 121 127 114 115 147 154 179 148 162 192 196 186 170 158 197 207 184 178 169 158 98 138 111 50 92 101 135 153 139 173 164 171 181 164 161 141 142 135 156 160 153 157 148 146 150 148 143 139 131 125 150 154 180 175 153 135 147 153 151 159 153 168 187 192 185 179 162 133 140 117 132 137 122 129 129 116 128 120 138 153 147 145 145 148 137 149 144 136 128 120 108 105 126 127 123 129 158 152 180 156 157 193 194 153 181 182 177 169 163 159 157 139 140 140 152 60 101 116 139 149 159 158 175 167 172 178 172 146 143 165 168 176 171 172 167 157 144 132 125 126 125 127 146 159 162 142 121 135 130 143 139 160 147 155 163 172 164 149 154 131 111 93 110 120 105 105 97 88 96 94 104 142 133 125 123 134 125 130 122 115 115 106 106 111 119 127 127 138 161 149 176 155 159 167 190 155 171 177 159 134 154 158 146 126 153 144 166 87 82 116 158 147 157 169 177 188 169 172 157 167 140 150 176 170 164 155 163 140 138 126 124 127 127 139 142 142 135 123 124 114 126 131 152 145 140 150 153 154 155 140 148 132 121 93 96 106 94 110 101 80 84 99 81 106 115 107 112 109 116 121 120 117 114 106 108 121 128 144 141 167 165 153 177 161 165 162 175 164 180 184 141 115 159 165 131 141 141 144 169 133 78 124 144 133 122 125 158 170 170 198 165 152 146 152 155 155 162 159 160 159 150 138 123 123 133 137 140 143 138 145 144 141 145 156 165 152 137 143 131 136 143 131 127 136 128 103 81 87 92 95 123 105 87 115 98 101 129 120 115 114 113 127 121 124 108 116 118 123 122 139 147 155 168 160 180 159 161 170 154 161 173 173 122 113 165 150 142 142 165 151 159 176 124 146 139 129 99 99 98 145 170 176 175 171 161 147 162 163 157 159 156 151 140 128 117 120 122 123 127 130 144 145 146 162 168 170 165 149 122 119 133 129 133 122 118 114 116 91 78 76 96 101 102 119 109 111 112 101 115 121 123 119 123 130 131 134 128 130 132 122 128 131 142 159 168 161 162 150 160 153 145 157 162 147 132 144 143 157 133 127 172 175 180 196 178 155 126 97 76 72 79 115 142 172 162 171 161 154 140 157 148 147 143 141 135 118 108 107 104 106 114 126 144 151 152 166 180 168 159 122 110 132 112 112 107 116 108 104 92 69 66 83 87 111 116 108 116 113 114 105 102 126 131 139 134 144 135 129 128 136 123 131 131 136 135 157 167 148 153 131 138 135 129 145 160 144 150 161 151 167 127 116 183 174 171 192 189 176 130 84 70 66 82 104 128 151 148 150 165 153 150 145 147 145 144 135 123 115 105 96 100 108 131 131 155 156 167 161 168 146 134 103 95 114 97 95 104 107 93 86 85 66 60 79 92 100 122 107 99 112 117 108 108 124 134 142 136 147 147 133 130 126 126 129 126 130 133 157 154 141 137 113 111 116 117 136 167 135 151 158 168 163 123 133 185 185 161 187 172 200 152 84 78 77 101 127 135 138 136 148 154 154 171 152 150 146 140 132 135 127 125 118 111 115 137 132 151 164 156 150 159 139 117 105 105 110 100 102 99 110 90 83 77 70 84 79 91 95 98 88 88 102 106 118 117 134 126 136 155 155 156 153 146 143 148 159 146 142 152 159 167 138 128 128 108 109 127 129 154 140 150 153 175 153 131 123 167 189 167 196 163 174 174 96 109 95 104 136 138 142 139 139 148 154 160 168 163 159 141 134 139 125 131 121 106 109 125 138 153 172 170 162 140 124 108 97 105 93 103 106 107 109 101 87 85 72 84 99 99 93 104 103 111 115 109 105 114 131 146 151 153 150 164 161 158 151 151 163 142 132 146 158 142 142 132 136 132 123 127 121 156 150 146 162 177 148 139 113 164 180 176 219 189 167 171 108 109 112 114 137 116 137 152 138 153 155 155 163 165 163 150 142 150 136 137 127 111 119 127 139 150 172 165 149 120 88 80 82 99 88 102 121 125 119 106 107 88 89 94 100 103 94 114 121 122 121 121 109 106 122 135 152 149 152 157 162 169 158 161 164 153 145 143 143 141 131 145 144 145 139 119 121 151 157 147 174 173 156 142 112 154 166 182 216 218 182 161 105 80 118 106 121 114 138 144 135 146 153 163 161 160 167 156 146 148 151 137 134 117 112 128 152 158 163 162 143 132 102 80 87 97 94 109 120 118 123 120 108 86 87 103 100 95 98 105 118 118 124 126 115 103 121 132 142 152 154 160 172 177 175 167 159 152 149 143 150 143 131 151 138 153 133 109 114 155 172 167 160 175 163 124 105 144 161 179 205 220 199 161 95 72 112 113 116 108 137 148 139 146 150 158 171 164 164 166 157 154 154 137 128 126 128 133 146 162 156 144 134 125 108 102 96 98 110 120 121 127 119 135 129 106 95 99 104 93 78 75 85 99 98 116 116 104 118 124 138 151 157 169 176 186 182 178 155 155 154 153 143 128 130 144 129 135 129 127 129 181 176 159 164 172 147 116 98 121 162 191 199 210 199 163 102 75 108 102 118 113 141 145 144 141 143 146 157 163 159 176 164 171 154 141 134 126 127 142 152 156 171 142 131 142 115 104 114 99 109 133 138 137 134 135 144 135 127 111 114 102 94 90 95 106 105 113 134 131 133 138 145 156 168 191 200 198 196 188 169 163 163 154 141 132 123 141 129 133 154 147 150 168 168 171 169 171 135 111 104 119 146 191 209 212 195 184 118 94 107 107 115 110 135 137 141 134 134 140 144 164 167 176 158 168 153 152 134 123 127 150 145 152 153 141 121 132 120 108 120 105 114 140 145 138 131 135 143 136 135 126 125 127 112 111 105 99 95 107 131 140 147 155 157 178 178 195 211 210 198 186 163 164 164 145 134 135 127 137 137 137 146 126 138 157 178 171 166 160 124 101 98 114 139 183 203 225 223 186 148 111 99 99 112 93 117 127 129 134 131 138 147 171 182 178 165 173 159 148 133 120 132 146 134 129 128 122 122 114 121 132 131 129 125 148 149 141 136 118 138 142 143 145 150 142 128 123 126 103 102 109 135 150 155 177 184 198 196 203 208 202 198 182 171 165 156 142 134 132 129 129 136 125 130 111 152 170 171 161 159 147 116 100 98 113 135 184 202 239 235 218 182 141 117 93 101 96 129 113 118 134 130 138 156 175 181 187 185 180 175 159 139 130 135 140 148 133 124 118 138 130 132 164 150 144 140 153 169 158 145 140 139 149 157 148 149 151 140 139 132 114 118 130 144 153 154 170 188 193 202 205 211 196 193 170 167 160 149 132 133 131 130 133 128 131 131 126 163 161 160 149 153 133 110 94 104 124 133 163 187 225 236 234 211 172 169 123 112 98 124 119 123 130 127 132 162 178 185 200 199 193 183 164 151 139 128 138 144 150 139 119 130 147 152 173 171 159 149 152 161 159 146 150 156 157 160 151 143 146 140 140 121 129 140 152 167 161 159 170 187 191 204 210 209 194 180 164 163 159 148 138 142 141 136 126 128 140 151 137 137 149 144 138 143 136 108 83 113 130 129 156 182 214 216 230 218 188 171 138 141 114 123 114 118 130 129 130 159 172 196 205 204 190 184 169 149 137 137 139 143 142 148 141 136 137 146 156 157 151 144 118 124 133 147 140 128 112 117 124 138 130 123 137 125 140 157 169 181 181 166 167 189 194 197 204 202 182 166 158 152 159 137 139 148 140 140 140 133 162 175 153 133 131 132 141 137 139 97 83 118 135 137 149 183 200 206 216 208 202 172 134 146 129 124 113 113 129 123 134 151 169 195 203 204 190 184 168 148 133 135 129 130 129 146 151 156 153 136 140 127 126 113 96 95 95 111 117 106 95 93 117 128 120 113 118 132 140 151 165 186 188 172 172 182 185 190 186 191 170 159 150 148 140 132 129 149 135 148 149 143 171 193 164 146 119 137 138 134 117 93 87 113 136 134 141 181 184 205 204 194 203 175 140 136 130 117 121 125 130 129 134 138 163 176 188 193 199 196 173 144 124 121 126 129 116 137 155 156 146 129 125 107 88 84 78 89 95 104 116 106 107 107 111 121 119 121 128 131 143 149 153 171 176 167 166 174 174 174 162 174 162 148 142 146 131 128 125 142 129 139 154 147 175 191 163 135 127 144 139 120 113 91 96 119 139 129 138 166 185 193 191 204 196 180 137 125 136 106 125 130 125 131 135 137 153 169 183 189 194 195 183 144 126 125 140 141 127 125 146 147 136 128 121 102 96 94 99 115 106 110 137 129 133 111 103 116 117 118 141 140 152 161 156 163 170 159 155 162 161 161 139 136 137 139 136 138 126 122 126 129 135 142 160 156 175 176 143 126 134 152 120 113 114 104 100 118 140 122 140 167 176 196 183 202 185 179 158 131 152 129 136 140 125 132 133 129 148 157 179 189 187 179 174 153 142 135 141 147 150 142 158 157 146 137 132 126 122 117 121 119 101 112 135 137 129 110 108 109 108 120 141 150 164 153 158 149 161 166 162 164 164 157 129 112 123 134 128 129 121 114 129 124 143 145 163 153 175 165 132 132 143 134 112 112 114 106 122 125 146 131 137 157 174 186 178 188 180 176 162 158 181 160 150 148 132 135 137 136 147 160 168 171 172 161 153 150 147 144 131 143 161 159 169 166 158 148 144 144 146 130 143 133 116 129 145 126 138 117 116 117 111 122 124 145 155 155 162 160 168 169 172 166 161 152 125 110 121 127 122 116 115 109 121 130 141 152 158 151 185 167 137 126 136 118 113 123 118 118 129 128 135 146 147 158 169 181 183 174 189 173 167 165 197 190 161 145 138 135 141 146 155 157 154 152 153 149 142 144 143 144 135 139 171 167 172 157 161 145 143 160 154 138 152 161 139 137 137 133 141 145 132 130 126 125 125 139 153 161 162 168 169 172 177 166 162 144 131 119 119 126 123 119 116 108 116 133 135 150 156 153 185 158 106 123 126 113 115 129 122 124 128 134 138 136 143 162 171 177 187 185 194 172 175 169 200 198 169 145 141 145 148 156 155 152 152 145 153 142 137 135 151 154 148 143 160 164 170 156 156 147 144 159 143 143 147 151 144 140 114 100 107 115 139 145 129 122 110 133 140 153 158 172 174 173 179 166 159 149 142 128 120 121 119 127 120 114 121 139 135 159 156 158 179 139 96 121 123 104 117 133 131 127 130 122 139 133 141 158 168 176 183 196 208 196 187 177 199 202 173 152 147 145 155 154 149 153 156 149 150 138 125 120 123 136 113 124 125 138 129 138 130 138 129 139 126 113 134 116 100 104 110 90 99 101 129 134 127 114 109 120 130 146 145 165 162 169 176 172 163 150 140 127 126 121 118 133 129 124 137 151 140 157 163 164 169 123 90 105 111 105 119 143 136 135 131 125 139 135 140 152 158 169 174 182 204 202 184 186 198 207 182 150 154 156 162 155 156 154 157 153 142 129 111 107 108 109 105 103 102 107 102 107 89 103 102 116 106 97 98 117 92 89 110 100 102 97 89 97 106 108 120 129 134 134 138 137 146 148 153 156 153 138 132 122 128 126 130 138 142 131 156 144 144 159 165 159 141 104 94 93 96 106 118 142 148 131 133 130 135 139 137 143 151 154 154 171 193 190 186 180 197 205 188 158 149 168 166 166 164 150 150 145 133 118 106 95 111 107 105 108 104 89 85 73 62 66 82 96 96 100 79 108 85 85 91 109 103 87 92 89 98 110 116 118 131 131 122 127 135 139 139 145 144 140 132 129 130 131 141 147 138 135 166 143 150 165 155 148 113 86 92 88 84 114 116 140 154 134 133 135 136 133 136 138 143 151 147 167 179 181 195 168 194 200 204 159 159 166 173 170 172 152 147 141 131 121 105 101 111 124 120 125 113 112 106 87 88 91 101 104 100 109 97 107 110 113 113 102 104 99 109 93 86 108 108 121 134 125 118 131 140 146 142 139 144 147 146 142 142 147 155 159 143 145 158 132 148 170 150 128 95 71 83 92 89 102 120 133 141 147 129 136 137 135 137 137 146 140 138 170 181 182 185 172 182 200 208 179 175 168 167 166 162 156 157 147 133 126 120 112 115 132 137 157 146 144 139 132 134 134 139 137 125 139 136 138 135 136 137 131 121 116 118 130 130 129 133 165 166 160 155 160 168 163 155 149 148 153 143 139 145 150 164 164 144 158 141 133 154 167 147 111 80 66 78 85 98 106 114 126 138 152 127 145 145 138 133 140 142 127 135 172 181 181 189 173 183 201 202 195 178 168 164 163 156 155 160 148 145 124 119 117 114 133 139 144 149 143 148 144 149 144 148 152 146 157 156 167 168 146 160 168 161 142 136 144 145 142 161 178 176 179 167 165 172 167 164 156 147 147 143 134 137 157 163 164 157 151 138 133 158 159 129 98 67 70 80 81 99 116 108 127 145 142 132 145 141 136 140 140 142 124 137 170 180 184 193 177 189 195 197 195 181 173 158 164 159 163 177 155 155 137 120 119 115 120 132 146 135 122 130 126 121 114 115 103 112 114 127 127 142 129 133 152 139 138 112 128 114 115 136 146 140 141 144 151 157 176 174 160 149 147 147 141 147 158 165 161 158 147 134 133 157 153 119 88 69 69 79 85 97 112 114 129 133 147 128 135 137 134 139 138 137 131 140 166 173 184 197 175 186 191 194 199 186 175 161 168 166 161 169 157 153 140 133 127 126 128 137 152 151 144 142 143 129 124 118 112 108 103 96 92 100 102 113 130 127 123 120 112 101 111 128 129 128 118 124 136 154 163 170 165 149 148 146 149 155 166 165 165 155 151 143 143 157 142 109 83 77 73 83 89 93 103 119 121 137 146 133 128 135 141 139 140 135 132 138 159 174 186 191 176 175 189 177 188 184 173 160 156 167 163 156 159 156 146 133 131 131 145 148 156 158 151 147 143 140 134 134 135 124 119 117 101 91 86 101 110 129 138 136 131 124 137 141 136 130 127 133 145 153 156 164 160 148 147 152 151 156 167 168 155 160 152 161 159 163 133 111 79 82 78 83 93 91 97 114 118 135 146 137 129 141 140 147 140 136 140 139 160 177 188 183 171 169 177 162 162 170 173 157 151 167 157 150 148 145 139 128 128 131 136 149 158 158 161 156 146 138 133 126 116 120 108 109 102 94 81 86 83 117 132 134 139 135 139 146 139 134 135 136 152 153 161 164 160 145 151 151 158 157 172 160 163 164 163 156 156 162 138 121 81 89 78 101 102 87 92 109 115 136 145 137 134 141 150 144 145 144 147 138 161 178 176 177 161 167 174 159 146 163 167 160 153 163 157 154 141 144 142 141 136 138 137 149 153 163 155 151 149 146 134 127 120 119 107 99 103 98 93 88 92 114 124 131 136 144 156 143 143 146 151 157 157 156 157 159 145 148 152 156 157 160 167 165 170 162 164 157 146 146 154 117 94 91 94 109 112 98 97 110 112 129 141 141 145 149 148 152 146 157 143 141 159 167 174 175 160 169 178 158 146 162 154 156 164 163 156 147 139 150 145 150 147 151 154 161 164 169 169 158 155 147 145 140 136 127 117 111 111 105 112 107 119 119 128 136 144 153 161 150 156 161 161 157 160 160 163 154 150 154 154 158 152 159 163 171 178 165 162 152 139 129 152 116 101 111 116 124 114 116 118 114 117 134 144 146 152 150 146 153 156 166 138 137 154 171 195 175 152 176 158 144 165 161 150 152 168 173 149 151 137 145 150 151 154 156 166 169 172 187 183 182 172 161 156 150 142 142 128 124 125 121 126 125 128 131 137 145 150 157 153 154 152 164 161 160 156 162 156 157 159 154 156 158 154 151 172 177 189 162 159 137 124 119 133 112 107 122 131 127 121 133 145 124 123 131 155 155 157 155 155 157 171 167 149 134 158 188 205 168 154 137 145 139 162 167 153 139 159 173 149 142 142 148 155 155 158 159 168 173 182 189 191 190 183 172 170 164 160 159 148 147 143 147 140 151 152 156 154 155 154 158 151 148 152 164 162 164 158 154 142 151 153 156 159 155 146 163 179 179 188 167 156 130 121 113 118 108 119 145 132 132 125 139 150 137 137 142 143 152 154 150 156 160 171 171 152 159 168 200 210 173 137 118 118 144 148 178 146 134 152 171 152 150 141 150 159 163 163 166 170 171 180 189 195 188 187 185 180 167 170 168 163 163 158 167 157 157 156 161 161 161 160 155 154 152 147 157 163 151 141 144 141 145 158 149 156 151 146 168 184 166 190 172 160 133 119 107 124 104 120 140 144 132 134 136 159 141 142 158 149 147 147 149 154 161 174 168 169 169 177 205 211 152 124 97 98 145 139 176 175 121 149 159 142 146 140 153 161 166 171 171 171 184 176 186 196 193 201 199 200 192 191 185 178 169 160 164 165 167 164 161 160 163 162 160 152 152 150 151 155 144 148 143 144 149 151 147 147 140 155 178 178 168 194 171 158 134 120 98 128 108 126 134 141 140 136 144 155 146 150 167 162 156 159 148 161 159 177 171 173 169 174 207 189 122 99 85 89 139 138 161 189 132 142 166 134 140 140 154 156 167 177 172 166 176 176 185 198 195 195 194 197 190 190 183 175 164 161 152 159 158 160 160 157 153 150 150 143 136 132 130 135 136 144 146 146 148 142 137 135 138 160 175 175 168 201 178 162 130 139 98 121 125 125 133 138 138 139 145 150 145 158 167 167 162 160 142 166 161 176 170 162 167 176 215 172 104 79 76 78 130 141 163 168 142 143 157 127 120 130 149 148 163 176 173 165 171 169 181 194 192 189 181 186 186 181 171 168 157 154 144 142 143 139 140 129 124 122 128 119 123 122 124 132 137 137 150 139 146 133 128 122 148 160 173 173 175 204 182 174 130 156 125 128 130 130 131 139 144 143 153 139 145 159 173 169 164 160 146 158 157 173 166 160 186 184 203 143 79 64 63 93 124 139 172 152 136 145 144 127 118 125 138 137 158 171 166 164 167 172 174 188 192 189 182 188 184 173 164 161 158 149 140 143 141 137 128 125 120 123 123 117 109 125 123 127 126 129 135 132 127 122 124 131 148 153 170 184 189 210 182 164 150 150 147 146 132 131 126 153 146 156 155 137 149 154 168 176 167 168 148 148 168 179 174 177 192 193 164 112 64 55 66 89 103 149 157 151 128 138 133 124 121 120 123 118 143 158 165 159 163 169 177 189 190 193 192 186 182 169 168 156 158 147 150 148 148 141 132 130 121 116 123 113 110 126 127 127 119 121 120 119 115 116 131 137 140 148 179 201 194 221 186 149 177 153 172 160 145 150 131 165 163 155 158 145 152 160 166 171 161 171 162 163 188 186 189 192 151 158 137 91 46 47 89 66 78 144 146 155 137 127 142 115 120 132 126 109 122 138 157 166 164 161 172 185 187 185 186 183 174 175 169 158 157 155 156 154 149 146 143 130 132 120 121 119 116 121 126 124 118 100 110 105 104 120 128 130 132 148 193 198 190 229 186 154 178 175 177 181 144 151 139 159 171 150 151 149 143 152 162 165 158 162 184 188 204 177 179 167 131 141 117 85 19 55 90 45 72 132 143 146 145 133 125 132 116 130 139 118 112 120 142 159 167 163 165 170 175 179 171 171 168 167 160 163 165 169 156 159 148 143 152 143 142 130 132 127 123 125 124 122 104 102 99 99 106 124 126 121 137 157 188 206 196 226 184 154 177 199 168 188 151 137 153 165 171 162 150 147 141 147 153 160 149 158 198 197 179 144 175 156 127 129 100 73 1 70 67 52 81 122 133 143 145 143 127 128 120 123 142 138 117 111 124 143 157 166 159 162 166 172 165 155 159 154 151 160 153 159 152 154 152 157 152 149 138 135 127 127 123 126 120 117 95 96 87 100 114 126 129 133 151 166 196 214 212 216 185 146 182 213 173 174 166 142 142 154 160 178 162 151 129 130 139 144 142 139 178 191 163 148 176 155 129 130 86 48 0 84 67 74 81 135 132 139 146 148 146 132 114 127 135 139 142 120 116 122 138 152 155 153 155 161 161 161 153 156 148 146 150 150 149 148 153 154 144 138 134 139 129 137 126 128 120 114 99 91 91 106 117 138 125 143 156 174 200 220 214 200 182 144 181 208 191 182 156 152 143 143 122 157 165 146 130 115 118 117 107 88 181 182 149 160 169 155 118 89 75 48 26 62 97 105 73 135 144 128 147 145 166 154 120 111 132 128 141 141 128 134 135 137 144 148 156 161 154 165 164 161 160 149 152 149 151 150 142 147 143 140 141 147 148 140 145 131 127 106 98 99 102 126 135 138 140 142 156 193 203 232 197 179 167 149 186 201 197 193 168 167 133 141 116 145 182 169 147 123 119 120 115 87 186 167 161 149 142 118 87 81 85 66 67 50 113 129 89 129 153 130 141 153 168 169 134 113 117 124 124 135 134 142 143 152 152 152 151 161 162 166 168 168 174 172 168 168 168 162 157 159 161 154 159 157 151 155 151 142 114 105 105 113 121 144 142 141 142 145 162 211 207 240 185 167 157 153 186 194 203 205 178 183 151 153 136 131 170 183 164 131 119 108 107 94 170 120 134 102 122 114 96 103 89 91 96 50 123 140 126 126 158 138 151 161 165 170 137 123 122 108 107 106 116 129 132 147 156 160 161 166 170 172 180 178 180 182 182 182 186 188 181 176 176 172 166 162 159 157 140 119 109 117 120 128 141 149 143 150 140 151 186 201 205 228 182 166 153 159 182 192 203 221 191 201 178 173 167 132 153 176 160 129 98 89 97 97 152 103 118 129 131 137 123 121 98 119 107 84 130 147 157 131 169 156 158 170 163 178 141 128 128 104 103 90 92 106 121 128 139 148 148 159 169 178 182 187 188 196 190 188 190 179 185 181 176 169 167 164 165 136 122 120 127 122 135 135 145 145 153 146 149 168 193 203 198 214 166 163 155 171 182 201 213 225 203 217 194 181 200 160 138 168 160 154 102 68 86 104 