P2
92
112
255
169 161 160 166 161 158 149 153 153 149 143 154 149 154 155 146 147 148 135 136 134 120 119 116 118 127 133 130 147 160 154 158 181 196 183 169 167 159 165 161 176 177 182 186 184 182 198 222 218 205 181 191 193 192 175 181 157 141 125 118 100 110 119 107 98 87 90 103 124 119 103 105 112 126 128 130 120 130 120 124 127 129 122 123 123 130 125 123 133 121 135 138 163 164 164 164 159 158 152 148 153 146 141 153 150 148 140 137 151 142 140 130 132 133 122 125 126 120 135 128 139 155 162 165 168 176 167 141 132 138 138 141 158 171 163 174 170 175 185 221 211 219 208 192 173 188 174 171 167 157 141 137 119 131 116 114 110 103 98 105 111 125 124 113 122 121 139 139 133 132 132 116 125 128 134 125 124 125 129 125 133 131 127 133 165 160 167 165 157 159 157 147 140 145 141 146 138 145 147 151 139 135 137 152 146 141 134 138 134 122 132 137 132 139 149 161 149 136 119 121 115 113 132 131 149 144 153 157 162 156 164 204 197 195 199 201 172 182 180 169 153 141 136 138 112 129 122 118 124 111 116 119 111 125 139 118 125 130 146 146 139 145 141 133 125 128 138 130 128 127 133 129 127 134 129 130 165 161 164 167 155 152 161 144 138 135 140 140 142 143 154 147 131 136 147 162 151 153 141 126 128 122 123 141 156 128 133 137 126 115 102 101 104 100 102 120 138 134 121 132 133 130 157 148 175 179 172 177 201 190 184 184 171 142 137 122 106 126 122 105 127 120 104 120 118 118 133 139 131 131 153 143 134 152 145 143 135 131 148 139 133 131 130 130 131 134 135 132 165 164 163 164 162 153 146 141 140 131 134 134 135 136 145 136 153 153 146 149 153 158 138 114 118 129 130 135 139 120 109 116 115 117 107 99 106 101 92 93 116 120 113 109 119 128 134 141 146 164 165 166 186 202 190 197 193 172 137 128 127 114 96 98 104 123 99 94 105 115 121 133 148 149 138 147 139 144 158 150 144 149 144 150 139 139 136 131 125 133 137 136 166 166 163 163 156 153 144 140 142 139 131 136 141 140 151 160 163 171 163 158 154 140 143 137 147 147 138 123 120 121 115 116 122 118 108 111 113 116 100 91 99 94 98 87 107 142 136 129 146 143 161 169 170 170 183 198 178 179 163 148 147 134 118 101 97 118 101 88 72 85 108 125 134 151 140 145 148 149 158 166 152 149 156 147 144 143 145 137 131 128 138 141 161 163 159 160 153 152 145 139 136 133 133 144 149 156 168 170 183 179 166 150 143 140 168 180 172 155 141 138 131 141 132 118 139 121 111 106 112 119 96 102 100 99 103 91 95 119 117 109 139 150 146 158 154 159 146 181 169 158 161 155 157 144 131 130 118 124 104 84 71 89 102 110 136 138 144 134 154 169 162 169 172 155 162 159 149 142 148 138 141 130 132 141 161 165 152 152 159 154 151 140 143 140 148 157 163 170 177 175 163 155 151 146 157 158 171 186 172 164 151 144 144 148 147 130 145 146 128 125 128 120 102 110 118 114 108 98 103 117 130 120 134 143 137 145 143 150 128 144 155 136 129 118 138 143 131 132 127 107 110 95 86 88 92 101 132 132 129 135 140 171 174 175 169 170 173 158 154 146 146 141 137 139 127 145 166 161 153 154 155 159 155 157 149 150 163 174 185 187 168 155 138 133 144 148 171 175 162 163 164 168 156 149 148 143 139 149 147 142 132 137 131 138 124 120 127 118 106 112 120 120 141 138 143 145 135 136 145 146 128 118 128 138 120 83 105 122 116 132 135 106 93 93 106 102 83 74 111 110 105 132 144 151 171 165 168 167 174 172 158 154 148 140 147 143 140 137 162 150 154 157 156 152 150 151 148 141 163 180 177 156 154 133 120 126 156 167 165 167 158 151 162 159 149 148 143 141 145 143 146 133 131 141 137 135 136 131 125 118 113 110 118 112 121 129 137 139 134 129 138 142 126 109 118 137 130 98 94 110 113 122 122 120 93 89 103 115 110 89 74 87 101 118 144 149 171 171 169 163 159 176 180 161 161 147 150 152 145 138 147 144 155 153 154 149 147 144 140 154 165 157 147 150 123 112 130 149 163 177 184 163 158 153 146 132 131 130 139 135 138 125 127 129 128 133 129 124 119 120 124 109 123 117 112 119 112 116 119 136 124 125 133 145 132 118 120 125 128 118 101 109 108 128 125 109 116 121 112 112 111 96 73 69 97 107 117 144 147 168 174 173 149 171 190 180 168 165 149 157 143 142 137 153 152 142 151 144 138 134 131 145 146 134 132 124 107 129 148 159 166 168 160 154 143 141 122 106 110 120 116 127 125 121 127 128 124 127 130 128 120 111 122 110 111 109 109 110 122 110 119 127 114 111 127 130 135 129 130 113 118 117 112 107 111 114 131 129 126 121 126 120 116 111 88 88 74 97 107 133 140 155 161 167 164 160 180 187 180 172 164 153 148 143 156 150 145 144 143 134 124 133 134 124 111 111 99 93 118 146 165 171 165 150 135 132 124 119 109 106 102 98 105 110 118 126 130 130 126 127 120 131 122 115 119 115 104 103 98 97 100 104 110 109 109 110 119 132 124 126 136 125 115 113 110 110 111 115 117 142 133 128 127 123 118 127 121 101 73 73 100 103 133 138 151 165 166 160 165 184 176 183 180 160 158 149 148 148 137 147 132 117 121 132 130 106 101 91 92 101 142 164 163 163 126 119 125 118 110 104 110 104 98 96 105 104 111 115 122 132 125 126 121 119 119 111 107 106 93 90 90 91 89 91 96 94 99 107 113 117 116 119 124 122 119 120 109 112 112 105 118 117 134 142 135 135 131 137 132 129 89 77 80 97 112 126 133 170 162 169 156 170 182 180 184 175 170 146 148 143 138 134 122 116 133 119 106 85 109 83 92 130 162 177 168 133 116 124 110 102 99 106 117 108 114 115 115 103 114 117 116 120 119 110 111 110 103 93 87 98 95 85 79 86 96 91 93 86 90 89 100 98 100 105 113 115 117 107 105 109 102 106 121 113 117 143 142 147 132 136 141 127 123 85 75 77 96 128 124 150 158 163 160 159 176 196 180 193 175 147 149 132 123 122 108 125 131 123 100 100 107 86 131 166 177 174 141 125 124 127 110 97 104 113 119 119 124 125 122 124 119 113 114 114 116 111 102 102 102 100 93 95 94 88 92 94 98 95 99 105 94 90 94 93 97 103 113 117 116 108 101 112 99 105 123 117 109 111 140 140 147 146 154 150 143 126 78 67 84 123 123 146 155 163 164 160 157 181 198 182 176 168 137 120 105 111 109 120 123 100 108 108 102 131 170 186 188 163 122 122 126 124 111 103 113 127 124 129 134 136 127 128 123 119 119 116 120 119 120 116 105 105 108 107 92 96 108 98 100 105 95 99 99 99 96 107 105 113 117 121 122 100 104 107 101 96 119 119 114 105 127 140 151 150 156 158 140 142 111 74 60 111 122 127 140 175 168 165 156 171 181 189 179 178 132 109 114 107 110 117 102 94 109 110 117 149 170 187 180 143 120 132 144 130 118 122 129 133 140 145 148 136 128 136 136 129 131 128 124 126 129 129 120 111 127 125 123 120 124 116 111 111 113 106 109 108 103 108 108 116 120 120 120 105 113 118 118 118 122 130 122 107 124 137 153 162 169 160 164 152 144 100 75 83 124 134 131 161 179 172 162 162 172 185 190 187 123 117 115 105 102 93 115 110 106 109 137 170 176 191 162 130 123 142 139 121 129 136 145 152 158 156 155 151 139 148 153 148 147 147 142 144 139 144 139 141 139 141 140 131 137 129 120 122 118 118 110 110 100 108 109 123 123 126 123 128 127 126 124 127 128 132 139 124 134 141 151 166 149 164 177 166 161 131 107 91 84 139 133 155 169 185 169 163 171 183 198 191 126 128 102 96 94 119 113 106 102 127 169 182 175 160 135 131 141 145 143 136 148 148 163 173 172 168 164 155 154 158 169 162 164 166 165 168 163 168 163 161 162 159 157 153 147 148 145 136 132 130 116 117 106 112 116 132 127 134 135 139 136 129 130 129 129 136 141 143 143 155 148 165 161 166 170 181 184 164 137 105 79 104 152 142 161 173 168 173 170 186 183 203 116 121 103 96 109 116 108 92 116 136 174 170 162 130 127 130 137 142 145 152 155 158 176 182 180 174 172 161 167 174 182 178 182 187 187 190 192 186 187 177 173 178 172 164 160 159 160 150 146 141 130 130 126 130 132 132 135 145 147 143 149 142 137 133 139 135 140 153 158 168 163 162 161 171 176 180 205 183 161 134 101 96 120 142 146 176 177 173 170 177 173 187 111 117 104 86 107 110 98 91 122 147 153 156 141 128 130 138 137 139 151 159 170 171 190 183 179 187 180 183 180 183 203 198 203 203 198 204 204 200 194 193 184 186 174 172 165 166 164 155 152 151 142 143 140 139 140 141 149 145 151 151 150 152 147 143 142 145 147 147 153 167 162 162 150 159 173 188 196 187 168 154 128 91 101 108 143 173 187 184 168 166 170 177 113 113 106 111 110 92 74 90 115 147 152 140 137 124 142 151 144 142 164 162 173 178 182 175 182 195 175 184 187 191 209 207 214 208 204 202 199 194 189 179 181 174 168 168 155 161 163 158 158 159 148 154 151 148 143 141 143 147 144 150 137 139 134 135 142 153 154 155 154 157 159 153 145 154 172 193 184 196 177 168 148 107 94 102 115 168 188 204 177 173 171 182 115 121 119 121 96 72 66 96 127 147 145 132 126 125 135 145 144 146 161 162 168 171 172 179 181 188 175 179 184 197 209 212 209 204 195 187 187 185 177 166 168 161 160 159 149 152 155 145 143 144 140 137 140 138 134 133 135 139 137 140 133 127 129 131 133 136 143 159 157 162 168 149 148 148 171 173 188 188 184 158 149 128 98 92 117 131 179 197 190 177 171 176 131 132 118 109 69 64 66 106 116 134 133 124 119 115 134 146 140 151 159 158 153 159 166 173 171 174 174 175 179 184 195 201 196 190 185 177 165 165 161 155 156 151 151 150 140 134 126 124 120 121 122 119 118 115 121 126 131 125 125 119 124 114 116 119 119 124 129 138 156 168 172 160 155 147 158 174 188 190 185 183 125 128 81 84 127 99 140 171 198 188 169 177 144 131 125 107 83 52 83 117 128 135 129 112 107 121 128 133 142 154 155 135 140 149 156 160 154 162 164 161 163 168 177 181 180 174 173 167 158 152 154 148 150 144 137 135 127 129 120 120 119 121 117 118 113 113 120 121 122 126 121 117 115 105 104 111 109 104 113 120 131 157 174 173 147 157 136 163 181 181 176 174 154 117 89 73 98 128 128 141 179 203 159 169 148 123 107 102 63 54 89 125 130 132 116 113 117 126 125 132 152 150 135 125 137 142 144 145 144 155 155 150 154 157 162 166 156 151 149 139 139 137 137 139 139 136 130 133 122 125 123 114 116 120 114 115 110 111 114 116 118 116 111 117 110 98 103 100 88 94 92 94 112 128 162 167 147 161 141 143 166 168 165 151 143 123 93 75 74 105 131 154 156 195 177 166 122 126 99 106 65 57 93 133 130 138 123 130 119 118 128 141 144 137 128 124 129 135 130 140 144 144 141 126 122 127 135 134 134 130 128 123 117 121 125 130 131 129 128 127 122 122 126 117 119 122 115 111 112 106 109 111 115 105 106 109 105 101 100 93 79 81 88 80 84 104 125 161 143 155 147 137 156 159 154 141 131 119 97 90 78 89 122 146 168 189 179 166 116 114 97 86 68 59 100 112 127 137 125 124 111 119 136 139 125 125 129 127 126 127 124 137 135 118 100 100 103 101 103 109 109 107 107 106 110 109 112 120 123 126 125 120 128 131 133 129 131 128 125 115 113 116 114 119 112 112 105 96 99 94 92 83 78 71 71 73 74 83 107 140 146 149 147 133 145 145 139 148 91 126 103 81 91 83 120 134 145 194 172 156 103 103 99 92 78 74 109 113 132 133 114 117 120 122 135 131 124 123 134 132 131 125 128 126 98 90 90 91 89 84 91 96 98 98 98 95 100 100 105 105 110 113 112 110 116 125 122 133 132 142 131 123 118 122 126 126 121 125 119 109 104 106 94 81 74 72 75 69 67 68 92 106 132 151 147 126 149 141 123 144 100 85 122 94 94 123 134 136 128 177 174 155 102 105 106 104 92 99 132 131 133 128 116 125 125 124 139 134 130 135 132 125 127 122 116 97 88 92 86 82 82 88 88 95 96 98 98 93 94 98 98 93 99 99 105 110 104 117 120 120 120 135 138 128 132 131 132 134 129 129 120 123 117 112 114 99 92 84 75 69 63 63 80 90 101 142 150 134 144 141 122 125 107 94 104 114 100 116 144 137 133 160 150 146 112 118 101 108 113 112 143 137 146 149 122 134 128 139 143 138 133 141 128 126 122 114 101 97 95 98 92 93 93 95 89 101 104 108 104 100 102 94 101 92 91 99 103 106 109 111 117 120 123 127 135 121 132 133 141 137 137 128 125 127 130 114 118 118 114 103 97 78 66 66 75 82 94 136 145 144 150 153 128 109 120 100 107 104 113 111 121 133 140 160 154 143 104 113 93 107 119 121 150 154 166 168 140 148 141 144 151 140 136 143 128 129 121 112 110 109 108 107 101 102 100 105 108 109 114 118 119 113 112 102 112 100 97 97 106 107 119 111 119 120 118 116 114 102 101 108 103 109 110 114 112 126 128 122 125 128 117 123 118 102 83 72 69 87 94 119 150 149 164 165 143 101 116 110 99 97 109 117 113 145 146 149 166 149 98 114 85 108 125 135 151 158 169 181 160 155 141 145 158 140 137 138 130 127 120 112 116 111 109 106 109 116 109 116 119 124 127 130 129 127 129 116 116 121 109 102 112 107 111 102 101 101 99 103 100 95 100 101 98 93 105 108 114 134 126 132 132 146 144 138 142 127 108 96 77 78 96 118 150 153 172 175 148 123 96 116 119 99 82 126 123 164 172 129 156 152 81 110 93 116 126 135 159 171 194 191 167 146 133 156 154 147 148 151 139 121 111 118 110 100 101 104 115 117 122 126 130 136 139 138 134 136 135 132 123 130 123 116 126 119 111 115 106 103 98 110 107 97 105 102 106 104 115 110 119 124 125 121 129 126 141 142 145 140 128 124 112 89 92 111 137 165 167 177 151 112 113 122 133 116 83 101 136 135 187 131 129 149 64 93 95 113 130 139 161 190 197 183 165 143 132 152 156 158 153 150 136 124 125 127 119 114 113 120 132 140 135 142 140 141 133 142 133 132 138 138 135 137 140 136 125 126 120 121 115 114 106 117 123 124 128 130 127 123 125 132 128 114 119 111 107 117 133 129 139 139 140 130 143 118 105 108 125 168 177 174 159 101 118 133 140 133 88 79 110 112 161 158 123 134 70 84 100 110 129 138 151 199 198 187 167 144 130 145 146 153 165 154 143 139 153 148 145 141 143 150 153 153 151 153 141 143 140 151 144 138 138 141 138 140 139 146 139 132 135 129 129 125 126 130 137 141 143 144 143 135 131 137 139 126 126 117 111 111 127 127 134 133 141 138 147 135 120 123 126 155 190 186 176 133 111 130 150 118 102 105 100 98 139 157 133 145 60 73 107 118 112 126 150 195 195 192 181 141 128 140 161 175 173 163 152 163 179 171 162 151 147 151 150 159 161 157 157 148 145 146 145 140 141 141 141 139 142 141 136 135 135 141 136 133 139 142 151 154 156 152 153 146 141 139 144 132 132 124 115 121 117 130 136 139 141 140 145 144 130 122 122 144 177 199 183 142 130 137 140 130 83 116 107 91 107 153 137 151 60 71 110 109 114 121 163 192 182 176 169 125 127 146 174 189 187 181 170 164 178 174 168 159 154 147 149 152 154 154 151 146 137 140 146 145 141 149 149 145 144 142 143 146 141 148 147 137 138 144 146 154 149 148 149 144 143 142 136 134 132 138 134 129 135 138 144 142 147 144 146 143 134 120 108 122 163 194 198 131 135 146 138 118 98 100 118 89 118 135 130 162 56 82 101 99 125 130 161 174 167 153 136 114 131 161 201 201 206 194 176 166 175 168 162 163 166 160 153 148 140 147 141 132 134 129 140 141 143 141 149 151 145 146 146 150 147 149 148 145 144 152 156 161 163 160 158 152 147 154 148 144 145 152 145 149 145 151 152 155 155 160 152 148 150 145 116 113 145 179 201 164 143 142 123 132 95 98 112 116 110 125 114 142 55 67 96 112 114 127 153 162 160 131 131 122 128 169 198 189 178 172 154 152 156 162 162 157 167 162 166 157 148 151 145 145 148 141 142 149 148 151 150 154 148 148 152 152 156 151 156 150 157 161 161 162 167 164 167 159 156 152 151 152 157 157 165 156 150 158 157 154 158 171 175 157 158 180 150 119 141 172 193 178 170 150 115 117 97 84 97 95 97 106 126 120 78 70 77 95 100 135 139 159 129 128 126 130 130 159 177 169 151 133 115 121 117 120 129 138 140 136 152 146 142 134 133 132 142 144 143 150 148 147 143 154 151 150 148 153 160 164 162 156 158 160 157 165 160 154 152 154 146 151 151 143 144 156 151 149 143 141 146 155 150 158 167 162 159 165 160 125 135 169 181 171 172 168 146 106 97 72 92 97 96 113 120 114 85 96 68 80 84 132 138 120 128 133 126 127 126 161 187 165 148 123 119 116 117 114 114 124 127 125 126 119 126 127 130 130 130 127 131 139 139 143 142 143 143 146 146 146 147 163 158 151 149 153 148 153 144 148 150 139 141 134 139 128 138 136 138 135 132 123 128 152 157 142 154 167 162 152 161 144 139 165 189 161 162 146 153 98 79 68 88 85 113 134 125 112 86 79 83 107 97 121 115 107 112 134 145 145 163 155 175 143 115 93 90 95 103 86 99 101 104 99 91 92 93 108 120 119 125 116 108 117 118 118 122 129 126 143 138 143 145 155 154 140 138 136 138 138 120 110 125 117 111 114 126 119 136 134 128 130 131 119 119 122 135 147 145 169 174 148 166 159 130 177 187 174 167 146 142 117 65 46 67 75 125 157 129 97 77 67 99 117 117 113 119 127 139 143 169 160 178 153 173 131 105 85 91 91 89 86 85 87 91 90 87 92 87 83 89 104 112 110 98 88 92 96 109 126 135 132 136 159 152 150 148 149 142 133 126 123 112 96 89 100 97 98 88 101 111 116 118 114 121 109 109 123 126 127 134 155 175 177 174 180 144 171 190 168 159 152 141 111 54 48 70 92 131 162 131 106 69 93 109 116 117 122 129 150 160 152 202 219 188 160 169 144 109 114 101 74 78 101 108 94 93 107 91 100 92 89 105 110 115 110 113 106 86 98 112 111 138 141 147 153 165 154 157 148 146 141 143 135 126 123 115 112 101 103 99 93 88 104 104 94 112 86 95 106 116 129 102 123 150 166 171 191 167 167 205 193 172 152 125 97 36 59 104 111 124 135 144 114 83 108 121 128 126 132 142 156 159 158 211 220 192 181 161 139 112 114 80 78 93 109 113 95 76 100 106 109 96 110 129 137 134 124 125 116 104 112 125 122 133 139 138 137 153 131 142 143 132 132 122 122 117 102 93 101 87 87 80 35 62 88 87 80 94 77 93 102 110 133 111 109 133 157 140 172 161 159 224 200 171 138 133 88 46 76 108 119 145 125 114 108 99 100 138 141 151 135 166 176 155 152 170 185 194 177 158 149 131 111 117 121 102 98 98 91 88 85 96 103 86 99 112 113 101 105 79 81 106 98 110 117 117 120 130 122 143 104 118 127 128 119 119 115 104 88 86 74 61 69 60 31 59 79 75 65 77 81 99 116 134 139 139 124 138 166 161 176 156 159 210 199 156 106 131 104 81 99 90 104 161 138 115 92 100 98 146 161 166 149 162 179 149 148 162 164 181 151 161 137 139 119 123 119 84 89 102 90 74 93 84 94 87 87 89 71 68 92 83 69 85 99 104 117 120 124 140 145 148 116 131 145 130 139 120 105 91 70 74 62 55 46 43 51 56 73 68 73 69 82 85 124 145 151 148 145 146 166 169 165 155 144 170 171 134 108 98 112 91 106 99 118 128 167 126 116 101 115 137 157 156 154 166 179 128 154 165 177 192 156 155 166 172 134 113 142 111 111 123 116 99 97 107 94 93 77 86 77 91 98 97 64 66 79 90 122 129 134 148 160 121 128 145 152 168 158 115 85 90 80 68 56 23 50 30 36 54 67 71 82 90 100 125 143 165 165 174 162 166 166 173 161 152 148 133 161 115 112 68 124 101 96 118 131 144 160 149 108 86 128 130 144 162 157 160 184 142 162 143 158 181 144 158 200 194 163 155 176 138 134 128 124 120 109 118 113 102 87 96 95 132 132 110 79 63 69 86 115 145 162 165 182 138 137 145 159 177 184 135 109 111 98 94 75 44 28 43 65 99 92 85 114 137 148 119 171 162 174 189 192 174 161 160 150 140 162 172 169 120 127 64 129 104 106 128 154 153 155 169 153 86 151 148 143 164 157 150 162 143 140 128 132 143 118 171 214 188 169 200 208 177 143 122 131 140 132 112 97 88 73 75 112 102 88 73 73 74 65 82 129 142 172 186 179 162 140 137 152 178 189 162 132 121 132 128 115 62 37 68 102 123 94 80 103 136 174 168 158 170 155 196 193 176 167 142 125 123 154 183 155 128 138 98 145 97 123 124 154 150 163 179 187 95 165 144 154 169 162 146 150 122 138 137 134 123 115 187 184 173 154 174 184 157 126 118 127 144 133 104 85 77 76 74 98 92 77 79 76 92 74 104 158 160 174 187 159 148 151 148 144 193 195 187 139 100 129 124 105 92 73 50 60 82 93 87 119 146 200 171 158 145 159 175 158 151 150 114 113 124 135 186 146 164 148 124 128 93 123 136 164 136 193 188 186 109 169 152 143 170 171 151 138 105 135 126 118 128 124 192 191 158 130 140 146 146 133 124 129 132 122 126 111 92 94 101 138 114 115 119 101 97 105 141 153 156 182 191 146 130 151 158 151 177 192 193 141 100 124 147 120 105 86 70 58 65 93 123 144 161 159 139 144 154 152 172 130 108 107 79 104 123 126 175 168 190 144 131 107 94 140 159 182 167 189 228 174 112 160 148 144 168 161 142 136 99 126 145 117 117 136 197 213 139 118 122 133 118 111 123 127 121 127 137 134 126 106 114 121 104 117 125 110 98 137 179 146 184 193 147 124 114 133 146 147 154 174 176 124 113 93 129 117 111 113 92 70 86 101 103 130 121 110 140 159 170 125 128 100 86 104 78 103 118 122 143 179 197 133 144 112 103 159 190 188 195 208 254 176 122 128 146 159 166 166 149 131 113 126 121 129 116 147 196 210 169 132 121 129 113 124 126 122 131 120 115 97 114 121 106 111 111 108 99 103 99 145 155 157 156 161 127 98 113 115 126 134 136 170 175 151 152 111 115 133 140 132 105 99 112 129 115 123 109 90 121 104 107 102 89 79 96 84 65 103 111 113 141 189 180 169 120 81 122 177 208 189 226 208 249 176 121 123 138 130 162 175 166 142 119 134 100 112 122 152 204 219 174 147 137 139 127 131 120 113 115 91 98 113 114 122 115 114 112 95 92 104 133 145 142 159 134 127 90 79 74 96 96 103 125 136 154 155 130 127 101 107 106 121 110 97 119 134 140 133 107 89 90 89 85 78 70 68 99 87 61 92 103 115 157 207 163 196 114 60 144 186 201 205 235 218 224 158 110 134 124 127 148 169 196 178 148 142 95 97 117 156 199 217 222 193 169 172 151 143 133 107 104 99 120 133 129 126 101 102 108 91 94 125 144 116 121 110 101 116 71 46 55 68 82 81 112 116 125 146 122 117 120 102 122 113 123 121 117 128 135 124 88 80 79 78 79 80 73 89 100 81 68 100 126 161 178 172 186 203 105 73 137 181 215 236 229 232 212 138 112 124 118 130 144 162 198 171 136 113 97 111 105 161 188 185 197 196 165 160 146 122 131 110 110 105 108 114 106 94 82 93 107 100 90 97 97 88 103 72 88 85 61 16 44 53 63 59 81 93 104 123 125 96 116 113 135 141 125 130 137 134 121 101 113 85 75 91 86 86 77 115 113 102 103 118 152 154 163 166 201 173 101 88 143 164 221 230 219 232 205 143 107 105 126 122 142 168 173 178 121 95 79 88 98 132 148 144 150 159 151 139 136 125 126 115 119 98 92 100 95 105 101 122 136 106 67 69 93 118 58 41 59 55 40 20 41 56 59 78 62 82 95 93 112 115 112 115 126 137 129 115 132 135 155 135 114 119 101 111 104 106 112 116 118 103 104 110 141 163 166 159 167 156 89 78 127 139 209 228 209 220 188 131 109 119 142 127 155 170 143 166 129 78 92 78 92 127 135 134 143 128 131 131 146 123 128 121 116 112 108 100 106 120 146 148 135 102 86 95 105 93 43 46 59 49 44 36 39 47 64 62 45 85 99 92 93 150 155 142 151 121 125 110 125 136 147 163 146 155 142 143 137 122 124 122 127 114 111 120 155 170 160 144 139 96 74 59 71 125 206 214 212 202 178 102 117 138 151 133 131 164 157 165 139 97 84 94 88 121 130 127 156 137 117 121 136 135 117 124 118 121 109 100 105 118 129 129 132 113 122 112 97 75 70 72 80 80 62 50 45 57 65 52 61 74 93 92 67 107 159 145 152 136 109 120 115 123 132 158 152 148 145 127 112 114 122 128 112 109 106 103 146 163 163 127 97 66 64 29 60 126 160 203 213 189 157 105 121 129 153 140 129 139 147 144 122 79 82 79 83 121 130 125 122 128 135 127 134 160 152 137 120 132 125 120 124 124 132 139 138 130 121 101 80 102 107 92 94 91 76 74 68 76 65 72 76 74 94 91 82 73 125 155 147 131 109 98 113 122 109 126 146 121 119 122 103 111 130 135 125 135 124 123 136 166 166 133 112 86 46 26 60 106 162 195 201 175 143 121 149 151 137 120 131 136 129 132 109 69 46 51 78 105 130 129 116 125 107 126 126 135 143 153 128 133 142 137 144 151 142 126 127 121 114 96 92 114 102 97 99 82 70 93 98 85 88 91 99 89 93 81 99 88 96 139 122 127 118 86 112 130 133 135 144 154 132 140 135 125 140 136 128 135 128 119 141 157 172 130 141 107 47 20 59 84 139 177 181 170 162 128 164 190 158 132 137 117 126 110 79 63 46 28 59 82 104 126 106 106 117 114 114 119 129 128 137 147 143 134 134 135 130 124 127 121 107 103 106 110 104 95 96 100 81 96 101 88 116 104 107 112 95 92 99 128 121 119 130 122 141 128 124 134 152 165 163 168 160 152 157 147 147 156 139 138 137 128 136 161 168 132 143 104 63 24 83 98 130 143 184 188 153 132 137 187 183 142 141 126 121 104 66 59 52 40 38 77 96 111 115 105 122 129 129 127 125 124 136 142 133 126 124 126 129 127 135 124 119 114 128 117 106 106 116 128 99 80 98 81 105 102 118 130 101 94 116 140 164 148 131 130 129 149 159 142 154 177 182 181 187 170 174 175 174 172 161 159 149 154 159 177 161 138 137 119 75 42 98 91 135 116 214 175 136 108 126 168 183 121 115 138 143 114 81 61 56 35 29 55 82 103 112 114 122 123 130 136 129 128 131 131 125 126 122 119 132 137 138 135 123 126 129 124 117 116 103 106 98 116 102 80 98 112 127 136 112 108 129 153 173 165 152 133 138 148 178 165 161 164 185 198 197 194 182 193 186 184 174 164 165 164 163 146 136 121 112 141 109 92 93 109 132 138 196 158 128 127 125 157 188 129 80 109 141 125 97 79 66 13 27 54 78 95 114 114 122 114 113 126 123 134 135 133 124 136 131 122 123 123 134 140 145 142 136 133 144 123 111 110 110 100 99 101 104 114 128 139 119 131 156 163 158 162 157 159 144 150 164 174 177 175 187 195 210 188 183 191 185 177 175 173 168 161 144 134 134 121 106 139 135 130 146 136 140 149 174 167 128 130 139 142 175 159 114 140 140 117 110 84 77 35 20 57 68 99 115 119 120 111 115 108 116 110 130 136 130 142 141 142 133 139 129 135 136 134 135 140 126 99 101 97 104 102 101 109 98 109 120 133 138 130 148 162 161 168 166 169 162 142 155 159 177 181 172 187 196 201 199 202 185 179 169 161 160 142 138 126 117 107 100 153 143 172 193 158 153 168 143 145 108 129 180 135 141 169 135 140 153 115 122 93 54 28 27 60 72 98 112 121 126 116 121 119 128 136 140 138 142 148 152 157 154 145 133 128 145 154 158 139 103 84 89 95 95 99 109 113 112 103 112 119 144 131 115 154 172 181 174 172 157 145 143 150 153 154 151 155 176 183 193 199 184 176 164 152 144 141 130 129 109 91 96 132 153 185 204 171 182 158 113 128 113 116 170 161 137 157 146 116 166 122 129 119 71 46 36 62 84 97 116 126 136 131 133 129 153 160 152 148 160 159 166 170 157 139 137 132 146 152 146 124 85 64 81 97 102 102 103 102 117 109 112 138 146 149 136 134 156 162 159 143 126 124 105 104 132 140 134 144 158 162 171 183 171 163 156 149 138 143 125 118 119 87 104 114 179 197 212 193 191 149 108 106 114 119 147 178 157 152 147 132 152 131 145 136 89 55 44 75 91 84 107 121 131 134 130 141 151 164 157 157 160 166 177 171 155 154 148 140 135 156 137 123 92 77 98 115 112 121 114 107 112 111 111 142 144 144 149 132 133 156 142 131 123 130 113 101 121 137 139 138 157 153 161 167 157 149 151 146 145 137 128 120 121 102 101 134 184 190 192 196 201 150 104 118 117 106 139 170 158 160 164 137 135 148 165 139 91 55 68 84 90 80 96 119 134 132 132 142 147 160 159 164 166 171 173 162 164 158 164 171 160 153 145 132 128 127 120 144 148 144 125 103 115 119 125 127 129 111 118 110 105 130 111 95 94 95 100 87 101 118 132 131 133 148 153 155 146 143 146 144 141 134 124 115 128 103 116 138 164 167 180 192 179 135 86 111 110 102 135 142 145 173 177 155 132 132 171 154 104 57 88 82 94 71 91 119 132 127 147 159 161 168 157 175 162 159 154 158 161 161 172 178 169 168 163 165 170 176 160 154 161 153 139 117 125 138 139 129 120 114 124 110 95 118 90 64 65 85 87 97 104 121 137 144 139 133 142 157 145 152 150 144 149 136 117 115 118 100 129 133 161 159 152 159 157 112 80 96 104 109 142 130 138 141 173 174 142 120 154 156 102 73 103 86 92 72 89 117 128 145 155 170 171 173 180 176 167 162 146 151 150 162 166 166 171 183 172 179 188 180 165 158 154 154 140 133 137 136 131 128 118 121 120 115 96 97 76 61 53 60 66 81 100 115 141 145 156 152 151 152 151 149 152 143 146 136 105 111 108 100 148 150 169 122 91 123 127 110 65 103 95 98 130 137 121 138 154 164 154 117 148 173 116 95 115 100 99 78 73 103 128 146 164 170 178 177 177 169 174 161 149 146 151 161 157 159 154 164 175 179 187 182 162 151 147 148 141 136 147 138 126 129 111 112 112 102 86 74 71 61 66 70 67 77 96 106 124 153 167 167 169 159 151 149 153 145 147 131 119 120 120 114 146 170 138 86 68 74 111 84 74 102 100 84 131 135 114 120 134 131 144 128 144 148 121 130 129 108 107 91 60 90 128 139 156 174 180 168 159 155 157 157 158 150 148 148 149 142 147 143 164 186 193 191 172 166 145 135 106 109 114 130 116 105 118 108 101 78 58 61 60 70 62 75 85 91 96 110 125 159 171 168 170 167 159 145 154 142 142 129 119 134 132 143 127 162 104 70 73 77 94 79 84 99 110 90 142 129 116 101 116 107 118 116 144 151 126 147 145 112 124 108 62 88 128 145 155 172 176 170 154 155 151 151 154 137 138 134 129 137 153 160 156 182 175 171 173 155 139 129 109 88 89 112 110 97 115 98 79 65 56 67 53 61 59 77 91 109 118 118 134 160 173 163 167 172 163 150 144 141 140 131 127 143 128 159 133 131 79 65 102 79 73 99 104 111 113 109 141 131 110 89 90 101 86 112 131 147 119 143 146 115 115 119 83 93 133 140 156 161 176 176 176 174 151 136 135 132 119 105 109 132 145 152 139 150 146 142 135 109 108 145 141 105 92 107 121 117 123 122 99 88 90 87 71 70 66 83 100 113 127 129 147 166 179 160 168 164 156 152 139 143 137 138 117 151 121 153 139 99 60 82 115 65 67 125 124 117 121 127 141 137 103 82 102 81 72 101 115 145 115 135 138 134 120 123 109 114 146 155 151 161 180 186 186 191 167 145 122 105 105 85 89 104 124 129 136 129 123 107 93 92 90 98 131 123 85 92 101 116 111 116 117 107 114 104 100 96 97 101 128 129 136 139 154 173 170 162 156 154 150 146 134 139 143 129 134 151 133 173 134 91 68 112 102 55 90 161 137 124 134 126 142 131 100 81 79 85 73 85 101 121 117 127 149 143 125 130 134 135 149 154 162 159 187 189 198 190 161 150 133 105 95 89 84 84 106 113 114 111 101 99 87 96 94 96 120 127 105 103 112 114 108 111 113 110 114 111 121 119 128 123 148 161 159 159 162 178 173 157 153 156 147 140 128 134 146 129 147 155 150 186 132 109 106 121 112 92 157 152 140 129 138 133 134 134 109 91 65 96 90 72 92 108 124 113 162 137 142 143 147 143 155 159 160 166 172 188 187 185 174 149 139 118 106 88 86 92 97 94 92 100 85 93 83 90 92 81 89 107 102 110 111 127 117 129 130 117 125 126 131 131 135 143 160 166 166 169 175 181 177 161 154 150 146 135 134 134 146 136 157 158 162 202 140 136 128 140 151 148 159 150 145 139 125 142 134 138 128 98 69 103 93 71 94 114 126 122 156 134 143 154 164 147 160 162 170 160 162 179 179 195 205 185 159 143 129 114 112 115 114 107 109 108 101 98 96 93 93 82 79 94 88 108 108 100 118 132 148 129 129 125 132 133 140 162 172 181 188 185 179 183 173 153 150 154 146 140 139 130 155 139 153 168 165 187 139 148 115 138 151 158 154 139 152 145 138 143 135 137 119 115 91 97 88 65 90 109 133 142 154 145 133 156 169 159 148 166 170 159 169 169 179 186 205 202 183 166 159 130 141 145 144 135 139 133 117 113 144 144 131 130 115 109 105 112 117 107 103 131 153 134 129 134 147 162 175 174 181 185 182 179 160 171 165 151 136 153 149 148 143 134 163 148 143 159 151 175 128 118 83 123 149 168 145 114 148 148 142 142 139 130 113 114 98 94 84 74 88 122 125 166 169 161 147 160 178 163 134 150 161 163 171 179 184 190 194 198 186 182 173 152 139 140 142 142 142 142 157 147 153 159 156 159 158 145 133 132 135 133 113 131 146 141 127 142 154 163 164 184 197 178 178 176 166 161 157 149 146 154 158 152 148 148 160 164 160 163 131 156 137 98 91 140 143 171 139 87 137 150 132 139 130 126 111 114 95 93 86 80 96 126 133 149 179 163 158 167 173 166 124 137 161 178 176 182 183 187 188 195 201 193 186 168 143 137 138 152 164 139 150 142 128 135 134 136 145 150 125 130 138 143 147 134 145 141 125 128 142 140 123 147 159 158 162 168 156 153 157 148 156 150 162 157 151 151 162 156 169 162 124 150 140 90 92 144 150 166 140 98 112 147 143 133 127 134 119 111 102 92 87 103 102 120 133 146 168 165 159 173 169 173 122 141 165 185 186 178 176 170 174 175 172 164 155 148 144 144 154 156 146 137 134 136 133 121 124 105 123 124 114 94 108 124 131 135 146 130 127 131 126 153 124 134 140 127 137 149 151 139 144 142 138 149 157 155 146 152 164 162 175 136 133 156 141 90 106 134 161 160 135 96 92 138 152 136 134 134 138 119 104 93 113 127 111 122 136 148 162 179 168 173 170 162 132 137 160 180 184 175 162 155 154 153 148 143 135 125 145 148 149 144 131 130 131 130 129 115 112 96 96 94 76 78 72 92 91 89 114 114 110 113 134 134 115 117 116 107 106 117 131 132 135 131 136 154 167 157 140 161 160 151 161 117 150 158 130 96 113 140 163 150 146 113 93 127 148 148 140 134 139 115 105 120 142 131 121 126 134 148 162 187 176 175 174 158 133 122 147 156 166 162 160 154 150 148 147 145 150 143 160 160 158 163 150 157 157 156 150 132 112 103 94 98 79 68 68 83 77 92 107 112 124 121 148 123 122 127 117 112 115 119 129 132 132 132 144 163 165 156 131 161 143 139 136 126 168 157 136 106 123 154 156 153 148 126 93 116 151 143 154 133 134 114 126 156 144 140 125 122 123 141 150 169 177 173 168 165 150 128 143 129 139 145 136 157 146 152 144 149 147 152 153 159 168 175 165 169 181 179 169 147 131 122 110 119 116 89 104 100 103 92 103 120 137 129 146 139 130 131 125 125 124 126 128 123 121 135 142 158 159 141 141 157 134 131 127 139 172 153 143 121 132 160 146 146 155 136 91 94 155 143 146 135 125 132 152 161 138 136 119 109 113 120 136 156 164 173 168 161 146 113 116 112 112 121 110 123 137 140 134 129 132 130 130 137 146 155 149 154 155 155 150 141 130 124 109 125 121 95 110 97 110 104 106 125 133 132 134 131 130 130 137 142 127 130 129 124 116 143 138 149 145 136 144 138 130 120 137 161 170 145 138 127 137 141 147 144 149 131 91 83 148 147 141 132 125 158 155 153 147 135 120 90 110 113 132 145 151 170 170 161 147 121 94 96 105 102 108 100 117 119 109 94 96 97 105 126 128 140 131 138 140 144 134 123 122 112 98 92 98 89 92 86 93 109 111 120 135 140 135 133 129 129 147 147 139 135 133 130 126 133 139 144 132 131 142 129 128 140 146 178 159 143 134 134 130 129 147 148 131 135 89 69 122 149 133 131 147 169 159 161 140 139 106 81 112 106 130 137 125 163 169 164 149 135 96 98 107 101 99 104 105 111 101 88 90 84 88 93 106 114 121 118 118 116 111 107 95 83 82 84 78 90 87 83 94 109 116 121 130 136 142 132 132 140 142 140 138 130 133 128 130 127 136 136 129 122 140 125 144 164 163 175 155 144 139 139 133 133 138 156 132 130 111 79 101 129 122 139 170 171 151 139 146 129 104 64 86 96 114 131 101 144 168 161 152 141 103 108 102 102 98 104 104 106 101 97 105 90 99 105 106 111 117 114 110 111 97 98 79 74 75 82 70 93 87 92 94 102 114 119 121 134 135 147 138 147 127 135 140 118 123 124 125 119 121 127 115 131 129 131 165 178 179 168 146 141 136 136 149 132 134 148 129 139 109 97 99 105 139 161 162 170 131 117 152 136 94 57 67 93 93 127 101 121 164 156 157 156 133 102 112 99 107 102 96 105 101 105 109 109 107 112 112 106 119 119 122 122 110 109 99 81 86 79 81 96 101 89 91 97 109 117 124 135 129 136 126 132 127 127 127 114 122 123 129 116 118 119 110 129 132 140 194 167 166 155 149 142 127 134 164 145 133 127 117 140 112 101 102 101 162 158 156 152 114 110 171 136 96 66 60 64 97 117 103 120 158 159 155 159 156 129 104 101 111 116 99 106 112 112 116 117 120 122 125 113 116 115 120 120 119 115 117 112 109 95 102 105 100 104 109 110 116 127 129 135 139 127 139 126 125 126 137 125 124 123 119 119 108 112 116 134 144 145 195 163 152 148 151 132 133 134 162 165 143 109 102 121 98 97 89 104 164 153 146 141 100 121 182 130 80 69 42 29 78 102 88 122 149 153 155 156 159 144 116 111 112 111 99 103 110 118 117 124 129 129 137 136 129 128 129 130 126 124 126 121 122 109 102 106 104 112 120 125 125 133 129 126 128 129 134 125 123 126 136 134 122 114 118 99 98 107 124 145 163 156 173 160 152 146 148 132 119 147 158 169 155 113 102 112 83 83 74 84 150 143 129 124 90 128 180 110 72 59 25 10 71 100 84 102 134 134 147 146 165 163 132 123 108 110 101 96 100 106 113 120 122 131 130 138 137 133 136 136 134 137 134 134 130 132 128 121 123 128 131 130 126 126 130 134 137 127 134 127 128 125 130 121 119 112 111 86 101 116 131 159 179 160 162 158 137 151 137 135 129 154 163 165 161 140 121 116 84 82 78 71 141 136 132 107 90 155 164 87 56 51 32 5 76 102 89 94 123 126 126 134 144 182 155 138 120 110 110 107 101 98 94 103 108 104 115 104 106 102 122 122 131 141 148 157 157 162 161 158 153 148 143 141 138 146 141 141 133 138 131 135 128 134 124 126 120 107 100 87 95 117 133 174 174 147 156 151 149 150 119 123 137 171 158 158 164 149 151 117 82 88 83 77 142 139 134 102 97 166 147 81 52 63 28 29 102 111 93 83 109 128 106 108 137 165 169 144 113 122 110 113 109 110 103 96 97 94 96 104 105 109 117 131 128 140 149 153 158 167 171 175 172 161 162 165 162 154 156 149 133 151 144 149 139 134 130 123 117 103 98 97 112 113 141 156 148 141 149 147 140 148 112 118 135 187 164 146 160 152 176 124 83 80 93 82 140 143 125 102 95 174 126 97 64 63 32 66 136 110 98 87 98 118 106 81 121 160 165 144 95 114 105 105 120 121 112 115 105 100 101 111 110 111 117 125 135 128 132 137 140 149 158 159 161 160 158 162 161 159 157 151 140 145 150 153 148 142 130 119 116 108 101 105 121 110 139 155 127 134 128 131 127 135 109 113 135 177 168 138 140 157 177 148 97 90 91 84 155 136 128 104 108 165 118 123 70 40 49 117 157 120 103 97 94 101 107 74 112 151 157 120 87 102 101 107 112 117 121 110 111 115 106 113 109 105 106 98 108 111 111 113 119 124 137 134 144 151 148 161 167 164 160 153 144 153 149 152 147 141 127 113 108 105 107 111 110 106 145 154 119 121 108 89 126 120 105 110 135 166 159 132 125 161 167 152 124 116 113 99 154 138 131 111 111 139 124 135 57 47 72 151 178 123 118 106 109 103 100 85 102 138 150 122 80 98 99 99 107 111 111 110 109 117 112 111 107 104 107 100 94 101 93 96 104 106 119 110 118 123 129 145 153 156 156 155 143 145 142 142 138 136 117 116 107 109 104 110 107 105 135 127 113 107 91 49 108 115 110 119 136 167 164 141 131 159 166 148 139 132 130 124 161 141 124 96 110 124 149 134 53 54 94 182 189 138 115 101 128 109 109 102 93 139 144 118 82 93 111 95 98 103 108 113 99 111 109 111 104 98 104 95 93 95 92 94 97 97 118 107 104 118 128 132 137 143 148 153 149 142 139 139 138 133 111 116 109 99 102 112 103 105 122 112 99 102 106 37 64 98 109 132 147 168 172 152 152 159 159 152 138 146 144 134 147 127 91 89 102 116 180 132 65 58 122 214 201 145 132 117 134 108 117 96 103 134 153 119 93 94 115 112 103 107 97 114 107 101 108 106 102 98 110 103 106 107 107 107 105 101 118 111 128 131 136 136 147 140 145 149 152 150 147 131 132 135 116 109 108 88 105 114 101 99 123 106 104 126 107 40 21 80 89 153 152 177 183 165 168 152 162 160 147 145 154 143 128 108 86 110 104 128 186 122 79 74 136 237 215 143 153 135 137 129 128 102 105 142 143 132 124 96 111 119 114 107 105 100 109 104 113 120 109 114 122 119 118 120 125 125 122 117 123 132 143 150 148 147 158 155 154 151 159 159 145 142 134 125 107 92 98 89 107 118 102 84 135 113 114 131 95 56 0 75 91 144 146 167 191 182 170 160 158 158 163 149 156 146 134 111 113 144 111 144 192 148 127 108 172 249 223 159 146 155 144 135 139 125 111 139 143 133 135 135 127 118 120 115 109 110 105 101 120 125 134 126 123 122 124 126 133 134 146 145 150 163 168 166 156 159 158 156 153 159 164 160 145 151 108 101 91 75 87 92 108 118 99 80 151 114 128 122 86 58 2 65 100 136 143 136 178 183 164 164 153 166 159 147 160 160 124 105 140 157 114 161 204 175 166 151 207 246 214 171 143 134 149 128 129 128 128 122 141 143 130 153 154 142 145 136 121 130 123 108 117 129 142 149 147 139 138 133 152 160 162 163 170 180 174 169 161 164 154 158 162 161 163 159 142 111 89 82 83 71 95 106 118 113 94 103 166 115 133 113 85 70 24 58 105 141 138 138 178 172 171 166 141 160 156 156 164 189 100 90 147 146 122 170 216 196 187 168 223 241 189 149 138 120 141 134 139 115 133 126 135 137 128 141 161 159 169 163 149 150 145 128 128 134 131 146 160 164 163 165 173 174 184 176 181 181 170 168 157 160 159 169 165 156 153 142 102 82 90 85 78 84 103 114 111 106 99 135 170 135 123 104 87 76 50 68 120 143 140 139 157 161 153 134 126 152 152 150 152 182 82 108 140 162 158 200 236 221 200 163 211 213 170 148 133 121 150 136 148 113 121 123 136 143 120 120 146 161 176 184 172 163 160 156 157 157 158 147 159 167 174 177 189 195 198 194 183 181 168 161 163 168 175 171 151 135 125 103 76 79 80 81 77 85 102 119 97 112 103 138 165 125 107 115 95 81 72 79 138 147 156 157 124 138 143 129 126 146 154 161 154 167 92 155 152 191 186 211 242 234 208 156 185 181 146 172 164 115 143 130 131 112 110 121 131 141 128 106 115 137 160 181 186 176 161 164 166 161 167 172 180 190 187 184 190 191 193 196 187 180 175 170 178 175 165 142 131 115 98 79 80 79 83 76 83 87 121 113 90 111 102 129 156 110 98 143 94 92 80 81 144 169 164 154 119 130 122 128 136 138 163 173 158 166 124 177 179 187 216 214 228 220 197 155 187 189 154 181 179 114 120 117 122 105 116 114 125 134 138 109 108 128 138 161 170 171 169 161 166 167 177 180 188 190 204 198 201 202 198 190 189 185 185 179 178 163 146 119 122 103 81 81 83 77 71 75 88 101 119 87 90 112 105 129 144 89 104 139 111 105 91 84 143 188 177 139 114 96 114 133 140 121 150 181 176 167 