P2
92
112
255
97 100 100 97 101 95 98 96 99 100 106 107 113 109 126 119 122 132 135 151 161 160 165 164 168 151 164 165 161 166 160 154 157 152 152 136 137 126 131 121 107 104 96 100 97 86 95 93 94 97 88 86 100 97 103 110 122 135 138 148 142 147 142 143 147 131 127 126 132 118 125 126 123 114 107 112 98 98 93 94 95 91 92 98 97 101 97 101 104 97 101 105 95 100 101 99 99 96 98 103 98 105 108 115 118 119 130 128 135 148 166 157 160 176 170 169 168 171 168 170 158 164 169 153 151 142 142 125 123 122 110 103 109 111 111 110 94 91 83 87 79 93 103 102 103 96 106 107 123 124 130 135 131 121 122 130 130 122 129 120 113 107 118 121 123 121 125 109 107 96 100 92 92 94 93 96 93 99 98 99 99 99 100 103 102 98 101 101 103 99 104 103 105 110 118 126 126 120 133 135 149 163 171 168 169 174 175 176 171 180 182 178 166 166 173 168 164 147 132 124 123 112 116 108 104 93 97 95 91 88 88 97 96 90 105 115 115 119 118 124 120 113 120 115 106 107 119 121 136 111 114 120 117 110 111 114 122 123 127 119 113 104 98 95 91 94 92 96 97 94 100 99 100 99 99 97 101 104 100 103 105 102 104 112 118 126 123 131 124 128 140 156 161 165 177 170 167 170 175 182 184 178 174 173 183 166 178 175 152 136 137 137 136 109 116 114 105 95 85 86 90 94 92 94 103 87 91 93 103 107 102 111 116 113 108 113 97 105 101 96 111 113 99 109 109 111 121 126 131 117 109 114 125 113 100 91 93 90 94 96 98 94 94 98 100 102 99 101 99 100 102 104 107 113 114 127 128 123 131 119 134 149 151 167 166 173 170 161 136 159 171 172 175 168 162 176 182 182 182 167 158 149 153 139 130 127 121 109 106 92 100 96 101 87 84 99 97 94 82 85 83 92 89 88 111 100 89 101 99 98 95 80 75 104 90 100 112 103 102 134 138 125 111 105 106 114 109 92 95 92 94 96 101 97 93 94 97 98 101 105 101 101 101 104 109 117 124 136 137 136 126 134 144 167 161 159 149 153 148 152 136 159 163 167 169 172 182 181 172 159 160 155 159 156 144 139 143 130 128 109 94 91 102 102 107 102 98 100 96 84 91 82 71 90 86 95 92 94 92 80 86 87 91 93 80 82 89 86 90 111 108 124 131 133 127 118 105 96 110 92 87 95 95 95 101 97 91 94 95 96 98 101 99 101 106 110 109 124 133 131 131 123 130 140 151 148 153 142 139 122 121 135 129 140 165 176 178 185 174 165 154 154 149 143 144 145 142 132 129 121 123 114 102 97 106 121 114 107 106 100 101 88 97 88 84 85 82 93 99 97 103 93 101 98 97 93 91 85 83 70 74 102 100 105 118 134 128 127 116 104 104 99 96 88 88 94 90 91 90 95 93 93 100 103 99 105 106 113 120 125 134 121 112 115 119 120 135 141 124 118 118 116 131 136 127 145 165 182 180 166 150 149 147 149 150 145 141 135 147 148 142 132 125 139 133 124 132 144 126 121 116 114 102 93 100 96 91 88 77 80 92 82 76 91 103 101 97 99 95 92 96 73 70 94 93 94 108 109 115 120 132 115 106 105 105 94 83 86 94 85 86 94 90 91 99 105 99 106 116 123 125 126 115 103 109 113 104 125 128 116 118 111 111 118 124 122 132 163 150 146 137 149 143 149 142 137 150 142 140 142 141 143 132 133 125 128 134 132 133 140 140 128 135 128 109 93 92 95 85 83 69 73 85 77 65 68 84 105 94 94 110 92 102 99 93 89 91 91 103 112 123 116 133 126 114 118 106 99 92 80 81 89 87 91 90 98 95 102 103 110 125 124 119 124 104 103 106 110 117 119 122 103 121 125 113 110 87 112 126 151 129 107 123 145 147 160 142 132 144 140 139 137 146 142 135 132 133 127 125 135 127 135 125 110 114 124 114 91 88 86 93 86 72 62 76 75 76 56 58 92 101 88 100 102 97 116 101 114 95 77 89 99 115 120 116 132 127 121 106 91 97 78 87 76 89 93 93 100 98 94 111 122 122 124 120 128 117 112 113 111 120 119 117 127 120 100 106 72 83 109 107 94 92 95 119 128 137 141 143 136 136 133 132 130 134 142 134 140 129 130 110 116 121 126 130 127 107 114 116 103 85 82 84 71 66 44 40 48 58 59 52 65 71 90 88 87 90 104 101 127 114 105 102 94 102 108 115 144 120 137 117 94 86 93 92 79 87 86 91 99 95 93 121 127 120 121 127 127 123 115 110 103 104 125 119 126 117 111 96 84 106 98 76 64 84 113 116 116 114 126 132 127 131 124 126 135 134 141 138 144 135 135 131 128 111 123 122 123 124 107 104 110 109 90 75 64 62 45 40 40 41 58 59 77 74 81 93 105 94 98 98 107 115 116 115 106 107 104 116 130 120 144 119 102 109 96 88 84 81 80 87 94 91 90 121 119 117 125 125 125 110 104 95 103 109 110 112 122 113 104 93 87 85 74 40 60 82 94 111 119 113 106 116 125 131 140 141 142 143 143 137 150 143 144 146 140 138 134 134 126 134 134 117 112 98 89 63 53 46 39 35 37 39 53 65 76 85 89 81 102 112 108 109 113 115 125 123 105 107 123 137 119 107 110 113 105 125 104 96 82 77 81 84 85 93 92 120 115 124 129 126 111 107 104 104 117 110 100 103 104 94 87 74 87 64 48 43 73 78 74 99 105 90 105 104 115 115 136 146 151 150 153 155 147 148 150 158 160 151 145 146 144 149 135 130 115 96 84 68 56 47 44 42 38 43 54 67 78 86 96 100 98 109 123 119 124 114 133 131 126 127 123 139 128 107 102 113 115 115 109 104 87 76 74 80 86 91 86 121 111 130 141 124 100 103 114 120 125 100 94 101 107 85 76 86 69 49 41 66 96 73 71 87 77 77 101 108 109 112 126 139 150 150 150 154 153 150 154 153 149 151 148 149 146 146 144 143 122 98 99 94 77 63 59 58 57 51 63 71 81 91 106 102 102 97 109 117 121 122 134 140 133 148 132 124 125 128 125 114 117 124 121 104 103 84 79 69 88 90 80 119 116 124 144 115 92 109 125 115 112 104 98 112 111 90 104 93 79 62 46 69 92 76 73 66 55 69 89 102 116 121 120 126 129 130 131 135 140 148 155 151 140 141 141 147 134 130 126 130 124 110 96 99 100 88 80 78 71 60 66 72 74 83 95 100 98 102 105 116 107 121 124 145 135 145 147 123 117 130 132 126 120 119 121 108 117 102 89 72 73 81 82 121 122 139 134 121 90 117 120 99 98 98 113 117 104 121 115 99 83 58 50 69 72 65 49 47 55 68 74 97 106 117 112 103 104 103 108 115 119 125 123 128 137 136 140 134 127 132 118 119 112 115 106 90 92 82 87 78 74 74 71 72 71 82 78 89 102 106 113 122 119 121 109 128 133 138 145 141 129 121 132 129 104 98 127 106 120 109 93 87 68 68 81 125 127 136 131 123 110 94 89 78 98 101 111 116 105 122 111 104 92 62 77 69 58 43 36 47 54 62 88 98 102 103 106 97 99 96 96 96 93 118 104 110 120 122 120 111 112 112 112 102 110 106 106 101 85 84 86 76 80 82 77 74 83 92 94 103 108 114 123 125 131 123 128 121 125 138 143 144 133 118 125 133 117 92 110 113 109 114 102 90 88 70 79 123 130 142 129 122 104 56 77 96 111 105 123 132 117 128 131 119 94 65 69 61 44 43 59 56 56 66 106 109 104 95 98 102 102 89 80 81 84 98 100 105 91 100 103 110 108 113 112 100 107 108 110 102 99 98 101 101 97 89 89 84 97 109 106 115 113 126 128 129 134 144 136 144 139 140 153 156 147 125 118 121 114 101 118 97 92 111 115 99 97 88 80 125 148 134 111 113 80 41 97 107 109 110 107 139 130 145 141 108 89 82 59 67 59 57 76 72 78 91 99 104 110 97 95 104 99 86 79 78 78 85 89 90 84 86 90 98 105 110 116 110 102 106 108 102 105 106 106 103 115 111 109 109 120 126 122 127 124 130 140 145 145 153 162 162 156 147 159 163 158 142 115 101 110 110 112 114 96 107 112 108 99 98 87 141 150 124 96 96 74 67 98 100 99 96 125 141 148 138 129 107 85 74 63 76 72 66 82 96 96 89 90 94 111 108 100 112 103 90 87 86 80 75 83 80 87 88 93 96 100 104 109 110 107 107 116 108 108 110 114 120 122 119 117 120 123 125 132 136 132 136 140 150 157 154 161 167 160 152 153 165 163 154 124 94 116 122 117 110 111 109 121 105 106 94 85 135 146 113 90 89 75 79 103 103 93 109 136 135 138 120 118 105 87 65 66 78 93 83 111 114 97 84 86 97 105 102 111 101 101 97 97 99 99 91 89 87 86 81 90 96 98 106 104 110 123 109 113 116 110 109 116 123 122 119 122 122 127 126 130 138 139 142 147 151 158 160 169 169 174 161 158 157 175 161 157 116 110 126 129 113 122 111 124 113 106 96 98 142 123 107 95 80 80 103 115 92 76 133 141 124 121 113 109 98 94 65 77 98 107 120 128 120 114 99 96 101 103 101 103 105 107 111 113 108 109 106 111 112 115 101 102 108 109 111 112 108 122 117 115 120 116 107 119 126 119 118 125 119 121 124 122 130 138 147 149 153 150 163 172 167 168 175 161 152 160 170 164 148 124 120 126 130 117 121 118 138 112 109 102 143 103 93 82 81 89 111 99 74 90 134 128 112 119 115 87 96 90 81 99 125 124 130 136 127 128 119 110 101 94 95 106 115 107 117 126 121 119 125 135 129 139 128 135 131 124 115 117 117 123 113 115 116 113 115 114 111 108 111 115 112 115 110 114 110 120 128 143 148 153 157 159 169 164 172 167 150 147 154 160 143 137 121 127 140 120 124 119 126 133 109 118 130 101 81 90 102 89 103 73 89 95 107 114 113 117 107 83 105 102 112 128 132 127 134 124 136 132 120 106 94 87 87 96 109 111 119 126 141 135 145 146 149 151 149 151 144 129 130 120 129 129 120 119 121 124 116 123 117 111 112 108 112 101 103 108 108 111 120 128 139 149 154 150 157 160 168 163 156 143 143 155 152 137 122 124 128 127 116 114 125 131 113 115 105 89 89 98 106 98 90 77 101 94 104 120 111 112 96 94 111 106 122 133 131 123 126 119 121 134 112 101 97 94 83 87 104 112 115 121 134 145 146 149 159 158 161 157 157 153 138 131 144 127 131 130 130 128 134 131 124 123 118 111 109 102 98 99 102 107 116 124 132 146 149 148 145 161 155 169 152 134 132 152 147 140 138 123 120 145 124 115 128 115 114 123 91 90 92 111 116 117 97 104 93 100 110 114 111 98 88 110 100 117 130 136 130 134 115 122 116 115 110 106 95 93 89 90 98 114 121 129 131 147 149 149 156 170 161 161 176 170 159 142 148 139 139 131 132 137 132 132 126 119 115 111 113 104 95 98 104 102 104 117 125 137 136 142 135 149 148 156 160 129 112 142 157 125 137 115 130 139 129 113 128 136 120 122 92 91 100 127 120 108 90 108 96 120 108 113 110 93 83 105 115 125 136 132 129 133 114 114 106 110 110 110 109 112 103 101 100 110 117 113 134 145 149 146 152 167 165 164 173 176 170 143 151 143 137 134 133 131 130 126 125 117 114 108 104 97 97 103 99 96 99 109 117 121 126 134 129 141 143 143 155 134 92 117 144 117 120 105 132 144 134 114 119 141 132 117 90 115 91 138 109 89 96 99 124 112 99 111 110 80 80 100 130 131 135 119 120 118 116 103 107 125 123 112 109 115 110 101 103 105 113 110 123 133 147 154 158 166 160 167 176 171 169 162 150 146 142 137 133 134 134 131 128 114 112 108 100 99 93 100 100 93 105 108 105 114 114 128 126 140 136 134 143 131 102 105 110 123 113 114 125 130 132 123 115 136 119 109 117 101 102 129 118 82 105 110 120 105 108 112 96 80 87 113 134 130 116 111 96 103 99 94 122 124 117 102 101 114 111 109 113 111 113 120 124 128 143 155 161 163 156 162 169 171 167 158 155 145 141 141 130 128 138 136 127 123 121 117 109 106 100 103 105 95 101 108 102 107 113 116 128 134 130 129 129 112 88 88 103 101 103 121 121 132 125 119 110 127 113 106 120 92 106 130 121 83 105 117 121 109 110 101 74 94 86 118 118 123 118 104 90 84 91 109 120 112 100 100 97 118 116 119 114 127 132 126 136 137 136 151 155 154 152 161 168 166 155 152 150 147 137 137 130 133 130 131 130 125 128 123 117 116 110 106 106 101 96 102 108 107 104 109 118 133 127 122 130 104 72 63 89 88 94 109 110 138 123 113 113 115 110 102 124 105 101 114 106 84 98 112 131 124 112 94 85 88 94 115 113 120 113 90 86 84 103 106 110 109 107 107 109 124 126 130 130 136 140 144 146 143 142 146 153 149 144 155 164 157 144 138 138 135 137 135 135 141 136 134 133 129 129 125 120 117 108 105 103 96 100 99 99 97 102 101 108 126 114 111 119 101 62 57 77 87 93 89 114 133 117 100 99 115 114 93 125 106 99 102 94 89 102 107 135 108 92 95 101 99 101 117 106 107 101 88 83 106 116 114 113 108 114 110 120 131 134 130 134 135 143 148 150 144 138 133 141 145 134 137 151 142 130 117 116 114 118 130 134 140 134 131 127 128 125 120 117 115 112 104 103 96 94 100 96 93 91 96 100 112 110 90 101 95 63 55 65 87 85 72 111 133 123 109 98 122 114 109 116 112 103 116 90 91 92 122 116 100 88 106 102 109 116 113 101 100 100 92 104 118 120 120 114 113 114 124 131 135 141 135 136 138 137 132 133 127 118 118 121 116 112 116 123 125 119 113 108 101 102 118 129 132 127 133 123 119 122 114 111 112 105 110 103 103 101 96 96 91 82 91 87 99 93 91 80 79 53 54 53 64 77 64 99 123 155 116 101 121 114 113 123 111 112 106 101 87 99 128 96 105 98 93 102 116 113 113 97 92 80 89 103 106 105 100 107 104 111 122 122 125 133 133 125 127 127 126 118 119 112 106 104 99 105 103 106 112 107 113 102 92 93 109 111 121 122 130 122 118 113 112 105 106 96 99 101 96 100 96 94 100 88 83 82 93 88 81 87 69 50 43 48 51 65 63 87 120 134 129 109 112 117 119 138 120 107 100 112 90 115 111 107 103 87 80 115 111 112 96 99 98 90 86 98 92 99 105 116 111 113 114 112 113 118 113 100 107 108 111 109 103 107 95 93 87 91 91 94 93 94 104 100 84 87 102 105 109 121 125 121 119 109 102 100 97 94 92 93 87 89 89 88 98 90 89 80 81 91 82 74 76 63 35 52 43 57 58 76 122 127 116 113 125 122 130 132 108 114 111 103 95 114 112 109 85 81 97 112 102 107 95 100 104 89 88 98 101 115 122 139 133 126 118 114 110 116 107 100 90 99 97 91 91 92 89 87 83 86 90 89 94 89 98 93 82 80 89 95 102 113 115 114 110 104 101 102 94 91 93 87 78 80 79 78 87 85 86 79 82 79 80 84 72 71 53 58 53 54 50 62 110 123 115 106 118 131 125 100 94 107 98 105 107 102 117 88 61 96 105 115 110 110 108 109 93 94 103 112 125 135 131 121 118 113 97 94 91 106 108 107 103 111 101 97 95 92 88 81 85 82 90 86 91 94 89 88 78 77 77 80 88 98 105 100 105 102 95 95 94 92 91 87 82 79 80 80 91 93 86 83 81 76 85 96 86 68 53 60 67 57 57 52 94 124 115 111 100 130 117 104 90 101 87 112 110 97 99 71 63 106 116 119 109 113 104 93 89 99 102 110 124 129 124 117 114 105 92 85 87 95 97 107 107 116 108 102 99 93 90 87 85 84 88 90 89 81 82 80 74 71 70 76 74 78 80 88 94 94 96 93 98 100 90 92 86 80 79 86 101 104 101 91 86 85 79 99 98 87 62 68 72 60 50 58 85 107 117 118 98 117 109 91 80 93 104 106 108 86 84 58 68 122 131 98 107 111 108 100 105 107 113 130 132 132 134 122 116 100 87 93 85 95 97 94 100 105 107 104 97 94 92 89 87 86 88 89 86 78 74 79 68 69 63 64 68 67 71 84 86 93 94 93 102 95 99 96 91 85 84 98 106 119 112 107 111 96 90 94 92 91 66 77 95 72 47 53 78 111 108 91 110 86 106 102 63 94 112 115 108 82 55 63 101 115 121 99 115 112 103 102 105 121 124 121 122 122 125 112 111 96 87 92 84 90 97 101 99 104 106 104 106 102 109 99 98 95 95 90 87 81 79 71 71 70 65 70 71 72 79 87 92 97 97 89 102 94 99 104 97 95 98 115 121 124 128 114 112 103 93 101 89 91 76 74 88 84 53 66 63 109 96 79 88 87 91 116 85 75 110 116 110 62 55 86 108 127 134 108 106 100 94 106 99 111 103 93 100 101 90 89 86 82 88 99 99 100 97 100 108 108 106 110 115 119 126 115 114 117 118 115 105 100 90 87 84 81 78 83 82 92 92 96 106 110 108 98 92 94 99 96 96 100 109 110 122 132 134 131 131 124 118 121 110 108 91 78 84 82 56 82 64 110 100 79 83 74 99 117 67 65 97 133 119 62 85 113 135 149 129 108 105 119 125 140 146 156 159 136 134 121 107 110 103 88 79 95 94 94 85 85 95 98 96 103 106 115 118 112 114 111 124 123 106 103 103 106 92 99 102 104 99 97 95 98 101 101 105 86 85 83 94 95 91 85 98 115 126 125 132 129 137 136 134 135 119 125 104 85 85 79 51 80 70 106 99 102 91 87 87 109 26 60 123 143 126 100 108 132 147 143 147 130 117 126 107 121 133 137 150 132 120 113 95 98 93 101 82 81 76 76 76 75 73 73 80 91 98 103 112 102 122 114 116 118 109 95 99 105 101 108 110 104 106 100 91 93 97 93 94 96 98 94 103 108 98 90 101 113 130 140 132 134 128 137 128 144 138 127 107 85 70 71 79 71 75 108 127 122 108 97 77 66 13 64 141 111 123 136 124 157 155 149 144 124 113 133 114 138 154 157 157 128 135 117 102 94 91 91 81 71 66 76 81 91 90 87 87 89 96 122 125 120 133 146 152 142 148 134 127 138 132 119 124 112 105 97 98 95 101 100 93 102 115 107 115 113 106 104 96 104 119 133 140 135 134 142 144 161 153 152 126 78 73 71 82 72 93 138 145 129 108 112 77 38 9 62 102 108 120 124 138 176 152 153 145 127 124 142 147 173 192 158 154 144 169 173 133 107 116 102 96 96 97 95 94 105 93 112 102 104 108 132 135 131 139 157 148 149 155 151 153 162 163 146 141 129 129 123 122 131 127 131 121 127 136 128 124 132 136 141 139 139 137 135 128 121 122 133 141 148 151 144 134 83 77 87 95 82 113 153 152 132 110 108 93 48 27 48 87 124 128 145 144 184 162 150 139 141 132 161 154 165 175 148 160 197 195 191 156 138 142 143 130 139 143 134 135 140 127 140 128 127 135 156 149 127 139 148 133 141 154 149 159 177 177 173 160 153 163 154 157 151 159 150 140 148 162 165 154 158 158 162 161 165 183 160 159 140 136 125 140 141 139 153 115 78 64 91 95 111 139 148 136 145 119 92 100 62 44 48 80 135 123 187 205 195 166 154 115 127 140 148 143 154 151 149 163 185 176 168 182 158 147 156 147 153 170 171 167 163 174 156 147 148 150 158 143 146 130 131 113 135 137 140 161 177 178 178 171 162 172 170 187 174 165 163 167 178 181 195 178 177 177 178 177 170 182 176 162 155 150 144 148 139 140 145 109 68 52 90 97 140 181 148 129 155 119 94 79 56 63 73 118 149 136 206 230 201 172 149 131 144 158 148 131 123 112 143 118 134 174 181 169 165 150 164 152 153 175 186 192 183 205 183 170 176 181 175 167 159 149 141 129 144 138 145 174 182 188 184 170 164 180 193 183 181 160 161 159 159 171 193 193 191 182 185 202 207 207 186 180 164 168 158 142 136 133 145 118 80 86 70 118 153 172 154 119 141 115 91 72 54 70 79 119 134 141 210 246 202 186 163 152 163 129 148 113 92 78 114 124 146 177 168 160 168 164 137 150 160 162 164 183 200 201 207 215 186 194 179 163 162 142 141 117 132 146 172 195 205 206 184 180 177 179 181 187 158 162 157 150 148 155 180 182 162 183 192 188 189 201 189 181 155 157 147 139 137 133 132 137 91 106 71 141 161 151 159 127 112 104 87 66 64 75 87 103 116 140 191 255 207 188 143 145 150 113 121 110 93 99 119 163 174 163 184 198 173 149 169 138 145 151 149 158 187 196 193 204 165 159 132 153 150 141 134 122 113 141 154 176 197 201 180 172 180 158 169 156 129 120 128 132 135 155 162 172 169 176 181 187 166 155 144 152 123 143 151 148 146 137 136 131 105 109 83 148 166 153 154 117 106 94 76 57 82 89 98 65 95 131 158 219 172 168 142 147 136 110 102 97 77 103 140 161 156 136 148 151 148 134 140 111 98 93 100 113 141 155 160 140 123 122 98 140 138 139 108 90 103 131 140 154 188 199 168 141 148 139 152 125 113 88 91 118 121 129 146 162 171 173 182 168 133 129 158 133 106 140 156 159 153 151 144 144 100 109 101 139 157 153 158 128 121 75 88 34 108 123 115 54 103 132 165 192 190 151 131 134 124 103 106 81 79 96 113 120 109 107 99 95 97 94 75 75 63 79 88 102 112 114 136 81 103 100 103 135 116 125 85 68 87 122 123 125 143 174 167 127 120 112 107 76 67 53 43 81 107 107 120 142 144 149 144 141 120 131 145 139 111 129 146 151 159 159 131 137 110 123 127 155 159 154 140 126 140 74 87 44 126 153 116 60 89 126 144 179 200 152 137 122 105 105 100 83 92 73 78 101 71 71 57 63 60 57 55 41 36 60 57 91 91 102 111 75 90 100 112 118 104 106 79 55 58 92 96 110 117 136 150 116 100 96 97 77 53 57 43 43 75 78 91 119 144 142 131 135 130 132 148 139 117 102 121 136 146 138 143 127 120 122 158 152 162 157 153 132 126 86 86 62 109 136 124 89 85 91 130 162 200 170 126 106 106 106 95 103 89 56 55 69 47 51 53 42 63 65 69 61 56 61 45 50 60 82 82 63 54 86 128 109 114 88 77 62 64 79 97 113 110 116 128 123 88 66 77 84 60 65 76 65 77 90 108 118 121 130 125 145 146 124 119 119 98 103 97 112 126 123 131 133 124 118 165 138 155 177 179 160 131 117 88 84 92 147 97 95 111 98 134 141 179 187 129 100 95 101 101 110 83 59 50 53 50 73 67 60 66 64 51 51 54 67 35 53 71 84 79 68 69 105 124 127 133 112 104 90 70 76 97 126 115 120 119 135 113 69 73 84 86 88 93 93 89 106 118 132 128 131 134 130 128 105 91 86 68 87 78 95 117 111 142 132 116 126 144 150 177 191 186 190 134 118 76 85 98 140 84 98 97 97 143 153 159 210 136 102 94 104 104 115 108 72 71 68 64 82 70 73 71 65 69 68 67 59 57 66 82 75 70 79 114 129 128 141 123 126 113 96 79 95 96 112 122 115 106 105 117 89 62 74 93 102 92 105 111 109 127 128 134 123 120 117 116 96 87 70 72 76 78 92 105 104 143 137 131 135 134 156 164 176 194 187 125 108 89 81 99 148 113 116 112 99 125 130 128 218 143 98 102 109 116 119 126 87 87 86 72 76 68 68 80 88 88 83 80 68 88 76 75 67 83 119 138 141 149 139 117 127 109 83 85 94 105 104 125 123 121 121 114 97 66 72 101 105 98 124 129 113 104 122 113 115 110 106 97 93 82 70 76 81 75 99 110 117 151 143 143 142 140 148 144 172 175 166 129 107 111 89 104 124 121 130 125 96 104 119 103 182 163 90 109 108 115 114 119 107 99 102 92 82 77 79 100 96 90 83 73 81 100 94 71 96 120 133 138 156 159 153 134 147 114 92 94 98 108 108 118 120 122 126 130 102 78 87 98 116 101 109 134 117 108 106 110 106 109 107 99 89 80 88 85 88 98 107 117 117 138 155 151 144 139 127 129 164 150 166 144 117 133 112 99 116 106 132 109 76 90 137 106 160 179 100 113 102 98 105 99 109 97 113 110 99 97 88 96 90 93 95 87 80 86 89 106 122 115 141 153 161 151 149 154 140 122 114 110 107 121 115 123 120 121 114 132 107 94 99 99 114 98 99 120 134 132 120 123 117 115 113 107 102 94 96 93 88 105 105 124 127 142 154 147 147 120 103 120 149 102 146 146 127 136 125 88 96 77 127 68 43 74 136 139 149 213 106 113 113 105 101 110 97 97 94 109 99 101 103 110 97 88 74 73 84 94 123 104 110 116 154 155 172 146 143 133 128 113 109 104 98 121 117 125 119 121 105 115 123 108 111 112 98 101 94 113 133 141 129 127 134 126 129 132 115 101 100 104 100 115 117 130 127 145 166 150 146 127 80 126 134 76 135 151 131 141 129 63 81 61 127 64 11 53 111 123 159 190 130 110 106 109 114 125 109 100 100 112 121 109 111 110 92 77 81 87 98 100 104 96 112 138 142 163 149 136 123 130 137 117 105 107 104 115 102 108 104 114 107 104 117 119 107 103 101 99 102 104 118 132 131 135 129 133 124 127 116 116 121 109 110 116 109 129 130 146 165 164 147 120 84 126 115 71 137 141 132 151 123 73 70 72 101 78 42 31 127 105 144 190 131 110 120 108 107 120 124 128 133 141 144 140 128 117 104 98 107 112 113 115 116 118 147 163 171 171 148 123 124 124 128 117 119 125 117 104 105 99 101 106 104 105 100 124 120 106 93 97 109 114 114 101 117 127 124 128 131 133 123 130 131 122 125 122 131 130 131 143 166 156 135 105 86 117 101 85 142 136 136 149 128 108 76 95 91 111 108 39 109 103 141 152 131 125 104 119 107 109 126 128 137 136 142 148 144 118 97 103 108 108 112 108 116 137 161 167 156 148 119 110 113 111 116 107 116 116 114 96 95 96 100 103 108 113 105 106 107 103 102 98 92 102 117 119 114 119 128 138 142 137 136 137 133 125 123 130 133 127 141 138 179 146 111 100 93 103 83 89 147 130 134 158 141 132 104 109 121 113 144 75 105 130 150 155 113 116 109 111 121 106 118 129 123 135 138 143 138 118 109 98 102 99 104 107 126 142 156 149 141 128 104 102 101 96 97 85 95 99 117 111 91 95 101 116 122 114 111 114 89 94 97 101 96 89 108 116 127 128 125 140 142 137 133 129 136 120 116 140 137 130 153 150 179 129 101 95 102 97 74 102 133 119 141 165 142 156 131 105 119 91 132 122 83 137 137 172 129 107 100 96 102 119 118 130 126 138 140 135 127 118 104 104 111 106 96 100 118 133 132 131 107 94 86 88 82 80 79 69 74 85 91 96 94 96 109 120 121 120 126 129 108 101 94 107 108 100 107 107 126 123 127 136 135 123 123 125 127 127 125 142 144 134 164 160 157 102 84 105 112 112 81 102 122 114 160 152 128 162 152 110 111 80 106 113 94 135 139 163 150 116 97 85 98 107 120 133 116 127 137 130 120 102 91 87 88 82 86 82 104 115 108 90 68 75 61 63 62 65 58 55 69 83 88 90 91 98 103 110 108 98 122 129 112 93 77 90 89 103 100 109 115 120 122 129 129 131 124 133 130 126 127 151 151 155 154 142 129 85 116 101 127 119 82 111 107 114 165 137 139 160 166 116 96 74 82 88 87 135 158 139 152 137 113 83 83 99 118 124 130 130 133 129 112 98 87 83 85 81 79 80 100 106 99 83 67 69 57 53 56 58 45 59 75 98 98 82 72 82 89 103 103 94 108 130 115 100 85 71 91 99 108 113 114 118 119 125 124 118 118 117 127 107 109 138 148 137 156 137 121 110 126 125 117 112 96 114 85 124 161 137 151 147 170 113 87 67 70 77 68 110 159 126 144 133 118 99 93 100 112 111 125 137 141 134 126 104 97 93 84 84 83 84 102 105 107 96 90 62 49 55 64 64 47 55 79 90 90 82 63 61 78 89 99 106 94 112 113 107 88 78 99 111 123 129 137 135 127 141 144 139 130 126 132 121 119 126 129 137 136 145 134 124 137 118 109 109 99 98 101 124 135 138 170 153 157 115 83 53 59 71 68 87 147 135 133 135 128 99 94 102 106 103 111 130 127 128 128 120 117 113 111 107 106 108 117 116 114 106 105 86 62 67 67 67 49 50 61 64 69 56 61 54 67 78 95 96 89 98 108 111 88 83 114 116 125 137 153 159 144 146 154 139 136 129 121 117 115 126 132 140 132 141 130 128 133 95 98 100 101 97 120 123 122 153 178 163 156 131 74 38 28 62 67 78 123 122 131 131 129 107 98 108 109 108 111 126 125 121 124 117 120 123 119 119 125 129 136 130 120 111 133 125 89 80 74 60 44 56 46 57 58 60 56 44 67 71 75 86 82 90 107 104 95 87 103 124 127 136 150 162 149 153 155 146 132 139 126 114 119 129 120 117 131 132 126 132 120 89 99 96 100 110 125 115 117 178 184 155 152 125 82 37 9 25 68 87 118 111 113 126 127 113 94 105 106 101 105 108 118 112 120 110 116 121 120 122 123 118 121 114 122 117 128 135 104 83 88 67 48 66 65 66 70 61 55 49 70 69 64 82 82 91 111 107 96 88 93 120 131 132 147 152 149 153 150 148 136 141 133 128 131 136 117 112 117 118 117 113 119 98 90 74 111 115 117 103 134 180 178 154 147 114 87 60 8 10 33 80 117 115 110 100 125 108 105 99 96 95 98 100 112 102 113 97 103 110 118 122 117 105 86 91 109 118 124 123 106 88 91 94 66 62 77 72 68 60 53 54 63 62 68 72 83 91 101 103 101 87 77 94 111 128 139 148 137 146 150 144 121 129 123 130 133 134 111 108 113 106 117 104 107 97 65 75 120 112 110 90 152 173 174 155 139 106 93 64 14 21 28 70 101 90 120 101 119 111 106 101 91 92 96 96 109 101 105 94 101 105 118 118 109 89 78 78 98 98 113 114 98 84 89 100 86 66 65 64 60 59 58 59 74 69 67 78 71 82 79 81 95 91 82 85 103 117 134 141 132 132 131 129 126 126 126 138 133 127 111 113 107 104 105 87 88 78 64 78 119 103 94 105 157 177 170 166 134 117 100 83 25 38 7 75 110 75 106 133 134 115 91 105 100 93 94 100 105 100 98 95 99 100 110 110 91 87 91 103 95 97 102 101 88 70 88 86 80 74 66 70 58 54 62 69 76 89 84 84 81 82 79 67 82 97 91 84 105 111 131 121 112 118 122 120 125 129 129 136 133 123 113 114 103 90 85 78 64 61 60 90 111 95 82 123 162 167 167 171 135 121 124 102 33 33 0 69 103 98 104 115 134 120 99 101 97 93 96 105 100 105 100 102 105 103 105 105 84 83 102 106 92 77 87 92 79 68 81 72 72 73 71 80 66 61 66 74 88 96 101 100 101 107 101 89 77 96 100 92 106 108 124 121 98 99 109 114 119 128 125 125 127 125 118 115 102 71 70 58 74 62 78 108 115 94 81 127 151 174 163 164 144 135 141 131 73 32 3 61 94 123 132 115 120 95 88 100 103 99 98 107 116 112 102 120 117 110 111 110 101 108 96 93 92 83 88 89 80 66 77 80 64 69 73 90 90 81 77 84 91 97 124 130 132 141 138 110 98 103 104 116 113 106 117 123 103 99 102 115 119 128 120 123 127 134 115 110 94 60 63 65 78 80 94 116 124 89 99 119 154 177 161 154 150 141 141 149 102 69 17 54 93 118 134 123 117 87 75 93 106 116 103 116 123 119 113 128 119 118 117 113 115 116 102 92 108 88 79 87 92 80 86 74 69 62 75 85 97 94 92 105 107 110 136 160 156 165 154 131 124 112 123 126 121 109 109 111 111 102 107 115 125 126 123 126 131 137 111 96 102 56 75 71 90 81 94 117 124 85 89 128 156 168 164 138 146 144 140 142 132 87 52 42 124 116 122 111 111 94 88 83 122 126 111 119 115 124 122 129 127 126 129 126 111 124 117 97 90 81 65 76 85 89 80 88 87 80 80 88 91 105 111 117 126 136 140 154 170 165 151 142 139 124 128 126 113 101 108 101 109 103 110 121 132 126 128 128 133 135 107 88 96 60 82 78 99 98 106 118 108 78 86 128 155 161 165 119 146 148 144 143 140 108 86 60 119 144 133 108 91 94 91 77 116 131 117 128 123 114 114 117 134 135 139 139 131 128 119 107 93 74 64 69 70 80 82 96 107 97 82 84 86 86 109 104 120 126 127 135 154 156 143 137 143 139 128 118 114 96 101 96 100 108 106 127 129 135 131 141 136 129 109 92 94 77 85 81 110 113 105 119 73 90 95 130 148 153 153 126 140 146 140 155 145 130 104 89 139 162 143 108 85 115 98 90 109 134 124 137 134 111 104 115 115 136 145 126 118 116 116 119 112 80 66 74 82 91 99 92 123 119 114 105 79 72 94 95 99 109 97 111 130 140 130 128 125 121 121 105 98 97 100 104 99 99 104 129 126 131 124 147 138 124 106 97 89 80 85 95 112 112 94 87 74 104 107 130 142 132 134 140 145 142 146 159 150 142 129 111 146 176 140 99 81 111 111 97 113 132 137 130 139 116 101 111 108 122 131 108 94 87 87 88 96 81 85 80 87 85 104 90 117 116 118 104 83 64 89 65 81 80 74 89 91 99 95 99 97 100 103 103 95 105 116 113 107 98 106 122 134 126 133 145 138 123 100 108 89 84 96 107 107 106 88 78 85 98 118 119 133 123 110 148 140 135 142 157 158 151 128 142 144 186 146 97 81 99 109 97 98 124 140 136 134 110 108 96 111 117 114 100 101 93 77 84 86 94 110 117 102 81 90 94 109 107 109 109 82 49 47 29 48 63 55 62 57 69 69 68 80 89 100 116 120 112 125 127 114 102 108 110 129 111 129 133 138 117 94 117 95 95 108 106 104 105 71 67 103 96 116 118 112 114 106 152 137 142 146 145 158 157 144 140 146 176 156 93 87 94 112 90 101 114 135 138 137 106 106 105 116 129 140 136 129 130 117 112 111 124 135 151 143 119 102 109 116 84 71 82 76 43 50 22 53 66 59 61 49 61 61 55 67 89 106 128 121 108 118 118 120 107 126 125 109 106 124 133 135 118 99 131 104 109 103 103 90 90 62 74 95 102 118 107 101 110 107 133 145 147 141 146 160 165 152 140 140 171 160 102 106 88 112 88 97 109 130 140 135 107 104 112 119 140 160 146 130 143 141 128 122 142 144 168 153 158 123 102 108 98 67 67 55 41 53 23 40 54 50 45 49 54 58 66 73 91 113 102 109 107 123 116 118 115 122 125 105 105 120 131 134 115 123 140 127 114 104 87 80 82 57 91 85 116 106 94 91 102 110 127 138 145 133 145 152 170 151 136 149 161 175 111 109 97 108 100 87 98 127 137 122 108 102 118 114 144 161 153 139 139 147 146 145 161 164 181 146 146 143 116 122 109 70 68 55 46 41 32 46 64 56 49 60 62 77 82 84 98 107 103 107 110 117 115 120 108 116 111 105 118 123 136 135 116 132 148 130 116 100 84 75 71 68 93 90 109 100 87 97 86 113 132 126 131 135 134 145 159 129 136 154 169 171 130 126 111 110 104 90 105 123 124 117 99 95 112 126 146 144 166 164 152 154 147 142 148 151 174 164 180 159 156 149 139 108 115 98 85 92 76 77 72 61 62 78 86 87 82 91 95 93 76 88 99 115 112 105 96 98 105 112 123 131 142 128 128 137 142 130 97 86 81 70 66 98 85 88 96 103 77 90 86 90 137 130 122 132 137 144 122 103 127 126 172 159 158 128 127 102 118 107 106 115 121 111 99 99 123 117 129 129 149 152 147 144 126 110 106 124 124 124 150 148 137 138 134 133 122 102 97 112 91 103 90 87 82 92 94 95 90 93 94 84 74 90 110 113 111 97 114 108 107 113 123 134 142 126 140 145 138 115 88 81 90 85 87 89 83 103 87 97 80 78 83 79 117 125 126 126 134 109 90 95 113 112 152 164 159 146 135 112 130 121 116 98 119 112 96 107 105 114 112 113 123 127 124 120 113 92 79 84 84 73 94 96 120 111 126 115 107 96 98 93 100 102 104 111 115 125 120 101 115 127 114 115 109 108 115 116 120 105 120 116 117 123 133 137 138 141 137 149 132 100 65 93 85 87 82 78 93 97 85 88 78 76 76 69 103 120 125 131 114 69 81 77 104 115 135 143 161 165 150 145 135 139 122 107 117 113 109 110 110 106 107 101 103 103 106 100 101 82 67 77 77 78 83 80 102 107 100 101 102 107 103 115 120 112 98 119 135 134 125 116 128 121 116 130 118 107 118 121 123 117 116 122 120 136 145 144 140 149 131 141 118 75 75 85 80 80 84 79 96 83 79 76 71 77 72 61 109 119 126 125 80 73 77 75 108 116 133 122 152 160 154 147 128 139 132 120 119 128 128 126 123 124 120 115 110 93 105 113 92 81 68 70 71 76 64 65 62 65 73 77 68 91 78 109 97 71 71 84 87 100 88 97 101 101 108 114 112 112 108 110 119 118 113 118 131 148 144 150 144 150 129 134 95 57 89 82 75 80 85 99 90 82 69 65 75 70 66 53 116 128 134 94 87 81 63 72 99 141 146 82 125 161 158 143 118 130 132 127 124 128 127 124 130 129 136 121 116 106 103 121 115 95 87 94 85 70 64 61 59 59 50 50 54 71 68 88 86 85 77 82 84 88 93 86 80 92 102 100 106 107 97 96 114 112 106 126 135 148 152 139 151 144 137 128 73 60 82 70 67 81 96 92 91 84 74 60 67 64 65 48 131 149 116 80 86 67 63 77 119 169 137 73 113 155 161 140 111 130 120 129 119 124 127 130 130 130 138 130 114 112 103 111 124 121 110 109 109 93 93 83 76 75 65 55 55 65 62 64 72 86 96 98 104 109 114 100 92 95 97 103 104 108 96 101 107 106 117 129 134 148 149 139 157 132 137 112 64 88 76 75 67 78 91 87 102 80 69 70 55 60 55 64 158 145 105 82 93 90 79 94 147 195 155 87 115 160 162 126 105 119 111 116 127 110 124 125 127 127 130 124 118 99 102 108 122 127 114 104 107 103 105 98 95 82 76 61 56 71 60 48 57 65 82 98 102 105 112 104 94 92 91 104 104 107 111 106 108 112 121 126 130 143 144 142 142 129 117 85 78 101 86 76 79 72 67 84 105 79 73 63 59 46 58 59 155 140 107 90 112 139 91 120 186 229 176 81 117 166 150 109 104 114 105 106 122 123 107 121 116 123 120 112 110 100 92 106 115 117 102 107 98 89 95 89 95 93 91 78 79 77 77 63 58 64 77 90 96 114 107 110 103 104 96 109 102 102 116 114 105 114 120 122 134 134 138 142 137 123 114 71 105 100 100 90 90 83 51 68 82 85 76 66 57 52 51 48 133 138 114 95 138 151 108 140 197 222 161 101 123 144 153 106 101 115 107 108 116 129 116 110 120 123 116 117 116 109 102 97 101 105 93 105 98 92 93 84 74 76 73 75 78 80 66 61 68 67 82 93 103 110 107 112 109 106 110 102 101 107 112 108 108 115 115 118 132 132 135 142 136 96 108 84 120 101 119 102 111 91 69 51 70 77 77 77 59 51 51 40 140 147 130 98 147 150 111 156 206 193 190 134 129 124 140 129 91 120 118 116 108 122 125 104 116 128 108 120 113 112 113 104 112 109 103 100 96 94 87 87 71 71 67 68 70 64 68 64 71 81 89 102 103 99 109 108 107 99 105 110 109 111 99 112 112 109 107 114 128 130 136 130 130 86 99 117 116 109 138 138 118 80 82 63 47 65 82 79 68 55 51 44 158 159 128 102 151 149 132 157 191 203 216 144 121 109 109 133 113 125 123 133 107 120 124 102 111 128 124 118 117 110 113 108 120 107 101 111 101 88 96 81 67 68 61 63 62 65 77 83 87 98 112 115 119 111 125 118 113 108 108 117 111 114 110 117 113 104 104 106 132 133 125 138 93 81 100 123 125 115 144 163 134 92 89 81 53 50 84 74 77 73 56 46 167 158 122 114 145 157 141 165 187 209 185 153 121 107 93 107 135 131 134 137 119 128 127 110 109 115 130 129 112 112 102 100 113 116 109 117 107 103 93 81 75 70 79 72 72 81 93 102 105 116 121 126 128 127 137 130 114 107 99 113 115 129 115 110 103 95 95 114 130 133 134 130 98 61 104 129 141 116 151 178 155 100 93 98 75 48 71 76 84 82 73 61 174 150 124 126 135 156 156 145 177 182 174 155 135 111 86 87 127 149 150 144 124 129 131 115 111 112 121 135 124 118 109 106 109 107 110 121 120 112 111 99 90 97 100 102 100 104 107 114 121 129 131 137 136 139 142 128 111 106 103 117 118 120 111 101 90 96 107 103 121 128 138 122 95 70 86 138 136 135 168 180 165 109 99 104 91 72 68 76 88 97 85 80 171 145 126 133 127 149 148 109 158 164 170 158 142 114 91 64 114 147 164 156 153 134 130 126 112 109 111 125 124 125 121 119 119 115 111 113 124 126 122 118 107 111 111 117 119 129 126 130 130 135 136 142 144 137 142 132 106 109 109 123 115 108 96 93 95 98 106 96 108 135 139 123 80 69 108 137 134 146 176 194 176 136 120 116 101 88 82 72 85 99 103 98 165 144 141 121 113 135 114 90 131 166 164 169 138 121 85 43 113 140 166 170 166 152 129 130 117 100 104 118 121 122 121 119 130 133 121 117 119 122 131 133 138 126 128 143 137 153 146 142 152 145 139 147 142 132 133 116 108 120 116 122 113 93 88 96 93 100 85 94 115 129 138 116 76 61 110 147 150 147 193 188 194 162 141 144 119 107 86 79 74 84 96 99 168 141 153 115 113 118 95 69 130 153 168 175 154 99 76 40 85 119 157 184 170 168 151 130 109 96 95 113 115 113 114 114 114 126 129 132 138 139 148 151 161 162 167 169 165 165 162 162 172 177 164 152 149 136 125 119 118 117 114 104 91 82 91 93 91 76 88 110 125 122 113 110 72 84 97 125 151 163 200 184 198 166 140 147 124 112 96 87 72 80 89 87 155 141 140 114 105 100 72 60 138 141 178 188 153 76 80 44 43 109 139 173 171 171 158 140 103 86 96 105 113 106 108 110 114 125 133 141 143 148 156 162 170 167 177 182 180 176 168 174 173 176 162 150 149 135 119 123 116 110 99 89 85 78 89 85 78 79 95 121 131 118 105 88 72 105 98 107 121 176 202 182 187 169 137 137 126 111 97 87 86 78 93 87 136 134 141 113 92 80 50 74 152 124 186 198 121 99 76 29 44 90 138 154 166 164 157 149 119 90 92 105 112 105 116 105 114 119 130 129 131 142 143 156 165 162 167 175 184 184 176 178 170 159 160 141 139 133 122 118 110 97 87 86 82 80 80 84 83 97 104 125 141 114 101 66 70 104 91 117 116 160 199 179 166 173 141 132 134 117 103 79 84 87 90 85 98 96 117 66 51 60 47 72 135 116 199 176 130 106 61 16 39 90 123 135 146 165 160 149 141 112 91 94 104 103 114 111 117 107 103 110 113 118 121 129 134 140 146 154 157 171 168 162 159 145 147 133 126 118 113 108 97 84 80 82 74 80 77 80 96 111 113 128 132 112 101 42 64 110 77 120 144 136 193 179 156 170 149 143 143 123 112 86 77 91 92 89 29 24 49 27 14 19 35 77 122 122 204 193 147 75 51 0 30 93 109 112 129 145 161 139 151 138 118 106 95 99 107 112 114 102 101 99 88 93 103 110 106 117 109 116 118 131 130 128 128 119 113 115 110 111 94 99 81 82 79 79 64 74 83 104 114 125 137 129 116 100 87 35 70 106 82 100 109 128 170 183 152 176 169 152 143 136 131 110 84 100 99 91 17 13 24 0 24 10 50 105 125 124 234 195 137 74 29 1 19 88 114 94 120 129 143 136 140 151 144 125 108 98 96 102 103 93 94 86 76 72 74 79 82 85 76 80 85 85 89 84 87 82 84 91 93 90 77 79 78 83 86 69 66 82 96 125 125 146 145 126 99 85 72 54 78 93 94 116 110 78 126 155 163 186 192 184 149 145 161 141 118 118 131 123 20 38 51 23 52 44 72 142 114 153 245 209 117 81 38 11 26 66 98 100 98 108 125 125 127 136 139 146 125 119 99 94 100 88 83 83 75 69 58 59 60 54 59 57 57 58 55 62 62 71 77 74 79 75 88 92 102 88 75 79 81 104 124 141 143 146 135 116 87 76 46 68 93 106 104 123 118 84 44 87 164 189 195 194 171 155 173 161 137 124 128 132 53 62 52 49 59 77 119 153 114 183 222 190 110 62 61 35 32 59 78 97 91 91 119 111 114 124 128 128 143 135 124 116 106 96 78 78 78 74 66 60 55 55 59 58 61 58 59 69 75 80 91 84 98 104 117 119 98 83 93 97 99 128 152 155 138 138 117 102 73 82 57 55 99 118 119 136 120 63 51 32 91 178 191 201 189 160 162 176 154 140 144 148 100 101 84 95 97 99 102 132 125 146 174 181 112 54 99 65 31 46 61 73 82 86 94 109 125 113 101 116 120 138 138 135 131 121 115 100 92 87 78 71 69 74 71 72 83 81 88 91 96 104 109 107 115 127 126 107 102 106 107 113 115 153 167 153 141 130 96 103 78 92 73 61 89 129 119 129 111 52 62 28 37 95 174 201 197 161 157 167 175 158 155 159 121 93 79 86 76 83 99 131 127 88 160 156 122 76 89 96 46 49 50 59 63 89 86 93 104 126 98 97 107 127 138 143 143 136 127 117 109 102 93 84 87 87 83 87 89 96 100 111 106 114 120 121 126 126 115 122 123 120 125 129 140 164 163 146 137 115 96 106 94 88 88 61 77 129 128 110 83 54 71 29 34 62 120 145 183 160 154 159 176 166 155 154 