P2
92
112
255
32 33 33 32 33 33 33 34 32 33 36 34 34 33 32 33 35 34 35 37 36 36 34 34 33 28 24 22 21 19 18 19 15 12 14 15 14 12 14 11 10 11 8 7 9 8 7 3 4 5 7 10 13 13 17 18 22 23 30 32 31 32 34 34 32 33 31 32 34 36 35 35 34 30 30 29 31 30 32 33 34 34 35 38 39 39 39 39 39 39 38 38 32 33 33 32 33 33 32 33 33 34 34 34 34 34 32 32 34 36 36 35 34 32 30 28 27 23 19 19 17 14 14 11 12 11 13 13 12 8 8 9 8 6 11 6 5 8 6 0 2 2 1 6 10 9 12 13 17 21 23 28 27 29 32 33 33 32 34 33 34 35 36 34 34 34 31 28 29 29 29 32 31 34 33 34 36 39 40 39 38 39 39 39 33 33 33 32 32 33 32 33 34 35 35 34 34 31 30 32 34 36 35 33 32 29 26 25 22 19 17 15 12 12 12 11 11 12 12 14 12 10 12 15 11 9 9 8 7 8 6 5 5 6 4 6 8 9 9 9 13 15 17 20 25 28 30 30 31 32 35 33 35 35 35 35 33 32 34 31 29 29 30 29 30 31 31 32 34 36 38 39 39 38 39 38 32 34 32 32 33 32 32 34 36 35 36 33 32 31 31 34 35 35 35 30 30 29 27 23 18 16 13 10 11 12 12 10 8 12 15 20 18 18 22 20 19 14 15 15 16 13 14 16 15 12 9 11 7 10 9 8 14 16 17 17 20 23 27 28 27 31 32 33 34 35 35 36 35 36 35 35 33 30 30 29 29 29 28 30 33 34 36 38 38 38 38 39 34 33 32 31 32 33 33 34 36 35 35 31 33 34 34 36 35 33 34 30 30 28 23 20 16 15 13 12 13 11 14 14 16 17 25 23 21 25 30 23 25 21 20 27 24 17 20 22 23 16 14 15 12 9 9 13 19 19 16 17 20 21 21 23 22 25 30 31 34 34 36 37 36 38 39 37 34 34 31 29 29 28 30 29 31 32 33 35 39 38 37 39 34 33 32 32 32 33 34 34 34 33 33 32 35 35 33 32 32 30 29 29 28 26 21 20 18 16 15 15 16 17 17 21 22 21 26 25 29 29 33 31 30 28 27 31 31 27 28 29 27 25 22 19 15 15 15 17 20 20 22 18 21 22 18 22 21 20 22 25 32 31 33 35 36 38 39 38 36 35 34 32 29 28 28 29 30 31 31 34 37 39 37 38 33 32 32 34 33 32 34 35 35 32 32 35 35 33 30 29 26 29 30 28 29 25 23 22 19 19 20 22 23 22 21 23 22 25 29 29 32 32 34 34 34 33 34 38 38 35 34 36 33 29 27 25 22 20 19 19 20 23 24 23 24 25 23 21 22 22 19 24 26 28 28 29 33 36 39 38 36 37 35 34 30 29 27 28 29 30 31 32 35 37 39 38 33 31 32 33 35 33 33 33 32 33 34 34 33 30 24 24 25 28 29 27 27 27 27 25 22 23 26 28 29 28 25 30 33 33 37 35 34 37 38 39 36 36 40 46 43 40 39 39 39 38 35 32 30 26 25 23 24 25 26 28 27 28 25 26 29 24 20 22 24 27 25 26 25 30 36 39 37 38 36 34 33 29 28 28 29 30 31 30 31 34 38 39 32 33 34 33 33 33 33 31 32 35 33 31 26 24 23 25 27 26 24 24 23 27 27 27 29 30 30 34 37 38 37 38 38 38 40 41 40 44 43 43 41 43 47 47 46 47 45 44 43 42 41 37 35 32 32 32 32 30 30 33 31 30 31 31 29 27 25 21 23 25 28 27 25 29 33 38 39 38 39 36 35 32 29 28 28 29 31 31 29 31 34 38 32 33 34 34 32 32 32 32 34 35 29 27 23 22 26 28 26 26 26 25 28 29 30 33 36 38 42 43 44 44 43 45 42 41 46 46 46 47 46 47 47 48 47 51 47 51 51 50 51 46 47 42 43 38 38 41 40 39 38 40 36 37 35 34 32 30 30 29 27 24 24 28 25 28 29 35 37 38 38 37 38 34 32 28 26 27 29 30 29 30 33 34 33 34 34 32 31 32 32 34 34 31 28 24 26 26 26 27 24 28 27 25 30 33 35 38 40 43 49 53 49 48 49 49 47 50 51 52 50 49 48 50 52 50 48 53 54 54 55 56 55 50 52 49 46 42 43 46 45 42 42 45 47 45 45 41 37 34 36 34 29 28 23 27 28 27 27 32 35 36 39 37 39 36 35 30 27 28 28 28 30 30 31 33 34 33 32 33 32 33 34 36 34 32 27 28 25 25 23 27 26 28 26 30 37 39 42 43 51 51 51 55 54 56 56 55 55 56 54 55 51 50 52 50 50 52 55 58 58 59 58 56 57 55 56 56 52 50 45 47 48 47 49 48 52 54 49 49 44 40 39 38 33 30 26 24 26 30 28 27 31 33 36 35 37 37 35 33 28 27 28 28 29 29 30 31 36 36 33 32 33 35 35 36 34 32 31 28 26 29 27 29 30 27 30 32 39 40 46 52 59 57 56 59 59 62 61 60 60 59 58 56 56 54 57 53 53 57 62 60 62 61 60 60 60 60 59 58 54 51 50 51 51 49 52 51 54 55 53 56 53 47 44 43 39 35 32 27 21 25 27 25 30 30 34 35 32 36 36 33 32 28 28 29 28 29 30 31 34 33 34 33 34 35 37 37 35 33 33 28 31 32 31 32 32 32 35 38 41 48 54 61 57 59 60 63 59 64 63 63 60 60 60 59 58 58 58 58 58 59 61 62 62 60 65 64 64 64 61 57 55 55 52 54 54 51 53 55 55 55 56 57 58 57 53 52 44 42 36 30 27 24 24 25 24 28 31 32 30 34 35 35 33 32 28 28 28 28 28 31 33 33 35 35 37 39 39 39 36 39 35 34 35 32 35 33 34 33 40 44 47 55 59 59 57 57 60 61 61 63 61 62 60 59 62 61 58 57 58 60 59 58 58 62 62 62 62 62 63 62 62 62 58 59 57 57 56 54 56 58 58 59 60 60 59 60 57 56 52 46 40 38 30 29 25 28 23 24 26 26 29 31 36 36 34 33 29 27 28 28 27 31 34 33 35 38 41 42 42 37 39 37 34 35 33 33 38 36 34 36 46 47 49 57 60 55 59 59 58 62 62 62 61 60 58 57 58 56 54 54 56 56 56 58 58 58 57 59 60 61 61 60 61 62 60 59 58 58 57 56 57 57 59 59 58 62 60 62 60 57 55 52 44 39 37 34 30 32 25 22 23 23 25 26 30 36 35 34 30 29 27 29 28 27 35 34 37 40 43 44 42 42 40 39 37 35 34 35 37 38 40 43 51 49 54 59 58 56 62 60 58 63 61 59 59 57 55 54 53 50 49 52 52 50 53 53 56 55 51 59 58 58 61 61 61 62 59 58 55 55 55 55 56 55 58 57 58 64 59 59 60 59 58 56 50 43 38 38 37 34 30 27 24 25 24 27 26 34 35 38 31 30 30 28 29 28 35 34 37 42 44 45 45 43 41 44 36 38 36 40 46 44 45 50 50 52 57 59 56 58 60 59 64 61 60 56 57 54 50 50 48 46 48 48 45 46 51 47 51 50 49 52 55 56 57 59 58 61 58 58 56 52 53 51 53 53 54 58 53 61 58 54 57 59 58 56 53 49 45 42 39 41 35 31 31 29 28 26 26 31 32 35 35 31 31 30 27 30 34 34 39 43 44 43 46 44 46 46 39 41 46 47 48 43 51 54 53 62 58 59 56 62 59 60 61 55 55 54 52 50 46 45 46 44 45 44 42 42 45 46 44 46 48 50 52 54 56 56 56 58 56 54 54 50 51 50 47 47 48 51 49 55 55 52 54 56 55 54 54 49 51 48 40 42 41 35 34 33 30 26 28 32 30 31 33 32 31 31 29 30 33 35 40 45 45 47 47 47 51 49 48 48 51 50 49 49 53 58 57 66 56 60 60 63 60 59 58 56 54 49 48 46 44 43 44 42 41 39 41 39 38 43 41 43 45 45 47 48 51 50 51 50 51 51 49 46 45 45 43 42 44 44 46 48 49 50 52 52 51 53 53 51 47 54 46 40 43 37 35 34 33 31 27 30 30 30 31 32 32 33 32 30 36 37 41 47 48 47 46 55 61 60 57 52 52 53 56 56 58 64 65 65 60 63 65 62 58 56 56 54 49 46 47 43 42 41 40 40 37 37 38 37 37 38 39 39 40 41 41 41 45 43 43 44 47 45 45 45 42 39 39 37 38 38 42 42 45 46 48 46 47 48 49 50 48 51 53 46 41 41 36 38 34 38 29 31 30 30 31 32 32 33 35 30 38 41 45 50 47 41 56 66 67 66 60 58 61 62 67 63 64 67 66 64 62 62 64 58 56 54 53 48 46 46 43 42 40 39 38 38 37 37 36 36 35 35 36 36 37 37 37 39 40 41 39 40 43 40 38 40 36 36 36 34 35 37 35 36 40 41 42 44 45 43 44 48 47 52 55 54 46 43 43 39 34 36 35 30 30 28 30 33 33 34 36 35 38 42 45 47 43 47 65 71 74 71 65 62 64 69 71 69 67 67 62 62 62 60 60 58 58 55 50 47 46 44 42 41 41 38 38 38 37 36 35 33 34 34 34 34 35 35 35 36 37 38 37 38 37 36 36 35 33 31 30 29 28 30 28 30 33 36 37 39 41 41 42 46 49 50 53 54 54 45 46 44 37 38 34 34 33 27 26 28 35 33 35 36 41 43 46 46 49 54 67 74 78 73 65 64 67 71 69 71 65 62 58 61 60 57 61 58 58 53 48 48 46 44 42 41 40 38 37 37 36 35 34 32 32 33 33 33 33 34 35 35 35 34 34 33 33 32 33 32 30 27 26 25 24 24 24 25 25 28 32 36 36 39 40 43 50 48 52 54 55 50 48 46 42 38 36 37 35 29 25 25 34 32 34 37 41 43 47 49 55 60 77 83 84 75 67 66 72 73 70 68 58 57 61 60 56 56 58 56 56 49 48 47 45 44 44 41 40 38 37 36 36 35 33 32 32 31 32 31 31 31 30 30 32 33 33 31 28 31 30 28 28 25 26 25 24 21 21 22 22 23 28 28 35 37 37 41 45 47 51 53 56 57 50 51 47 35 39 38 40 31 26 25 31 34 34 37 44 46 49 60 58 70 82 87 82 73 65 70 73 72 69 62 56 60 59 55 53 54 53 52 49 48 49 45 43 43 43 41 41 38 37 36 36 37 34 33 32 32 31 30 30 29 29 29 31 32 33 31 29 29 29 28 26 25 24 23 22 20 18 20 19 20 22 24 27 34 38 38 43 46 49 52 56 62 57 55 55 41 38 38 45 37 28 22 31 36 37 37 45 49 55 59 65 75 81 87 82 73 72 73 76 74 67 62 61 61 55 52 53 54 54 51 48 48 48 45 44 44 42 41 40 38 35 35 36 36 35 34 33 32 32 32 32 31 31 29 31 32 31 30 29 28 27 27 25 25 22 20 20 18 17 16 16 18 19 20 22 28 33 37 47 49 51 49 55 60 63 60 55 49 45 39 44 41 33 25 30 38 39 39 44 53 53 54 70 74 85 88 83 78 78 75 74 72 65 59 62 60 55 53 52 53 51 51 50 48 46 43 43 43 42 39 39 37 35 35 36 36 35 34 33 33 32 33 32 33 33 29 31 30 28 29 29 26 25 24 23 21 19 19 18 18 15 14 14 14 16 15 19 23 29 36 45 49 53 53 58 58 64 64 59 54 50 50 45 46 36 29 32 38 40 48 47 51 51 59 71 80 89 89 87 84 81 74 76 71 67 62 61 60 58 56 54 54 52 52 50 46 46 43 41 42 40 38 38 36 36 34 34 35 34 34 33 32 32 33 33 33 32 30 29 29 28 27 25 24 23 21 19 18 18 18 17 15 14 14 12 12 15 14 15 19 24 31 40 49 53 61 61 62 65 68 63 63 54 50 51 48 37 31 34 44 45 56 51 50 46 62 73 83 90 94 92 87 80 76 82 71 68 61 60 62 62 60 57 55 53 50 46 44 45 43 40 38 38 36 37 36 35 32 31 33 33 33 33 32 32 32 32 33 31 29 28 28 26 25 22 21 20 19 17 16 15 15 13 13 13 14 13 13 14 14 14 17 21 26 36 46 52 62 62 66 69 69 69 69 64 53 54 50 46 33 36 47 49 57 50 45 47 60 78 92 92 98 95 88 82 81 85 69 66 61 64 64 64 60 56 55 50 49 45 43 42 38 34 33 33 33 33 31 31 31 29 29 29 30 31 31 32 32 33 31 31 29 28 25 24 21 20 19 18 18 16 14 14 13 12 12 10 12 11 11 12 13 13 14 19 24 30 43 49 59 65 68 71 75 76 73 68 64 59 56 53 39 39 48 58 56 47 42 43 61 83 91 98 99 96 89 82 84 80 65 63 65 65 63 61 57 54 53 48 45 41 39 35 34 30 29 29 29 29 30 29 29 28 28 29 29 29 29 30 31 32 32 31 29 27 24 22 19 18 17 16 15 14 12 12 12 10 10 8 8 8 8 8 11 13 13 16 23 28 35 47 54 62 70 70 78 81 80 77 73 70 60 53 48 41 52 60 56 46 42 43 65 84 96 102 98 94 92 79 75 71 67 64 65 63 59 55 54 52 49 43 41 38 34 33 31 29 28 28 27 28 27 29 28 29 29 26 27 26 28 28 29 30 30 28 26 24 22 21 18 17 15 15 14 13 11 10 10 10 9 6 5 4 5 5 7 10 12 14 20 24 30 43 49 59 67 72 77 83 84 85 79 73 67 60 52 46 58 61 59 43 41 47 65 83 96 95 98 92 83 77 73 71 69 63 62 60 56 52 51 49 45 42 40 36 32 31 29 28 27 27 26 27 27 27 27 26 26 25 24 25 25 26 27 28 27 25 24 24 24 22 21 17 16 15 14 12 10 9 8 9 8 6 4 3 4 3 4 6 10 14 16 21 28 39 46 57 69 75 78 84 89 91 89 75 76 67 56 54 64 60 62 42 42 49 63 81 91 88 97 86 79 78 72 72 67 62 58 58 54 53 50 48 43 41 37 32 30 30 28 27 28 27 26 25 25 24 23 24 22 21 21 23 23 23 23 24 26 24 23 24 22 22 20 17 14 13 12 10 9 8 7 6 6 5 4 2 2 1 2 4 6 10 16 19 26 34 47 57 69 77 78 86 93 94 94 83 75 73 62 60 67 62 68 42 45 54 67 83 89 89 99 92 80 80 74 70 65 61 59 54 53 50 47 47 43 37 34 32 31 28 26 24 23 22 20 19 19 19 19 21 20 19 19 20 20 22 20 22 22 22 22 22 21 21 18 15 13 11 9 8 7 5 5 3 4 3 2 2 2 0 0 2 5 9 12 20 23 30 44 54 67 76 81 85 96 100 96 92 77 75 73 65 66 66 69 46 47 63 69 85 86 93 95 89 83 79 71 66 65 60 58 54 56 49 47 44 40 37 34 32 29 27 24 26 21 18 19 17 21 21 20 21 21 19 18 19 19 21 20 20 21 20 19 20 20 19 17 14 12 10 9 7 5 4 2 3 3 3 1 0 1 1 0 1 4 10 10 18 25 30 38 51 65 75 83 82 97 101 93 95 88 82 78 71 71 67 64 50 51 68 75 84 86 95 90 91 84 78 70 65 61 59 55 53 51 50 50 43 37 37 34 30 28 27 30 30 28 21 16 15 14 15 15 15 16 18 16 17 18 20 20 20 19 19 18 19 20 18 17 15 13 10 7 6 4 4 3 3 2 3 1 1 0 1 0 0 3 8 10 15 24 31 36 46 59 72 78 86 96 98 92 95 94 88 83 77 76 69 60 52 58 65 79 84 88 99 91 92 83 78 64 62 63 60 59 56 54 55 52 42 39 38 34 28 27 27 26 29 29 23 19 14 13 14 13 13 13 14 14 16 17 18 19 19 19 21 19 20 18 17 16 14 12 9 7 5 5 4 4 3 2 2 1 1 1 1 0 1 4 7 10 13 20 28 38 45 59 67 73 86 94 100 93 91 95 94 88 79 76 73 60 53 53 66 77 82 91 96 91 93 85 70 65 67 68 62 59 55 54 55 48 41 38 37 32 26 26 23 26 26 27 22 16 15 15 14 13 13 13 14 15 15 18 19 19 19 20 21 20 19 18 16 16 13 10 9 7 5 6 4 2 2 2 2 2 1 0 2 2 3 5 6 11 12 18 24 35 47 57 71 77 84 90 97 97 88 91 96 88 81 79 70 63 52 54 65 74 74 89 91 95 90 76 77 71 70 68 61 59 56 55 54 45 41 38 34 31 25 25 23 24 22 24 16 13 13 12 12 12 12 14 15 17 17 19 21 21 21 21 22 21 20 18 17 16 13 10 8 7 5 6 5 4 2 4 3 3 3 2 3 2 4 7 8 10 16 18 24 29 44 54 67 79 91 93 92 98 93 90 93 87 83 82 67 59 52 55 69 66 79 90 90 97 81 84 83 72 72 73 62 62 59 58 54 47 46 43 39 33 31 28 25 23 24 23 18 17 16 17 17 15 16 17 17 18 21 22 24 24 24 25 23 22 19 17 16 14 12 9 7 7 5 7 6 6 5 8 5 5 6 8 8 7 8 7 9 11 17 19 24 28 38 57 66 75 89 99 96 98 89 93 97 80 83 76 69 55 54 57 72 72 89 89 102 91 81 99 83 71 71 71 60 59 59 57 49 46 42 38 35 32 30 29 28 25 23 24 22 20 19 21 20 19 19 19 20 20 23 26 30 27 29 32 26 21 19 18 16 14 11 9 8 8 10 11 8 10 15 16 13 9 11 10 11 11 12 7 7 9 16 18 22 30 34 55 65 70 83 97 91 99 93 91 95 85 73 64 67 55 58 67 75 84 94 82 105 92 92 111 80 68 68 68 60 60 60 58 50 47 42 37 34 32 29 30 29 27 26 26 25 23 22 26 25 25 26 27 27 27 29 30 34 34 36 39 36 25 23 22 19 18 17 15 14 14 16 15 14 16 21 21 16 16 18 16 15 15 13 10 9 12 15 18 20 29 32 46 64 70 80 94 83 91 95 99 91 80 71 54 70 56 68 76 74 87 91 82 106 94 99 112 80 67 67 68 64 59 60 56 47 45 42 41 36 34 34 36 34 34 33 33 34 33 28 29 30 29 31 33 37 32 31 34 34 34 36 34 31 29 26 25 24 24 24 22 23 23 24 24 22 25 26 28 25 24 25 25 23 23 18 18 16 17 18 20 20 24 25 39 58 70 78 91 88 85 89 109 96 76 76 52 70 57 73 86 81 87 97 94 109 97 110 111 86 69 66 68 63 59 57 51 48 48 44 43 40 39 40 38 42 40 40 40 39 39 37 34 34 32 34 37 41 39 38 35 35 37 36 37 33 30 30 28 28 31 30 30 28 29 28 31 30 32 33 33 36 35 34 31 26 25 23 22 24 20 18 21 22 27 29 32 56 69 78 86 91 78 88 103 104 74 78 51 60 54 73 95 90 88 98 100 109 100 107 107 92 64 69 67 62 62 54 52 53 50 50 47 46 48 47 44 44 46 45 45 43 42 41 39 38 33 38 41 43 42 41 37 37 40 40 39 35 32 33 32 31 32 35 34 35 36 36 36 39 40 40 38 41 40 40 37 33 28 28 29 28 25 22 19 22 27 31 34 54 70 80 91 94 85 82 105 104 82 73 51 52 55 67 96 93 95 101 99 111 99 100 103 94 67 69 72 68 68 56 54 58 56 56 54 53 52 47 45 45 45 47 45 44 43 40 40 36 35 37 43 42 41 43 42 42 44 43 43 40 36 34 33 33 35 36 37 36 41 40 42 42 41 41 43 43 43 42 39 37 33 32 30 26 28 25 21 20 24 31 33 47 66 80 92 92 93 84 104 107 84 73 47 48 60 72 92 100 96 103 105 109 98 99 100 97 74 70 71 72 70 65 64 65 64 61 59 58 54 49 47 49 47 48 45 43 42 42 41 39 39 47 49 49 47 45 48 46 47 46 43 42 37 35 33 36 37 39 40 40 42 43 46 45 42 46 44 44 42 43 41 41 38 35 32 29 29 28 26 24 22 25 33 45 62 70 87 94 93 88 94 94 79 73 52 47 59 77 90 103 102 95 102 105 95 101 100 99 79 70 74 78 72 68 69 69 66 62 58 58 55 52 51 51 51 48 48 45 45 47 48 42 46 52 58 58 59 53 55 52 48 48 45 44 39 34 34 38 43 41 42 44 43 45 44 43 44 45 43 37 37 38 40 36 37 37 37 35 33 30 30 28 27 26 33 42 56 64 75 85 85 81 83 92 74 62 55 47 56 79 88 110 104 97 97 100 91 106 103 102 84 72 75 77 72 67 66 65 62 55 55 57 56 56 58 51 55 52 52 49 49 49 50 50 57 60 63 63 61 59 56 53 49 48 44 43 40 35 36 36 46 43 42 43 42 42 41 41 42 43 42 40 37 35 37 39 33 38 38 38 36 34 33 32 33 28 30 38 54 63 74 83 77 74 74 83 65 45 51 49 57 75 85 105 106 99 94 97 92 115 105 100 87 78 76 76 74 69 67 63 64 57 61 64 65 64 68 63 60 56 58 56 53 53 54 56 61 62 64 63 63 62 57 55 50 50 46 41 37 38 37 38 44 48 45 44 43 44 43 43 39 41 43 42 43 36 35 37 40 42 42 44 41 36 34 32 37 32 29 36 51 63 75 76 72 69 70 72 54 48 48 48 60 74 84 103 108 102 96 92 96 109 109 99 85 81 74 71 74 68 66 65 67 62 67 70 74 72 69 67 65 61 62 63 60 57 55 58 62 62 62 65 63 61 55 53 51 46 42 37 36 37 39 42 42 46 47 46 42 44 45 46 46 45 47 49 50 45 40 40 45 50 49 49 45 39 37 33 37 31 29 37 43 60 70 84 74 62 67 60 47 48 52 48 60 80 86 97 106 112 106 99 95 100 108 102 89 78 76 70 73 67 65 70 72 69 71 74 76 73 73 69 67 68 69 66 60 58 58 62 61 65 63 64 62 57 51 51 50 45 41 38 34 33 37 42 44 46 46 49 47 47 48 47 47 45 48 49 51 49 48 47 44 50 52 49 50 41 37 33 31 28 25 32 38 57 73 85 70 50 52 49 44 42 51 50 55 85 91 93 107 109 112 103 94 97 99 103 90 79 78 68 69 67 65 68 71 69 71 76 79 74 74 75 71 70 71 71 68 65 66 66 65 66 69 67 65 61 53 54 51 43 40 38 34 33 38 40 44 41 44 46 50 49 49 44 43 47 50 49 55 55 53 54 48 46 48 46 47 41 33 32 29 24 23 27 39 50 69 76 68 47 47 47 43 30 48 51 46 84 95 94 108 108 110 104 93 96 93 99 92 82 77 69 66 67 67 68 68 67 68 72 76 74 71 71 70 67 67 69 70 69 68 65 65 66 69 63 59 60 60 53 49 43 40 39 37 34 34 38 41 39 39 45 48 48 47 48 45 45 51 52 55 57 55 54 50 44 42 41 42 37 32 30 28 23 20 21 36 47 56 69 65 49 48 55 43 37 45 54 44 85 86 92 103 106 106 101 90 92 89 92 95 84 74 69 62 62 63 64 63 63 62 66 68 67 69 67 66 63 61 63 64 64 61 61 59 61 61 58 54 56 53 47 42 41 39 38 37 34 31 34 34 40 37 40 43 46 46 49 45 43 46 50 54 58 56 51 45 39 38 37 36 34 30 29 27 21 18 15 30 43 46 57 53 46 51 63 45 46 53 55 43 82 73 89 93 98 99 94 92 87 82 89 83 79 70 64 60 60 59 59 63 60 61 63 64 62 61 59 57 53 56 57 59 60 57 57 54 56 53 52 49 53 48 39 36 37 38 35 35 33 31 27 31 36 37 38 39 44 46 47 46 45 44 44 48 51 50 45 43 39 35 32 33 30 27 26 24 19 16 13 26 38 42 53 51 47 57 63 44 46 53 50 42 79 70 88 88 93 93 90 89 85 78 85 81 72 65 61 58 58 57 56 58 57 57 59 59 58 57 54 52 48 51 50 52 51 52 52 53 50 46 45 44 41 38 34 35 33 34 34 33 27 27 24 26 31 33 32 30 33 40 40 43 44 42 41 43 44 43 42 38 36 32 29 28 27 25 22 21 18 16 13 23 35 38 54 53 42 64 53 44 39 52 43 41 73 67 82 86 91 86 79 85 81 81 78 75 74 66 63 59 58 58 56 55 55 54 56 57 55 54 52 50 49 48 46 47 44 45 47 48 45 37 38 41 37 37 34 33 31 31 31 31 27 25 23 25 27 29 31 27 26 33 33 36 37 39 36 36 36 35 35 33 31 28 27 26 25 24 20 20 18 19 11 22 34 37 45 41 50 54 49 49 38 49 40 39 66 65 73 84 87 79 75 77 78 81 80 71 68 66 61 62 57 58 56 53 53 53 53 55 52 52 50 50 47 44 42 40 41 42 41 38 36 32 38 40 37 38 37 34 32 30 28 28 24 24 21 21 21 21 21 21 21 25 25 29 31 33 31 31 30 30 29 28 26 26 25 25 23 23 21 18 16 18 12 21 32 29 29 38 54 38 45 50 39 46 41 41 62 63 67 79 88 77 70 70 77 78 79 74 68 64 61 60 56 57 54 53 54 54 54 55 52 49 46 45 43 42 40 39 41 40 35 33 33 36 37 39 40 37 37 34 31 29 24 25 24 23 21 18 18 17 18 15 18 22 23 22 27 28 27 27 26 26 24 25 24 24 24 23 23 21 20 17 15 18 12 19 22 24 28 37 30 35 45 43 39 43 45 43 61 64 63 73 85 79 71 68 74 80 73 70 68 61 60 60 56 55 53 53 52 51 51 52 49 45 42 41 41 40 40 40 40 39 34 34 34 38 40 39 39 37 38 36 30 27 25 23 25 22 19 17 18 17 18 17 18 23 24 22 23 23 25 25 24 24 22 24 23 24 22 20 19 18 19 15 16 16 14 14 24 27 29 29 27 29 43 34 42 41 49 43 59 61 63 65 79 78 70 68 69 78 73 66 63 61 58 57 57 53 52 48 49 46 47 48 48 46 43 40 40 39 39 39 38 35 33 35 35 38 40 37 38 39 40 37 34 28 26 24 24 21 18 17 17 16 15 17 19 24 25 24 21 21 21 22 22 22 21 23 21 20 20 20 17 19 18 17 17 17 16 13 30 31 28 28 28 30 32 32 42 40 47 41 54 60 57 61 70 73 68 69 71 73 68 65 61 60 58 56 57 54 51 49 48 46 45 46 45 44 44 43 42 40 40 38 36 35 35 35 37 40 38 38 39 41 42 38 33 30 27 26 24 21 19 19 19 17 15 16 19 22 25 23 25 23 22 22 22 22 21 22 21 19 18 18 17 19 17 18 17 17 15 18 31 30 29 26 32 29 27 31 44 41 45 39 56 58 59 60 60 70 63 67 66 68 63 61 59 60 60 59 55 53 50 47 44 44 43 44 43 42 42 43 41 41 40 38 37 35 35 37 39 39 37 37 35 41 43 37 31 31 29 26 26 22 21 24 22 21 17 16 18 20 23 22 23 23 23 24 22 21 21 20 19 19 16 18 18 18 17 19 18 16 14 20 30 32 31 34 32 28 27 32 45 47 46 41 54 58 64 63 60 63 60 63 64 61 61 54 57 59 59 57 54 52 50 46 43 43 42 42 42 40 41 41 40 40 39 35 36 35 35 38 40 40 38 39 39 39 38 36 34 35 32 28 27 24 25 25 24 22 22 19 20 22 22 24 24 24 23 24 24 23 21 20 18 16 14 16 16 17 15 17 16 14 16 21 31 33 36 36 35 26 27 31 47 54 46 39 49 54 68 67 66 63 57 59 62 59 62 53 54 57 58 56 54 52 50 47 45 43 40 41 40 38 40 39 39 39 38 36 36 37 38 40 40 40 40 41 41 37 35 34 34 37 32 28 28 26 27 25 22 21 27 27 26 26 25 25 23 23 24 26 24 24 24 23 20 17 16 17 18 18 15 16 18 14 15 24 29 35 38 36 35 25 29 35 53 53 45 39 48 51 65 69 69 57 55 51 54 59 59 53 54 58 58 54 53 50 48 46 43 42 41 41 40 38 40 40 41 39 37 37 37 40 42 41 41 41 41 42 40 38 36 38 39 35 33 29 27 24 28 28 25 24 28 31 31 30 28 26 24 23 25 25 25 23 25 22 20 18 17 17 18 16 15 17 16 16 15 23 29 31 42 36 26 31 32 40 54 49 45 41 51 51 66 70 73 60 56 52 50 55 57 55 52 57 57 54 52 49 48 45 44 42 42 42 42 40 40 41 40 38 36 38 41 42 45 40 40 40 42 44 43 41 39 39 38 36 34 32 30 26 29 31 31 30 32 34 35 34 32 29 27 25 25 26 27 25 25 24 22 20 19 18 18 16 15 16 15 16 18 24 27 32 36 27 21 37 36 45 53 47 43 43 56 51 70 67 73 67 52 54 49 51 55 56 53 54 55 52 50 47 46 45 43 43 45 46 44 42 40 40 40 39 39 40 44 43 43 39 40 41 44 46 46 44 40 39 36 36 35 34 32 30 29 32 31 32 32 31 34 33 33 33 33 29 26 26 27 29 28 28 27 24 21 20 18 17 17 18 14 16 19 25 24 30 34 23 26 41 39 50 50 45 45 45 56 56 68 65 70 70 50 50 53 53 52 51 52 53 55 51 49 45 45 45 44 45 45 46 43 41 42 41 38 37 37 40 39 41 39 39 38 40 43 43 46 46 42 41 38 35 35 33 32 32 30 30 29 28 28 27 27 28 29 30 29 29 28 27 28 29 29 31 28 25 23 21 19 19 19 19 15 14 19 24 23 28 31 25 28 39 45 59 48 45 46 48 53 63 64 66 70 73 59 43 49 57 53 45 50 51 54 51 47 45 44 44 44 44 42 42 40 40 41 41 36 38 38 41 40 39 37 35 38 38 38 39 42 45 45 42 38 36 35 32 30 31 29 26 24 24 25 24 24 25 28 30 31 29 29 28 28 29 30 29 28 26 25 21 19 19 18 17 17 15 18 24 23 25 25 23 27 33 46 55 48 44 46 48 53 67 65 61 72 77 65 51 42 51 53 43 47 49 52 51 46 44 44 43 42 42 40 40 38 38 37 37 36 37 38 40 40 36 33 32 35 36 35 38 40 45 43 39 37 36 32 30 29 29 31 26 22 21 23 23 24 26 25 26 28 28 30 28 26 26 27 26 25 25 22 21 19 17 18 17 16 15 16 23 22 27 20 24 26 33 46 51 51 44 45 47 47 61 65 60 70 79 74 65 55 51 50 41 46 51 51 50 48 45 44 43 41 42 39 38 36 36 35 34 36 37 38 35 35 33 30 30 32 32 37 41 41 42 41 38 34 29 28 28 26 29 33 31 27 23 23 24 27 28 25 25 27 28 29 28 26 26 27 25 22 22 20 19 18 17 17 15 14 13 14 17 21 25 22 25 25 39 56 52 50 45 45 47 48 47 59 54 67 79 79 73 66 57 52 43 44 48 52 53 48 46 44 43 41 41 38 35 32 34 33 33 35 35 33 30 32 31 31 30 29 32 37 41 38 40 41 35 32 26 26 26 27 29 31 31 26 22 22 23 26 28 27 27 28 27 30 29 29 27 28 26 21 20 20 18 17 17 16 14 13 11 16 16 22 24 27 30 29 49 67 53 49 43 44 48 49 46 53 54 64 78 85 77 68 63 56 51 46 47 52 52 50 48 45 42 40 37 35 32 31 33 33 34 33 32 31 31 32 30 30 26 27 27 30 34 31 30 31 30 27 23 25 22 22 24 24 24 20 20 22 22 23 26 27 28 27 28 29 31 29 29 28 27 21 19 19 19 16 17 16 13 11 12 17 20 21 25 38 38 41 62 68 49 45 44 45 52 47 48 49 54 58 74 85 82 70 65 60 53 54 49 51 52 52 49 44 42 38 34 32 30 32 32 34 34 32 31 30 31 32 30 27 25 25 25 24 24 20 20 21 20 19 20 23 23 23 23 20 20 17 19 22 20 23 25 26 27 26 27 29 30 30 28 28 27 24 19 19 18 16 16 14 13 13 14 19 21 23 28 45 43 53 72 64 49 44 43 45 54 44 48 51 54 53 72 83 85 77 70 65 58 56 50 55 52 52 49 43 41 38 36 33 31 32 32 34 33 30 31 30 30 30 31 29 26 27 24 23 22 17 19 19 21 21 22 23 23 23 22 19 18 19 21 22 23 22 24 24 24 24 27 28 30 30 29 28 28 24 22 20 19 17 16 12 13 12 15 22 24 27 31 50 51 61 73 59 57 45 44 46 52 43 46 53 56 54 69 84 84 81 81 71 64 58 55 57 55 52 50 43 42 38 36 35 33 32 32 35 33 32 31 31 32 33 34 31 28 27 26 26 25 21 19 18 20 21 19 19 20 19 19 17 18 19 21 24 25 23 22 24 22 22 23 27 27 29 31 27 29 25 23 19 20 19 15 11 13 11 18 26 27 32 39 51 60 65 71 58 56 46 48 50 53 46 47 53 57 58 67 79 85 82 81 79 71 65 56 58 53 55 51 45 42 39 37 36 33 32 34 37 32 30 29 34 31 34 36 33 29 29 30 31 28 25 25 23 23 23 19 18 18 17 17 18 17 19 21 23 24 23 23 23 22 22 22 27 27 30 30 28 30 26 24 21 21 19 14 12 12 13 24 28 31 38 47 58 68 71 71 61 54 44 50 54 56 49 48 50 55 60 65 78 87 84 79 81 76 71 62 59 55 55 52 46 43 39 37 36 34 34 36 36 34 33 32 38 34 33 34 33 31 30 31 31 30 27 29 28 28 27 24 22 22 19 21 21 20 24 25 27 24 23 23 23 23 24 23 27 30 31 32 31 30 26 24 23 22 19 15 14 15 16 31 31 39 45 58 65 71 76 66 64 52 47 50 54 55 50 51 50 57 59 63 81 89 86 82 83 75 70 62 59 54 56 53 48 43 41 40 38 37 38 39 37 37 40 40 42 39 37 37 35 37 33 33 34 32 30 31 28 27 31 30 27 25 24 24 25 24 27 27 29 26 25 26 27 27 26 27 30 31 33 34 34 33 28 24 24 22 19 15 16 19 22 34 34 44 50 60 65 74 72 64 65 50 47 53 54 53 51 50 52 56 58 61 80 90 89 83 83 78 69 61 57 56 57 55 51 45 44 42 42 41 41 42 40 41 43 43 42 42 39 39 37 39 39 39 41 40 38 36 35 33 34 33 33 33 31 34 34 31 34 29 29 27 28 26 27 27 25 27 31 31 33 34 37 35 33 27 24 22 18 16 20 23 29 38 35 47 52 59 71 74 70 65 59 52 48 51 55 53 50 53 53 54 58 61 77 90 91 89 85 83 75 64 58 58 58 57 51 48 47 46 45 44 45 47 47 48 48 46 47 45 43 38 40 39 43 40 43 42 40 40 35 34 35 33 36 36 32 34 36 34 31 28 28 26 24 24 25 25 26 29 31 30 33 35 36 37 32 29 25 23 20 16 22 25 33 41 40 52 56 68 72 76 66 64 54 55 48 51 54 55 50 52 53 54 58 62 73 85 96 93 91 86 82 69 57 60 59 58 52 49 48 49 47 46 46 49 51 51 50 50 48 48 45 42 42 39 41 41 38 36 35 35 33 32 33 31 33 33 30 31 34 31 33 29 27 27 23 23 26 25 26 31 32 32 35 37 34 34 32 28 25 23 19 18 26 29 37 40 47 50 58 72 77 75 67 61 50 54 54 49 52 56 51 50 49 53 59 61 66 88 98 100 93 88 86 72 60 56 61 59 51 50 51 50 49 48 48 50 51 50 46 45 45 42 43 42 42 39 39 38 39 37 38 36 38 36 40 37 38 37 35 35 36 36 35 32 29 30 27 24 26 27 28 32 32 32 32 33 31 30 29 28 23 23 19 19 27 29 37 42 50 52 58 70 74 69 67 58 50 56 56 50 51 55 51 49 48 55 60 58 78 91 93 100 98 91 86 74 63 56 59 60 55 49 51 51 49 48 47 49 49 47 42 40 37 37 37 36 34 32 30 31 32 33 31 31 31 32 34 36 37 38 35 36 36 37 38 34 32 32 30 28 28 28 29 29 29 29 29 30 29 28 25 26 24 21 19 22 25 27 38 46 50 51 62 69 70 67 64 56 53 58 58 51 52 54 52 52 52 56 57 73 85 87 88 99 101 91 88 75 63 54 57 58 57 53 50 52 51 49 47 47 49 47 45 42 41 39 37 35 31 31 29 31 32 31 30 29 28 25 27 28 29 29 32 33 33 33 31 32 32 31 30 29 29 28 30 29 29 29 27 28 28 26 24 23 22 20 19 24 25 31 45 46 51 52 64 70 71 68 59 56 57 58 60 55 53 55 53 53 55 53 68 87 81 83 85 97 102 94 89 75 65 55 56 56 57 54 50 53 52 50 48 49 47 47 47 45 42 41 38 34 34 32 29 32 30 29 30 27 27 25 25 26 25 26 27 28 26 29 30 31 29 30 27 27 28 28 28 30 29 27 26 25 26 24 21 23 21 18 20 26 24 37 43 45 52 52 66 69 70 66 56 58 60 61 62 60 54 55 56 55 53 63 85 87 80 80 83 91 100 98 89 79 69 59 58 57 56 54 52 52 51 50 50 48 45 44 43 44 39 37 36 33 33 31 28 29 28 24 24 23 25 25 26 31 25 26 27 26 26 26 27 28 27 28 27 27 28 30 29 29 29 26 24 24 24 23 21 22 21 18 22 27 25 44 41 48 49 55 70 70 67 65 54 61 60 64 62 66 58 57 60 54 58 83 93 87 81 82 84 91 99 99 92 87 74 65 64 62 56 55 52 53 52 52 51 47 47 45 41 42 40 38 35 31 31 29 28 28 27 23 23 20 21 24 24 29 27 29 28 28 27 29 28 27 27 27 30 29 31 30 28 27 27 26 23 22 23 22 22 23 22 19 24 30 33 44 40 53 51 58 74 72 65 60 57 63 64 63 62 69 63 61 60 56 78 95 95 89 84 88 90 87 102 105 99 90 82 73 69 62 58 56 50 54 54 52 54 48 47 46 43 44 45 43 39 34 33 31 29 26 24 22 21 20 20 21 22 24 25 26 25 23 25 25 25 25 27 27 30 29 30 28 26 28 26 25 24 21 24 23 21 23 21 21 28 31 38 41 47 53 54 64 73 77 69 62 62 65 63 62 61 68 66 65 61 75 93 99 98 92 92 92 90 88 102 111 101 100 95 78 72 64 61 55 49 54 57 53 53 52 47 47 45 47 46 47 44 39 37 34 32 28 26 23 23 21 20 19 19 20 20 21 21 21 22 24 23 24 27 28 28 28 27 24 27 26 25 24 24 23 23 24 22 25 22 23 30 31 41 40 57 67 66 70 69 77 79 69 63 68 65 63 61 63 66 67 78 90 100 104 102 95 96 96 95 96 103 113 110 111 101 81 73 67 60 56 51 52 56 55 53 52 51 49 48 48 48 48 45 41 41 36 31 30 29 27 25 24 24 22 21 22 24 23 23 24 24 23 24 26 28 28 26 26 26 24 26 26 25 23 22 22 22 23 24 24 25 27 29 36 40 49 68 77 77 80 73 79 93 85 71 77 77 71 64 66 63 65 107 106 116 119 116 105 107 107 111 107 107 119 120 114 103 88 79 68 63 56 52 49 54 57 52 51 51 53 51 51 51 48 44 43 40 38 34 32 32 29 29 27 28 28 28 27 26 27 25 26 25 26 27 27 27 25 24 25 23 25 24 25 24 21 21 22 23 23 25 26 26 32 29 37 46 60 81 90 99 95 91 98 107 115 98 96 94 93 83 82 77 73 115 115 126 129 122 116 116 123 121 123 118 126 124 117 107 96 87 73 65 58 54 49 51 53 52 52 52 52 53 51 51 50 47 46 41 37 35 33 34 32 31 31 31 31 32 31 33 31 30 30 28 29 29 28 28 25 26 24 25 24 24 23 21 20 20 21 23 24 27 27 25 36 36 37 55 69 88 101 111 101 96 110 114 124 129 115 111 111 108 104 100 96 139 146 152 154 147 142 142 146 142 143 130 135 125 120 111 103 94 77 67 59 53 49 48 49 51 54 52 51 53 51 50 51 50 46 44 41 38 36 33 32 31 32 33 32 34 33 34 33 32 30 29 30 29 29 29 27 25 27 26 25 24 23 21 20 18 19 22 26 28 29 28 35 45 44 64 74 97 109 112 107 103 121 117 127 136 136 118 115 115 112 108 107 153 157 160 161 154 160 164 163 160 162 152 140 134 126 119 109 101 84 70 59 54 50 49 46 49 50 49 50 50 51 49 48 48 45 44 44 43 40 37 35 35 33 35 32 33 34 33 34 33 32 30 32 31 31 31 30 29 29 27 24 24 23 21 21 18 20 23 28 31 31 31 36 53 57 70 85 107 115 108 114 110 128 123 130 137 146 135 120 120 119 116 112 164 162 166 163 158 174 168 175 173 176 181 150 145 134 123 113 106 90 73 60 56 52 51 46 48 48 45 48 49 49 50 49 48 47 46 44 44 42 41 38 39 37 39 39 37 37 36 37 35 35 34 34 32 33 33 32 31 29 26 23 23 21 20 19 20 22 25 28 32 34 33 43 59 68 71 96 112 119 105 110 117 132 128 128 139 148 146 129 124 119 118 119 169 168 173 165 170 182 178 196 193 199 189 169 150 142 126 119 112 94 78 63 56 55 53 51 49 49 46 46 48 46 48 49 49 46 46 44 44 43 41 40 38 39 38 38 38 38 38 37 35 34 35 34 34 34 32 32 32 28 25 22 23 20 18 20 22 25 26 28 33 37 35 51 71 69 78 91 115 119 104 107 120 132 130 123 136 149 148 145 135 128 119 123 177 176 180 177 190 197 196 211 203 212 192 175 172 148 132 123 114 100 80 67 59 54 55 53 52 48 47 47 46 45 46 47 47 46 45 45 41 42 41 40 37 38 35 36 36 35 34 34 34 34 32 33 33 30 30 29 28 27 24 21 21 19 19 22 24 26 27 28 39 38 38 61 81 77 82 89 117 117 107 105 116 128 133 123 133 151 155 151 150 146 134 129 186 183 186 189 209 203 203 211 210 216 199 187 180 163 138 128 117 103 84 69 64 56 54 53 53 49 47 47 47 44 45 45 44 45 44 43 41 39 40 37 37 35 34 35 34 32 33 34 34 33 32 30 30 29 28 27 26 25 24 21 20 20 21 25 26 26 31 36 38 39 50 74 83 84 89 101 118 114 108 112 116 131 137 133 138 151 166 162 156 157 149 146 193 197 193 201 219 209 205 218 218 221 205 195 183 169 159 131 125 109 91 76 66 59 57 56 51 51 48 48 48 48 44 43 43 44 44 42 39 37 38 38 35 34 33 32 31 29 29 30 31 30 30 29 29 29 28 28 26 23 24 22 20 21 26 28 27 30 37 39 38 39 61 73 83 87 100 108 118 114 109 112 122 137 144 141 146 152 167 171 159 161 157 153 204 205 195 208 221 212 215 227 223 223 211 200 184 178 172 148 135 108 99 76 68 61 58 57 53 50 48 48 47 49 47 45 42 43 42 42 38 36 36 37 36 32 31 30 30 29 28 28 27 27 28 29 28 28 28 27 25 23 24 24 23 27 32 31 30 35 40 40 41 43 66 79 88 96 103 107 112 117 120 115 126 143 153 150 149 154 170 177 166 163 166 165 214 210 202 220 229 221 221 231 227 224 216 199 190 186 178 159 143 118 104 82 70 62 58 56 56 52 47 46 46 49 47 46 43 41 40 40 37 36 34 34 35 32 30 29 28 28 27 27 26 26 27 29 26 26 26 26 25 23 25 26 30 36 35 33 35 42 45 42 44 53 65 91 97 108 105 99 107 122 130 128 130 147 158 157 156 157 171 181 171 164 171 170 226 222 223 235 236 230 227 234 231 226 219 200 194 188 179 167 147 132 115 87 75 66 58 59 55 53 49 46 47 47 47 45 44 42 39 37 36 36 34 33 34 32 30 28 28 27 27 26 26 27 28 28 26 26 26 26 26 27 28 33 38 37 38 40 42 46 49 45 52 63 70 95 105 111 104 99 111 124 133 138 137 149 164 162 164 164 176 184 176 170 177 179 238 233 232 241 242 233 228 232 233 231 220 197 194 185 180 167 155 137 124 97 81 72 61 61 56 55 53 49 47 47 46 44 44 44 41 39 37 35 34 34 34 33 31 29 28 27 28 27 28 28 28 29 29 28 28 28 28 30 37 41 41 40 44 47 48 49 47 48 58 72 79 96 110 113 104 101 117 130 143 148 144 154 167 170 172 175 178 183 180 181 183 191 241 237 235 243 247 236 226 229 233 231 218 195 193 178 175 164 157 144 125 109 94 80 66 62 55 56 56 53 50 47 46 46 45 43 44 41 40 38 36 35 34 34 32 31 30 30 30 30 30 31 31 30 30 31 32 33 37 39 44 44 44 46 49 52 51 49 49 53 65 79 85 101 107 111 106 105 122 138 158 165 154 165 174 179 177 180 183 186 187 190 189 195 246 241 238 249 255 244 231 224 230 230 216 200 192 172 168 159 158 148 135 113 105 92 74 65 59 53 57 56 53 50 48 48 47 45 44 43 43 41 39 38 35 35 34 34 32 32 33 33 33 35 34 36 37 37 39 40 43 44 48 47 49 50 53 53 50 49 53 62 73 85 92 102 104 107 110 113 133 146 158 175 169 166 177 189 183 187 187 192 199 205 201 199 246 247 246 252 253 247 226 220 227 229 215 201 183 170 162 153 155 144 135 123 109 101 85 77 69 61 56 54 54 52 51 51 50 45 45 44 44 43 39 40 38 39 38 37 36 36 37 36 37 39 39 39 41 41 44 45 47 48 49 50 52 53 55 50 49 51 59 70 75 83 92 97 97 109 115 122 147 158 162 177 180 179 179 191 192 196 195 194 205 215 211 208 249 254 253 250 246 240 217 216 220 225 210 194 179 168 159 153 150 142 131 125 117 106 92 86 82 73 63 58 54 53 51 50 50 49 44 43 43 42 39 38 39 37 37 38 37 37 38 38 40 42 44 43 43 46 47 48 50 51 51 52 53 52 53 48 50 54 65 73 73 83 96 90 95 109 121 134 158 165 168 178 190 187 183 190 198 203 205 198 205 213 216 209 