P2
92
112
255
32 33 32 32 33 33 33 34 32 33 35 34 34 33 31 32 34 33 34 36 35 36 34 34 34 29 26 24 22 21 20 20 16 14 16 18 16 14 18 14 13 15 13 11 13 12 11 7 8 9 11 13 16 17 20 21 26 27 33 35 34 35 36 36 34 34 32 33 35 36 36 36 34 31 29 28 30 30 32 34 34 35 36 39 39 40 39 40 39 40 39 38 32 32 33 32 33 33 32 33 32 34 34 34 33 34 31 31 33 34 35 34 34 32 30 29 28 25 21 21 19 16 16 13 13 13 15 16 15 12 12 13 12 11 15 10 8 12 10 5 6 7 5 10 13 12 15 16 20 24 26 31 30 32 34 35 35 35 36 35 35 37 37 35 34 34 31 28 29 29 30 32 32 34 33 35 36 39 40 40 38 39 40 40 33 33 33 32 32 33 32 33 34 34 35 34 33 30 30 31 33 35 34 33 32 30 27 26 23 20 18 16 13 14 13 12 12 13 14 17 15 13 16 18 14 12 12 12 10 12 10 9 9 11 9 10 13 13 13 13 16 18 20 23 28 32 33 33 34 35 37 35 38 37 37 36 34 33 35 32 30 29 30 29 31 32 31 32 35 36 39 39 40 38 40 39 32 34 33 32 33 32 32 34 36 35 35 33 31 31 30 33 34 34 34 29 30 29 28 23 18 16 14 11 12 13 14 12 10 13 17 22 20 21 25 23 22 16 18 18 18 16 17 20 20 16 14 16 12 14 13 12 17 20 20 20 22 25 30 30 29 34 35 36 36 37 37 38 37 37 36 36 34 30 30 29 29 29 29 31 34 35 36 39 38 39 39 40 34 33 32 31 32 32 33 35 36 35 34 31 33 34 34 35 35 33 33 30 30 29 23 20 16 14 13 12 13 12 15 14 17 18 28 25 23 28 33 26 28 23 23 30 27 20 24 26 28 20 19 20 17 14 13 18 23 24 20 20 23 24 24 26 24 28 33 34 37 36 38 39 38 40 40 38 35 35 32 30 29 28 31 30 32 33 34 36 39 39 38 40 34 32 32 32 32 33 34 34 34 33 33 32 35 34 33 32 32 30 30 30 28 26 21 19 18 16 15 15 16 18 18 21 23 23 28 27 31 32 36 33 32 30 30 34 34 30 32 32 30 28 26 23 19 20 19 21 25 24 26 22 24 26 21 25 24 23 25 29 36 34 36 37 39 40 41 39 38 36 34 32 30 28 29 30 31 32 32 35 38 40 38 39 33 32 32 34 33 32 34 35 35 32 32 35 35 33 30 29 26 29 30 29 29 24 22 21 18 18 20 22 23 23 22 24 23 27 31 32 34 34 36 35 35 34 36 40 41 38 38 40 35 32 30 28 26 24 23 23 24 27 28 28 29 29 26 25 25 25 22 26 30 32 32 32 36 38 41 40 38 38 36 35 31 30 28 29 30 31 32 33 36 38 39 38 33 31 32 33 35 33 33 33 33 33 34 35 34 31 25 25 26 30 29 27 27 27 26 25 21 23 26 29 30 28 25 31 33 34 39 36 36 38 40 40 38 38 42 49 45 42 41 42 42 41 39 35 34 30 30 28 28 29 30 33 31 32 29 29 32 28 23 25 27 30 29 30 29 33 39 42 40 39 38 36 34 30 29 29 30 31 31 31 32 36 39 39 32 33 34 33 34 34 33 31 33 36 34 33 28 26 25 27 28 28 25 25 24 27 27 26 29 30 31 35 38 39 37 39 39 39 42 42 41 46 45 45 43 45 49 49 49 49 47 45 45 44 44 41 39 35 36 36 36 34 34 38 35 34 35 35 32 30 28 24 27 29 31 30 29 32 36 40 42 40 41 38 37 33 29 29 29 30 32 31 30 33 35 38 32 33 34 34 33 32 32 32 35 37 31 29 25 24 28 30 27 28 27 25 29 28 30 34 36 38 43 43 45 45 43 46 43 42 47 47 47 49 47 49 49 50 49 52 49 53 53 52 53 48 49 44 45 41 41 45 44 43 42 45 41 42 39 39 36 34 33 32 30 27 27 31 28 31 32 37 39 40 41 39 40 36 33 29 28 28 30 31 30 31 35 36 33 34 34 33 31 32 33 35 36 32 30 26 28 28 28 28 25 29 28 26 31 33 35 38 41 44 50 54 51 50 50 50 49 51 52 53 51 50 50 52 53 51 49 54 55 55 57 58 57 52 54 51 48 44 46 49 49 46 45 49 50 49 48 45 41 38 40 38 32 32 26 30 31 30 30 34 38 39 42 39 42 38 37 31 28 29 29 30 31 31 33 34 33 33 32 33 32 33 35 37 35 33 29 30 27 27 25 29 28 29 27 31 38 40 42 44 52 52 52 57 56 57 57 56 56 57 55 55 52 50 53 51 50 53 56 59 59 60 59 57 58 57 57 57 54 52 48 49 51 51 53 52 55 57 52 52 47 44 43 43 37 35 30 28 30 33 32 30 34 36 39 38 39 39 37 34 30 28 29 29 30 30 31 32 36 36 33 33 33 35 35 37 35 34 34 30 29 30 29 31 32 28 31 34 40 41 47 53 60 58 58 60 59 62 61 60 60 59 58 56 56 55 57 53 53 57 62 61 62 61 62 61 61 61 60 58 55 52 51 53 52 51 55 55 57 58 56 59 56 49 48 46 43 39 36 32 26 29 31 29 33 32 36 38 35 38 37 35 34 29 29 31 29 30 31 32 34 33 33 33 34 36 37 38 36 35 35 30 33 34 33 33 33 33 36 39 43 49 55 62 58 60 61 64 59 63 63 63 60 59 60 59 57 58 57 57 57 59 61 62 63 60 65 64 65 64 61 58 56 56 53 56 56 53 56 58 58 57 58 60 61 59 55 55 47 45 39 33 31 28 28 28 28 31 33 34 32 37 37 37 35 34 29 30 29 29 29 32 33 33 34 35 37 40 40 40 37 40 37 36 37 33 36 34 34 33 41 45 49 56 60 61 59 58 60 61 60 63 61 61 60 58 61 60 57 56 57 59 58 58 57 62 62 62 62 62 63 62 62 62 58 60 58 58 58 56 58 61 60 60 62 63 61 63 59 58 54 49 43 41 33 33 28 31 26 27 29 29 31 33 38 38 36 35 31 28 30 29 29 32 34 33 36 38 41 42 42 37 40 39 35 36 35 34 40 37 35 37 48 49 51 59 62 57 61 60 59 62 61 62 60 59 57 56 56 55 52 52 54 55 55 57 57 57 56 58 58 60 60 59 60 62 61 61 60 59 59 57 59 59 61 61 60 64 63 64 63 60 57 53 47 41 40 37 32 35 28 24 26 26 27 29 32 38 37 35 31 30 28 30 29 29 35 34 37 40 43 44 43 41 41 41 38 36 35 36 38 39 43 45 53 51 55 61 60 57 63 60 59 63 60 58 58 56 54 53 51 49 47 50 50 49 51 51 54 54 49 57 56 57 59 60 60 62 59 60 57 58 57 56 57 57 59 58 60 66 61 61 62 61 60 57 52 45 40 40 39 36 32 30 26 27 26 28 27 36 36 40 33 31 31 30 30 30 35 35 37 42 44 45 45 43 42 44 36 39 37 41 47 45 47 52 52 54 58 60 58 60 61 60 64 60 59 54 55 52 48 48 46 44 46 46 43 45 48 44 48 46 46 50 52 54 55 58 57 60 58 58 57 53 54 53 54 54 54 58 54 63 59 56 59 61 61 59 54 50 46 44 41 42 36 33 33 31 30 28 28 33 34 37 36 32 32 31 28 31 34 34 39 42 44 43 46 45 46 46 39 42 47 48 50 45 52 56 55 63 59 60 57 63 59 60 61 55 55 53 50 48 44 43 43 42 43 42 40 40 42 42 40 42 44 47 50 52 54 54 55 57 56 54 54 50 52 51 48 48 48 51 50 56 55 53 55 58 57 56 55 50 52 49 42 44 43 36 36 35 32 28 29 33 32 32 35 34 32 32 30 31 33 35 40 45 45 47 48 48 52 49 48 49 51 51 51 50 55 60 58 67 58 61 61 64 59 58 58 55 54 48 46 44 41 40 41 39 38 36 38 37 36 39 36 40 42 43 45 46 50 49 50 49 51 51 49 46 46 46 44 43 44 44 46 49 49 50 52 53 52 54 54 52 48 55 47 42 44 38 36 35 35 32 29 32 32 32 32 34 33 34 33 31 35 37 41 47 49 47 47 57 61 61 58 52 52 54 58 57 59 65 66 66 61 63 66 62 57 55 55 54 49 45 46 41 40 39 38 37 34 34 34 34 34 35 35 36 37 38 39 39 43 42 42 43 46 45 44 45 42 40 40 38 38 38 42 42 45 46 48 47 47 48 50 51 49 51 54 48 42 43 37 38 35 40 31 32 31 32 33 34 34 34 36 31 38 41 45 50 48 41 56 66 68 67 62 58 62 64 68 64 65 69 66 64 62 63 64 58 55 53 52 47 45 45 41 40 38 37 36 35 34 34 33 33 33 33 33 34 35 35 35 37 38 39 38 39 41 39 38 39 35 35 37 35 35 37 35 36 40 41 42 44 45 44 45 49 48 53 55 55 48 45 46 41 35 38 38 32 30 30 32 35 36 36 36 36 38 42 45 48 44 48 66 72 75 72 65 62 66 71 72 70 68 69 62 62 61 60 60 57 57 54 49 46 44 43 41 39 39 36 36 36 35 33 32 31 32 32 32 33 33 34 33 35 36 36 36 37 36 35 35 34 32 30 31 29 28 30 28 30 32 36 37 39 41 42 43 47 50 50 54 54 55 47 48 46 39 40 36 35 33 27 28 30 37 35 36 37 41 43 46 46 49 55 68 75 79 74 65 64 69 73 70 72 67 63 58 61 59 57 60 56 56 51 46 46 45 43 40 40 39 36 35 35 34 33 32 31 31 31 32 32 32 33 33 33 33 33 33 32 32 31 32 31 29 26 26 25 24 24 23 24 25 27 32 35 36 39 40 44 51 49 53 54 55 51 49 48 43 39 39 39 35 29 26 27 36 33 36 38 41 44 47 50 55 61 78 84 85 76 68 68 74 74 72 70 59 58 61 59 55 55 56 54 54 48 47 45 43 42 42 39 38 36 36 35 34 33 32 31 31 30 31 30 30 30 30 29 31 32 32 30 28 30 29 27 27 24 25 25 23 21 21 21 22 23 27 28 35 37 37 41 45 48 51 53 56 57 51 52 50 37 41 40 40 31 27 27 33 36 34 37 45 47 50 60 58 71 83 89 84 74 67 72 75 74 70 64 57 60 59 54 51 53 51 50 47 47 47 44 42 42 42 40 39 37 36 35 35 36 33 33 31 31 30 30 29 29 28 28 31 32 33 31 29 29 29 27 25 24 23 22 21 19 18 19 19 20 22 24 27 35 38 38 44 46 49 52 55 62 56 56 56 43 40 39 46 37 29 25 33 37 38 37 46 50 55 59 65 76 82 89 84 74 74 74 78 76 68 63 61 60 54 50 52 52 52 50 46 47 47 44 43 42 41 39 39 37 34 34 35 35 34 33 33 32 31 32 31 30 30 28 31 31 30 30 29 28 27 27 24 24 21 19 19 18 17 16 16 18 19 20 23 28 33 38 48 50 51 48 55 60 62 60 55 50 47 41 46 42 34 27 32 39 40 40 44 53 53 53 70 76 86 89 85 80 80 77 76 74 66 60 62 59 54 51 50 51 50 49 48 47 45 41 41 41 41 38 37 35 34 34 35 35 34 33 33 32 31 33 32 33 32 29 30 30 28 29 29 26 25 24 22 21 19 18 17 17 15 15 14 14 17 16 19 23 28 36 46 50 53 53 57 58 63 64 59 54 51 52 47 47 37 31 35 39 41 49 46 51 51 58 71 81 90 90 88 85 83 76 78 73 67 62 61 59 57 55 52 52 50 50 48 45 44 41 40 40 39 37 36 34 34 33 33 34 33 33 33 32 31 32 32 32 32 29 29 29 28 27 25 24 24 21 19 18 18 17 16 15 13 14 13 13 15 14 15 19 24 31 41 49 53 60 61 61 64 67 63 63 55 51 52 49 37 32 37 46 46 57 51 49 46 62 72 84 91 95 94 88 81 78 84 72 68 61 60 61 60 59 55 53 51 48 44 43 43 41 38 37 37 35 36 34 33 31 30 32 32 32 32 32 32 31 32 32 31 29 28 28 26 25 23 21 21 19 18 16 16 15 13 13 12 14 13 13 14 14 14 16 21 26 37 47 52 61 62 65 69 69 69 69 65 54 55 51 46 34 39 49 50 58 50 45 46 59 78 93 93 99 97 89 84 83 85 69 66 60 63 62 62 58 54 53 48 47 43 41 40 37 33 32 32 32 32 30 30 29 28 28 29 29 31 30 31 32 33 31 31 29 28 25 24 21 20 20 19 18 17 14 15 13 12 12 10 11 11 12 13 13 13 14 19 24 30 42 49 58 64 67 70 76 76 73 69 65 59 57 54 39 41 51 59 57 47 42 42 61 83 91 99 100 97 90 84 84 80 65 63 63 63 61 58 55 52 51 46 44 40 37 34 32 29 28 29 29 28 29 28 28 27 28 28 28 28 29 29 30 32 31 31 28 27 24 22 19 19 18 17 16 15 13 13 13 11 11 9 8 8 8 9 12 12 13 16 22 27 35 46 53 61 70 69 78 81 80 78 73 70 60 54 49 42 55 62 57 46 41 42 65 83 96 102 99 95 93 79 75 70 66 63 64 61 57 53 52 49 48 42 40 37 33 32 29 28 27 27 26 27 26 28 27 28 28 26 26 26 27 27 28 30 30 28 26 24 22 21 18 17 16 15 14 13 12 11 10 10 10 8 6 4 5 5 8 10 12 13 19 23 30 42 48 59 66 72 77 83 85 86 79 73 68 61 53 49 60 62 60 43 41 46 64 82 97 95 99 93 83 77 73 70 67 62 60 57 54 50 49 47 44 42 39 35 31 29 28 27 26 26 26 26 26 26 26 25 25 24 24 24 24 25 26 27 27 25 24 24 23 22 21 18 17 15 14 12 10 9 8 9 8 7 5 4 4 3 4 6 9 13 16 20 28 38 45 57 69 75 78 85 90 92 89 76 77 68 57 56 66 61 63 42 41 48 62 81 92 89 98 88 80 78 72 71 65 60 57 56 52 51 49 47 42 41 37 32 30 29 27 26 27 26 26 24 24 24 22 22 21 20 20 22 22 23 23 24 25 24 22 23 22 22 20 17 14 13 11 10 9 7 6 7 7 5 5 3 3 1 2 3 6 10 16 17 25 33 46 57 69 77 78 86 93 95 95 84 76 73 63 61 69 64 70 43 45 53 67 84 89 89 100 93 81 79 73 69 64 60 58 53 51 49 46 46 42 37 34 32 31 28 26 24 23 22 20 19 19 19 19 20 19 18 18 19 20 21 20 21 21 22 21 21 21 20 18 15 12 11 9 8 7 4 5 3 4 4 3 2 2 0 0 1 5 9 11 19 22 29 43 53 67 75 81 85 96 100 96 93 78 75 74 67 68 69 72 47 47 63 68 85 86 93 96 90 84 78 70 65 63 60 57 53 55 48 46 43 39 37 34 32 29 27 24 26 21 18 19 17 21 21 20 21 21 18 17 18 19 21 20 20 21 19 19 20 20 19 17 14 12 10 9 6 5 3 2 3 3 3 2 1 1 1 0 1 4 10 10 17 23 29 37 50 65 75 82 82 97 101 94 96 88 83 79 73 74 70 66 51 52 68 74 85 85 96 91 92 85 77 69 63 60 59 54 52 50 49 49 42 36 37 34 30 28 27 30 31 29 21 16 15 14 15 15 15 16 17 16 17 18 20 20 20 19 19 18 18 19 18 16 15 13 10 7 6 4 3 3 4 3 3 1 1 0 1 0 0 3 8 10 15 23 30 35 45 58 71 78 86 96 98 93 96 95 89 84 79 79 71 62 53 60 66 78 84 88 101 92 93 83 77 63 60 61 59 58 55 53 55 51 41 38 38 34 28 27 27 26 29 29 24 19 14 13 14 13 12 13 14 14 16 17 18 19 19 19 21 19 20 18 17 16 14 12 9 8 4 5 4 4 3 3 3 2 1 1 1 0 2 4 7 10 13 20 27 37 45 58 67 73 86 94 100 94 92 96 95 89 81 78 76 62 54 55 67 76 81 90 98 93 94 85 69 63 65 68 61 59 54 53 55 48 40 38 36 32 26 26 22 26 26 27 22 16 15 15 13 13 13 13 14 14 15 18 19 19 20 20 22 20 19 17 15 16 13 10 9 7 5 5 4 2 3 2 3 2 1 1 2 2 3 5 6 11 12 17 24 34 47 57 70 77 84 90 97 97 89 93 98 90 83 82 73 66 53 55 66 73 73 89 92 96 90 74 75 70 69 67 60 58 55 54 53 44 40 37 34 30 25 25 22 23 22 24 16 13 13 12 12 12 12 14 15 17 17 19 21 21 21 21 22 21 19 18 17 15 13 10 8 6 4 6 4 4 2 4 3 3 3 2 2 1 3 6 8 10 15 17 23 29 43 54 67 78 91 94 92 98 94 92 94 87 85 85 70 61 53 56 70 66 79 90 91 98 81 82 81 71 71 72 62 61 58 57 53 46 45 42 38 32 30 27 24 23 23 23 18 17 16 17 17 15 16 17 17 18 21 21 24 24 24 25 23 22 19 17 16 14 12 9 7 7 5 6 6 5 4 8 4 5 6 7 7 7 7 6 9 11 17 19 23 28 38 57 66 75 88 99 96 98 90 94 98 81 85 79 72 57 55 58 73 72 88 89 102 91 80 98 82 70 70 70 59 58 58 56 49 45 41 37 34 31 29 28 27 25 23 24 21 20 19 21 20 19 19 19 19 20 23 26 30 26 29 32 26 21 19 18 16 14 11 9 8 8 10 11 8 10 15 16 13 9 11 11 11 11 12 6 7 10 16 18 22 30 34 54 64 70 83 97 90 98 92 92 96 86 75 68 70 57 59 69 76 84 94 81 104 92 91 110 79 67 66 67 59 59 59 58 50 46 41 36 33 31 28 29 29 26 25 26 25 23 22 26 25 25 26 27 27 27 28 30 33 33 35 39 36 25 23 22 19 18 17 15 14 13 15 15 14 16 22 22 16 17 18 17 15 15 13 10 9 13 15 18 20 29 33 47 64 71 80 94 83 90 94 99 92 81 74 57 72 57 68 77 75 88 91 82 105 94 98 111 78 65 65 67 63 58 59 55 47 44 41 40 35 33 34 35 34 33 33 32 34 32 28 29 30 29 31 32 37 32 31 33 33 33 36 34 31 28 26 24 24 24 24 23 23 23 24 24 22 25 27 29 26 25 25 25 24 23 18 18 16 17 17 21 20 24 27 40 58 70 78 91 88 85 89 110 98 79 79 55 73 59 73 87 82 88 97 94 109 97 109 110 84 67 65 67 62 58 56 51 47 47 44 42 39 38 39 37 41 39 40 40 39 39 37 34 34 32 34 37 41 38 38 35 35 36 35 36 33 30 30 28 28 31 30 30 28 29 29 31 30 32 33 33 36 35 34 32 26 26 24 22 23 20 18 21 23 28 31 34 58 70 78 87 91 78 88 105 107 77 82 54 63 56 73 95 91 90 99 100 108 99 106 105 91 62 68 66 61 62 53 52 52 50 49 46 45 47 46 43 44 45 45 44 43 42 41 39 38 34 38 41 43 42 40 37 37 39 39 38 35 32 33 32 31 33 36 34 35 36 36 37 38 39 40 39 41 40 41 37 33 28 29 30 28 25 22 20 23 29 32 35 56 71 81 92 95 86 83 107 107 86 77 54 55 57 67 97 94 96 102 99 110 98 98 101 92 65 68 70 67 67 55 54 57 55 55 53 52 51 46 44 45 45 47 45 44 43 41 40 36 35 37 43 42 41 43 42 42 44 43 42 39 35 34 34 34 36 37 37 36 40 40 42 42 41 40 43 43 43 42 39 37 33 33 30 27 28 27 23 22 26 34 35 49 68 81 93 93 95 86 106 111 88 77 51 50 62 71 92 101 97 104 104 109 96 98 99 96 72 69 70 71 69 64 63 64 63 60 58 56 52 48 46 48 47 48 45 43 42 42 41 39 39 47 49 49 46 45 48 46 46 45 42 42 37 35 33 37 38 40 41 41 42 44 45 44 42 45 44 44 42 43 42 42 39 36 33 30 30 30 28 26 24 27 36 47 64 72 89 96 96 90 97 98 84 77 56 49 62 77 90 105 103 96 102 104 93 99 99 97 78 68 72 77 71 67 68 68 65 61 57 57 54 52 51 52 51 49 48 45 45 47 47 42 47 52 57 58 59 53 54 52 48 48 45 44 40 35 35 39 44 43 42 45 43 44 43 41 42 44 43 37 37 38 41 37 38 39 38 36 35 32 32 30 29 28 35 44 58 65 77 88 88 84 86 96 79 67 59 49 59 79 88 111 105 98 97 99 89 104 101 100 82 69 73 75 71 66 65 64 61 55 55 56 56 56 58 51 55 52 52 49 48 49 49 49 57 60 62 62 60 59 56 53 49 48 44 43 40 36 36 36 46 45 43 43 42 42 40 40 41 42 41 40 37 35 38 40 34 39 39 39 37 36 36 34 35 30 32 39 55 64 76 85 80 76 77 88 70 50 54 52 60 74 85 106 107 100 94 95 90 112 103 97 84 76 73 74 72 68 66 62 63 56 61 64 65 64 68 63 60 55 57 55 52 52 54 56 60 62 63 62 62 61 56 54 49 49 46 41 37 38 38 38 44 49 45 45 43 44 43 42 39 40 43 42 43 37 36 38 41 43 44 45 43 38 37 35 39 35 31 37 52 64 76 78 75 71 73 77 60 53 51 51 63 73 84 104 109 103 97 91 93 105 106 96 82 77 71 68 72 67 65 64 66 61 66 70 74 72 69 66 64 61 61 62 58 57 55 59 61 61 61 65 63 60 54 52 51 46 42 37 36 37 39 41 42 48 47 46 41 42 44 44 45 44 48 49 51 47 41 42 46 51 50 51 47 41 39 35 39 33 31 39 44 61 71 86 77 65 71 66 53 53 56 51 64 79 86 98 108 112 106 97 92 97 104 99 85 74 72 66 69 65 64 68 71 68 70 73 76 73 73 68 66 67 67 64 59 58 59 62 61 64 62 64 61 57 51 51 50 45 40 38 34 33 38 42 44 47 47 49 47 46 46 46 47 46 49 49 51 50 49 48 45 51 53 51 52 43 39 35 33 29 27 33 40 59 75 87 73 53 56 55 50 46 55 54 58 85 91 95 109 110 112 101 91 94 96 99 86 75 74 64 66 64 62 66 70 68 70 75 78 73 73 74 69 68 69 68 67 64 66 68 65 65 69 66 65 61 53 54 50 43 39 38 33 31 37 40 45 42 45 46 49 49 48 43 43 47 51 50 56 57 55 56 50 48 50 48 48 42 35 34 30 26 24 28 40 52 72 79 71 49 52 53 48 35 52 53 48 83 96 96 109 109 110 102 90 93 90 96 87 78 73 66 63 65 64 65 67 65 67 71 75 73 70 69 69 65 65 66 67 67 68 66 65 65 70 64 59 60 60 54 49 43 40 38 35 33 33 37 41 40 39 45 48 48 47 48 45 46 52 53 55 59 56 56 51 45 43 43 44 39 33 32 29 25 21 23 36 49 60 73 68 51 52 60 47 40 47 57 46 85 87 93 104 109 107 99 87 89 86 88 91 80 70 65 59 60 60 61 61 61 61 65 67 66 67 65 64 60 59 59 62 63 60 61 59 61 62 58 55 56 52 47 42 41 39 37 36 34 30 33 34 39 37 40 43 47 46 50 46 43 46 50 55 59 57 52 47 41 39 39 38 35 32 31 29 22 19 17 31 44 50 61 56 49 54 67 47 48 55 57 46 82 74 90 94 99 99 92 89 83 79 85 79 75 66 61 57 57 57 56 61 58 59 62 63 60 60 58 55 51 53 55 58 59 56 57 55 56 53 52 49 53 48 39 36 37 37 34 35 32 31 27 31 36 36 37 39 44 46 46 46 45 44 44 49 52 51 47 45 40 37 33 34 31 28 28 25 21 18 14 27 40 45 56 54 50 60 66 46 49 56 53 46 78 70 89 88 93 93 90 88 82 74 81 78 69 62 57 54 55 54 53 55 54 54 58 58 57 56 53 50 46 49 49 51 50 52 52 53 49 45 44 43 41 38 34 34 32 34 34 32 27 28 25 26 31 33 32 31 33 40 40 43 44 42 42 43 45 44 43 39 37 33 30 29 28 26 23 23 20 18 14 25 37 41 57 55 43 66 56 46 42 55 45 43 72 67 83 86 91 85 79 83 78 78 75 71 71 62 60 56 55 54 53 52 53 52 54 55 54 53 51 48 47 45 44 45 44 45 46 47 44 37 38 41 37 36 33 32 30 31 30 31 28 25 24 26 27 29 31 27 27 33 33 36 37 39 36 37 37 36 36 34 32 29 28 28 26 26 21 21 19 20 13 24 36 40 47 42 50 56 50 50 40 52 42 42 65 65 74 84 87 78 74 75 75 78 77 67 64 63 58 58 54 55 53 50 50 51 51 53 51 51 48 48 44 41 39 38 40 41 39 37 36 31 37 39 37 37 36 33 31 30 29 28 25 25 22 22 21 21 21 22 22 25 25 29 31 33 31 31 30 31 30 29 27 26 26 26 24 24 21 19 17 19 13 22 33 31 31 39 56 40 45 50 42 49 43 44 60 62 68 79 88 76 70 68 74 75 77 71 65 61 57 57 53 54 52 50 52 52 53 54 51 48 45 43 41 39 36 36 38 39 34 32 31 34 35 38 39 36 36 33 31 29 25 26 25 25 22 19 19 17 19 16 19 23 24 23 27 28 27 27 26 26 24 25 25 25 24 23 23 22 21 17 16 19 13 21 23 26 29 39 33 37 46 44 42 46 48 45 59 63 64 73 85 79 70 66 71 77 71 68 65 58 57 57 53 52 50 50 50 49 49 50 47 44 41 40 39 37 37 37 38 37 33 34 33 37 38 38 37 36 37 36 30 27 26 24 26 22 20 17 18 17 19 19 19 23 24 21 23 23 25 25 24 24 22 24 23 24 22 21 20 19 19 15 16 17 15 16 26 29 31 31 30 32 45 36 45 44 51 46 57 61 64 66 79 78 69 65 65 74 70 63 61 59 56 55 55 50 49 46 47 44 45 46 46 44 41 39 38 37 37 36 36 34 33 35 34 37 38 36 37 38 40 37 35 29 27 25 25 22 19 17 18 17 16 18 20 24 24 23 20 20 20 22 22 22 21 23 22 20 20 21 18 19 18 18 18 17 16 15 32 33 30 30 30 34 34 35 45 43 49 43 53 60 58 61 70 74 68 67 68 70 65 61 58 58 56 55 55 52 49 47 46 44 43 44 43 42 42 41 39 38 37 35 34 34 34 35 36 39 37 36 38 40 41 37 33 31 28 27 25 22 20 19 19 18 16 16 20 21 24 22 24 22 21 22 22 22 21 22 21 19 18 19 17 19 17 19 17 17 16 19 33 32 31 27 35 32 30 34 46 43 47 40 56 58 59 60 60 70 63 65 63 65 60 58 57 58 58 57 53 51 48 45 42 42 42 41 41 40 40 41 39 38 37 35 35 33 34 36 38 38 36 36 34 40 42 36 31 31 29 27 27 23 22 24 22 22 18 16 18 20 22 21 21 22 23 23 21 21 21 21 19 19 17 18 19 18 18 20 19 16 15 22 32 33 32 35 35 31 30 35 47 48 47 43 55 59 65 64 61 64 60 61 62 59 59 52 55 57 57 55 53 50 48 44 41 41 40 40 39 38 39 38 37 37 36 32 34 34 35 38 39 39 38 38 38 38 38 35 33 35 31 28 27 25 26 25 25 23 23 19 21 22 21 23 22 23 22 23 23 22 21 21 18 17 14 17 16 18 17 18 17 15 17 23 32 34 37 37 37 29 30 34 49 54 46 40 50 55 69 68 66 63 57 57 60 57 60 51 53 55 56 54 52 50 48 45 43 41 38 39 38 36 37 37 35 36 35 34 35 36 37 39 40 39 40 40 39 36 34 34 33 36 31 27 27 26 27 25 22 21 28 27 27 26 25 25 23 22 24 25 24 24 25 23 20 18 16 18 19 18 17 17 19 15 16 26 32 37 39 37 37 28 32 37 55 53 44 40 49 52 66 70 70 57 55 50 51 57 57 51 53 56 56 53 52 49 47 44 42 41 39 39 39 37 38 38 38 37 35 36 36 39 41 41 42 41 41 42 39 38 35 36 37 34 33 28 26 24 27 27 25 23 28 32 32 30 28 26 24 23 25 25 25 24 25 23 21 19 17 18 19 17 16 19 18 17 17 25 31 33 43 37 27 34 35 42 56 49 44 40 52 52 67 71 74 60 56 51 46 52 55 53 51 55 55 52 51 48 47 44 43 40 41 41 40 39 39 39 38 37 35 37 40 42 45 40 41 40 42 43 42 41 39 38 37 35 34 32 30 26 29 30 29 29 31 33 35 34 32 29 26 25 25 26 27 25 26 24 23 21 20 20 20 18 16 17 17 17 21 26 30 34 37 28 23 40 38 47 55 47 42 43 57 51 72 68 73 67 52 53 47 49 53 54 51 52 54 51 48 46 45 44 42 42 44 45 43 41 40 39 38 38 38 40 44 43 44 40 41 42 44 45 46 44 39 38 36 35 34 34 32 29 28 31 30 31 31 31 34 33 33 33 33 29 26 26 27 29 29 28 28 24 22 21 20 19 18 20 17 18 21 27 27 32 36 24 27 43 41 52 52 44 45 45 56 57 69 66 71 70 52 50 51 51 50 49 51 51 53 50 47 44 44 44 43 43 44 45 42 40 41 40 37 36 37 40 39 41 40 40 39 40 43 43 46 46 41 40 37 35 34 33 31 31 29 29 28 27 27 27 27 28 29 31 30 29 28 27 28 30 29 31 29 26 25 22 20 21 21 20 18 16 22 27 26 31 33 27 30 41 46 60 50 44 45 48 54 64 66 67 71 73 60 45 48 55 52 43 48 49 52 49 46 44 43 43 42 43 41 41 39 39 40 40 35 37 38 41 40 40 37 35 38 38 38 39 42 45 45 42 37 35 35 32 29 30 28 25 23 23 23 23 23 25 28 31 31 30 29 29 28 29 30 30 29 27 26 23 20 21 19 19 18 18 21 27 25 28 28 25 28 35 47 56 50 45 45 48 54 68 67 62 73 78 66 52 43 50 50 42 46 47 49 49 45 43 43 42 41 41 40 39 37 37 36 36 35 36 37 39 40 36 34 32 35 36 35 38 40 46 43 39 37 35 32 29 28 28 31 26 22 21 22 21 23 26 25 27 29 29 31 29 26 26 28 27 27 26 23 22 20 19 19 18 18 18 18 25 24 30 23 25 28 35 48 53 52 45 46 47 48 62 67 61 71 80 75 65 55 51 49 40 44 49 49 48 46 43 42 41 40 41 38 37 35 35 34 33 36 37 37 35 35 33 31 30 32 32 37 40 42 42 42 38 33 28 27 27 26 28 32 30 26 22 23 23 27 28 25 25 28 29 29 29 27 27 27 26 23 23 21 20 19 18 18 16 17 15 17 20 24 27 24 27 28 41 58 54 50 46 46 47 49 48 61 54 67 79 81 74 65 57 52 43 43 47 50 50 46 44 43 42 40 40 37 34 32 33 32 33 35 35 33 30 33 32 31 30 30 32 37 40 38 40 40 35 31 25 25 26 27 28 30 30 26 22 22 23 26 27 27 28 29 28 31 30 30 28 29 27 22 21 20 19 19 18 18 16 15 13 18 18 24 26 29 32 31 52 70 54 49 44 45 49 49 47 54 54 64 78 86 79 67 62 55 51 45 47 50 50 48 46 44 42 40 36 34 31 31 32 33 33 33 32 31 32 32 31 32 28 28 28 30 34 32 30 31 30 28 24 26 23 23 24 25 25 21 21 23 23 24 26 27 28 27 28 30 32 30 30 29 29 23 20 19 19 17 18 18 16 14 14 19 22 24 27 41 40 43 65 71 51 45 44 47 52 47 48 50 54 58 75 87 83 70 65 59 52 53 48 50 49 50 47 43 41 37 34 32 30 32 32 34 33 32 32 31 32 33 31 28 26 26 26 25 24 21 21 22 22 21 22 24 24 24 23 21 21 19 20 22 21 23 25 26 27 26 28 30 31 31 30 29 29 26 21 21 19 17 18 15 15 15 16 21 23 26 31 47 45 56 75 66 50 45 43 45 53 44 48 51 55 53 73 84 86 77 70 65 57 54 49 54 51 51 48 42 40 37 35 33 30 32 31 34 33 30 32 30 31 31 31 29 27 28 25 24 23 17 21 21 22 22 23 25 25 24 23 21 19 20 21 23 23 22 24 24 24 24 27 29 30 31 30 30 30 26 23 22 21 18 18 14 15 14 17 24 25 30 33 52 53 64 76 61 58 46 45 47 52 43 45 53 56 54 70 86 85 81 79 70 63 58 54 56 54 51 49 42 41 38 35 35 32 32 32 34 32 31 30 31 32 32 33 29 28 28 26 27 27 22 20 19 21 21 20 21 22 20 19 18 18 19 21 23 25 23 23 24 22 23 23 27 28 30 32 29 30 27 25 21 22 21 17 13 15 13 21 28 29 34 41 53 62 68 74 60 57 47 49 50 54 45 46 53 57 58 68 81 87 82 80 77 71 64 55 58 53 53 50 44 41 38 37 35 33 32 34 37 32 30 29 34 31 33 34 30 28 29 29 32 29 25 25 22 23 23 19 18 19 17 17 18 17 19 21 23 24 24 23 23 22 23 23 28 28 31 32 30 31 27 25 23 22 21 16 14 14 15 27 31 33 40 49 59 70 73 74 63 55 45 51 55 55 49 48 51 55 60 65 79 88 85 79 79 74 70 62 59 55 54 50 45 42 38 37 36 34 33 36 36 34 33 32 37 34 33 34 33 30 30 31 32 31 28 29 27 27 26 23 21 22 20 21 21 20 24 25 27 25 24 23 24 24 25 25 28 31 32 33 32 32 28 25 25 23 21 17 16 17 19 33 33 41 48 60 67 72 78 68 66 52 47 51 55 55 51 51 50 57 59 63 81 90 87 81 81 73 69 61 58 53 55 52 47 43 40 39 38 36 38 39 37 37 40 41 42 38 37 37 35 36 33 33 35 33 30 31 27 26 29 29 26 24 24 24 26 25 27 27 29 26 25 26 27 28 28 28 31 32 33 34 35 35 30 26 26 24 21 17 19 21 25 37 37 46 53 63 67 73 73 66 68 51 47 53 54 53 52 51 53 57 59 61 80 92 90 83 82 76 67 59 56 55 56 53 50 44 43 42 41 40 41 42 40 40 43 43 43 42 39 38 36 38 39 39 41 40 38 36 35 32 33 32 31 32 31 34 35 32 35 30 30 28 28 27 27 27 26 29 32 33 34 35 38 36 34 28 26 23 20 18 21 25 32 42 39 50 56 63 71 73 70 66 61 53 48 52 55 53 50 53 54 55 58 61 77 91 93 89 84 81 73 63 57 57 57 56 50 47 46 46 45 43 44 47 46 48 47 46 47 45 43 38 40 40 43 40 42 42 39 40 35 34 34 32 35 36 31 34 36 34 31 29 28 27 25 25 26 26 27 30 33 31 35 37 37 38 34 30 26 24 22 18 24 27 36 44 43 55 60 71 73 75 66 65 55 56 49 51 54 55 50 52 53 54 58 62 73 86 97 94 90 85 81 67 56 59 58 57 51 49 47 48 46 45 46 48 50 51 50 49 48 48 45 41 41 40 42 41 38 36 35 35 32 31 32 30 32 32 30 31 34 32 33 30 28 28 25 25 27 26 27 32 34 33 36 38 35 36 33 30 27 25 21 20 28 31 40 44 50 53 61 73 77 75 67 62 51 56 56 50 52 56 52 50 50 54 60 61 67 89 99 101 92 87 85 71 58 54 60 58 51 50 50 49 48 47 47 49 51 50 45 45 45 43 43 43 43 40 40 39 39 37 38 37 39 37 40 37 38 37 35 35 37 37 36 34 30 32 29 26 28 28 29 33 33 33 33 34 33 31 30 29 25 25 21 21 29 32 40 46 53 55 61 72 75 70 68 58 51 57 58 50 51 55 52 50 49 56 61 58 79 92 93 100 98 90 85 73 60 53 58 59 55 49 51 51 49 48 47 49 49 47 42 40 38 38 37 36 36 33 32 33 34 35 32 33 33 34 36 38 39 39 36 37 37 38 39 35 33 33 32 30 29 30 31 30 30 31 30 31 30 30 27 28 26 23 21 24 28 30 42 50 54 54 64 71 72 69 65 57 54 58 60 52 52 54 53 52 53 56 58 74 87 88 89 100 101 90 86 72 61 51 56 57 56 52 50 52 51 49 46 47 49 47 45 42 41 39 38 35 32 33 31 32 33 33 32 31 30 28 30 30 31 30 33 34 34 33 32 32 32 32 31 30 30 30 31 30 31 31 29 29 30 28 27 26 24 22 22 26 28 34 48 49 54 54 67 72 73 71 60 57 58 58 63 56 53 55 53 54 55 53 69 89 83 84 86 98 103 93 87 73 63 53 54 55 56 52 49 52 52 50 48 48 48 47 47 45 42 41 38 34 34 32 30 32 31 31 32 29 29 27 27 27 26 27 28 29 26 29 31 31 30 31 28 28 29 30 30 32 31 28 28 27 28 27 24 25 23 21 23 28 27 40 47 49 54 54 69 71 73 67 57 59 61 61 64 62 54 56 57 56 54 64 87 89 82 81 84 93 101 98 88 77 66 56 56 56 54 52 50 50 51 50 50 47 45 44 43 44 39 37 37 33 34 32 29 29 28 24 25 23 25 25 26 31 26 27 27 26 26 26 28 28 28 29 28 28 29 31 31 31 31 28 26 26 27 27 25 25 24 21 24 30 29 48 44 51 51 57 73 72 70 67 55 62 61 64 64 69 59 58 61 55 59 85 94 89 82 84 85 92 100 99 92 85 73 63 62 60 54 53 50 52 51 52 51 47 46 45 41 42 39 38 35 32 32 31 30 30 28 24 23 21 21 24 25 30 27 29 29 28 27 29 29 28 28 29 31 30 32 32 30 30 29 29 25 26 27 26 25 25 24 21 27 32 36 48 43 56 53 61 77 74 68 62 58 64 65 63 65 72 64 62 61 57 79 96 97 91 86 90 92 88 104 106 98 89 81 72 68 61 56 54 48 53 53 52 54 48 46 45 42 44 44 43 40 35 34 32 31 28 26 24 23 22 22 23 23 26 26 27 26 24 26 26 26 27 28 29 31 30 32 30 29 31 29 27 27 25 28 26 25 26 24 24 31 34 41 45 50 55 57 67 75 79 72 64 64 66 64 62 63 70 68 66 62 76 95 100 100 94 94 94 91 89 103 112 101 101 95 78 71 63 59 52 48 51 55 52 53 51 46 45 44 46 45 47 44 40 39 36 34 31 28 25 25 24 23 21 21 23 23 23 23 23 24 25 25 26 29 30 30 30 29 27 30 29 27 27 27 26 26 27 25 27 25 26 33 34 44 45 60 70 69 73 72 80 82 71 65 70 66 63 64 65 68 69 80 92 102 106 104 96 98 98 96 97 103 114 111 112 101 80 73 67 59 53 49 50 54 53 51 52 50 48 47 47 47 48 45 42 42 38 33 33 32 30 27 27 26 24 24 25 26 25 26 27 27 26 27 29 29 30 29 28 29 27 28 28 28 26 25 26 25 26 26 27 28 30 32 39 44 53 71 80 80 83 76 81 95 87 74 79 78 72 67 68 65 68 109 108 118 121 118 107 109 108 111 108 108 120 121 114 102 87 79 68 62 55 50 46 51 53 50 49 50 52 51 50 50 48 45 44 42 40 36 34 34 32 31 29 31 30 30 30 29 29 28 30 29 30 30 30 29 28 27 28 26 27 27 28 27 25 24 25 26 26 28 29 29 36 33 41 50 63 85 93 102 98 93 101 110 119 101 99 95 95 87 84 80 76 117 117 128 130 124 118 119 124 122 124 118 126 124 116 104 94 85 73 65 57 52 46 48 50 48 50 50 50 52 50 50 51 48 46 42 38 37 35 35 34 32 32 32 33 33 33 34 33 33 32 31 32 32 31 31 28 29 26 28 26 27 26 24 23 23 24 26 27 30 30 28 40 40 41 58 72 92 105 114 104 98 113 118 128 133 118 112 113 112 106 104 99 141 148 154 156 148 144 144 146 143 144 130 136 124 118 109 100 92 77 67 59 53 48 45 46 48 51 49 49 51 49 49 51 50 46 45 42 40 37 35 33 32 32 34 32 34 34 35 34 34 33 31 32 32 32 32 30 28 30 28 28 26 26 25 24 22 22 26 29 31 32 31 39 49 47 66 78 101 113 115 111 107 124 121 130 139 140 119 118 119 115 112 110 155 159 162 163 156 161 166 162 160 163 153 139 131 123 116 106 99 85 71 60 53 50 48 43 45 48 46 47 48 49 48 47 48 45 45 45 44 41 38 36 36 34 36 33 34 34 34 35 35 34 33 34 33 33 34 32 31 31 30 26 27 26 24 25 21 23 26 31 34 34 35 41 56 60 72 88 112 119 112 117 114 132 127 133 141 150 137 124 124 121 119 116 167 164 168 164 159 176 170 175 173 177 179 147 141 131 121 110 103 90 73 61 56 52 50 44 45 45 43 46 46 47 48 48 47 46 46 44 44 43 42 39 40 38 39 39 37 38 37 38 37 37 37 36 35 36 35 34 33 31 29 26 26 24 23 23 23 25 27 30 35 37 38 47 62 70 73 98 115 123 109 114 121 136 132 132 143 152 149 134 128 122 121 122 171 169 175 166 170 184 180 194 190 197 186 165 147 140 124 115 109 92 79 64 57 55 53 50 46 46 44 44 45 43 46 47 47 45 45 44 43 43 41 40 39 40 39 39 39 40 39 38 37 37 37 37 37 35 34 34 34 31 28 25 26 23 21 23 25 28 29 30 36 41 40 55 74 71 82 94 118 122 108 111 123 136 134 127 139 151 152 150 139 131 122 127 178 177 181 177 190 197 194 206 199 210 189 172 170 146 129 120 111 98 82 68 60 55 55 52 51 46 45 45 44 42 44 45 46 44 44 44 41 42 41 40 38 39 36 37 37 37 36 36 37 37 35 36 35 33 32 32 31 29 27 25 24 22 22 25 26 29 30 31 42 42 43 64 85 78 85 92 120 120 109 109 121 133 137 127 135 153 159 156 154 149 138 133 187 185 186 188 208 201 201 206 205 214 197 184 177 161 135 126 114 102 86 72 66 57 55 54 53 49 46 46 45 41 42 43 43 44 43 42 40 38 40 37 37 35 35 36 35 34 35 36 37 36 34 32 32 31 31 30 29 28 27 25 23 23 24 28 29 29 33 38 41 44 54 76 87 86 93 104 120 117 110 113 120 137 142 137 140 153 171 166 160 161 153 151 192 195 191 197 216 205 203 213 214 219 202 192 181 167 156 129 124 109 94 79 68 60 58 57 52 51 47 47 46 45 41 41 41 43 43 41 38 37 38 38 36 34 34 33 32 31 30 32 33 32 32 31 32 32 31 31 29 27 28 26 24 25 29 31 30 33 40 42 42 44 64 76 86 90 104 111 120 116 111 113 124 141 148 144 148 155 171 175 163 165 162 157 202 201 191 204 217 208 212 223 218 221 209 197 182 177 172 148 136 109 101 78 69 61 59 60 55 51 48 47 46 47 44 43 41 41 42 41 37 36 36 37 36 33 32 31 31 30 30 30 29 29 30 31 31 31 31 31 29 27 28 28 27 31 35 34 33 38 42 43 45 48 69 82 92 99 106 109 114 117 122 117 128 146 156 153 150 156 173 180 171 167 170 170 211 206 198 217 225 217 218 227 222 222 214 197 191 188 180 160 144 119 106 84 71 62 59 59 58 54 48 46 46 48 46 45 43 41 40 40 37 36 34 34 35 32 30 29 29 29 28 29 28 28 30 32 29 30 30 30 29 27 28 29 33 39 38 36 38 45 48 46 48 57 67 94 101 112 108 102 109 122 132 129 131 149 160 159 158 159 173 182 174 167 177 175 223 218 219 232 233 227 225 232 229 224 219 201 196 190 180 167 148 133 116 89 76 66 59 62 58 55 51 48 47 48 48 46 45 43 40 37 36 36 35 34 34 32 30 28 28 28 28 28 29 29 31 32 30 30 30 30 30 30 32 36 41 39 40 43 45 49 52 48 56 66 72 98 110 115 108 101 112 125 135 139 137 150 165 163 166 166 177 185 178 172 181 185 235 230 230 240 241 233 228 232 232 231 222 198 195 186 179 167 156 139 125 100 82 73 62 63 58 57 55 51 48 48 47 45 45 45 42 40 38 36 35 35 34 34 32 30 29 28 29 28 29 30 32 32 32 31 32 31 31 33 40 44 43 42 46 50 50 52 50 52 62 75 81 100 115 118 108 103 118 131 145 149 145 154 167 171 173 176 179 184 181 183 187 195 241 237 235 243 246 236 226 229 233 231 221 197 193 177 175 165 159 146 127 113 96 81 67 64 57 58 58 56 52 49 47 47 46 44 45 43 41 39 36 36 35 35 33 33 32 31 32 32 32 33 34 33 33 34 35 36 40 42 47 47 46 49 52 55 54 52 52 57 68 82 88 104 112 116 109 107 124 138 159 165 155 165 175 181 179 180 183 186 187 192 192 199 246 241 238 249 255 245 232 225 230 230 218 202 193 172 168 161 160 149 136 116 107 93 75 67 60 55 59 58 55 52 50 50 48 47 46 45 44 43 40 39 37 36 35 36 34 34 35 35 35 38 37 38 40 40 42 43 46 46 49 49 51 52 55 55 53 52 56 65 75 88 94 105 109 111 114 116 136 147 159 175 170 167 178 190 184 188 187 191 198 206 204 202 247 247 247 252 253 248 226 222 227 229 217 203 185 172 163 155 157 145 136 125 112 104 86 79 70 63 58 56 57 53 53 52 51 47 46 45 46 45 41 42 40 41 40 39 38 38 39 38 39 42 41 41 43 44 46 47 48 50 51 52 54 55 57 52 52 54 62 73 78 86 94 100 102 113 118 125 149 159 163 177 181 180 180 191 193 197 196 193 204 216 213 210 250 254 254 250 246 240 217 217 220 226 211 196 181 170 160 155 152 143 132 127 120 109 94 87 83 75 65 60 56 54 52 51 52 51 46 45 45 44 41 40 41 40 39 40 39 40 40 40 42 44 45 44 45 48 49 50 52 53 53 54 55 54 55 50 53 57 68 75 76 86 99 93 100 112 124 138 161 167 169 178 191 189 184 191 199 204 205 197 205 215 218 211 