P2
92
112
255
163 165 163 160 166 162 162 165 161 164 160 166 161 152 149 147 153 147 143 137 141 124 139 136 142 141 136 131 127 112 110 122 128 128 121 121 104 126 120 138 146 140 141 150 153 170 183 194 188 167 170 173 173 167 174 167 170 172 158 159 171 178 181 184 195 193 180 175 170 157 155 137 145 146 146 148 151 156 155 165 167 168 170 170 171 170 173 171 174 169 173 175 164 162 164 164 163 162 161 168 162 160 160 157 156 145 137 137 147 140 132 144 148 124 141 144 126 120 113 98 101 95 105 109 126 119 107 114 108 121 124 135 149 155 146 144 156 165 186 191 188 177 181 167 178 173 184 171 176 173 163 160 151 148 171 180 187 191 191 182 182 163 157 135 135 136 137 144 148 142 151 149 158 166 167 170 171 172 171 170 177 171 172 175 162 165 163 162 163 164 165 162 159 160 155 156 150 143 134 137 138 141 137 153 143 143 142 127 114 100 98 100 100 88 86 100 95 105 113 127 110 119 130 124 131 152 146 146 156 162 170 164 171 177 164 163 163 167 178 191 190 182 181 174 157 139 155 160 166 172 175 175 181 172 168 142 139 131 135 137 148 140 148 152 156 157 160 171 162 173 172 174 169 174 169 172 164 164 161 167 166 163 160 160 156 160 155 152 142 134 128 137 133 145 150 149 152 146 133 121 105 91 84 83 92 83 92 103 102 107 101 108 117 111 102 104 119 135 137 131 137 144 139 146 145 153 171 166 168 175 187 199 191 173 178 172 169 148 141 153 150 160 162 167 163 164 163 153 143 134 137 143 137 145 144 145 152 144 152 159 168 168 167 166 169 172 174 173 162 163 165 165 164 160 154 155 153 151 150 142 136 126 124 125 136 152 151 152 144 136 123 115 100 71 78 70 71 83 86 97 107 103 107 102 106 103 103 99 101 130 129 133 123 145 126 125 135 153 156 151 164 177 200 190 169 163 165 160 160 170 169 161 155 156 146 158 154 151 150 154 151 145 135 140 145 132 140 137 139 143 146 148 162 165 158 162 167 169 172 174 159 164 163 161 158 158 154 150 152 154 143 142 130 127 120 123 120 140 152 142 138 123 119 118 99 99 87 79 72 79 86 89 91 101 95 106 100 101 103 114 115 120 120 119 129 138 123 118 127 135 147 157 160 158 166 164 161 164 166 159 170 173 192 177 183 165 150 160 161 140 144 148 140 138 142 136 121 141 139 127 137 145 150 142 151 163 156 161 167 167 173 174 161 159 164 166 153 154 152 154 155 143 150 137 129 119 121 124 126 128 136 127 123 120 112 126 117 111 113 106 93 98 97 95 107 101 108 103 105 117 112 117 122 126 126 114 115 128 126 131 128 127 132 147 145 146 149 152 158 154 160 155 156 158 161 169 175 166 159 154 152 130 138 140 128 131 120 123 134 139 129 134 130 135 139 138 143 154 157 155 169 163 172 172 162 161 157 154 155 147 142 148 144 139 132 122 128 119 110 113 124 139 115 125 136 131 137 142 120 115 112 125 126 125 132 116 111 113 112 112 114 120 117 109 121 120 104 107 118 120 130 136 137 142 136 137 136 143 143 143 144 145 152 138 138 145 157 169 167 163 152 156 144 135 135 145 143 135 120 127 127 147 154 137 134 131 138 143 138 146 162 156 158 167 169 173 160 163 158 150 150 148 145 143 138 127 115 120 124 117 108 115 124 130 130 142 151 147 145 145 142 127 127 125 131 129 130 135 119 125 120 128 137 138 131 124 131 135 121 114 126 137 145 145 146 145 138 138 141 149 141 134 137 132 141 134 136 141 145 160 160 159 139 145 138 130 133 148 166 157 132 135 135 136 156 136 130 137 142 139 136 143 154 159 157 163 170 167 163 156 150 156 148 148 142 137 131 112 103 117 114 104 111 110 123 136 164 174 159 146 147 148 143 147 143 132 131 132 130 131 135 129 127 138 144 147 164 157 147 137 136 125 130 141 139 137 139 147 143 148 146 146 144 136 137 137 138 133 132 134 145 162 154 158 149 145 144 124 132 141 146 149 145 135 141 129 138 142 143 136 136 133 131 129 149 153 154 163 168 172 155 149 152 147 145 142 134 131 117 103 101 101 97 100 110 115 145 181 190 190 180 166 164 163 146 144 147 134 138 132 130 123 126 125 132 135 137 140 153 166 170 154 149 137 141 137 126 135 137 151 147 155 152 152 152 151 146 151 148 145 140 140 144 155 151 157 154 140 151 136 131 133 125 134 143 138 128 117 124 138 149 127 129 130 136 130 135 141 143 164 161 172 144 153 151 146 142 131 126 114 101 93 100 101 100 99 105 147 177 192 179 185 186 190 176 170 147 142 143 151 149 144 144 144 140 133 141 138 144 140 140 145 158 151 151 142 141 132 137 143 147 149 143 149 154 154 151 156 152 155 151 144 137 130 140 142 146 147 149 145 151 149 138 120 110 109 116 131 123 97 105 129 128 122 130 126 132 122 131 129 144 160 161 164 154 153 155 149 136 133 111 99 95 93 104 101 81 93 120 179 190 190 184 183 198 184 174 166 158 158 152 148 149 143 147 149 149 147 155 157 156 155 148 147 141 139 144 138 132 138 137 141 143 142 145 147 156 162 164 160 152 150 148 140 138 131 135 128 135 147 149 147 145 146 137 118 129 108 94 109 120 116 102 109 98 107 118 127 120 121 123 131 137 149 158 164 155 147 150 147 140 126 94 94 112 125 113 93 93 119 166 191 188 190 182 189 188 177 168 170 168 160 152 148 155 149 151 145 145 149 151 154 156 158 154 146 146 144 142 142 140 140 134 140 138 146 141 156 165 164 162 155 153 155 147 144 137 134 132 124 124 129 151 148 146 140 130 143 136 134 100 89 111 113 117 98 95 107 108 124 119 111 117 126 131 139 151 160 152 146 149 146 135 102 100 112 119 126 116 87 109 174 187 188 194 193 190 190 175 167 166 176 167 160 157 155 152 151 156 152 153 151 148 151 156 154 154 145 149 151 144 143 146 147 147 147 144 148 143 147 153 153 152 150 153 149 150 144 140 138 133 129 132 131 145 159 153 152 145 138 148 122 119 100 101 111 119 112 110 110 102 116 123 125 118 125 125 128 138 156 152 135 156 154 136 114 133 133 127 114 106 103 151 180 183 190 190 191 187 185 176 159 164 169 161 164 162 161 151 154 148 153 155 154 152 156 158 161 154 153 156 155 152 151 157 152 160 154 156 155 154 157 156 149 151 150 151 156 153 148 137 138 137 136 139 141 142 154 162 160 162 134 135 126 125 120 96 111 115 121 121 112 121 104 122 131 132 128 134 122 128 147 148 141 155 148 130 128 139 135 122 112 97 132 172 182 190 190 182 182 189 187 170 161 162 167 164 162 163 158 153 157 152 156 158 160 158 162 165 171 167 168 166 165 158 153 162 158 161 161 160 162 163 164 167 161 158 155 154 154 147 142 140 133 132 128 140 137 139 142 149 155 168 152 151 136 128 136 118 99 113 109 127 127 131 115 120 132 122 130 133 127 131 133 148 158 160 134 137 144 143 135 121 102 115 146 168 184 189 183 183 180 181 169 161 156 156 159 159 159 154 149 147 155 156 157 163 163 165 175 176 180 179 174 175 177 166 165 169 166 168 168 171 171 175 165 170 173 166 158 157 152 142 138 136 127 125 129 132 140 142 138 148 159 161 147 147 147 130 137 140 111 94 97 104 122 137 118 119 125 117 118 122 138 130 144 146 149 154 131 145 142 159 139 121 103 134 155 163 193 184 187 170 172 176 156 155 157 151 147 151 153 150 147 145 149 161 160 161 163 167 181 181 176 175 181 179 184 179 176 172 171 170 172 174 175 173 169 165 169 156 153 142 138 136 131 124 113 113 118 118 122 132 133 143 156 152 147 139 147 139 133 131 133 101 95 109 99 129 126 118 103 116 118 121 123 131 134 156 152 138 132 151 164 152 127 108 112 141 167 169 175 167 167 161 164 166 148 154 144 147 139 143 144 137 139 144 147 158 156 161 166 169 183 180 182 180 178 185 181 184 183 177 176 176 170 171 172 159 160 156 154 145 144 138 124 129 117 114 104 96 100 103 107 116 126 130 143 142 140 112 126 144 139 129 124 111 101 117 110 103 123 135 117 106 118 120 118 128 132 150 140 125 146 160 168 148 115 115 125 141 161 164 152 152 149 151 149 151 144 138 131 135 131 135 133 137 139 149 153 151 160 159 165 173 174 173 183 186 177 182 179 179 183 174 169 171 162 155 153 152 149 143 139 138 129 129 127 126 121 120 114 102 95 89 96 99 107 120 133 134 142 123 124 147 147 149 121 115 120 96 120 108 104 130 121 103 115 128 119 117 123 141 136 126 142 167 167 139 119 119 117 134 155 153 138 146 145 138 136 137 128 126 122 126 131 134 143 139 149 151 153 162 159 161 164 162 168 170 170 171 171 162 163 162 161 156 151 150 146 144 139 140 139 134 132 134 126 126 125 125 120 118 113 104 97 90 91 99 88 103 123 122 127 130 126 138 143 152 149 112 128 111 114 106 112 111 131 99 113 123 126 115 119 140 135 142 151 160 159 127 120 99 109 144 150 130 135 146 146 132 118 128 117 119 130 133 140 143 151 153 153 149 153 157 157 162 164 157 159 149 143 147 143 145 146 138 140 131 131 131 130 129 126 122 133 128 128 134 130 130 133 131 130 133 127 126 112 95 90 97 94 102 109 108 111 114 116 132 134 150 155 132 120 119 108 113 109 119 132 127 105 134 125 129 117 146 119 151 144 162 156 116 101 92 129 153 137 125 139 136 134 119 107 117 109 127 137 147 154 149 155 161 158 153 158 161 158 155 146 138 135 132 118 125 129 125 134 128 132 123 123 127 130 131 133 141 141 133 136 140 139 142 143 133 144 149 141 135 126 117 103 99 99 107 113 117 105 113 112 113 124 139 150 149 131 126 127 110 126 119 126 145 129 131 140 127 121 133 121 135 152 162 147 90 95 97 139 138 120 126 127 128 125 109 103 109 111 123 144 149 155 153 155 152 151 152 154 152 143 134 132 124 119 120 112 114 124 122 125 122 124 125 129 133 138 142 141 145 147 145 147 138 141 140 144 145 151 156 149 144 134 136 118 111 121 106 116 112 112 118 120 111 119 138 151 156 135 121 139 130 124 118 127 145 150 130 137 137 131 124 115 132 161 152 105 75 99 110 127 116 109 109 104 113 102 91 97 96 98 119 133 141 141 137 136 139 133 139 135 133 128 125 120 116 113 112 113 123 122 114 115 117 121 122 133 131 133 133 138 144 149 146 145 141 137 137 148 147 146 149 149 153 144 142 137 130 129 124 120 112 114 113 119 114 111 131 155 165 149 127 142 135 126 127 112 141 161 146 123 150 153 118 113 142 150 117 81 66 102 123 115 96 93 92 84 84 72 83 85 89 93 115 121 129 130 124 128 130 127 128 122 120 118 118 119 120 120 117 119 117 119 113 111 118 119 119 131 129 129 125 134 146 150 145 152 143 147 145 151 151 150 147 152 152 147 141 144 145 145 138 130 122 108 107 114 107 97 116 147 168 148 137 147 142 136 131 125 119 151 160 123 141 155 107 137 146 143 102 70 83 100 109 115 93 92 82 69 65 64 77 89 91 96 107 113 119 124 120 116 121 120 116 119 123 123 124 126 126 132 130 126 122 122 117 115 117 115 120 131 126 131 122 127 138 147 149 152 154 154 144 156 152 147 156 151 152 150 151 149 153 154 152 149 145 112 100 113 99 97 108 136 151 156 132 159 150 131 131 122 121 135 147 132 137 145 118 144 151 132 93 73 78 105 109 107 87 82 72 64 65 73 85 100 98 98 102 111 118 119 117 119 124 127 126 128 131 136 135 137 134 135 130 131 126 121 120 115 120 117 116 118 118 122 117 129 131 141 145 149 154 148 149 151 154 154 158 154 156 154 159 162 159 163 166 169 158 129 111 114 110 95 110 127 150 157 148 141 149 133 115 134 131 140 141 132 135 136 118 141 134 117 82 72 95 119 115 102 86 82 71 71 68 85 98 104 113 101 106 112 122 122 124 125 130 132 131 136 134 136 137 137 135 130 130 130 126 120 120 121 124 122 114 122 121 121 119 131 128 134 139 147 145 142 147 145 141 148 143 140 149 157 160 170 165 164 162 174 166 144 121 117 119 99 114 127 145 146 154 148 152 143 123 129 126 143 142 139 131 143 115 128 127 99 74 85 115 120 117 101 91 90 78 81 79 93 117 112 116 106 116 123 121 128 125 123 123 122 126 124 123 122 126 126 125 123 126 125 126 119 121 131 131 131 123 124 129 129 130 134 130 136 139 143 146 139 144 142 136 134 139 132 139 149 149 161 171 164 167 169 166 150 140 121 122 111 127 129 152 144 140 155 160 132 130 122 117 147 145 144 122 148 120 123 112 95 83 98 121 120 124 115 109 99 94 90 87 106 125 118 112 116 118 127 127 125 118 113 111 112 111 112 113 110 112 111 114 110 111 117 121 120 121 130 138 135 129 129 133 139 141 142 137 140 143 147 146 142 136 136 128 127 127 126 129 140 136 144 155 162 162 170 163 156 145 133 132 127 137 135 151 145 133 143 150 140 125 135 118 149 173 145 130 150 124 122 113 99 98 109 118 121 140 141 132 117 104 90 102 110 131 119 119 120 123 116 114 111 101 107 103 109 107 108 112 109 108 111 110 108 109 111 118 119 122 129 140 140 138 138 143 151 150 146 145 139 143 142 141 143 132 130 125 129 124 123 127 131 131 133 139 154 146 165 163 159 150 138 128 136 160 147 151 159 132 125 143 157 132 126 121 136 180 157 141 147 130 130 110 110 105 109 135 130 159 156 140 117 101 97 101 117 127 127 124 118 120 115 107 101 104 111 109 105 105 101 105 108 103 111 117 119 126 125 129 130 133 138 148 155 151 150 150 148 154 155 145 142 141 139 140 137 140 129 129 126 128 131 129 134 135 136 137 148 149 152 167 159 160 157 129 138 163 169 161 155 148 128 142 150 152 125 114 146 168 158 171 149 134 137 110 116 103 119 152 145 173 159 135 121 104 106 114 112 121 123 134 126 132 125 123 115 119 121 113 110 109 111 113 112 113 117 127 137 135 135 136 137 146 146 153 154 147 149 151 152 156 150 148 141 143 146 145 145 144 140 144 134 142 146 143 134 141 141 131 142 149 147 155 165 160 164 148 137 160 177 169 173 151 143 143 150 146 145 120 137 183 161 166 160 145 132 117 120 110 125 156 147 173 168 141 135 113 116 112 117 115 129 133 131 131 129 129 128 125 126 122 119 115 112 121 126 134 131 134 144 136 135 138 147 146 153 154 156 158 158 153 150 154 152 145 139 143 142 147 148 148 147 152 146 154 164 161 148 150 151 140 138 150 149 150 152 160 161 148 135 155 174 178 189 154 150 149 141 144 155 131 122 169 169 163 164 163 133 111 126 103 127 146 154 186 180 153 141 116 122 115 108 121 125 138 127 124 125 128 126 122 120 122 118 119 115 117 131 129 137 130 137 136 144 139 139 147 143 146 141 150 149 152 148 155 150 142 132 133 132 139 136 146 145 146 151 164 167 165 155 162 153 146 142 144 147 144 132 144 159 151 144 147 175 178 171 166 141 142 142 146 155 132 116 153 165 169 172 163 132 111 110 103 130 138 169 189 193 161 142 114 120 118 114 121 132 133 124 120 117 117 107 111 120 119 121 126 123 122 125 125 129 130 133 139 143 139 141 141 140 138 136 140 141 140 138 143 140 133 129 121 128 127 131 136 143 140 148 158 163 165 162 156 158 143 137 136 136 139 124 132 151 158 147 150 171 178 170 166 144 135 122 143 154 124 111 136 152 163 178 163 130 119 112 96 127 142 176 187 181 162 142 116 125 116 119 129 133 123 119 128 121 120 113 118 131 131 126 131 130 132 130 130 128 130 137 141 141 137 142 138 139 133 131 134 131 131 133 134 132 133 126 126 122 123 131 135 138 145 147 154 159 157 163 155 143 142 146 134 138 130 132 124 136 145 163 153 159 171 170 156 157 138 126 132 144 126 106 125 135 164 184 155 140 129 124 109 126 156 173 186 172 144 137 138 125 123 114 135 139 134 123 121 132 118 118 111 130 129 134 138 137 140 141 137 136 135 139 136 138 137 138 138 132 127 126 127 127 119 121 126 121 127 123 123 126 130 132 138 148 142 149 156 151 157 157 158 146 144 146 136 134 134 131 126 131 140 151 163 146 169 161 149 144 147 131 138 142 124 107 128 123 164 193 148 143 143 142 132 125 158 173 196 172 156 154 136 117 112 111 128 139 135 115 118 122 112 114 96 116 120 123 128 131 128 127 127 125 132 134 131 123 127 131 130 127 121 123 123 124 116 115 121 120 122 123 126 128 136 141 144 150 149 148 156 157 159 166 163 151 150 144 144 142 139 133 140 127 137 147 163 163 175 162 146 142 143 138 131 142 130 115 126 116 165 211 149 155 148 156 134 123 156 175 182 167 159 151 117 113 109 123 125 134 130 118 117 136 124 117 103 110 121 122 127 137 136 139 141 141 150 146 141 130 128 126 128 127 130 127 128 121 119 119 127 123 134 129 133 136 147 146 156 158 163 164 163 169 164 173 176 186 167 168 163 157 147 149 146 139 139 157 170 188 186 168 142 144 147 141 132 126 135 123 135 121 170 215 156 167 151 162 116 105 134 149 172 143 144 149 107 113 117 123 117 143 126 119 126 135 128 119 115 117 131 126 142 150 154 146 148 155 156 147 148 134 123 127 125 124 131 132 136 130 124 121 129 133 138 135 138 149 151 156 166 167 165 168 160 160 167 169 183 184 185 176 169 158 138 131 131 122 127 165 163 179 187 169 156 149 149 137 141 121 148 143 162 161 185 209 171 162 164 151 120 88 99 137 144 130 157 142 105 91 108 128 127 133 137 149 142 146 138 130 126 120 127 130 139 146 153 157 166 164 162 158 161 147 132 135 147 147 152 156 162 157 147 127 126 127 137 137 133 155 173 170 190 191 187 182 186 190 196 184 188 201 197 199 180 158 146 136 114 124 115 144 159 156 176 165 158 147 159 138 154 133 147 167 185 217 197 209 167 151 157 142 125 109 96 150 121 132 173 142 115 89 110 140 131 141 143 150 142 148 158 149 153 158 158 136 147 152 143 153 174 179 163 176 167 158 147 147 161 170 164 152 160 158 146 142 138 136 137 142 137 140 161 157 166 160 161 173 174 171 179 173 174 179 168 187 189 173 150 134 117 123 116 130 142 152 156 175 160 144 160 117 157 153 163 190 210 232 225 218 158 142 161 154 119 133 124 143 116 142 157 157 117 98 118 133 139 143 153 149 141 151 154 163 150 156 150 137 136 155 173 177 180 189 183 197 172 180 157 159 164 170 156 157 149 157 141 143 136 130 135 146 134 125 136 142 138 148 142 155 165 178 181 173 175 187 168 180 180 171 158 149 136 127 126 124 149 141 153 169 159 147 130 120 159 188 193 214 215 226 249 231 173 133 163 139 132 138 134 130 120 140 134 162 121 99 113 134 147 159 167 146 140 145 154 154 145 143 142 153 133 155 169 172 182 184 187 190 160 161 152 162 185 177 164 166 158 157 145 132 140 129 130 133 143 125 145 142 144 146 151 149 159 143 171 184 187 189 192 191 173 172 164 165 141 130 146 136 150 153 154 178 155 133 120 120 181 191 226 212 243 233 239 245 175 132 154 129 132 137 116 114 115 126 121 168 113 114 129 144 165 190 173 164 163 157 160 154 146 137 140 151 154 169 183 181 185 181 181 186 198 183 177 191 192 188 173 171 169 161 158 147 136 130 126 133 126 116 130 135 135 132 136 131 143 146 137 151 183 157 147 152 138 131 139 148 130 128 149 149 161 164 155 168 141 129 117 136 209 216 231 234 234 228 226 255 156 124 130 136 134 122 87 93 104 105 117 168 115 105 141 169 185 224 190 191 197 174 157 144 137 136 137 144 153 167 163 162 164 172 192 162 189 188 178 180 180 178 168 163 156 141 151 121 127 111 108 113 112 108 117 131 133 138 142 128 136 144 136 127 152 146 121 114 107 104 116 152 160 144 156 153 146 165 162 155 126 112 114 161 227 227 232 242 228 208 200 228 130 113 108 135 149 130 99 93 83 103 115 146 126 130 155 174 182 214 193 187 171 154 134 111 110 114 121 130 140 149 137 151 159 163 188 152 157 163 168 182 167 163 154 143 126 112 103 89 96 92 91 100 107 86 99 154 139 118 112 119 138 142 118 107 125 116 94 88 72 82 88 122 158 160 163 167 153 158 159 132 110 102 102 184 239 208 209 215 203 210 188 191 129 104 104 129 144 149 125 126 86 99 108 146 129 145 158 170 168 151 145 146 128 126 109 88 96 109 95 113 130 151 142 149 158 167 188 154 163 141 157 157 157 158 142 134 117 99 101 79 75 58 66 66 69 65 64 124 134 108 93 107 139 139 116 90 93 97 110 85 79 48 86 118 141 156 166 161 158 145 137 121 100 94 112 183 236 204 195 200 169 193 176 181 134 69 85 129 149 161 139 134 97 121 121 163 142 159 179 166 172 138 109 105 104 100 94 87 93 104 107 111 133 144 134 144 150 149 169 148 144 135 147 127 141 151 140 136 104 100 104 92 80 57 59 53 47 43 39 87 85 96 102 107 144 124 97 82 75 91 118 103 82 67 91 120 129 138 160 171 169 162 131 129 115 101 132 186 223 189 163 172 153 162 177 173 136 56 94 145 143 162 143 131 97 122 138 175 146 166 172 175 181 145 120 115 106 106 103 107 113 115 111 96 111 134 148 153 148 150 148 143 134 142 139 124 123 135 127 115 89 83 90 96 67 50 38 40 24 32 50 69 72 76 86 51 92 75 75 72 59 72 96 105 84 91 113 146 145 154 172 173 167 184 148 132 128 114 126 158 181 174 165 156 139 155 169 164 128 59 85 148 136 165 147 131 106 114 132 170 157 168 168 165 160 139 130 105 124 119 120 102 108 127 104 94 124 125 138 177 156 153 175 130 128 136 127 114 122 121 102 93 83 69 84 100 66 36 22 43 36 36 40 65 62 61 72 62 50 45 63 75 62 99 111 109 89 108 106 142 166 168 168 157 154 178 150 118 128 120 138 137 174 197 184 192 145 190 161 164 116 53 98 116 117 145 130 131 107 133 149 184 155 177 163 148 154 151 144 130 137 141 134 130 121 116 115 97 114 126 148 157 160 149 158 113 101 96 104 97 110 97 92 98 91 82 84 90 84 48 26 44 40 54 61 73 76 86 83 85 69 68 74 92 90 124 118 94 104 132 139 158 172 169 178 141 152 159 149 120 123 119 129 131 166 193 184 184 132 196 162 168 108 20 77 90 99 132 111 140 126 127 162 211 174 188 187 156 157 150 149 149 148 152 160 147 159 133 127 105 97 105 154 172 176 169 150 128 106 99 101 114 131 118 95 102 96 94 87 86 75 73 45 45 58 72 101 82 114 112 100 127 135 121 97 117 121 133 141 138 151 162 158 161 165 184 183 151 148 148 133 127 118 106 121 124 159 195 184 153 110 150 151 162 127 7 46 99 94 136 113 154 153 140 176 210 195 182 188 176 169 163 154 156 169 162 164 153 158 122 103 102 97 127 163 180 176 180 156 130 108 102 92 90 115 98 111 101 118 102 104 91 65 73 71 64 93 100 126 102 135 141 127 132 153 171 152 128 135 151 170 155 167 178 164 179 179 185 188 159 146 139 129 111 120 107 114 130 141 169 171 149 115 112 153 139 106 0 27 72 99 145 139 172 188 153 187 215 195 179 192 188 176 166 162 154 164 162 153 142 137 117 102 96 106 141 161 174 184 189 175 128 116 104 94 76 114 111 107 127 101 109 111 97 67 71 81 68 109 113 115 150 176 184 185 162 177 197 194 168 149 160 172 179 162 173 173 169 190 191 185 165 136 131 132 106 110 102 115 123 119 134 181 133 120 117 139 142 72 21 17 63 83 134 163 174 191 175 186 221 189 187 197 184 171 157 153 145 143 146 135 121 134 124 111 95 109 124 151 174 196 182 163 135 132 102 101 92 106 124 110 103 81 95 101 103 98 82 66 83 115 149 152 154 199 217 207 211 212 221 220 212 186 178 176 182 181 178 183 196 195 189 185 163 128 123 123 119 109 100 122 112 107 145 189 141 131 126 119 142 57 45 8 54 71 93 142 153 189 177 162 206 197 177 183 177 168 159 161 148 147 156 139 125 135 119 115 115 122 135 169 190 190 174 163 137 121 99 105 120 103 122 106 90 74 70 81 94 96 105 87 88 101 142 178 165 177 218 209 211 227 243 225 224 215 214 189 197 208 205 192 199 181 177 172 153 125 124 117 131 111 131 140 109 121 176 195 138 129 127 98 144 58 75 18 37 73 92 126 139 182 185 140 190 186 177 173 180 175 174 169 168 168 163 157 136 125 122 119 122 135 150 173 177 179 162 150 127 117 106 119 110 92 90 104 83 75 78 78 95 106 117 105 108 134 148 162 177 166 188 191 187 201 223 234 215 206 201 199 190 210 200 184 183 173 171 166 149 116 119 124 133 130 151 152 139 149 215 186 144 126 112 100 146 71 88 35 16 66 97 121 138 152 185 143 177 169 169 177 176 165 176 158 155 151 139 139 120 113 116 118 115 130 149 157 159 161 136 129 115 104 116 114 107 99 85 81 83 72 72 81 92 103 116 105 118 141 180 176 183 184 179 186 184 189 200 207 216 204 195 198 186 193 191 175 172 161 154 150 133 110 118 115 130 135 153 170 152 171 188 197 141 128 107 114 161 90 107 46 18 39 92 150 142 171 180 176 184 169 152 166 175 165 163 162 145 133 143 135 124 114 121 112 109 120 134 131 137 122 117 111 99 102 115 113 103 100 80 80 76 84 82 90 111 120 144 136 145 150 168 184 177 189 193 178 191 187 194 204 209 203 190 188 197 173 172 167 161 154 145 146 132 115 105 104 123 127 142 174 192 161 178 167 141 129 81 134 172 125 114 85 43 36 83 167 139 174 187 186 184 170 155 169 165 176 168 156 145 151 149 144 145 122 114 114 119 121 125 117 122 128 124 112 93 95 107 104 103 100 76 81 72 80 102 107 126 132 149 167 180 173 180 178 177 193 185 197 185 192 193 195 207 188 191 176 177 155 147 148 153 152 142 137 131 107 108 101 122 109 135 160 189 149 188 142 137 126 83 143 157 118 124 106 48 53 85 176 158 169 186 170 154 170 152 155 153 167 160 154 151 158 154 152 137 129 127 126 124 123 122 128 139 136 125 109 100 102 106 94 105 99 99 93 87 72 84 96 100 110 135 165 182 192 190 174 172 192 189 185 185 169 179 185 189 180 173 166 162 145 129 134 140 146 137 130 125 112 104 104 121 119 148 179 199 155 182 144 154 113 115 149 153 107 106 123 86 82 79 143 173 168 160 156 136 148 161 144 146 145 158 157 160 165 165 151 139 129 132 127 113 115 124 141 156 137 121 107 115 115 115 100 105 114 124 121 91 85 82 79 93 85 103 130 156 174 181 179 172 163 175 162 163 156 154 171 175 172 171 161 140 135 125 129 136 139 136 130 121 113 110 107 122 135 140 181 195 165 163 162 162 117 130 155 145 123 100 97 66 85 131 127 190 189 157 130 151 149 159 144 140 144 153 163 162 166 153 151 141 131 136 129 122 121 134 145 147 127 130 127 140 131 118 119 130 143 138 121 117 82 91 90 100 104 94 122 148 160 170 162 164 172 156 160 154 155 138 137 152 164 161 145 134 128 113 120 118 130 132 112 111 110 120 100 119 148 144 173 187 174 158 174 143 120 153 151 147 121 103 94 60 68 87 109 167 179 155 119 140 142 157 141 132 136 147 157 152 165 157 151 132 128 131 131 129 129 129 123 126 124 127 131 142 121 114 138 150 140 136 136 118 114 94 96 103 99 102 108 135 144 155 170 164 162 163 136 136 128 134 122 118 145 144 141 139 134 116 126 131 133 134 122 115 125 120 96 128 157 139 175 187 182 151 160 126 160 166 152 150 120 96 111 101 91 103 82 150 164 155 148 163 143 149 149 138 144 141 148 151 162 163 151 138 133 134 136 134 138 139 132 116 116 108 100 101 98 113 139 156 156 155 157 138 123 111 109 107 97 104 103 124 153 155 163 167 157 151 139 144 140 135 132 139 133 151 148 137 138 126 132 131 131 140 132 125 131 124 115 138 154 152 162 186 130 129 129 152 196 162 145 162 123 111 97 117 116 116 78 124 120 141 151 159 158 155 151 140 142 139 145 154 156 162 146 133 138 145 149 151 154 141 138 136 134 128 117 129 123 130 158 178 176 176 167 144 120 115 115 107 108 109 121 122 124 154 172 166 161 156 153 146 150 147 141 132 141 153 155 150 149 133 144 147 145 143 146 131 133 127 120 129 146 131 152 150 117 122 117 176 212 151 149 175 108 134 85 105 111 128 88 115 97 111 152 162 158 146 147 144 145 143 151 152 159 157 149 138 144 149 152 166 157 159 157 147 150 144 143 135 139 144 161 188 188 178 159 146 134 137 131 104 110 116 133 123 119 115 125 135 131 129 136 133 139 137 146 147 149 160 178 168 160 152 155 158 152 143 147 131 133 132 102 118 120 129 142 140 127 112 138 195 212 145 166 181 131 137 117 109 113 106 70 93 94 98 138 160 151 137 149 150 153 153 162 161 163 156 156 147 159 154 156 162 161 171 166 175 155 140 144 133 128 133 140 168 175 166 141 143 141 136 120 110 106 119 139 122 110 115 131 143 154 160 151 146 153 148 151 162 174 171 179 166 151 155 159 167 155 140 143 135 144 120 96 108 112 111 115 142 114 123 150 206 196 152 177 175 152 140 134 127 133 112 59 73 86 104 141 153 146 139 156 154 162 168 168 168 163 153 157 153 157 157 165 165 166 176 175 166 148 131 129 134 125 114 122 123 144 138 130 128 126 127 119 107 103 118 136 140 133 124 144 148 172 181 154 143 146 143 144 144 159 165 169 160 142 153 162 166 153 137 142 140 140 115 89 108 99 101 85 116 123 130 185 203 196 166 178 167 153 139 140 159 145 136 91 80 95 101 149 157 148 144 151 164 168 170 168 175 158 143 157 154 160 152 164 164 173 171 163 152 133 117 121 131 121 110 114 118 122 135 133 125 113 114 127 120 111 119 125 138 143 134 150 154 177 182 173 175 173 165 151 148 156 159 164 163 149 148 153 153 145 140 140 144 124 114 88 89 80 93 93 137 160 161 200 201 191 171 170 169 167 148 141 165 159 169 116 112 130 93 158 164 146 147 152 176 174 168 173 166 160 144 152 156 152 157 159 156 166 160 154 125 107 114 119 121 119 97 92 108 124 131 124 109 112 122 113 116 110 123 120 146 150 159 173 172 185 179 181 164 169 173 165 157 150 139 140 146 142 148 145 151 144 144 140 143 123 116 87 63 90 106 121 193 204 196 199 209 214 168 161 165 163 155 150 170 162 193 139 132 156 116 139 167 155 144 147 168 182 173 177 160 157 146 141 143 143 152 151 154 156 150 140 107 94 98 117 126 108 93 89 88 93 112 108 103 106 108 107 110 142 149 148 151 153 177 191 175 172 172 161 155 155 160 165 153 145 129 123 129 121 133 140 145 143 138 134 134 118 122 103 95 110 119 166 210 239 221 190 233 215 154 156 159 168 154 150 167 172 187 162 144 161 159 150 164 151 150 157 165 183 173 173 158 156 143 133 138 146 152 148 148 140 130 120 107 102 104 93 106 104 84 88 76 73 82 110 107 113 110 136 141 169 179 173 161 166 181 195 186 156 145 145 138 132 144 154 153 146 123 122 128 122 124 134 142 135 142 133 131 126 131 129 133 144 157 191 240 248 203 206 239 186 147 151 158 165 160 155 159 166 176 160 151 146 173 158 162 142 162 163 169 181 175 171 171 169 153 141 134 143 149 144 142 127 120 120 123 114 111 85 74 93 86 92 86 75 92 110 121 127 122 132 138 178 190 181 178 183 201 205 181 151 143 146 133 135 133 140 142 137 130 136 143 132 118 126 135 140 137 132 129 125 135 131 151 162 180 202 233 215 193 235 224 151 146 153 168 157 159 150 158 160 154 155 152 143 163 170 168 149 176 168 157 174 189 181 188 180 175 155 148 144 139 152 140 126 132 131 141 139 116 90 83 78 77 85 87 107 126 123 114 109 121 131 137 154 176 177 168 179 185 185 177 168 166 161 151 142 131 131 138 139 136 142 149 132 135 130 138 142 132 131 126 135 129 132 157 159 179 209 197 175 204 241 186 142 152 159 181 151 157 146 154 158 150 145 152 156 155 165 175 173 186 166 165 168 184 194 188 196 181 165 151 157 155 159 162 169 172 151 142 147 141 118 102 72 72 83 97 116 135 139 136 138 150 148 160 152 179 186 166 151 147 151 153 158 156 150 142 139 134 136 140 148 145 154 162 146 148 132 135 150 134 129 132 142 119 123 144 155 167 187 173 176 224 205 163 152 159 166 174 160 150 145 156 162 150 140 159 161 147 158 171 167 171 169 171 172 182 194 197 195 182 162 156 160 177 180 176 185 190 185 172 164 165 135 114 100 89 96 96 107 116 139 139 134 150 145 147 152 164 161 145 138 149 138 151 156 152 144 139 142 137 138 151 154 161 162 173 164 143 137 140 158 141 130 137 139 106 122 128 135 145 166 168 194 193 168 161 158 159 173 173 165 161 147 157 160 163 142 151 172 149 154 174 151 164 164 165 169 175 188 193 192 190 180 167 176 189 187 185 194 196 192 195 187 187 169 157 142 113 111 111 120 118 137 159 155 168 159 150 147 148 156 139 130 155 149 150 156 157 150 133 134 136 155 167 171 164 171 174 166 149 146 142 148 142 134 146 134 99 108 108 116 135 156 162 179 172 169 161 161 170 167 171 168 163 161 154 162 167 146 157 168 164 159 170 146 158 162 167 171 178 185 189 190 191 187 192 205 196 180 163 184 188 183 189 197 181 186 187 177 149 138 128 134 136 146 160 172 170 170 159 151 138 149 134 108 130 155 152 152 157 142 127 129 130 151 177 187 175 170 177 167 153 150 146 143 143 137 149 130 100 107 95 110 133 148 174 183 173 167 159 164 167 166 165 168 166 163 160 170 171 155 154 164 181 165 157 147 150 167 160 166 174 182 186 179 181 190 193 196 191 173 165 167 171 167 178 184 172 170 186 188 174 164 157 159 154 163 154 157 165 166 160 170 157 156 142 104 126 152 156 154 157 143 131 147 143 167 195 208 184 182 171 175 157 150 149 141 146 137 154 132 99 113 98 128 135 164 176 173 172 163 151 158 163 164 165 159 166 159 156 173 170 159 165 158 179 181 150 146 144 153 152 152 160 181 181 166 176 185 178 177 176 157 157 145 154 150 149 164 162 159 172 174 162 165 169 172 158 156 152 144 154 150 151 163 159 160 148 125 124 151 148 159 161 164 152 156 167 183 195 198 178 178 179 167 154 144 149 138 138 151 150 131 103 122 115 130 143 152 175 164 172 160 141 154 159 158 164 150 154 161 150 165 160 155 168 146 172 174 152 141 139 133 130 120 139 178 174 169 168 176 176 173 175 156 146 137 133 135 140 156 152 163 143 153 173 170 158 172 152 160 158 154 148 150 152 154 149 147 148 136 133 138 150 172 182 173 180 183 178 186 189 190 178 166 171 162 146 137 137 139 137 158 154 132 107 123 107 118 137 146 171 164 163 154 134 152 155 164 165 150 149 149 149 142 151 154 164 157 164 169 156 141 129 120 115 111 136 169 174 173 165 177 181 173 178 163 151 140 128 126 124 151 145 152 145 152 168 162 165 160 160 143 153 154 147 134 138 128 122 117 123 121 120 132 145 174 168 174 173 172 178 182 184 178 174 158 155 157 144 138 140 142 149 162 137 110 123 120 91 122 127 142 161 158 156 145 137 139 154 160 166 152 151 147 144 137 143 170 156 161 155 171 159 164 116 117 110 111 114 155 162 169 164 172 178 180 184 163 150 141 137 139 128 145 153 152 136 146 153 147 159 155 153 136 128 121 122 111 101 108 100 104 128 131 133 129 130 137 150 152 167 173 166 161 175 155 164 146 148 159 150 139 139 145 145 163 126 108 125 116 93 127 123 140 149 154 151 143 140 139 150 164 164 151 149 142 143 130 152 175 149 160 153 169 175 168 135 119 102 112 107 132 155 152 160 167 161 166 158 144 140 138 139 137 127 123 133 134 126 113 122 129 132 131 143 128 111 97 80 74 94 101 109 123 130 130 124 120 137 138 154 150 153 163 145 147 155 149 162 152 153 156 154 144 144 143 152 147 123 98 119 101 108 123 126 141 153 149 145 140 141 140 148 161 160 137 143 145 130 137 161 174 144 158 163 163 178 177 160 132 106 96 119 130 153 145 155 155 150 160 156 142 133 130 132 127 119 114 114 118 108 93 78 80 80 80 103 94 92 94 87 91 88 101 111 126 131 137 124 136 147 153 148 148 158 160 148 146 139 141 161 165 155 153 153 140 143 144 157 139 111 108 113 100 117 119 126 148 150 141 141 143 141 141 144 157 155 141 141 139 137 160 170 170 156 154 160 170 181 185 173 138 108 90 106 126 146 156 162 173 160 152 143 124 121 119 135 134 131 112 98 107 98 84 66 61 52 56 50 47 51 63 69 83 87 90 103 105 118 113 120 139 159 169 166 157 161 160 146 155 144 142 151 161 149 154 151 143 138 141 159 127 100 107 99 103 110 121 132 143 145 136 135 140 146 135 144 153 156 144 146 142 150 179 177 166 163 146 155 171 172 181 170 140 99 86 83 115 135 150 152 166 156 141 143 127 124 125 142 146 137 134 130 137 123 97 89 77 76 70 62 62 59 57 55 77 81 91 92 105 114 108 106 116 134 153 157 159 158 141 142 156 146 139 145 156 154 154 150 145 136 136 176 125 83 94 94 105 98 124 141 137 135 134 143 134 143 136 138 149 153 150 148 158 159 185 177 160 166 149 155 152 169 176 166 144 96 76 74 108 125 144 146 142 147 129 127 126 119 133 142 151 150 135 119 117 111 106 103 97 91 93 82 91 85 75 79 78 82 91 92 86 99 93 95 109 120 137 146 146 133 133 144 146 142 145 150 152 160 155 148 135 140 149 170 120 87 83 98 106 98 130 148 135 125 136 141 133 141 137 138 138 157 158 172 178 165 189 174 172 180 186 164 151 163 187 164 146 101 64 68 91 114 126 141 140 131 131 132 127 128 131 143 145 143 132 118 117 110 97 92 88 91 92 98 108 110 106 103 109 112 123 118 106 99 103 105 118 140 143 136 145 127 127 131 141 146 161 152 154 161 157 141 140 140 161 156 90 75 91 98 92 109 129 145 144 126 126 137 133 137 132 138 139 147 179 191 181 171 189 196 191 211 211 176 142 157 168 173 143 112 73 52 73 101 98 135 141 134 131 126 129 133 124 131 134 136 126 126 132 118 108 102 91 98 108 114 127 132 124 130 127 130 136 132 125 120 121 115 125 132 131 125 129 123 122 134 140 154 158 156 149 158 155 139 141 151 168 131 71 61 73 107 94 120 130 127 140 130 115 120 111 128 131 133 140 139 170 174 164 160 182 194 200 220 201 173 145 130 166 169 162 120 81 54 51 89 86 121 151 140 126 111 119 123 118 115 116 117 120 119 118 108 98 93 94 100 99 98 115 119 118 118 119 119 124 120 119 112 119 119 117 124 116 118 113 124 132 136 135 149 150 158 160 163 152 138 144 156 157 97 78 51 78 89 117 105 110 118 121 122 110 91 91 99 100 113 112 124 174 164 169 161 179 179 212 209 181 173 142 131 151 170 154 124 104 70 36 67 90 117 150 148 134 121 122 114 114 115 112 113 110 112 100 91 88 83 84 87 87 91 93 100 97 99 109 106 106 106 108 107 117 119 122 125 121 120 120 128 140 141 133 142 149 160 160 159 153 146 141 158 133 83 72 61 78 94 128 138 107 117 112 129 111 91 72 73 72 81 77 91 142 145 143 123 146 156 202 175 161 171 143 124 156 169 145 136 132 93 53 55 87 105 138 145 145 136 126 118 109 110 99 103 99 96 93 78 80 81 76 81 84 81 86 81 84 97 109 103 103 109 112 118 122 130 140 139 130 130 130 130 144 151 146 153 148 165 157 155 151 143 145 141 102 83 58 73 88 113 126 140 134 126 123 130 127 113 94 79 75 73 78 78 140 143 135 118 129 166 189 154 142 128 134 137 148 157 139 135 149 124 68 58 85 102 130 146 154 144 136 130 118 105 97 91 86 78 84 77 84 78 74 77 76 74 81 83 89 101 110 111 114 122 123 132 143 155 151 156 144 139 148 151 160 157 162 165 153 162 149 149 149 145 143 126 91 98 69 81 111 120 137 142 147 149 136 140 133 126 117 95 84 84 82 80 145 143 141 122 130 183 177 141 129 127 118 143 130 147 151 136 148 147 104 84 86 100 123 144 166 159 152 142 133 121 117 100 87 78 83 87 91 94 95 89 89 93 90 97 104 113 123 129 135 137 141 156 161 166 168 166 171 157 150 157 151 158 158 164 156 157 143 148 144 140 146 108 84 79 92 86 118 126 150 148 150 170 144 137 138 140 133 107 90 89 93 90 144 144 138 125 126 186 158 144 116 122 135 129 139 141 152 137 134 148 117 107 113 82 94 137 153 163 156 153 153 139 125 117 111 102 95 89 91 102 89 89 87 97 95 100 116 131 133 145 147 155 168 178 180 188 186 185 188 168 158 151 150 154 158 163 146 144 139 142 145 139 146 93 67 72 89 100 103 133 142 163 165 176 164 137 135 136 141 133 109 96 98 106 145 142 135 125 131 179 154 135 114 117 130 135 138 149 142 148 129 154 117 130 121 78 64 118 143 153 157 158 152 149 129 115 112 110 100 90 80 90 93 96 106 114 116 123 132 142 152 156 157 167 170 173 179 189 194 189 180 166 165 148 155 157 159 148 138 127 138 139 149 154 135 65 52 57 79 107 108 109 143 178 182 178 175 149 132 141 139 136 134 112 117 115 146 143 136 131 128 158 149 131 121 114 114 150 143 142 164 132 150 168 147 146 129 87 73 87 126 143 162 159 153 142 132 119 112 108 105 105 101 108 120 123 133 140 141 147 160 162 167 179 178 190 188 187 187 186 192 183 175 165 166 163 156 148 144 134 127 128 141 155 158 153 126 64 65 35 66 96 145 98 139 175 182 194 184 173 139 144 145 138 137 128 131 129 148 151 139 140 125 146 139 124 122 116 99 141 136 151 149 124 180 188 178 152 136 101 88 86 105 128 147 159 152 137 131 123 120 116 103 104 103 104 117 123 133 139 151 157 170 173 172 171 182 185 197 194 184 188 186 170 163 153 167 159 148 133 131 119 119 133 146 162 153 143 107 61 56 39 60 105 143 117 138 165 176 205 194 179 159 151 141 140 131 136 137 128 148 154 149 138 130 150 127 120 114 113 97 126 155 133 151 141 176 209 188 155 149 112 98 103 103 110 121 145 150 147 128 129 122 123 112 102 103 104 106 124 130 143 150 163 174 170 174 171 181 178 189 184 176 174 173 158 147 154 154 152 132 121 118 110 121 145 156 164 152 140 100 72 51 33 60 117 150 138 133 187 164 194 214 189 175 155 156 148 143 139 141 135 157 163 158 144 149 144 118 121 117 107 86 133 157 137 161 148 182 205 194 171 154 123 106 108 112 110 100 127 143 146 142 131 118 117 117 107 109 110 117 117 128 129 136 139 148 163 162 164 167 168 172 166 146 150 149 147 147 146 136 132 125 108 115 125 138 158 166 169 154 126 118 77 46 39 65 89 157 151 164 170 177 166 223 196 169 169 157 159 156 146 150 139 168 183 168 159 158 146 142 135 121 100 91 135 161 154 160 151 201 199 194 180 154 141 109 117 127 120 113 114 124 136 145 136 123 121 123 114 108 107 120 121 121 130 123 126 136 141 138 128 139 133 131 134 129 129 133 138 131 127 117 111 111 111 125 141 156 162 179 178 147 136 130 76 46 46 51 90 153 166 190 181 171 160 194 199 174 173 143 150 148 143 148 144 169 187 168 175 169 160 138 108 102 102 74 132 166 167 167 130 210 211 191 172 172 137 122 112 136 134 133 131 125 125 130 130 127 127 127 129 119 114 115 119 121 122 117 112 120 119 122 116 115 103 102 107 112 119 117 124 112 106 114 112 119 123 138 154 162 173 181 177 150 146 133 75 26 69 33 87 138 184 194 198 179 157 150 169 173 156 127 116 125 122 112 119 162 174 160 173 156 144 106 93 101 79 71 120 164 162 157 135 203 216 207 168 178 135 123 118 125 139 144 146 143 142 141 132 129 127 135 131 131 132 114 117 112 110 103 106 109 102 94 98 97 94 96 99 113 111 115 106 98 109 121 116 123 137 153 162 174 176 175 175 167 148 132 72 24 58 44 81 127 177 203 219 194 168 132 150 172 155 118 102 114 115 110 107 156 169 155 165 156 136 100 99 92 49 90 101 167 184 145 159 209 216 221 177 177 150 109 115 121 132 147 149 149 151 151 154 149 147 144 144 146 146 130 126 111 117 108 109 106 108 102 103 103 106 99 100 106 106 99 108 121 124 123 125 137 149 162 175 180 186 180 187 174 160 114 80 44 44 55 71 117 175 187 216 212 204 144 121 163 165 127 99 102 105 104 112 128 142 142 146 145 119 120 122 86 63 95 83 160 216 197 163 199 215 222 179 168 171 112 104 104 123 129 144 143 147 144 157 155 149 147 152 149 149 144 135 137 136 127 125 118 105 109 101 104 110 104 108 107 114 124 132 136 131 133 141 149 159 169 185 179 183 187 185 169 154 88 78 59 47 69 51 105 171 167 207 207 215 193 130 141 174 150 95 78 87 92 99 121 152 148 150 164 135 127 122 95 95 99 100 148 207 231 162 184 213 212 178 171 166 117 108 96 103 110 119 140 146 148 149 149 153 140 147 143 143 137 137 140 136 134 121 118 109 105 108 106 119 127 124 132 138 140 143 142 140 138 150 162 169 170 184 181 168 181 171 157 148 68 82 62 51 64 34 119 166 142 189 192 204 231 172 138 171 175 115 78 70 68 101 