P2
92
112
255
114 111 112 112 110 115 113 111 117 115 120 111 103 98 96 102 89 80 78 81 98 120 101 107 90 92 88 80 86 96 101 99 101 98 100 92 85 96 105 100 103 99 94 101 109 103 114 119 120 111 119 111 118 110 128 121 121 126 127 133 120 108 103 124 140 137 166 167 175 173 189 174 179 171 158 151 139 137 132 124 115 112 115 115 114 112 109 108 107 113 108 106 113 114 108 114 112 111 116 113 117 117 116 99 99 96 95 90 87 87 87 110 118 124 108 96 87 78 92 92 96 96 112 100 106 106 113 98 89 91 87 86 86 89 80 84 86 92 97 106 112 107 116 117 125 113 127 133 135 138 139 138 125 123 113 121 124 125 129 145 154 161 181 190 170 174 173 164 149 139 137 136 130 117 108 117 115 118 108 112 106 111 110 105 107 115 108 111 115 111 111 113 127 115 106 91 91 91 93 98 96 104 116 116 121 112 102 102 88 90 102 106 99 101 111 111 111 99 96 109 99 84 90 86 87 69 69 67 75 70 81 76 93 92 92 103 113 115 118 134 144 144 155 149 139 124 117 123 120 116 106 122 131 143 162 189 182 182 174 181 164 152 138 143 133 127 115 115 118 114 112 110 110 110 108 107 113 107 114 106 114 114 115 119 117 107 95 85 93 97 98 109 111 123 117 125 117 109 116 98 110 105 102 111 116 113 119 120 111 104 117 122 112 87 84 81 72 73 65 52 63 72 63 73 106 103 100 95 104 112 109 124 139 144 145 155 148 144 125 118 122 111 105 106 130 138 144 159 173 165 163 177 172 157 137 135 136 129 128 115 117 116 111 110 109 111 111 109 110 110 112 110 111 114 120 111 108 101 88 88 104 107 110 118 124 136 134 128 107 124 125 119 126 118 102 111 125 133 132 129 126 124 139 121 114 103 92 78 79 72 72 71 78 65 56 91 99 105 98 96 96 103 107 116 130 129 137 146 142 142 143 138 130 139 116 106 112 125 130 141 151 152 139 148 163 158 142 129 140 132 130 116 117 115 114 114 113 112 111 105 110 114 111 112 113 114 108 107 97 85 85 96 102 110 122 129 138 141 127 118 114 130 138 135 134 130 129 139 136 138 123 122 136 131 119 114 111 97 106 93 75 74 83 86 89 81 75 92 96 91 99 102 94 109 112 134 125 132 134 132 141 137 139 148 146 139 123 113 106 113 115 123 123 136 133 139 140 148 150 121 135 141 125 126 119 118 113 111 114 114 111 107 113 111 110 112 116 108 96 96 84 83 103 95 106 134 137 143 140 128 122 127 123 125 137 139 138 150 157 153 138 139 131 131 139 120 114 110 112 107 103 96 78 81 88 105 104 108 107 110 117 103 112 106 110 120 122 143 143 136 126 127 146 144 146 147 153 142 138 117 120 118 102 98 93 111 116 123 123 127 136 129 119 126 124 125 123 116 111 112 115 112 112 108 111 113 118 113 107 93 96 90 85 110 109 114 145 153 136 141 141 124 144 135 114 122 138 156 152 147 145 148 139 140 140 130 119 114 122 124 117 98 96 98 89 91 88 104 108 111 109 121 115 110 119 117 126 126 129 136 153 141 130 128 137 149 151 157 164 150 155 128 130 131 108 104 97 95 102 100 115 126 124 135 125 115 118 126 121 115 108 116 117 112 119 107 108 115 115 107 92 90 94 93 107 122 126 144 158 158 159 151 149 155 136 107 110 138 139 141 150 138 135 125 130 118 126 125 106 119 119 115 109 114 101 92 102 108 95 101 116 110 116 124 117 113 108 124 117 122 124 131 148 142 129 136 125 142 136 151 162 150 156 154 152 145 122 108 94 78 83 75 95 112 125 129 129 124 115 117 123 121 109 115 119 111 117 108 109 118 101 88 88 83 91 97 118 125 125 143 148 160 163 168 160 141 107 113 123 148 138 130 137 148 137 137 124 115 128 122 111 119 119 117 117 116 120 108 107 108 106 112 121 119 125 121 116 108 112 116 118 117 114 114 128 132 133 121 124 132 126 126 143 149 153 148 151 162 141 116 116 88 96 89 84 109 122 128 123 121 115 113 111 112 104 110 120 116 111 110 109 100 90 78 86 85 99 100 124 123 137 159 168 176 176 166 154 111 89 130 143 139 133 139 136 138 138 136 135 127 128 114 115 114 109 124 115 120 110 121 119 117 127 130 136 136 128 121 114 118 112 122 116 115 120 111 113 121 128 123 118 126 123 123 130 132 139 138 143 152 152 148 117 112 109 97 100 105 102 117 106 109 101 113 103 94 99 105 116 109 119 112 106 87 82 79 88 91 93 119 130 118 141 160 161 184 179 159 132 101 119 136 139 145 139 162 148 140 141 140 141 141 141 126 119 120 121 123 120 120 108 117 120 121 134 137 139 135 139 128 117 125 122 122 113 112 114 108 112 109 116 115 109 117 122 113 112 117 124 130 123 140 132 149 135 113 118 110 120 107 103 111 96 96 92 112 108 101 91 100 110 110 114 112 95 83 77 81 90 98 115 132 123 134 153 156 173 181 158 139 112 107 130 142 132 145 148 160 158 160 154 139 139 136 140 137 133 136 136 131 123 132 118 126 119 124 132 136 137 139 143 144 128 130 134 126 112 108 108 110 107 103 104 107 108 109 115 113 105 108 107 114 118 124 120 126 134 129 117 123 125 128 116 116 112 103 106 112 104 112 93 95 112 117 118 125 95 81 81 90 92 126 129 126 139 156 149 156 173 151 133 113 109 131 142 142 138 150 147 142 157 163 142 137 138 130 136 141 140 144 140 135 133 133 129 133 130 135 135 135 137 143 146 140 137 131 128 126 121 118 108 111 102 104 104 106 105 103 110 110 108 112 104 93 112 116 106 125 125 129 135 125 131 137 132 134 117 116 106 106 117 113 106 103 96 123 122 128 85 83 89 94 112 137 128 141 156 165 142 170 162 141 102 109 126 143 143 142 150 158 146 144 151 141 135 139 137 136 143 146 149 144 140 134 137 136 131 134 137 137 134 133 129 134 132 132 133 128 123 120 119 111 116 113 109 107 110 107 105 107 108 110 110 104 105 95 99 106 111 119 124 121 125 137 137 140 148 149 130 112 111 103 92 117 123 106 111 116 124 126 83 85 101 124 117 146 144 169 172 139 149 170 151 123 105 134 142 153 144 144 158 157 146 146 132 127 139 137 141 145 147 148 145 146 144 145 141 137 127 124 124 127 123 128 120 121 129 121 120 120 117 116 113 101 104 103 112 112 111 113 104 109 113 108 111 104 108 108 106 91 106 112 116 117 123 133 147 145 158 162 150 134 117 109 90 96 126 116 108 110 118 126 86 93 112 131 130 135 169 180 151 145 171 163 132 106 140 146 150 151 145 153 163 151 141 128 124 128 138 131 147 151 150 153 150 148 148 140 140 133 120 122 125 125 120 118 123 116 122 123 115 115 107 113 105 103 100 101 101 98 92 99 103 100 102 101 98 105 108 112 114 103 100 118 118 118 123 137 137 155 150 153 159 154 134 111 94 92 104 107 112 105 103 116 90 99 118 137 144 158 178 158 133 160 156 142 120 117 151 148 152 158 159 165 159 139 132 129 134 138 134 144 149 156 153 155 154 145 138 140 136 131 123 116 121 127 119 122 122 122 120 125 121 115 108 107 109 105 101 99 92 88 86 78 81 84 90 88 88 92 99 109 118 117 108 105 128 128 130 148 147 147 153 147 152 161 152 124 107 94 103 92 106 112 95 108 86 97 121 131 168 179 150 140 151 161 146 121 114 140 164 157 158 160 158 155 150 136 135 142 149 145 145 162 156 160 159 151 150 148 140 142 138 130 125 122 122 125 123 120 125 127 124 128 123 120 114 108 108 106 96 95 83 80 88 75 75 77 85 79 80 87 90 94 113 122 121 105 116 121 135 148 151 145 139 150 157 154 153 137 124 110 97 95 94 113 99 102 96 109 126 138 177 162 120 140 151 146 132 91 129 155 162 160 152 159 166 147 153 147 147 149 156 158 155 157 165 165 158 151 149 142 139 140 138 137 132 132 130 130 132 133 137 132 137 130 124 121 112 114 109 104 100 95 87 89 80 78 75 72 78 78 85 86 87 93 103 114 121 128 119 116 129 148 151 150 134 139 156 161 148 142 136 122 102 101 102 102 98 93 104 123 148 153 167 157 112 129 143 130 100 105 150 155 149 157 161 155 158 145 146 148 146 147 163 169 162 167 166 166 159 155 150 148 141 144 147 143 142 141 141 143 147 144 144 140 138 139 128 119 119 114 110 109 108 101 106 113 98 96 98 96 91 86 81 87 84 93 105 118 121 132 134 122 125 141 157 160 148 136 153 162 158 128 135 128 118 98 101 103 95 85 115 142 155 146 149 141 100 145 142 112 89 130 166 150 138 161 159 149 142 137 142 147 145 159 159 167 172 171 166 165 164 157 150 149 145 143 147 145 141 145 140 143 144 141 137 137 133 135 131 124 118 118 115 119 127 123 131 131 127 122 127 119 117 98 93 93 87 92 103 110 125 129 132 128 125 138 150 171 164 154 149 160 158 142 128 135 114 104 85 99 97 84 126 149 143 138 127 118 132 160 121 90 112 150 160 141 150 167 155 136 135 135 137 138 137 158 148 155 154 159 157 166 167 160 153 146 140 138 136 128 125 118 119 124 134 133 128 128 122 130 127 125 117 115 122 134 145 139 142 144 145 146 150 134 135 126 107 107 100 91 94 101 120 131 130 131 131 139 136 161 169 168 161 156 150 153 135 131 127 112 85 96 98 88 144 124 122 119 107 122 159 144 100 104 121 150 143 140 159 156 156 128 131 133 133 134 138 143 140 150 138 140 146 156 162 157 137 135 121 111 115 116 106 98 102 102 112 115 110 112 112 113 118 118 113 121 138 146 161 158 156 148 156 152 155 149 141 134 119 109 105 104 87 96 112 119 132 129 129 143 137 141 163 182 173 167 153 145 139 135 145 129 118 99 98 92 129 110 107 104 114 130 164 109 105 90 109 136 141 141 160 153 147 128 125 124 130 129 134 134 128 130 122 124 118 125 131 124 116 113 107 94 91 91 89 86 86 85 95 91 95 99 98 99 111 111 114 127 128 140 157 157 157 155 156 152 148 144 134 128 116 102 104 106 92 95 105 104 125 133 129 141 142 131 155 199 175 177 172 145 127 134 148 135 124 100 101 88 110 104 100 86 116 135 143 94 90 78 110 132 140 143 134 129 133 105 111 110 106 108 106 104 108 103 100 98 101 103 98 93 87 89 90 80 80 74 74 75 82 78 81 91 85 85 90 91 104 110 118 123 124 130 141 147 146 148 142 139 136 137 130 120 107 99 92 97 92 80 96 99 107 122 127 130 149 130 144 185 198 185 180 156 129 135 148 140 127 111 102 105 89 103 103 91 103 137 127 99 90 67 115 139 144 130 111 123 118 97 98 87 80 86 85 94 90 85 87 87 89 84 83 76 80 85 83 75 70 68 57 54 69 71 71 79 77 80 87 82 98 104 105 110 110 111 125 131 128 131 130 126 124 121 117 113 97 90 78 72 82 82 89 97 96 119 124 126 144 132 134 161 209 184 172 162 141 146 132 129 134 125 102 106 98 107 100 94 95 124 118 94 77 97 116 140 137 121 109 116 104 94 85 70 73 79 86 86 81 74 79 92 94 92 88 82 82 77 69 63 65 61 54 49 53 67 60 72 78 82 80 74 89 97 97 100 103 94 104 105 103 98 103 102 105 104 102 97 85 71 70 59 68 78 83 82 86 106 126 133 144 131 123 149 185 184 162 164 153 148 136 125 123 131 106 95 108 125 97 96 88 103 102 84 96 99 114 134 137 118 124 119 104 98 94 75 71 74 82 79 77 88 109 109 102 96 92 84 81 74 68 65 64 63 62 64 65 67 70 70 87 80 77 68 88 87 90 92 79 80 83 84 77 77 79 88 95 92 81 83 83 75 70 63 60 67 77 88 70 88 121 136 138 141 123 145 161 179 162 171 148 150 145 128 120 111 107 77 130 119 106 92 86 81 107 93 98 94 108 142 140 125 121 111 111 104 107 93 85 72 78 76 101 103 109 98 98 98 98 94 88 83 77 76 70 68 72 74 80 79 83 82 97 94 85 78 83 85 83 77 65 67 67 69 63 67 63 63 70 77 73 79 83 82 88 77 71 77 75 83 66 77 110 135 137 147 125 138 164 168 165 173 159 149 139 119 117 104 103 77 135 105 111 86 74 87 104 114 92 99 106 142 127 126 117 123 120 122 112 113 103 84 105 113 113 107 97 93 90 95 99 102 97 98 92 85 87 78 76 85 88 90 95 99 105 111 93 98 99 92 95 76 68 65 68 70 67 73 68 64 72 71 69 75 77 82 94 92 81 81 79 78 76 71 94 130 125 136 137 128 149 161 161 161 150 153 133 117 116 105 92 88 116 107 105 76 68 85 94 105 98 106 115 137 122 126 127 142 130 138 134 131 121 111 122 113 102 101 103 100 96 98 105 102 106 112 106 110 107 101 102 100 104 104 107 108 115 119 108 106 104 103 100 92 90 86 91 87 90 87 84 81 77 72 68 71 70 74 85 95 95 97 86 82 78 79 82 117 116 126 137 129 141 155 166 159 159 154 141 109 105 95 90 79 103 98 94 66 70 87 91 112 119 105 124 134 133 130 146 160 139 135 135 142 136 137 127 126 121 117 119 107 103 107 109 108 109 112 121 120 119 121 125 124 118 120 119 123 127 128 110 108 106 111 110 114 116 109 105 101 104 95 88 95 91 88 84 83 79 78 84 86 97 114 108 97 82 82 82 102 98 114 136 131 138 142 148 149 165 146 118 106 91 83 90 77 82 101 92 67 76 85 84 119 113 116 133 131 128 144 167 165 141 153 151 166 165 161 148 140 138 129 129 129 117 115 110 119 119 120 115 106 104 104 111 126 113 111 114 118 126 115 112 116 120 120 120 123 128 122 113 112 111 109 102 105 104 105 92 101 97 90 96 87 90 102 127 118 99 84 82 97 106 101 119 118 140 142 144 142 164 135 109 91 83 69 88 77 76 105 90 60 73 85 98 127 105 119 134 112 134 161 175 170 157 166 174 155 159 148 138 131 126 129 124 124 120 123 123 134 135 114 110 101 102 108 110 116 117 120 131 132 138 138 127 137 134 140 130 130 125 123 122 115 120 115 118 121 123 124 118 113 115 121 110 109 97 94 113 128 123 107 91 97 100 97 109 106 132 149 145 134 147 143 113 93 81 65 81 69 87 109 86 51 75 82 109 112 104 119 114 104 149 159 178 177 172 173 167 145 158 139 131 135 130 126 122 118 117 115 113 124 127 125 125 127 121 125 126 139 142 148 143 142 146 150 150 150 152 147 140 129 131 126 127 119 122 130 126 129 138 134 128 134 137 142 137 131 122 115 116 122 130 127 107 92 90 92 99 101 115 152 138 128 131 157 108 78 73 69 78 69 98 103 81 49 65 89 105 115 100 105 99 116 150 169 177 180 174 188 140 148 154 134 136 137 143 141 145 141 159 148 137 155 143 158 160 155 156 149 146 153 151 155 159 157 158 158 161 161 156 149 133 125 123 119 124 121 122 123 130 142 149 146 141 147 155 159 152 148 142 137 124 115 118 133 123 116 100 91 99 91 101 143 130 118 127 143 109 74 60 66 80 83 92 94 70 37 64 93 93 119 87 87 105 125 165 160 176 180 171 142 136 167 153 136 136 151 156 159 158 187 194 196 173 157 153 155 154 157 157 157 154 161 158 157 165 157 159 156 155 155 146 135 126 118 114 116 116 123 126 128 133 144 152 160 156 160 160 170 165 158 154 147 140 120 120 120 114 110 114 108 102 105 103 127 112 102 118 130 100 69 66 60 71 91 80 80 69 40 60 80 87 113 80 79 104 99 153 155 177 176 169 155 181 178 138 135 143 147 158 163 169 179 197 201 193 180 161 164 158 161 162 168 161 159 161 156 159 154 153 148 142 146 141 126 125 116 115 115 120 125 127 134 135 142 156 157 153 158 159 155 161 166 154 155 149 142 120 125 112 99 103 111 110 92 97 117 108 103 103 118 95 56 68 61 73 84 71 81 78 62 68 64 79 104 71 64 58 91 147 173 165 166 143 143 152 140 133 131 151 150 160 159 158 176 182 191 185 169 164 165 162 161 165 160 158 156 158 155 150 150 151 146 139 145 141 122 127 117 118 120 124 128 132 142 137 144 149 148 149 146 151 148 145 144 134 142 150 137 132 124 129 120 119 114 130 108 88 76 95 108 104 91 87 61 59 76 66 79 65 69 88 67 56 64 85 85 71 30 67 111 144 160 134 142 130 135 149 138 135 150 158 166 165 161 160 167 170 187 172 166 156 154 150 150 152 147 139 141 145 144 137 141 146 139 134 138 137 125 128 122 125 125 125 132 130 140 136 136 144 135 142 142 145 132 123 121 118 121 134 148 140 130 140 150 140 122 138 138 120 85 78 89 92 86 86 66 65 71 79 72 54 84 79 71 58 87 77 73 16 60 104 104 143 141 130 125 129 144 156 144 152 154 158 158 161 165 164 157 160 166 141 132 130 122 121 122 119 122 128 128 136 122 120 117 127 119 136 143 141 132 139 134 135 142 144 139 130 133 132 135 142 153 148 154 148 148 138 124 130 114 118 133 142 123 126 139 149 126 132 139 128 108 100 77 78 77 91 75 78 75 86 57 59 93 82 80 90 129 81 47 46 85 97 89 144 132 126 117 160 158 156 165 144 133 126 125 133 142 149 153 155 154 146 149 144 139 130 135 135 134 135 142 150 140 152 129 138 142 147 149 143 145 150 155 155 163 161 165 161 159 157 155 180 193 184 180 174 170 169 152 150 138 134 136 129 109 121 135 130 126 123 137 116 105 114 77 60 74 103 88 101 91 74 48 98 110 94 122 112 106 79 88 72 81 88 100 148 124 122 122 154 163 155 161 152 139 143 140 142 147 154 155 158 159 161 159 164 162 156 149 146 142 145 144 152 145 138 127 139 146 158 151 157 156 168 164 163 161 172 175 169 163 168 164 185 198 188 188 179 172 173 163 149 133 136 148 146 132 121 141 148 139 135 137 119 112 130 83 59 94 90 93 113 119 79 52 97 131 126 131 89 76 98 124 103 61 80 93 135 121 141 116 153 170 153 152 148 158 146 144 141 150 148 166 152 154 158 174 162 160 168 150 145 139 163 147 146 142 131 118 111 130 135 151 164 162 174 172 175 172 165 160 160 151 143 150 157 161 169 165 173 165 156 163 159 144 136 140 139 128 108 118 124 138 136 138 100 113 130 144 84 85 76 94 139 120 80 53 67 115 124 103 73 81 116 129 149 92 101 115 117 94 124 98 144 155 134 165 155 158 150 144 156 163 169 170 159 164 163 174 173 166 175 146 151 133 162 155 149 128 121 112 104 118 122 134 161 171 174 173 172 181 152 149 135 132 127 129 128 130 142 139 157 146 132 139 141 138 128 121 120 118 108 111 122 129 132 158 132 118 121 145 115 94 81 123 127 115 90 56 67 85 130 97 96 114 116 116 163 104 105 98 114 86 101 95 133 132 136 165 168 162 163 170 195 186 184 179 179 179 171 171 178 160 157 133 143 139 144 140 119 104 95 89 94 94 114 126 141 155 158 154 147 145 121 132 120 116 116 98 119 142 133 115 135 116 113 120 123 98 113 105 109 99 102 116 119 117 124 149 149 147 150 143 128 109 91 133 126 118 70 63 70 66 128 118 158 146 146 143 136 106 80 88 137 98 109 89 107 99 138 153 171 181 174 182 179 185 187 181 169 169 168 152 145 160 120 127 97 110 106 96 97 87 73 62 68 70 90 110 124 142 139 136 125 135 109 98 108 108 101 97 118 124 132 139 122 124 107 100 110 103 80 95 103 79 88 97 107 101 115 139 148 126 146 112 127 91 68 104 135 126 76 64 62 48 139 143 191 199 194 188 144 98 75 78 97 94 108 82 85 91 149 147 154 176 173 161 158 180 177 166 148 156 137 123 111 132 111 123 114 109 115 101 65 62 47 40 40 40 72 133 113 131 140 133 127 136 122 92 109 121 99 109 119 134 136 154 138 134 128 105 94 103 106 79 90 93 88 88 73 92 97 131 136 128 127 85 80 99 72 80 94 146 106 82 47 64 147 143 166 197 216 178 134 101 89 84 101 98 109 118 108 122 154 144 142 155 157 143 135 149 134 138 134 130 104 91 111 88 92 118 104 125 117 101 77 57 51 22 16 27 57 111 90 103 114 129 118 133 140 101 87 100 102 109 121 120 125 148 157 138 138 137 131 127 107 93 69 115 100 72 53 57 88 124 135 158 121 93 87 94 109 82 104 141 123 76 43 68 145 152 167 167 179 143 130 104 90 88 106 115 125 103 88 125 158 144 119 144 147 139 149 161 153 150 151 140 105 89 102 79 97 122 91 93 66 68 73 57 42 14 16 34 61 98 106 109 92 135 128 117 130 95 84 71 98 95 117 127 126 143 142 136 135 185 148 133 129 122 84 126 124 92 73 62 90 117 138 168 122 102 84 84 127 107 117 145 147 86 63 93 117 148 169 146 142 130 113 84 73 79 105 101 111 85 57 122 142 154 124 138 134 146 159 166 148 148 147 128 99 77 85 88 110 113 96 90 55 69 68 40 30 5 52 65 59 93 138 146 120 155 152 134 133 90 75 53 87 85 111 123 128 149 134 139 145 176 145 135 133 135 91 129 105 82 97 82 82 112 126 179 147 115 75 66 134 103 134 157 141 113 79 119 74 139 188 152 138 147 99 76 73 90 108 99 88 96 58 100 116 134 97 129 141 149 153 178 157 144 137 134 122 119 119 97 141 107 107 92 98 100 95 60 43 35 85 93 83 97 135 132 146 140 155 154 169 136 108 78 74 103 96 100 118 144 145 145 186 160 172 138 126 134 91 110 94 75 87 76 71 92 120 172 140 98 66 62 146 118 105 170 136 125 76 142 85 147 212 179 128 145 91 98 90 90 107 98 67 103 55 74 100 94 96 115 130 137 147 174 161 149 157 143 136 139 137 139 173 117 128 130 148 142 115 96 86 98 94 105 105 124 128 144 165 160 127 170 174 157 115 115 80 104 133 126 159 170 177 172 193 167 159 155 116 119 105 110 102 74 87 65 68 86 115 142 132 86 76 78 150 108 95 153 148 102 61 130 103 154 227 193 133 118 83 120 119 88 120 96 72 99 67 75 76 100 93 113 135 137 142 142 147 139 148 129 146 131 128 171 158 131 122 149 148 133 115 117 137 137 108 102 152 162 136 166 166 161 135 164 202 178 134 143 124 88 134 129 153 170 185 194 172 173 154 138 121 114 126 130 115 79 89 82 77 68 107 93 131 106 77 88 148 86 86 130 146 67 47 129 87 175 217 183 161 91 99 133 139 111 102 93 79 86 85 71 57 94 85 120 146 143 142 124 138 139 130 118 116 119 121 136 114 102 120 146 146 137 115 144 151 150 113 89 140 146 145 157 154 152 162 141 199 193 152 133 144 123 110 134 131 165 176 152 160 154 153 121 126 121 127 123 120 77 84 91 84 73 88 91 113 86 69 102 148 75 87 132 138 55 38 139 85 166 196 176 172 97 92 137 147 146 102 95 84 104 96 91 88 91 112 127 151 160 154 143 136 150 147 120 108 93 118 111 89 98 125 128 130 115 105 162 160 164 109 114 132 149 175 167 152 108 172 154 166 184 162 119 140 137 119 116 152 159 164 165 164 156 163 134 133 121 113 113 130 83 90 93 91 77 72 117 124 54 128 116 120 81 80 136 140 62 34 145 98 139 180 157 157 123 81 136 152 128 116 97 101 105 108 102 108 115 146 142 143 144 145 157 143 133 115 103 134 107 114 91 100 120 148 154 157 123 104 151 154 141 125 120 137 152 172 163 149 105 141 145 141 152 173 126 124 139 134 124 148 166 173 179 164 161 155 142 135 136 127 126 137 115 97 95 88 83 87 133 126 88 147 113 133 120 100 152 118 80 19 123 117 137 171 164 132 118 104 123 163 145 120 135 119 118 118 119 139 163 182 181 171 162 184 165 140 102 87 125 146 144 90 127 147 169 164 183 164 139 125 127 172 145 143 153 158 167 161 140 146 128 116 138 114 154 138 132 118 139 157 143 155 150 166 158 152 156 143 128 135 156 135 135 140 131 94 84 77 101 112 128 137 121 137 126 165 130 108 170 96 82 20 101 84 140 146 180 122 138 119 150 129 131 148 136 131 120 113 126 139 164 202 205 201 184 180 165 158 143 151 147 146 132 107 147 157 164 156 185 149 136 128 148 143 140 145 142 161 162 160 127 117 129 91 126 131 135 137 135 114 120 130 132 151 153 142 129 121 124 119 120 144 143 127 139 134 114 78 75 86 99 127 156 130 116 134 150 178 114 118 157 78 63 50 76 63 145 165 184 145 134 121 144 154 120 136 135 137 133 122 122 136 135 152 170 176 169 170 158 151 151 152 146 140 130 124 145 157 155 145 172 149 141 124 135 128 117 130 139 158 166 167 136 120 136 115 128 145 147 121 128 123 124 132 139 144 155 142 140 136 139 132 137 148 138 135 138 123 101 75 77 85 86 132 144 113 154 138 165 165 118 127 149 59 46 59 86 74 122 156 193 165 148 144 133 147 134 133 131 130 147 128 127 138 148 156 165 172 168 160 148 136 143 156 162 148 133 141 161 170 173 165 170 149 141 121 120 120 131 124 134 148 152 133 131 133 124 133 136 145 158 144 131 135 123 134 139 146 146 146 142 140 132 122 132 142 131 129 121 115 78 65 70 87 82 130 135 148 167 144 162 157 105 142 130 59 38 62 99 84 83 133 189 176 142 121 148 128 129 124 125 127 139 141 136 140 160 163 171 166 162 150 137 146 160 162 154 138 142 154 153 166 165 166 159 137 129 118 116 128 132 121 146 173 157 142 144 136 117 114 124 135 131 157 137 129 149 143 134 131 145 138 127 119 113 116 124 129 133 137 111 107 76 74 82 91 85 143 147 189 184 151 147 144 116 134 102 42 54 61 103 76 45 124 179 172 144 119 123 109 102 124 114 118 127 138 133 138 136 149 162 160 159 152 150 140 147 144 136 138 137 157 162 166 161 149 123 113 109 119 126 134 137 147 153 175 176 150 134 135 120 90 101 122 113 151 150 119 149 152 132 136 139 153 135 114 108 122 119 123 134 122 115 93 76 78 83 98 92 123 160 204 190 166 150 149 123 125 67 41 71 55 111 109 77 143 174 163 131 123 110 103 97 108 116 124 130 139 146 142 149 152 154 158 146 138 141 146 148 144 147 145 162 171 166 160 148 118 107 107 110 117 132 128 127 143 162 166 165 152 128 109 110 98 91 90 106 119 137 126 128 143 140 133 146 134 126 132 124 115 125 131 124 124 112 90 78 81 82 91 93 141 173 187 180 197 160 144 137 117 61 48 67 66 123 123 76 137 163 162 129 119 120 104 110 104 108 114 127 130 138 148 146 145 148 152 146 151 149 153 164 153 154 155 162 161 162 149 137 126 112 113 105 122 130 133 118 119 155 156 151 139 116 96 99 93 96 78 83 100 122 122 123 122 144 135 130 127 128 132 120 130 128 130 138 130 115 94 86 82 88 86 115 153 180 180 173 179 139 145 113 123 66 44 61 73 101 105 86 132 152 159 144 124 112 106 88 99 102 112 123 131 135 150 146 146 148 147 148 142 134 133 137 140 144 146 149 145 160 153 138 108 97 107 109 127 131 123 110 115 136 139 133 115 101 90 87 88 74 81 107 127 140 140 126 132 133 138 153 131 124 124 121 113 116 124 128 121 112 94 86 83 80 95 111 140 157 191 170 146 139 129 101 112 69 59 50 59 92 98 64 137 157 134 134 118 109 109 79 94 105 118 122 122 133 135 142 144 146 141 127 130 125 130 130 127 132 130 127 129 133 122 114 103 98 95 106 131 131 116 109 111 115 130 120 105 81 72 76 53 42 67 90 126 147 148 131 136 122 127 141 139 140 141 133 127 117 111 109 103 93 87 85 81 83 86 114 130 144 181 162 140 143 117 109 118 80 62 46 62 77 101 67 124 158 97 82 78 95 86 77 87 104 119 120 122 132 129 135 140 140 127 109 114 113 117 121 122 132 123 111 126 124 113 112 100 85 87 98 121 124 127 125 126 122 119 119 83 72 67 63 39 29 61 82 113 132 133 126 127 125 116 135 138 142 134 130 132 119 113 106 101 94 90 81 80 72 76 96 124 144 175 148 132 141 108 115 119 64 57 59 107 88 86 72 100 140 80 56 62 63 73 78 85 101 112 118 118 122 132 135 144 128 117 103 87 97 103 101 104 110 111 113 121 119 116 105 89 87 87 96 113 106 124 135 130 131 138 125 96 82 73 63 42 31 58 79 91 117 125 123 117 124 121 128 128 135 129 124 126 112 99 94 88 78 77 74 69 67 78 102 136 154 157 128 137 134 92 128 109 50 55 64 108 112 94 69 72 121 77 46 51 63 75 83 78 98 115 119 121 117 131 138 128 123 121 115 90 94 105 92 87 89 94 91 104 110 100 75 74 78 87 91 104 110 107 119 130 130 133 127 109 85 86 75 57 49 51 80 90 103 125 124 108 108 121 122 130 125 120 112 111 100 86 81 70 65 63 63 67 67 84 108 136 145 142 127 140 122 96 123 114 40 64 68 117 114 106 99 77 111 89 62 53 62 73 87 85 101 116 130 121 118 133 133 123 122 108 118 91 96 95 80 74 88 97 94 97 97 78 63 79 77 79 85 84 97 94 102 107 114 107 108 101 86 85 84 63 58 60 80 102 105 130 133 127 112 116 123 122 127 117 108 97 97 81 73 64 56 57 60 75 69 93 107 127 135 143 140 143 122 101 112 112 46 64 71 116 107 117 112 109 116 103 84 83 67 78 85 101 112 113 123 120 123 134 127 123 129 122 119 97 94 85 71 71 86 96 96 99 79 65 73 79 73 74 69 60 79 76 75 77 85 82 80 78 66 71 85 86 82 85 87 106 108 123 135 130 125 125 125 118 124 117 104 91 92 81 71 67 67 66 71 78 79 101 109 118 131 130 136 128 124 114 111 117 46 62 70 114 99 117 121 119 135 107 85 92 74 77 80 94 108 114 122 128 127 130 129 128 133 125 121 99 90 87 79 83 87 87 90 86 76 73 77 79 63 77 86 82 89 90 76 62 65 55 59 63 62 70 95 98 110 111 115 114 110 122 138 137 137 134 125 127 124 111 101 93 90 94 77 66 78 76 76 81 93 105 107 104 125 114 124 139 135 118 106 107 57 53 68 126 100 117 111 103 149 131 102 94 79 85 81 79 104 120 134 135 132 137 137 137 143 136 119 98 92 93 87 90 82 92 89 71 70 70 77 90 88 95 113 113 112 101 88 72 71 65 57 61 70 69 81 98 113 123 123 120 114 133 144 142 140 142 122 125 131 114 111 97 102 103 79 71 84 82 92 84 99 102 96 104 120 118 132 135 143 109 112 112 55 51 60 132 118 119 126 87 142 132 122 111 109 95 94 79 104 124 134 141 144 142 145 142 145 146 133 114 101 94 80 88 89 83 74 71 77 73 86 112 122 119 140 133 123 117 102 95 85 81 74 70 79 78 78 86 93 109 101 113 133 147 148 141 138 126 111 116 122 118 109 99 110 105 86 76 90 88 94 92 103 98 97 106 115 124 121 116 114 91 128 112 44 54 70 140 128 124 146 117 133 119 141 137 120 100 96 85 99 122 135 135 143 148 149 147 150 145 146 133 120 99 93 84 73 61 59 76 94 92 110 115 124 122 132 124 117 108 101 99 88 83 94 97 104 107 103 105 106 97 89 125 135 161 145 138 127 118 104 103 108 119 114 109 115 107 88 79 95 92 95 99 106 100 101 104 136 121 125 117 106 111 129 89 45 59 83 132 136 136 149 134 132 105 133 147 124 106 103 82 94 122 135 138 148 160 155 162 163 155 144 150 124 111 111 77 68 52 56 86 102 109 130 127 116 107 107 102 100 104 102 113 115 113 114 114 127 137 130 118 109 88 86 106 129 149 132 125 117 111 103 101 104 109 116 113 113 97 88 90 107 104 106 108 114 115 107 130 145 115 104 112 128 137 141 63 46 58 90 122 134 141 147 138 138 111 104 145 126 122 111 92 97 115 124 139 151 156 160 168 166 160 146 143 133 129 116 79 64 56 76 89 102 119 134 137 124 114 104 113 113 117 109 128 146 147 135 132 134 137 124 117 102 93 82 96 114 122 116 116 111 121 109 106 92 102 116 118 116 101 96 105 117 110 114 111 114 114 115 137 133 100 83 90 135 132 130 59 55 65 88 110 128 139 155 144 134 134 104 132 139 125 121 108 104 112 125 140 150 162 162 171 169 160 147 142 136 132 110 102 84 78 102 102 111 116 142 158 141 130 129 127 132 149 152 154 149 148 133 128 115 124 121 110 91 87 85 95 115 114 109 116 119 128 116 108 97 94 118 119 111 104 102 110 120 122 116 122 116 108 107 143 129 84 74 91 120 129 112 64 71 80 86 121 122 135 152 153 125 142 122 124 126 127 133 119 103 121 123 133 152 152 157 163 165 160 160 146 138 135 119 127 107 104 119 123 105 104 130 135 138 145 149 136 150 149 133 148 145 124 132 122 112 117 113 108 94 103 93 105 125 113 120 106 121 121 113 104 91 93 110 112 99 96 106 111 122 126 117 133 122 108 103 144 113 81 80 104 108 126 94 58 81 96 92 136 129 132 146 155 136 138 125 113 115 113 136 119 112 128 119 128 146 147 153 158 158 152 156 146 140 134 124 122 122 118 114 116 97 80 93 95 124 137 161 141 156 132 121 125 119 105 113 119 148 129 114 106 91 104 97 94 107 104 103 109 120 112 96 82 76 85 99 102 89 94 101 113 121 117 121 135 121 104 112 136 105 79 102 104 120 137 80 69 81 92 96 140 141 140 149 150 147 146 137 116 103 105 120 123 127 131 124 121 143 141 148 147 151 138 127 110 118 95 95 102 120 112 109 98 89 71 80 77 112 126 132 135 136 108 110 116 125 125 108 115 139 140 124 129 101 120 101 98 101 101 102 106 100 98 83 70 61 87 97 100 96 99 105 116 122 111 134 134 122 104 113 139 113 87 102 121 130 136 74 66 89 87 90 144 138 141 151 156 154 147 149 126 99 94 102 124 122 139 125 118 138 142 147 143 139 123 97 91 98 76 84 102 116 137 123 103 92 76 75 67 72 82 80 66 57 68 90 116 115 127 120 115 143 147 140 145 127 130 125 128 101 114 104 95 94 100 87 73 72 90 105 119 102 108 107 121 125 106 140 139 134 101 131 148 117 100 94 119 133 112 80 67 87 94 83 132 146 139 153 153 162 148 147 143 108 96 100 119 119 130 132 116 126 145 143 139 126 119 91 74 80 84 83 108 113 136 140 116 100 91 79 98 72 66 55 51 55 44 81 103 104 119 124 123 129 144 159 155 151 144 135 125 97 98 93 81 93 104 95 80 90 102 124 125 112 113 119 128 126 115 138 148 122 117 146 156 126 99 94 114 128 86 80 71 89 85 90 125 136 137 140 157 157 146 143 149 130 100 111 109 126 117 128 119 126 144 136 133 114 107 80 66 69 70 78 87 98 107 105 113 100 90 75 98 103 95 80 83 92 73 73 83 75 103 107 104 106 115 129 147 143 108 100 91 98 91 89 83 89 99 101 88 106 116 133 126 122 122 131 130 127 124 149 148 135 138 148 148 126 111 103 119 115 72 76 91 79 81 94 130 128 123 137 151 152 129 166 152 136 109 117 106 128 106 121 120 128 129 134 124 99 89 79 70 67 68 80 83 98 97 89 85 97 96 103 123 118 113 101 98 106 106 84 104 95 87 80 66 80 83 90 95 109 93 99 85 93 95 88 88 87 97 103 112 123 133 138 141 135 137 128 129 131 147 158 152 139 158 148 145 125 108 121 124 96 76 77 98 77 81 95 134 124 119 142 143 142 199 188 148 149 144 130 103 117 126 117 120 128 125 130 123 93 88 85 72 74 74 88 90 95 105 91 107 104 108 122 124 131 117 123 129 129 115 93 101 104 99 98 81 81 77 101 109 111 108 93 83 89 95 93 83 79 99 115 124 127 141 148 152 147 141 137 140 137 162 160 148 158 150 160 159 139 124 122 113 90 83 91 101 82 87 99 137 134 126 134 128 201 239 202 153 152 160 129 96 118 134 124 123 126 125 122 118 104 92 95 87 88 87 97 108 116 123 133 138 132 124 132 114 124 115 125 132 117 119 111 130 143 128 128 131 117 112 108 115 127 120 99 85 91 92 91 83 82 110 125 135 136 146 159 158 142 134 140 142 143 175 154 156 162 146 166 157 140 131 127 101 93 99 95 106 98 95 103 127 132 131 121 166 252 243 205 170 140 154 137 89 103 125 129 125 120 125 111 107 112 107 106 112 99 93 102 117 133 138 152 148 147 145 132 122 125 121 124 127 108 110 103 107 145 139 127 131 133 129 122 122 135 112 102 96 93 91 91 81 96 112 125 130 146 160 159 156 138 129 148 133 158 172 146 161 156 155 162 153 132 128 117 87 100 115 106 112 112 103 104 135 130 121 145 228 247 230 211 164 136 150 137 80 88 127 133 121 113 119 122 124 128 131 126 120 113 93 97 112 129 153 162 147 136 138 131 122 120 111 114 103 99 86 102 99 133 133 158 154 138 138 123 121 137 127 112 108 96 93 92 95 99 112 125 136 146 160 162 160 143 132 146 140 171 162 136 163 148 166 157 161 123 119 107 80 106 114 114 115 127 114 113 136 121 127 207 234 236 233 235 191 119 136 137 83 82 118 125 116 108 119 123 133 140 139 131 125 120 116 127 130 155 165 182 183 166 158 145 140 131 131 123 116 123 103 101 98 131 107 132 132 148 140 119 118 135 116 109 102 99 91 96 101 106 115 131 137 150 162 169 157 145 146 144 159 168 136 122 148 148 164 163 162 130 103 85 88 111 119 117 115 136 120 122 130 116 183 242 243 238 244 247 194 101 138 117 88 79 106 126 124 108 117 120 128 132 138 124 121 115 119 126 136 151 154 175 179 174 164 153 152 149 148 139 153 152 150 151 140 153 157 154 149 144 143 121 114 113 112 102 102 101 100 103 108 113 126 139 140 154 165 162 158 154 152 155 162 166 106 122 124 156 155 147 154 152 112 93 94 121 114 113 118 129 125 127 107 152 236 255 229 235 245 243 179 98 120 96 83 95 89 139 131 104 107 114 130 130 128 122 116 105 108 115 123 127 129 140 142 142 143 146 130 125 121 125 132 137 154 162 155 151 144 151 137 140 128 126 109 115 114 109 105 96 108 110 120 122 135 144 150 157 169 158 161 155 159 164 179 161 93 117 118 143 134 127 128 149 141 125 100 122 113 119 114 124 129 137 149 197 237 249 230 201 236 214 158 89 105 100 94 85 92 149 154 95 111 117 126 135 132 118 118 104 104 108 113 112 124 119 115 124 135 127 115 99 85 85 87 87 94 114 106 105 108 119 110 117 112 114 107 109 103 99 109 106 108 112 123 133 147 161 162 167 167 163 163 162 167 168 187 149 88 112 119 139 112 104 99 120 165 149 102 106 113 103 117 123 122 131 199 196 231 253 205 173 209 201 148 101 84 101 85 80 133 149 158 88 102 121 120 130 133 127 121 114 107 107 108 106 112 109 109 115 128 117 108 102 89 86 80 87 85 83 81 77 79 87 89 99 99 100 99 95 94 104 110 114 114 123 134 146 160 178 172 176 165 167 168 167 178 149 178 170 97 110 107 117 100 77 61 91 136 170 107 97 88 98 100 113 103 118 195 187 220 246 183 161 213 201 139 94 70 89 88 132 155 136 153 90 93 119 123 121 135 137 135 125 128 111 111 109 94 103 93 103 111 115 106 104 92 85 81 82 84 84 77 78 77 81 80 86 88 85 89 89 100 105 108 114 127 136 150 155 173 182 172 180 164 173 169 169 179 129 158 159 127 128 107 117 67 51 43 108 109 151 163 94 68 75 84 86 92 97 160 169 205 210 155 147 192 195 105 87 90 69 123 153 153 136 136 102 81 105 123 116 137 140 144 140 134 133 125 120 106 99 98 99 114 108 105 98 90 79 80 74 72 72 71 67 71 79 74 82 80 83 86 92 99 109 112 109 133 144 158 164 174 185 175 182 178 167 161 167 173 124 129 154 135 137 112 132 58 31 41 108 101 125 160 150 66 62 68 76 88 88 152 180 197 190 139 136 169 168 93 82 83 88 110 176 150 136 125 120 84 78 121 124 131 145 155 156 146 152 140 140 125 123 117 118 129 127 127 119 106 101 92 82 68 59 66 62 67 70 72 76 80 90 91 94 96 100 108 109 135 147 156 162 169 174 181 182 174 159 149 163 172 128 120 140 137 144 120 141 73 13 38 113 92 104 136 170 111 68 62 70 79 82 173 182 195 174 139 137 172 142 68 75 104 85 101 184 154 138 111 130 101 83 99 117 128 146 165 168 164 157 164 151 154 145 146 137 144 143 146 146 140 124 114 106 90 75 74 73 71 72 74 82 86 93 96 105 103 112 113 122 145 158 166 179 169 177 188 175 152 151 145 153 169 124 106 128 138 136 147 135 50 29 35 121 88 82 112 142 135 90 55 38 65 73 181 175 176 147 153 147 168 100 49 97 145 80 107 181 158 124 90 147 111 107 100 92 115 140 168 178 182 171 169 157 161 150 151 150 146 149 144 162 150 142 127 127 120 112 108 100 94 95 105 107 109 104 105 102 109 113 119 143 158 160 170 174 176 175 172 156 140 141 134 154 163 105 109 118 162 152 156 144 57 32 44 91 83 48 90 126 115 126 74 36 41 51 172 173 161 139 142 147 151 78 56 136 151 116 107 167 145 114 88 135 129 123 110 79 89 134 167 177 191 185 174 162 158 151 149 143 140 149 135 153 156 147 138 136 128 128 127 120 114 119 112 111 116 109 103 107 120 124 137 145 164 155 167 169 174 166 157 135 136 132 130 145 133 102 114 105 174 152 161 154 50 56 46 58 76 21 42 93 121 113 116 77 68 54 157 169 144 131 142 156 132 51 94 157 167 145 129 142 139 90 107 136 139 136 120 94 74 100 145 168 188 196 182 170 172 158 148 141 126 126 130 140 133 128 126 119 123 127 122 121 112 119 99 94 97 99 100 108 111 122 134 144 161 156 176 168 156 162 139 122 123 131 141 118 112 95 121 128 171 172 176 139 58 64 77 76 94 52 43 80 126 116 124 103 97 104 159 157 131 138 143 157 109 43 143 166 200 157 136 153 103 51 117 136 142 131 113 93 89 87 109 140 171 190 185 180 178 162 151 144 125 114 115 124 117 120 122 111 114 109 116 116 108 100 90 88 94 96 99 107 107 115 137 147 153 160 160 152 151 143 122 111 111 132 122 108 86 67 125 152 171 200 162 130 67 71 92 94 109 86 62 80 128 136 102 123 99 110 162 154 151 135 142 148 97 101 187 189 181 179 141 151 91 35 92 141 148 128 120 96 89 98 100 116 135 160 181 180 185 176 154 151 130 121 119 125 114 122 118 117 111 105 98 97 92 90 78 84 84 98 97 102 106 117 142 153 150 143 148 139 139 122 107 101 108 123 94 103 88 56 136 172 174 193 142 122 82 104 98 111 116 107 74 66 111 141 106 106 108 104 140 150 123 97 144 162 96 137 197 179 207 186 154 150 89 31 76 116 150 133 121 99 86 99 103 107 110 133 163 172 179 182 170 158 144 130 132 121 123 123 130 122 118 114 102 94 80 89 86 96 87 92 101 103 120 126 143 140 140 141 133 123 114 105 93 90 98 112 85 95 89 80 154 172 179 143 129 100 119 134 122 98 123 121 96 77 92 129 120 81 95 90 88 94 76 64 135 139 79 118 176 201 240 142 188 141 89 37 67 84 118 143 116 104 84 92 107 105 101 114 130 151 164 178 176 175 156 147 137 129 137 126 121 130 122 124 116 108 101 102 94 106 98 87 99 104 124 131 142 131 134 119 115 97 97 97 91 88 88 99 86 99 93 126 151 173 165 110 95 87 121 147 145 112 131 130 106 75 94 122 124 91 101 118 85 88 26 28 100 100 45 128 184 233 230 120 226 136 109 52 66 85 92 115 128 94 87 93 104 106 106 109 114 124 142 156 165 167 163 160 148 144 140 146 136 142 140 138 139 133 126 129 113 120 113 111 116 128 129 136 135 134 116 103 96 94 97 105 86 76 86 96 90 105 99 151 156 172 140 109 76 64 104 165 168 114 147 155 129 100 103 136 147 142 157 192 69 66 4 28 86 77 59 152 199 231 171 129 209 144 136 77 78 78 88 95 119 101 81 91 108 107 105 108 105 124 127 130 147 151 161 161 160 155 147 150 157 155 149 151 150 147 141 145 144 135 128 133 135 133 135 131 125 108 99 90 92 99 107 102 76 87 99 98 115 101 132 163 173 146 125 99 72 74 90 119 189 127 159 172 132 98 84 123 152 172 148 188 69 34 0 33 70 66 62 138 186 210 106 162 183 145 168 102 107 103 86 89 105 106 81 95 86 113 109 106 105 119 126 134 141 143 141 149 154 160 154 147 148 154 146 145 147 150 145 147 151 141 142 133 126 136 139 126 114 107 103 100 100 107 106 94 86 102 104 116 133 96 149 155 168 126 100 87 60 77 97 77 127 132 156 189 143 118 67 105 146 185 165 153 73 36 41 91 79 73 44 118 161 166 101 190 174 144 158 128 111 126 92 75 95 106 93 91 74 105 110 102 100 108 111 126 138 139 143 147 151 153 153 146 153 156 152 154 154 155 150 148 152 145 136 133 137 143 128 115 113 110 112 113 104 108 101 102 93 110 107 119 131 85 132 147 161 110 87 70 73 65 81 61 81 87 141 163 165 141 106 118 182 203 179 148 51 31 63 66 65 55 45 118 179 138 123 181 180 165 137 148 103 123 105 77 91 108 98 91 79 99 103 95 104 99 108 113 123 134 138 140 141 143 143 144 144 154 144 148 151 144 143 142 137 135 133 133 136 132 119 119 125 116 114 110 106 109 104 102 101 111 98 115 111 95 117 133 151 113 73 58 87 52 66 45 75 87 102 125 160 156 134 114 167 230 219 129 