P2
92
112
255
153 153 152 153 153 151 153 149 153 150 154 154 151 143 151 149 146 144 146 151 144 131 132 144 139 133 138 144 151 158 160 153 160 162 159 162 160 165 168 160 154 152 154 152 147 148 143 140 132 125 120 121 123 123 128 133 132 135 135 136 138 137 141 139 148 143 151 161 158 158 150 143 142 140 136 131 126 128 128 133 137 139 135 148 143 151 146 146 152 148 153 152 154 155 152 154 153 152 151 156 152 153 155 149 149 143 147 143 149 144 143 135 132 132 130 132 132 144 152 155 165 167 166 169 169 167 169 158 160 158 159 159 161 164 161 159 153 147 148 150 141 141 141 136 135 137 141 141 139 138 139 131 138 143 136 134 143 151 150 156 163 163 162 157 144 144 146 140 134 129 131 132 132 137 134 140 141 146 148 148 149 149 151 153 156 154 154 154 154 152 152 156 156 154 154 148 149 138 141 140 139 129 121 130 139 137 142 147 145 154 164 173 181 173 165 169 165 161 164 164 160 161 164 159 159 163 160 158 153 151 159 159 153 152 151 148 149 149 150 150 151 148 146 138 139 143 138 139 142 149 157 157 160 166 161 164 149 149 152 151 145 138 136 136 128 134 141 142 141 141 147 147 148 148 151 149 153 156 156 152 157 155 157 157 157 154 148 145 134 135 135 134 123 121 133 140 150 149 147 149 149 163 162 168 176 164 164 165 163 160 157 158 162 159 155 156 154 156 159 151 151 151 158 158 157 154 159 160 162 160 155 154 157 157 153 151 149 146 149 144 147 149 155 157 160 166 165 165 163 154 157 153 154 151 142 137 134 132 139 147 142 142 145 151 148 148 153 149 158 157 156 159 155 157 160 157 156 154 144 132 134 128 125 117 129 141 151 149 157 152 153 155 158 158 155 157 155 155 158 162 166 160 154 146 151 148 151 145 139 145 150 147 144 151 145 151 155 160 161 162 165 167 159 156 164 160 164 162 156 154 152 148 154 144 147 148 166 171 169 163 168 169 160 152 155 157 150 143 139 136 137 143 150 146 147 151 149 148 153 154 159 158 156 157 156 161 156 158 155 149 132 123 127 121 122 118 136 149 155 156 164 163 166 165 156 156 150 146 149 150 153 150 155 158 143 151 144 142 147 147 142 137 141 142 146 148 146 145 145 150 155 158 162 167 165 160 155 156 154 166 159 158 155 152 156 155 153 147 150 164 167 160 170 179 163 159 157 154 150 147 144 143 142 143 149 150 150 146 149 151 151 155 155 156 156 155 156 161 154 152 151 134 115 118 126 125 133 127 140 155 148 153 170 170 167 163 156 152 158 159 162 164 157 147 155 145 139 134 134 139 142 141 142 139 143 140 139 147 146 144 145 143 147 151 159 160 162 164 162 158 154 158 159 159 161 159 153 158 159 158 154 159 162 163 169 165 164 163 164 158 147 150 145 141 142 145 146 150 155 151 149 150 154 152 154 158 159 155 155 153 156 147 140 122 118 119 126 130 137 141 146 159 156 164 176 175 170 160 158 163 168 163 162 154 159 148 144 140 144 142 143 142 145 145 148 148 143 141 139 143 142 143 147 143 143 146 153 154 149 156 155 157 156 150 151 155 158 160 152 157 158 166 158 162 166 166 163 169 172 172 166 162 153 156 149 143 146 144 149 152 153 161 152 151 151 155 156 158 154 160 150 147 146 141 132 122 120 128 134 143 143 142 149 152 157 168 173 164 163 160 172 171 162 159 158 154 154 147 145 150 149 152 150 149 150 146 149 151 145 140 141 140 140 140 141 142 139 142 145 148 148 150 150 152 155 149 151 153 155 157 158 163 164 163 162 163 163 165 172 175 169 173 173 164 162 157 158 147 148 149 146 151 156 158 160 154 148 152 156 158 156 151 146 145 140 139 125 126 131 134 140 141 141 144 146 151 159 161 153 156 159 165 166 169 159 162 156 149 145 148 145 148 149 149 151 152 157 151 147 147 149 146 139 136 142 145 141 145 142 148 145 149 148 145 148 150 151 150 158 161 156 160 165 171 166 162 162 164 169 169 159 164 163 168 168 167 164 158 162 148 150 150 149 140 151 153 158 153 149 147 153 154 151 149 146 142 141 139 129 123 133 127 136 135 137 146 138 158 158 150 147 152 155 151 151 158 159 153 151 149 149 149 152 148 148 146 143 146 151 156 147 153 152 145 148 143 139 144 142 144 146 144 148 149 145 145 145 149 152 152 153 159 158 161 165 170 174 171 174 162 169 165 166 154 164 169 164 160 171 154 155 151 147 152 152 153 149 155 156 157 148 153 151 149 149 145 145 142 138 136 126 127 127 134 132 137 137 149 148 157 150 148 154 156 150 148 143 148 151 151 151 159 158 162 158 154 148 144 149 149 148 150 152 156 149 144 145 144 141 141 140 143 146 146 147 150 151 150 152 153 148 159 158 160 170 165 173 175 179 182 183 176 176 173 174 171 163 159 161 162 164 148 144 146 140 149 152 155 152 158 159 154 155 145 148 145 144 147 144 136 131 132 131 134 130 127 139 137 145 143 151 148 151 152 157 146 148 143 143 147 147 145 156 158 159 159 155 156 156 152 152 154 148 149 143 144 144 141 144 144 142 139 139 141 143 147 151 151 152 156 158 163 158 161 164 167 173 175 176 176 176 183 190 183 183 182 178 178 179 160 166 159 159 154 147 142 143 143 154 161 154 161 164 161 157 145 150 148 147 147 136 126 140 141 135 135 135 133 147 145 147 153 148 143 148 155 149 137 146 147 147 140 153 148 158 154 156 155 155 155 151 151 148 149 146 146 143 143 140 140 140 143 137 138 140 141 146 149 150 152 154 158 162 164 165 168 170 176 180 183 186 180 175 176 185 185 190 183 186 185 179 173 163 158 155 153 156 146 132 138 153 167 162 159 159 162 161 155 147 143 149 146 133 137 145 144 133 137 137 141 150 143 151 150 140 145 145 150 140 134 146 148 145 148 154 147 150 146 151 149 146 148 147 145 144 144 141 141 136 137 137 135 132 135 138 138 140 145 144 147 151 154 159 162 166 170 171 174 175 179 180 183 190 184 180 174 180 182 188 189 186 189 188 179 172 165 162 153 157 155 145 134 142 163 161 165 166 165 168 159 152 147 143 142 143 147 149 131 132 141 145 146 148 151 148 143 144 146 138 137 140 140 143 149 151 155 155 148 146 144 152 148 146 149 147 142 142 137 132 131 127 132 131 130 135 139 136 139 139 143 144 143 149 156 162 164 164 169 171 174 176 184 179 178 184 181 180 178 178 173 178 197 190 189 187 177 180 174 164 153 150 153 151 145 141 147 150 162 167 167 169 166 154 143 141 144 149 152 143 130 142 146 150 147 148 150 137 139 135 136 134 137 143 148 143 161 157 160 154 155 148 146 147 144 141 141 144 137 133 129 126 128 124 131 129 128 135 136 138 136 137 140 145 149 152 158 164 165 164 166 160 157 164 171 166 166 165 172 177 176 176 172 168 190 191 189 185 178 176 175 168 156 150 150 154 148 148 150 142 157 168 162 167 170 155 141 140 157 150 145 146 140 147 153 153 150 148 140 137 135 127 131 147 143 147 158 158 161 160 162 160 153 149 148 145 142 145 142 140 132 131 132 133 134 127 132 129 132 131 137 139 134 135 142 144 147 154 156 162 163 162 165 160 154 161 158 160 155 159 160 158 162 166 166 165 168 187 189 187 173 168 166 167 161 155 151 159 151 146 147 151 151 158 158 163 175 152 142 151 159 151 150 151 149 143 152 156 162 146 138 140 127 126 141 150 147 157 159 165 157 158 159 162 155 149 149 146 142 144 144 142 140 139 136 143 138 131 132 138 135 139 135 137 137 135 143 146 141 145 152 152 157 152 155 156 153 152 153 158 148 152 157 157 154 159 160 166 164 175 189 192 181 171 163 163 166 157 150 151 165 148 138 142 153 152 158 169 174 148 148 151 165 149 152 157 144 138 154 157 158 143 141 137 132 145 150 153 157 163 158 165 163 158 153 157 157 151 150 147 142 146 145 144 142 144 142 139 143 138 135 139 138 139 139 137 142 136 139 137 137 138 143 143 148 146 146 150 151 151 150 149 146 148 151 149 146 150 160 158 163 166 180 193 189 175 169 166 165 161 149 149 168 161 140 141 148 155 163 168 173 148 154 152 159 154 149 151 139 144 148 158 147 149 142 134 141 151 160 154 158 161 156 160 162 155 155 159 157 154 148 146 143 145 147 145 146 145 138 137 141 140 137 138 140 140 140 136 136 134 135 134 137 137 138 136 140 143 148 148 153 155 155 151 147 142 145 147 144 143 152 155 156 156 166 179 185 181 167 169 155 158 152 153 165 166 156 144 142 160 165 176 168 150 160 161 162 158 152 146 137 146 153 158 143 152 138 142 149 156 161 161 164 164 155 161 157 160 162 164 154 151 141 143 142 147 146 144 147 142 143 140 140 140 135 135 134 134 137 137 133 131 132 133 133 135 137 141 142 149 152 153 153 160 157 157 151 142 145 142 142 141 145 156 149 153 154 170 172 173 169 162 155 155 152 150 162 165 167 148 149 162 170 174 173 151 159 164 171 162 140 137 132 150 166 147 150 155 143 147 154 166 165 169 165 162 165 168 156 164 168 165 155 148 143 145 145 147 149 146 144 139 141 134 135 136 132 129 131 132 132 133 131 129 128 132 131 134 140 148 150 154 158 159 162 172 164 164 161 149 148 143 139 138 142 150 149 151 150 154 169 162 166 164 156 152 151 147 153 166 175 160 156 156 175 168 176 153 161 171 181 155 139 131 139 162 158 145 154 156 148 152 166 173 168 171 161 164 170 167 164 167 166 161 160 155 147 147 148 148 146 144 142 140 135 131 133 131 133 128 130 132 133 134 134 132 133 131 137 139 145 152 153 156 158 164 164 171 169 167 160 157 152 146 144 134 134 142 147 143 149 147 158 164 157 153 153 148 147 152 150 167 172 166 158 163 168 177 168 154 159 184 176 152 137 127 151 158 157 151 156 150 152 161 175 174 168 172 165 168 173 165 165 166 163 161 159 154 150 146 144 144 140 136 138 137 133 129 129 129 130 132 131 131 133 134 137 138 136 140 147 151 154 155 158 161 163 163 167 170 169 168 162 160 152 149 153 137 130 137 140 135 142 135 146 154 147 149 154 150 149 156 152 172 161 166 158 162 166 176 174 156 162 182 174 149 136 130 155 157 145 153 150 143 146 172 168 165 164 165 160 168 166 157 162 159 153 163 159 152 150 146 144 143 140 135 137 138 139 137 132 129 131 129 131 131 134 134 139 138 137 145 153 158 157 157 158 161 163 164 166 167 167 169 166 163 160 155 152 148 133 132 141 130 132 135 137 149 151 144 149 146 151 156 160 163 159 164 158 162 165 168 179 156 166 175 160 153 131 138 145 153 140 150 143 137 144 165 151 163 160 157 152 158 156 155 154 154 156 157 157 152 149 145 148 148 142 140 137 143 142 142 140 135 136 135 134 131 135 136 138 137 139 148 155 157 158 158 160 161 166 165 167 170 169 171 169 167 165 158 154 151 145 140 138 128 130 134 138 144 153 148 132 145 150 156 165 164 144 161 164 161 165 167 175 151 170 167 160 155 135 139 146 143 141 148 135 139 145 152 149 157 155 152 150 154 152 152 150 159 153 153 151 152 150 147 150 148 145 145 147 147 150 145 144 141 137 140 136 133 135 139 141 139 142 154 156 160 162 164 162 160 166 163 165 168 168 171 171 167 163 162 156 154 154 152 139 129 134 137 136 139 155 144 137 139 152 157 169 147 137 154 160 158 168 166 169 153 155 172 150 155 139 145 137 138 148 139 137 138 150 144 146 150 148 149 151 154 155 150 158 158 153 152 154 152 154 155 156 154 152 154 152 152 151 147 148 144 138 143 139 134 135 139 143 141 152 154 159 161 162 167 165 163 167 169 168 170 166 166 170 168 162 165 159 155 160 154 148 135 132 139 136 139 150 142 141 137 146 155 165 144 135 148 151 157 170 173 166 151 150 168 156 147 146 139 141 143 145 141 138 136 150 144 144 142 150 152 154 154 157 157 163 158 156 158 159 157 157 158 158 160 158 160 152 150 151 148 148 144 142 144 145 141 139 145 147 148 153 157 163 164 163 166 164 166 166 166 164 162 163 162 165 166 162 165 165 158 158 157 153 143 134 137 138 140 145 150 143 136 143 152 161 148 136 140 153 149 165 179 163 147 157 159 160 147 147 149 144 139 138 142 143 143 149 153 149 151 155 158 155 158 165 163 162 163 161 165 163 161 160 157 160 160 158 155 156 149 149 147 148 146 145 148 148 144 146 147 151 153 158 160 165 167 166 169 169 170 170 170 164 165 162 159 160 160 162 165 165 160 160 160 158 152 144 139 142 137 142 151 151 138 141 152 151 156 134 148 152 147 171 164 171 143 152 165 159 150 146 149 142 140 144 149 164 149 160 152 157 159 159 163 164 168 177 172 173 170 169 168 166 166 168 168 170 165 159 161 158 152 145 148 146 147 144 146 145 147 151 154 156 158 161 163 162 163 167 167 168 167 166 167 163 160 158 157 156 154 157 165 164 163 166 164 165 158 151 147 150 137 144 147 152 150 133 143 150 145 134 145 162 158 160 157 173 146 150 175 162 159 145 145 150 149 157 179 176 169 161 156 162 162 167 169 173 178 182 180 180 178 173 172 169 165 167 169 164 159 159 155 151 146 143 148 146 146 148 144 144 148 155 156 159 159 161 162 154 157 158 155 151 151 148 153 151 151 151 155 154 149 152 159 161 161 168 169 165 161 158 149 152 146 148 152 154 153 133 132 154 140 138 149 160 166 144 157 161 150 155 177 163 158 144 155 145 162 182 189 179 176 166 160 167 166 173 177 183 178 179 178 179 179 176 170 164 165 167 166 160 158 160 162 159 159 151 151 151 150 149 147 147 148 150 145 147 147 153 156 151 151 152 146 144 145 142 146 149 146 149 149 156 154 152 155 157 157 169 171 168 165 158 151 147 147 145 157 150 153 139 137 145 146 151 161 163 166 143 162 154 154 155 172 171 156 152 159 148 181 176 184 182 176 170 166 168 170 173 178 179 171 173 176 180 175 170 163 162 160 166 169 166 165 164 164 162 157 153 150 154 154 152 158 155 150 154 152 153 152 158 157 147 147 144 146 140 141 137 143 145 148 150 154 161 162 162 173 162 160 164 168 174 167 163 154 145 148 142 152 144 148 136 139 145 146 152 170 161 177 150 157 157 142 149 162 165 150 156 148 154 160 178 183 185 168 170 168 173 171 171 170 170 164 167 171 167 162 159 157 158 158 155 160 162 163 160 162 158 153 154 153 160 163 167 162 158 158 160 156 155 154 158 159 148 149 146 146 142 141 141 141 143 148 155 158 165 168 168 173 173 168 175 169 181 173 165 161 150 151 146 144 149 139 139 136 152 143 155 171 164 174 162 155 158 145 156 149 156 157 152 137 158 162 186 187 181 168 169 169 164 164 164 165 162 157 159 155 152 151 151 150 152 151 153 158 159 158 156 159 159 160 159 161 163 164 164 164 161 159 160 158 158 161 161 157 150 148 143 141 139 138 140 140 146 147 155 158 166 168 170 170 172 174 177 169 176 182 169 162 163 158 149 146 143 138 134 140 153 151 167 158 169 173 163 158 160 159 165 151 153 160 141 141 158 172 195 184 173 164 167 165 162 161 162 162 154 145 144 140 149 155 153 151 153 155 155 153 157 156 157 164 166 161 163 166 163 163 160 161 157 159 154 154 157 157 158 154 148 143 141 140 135 137 138 140 142 146 152 154 158 160 162 163 169 174 181 175 172 176 172 161 165 167 158 154 158 138 131 142 152 150 170 164 167 171 169 161 176 165 156 161 146 159 133 149 164 174 188 171 160 163 162 160 160 165 158 152 147 138 133 138 142 151 149 150 150 154 153 152 152 150 149 158 158 156 156 159 161 160 158 158 154 156 153 156 156 158 150 149 146 142 140 139 136 136 141 144 145 148 148 145 146 145 148 151 155 161 172 173 170 174 174 168 168 167 161 156 165 145 139 146 156 152 164 165 164 170 170 167 185 160 168 152 141 163 140 157 166 175 179 161 150 168 163 160 159 157 150 147 141 133 131 136 138 145 146 150 154 154 153 153 152 147 148 146 148 149 151 154 156 157 156 153 154 154 155 157 156 153 149 146 143 140 136 138 132 134 138 142 146 146 141 135 137 134 133 136 143 150 161 165 165 167 165 168 167 170 163 156 167 144 140 150 154 161 171 161 167 175 165 177 178 153 161 146 140 156 149 167 171 173 166 153 147 163 164 157 164 154 149 146 143 140 143 147 150 150 147 149 151 153 154 150 148 144 142 141 142 142 139 141 146 151 151 149 151 149 152 156 155 156 148 145 143 138 139 143 143 140 144 134 135 127 128 123 124 120 118 122 128 139 147 151 160 161 159 160 162 160 163 152 169 141 142 152 146 151 171 165 164 166 170 174 185 147 146 147 141 147 161 175 167 166 155 138 130 154 164 173 177 162 163 158 157 159 157 155 160 155 151 148 146 142 138 140 138 137 141 138 139 141 143 139 141 144 142 146 139 142 143 151 153 153 150 148 147 149 143 146 142 145 141 137 136 132 127 128 129 121 115 120 119 134 140 145 147 154 155 155 154 157 152 155 161 157 143 155 143 143 164 164 165 154 170 172 185 133 153 160 152 129 164 168 157 162 125 124 134 158 160 164 159 151 147 143 137 139 135 139 137 136 140 137 140 139 138 142 141 143 144 148 148 150 149 150 151 151 151 152 150 151 151 153 153 152 152 147 147 145 145 144 148 148 150 146 147 148 147 139 134 134 133 127 126 133 147 151 147 147 155 152 140 150 149 152 166 166 158 164 143 145 159 150 149 148 167 175 181 147 158 164 149 122 168 153 145 140 105 125 128 150 148 156 169 166 161 162 152 152 146 148 144 141 141 139 141 140 146 149 147 152 153 157 157 160 156 156 154 155 152 163 161 161 165 163 159 152 156 148 155 151 156 152 150 154 155 154 154 154 151 140 132 137 135 136 137 143 156 154 140 142 142 139 136 142 138 149 163 171 165 177 166 149 154 145 123 141 163 143 164 154 164 152 141 137 160 136 141 128 95 129 132 159 158 153 165 157 152 152 149 151 152 153 148 152 147 151 151 153 155 157 152 154 157 155 158 163 159 159 157 157 157 155 155 160 157 159 154 151 156 151 154 152 153 157 157 160 163 159 153 150 156 145 145 140 145 149 149 149 158 163 151 144 138 127 125 138 131 142 161 179 162 177 174 149 125 120 111 120 149 105 148 164 161 137 137 142 148 136 135 109 102 136 154 159 148 145 141 139 132 149 153 161 149 147 154 162 153 149 155 154 157 165 164 163 164 158 165 165 163 161 159 157 157 151 159 160 154 158 153 147 153 156 159 156 156 168 167 179 178 174 159 154 160 158 148 148 152 155 158 154 153 162 159 155 143 132 124 138 143 140 154 183 163 164 174 133 114 104 102 104 144 103 139 170 151 141 138 134 141 120 127 111 113 135 164 158 141 141 135 138 137 145 153 152 151 150 157 158 156 152 160 157 160 167 163 162 165 163 165 170 166 158 159 158 159 158 167 165 150 158 158 152 155 161 169 170 169 178 183 188 191 189 164 169 164 164 167 172 167 170 169 166 146 155 160 153 150 139 137 143 148 134 155 189 170 156 162 142 113 94 101 88 125 113 138 179 148 150 139 117 144 96 97 114 120 120 158 169 142 146 134 141 147 155 158 160 170 173 159 153 157 164 163 174 176 174 171 161 166 178 175 171 169 161 160 161 164 170 177 170 155 156 160 160 156 160 167 174 174 179 191 198 201 199 182 183 173 172 186 185 178 170 166 168 160 154 160 162 151 145 138 143 138 133 150 194 180 143 158 171 123 76 95 97 115 127 132 183 160 170 122 108 130 101 98 107 121 131 153 160 140 141 135 149 159 154 171 178 171 159 159 151 161 147 160 177 178 168 162 151 153 167 169 166 161 156 162 166 166 166 173 159 152 154 160 160 154 159 163 169 176 173 175 191 192 193 185 184 183 178 183 178 172 166 164 159 160 170 157 160 155 146 148 150 146 140 159 187 173 146 155 158 138 104 105 113 128 129 130 175 170 174 130 112 121 102 85 100 116 126 151 157 167 145 146 160 169 166 165 155 154 150 145 137 136 143 139 155 149 148 136 154 154 154 146 146 140 146 164 166 171 173 185 163 159 157 162 157 158 158 166 169 167 165 159 172 177 166 166 164 159 158 154 164 165 164 155 158 163 169 164 159 165 156 147 148 149 147 153 176 184 158 162 157 135 102 121 118 142 129 136 160 152 167 150 119 117 98 66 88 111 123 141 154 174 168 164 160 164 150 141 132 137 136 125 133 134 122 129 135 131 144 135 146 147 146 141 140 138 151 162 171 174 177 187 176 160 164 165 165 154 152 164 158 151 145 147 151 147 145 146 154 143 138 145 150 153 156 175 157 144 150 162 153 156 159 148 143 147 149 159 172 184 146 163 155 121 111 121 132 145 125 145 169 135 136 167 152 118 113 81 93 97 114 119 143 155 174 169 159 159 143 128 126 134 137 142 148 148 124 125 128 131 135 143 138 143 142 145 149 146 159 151 163 161 180 187 188 171 168 168 166 154 153 158 148 146 139 142 134 135 139 140 160 145 133 149 154 149 153 158 144 142 139 152 153 146 139 129 147 146 151 155 171 182 152 153 153 133 115 126 147 146 135 149 167 139 117 172 171 124 116 105 92 100 112 124 143 154 165 165 157 156 149 138 134 132 144 157 155 139 129 122 125 133 139 148 149 150 140 148 144 144 154 149 158 154 172 176 182 167 159 159 160 133 135 139 131 137 135 136 126 123 129 136 156 149 150 157 166 167 166 163 170 158 143 147 144 149 137 129 133 146 156 147 172 161 141 147 150 131 119 129 165 143 138 150 164 134 120 165 176 151 127 122 89 108 113 134 155 152 159 169 149 151 148 139 153 147 163 163 164 157 143 131 129 136 144 153 156 157 156 148 147 154 152 153 156 150 156 170 173 163 161 158 155 143 122 134 116 131 128 122 121 114 119 128 140 136 137 141 155 153 159 172 163 152 134 137 145 157 141 123 124 144 135 138 171 155 137 155 140 130 136 132 168 151 140 156 156 142 129 163 166 152 145 130 90 102 132 141 159 155 159 168 151 161 157 162 170 164 166 171 158 154 153 143 143 142 159 160 160 156 160 150 149 148 146 145 148 138 151 164 165 154 158 158 162 155 124 112 111 126 136 130 133 131 119 127 148 132 129 135 146 153 145 155 157 146 133 140 152 161 156 132 127 139 130 120 169 148 143 144 125 130 153 144 164 155 145 157 166 156 152 167 162 149 150 146 106 100 136 157 164 160 171 164 172 164 156 171 171 163 169 168 166 156 155 156 153 145 159 158 164 154 150 148 149 148 139 151 135 137 148 160 162 158 160 154 159 165 138 118 118 127 151 151 149 147 147 142 156 147 125 134 143 136 145 148 153 147 146 146 162 163 165 142 133 143 126 136 164 149 147 139 134 137 154 140 146 162 156 163 166 176 182 180 164 157 146 147 124 92 138 148 164 162 177 173 165 178 165 170 177 172 176 172 174 164 160 165 159 153 155 156 158 157 145 144 142 142 139 130 129 132 147 160 160 155 161 161 162 163 155 116 127 129 152 153 163 153 164 149 152 159 145 139 146 153 158 155 156 153 151 156 165 163 168 147 144 147 127 136 135 138 163 153 139 151 138 137 133 153 161 166 157 184 199 186 165 160 145 143 148 95 136 155 161 168 170 174 167 186 174 175 197 185 182 173 168 165 168 167 158 159 165 157 163 160 151 141 150 142 141 119 126 129 142 152 148 155 158 164 162 155 153 123 132 125 139 151 161 160 168 156 149 163 160 156 163 171 170 167 159 160 161 170 173 165 173 157 150 150 126 122 127 134 153 156 154 151 149 143 142 155 160 151 164 192 206 195 161 163 144 136 148 118 135 162 160 183 176 169 165 180 184 183 197 197 191 181 176 171 168 160 155 160 167 165 162 159 150 156 148 140 137 120 124 127 143 147 139 151 159 165 166 155 143 141 130 138 135 154 153 158 160 167 168 173 180 177 182 176 172 175 172 165 171 186 177 170 171 167 147 144 125 127 133 133 157 151 162 151 160 153 142 173 152 149 163 196 199 199 164 178 167 128 147 125 118 155 146 174 176 159 165 164 182 175 191 204 194 190 182 177 175 173 170 170 177 175 163 159 159 142 137 137 131 122 117 128 131 136 139 147 148 167 162 154 140 137 121 135 129 142 150 146 146 158 171 166 183 183 180 172 166 169 172 170 182 182 165 169 162 157 138 143 133 128 141 138 161 146 153 152 172 150 151 179 149 151 149 203 201 195 195 195 189 144 133 143 102 149 149 151 168 164 158 161 173 166 181 191 190 189 185 182 174 179 177 178 176 163 161 168 157 139 149 134 135 123 125 129 134 132 143 155 149 164 162 151 135 134 126 129 130 134 138 146 141 150 162 165 176 185 183 180 181 180 175 182 189 181 170 168 159 153 139 144 133 131 147 151 147 141 138 156 175 143 160 171 146 162 152 205 200 187 222 215 191 160 144 132 110 125 142 151 159 157 154 155 159 159 167 176 185 187 180 177 180 181 176 173 157 150 164 168 151 149 142 142 140 137 136 136 141 144 143 152 148 150 142 142 132 126 126 120 125 132 138 132 142 136 147 159 168 177 180 174 174 170 162 171 173 167 165 157 150 145 136 139 133 139 146 158 153 133 148 155 176 144 162 163 146 161 149 208 191 186 214 219 198 167 151 139 114 124 132 139 152 156 150 147 148 149 152 167 177 178 168 163 166 171 172 165 161 163 165 155 150 142 137 142 137 140 144 137 144 147 140 153 154 146 134 129 125 116 113 109 110 114 130 125 133 135 128 136 150 163 168 161 157 156 154 160 158 157 158 146 141 131 136 144 138 141 151 145 155 136 147 154 171 144 158 158 141 167 125 199 187 193 183 195 199 176 161 135 128 127 127 138 138 148 150 142 140 136 142 149 155 165 161 160 159 160 161 159 152 147 145 145 146 138 130 137 133 141 150 143 148 143 148 148 151 152 133 123 122 119 112 109 109 104 117 120 116 133 133 128 135 146 153 156 145 146 145 144 143 152 148 147 137 126 136 138 146 137 150 143 145 140 140 161 150 146 167 146 146 157 113 172 191 182 172 188 184 184 156 138 129 140 142 141 143 144 148 145 143 141 136 139 143 143 148 149 157 160 161 156 152 147 143 145 148 137 133 147 144 158 158 140 138 141 145 148 151 146 133 132 124 123 124 111 111 111 107 112 113 121 138 133 131 132 134 140 146 143 141 143 147 144 148 148 133 125 133 139 140 146 154 153 148 140 137 149 132 156 170 148 151 153 105 159 193 186 183 179 183 194 155 131 126 140 153 151 151 155 139 142 142 131 128 132 137 136 145 136 141 146 152 152 148 141 142 142 139 143 145 157 151 167 167 148 143 137 135 144 148 145 136 135 136 131 134 137 127 121 113 107 111 115 128 135 136 125 131 137 144 140 147 151 152 154 153 151 140 126 136 144 139 155 153 152 133 126 139 142 130 163 163 137 154 143 107 135 175 174 181 182 177 193 150 127 115 132 152 157 157 154 150 144 137 137 131 134 138 132 134 128 136 147 144 141 140 140 137 136 137 142 133 152 156 165 167 152 138 141 133 143 149 147 142 139 133 141 145 144 146 154 148 127 117 115 129 125 134 139 130 135 140 137 133 143 140 137 137 142 131 122 125 139 133 145 144 129 119 128 144 133 138 164 155 140 151 144 107 125 158 162 166 183 176 170 129 118 116 125 141 154 160 161 157 152 149 144 141 143 143 136 131 129 135 145 141 137 135 138 135 129 124 131 138 152 159 170 169 160 149 138 135 141 145 145 152 146 141 144 142 142 153 158 153 146 136 131 133 127 132 130 136 139 142 142 140 140 136 130 135 134 128 127 141 136 131 143 133 122 117 133 147 130 143 166 147 142 143 142 115 121 150 154 165 181 166 157 127 115 122 130 142 154 158 158 160 158 157 157 153 148 143 138 134 132 139 142 139 135 132 132 133 127 128 138 150 164 172 184 181 175 155 132 136 142 145 141 142 140 140 143 146 144 150 152 152 152 149 136 133 137 139 141 140 141 144 146 143 139 133 137 133 128 132 138 140 133 131 145 133 118 127 129 134 133 153 152 150 143 138 143 128 123 134 146 159 186 168 156 134 118 125 131 142 150 160 162 158 162 164 163 159 149 143 140 146 145 149 145 141 138 133 136 141 139 139 146 158 175 191 194 187 173 156 144 140 146 148 142 142 139 134 142 151 147 153 150 149 152 152 143 135 133 136 143 145 145 145 144 143 142 138 143 140 136 130 132 136 130 141 154 133 124 130 131 124 134 148 144 142 141 135 148 131 118 120 143 152 187 181 158 138 124 127 132 139 142 154 159 159 160 164 164 155 152 151 150 156 161 156 153 146 144 143 145 150 152 156 158 167 183 194 195 181 170 164 152 146 148 147 139 133 138 132 142 157 159 160 161 159 158 151 146 141 127 137 138 143 144 144 144 145 146 138 145 145 140 134 139 141 140 145 153 133 123 124 115 117 132 140 138 143 145 138 148 132 119 104 150 153 183 188 160 138 124 136 126 136 139 154 159 159 162 164 167 160 157 160 160 168 170 166 161 153 151 153 154 150 143 148 163 165 177 189 186 179 170 161 156 152 150 145 131 134 135 136 145 155 160 158 158 156 163 156 147 141 132 137 141 146 145 141 141 142 145 140 144 141 144 143 145 148 145 145 145 128 124 125 110 125 131 142 124 151 147 137 144 142 116 110 143 155 183 186 170 151 125 141 127 135 137 151 157 161 165 165 168 166 161 169 166 176 175 166 162 160 160 159 166 163 148 144 159 159 162 172 169 169 162 161 157 149 146 145 133 134 140 141 151 154 156 150 151 156 159 157 156 148 134 143 145 143 147 146 146 148 149 146 149 145 150 153 147 149 151 142 136 124 135 132 118 126 130 142 135 157 148 143 142 142 114 117 142 154 179 187 182 158 137 144 133 129 134 147 155 162 165 165 167 166 165 171 171 176 174 166 168 169 165 169 174 173 158 151 156 155 159 153 148 156 158 159 156 155 149 140 137 142 148 146 149 154 147 141 138 153 154 154 151 153 149 148 147 145 149 149 152 156 153 155 153 147 152 156 148 151 153 142 140 128 138 123 118 130 134 148 149 159 142 148 141 148 132 120 131 151 173 172 191 166 150 149 128 129 138 148 156 159 165 166 167 171 171 175 175 174 168 168 170 174 179 177 174 170 165 156 146 151 155 147 144 149 151 165 169 164 157 152 149 157 156 154 157 156 156 153 150 158 158 151 150 160 157 155 153 151 152 154 154 157 157 161 154 149 152 157 150 154 149 148 143 137 127 116 120 135 142 146 165 154 152 145 136 151 153 134 140 140 175 161 190 166 152 151 125 131 138 150 155 157 167 170 169 171 175 170 171 172 167 167 172 179 188 174 167 175 176 172 155 150 153 147 139 143 150 159 166 167 162 161 157 159 163 160 161 158 156 154 157 163 167 164 160 161 155 152 153 155 155 157 157 157 162 164 158 150 154 156 153 153 139 144 142 136 124 119 127 141 135 141 168 156 155 147 134 144 156 150 145 140 159 155 182 163 144 148 133 133 140 149 149 152 165 170 166 169 166 166 168 166 167 170 174 181 185 172 172 179 177 178 161 153 152 151 144 150 151 155 160 165 162 155 161 166 167 167 169 169 169 162 166 172 173 171 166 159 154 152 151 152 158 157 159 159 165 164 159 148 157 160 151 148 132 146 139 133 131 116 135 146 125 148 163 154 150 151 133 142 152 157 151 146 149 144 169 165 137 140 136 142 146 149 149 157 166 163 167 162 158 161 167 162 167 170 177 188 186 172 172 181 171 169 165 152 150 150 144 146 151 151 152 160 166 161 159 160 165 160 168 173 171 166 169 176 173 167 160 156 153 154 152 154 154 155 158 160 163 161 156 150 154 157 148 149 134 155 148 146 131 121 147 145 126 159 162 152 151 147 132 155 149 153 152 152 149 139 154 167 134 139 138 138 151 151 146 158 162 156 164 157 160 157 162 162 163 166 176 186 185 170 168 174 167 168 166 166 166 160 153 154 148 146 141 151 159 161 157 156 159 159 158 166 167 164 163 165 165 160 158 153 155 154 156 156 153 156 162 161 159 160 155 150 156 153 150 149 140 160 151 141 129 132 149 139 138 166 157 150 146 142 130 161 159 151 149 154 138 143 135 161 141 139 138 147 159 153 151 156 160 158 163 156 156 157 160 162 157 163 169 177 179 175 171 172 164 165 162 164 166 160 157 152 144 141 139 136 141 148 145 155 146 147 150 157 162 159 161 159 160 159 155 152 153 161 155 156 159 156 162 166 161 163 158 151 157 151 149 145 144 159 153 139 127 141 154 141 154 160 158 147 141 140 130 154 158 152 149 148 134 136 132 149 139 135 141 151 161 158 165 165 162 157 161 152 155 157 158 156 153 150 154 163 171 169 170 167 163 161 156 157 151 145 132 134 129 130 129 125 121 133 137 140 134 127 137 145 149 149 154 150 157 155 148 146 144 153 150 152 155 157 163 164 164 165 167 154 160 149 152 140 148 157 156 136 130 157 159 148 155 152 151 144 140 135 139 147 153 157 151 150 136 138 127 137 137 129 148 155 162 162 169 170 164 159 156 155 151 155 154 148 148 139 147 161 169 168 173 172 166 159 150 148 139 132 118 125 116 127 133 128 129 132 124 139 134 130 136 136 138 144 146 145 147 147 141 139 141 145 147 144 149 157 162 165 162 169 165 159 158 151 153 141 152 157 150 136 143 164 157 149 155 148 143 140 136 135 144 139 150 152 150 147 137 126 130 120 130 120 146 160 166 163 171 170 168 159 155 151 148 155 148 145 138 133 133 150 155 160 167 157 154 145 138 133 134 131 124 117 117 124 134 137 135 140 137 146 149 146 143 138 140 139 148 146 141 140 137 132 137 141 140 137 144 158 161 167 163 173 165 161 155 154 153 143 154 160 150 140 148 169 155 155 143 144 139 138 139 138 140 145 143 144 148 147 144 116 118 120 125 114 138 164 168 166 168 175 166 161 156 153 142 152 146 140 134 128 121 127 137 140 150 144 140 128 127 124 129 134 132 119 115 122 125 124 129 136 139 143 153 161 159 146 145 143 153 149 137 134 135 128 131 138 133 139 138 154 156 164 169 170 166 159 152 151 149 144 156 157 151 144 163 174 155 144 143 140 130 144 142 142 140 147 141 146 144 150 148 120 106 117 107 111 122 162 166 171 169 176 168 162 157 149 143 149 146 141 139 127 123 129 137 139 145 147 141 124 132 127 133 130 136 132 126 119 119 110 117 133 133 136 142 158 164 152 151 155 157 151 142 142 131 130 134 136 131 138 140 151 159 162 170 168 164 156 150 149 141 148 153 153 148 147 167 167 163 135 144 133 128 142 143 144 138 147 143 142 141 145 154 122 101 115 102 112 113 150 160 175 173 173 173 163 154 148 148 151 155 150 145 136 131 132 138 139 140 141 137 131 131 131 137 145 144 140 133 126 123 107 105 128 129 121 122 129 144 150 154 153 147 140 146 148 139 143 146 144 138 146 143 155 162 166 167 159 159 151 152 147 143 148 152 148 143 150 162 165 158 139 144 142 137 130 145 142 139 144 148 142 140 148 150 127 112 112 97 109 109 137 154 170 175 171 172 163 153 152 151 156 162 157 148 143 152 137 144 152 147 139 139 146 145 136 134 136 144 141 138 130 133 119 118 123 128 128 129 135 133 143 150 152 147 142 147 150 153 157 153 148 145 153 156 165 169 169 165 160 154 153 153 143 146 149 151 144 148 151 165 159 142 144 145 142 138 126 143 142 138 144 148 149 146 149 149 135 126 110 100 99 111 123 147 165 179 169 168 162 156 152 155 159 164 163 164 163 167 157 151 152 147 143 151 152 150 145 141 133 137 134 132 132 141 133 125 116 137 154 148 149 144 142 155 152 148 148 148 152 154 161 159 157 159 161 166 161 170 171 164 157 149 151 151 140 149 149 149 151 148 149 152 145 144 147 145 144 141 129 137 139 139 143 149 151 152 158 150 138 137 114 108 105 116 114 135 164 179 171 172 167 166 157 158 161 159 166 170 168 177 165 159 161 155 160 163 156 151 141 143 139 145 139 143 141 149 148 151 143 154 154 158 152 147 147 152 158 159 156 147 151 153 161 168 166 168 166 167 167 171 167 161 149 149 151 143 143 143 150 145 151 149 153 158 144 150 142 148 144 145 132 131 141 143 162 155 154 157 164 153 148 144 123 111 112 125 124 131 162 174 175 168 172 170 166 163 162 165 167 170 168 168 172 163 162 172 168 164 161 153 149 151 150 155 149 154 153 145 144 137 144 140 135 139 144 144 146 155 158 155 153 153 153 155 162 169 165 166 165 167 171 169 164 158 145 143 144 137 143 136 143 147 153 152 160 152 145 144 146 149 148 141 131 127 138 145 164 163 158 166 166 162 151 153 138 117 119 138 139 133 151 167 176 171 172 172 171 168 164 166 166 167 162 163 166 173 163 159 168 164 162 155 152 150 150 145 144 142 141 144 139 130 142 147 144 140 144 142 133 143 152 149 153 151 153 158 166 162 164 166 168 167 167 163 157 151 143 142 142 134 142 130 140 149 150 154 163 151 141 146 145 146 146 143 129 121 140 139 165 164 168 179 173 161 159 157 156 137 125 154 154 154 161 157 172 168 174 171 172 170 169 166 166 169 164 172 169 179 174 166 165 169 164 157 155 155 152 148 145 141 140 141 139 135 137 139 140 140 137 133 134 142 142 145 157 155 159 161 166 162 162 170 170 168 168 161 154 146 140 146 144 136 136 126 149 157 150 160 161 153 148 147 146 140 149 139 128 121 137 136 176 174 181 180 172 169 173 178 180 155 137 174 176 167 182 166 169 164 169 167 172 167 167 162 162 168 165 166 177 177 178 175 169 171 162 161 160 160 155 150 153 149 144 146 149 147 147 145 148 150 149 146 148 146 150 154 162 165 168 164 164 168 169 170 171 167 168 160 147 141 142 150 151 146 127 132 158 158 151 168 157 159 154 154 149 139 142 140 134 125 128 135 174 178 183 182 181 187 186 182 188 175 165 199 200 191 217 189 166 166 167 172 170 167 163 163 161 163 165 167 169 176 174 175 169 167 167 164 160 158 155 153 151 148 145 143 142 141 144 137 145 150 147 152 149 152 156 159 162 164 170 163 167 168 167 169 168 163 165 154 147 147 147 158 146 148 129 150 161 170 176 171 157 160 154 158 150 157 140 139 139 122 128 131 180 187 188 196 199 193 183 182 200 198 180 223 242 203 211 198 184 158 170 175 176 160 165 164 164 160 165 170 168 173 180 174 172 173 177 165 160 156 152 149 149 145 143 138 137 140 138 136 139 145 148 151 151 154 158 157 163 164 170 166 174 172 170 174 170 168 164 149 150 155 158 159 148 150 147 149 166 164 193 182 161 161 157 151 144 138 137 140 131 126 124 133 173 172 186 184 180 174 170 176 196 194 197 253 240 205 223 212 197 157 161 172 177 160 158 164 166 165 164 169 172 175 176 177 174 169 172 167 164 158 156 149 146 140 138 135 133 136 138 139 139 142 147 148 149 155 158 158 162 169 168 171 175 173 173 171 170 167 157 148 153 162 163 173 139 145 160 158 178 189 193 174 167 160 150 137 123 113 109 121 112 102 109 116 161 178 174 165 162 171 156 176 179 189 217 248 233 236 240 207 191 155 156 164 178 162 150 154 161 157 165 159 169 166 172 174 162 157 156 159 163 158 155 155 150 145 144 141 139 139 141 142 143 145 147 149 150 157 156 161 163 168 171 172 173 173 176 167 170 157 152 145 165 164 156 184 159 142 171 183 193 202 231 195 177 163 165 144 122 105 99 96 97 93 77 89 149 144 131 126 132 134 139 155 158 177 221 239 240 238 239 202 176 158 157 164 172 163 150 147 147 149 150 151 156 156 162 164 154 153 150 149 152 152 147 147 147 144 148 144 146 142 145 147 147 151 147 148 150 154 157 162 161 164 167 172 174 175 175 164 162 151 149 152 166 165 155 183 170 148 171 186 198 192 230 228 190 199 173 170 148 127 124 109 108 109 93 80 130 125 109 118 109 115 139 138 149 174 229 236 219 207 222 201 152 145 162 165 171 154 151 146 147 147 144 147 152 154 155 158 152 149 145 144 149 149 147 148 143 140 142 141 146 150 154 156 157 159 153 158 158 159 165 162 165 164 171 167 171 168 168 160 155 148 145 159 163 161 167 162 162 166 164 178 211 185 218 245 220 217 200 193 179 148 138 120 118 122 118 104 111 105 100 116 87 141 139 137 150 185 211 198 190 175 191 203 148 145 157 171 161 156 149 150 148 145 147 141 153 152 154 158 154 154 156 144 147 151 150 151 148 147 151 153 150 153 158 157 160 161 156 157 157 159 166 160 164 163 168 165 170 169 160 156 154 145 150 150 155 160 173 155 156 183 162 177 215 203 212 235 242 226 225 206 203 191 155 125 125 127 135 123 100 90 93 90 104 153 139 133 136 176 196 144 152 148 166 192 148 147 158 167 154 154 152 144 143 144 146 140 148 151 152 156 156 154 154 145 140 145 140 142 141 145 150 152 156 149 154 153 153 154 147 147 152 155 157 154 162 160 164 166 166 162 157 151 148 148 148 144 162 161 173 143 155 178 158 166 217 220 217 227 249 246 231 213 205 206 188 156 142 147 147 150 79 64 76 72 128 143 136 126 133 179 176 114 94 97 161 170 152 154 153 157 153 156 161 146 135 141 147 139 144 147 149 152 151 147 149 145 142 144 138 142 133 132 132 137 142 142 139 144 144 141 134 142 143 147 149 150 157 163 160 168 165 155 153 145 145 151 138 143 162 166 169 139 155 173 150 151 202 220 232 224 244 255 246 222 212 223 203 175 156 168 166 170 53 38 58 81 137 131 147 118 154 178 144 85 63 50 161 149 157 161 146 142 144 155 161 154 135 138 140 144 146 150 153 152 151 147 148 143 147 147 141 140 134 127 128 131 132 137 133 138 147 142 139 137 139 145 148 153 159 161 162 164 165 155 148 145 151 143 136 156 161 163 159 132 158 161 132 156 187 213 244 230 248 237 245 228 217 224 222 198 164 180 180 191 30 35 55 97 150 137 151 134 162 174 137 90 41 55 134 142 144 158 140 137 144 148 157 154 145 140 143 142 150 154 159 156 158 154 148 147 145 148 143 142 135 132 135 136 136 138 132 134 138 138 136 141 146 150 157 160 163 166 164 162 155 145 143 142 142 137 152 165 154 153 143 129 169 144 114 146 181 197 240 234 250 226 229 221 202 218 213 200 183 182 190 195 43 45 56 122 168 143 145 153 158 171 149 86 51 80 111 100 119 151 134 144 143 148 150 151 144 148 144 146 146 153 158 156 161 155 152 151 153 153 147 147 142 141 142 141 142 139 138 138 135 138 136 149 152 161 164 164 165 164 158 157 147 142 141 132 135 146 161 172 153 132 127 135 167 140 111 131 173 184 228 230 227 218 200 211 191 203 205 171 171 171 179 174 56 48 66 136 162 127 160 154 148 180 164 93 51 112 115 55 96 121 129 145 149 139 146 141 142 153 151 149 151 149 155 156 159 157 152 151 158 152 147 144 146 144 144 141 144 143 142 143 139 143 142 155 158 163 162 159 159 152 150 144 140 142 131 128 142 153 167 172 144 112 115 138 160 138 104 122 176 186 214 215 197 213 186 200 196 178 196 162 154 159 161 156 63 47 70 127 155 121 156 151 132 178 196 121 92 116 126 26 64 89 107 140 149 141 142 144 137 151 157 153 152 154 152 151 148 150 147 147 152 149 149 145 145 145 142 143 143 143 146 141 140 148 152 153 153 154 156 152 151 146 142 134 146 132 130 142 150 157 173 158 127 115 103 143 146 142 97 131 191 210 212 189 181 190 173 180 193 178 177 155 126 138 150 137 64 60 90 145 164 114 164 154 138 183 183 140 159 132 121 36 17 60 77 124 132 138 144 149 141 146 153 156 156 149 146 141 140 142 141 142 141 143 143 145 145 146 141 142 142 142 141 142 143 148 146 144 149 147 144 140 136 134 143 142 139 135 143 153 154 167 176 144 114 110 103 140 144 140 95 134 187 223 238 162 169 165 157 154 163 175 172 155 122 120 140 134 82 89 115 144 187 154 165 166 182 186 170 132 184 163 120 33 11 27 62 93 109 128 145 155 148 152 156 157 161 149 147 136 132 134 133 133 133 131 135 135 137 137 135 137 138 138 139 143 145 144 144 139 137 135 122 124 133 137 148 144 144 147 152 163 158 175 166 121 123 107 123 129 144 127 108 149 185 223 244 192 156 160 163 170 176 179 182 172 148 131 133 124 119 113 136 159 187 164 171 200 209 204 181 125 165 184 128 27 0 23 29 71 87 118 137 154 155 151 163 168 165 155 152 142 132 130 135 131 129 128 131 132 132 131 133 133 132 138 138 137 136 136 132 127 125 120 116 128 141 153 145 153 157 156 158 164 166 178 147 115 124 107 132 129 142 113 119 172 194 215 224 209 187 137 163 188 178 161 184 176 175 158 152 151 144 123 154 169 210 198 183 191 174 185 182 148 138 180 132 48 1 17 37 40 78 90 133 142 143 157 169 182 179 167 159 149 136 130 127 129 129 127 130 133 132 131 135 134 129 130 132 132 136 130 128 122 126 118 129 153 156 157 153 161 161 161 166 160 167 163 121 116 124 112 125 128 139 106 127 175 194 204 212 206 201 173 157 184 167 146 154 146 157 151 159 177 172 148 160 150 223 214 207 214 175 176 157 152 120 165 144 76 12 12 33 39 53 83 126 132 135 145 156 180 191 185 172 163 151 144 137 129 128 127 128 129 125 124 128 126 128 131 130 128 133 131 134 133 135 141 153 162 155 159 161 162 163 160 164 161 165 136 111 122 120 114 124 129 135 116 133 166 178 187 191 200 184 194 193 180 164 150 148 165 155 126 150 168 