P2
92
112
255
118 121 127 120 124 125 119 123 124 131 126 132 142 152 159 164 177 192 201 199 183 176 179 178 174 163 144 127 129 117 92 116 92 94 98 108 124 132 126 140 171 192 190 199 196 202 201 201 216 206 216 201 203 198 184 162 165 161 182 185 177 157 141 130 119 117 102 81 67 69 86 92 94 98 101 101 102 111 113 114 114 112 112 111 117 120 120 117 114 120 120 119 123 124 121 124 121 117 125 123 126 124 135 135 152 159 165 182 197 208 207 188 175 173 171 166 166 152 138 128 121 123 83 95 111 108 111 125 129 130 143 153 162 165 150 167 180 186 193 192 209 189 184 199 189 172 170 156 135 143 167 181 176 163 151 140 121 126 132 96 84 69 80 93 101 98 94 102 98 107 111 115 110 114 109 110 117 118 116 120 119 120 117 122 121 121 124 121 122 118 126 124 127 131 144 158 157 175 176 196 205 206 187 180 175 168 155 155 170 143 133 112 106 91 74 83 98 102 115 111 130 136 138 143 145 153 157 156 162 159 161 154 159 166 158 167 175 162 150 151 135 139 152 152 172 136 149 148 137 141 126 117 112 101 85 93 104 110 90 103 92 95 103 112 112 115 110 117 120 115 115 116 118 120 120 116 122 125 124 131 124 129 125 131 130 141 159 160 183 188 192 212 196 196 181 162 143 150 146 150 140 141 109 95 85 69 70 77 99 126 121 112 120 130 132 135 139 149 153 143 139 145 139 147 143 159 165 154 160 160 154 164 162 150 148 146 150 139 132 146 145 142 147 131 121 115 113 93 96 100 95 100 97 86 95 106 117 119 121 120 120 123 119 118 119 118 123 120 125 125 125 131 126 125 131 134 143 153 168 182 201 211 215 220 207 203 173 160 133 132 139 131 118 120 105 98 91 70 74 94 102 116 104 115 120 123 126 147 157 154 140 134 134 150 164 147 146 140 149 147 158 146 152 175 180 162 168 165 161 156 161 152 147 127 130 147 138 116 116 109 92 89 87 87 94 89 93 92 122 111 118 121 122 127 127 119 118 118 121 121 124 126 122 124 127 129 136 143 151 166 185 199 214 205 209 211 201 185 169 154 127 130 123 114 116 107 92 89 104 98 96 106 102 105 111 113 118 140 134 145 161 158 144 136 120 124 131 141 149 143 142 151 154 153 156 154 161 161 165 181 181 190 172 161 160 139 114 138 135 126 117 118 96 94 119 100 86 90 96 101 106 112 117 118 122 128 123 126 121 119 122 125 121 127 128 123 132 137 147 157 157 179 192 209 211 218 205 198 175 170 173 160 120 106 104 98 111 100 96 95 100 98 96 110 120 113 107 135 140 139 134 153 165 166 154 133 132 123 118 126 136 148 132 141 138 147 154 157 156 158 154 163 172 176 168 164 161 141 133 130 144 148 129 131 109 119 124 122 86 96 100 98 105 108 112 119 128 127 126 129 126 124 125 120 122 124 128 130 141 142 156 163 173 178 192 203 201 194 176 152 155 168 164 137 116 95 95 117 120 120 119 108 105 111 103 113 123 136 112 122 128 134 129 131 141 150 146 124 134 133 134 130 142 150 127 134 142 145 157 165 157 169 165 149 146 165 172 172 178 156 148 141 149 128 127 132 136 125 108 105 102 95 98 103 91 109 96 102 130 129 120 132 137 120 125 121 126 128 124 135 146 154 164 174 182 188 201 193 179 167 147 144 153 157 152 140 117 115 127 153 144 138 137 127 140 140 119 120 129 123 125 128 130 128 147 152 142 136 133 136 128 125 129 133 150 157 147 152 158 167 169 163 163 164 176 172 154 145 157 184 172 171 147 152 137 131 114 130 128 139 119 105 100 120 109 109 100 109 103 106 126 128 128 129 135 123 121 122 130 127 137 156 173 163 177 183 200 213 198 188 157 162 161 157 169 156 156 164 156 158 162 177 173 157 139 126 146 151 137 127 131 126 113 120 127 123 131 147 145 127 130 119 141 136 138 123 143 151 157 165 160 161 171 180 171 178 174 187 177 158 151 187 190 188 171 153 153 141 139 135 113 116 118 111 116 116 128 121 116 139 110 127 128 141 128 129 134 124 124 128 127 135 158 165 177 171 167 191 207 216 212 178 158 158 168 159 191 154 177 198 184 197 170 187 185 158 134 125 135 131 136 124 126 120 119 110 120 114 120 108 137 127 130 129 131 123 143 134 130 150 166 175 170 176 184 203 209 197 189 184 189 197 192 187 185 191 196 175 165 149 142 156 141 126 112 117 128 151 139 154 139 161 149 131 142 153 138 130 138 136 129 129 127 153 169 169 168 176 186 199 210 212 194 183 161 144 160 166 180 169 189 202 199 202 193 182 173 155 155 139 126 120 108 113 116 108 111 113 115 108 114 118 126 118 141 135 132 123 130 158 151 152 145 166 184 188 177 196 207 196 198 181 187 178 191 184 162 159 177 193 187 173 155 146 152 131 110 118 126 124 154 183 168 190 170 150 154 156 145 148 144 140 135 130 143 167 170 176 190 188 217 229 201 194 194 190 156 148 165 188 191 192 193 217 202 220 198 180 158 151 151 148 120 101 90 87 95 94 88 108 117 117 125 132 133 129 136 128 122 133 122 132 141 155 154 166 185 192 194 209 206 192 185 182 175 169 179 175 163 154 147 163 179 180 157 144 152 131 116 116 113 97 134 166 171 170 180 177 168 172 154 151 153 149 136 127 167 171 178 178 192 200 217 195 188 177 154 160 144 163 178 190 202 211 223 211 226 225 191 168 168 165 130 124 124 108 107 91 92 98 105 111 118 128 132 131 125 128 133 142 132 126 126 131 132 154 151 167 186 188 196 199 192 190 181 179 156 155 155 141 139 146 141 141 155 165 171 161 159 136 126 114 101 112 115 140 150 164 196 200 178 190 187 162 153 152 139 135 172 181 171 178 187 185 191 188 183 154 143 126 144 178 168 190 220 233 237 230 230 205 174 173 174 149 139 138 126 119 130 123 118 112 119 123 123 121 128 131 134 146 137 137 134 129 127 120 121 138 146 148 162 166 177 184 175 169 178 164 152 154 149 133 146 139 146 143 143 160 166 170 163 144 122 113 95 107 102 132 131 169 190 215 198 184 185 176 168 154 164 145 181 167 160 184 159 171 194 213 196 144 131 119 148 169 166 202 228 232 232 249 232 184 166 167 157 162 153 151 142 141 137 145 142 141 135 138 136 137 131 139 140 149 147 134 135 128 145 133 132 139 135 160 157 137 154 158 162 169 175 166 147 159 150 144 162 159 142 141 142 155 152 168 152 150 140 133 115 105 108 131 141 161 194 206 219 210 180 180 179 168 183 166 174 165 154 173 171 192 214 205 167 120 118 118 139 153 196 219 237 236 242 255 223 176 180 151 150 153 160 146 159 163 148 157 162 157 158 155 164 158 154 157 155 146 140 133 146 139 137 139 132 133 128 139 149 145 147 143 164 167 181 173 169 177 180 168 185 175 157 143 139 146 148 160 160 153 155 150 132 109 124 126 142 168 177 196 230 226 207 190 197 182 176 180 172 160 161 189 189 214 205 166 131 107 121 117 143 181 211 235 230 229 229 222 191 166 166 161 163 161 148 150 152 163 162 158 163 154 153 162 172 182 156 152 151 157 139 147 158 155 145 146 147 127 138 128 124 147 138 141 154 155 164 167 182 176 184 186 190 190 180 167 163 147 153 147 147 156 152 160 150 141 127 128 145 155 171 185 211 232 219 219 209 190 181 186 188 170 174 194 210 202 163 140 110 92 101 105 133 208 223 226 217 215 216 195 174 176 161 159 171 163 142 149 140 153 169 152 150 150 155 168 167 163 139 139 135 156 146 147 145 147 136 137 135 131 129 126 128 135 138 141 144 149 162 166 181 169 171 183 187 187 182 171 181 164 145 141 138 128 145 138 145 153 141 142 160 169 171 174 199 211 224 211 220 200 193 183 192 189 170 185 210 184 132 104 91 63 96 112 153 219 205 212 201 190 191 158 170 161 151 148 166 157 128 120 131 144 149 147 150 151 153 162 150 145 133 130 137 146 150 153 145 140 133 124 126 136 134 131 135 137 131 150 146 139 151 155 159 153 158 166 174 187 187 174 168 171 149 124 117 122 118 128 131 148 154 151 170 187 176 168 187 187 203 212 218 214 206 192 195 183 193 180 184 164 116 98 82 76 73 119 179 187 180 187 177 157 168 148 148 150 138 133 142 135 114 116 125 135 139 138 135 138 141 141 135 137 136 133 141 142 145 143 139 136 148 140 138 143 141 135 141 139 138 142 133 139 141 148 152 149 154 153 164 179 176 178 163 165 160 136 129 138 130 123 134 152 164 166 171 185 176 157 185 169 179 206 225 216 221 198 177 189 211 160 159 149 100 97 73 50 69 143 169 169 150 172 151 140 142 131 130 131 128 129 118 125 116 130 131 137 149 125 123 120 114 111 115 108 121 124 127 135 146 145 139 143 150 151 153 142 142 147 141 145 144 144 132 134 142 142 136 139 142 156 151 162 170 172 159 158 145 133 125 131 130 144 145 153 166 156 172 182 161 164 168 152 165 191 210 223 215 211 188 196 185 149 134 148 95 84 22 36 100 149 153 147 139 152 128 121 122 107 120 125 124 131 120 131 123 127 119 120 134 112 105 110 101 109 116 121 134 127 133 140 135 146 136 144 146 151 154 144 146 145 138 139 143 132 126 137 135 131 137 141 142 146 145 154 154 167 160 153 142 132 119 131 134 153 146 160 162 159 162 171 163 158 160 151 141 160 190 208 205 218 185 184 162 136 132 131 87 46 0 67 120 160 143 123 125 114 100 104 110 103 119 125 133 132 128 134 126 114 110 121 120 110 106 114 120 119 123 121 131 127 131 140 145 139 149 149 157 163 158 157 168 157 137 139 137 131 143 147 138 140 150 146 148 147 163 167 150 152 155 156 149 145 132 132 130 139 155 157 159 169 169 170 168 164 159 160 144 139 169 185 198 209 173 168 136 131 142 107 74 7 37 93 138 163 138 107 114 97 89 97 102 98 107 113 137 130 120 131 120 123 124 133 135 139 132 140 134 140 141 129 136 143 146 149 151 156 163 174 173 176 165 165 163 150 145 151 134 130 140 140 146 148 160 160 157 159 167 175 163 154 156 153 154 162 145 143 135 144 171 156 166 162 167 173 168 155 154 156 157 144 156 170 193 204 148 152 124 128 145 98 50 19 74 122 155 158 125 124 107 100 109 114 114 110 108 126 148 139 131 142 124 127 147 146 157 153 150 156 145 138 133 113 133 135 142 154 155 156 163 174 181 168 162 164 154 148 149 148 137 138 135 137 151 151 157 163 170 167 169 182 177 161 158 153 148 171 149 137 148 143 164 144 174 166 165 170 151 139 139 137 161 143 152 160 194 189 139 127 127 109 122 73 41 63 91 134 158 168 139 136 100 122 126 125 127 127 131 151 149 153 152 154 148 141 156 154 158 152 148 157 152 153 133 130 129 130 138 141 151 151 156 166 171 172 160 163 161 165 150 149 142 148 146 152 159 165 153 166 177 172 175 183 186 178 172 152 153 160 157 136 142 132 145 118 147 173 173 168 131 134 134 150 140 136 154 145 184 196 121 135 121 117 110 60 56 95 119 136 162 182 137 119 120 138 138 146 137 143 141 148 149 159 156 159 157 171 162 168 165 162 158 163 165 158 150 136 138 133 137 140 137 145 158 162 161 176 165 164 160 163 153 152 149 156 156 163 165 172 171 177 173 170 187 182 187 191 186 165 167 160 157 147 141 133 126 117 123 163 175 176 135 110 135 142 147 142 141 151 174 200 127 152 123 112 96 75 74 127 130 132 177 165 126 104 134 150 141 160 159 148 142 144 161 151 145 163 184 192 199 186 179 179 180 187 184 169 158 149 145 142 146 141 137 145 151 153 157 164 161 161 163 156 158 155 149 156 157 160 169 172 175 182 179 175 185 190 189 191 191 182 167 163 158 147 136 139 121 114 118 159 169 172 138 122 115 156 163 153 137 135 155 188 152 157 137 102 109 83 103 119 125 130 164 152 117 119 130 155 154 158 153 138 149 144 161 148 165 183 185 189 197 194 188 187 191 190 188 175 164 161 152 146 148 144 144 150 154 159 162 163 157 162 159 154 151 158 143 149 149 149 155 168 164 165 175 175 177 191 183 181 182 180 173 165 156 145 132 130 119 112 101 150 161 172 144 134 115 163 182 144 144 146 137 174 174 145 155 103 110 97 104 124 115 144 134 150 118 121 127 160 160 141 142 143 151 146 153 161 170 179 175 184 187 174 177 182 186 184 179 176 175 171 160 156 150 154 152 156 153 169 167 172 168 167 164 160 153 146 145 142 143 143 143 147 151 148 164 163 165 167 177 167 171 167 176 164 154 149 127 127 123 110 108 112 142 157 158 115 109 144 192 152 135 151 139 155 160 159 151 110 112 111 118 124 121 123 126 119 113 104 140 155 152 149 139 147 144 145 152 164 159 159 166 171 163 164 167 170 177 169 170 171 161 168 168 157 151 156 162 166 156 172 164 174 170 172 168 166 160 149 143 143 136 134 128 132 136 137 143 148 144 142 145 147 150 149 158 163 156 139 118 120 124 121 116 100 111 133 145 107 120 144 192 180 130 110 130 137 154 159 145 127 130 124 134 121 134 111 118 115 95 100 135 150 150 146 144 144 145 140 154 158 156 161 170 168 163 169 168 174 181 184 178 171 168 168 169 170 158 154 169 173 174 169 169 178 160 167 155 149 143 131 122 128 121 108 111 127 130 131 133 135 132 125 122 125 119 127 134 136 153 128 111 109 114 123 108 104 113 110 129 117 122 137 181 187 130 72 94 117 142 165 156 152 153 138 137 142 131 124 123 116 73 103 126 147 143 149 143 145 152 154 155 157 166 178 180 180 183 183 182 186 192 192 199 197 196 192 189 189 176 164 170 178 171 171 159 166 149 155 141 136 148 142 129 123 130 125 129 143 140 142 132 136 142 122 117 116 117 108 111 116 131 133 103 104 111 102 100 98 112 99 104 113 130 138 172 177 134 65 86 115 150 164 159 164 174 144 151 154 128 147 128 89 78 107 130 143 146 154 155 161 181 180 174 171 182 195 196 192 197 189 187 185 193 196 203 198 198 198 196 198 191 177 182 178 167 174 162 170 153 159 146 142 141 140 127 127 135 122 136 142 141 140 137 148 144 140 132 127 126 117 101 115 110 122 122 108 97 108 103 112 117 98 98 106 126 163 176 164 147 73 74 113 147 167 163 170 177 158 165 163 132 142 99 71 88 117 140 147 147 159 169 181 194 185 195 202 209 216 210 208 207 204 198 195 196 189 196 192 194 195 186 187 192 191 182 180 172 176 163 166 162 153 155 146 144 149 142 140 140 140 139 141 141 140 145 143 141 146 143 134 138 124 109 113 118 122 123 118 99 94 101 112 127 110 101 117 112 174 152 146 151 89 61 104 148 153 176 190 189 168 173 168 136 112 90 71 91 125 127 132 146 164 176 193 190 188 214 215 215 215 216 211 215 203 193 188 189 189 189 190 186 190 188 185 189 191 187 181 178 177 172 163 158 154 147 159 145 153 146 145 143 146 143 142 140 145 143 145 142 147 146 139 140 122 117 120 141 148 143 130 116 106 102 103 124 121 97 125 122 159 154 135 136 119 61 104 127 133 164 187 180 185 176 163 133 107 89 79 99 125 130 139 144 167 170 182 187 207 223 216 208 212 219 214 197 190 182 186 184 184 174 180 172 174 178 170 171 174 176 171 174 176 163 156 149 148 142 154 145 148 148 143 146 147 137 141 140 144 145 146 152 148 150 146 133 126 120 131 143 169 179 165 139 114 113 125 125 124 109 119 124 155 154 140 142 119 60 107 124 142 166 181 203 192 186 141 136 93 85 89 118 121 134 150 154 172 176 185 185 205 209 210 185 200 200 186 176 169 164 170 170 166 162 160 160 157 162 154 153 162 160 165 167 169 144 144 131 142 141 143 139 138 150 145 151 142 143 144 144 149 150 160 167 166 166 152 144 128 123 128 140 156 186 196 175 136 117 144 135 137 126 124 126 140 148 153 132 106 75 103 99 146 157 177 227 196 183 129 118 104 91 93 138 126 155 162 170 186 197 191 187 199 197 191 173 178 181 168 164 161 162 169 167 163 159 151 153 149 149 141 142 144 153 150 151 141 130 129 128 128 131 135 140 142 149 152 157 146 148 152 151 155 166 166 181 185 194 187 179 162 143 135 128 139 160 182 181 153 125 139 136 145 138 123 121 149 162 157 133 122 78 115 110 131 156 197 204 196 175 114 110 101 98 127 138 150 183 168 177 189 193 175 166 165 162 164 160 168 169 170 161 157 159 156 163 151 157 154 155 149 146 142 134 134 146 147 144 132 112 117 111 119 130 133 140 146 155 160 165 163 164 167 172 173 178 175 185 193 204 197 193 183 167 145 145 137 141 151 171 155 149 136 136 143 151 127 127 138 172 162 154 114 100 109 128 115 153 175 179 188 151 117 94 110 123 153 151 172 169 137 152 158 158 139 137 143 131 133 140 142 152 152 150 164 163 173 173 166 166 162 160 149 150 144 140 146 150 161 156 152 119 112 111 119 131 133 145 154 167 175 181 177 181 185 186 187 188 181 187 196 199 194 183 176 170 161 153 152 145 152 156 173 164 159 152 146 151 126 143 136 164 165 157 119 113 112 117 116 131 150 142 160 141 107 112 134 147 160 169 180 169 138 133 150 136 138 139 138 137 143 138 145 161 158 153 163 164 171 166 167 162 161 157 146 139 136 137 137 134 142 150 143 121 114 123 123 140 146 156 163 171 180 188 185 191 195 187 189 184 173 176 179 182 165 159 156 142 141 148 156 143 160 161 188 179 180 178 152 158 135 137 157 170 147 155 120 127 119 117 107 154 171 142 157 123 108 115 129 174 164 190 186 136 124 122 120 96 106 101 92 110 129 130 144 161 162 161 164 164 165 164 168 165 167 160 154 141 136 129 135 125 129 127 128 106 97 115 114 126 139 155 166 169 180 188 191 197 192 185 173 171 162 164 174 174 150 147 140 141 133 131 128 120 152 166 180 181 191 199 160 170 166 118 177 184 159 137 119 103 124 78 107 133 149 139 143 124 127 118 132 185 179 189 172 125 139 131 115 106 97 88 77 98 112 115 129 140 143 153 161 163 163 149 152 148 154 157 153 148 120 116 122 126 116 113 118 95 86 101 106 116 122 141 156 173 174 176 188 196 173 177 174 166 163 161 157 149 138 126 127 121 121 112 123 109 139 179 177 185 202 215 174 178 172 119 153 162 151 127 117 75 124 39 115 116 125 128 155 124 129 115 134 201 213 179 153 148 140 139 110 111 69 68 51 57 88 96 88 120 133 149 141 149 153 138 124 108 119 125 142 130 121 110 106 108 95 86 114 96 94 104 104 102 107 122 130 151 155 169 176 182 163 164 158 162 154 155 153 143 145 132 109 126 124 118 110 108 124 172 165 184 210 215 186 174 187 111 114 145 138 136 123 81 129 56 115 102 127 137 130 126 138 114 147 203 202 177 150 150 139 135 122 80 60 54 38 58 73 81 59 74 99 109 95 105 105 93 91 78 92 100 115 118 132 125 101 90 76 81 96 109 100 110 111 114 118 127 135 148 146 159 167 180 154 163 156 156 165 150 149 144 137 131 116 125 151 144 130 140 160 204 185 198 221 225 186 178 167 141 127 131 121 130 116 99 126 85 110 98 125 127 103 119 156 136 157 171 170 152 139 149 136 135 139 85 59 50 17 33 50 61 43 67 94 113 98 98 108 81 75 91 89 102 129 128 135 131 110 79 68 90 104 118 119 120 126 132 146 148 147 150 154 165 182 205 166 162 172 153 153 151 155 153 140 129 125 135 167 168 153 154 166 226 213 196 219 231 198 193 174 179 141 109 110 139 127 111 116 103 125 107 138 117 94 125 153 143 168 172 180 149 170 167 142 139 143 89 79 57 37 24 29 31 47 79 100 125 92 95 95 89 72 86 98 112 127 128 133 130 119 124 127 146 143 167 152 149 146 159 171 171 159 150 162 162 175 195 171 194 168 141 135 137 142 147 140 140 140 142 171 193 176 177 179 211 232 219 202 215 221 188 184 166 130 132 130 134 135 120 107 112 152 113 142 102 108 138 163 151 182 194 207 185 200 186 161 139 143 125 101 62 38 46 26 27 49 51 95 110 84 78 84 97 86 88 104 146 153 136 147 149 142 157 147 155 168 167 177 158 157 164 193 180 165 158 140 163 178 166 178 176 153 115 109 118 136 128 121 138 142 165 182 205 171 174 209 208 206 207 195 190 232 205 180 171 131 132 148 117 138 110 106 108 151 133 132 102 134 144 192 168 189 186 191 183 213 222 182 169 159 141 130 87 73 100 95 77 79 101 125 104 106 93 105 115 109 114 132 175 175 158 164 161 160 160 154 163 180 191 205 173 156 146 190 181 138 151 146 153 168 157 159 156 127 100 101 110 124 136 107 127 122 137 169 187 159 162 215 223 194 183 171 195 228 180 175 186 138 135 118 107 130 117 92 125 148 124 102 104 154 145 203 160 169 175 172 192 208 235 188 179 185 160 133 100 76 102 141 100 122 143 158 133 120 127 119 135 125 126 161 180 172 168 176 176 150 156 118 157 177 188 195 180 135 140 163 177 166 149 171 163 181 174 170 176 155 129 142 126 104 126 126 128 146 150 159 170 164 167 213 234 203 180 165 184 218 168 183 169 116 85 75 105 119 118 86 117 143 131 106 112 173 169 192 177 156 155 162 188 195 200 180 174 170 158 140 90 67 105 135 119 122 140 158 132 136 136 134 128 132 125 175 179 175 158 166 165 145 137 135 153 175 180 181 164 151 148 152 165 179 150 180 188 200 202 185 195 195 187 166 157 146 130 136 138 156 168 165 185 189 171 213 217 202 176 174 184 200 154 162 136 93 98 72 123 95 89 108 132 162 135 123 113 168 184 206 200 162 163 172 174 184 177 175 151 136 145 137 120 99 120 134 122 93 121 130 141 134 144 121 124 123 114 174 169 161 147 150 155 132 116 150 144 168 165 171 154 137 132 154 181 194 176 191 228 200 205 197 201 213 194 190 157 137 134 111 141 180 188 190 185 186 169 195 192 178 155 147 197 166 129 123 145 107 131 137 160 93 95 106 128 180 187 139 117 158 203 220 211 196 153 177 178 177 152 161 127 113 127 134 125 96 110 135 128 129 159 160 146 146 164 151 141 124 131 166 180 182 180 183 168 119 133 151 144 153 156 176 152 125 106 117 157 185 176 193 219 196 197 190 202 208 194 197 179 160 175 140 135 173 183 174 182 174 151 160 173 183 158 152 183 134 119 107 135 126 106 132 161 115 106 96 105 151 188 162 149 169 218 221 207 195 152 172 178 151 145 135 147 115 133 134 122 93 98 115 113 140 150 141 158 166 181 164 131 134 145 169 187 204 175 197 149 123 141 153 150 157 156 168 141 147 114 116 153 188 189 170 186 159 139 133 168 188 198 202 185 197 188 176 162 163 162 158 157 142 137 162 157 170 170 166 177 119 138 124 143 128 102 110 171 118 104 64 87 110 150 173 151 190 215 222 201 192 155 155 186 156 153 137 113 122 114 124 100 91 105 122 105 124 108 113 141 168 173 146 119 132 154 170 195 202 181 179 122 116 132 130 151 153 150 138 118 117 97 130 132 142 180 177 152 156 137 124 117 146 147 175 180 192 185 180 161 154 150 142 156 128 143 153 148 147 177 177 149 116 165 141 135 134 136 130 166 114 101 63 58 64 123 144 169 200 204 225 216 224 181 164 185 169 159 159 147 152 128 154 130 133 135 138 110 111 96 107 131 153 151 137 111 121 135 181 201 179 170 142 124 121 117 126 152 153 142 131 137 111 107 130 114 110 138 143 123 124 139 135 102 119 134 132 148 158 156 152 150 155 139 154 152 120 137 135 139 146 175 160 130 122 142 157 129 137 177 141 135 110 88 78 57 46 97 127 169 190 205 213 207 249 205 199 203 199 176 162 151 150 160 176 155 139 148 144 140 131 131 120 133 153 159 147 120 132 160 162 147 157 140 122 120 109 86 111 136 138 140 145 140 106 109 129 109 88 96 110 93 112 109 110 94 88 120 101 136 129 128 115 115 129 125 146 129 122 116 120 136 149 169 170 140 111 142 164 154 155 178 148 144 95 110 89 50 69 131 123 148 150 191 196 184 239 204 211 201 208 201 174 175 155 159 182 173 154 154 155 143 148 142 139 147 162 156 143 137 145 134 131 136 150 140 136 134 114 106 117 123 125 134 154 149 105 101 120 138 97 109 93 76 88 108 111 98 102 128 119 114 120 123 107 109 110 112 125 122 110 109 117 142 149 182 178 141 139 188 190 157 153 130 163 114 104 111 108 51 92 142 147 120 145 176 167 194 208 201 206 204 193 212 188 168 167 157 168 174 147 132 129 125 122 143 140 151 155 148 149 136 128 137 148 151 160 152 153 138 123 116 136 138 136 157 171 159 143 119 117 133 117 119 125 91 104 117 109 94 74 94 106 118 119 109 112 113 123 122 129 124 119 126 133 147 141 184 172 155 168 211 210 134 130 93 170 102 105 119 109 45 111 139 149 120 147 152 152 174 196 187 209 203 191 182 193 167 154 161 159 165 165 136 126 113 119 144 147 159 158 168 160 145 153 171 167 159 163 163 157 142 126 123 140 151 151 155 160 148 139 129 120 113 99 85 103 100 103 114 130 123 94 74 84 81 85 78 84 90 97 112 126 122 116 121 144 139 139 171 175 172 179 193 198 149 122 98 159 85 104 115 99 45 126 154 135 108 163 135 152 157 162 176 202 194 215 191 174 160 150 154 156 166 174 169 140 136 144 162 155 156 153 155 159 157 153 149 155 145 144 135 129 113 120 112 129 138 148 135 135 144 134 139 135 125 103 92 100 95 101 104 126 149 108 97 85 80 63 80 77 93 91 95 100 87 96 106 124 134 141 164 166 163 147 164 189 175 126 110 120 88 107 98 106 42 128 167 124 120 169 131 146 126 133 149 178 186 194 194 186 166 145 156 159 154 153 152 143 149 161 164 158 153 161 151 147 148 140 146 147 126 122 117 112 79 83 92 113 149 143 140 138 132 138 135 134 141 125 108 120 121 118 120 137 137 112 95 89 76 74 70 74 81 76 71 83 87 93 98 126 137 141 151 150 139 137 176 167 175 143 129 99 109 99 101 130 59 138 179 130 135 164 110 127 121 118 148 150 146 169 179 179 168 159 152 161 153 147 123 120 137 156 153 149 142 144 146 146 137 124 137 141 118 124 116 104 88 89 93 109 111 115 124 128 138 135 128 135 141 128 120 124 139 127 118 125 133 119 104 105 104 94 94 92 86 72 64 82 82 99 92 124 130 126 146 130 119 141 170 186 149 136 126 91 116 84 112 145 73 135 160 125 150 154 110 92 123 120 140 129 129 136 148 162 167 165 153 154 144 128 130 128 137 137 133 130 127 136 151 159 141 134 147 144 142 126 122 105 106 118 116 118 109 110 112 117 122 122 117 122 127 130 136 139 146 129 125 121 125 134 126 139 126 111 114 114 99 89 78 85 88 95 120 130 132 134 161 152 105 126 154 172 142 128 101 100 110 115 117 133 81 106 152 133 147 151 114 71 108 123 141 135 130 125 128 142 147 153 156 147 147 135 127 136 130 135 137 135 141 155 162 150 155 160 172 178 185 138 120 107 116 130 127 122 137 141 138 134 136 139 145 138 150 144 147 158 170 160 148 138 145 145 149 137 150 139 139 119 119 108 88 106 110 119 118 118 141 139 151 165 119 119 123 141 153 130 73 89 131 134 118 133 77 90 133 127 154 177 164 94 92 127 125 143 127 128 120 121 133 141 137 153 157 144 124 124 130 137 124 131 147 171 174 156 160 178 187 191 181 145 116 95 102 116 122 128 146 162 150 132 136 148 160 154 157 157 165 176 177 167 163 160 160 145 156 152 146 149 148 138 120 99 91 103 109 132 124 119 130 155 171 166 140 118 93 131 142 119 83 82 150 142 119 137 78 98 120 124 114 162 195 138 105 108 116 119 108 117 127 109 122 128 127 140 141 137 128 128 125 134 127 140 154 167 170 154 154 163 177 170 162 141 117 107 118 117 128 143 141 150 150 136 138 152 177 177 170 171 173 184 182 180 168 175 184 174 174 165 163 156 155 150 134 116 115 116 115 137 141 111 141 171 174 167 139 112 111 121 131 102 102 83 169 138 125 151 78 88 108 124 121 147 187 136 141 113 125 110 95 113 111 108 117 115 125 128 130 133 130 127 123 134 131 146 152 155 153 144 145 152 154 146 139 131 130 123 127 129 128 141 137 132 137 138 145 163 180 188 198 182 179 186 188 172 166 173 172 172 184 176 165 172 164 161 149 136 137 135 130 144 148 147 164 187 164 141 126 119 123 122 128 98 106 106 186 130 152 165 80 78 94 126 156 167 160 119 123 134 129 114 97 124 109 110 118 115 127 143 132 134 139 122 117 115 137 150 151 153 156 149 154 149 149 154 150 141 137 135 135 131 130 143 143 137 135 147 152 167 179 193 205 204 185 190 192 183 182 179 169 166 186 176 165 174 165 165 159 152 152 138 147 153 156 164 180 185 143 140 138 143 107 108 105 121 94 130 189 137 174 164 100 92 82 105 175 165 147 113 120 136 131 144 117 124 125 118 112 118 125 141 130 135 137 118 112 110 123 134 139 141 153 160 156 154 134 151 148 141 138 133 131 140 142 137 135 149 156 159 164 162 176 188 195 197 184 174 191 180 189 180 161 164 172 177 178 175 155 169 179 171 158 163 162 160 160 167 198 183 153 156 146 129 106 87 141 128 91 148 181 144 175 174 106 87 83 83 147 160 150 113 131 142 130 151 149 136 135 128 110 125 131 139 144 146 149 124 117 111 124 129 120 138 153 145 157 160 151 157 156 144 144 144 144 153 155 146 141 155 170 172 172 167 168 180 177 168 171 169 176 187 196 197 190 169 162 178 173 178 156 168 178 185 165 153 159 154 159 185 199 181 157 154 133 135 116 113 152 143 123 154 177 160 177 172 97 77 94 76 123 127 147 117 150 171 140 130 144 153 151 128 121 128 136 145 164 170 166 155 140 140 127 118 121 137 138 137 156 154 150 156 158 164 162 176 157 174 170 153 136 157 166 170 174 152 157 163 163 154 150 152 165 175 194 191 189 176 149 159 154 165 160 171 171 170 158 153 150 147 168 181 180 159 144 141 129 121 132 139 158 159 137 149 185 169 177 169 106 83 88 81 96 128 125 126 135 170 159 141 103 137 145 144 145 135 144 160 181 192 190 175 164 159 143 132 143 136 136 138 150 152 155 162 172 181 177 185 164 167 176 166 154 158 182 195 197 160 149 153 154 151 142 145 157 169 178 180 169 181 154 158 150 159 166 174 167 157 144 140 135 142 157 168 146 145 131 144 132 142 143 157 176 162 141 165 197 166 178 175 109 100 94 98 105 143 131 130 141 164 149 156 119 127 139 145 161 143 145 175 187 195 196 180 175 166 151 141 143 130 146 161 170 162 150 174 181 190 200 206 188 176 183 181 171 180 197 208 205 183 158 155 163 153 145 156 169 177 176 172 168 182 167 168 166 171 171 170 160 149 141 131 128 136 141 141 138 145 147 165 154 158 154 174 180 170 146 179 195 165 181 180 108 116 100 114 117 154 135 144 148 174 144 155 138 134 165 163 156 146 155 172 184 198 191 182 182 178 168 155 142 133 152 168 175 185 173 185 177 192 211 204 175 162 176 173 160 160 175 179 171 169 163 143 147 142 150 145 171 183 176 170 176 173 181 173 179 176 168 161 149 139 134 116 124 118 119 120 140 150 154 180 163 145 153 182 173 173 161 185 174 169 179 180 115 115 107 107 110 145 132 145 143 170 144 156 133 139 164 162 152 153 155 163 175 182 185 189 191 177 178 160 138 156 149 158 180 194 188 192 185 179 188 185 143 154 160 155 141 130 137 140 139 134 146 146 135 139 138 127 142 169 175 166 169 171 174 191 184 172 160 153 143 136 124 116 120 114 114 115 142 138 137 134 129 139 164 158 161 181 165 186 162 183 183 177 108 118 117 109 116 131 135 133 147 154 151 157 136 157 163 159 156 164 157 148 167 163 175 173 184 186 186 163 135 146 159 168 166 195 199 206 188 174 173 158 132 149 151 151 140 152 148 129 127 128 116 134 134 133 130 125 127 146 156 161 162 162 164 178 173 168 159 150 129 132 121 122 125 112 104 120 139 137 140 120 115 140 149 146 148 169 158 167 171 176 186 179 107 114 121 109 112 113 124 131 127 172 142 158 152 165 164 170 164 161 156 143 153 158 155 159 166 177 177 153 142 141 156 168 159 170 178 185 168 150 159 153 150 152 156 163 166 165 176 150 140 140 131 126 134 139 127 128 132 141 144 156 165 150 143 152 160 148 151 142 116 123 120 121 129 106 105 113 135 121 129 103 123 132 125 128 162 140 164 163 169 181 184 179 111 124 113 117 109 108 111 126 105 141 175 151 140 153 179 173 156 163 155 138 140 152 142 146 155 154 171 156 143 135 153 152 164 165 160 159 142 129 133 134 148 148 153 163 156 167 183 166 146 144 146 141 128 123 116 113 119 121 128 133 151 143 139 144 159 144 138 139 117 117 111 117 128 105 107 112 131 103 131 99 127 116 102 121 139 112 154 166 173 187 181 181 126 118 119 111 115 115 98 111 102 103 151 155 132 134 173 169 153 165 158 147 142 143 137 130 138 147 149 166 156 148 146 151 164 156 145 137 129 97 104 121 134 140 147 169 174 171 185 178 162 127 134 133 129 108 94 96 105 116 128 141 129 135 149 158 150 141 136 130 123 114 107 121 120 110 111 116 122 102 119 118 135 108 85 109 111 124 151 172 170 188 181 182 125 121 118 113 110 117 110 97 100 90 123 131 117 118 155 166 146 160 160 163 147 153 137 139 145 156 150 171 173 174 172 156 177 167 155 146 140 119 127 148 141 132 150 180 191 191 194 197 198 172 138 122 123 122 95 96 96 116 123 123 119 135 147 164 169 141 135 137 112 111 104 115 114 117 109 120 117 99 112 123 143 117 99 111 116 160 158 172 184 189 177 183 128 123 124 116 114 124 111 106 97 75 99 102 78 97 134 172 151 162 171 169 164 160 152 154 166 168 177 186 201 198 186 180 175 164 159 148 155 148 136 156 135 137 144 156 165 177 183 180 206 184 151 133 133 132 109 106 94 111 119 119 130 137 147 159 177 155 140 130 124 105 107 108 114 117 108 121 119 113 123 135 136 131 111 108 137 160 164 171 186 182 180 182 128 125 131 122 121 126 120 109 94 69 80 87 70 79 101 175 161 164 187 183 176 169 166 163 176 184 196 206 199 198 187 181 179 150 147 158 160 145 146 143 139 114 123 120 129 137 155 160 183 179 157 132 122 134 127 131 140 147 147 138 127 135 140 146 151 149 134 128 123 105 107 112 119 117 110 133 129 131 144 151 150 122 112 124 160 168 169 166 174 190 178 179 122 124 136 132 122 132 128 119 81 71 66 93 56 78 89 142 181 167 196 196 188 173 176 174 183 186 193 206 198 181 161 161 155 123 130 118 124 116 121 109 127 110 115 136 123 139 130 133 146 137 105 102 112 121 125 144 161 172 154 147 120 109 114 128 130 141 129 129 120 112 116 123 126 120 122 144 135 149 163 163 162 129 118 142 174 168 178 171 176 184 183 176 129 124 134 135 137 143 133 126 92 79 72 89 66 79 82 106 170 171 205 202 191 167 166 168 178 188 189 193 194 174 139 135 144 132 140 120 128 118 113 100 105 136 103 119 122 124 118 107 110 100 78 98 111 117 119 146 165 175 156 134 112 113 121 126 114 129 124 124 123 116 115 129 127 115 133 156 144 168 177 164 172 132 131 162 174 173 180 173 175 181 188 179 129 131 124 133 150 135 134 118 100 77 80 82 79 80 78 87 143 162 201 212 199 172 161 167 175 179 177 177 178 158 140 116 146 142 163 146 131 129 121 125 127 149 127 120 115 120 93 89 107 108 105 114 122 138 139 146 146 162 157 137 125 120 124 128 128 129 139 138 124 123 114 136 127 116 141 158 150 183 163 173 181 153 159 161 166 174 186 170 171 186 190 185 134 129 123 132 147 132 122 123 106 66 82 89 80 83 73 81 108 151 180 195 193 176 164 165 167 180 175 173 158 156 135 137 154 152 163 178 148 153 140 128 140 156 154 148 152 145 129 120 113 127 117 119 120 117 97 101 113 148 155 138 131 131 125 138 144 139 132 138 128 119 129 136 131 123 153 150 155 171 154 172 175 154 162 162 166 181 184 173 169 181 189 184 119 126 121 123 131 125 117 120 101 80 82 79 84 86 68 78 83 138 152 180 171 166 160 158 163 163 175 167 157 162 161 153 165 194 200 199 186 161 138 127 126 146 128 131 132 136 126 108 111 127 129 128 122 108 103 94 115 133 140 139 132 132 139 139 135 139 132 135 140 129 143 141 139 129 150 137 158 148 149 174 161 152 162 173 172 188 180 178 172 173 185 178 117 117 123 122 128 122 115 126 106 102 91 75 81 87 76 55 75 103 137 173 170 164 170 157 150 157 168 162 157 154 174 187 177 195 196 193 192 179 171 180 174 185 157 159 153 143 156 134 153 164 161 141 131 125 135 134 125 128 142 136 130 134 139 140 132 137 143 148 153 145 144 147 137 148 139 129 152 132 163 164 148 164 168 166 185 183 185 177 168 169 171 181 118 123 128 118 133 121 118 104 115 119 109 54 68 99 88 57 60 89 125 157 170 172 168 157 158 148 151 151 157 153 166 182 192 187 197 193 186 185 190 191 198 198 186 180 183 170 168 160 156 168 167 145 150 153 164 161 145 140 139 138 136 142 148 144 135 138 151 153 154 152 148 144 146 157 144 121 139 137 163 149 137 159 177 167 180 183 181 174 172 157 164 182 131 123 127 115 129 125 122 116 136 135 124 60 72 107 96 60 49 82 99 118 164 170 168 163 166 155 146 146 147 161 157 163 173 175 185 182 177 187 192 190 192 193 207 210 200 187 183 180 178 165 149 143 138 137 142 135 128 125 129 138 148 139 144 139 136 150 157 158 160 148 143 142 167 167 144 117 128 162 165 144 147 156 176 174 185 176 172 175 177 157 161 169 135 138 120 120 141 136 136 128 155 167 148 75 81 136 127 53 49 68 78 88 136 172 162 156 162 150 137 140 138 149 157 165 163 155 157 170 166 174 173 167 172 177 187 191 183 163 173 187 184 179 168 148 128 129 127 121 124 119 125 140 142 139 135 144 142 153 154 168 171 143 135 156 165 166 140 123 122 167 158 153 150 167 174 178 186 169 169 176 168 163 156 165 140 137 129 130 161 173 144 147 187 213 179 75 118 177 147 54 53 78 68 88 107 169 174 150 154 145 138 139 138 141 146 155 162 151 152 150 146 138 133 144 148 161 179 185 177 174 175 175 168 164 161 155 126 112 118 122 122 120 124 129 134 132 140 148 150 157 149 176 162 142 146 172 157 165 145 121 150 147 152 157 156 160 167 183 167 166 159 174 165 161 162 153 130 128 132 143 176 180 143 173 223 226 166 115 155 190 163 81 65 81 76 89 101 146 184 178 155 157 144 145 153 154 156 154 156 155 152 141 139 137 142 141 142 156 171 172 170 173 171 161 160 154 148 141 139 119 130 121 123 118 124 129 131 135 140 148 144 155 165 173 153 151 151 180 154 146 140 122 156 144 136 152 162 160 153 148 162 148 147 158 148 140 139 139 133 148 158 166 185 186 157 204 240 214 190 157 180 190 159 119 94 97 83 88 110 134 170 200 183 181 172 163 156 157 157 151 157 164 153 146 131 138 147 152 158 168 172 168 172 167 170 164 161 154 152 149 153 143 142 141 128 119 121 130 131 139 136 149 145 172 176 175 161 161 157 173 151 144 124 146 142 134 158 156 147 146 147 143 125 134 142 140 133 129 125 123 135 152 167 153 172 177 180 223 233 215 224 158 172 183 151 148 144 111 98 89 113 127 155 188 203 191 192 189 176 167 168 162 156 160 151 146 138 140 138 142 149 155 156 155 163 165 156 160 157 146 148 146 147 143 153 147 134 133 119 136 133 139 134 152 151 178 176 174 158 158 171 153 121 134 116 124 128 114 161 160 138 151 144 144 130 123 130 137 136 135 128 125 163 184 175 169 168 190 196 224 223 200 190 150 172 180 167 159 182 158 119 102 110 118 139 160 194 194 188 192 178 180 176 167 160 162 159 162 157 145 138 138 140 142 142 144 146 159 157 150 149 145 145 139 148 153 160 156 140 131 126 132 136 138 147 150 166 179 172 176 167 168 164 154 121 90 106 116 123 115 140 170 158 150 155 139 135 120 124 128 118 128 131 129 186 192 190 175 191 198 218 209 196 187 185 173 181 178 177 158 187 161 156 121 110 110 132 135 176 188 178 176 176 176 182 165 159 161 159 173 165 151 141 143 148 155 157 141 153 156 158 155 152 148 145 144 151 160 164 159 148 145 131 146 145 143 165 169 177 182 180 192 165 166 157 155 141 98 97 116 118 123 144 161 174 150 163 148 136 132 124 107 122 126 130 122 184 193 191 194 205 210 229 182 173 198 203 168 161 175 187 155 182 174 163 155 123 107 120 126 148 176 179 173 170 174 178 163 156 156 158 163 164 161 155 163 158 160 163 153 161 160 171 164 166 155 161 141 144 146 143 148 143 152 140 139 151 157 170 180 184 186 195 188 161 163 156 158 133 119 134 125 130 133 149 155 170 167 155 156 145 135 127 110 118 128 122 130 203 209 225 208 209 219 224 149 157 202 197 160 136 166 183 155 174 176 196 199 144 117 109 125 142 160 169 168 172 170 167 163 154 149 150 155 165 157 167 158 159 154 164 149 150 160 164 169 174 155 153 146 134 146 136 144 139 139 144 141 159 169 184 193 199 196 197 191 151 158 154 145 134 118 150 144 144 149 151 147 162 173 165 152 152 150 135 116 109 127 125 132 229 230 232 202 222 229 198 109 154 185 183 161 132 147 198 151 172 195 194 212 181 144 130 117 133 154 165 161 159 162 162 159 160 154 156 166 169 163 159 156 159 160 162 148 154 150 151 164 159 152 147 147 146 157 137 131 134 141 145 161 174 183 195 191 200 211 201 194 171 147 147 142 129 143 159 151 156 160 164 157 152 168 159 156 158 155 145 128 108 122 117 123 225 239 212 217 219 204 157 96 147 162 179 163 128 150 165 150 181 185 180 200 206 172 157 133 140 155 156 163 148 147 154 159 163 154 167 164 170 167 152 146 156 165 155 150 149 144 149 155 148 148 147 144 153 145 134 133 131 150 165 183 189 192 188 199 194 215 213 193 171 144 120 130 116 151 164 137 139 161 170 179 163 164 154 153 153 161 150 125 125 125 121 123 210 229 217 213 206 178 102 83 150 142 190 153 150 151 160 161 180 179 177 183 195 199 173 147 155 151 148 162 149 138 147 155 145 155 158 168 171 164 158 142 137 146 141 148 132 142 140 145 145 150 148 149 138 135 133 135 138 162 179 197 185 197 199 199 194 215 216 197 165 139 115 110 106 132 175 153 121 141 184 186 177 165 151 154 153 162 153 134 116 117 122 119 171 190 178 156 156 135 88 80 134 147 193 157 175 174 174 145 157 157 156 164 191 189 186 168 163 151 148 155 158 145 134 144 137 143 149 160 163 165 161 159 147 153 152 148 137 135 137 137 148 144 150 130 127 122 128 137 145 169 184 182 188 186 200 203 202 213 209 195 183 129 131 98 112 109 177 175 149 116 164 191 177 193 147 160 165 149 163 142 120 125 123 107 97 104 94 97 115 86 99 107 134 166 225 192 188 184 180 130 139 135 127 145 171 170 180 199 189 158 159 152 154 143 145 131 137 148 147 153 150 155 154 159 156 152 150 141 132 136 130 138 138 128 112 111 118 126 126 137 154 172 177 179 166 196 200 202 206 196 199 188 171 139 139 111 104 115 165 166 147 121 131 172 167 181 160 172 172 162 157 150 109 119 131 106 79 92 70 98 139 108 129 134 137 179 238 224 192 206 172 134 123 103 99 137 151 147 172 199 195 177 178 166 164 158 160 151 137 145 146 150 150 146 147 146 149 147 139 131 128 124 129 119 118 102 101 100 110 122 128 144 161 166 164 164 176 190 206 195 190 191 181 157 157 147 130 128 111 109 153 190 153 86 96 129 159 164 160 164 164 179 173 156 116 105 129 107 84 116 116 130 156 141 128 131 146 178 243 235 184 220 167 125 111 70 81 110 125 142 171 187 185 188 201 190 178 174 167 157 160 158 151 145 149 153 139 140 134 130 129 121 118 116 107 96 88 93 96 100 109 119 136 156 159 162 154 162 173 184 200 187 187 188 177 141 137 146 131 134 120 108 144 199 175 121 32 70 141 156 162 170 176 194 200 180 139 127 132 118 128 156 134 144 145 146 154 170 157 180 243 222 204 202 180 98 117 86 54 90 116 131 158 171 184 177 204 196 201 191 179 181 168 169 155 152 140 148 140 138 129 125 114 105 102 92 89 82 83 86 93 107 108 136 146 153 149 145 146 152 164 178 191 191 182 181 175 129 132 135 129 175 131 122 148 203 197 134 53 19 69 141 163 177 173 184 217 193 173 157 159 147 169 165 145 155 172 166 168 175 163 169 219 219 233 169 177 88 116 93 37 61 110 115 141 160 176 165 184 194 197 205 192 194 190 182 173 168 156 145 129 116 114 115 104 100 92 85 78 76 71 91 102 110 123 138 142 139 147 135 139 151 153 179 180 180 175 175 164 131 139 116 137 180 143 122 149 188 190 135 80 32 13 69 138 182 162 166 190 175 167 168 177 180 185 151 149 162 198 193 192 189 176 164 180 188 220 160 174 110 122 105 51 45 95 107 124 153 164 153 160 172 193 201 204 199 194 198 176 173 165 157 143 130 112 116 99 96 86 79 78 82 89 96 113 121 126 138 133 138 140 138 136 152 159 180 168 173 169 167 144 130 144 109 126 181 143 126 165 156 175 133 90 44 19 58 82 139 172 174 169 180 173 162 177 194 