P2
92
112
255
171 164 164 167 164 164 160 164 156 153 155 150 148 149 133 133 138 122 113 115 116 110 108 115 97 114 129 125 126 131 146 138 150 149 143 151 150 153 157 152 136 125 123 119 118 115 114 106 95 105 102 103 106 115 122 130 131 135 129 119 131 136 130 130 126 128 137 133 142 138 138 137 137 135 132 132 138 139 141 145 142 149 154 163 168 171 170 174 176 175 176 173 166 164 165 162 164 166 155 151 158 157 144 154 142 147 132 127 113 112 107 121 114 110 112 119 109 119 118 127 137 137 147 147 147 142 146 163 157 160 162 154 152 145 144 133 136 128 121 121 104 108 109 103 108 119 125 133 143 147 142 125 134 135 137 136 130 118 111 121 119 135 130 131 133 136 135 133 134 134 132 134 137 145 147 145 154 164 174 176 170 173 175 175 165 166 166 161 160 164 158 154 149 150 144 145 136 141 130 117 114 107 112 114 105 116 123 119 106 110 125 146 159 146 135 144 140 153 168 179 161 169 170 158 156 160 159 157 150 151 146 147 139 126 118 120 113 114 124 132 144 154 150 144 144 137 142 134 132 119 108 116 103 116 125 123 135 131 133 133 136 137 127 123 135 135 132 134 143 152 168 170 172 170 176 178 165 163 165 158 153 149 153 148 145 139 141 137 135 129 119 110 114 112 120 122 116 122 119 119 114 133 131 144 143 136 138 144 152 167 164 163 169 163 160 157 160 155 169 170 160 153 153 158 148 130 132 137 127 121 122 123 132 151 151 155 161 164 142 141 140 121 114 111 113 102 112 125 131 126 124 135 133 139 132 129 123 122 123 129 140 141 152 166 166 172 171 171 171 168 155 148 152 144 143 141 138 136 126 138 133 116 111 107 122 121 125 117 128 115 125 130 133 131 122 120 120 134 140 158 155 151 152 151 150 149 145 150 140 154 171 163 155 150 147 148 148 152 151 146 138 142 132 116 105 129 142 152 153 164 160 163 153 146 138 125 107 103 109 107 121 121 122 139 137 139 135 132 120 126 127 126 126 132 133 150 167 168 169 171 173 163 158 156 153 145 139 133 129 129 130 125 120 114 123 113 128 127 127 125 125 125 143 143 118 112 111 108 123 126 144 143 135 145 140 149 137 134 140 143 138 148 162 157 152 144 141 138 142 142 146 147 145 140 137 123 111 109 108 130 145 148 151 151 157 158 156 139 120 120 112 108 105 103 110 127 143 143 142 134 129 123 124 122 121 124 129 141 160 170 165 173 161 156 152 160 152 139 139 133 135 129 125 113 117 121 125 115 130 139 134 130 125 134 125 116 106 110 121 133 132 143 140 134 126 131 135 115 116 132 138 140 133 139 147 147 133 138 138 133 125 122 127 139 144 142 137 131 128 110 97 110 113 127 140 137 139 151 166 142 130 143 124 116 111 121 110 121 133 134 147 143 135 128 126 122 118 118 129 128 144 158 167 167 164 150 145 147 153 148 130 133 135 133 139 127 123 125 130 135 136 140 135 138 134 122 112 122 123 135 141 152 150 145 156 137 122 120 127 122 122 125 128 136 144 139 137 142 135 127 129 133 123 118 121 129 122 132 126 126 124 124 114 105 105 108 118 123 125 141 149 135 146 153 138 130 121 116 122 114 129 133 139 147 151 133 135 129 114 116 128 115 121 148 159 171 155 153 153 141 144 148 143 138 133 136 138 137 129 137 143 145 139 135 131 136 129 115 114 127 147 158 158 153 152 152 157 135 126 132 131 131 134 122 122 122 132 135 133 136 134 121 119 125 121 116 119 121 120 117 118 119 117 121 122 121 115 101 116 112 118 135 133 124 133 147 137 136 126 122 117 113 116 122 125 143 137 143 134 129 120 117 117 115 114 128 148 161 152 146 142 140 133 139 141 134 124 135 129 127 137 147 148 151 139 123 105 134 111 131 138 151 156 167 165 170 157 149 138 137 129 129 134 131 128 122 128 125 127 132 135 133 124 115 109 120 116 115 104 113 114 115 110 108 120 116 119 113 119 111 106 108 116 129 122 123 110 141 137 133 146 129 132 125 118 125 124 129 122 124 135 122 121 115 118 115 115 126 139 147 147 143 135 134 128 136 135 128 120 119 122 134 149 146 145 131 125 101 115 129 101 131 144 147 150 162 166 160 158 145 138 140 138 123 130 119 117 116 118 127 121 125 127 117 119 118 104 110 111 108 98 98 101 112 106 101 101 106 108 112 109 110 111 100 109 123 121 114 114 118 132 132 144 140 136 125 132 129 113 124 110 112 121 122 112 113 113 118 114 119 129 135 140 136 129 134 133 130 126 128 122 105 118 132 147 133 138 125 121 112 125 123 123 135 154 153 153 156 156 153 161 159 151 153 140 132 127 121 124 123 118 122 123 116 110 107 108 111 107 98 96 103 103 94 96 99 100 98 92 100 94 113 105 107 117 113 105 113 120 122 120 111 120 128 138 132 142 132 139 146 122 124 124 104 119 125 114 113 112 110 110 112 116 127 154 145 136 127 125 122 120 120 115 112 122 140 133 127 127 118 117 122 122 141 122 157 155 148 151 160 156 154 162 159 155 155 144 134 139 131 134 129 119 126 116 107 107 109 107 107 103 102 90 94 102 93 98 90 97 97 94 98 102 108 109 109 114 113 114 99 102 113 121 126 119 122 129 126 139 156 150 162 139 127 136 127 123 115 119 113 108 109 105 108 118 130 131 132 126 127 118 123 120 109 116 126 134 140 111 120 106 111 118 126 148 142 150 158 147 128 151 158 156 165 161 156 157 158 149 140 139 135 135 126 123 120 119 107 106 106 113 112 105 98 98 94 96 94 94 93 99 99 99 99 102 107 109 111 113 117 112 115 97 95 106 111 129 120 125 124 146 162 162 153 148 148 139 127 132 117 118 111 101 106 108 106 115 122 131 126 125 122 111 115 106 111 134 131 136 125 115 119 93 100 112 145 146 144 171 164 141 128 149 157 154 164 159 155 157 149 144 146 137 129 126 126 113 116 113 106 110 113 111 107 108 108 107 110 100 101 101 103 103 106 102 99 103 108 108 113 115 111 110 113 111 88 89 100 121 125 133 133 140 149 170 162 149 161 145 129 131 126 125 114 112 103 103 104 98 115 126 131 131 122 103 111 105 125 123 128 125 111 112 111 91 111 141 161 143 160 173 160 140 145 143 149 149 146 152 153 157 147 143 145 139 131 124 119 115 114 113 112 115 120 113 116 113 111 105 113 109 102 107 109 109 107 97 99 102 105 108 114 117 109 104 106 115 108 89 90 107 125 132 134 136 132 161 166 168 156 160 153 140 133 124 122 121 108 102 100 88 96 130 131 135 113 106 92 111 125 127 126 116 108 109 106 110 137 165 165 148 165 163 144 149 141 132 142 137 133 151 150 154 144 138 133 132 127 122 119 119 119 117 124 122 126 122 126 128 117 113 114 122 113 115 108 114 107 103 101 100 103 105 108 107 101 105 100 110 116 103 97 95 116 130 133 133 132 142 163 165 153 150 154 154 142 129 117 124 116 101 97 96 93 129 129 122 106 105 100 103 114 127 115 119 99 118 115 116 157 174 161 154 169 156 146 155 139 130 131 120 145 150 146 144 141 138 137 133 129 125 124 132 131 116 126 123 131 125 135 132 123 124 125 127 122 123 118 118 116 112 110 109 110 113 111 113 105 107 105 107 111 109 106 101 101 128 137 138 132 136 147 160 156 146 149 160 150 142 127 121 115 105 102 98 96 118 123 102 99 98 104 81 109 118 105 108 118 126 122 146 184 182 158 155 155 156 147 154 132 138 129 124 149 151 145 143 144 145 139 141 137 136 134 140 139 130 126 136 138 139 143 141 137 131 136 136 127 132 132 125 126 123 119 117 119 118 120 125 115 114 114 110 115 113 113 113 96 115 140 146 140 138 139 151 157 151 139 151 157 152 146 126 121 113 107 99 100 115 113 111 85 98 74 85 111 98 82 94 126 131 164 178 192 178 150 158 144 158 155 138 130 140 135 133 130 143 155 151 149 147 147 147 144 146 144 147 147 142 138 140 141 146 150 148 149 143 143 138 130 140 132 131 132 132 126 131 131 134 132 131 133 123 124 121 123 121 124 121 122 112 131 155 151 138 145 147 151 148 140 137 157 155 151 143 127 122 104 111 106 113 118 111 82 84 85 99 94 73 71 86 132 162 197 178 184 167 146 147 143 155 149 125 131 142 139 129 139 148 158 153 158 156 155 159 152 153 152 154 153 150 144 147 150 154 151 148 151 147 143 141 139 140 132 131 135 129 128 131 135 131 133 133 140 134 134 131 133 137 130 134 132 120 120 135 153 154 145 154 148 154 137 140 148 147 151 150 137 118 108 105 107 118 114 101 86 88 117 85 79 69 78 105 149 181 199 166 166 154 148 139 143 149 141 123 135 129 127 136 148 157 157 154 160 165 165 166 162 159 159 158 155 150 148 146 144 149 151 152 149 145 144 145 146 138 132 130 128 125 124 127 126 127 130 137 146 141 139 143 142 144 141 145 136 142 121 125 141 159 151 159 154 157 151 141 145 149 155 148 144 128 105 112 102 114 110 97 94 110 122 81 87 68 82 131 177 196 186 155 151 146 148 142 147 136 127 116 129 115 121 137 141 156 159 158 162 165 161 158 157 154 154 146 149 141 133 142 139 143 143 144 142 144 139 145 143 135 129 124 123 124 125 125 119 128 133 140 145 144 144 143 150 152 155 150 141 146 137 123 141 158 159 158 164 160 157 148 143 149 156 158 150 139 118 112 108 121 105 93 105 114 108 85 84 65 105 154 208 190 171 165 143 152 154 146 135 125 123 111 118 114 130 135 129 148 155 161 161 156 154 145 141 145 145 135 131 131 120 124 123 127 128 129 127 128 125 136 134 127 126 124 116 117 122 118 122 126 132 142 148 155 155 148 150 162 156 155 152 139 146 126 142 152 159 155 169 156 166 154 139 147 159 165 158 155 134 128 108 124 114 105 103 115 100 92 59 88 115 169 208 174 175 163 144 167 157 136 134 130 114 121 119 113 134 129 134 135 135 140 141 139 141 134 126 124 123 119 113 114 109 111 107 113 117 116 120 113 119 121 118 115 111 116 111 113 118 113 121 122 130 139 146 153 158 152 156 157 158 157 159 150 150 134 134 154 151 163 159 169 167 172 145 140 160 169 166 151 151 135 111 132 118 104 77 120 112 80 62 113 124 183 198 169 167 147 154 158 129 118 131 121 117 123 110 115 121 123 127 132 126 121 119 115 123 115 112 112 102 98 101 103 103 98 99 102 102 107 115 109 114 110 106 105 109 104 104 110 111 112 126 129 129 132 146 147 154 160 155 160 159 156 164 159 151 151 131 146 142 156 159 158 173 177 163 137 159 160 170 156 153 142 121 128 114 93 91 128 131 89 87 129 137 180 189 156 151 139 155 131 117 118 127 114 123 111 106 115 120 126 127 124 121 115 105 97 105 99 104 101 98 95 94 95 101 94 90 94 96 100 109 106 106 106 106 109 105 106 104 105 112 114 120 128 133 138 146 148 155 165 167 165 161 162 166 159 152 158 152 144 143 140 154 167 169 162 163 154 156 149 162 162 152 153 131 150 97 90 109 126 135 88 119 131 142 177 175 155 135 140 148 120 116 124 118 120 125 116 117 122 122 126 126 115 110 106 107 99 102 104 98 100 94 91 94 92 102 93 92 92 93 100 107 108 106 111 112 112 113 114 112 110 120 123 125 129 135 140 147 152 165 170 172 166 166 166 166 162 157 160 156 147 145 140 149 156 166 146 152 164 160 149 158 157 153 154 132 147 110 91 118 127 129 111 131 143 133 169 167 150 129 133 137 124 121 128 121 126 121 126 125 125 125 118 119 115 114 105 108 107 111 103 101 97 88 89 91 91 96 90 90 88 91 101 107 107 109 108 112 118 117 118 115 121 127 129 130 133 137 143 149 151 161 166 168 173 168 169 166 168 156 171 153 144 150 151 135 160 153 146 159 166 148 157 153 161 137 144 118 150 110 116 113 132 128 123 136 140 138 181 163 137 137 129 136 130 133 133 128 124 128 133 128 137 128 117 120 128 129 122 118 114 110 108 107 101 92 93 96 89 95 86 84 85 85 95 109 110 106 115 119 128 124 118 122 127 132 130 136 139 142 146 150 149 148 160 164 172 167 166 169 169 157 168 160 136 138 150 131 147 144 139 156 162 146 147 144 157 138 131 116 137 113 125 111 125 121 116 136 133 156 166 149 126 143 134 139 131 140 141 132 133 133 134 132 133 128 127 130 142 140 132 120 119 113 111 106 106 104 96 102 96 92 83 77 76 85 87 99 107 103 114 123 127 123 121 126 127 128 131 136 136 140 144 149 152 148 151 160 162 163 160 167 168 162 169 165 139 132 142 123 130 125 133 145 140 154 150 144 147 146 128 114 141 134 143 111 111 129 113 125 147 153 154 138 131 140 145 141 134 140 140 136 133 123 128 130 131 127 134 132 133 132 122 116 108 104 101 99 99 100 95 97 104 97 92 86 84 84 87 91 102 105 112 119 113 111 111 116 117 120 126 131 135 138 144 149 150 152 153 154 157 154 153 153 165 162 158 166 143 122 141 127 120 123 120 135 142 140 159 140 120 127 118 105 145 143 148 108 115 123 119 125 150 120 147 147 149 135 150 143 136 141 147 135 127 119 121 118 120 122 128 126 122 124 120 117 107 104 97 93 90 89 93 96 99 96 97 97 93 97 99 104 103 108 105 113 107 106 110 114 117 125 123 124 128 132 137 142 142 148 150 147 145 140 143 144 152 161 150 157 135 120 130 128 120 121 111 114 147 128 134 136 105 96 96 102 138 139 150 125 127 124 127 131 130 124 142 154 140 141 156 151 143 136 136 124 114 114 105 105 111 114 115 112 114 118 114 108 102 99 97 99 100 99 106 101 106 109 113 109 105 119 115 114 106 104 104 103 104 107 118 119 122 127 123 124 128 128 134 130 130 133 141 142 138 139 134 137 146 151 147 142 126 106 113 120 116 113 104 109 134 122 128 114 96 85 83 96 137 134 145 139 149 136 142 131 119 135 132 142 137 146 164 156 148 127 127 125 113 103 97 104 111 113 110 108 105 109 104 95 98 99 104 102 107 103 106 107 109 111 108 107 106 109 117 111 105 104 98 109 112 118 125 127 126 133 130 130 131 129 130 124 123 126 128 135 134 136 135 129 139 144 142 132 113 94 104 113 112 114 95 96 117 133 113 114 95 81 84 102 146 156 151 140 152 148 150 119 120 135 114 130 147 153 159 156 142 121 122 122 110 95 101 110 109 103 99 99 95 102 96 92 92 91 91 90 89 94 93 95 98 103 107 109 111 111 115 112 110 105 103 112 112 121 126 130 130 129 133 131 127 122 123 119 116 117 119 123 126 131 141 133 137 143 132 120 106 93 93 102 112 104 85 91 99 135 116 97 100 84 95 122 140 164 146 148 145 159 159 118 121 106 103 139 159 160 161 155 135 116 124 118 103 91 98 96 86 85 81 86 82 85 88 85 89 86 82 80 81 82 83 86 92 98 101 104 108 108 112 113 107 102 103 107 108 119 128 127 129 128 131 127 123 118 116 112 110 112 114 117 117 124 138 141 146 137 139 118 106 91 88 87 106 106 80 93 89 112 110 100 83 80 98 139 146 152 137 139 145 170 156 123 100 96 106 145 163 164 152 146 135 133 123 101 98 103 95 97 100 96 93 83 77 83 85 84 88 84 84 80 82 82 80 83 90 93 96 103 106 106 104 103 101 97 105 106 106 113 117 124 127 125 127 121 117 113 111 110 109 113 115 114 117 118 125 142 151 151 150 132 110 95 86 97 96 91 90 93 91 91 97 102 93 83 96 139 140 142 155 125 152 174 138 100 98 100 111 153 167 164 152 143 143 129 109 107 109 103 99 93 96 91 84 84 81 80 82 82 86 87 82 86 87 84 87 88 92 91 98 104 106 107 91 92 94 94 102 102 103 107 107 114 119 118 117 113 110 108 111 109 104 116 114 117 118 119 122 129 148 156 161 149 130 101 93 89 98 82 82 101 97 80 74 91 96 99 114 124 142 139 151 141 154 155 130 100 96 107 121 158 180 152 152 140 135 122 110 114 114 106 98 92 93 95 91 88 84 87 87 87 89 91 92 91 91 95 96 99 101 102 108 111 113 107 91 93 97 96 100 97 101 106 105 112 117 115 115 112 112 111 112 114 111 121 122 126 127 127 123 129 135 139 149 159 145 120 97 93 87 73 85 91 99 76 67 80 96 125 120 123 151 149 151 157 155 139 128 94 102 126 126 176 183 153 161 150 132 122 115 121 123 111 106 101 105 109 113 107 101 100 99 101 95 100 98 99 104 110 113 110 114 115 119 121 122 113 100 99 99 100 104 103 106 106 104 110 112 109 116 119 121 119 122 123 120 129 128 131 130 137 134 128 137 146 144 155 154 131 107 107 90 78 93 85 88 81 72 85 105 134 133 105 154 165 159 159 141 120 116 88 102 131 149 183 181 168 170 141 134 131 128 123 119 117 113 124 124 124 123 127 117 110 118 116 115 114 115 112 115 115 116 119 123 127 131 134 135 128 115 107 103 105 108 108 110 112 111 114 112 113 115 116 120 118 123 124 121 125 123 134 135 138 138 129 135 141 147 144 139 132 116 108 103 79 87 86 90 92 74 102 124 141 135 107 154 167 171 148 105 92 89 74 118 123 150 191 193 185 173 150 130 141 137 132 142 140 147 156 147 140 134 146 138 132 134 129 129 127 125 123 120 122 121 121 125 129 132 136 135 128 120 114 115 109 115 123 122 121 124 120 123 125 120 116 122 119 123 129 124 123 124 135 141 133 135 136 140 141 146 149 137 136 130 112 95 82 95 98 89 115 87 104 146 159 132 107 175 176 186 127 88 87 54 87 125 108 172 193 194 194 159 150 140 127 149 145 146 155 152 157 161 160 152 152 153 154 151 148 146 141 139 132 134 134 141 135 138 142 135 139 140 132 121 125 128 125 131 130 131 128 129 130 127 124 124 127 123 127 135 133 133 129 130 135 135 132 133 141 142 150 151 153 135 141 125 120 107 91 102 92 84 119 99 110 141 184 129 110 177 172 155 118 101 77 57 110 101 110 176 198 199 186 144 157 137 129 150 153 156 157 166 172 170 167 162 145 160 157 153 144 152 142 141 144 141 147 131 143 148 148 140 140 128 133 123 130 138 134 137 137 135 139 136 136 140 130 126 139 132 124 137 135 137 134 140 138 138 132 135 136 144 147 147 151 138 136 125 127 109 107 93 107 91 81 83 99 137 182 130 108 163 144 127 121 106 88 72 106 87 126 165 194 195 178 146 149 135 136 151 147 166 158 164 169 181 166 151 144 152 150 148 142 140 146 137 148 143 151 132 132 139 139 134 123 120 123 123 125 132 126 141 144 140 138 143 144 141 132 127 134 130 122 124 130 122 129 131 130 129 131 131 129 134 146 144 141 132 126 121 132 125 113 79 100 99 63 44 102 131 184 139 108 166 133 120 112 110 85 85 119 105 131 154 189 169 164 136 138 137 141 145 144 140 153 157 146 158 144 132 140 134 135 131 124 123 134 133 140 135 138 126 118 143 128 118 110 116 126 132 128 127 124 124 135 136 127 140 140 140 130 127 132 125 112 110 111 109 122 119 118 116 117 119 118 122 135 143 141 146 126 120 136 133 112 74 85 116 43 25 90 131 184 141 120 181 152 120 100 85 86 70 122 120 127 138 175 141 129 123 141 152 154 124 122 122 136 141 133 139 135 123 121 125 119 115 108 115 109 128 137 144 139 139 143 140 125 107 96 101 116 117 109 112 110 107 122 120 120 127 123 120 124 118 107 104 98 96 104 95 102 113 117 117 115 121 118 117 124 130 128 146 133 121 136 130 127 94 76 108 41 25 82 130 186 144 123 192 163 149 107 89 85 67 98 114 118 113 152 113 114 115 142 151 149 110 122 129 131 148 156 147 141 121 131 134 115 109 105 103 95 122 131 135 133 130 131 123 102 88 83 87 109 92 91 92 98 88 104 101 99 103 110 109 102 107 111 108 97 97 101 93 100 111 111 103 98 108 113 117 108 118 126 144 137 126 126 151 135 114 82 83 37 35 75 131 194 161 135 176 152 143 131 118 96 73 90 104 104 108 117 93 117 102 137 139 143 118 127 142 137 144 159 150 130 106 125 124 119 121 115 108 84 111 104 116 110 100 87 78 75 65 66 84 93 80 87 89 88 92 93 90 90 93 100 127 127 121 122 121 117 110 117 117 100 97 105 104 83 91 101 120 104 107 128 131 120 132 146 161 167 153 86 93 64 35 77 150 164 165 147 160 114 132 130 113 109 95 106 79 86 112 109 99 118 112 109 128 134 135 119 136 139 134 137 139 120 119 110 111 111 99 111 108 106 105 100 121 108 94 66 56 62 64 60 91 102 99 101 87 76 100 101 85 108 99 111 137 157 140 143 142 132 136 133 129 116 104 90 106 117 113 108 132 113 106 121 137 117 129 149 175 162 168 93 120 93 45 100 161 150 161 133 164 87 111 125 98 98 106 120 74 94 121 100 106 117 105 96 120 135 123 97 120 111 101 101 101 96 90 95 89 89 83 83 107 114 104 107 113 95 88 50 55 70 79 84 105 116 125 133 93 69 95 107 102 101 101 131 136 167 160 150 142 135 141 140 135 123 113 114 130 126 104 122 141 121 123 140 137 114 128 142 172 169 170 111 124 117 71 116 154 157 154 128 160 104 82 95 80 81 108 100 84 104 123 106 113 122 104 106 125 125 120 95 97 88 95 97 96 111 110 93 104 102 108 105 118 131 106 125 109 114 90 64 78 86 107 115 129 131 149 156 129 99 102 131 132 110 94 136 156 173 197 174 157 141 135 138 143 135 120 124 121 120 121 131 151 135 132 146 137 101 114 144 171 173 136 128 148 130 96 125 147 134 158 137 182 110 101 87 59 48 88 96 101 99 105 108 122 116 114 110 119 139 124 93 98 88 79 82 93 105 104 96 108 105 113 123 136 135 107 127 121 130 102 80 91 103 114 132 143 150 152 165 154 122 115 132 149 118 89 115 159 168 203 201 177 161 153 146 154 136 129 117 128 132 134 144 158 142 139 163 147 113 109 150 162 159 121 140 186 131 95 110 133 116 135 144 183 121 131 115 76 35 67 100 99 107 87 107 109 109 121 104 122 138 129 99 109 97 86 84 87 86 72 71 80 95 100 119 138 112 107 110 126 115 83 91 79 111 116 138 150 162 150 154 156 141 137 136 152 137 101 85 122 140 168 206 155 140 154 154 157 133 131 124 111 131 139 136 153 145 134 161 150 138 124 145 159 143 140 147 183 144 90 100 124 105 117 146 194 126 153 119 80 58 67 111 105 108 86 90 114 107 113 104 114 130 136 115 120 95 85 76 70 59 61 66 74 88 98 110 121 106 112 108 112 92 91 106 77 84 107 131 148 155 151 137 146 143 135 119 123 138 117 81 96 126 134 164 160 129 127 144 134 144 121 120 127 133 140 139 145 141 140 163 148 150 149 141 163 145 144 155 167 135 93 104 140 108 127 125 197 114 156 113 77 72 80 132 119 108 94 86 126 121 114 114 111 137 129 127 118 107 105 93 88 84 87 83 85 82 89 98 103 113 113 120 105 86 100 101 82 87 128 144 156 159 146 132 130 142 136 137 118 133 141 102 91 109 110 132 145 135 114 114 116 117 115 124 135 141 140 150 137 128 140 159 151 150 156 145 154 150 174 170 175 127 106 122 130 118 126 127 189 132 173 110 78 78 115 147 155 115 101 108 130 128 118 118 106 129 131 124 120 115 106 101 96 87 87 85 98 99 89 91 105 126 126 117 86 96 85 104 96 117 153 164 155 162 151 129 122 133 134 154 139 123 138 135 96 103 94 109 128 130 138 122 114 111 117 120 133 142 149 149 138 130 142 145 147 137 145 158 149 155 176 173 169 124 109 139 137 117 130 140 191 154 181 122 88 82 125 150 167 123 104 114 137 136 125 122 110 111 126 114 106 105 97 100 80 79 86 97 115 96 94 92 122 110 108 98 88 94 96 119 130 138 169 159 156 152 127 120 129 132 130 139 144 129 139 150 134 112 120 105 109 129 126 123 115 110 116 119 124 137 145 130 124 128 121 126 147 150 157 147 148 175 175 172 170 108 117 129 137 130 135 127 195 163 186 145 119 116 123 147 157 118 119 123 132 154 147 137 133 116 118 121 103 102 95 95 82 88 85 92 92 91 98 97 115 108 105 89 88 113 126 132 132 149 170 169 157 144 122 111 120 131 137 136 135 131 133 146 156 127 134 125 119 114 113 114 113 118 125 117 109 118 122 119 136 133 132 139 162 149 168 147 154 170 177 181 157 116 137 114 149 122 140 116 186 167 211 151 151 152 124 130 142 113 108 130 140 154 158 134 129 135 129 135 125 123 122 112 104 93 93 84 91 97 91 101 107 104 101 104 102 122 131 138 132 144 160 153 141 125 111 103 116 120 125 137 142 141 138 134 134 132 133 138 131 118 112 103 111 110 110 118 117 121 123 127 136 137 137 155 171 152 164 144 141 156 176 183 140 133 151 121 147 119 129 116 188 159 219 180 135 176 144 127 133 126 108 134 139 148 145 152 136 135 157 146 138 137 136 128 118 108 113 110 98 94 92 107 108 104 98 95 108 118 133 130 133 140 148 137 128 117 108 103 116 119 119 137 143 149 150 147 140 142 128 130 124 119 123 106 116 122 123 131 139 140 140 144 150 151 154 176 174 154 168 153 151 145 160 174 162 137 149 135 139 117 116 125 171 146 194 189 120 162 146 114 139 127 125 139 139 153 147 139 142 139 144 136 142 137 138 135 128 118 117 109 105 112 117 120 117 111 109 109 116 121 134 142 145 143 134 125 117 105 105 113 111 108 106 125 130 151 149 147 145 153 144 134 126 124 120 122 124 138 138 140 149 150 150 160 165 157 165 178 177 168 175 158 149 151 148 160 148 136 129 144 133 119 107 125 161 132 157 171 124 151 147 117 154 132 135 144 144 159 155 149 149 146 160 160 154 152 155 140 128 122 129 121 123 128 119 135 125 114 119 118 127 138 139 148 146 145 138 125 111 101 113 116 119 104 104 118 125 134 147 147 143 141 154 141 142 140 139 133 143 146 155 151 160 164 167 169 178 170 168 179 178 171 169 160 152 152 134 138 138 129 128 142 133 109 106 141 171 123 134 147 139 143 161 116 147 124 131 147 148 162 158 151 145 147 145 163 163 158 148 150 144 138 133 130 137 134 130 128 128 128 123 126 143 140 145 139 145 142 137 128 123 111 115 120 111 106 110 117 127 133 149 156 145 151 149 155 143 146 148 149 149 158 162 163 162 172 173 170 182 177 171 175 175 174 169 151 157 146 126 122 133 127 139 151 113 122 126 134 161 141 135 129 171 147 162 135 146 135 120 147 153 163 159 149 148 141 143 144 147 145 140 148 144 131 126 127 139 126 123 134 130 128 122 122 129 132 136 145 142 136 130 127 130 133 121 119 119 114 119 125 129 134 142 149 149 156 159 153 151 151 148 150 152 160 156 165 165 168 168 164 165 172 171 169 164 164 158 137 161 140 122 115 125 137 156 136 131 133 109 137 138 139 135 124 156 148 162 151 154 149 131 155 153 167 168 159 152 142 151 145 142 141 142 141 129 134 134 138 139 136 129 138 134 121 117 121 127 132 144 151 143 139 144 123 141 144 127 127 125 123 122 127 135 138 135 134 133 146 148 144 142 153 150 145 154 162 157 167 166 173 174 168 168 171 170 173 155 155 158 143 154 123 130 111 115 141 167 136 133 127 109 136 130 124 140 124 142 147 176 180 181 162 145 164 155 163 175 163 155 144 147 147 141 139 149 144 140 140 138 140 146 144 142 148 141 137 133 128 129 146 149 150 147 147 135 131 132 143 149 146 149 140 123 134 143 143 132 129 127 136 138 129 140 152 151 154 156 157 155 158 165 170 174 171 168 164 169 167 149 152 155 150 145 120 120 104 111 145 164 143 134 117 119 131 131 109 119 130 130 169 170 212 208 176 164 165 159 162 168 160 154 148 148 143 136 136 142 137 137 136 140 147 151 153 150 153 154 148 142 135 133 142 145 144 141 146 137 133 147 142 147 152 149 143 131 138 132 143 135 126 120 127 123 115 126 134 134 136 144 148 143 144 154 158 165 161 159 161 157 159 144 145 152 142 133 118 106 118 122 146 160 153 124 107 129 140 127 115 97 123 117 170 189 205 203 186 168 177 164 157 163 157 147 147 148 143 135 136 134 138 143 137 132 145 150 149 153 148 152 144 144 139 136 137 128 130 130 137 139 134 138 143 139 145 142 141 134 138 131 128 126 118 110 118 115 115 119 125 123 124 128 132 136 136 145 147 152 154 148 146 147 145 135 139 144 146 133 117 108 123 132 156 152 154 118 104 142 127 121 132 85 114 99 142 186 220 209 188 170 176 173 155 163 155 147 145 141 146 138 136 137 142 145 140 146 151 151 152 151 142 140 137 133 127 124 126 118 120 125 131 138 141 136 140 141 143 137 132 135 129 120 112 122 116 108 114 117 118 118 125 124 119 120 123 128 130 131 135 135 140 135 136 138 132 129 134 148 139 130 110 121 139 155 166 138 142 117 111 135 127 116 124 107 112 93 125 170 218 217 194 173 173 169 154 154 156 146 138 136 138 140 136 147 138 150 148 162 163 160 157 145 134 139 139 141 134 132 130 123 121 124 128 134 149 151 144 141 141 132 131 131 129 118 113 125 124 116 112 113 119 128 125 124 115 113 116 129 130 122 128 127 129 127 129 129 127 125 129 140 132 127 111 126 157 167 159 125 123 109 117 126 132 126 114 114 118 113 117 151 188 208 196 179 172 162 150 149 151 147 139 138 136 141 133 151 135 152 159 172 167 162 152 142 148 145 147 152 146 140 142 136 135 133 139 145 158 154 148 141 134 131 128 130 118 122 129 133 134 122 114 115 112 116 132 130 116 116 116 125 125 119 124 129 127 130 128 124 122 126 130 135 136 126 107 136 165 168 142 122 113 109 121 128 133 131 116 112 116 130 136 150 168 195 200 186 175 164 146 142 151 143 142 142 141 142 133 138 136 147 164 170 166 158 146 147 153 145 146 157 154 151 145 150 143 144 132 139 155 154 145 132 124 128 127 132 122 127 136 141 139 123 111 114 108 113 126 131 126 125 121 124 124 123 125 127 126 129 130 118 123 130 137 140 136 129 118 148 162 159 135 123 107 100 132 126 132 144 125 122 119 124 156 155 157 192 191 188 173 178 150 144 148 136 141 145 145 141 130 132 137 146 156 159 160 152 138 151 148 141 145 149 141 138 138 137 144 154 149 140 140 140 136 120 113 113 127 134 136 142 142 148 148 122 113 121 120 117 122 134 135 135 134 127 127 131 127 124 130 137 133 119 126 139 144 143 136 131 133 153 168 145 131 107 89 115 137 129 130 147 142 132 130 114 155 161 160 185 185 180 171 179 152 146 142 137 141 146 143 136 132 134 139 142 145 157 152 148 141 148 144 129 130 132 131 134 140 145 147 162 161 151 145 141 134 130 123 118 122 140 138 143 149 153 144 126 110 122 118 120 129 132 138 137 141 132 129 131 126 122 133 140 129 123 128 143 148 136 126 126 140 156 151 132 112 82 90 118 137 131 135 151 149 144 132 114 140 158 167 186 176 162 172 178 152 132 136 142 143 146 144 138 134 134 139 132 137 143 145 146 136 141 135 125 125 128 142 150 154 150 156 166 171 157 154 154 152 141 133 125 122 129 131 128 131 132 132 128 121 119 121 127 133 137 139 140 138 137 131 127 123 122 126 140 131 122 136 146 146 121 109 121 145 144 133 114 99 68 104 131 130 128 140 146 149 155 145 125 135 140 154 168 172 155 169 168 152 135 134 141 143 145 143 138 137 132 133 129 136 140 143 135 131 141 138 133 132 148 154 152 151 155 159 175 170 160 152 147 145 145 140 131 127 122 114 109 112 115 131 136 134 136 136 133 138 140 140 141 138 139 134 127 122 121 125 135 130 128 140 147 150 126 119 128 152 135 116 88 85 84 120 128 120 130 140 147 150 153 151 137 125 133 129 153 156 150 156 167 150 129 131 139 137 145 142 138 136 136 130 119 131 139 133 127 135 137 139 142 136 149 153 167 168 166 171 161 146 140 137 136 124 120 126 124 119 116 114 108 108 114 122 132 133 142 142 140 139 141 138 134 131 131 127 126 120 122 121 132 129 135 141 152 149 122 120 131 157 119 80 75 81 96 117 125 119 131 136 149 147 155 157 144 121 124 111 128 135 132 141 148 143 128 133 133 139 138 138 137 139 133 131 125 131 122 130 122 127 130 132 144 149 153 157 165 177 183 181 154 129 121 134 122 120 137 132 149 129 124 128 119 111 119 119 124 119 123 134 138 147 137 140 133 123 126 123 122 123 117 116 123 126 140 148 156 144 114 107 129 148 93 59 72 83 110 117 124 126 119 145 156 150 156 156 148 135 110 100 106 113 112 125 130 137 122 127 131 140 134 136 135 136 130 135 135 140 131 137 136 133 137 137 135 146 157 165 165 170 167 156 161 125 117 126 119 122 143 136 139 131 135 137 133 126 121 126 124 117 122 124 132 146 134 131 131 122 131 117 116 118 112 113 115 119 140 150 156 130 104 92 126 126 70 56 80 83 121 122 123 124 129 141 151 155 156 158 155 132 121 90 93 97 104 112 113 126 120 117 126 136 130 131 138 132 136 146 150 153 154 151 143 141 139 142 139 140 155 162 161 154 153 142 139 119 109 105 107 130 153 131 150 131 141 145 136 146 140 143 137 133 127 129 137 137 125 116 125 120 127 116 112 113 105 108 108 118 134 142 150 117 100 87 119 98 65 75 76 101 119 123 124 124 137 141 151 157 156 166 156 141 122 104 82 98 107 106 106 119 122 124 122 141 133 130 133 141 145 165 171 172 169 177 158 146 141 140 155 151 160 149 139 138 153 162 166 149 152 141 127 126 153 151 163 160 152 165 150 146 142 144 153 142 138 135 135 128 123 120 126 119 117 113 111 113 103 105 112 119 126 137 134 106 97 96 113 103 82 77 86 117 125 126 121 131 141 141 148 151 155 163 160 144 123 101 93 100 113 107 102 117 122 125 119 136 134 128 129 145 153 168 177 182 178 185 171 162 140 139 149 142 143 139 131 129 140 177 177 172 191 183 164 149 160 154 154 144 155 157 144 145 134 132 140 144 131 138 129 128 121 126 126 121 114 115 108 109 111 101 114 118 121 127 118 103 100 103 119 105 88 78 92 120 125 128 132 128 141 138 146 154 154 153 159 154 121 112 92 112 112 114 96 106 130 125 119 129 137 130 134 141 150 167 170 179 182 179 170 164 141 129 136 136 125 124 110 121 123 153 161 158 175 184 168 167 172 151 153 141 141 136 134 129 125 129 125 130 122 123 122 120 127 133 130 121 118 104 106 101 109 101 111 115 114 119 107 100 104 110 121 99 85 67 112 121 131 134 131 136 143 142 150 157 148 148 157 153 127 113 93 110 110 115 97 101 127 128 117 117 137 131 130 135 143 149 158 170 165 169 171 167 155 129 124 117 119 117 99 118 122 137 141 138 144 169 157 152 167 160 159 149 131 131 129 132 145 136 128 123 128 122 119 122 132 138 124 124 119 108 104 100 104 109 106 110 105 111 101 106 111 119 115 94 82 81 113 117 140 134 135 133 133 147 151 154 150 147 153 152 137 105 99 100 107 115 93 100 115 123 124 112 123 123 124 125 133 136 140 156 150 144 150 145 144 132 116 115 114 105 99 108 109 129 126 125 124 147 125 127 140 153 160 152 152 143 143 139 141 125 120 121 120 113 108 116 126 135 124 127 123 119 109 100 101 107 102 109 102 114 104 108 108 113 114 86 89 121 117 125 134 145 135 134 131 140 150 152 155 154 147 155 126 111 106 107 105 119 97 99 104 113 120 118 121 118 120 120 126 127 130 139 137 133 130 127 128 134 123 126 122 110 115 114 107 120 120 114 120 140 126 124 127 145 162 149 154 145 131 141 140 128 122 120 119 109 104 113 125 124 123 121 120 111 102 101 100 114 104 104 114 120 110 117 104 119 117 114 118 130 125 129 131 147 135 135 131 136 142 149 155 151 149 149 136 117 117 118 109 113 101 107 107 105 108 120 115 133 122 122 120 122 125 130 136 134 126 129 124 138 145 133 132 123 116 112 97 107 103 117 124 127 120 118 123 142 137 138 138 146 145 144 137 138 125 123 118 112 105 100 107 114 117 119 106 107 100 100 109 112 109 105 132 119 118 121 103 127 115 113 127 124 129 129 136 138 137 139 129 141 150 152 159 160 149 142 141 127 125 124 106 109 90 109 107 97 104 113 116 133 130 126 125 121 122 122 126 133 126 125 128 138 138 138 132 129 131 120 113 123 114 126 131 133 134 124 131 139 141 132 141 134 131 121 134 132 129 126 118 116 102 94 101 114 115 116 106 101 103 102 117 118 109 120 141 121 129 122 110 128 121 119 131 121 133 131 131 135 144 136 129 135 151 159 158 161 131 143 145 133 132 123 95 90 80 101 117 100 104 99 119 124 131 118 120 126 122 121 119 122 127 119 126 120 125 126 123 118 121 126 128 131 124 135 130 130 132 109 131 127 120 127 124 133 128 129 133 128 125 121 120 113 94 98 97 110 111 113 105 99 108 110 116 122 111 138 142 124 134 117 128 132 120 127 129 134 127 136 128 140 143 133 139 129 150 162 159 157 130 131 155 153 158 142 93 74 92 120 131 95 102 101 115 119 124 124 123 129 126 131 130 126 128 118 118 113 113 112 109 101 105 115 117 120 110 114 109 106 100 84 100 95 104 106 109 113 111 115 120 118 118 121 116 106 95 94 95 103 106 106 99 105 112 118 120 120 122 146 141 129 132 110 131 134 127 140 136 141 129 122 138 137 137 140 141 134 165 168 152 146 128 138 181 185 173 143 113 79 106 117 127 105 94 112 114 126 122 126 129 132 133 129 132 134 138 138 135 130 131 127 123 112 112 108 114 114 104 104 101 102 99 96 97 102 109 122 123 126 126 130 127 119 121 124 116 105 100 87 96 102 96 104 101 110 120 122 125 124 132 147 139 141 144 146 137 137 126 142 147 154 135 126 133 139 134 143 143 139 156 139 129 144 135 160 199 181 149 141 135 84 88 141 165 113 93 114 116 126 119 134 133 143 141 140 139 141 143 144 143 130 132 126 133 128 124 117 112 116 113 110 110 114 120 119 119 110 115 116 122 124 132 130 121 116 120 119 115 104 100 95 98 103 96 105 105 114 118 122 127 133 137 143 138 140 139 165 159 142 132 138 139 157 149 143 135 134 144 137 140 144 128 121 132 159 149 156 184 173 159 191 154 101 120 165 156 85 108 112 123 122 120 128 130 143 151 153 148 144 156 152 139 131 123 124 121 125 118 112 109 109 103 104 97 107 113 113 121 119 116 117 115 119 124 122 119 113 115 110 106 109 94 97 97 96 93 101 105 116 118 122 128 142 133 133 131 146 155 157 170 158 149 151 137 135 143 142 141 140 133 135 135 145 106 106 134 165 134 151 181 189 212 209 144 155 154 158 116 87 112 116 125 120 118 120 124 126 145 153 147 148 149 144 139 138 133 135 125 116 110 104 100 107 102 108 96 107 112 107 113 117 119 122 123 121 113 110 115 112 107 103 106 104 96 94 100 103 101 107 110 109 116 126 131 141 130 120 146 137 158 164 149 153 151 151 128 112 106 120 123 129 128 116 125 129 96 129 146 143 134 162 180 227 230 172 159 177 159 134 98 78 106 111 122 116 112 115 123 122 139 142 144 154 149 152 144 143 139 142 136 126 111 106 96 95 96 99 95 100 104 104 105 107 112 115 119 112 109 104 104 106 101 101 104 99 95 100 106 115 112 115 110 118 119 132 142 130 116 121 136 156 150 170 160 151 160 147 138 108 101 100 106 102 118 111 103 101 96 115 106 115 133 136 203 227 197 144 185 159 155 111 87 70 89 97 109 115 117 112 116 114 130 135 134 145 153 150 153 148 142 145 146 135 124 115 102 100 100 98 94 103 103 104 104 108 109 107 112 108 108 100 98 96 103 103 104 108 106 109 112 119 115 119 117 112 126 143 140 125 93 111 139 151 156 142 168 171 154 142 132 121 109 94 106 106 115 124 110 98 118 112 102 127 134 144 195 205 160 141 162 141 147 94 81 90 75 100 97 108 120 112 111 107 123 124 129 139 139 152 153 152 147 144 143 136 123 119 119 112 113 110 113 112 112 105 102 99 104 109 110 107 105 100 106 101 109 116 114 119 117 119 124 124 120 122 118 115 132 152 141 123 113 86 139 151 154 133 143 182 162 134 130 126 112 104 94 103 115 119 127 104 126 113 113 148 155 166 194 173 148 139 151 149 146 77 47 103 83 95 90 98 126 125 115 105 115 116 123 132 137 143 144 145 148 137 138 138 129 122 124 119 124 120 124 122 118 115 106 106 110 117 115 110 106 109 117 115 112 126 123 129 125 126 125 122 115 122 119 121 135 154 139 139 123 100 103 159 144 137 126 163 174 137 134 123 125 115 83 94 109 121 128 118 131 118 137 150 184 185 192 171 150 170 161 139 114 47 46 122 99 86 86 90 120 130 124 114 111 115 111 118 131 128 127 136 137 133 140 135 130 130 119 132 132 131 133 134 136 136 124 127 132 127 126 132 125 126 130 127 124 131 130 132 127 124 119 114 115 118 125 129 126 147 142 151 110 100 109 144 144 133 130 133 166 146 136 125 124 123 96 78 97 119 126 125 142 123 159 156 213 221 197 165 133 161 182 129 76 34 72 129 101 88 91 89 109 125 130 129 115 117 106 117 119 122 123 133 132 132 131 138 135 135 132 119 128 139 137 135 139 141 139 137 138 135 134 141 131 132 128 132 129 132 126 124 119 120 112 109 116 122 130 137 115 135 146 146 106 87 117 134 133 140 134 109 151 156 142 121 116 122 97 79 77 100 113 116 147 133 192 190 245 215 157 136 131 191 218 154 44 0 92 138 116 107 115 101 105 113 127 138 125 124 114 113 118 121 120 127 131 128 126 130 115 118 122 110 118 119 122 122 119 115 121 119 127 119 126 123 115 116 121 125 124 125 114 115 108 113 104 112 117 129 131 134 126 123 129 128 98 109 107 132 131 153 135 101 120 146 135 122 112 113 96 73 63 88 95 109 150 175 184 194 240 172 133 134 179 222 214 141 28 16 81 138 140 141 126 122 102 106 124 140 137 134 122 121 115 122 119 120 120 125 124 124 116 109 116 112 106 109 101 102 95 94 98 100 110 106 105 108 100 106 115 118 119 113 107 97 101 112 105 117 122 130 128 130 136 123 104 115 83 118 93 106 125 164 141 101 111 145 124 118 99 103 103 71 55 62 77 91 151 157 151 200 207 145 141 162 195 217 241 118 42 29 100 143 148 151 141 127 126 113 124 138 138 146 140 126 125 123 120 120 117 121 120 119 112 109 112 109 106 103 94 89 87 82 89 88 98 97 98 99 105 104 107 112 108 104 106 95 107 110 111 121 124 127 124 132 136 111 100 117 84 98 90 106 128 160 158 110 103 138 109 120 91 97 100 72 39 46 51 56 100 91 101 163 172 114 147 166 214 214 240 99 48 72 120 129 127 139 153 142 136 133 119 142 142 149 139 143 135 136 131 125 125 124 123 122 111 112 108 103 101 96 87 86 88 85 90 93 93 99 103 102 108 111 110 112 109 107 103 102 113 113 116 124 121 125 138 130 132 116 113 109 104 107 95 130 150 143 155 131 106 132 117 128 99 88 101 76 34 40 45 41 40 17 71 149 130 94 171 179 190 202 217 117 47 109 133 120 120 127 143 168 143 143 135 137 149 150 143 151 152 152 143 139 135 131 126 121 120 118 113 106 101 98 96 93 96 94 102 106 110 111 122 122 117 114 115 113 115 116 115 117 117 120 122 129 126 116 140 139 146 130 113 100 118 121 111 135 149 152 143 126 110 138 116 135 128 97 97 62 34 40 50 25 64 36 95 167 158 122 161 153 164 187 220 155 60 130 139 146 116 120 125 158 163 155 148 149 144 144 149 150 148 155 151 150 150 148 140 133 130 128 124 118 114 108 111 112 105 113 115 123 127 134 138 137 127 130 129 125 129 128 130 131 124 131 136 134 119 117 131 140 147 160 117 114 112 137 132 170 164 145 143 144 115 131 103 117 131 117 113 62 14 24 33 2 112 98 158 186 167 132 125 134 160 156 215 174 72 159 150 156 133 110 121 133 157 168 162 161 153 146 150 144 146 150 154 159 158 162 159 152 147 143 143 134 132 133 134 128 128 134 139 139 141 142 143 148 144 152 142 142 145 141 141 143 142 141 136 135 111 124 135 136 140 159 127 143 116 133 145 195 188 175 125 135 163 171 132 146 181 174 151 101 38 39 46 7 150 171 177 156 141 120 98 132 140 139 225 173 109 161 172 157 149 125 104 128 145 159 154 165 161 151 152 144 147 150 148 154 160 162 164 171 166 159 158 157 156 149 147 152 147 148 151 152 148 152 158 163 163 163 158 155 152 148 147 153 151 146 131 125 112 132 132 133 141 136 125 170 130 147 143 202 203 183 109 107 131 201 192 195 191 198 184 123 90 81 86 56 186 180 155 140 139 119 122 127 127 128 233 196 164 145 177 172 159 149 126 119 141 150 141 149 151 142 157 153 149 151 153 148 153 163 164 170 170 175 170 172 172 170 163 162 161 165 163 163 164 170 177 170 173 162 161 162 155 151 150 153 147 135 125 117 119 132 133 134 146 118 136 165 144 169 159 190 202 187 125 106 81 170 239 230 208 206 178 103 72 82 109 104 197 168 167 148 159 156 162 144 145 145 211 219 176 144 181 183 185 171 159 139 126 146 137 140 146 125 145 152 150 149 150 151 148 155 157 165 163 165 168 171 163 168 164 169 164 165 162 166 174 180 178 172 171 162 157 158 153 150 151 145 135 121 122 116 129 140 123 139 141 103 146 154 154 175 179 191 193 175 127 100 93 168 211 249 255 234 204 149 100 64 84 109 