P2
92
112
255
131 131 130 131 130 132 130 131 132 132 130 131 133 135 135 126 136 128 133 124 134 129 145 136 142 131 132 151 154 153 154 156 150 146 138 128 117 120 114 120 127 149 143 135 144 147 151 169 175 165 171 179 175 161 165 165 156 152 144 161 135 130 130 131 133 134 141 135 139 139 140 134 136 136 133 131 130 132 132 133 131 130 129 135 136 141 139 138 140 142 142 140 132 132 130 131 130 131 131 132 131 129 132 130 134 134 134 130 144 131 134 117 142 148 145 133 154 140 160 166 164 164 159 148 138 145 125 130 130 135 132 137 143 150 161 154 151 145 153 132 152 149 158 169 170 163 155 155 151 141 138 166 145 138 128 128 123 127 134 134 134 135 143 141 136 137 137 137 133 133 134 135 133 132 128 131 133 138 139 142 138 140 142 142 131 131 131 131 132 130 129 125 131 129 130 126 127 115 136 142 132 133 135 136 153 149 145 150 160 152 161 165 171 173 165 145 135 135 117 124 128 137 143 150 158 181 168 171 178 171 161 151 159 161 167 158 147 161 151 148 141 126 131 154 140 134 130 128 125 127 124 127 129 129 144 144 145 142 138 140 138 135 136 138 133 134 131 131 132 133 138 139 139 140 142 141 131 132 133 131 131 133 131 126 127 126 125 123 119 130 144 142 129 132 151 149 153 156 154 152 154 153 158 157 158 159 132 129 113 108 106 123 135 146 149 154 152 186 175 178 185 177 151 150 132 149 145 140 161 163 150 156 153 125 132 136 124 116 125 130 130 122 123 129 130 134 137 143 144 137 139 141 143 137 137 139 137 135 137 133 134 135 138 140 138 140 143 141 135 134 132 132 130 128 129 125 128 124 128 107 117 144 144 126 143 158 171 176 164 165 152 146 141 143 172 132 125 118 110 101 106 105 115 146 148 151 149 166 156 179 167 168 172 180 160 144 143 141 138 138 146 146 166 179 163 154 133 130 128 112 113 117 112 128 127 129 119 130 129 135 139 134 131 133 141 131 141 140 143 137 139 136 136 136 140 139 141 139 142 141 135 135 132 130 123 126 128 125 127 123 116 114 138 141 146 148 156 183 186 177 175 162 162 160 147 130 133 120 89 107 115 111 116 127 139 154 143 143 136 165 165 171 167 167 173 174 166 159 153 154 144 132 143 123 130 140 164 171 170 139 112 117 126 124 112 112 120 124 129 130 124 129 126 129 129 132 142 133 143 144 147 143 140 140 138 140 138 138 139 143 140 144 133 131 131 128 126 127 128 129 125 119 122 140 142 154 158 156 176 188 183 180 169 156 165 153 138 115 94 106 91 103 118 129 130 137 149 156 154 146 151 162 161 165 170 163 171 171 176 182 160 157 157 144 137 131 123 100 121 142 172 152 128 109 105 121 125 108 111 117 131 139 123 123 120 124 133 133 141 133 146 135 146 157 142 142 144 141 141 138 141 141 143 140 132 131 130 126 131 125 127 131 128 134 132 144 158 159 153 161 172 185 180 162 170 174 163 152 116 98 89 112 112 127 126 133 147 140 140 151 148 154 157 155 148 159 153 154 166 172 171 176 168 163 165 156 138 134 142 127 112 116 128 153 158 125 100 109 104 114 122 115 119 118 121 125 120 121 120 128 134 131 133 138 135 150 143 145 146 147 139 143 143 139 142 143 132 132 127 131 131 131 137 133 140 149 156 158 172 163 169 175 172 168 163 160 172 161 136 117 100 114 117 130 126 135 134 137 147 142 141 150 150 153 147 151 147 151 152 152 154 174 166 160 165 163 175 156 156 145 141 136 114 111 109 112 142 150 130 95 95 97 104 125 110 102 120 108 119 116 118 115 125 134 128 131 144 129 148 147 142 144 141 143 145 137 138 141 135 129 128 134 136 128 136 138 152 149 163 171 171 162 178 178 171 159 169 174 168 143 114 119 121 124 129 121 128 139 128 133 145 140 139 148 143 149 152 154 151 151 149 151 157 170 163 161 162 178 172 157 159 159 154 151 135 114 116 111 101 110 164 133 97 84 92 104 115 106 112 107 107 112 120 114 113 130 127 139 138 147 140 147 144 149 141 141 144 139 136 138 145 139 134 131 136 131 141 139 151 166 171 165 157 160 175 154 170 161 182 164 141 113 127 128 123 118 123 124 117 122 122 134 132 138 138 149 150 142 154 158 161 159 153 154 152 160 159 167 161 176 160 164 164 160 167 161 157 145 127 116 113 98 121 152 142 107 76 96 99 122 112 99 113 115 118 123 106 123 118 142 143 139 144 140 149 140 153 139 145 141 139 140 157 134 137 135 132 131 138 141 148 155 158 158 157 160 148 155 167 165 165 148 126 127 141 124 111 110 114 124 132 114 128 128 133 135 140 146 139 146 151 153 151 153 151 159 157 156 164 164 174 171 158 164 167 167 175 173 164 159 156 129 120 104 94 125 158 155 111 73 86 104 118 111 109 124 115 127 126 115 114 131 137 142 134 149 149 139 161 151 147 142 142 137 137 137 134 137 133 143 138 149 146 144 153 145 139 150 155 160 157 176 153 126 139 130 115 111 105 121 127 126 128 114 124 124 128 129 135 144 137 133 148 143 147 146 137 149 143 154 157 154 173 167 167 165 175 174 178 172 172 170 163 149 129 118 102 97 125 163 174 118 78 72 99 110 117 105 113 113 135 115 120 111 130 129 141 156 156 142 169 153 156 149 144 142 134 146 143 137 143 152 137 154 157 147 140 147 146 148 167 155 161 171 124 124 137 120 103 107 116 127 124 125 125 118 113 114 118 114 122 136 135 132 143 143 141 137 140 136 138 146 156 162 164 169 172 171 182 176 179 171 180 171 172 158 150 137 127 112 106 114 172 166 136 85 78 99 104 117 99 98 119 130 136 119 118 122 144 144 152 156 157 167 157 156 148 147 135 164 148 137 153 154 148 157 151 141 150 129 144 155 173 167 166 135 126 119 112 110 107 122 116 132 117 127 124 125 111 116 111 124 114 132 134 143 146 142 146 137 138 133 128 138 153 157 159 166 169 168 172 175 173 173 177 171 175 166 154 146 141 126 109 123 125 171 175 121 87 74 78 90 108 99 95 117 134 129 125 122 126 132 152 149 157 173 172 159 162 151 142 164 160 142 145 146 148 166 156 158 150 133 153 157 167 148 129 124 120 118 108 118 119 129 126 134 121 126 131 122 110 125 124 128 126 130 139 151 144 144 141 129 134 130 129 130 142 156 160 157 164 172 170 166 169 175 173 178 178 170 167 152 155 142 117 132 124 136 165 173 129 78 70 75 93 108 95 100 121 142 139 130 129 131 156 154 141 168 173 171 169 162 140 174 158 153 137 141 152 176 144 150 141 141 153 177 156 133 116 123 123 119 120 118 138 131 137 135 135 136 134 131 128 136 136 138 142 144 140 148 157 154 140 131 132 128 126 127 132 144 157 159 158 170 171 164 175 177 176 177 174 177 164 164 155 146 140 130 128 117 129 155 172 119 88 82 86 91 107 95 105 135 158 126 140 137 143 159 142 155 164 169 166 168 140 175 163 137 144 152 151 164 139 145 142 144 159 177 140 100 128 117 103 114 131 118 136 141 138 133 136 142 138 150 145 149 150 146 149 151 150 142 156 160 152 136 137 139 138 128 137 148 155 159 162 169 166 169 170 175 177 179 173 175 159 162 152 146 141 135 129 121 115 132 161 152 103 85 83 80 89 104 90 113 137 142 128 140 136 153 134 158 153 157 164 172 156 170 168 153 158 153 160 157 144 133 139 131 164 146 98 134 132 111 112 121 126 128 135 134 147 145 132 138 143 153 159 160 162 158 162 160 162 145 163 152 164 154 152 149 140 135 139 144 160 155 164 165 168 167 163 169 173 171 172 172 162 159 150 151 138 130 123 126 103 119 126 160 130 106 73 80 76 97 98 93 112 147 138 126 143 148 148 160 156 151 158 172 156 163 165 169 177 176 156 146 131 130 124 152 150 88 110 138 121 109 122 127 127 133 133 118 141 143 137 137 149 150 163 174 169 171 168 170 173 165 164 161 173 159 168 153 141 139 147 145 156 162 157 165 167 167 169 164 179 162 165 161 158 160 146 142 141 126 125 115 111 87 121 135 153 100 96 74 80 73 98 90 98 125 151 135 115 158 153 163 153 152 145 159 153 164 168 179 180 183 162 115 127 144 131 162 92 82 131 125 115 115 124 128 128 128 135 127 138 134 140 148 147 158 157 179 168 167 175 174 171 172 171 171 182 170 168 164 153 153 149 152 149 163 163 167 167 164 172 162 168 158 168 161 150 159 144 142 135 130 128 123 109 92 98 123 150 119 109 88 79 71 81 105 82 119 132 152 128 140 157 162 153 162 148 159 158 166 167 193 172 162 128 103 139 149 135 142 61 103 138 118 119 124 128 129 123 135 132 129 135 139 141 146 149 155 161 174 163 166 173 174 174 171 178 178 180 181 173 167 167 157 148 155 159 155 163 162 163 167 173 158 156 161 161 157 149 153 146 134 138 128 133 120 116 105 100 110 133 146 120 92 74 71 58 95 91 90 122 149 128 136 168 151 155 164 147 164 153 169 191 171 168 132 97 142 152 124 148 87 52 120 140 121 109 114 130 131 119 129 126 139 133 136 138 133 147 147 150 166 165 163 174 173 175 163 175 175 174 177 173 161 168 162 156 161 161 160 151 169 168 158 166 164 155 160 151 151 139 146 139 129 144 131 130 124 123 116 102 107 125 140 151 94 82 75 64 67 95 86 102 133 140 130 154 163 161 143 164 145 157 183 185 161 153 107 111 157 139 135 152 48 71 127 140 118 117 122 123 126 122 127 122 134 136 133 133 118 134 145 143 150 160 156 172 166 165 165 171 168 173 167 165 159 155 158 158 158 163 155 160 155 164 161 153 158 155 157 148 148 136 141 141 137 139 131 138 130 130 112 111 101 121 121 160 117 84 101 102 56 84 93 87 133 143 133 124 168 159 140 139 151 161 191 173 163 125 115 121 156 123 133 110 25 90 136 125 124 124 125 110 129 124 126 122 129 127 122 116 118 125 129 135 141 144 156 168 158 154 159 161 167 165 160 151 148 149 147 150 147 151 153 159 153 148 151 148 152 155 148 142 143 138 142 140 139 145 135 130 137 127 120 114 101 124 111 156 134 103 115 119 71 55 100 71 121 141 158 122 146 172 143 130 140 162 200 172 147 129 87 139 157 129 144 57 31 110 129 109 130 121 118 109 126 125 121 123 125 117 113 109 110 118 121 126 128 134 142 161 158 151 150 155 164 159 151 154 146 146 145 145 147 145 153 149 145 140 145 144 146 151 145 138 139 138 139 138 138 144 135 131 138 128 130 126 91 141 132 131 149 108 125 114 91 54 95 71 80 141 157 115 144 176 161 130 131 186 213 159 177 98 78 138 156 131 131 25 53 112 121 116 130 123 120 122 123 122 114 123 116 112 112 110 115 114 112 123 116 132 141 155 155 145 153 155 158 155 145 148 149 148 146 140 138 144 143 141 128 138 144 143 140 149 136 138 133 136 133 131 133 135 136 131 131 130 143 129 113 138 149 132 157 117 144 120 110 59 81 96 64 114 152 135 138 161 175 132 122 220 193 184 168 80 85 147 158 140 112 32 69 115 115 120 132 127 116 117 117 107 115 122 117 113 120 113 115 115 113 117 119 135 149 148 151 152 150 155 157 157 155 150 145 145 145 139 135 134 138 125 124 134 140 134 137 145 135 133 134 136 132 131 129 130 135 126 126 128 139 139 128 145 151 132 163 129 125 151 112 66 69 103 71 121 142 138 156 148 152 138 108 222 203 167 184 99 97 146 176 138 92 41 65 109 123 121 137 136 123 117 114 107 109 115 112 113 117 118 115 118 115 119 121 136 143 142 148 147 150 156 146 155 164 161 150 144 150 132 130 129 116 114 115 123 128 126 130 134 133 126 131 126 128 139 126 125 135 118 127 132 135 156 136 157 164 143 149 163 119 166 105 92 63 101 78 130 130 134 159 151 145 148 106 192 209 152 186 128 117 176 162 144 87 38 68 117 119 130 139 146 122 125 120 116 112 107 115 117 122 119 116 119 119 118 124 134 136 139 142 149 142 152 148 159 162 162 155 143 146 132 120 118 110 104 102 112 124 132 129 132 131 130 121 129 124 136 127 127 137 119 121 131 143 157 151 163 170 154 154 184 139 163 118 98 81 98 91 118 145 136 167 144 134 142 127 174 195 157 173 143 149 184 141 158 80 51 73 108 127 143 139 142 122 120 123 117 110 114 122 117 121 117 115 115 112 116 121 128 133 138 143 150 150 156 155 158 166 159 160 149 130 131 112 113 107 97 99 106 118 125 120 121 121 114 117 116 119 125 129 126 136 128 129 138 154 157 164 175 170 175 151 189 162 162 130 103 102 99 127 110 144 114 172 143 100 130 135 161 185 145 166 155 180 186 165 149 81 55 67 108 133 147 127 129 110 108 115 107 97 105 99 103 105 96 99 98 90 99 104 110 121 122 126 141 143 142 155 156 170 166 168 149 118 124 118 114 110 102 111 118 121 127 118 120 126 122 117 116 116 118 126 138 144 132 139 143 160 163 172 180 184 193 166 195 180 168 146 93 133 115 140 116 154 114 131 168 138 139 158 156 173 145 158 152 201 195 162 142 85 64 74 112 123 136 113 120 92 90 92 84 69 69 64 66 87 68 76 81 65 75 89 92 96 100 109 124 136 134 146 160 166 172 170 144 122 135 124 141 124 133 150 152 162 178 175 180 188 177 157 143 138 129 127 152 149 152 155 165 161 171 195 194 204 203 190 193 179 175 161 94 141 141 139 138 165 136 129 190 204 163 189 157 161 147 155 160 202 214 176 150 89 70 76 92 108 122 95 99 75 73 60 58 58 59 48 51 58 65 64 67 61 70 74 78 89 94 105 116 135 136 132 157 185 175 176 172 166 194 169 192 155 158 178 171 172 186 190 181 197 180 151 154 143 145 134 145 161 159 167 176 160 173 187 202 218 213 214 203 202 173 178 117 141 152 145 141 175 157 161 189 225 188 196 154 161 150 164 164 201 222 182 140 107 61 90 82 95 107 79 71 70 75 63 77 88 80 71 78 89 92 97 101 100 105 112 111 123 117 130 124 131 145 139 152 176 158 171 186 169 179 163 176 149 152 176 170 166 166 166 162 179 148 135 136 134 134 133 133 131 130 143 159 155 162 169 192 207 210 223 203 211 192 190 138 143 143 147 159 190 156 151 179 223 196 190 168 168 164 168 187 191 218 169 168 117 76 100 90 99 89 61 61 74 81 83 102 110 109 110 114 126 136 146 146 147 161 165 163 161 149 151 156 145 155 160 152 151 161 161 166 156 163 157 165 152 140 159 142 139 135 134 134 137 137 135 135 133 133 133 134 135 132 129 128 125 126 135 155 180 196 211 218 201 212 187 141 135 153 120 165 178 173 153 184 207 212 209 153 183 157 170 168 204 218 169 178 130 95 102 103 106 99 90 82 86 98 107 131 144 152 149 156 163 167 166 167 166 161 162 161 165 163 163 160 160 158 156 153 152 149 147 145 144 142 141 142 139 140 142 140 141 139 137 135 138 138 137 135 136 134 133 134 135 133 129 132 128 126 120 106 135 165 168 199 194 198 222 168 147 153 118 139 167 177 165 179 173 205 207 152 167 152 168 178 214 201 184 167 138 115 124 109 127 109 77 81 102 111 132 155 159 158 139 137 138 137 155 168 160 162 158 157 157 155 156 153 154 154 153 152 148 149 145 145 144 141 139 138 138 140 143 140 141 141 140 139 140 138 138 138 138 135 135 136 134 133 132 131 129 129 112 90 102 122 136 166 179 177 188 190 191 151 116 129 151 174 179 165 155 207 179 146 173 158 168 183 214 162 187 181 177 163 167 116 148 117 80 92 126 126 125 155 159 158 147 148 143 155 159 162 162 158 156 150 149 148 147 146 146 148 147 147 147 147 145 143 142 137 135 133 137 140 141 140 142 144 144 145 141 142 142 140 139 137 138 140 135 135 132 130 128 127 123 85 80 88 98 140 150 161 184 172 206 162 114 124 145 160 176 158 152 182 152 165 163 163 182 163 183 171 192 184 182 197 197 141 167 120 92 135 156 150 151 149 151 151 150 152 152 151 154 152 156 155 150 149 147 145 144 145 143 145 145 145 144 144 143 141 140 135 135 133 138 142 144 146 146 149 148 148 152 144 143 143 140 141 140 141 138 137 135 131 132 128 126 125 116 110 90 123 128 150 165 196 185 162 141 134 141 147 167 156 138 156 130 174 199 158 175 176 178 170 183 183 181 213 228 177 159 122 105 142 146 148 148 148 147 146 146 150 149 151 153 150 153 152 151 151 148 147 148 147 145 146 145 144 142 142 141 142 139 135 136 137 140 147 147 149 149 153 152 151 150 148 146 148 145 147 143 142 141 138 135 135 136 133 131 129 130 130 112 123 137 149 142 192 185 150 151 160 146 143 163 136 139 140 122 142 194 188 197 166 152 183 165 156 188 234 251 184 117 122 150 147 145 146 146 147 150 159 152 168 174 158 149 147 150 150 153 154 152 151 150 148 146 144 144 144 140 140 139 139 140 138 139 140 144 150 152 155 154 155 157 154 152 149 147 149 151 151 151 147 146 143 136 140 137 140 138 135 132 131 131 144 150 149 158 139 152 147 156 182 129 124 134 130 139 112 131 136 175 193 201 158 137 153 157 143 184 229 246 137 94 125 144 137 134 133 104 106 131 100 113 137 140 148 146 150 153 153 157 155 155 154 153 151 150 145 147 144 142 144 138 141 143 143 142 142 148 150 154 153 156 158 159 159 154 153 151 156 159 157 154 155 152 152 143 142 140 142 142 142 137 136 134 138 150 154 160 157 147 129 127 200 73 102 98 129 138 106 118 153 212 190 161 151 127 121 178 155 167 212 232 106 52 131 144 134 132 108 118 127 155 131 136 134 137 139 144 145 151 154 157 161 158 158 157 154 150 144 144 143 140 142 140 141 145 145 142 145 148 152 152 147 151 157 156 158 158 160 158 163 161 159 153 152 150 151 144 142 141 139 143 145 163 174 148 141 153 156 165 163 155 140 101 194 22 45 108 138 147 108 123 168 219 189 151 149 126 119 162 121 156 179 236 80 32 130 143 131 128 111 123 130 126 132 133 134 135 136 136 139 144 144 148 154 154 151 153 152 146 139 137 136 137 135 132 128 133 135 139 144 146 149 146 144 144 147 148 154 151 171 180 156 153 152 147 148 147 141 144 143 143 138 139 148 155 186 164 138 147 158 165 164 137 137 59 166 68 59 132 149 115 139 122 154 167 174 176 142 132 129 136 115 156 145 150 76 44 118 135 124 120 128 122 88 121 119 128 97 128 135 140 140 141 151 152 150 149 145 152 143 143 131 132 134 133 132 128 124 129 134 136 142 143 152 151 149 144 148 146 147 149 149 173 168 149 150 173 144 137 132 135 136 136 132 138 136 152 188 178 143 147 158 171 175 138 126 78 152 105 93 166 137 127 115 107 118 140 165 149 128 126 121 131 114 165 140 145 83 68 120 134 124 118 156 112 101 113 114 118 84 123 127 140 130 133 143 141 144 143 140 145 133 128 123 129 132 127 124 126 123 148 106 129 140 145 148 153 149 138 140 142 144 143 143 204 159 136 134 142 146 133 134 136 135 125 130 132 139 128 174 138 100 139 162 173 168 119 129 87 81 82 102 166 137 141 127 103 138 161 144 137 116 121 109 119 112 175 194 211 110 143 129 127 120 136 126 116 108 102 109 116 132 138 136 140 129 129 134 132 147 129 131 129 128 124 121 126 127 107 122 136 120 150 136 141 145 143 153 156 155 142 140 136 143 148 147 165 138 137 122 133 143 136 134 131 134 131 127 135 144 133 130 151 94 114 161 182 151 118 157 64 0 83 132 185 103 133 126 108 143 166 146 130 111 119 108 111 140 168 179 199 145 146 122 137 134 132 108 116 106 99 127 147 167 153 159 143 120 113 110 129 136 108 125 113 111 109 126 115 119 115 122 124 141 130 141 147 151 155 159 162 160 144 136 134 140 145 157 154 150 150 140 131 137 136 131 130 127 128 131 129 141 143 131 134 72 87 139 180 175 108 157 92 32 50 126 138 100 128 137 99 137 146 154 137 117 121 112 101 148 154 168 145 100 94 116 135 139 104 93 124 151 135 160 182 205 211 183 176 137 148 140 144 107 104 126 114 127 123 132 110 109 107 125 141 142 135 136 100 153 157 167 131 158 153 137 180 160 119 159 162 166 192 171 166 164 144 134 152 136 143 142 133 142 139 138 136 101 119 120 150 177 76 119 99 65 18 83 101 91 117 165 118 155 132 156 149 127 127 107 93 122 120 190 166 131 74 83 119 164 83 114 161 204 198 186 190 195 208 204 186 159 166 146 139 106 110 136 121 124 105 124 112 104 108 145 144 122 119 100 75 116 170 215 124 164 213 181 206 183 174 172 176 168 187 195 170 177 175 183 139 167 190 181 155 172 146 148 146 113 139 144 146 170 79 120 92 54 20 40 126 113 110 161 134 151 120 131 148 139 126 105 123 130 173 231 194 112 132 95 123 196 102 127 185 229 255 238 189 178 185 197 186 183 171 163 160 150 144 138 102 95 102 118 123 95 149 159 172 62 88 100 82 80 172 197 137 158 195 201 165 171 153 172 178 147 199 207 140 154 189 162 156 184 180 189 172 205 176 198 199 126 142 140 138 144 60 163 87 47 37 49 113 136 124 110 146 133 122 103 145 145 130 107 129 143 169 230 206 98 136 151 171 207 117 130 176 211 241 222 187 168 165 178 154 170 160 171 160 150 137 125 96 109 112 112 117 104 168 185 146 54 73 103 111 77 168 165 160 151 162 191 176 163 157 147 136 120 174 161 130 106 109 135 155 149 138 156 169 192 169 218 214 145 138 148 116 85 70 171 92 58 50 60 121 155 147 115 133 135 124 105 145 154 143 117 130 150 168 205 196 120 137 167 167 234 160 177 194 175 191 188 174 166 161 145 161 164 163 155 139 128 120 117 105 113 99 104 114 114 179 200 111 89 73 78 101 98 133 163 166 167 117 180 203 142 171 179 160 138 165 168 141 112 160 170 155 145 136 142 159 171 141 203 193 167 138 183 164 66 108 210 99 87 70 94 132 154 166 160 127 136 132 121 149 155 143 124 128 150 195 187 199 137 126 184 135 187 157 169 166 139 155 154 153 161 163 144 187 173 161 141 127 120 118 138 121 116 85 119 97 142 205 153 112 93 116 90 75 102 124 175 203 186 137 141 191 170 169 201 198 133 174 165 146 129 158 171 162 152 146 159 172 161 124 168 157 172 139 181 181 70 180 200 105 116 73 116 144 183 172 175 134 140 125 133 157 150 141 120 127 149 188 212 182 110 151 143 158 102 143 145 141 148 163 168 170 174 163 172 168 141 131 130 142 131 140 144 123 85 73 143 50 161 196 158 103 107 128 121 97 104 65 147 179 169 140 108 149 165 155 161 194 169 153 164 133 145 147 153 165 154 158 164 195 151 141 162 134 163 120 150 126 87 234 149 104 114 101 134 136 196 175 171 154 149 128 138 154 140 141 114 127 155 183 204 214 100 130 108 129 129 87 102 105 146 148 129 126 142 154 157 142 121 122 138 165 148 146 145 118 75 121 121 112 190 195 168 119 118 121 116 108 98 85 149 206 198 182 135 128 166 190 164 199 214 165 164 140 151 127 127 154 151 166 173 194 134 168 153 140 132 117 135 101 205 210 84 115 126 106 136 134 176 173 167 161 155 125 133 132 137 134 109 112 140 171 201 212 107 106 136 118 106 49 80 54 64 80 99 122 145 147 121 114 124 127 131 154 154 152 142 89 100 139 130 172 200 203 161 144 127 111 108 113 80 112 136 181 214 223 156 137 179 205 191 189 223 190 177 152 133 99 118 137 154 153 172 151 121 172 140 138 127 116 143 170 228 155 105 125 130 116 145 145 175 171 178 163 150 123 133 123 135 129 113 123 151 182 188 189 121 66 131 135 124 82 50 22 20 43 55 92 114 131 132 140 162 153 142 154 162 132 115 106 160 156 170 203 208 202 160 142 145 123 106 103 90 123 147 141 217 220 209 121 172 203 201 204 188 188 155 170 122 123 130 129 141 160 168 106 144 165 159 155 133 131 145 173 175 143 124 140 95 126 155 152 176 176 174 169 178 123 138 124 133 129 123 105 156 194 211 205 208 87 91 169 120 139 108 51 30 40 40 66 101 108 127 126 140 132 140 145 136 126 155 200 184 161 190 198 203 182 156 141 142 144 132 79 90 114 161 155 168 183 228 160 123 196 167 173 182 181 128 137 144 159 158 167 161 168 150 144 167 178 172 176 139 126 107 163 159 116 111 121 97 127 150 160 166 174 149 180 211 132 143 128 141 137 132 106 139 186 201 209 195 164 81 144 173 144 133 108 75 108 119 114 135 146 151 142 140 140 140 156 167 166 182 163 132 149 151 153 182 163 141 136 135 132 123 77 78 80 130 139 138 133 164 161 135 129 144 142 145 175 135 124 126 121 117 106 115 113 115 124 144 164 159 152 120 132 118 163 138 128 120 120 91 134 145 160 147 180 130 179 215 132 141 133 136 148 134 116 127 175 198 207 195 169 163 135 161 173 122 128 113 102 140 143 148 158 159 159 173 179 194 198 183 146 134 131 134 141 111 140 131 124 123 134 131 137 123 134 118 114 118 141 157 164 170 160 149 146 151 150 154 162 147 112 119 120 119 120 126 134 125 133 154 149 169 134 140 158 121 136 116 119 119 104 93 135 132 144 149 188 128 181 205 135 139 132 125 152 136 112 130 155 176 192 190 143 152 184 192 186 168 162 126 101 118 161 187 189 179 174 171 184 175 162 147 134 124 141 156 143 135 117 121 132 161 166 163 143 161 139 137 143 144 153 170 183 193 184 171 172 165 173 185 181 182 157 137 166 160 153 143 148 136 145 173 175 179 170 147 133 118 125 116 132 130 116 88 142 135 134 165 168 147 156 218 135 136 136 116 138 136 120 133 142 168 190 191 131 134 142 163 184 155 139 136 108 119 111 149 171 154 150 140 142 151 155 141 121 119 153 168 153 156 131 147 161 180 161 143 156 125 124 143 152 153 154 152 175 183 190 191 184 172 166 154 168 172 157 165 142 161 156 160 160 160 164 182 191 187 186 153 152 123 130 132 146 146 127 93 134 128 128 153 158 150 168 219 131 142 135 126 129 123 115 128 133 152 188 193 145 132 139 165 171 174 131 136 137 143 159 158 148 131 124 124 130 125 122 118 114 117 141 159 153 129 147 145 171 185 159 165 157 119 132 157 134 146 155 145 155 163 185 189 188 174 161 146 161 157 146 146 159 139 134 142 161 161 159 181 198 195 193 164 150 138 129 137 140 128 121 103 122 121 128 152 165 167 154 219 119 140 141 143 131 113 113 124 144 145 176 183 153 140 142 153 166 167 173 167 162 149 157 167 159 137 122 111 116 118 119 123 123 125 129 129 130 134 129 133 135 150 162 177 173 155 147 133 120 139 161 139 130 137 164 161 180 166 159 130 155 157 133 129 152 146 123 126 131 131 136 145 164 173 185 161 141 124 118 128 147 148 165 128 109 119 124 161 175 171 162 236 151 124 134 140 144 120 112 130 154 153 171 177 151 136 141 145 159 141 158 163 164 153 160 166 165 147 118 118 122 126 123 126 134 138 142 143 128 135 131 137 139 131 130 137 160 143 134 117 112 125 137 128 129 134 140 142 162 149 161 133 152 153 149 134 136 135 129 125 135 139 152 154 169 178 191 184 155 153 151 151 168 174 172 132 118 113 131 156 158 163 168 231 173 114 123 129 136 134 107 129 134 161 168 171 153 133 144 139 145 136 125 135 141 155 160 179 174 157 120 121 125 128 127 131 137 141 153 145 123 136 131 138 140 132 125 131 136 136 129 127 123 131 129 129 126 133 142 150 147 143 127 128 155 157 144 136 127 134 127 129 138 142 149 162 169 174 191 184 152 147 145 141 176 185 175 148 133 119 135 152 161 159 151 193 191 120 132 124 140 138 112 125 135 159 168 170 167 142 162 149 146 129 122 130 139 158 164 177 173 156 131 122 127 130 128 126 128 130 135 140 139 133 129 137 140 136 131 135 139 137 136 128 126 128 129 131 127 137 146 153 151 145 132 130 152 147 137 129 133 134 133 129 132 147 151 179 182 183 191 186 157 147 138 147 171 182 187 155 134 127 139 149 148 162 128 129 200 127 138 126 136 136 109 103 116 144 155 162 173 167 164 165 151 137 137 129 159 178 167 160 165 143 134 119 122 125 125 124 127 133 133 141 143 142 136 140 139 138 139 140 143 146 138 136 137 140 134 128 133 146 152 151 151 147 138 143 157 141 130 127 131 131 130 129 128 133 148 165 180 189 194 175 160 151 140 150 155 175 175 153 136 135 140 148 158 138 114 116 179 137 141 137 137 135 107 110 95 145 151 160 178 184 167 161 159 151 129 161 182 174 169 157 146 131 119 119 120 123 121 123 127 134 131 136 142 143 139 140 143 137 142 144 143 149 148 147 145 146 149 145 143 143 148 146 141 145 134 149 160 131 127 129 131 129 128 130 130 125 133 152 171 182 189 168 155 159 142 135 161 165 156 154 145 133 148 144 155 110 123 120 141 150 146 149 138 137 116 111 109 133 163 170 189 180 178 173 169 169 154 182 177 170 163 153 135 127 117 118 120 126 127 142 153 154 131 132 136 134 136 138 142 136 140 141 143 148 151 155 148 148 155 151 147 138 141 146 144 149 154 149 158 140 132 135 137 133 132 135 133 127 124 142 155 164 182 150 152 161 145 151 178 153 160 159 145 138 153 137 129 115 124 126 122 153 146 159 143 139 125 113 121 136 163 176 190 180 174 179 164 167 171 182 177 137 149 150 128 121 116 116 122 126 137 145 145 149 129 127 125 126 128 128 136 138 139 137 137 145 151 151 146 147 154 151 138 131 128 134 136 143 147 142 158 138 131 133 137 133 135 139 140 129 125 134 140 149 166 152 143 164 154 154 156 147 166 151 148 141 139 126 125 130 129 119 110 139 158 163 153 138 129 118 115 133 158 178 192 176 175 176 164 165 171 174 173 153 145 150 126 121 113 116 122 120 128 133 131 137 127 126 127 128 134 132 140 146 143 138 139 136 144 146 138 142 151 149 141 128 129 130 128 136 147 145 138 137 131 136 140 138 137 138 138 132 128 129 129 132 148 137 136 161 156 154 146 146 170 146 149 138 142 118 137 128 129 126 114 134 178 161 161 141 137 115 117 123 160 167 176 169 174 168 159 157 157 154 155 143 139 134 127 125 118 121 121 121 125 130 127 125 126 129 134 139 143 138 142 147 152 145 143 144 146 147 138 131 137 143 144 134 134 136 134 132 135 134 135 131 129 135 141 142 143 139 135 132 124 126 127 129 133 133 132 140 151 145 146 154 165 137 148 140 133 121 126 129 125 133 133 134 158 158 164 145 148 120 121 118 155 180 171 166 171 175 163 149 148 143 146 148 145 140 130 127 119 119 120 123 130 134 132 126 130 135 139 145 152 146 142 144 147 145 142 145 146 144 138 125 127 132 131 129 128 138 142 140 137 133 132 127 127 130 145 150 147 142 137 131 123 126 126 128 127 128 126 131 136 146 144 161 154 133 137 129 131 137 122 112 89 132 142 139 155 155 160 141 157 131 120 120 133 182 175 172 176 185 166 134 151 142 147 146 146 142 138 132 125 118 117 121 131 138 140 138 137 133 138 145 150 144 140 135 135 126 126 121 131 126 122 123 120 125 120 118 118 136 144 143 137 137 130 130 127 131 143 148 147 139 137 129 121 127 121 122 123 127 129 133 142 158 145 167 152 135 118 125 131 134 136 108 82 134 140 143 149 151 151 139 153 142 124 123 125 156 170 168 179 183 157 132 139 144 147 151 150 146 138 135 129 119 122 119 121 137 140 147 150 139 129 130 131 128 126 123 118 112 109 106 109 105 107 119 119 118 114 107 111 121 134 138 131 132 129 129 132 133 139 141 139 136 135 127 121 125 121 121 124 133 125 136 142 141 162 165 134 124 124 122 136 148 135 106 94 139 138 143 146 147 149 133 146 145 123 125 122 155 149 160 185 182 151 141 136 143 145 149 148 150 146 139 128 119 120 118 120 127 140 152 157 150 145 135 128 120 115 115 113 115 117 114 107 108 110 112 120 119 116 114 113 116 126 129 129 130 128 130 132 136 138 138 137 132 130 123 123 123 120 115 125 130 129 137 140 150 171 152 113 118 133 122 133 144 126 108 103 141 139 140 144 145 144 135 134 136 131 122 122 124 125 153 170 180 145 139 138 139 143 145 147 147 151 147 136 130 125 126 127 128 134 145 154 153 148 146 140 134 126 127 99 126 125 74 92 67 103 112 117 121 121 121 124 128 135 133 132 138 131 133 132 134 136 130 130 123 120 120 122 122 118 117 120 129 126 134 142 151 156 134 117 114 130 124 145 135 124 121 101 136 139 137 148 148 153 135 127 128 122 125 123 123 124 131 147 160 138 135 135 134 138 143 148 150 148 148 143 143 135 136 135 137 133 140 150 145 137 137 127 138 129 128 120 126 134 87 103 114 125 120 124 125 125 130 134 140 143 143 131 141 139 135 132 135 135 126 125 118 117 116 121 120 118 118 121 129 124 138 138 151 157 132 123 132 134 136 148 139 111 118 99 135 138 140 143 165 139 134 123 120 113 117 130 128 124 138 139 138 139 135 133 130 131 135 139 141 141 145 151 154 151 142 142 146 139 138 139 135 129 129 124 131 123 126 130 131 141 95 125 113 137 132 135 132 132 134 143 145 146 147 142 141 141 136 138 132 132 124 120 116 113 114 119 123 118 118 125 124 126 133 143 152 143 140 142 140 146 136 141 144 117 97 93 137 128 142 145 167 141 134 124 114 112 108 126 133 127 137 143 138 134 134 133 125 126 125 124 122 127 132 143 150 149 143 141 143 140 138 126 121 124 118 94 99 121 96 85 127 125 67 84 66 67 111 120 117 133 138 145 146 146 145 143 138 140 140 136 130 125 124 119 111 113 117 119 122 119 122 125 120 127 130 135 132 147 140 154 138 140 137 129 130 113 97 90 141 140 138 143 157 146 127 125 120 108 101 116 130 128 134 144 138 134 133 131 126 120 119 113 116 119 125 134 140 142 140 137 134 130 127 119 113 101 98 56 72 79 54 39 75 76 45 43 45 49 70 95 102 108 128 138 146 148 146 123 137 138 139 132 126 124 122 117 112 114 120 119 121 119 122 125 119 132 127 135 130 140 152 154 148 138 138 123 116 103 94 105 142 138 140 141 150 148 128 127 125 108 99 113 130 127 133 147 141 132 130 127 120 117 116 112 113 118 125 133 135 147 136 137 132 147 146 126 119 94 77 43 55 59 34 32 48 55 17 31 30 43 66 106 107 102 124 129 151 150 138 142 139 137 135 130 123 124 119 119 117 120 121 124 124 123 124 126 126 132 128 135 141 141 143 125 150 143 145 130 110 98 97 104 136 138 140 141 146 147 131 124 127 114 103 110 126 129 132 144 147 132 126 124 121 119 118 113 115 119 125 127 133 139 139 148 154 164 156 148 118 119 85 82 91 90 105 74 110 122 76 78 88 94 122 147 118 128 137 151 174 160 141 141 133 132 129 129 122 120 120 119 122 125 129 130 127 125 128 127 129 136 133 135 130 142 125 126 142 139 124 113 107 100 108 87 139 140 138 136 146 145 137 135 129 119 109 108 119 132 128 144 147 134 126 127 121 118 115 116 117 118 123 125 134 127 131 149 164 158 146 135 134 140 110 99 117 105 135 126 137 155 138 158 154 165 161 182 154 156 160 177 193 157 144 140 134 129 127 126 125 121 124 123 124 128 132 129 126 123 130 135 136 134 137 134 129 131 123 131 137 129 129 105 101 99 110 91 140 140 139 141 140 141 157 145 131 124 117 111 109 128 133 149 151 138 130 130 125 121 117 119 118 121 128 128 125 126 127 149 148 154 146 127 143 153 137 143 143 155 165 181 171 162 175 177 182 171 161 176 150 140 147 156 161 141 138 135 131 123 120 125 127 126 129 128 131 133 134 132 125 126 130 134 135 136 137 135 132 145 128 139 138 130 123 104 107 96 103 101 141 141 137 139 138 157 169 154 139 129 124 116 100 124 133 151 153 145 133 126 128 125 120 126 124 130 135 139 131 127 124 153 155 158 156 146 160 161 138 140 136 156 167 179 183 184 194 197 186 177 166 160 153 135 133 145 134 130 132 133 131 128 130 133 135 131 128 132 135 133 134 131 124 124 129 127 133 135 136 133 135 131 132 139 132 128 110 106 108 86 107 87 143 137 137 131 146 170 172 164 146 130 126 121 99 111 127 147 154 149 137 126 128 127 123 127 131 130 132 137 136 133 133 145 149 151 152 151 157 154 145 142 137 137 154 168 170 171 183 199 190 179 164 167 152 129 129 141 131 135 133 137 136 137 136 137 134 132 128 133 137 133 133 125 122 122 126 120 130 131 133 133 136 130 133 138 129 112 118 109 96 101 105 96 139 137 127 140 163 174 168 172 147 132 126 123 101 103 123 140 153 146 137 130 129 135 134 134 133 133 134 135 138 134 138 144 143 143 145 145 145 148 148 148 150 149 149 144 169 148 160 168 164 181 148 156 161 134 144 139 133 134 138 139 139 141 137 139 135 132 130 136 134 134 127 124 122 119 120 116 131 130 135 133 136 134 133 129 135 113 117 98 101 106 110 98 137 135 139 162 173 167 176 176 166 140 129 128 109 118 128 132 145 143 140 133 132 134 136 134 134 132 136 144 145 142 143 150 155 159 159 155 152 157 161 162 157 156 148 140 150 150 137 139 138 145 144 132 132 142 148 147 143 141 141 140 142 140 143 141 137 133 134 133 132 133 126 121 125 115 116 120 133 134 133 136 153 139 127 134 135 131 99 108 107 107 107 112 142 140 157 171 173 175 189 197 183 145 140 139 127 122 128 136 139 140 137 132 130 133 134 131 131 129 131 139 141 143 142 146 151 154 159 161 162 167 171 169 169 167 164 162 157 153 154 156 159 156 151 145 143 146 147 144 143 143 142 144 144 136 140 138 135 134 135 131 130 130 125 120 128 119 119 127 141 147 138 141 146 148 141 141 137 137 117 99 106 108 104 109 132 145 166 175 179 187 202 195 179 153 153 145 133 143 152 136 129 135 132 128 127 130 128 126 126 121 122 129 130 131 133 139 142 146 149 155 154 158 160 158 159 160 161 162 156 148 149 153 158 158 154 151 142 146 144 144 140 140 140 144 139 137 136 133 130 130 131 131 131 129 119 130 125 123 126 136 140 160 153 148 144 147 150 124 142 147 134 101 100 108 110 102 145 156 171 188 191 185 194 193 183 177 161 156 169 165 153 124 141 133 136 135 131 129 130 124 124 118 118 122 125 127 132 131 136 137 142 145 152 153 153 144 145 145 146 149 146 143 139 143 147 146 145 146 138 138 136 138 139 137 135 135 135 132 131 131 131 132 130 133 131 129 124 136 123 128 139 140 151 152 163 159 150 147 161 125 128 136 122 113 106 106 110 99 154 149 178 190 175 169 189 196 196 184 161 184 185 171 159 138 150 133 138 140 138 129 128 127 125 124 119 120 125 128 132 129 130 134 139 137 137 145 140 143 140 144 144 142 139 137 137 140 138 142 142 141 141 138 138 139 141 135 136 134 135 132 134 134 132 133 132 134 132 131 131 137 125 132 146 144 158 160 152 148 144 151 155 149 126 106 109 107 99 100 96 105 146 161 178 181 165 168 191 208 195 178 172 187 186 181 162 143 152 134 135 143 145 133 128 136 130 128 126 120 125 125 123 124 123 129 133 137 131 135 135 139 142 142 144 144 142 140 139 141 140 144 145 143 143 141 139 137 136 134 134 132 132 131 135 137 132 136 137 137 134 134 134 140 134 135 141 167 159 168 167 146 156 156 158 149 137 93 94 97 101 88 75 88 142 152 158 154 149 152 194 203 179 170 189 176 176 173 158 144 154 137 137 139 151 142 136 141 138 136 132 130 129 128 125 124 124 125 129 131 130 128 128 129 132 132 135 136 139 138 138 143 142 146 142 139 137 134 135 135 134 133 130 134 132 131 130 133 134 136 141 134 137 140 138 141 138 133 138 166 166 157 169 159 158 164 156 154 142 117 90 93 99 96 83 74 144 152 147 151 138 157 203 190 166 161 185 163 158 147 155 149 151 145 139 137 152 151 144 144 149 149 144 144 140 139 131 133 132 132 135 137 138 137 136 133 130 129 132 133 139 142 142 140 143 141 140 138 136 135 135 135 132 131 130 128 127 127 130 132 137 142 139 135 139 144 144 143 145 123 135 167 177 158 151 168 159 169 146 156 159 126 113 91 87 104 99 89 145 142 146 150 138 185 206 178 155 164 177 154 141 124 134 154 157 150 144 140 144 148 151 147 153 158 158 152 152 150 148 143 143 142 143 148 153 152 153 149 147 149 148 142 143 147 147 143 144 142 140 139 137 135 141 138 131 135 131 136 132 132 135 137 142 142 135 142 143 147 149 151 146 135 124 168 175 171 139 160 175 173 142 152 161 134 135 105 77 90 101 96 143 136 145 138 158 203 193 164 143 171 177 129 119 104 125 150 159 161 149 147 141 143 153 146 149 159 163 158 158 158 160 154 156 154 155 158 153 159 153 156 154 157 155 153 153 150 149 146 150 143 141 134 132 129 129 129 131 135 135 134 138 139 140 138 142 141 141 142 145 150 153 155 146 140 134 158 175 179 145 144 174 179 167 140 155 150 139 134 85 87 94 106 137 129 143 131 174 199 180 146 137 175 176 118 86 72 124 140 159 163 162 155 148 144 148 147 149 158 163 163 164 165 165 161 164 160 157 158 155 157 158 149 147 150 147 143 146 144 142 142 144 134 130 132 125 127 125 128 130 132 134 133 139 141 143 140 143 143 148 149 141 148 153 154 151 141 137 140 170 179 162 137 162 175 172 141 139 159 154 135 107 99 104 110 129 122 135 136 186 188 168 119 147 177 167 120 62 52 126 131 157 168 162 157 155 152 149 145 145 158 164 166 165 164 168 167 167 164 159 159 157 160 154 147 144 141 138 135 135 135 132 130 132 122 120 122 122 126 119 124 126 128 132 137 143 144 141 143 146 149 149 155 149 142 152 145 149 150 134 125 164 175 170 142 152 171 169 153 125 156 165 146 120 103 120 118 116 127 124 150 192 173 152 118 157 174 167 120 54 56 103 128 146 164 160 160 156 159 156 149 144 153 163 163 164 166 167 170 168 166 161 158 157 156 149 143 143 139 137 131 134 131 130 125 121 119 118 119 123 122 125 126 129 133 136 142 144 144 141 146 147 151 154 158 149 140 137 138 146 150 132 134 152 165 188 137 158 170 152 158 114 140 164 152 122 116 136 125 119 128 124 164 192 162 128 130 159 170 170 115 75 66 91 110 137 154 160 161 160 163 164 154 150 154 155 160 162 162 164 170 169 168 162 161 160 156 152 150 143 141 142 136 132 129 128 126 124 124 120 125 124 127 130 131 135 141 142 141 143 146 147 149 147 151 157 161 149 132 128 135 148 154 134 127 134 154 171 168 155 165 142 159 133 126 151 141 117 106 128 119 106 113 107 146 167 136 128 130 152 174 168 112 93 83 95 86 118 136 154 157 163 163 164 160 156 154 153 156 163 162 159 164 165 167 167 164 163 159 159 157 153 151 151 147 140 134 129 129 133 132 128 130 132 135 135 136 141 146 143 144 147 149 150 148 147 150 161 161 148 124 134 136 152 149 131 132 133 143 165 171 149 172 147 161 145 125 144 131 113 96 112 117 74 68 73 115 143 110 125 122 131 168 171 136 112 87 110 71 93 118 132 155 158 166 162 164 158 157 155 150 154 160 160 160 159 163 167 166 167 161 161 155 153 156 154 153 149 144 142 140 139 140 136 134 136 136 140 140 147 149 148 147 149 148 149 149 150 149 160 154 144 127 142 141 151 145 126 133 141 146 160 156 149 170 142 156 156 131 130 119 120 112 98 119 80 71 71 122 149 106 123 125 126 156 173 162 147 115 113 90 66 97 107 140 154 160 165 169 162 160 158 154 155 155 155 157 156 155 158 162 166 165 164 162 157 156 159 157 155 151 150 150 143 142 140 141 140 144 144 147 149 150 149 148 148 145 154 156 147 151 158 149 140 134 142 149 153 132 126 152 154 140 157 145 141 157 125 139 149 144 133 120 107 126 101 104 127 114 116 152 159 127 113 117 137 147 169 161 164 163 120 92 71 69 96 113 138 157 164 169 165 164 164 157 156 157 154 150 152 151 149 150 153 157 160 159 160 159 155 154 155 152 150 151 149 147 147 148 146 150 144 151 153 149 149 145 150 153 159 158 147 154 156 144 140 141 147 156 147 127 125 163 166 164 145 136 144 149 136 156 174 167 154 140 141 133 133 108 162 135 149 139 148 113 102 122 140 160 180 148 167 182 148 87 80 74 72 105 118 144 157 168 168 162 167 164 159 159 156 154 151 150 151 149 148 148 150 151 152 153 151 149 151 150 150 149 149 147 147 149 148 153 151 151 152 153 146 152 154 158 159 156 148 160 154 145 143 149 157 159 138 126 133 171 174 169 143 123 126 139 147 177 174 169 170 148 166 171 167 142 180 114 154 145 159 126 104 121 127 140 178 163 167 177 166 105 82 80 79 90 113 118 147 156 162 161 167 167 165 161 156 155 153 148 148 150 150 148 148 148 146 146 146 147 144 146 144 144 144 149 148 149 153 150 150 153 154 151 152 160 156 159 156 151 151 159 151 142 142 141 158 154 135 129 137 169 179 165 150 130 112 131 153 178 169 159 150 121 148 171 184 162 192 132 173 175 152 142 133 146 140 137 149 168 157 181 177 129 95 85 88 91 99 119 136 145 154 152 161 169 171 166 160 157 156 155 149 150 151 149 149 149 146 145 141 143 142 141 139 141 146 149 151 153 152 152 155 156 156 156 156 158 155 154 155 148 154 154 140 141 145 140 147 143 136 137 147 159 180 153 149 140 115 138 150 162 174 147 157 140 123 141 157 167 