P2
92
112
255
145 145 144 145 144 144 144 146 145 146 139 145 145 149 147 148 146 153 151 148 149 157 154 144 152 158 151 146 140 131 128 136 134 140 141 135 136 135 130 138 147 144 149 154 158 165 165 170 176 172 170 170 166 167 160 155 154 147 144 142 145 148 147 148 144 147 138 138 135 135 136 137 139 147 153 155 158 158 157 155 155 153 151 156 158 161 161 163 162 163 163 165 145 144 146 146 145 145 146 145 144 141 143 144 146 144 144 149 146 148 147 155 155 152 155 158 154 147 141 137 137 135 127 129 131 135 134 130 130 132 132 138 137 138 136 144 149 157 164 170 175 172 162 159 157 159 157 151 149 148 144 147 145 145 153 153 151 149 148 145 143 138 132 132 138 139 143 150 156 160 160 156 158 154 157 152 153 155 164 163 162 161 164 163 144 144 146 146 144 145 146 144 139 139 139 141 145 153 151 149 150 153 158 158 151 151 151 147 147 142 145 140 142 137 127 128 134 133 130 124 130 127 127 136 137 129 132 135 142 144 148 149 151 159 157 153 156 154 155 150 144 144 141 145 145 145 151 150 148 149 150 145 147 141 140 129 135 134 136 139 148 153 159 161 161 158 159 156 151 153 158 161 160 163 164 165 145 146 147 148 144 146 144 139 137 139 143 147 154 158 154 151 157 161 163 151 149 147 148 144 148 156 151 146 147 138 138 137 140 135 135 132 125 131 131 132 136 132 126 131 139 144 146 140 146 156 151 147 149 149 159 153 145 140 141 138 141 141 144 147 143 149 148 149 146 144 139 134 128 135 135 136 136 146 154 160 162 164 161 156 153 151 157 161 161 161 164 163 149 150 147 147 147 145 141 137 137 139 146 157 163 163 161 160 170 167 158 146 147 150 149 151 156 158 155 159 158 149 147 140 140 144 142 139 137 137 135 133 148 137 129 137 145 144 149 146 143 143 145 142 147 146 151 152 149 146 142 137 141 142 139 143 140 144 147 147 146 143 140 141 132 129 135 137 136 138 149 156 158 163 159 159 155 154 155 158 160 158 163 163 150 148 146 145 146 142 141 137 141 145 156 167 166 165 168 166 166 163 158 159 155 156 159 167 172 164 166 171 171 165 154 157 156 146 152 139 148 150 141 135 146 144 136 137 142 149 151 149 150 152 148 149 146 149 152 157 156 155 157 145 148 146 144 145 142 142 144 148 150 143 145 147 137 129 137 135 132 139 141 153 156 158 161 159 156 156 154 153 157 161 160 166 148 147 146 143 143 142 140 140 144 156 169 168 163 166 165 160 162 157 162 160 163 158 172 167 173 169 165 166 170 162 160 161 167 161 157 164 163 158 145 142 149 149 141 140 149 151 149 149 159 164 158 155 149 150 152 160 156 160 160 156 157 155 153 150 150 145 143 146 147 136 145 147 142 134 134 134 132 139 140 146 155 155 162 159 159 158 153 152 154 158 161 161 147 148 145 145 141 144 143 146 152 160 172 167 158 157 154 154 162 163 166 161 164 169 175 173 173 171 164 154 154 154 150 158 166 170 162 159 161 160 153 144 144 143 143 141 147 153 155 149 158 164 161 158 160 158 161 160 164 162 165 159 157 160 164 158 159 152 146 149 148 137 137 142 145 140 131 135 127 135 145 142 148 157 160 160 158 158 157 154 155 154 158 163 150 144 143 144 147 146 145 151 155 163 170 162 151 147 144 157 162 164 160 159 161 172 173 172 166 167 160 157 161 162 157 163 163 159 159 154 157 161 157 153 150 144 148 147 149 157 162 159 162 167 162 163 164 168 167 165 170 168 164 162 156 157 157 166 160 154 152 153 154 145 140 141 141 139 138 140 133 131 141 141 144 153 159 161 163 158 157 157 156 153 157 159 147 144 145 150 149 150 151 152 159 167 163 155 150 152 163 166 158 154 159 156 165 166 165 161 163 159 157 157 160 162 161 160 163 164 159 159 161 163 155 154 157 152 151 151 155 163 165 159 163 162 170 165 167 166 167 167 162 167 162 165 160 158 146 155 154 150 156 156 158 152 147 142 143 145 141 139 142 132 136 140 146 154 153 163 164 166 162 159 155 156 154 157 143 143 150 153 149 149 149 153 157 167 160 155 149 161 159 158 151 155 158 161 166 160 152 151 150 154 156 157 150 157 161 159 159 170 165 166 169 168 163 154 160 154 153 158 153 154 164 160 165 164 173 173 171 167 165 168 169 165 164 164 164 162 149 146 144 143 152 154 153 155 151 153 137 143 144 140 141 135 136 138 148 155 156 158 164 164 162 161 155 156 155 157 141 150 152 149 149 150 150 152 158 163 160 156 155 159 150 147 151 152 151 156 156 153 143 143 150 147 147 149 145 153 154 152 159 163 166 166 167 163 163 158 156 156 161 159 159 158 159 165 168 163 164 167 169 167 165 165 170 165 168 156 160 158 149 144 140 133 139 147 150 155 148 152 144 138 140 147 140 137 137 141 148 158 163 154 162 164 161 160 158 160 159 159 144 148 151 149 149 151 153 151 162 161 159 158 150 150 145 153 154 150 155 154 155 147 146 151 153 143 146 152 146 152 153 152 158 163 159 160 159 158 160 155 162 166 163 162 160 158 159 162 167 164 162 164 162 168 162 161 163 158 159 152 151 151 145 145 140 139 135 138 142 150 147 144 150 150 137 139 132 140 139 143 144 155 156 158 152 160 161 160 158 157 156 158 148 148 146 147 151 153 147 150 162 161 159 150 148 146 152 153 153 151 151 150 145 150 155 160 150 150 148 151 150 156 156 155 158 161 159 158 158 161 158 158 158 163 162 161 159 156 157 159 159 161 159 162 158 162 158 157 156 157 153 149 146 142 138 137 141 140 138 136 135 147 142 145 141 147 144 138 138 139 141 138 137 152 157 166 156 151 163 159 162 157 157 153 151 146 144 145 151 146 151 154 161 158 155 154 142 150 155 156 159 152 153 149 145 152 154 156 155 150 154 154 156 159 158 160 165 158 161 163 162 160 157 159 160 164 161 161 165 166 160 157 155 151 158 156 152 153 151 147 149 152 146 139 140 136 131 135 139 139 142 145 137 147 141 139 142 142 140 144 142 140 137 138 134 144 150 163 164 156 159 159 156 157 155 155 148 140 141 144 150 149 156 161 163 157 156 153 149 150 160 160 151 148 156 152 149 149 157 151 156 151 156 162 158 159 155 158 160 156 158 157 165 162 163 159 156 165 163 164 165 166 162 159 160 153 155 155 150 149 145 145 150 148 143 138 136 132 130 135 142 139 140 142 143 148 147 134 141 144 144 151 139 144 138 139 134 136 146 151 160 162 163 156 161 158 157 158 144 136 139 145 149 157 157 160 161 152 150 154 154 151 163 154 148 148 155 148 144 150 150 152 157 152 157 158 153 155 153 155 159 160 159 158 164 160 160 160 158 151 160 162 159 160 157 161 159 157 153 153 152 152 146 149 149 150 149 144 143 137 138 140 144 145 140 143 145 146 151 140 136 142 148 155 148 143 142 139 139 138 138 149 158 159 168 159 156 164 161 156 141 139 144 142 151 158 161 163 162 152 146 156 147 151 160 153 148 150 148 144 145 147 144 151 156 152 155 147 148 147 151 153 155 157 157 158 163 162 152 154 156 152 147 158 158 156 155 159 158 155 154 152 149 151 151 149 153 150 150 147 145 144 141 146 141 146 145 142 146 148 149 150 139 139 142 154 162 153 147 141 140 137 131 146 157 160 161 163 162 164 167 154 143 145 142 143 152 158 176 165 166 156 147 143 140 154 151 139 142 147 145 146 142 147 142 156 149 147 149 142 145 144 148 153 149 152 155 149 155 151 146 147 148 151 144 148 155 155 153 155 156 151 145 152 147 146 152 148 152 152 151 148 148 144 138 147 143 143 148 145 147 147 147 152 145 134 139 144 157 161 155 146 142 141 136 132 150 162 166 157 161 163 162 156 149 145 138 145 154 171 175 172 172 165 158 140 142 145 134 129 133 144 139 144 135 142 146 152 145 146 143 144 144 141 145 144 144 147 150 146 141 140 139 142 141 144 144 147 151 150 149 146 149 148 149 153 149 150 151 149 148 154 149 146 143 140 141 142 141 141 145 150 148 148 146 146 146 142 132 140 154 156 155 156 151 147 141 126 142 157 163 160 156 159 158 159 147 138 134 150 161 173 169 182 175 166 159 142 140 131 129 127 134 141 144 146 139 146 152 148 145 146 145 143 145 143 145 142 143 145 144 146 147 143 136 140 146 146 146 145 145 146 149 145 149 146 147 146 148 152 153 150 149 149 148 143 143 137 139 138 141 140 141 143 148 147 148 147 145 147 139 140 147 155 150 163 156 149 142 129 134 151 155 162 158 154 150 162 143 134 134 149 166 164 183 183 172 159 150 138 135 125 128 134 136 141 143 140 142 145 150 148 146 146 143 146 144 145 147 144 145 146 145 142 146 138 142 141 142 145 147 149 145 145 145 146 146 147 147 146 149 148 146 148 147 144 144 145 141 139 136 136 141 139 136 139 144 144 141 152 143 146 141 145 148 153 152 156 158 157 146 129 134 141 151 159 156 153 150 153 146 139 139 152 159 177 189 172 163 156 142 136 129 123 129 140 143 141 141 140 145 145 147 148 149 146 143 147 145 148 149 147 148 147 145 146 146 146 149 144 145 147 149 152 146 148 149 149 148 151 148 147 148 149 145 145 145 142 143 144 139 140 138 138 139 138 138 139 142 142 143 148 145 146 143 144 153 152 150 152 154 156 158 140 127 137 147 151 156 153 153 152 144 141 148 149 168 184 187 167 163 151 138 132 127 127 128 141 137 138 141 147 146 144 150 147 145 144 144 151 148 152 153 151 149 151 147 149 147 149 151 150 149 152 153 154 152 153 153 153 153 156 154 153 151 149 146 149 148 145 143 142 142 140 139 142 138 138 141 139 143 149 147 149 154 148 146 144 149 155 153 155 158 156 154 150 127 129 146 148 149 156 148 155 146 144 142 153 173 185 182 170 158 150 136 136 131 125 133 139 131 139 144 144 143 148 148 148 148 146 152 153 156 159 161 160 157 156 155 155 154 156 157 155 154 156 157 158 157 159 158 158 159 158 157 155 155 150 150 150 147 146 147 142 142 142 140 142 138 141 145 136 145 152 150 151 156 153 152 151 147 160 152 156 155 152 154 152 131 129 140 154 147 155 153 154 145 143 145 167 168 184 180 167 153 153 144 140 135 135 140 139 139 151 154 147 147 150 150 152 155 158 157 156 157 162 166 166 166 162 162 160 159 160 161 160 159 159 160 163 161 161 162 159 161 162 157 157 154 151 153 152 149 149 149 145 143 143 143 140 139 140 142 141 143 152 151 153 153 156 152 156 155 157 163 156 166 147 151 151 143 131 143 150 148 152 158 154 147 138 152 162 164 178 169 163 151 157 152 139 144 148 145 145 149 154 156 154 155 155 156 161 161 162 158 157 162 164 167 168 167 163 163 160 160 158 157 159 160 159 159 163 161 162 162 161 162 164 159 159 154 152 153 153 150 148 148 148 142 142 142 138 137 136 141 142 144 144 147 149 154 153 150 148 161 154 165 166 162 157 146 151 141 142 143 150 152 147 156 156 134 148 155 160 166 172 169 152 155 158 153 149 147 154 152 150 154 157 156 159 160 158 160 163 159 159 160 157 159 161 165 162 162 158 156 157 154 155 155 156 158 157 157 162 163 163 159 159 160 162 160 156 152 149 150 152 151 147 148 146 144 143 142 137 136 136 139 143 143 142 140 147 151 147 146 144 164 161 165 168 169 160 154 148 146 144 148 145 158 151 154 166 135 152 157 157 163 166 157 149 152 161 155 154 154 155 160 155 152 157 157 161 160 161 160 160 159 156 154 153 153 153 155 155 153 150 149 152 150 154 152 153 154 154 154 158 163 161 159 157 159 159 159 157 149 148 148 149 146 144 142 141 142 142 142 138 137 137 138 142 144 142 140 145 145 147 141 146 157 163 161 175 167 167 157 148 144 155 151 154 153 159 152 176 137 154 158 156 162 159 152 151 148 153 149 158 162 153 159 156 153 153 156 157 162 159 159 155 148 146 149 148 144 143 146 145 144 147 142 146 147 151 151 150 151 151 154 154 158 159 156 156 157 161 157 152 146 145 143 144 142 141 141 142 143 145 143 142 142 142 140 142 144 145 142 143 141 149 145 142 153 167 155 175 173 169 163 155 149 151 158 150 161 165 156 176 148 158 161 160 159 154 150 149 138 147 145 166 167 152 151 149 154 153 153 154 156 153 153 147 144 144 141 140 138 140 142 143 142 143 142 142 144 145 149 146 149 150 154 154 158 159 158 157 153 156 155 149 146 146 144 144 145 144 144 146 147 148 150 145 145 144 145 144 146 145 143 139 139 142 143 147 152 167 159 170 175 175 168 158 157 151 152 150 164 167 170 169 153 158 155 161 161 147 153 138 128 141 144 162 163 148 146 153 155 157 154 154 153 152 150 145 142 142 141 142 141 142 142 140 144 146 145 146 147 150 152 149 147 151 152 152 157 160 158 157 154 153 152 148 149 147 150 150 150 149 148 151 153 153 154 153 150 150 148 148 149 148 145 139 138 141 142 142 154 165 162 167 176 173 174 158 162 154 151 155 164 172 176 165 154 159 147 163 155 145 152 123 128 131 141 141 146 149 151 157 160 160 157 159 159 157 153 151 147 145 145 147 146 148 146 146 148 150 153 155 155 156 157 155 151 152 155 154 159 158 155 154 152 152 150 147 147 145 145 147 145 144 145 153 154 155 157 159 155 157 152 152 153 154 149 142 141 138 145 145 155 164 163 165 175 171 175 164 159 151 150 156 159 179 179 167 156 162 142 155 150 148 131 123 117 118 137 144 149 151 154 160 163 167 166 167 169 161 159 155 152 150 150 153 147 145 145 152 153 152 151 151 149 150 152 158 151 148 153 153 155 147 147 149 150 154 151 145 146 145 144 143 148 144 148 155 155 157 158 160 159 159 158 159 157 156 155 150 148 143 147 149 159 167 166 163 171 172 173 165 160 141 140 156 159 175 180 172 156 164 148 145 141 140 114 111 102 113 137 147 152 156 157 163 168 175 174 168 165 160 157 150 145 145 146 144 144 142 142 147 148 144 144 145 148 151 152 154 154 152 154 154 153 151 149 151 152 155 155 148 151 151 149 151 153 151 158 158 158 157 158 153 157 161 155 161 162 160 159 155 156 152 154 154 164 174 169 167 169 174 176 167 156 137 138 156 157 175 176 179 154 158 151 149 140 130 111 120 111 116 141 150 156 157 161 169 175 182 176 165 163 160 151 146 143 143 142 139 142 141 139 138 141 142 142 147 149 152 152 151 153 154 152 154 152 153 152 152 149 157 159 154 159 160 157 160 160 160 163 160 158 159 156 152 156 159 155 157 163 160 165 157 161 163 163 165 166 177 174 172 172 176 177 168 160 134 135 153 153 169 178 178 164 154 163 153 140 125 103 121 107 129 150 152 156 158 162 169 181 183 169 163 162 155 147 146 142 140 141 140 137 139 137 139 143 144 142 146 147 150 151 151 154 154 153 153 154 152 155 153 155 158 161 161 162 162 160 161 163 163 164 159 161 158 157 151 157 158 158 160 160 160 166 158 158 171 170 172 167 179 177 172 170 172 175 166 164 137 140 149 156 176 179 172 165 154 168 156 133 119 113 111 123 136 157 153 161 157 169 182 184 172 167 167 162 151 150 144 139 142 142 137 135 136 139 140 142 145 143 144 150 151 151 153 155 156 154 154 154 156 158 156 159 161 163 166 168 167 165 165 162 163 164 163 163 160 159 157 156 158 159 159 159 155 161 160 158 164 171 170 167 175 176 164 168 167 169 165 165 144 135 152 156 180 182 166 158 159 157 165 131 119 126 114 127 136 154 154 161 159 172 181 174 164 167 164 158 156 152 149 144 146 144 142 139 140 143 144 146 149 146 149 153 157 155 157 157 159 158 156 155 156 162 162 162 167 168 168 170 170 168 169 167 164 163 161 161 161 162 162 163 160 162 165 162 158 157 160 161 160 162 166 158 172 176 162 165 159 161 157 166 154 145 156 154 177 186 167 144 145 165 155 133 125 128 113 118 143 151 150 149 158 167 178 167 161 160 156 159 160 152 150 147 147 146 145 145 143 145 148 151 149 150 153 153 156 157 158 157 158 157 157 156 158 160 162 164 168 170 172 173 173 172 172 169 168 166 163 162 164 167 164 165 163 161 161 157 154 154 157 158 158 157 158 150 162 173 160 163 161 155 154 154 154 151 159 156 178 182 169 130 133 162 147 133 138 119 108 109 148 146 133 139 153 158 167 164 163 160 158 158 156 149 146 143 145 143 144 145 142 149 149 154 154 154 155 155 157 159 159 157 156 156 154 156 159 161 161 164 167 168 171 172 170 170 167 168 165 168 167 170 169 173 172 174 170 167 165 160 154 155 155 156 156 158 160 156 157 170 157 164 157 149 160 156 152 152 148 165 176 176 165 132 129 152 137 146 144 121 116 129 146 136 124 137 157 152 161 161 160 158 159 157 155 150 144 137 138 146 147 152 154 152 154 157 156 156 159 157 156 157 156 156 155 150 151 151 153 154 157 160 162 163 164 162 164 162 165 164 164 166 164 167 170 170 170 177 179 174 170 165 163 159 163 156 154 154 159 154 157 159 151 160 165 149 158 157 155 156 147 164 164 183 161 137 130 145 148 168 149 133 137 131 156 136 123 141 158 155 159 162 157 152 161 155 153 154 149 146 147 152 148 152 154 151 154 153 153 151 152 153 152 151 150 151 149 144 146 144 144 151 154 155 158 158 155 156 158 159 157 156 156 160 159 154 150 162 165 167 169 174 170 163 158 158 161 161 150 151 163 154 154 150 139 146 149 144 160 151 163 160 161 162 155 180 158 129 130 143 171 171 147 160 135 142 171 125 127 150 168 167 162 163 164 155 154 150 143 147 146 147 145 148 149 150 146 149 149 149 151 148 149 146 146 142 146 151 148 146 147 146 143 149 154 155 153 155 149 149 148 154 154 153 154 155 154 148 149 160 163 161 166 166 166 159 149 150 161 158 150 147 159 155 152 149 135 136 138 125 151 152 170 165 168 166 154 186 159 132 122 150 176 151 154 179 132 155 172 133 123 160 177 176 159 162 164 153 149 146 146 142 143 145 153 151 156 150 148 145 154 150 151 150 146 144 142 145 144 147 147 146 144 147 145 150 152 150 148 150 146 148 145 145 144 141 140 137 140 146 142 151 148 153 155 150 158 160 152 147 154 154 154 149 153 145 151 145 137 131 141 125 143 151 185 182 174 169 157 195 173 152 141 154 173 157 148 176 141 162 162 150 141 164 181 175 164 166 165 149 153 146 149 149 145 147 154 159 154 146 148 144 149 152 153 157 148 147 141 149 150 150 153 151 152 150 151 149 151 151 149 142 142 143 142 131 129 119 124 123 129 133 141 144 137 150 147 140 141 147 152 150 155 156 156 150 152 150 143 140 129 133 140 138 135 150 187 199 166 182 152 191 180 168 150 154 158 170 152 176 140 156 159 160 146 166 178 173 171 169 164 155 158 155 149 151 157 157 155 160 151 151 154 152 158 160 156 158 150 151 150 155 157 155 158 157 161 158 152 154 150 148 145 141 133 134 132 121 118 113 112 114 110 122 135 138 134 135 134 134 136 137 152 149 149 154 153 147 151 150 145 145 135 134 144 139 141 152 195 208 174 183 157 172 186 156 162 155 144 165 160 188 144 147 148 166 138 160 171 176 179 167 156 171 174 172 169 161 162 155 154 153 154 144 148 152 156 157 162 146 147 150 150 154 156 155 164 163 163 163 155 159 156 150 151 145 136 130 128 121 112 107 101 101 110 119 131 132 122 128 126 125 131 130 139 144 141 139 148 154 151 150 155 155 141 140 142 132 141 165 197 210 174 187 160 166 189 155 166 172 157 162 170 187 161 141 153 169 147 161 160 179 178 167 171 192 183 181 179 168 151 146 148 151 145 139 152 157 155 163 175 156 152 156 158 159 159 153 162 160 158 155 151 155 151 152 149 148 139 135 133 133 127 116 120 108 114 117 126 127 123 127 129 123 127 136 137 135 141 139 144 150 146 149 157 161 143 135 139 131 132 148 194 185 172 177 161 157 188 162 169 185 169 162 171 188 171 156 159 164 161 171 168 186 181 174 180 192 186 177 176 165 151 146 150 163 158 157 163 165 171 172 176 165 166 160 166 167 164 167 168 162 153 147 145 150 153 146 143 143 143 138 139 144 137 122 124 121 124 127 128 132 131 134 134 136 138 138 137 134 135 135 140 144 142 144 154 156 147 135 136 117 115 123 177 192 169 168 161 156 172 159 170 196 166 162 169 193 180 181 158 153 155 163 170 178 181 167 177 179 175 159 163 157 149 147 162 157 165 172 174 172 177 181 177 178 174 164 173 170 171 173 168 157 152 144 143 148 153 147 145 131 146 144 136 148 142 137 126 133 133 139 144 139 138 134 138 133 132 139 130 139 137 128 140 137 138 142 143 150 151 134 133 105 110 111 171 194 155 159 163 157 169 153 168 193 166 167 174 189 169 180 154 141 161 171 165 178 183 162 172 173 176 159 158 156 151 154 165 171 176 181 179 177 172 169 165 173 176 169 170 171 180 177 161 155 148 155 146 138 140 150 144 134 148 153 151 151 151 147 136 141 138 147 141 134 139 131 137 143 140 142 139 143 137 122 135 130 127 139 146 142 149 134 135 95 100 115 178 188 151 145 163 159 167 155 166 187 160 174 176 179 155 165 159 149 156 176 164 168 172 160 171 169 172 161 165 160 152 159 172 175 188 180 177 165 164 161 155 172 170 169 164 173 180 174 159 147 147 152 148 136 138 153 153 153 143 152 159 160 149 154 149 141 139 144 143 143 143 140 144 142 139 137 144 146 138 128 131 124 123 139 153 148 147 148 146 127 115 133 188 180 147 138 160 166 166 165 172 178 162 174 173 178 146 153 158 159 147 164 165 163 167 150 161 163 163 168 172 168 159 161 171 175 181 182 173 166 164 156 155 168 162 166 158 170 170 168 157 147 151 148 150 148 139 142 150 161 144 148 166 167 158 158 152 136 134 134 140 144 148 141 139 138 134 139 145 150 139 126 133 124 127 140 152 149 139 153 150 140 121 132 173 146 140 139 169 166 167 183 179 166 165 169 184 167 144 152 151 170 153 155 169 160 169 158 161 160 163 166 171 177 171 172 174 182 173 175 170 166 160 153 166 161 168 167 171 177 175 170 160 158 150 142 140 145 147 136 138 150 147 144 156 166 159 154 151 138 120 134 143 146 146 140 138 147 136 141 146 148 137 129 136 134 135 140 147 147 146 152 145 137 133 132 154 142 146 138 177 163 170 178 179 162 160 158 175 157 148 156 152 161 161 160 165 163 163 170 163 164 165 161 170 171 169 175 179 176 169 171 170 170 162 160 167 167 174 175 178 169 175 169 163 159 152 145 139 142 148 137 145 145 155 154 150 156 157 155 149 144 132 126 146 156 150 145 147 152 143 144 147 142 136 135 137 133 140 139 147 141 152 143 134 133 130 134 145 152 150 152 163 162 166 186 177 167 160 151 166 156 139 152 151 153 158 157 162 166 165 168 163 171 167 162 161 165 166 164 159 156 156 162 176 174 167 168 166 172 168 174 167 164 170 168 160 145 142 139 134 141 144 139 140 132 147 145 145 140 154 150 147 143 135 125 137 153 159 149 151 150 143 141 140 139 130 140 138 134 136 141 148 144 153 137 129 124 110 124 138 164 141 159 168 155 156 170 163 164 164 146 165 157 144 140 146 147 149 155 160 160 165 176 168 167 171 162 161 160 157 152 149 156 159 156 164 163 168 164 159 161 166 164 152 157 153 158 149 140 138 143 134 140 143 144 138 136 136 130 143 146 144 150 145 147 143 132 132 135 144 141 144 140 139 136 134 127 129 139 134 133 139 145 154 148 136 137 137 119 102 121 149 156 128 158 158 156 149 172 146 168 162 140 162 157 144 141 135 137 143 146 158 155 161 169 164 160 167 163 158 158 150 152 150 149 148 142 148 148 156 156 159 155 159 150 143 148 140 144 141 132 134 141 135 141 142 135 132 135 138 129 133 140 138 145 147 141 142 144 132 135 131 136 138 133 135 133 131 126 138 138 137 141 140 146 148 143 138 139 131 115 107 131 162 150 137 147 148 152 147 158 133 167 170 141 146 149 150 149 137 127 131 129 145 149 148 156 156 148 157 157 151 154 146 149 146 143 143 143 148 145 150 148 148 146 144 143 140 133 140 138 137 136 131 131 135 135 148 137 135 132 138 145 142 144 141 149 150 154 147 143 145 146 144 137 138 133 135 139 138 137 139 137 135 138 136 142 149 143 142 136 129 115 124 143 157 161 150 138 146 157 146 149 135 151 172 152 128 143 154 157 145 128 132 132 133 145 150 147 149 143 146 146 135 132 139 139 142 145 142 141 140 144 138 140 137 138 140 138 135 141 140 141 137 138 140 136 135 139 145 136 146 145 144 149 154 152 155 159 163 160 155 150 147 150 150 143 145 145 144 148 145 141 143 141 137 139 139 141 147 144 142 134 128 122 127 162 150 161 151 140 136 158 140 145 136 143 157 160 122 138 160 161 148 138 133 132 136 140 144 146 148 143 143 148 148 139 145 145 146 144 143 141 143 143 137 138 136 140 142 133 136 143 142 146 141 135 137 138 138 142 141 142 145 149 148 141 149 149 150 157 163 158 162 159 154 148 158 148 147 148 147 146 142 142 139 134 138 137 137 136 143 142 140 134 122 126 145 143 155 161 146 133 133 158 138 135 147 142 142 166 131 141 159 161 153 144 137 138 136 143 143 139 140 142 140 148 149 146 139 135 147 144 143 146 143 143 139 136 137 135 132 126 140 151 146 142 138 130 125 133 135 132 141 152 153 157 157 153 147 150 153 153 161 155 152 157 156 153 150 149 140 142 146 141 138 144 138 132 138 137 136 135 139 139 138 132 131 137 146 145 159 158 138 133 140 157 142 124 143 142 127 159 137 142 153 154 162 149 138 134 144 146 147 147 141 139 142 142 142 143 153 150 154 157 154 157 154 144 140 136 134 131 129 131 146 148 142 134 127 125 128 131 138 141 142 149 157 160 159 165 158 153 159 156 157 163 153 158 159 155 157 147 149 143 147 145 140 141 135 132 132 135 135 136 138 140 135 129 136 142 146 155 154 160 135 138 149 157 142 117 144 126 123 143 136 141 156 154 169 152 137 136 140 145 145 145 141 141 143 144 141 143 146 158 160 159 157 156 153 147 140 138 132 130 134 137 145 146 135 133 133 132 136 131 132 144 141 144 153 156 157 162 167 156 153 163 159 161 162 159 157 160 160 158 152 150 151 150 140 140 143 135 131 133 135 135 137 140 135 131 138 153 155 162 162 157 137 139 145 147 141 115 133 122 129 130 137 137 157 152 166 158 139 135 145 147 148 146 146 145 148 150 149 147 149 155 159 154 156 152 151 146 144 140 135 138 148 150 147 147 137 136 146 145 142 142 140 143 145 147 152 147 151 159 159 161 153 159 164 160 162 165 155 160 168 165 155 152 154 153 149 149 150 148 140 135 140 143 139 146 139 146 146 151 154 158 163 158 143 141 140 147 139 122 133 132 121 128 138 135 157 153 158 157 136 134 143 146 146 149 148 150 151 154 150 148 152 154 155 152 153 152 151 153 145 142 144 148 155 158 153 150 144 141 149 157 157 156 154 157 156 158 154 156 153 157 155 152 146 154 157 164 167 166 161 155 157 167 164 158 156 158 150 150 151 151 142 135 137 141 145 141 140 153 148 151 153 157 164 153 146 145 139 144 142 136 137 151 132 124 123 125 154 152 156 155 132 134 141 144 146 150 150 153 150 153 153 145 150 150 152 151 153 153 153 150 145 146 148 156 157 155 152 153 147 141 145 154 156 160 162 160 160 157 161 152 153 157 155 149 146 151 157 160 165 161 158 156 158 162 162 159 160 160 157 157 157 155 152 143 139 143 144 145 147 158 153 159 154 161 159 150 143 149 145 142 143 149 143 168 156 139 124 123 143 144 150 156 140 136 137 142 146 150 148 155 151 153 151 149 148 152 155 153 156 158 154 152 147 144 146 148 147 149 148 146 139 136 140 152 158 160 160 157 158 157 155 156 151 158 159 153 152 152 153 155 161 161 151 155 157 158 162 158 155 157 160 157 153 150 147 143 141 142 150 147 151 164 165 159 153 158 154 142 150 152 147 141 141 166 137 183 179 159 129 121 138 146 149 154 142 140 140 142 145 152 149 152 151 154 150 149 150 147 148 154 155 159 156 154 154 147 148 149 149 150 146 136 136 132 142 150 151 151 150 150 152 158 155 161 152 151 165 160 159 159 157 155 155 159 156 157 154 156 157 160 158 162 163 163 156 155 150 145 141 145 149 146 147 163 162 162 154 157 153 147 153 158 147 144 142 166 143 174 195 184 145 125 133 145 154 155 146 140 140 140 145 151 149 151 150 148 144 145 148 145 144 149 155 157 156 155 152 149 149 151 146 144 138 133 134 137 142 141 143 143 143 149 153 162 159 161 157 151 154 154 149 150 149 149 151 147 151 157 161 155 160 163 161 164 166 167 163 160 152 147 145 149 148 142 148 162 167 167 163 163 152 157 160 156 141 147 144 145 162 165 196 194 156 136 134 146 151 155 147 141 139 141 143 148 149 151 148 146 145 140 146 140 142 142 148 153 157 156 156 148 143 144 140 132 130 129 132 139 139 138 136 136 135 144 155 161 161 162 157 153 153 156 153 154 150 150 151 149 149 157 159 158 160 165 162 161 163 166 164 160 153 150 145 151 150 144 154 161 160 164 171 156 155 163 172 150 144 149 146 137 146 141 187 196 165 146 143 144 149 154 147 145 140 144 144 147 151 150 145 140 143 141 147 136 140 145 148 154 157 159 151 144 142 138 132 132 131 128 136 137 136 132 129 135 135 142 156 159 160 163 158 157 151 157 155 155 152 149 148 150 149 151 155 159 161 162 160 158 160 162 162 157 152 146 148 150 149 146 154 162 162 159 166 161 163 167 167 146 147 149 147 115 127 147 159 197 174 152 146 145 144 154 145 146 140 145 145 147 151 150 145 138 139 141 143 136 140 147 146 153 161 157 150 146 144 140 134 134 133 135 143 139 137 134 134 137 139 153 161 157 154 156 160 158 156 160 164 158 157 153 155 152 152 150 155 156 160 162 161 157 159 156 156 155 149 149 151 149 147 146 149 162 167 170 172 169 166 162 157 148 141 144 145 126 110 148 136 183 175 165 153 151 140 155 150 141 140 145 148 148 149 149 145 140 142 142 141 141 145 149 149 151 156 153 144 139 142 143 148 142 133 137 139 138 135 128 128 136 144 152 154 146 145 145 148 149 150 153 154 156 156 153 150 148 146 148 150 154 155 158 157 154 155 152 153 152 147 146 151 146 150 150 150 165 175 177 176 175 163 162 153 148 141 141 147 140 133 138 127 171 165 167 158 156 150 154 154 136 140 143 147 147 147 150 145 145 144 144 143 143 149 153 152 150 150 152 139 135 136 142 149 143 131 132 134 131 129 122 125 129 137 139 144 144 138 136 142 143 148 149 148 148 149 143 143 145 145 150 149 149 153 156 157 153 150 149 149 151 146 145 149 147 155 157 159 168 175 172 174 175 169 171 152 143 138 143 149 147 147 149 138 173 155 170 167 163 165 157 153 136 141 148 149 147 146 151 146 147 145 147 145 149 152 152 152 147 144 145 146 141 138 139 140 140 130 130 132 130 129 127 125 121 126 123 139 140 137 133 136 138 140 145 144 138 138 136 138 140 143 148 150 148 150 153 156 152 148 146 149 150 145 144 149 149 156 158 166 172 174 179 170 170 179 169 153 141 136 138 148 154 150 143 139 153 153 163 172 167 174 167 155 142 142 150 151 146 150 152 153 155 152 151 147 149 149 149 146 140 138 143 147 144 145 142 137 140 135 133 138 137 135 135 135 125 123 121 131 139 135 138 138 138 143 146 143 137 131 135 137 142 143 145 146 147 150 154 156 151 146 145 149 149 145 144 149 150 152 152 164 168 170 179 171 171 174 159 145 136 144 145 156 150 151 147 139 140 150 145 167 166 174 170 161 145 147 153 148 149 155 157 162 162 158 154 151 152 147 149 141 136 141 142 142 144 146 143 144 142 142 143 142 136 128 139 143 133 131 132 135 140 140 145 147 144 143 147 150 148 141 140 139 144 144 146 146 149 152 154 153 150 149 145 148 149 143 145 148 152 147 149 161 165 163 174 176 173 163 153 146 141 147 151 166 147 145 146 141 138 137 141 158 159 170 172 164 156 156 154 149 153 161 162 163 163 159 157 153 153 151 148 142 142 144 140 138 139 145 146 147 147 143 149 154 150 147 145 148 153 151 149 150 150 154 153 150 148 145 148 150 152 148 145 144 146 146 147 151 155 155 154 153 147 149 141 145 148 144 145 149 151 144 150 159 162 162 170 167 172 159 146 145 148 157 155 167 156 146 143 144 133 143 133 148 149 158 169 166 162 157 156 151 156 164 164 164 164 159 158 155 153 155 148 142 142 142 142 138 140 143 143 146 156 156 158 168 164 165 156 157 166 170 163 159 157 160 163 157 156 157 158 157 159 155 154 155 156 154 154 157 156 159 156 154 148 146 142 143 148 145 147 151 150 144 154 157 153 154 155 160 164 152 139 152 157 157 163 166 161 152 145 142 134 145 132 134 136 152 166 167 163 162 154 152 157 159 162 164 161 161 158 157 155 156 151 142 140 137 148 142 142 147 150 154 156 166 164 168 166 176 169 164 169 165 165 168 160 165 165 160 166 167 167 165 168 164 163 161 161 161 163 163 163 161 159 155 150 145 144 144 147 146 149 155 147 145 152 152 145 151 146 150 157 140 145 159 161 167 164 165 161 156 153 146 133 146 136 133 124 150 161 168 163 162 156 151 158 157 162 162 163 159 157 156 155 153 151 144 145 144 149 151 147 153 157 167 170 173 169 166 169 171 166 161 165 161 164 165 162 159 156 156 167 170 177 169 170 171 166 165 163 162 166 166 167 164 159 155 152 145 146 146 146 147 151 154 146 146 148 144 141 138 133 146 150 151 150 162 169 169 165 166 163 162 156 148 148 152 133 140 131 140 158 161 166 161 157 148 155 155 159 160 158 158 160 155 153 148 147 143 142 141 149 150 150 159 167 173 175 178 178 170 175 173 169 170 176 167 168 173 170 163 154 154 167 170 177 168 169 172 168 167 166 165 169 173 172 167 164 156 154 149 147 149 147 152 157 157 147 142 146 137 136 126 124 146 153 153 154 163 167 169 163 167 159 159 157 149 153 145 135 147 136 145 149 156 167 162 154 145 151 154 154 155 154 160 162 157 152 148 142 140 140 139 148 148 148 152 168 169 176 176 184 185 184 186 184 182 187 183 180 179 181 176 164 159 167 169 168 161 160 165 164 167 170 169 171 172 172 167 164 160 154 151 148 151 151 155 162 157 146 143 143 139 131 119 128 154 155 159 161 155 166 171 165 166 151 161 159 154 153 141 140 147 136 134 146 154 167 164 149 143 143 151 155 155 157 163 162 160 158 155 146 140 138 140 147 150 151 157 163 167 183 182 183 176 176 177 175 177 183 185 174 174 174 171 144 146 139 161 159 157 156 157 156 162 164 164 165 167 168 166 160 157 154 151 152 150 154 155 166 155 147 141 141 139 129 120 130 155 154 160 163 154 165 170 172 164 157 156 160 155 148 143 170 136 143 140 143 145 168 164 152 146 142 153 153 159 162 167 168 166 161 158 149 146 141 141 143 145 150 153 154 160 171 175 179 175 171 169 171 163 163 162 147 161 160 156 137 139 143 154 149 152 150 156 156 157 161 163 164 164 162 159 154 149 151 153 152 151 155 156 163 148 144 140 140 133 133 124 140 150 153 163 162 159 157 170 175 171 159 159 158 153 141 147 167 133 152 141 142 145 163 162 152 146 146 145 148 159 164 168 169 165 164 162 155 146 145 145 146 142 152 150 155 159 161 166 173 171 172 168 165 161 138 94 72 116 144 144 143 151 137 153 150 148 149 154 153 157 158 156 153 156 153 155 150 147 153 155 154 151 156 158 155 143 144 139 140 132 130 122 137 150 154 160 163 158 157 172 173 180 156 156 150 148 138 145 161 132 153 144 135 146 156 168 151 144 149 140 143 150 158 164 166 162 161 160 158 156 149 151 154 151 156 153 151 156 157 164 171 171 172 163 156 143 149 139 120 135 141 144 144 150 151 152 151 148 153 154 153 153 154 148 147 148 148 154 150 146 151 156 154 153 155 157 144 149 141 138 140 132 129 129 142 148 158 162 160 161 154 168 176 174 143 147 146 139 131 142 156 147 152 148 132 138 150 159 150 142 145 144 142 145 149 157 158 155 155 158 157 157 156 157 160 158 158 159 154 152 150 153 160 157 162 155 152 148 148 153 145 139 144 146 145 147 151 156 155 156 154 152 153 152 154 151 150 147 147 149 150 147 149 152 151 153 157 153 144 153 139 139 137 131 129 133 144 154 159 159 159 160 155 161 176 171 135 139 142 133 125 148 150 152 143 149 133 132 146 152 156 149 144 149 142 143 142 150 152 150 149 155 159 158 161 162 161 159 157 153 157 156 154 152 154 154 155 154 151 153 146 142 154 145 153 150 153 158 145 156 158 160 160 160 156 154 154 155 156 151 147 147 149 148 148 149 152 151 154 146 147 157 141 142 133 132 124 143 147 149 164 157 159 159 154 156 170 169 133 143 141 133 138 142 150 149 150 165 142 138 144 165 171 157 151 150 146 142 141 143 149 147 147 151 150 150 154 152 157 152 149 151 155 154 153 151 152 152 153 153 161 152 154 157 144 145 133 130 133 131 138 158 161 164 162 161 157 156 154 156 159 153 148 147 147 145 147 149 152 149 145 145 152 158 138 140 131 124 126 149 152 151 160 159 154 162 155 152 160 170 147 148 134 128 137 142 157 166 168 164 154 161 157 164 178 171 158 148 153 147 144 144 145 149 145 149 150 153 152 149 151 146 142 136 140 142 145 145 144 146 146 149 154 153 153 162 162 161 157 152 154 157 155 155 154 158 158 156 155 153 152 155 154 152 151 146 144 145 148 152 149 144 137 141 160 150 147 142 129 124 132 151 158 161 160 160 153 161 160 154 156 162 151 135 121 128 146 153 165 156 155 162 167 177 165 176 202 175 158 149 153 148 146 143 146 145 148 150 153 154 154 153 154 150 146 141 140 142 144 143 144 146 147 152 153 154 155 161 161 168 160 155 155 150 152 150 150 156 157 158 155 151 149 151 152 150 151 147 145 147 148 149 146 136 139 144 161 140 151 154 140 125 134 146 151 159 166 160 160 155 157 159 155 157 136 126 128 141 150 152 154 151 152 182 169 189 193 196 191 162 163 152 148 147 144 145 146 144 145 147 149 154 151 150 151 150 146 146 148 147 150 150 153 157 158 161 163 164 164 164 165 168 165 160 156 151 151 148 153 154 153 153 152 148 147 150 147 144 147 143 143 149 148 143 138 134 140 147 147 159 150 158 146 144 152 156 151 158 168 177 173 178 157 159 160 153 143 144 156 155 145 157 167 154 162 182 185 211 203 188 175 167 163 158 149 147 141 147 150 147 142 140 144 146 144 144 145 146 146 147 150 147 146 150 151 153 158 159 166 166 166 165 164 164 162 160 155 151 152 151 150 151 150 148 148 148 149 148 144 142 144 145 147 151 147 136 134 128 146 151 158 165 166 159 152 173 174 183 175 176 183 191 201 205 188 179 176 166 144 164 160 139 145 164 169 166 169 185 205 211 193 177 174 166 159 160 148 147 143 145 154 149 143 138 138 136 140 142 143 142 145 147 147 144 145 146 147 149 153 156 158 161 159 160 160 160 157 156 152 152 152 153 152 149 151 150 148 148 149 145 140 141 140 148 149 150 140 134 134 133 146 151 165 170 165 173 159 171 176 184 187 182 190 193 213 219 216 211 205 196 188 196 180 158 176 182 195 182 189 202 213 222 168 167 163 158 153 155 152 143 147 145 152 155 149 143 140 135 134 139 137 138 140 144 142 142 144 147 149 151 152 154 153 154 152 157 155 154 152 154 152 154 154 156 153 151 154 155 150 148 146 141 137 142 144 149 150 147 135 138 137 144 164 159 169 180 183 181 177 177 171 163 180 182 182 180 197 209 206 205 207 202 198 183 167 168 179 195 224 202 206 223 236 212 161 121 155 141 143 147 146 145 144 150 151 160 151 146 139 136 137 133 134 133 136 136 139 138 141 143 147 149 148 149 150 153 151 151 149 149 148 146 149 150 148 150 149 150 150 150 146 145 143 139 139 145 146 150 151 140 136 141 144 150 188 171 181 196 198 191 177 193 181 151 162 171 173 177 189 198 197 200 201 190 187 168 158 160 166 213 222 218 226 233 246 201 171 105 111 139 147 150 145 143 146 148 152 161 155 151 144 141 137 136 134 133 132 132 131 136 140 140 147 147 147 146 146 148 145 146 146 145 144 143 146 149 149 151 149 150 151 146 142 142 135 137 142 146 148 150 147 143 137 148 150 165 189 181 176 205 197 199 178 193 190 156 151 156 163 164 177 187 193 202 195 192 184 159 162 149 166 223 203 224 233 239 229 193 139 104 101 130 149 155 144 145 146 145 147 163 159 154 150 149 146 144 140 138 136 135 134 133 136 136 136 140 144 145 144 148 143 150 144 145 147 142 146 149 149 150 149 152 150 143 141 136 138 140 146 150 149 149 148 145 132 152 156 181 192 175 174 201 189 203 182 184 192 167 156 148 160 163 164 164 175 194 189 189 175 147 153 140 179 206 188 221 228 250 221 160 121 59 118 103 149 154 138 144 147 142 141 158 159 158 154 153 150 151 148 142 139 138 136 134 136 130 134 137 140 149 147 146 149 149 154 149 155 153 153 157 157 156 152 152 149 138 142 136 139 145 149 152 150 145 157 147 135 157 165 186 196 171 174 200 186 197 188 169 191 172 160 147 149 157 163 154 155 176 176 171 158 133 142 136 185 194 188 213 236 251 211 151 71 36 122 105 145 162 143 139 149 143 139 146 159 156 159 153 152 151 151 147 141 143 141 141 141 138 141 147 146 153 149 151 156 155 160 156 160 160 161 160 162 163 157 153 145 140 142 141 140 145 152 150 147 149 151 151 140 155 181 191 194 171 164 184 183 193 189 156 177 174 146 156 137 159 154 147 150 161 164 158 135 131 138 146 194 189 186 215 238 251 237 149 44 25 81 128 123 172 151 140 148 149 141 139 149 156 158 154 152 149 150 151 145 142 142 143 145 144 147 148 153 157 157 158 162 163 167 164 166 165 167 164 162 159 155 148 143 138 141 145 147 151 154 151 152 151 145 149 144 155 196 194 192 173 158 167 176 189 190 148 163 175 133 148 118 132 154 151 141 147 158 152 130 138 135 165 197 179 199 227 238 255 220 151 42 41 22 116 135 178 165 145 145 145 148 137 145 148 152 155 153 151 148 151 149 147 146 144 146 145 148 149 154 158 164 165 168 170 170 168 171 170 171 163 160 155 151 145 142 141 144 147 152 152 152 156 153 148 146 142 153 158 194 197 188 179 151 161 180 185 179 143 126 147 100 142 117 102 107 117 109 112 122 116 110 106 109 148 155 167 213 207 227 248 225 137 16 53 28 48 129 186 182 164 146 150 147 141 139 141 149 152 152 149 149 148 144 149 152 149 145 149 155 155 158 161 166 167 169 169 170 169 171 168 165 162 156 153 149 146 145 149 150 157 157 152 160 158 149 144 148 136 147 175 190 197 184 177 147 156 179 182 180 142 99 122 94 152 128 93 86 79 74 74 82 90 62 43 55 117 127 133 177 140 154 206 247 147 25 25 63 0 92 170 188 179 156 157 144 139 138 135 141 144 149 148 148 148 148 149 154 155 154 153 155 158 164 163 168 169 171 170 167 167 166 162 159 159 157 153 152 150 149 155 160 159 157 159 160 155 145 144 145 135 152 185 195 190 187 173 145 151 175 172 185 127 87 103 90 152 140 96 81 60 49 55 46 56 51 33 68 115 121 87 137 156 151 164 234 184 120 35 44 49 30 128 174 189 173 161 143 130 142 135 132 138 143 148 149 149 150 150 154 157 160 159 159 158 161 162 167 168 170 167 167 164 162 158 158 157 155 152 154 155 159 160 160 165 164 161 159 153 140 141 147 146 169 183 197 192 188 168 153 146 182 174 174 118 95 84 83 132 129 110 122 104 65 67 82 65 72 71 91 109 150 118 144 160 189 166 213 162 169 127 64 52 66 65 146 158 193 171 144 130 136 135 127 128 133 141 146 152 151 150 152 154 159 162 161 161 160 162 162 165 164 162 160 159 157 156 155 154 154 161 162 167 164 166 169 166 167 158 152 149 139 141 151 162 175 193 184 188 181 168 167 149 177 187 145 115 90 96 104 162 184 150 154 147 107 103 88 65 101 85 98 75 82 77 106 152 210 216 231 151 136 173 129 57 75 80 90 140 167 194 159 136 136 137 126 125 123 129 134 142 147 150 150 149 153 156 154 153 154 156 155 157 157 156 155 155 154 153 152 156 163 172 172 170 176 171 168 164 157 150 152 145 136 147 156 173 186 203 181 183 175 163 172 166 180 164 119 110 85 91 133 199 194 151 132 133 122 118 119 97 135 70 85 61 105 119 95 126 168 181 248 185 134 162 166 109 86 94 121 111 162 171 177 160 147 144 128 120 121 120 124 132 140 140 142 142 145 146 148 144 146 146 145 147 147 143 143 144 144 156 159 163 167 169 177 175 176 164 164 162 152 148 152 144 139 157 170 180 192 204 183 182 168 166 186 184 186 153 122 99 103 100 175 190 187 132 109 85 111 105 117 106 145 46 69 25 97 127 152 196 214 170 239 207 127 170 182 127 123 121 140 118 120 199 186 164 166 153 144 129 120 117 118 122 130 133 134 138 140 140 140 139 145 143 142 141 143 140 139 144 148 157 159 161 168 176 179 173 171 163 159 156 153 149 150 141 149 166 178 190 195 203 187 179 161 181 187 200 177 142 140 106 122 135 221 197 173 136 113 117 99 90 98 70 