P2
92
112
255
193 189 192 188 191 187 178 186 173 174 178 170 166 157 135 129 147 130 127 132 130 129 128 130 128 123 128 125 129 134 127 124 124 125 123 120 122 133 133 133 137 141 140 142 142 142 150 151 152 147 148 141 147 143 146 147 149 155 154 151 148 145 145 142 140 140 142 142 139 132 133 127 129 125 122 118 126 141 143 152 140 148 156 147 155 151 152 149 151 149 151 153 190 193 190 185 186 182 173 169 176 172 160 164 152 159 130 127 127 130 133 131 132 139 133 134 134 134 141 135 130 134 133 132 133 132 133 131 131 138 138 137 141 141 144 146 146 149 152 154 158 157 154 156 154 148 148 150 148 148 158 155 150 146 140 140 141 142 143 144 143 137 138 140 133 130 132 126 120 124 129 133 130 151 141 143 156 157 146 151 152 152 145 155 188 189 189 180 181 181 178 163 163 165 153 151 128 130 125 131 129 128 131 133 140 141 143 143 146 148 144 137 127 129 137 137 136 131 132 133 133 134 138 140 140 141 146 148 149 150 149 154 157 152 153 160 158 154 154 154 153 152 157 152 149 142 139 142 147 145 143 143 143 142 145 143 138 138 138 134 128 122 117 117 130 137 118 129 149 156 153 152 154 153 149 149 189 183 185 180 175 164 170 163 154 146 147 128 132 123 129 135 129 130 125 140 143 146 150 151 154 141 137 135 131 134 135 137 136 132 132 136 133 133 135 134 139 142 142 149 148 148 149 147 158 157 154 160 165 157 156 159 162 160 156 158 152 145 144 142 150 147 145 143 141 140 143 144 144 136 137 135 136 129 118 116 116 113 117 123 145 150 147 143 151 154 150 150 187 178 177 168 171 152 153 150 149 135 128 127 119 124 129 131 125 130 132 145 142 148 152 150 147 137 134 131 133 138 135 133 139 133 140 137 137 136 136 134 139 140 142 146 147 146 145 149 155 156 160 160 161 160 161 163 169 164 162 162 159 151 150 144 152 149 141 144 143 143 140 142 142 140 130 124 133 131 127 116 120 116 127 122 127 141 131 132 148 156 148 147 184 181 178 174 166 154 143 132 131 125 125 121 123 128 129 131 129 135 140 145 144 148 144 136 139 140 136 135 131 134 131 135 135 133 136 132 140 137 139 139 135 138 143 144 145 145 145 151 154 150 155 158 161 163 162 166 162 162 163 161 157 153 147 144 149 151 142 143 139 144 143 141 140 140 135 129 125 130 132 124 121 120 119 118 118 130 127 145 156 147 151 149 175 176 172 181 163 140 143 139 129 115 115 121 129 130 133 142 141 138 138 145 140 143 138 141 140 143 142 135 133 134 135 139 134 136 140 137 141 140 144 140 136 140 143 149 146 146 147 149 153 154 152 157 161 162 160 165 162 158 156 159 159 151 149 144 143 145 144 144 147 152 151 150 145 140 133 134 128 130 132 132 125 119 119 119 119 118 134 136 152 146 153 156 181 166 154 155 172 146 124 123 114 111 107 118 130 133 141 143 143 143 144 145 137 133 133 140 145 139 136 136 139 141 140 142 139 141 144 141 140 139 137 137 137 134 138 144 146 146 148 153 150 155 153 159 159 162 163 162 164 159 157 156 158 156 153 144 143 139 147 143 141 148 155 151 154 145 130 128 128 128 131 135 128 124 118 117 122 117 124 121 131 147 152 149 170 171 165 143 148 151 141 116 114 107 112 123 138 143 148 143 150 154 155 144 142 139 140 142 141 130 135 134 134 135 138 144 142 143 144 143 143 145 140 139 141 141 146 147 150 148 152 157 157 155 157 160 162 161 162 162 164 165 160 156 153 152 148 149 148 142 143 146 144 145 147 148 154 148 142 131 129 129 130 132 135 128 124 121 121 119 117 116 120 126 150 147 173 155 149 144 141 128 129 118 113 111 121 133 146 152 145 150 160 159 153 149 147 148 145 137 131 129 137 135 137 141 147 148 147 146 149 148 147 146 144 143 148 151 151 151 153 156 155 152 155 153 157 156 161 161 161 157 162 165 160 154 152 148 143 145 144 142 137 138 141 144 146 143 142 140 139 137 128 130 129 134 135 134 126 125 125 121 118 116 120 127 144 155 161 149 138 126 122 127 115 116 118 120 137 146 153 151 158 166 172 157 147 156 156 152 148 143 134 136 140 142 146 149 151 147 147 148 149 150 150 150 148 151 154 156 158 158 152 157 151 148 152 154 156 159 161 162 162 158 156 164 160 156 151 147 145 141 139 138 136 137 139 136 143 142 141 138 140 139 130 137 134 136 135 136 129 130 127 123 122 118 120 127 139 135 145 138 127 127 118 118 116 118 123 129 143 149 153 163 175 173 163 154 157 157 154 150 150 147 145 144 144 148 147 150 150 148 148 151 150 152 153 152 151 150 154 151 159 160 157 158 155 152 153 153 157 156 157 155 157 156 153 155 156 153 149 147 141 140 137 130 128 133 137 137 136 141 138 137 135 137 137 130 135 138 131 135 132 135 133 129 125 123 122 120 120 131 171 158 132 121 123 119 123 126 128 136 146 152 167 173 173 163 154 159 158 156 151 152 153 155 154 150 146 150 149 152 152 155 156 153 154 151 153 152 152 151 153 153 156 158 156 153 155 157 155 152 157 155 154 155 155 152 153 155 151 147 149 146 143 139 136 132 125 125 129 134 134 134 139 137 138 136 136 133 133 132 129 130 137 139 140 136 128 126 128 125 128 139 138 129 125 123 124 125 129 130 135 140 144 160 174 168 163 160 158 160 160 154 151 155 153 151 148 154 151 153 150 154 153 155 156 156 154 153 155 153 155 156 154 154 153 152 153 152 154 152 152 150 152 153 153 154 155 152 152 154 147 142 144 142 137 137 134 132 132 123 126 126 133 130 134 135 138 135 136 134 134 135 137 129 133 140 144 145 138 131 127 135 130 135 132 131 126 126 127 130 126 131 141 142 154 168 170 163 158 161 164 163 158 154 156 157 150 149 154 155 154 156 157 155 153 155 157 153 152 151 153 153 150 152 152 151 151 150 148 148 148 145 145 142 147 146 143 146 148 146 147 147 142 139 139 136 133 134 135 133 131 131 130 126 130 125 132 133 134 131 137 142 140 142 143 142 135 141 144 144 143 142 137 133 134 136 135 129 127 133 132 131 131 145 148 150 159 164 163 159 160 163 163 159 160 163 158 152 153 153 156 152 154 155 155 153 151 149 152 149 150 151 152 150 148 146 144 147 147 147 141 142 143 139 139 140 141 142 135 136 137 137 141 138 140 136 136 135 132 134 136 136 133 135 135 133 134 127 128 132 132 134 135 142 146 146 146 145 149 137 152 151 144 147 141 137 137 130 138 129 130 139 139 138 142 151 152 154 169 164 162 160 162 163 160 161 162 161 152 150 155 151 152 149 152 150 150 149 150 150 152 152 153 149 150 143 141 143 146 138 141 142 138 137 134 141 134 136 133 132 132 133 132 131 136 134 133 133 133 131 131 132 132 134 136 136 133 133 140 136 131 132 131 134 138 135 144 145 148 147 153 139 150 150 150 148 149 137 132 136 135 128 129 143 142 141 151 150 149 164 165 163 157 157 158 166 166 165 161 158 155 153 156 151 151 149 149 147 149 147 149 151 150 146 147 145 145 143 134 139 140 137 136 141 139 137 135 137 136 130 128 129 125 127 128 126 130 126 129 128 126 130 128 130 128 132 136 138 138 135 140 142 141 136 136 137 140 143 139 146 143 150 156 144 143 149 152 157 151 144 136 151 132 129 136 146 149 146 152 152 160 169 162 161 153 158 162 164 165 162 157 157 154 156 154 155 153 150 148 148 150 148 149 150 145 143 143 137 141 138 135 135 136 137 134 135 139 139 134 134 135 129 125 127 125 124 127 125 128 127 128 128 127 127 126 130 128 130 135 138 141 139 143 144 139 137 138 140 137 143 142 144 148 150 151 148 146 140 152 158 157 153 148 154 134 133 133 146 143 145 148 161 163 160 158 159 156 163 160 161 158 158 155 158 154 160 155 156 155 156 152 150 152 147 146 146 140 137 141 136 136 139 134 136 136 137 136 136 138 137 137 133 133 128 126 130 125 127 127 126 127 128 125 126 126 123 125 128 132 130 134 138 140 139 146 146 143 142 137 138 140 139 146 144 147 152 152 151 150 143 150 157 159 155 158 163 133 131 136 140 137 149 150 159 158 155 158 159 158 160 160 159 157 154 159 162 160 163 157 157 158 159 154 153 149 145 145 143 140 138 139 140 144 142 138 141 141 143 141 141 138 137 138 134 134 127 128 126 126 127 126 126 126 126 127 124 126 122 124 126 130 132 135 137 141 139 145 151 149 149 142 142 139 143 146 147 147 151 147 151 148 147 145 156 164 158 157 151 130 134 133 130 138 153 154 157 156 154 148 156 158 162 158 157 154 154 159 160 161 161 158 159 158 157 154 151 146 145 144 142 140 140 140 140 142 140 141 141 142 140 142 141 139 138 137 136 134 130 130 129 127 126 124 126 126 125 128 128 127 125 122 124 128 129 131 136 139 139 142 150 150 151 146 146 144 144 146 148 150 145 143 153 151 149 142 148 159 165 156 156 129 129 128 131 143 155 156 156 154 146 145 151 158 159 159 157 154 155 158 161 163 161 160 163 161 158 154 148 142 141 144 143 140 144 144 142 140 141 145 144 145 147 142 142 140 139 138 138 135 132 130 129 129 128 126 125 124 124 126 128 125 127 125 126 127 126 129 131 135 136 142 149 154 153 147 148 153 142 145 150 151 144 143 143 156 153 151 143 157 165 160 157 136 124 122 131 146 152 156 156 147 140 143 149 153 154 157 157 154 157 159 165 163 161 165 159 158 154 151 147 145 145 145 144 143 144 145 144 143 140 145 147 147 153 150 149 149 146 143 144 144 142 139 135 132 130 128 129 129 128 129 128 127 126 128 128 127 127 128 127 131 136 139 148 155 153 151 153 150 146 143 155 158 149 141 145 156 158 157 152 149 164 163 160 133 127 122 127 145 152 163 149 140 131 140 146 149 153 155 155 153 156 159 162 160 161 159 155 154 150 148 148 147 147 145 144 144 145 145 146 150 146 149 154 153 157 155 156 155 155 153 151 153 150 145 142 140 139 133 135 136 134 134 132 134 133 130 130 131 130 132 128 131 133 138 146 153 151 155 155 152 151 143 154 159 152 143 145 150 157 160 157 144 154 166 160 132 120 121 129 149 156 158 141 132 130 139 146 150 155 145 151 150 159 159 161 154 154 152 152 152 150 148 149 150 148 147 147 147 147 147 149 150 149 154 154 156 158 160 159 159 160 160 157 157 154 151 148 147 144 144 141 140 139 139 138 138 138 139 133 134 138 137 134 134 134 136 142 151 150 153 156 156 154 145 154 156 157 151 142 152 151 154 159 149 142 162 163 115 120 118 135 145 161 152 140 132 129 135 147 150 152 144 153 153 158 157 154 149 150 150 153 152 150 150 149 151 148 148 151 151 152 156 155 153 154 154 155 157 158 161 161 161 161 164 161 160 156 155 153 149 148 147 146 146 144 144 144 143 140 140 139 140 141 141 141 138 139 135 143 152 154 154 155 158 154 152 152 161 160 155 145 148 153 158 153 151 143 160 165 129 125 120 139 148 159 145 135 130 131 137 150 147 151 150 151 156 157 150 147 147 148 153 151 149 150 150 156 155 154 154 154 156 157 157 157 156 157 158 157 158 159 160 160 163 162 163 163 160 159 156 155 152 148 146 147 147 147 147 147 145 143 142 142 145 143 142 144 143 140 140 141 154 153 154 155 163 152 154 150 161 161 153 149 148 149 157 152 142 144 156 172 145 129 125 143 152 152 139 129 129 131 143 151 150 151 155 154 151 153 152 147 147 148 152 151 148 153 157 160 161 157 159 158 162 161 161 160 160 161 161 161 162 161 162 162 164 162 162 162 161 159 157 156 153 150 149 150 148 149 148 149 148 147 147 145 146 148 144 146 144 144 143 143 149 155 152 160 163 154 157 151 161 160 156 154 149 149 153 150 142 138 147 175 153 130 131 145 156 144 134 127 132 132 145 150 155 152 151 153 151 153 153 149 149 148 151 152 153 155 157 159 163 161 162 162 165 164 164 164 163 164 163 164 164 163 164 164 165 164 164 162 162 160 158 154 152 151 149 150 149 149 149 150 151 148 150 151 151 151 146 148 145 145 145 147 148 153 152 161 164 160 152 155 159 161 153 159 154 149 152 144 145 140 145 164 139 134 141 147 150 142 131 133 129 139 142 150 157 148 144 152 155 152 149 153 151 150 154 155 155 156 157 159 161 160 162 165 166 168 167 168 167 167 165 166 165 166 165 166 165 167 164 164 163 161 159 157 154 152 152 150 151 151 151 151 153 150 153 155 156 152 151 150 150 150 148 146 148 152 151 157 164 163 153 153 157 158 155 156 155 145 150 146 148 143 151 158 148 149 142 149 148 137 136 129 134 141 136 144 152 146 144 151 155 152 149 152 151 149 154 153 151 153 156 158 157 159 163 166 168 167 168 170 169 167 167 168 165 166 166 168 165 167 163 164 162 162 160 161 158 158 156 156 154 154 154 153 154 153 155 157 157 153 154 150 150 150 149 148 149 150 146 149 157 164 156 151 153 157 157 158 155 150 146 144 144 154 150 156 158 149 142 147 143 138 141 129 137 129 128 135 142 143 144 152 152 149 145 147 148 146 149 150 151 153 155 155 156 157 159 162 161 164 165 165 165 167 167 167 166 165 166 167 165 164 163 161 160 162 161 161 160 160 160 159 159 158 156 157 156 156 158 158 159 154 155 152 152 150 147 145 150 152 144 141 148 157 154 153 153 155 156 155 156 155 147 135 144 160 151 168 167 140 139 143 138 143 132 135 125 119 126 136 139 140 144 150 144 145 140 143 143 147 146 148 150 153 152 154 155 153 154 156 158 161 162 161 161 162 162 164 164 163 161 164 162 161 162 161 161 159 159 158 161 162 161 159 160 161 159 159 158 159 159 160 161 155 155 153 153 151 146 143 145 149 143 136 141 148 149 146 153 156 155 154 156 152 147 138 140 162 156 171 168 142 139 136 136 137 121 131 115 120 126 134 137 140 142 142 136 136 133 131 134 142 142 143 146 147 147 149 150 151 153 157 157 157 159 159 158 160 162 162 162 162 162 162 163 163 160 162 160 159 158 158 158 159 158 156 157 157 156 156 157 156 156 162 161 157 158 157 156 153 146 143 141 144 141 130 134 141 147 145 148 155 158 156 153 155 149 147 144 161 160 192 168 151 138 136 137 131 123 132 124 118 123 130 136 134 134 131 130 130 126 126 131 136 139 139 138 138 140 143 146 145 148 148 147 144 147 149 147 148 151 156 158 159 159 159 159 160 159 159 159 158 156 156 157 158 158 155 155 155 155 153 155 154 155 158 158 157 160 159 158 154 147 148 140 138 137 123 123 127 139 146 149 151 157 155 156 156 150 152 154 162 164 198 172 150 144 141 142 127 128 126 121 112 122 130 134 129 126 124 127 126 121 126 130 133 133 133 136 135 135 138 142 140 139 141 139 142 145 143 144 142 143 147 152 153 154 153 156 156 157 157 155 155 151 154 153 154 154 151 149 150 149 150 149 149 150 153 151 154 153 155 155 151 142 146 143 136 132 125 120 121 129 145 147 149 158 154 154 157 153 150 153 167 174 206 180 150 146 146 137 125 132 120 116 110 125 129 134 125 121 121 122 117 118 126 129 133 131 130 129 128 130 136 137 136 133 133 135 138 137 138 136 139 139 140 142 144 146 145 148 148 149 149 149 145 144 147 145 145 145 143 143 145 142 141 142 145 145 148 147 149 147 149 151 153 143 142 142 139 132 130 123 117 125 140 144 147 154 156 154 156 155 150 156 158 175 204 185 164 146 144 135 129 132 112 113 112 127 122 128 121 121 119 122 123 127 125 122 123 126 124 124 121 123 126 131 128 127 128 129 129 132 133 133 137 137 138 137 138 139 141 144 144 142 143 143 141 140 141 142 139 139 136 137 137 137 137 138 140 141 143 144 145 147 146 147 149 146 141 141 139 137 134 128 123 123 137 141 146 153 157 153 153 153 148 157 154 186 207 179 168 140 137 132 127 124 109 110 116 121 126 129 127 123 122 120 125 124 122 119 118 120 120 122 123 121 119 123 123 122 120 120 121 122 127 129 131 133 132 133 133 134 136 140 138 139 139 138 136 136 135 136 134 134 131 133 131 132 136 135 137 139 141 145 147 147 148 149 150 149 144 143 140 141 140 136 130 126 138 140 141 156 152 152 148 153 147 151 168 180 237 192 172 144 129 124 128 117 108 100 102 111 131 130 129 123 123 120 123 122 120 118 116 119 122 125 130 129 118 119 120 122 129 125 123 126 127 130 129 130 132 132 132 134 136 136 137 135 136 135 134 134 134 133 131 133 134 133 132 132 135 135 136 137 137 141 147 148 150 154 151 149 148 143 143 141 143 135 128 125 133 141 147 150 147 151 152 148 147 156 171 190 225 188 169 145 123 125 129 115 106 93 108 120 129 135 134 123 120 121 122 120 118 116 116 119 137 142 143 139 141 134 143 150 150 147 144 149 135 138 130 131 131 135 135 138 139 140 140 139 138 137 136 138 137 138 136 137 137 138 135 134 138 140 140 140 141 139 139 145 146 151 152 152 148 144 144 144 144 140 126 125 132 138 149 145 141 146 155 155 143 156 178 199 227 172 161 143 115 133 129 123 100 99 126 126 132 141 141 133 128 128 126 125 118 114 123 126 149 153 154 149 160 155 159 167 163 159 162 159 152 145 144 135 134 136 139 143 143 147 146 144 141 142 139 140 142 141 140 146 143 156 151 144 144 149 156 146 142 143 141 142 142 146 154 154 151 148 150 148 141 142 129 122 133 136 148 141 138 144 149 155 144 146 175 208 223 171 166 152 113 134 125 125 108 116 132 124 141 143 146 140 136 134 123 129 127 129 145 146 161 171 171 170 176 180 189 189 184 182 181 173 167 166 158 158 150 147 147 140 140 144 147 144 139 141 138 140 142 150 153 152 155 161 157 159 160 168 161 155 148 151 148 149 141 144 151 154 148 149 149 149 141 145 135 126 132 137 142 135 138 137 148 152 148 152 160 210 218 170 181 159 101 125 117 128 113 125 131 129 145 150 152 149 143 137 129 129 135 142 155 164 172 173 177 182 183 188 193 195 187 183 187 181 176 173 175 172 166 157 156 144 143 141 146 139 142 144 140 144 145 152 163 166 165 173 171 174 175 173 170 165 165 165 160 164 150 147 144 147 149 148 144 145 141 151 140 131 129 135 140 137 137 133 150 149 144 169 161 210 217 160 187 169 98 109 114 125 117 136 135 141 152 154 152 145 136 135 134 125 144 145 157 160 158 167 175 175 172 182 184 176 167 172 175 171 166 166 175 170 162 152 147 141 136 137 143 147 147 156 157 156 158 159 172 176 181 195 187 188 179 180 164 174 169 165 158 161 152 147 140 144 145 146 142 144 142 148 152 139 136 129 134 142 134 132 138 151 152 176 171 194 204 157 198 177 121 103 106 114 118 135 143 152 142 154 150 141 129 124 129 134 132 142 149 149 136 151 169 163 166 168 174 149 141 157 161 152 143 150 159 155 146 136 137 135 134 139 138 145 147 158 156 149 162 165 172 186 186 198 192 195 189 186 182 172 161 156 147 142 138 139 129 141 148 145 148 144 143 145 149 142 136 130 141 147 144 123 139 148 155 185 166 190 186 149 174 176 145 129 98 115 120 130 145 156 134 144 142 127 121 121 114 116 109 111 119 113 118 122 136 128 125 128 136 131 122 120 135 130 131 128 135 136 135 135 131 131 133 138 139 140 146 153 147 146 163 165 177 172 176 183 183 170 163 163 155 157 155 133 136 134 136 143 142 141 149 153 148 148 143 141 141 135 131 134 139 151 148 117 133 156 161 178 162 179 178 135 152 170 156 132 104 125 126 134 147 158 137 134 140 132 125 119 113 119 109 114 119 118 124 127 133 129 129 130 138 132 130 124 129 129 139 136 136 141 139 137 135 134 137 140 143 144 150 149 150 151 157 154 162 155 142 146 142 140 139 132 137 142 149 138 138 142 143 147 153 158 147 149 147 143 144 142 136 126 130 130 142 155 150 112 124 149 179 184 165 183 168 117 139 154 161 144 119 125 128 142 151 165 150 140 140 141 131 122 119 128 121 122 129 127 121 123 126 127 131 140 143 141 136 136 130 131 138 142 144 145 145 145 141 141 148 146 149 152 156 154 153 155 151 152 149 146 135 143 146 146 140 133 134 148 150 148 140 146 146 147 149 160 153 141 141 137 137 141 135 130 128 131 131 147 140 105 116 148 179 178 155 180 163 113 133 172 149 166 141 144 131 145 151 175 162 146 141 148 145 138 137 140 139 140 144 140 131 132 128 138 137 148 150 150 147 145 134 135 145 144 147 145 149 154 154 153 157 155 156 157 161 160 159 160 158 158 151 152 145 146 148 148 138 132 135 140 151 147 144 144 147 144 142 143 146 132 133 136 137 141 140 135 128 133 131 139 131 94 106 149 191 155 141 175 164 113 120 175 166 161 140 165 143 150 150 173 162 154 146 145 147 145 148 147 141 144 146 139 131 128 126 136 141 151 146 145 149 146 140 141 148 151 156 151 153 157 157 155 158 159 162 161 163 160 159 157 158 156 153 152 141 141 138 140 139 142 146 146 153 154 145 145 140 137 140 136 140 139 142 142 139 143 142 139 134 132 129 132 123 91 96 131 165 150 129 177 161 120 137 172 172 150 137 168 160 158 162 170 158 163 147 146 148 147 146 145 141 140 142 138 127 123 128 135 134 139 144 150 154 150 144 146 151 157 157 151 149 152 154 153 151 161 162 160 160 154 155 155 152 150 151 148 143 141 137 135 145 151 148 153 152 145 143 137 137 137 136 136 140 139 141 142 141 143 142 137 140 130 124 143 129 99 104 141 145 144 130 166 156 129 152 195 181 166 155 163 172 159 166 183 162 154 150 141 144 140 143 140 133 137 141 141 131 135 139 138 135 138 142 150 147 150 147 148 149 159 163 156 157 154 155 157 152 155 154 152 154 147 146 149 144 137 139 143 139 134 138 131 139 152 139 147 145 148 139 138 143 140 134 133 138 141 140 143 144 145 144 141 138 132 135 141 132 98 103 151 167 160 123 158 148 124 166 212 192 194 175 167 173 158 163 174 165 153 150 144 145 144 148 140 140 142 147 144 137 144 143 144 147 148 145 151 144 142 145 140 144 147 146 147 140 143 144 150 153 156 150 148 152 146 144 149 141 137 141 149 146 139 141 154 149 151 139 146 145 143 136 128 135 137 138 136 135 140 142 144 146 147 145 145 134 137 140 141 137 116 138 146 149 145 113 150 137 132 171 206 189 191 175 181 171 163 159 163 161 153 145 146 144 141 141 135 142 145 145 145 135 136 136 143 146 151 153 151 151 149 149 144 145 151 144 148 145 141 148 151 157 153 147 150 151 146 144 143 138 140 148 152 145 141 139 146 149 146 142 144 148 140 144 135 139 142 138 138 136 135 144 145 147 149 148 152 141 141 145 152 149 148 148 142 136 142 123 149 135 132 160 173 178 192 169 189 193 169 161 161 164 156 146 145 150 149 147 144 144 146 147 146 141 141 141 146 153 156 153 153 145 149 148 142 149 155 152 150 145 143 156 158 160 154 150 149 147 148 148 141 143 146 153 151 149 146 141 144 151 151 145 148 143 142 142 140 139 145 142 144 142 137 141 146 149 151 151 156 144 141 148 155 145 151 131 140 154 145 126 157 135 141 156 162 154 170 163 198 227 185 156 163 155 153 147 147 148 149 146 149 141 148 145 144 144 148 149 151 153 157 156 157 147 147 143 145 150 155 158 155 150 147 155 156 156 152 147 147 143 146 148 151 150 145 144 144 143 145 140 142 146 149 144 148 142 144 145 143 142 141 142 146 142 141 147 149 151 154 153 157 151 145 150 154 151 140 125 126 161 147 129 144 136 135 169 158 143 161 157 196 221 205 147 168 152 148 145 147 148 146 147 151 147 151 150 143 146 149 150 151 150 156 163 161 155 143 148 151 159 164 167 159 158 152 155 159 158 150 146 143 145 147 146 155 151 150 145 149 152 143 143 145 147 149 146 147 143 142 145 146 148 144 142 148 146 145 149 152 155 156 155 157 154 154 152 155 155 143 130 115 146 136 126 145 138 128 182 153 138 164 169 183 219 197 151 170 146 151 146 146 148 145 147 149 149 150 150 148 146 147 151 154 155 164 166 160 152 145 152 157 159 155 160 159 153 156 156 157 159 152 142 144 142 144 140 142 141 142 143 149 153 147 143 144 145 146 142 147 146 150 145 147 145 143 145 151 147 146 152 153 156 156 153 160 158 158 160 166 153 147 133 110 157 126 132 143 133 114 175 171 141 161 183 189 199 188 161 175 144 146 147 146 144 144 143 146 145 140 143 146 142 146 147 150 154 161 157 153 151 150 153 159 157 155 160 155 155 153 150 154 150 148 144 144 145 149 137 135 141 145 149 154 156 148 143 146 146 146 144 144 149 153 150 151 154 147 150 153 149 150 155 156 160 158 157 161 163 167 167 172 160 160 128 110 167 114 144 152 135 108 161 186 162 154 196 190 178 174 178 177 156 149 146 146 146 145 142 144 148 141 139 138 136 140 145 147 148 152 152 153 154 153 156 158 158 156 155 150 152 142 142 148 153 144 143 143 144 138 134 133 141 148 148 153 159 151 145 147 144 144 142 144 143 149 149 149 149 147 148 152 153 156 157 158 160 160 158 162 168 170 170 173 160 137 122 122 164 125 151 152 141 134 137 179 167 135 198 162 163 168 179 172 146 145 144 143 145 148 145 146 151 147 141 135 137 144 142 149 150 148 146 144 147 150 144 147 148 147 142 137 140 141 142 148 152 146 145 148 140 133 137 137 142 141 147 146 150 151 146 150 151 148 142 140 146 149 151 151 146 150 150 150 154 161 159 159 161 161 163 164 171 172 162 167 148 134 125 124 153 139 155 156 142 161 135 162 167 139 197 156 152 160 160 155 141 138 134 136 138 140 143 145 146 145 145 136 130 135 135 132 135 133 134 141 143 143 142 143 141 136 131 129 135 139 143 143 144 140 137 139 142 133 131 134 142 137 139 144 142 151 144 145 154 153 145 144 144 152 150 148 142 146 148 149 154 158 159 159 159 158 161 162 171 164 164 165 144 128 133 124 148 146 155 160 154 175 150 155 172 148 191 170 145 149 143 143 133 129 129 133 136 136 141 144 147 144 142 136 130 128 127 129 127 127 131 135 142 139 137 136 135 126 127 124 132 136 134 136 133 134 129 128 134 134 128 130 135 140 126 135 143 140 146 138 146 152 145 142 141 144 149 149 147 145 148 150 151 158 160 160 156 156 161 160 168 158 163 152 140 120 129 130 141 153 161 166 163 177 173 168 164 156 176 164 136 139 134 124 128 131 123 127 132 133 135 142 143 141 137 137 136 133 133 134 130 128 129 133 137 132 134 128 121 121 128 124 130 136 130 131 127 127 124 121 127 119 119 126 129 127 135 130 140 140 142 137 138 143 146 140 136 141 148 150 150 149 148 148 148 153 159 157 153 153 160 158 164 151 159 147 132 122 130 130 146 155 167 161 162 164 166 184 186 172 157 158 154 147 124 117 125 131 127 124 127 131 133 135 138 137 136 136 137 135 134 133 130 133 130 129 135 130 128 127 126 122 124 124 125 129 126 131 124 127 130 120 134 129 125 120 125 129 137 140 148 145 144 139 137 137 139 142 140 141 146 151 149 148 151 151 152 154 161 157 154 155 158 153 160 150 155 137 121 124 131 126 153 164 170 160 162 140 159 186 196 206 188 155 161 149 124 112 127 129 130 124 125 127 131 132 138 138 137 140 131 131 133 131 130 132 133 134 138 130 128 126 123 123 118 116 117 123 134 131 136 138 142 143 142 147 133 128 134 129 133 142 142 142 139 140 139 139 137 142 142 141 147 150 149 147 147 147 146 151 157 157 154 157 159 151 156 146 145 120 123 123 125 131 167 172 167 164 165 147 136 172 188 204 206 168 161 148 119 104 119 126 129 128 125 126 131 131 137 139 140 140 135 129 131 129 126 127 139 142 139 138 126 127 126 120 116 116 122 128 142 138 138 146 147 157 155 158 152 146 153 128 133 137 137 138 141 140 142 145 150 146 145 148 153 154 156 154 149 151 153 156 161 162 154 159 158 153 152 138 129 125 149 124 120 147 170 167 160 162 171 159 138 140 175 195 216 186 185 157 121 108 115 124 129 129 129 130 130 132 136 140 140 136 132 130 133 134 133 137 144 148 130 132 127 132 127 118 119 124 126 129 135 140 140 145 157 159 166 160 163 157 169 153 131 138 134 135 135 138 140 141 147 150 152 151 155 155 158 156 152 149 152 154 161 162 160 161 161 154 154 139 128 131 141 128 131 156 172 158 157 169 168 165 147 138 159 175 206 173 190 177 135 110 110 119 134 132 130 132 132 136 136 136 139 133 130 128 131 135 135 132 142 148 135 131 134 138 130 128 126 127 127 126 127 129 141 147 160 166 175 160 161 170 163 158 147 150 149 145 145 142 141 143 144 151 150 152 150 150 152 154 154 150 151 153 157 159 160 161 162 153 156 143 128 124 132 139 141 156 166 153 166 168 167 160 148 142 154 164 186 163 171 177 143 123 119 123 136 136 132 135 135 140 139 138 139 137 133 129 132 131 131 135 148 144 140 141 139 137 131 132 129 129 128 122 130 126 146 154 164 173 173 162 151 166 159 152 144 151 149 150 148 145 141 140 142 144 147 151 146 140 144 150 154 150 151 153 153 156 161 165 162 155 156 145 128 121 135 157 147 149 158 160 170 169 170 160 156 135 135 163 176 163 140 167 148 114 125 130 141 136 133 135 139 139 143 142 143 141 138 135 134 130 132 141 151 148 148 148 141 139 143 135 129 133 129 122 123 129 148 153 167 169 162 157 150 155 152 144 140 148 149 156 158 152 147 141 140 141 147 146 149 146 146 150 152 148 150 152 150 158 163 166 161 155 157 142 130 133 143 156 149 148 151 172 171 167 171 161 159 142 130 157 170 160 134 133 165 117 125 132 143 140 135 140 140 139 144 144 147 144 142 140 136 134 140 148 149 151 150 149 145 145 147 140 132 132 128 125 124 124 139 138 151 147 140 148 138 148 133 140 142 144 143 153 156 159 149 145 140 135 139 139 146 148 151 153 151 151 151 149 150 157 161 160 159 153 154 139 133 134 132 147 149 152 158 175 174 171 176 158 156 153 124 147 163 156 141 123 149 139 126 121 137 139 141 142 141 142 143 148 151 149 145 143 140 142 147 151 152 153 153 152 151 148 144 147 144 134 132 126 127 130 124 124 133 129 131 140 132 130 134 140 144 145 143 144 150 157 155 149 146 138 142 138 142 147 153 155 153 152 153 149 152 156 159 157 154 154 158 144 140 137 136 151 155 156 162 178 175 173 172 165 160 152 128 142 161 161 151 133 133 147 124 121 140 137 138 146 147 144 144 147 151 151 150 150 145 146 148 152 155 156 159 161 158 154 149 152 149 146 144 138 135 142 141 138 140 142 143 143 142 135 137 143 144 144 149 147 150 155 153 146 146 139 141 145 143 145 149 152 151 150 151 147 148 152 152 151 147 160 164 152 147 142 142 153 148 165 175 179 173 172 168 165 158 156 143 140 165 165 165 151 143 130 127 118 141 147 141 144 146 142 143 147 153 153 154 156 153 151 149 151 156 155 158 159 161 158 156 151 146 151 146 143 140 150 150 151 149 142 146 144 145 144 142 150 149 148 150 156 156 156 152 148 142 142 139 145 146 145 145 149 150 149 144 144 143 147 144 148 148 160 160 156 150 149 148 149 161 164 176 175 173 177 165 159 160 154 144 142 154 165 162 167 146 129 125 117 140 149 140 143 144 141 141 144 149 153 158 156 154 153 151 152 159 154 151 154 156 159 152 152 146 146 146 138 142 144 147 150 149 141 140 137 140 148 150 157 153 150 151 155 158 152 146 146 145 144 146 146 144 141 142 144 148 142 141 141 140 146 140 149 148 159 157 157 150 150 142 150 170 175 182 175 168 169 165 163 164 151 149 143 153 165 153 167 150 132 124 121 135 154 141 140 144 141 141 141 143 147 150 151 151 149 148 149 150 151 155 158 158 162 147 140 139 137 139 142 144 144 140 142 148 148 141 140 140 145 150 152 152 151 149 152 151 147 145 144 143 140 146 141 138 142 140 140 141 139 140 140 141 142 140 145 149 154 150 148 142 145 144 153 173 177 183 169 168 169 160 164 166 154 147 146 149 162 145 153 153 137 127 123 139 153 140 136 138 141 140 139 140 138 149 143 147 140 142 138 140 140 152 163 158 146 135 129 128 121 121 135 146 149 141 142 144 148 143 143 146 148 147 151 151 147 145 149 150 145 144 141 139 136 135 136 133 137 133 136 137 140 140 137 140 138 137 141 142 145 137 142 138 137 143 164 176 175 173 167 162 164 157 163 168 160 144 151 142 166 152 142 144 136 126 126 137 145 130 129 133 138 138 136 140 136 143 143 140 146 143 136 132 151 155 150 160 158 140 120 117 116 121 123 140 144 141 137 134 134 137 136 139 141 141 141 142 139 136 140 141 140 140 136 130 132 130 130 130 131 130 132 135 137 141 135 138 134 133 136 137 142 136 134 132 132 159 165 174 172 168 159 163 157 159 162 162 162 151 150 141 165 157 144 139 142 134 131 148 145 128 125 132 137 138 138 139 145 143 148 144 136 152 144 139 145 155 147 153 168 150 128 125 132 134 131 134 137 134 131 125 122 121 124 127 129 130 130 125 124 124 128 137 134 133 130 129 130 130 125 126 128 128 133 132 134 137 136 135 132 132 132 136 142 136 130 133 145 158 161 169 164 163 158 156 155 160 165 161 161 153 157 141 156 164 149 148 158 136 135 156 158 129 121 136 133 138 136 148 150 155 150 148 133 145 144 148 150 152 157 152 163 166 140 139 145 149 152 143 140 135 129 126 117 117 122 122 129 130 125 118 121 118 126 122 129 119 120 126 128 128 124 121 126 127 129 130 130 134 134 133 127 132 131 139 138 136 128 145 150 157 160 160 163 156 158 155 155 157 157 160 159 160 150 147 148 158 150 156 163 138 134 152 166 140 121 136 132 140 137 152 151 159 160 159 148 156 158 164 155 157 154 144 152 164 157 151 159 169 163 146 146 132 129 127 129 120 122 127 134 132 135 124 126 112 109 113 115 112 120 123 126 124 126 121 122 124 127 127 129 133 134 132 126 127 134 138 137 139 134 145 159 153 153 166 157 150 157 150 155 155 163 162 157 159 154 150 142 156 142 158 170 149 144 145 163 151 127 135 138 144 144 149 146 155 162 171 168 171 170 170 163 159 148 137 147 150 158 149 142 139 139 126 115 119 124 116 118 117 110 111 113 119 112 117 116 117 119 116 117 119 119 123 123 124 123 119 119 121 126 124 129 132 132 133 127 126 136 136 136 142 143 148 156 152 151 162 152 144 148 149 150 153 168 157 157 158 154 147 148 156 140 157 171 162 153 144 156 152 140 128 145 143 139 139 139 143 146 162 166 167 174 166 151 148 135 123 124 126 132 131 134 136 139 137 134 127 126 122 118 113 114 111 105 113 113 125 125 127 130 130 126 128 124 124 123 122 122 118 119 122 125 126 129 134 132 137 126 127 137 139 133 140 150 150 155 155 154 154 152 144 141 149 144 150 164 163 160 156 156 153 155 160 154 160 173 164 160 145 155 158 160 134 135 134 133 128 126 127 141 157 158 145 147 140 131 123 125 125 127 129 138 140 139 141 142 146 143 139 138 136 128 124 121 118 111 118 119 126 126 131 132 134 134 134 130 123 126 125 123 125 125 127 129 129 131 133 134 137 128 134 140 140 142 143 153 148 148 152 155 151 150 140 141 142 142 141 161 161 163 163 159 154 175 159 156 165 168 161 170 144 140 158 164 159 153 138 134 128 126 130 132 143 139 140 131 131 129 128 134 135 137 138 145 147 143 148 153 157 154 145 141 130 120 123 131 135 131 135 133 138 140 137 133 136 140 134 129 129 131 130 130 130 129 132 130 129 131 134 135 133 131 141 141 137 146 141 157 153 152 150 153 152 147 144 138 136 147 134 167 163 167 165 160 171 182 160 164 173 165 166 176 155 142 148 160 168 154 156 142 131 129 132 136 137 130 130 130 134 132 133 130 137 137 139 141 145 140 146 152 156 160 160 158 156 147 147 142 140 142 145 147 145 146 137 132 139 140 134 130 135 134 135 135 135 131 132 129 130 133 134 136 131 133 146 142 139 143 145 151 150 148 152 146 149 148 142 137 136 138 136 173 167 174 165 170 184 184 164 164 189 169 169 177 170 150 141 159 160 158 153 150 142 137 133 138 141 138 137 134 138 138 135 134 136 138 136 136 137 136 139 141 148 150 148 151 154 148 149 150 150 146 147 145 145 141 132 136 136 136 133 132 133 134 137 136 136 132 133 135 133 136 135 130 129 131 145 134 135 134 146 151 150 152 150 143 148 149 143 132 135 135 133 176 177 176 172 189 193 184 172 168 199 178 180 179 177 161 134 156 159 160 149 157 146 145 147 148 141 134 135 134 135 139 139 135 137 135 134 133 133 134 140 138 142 137 141 142 141 148 143 144 143 137 131 130 134 139 136 136 134 135 132 132 130 132 134 135 134 132 134 135 133 135 135 127 128 134 145 127 133 133 144 152 142 147 150 140 147 143 142 133 128 135 138 181 177 174 178 196 195 183 168 164 185 191 173 178 166 155 134 147 165 155 156 151 150 145 149 144 144 149 150 152 153 146 142 143 141 137 135 137 137 140 140 142 145 142 138 138 139 133 132 128 131 126 114 118 131 135 139 139 136 132 132 132 132 132 132 135 134 134 134 136 133 134 134 128 125 140 144 129 135 136 145 147 138 140 144 141 144 139 139 132 125 134 134 173 172 184 181 201 190 169 150 174 176 192 168 168 166 155 130 144 162 154 150 145 150 143 142 138 135 140 146 156 166 172 171 169 163 167 154 145 145 146 145 148 151 151 151 149 145 145 141 140 138 133 128 129 131 136 135 136 136 135 135 135 132 132 132 130 135 134 135 135 133 133 130 128 130 140 133 134 127 142 143 143 135 137 134 139 146 139 134 131 129 130 133 187 195 198 188 193 177 153 148 195 185 181 171 161 144 136 126 149 163 156 145 142 159 142 145 134 129 129 130 137 151 161 169 172 169 173 170 157 150 145 143 146 148 148 148 145 141 144 146 146 148 143 139 133 135 136 134 135 134 136 137 135 133 132 132 130 132 134 136 137 133 129 130 124 134 148 139 136 123 133 146 139 137 142 134 129 134 131 142 127 127 124 130 205 208 192 179 178 167 153 155 175 145 148 165 133 106 126 143 138 176 156 147 142 158 146 147 144 131 127 128 131 142 148 154 157 162 161 164 151 146 135 135 141 144 147 144 141 140 140 141 140 142 143 144 137 134 136 137 138 136 136 136 135 133 133 134 133 134 135 137 135 133 130 131 125 144 157 143 147 131 133 135 137 136 150 147 137 136 132 136 132 126 123 127 222 217 192 158 168 162 143 136 121 126 128 133 105 114 123 128 143 171 170 145 142 155 152 148 139 134 131 135 137 135 140 142 149 154 147 149 144 141 136 136 135 139 138 138 136 138 138 136 137 137 139 139 137 136 139 137 139 137 137 137 135 133 137 142 133 132 136 137 134 134 130 137 129 148 150 149 149 135 150 144 144 145 160 168 164 154 150 142 138 142 138 134 221 188 169 151 158 156 126 101 97 105 115 122 84 116 129 115 143 179 171 152 139 159 153 154 143 142 139 142 138 138 129 138 134 144 141 141 137 135 136 138 140 140 138 138 139 136 135 136 134 133 136 136 136 136 137 139 136 137 140 137 134 142 142 141 141 135 136 138 136 134 131 135 137 151 145 136 154 129 143 149 145 152 158 179 175 175 166 161 151 149 154 151 215 191 178 166 158 160 103 82 89 101 122 115 75 104 130 116 143 197 182 159 141 153 153 153 148 146 146 148 148 142 132 134 141 131 141 135 139 133 129 130 132 130 130 131 132 131 126 129 130 128 129 129 128 130 132 136 134 138 146 143 144 151 149 138 139 137 137 138 134 129 138 131 135 149 140 127 141 137 134 140 151 164 168 168 176 186 177 171 159 150 156 160 184 165 168 143 145 127 81 87 96 105 117 104 56 77 112 106 145 178 189 166 147 152 150 147 147 141 142 149 148 149 146 140 141 134 139 138 135 134 136 129 136 132 134 130 131 128 125 123 124 126 126 126 137 142 138 146 148 152 152 150 151 148 149 142 138 137 137 138 132 128 133 135 123 134 130 124 124 140 139 130 146 168 179 170 171 183 188 180 168 153 152 161 155 153 152 126 123 86 84 89 91 78 107 74 20 66 95 108 152 187 184 180 158 161 152 145 137 137 137 145 153 155 150 147 153 139 143 148 143 143 143 136 147 146 147 143 145 144 140 139 137 142 138 140 144 146 149 153 151 161 160 155 157 150 146 141 137 137 142 139 132 129 125 126 127 122 132 120 125 127 146 134 140 161 178 174 170 181 196 186 171 164 153 157 181 185 165 130 82 63 88 100 97 60 75 57 0 76 103 132 159 197 176 186 169 170 158 150 133 138 134 136 153 149 147 142 152 146 150 157 158 164 160 156 161 159 159 152 153 156 158 152 151 157 159 162 156 156 154 159 161 170 165 166 161 158 143 135 139 139 145 136 137 127 120 118 131 128 136 125 120 118 135 146 138 153 169 181 171 171 194 194 188 169 159 157 170 144 103 87 61 79 88 78 64 33 64 66 58 106 112 131 174 197 174 166 176 181 167 153 141 136 131 136 141 145 141 145 145 141 151 162 160 174 171 162 174 169 168 167 167 163 164 160 156 162 164 167 160 162 171 172 173 179 168 169 160 159 143 137 141 143 143 139 137 120 116 125 133 133 145 128 114 100 123 146 131 141 157 178 177 174 187 199 201 185 175 166 129 117 126 112 76 81 61 56 59 71 133 114 97 118 120 138 177 178 165 159 172 182 179 156 151 144 141 133 138 141 141 145 151 139 153 160 153 161 164 159 182 171 178 178 172 170 168 172 174 174 174 174 164 169 176 176 178 179 167 165 165 158 140 139 144 143 143 138 130 119 114 131 132 132 145 142 106 88 119 147 135 135 150 164 181 174 183 199 201 198 186 177 143 160 139 107 58 76 55 80 124 130 146 128 133 126 105 153 170 186 159 167 176 183 183 172 161 156 146 148 136 140 136 143 149 148 151 162 157 157 163 172 173 174 171 177 168 169 169 172 175 181 181 181 179 181 183 180 176 176 170 158 159 153 134 139 142 144 138 128 127 124 115 132 124 144 142 151 100 77 108 145 139 123 145 151 163 167 167 197 209 203 192 184 176 159 142 91 50 113 121 132 151 165 160 153 138 112 84 166 172 176 151 165 177 182 188 179 169 164 157 151 149 141 138 145 143 148 150 155 154 156 167 172 169 173 164 169 167 166 168 170 173 174 174 183 179 183 182 178 170 173 168 159 153 151 136 138 145 143 134 121 123 135 140 153 146 145 154 148 87 74 101 144 142 115 115 139 142 152 143 159 203 195 190 180 151 143 130 75 102 179 135 150 199 178 155 137 141 116 86 142 167 184 162 163 175 188 194 181 171 173 154 156 152 155 145 140 147 143 147 148 151 155 161 167 173 171 161 158 166 166 168 170 173 174 180 173 177 177 181 171 169 163 164 152 151 141 137 144 146 152 142 128 133 146 161 177 171 190 189 142 92 79 103 125 116 112 125 140 134 127 124 133 177 173 169 175 109 132 128 118 117 161 158 171 162 156 155 162 160 101 96 112 137 173 173 171 178 190 198 180 180 178 172 167 163 164 158 151 147 149 150 145 144 148 160 166 166 166 157 153 158 162 165 166 175 170 175 173 171 175 167 162 166 163 153 152 140 142 139 139 153 138 156 158 159 146 168 185 198 213 208 156 137 107 98 89 132 93 115 140 141 127 100 121 149 149 138 165 145 162 128 118 128 159 141 166 152 163 146 178 176 101 79 111 95 154 178 188 185 193 193 184 180 183 181 183 172 166 162 163 161 157 153 150 150 142 152 158 162 162 159 155 150 154 161 162 164 164 170 169 168 173 166 160 158 152 151 142 140 141 140 144 156 143 143 170 172 177 193 184 192 227 236 167 158 148 142 107 107 93 121 128 119 132 113 118 150 141 134 147 160 159 140 144 155 168 157 197 180 168 133 162 183 129 78 97 88 134 174 185 197 208 201 187 184 187 180 186 187 177 171 170 167 169 165 153 155 149 150 148 153 160 158 154 155 159 160 156 153 159 161 166 163 162 161 156 149 149 139 142 142 136 142 149 158 146 143 176 171 183 210 216 190 220 224 191 165 159 145 156 115 110 125 130 129 120 100 136 146 144 130 136 184 180 150 137 144 176 180 203 181 176 135 145 170 145 90 78 80 120 164 182 190 219 213 197 193 194 192 186 193 184 176 177 175 170 170 170 163 152 151 153 150 146 142 148 148 151 155 153 148 155 156 160 158 150 149 143 140 141 144 142 143 142 147 158 157 143 154 173 185 179 203 229 216 230 202 186 159 183 114 163 149 131 158 159 123 102 94 100 120 105 100 114 183 166 177 166 180 196 180 178 172 151 144 126 171 127 93 79 75 105 177 179 197 204 222 214 205 201 196 193 194 190 187 183 181 183 177 178 174 171 158 162 154 151 145 142 139 144 144 147 141 145 147 152 151 148 139 141 141 141 139 138 142 142 147 156 156 143 167 174 187 179 210 220 223 255 215 176 164 151 124 161 150 174 196 188 145 88 101 117 116 91 71 75 204 188 204 163 171 185 197 203 193 139 152 99 156 129 92 90 90 91 154 184 177 215 229 221 218 209 204 197 191 197 196 193 182 185 181 184 179 175 172 175 166 161 156 155 147 143 142 142 145 147 150 153 147 142 142 142 137 136 138 140 141 144 146 160 151 149 177 169 186 192 216 221 246 239 214 193 186 140 124 165 178 184 192 226 199 110 123 124 108 101 81 66 