P2
92
112
255
136 136 135 136 136 135 132 134 134 135 131 133 133 135 133 133 131 138 133 134 132 135 135 132 133 137 135 133 135 134 130 133 133 135 134 131 131 135 134 136 140 141 140 142 141 143 144 147 149 144 142 140 141 140 139 138 138 138 138 138 138 137 134 134 133 132 133 135 135 135 137 136 138 140 142 140 139 140 137 135 130 130 128 137 139 143 141 143 144 144 145 147 136 136 137 137 134 135 134 132 133 131 132 132 133 130 128 131 129 132 133 137 140 139 138 138 137 135 136 137 140 142 132 132 134 135 134 132 132 137 137 138 141 142 138 141 142 142 144 147 149 146 143 141 139 139 139 136 134 135 138 138 138 137 136 135 133 133 132 133 135 132 134 137 138 137 141 142 140 140 141 137 136 133 131 129 131 137 144 145 142 144 145 145 135 135 137 136 135 135 134 132 129 126 125 125 125 131 132 132 133 137 142 141 140 138 138 138 140 138 147 148 151 141 129 131 133 133 132 132 134 136 138 139 140 141 140 140 142 141 141 141 142 143 141 140 140 139 139 138 134 133 135 135 135 132 135 135 135 135 133 131 131 133 134 134 136 138 140 141 142 140 141 143 140 138 134 132 129 131 139 142 142 144 146 144 137 137 140 136 136 134 135 128 125 124 128 127 132 139 137 136 139 143 149 140 138 138 137 138 142 154 145 144 145 133 130 133 136 135 133 133 134 135 135 136 138 140 138 139 141 142 140 138 139 143 141 138 142 139 140 141 138 136 134 133 133 132 132 133 135 134 133 133 131 130 131 132 133 133 135 139 141 142 140 141 143 142 140 134 132 130 135 143 141 142 147 144 141 142 137 136 137 134 132 124 123 122 126 134 145 147 144 143 154 157 151 139 137 136 141 143 146 146 141 138 136 131 132 133 136 136 135 135 136 135 134 136 141 140 137 138 142 143 142 140 140 141 141 139 142 141 141 142 138 137 137 136 136 135 134 133 135 133 130 133 133 130 128 129 132 131 129 130 138 139 141 140 143 143 140 139 134 133 132 137 141 139 146 145 143 140 136 136 137 134 128 123 124 126 132 142 145 147 154 148 154 157 152 149 145 148 154 154 147 137 136 135 137 135 134 137 137 136 137 135 138 140 136 137 140 140 139 137 139 141 141 141 143 142 142 142 142 143 143 144 141 140 140 139 140 140 137 135 136 136 132 132 131 132 131 131 127 127 133 130 129 137 140 142 142 143 142 140 137 135 132 132 138 143 141 148 138 137 136 134 137 132 125 124 122 130 139 139 142 154 154 144 151 153 151 150 151 146 152 143 141 136 133 137 137 138 136 139 143 139 138 141 142 142 140 140 142 142 140 139 140 142 140 140 144 146 143 143 143 144 143 146 143 141 140 139 139 138 139 137 136 136 135 132 132 129 134 134 130 129 127 130 130 134 138 140 143 140 144 142 140 136 133 132 134 139 144 143 139 137 137 136 135 131 125 124 125 130 143 140 141 147 142 141 150 159 159 152 152 148 147 148 145 144 139 136 135 136 137 139 141 143 140 140 141 141 139 138 140 140 139 136 139 142 143 141 144 146 143 144 144 146 147 148 146 145 143 137 138 139 140 138 138 136 137 136 135 129 129 130 135 132 126 125 124 131 136 140 141 144 142 142 142 137 134 134 135 133 141 146 139 136 136 136 134 131 125 126 127 136 142 144 139 139 140 146 153 155 151 148 147 145 144 144 146 149 144 141 144 144 143 140 140 139 140 139 140 141 140 140 140 138 138 138 139 141 143 144 146 147 145 146 148 149 148 147 148 147 145 141 138 136 136 139 138 136 135 138 138 135 130 129 129 130 130 128 126 128 134 137 143 144 145 144 146 140 135 135 137 131 137 141 137 137 137 139 134 128 126 126 129 142 141 139 139 145 155 159 153 143 142 145 141 145 142 143 147 150 145 146 145 145 139 139 140 140 138 139 139 139 139 139 140 139 139 137 140 141 142 141 143 145 147 147 149 149 148 146 147 147 145 142 139 137 134 138 138 137 135 135 138 140 136 129 129 129 132 129 130 130 130 138 141 147 144 148 149 147 141 136 136 136 133 136 137 138 139 137 129 126 125 126 131 143 142 142 143 150 154 150 144 135 140 144 136 135 133 133 135 141 142 139 135 136 138 137 137 138 137 137 138 137 137 136 139 138 140 140 138 139 139 139 141 144 147 149 149 149 149 148 149 149 147 143 141 141 137 137 137 135 136 136 137 138 140 138 129 130 129 129 130 134 132 136 141 146 146 148 149 144 143 139 137 136 135 135 138 140 137 129 126 127 127 128 134 138 141 143 145 148 146 140 137 134 135 135 134 134 133 132 133 131 132 133 132 135 134 133 135 135 135 136 137 136 136 137 138 137 141 140 140 139 139 142 143 142 142 145 148 148 148 148 150 147 147 142 141 139 138 136 135 131 133 136 138 139 138 140 135 129 129 131 130 131 134 138 138 146 149 149 152 149 143 143 139 138 137 134 138 137 132 127 128 128 133 132 136 138 144 147 145 145 142 140 135 135 134 136 135 136 135 134 133 131 131 133 131 131 131 131 133 133 133 134 137 136 138 138 140 139 139 139 137 138 137 139 141 141 141 143 145 148 147 148 149 147 144 141 139 138 138 136 134 133 130 132 134 138 137 138 141 138 132 132 126 130 133 136 136 141 149 152 149 152 147 144 144 141 138 138 138 135 130 128 132 135 132 133 139 140 143 146 142 142 139 136 135 135 136 135 136 138 136 134 134 134 130 131 132 131 131 131 134 135 135 136 138 138 139 140 139 139 139 139 138 137 137 137 137 139 139 142 144 145 146 145 146 146 142 140 138 137 135 133 133 133 131 129 132 135 137 138 139 139 139 135 131 133 133 134 135 139 146 155 153 148 154 146 146 145 141 136 139 135 130 130 137 137 134 136 143 142 146 147 140 140 135 136 139 139 140 137 138 138 135 135 137 134 133 135 134 134 134 136 137 137 139 139 140 139 143 139 139 140 139 137 137 137 136 134 134 135 137 137 138 140 142 142 142 143 141 137 136 136 133 132 134 134 133 133 132 135 135 136 140 138 138 138 135 135 134 137 135 137 143 152 155 149 151 150 148 148 146 140 138 131 131 139 140 139 136 146 148 147 146 144 141 136 134 138 139 140 142 143 141 136 136 136 136 135 136 138 137 138 137 139 140 139 141 145 142 144 143 142 145 140 138 137 136 135 137 134 135 135 135 138 136 135 137 138 140 141 141 138 135 136 134 134 137 137 134 134 134 136 137 135 138 140 140 141 139 138 137 140 138 135 144 144 156 153 153 151 150 148 148 145 135 130 135 142 144 145 144 150 148 144 148 141 137 134 139 140 139 143 144 145 140 136 138 135 136 136 139 138 139 140 139 141 143 144 143 147 147 148 145 142 147 146 138 136 137 134 133 135 132 132 131 133 134 134 135 137 140 141 141 138 137 138 137 136 139 139 136 135 134 136 139 139 137 138 141 143 141 139 139 140 143 140 140 143 153 154 157 150 149 151 146 144 132 132 138 142 147 150 151 149 147 143 143 137 134 136 140 143 145 145 144 143 139 137 137 137 139 138 138 138 139 140 141 142 143 143 145 151 149 149 143 141 149 146 147 137 139 135 133 134 133 130 131 131 129 133 133 135 138 137 139 137 138 139 139 139 139 141 139 137 137 137 139 139 138 138 140 143 145 145 141 140 143 143 133 142 148 154 160 155 152 152 149 143 134 135 139 144 151 152 154 150 149 143 136 135 131 139 142 143 144 144 144 140 138 140 138 140 142 140 138 139 140 141 143 142 141 143 141 149 145 149 142 144 147 146 143 140 136 135 132 132 132 130 128 129 128 129 132 133 136 137 138 139 140 138 138 141 140 140 141 139 140 140 140 141 139 137 139 140 143 146 146 141 143 145 139 134 147 149 160 157 155 153 149 145 138 137 136 143 148 153 151 152 147 141 134 135 134 141 140 142 141 142 142 138 139 140 140 141 143 143 139 139 140 140 141 141 141 140 140 146 144 148 146 141 143 144 139 138 135 134 133 131 131 130 129 130 129 130 132 135 135 137 137 138 138 137 138 139 140 140 141 141 141 141 141 140 139 138 136 139 142 145 147 147 144 148 145 131 142 147 154 158 156 153 147 145 136 131 135 145 147 153 145 148 144 137 134 134 137 138 138 139 140 139 140 140 139 141 141 141 142 143 139 139 139 140 140 140 140 139 138 138 138 144 148 140 136 139 136 135 134 133 135 133 133 131 131 130 131 131 132 133 134 135 137 137 138 136 138 138 140 141 141 141 141 141 142 142 142 142 139 138 142 146 146 151 150 146 146 133 136 146 147 157 158 152 148 148 133 129 131 139 144 147 143 145 143 129 126 133 136 136 135 138 138 137 139 139 140 142 142 143 142 142 140 140 139 140 141 139 138 137 136 137 136 140 137 138 135 135 136 135 134 134 135 134 134 132 132 132 132 132 132 133 134 134 136 138 137 137 136 138 139 139 140 140 140 140 140 142 142 142 140 141 143 145 148 150 152 149 145 137 134 142 142 149 152 154 148 148 134 130 129 136 139 147 146 144 130 123 127 133 134 134 135 139 137 137 139 138 142 143 144 145 143 143 141 140 137 137 139 137 135 136 135 135 135 135 137 135 135 136 135 136 135 135 135 136 135 134 133 133 133 133 133 132 133 135 135 137 137 137 137 137 138 138 139 140 140 139 140 142 142 143 141 143 145 145 147 150 151 150 147 142 131 135 143 141 150 153 151 147 134 128 126 130 139 147 148 137 122 124 130 133 132 133 134 135 135 137 139 141 143 145 146 144 143 142 140 138 136 137 137 136 135 135 136 135 135 134 137 136 136 138 138 137 138 138 138 138 138 138 138 136 134 134 132 133 135 136 136 136 139 138 138 138 139 139 139 138 140 140 140 142 144 143 143 142 144 147 147 151 154 151 147 143 131 130 143 141 141 151 150 149 133 127 121 128 140 148 144 125 122 125 129 133 133 132 134 134 135 138 140 142 142 143 145 142 141 141 138 138 137 138 137 137 136 137 137 137 137 136 137 139 139 140 140 140 141 141 141 141 140 140 138 137 136 136 133 134 136 136 136 136 139 140 139 140 140 140 140 138 140 140 141 142 144 144 144 143 145 146 147 150 152 152 148 143 132 131 141 145 136 144 151 148 127 124 120 128 139 149 135 124 125 129 131 134 133 134 133 135 137 141 142 143 141 142 143 142 140 140 137 137 139 138 139 138 138 139 137 137 137 135 138 138 139 140 141 141 142 143 144 142 142 141 139 138 138 136 135 135 135 136 138 137 138 140 142 140 141 142 141 140 140 141 140 143 143 143 146 146 145 144 148 151 153 150 149 144 134 132 136 145 135 138 149 150 126 121 120 127 132 146 129 127 126 129 132 135 135 136 133 139 140 142 143 143 141 142 142 142 141 139 138 137 139 138 139 139 138 139 139 139 137 137 137 137 139 140 140 141 142 143 144 143 142 142 141 141 138 137 136 137 137 137 138 139 138 140 141 141 141 142 142 142 141 141 140 142 144 143 144 144 145 141 145 151 154 152 147 145 137 139 134 139 139 133 146 148 125 122 121 131 132 140 129 128 127 130 133 139 135 135 136 140 142 143 142 141 141 140 141 141 138 139 139 141 140 140 140 140 140 140 140 140 139 138 138 137 139 139 139 140 142 142 142 143 143 143 142 141 138 137 137 137 139 138 139 140 141 141 141 141 142 141 143 143 143 141 141 142 144 143 142 143 144 142 143 148 154 153 148 143 143 139 138 133 137 133 142 150 126 128 122 127 133 136 127 129 128 130 139 138 135 134 140 142 141 143 143 140 139 140 141 138 137 139 142 143 143 142 142 141 141 141 140 141 140 139 139 139 140 140 139 140 142 141 141 142 142 141 142 141 139 138 137 138 138 138 138 140 141 142 143 142 143 143 143 144 143 143 142 142 143 143 142 143 143 141 142 147 151 153 148 144 142 144 142 135 132 132 137 149 129 131 128 127 137 132 129 128 127 135 137 136 134 135 139 143 142 141 141 139 139 138 139 137 139 141 141 142 143 142 142 141 140 139 139 141 141 141 140 140 141 140 140 141 142 142 142 141 142 142 141 139 138 138 136 138 137 137 138 140 140 141 143 143 144 145 143 143 143 143 143 143 144 144 142 142 142 142 138 146 149 152 148 147 143 146 145 131 133 131 136 147 136 132 134 129 133 131 129 133 135 140 139 136 135 136 137 142 141 139 139 138 138 136 138 138 140 141 140 141 142 141 142 141 141 140 140 140 143 142 142 142 141 142 142 142 142 144 143 142 142 143 142 140 139 137 137 137 137 137 137 138 139 139 142 143 143 143 144 142 143 143 143 142 144 144 142 143 142 142 138 141 147 150 150 147 142 145 142 134 132 132 138 143 135 134 134 132 131 132 131 140 142 145 147 132 135 134 139 140 140 140 138 138 137 136 138 138 138 138 139 140 140 139 139 138 139 140 140 141 141 144 144 143 142 143 143 143 142 144 142 143 142 143 143 142 141 139 140 139 138 138 137 137 138 138 140 141 141 141 141 141 142 142 142 142 143 143 141 140 141 143 140 138 143 146 148 145 144 145 144 134 129 133 135 140 135 135 132 134 133 133 135 147 144 153 140 135 131 134 138 141 140 139 138 138 137 137 138 139 138 139 139 139 139 140 139 140 142 142 143 144 144 145 145 145 144 142 144 144 144 143 143 143 142 143 141 141 140 139 139 139 137 136 136 138 137 137 138 140 140 139 139 139 139 140 140 140 142 142 141 139 140 141 139 138 142 144 146 144 144 144 141 136 123 133 133 140 134 137 133 135 135 136 138 149 146 146 139 131 130 134 138 140 140 140 138 139 140 139 139 139 138 139 139 140 140 141 141 143 144 142 141 142 142 144 143 145 144 143 143 144 143 143 142 143 142 141 140 139 140 140 139 138 139 138 138 138 137 137 136 138 140 138 138 138 139 137 138 138 140 141 140 139 139 138 137 137 140 143 143 141 144 137 134 133 123 124 132 140 136 138 135 133 137 134 141 154 149 148 143 130 131 135 138 140 139 140 139 138 140 140 138 136 137 138 139 139 140 138 136 137 138 137 139 138 141 143 144 145 145 144 144 145 144 144 142 143 141 141 140 139 140 140 139 139 139 138 139 138 137 137 136 137 139 138 138 139 139 138 135 137 139 141 141 139 138 139 137 137 140 143 143 141 142 137 132 133 123 125 127 143 134 139 136 134 137 136 148 153 150 146 141 128 133 134 138 138 139 140 140 139 140 139 139 138 138 139 139 138 139 138 137 137 137 138 138 140 140 142 143 144 144 144 144 144 143 143 142 142 142 141 141 141 141 142 141 141 140 140 140 138 138 138 137 138 138 139 139 138 138 137 135 136 138 140 142 139 137 136 137 137 140 142 143 141 141 137 127 128 123 124 132 148 134 138 140 136 137 136 156 152 149 139 133 130 133 135 136 137 139 140 139 140 140 139 140 140 140 140 140 140 140 138 138 138 138 139 139 139 139 140 141 142 144 144 144 143 143 143 143 143 142 142 142 144 142 143 143 141 141 141 140 139 138 138 137 137 138 139 139 139 138 136 134 135 137 140 142 141 139 137 135 138 140 143 142 140 141 132 129 129 121 128 133 145 130 135 140 137 135 143 154 154 142 135 128 131 135 136 137 139 138 139 137 140 140 141 143 141 139 140 141 140 138 137 136 136 136 137 135 136 139 139 140 141 142 142 142 142 142 143 143 143 143 143 142 144 142 142 142 141 139 140 138 138 138 137 138 138 138 139 139 139 137 137 135 135 136 140 141 143 140 137 135 137 140 143 142 140 140 132 128 134 125 130 139 144 129 137 138 139 136 147 152 152 137 129 128 132 136 135 138 139 139 140 141 141 140 141 142 142 139 140 139 138 136 135 136 135 136 136 135 137 138 141 141 141 141 142 142 142 143 143 142 143 142 143 142 142 141 141 142 140 140 138 137 135 135 137 139 140 141 141 141 140 138 137 136 136 137 138 141 143 142 140 137 137 141 143 141 140 138 133 128 134 124 132 147 144 125 130 143 137 137 149 144 147 138 124 128 133 136 137 139 141 141 142 143 143 143 144 143 143 140 139 138 137 137 137 137 138 137 137 137 138 139 139 141 140 140 141 141 141 141 141 141 141 141 141 141 141 141 141 140 140 139 138 137 136 134 136 140 139 143 143 142 143 141 140 138 137 136 136 139 140 140 139 138 137 140 141 141 139 137 131 129 133 123 138 146 146 126 127 138 136 135 142 142 147 140 124 127 134 136 139 141 141 142 142 144 144 143 142 142 142 141 141 139 139 139 138 139 138 138 138 139 139 139 140 140 141 141 140 141 141 141 141 139 140 139 140 140 141 142 140 138 138 139 137 139 138 139 138 141 141 146 146 146 145 146 142 141 138 137 135 136 138 140 137 139 135 140 141 139 138 136 131 128 126 127 139 145 141 126 126 138 134 137 139 136 147 134 125 129 134 137 141 139 138 140 140 142 141 141 141 140 139 139 140 140 140 142 143 141 141 141 139 140 140 139 140 142 141 143 142 142 144 143 142 141 141 141 140 142 141 140 142 140 141 140 140 141 140 142 143 142 143 146 148 148 147 146 145 142 141 139 138 137 138 138 138 139 137 138 140 136 135 136 131 128 125 128 134 146 143 127 125 141 141 139 138 145 142 130 131 133 133 138 142 139 139 140 141 141 143 142 143 142 142 141 141 143 142 141 141 138 141 139 139 137 139 140 140 140 141 142 143 143 144 143 143 143 143 142 142 143 143 144 143 142 142 142 141 142 142 140 142 143 144 144 145 147 144 143 145 142 141 140 140 137 139 138 139 140 138 138 137 135 135 132 132 129 126 133 130 148 138 134 133 145 152 140 138 147 140 133 138 141 136 141 144 138 136 137 138 136 139 138 137 139 140 141 139 140 140 140 137 136 138 137 137 137 138 137 139 139 140 143 142 141 142 142 141 142 143 145 143 145 141 144 143 142 143 139 140 140 139 139 139 139 144 142 143 143 140 142 142 141 140 139 138 136 138 140 139 141 138 138 134 132 131 127 134 131 130 135 134 139 135 133 130 140 154 137 137 142 141 144 148 148 137 140 142 138 137 138 139 138 137 134 134 137 138 137 137 136 136 136 136 135 139 137 135 136 137 136 138 140 139 140 141 142 141 141 142 142 142 144 145 146 144 144 142 141 139 136 137 138 133 136 137 136 139 140 141 140 138 140 139 137 138 137 137 135 137 140 139 143 145 139 133 131 130 128 135 130 132 135 129 137 138 133 130 133 150 146 136 135 143 154 158 147 142 140 140 139 138 141 140 136 135 133 134 137 138 135 136 136 136 135 133 131 134 134 133 134 134 137 138 140 140 139 140 141 140 140 143 141 143 145 145 142 140 140 138 134 135 131 132 135 132 133 133 132 134 138 140 139 138 138 138 138 138 136 135 135 136 139 138 139 144 149 138 133 132 130 132 131 129 138 131 135 138 138 129 129 139 152 133 133 148 157 154 149 141 141 140 141 141 140 139 134 135 135 134 137 137 137 134 136 132 133 129 128 128 130 130 131 134 135 136 139 141 140 140 139 138 139 141 142 142 143 144 143 137 134 134 130 129 127 129 130 129 132 133 131 132 133 135 135 137 137 137 139 139 139 136 137 139 143 140 141 146 153 143 134 133 129 130 132 135 133 134 132 145 139 141 130 131 138 129 135 157 155 152 145 138 138 139 142 141 139 138 135 134 135 132 135 137 136 133 133 135 132 130 128 128 127 131 130 133 133 137 140 140 140 140 136 135 139 140 143 144 143 145 143 140 136 134 132 128 127 128 132 131 133 134 132 131 130 134 136 137 137 137 137 140 139 138 138 140 145 143 144 146 154 150 136 133 131 127 132 135 137 132 140 147 144 152 154 139 133 130 139 153 158 148 145 142 140 142 143 140 136 137 136 133 133 134 134 133 133 133 138 136 134 132 132 131 131 132 131 135 136 138 140 140 139 140 138 138 141 142 145 145 146 146 146 144 142 138 135 134 132 134 136 134 136 136 133 134 132 134 137 138 138 138 138 138 138 139 139 138 142 148 151 145 155 153 139 126 141 126 126 129 130 136 143 151 144 157 167 156 131 131 142 153 156 146 147 146 141 141 145 140 134 136 138 135 134 135 135 133 134 137 137 140 140 139 134 137 137 135 136 139 140 142 140 140 141 140 140 137 140 142 144 147 145 145 145 147 144 142 141 138 138 141 141 140 139 139 139 139 137 137 137 137 138 139 139 138 137 135 135 138 138 142 147 151 156 160 141 124 144 138 128 127 139 142 144 152 139 146 171 156 131 134 140 153 155 153 146 145 140 141 145 140 138 139 140 140 137 136 139 139 137 139 143 144 143 144 141 142 141 138 140 142 140 143 140 141 142 141 141 139 141 143 146 149 147 144 141 146 144 139 141 139 140 143 141 140 139 138 138 139 137 137 140 136 137 135 135 136 134 133 133 139 139 137 143 152 160 163 150 122 153 151 128 125 140 146 147 148 144 134 150 144 130 138 138 145 153 149 146 143 143 143 145 140 138 143 142 141 137 135 137 139 136 137 143 145 144 142 141 138 140 138 140 142 141 140 141 143 144 141 139 136 141 144 146 147 148 142 140 143 143 141 142 141 141 140 140 139 139 140 139 141 138 135 137 138 136 137 137 134 133 134 135 139 143 140 142 149 160 170 148 131 145 148 127 125 142 151 145 145 143 140 139 137 135 139 140 143 151 149 142 138 144 143 142 140 139 141 141 140 136 135 136 137 135 138 140 142 140 141 140 139 139 138 138 141 143 141 140 142 141 140 136 136 140 143 144 145 144 144 143 140 140 141 141 143 144 143 142 141 142 141 143 141 138 135 134 136 136 137 139 137 137 137 136 140 141 142 141 143 155 167 141 119 126 141 128 127 151 142 144 148 156 151 143 141 139 136 142 142 153 147 144 138 140 143 138 139 138 138 139 139 136 136 137 137 137 136 138 139 141 139 140 138 138 137 136 140 142 142 140 140 141 137 135 137 138 141 141 142 141 140 141 139 140 142 142 143 145 143 141 141 142 141 143 143 139 136 135 133 135 140 140 141 138 137 137 138 139 139 139 140 154 160 138 108 125 135 137 135 154 148 142 150 161 161 153 153 141 140 142 141 149 143 142 140 140 142 136 137 135 136 137 139 137 137 138 138 140 140 142 142 141 141 141 138 135 136 134 138 140 142 143 142 140 134 137 138 138 139 140 143 140 137 137 136 137 141 143 144 144 143 146 142 142 142 143 144 141 138 138 136 134 138 139 139 138 136 134 135 137 139 140 140 148 146 139 113 124 130 129 144 152 153 141 148 156 166 160 157 141 140 142 139 141 142 140 138 141 139 136 135 136 136 137 138 137 137 137 137 136 139 140 140 141 142 142 139 135 136 137 140 143 143 142 144 138 136 139 140 138 139 142 144 139 138 134 136 138 142 144 142 142 140 141 140 139 141 144 144 141 143 141 139 138 136 136 136 133 133 133 135 136 138 140 139 139 143 136 118 125 132 140 143 158 146 145 145 156 163 168 156 134 140 142 137 138 142 137 136 141 139 137 137 136 137 137 138 136 137 138 139 137 139 137 138 142 143 142 137 135 135 137 140 145 144 141 141 136 137 137 137 138 139 140 140 137 135 130 136 139 140 143 145 141 140 140 140 138 138 140 142 142 143 140 138 137 135 135 133 133 131 133 134 135 136 140 138 141 138 139 120 131 133 154 141 152 149 143 145 142 158 173 153 136 140 138 135 134 142 137 135 140 140 137 138 138 137 137 139 138 139 139 140 138 138 137 138 141 141 141 136 134 133 136 142 144 144 141 138 136 136 135 136 139 139 139 139 139 135 133 136 136 137 139 141 141 139 140 140 137 136 138 137 138 139 137 136 135 134 133 133 132 131 132 133 135 136 139 138 139 144 136 128 135 141 156 137 147 143 145 139 148 146 174 155 136 138 134 133 132 140 137 134 139 140 138 138 138 137 138 140 140 139 139 140 140 140 140 138 139 142 141 139 133 135 139 141 141 142 140 137 135 136 133 136 138 138 139 140 138 133 134 136 132 134 137 140 138 140 138 138 137 134 136 134 136 136 135 134 133 132 132 133 131 132 132 132 135 136 138 139 139 141 135 132 138 148 154 141 143 145 142 140 145 141 174 164 135 130 132 132 132 140 136 134 137 138 137 137 138 138 137 140 140 140 139 139 139 140 140 140 142 143 140 136 134 136 137 138 138 138 137 138 137 135 136 138 137 140 138 139 138 131 130 133 133 134 138 139 138 140 140 138 136 136 137 136 136 134 135 133 132 132 132 132 132 132 132 133 136 137 140 141 142 140 135 141 140 142 152 146 138 146 141 142 137 141 168 170 142 125 132 133 135 139 139 134 136 136 137 136 136 136 135 136 137 138 138 142 145 142 143 139 140 139 138 136 134 134 138 140 138 139 138 138 135 135 135 138 138 137 140 140 140 136 132 134 134 137 139 142 138 141 142 140 137 135 135 136 136 135 134 135 134 134 134 134 134 134 134 135 137 137 141 141 138 141 137 143 141 134 143 150 137 139 137 144 133 136 157 167 151 126 127 133 135 137 138 136 137 136 135 138 135 135 136 136 142 146 147 151 147 147 151 150 150 149 146 140 139 139 140 140 139 139 138 137 135 134 134 136 137 139 139 140 137 136 134 135 134 137 138 140 140 141 141 142 140 137 135 135 135 135 133 134 134 134 135 136 135 134 135 137 137 138 141 142 141 136 137 143 136 132 146 146 131 134 136 141 125 137 149 156 152 137 126 136 134 136 138 136 137 139 137 137 136 135 135 137 144 147 153 152 150 154 156 155 155 153 150 145 141 138 135 137 136 134 134 134 132 134 133 134 135 137 139 139 138 138 138 139 138 138 139 143 143 143 144 144 144 139 136 136 135 134 135 133 136 135 135 135 134 134 135 136 138 139 141 141 140 134 138 141 136 132 149 135 134 132 134 144 116 129 144 146 145 142 127 135 131 135 135 134 136 137 138 137 138 135 137 138 138 140 147 148 152 158 157 153 153 151 142 142 137 133 133 134 132 129 130 130 127 132 130 132 135 137 139 140 139 139 139 138 139 139 141 142 148 146 147 149 145 141 139 138 137 135 134 134 134 134 134 134 134 135 135 137 138 140 140 140 134 135 140 139 137 133 146 130 142 127 138 149 120 125 133 140 139 142 125 134 134 136 136 132 131 134 136 137 137 138 138 140 141 140 139 144 153 155 153 149 149 146 142 136 133 131 130 132 127 126 128 125 129 130 131 132 134 135 138 139 140 138 136 135 137 134 136 140 147 149 146 148 147 143 140 140 139 137 137 137 135 134 134 135 135 136 136 137 137 139 140 137 130 134 140 142 135 133 140 131 142 124 145 148 124 127 122 139 136 139 131 129 136 136 136 131 131 131 133 135 137 139 140 141 141 140 139 144 152 147 141 142 140 139 135 136 132 131 131 130 128 127 127 122 127 131 132 133 135 141 140 139 136 134 130 131 129 131 131 136 142 148 146 145 145 142 140 140 139 138 138 139 138 137 135 136 136 136 138 138 138 140 141 138 131 135 141 141 134 132 137 136 140 128 146 143 128 127 125 133 130 133 128 127 134 135 136 132 131 132 132 134 136 138 141 140 142 141 140 142 142 141 138 138 137 137 136 134 133 134 134 133 132 127 124 121 124 130 133 133 141 151 149 145 142 134 132 129 128 129 132 135 139 145 150 149 144 141 141 141 141 140 140 140 142 140 138 139 139 139 138 138 140 141 139 137 133 137 138 137 135 130 132 136 141 131 143 146 131 130 130 133 127 132 132 129 133 136 134 135 132 133 131 132 135 138 139 141 144 144 141 139 140 140 137 136 138 140 139 136 136 135 135 132 130 124 121 116 123 129 132 135 142 153 152 146 142 139 128 127 125 126 129 131 137 138 146 148 144 139 140 143 142 143 141 142 141 140 138 139 138 141 140 139 140 142 140 138 136 137 135 136 134 129 132 138 141 137 140 145 132 134 134 137 126 129 129 130 131 135 132 132 132 132 133 131 134 137 139 140 144 144 142 139 140 141 138 138 140 140 139 135 135 133 133 130 127 122 118 117 122 128 132 135 143 148 149 144 136 133 130 128 125 126 128 130 133 136 139 147 149 144 142 144 146 146 145 144 145 143 142 141 140 142 142 138 141 143 142 138 136 136 137 134 133 130 134 140 141 135 141 144 135 140 134 145 128 134 126 126 132 133 133 132 132 133 132 133 136 136 139 140 142 143 141 139 138 140 140 141 142 141 139 136 134 134 130 128 123 121 118 117 120 125 129 132 135 139 137 138 137 137 134 131 129 128 128 130 133 133 135 143 146 146 147 148 148 148 147 147 147 144 144 143 142 143 144 142 143 144 140 136 136 136 137 133 133 135 135 143 141 135 145 142 138 151 144 155 141 136 127 123 129 133 134 133 133 136 134 134 137 137 139 142 141 141 141 138 137 137 140 142 142 142 142 139 137 136 132 129 125 120 117 115 117 120 123 128 132 133 135 138 137 137 137 132 130 132 131 134 134 136 138 142 144 147 148 150 149 149 147 147 146 145 145 142 143 143 143 142 144 143 137 136 138 138 134 131 138 140 137 147 138 137 144 143 151 153 151 154 158 134 133 123 127 133 134 137 136 137 137 136 137 138 140 141 140 140 139 138 136 137 137 139 141 143 144 142 141 139 134 128 123 119 118 119 119 121 126 127 130 132 134 138 138 137 137 134 131 131 135 133 138 135 138 141 142 143 145 148 148 148 145 145 146 144 143 143 143 142 142 142 145 143 138 141 138 136 132 138 144 143 143 149 136 140 144 145 148 173 164 150 163 146 135 128 129 133 134 139 140 140 139 138 137 139 140 141 140 141 140 139 136 136 138 139 141 143 143 139 140 140 137 132 128 125 125 126 126 128 130 129 134 137 134 139 139 141 139 137 135 132 138 137 141 140 141 142 144 143 143 146 146 148 145 145 144 144 142 142 141 140 141 143 145 141 137 143 138 137 136 142 149 150 152 143 135 143 147 145 163 173 172 156 160 154 141 134 134 137 134 137 141 143 142 139 139 139 140 140 141 142 141 141 139 138 139 138 141 143 140 138 139 141 139 136 134 132 134 138 134 137 138 137 134 136 138 140 142 141 141 141 141 141 143 144 145 144 144 144 144 142 139 141 142 144 144 145 143 142 141 140 140 139 141 143 141 138 136 139 138 141 143 148 154 157 150 138 139 143 143 142 153 172 166 163 158 157 147 141 140 138 135 138 136 141 141 141 141 140 140 140 142 143 143 142 140 141 141 140 142 141 139 139 140 141 142 144 143 142 140 141 140 142 142 140 140 140 143 145 145 141 141 142 142 144 144 144 145 145 146 145 143 144 139 140 140 141 143 144 142 141 140 139 138 138 139 141 137 136 138 142 142 146 148 155 161 159 146 137 144 145 141 142 139 143 159 165 156 156 158 148 146 142 137 140 137 139 140 140 143 140 140 141 142 143 144 142 142 143 142 140 140 139 141 142 143 142 142 146 146 144 143 144 142 141 142 142 143 144 146 147 146 142 139 141 142 143 144 145 145 145 145 144 142 144 141 140 140 140 142 143 141 140 139 137 136 137 137 137 136 136 144 147 147 149 153 160 163 153 143 141 143 142 143 138 140 144 138 146 148 151 164 158 160 153 145 141 137 139 143 143 143 140 140 141 142 144 144 143 145 146 144 142 139 139 141 145 146 146 143 146 145 145 146 146 143 141 143 142 140 141 153 146 145 142 140 139 141 141 143 142 144 145 143 142 143 142 142 140 140 139 140 141 139 138 138 135 135 134 135 134 136 137 144 149 153 152 159 161 158 150 140 146 141 139 142 137 144 147 142 136 138 142 161 161 166 162 151 144 136 138 141 142 142 141 141 140 143 144 144 145 146 145 144 142 139 142 142 145 149 152 150 149 145 144 144 145 140 142 142 141 142 138 141 140 140 137 139 141 141 142 142 139 140 143 143 141 143 142 142 142 141 138 139 139 138 137 136 135 135 134 134 133 136 135 141 148 152 154 161 156 150 146 140 144 140 143 143 141 144 148 146 138 136 138 156 161 162 162 155 147 136 139 141 141 141 143 142 141 143 142 143 143 145 145 145 142 140 142 144 145 147 149 153 154 154 155 154 149 141 150 142 142 144 141 140 138 140 140 140 142 142 142 141 140 140 141 141 141 142 142 141 141 140 139 138 138 136 137 135 136 136 133 133 134 134 134 139 143 147 152 154 148 143 140 139 143 141 142 143 146 142 148 146 139 137 143 149 157 158 158 153 144 138 139 140 141 142 143 142 141 143 142 141 141 142 143 143 140 141 142 142 144 143 144 148 150 153 152 158 161 153 146 143 143 145 145 145 143 142 144 144 143 144 143 140 140 142 142 141 142 143 141 139 139 140 137 138 137 135 135 135 135 136 133 132 132 133 130 135 136 142 146 143 138 141 137 140 144 140 147 141 147 149 149 145 142 135 150 142 147 153 151 147 140 136 137 141 140 140 142 143 141 142 143 139 139 139 139 141 139 138 138 139 142 142 142 142 146 150 147 149 152 155 149 141 141 141 145 145 144 142 143 147 144 144 144 141 140 145 143 142 142 142 140 139 139 139 137 136 137 135 134 133 134 136 133 132 131 132 129 135 132 134 136 133 136 139 135 137 145 143 144 144 146 151 149 149 143 142 147 152 149 149 143 143 140 136 135 139 139 139 142 142 142 142 142 139 136 137 136 137 138 135 134 136 139 142 142 143 143 140 139 140 145 147 147 144 140 140 138 139 140 139 139 144 140 141 142 137 140 145 143 143 142 139 139 141 142 139 138 136 135 135 133 132 134 135 133 131 132 130 129 135 133 131 132 129 134 135 134 137 145 144 146 143 145 149 149 149 146 141 149 158 155 157 145 144 137 133 133 137 138 138 140 142 143 142 141 138 136 134 134 135 136 135 135 137 140 143 142 141 144 142 141 141 146 147 143 140 139 144 136 139 136 139 138 137 135 137 138 136 137 139 140 140 140 138 139 140 141 142 138 136 136 133 132 131 133 133 134 131 132 130 130 133 132 129 129 128 133 134 139 138 141 146 148 143 144 152 150 149 146 146 145 163 153 160 152 147 141 130 131 135 138 137 140 142 142 142 141 138 137 136 135 137 138 139 140 141 143 141 139 141 141 144 144 144 143 142 137 135 137 145 137 137 139 139 136 134 132 134 136 135 135 134 135 138 138 139 139 140 140 142 139 137 135 134 131 131 133 133 134 131 132 131 130 133 132 128 124 127 131 135 141 138 139 146 145 143 145 147 149 151 146 149 146 164 161 158 154 151 143 129 130 130 138 137 140 142 143 143 142 140 138 138 138 140 141 140 140 142 142 141 140 144 143 145 145 145 141 141 137 138 136 139 140 138 139 144 141 138 135 137 140 137 136 137 138 137 139 138 139 139 139 138 138 136 136 134 131 131 133 134 134 132 134 134 133 133 134 127 118 126 132 139 143 142 132 142 146 145 144 141 152 150 146 149 146 169 168 160 162 151 142 128 130 129 135 140 140 143 145 144 142 141 140 143 139 141 143 141 140 139 141 143 142 144 143 147 145 144 143 145 143 144 143 143 144 141 141 143 144 155 147 153 140 137 138 139 139 139 139 136 136 135 136 136 137 135 135 134 133 134 134 135 134 134 135 135 135 136 134 126 119 123 136 140 143 145 133 138 146 145 141 147 148 150 146 149 146 161 169 165 165 153 148 128 130 130 132 139 140 144 145 144 141 140 141 140 141 142 142 144 142 139 141 144 143 143 142 147 146 146 143 143 146 143 142 154 152 158 140 139 138 147 150 147 136 135 138 139 140 139 138 135 135 137 137 135 136 135 134 135 135 134 135 136 134 135 136 136 137 135 129 128 121 129 139 141 145 144 138 130 145 147 144 150 149 150 150 145 148 151 169 167 166 156 148 137 132 130 130 136 139 142 146 145 141 140 140 145 145 146 142 144 143 143 141 145 144 146 146 146 146 146 145 146 149 146 151 167 198 205 179 142 139 138 138 155 139 138 139 138 140 141 139 137 136 138 138 137 136 137 136 136 135 134 136 136 134 135 136 138 139 134 130 128 126 131 141 141 144 144 140 132 143 144 151 146 149 147 148 147 149 150 162 170 165 166 147 145 131 130 130 133 137 141 141 143 141 139 139 141 146 147 148 142 142 141 145 152 148 144 146 145 145 145 143 146 146 146 144 148 146 154 143 142 145 139 139 139 138 135 134 134 140 141 138 137 137 136 138 138 137 136 137 136 135 136 136 136 135 135 138 138 134 131 131 128 133 135 139 141 147 144 142 131 139 146 146 144 147 146 144 147 149 152 154 165 170 170 149 146 135 133 132 131 136 138 139 139 139 138 137 139 141 143 142 144 143 145 147 150 152 146 145 145 142 140 140 140 143 139 140 142 142 140 139 140 142 141 141 140 138 136 133 136 137 139 138 137 138 138 137 137 137 136 137 138 135 137 136 136 134 134 137 135 131 130 131 133 130 138 142 142 143 146 141 130 134 147 143 142 144 144 148 144 156 149 150 172 168 168 151 142 140 134 132 130 134 137 140 138 138 138 136 135 138 141 141 143 142 142 144 143 143 144 143 142 141 141 142 142 145 143 141 144 160 142 139 141 142 144 139 150 144 139 139 137 138 139 137 137 138 138 137 136 136 137 138 137 137 137 136 136 134 133 136 133 129 131 134 129 137 136 138 146 143 144 140 133 127 146 140 141 147 150 157 157 150 154 149 182 189 169 148 152 159 154 133 129 133 136 138 139 139 138 136 136 137 139 141 141 141 142 144 144 141 142 142 142 142 143 143 142 144 142 149 147 151 157 155 160 162 161 165 160 144 140 140 139 138 137 137 137 138 139 137 137 136 137 137 136 136 137 135 133 131 131 135 131 127 129 131 132 142 142 140 144 142 140 142 131 126 136 144 155 158 157 154 156 152 169 178 183 202 181 162 173 168 168 144 130 132 135 136 139 138 138 137 136 137 139 141 141 142 140 141 142 142 142 142 142 143 143 143 144 144 146 146 144 144 143 142 141 139 137 136 136 136 137 137 136 136 135 137 138 137 138 137 137 137 137 136 138 137 136 132 128 128 129 132 140 137 126 132 131 148 152 152 147 144 136 140 136 128 130 137 159 154 151 157 169 176 180 171 179 200 196 183 177 183 204 155 129 131 133 133 139 139 137 137 137 136 138 139 140 141 141 141 142 140 140 142 141 143 143 142 143 144 145 145 144 143 144 146 144 142 141 138 135 136 136 135 135 135 135 136 137 137 137 138 138 138 137 138 138 134 134 127 130 127 129 127 137 148 143 129 127 143 146 153 155 152 143 136 135 129 128 134 153 156 159 175 184 174 166 161 180 197 189 191 218 194 186 145 144 132 131 133 136 141 138 136 136 135 135 137 137 138 139 140 141 140 140 140 141 140 139 140 142 144 147 147 146 145 145 145 142 142 140 139 136 134 135 135 134 135 134 134 135 136 136 137 138 136 136 140 136 132 129 125 129 127 122 143 140 145 147 140 139 146 143 147 150 157 151 153 132 130 129 129 158 160 179 174 161 160 159 153 175 190 183 208 204 188 172 154 150 135 132 133 134 140 142 140 137 137 134 135 137 137 137 138 139 139 140 139 139 139 139 139 139 140 143 143 143 143 142 141 141 140 139 137 136 134 135 134 135 134 135 135 136 136 135 136 137 139 138 140 135 128 127 117 131 133 136 147 151 150 139 148 145 154 147 152 144 147 154 162 144 130 130 126 147 175 168 143 146 161 143 156 165 171 193 200 172 179 175 148 138 137 132 133 135 138 142 143 140 139 137 135 135 136 136 135 136 138 137 138 137 138 138 139 140 141 142 142 141 140 141 140 139 139 138 138 138 137 137 136 136 136 135 136 136 135 134 135 135 141 140 139 132 127 128 120 132 134 147 163 149 160 149 141 143 152 154 148 147 134 150 152 154 143 133 129 170 172 149 130 144 144 142 147 151 167 210 193 158 156 153 132 124 135 133 132 135 137 141 145 143 140 140 138 136 135 135 134 135 136 135 135 135 135 136 137 137 138 137 138 136 139 136 137 136 138 137 138 138 138 137 137 137 138 135 138 136 133 132 137 138 141 141 135 127 131 128 129 143 138 157 169 166 152 162 154 133 138 147 148 142 129 137 142 142 143 136 127 158 140 117 128 126 129 151 147 150 180 214 171 139 155 125 104 100 116 130 133 134 136 139 143 144 140 138 138 136 136 135 135 135 136 136 139 139 140 140 139 136 134 131 131 130 130 130 129 129 128 131 133 132 133 136 135 133 133 132 134 133 132 133 135 141 141 138 130 127 134 136 131 164 140 165 181 178 158 153 168 146 126 133 141 139 134 134 133 131 138 140 123 127 111 102 116 95 141 153 148 153 175 193 127 112 132 134 95 99 120 129 135 133 134 138 139 141 141 137 136 137 136 135 134 135 135 137 140 143 141 143 143 142 137 136 130 126 125 124 124 124 124 126 128 130 135 135 135 133 132 131 134 131 132 137 139 141 141 136 131 124 139 140 148 165 158 150 192 179 172 142 161 162 130 125 129 132 128 127 125 124 135 135 128 122 99 102 86 94 149 135 129 131 158 159 126 139 133 117 78 92 125 124 137 135 132 135 138 137 140 139 136 136 137 136 133 132 133 136 134 136 140 135 140 140 139 139 137 132 131 126 126 131 125 127 129 130 132 132 133 133 133 133 131 133 137 140 142 142 138 137 129 119 141 145 162 164 156 153 184 178 181 149 145 163 144 128 118 129 131 121 110 111 126 128 127 95 62 69 46 98 120 103 99 103 158 155 157 179 161 83 96 95 120 116 128 136 133 132 136 135 137 139 137 137 138 135 133 131 131 131 132 134 132 134 135 135 138 136 133 133 133 133 132 139 131 131 137 132 134 132 134 135 132 135 133 136 141 143 143 143 136 143 133 117 144 150 162 167 149 155 178 171 176 159 128 155 142 136 110 110 125 123 101 96 113 118 113 54 24 44 39 105 103 89 69 115 159 159 182 204 180 92 86 95 118 105 117 131 136 136 131 132 135 138 137 136 138 137 137 133 132 132 133 134 133 133 134 135 135 135 134 135 134 133 136 142 139 138 137 137 141 135 135 135 135 137 138 140 141 143 142 140 139 136 142 127 137 157 159 164 153 138 167 162 166 166 117 141 134 146 118 93 122 117 99 90 102 109 109 18 20 27 51 113 94 76 72 132 156 144 180 203 189 157 70 100 115 95 109 130 138 140 132 129 134 137 137 135 135 138 140 138 133 134 133 135 135 133 133 136 137 136 137 137 137 138 139 141 141 141 140 140 138 137 135 135 138 140 142 142 142 142 141 140 139 136 141 132 133 158 153 161 154 123 147 144 153 169 112 130 127 148 141 110 124 110 103 82 91 100 101 18 21 22 73 118 83 69 95 137 152 149 170 178 186 208 89 88 114 102 107 123 135 144 134 132 132 134 138 136 134 138 139 138 137 135 135 137 136 134 133 133 136 136 138 137 138 138 139 141 142 142 140 137 137 137 136 137 140 141 141 144 142 140 143 139 138 140 138 141 128 149 151 157 154 118 135 135 136 148 109 118 146 169 137 120 135 138 124 112 118 125 137 49 48 65 137 151 80 87 126 140 142 146 153 160 156 214 154 120 120 106 110 119 136 144 136 135 131 133 135 138 134 135 136 135 135 135 136 136 136 136 135 134 136 138 137 137 138 139 139 141 141 140 137 137 135 136 137 138 140 142 146 144 139 143 143 137 136 145 134 135 135 143 150 157 150 114 123 136 123 140 99 93 152 168 107 112 138 146 135 134 143 144 163 115 121 165 192 177 112 112 148 184 143 115 75 125 184 195 198 162 146 115 115 118 137 143 137 138 132 133 132 136 134 134 134 133 135 135 137 135 135 136 136 136 137 136 137 136 138 137 138 138 136 134 133 135 136 136 137 140 146 150 144 139 142 144 146 138 134 144 130 131 142 141 148 155 150 107 111 133 119 133 127 75 149 169 88 107 141 172 152 154 167 167 174 172 163 187 194 175 136 120 125 170 144 115 25 45 175 204 159 207 185 151 118 121 132 136 138 139 133 133 132 133 135 136 136 135 133 134 136 136 136 136 135 136 136 135 135 136 135 136 134 134 132 132 131 133 134 136 140 148 151 147 145 144 146 150 148 132 133 146 134 138 142 139 157 156 139 112 111 139 123 133 146 98 165 181 115 133 123 125 137 143 173 156 179 162 155 184 192 161 112 112 109 117 134 132 59 0 93 190 164 163 243 190 161 136 130 135 133 138 135 129 131 131 134 134 137 137 136 134 134 136 136 135 135 134 134 134 134 133 133 131 131 129 130 130 130 132 141 143 152 154 149 148 147 152 148 148 147 130 137 146 139 140 148 135 156 155 134 122 121 134 136 165 148 146 190 184 125 125 102 108 110 123 140 142 169 157 166 172 205 205 158 124 88 76 86 109 90 0 36 131 172 145 204 253 201 165 132 139 133 136 136 131 129 129 131 131 137 138 137 135 134 133 134 133 133 132 132 132 130 130 129 128 128 128 128 131 137 144 157 159 159 159 153 150 152 149 147 149 142 129 145 144 137 156 150 141 160 153 128 120 141 142 149 177 161 169 205 164 120 134 132 138 152 164 171 152 164 147 195 163 199 167 131 133 110 107 114 93 101 1 17 79 144 133 163 243 246 172 156 141 139 138 137 131 125 126 127 126 133 137 138 138 136 135 133 132 129 129 129 129 128 128 126 126 126 128 141 149 150 160 160 164 162 160 151 151 154 144 149 148 135 134 152 142 139 163 151 145 159 145 129 130 153 166 193 179 171 179 196 143 134 147 169 157 175 188 198 180 189 131 204 172 210 164 138 76 52 68 123 107 116 19 7 47 106 113 126 193 254 217 143 142 147 140 137 134 128 125 125 127 128 132 134 137 137 136 135 133 131 130 129 127 127 127 126 125 132 142 151 154 157 163 164 165 162 160 152 150 148 148 145 144 131 143 152 137 146 163 153 152 155 138 146 142 157 189 198 194 181 180 183 125 137 154 172 176 173 194 209 198 209 