P2
92
112
255
117 120 113 118 119 112 110 116 108 110 100 105 106 101 85 81 72 100 85 85 61 52 50 56 50 48 47 51 58 64 73 76 78 77 82 77 78 81 80 78 78 77 76 76 68 69 68 69 66 64 67 63 62 59 60 61 58 63 61 61 60 56 55 58 60 60 80 104 111 112 120 119 122 118 122 115 112 109 110 109 108 113 106 105 102 95 96 96 100 92 96 102 118 119 121 122 111 123 110 109 101 102 101 95 91 72 53 58 51 66 60 48 46 51 50 45 48 53 64 68 74 79 84 88 78 79 82 70 76 81 76 73 77 75 75 80 73 69 68 75 73 76 81 79 77 75 72 76 71 66 67 60 63 61 59 57 59 59 58 80 97 92 101 121 115 115 124 115 117 113 110 112 110 111 109 105 109 98 95 102 100 99 95 95 120 114 115 119 116 118 103 105 93 69 60 46 50 46 48 50 51 48 46 45 46 47 49 54 62 75 82 83 79 86 91 88 85 80 77 73 79 78 78 76 74 74 76 76 76 76 74 76 75 80 82 81 85 86 83 85 82 78 77 69 62 69 60 65 63 60 58 57 54 77 86 99 102 108 123 118 124 114 116 118 107 112 111 115 105 108 97 99 100 98 96 92 120 114 121 118 122 113 109 84 72 67 73 50 46 46 49 50 46 42 46 50 51 51 62 69 84 81 88 91 90 90 87 85 84 78 81 81 82 80 82 83 77 83 78 76 77 80 79 77 81 81 83 82 82 85 84 86 84 83 79 77 72 72 70 67 69 62 57 57 55 51 52 77 87 94 100 118 126 123 117 111 113 112 108 119 109 105 107 98 99 93 95 101 112 114 122 116 120 115 106 62 55 50 50 46 44 44 45 44 36 43 47 53 55 67 80 84 88 93 90 92 89 88 85 80 88 87 83 81 86 83 86 84 84 82 79 76 80 83 77 80 81 86 82 82 81 84 82 80 91 80 79 81 79 75 78 73 78 72 61 61 58 54 48 44 81 82 85 83 116 117 118 113 112 113 112 118 115 108 114 101 100 97 97 92 113 118 117 118 117 116 81 54 53 53 51 46 47 45 41 41 42 48 51 58 68 83 88 89 94 95 91 89 86 88 86 85 92 89 83 84 89 87 89 87 85 83 82 81 84 85 82 83 79 80 82 79 81 87 84 84 85 82 80 85 80 76 77 78 78 80 74 65 61 59 54 51 52 57 79 78 80 113 111 116 116 113 113 114 118 116 112 106 102 96 97 95 119 120 118 113 120 99 61 51 53 52 48 48 49 40 43 49 52 55 60 75 86 93 91 93 93 93 90 86 90 91 87 87 89 85 82 83 88 82 90 87 86 86 86 89 88 88 87 81 81 82 83 78 83 84 88 88 85 85 86 85 83 80 80 80 80 84 77 72 68 73 65 58 60 53 44 61 78 87 103 108 115 102 111 112 114 110 113 108 107 101 103 103 114 124 125 117 113 87 55 54 54 54 45 45 48 49 56 57 62 64 81 88 85 86 86 86 92 90 92 86 87 87 85 88 86 85 90 92 92 89 91 91 91 90 91 91 89 92 89 86 84 84 84 82 85 85 85 88 84 83 82 86 88 85 76 77 80 78 79 77 73 78 78 69 67 61 54 44 42 70 89 102 116 106 111 109 112 115 111 114 119 101 100 96 118 126 119 123 101 80 50 53 57 54 45 49 59 62 67 60 72 82 88 84 85 86 85 86 88 85 87 88 84 81 81 86 91 91 93 94 91 93 90 90 93 93 93 91 92 91 91 87 84 81 81 84 84 83 84 88 86 83 81 83 84 87 79 77 80 78 83 83 83 80 81 77 77 70 62 50 41 34 71 85 116 112 111 109 113 110 115 118 119 111 105 99 119 128 123 119 85 52 51 55 59 51 56 58 69 68 63 73 84 89 82 75 81 84 83 81 81 79 81 84 84 82 83 88 91 90 90 91 92 93 92 90 92 94 93 94 93 91 93 88 83 81 82 87 87 86 85 83 86 83 81 80 80 83 83 77 81 81 78 84 85 84 82 83 79 75 70 60 48 39 29 70 94 111 114 111 117 106 122 112 113 117 106 107 125 127 124 107 55 54 59 63 62 58 59 64 68 66 78 91 93 83 73 73 79 80 83 80 81 83 80 82 85 87 89 88 90 90 89 91 91 91 91 91 86 96 95 96 97 96 90 87 87 87 86 86 90 84 82 80 78 81 80 77 75 77 77 78 79 77 78 80 86 86 86 86 89 80 75 71 51 46 39 33 68 97 108 113 110 110 111 111 115 115 110 106 124 131 105 66 56 60 61 63 63 61 66 69 69 83 94 92 81 75 76 76 76 75 79 82 78 85 85 86 86 88 89 89 92 93 90 93 94 93 94 94 95 98 94 95 95 96 91 92 90 88 91 86 84 81 82 84 79 80 75 81 80 81 79 78 82 82 79 77 81 85 86 88 88 91 82 74 64 53 47 31 33 72 96 115 118 110 110 108 116 114 117 105 125 112 79 56 61 61 63 60 60 65 68 66 89 96 97 78 72 73 76 76 78 75 81 82 81 86 86 84 88 90 92 93 94 96 95 95 94 96 97 97 97 100 97 95 97 95 95 94 91 87 84 87 85 84 83 84 80 82 80 80 84 83 85 85 81 83 84 81 85 82 88 87 84 86 95 81 79 68 53 42 30 53 90 105 122 112 112 111 117 115 111 111 119 101 73 58 61 61 61 69 76 73 80 94 99 94 80 75 71 70 71 75 78 76 82 82 84 84 87 85 88 89 92 94 98 99 97 98 96 98 99 104 103 103 99 98 97 96 95 93 90 86 87 88 86 87 87 86 83 83 82 83 84 87 88 91 90 82 83 83 90 90 91 88 88 86 93 91 80 74 61 52 46 46 71 108 126 116 115 107 115 111 115 104 116 91 71 61 73 84 75 82 97 89 107 122 105 83 77 77 76 73 71 76 75 76 81 84 84 86 90 88 91 90 93 96 96 98 99 98 98 99 101 102 101 101 101 96 94 93 92 91 92 89 86 88 91 88 89 87 86 88 86 88 87 87 90 91 90 85 84 82 91 93 94 91 89 88 92 89 87 77 72 60 56 54 72 100 130 126 115 114 115 114 119 116 118 79 74 84 94 109 80 95 101 125 120 122 102 79 78 77 76 74 74 74 75 81 80 84 86 88 89 89 92 94 97 96 97 98 98 96 98 99 99 100 97 98 96 91 94 92 88 88 90 89 85 85 87 88 90 90 87 87 86 87 88 87 86 86 86 84 82 85 88 88 95 98 95 88 88 85 88 80 75 65 60 53 88 85 135 130 117 117 118 113 118 119 104 69 82 91 121 123 100 115 122 113 139 100 84 79 75 76 77 74 73 71 78 82 80 87 88 91 91 94 93 93 96 96 94 95 96 94 95 93 95 95 93 95 94 91 92 88 85 85 84 83 82 84 82 85 86 86 86 86 85 83 83 84 82 81 81 84 86 84 86 85 91 97 94 90 86 83 88 84 80 76 67 59 86 98 122 139 126 119 116 115 111 110 95 73 78 99 138 136 130 129 128 120 115 83 74 71 75 75 71 74 77 75 81 84 85 88 90 92 94 93 92 94 93 95 97 94 92 90 90 91 94 92 91 92 93 91 89 88 85 83 81 81 80 82 81 80 81 83 81 83 84 82 81 81 83 80 82 84 84 86 84 82 88 95 94 88 89 85 79 86 83 84 76 69 64 110 106 129 144 129 123 115 114 111 88 76 79 127 146 141 157 153 139 120 85 102 77 69 76 72 73 78 76 79 83 85 89 92 92 95 95 97 95 95 93 91 94 93 90 87 89 90 93 91 91 89 92 90 90 87 87 85 80 82 82 80 81 80 80 81 81 82 82 84 82 83 86 83 84 86 86 84 84 82 88 96 96 91 90 89 83 81 87 85 78 78 63 83 113 104 144 137 128 122 122 115 91 82 80 138 133 157 170 167 119 116 80 109 73 71 77 76 79 79 80 83 88 86 92 97 96 93 95 97 93 94 90 90 94 91 88 87 88 87 85 89 89 88 89 88 87 88 87 87 82 81 83 83 81 83 81 84 82 83 83 86 84 85 87 85 87 86 86 83 85 85 88 94 101 93 90 92 89 88 93 87 77 74 73 66 109 105 127 143 131 133 121 117 87 78 82 146 142 167 140 137 122 97 111 89 72 74 78 78 80 84 83 85 89 90 95 99 97 95 95 94 92 92 92 90 92 90 85 87 86 83 80 87 88 88 88 88 88 88 87 87 86 85 84 85 83 84 83 85 84 83 83 84 84 84 85 85 88 87 89 87 84 84 88 91 97 95 89 87 86 92 94 83 81 78 73 76 76 121 104 145 142 130 132 127 98 80 75 139 139 144 132 117 126 76 80 68 70 74 78 82 85 87 85 89 90 94 98 96 97 95 95 89 89 89 89 88 86 84 84 85 84 85 85 85 89 86 87 88 88 89 90 87 89 90 86 88 87 87 88 89 86 87 87 85 85 85 84 86 86 88 87 90 87 84 89 90 92 93 90 83 81 87 92 90 86 77 76 76 72 107 108 131 141 143 130 133 79 79 75 116 134 122 123 122 89 70 64 67 72 74 80 83 90 91 87 88 92 95 98 90 94 94 89 89 88 84 86 83 82 80 83 83 84 86 84 86 88 88 88 88 90 91 89 90 89 90 89 87 89 89 90 89 87 87 86 86 84 83 82 83 86 88 88 87 86 84 88 91 92 90 90 87 78 84 92 97 93 82 76 75 75 87 118 112 146 146 132 132 76 73 63 100 125 110 121 104 73 65 63 64 72 73 81 85 90 90 90 93 93 95 92 89 93 89 85 86 83 79 78 79 81 80 84 85 85 87 85 85 87 86 88 87 90 90 88 88 87 87 83 84 87 86 85 85 84 84 86 83 82 82 80 80 81 85 85 86 83 83 84 88 90 90 91 90 83 80 85 95 96 84 80 78 82 72 108 114 118 142 139 136 74 65 64 91 126 126 111 68 68 60 61 62 69 76 83 89 90 93 95 97 95 92 91 88 89 85 84 79 76 74 74 77 79 78 80 84 85 84 85 84 86 87 87 89 87 86 84 83 82 82 81 82 81 83 84 83 85 81 82 80 79 79 80 79 78 81 82 82 86 83 84 85 84 86 87 88 84 76 78 92 95 87 77 80 86 73 92 120 96 134 142 140 66 60 65 102 120 140 80 68 64 56 59 63 68 79 88 90 94 93 97 95 94 91 87 88 83 82 79 79 74 75 75 76 77 79 79 82 83 84 84 83 86 86 87 86 87 85 85 82 83 81 80 80 82 80 83 83 84 80 81 78 77 77 78 78 79 79 80 82 84 85 86 86 83 85 84 87 86 79 72 86 91 88 82 80 82 79 70 111 98 119 145 144 60 61 63 102 112 147 71 67 60 57 58 66 73 82 89 93 97 95 94 91 92 89 84 82 78 78 76 76 73 75 76 80 83 83 82 82 84 85 87 86 87 88 86 87 88 86 86 84 84 81 80 80 80 78 80 79 80 78 79 77 79 76 76 78 79 79 77 77 80 85 86 88 85 86 85 86 86 82 77 76 93 86 87 80 84 72 80 94 105 107 145 149 60 61 65 111 108 129 72 67 59 60 61 67 78 85 89 95 96 92 90 89 87 84 79 77 79 79 74 76 80 82 81 83 83 84 84 82 85 88 89 86 86 86 88 88 88 86 86 84 84 83 82 79 79 78 77 75 79 78 75 77 75 76 76 78 76 76 77 76 78 81 81 90 88 88 91 88 83 82 74 76 92 86 87 87 81 73 77 73 95 109 141 150 55 62 70 84 122 108 78 63 59 66 64 69 78 86 88 93 92 86 86 85 83 80 78 77 77 78 81 83 85 85 86 84 84 84 88 86 88 90 91 92 91 90 91 91 89 88 87 87 85 84 84 82 80 80 77 79 78 77 76 76 74 74 75 77 77 74 77 77 74 77 79 87 90 90 88 94 88 80 75 75 81 91 89 87 81 74 73 56 73 117 135 154 58 64 73 80 126 84 74 62 65 67 66 70 78 87 91 90 87 83 81 84 80 78 75 77 81 84 85 84 84 84 85 87 87 88 90 89 90 91 92 93 95 93 93 96 96 95 95 88 88 85 83 83 81 79 82 80 78 79 79 77 76 76 76 77 78 75 76 77 76 76 80 84 91 92 89 92 91 80 76 78 75 86 86 88 81 80 75 58 60 103 134 157 66 71 74 84 101 78 75 69 69 67 68 74 80 89 94 90 80 81 80 84 81 77 80 83 85 87 88 88 83 85 87 92 91 93 93 95 93 93 93 96 95 94 94 98 99 99 95 92 90 89 86 84 82 80 80 80 79 79 80 78 77 78 79 76 78 78 76 80 78 79 82 85 89 96 92 91 91 83 74 77 81 81 85 87 80 76 81 66 51 104 126 157 69 73 78 84 86 78 76 71 71 71 70 81 83 92 93 85 79 80 84 86 85 87 88 89 90 92 91 90 89 91 95 98 99 99 100 100 98 95 95 96 94 92 92 95 97 98 95 92 89 88 87 86 83 82 82 81 80 80 81 80 79 79 77 75 78 79 81 79 79 79 86 89 92 97 94 93 89 86 73 76 82 79 79 84 80 77 75 68 54 111 119 155 68 75 83 87 89 80 76 76 76 75 78 87 90 95 89 85 77 80 82 86 88 92 95 96 98 95 93 91 90 93 95 94 96 97 97 97 97 96 93 92 92 90 87 87 92 88 87 83 81 83 84 84 82 83 80 78 79 77 80 77 79 79 79 77 78 76 78 78 81 80 84 88 94 98 101 93 89 86 78 75 82 82 77 82 80 89 84 73 56 116 124 154 70 79 88 89 86 81 80 77 80 86 85 88 93 93 87 82 76 80 86 90 92 96 98 100 98 94 91 92 94 98 98 94 97 97 97 94 94 91 85 86 85 83 77 78 80 78 76 77 77 77 79 82 83 84 79 81 77 77 79 78 77 78 76 80 80 77 77 75 78 82 80 86 88 96 101 97 88 83 80 79 78 81 81 76 76 94 99 80 66 96 131 147 70 78 87 91 85 81 78 79 85 85 89 89 93 90 84 81 72 77 77 82 85 89 90 92 91 87 89 92 92 92 93 94 91 93 91 90 88 86 82 80 77 75 77 76 77 78 75 77 78 78 80 80 80 81 83 84 80 78 80 82 80 79 79 84 81 78 88 78 76 84 80 84 86 91 96 96 91 84 79 74 81 75 82 81 81 87 103 89 75 98 121 149 70 72 82 87 82 81 75 83 79 84 88 88 87 82 82 72 71 72 76 79 79 81 83 80 82 81 82 84 83 81 82 80 78 79 82 80 78 75 77 77 75 74 75 75 75 77 76 80 81 79 82 82 82 83 86 86 84 83 79 80 83 82 85 88 82 79 83 82 77 86 81 92 83 82 93 93 92 85 80 71 80 76 80 85 85 89 99 96 81 94 115 136 67 73 80 83 88 78 74 81 77 82 89 87 81 77 75 69 69 72 73 78 79 82 79 78 81 78 78 77 74 73 79 74 73 69 72 71 71 69 70 72 72 73 74 75 77 80 80 82 84 84 83 83 82 83 84 85 82 81 77 80 77 81 84 89 82 80 81 80 77 81 77 90 87 77 84 94 98 86 82 80 80 78 86 84 86 98 97 100 85 104 100 122 65 77 76 87 92 75 76 78 79 83 88 84 79 76 71 67 68 67 71 78 80 81 80 80 78 75 73 72 71 68 69 72 73 69 73 71 70 70 69 69 70 71 71 73 75 77 80 82 84 82 82 79 77 78 80 80 80 79 75 75 74 78 79 83 84 80 79 79 80 86 81 85 84 80 78 94 103 93 88 87 84 84 88 93 83 99 107 99 90 99 103 118 67 72 75 82 90 74 77 80 79 86 86 79 78 70 68 63 62 66 75 78 79 79 81 81 78 76 74 75 70 67 66 68 69 67 72 70 69 69 69 68 69 68 69 72 75 76 78 81 82 81 78 78 77 76 77 74 75 76 76 76 75 76 79 79 81 83 79 76 76 82 84 83 83 86 83 87 102 101 94 98 89 91 91 92 87 97 105 99 93 81 106 136 64 75 71 79 87 79 77 80 79 88 92 82 70 73 67 65 63 71 77 82 83 81 84 85 81 77 76 75 73 69 68 70 67 70 69 68 68 68 69 67 69 71 72 73 75 77 81 82 81 79 77 75 74 71 70 67 68 67 70 74 72 73 74 77 80 82 81 82 84 85 86 86 87 87 87 86 98 100 94 101 98 101 96 91 92 102 107 98 85 65 108 151 63 73 76 77 86 85 83 77 80 90 90 76 71 80 71 69 72 75 81 86 88 89 89 90 87 81 79 79 79 75 72 71 71 70 70 70 69 69 69 71 72 74 75 75 77 79 82 83 81 79 77 74 72 69 69 68 68 68 67 67 63 65 63 68 71 78 82 86 89 86 86 83 82 83 79 79 87 92 91 96 92 103 100 87 95 99 106 97 74 61 117 148 60 66 74 80 84 92 88 78 90 89 86 77 77 80 76 78 83 84 88 94 99 94 95 90 88 83 79 77 76 71 69 68 66 69 64 67 68 74 74 74 76 77 79 80 80 81 83 82 81 79 76 74 76 69 70 68 71 68 68 68 67 64 66 67 67 65 74 78 80 81 84 78 79 85 84 79 89 86 92 100 99 93 96 87 95 98 103 99 65 61 110 152 53 64 70 81 87 103 92 88 97 90 91 82 85 73 72 77 83 84 92 98 98 95 96 90 88 83 77 74 69 65 62 61 62 62 63 68 69 72 80 81 80 82 84 85 86 85 85 85 82 79 76 75 75 67 66 68 67 69 70 71 75 79 67 69 68 68 66 70 78 88 88 84 83 98 93 75 92 93 97 113 109 105 98 82 95 96 96 89 60 56 108 134 50 54 60 81 90 116 99 89 95 83 86 81 83 71 78 77 86 95 94 97 98 89 90 85 81 77 76 71 65 64 59 57 55 58 59 64 65 72 80 79 79 81 86 88 87 88 86 89 86 87 81 81 82 80 65 65 65 65 64 65 71 71 61 67 70 66 67 67 82 99 96 79 86 88 89 77 89 95 103 114 117 103 105 101 91 93 99 86 60 42 106 112 48 55 62 74 86 113 93 81 94 75 81 80 81 77 78 81 94 96 93 94 91 88 83 79 75 69 68 74 67 66 69 65 59 60 63 62 68 72 86 82 79 79 85 90 92 90 91 88 88 94 86 84 83 81 76 75 73 79 80 66 71 83 70 82 79 80 87 76 78 97 99 93 90 88 89 84 102 98 113 114 123 98 110 109 96 90 94 82 54 46 84 102 49 57 63 60 72 94 84 79 87 73 85 83 76 74 77 82 94 94 93 90 92 90 88 83 76 72 74 81 79 74 69 68 66 59 62 61 73 73 88 87 81 81 87 92 95 90 93 94 90 97 91 83 82 84 84 86 96 91 95 82 80 84 81 83 86 87 98 95 94 96 99 99 94 88 91 88 101 111 117 116 116 99 115 120 96 89 89 77 50 50 80 86 51 55 61 66 64 84 74 77 86 82 92 87 82 73 90 88 90 89 84 87 94 90 87 87 82 80 85 85 88 78 75 74 69 65 65 69 81 83 90 89 75 80 87 91 92 87 89 95 91 95 97 93 84 92 88 89 92 97 95 87 92 98 97 94 95 98 99 101 103 101 101 98 96 92 91 93 97 106 110 109 112 99 116 120 98 96 85 74 49 47 80 78 49 54 65 72 68 77 76 78 93 90 88 79 86 74 87 79 81 83 87 85 85 84 85 86 85 82 91 90 97 91 83 86 79 80 83 80 75 80 80 75 74 73 83 85 87 83 84 90 91 89 93 90 90 90 87 92 96 98 104 100 104 104 108 109 104 111 109 107 109 110 104 100 98 96 93 97 95 97 103 106 114 101 110 122 105 95 80 72 58 49 94 71 46 56 63 66 64 75 92 95 96 98 93 82 91 90 86 76 79 75 82 80 72 77 78 84 84 83 85 87 97 93 92 92 83 80 77 89 74 77 74 74 74 73 75 78 77 75 78 87 89 87 89 85 84 87 86 83 89 88 97 92 98 98 101 108 102 100 105 107 111 113 108 97 87 90 91 97 99 95 104 112 114 108 106 124 110 105 100 83 66 49 96 84 51 68 65 61 68 74 92 100 103 103 99 95 101 90 88 77 81 70 73 70 67 74 74 77 74 73 70 69 81 75 75 70 77 75 67 82 76 72 69 71 74 69 76 74 70 71 77 85 87 88 81 83 86 86 81 69 76 86 92 88 87 87 96 97 94 98 105 102 107 109 105 100 89 85 89 96 101 103 105 110 111 113 105 132 114 111 108 96 67 57 88 96 55 76 64 69 78 78 86 98 105 111 101 94 101 90 85 81 82 79 72 75 74 70 77 79 71 64 74 68 71 64 73 66 64 62 52 67 61 60 57 69 69 67 70 72 70 72 75 82 86 88 76 72 81 74 77 61 58 67 74 72 66 66 75 88 92 88 98 112 98 101 95 97 90 87 91 96 95 106 110 107 108 115 103 135 112 107 111 90 79 63 82 93 63 88 72 77 91 83 90 97 99 94 92 84 93 86 84 80 73 74 77 75 69 69 76 76 75 64 64 63 67 63 69 69 65 61 55 59 60 66 60 68 65 61 64 69 75 77 78 79 86 88 75 67 64 66 75 57 62 58 55 56 55 60 71 84 95 88 92 98 90 92 91 93 94 90 89 91 92 100 114 108 105 110 104 127 110 103 108 90 84 77 87 85 66 90 79 83 99 91 97 107 105 90 82 82 93 84 88 80 73 76 82 84 85 85 79 82 77 67 58 57 58 62 69 71 69 63 64 60 69 68 66 66 57 58 61 65 78 81 76 72 78 77 78 71 64 67 78 71 61 55 49 70 69 63 67 79 88 88 84 85 91 90 89 87 88 90 85 88 89 97 113 106 106 102 108 126 107 92 101 98 91 78 81 86 52 86 74 83 98 97 101 115 104 97 87 87 87 86 84 82 78 70 75 89 78 79 85 88 87 78 74 69 62 75 76 72 75 68 63 68 76 74 79 80 71 65 69 75 81 83 78 73 75 79 77 77 66 70 78 74 60 63 52 62 80 72 75 78 90 83 79 90 89 80 83 87 82 80 82 82 88 97 106 104 107 99 107 120 100 92 113 99 95 79 65 98 41 78 73 84 93 98 112 111 105 94 84 83 92 84 79 88 80 73 76 92 82 81 81 78 81 80 83 83 81 88 85 76 68 72 66 70 70 67 74 70 75 68 81 88 91 87 84 85 83 86 84 76 71 73 83 82 69 62 71 68 82 71 75 77 85 76 67 82 85 78 75 78 78 79 78 82 84 94 100 101 109 99 106 103 93 93 114 104 100 66 69 89 41 84 75 91 97 90 113 105 96 92 85 80 83 78 81 85 79 68 71 80 78 79 78 75 70 78 83 89 91 91 76 73 72 74 71 73 79 78 83 83 83 81 89 93 90 91 94 95 90 90 86 80 76 79 84 88 78 73 82 77 74 75 81 85 85 86 78 77 72 66 69 68 72 80 76 80 87 91 100 104 110 103 102 101 98 90 100 107 88 67 72 101 34 92 85 95 102 90 109 99 91 86 86 77 77 77 81 86 87 77 74 79 72 82 81 79 77 82 89 94 93 82 75 69 74 72 68 75 85 94 91 88 86 95 94 94 94 98 96 98 99 93 86 75 80 77 77 90 87 80 81 78 79 77 80 85 86 86 80 71 68 64 69 65 73 75 72 78 85 92 98 106 104 103 100 105 96 100 95 98 81 69 78 112 43 100 97 104 110 94 91 79 80 86 89 79 75 80 80 81 82 77 76 80 77 82 84 87 88 92 95 96 93 83 91 79 73 69 71 79 95 102 104 95 88 90 84 83 92 97 96 99 103 97 92 85 77 71 70 81 85 77 78 78 76 75 70 73 86 88 81 77 70 69 73 70 77 77 76 83 92 97 98 104 103 100 93 108 101 100 86 84 77 61 86 99 51 92 93 102 111 94 76 67 66 88 94 79 78 82 80 78 79 83 85 91 92 90 91 95 97 99 99 95 91 97 100 87 68 79 86 101 108 116 105 100 90 91 86 94 92 95 101 106 108 99 99 92 84 78 78 89 80 76 76 75 78 77 75 74 83 88 88 87 82 76 79 83 85 83 86 90 95 97 95 102 105 90 90 99 98 85 73 76 78 61 73 114 60 93 83 95 96 89 85 71 65 86 95 83 78 81 78 75 75 80 83 89 95 92 94 97 94 100 103 104 103 101 93 83 77 87 97 104 104 105 102 93 95 89 92 99 101 98 104 108 106 97 88 82 86 81 74 86 84 76 76 71 75 75 81 79 87 78 84 84 83 85 89 87 85 84 85 89 94 98 96 98 101 85 87 99 84 71 66 75 77 69 76 112 54 83 70 93 80 85 91 83 71 82 97 84 80 73 75 75 74 72 76 73 83 84 83 88 92 92 92 96 97 93 86 84 81 94 99 103 111 107 100 96 97 97 95 98 101 105 107 113 114 102 87 86 84 85 82 84 88 81 78 74 76 79 82 84 89 88 92 95 88 90 92 90 89 86 87 90 98 101 96 97 97 83 81 84 72 71 69 87 76 78 78 114 50 80 61 87 81 79 86 84 79 74 94 78 79 75 74 71 75 70 69 72 78 84 77 81 85 82 83 86 88 87 83 83 83 97 100 108 112 104 99 99 96 102 104 103 100 107 108 105 102 96 91 91 94 86 90 89 83 80 85 77 79 79 82 84 87 88 89 91 90 91 92 91 88 84 85 89 98 101 99 96 91 83 75 70 68 64 103 89 96 74 81 110 51 73 64 77 81 76 85 96 82 82 89 84 81 75 73 73 76 75 74 79 80 82 81 78 82 75 82 89 89 87 85 84 88 93 104 109 108 91 86 95 100 100 105 110 104 110 108 102 89 88 86 89 88 90 86 95 99 86 92 88 79 77 76 82 86 86 87 84 93 91 90 89 90 90 86 92 96 103 100 96 90 76 67 57 63 61 143 96 120 67 80 110 43 68 65 70 74 70 84 103 90 85 93 86 82 76 71 72 74 80 79 79 80 80 82 80 81 73 75 83 83 82 86 87 90 101 107 105 96 84 83 94 104 116 102 107 107 102 103 103 89 85 81 88 90 84 90 83 109 103 97 110 96 80 87 84 81 84 87 82 83 87 86 90 91 94 92 89 93 99 101 97 89 78 61 51 58 59 132 113 140 56 83 107 47 52 70 66 61 76 79 103 98 89 96 92 86 78 77 76 77 83 83 80 81 81 81 77 72 73 79 84 85 86 92 96 96 103 107 101 90 89 90 100 118 102 97 100 109 107 105 106 103 93 88 87 101 77 85 97 98 109 92 107 111 96 94 82 77 77 82 84 85 88 90 89 91 94 97 88 92 104 101 99 87 78 64 53 54 53 130 113 163 51 93 110 59 65 64 113 46 67 80 96 101 90 97 94 88 77 81 80 79 86 86 81 81 81 84 82 75 76 86 92 91 90 91 93 94 101 100 92 85 96 95 105 117 107 89 96 97 101 107 108 104 101 99 94 89 98 89 109 110 108 96 99 109 103 90 81 82 77 81 90 89 94 93 89 92 96 98 90 94 104 102 96 83 78 69 58 55 55 124 131 156 51 90 112 70 66 65 153 72 44 67 84 93 88 89 84 84 79 82 81 80 85 81 82 81 84 88 83 81 80 88 93 92 90 87 95 96 93 92 83 81 94 101 98 106 107 86 89 97 91 100 100 96 102 103 108 99 112 117 123 116 118 115 110 103 94 93 91 84 83 88 89 90 94 93 86 88 92 97 93 92 96 96 84 74 82 70 61 61 47 110 143 140 57 103 99 76 84 77 168 105 81 63 78 83 86 82 84 85 78 81 81 78 83 80 83 84 84 90 85 83 84 87 93 93 95 96 98 99 90 84 80 86 88 94 94 114 114 93 88 90 89 91 92 92 93 107 114 99 106 124 113 110 105 118 115 105 97 95 97 90 94 94 94 91 93 89 86 87 89 93 93 94 94 93 79 67 80 70 64 61 46 109 154 115 55 101 96 71 99 92 169 110 86 64 74 78 82 72 73 88 81 78 79 76 82 79 84 84 86 83 84 81 83 86 88 91 93 94 95 100 95 95 101 99 97 100 101 104 122 92 79 79 87 91 87 90 95 102 116 100 104 114 111 97 100 107 109 106 108 104 100 103 98 101 99 93 91 87 88 86 87 92 96 93 89 89 75 64 67 72 62 67 72 117 147 93 65 95 93 67 101 100 190 108 123 64 76 78 73 75 77 84 79 77 83 77 82 78 83 84 81 79 81 81 84 87 84 87 94 92 90 97 97 94 98 91 93 101 95 99 110 94 83 84 96 90 91 85 106 104 110 117 98 101 96 91 89 94 106 105 105 106 111 107 107 103 99 89 86 85 88 87 87 93 93 91 87 84 76 65 68 70 69 65 105 120 141 71 71 99 88 71 105 89 227 144 114 77 73 69 68 71 77 83 79 78 83 81 81 79 79 83 82 80 78 81 89 88 84 85 89 91 95 96 99 96 101 99 99 99 97 89 87 85 84 87 86 94 98 81 101 110 96 103 114 112 113 100 100 99 103 114 110 108 109 111 105 101 96 86 81 83 88 86 88 92 93 88 86 85 76 72 64 64 62 104 127 123 139 47 84 87 79 71 100 82 213 225 106 114 73 62 66 72 71 84 81 80 82 84 84 83 80 79 82 76 76 79 87 89 84 85 87 87 84 90 92 96 100 104 104 102 97 87 84 88 83 97 88 89 94 88 97 109 89 94 100 117 92 92 95 94 90 98 105 104 105 106 103 93 91 87 80 82 86 86 90 93 92 86 87 81 90 70 64 59 100 127 135 150 122 36 89 85 72 69 99 96 161 254 175 121 84 63 66 73 73 80 85 79 82 84 84 83 83 80 81 76 81 80 83 77 80 85 84 77 73 78 81 91 106 104 101 100 91 90 81 82 81 92 107 80 86 82 100 99 85 86 87 104 82 87 94 95 94 94 96 102 104 99 98 93 87 84 79 82 89 89 92 97 90 84 85 77 108 86 76 92 120 152 158 175 77 36 98 73 74 89 80 133 120 240 222 136 124 79 80 70 79 83 86 83 84 86 84 83 82 80 78 77 81 81 76 76 80 82 77 70 70 75 84 88 96 97 94 87 79 82 81 78 77 78 84 75 72 86 95 102 75 79 87 80 73 84 90 91 86 87 91 94 92 90 88 85 83 81 80 83 88 92 94 94 89 84 83 76 102 100 109 119 138 171 187 155 55 53 83 77 71 99 76 130 110 209 237 161 144 117 89 66 79 90 87 90 83 84 87 85 81 79 79 78 78 78 71 74 77 77 74 71 76 85 86 89 80 81 87 75 75 75 78 79 80 83 78 75 77 85 91 102 82 82 85 83 80 87 88 89 90 92 93 88 87 85 84 81 79 81 80 87 88 93 95 95 89 86 80 103 121 117 122 138 159 184 192 117 48 65 81 75 77 102 90 113 124 173 244 205 180 136 103 86 74 91 89 92 87 84 88 86 80 79 77 75 75 77 73 71 74 74 75 74 81 83 86 89 81 75 75 69 68 70 72 74 75 81 84 79 77 79 82 85 84 81 78 85 87 91 91 91 91 91 90 85 83 83 78 75 75 78 81 86 87 90 92 94 90 87 78 134 135 132 136 151 176 199 154 85 52 63 86 74 77 98 99 96 124 148 214 255 227 207 137 123 90 86 87 87 88 83 86 85 81 79 77 73 76 80 77 76 74 75 80 82 81 86 86 87 85 80 76 71 69 72 72 77 77 82 84 79 81 80 78 76 80 82 82 85 88 90 93 93 90 94 93 88 81 80 75 74 75 79 84 87 89 88 93 95 88 85 79 124 129 153 157 165 174 172 108 47 72 71 78 86 63 104 111 99 109 126 161 253 251 247 189 144 109 85 87 84 88 84 88 85 79 76 74 72 74 83 79 78 79 81 83 87 84 87 87 87 86 85 82 77 77 80 80 77 78 82 83 81 78 76 77 76 78 83 83 83 86 93 100 94 93 94 96 91 85 81 76 72 73 80 85 89 89 90 92 93 86 83 79 117 139 164 160 166 169 124 61 45 62 76 77 80 54 111 115 101 102 113 127 200 236 234 199 162 119 80 85 83 85 84 84 84 79 75 74 74 77 79 80 79 90 94 88 94 93 94 89 89 87 85 86 80 85 92 92 88 80 85 85 85 84 83 83 81 79 81 87 84 85 89 95 97 95 93 98 94 87 83 78 73 72 81 83 89 88 87 91 90 85 81 80 103 119 139 143 140 121 86 37 49 72 69 80 73 56 117 124 110 92 104 109 133 165 184 169 151 97 80 84 84 82 85 82 83 82 77 75 74 76 76 75 81 86 92 94 97 102 99 94 94 93 96 91 88 88 94 95 96 89 83 80 82 83 81 82 86 84 90 91 85 88 96 94 95 96 94 96 95 85 81 79 77 77 85 83 89 89 88 89 87 84 76 79 81 87 98 116 99 78 53 43 60 75 69 76 64 57 111 118 122 94 95 94 102 94 124 121 92 72 77 82 83 82 84 81 84 85 81 80 78 75 75 71 76 79 84 93 94 110 99 96 106 114 106 93 90 89 92 107 98 93 90 77 78 81 80 81 105 105 110 109 91 89 116 108 103 94 91 91 91 84 80 79 79 82 83 86 91 89 88 90 86 82 73 81 74 73 61 72 65 66 53 56 68 68 71 69 52 56 106 109 122 108 96 76 94 80 57 74 76 68 73 74 80 84 86 85 86 85 84 80 76 74 72 67 73 76 77 85 96 104 111 107 113 122 109 113 120 126 128 135 120 94 93 97 92 86 97 98 114 104 106 106 100 101 120 106 101 92 90 88 83 86 82 83 83 83 83 88 91 92 91 90 86 78 77 84 82 76 62 63 64 64 61 62 64 67 68 61 56 50 107 102 113 101 102 83 67 70 58 66 73 71 68 64 75 82 86 85 82 84 81 78 76 68 68 65 73 76 73 75 91 107 111 106 91 113 104 106 112 122 140 133 104 86 91 94 105 92 106 109 117 111 105 100 92 91 97 91 93 93 92 92 85 85 83 85 83 84 84 87 88 91 90 90 89 76 82 86 86 84 70 66 73 62 65 55 63 65 67 61 65 54 97 105 106 106 96 92 68 56 49 58 63 72 69 65 71 85 87 84 85 80 83 78 69 69 66 65 73 74 71 77 88 98 88 81 84 97 111 118 122 115 117 96 90 87 85 87 90 90 88 107 115 111 110 103 89 80 84 78 88 90 87 86 83 76 76 80 81 85 81 87 89 89 87 86 86 75 85 87 89 82 70 72 72 65 58 63 63 70 67 65 63 65 102 106 104 113 99 94 75 53 42 37 54 68 67 69 70 84 89 87 83 83 84 76 69 67 66 63 73 76 77 73 82 87 86 86 86 91 94 93 89 79 81 83 76 72 76 82 74 78 79 88 97 106 89 101 88 80 87 85 89 88 86 83 77 74 74 79 82 83 83 89 90 87 85 86 80 76 83 88 84 76 68 77 73 68 62 66 61 64 76 59 68 65 106 111 103 109 106 91 85 65 49 34 49 67 65 65 72 86 92 92 78 84 82 74 69 68 68 65 76 80 78 78 81 89 95 91 87 91 96 89 88 89 85 87 87 76 76 71 70 73 71 73 77 82 78 102 88 86 92 87 90 87 86 88 81 77 77 81 86 85 86 91 89 85 85 88 76 77 81 83 78 74 70 77 79 65 72 67 71 80 68 71 68 55 105 112 102 111 103 97 88 69 53 36 43 65 66 67 75 82 87 87 82 80 77 75 70 71 73 72 82 88 88 89 90 95 95 96 95 97 97 91 91 86 86 87 87 76 77 76 73 75 74 78 77 76 78 87 87 86 84 85 88 88 88 87 83 79 80 81 86 87 86 90 87 86 86 88 75 80 84 78 71 78 69 79 75 70 66 74 70 74 74 74 64 70 103 108 110 106 105 103 85 73 55 40 38 58 64 65 74 86 81 89 81 77 74 76 74 76 77 76 86 90 94 92 89 90 87 85 83 92 88 80 80 74 71 73 74 68 66 65 67 73 76 85 82 79 80 82 82 85 83 85 90 88 88 87 87 83 84 82 84 85 84 83 85 82 86 87 76 85 86 72 72 78 69 76 76 70 72 76 71 73 71 71 72 64 108 104 104 115 104 97 82 83 65 52 35 48 61 62 72 90 79 89 92 75 79 78 77 82 82 81 84 85 90 84 81 71 71 71 71 75 77 69 71 67 71 62 64 67 64 66 71 69 71 72 72 72 72 76 79 74 76 78 81 82 81 86 86 82 82 79 85 87 86 83 84 81 87 85 79 85 82 69 76 76 72 79 77 72 70 79 73 76 69 71 68 68 108 105 113 109 102 92 94 88 78 57 47 44 59 62 71 93 88 87 93 79 82 82 81 85 86 85 85 84 83 76 72 68 67 64 64 68 68 71 68 67 69 65 63 63 61 65 60 62 64 68 67 67 67 72 69 66 71 72 79 80 81 87 86 83 85 82 82 90 89 87 85 80 85 84 80 87 81 72 81 77 73 84 82 77 72 72 79 72 71 70 67 71 112 107 112 101 90 95 91 90 88 64 53 46 53 62 71 89 91 89 93 90 88 89 83 84 88 88 87 86 83 76 69 73 72 73 66 69 69 72 69 72 71 71 71 72 67 70 67 75 69 63 63 60 63 68 66 67 72 76 79 81 84 85 82 81 85 84 84 88 85 86 85 82 86 80 81 87 79 76 80 78 74 78 76 74 78 72 75 75 76 62 73 70 108 108 106 91 85 93 96 91 93 62 64 48 48 49 65 85 86 88 91 91 90 92 85 86 90 88 90 92 89 90 82 84 82 78 75 79 82 78 77 75 79 78 72 72 76 78 73 76 71 72 64 56 63 66 69 72 76 80 83 82 87 87 83 83 87 86 86 84 84 83 83 82 85 78 81 90 86 83 79 82 78 74 81 79 79 70 77 78 75 69 72 68 103 98 95 78 86 89 98 85 78 72 64 43 40 47 61 82 83 89 91 93 90 88 87 83 88 89 92 93 92 88 81 81 85 90 86 89 89 89 87 85 86 85 81 81 84 80 79 76 75 74 75 69 74 76 80 80 81 84 85 89 90 91 87 87 90 86 87 85 82 82 82 81 86 79 81 91 85 80 79 86 77 68 76 73 78 77 80 69 80 64 76 62 98 92 81 76 80 81 94 96 73 74 59 40 38 47 49 75 82 89 92 95 90 83 87 83 85 87 90 91 90 84 79 82 83 88 83 85 86 91 91 89 90 86 86 85 84 84 83 78 75 74 77 82 82 87 90 88 85 88 88 92 94 94 89 88 88 87 85 83 81 82 81 80 82 77 86 98 86 76 76 87 77 79 66 70 68 76 79 78 73 74 69 68 90 79 70 73 70 87 103 85 73 84 83 32 27 50 62 76 74 86 90 94 95 84 84 87 79 82 83 83 81 82 79 82 87 86 82 84 83 86 86 83 81 79 78 79 82 82 80 78 75 78 80 84 85 91 91 92 93 94 95 95 97 94 91 89 86 85 86 80 81 83 77 80 82 80 92 96 90 73 78 81 83 84 58 67 65 72 65 77 72 74 74 77 65 73 59 68 81 106 91 90 88 88 87 44 38 57 69 68 62 80 87 88 94 86 83 88 86 83 81 79 80 82 80 78 79 78 79 82 82 82 84 81 80 79 75 76 76 77 77 75 76 76 78 83 85 88 90 90 92 94 94 94 92 90 91 83 84 83 82 81 80 81 77 83 81 79 86 96 88 74 81 84 80 67 61 59 66 62 70 55 67 70 70 68 81 61 75 84 95 101 97 97 105 95 87 57 64 62 64 71 66 71 84 84 88 85 76 84 86 87 83 79 80 76 82 77 77 74 75 78 81 80 80 81 77 78 76 76 77 76 78 78 79 78 78 80 79 81 83 85 88 89 90 90 87 86 86 81 83 80 82 78 80 79 76 84 88 80 84 90 91 74 78 86 80 68 62 60 56 60 67 53 56 63 62 70 54 65 74 89 90 94 97 104 115 97 78 64 82 72 67 82 74 68 79 83 79 85 79 79 80 82 85 83 82 80 81 80 80 74 71 76 76 75 78 76 74 76 77 76 76 77 75 75 77 76 77 78 77 79 79 82 81 84 83 84 84 84 85 81 81 75 78 77 81 76 76 83 87 78 86 85 82 76 74 80 79 74 72 58 54 57 76 62 60 57 55 66 71 88 90 96 91 99 87 113 107 95 59 77 94 93 80 99 93 82 80 80 78 81 79 74 75 80 82 82 81 83 82 83 82 82 76 78 79 77 75 73 72 73 72 70 68 70 72 75 76 76 77 75 75 73 75 77 77 77 80 82 82 87 82 78 80 73 73 79 80 74 75 82 76 77 81 78 73 68 80 67 76 76 88 70 61 63 63 71 71 62 60 66 94 107 105 96 119 82 90 109 110 88 62 102 111 113 90 98 92 71 84 76 73 77 77 73 71 74 77 80 79 81 80 84 83 85 83 78 76 74 69 72 70 70 70 69 70 68 70 72 73 72 71 66 68 66 68 71 71 73 78 78 81 82 80 78 76 72 93 76 81 71 74 76 74 74 86 71 71 63 79 73 68 66 90 83 75 62 64 76 69 74 65 70 97 100 96 111 121 76 102 109 115 94 92 100 109 115 101 97 91 62 88 77 67 74 78 70 73 72 78 77 73 79 81 78 81 84 81 79 78 73 76 69 68 67 68 66 68 64 68 68 65 68 67 63 66 67 71 72 70 71 75 79 79 79 80 77 76 88 108 76 86 72 73 70 71 75 85 64 76 58 73 77 69 67 86 99 74 66 76 70 76 71 77 68 105 129 127 135 113 89 122 112 135 108 89 80 86 104 105 93 83 63 92 84 68 77 81 72 74 70 77 73 75 78 78 81 81 83 85 80 81 77 75 74 68 62 62 64 61 63 58 65 62 64 67 63 68 67 71 70 70 74 74 82 79 79 77 75 93 102 121 90 86 73 72 69 69 79 81 66 75 64 69 78 67 66 82 94 95 83 74 79 75 78 73 77 135 146 130 130 96 111 131 132 127 99 67 56 81 97 94 94 76 64 88 91 76 78 95 76 68 71 68 75 74 79 81 97 83 86 85 82 84 80 73 74 69 66 61 60 58 61 57 60 59 62 65 65 68 68 69 69 74 76 79 81 80 78 77 102 112 120 116 120 82 79 67 70 66 79 83 75 69 71 68 86 70 69 66 83 99 81 70 76 78 75 72 75 144 136 139 132 95 120 133 121 110 86 63 55 82 90 83 91 72 56 82 88 80 75 94 93 68 68 70 70 75 81 85 103 101 86 88 86 87 86 79 74 72 70 68 65 65 66 60 66 64 65 64 67 70 72 73 73 77 80 81 81 80 75 104 120 127 131 117 104 83 77 69 72 67 80 78 79 73 75 67 88 77 63 55 65 83 81 71 69 81 72 71 76 129 133 155 120 101 124 115 110 107 81 59 54 84 99 79 83 78 49 74 84 76 83 103 97 85 69 68 69 70 77 91 92 100 100 91 91 92 90 83 78 72 71 71 69 69 72 68 72 69 71 68 73 74 76 76 79 82 82 80 80 93 108 126 135 137 140 133 86 89 79 67 61 65 76 76 70 79 77 83 86 89 67 57 67 81 83 75 74 77 70 71 65 131 142 143 100 92 120 107 105 94 77 65 64 100 110 71 74 67 43 58 73 75 120 112 93 92 86 73 67 68 68 80 85 87 88 91 89 91 88 83 81 75 73 73 74 71 74 75 73 74 75 72 75 75 76 76 81 82 83 86 108 118 137 145 146 156 145 123 87 82 69 57 50 58 63 67 67 77 84 78 104 105 76 56 74 87 84 83 84 77 75 75 62 123 130 112 73 91 114 95 103 87 86 82 91 116 93 69 69 59 40 45 55 83 153 122 85 88 98 92 71 67 65 67 80 74 78 79 83 84 84 83 81 78 78 76 78 72 73 73 74 72 76 76 73 74 78 79 81 87 100 113 134 146 152 148 154 155 147 123 79 73 58 49 52 48 57 65 63 67 83 76 100 115 88 70 81 82 83 87 95 84 79 83 74 97 112 94 69 90 103 101 109 92 90 87 96 124 87 70 75 58 32 32 43 96 153 128 100 89 95 101 87 72 66 65 71 75 66 71 76 76 79 79 80 78 79 75 75 74 74 73 72 72 74 74 72 77 75 83 89 111 131 147 147 161 154 158 162 163 127 138 108 58 43 38 59 48 52 54 59 50 66 72 79 111 89 84 89 78 93 103 107 102 87 101 94 94 109 82 65 88 99 101 117 95 97 79 94 124 96 74 75 65 20 25 46 92 129 126 103 95 96 101 96 86 75 64 69 64 65 59 63 67 65 71 73 72 71 71 71 70 73 71 74 72 73 73 71 71 83 106 117 139 151 162 162 163 159 159 164 151 128 118 112 49 35 36 40 53 58 44 45 43 44 56 63 83 70 81 84 64 91 105 107 106 97 106 106 91 86 76 75 84 92 108 116 104 111 75 93 129 96 86 71 69 37 32 104 103 117 110 106 89 88 95 96 92 89 78 76 57 52 52 49 49 52 56 60 61 62 65 61 66 66 67 67 70 68 71 79 105 117 137 146 152 166 166 168 166 161 159 154 144 121 91 81 119 32 43 50 61 57 48 37 34 22 57 56 62 45 64 76 65 74 92 99 91 93 104 105 85 79 84 86 92 92 89 99 98 105 68 87 126 102 85 71 69 50 103 161 123 95 94 94 86 88 83 88 93 92 91 83 70 61 59 51 47 44 47 50 49 51 57 58 60 63 65 67 70 82 97 114 132 140 149 158 164 171 160 163 164 153 141 139 135 107 75 54 122 62 50 57 69 41 35 39 18 3 45 43 52 34 36 60 61 64 83 96 96 96 103 100 83 73 70 73 80 75 85 100 96 92 60 70 121 106 83 82 90 73 183 197 135 96 88 82 76 85 81 88 87 89 86 82 78 68 68 57 55 52 51 49 48 48 54 56 60 66 68 79 97 109 122 143 148 152 164 173 166 166 155 157 152 144 139 135 115 94 67 37 108 110 52 82 91 52 31 30 0 7 33 33 32 30 27 32 46 58 61 77 98 104 105 100 