P2
92
112
255
153 152 153 152 152 150 147 149 149 147 144 142 143 143 143 136 133 132 126 121 119 114 109 103 101 98 90 83 81 79 76 76 74 79 77 73 71 71 69 67 66 60 55 57 56 55 53 57 65 56 53 50 53 50 53 53 59 59 64 67 64 67 68 79 76 79 86 93 104 111 116 123 124 134 141 144 144 144 145 143 143 143 143 141 141 139 141 140 141 140 140 142 152 152 152 152 152 149 149 146 145 145 142 141 141 139 136 134 130 128 125 118 111 103 98 92 88 82 82 83 76 73 68 66 61 66 64 62 60 61 60 57 54 49 44 47 47 45 44 46 52 51 49 47 48 48 50 51 55 56 57 61 56 60 63 68 69 66 67 75 83 94 107 108 118 123 130 139 142 143 144 143 143 143 144 141 142 141 140 140 141 141 139 140 152 151 151 151 152 150 148 144 142 141 139 138 137 139 135 131 130 126 122 111 101 91 84 81 82 78 75 70 61 58 56 56 55 57 56 51 49 50 50 46 47 42 36 37 40 37 36 36 39 43 41 39 43 45 47 50 48 49 50 53 52 56 60 63 65 63 64 62 70 77 90 102 106 112 123 130 134 139 141 144 143 143 143 142 143 141 140 139 140 141 140 139 152 150 152 150 150 148 146 144 141 138 139 138 136 135 132 129 127 120 109 98 88 79 74 77 78 69 65 57 52 51 47 44 47 47 46 42 40 39 39 40 38 38 32 29 32 34 28 29 27 32 30 27 33 38 41 43 47 45 48 48 46 50 55 55 55 60 58 62 63 65 74 84 94 100 109 120 124 128 136 139 143 142 143 142 142 140 140 140 140 141 140 140 150 150 151 149 148 146 144 143 141 138 138 134 134 132 127 126 118 107 94 84 78 73 73 69 63 59 52 50 46 42 42 39 38 39 34 36 34 30 28 31 29 28 24 19 22 26 23 20 18 20 18 15 18 25 27 34 37 37 36 40 43 47 46 51 49 59 59 58 61 63 67 77 79 86 94 107 113 119 125 134 138 139 140 142 142 142 140 140 138 140 140 139 151 150 149 150 148 145 141 143 140 137 137 132 132 127 120 118 108 95 86 76 71 74 66 62 57 49 46 43 44 45 41 37 35 30 26 25 22 21 20 15 16 17 14 10 9 14 14 12 10 13 12 8 8 12 14 20 26 28 27 29 34 35 41 45 44 52 56 57 61 62 65 69 73 77 85 94 104 109 117 123 129 135 138 139 141 141 140 141 140 139 140 139 151 150 149 147 147 144 142 139 136 136 136 130 126 119 112 110 99 90 85 74 71 69 61 59 55 51 48 46 46 48 41 32 32 26 20 17 17 15 14 12 6 7 6 6 5 9 9 4 6 11 8 5 4 8 10 12 18 20 21 23 23 28 34 34 39 47 49 55 57 62 63 63 63 73 78 81 92 102 111 118 124 127 134 136 137 138 139 141 139 140 139 140 150 151 148 147 144 142 138 137 133 136 130 127 122 114 102 97 91 85 80 75 71 62 60 59 56 54 52 45 45 45 38 33 33 28 24 22 20 21 18 14 9 12 10 4 5 9 10 7 9 9 6 4 2 7 8 9 12 17 15 16 21 24 22 27 36 39 43 45 52 58 59 58 58 62 73 76 81 95 101 111 119 126 125 132 138 135 136 139 140 138 139 139 150 148 146 144 140 139 135 134 132 131 125 121 110 99 95 93 88 85 77 69 64 64 60 62 56 55 54 49 47 46 39 40 36 35 32 28 27 25 22 18 17 14 11 10 9 10 12 12 11 14 11 10 9 9 8 10 12 16 15 16 19 22 26 26 31 35 34 35 45 52 58 57 57 62 70 75 82 88 98 101 112 118 125 126 131 136 136 138 139 140 139 138 149 147 145 141 142 138 134 130 131 124 115 113 104 95 97 100 89 82 75 66 68 65 66 60 56 53 50 47 45 46 41 44 40 37 33 33 30 28 24 22 21 18 16 14 16 16 17 19 18 20 18 19 19 15 15 19 21 23 26 23 23 29 33 32 34 37 32 33 38 45 49 53 56 57 63 73 75 85 93 98 101 108 117 123 126 133 138 138 138 140 138 139 149 145 141 140 139 135 130 127 127 119 111 108 101 99 101 97 90 80 74 68 68 68 66 60 53 52 49 47 51 48 45 46 43 43 38 37 35 32 27 28 24 21 24 22 24 25 25 27 26 28 26 25 26 25 24 30 30 33 31 31 32 34 36 37 40 37 39 37 38 41 41 46 52 52 56 64 73 78 82 94 99 101 104 115 121 125 133 136 138 138 139 139 147 144 140 136 136 132 125 130 126 117 108 106 100 100 99 94 81 76 68 67 67 65 58 55 51 53 52 52 54 52 52 53 55 54 52 52 47 46 44 43 42 37 34 31 34 33 33 36 34 35 33 33 32 34 34 37 38 39 38 37 36 39 40 42 44 46 45 40 39 41 41 41 43 49 54 59 65 76 77 84 95 99 103 102 111 121 125 130 133 138 137 138 144 141 138 136 133 126 131 128 118 113 106 97 95 106 99 88 79 72 69 70 70 59 56 56 56 56 58 58 67 68 70 71 70 72 69 69 66 68 66 65 65 61 57 51 49 47 41 42 41 42 43 40 42 43 42 45 46 45 44 44 42 43 45 47 50 50 52 48 43 39 45 42 44 46 53 58 63 67 78 83 84 96 100 100 101 111 120 124 130 134 137 135 141 138 137 132 131 130 127 124 117 111 104 100 102 102 88 79 72 70 69 68 65 62 61 65 65 66 69 78 83 83 88 87 88 89 90 89 84 84 80 80 81 78 73 69 66 63 58 55 50 50 48 51 50 51 52 50 53 54 52 53 52 53 54 54 57 56 55 52 53 46 50 46 48 52 52 56 64 69 73 82 82 91 96 98 99 103 108 114 123 130 132 133 140 138 133 130 133 131 125 123 113 110 105 105 100 92 83 75 74 72 73 70 65 67 68 71 75 81 92 100 100 102 105 106 103 107 108 107 99 101 95 94 93 92 87 83 81 80 76 72 67 61 57 58 57 58 60 60 59 61 62 60 59 61 59 59 60 62 60 59 62 54 52 57 54 52 59 58 64 72 74 83 86 89 92 95 97 100 104 106 108 124 130 131 135 136 131 134 133 130 127 122 115 107 104 101 96 86 80 78 75 79 75 69 73 75 76 86 92 105 115 120 121 127 126 126 120 120 119 116 111 112 111 109 110 106 103 100 97 96 93 90 87 78 69 66 67 66 66 68 67 70 68 67 64 67 66 64 64 65 64 63 65 66 62 62 63 59 63 63 65 69 80 78 86 90 89 94 94 99 101 102 104 108 123 129 135 135 134 135 133 129 127 120 112 104 104 102 89 85 84 83 81 77 77 78 83 84 93 105 115 125 132 138 141 144 143 139 135 129 127 125 124 126 124 122 120 121 114 112 109 108 108 103 98 94 90 80 80 80 81 81 77 79 76 74 73 73 72 71 72 72 69 68 69 71 69 70 66 66 66 64 69 70 72 83 83 89 91 93 93 97 100 99 101 106 108 116 133 134 136 136 133 125 118 112 108 108 108 95 88 88 91 84 85 83 84 89 91 104 114 127 135 143 151 153 153 157 156 150 146 143 137 136 136 136 136 132 132 132 127 125 122 118 118 115 111 108 105 99 91 92 90 91 91 91 89 85 87 84 83 83 80 78 76 71 70 74 74 75 71 68 71 70 69 75 69 79 92 92 92 92 90 95 100 101 100 103 107 110 134 136 139 136 131 118 114 112 110 111 106 97 93 91 91 93 91 90 94 97 111 125 134 144 153 159 161 163 162 166 166 165 164 159 153 153 148 143 146 144 143 139 137 136 134 131 127 125 122 120 114 110 104 100 99 101 100 99 98 94 94 92 91 91 88 88 83 81 75 75 75 78 84 75 76 74 75 74 77 78 85 94 96 95 92 91 98 102 103 102 103 108 137 138 136 131 126 115 112 108 111 114 107 102 97 93 98 98 97 98 104 115 130 140 150 158 166 166 169 170 171 176 178 173 172 172 168 165 160 154 155 151 150 146 144 143 141 140 137 135 129 127 122 117 115 107 105 107 108 107 107 103 102 99 96 97 93 94 91 85 82 78 77 77 83 83 83 80 79 80 82 78 84 92 98 98 96 94 93 99 104 105 102 106 135 132 131 128 119 109 106 108 118 115 105 105 101 99 103 101 102 108 115 132 142 151 166 169 172 174 177 179 179 183 181 181 178 178 178 175 167 163 161 154 152 147 149 146 147 145 143 141 138 134 127 127 124 118 114 114 114 113 113 110 107 106 101 102 99 97 96 90 85 82 81 79 85 84 88 86 82 83 83 83 79 90 98 100 97 98 94 96 99 107 105 103 129 133 131 122 114 107 106 117 119 112 106 111 104 103 108 111 111 115 128 147 158 166 179 180 182 184 185 187 186 185 185 185 185 185 182 180 178 174 169 163 154 153 150 148 148 147 145 144 142 138 135 132 129 125 119 117 116 115 114 112 111 111 108 107 106 101 100 95 90 84 85 81 87 90 89 92 85 84 85 89 81 85 95 98 101 98 95 94 96 104 106 104 131 129 126 120 109 105 112 120 112 109 116 114 105 109 115 116 118 128 146 159 170 180 186 189 188 196 190 189 190 188 189 191 192 189 185 185 181 179 177 171 165 161 154 152 146 145 146 145 142 143 139 138 131 127 119 119 118 117 115 113 111 110 109 109 109 108 103 103 96 92 90 83 88 95 93 94 90 89 93 91 88 84 90 100 103 100 96 91 94 98 104 106 131 127 122 116 110 111 115 116 113 120 122 112 110 120 122 117 127 142 160 171 181 186 192 198 195 200 195 191 192 193 193 194 191 189 185 185 182 179 178 173 171 167 161 156 153 148 145 141 139 137 136 133 130 125 118 117 116 115 112 112 110 110 109 109 109 108 106 108 101 94 96 91 91 93 100 95 95 92 97 90 87 87 88 98 107 106 100 92 91 91 101 108 129 124 117 121 114 111 113 113 119 118 117 113 120 124 125 126 140 157 178 184 185 192 198 198 197 196 198 196 195 195 198 195 191 189 188 183 179 180 176 171 168 166 162 157 153 150 143 138 134 133 130 128 123 121 118 114 113 111 111 109 109 107 107 108 107 106 107 106 105 100 97 94 94 95 98 97 95 92 96 94 83 86 88 95 110 111 104 94 90 89 96 105 126 118 122 121 111 114 111 118 120 120 114 119 126 126 133 139 155 173 186 187 191 197 201 198 198 201 201 195 194 196 194 192 190 186 185 180 179 178 172 171 166 165 160 156 153 148 143 140 135 133 130 127 121 117 117 112 111 110 108 107 104 104 101 103 103 100 104 99 99 104 103 97 97 97 99 103 100 97 96 94 93 85 86 95 107 117 105 95 91 92 94 100 123 121 122 116 113 114 110 121 121 123 122 125 132 137 141 153 169 184 192 195 203 204 205 204 202 205 203 197 196 193 190 185 186 184 179 180 177 176 169 167 164 162 157 156 154 149 144 139 136 135 131 127 120 119 115 115 108 109 104 103 103 102 100 99 97 98 97 95 97 99 101 99 98 95 100 107 104 101 99 96 92 90 89 94 103 111 109 100 90 91 94 98 123 126 124 116 117 109 116 124 126 128 128 130 136 138 147 163 180 192 199 206 207 208 209 208 206 203 201 195 193 193 190 184 182 180 178 178 176 171 168 165 163 160 154 154 149 150 145 141 136 134 130 128 121 117 114 114 109 105 102 101 102 101 98 95 93 93 94 88 92 96 101 102 100 100 99 106 105 104 103 101 96 91 91 99 105 107 105 103 94 90 95 97 121 132 123 120 118 115 120 131 130 133 130 129 137 145 153 173 187 199 205 209 208 211 211 209 204 201 203 197 194 193 187 184 180 180 176 174 170 169 167 164 163 159 153 151 148 146 145 140 136 134 130 125 122 118 115 110 106 103 102 100 99 97 97 94 91 90 90 88 88 91 98 103 104 102 102 102 107 109 104 104 93 95 93 94 108 106 108 100 94 94 96 96 130 132 124 124 119 121 128 134 133 134 127 133 141 152 164 182 195 204 208 208 209 211 211 204 203 201 201 195 189 188 185 180 180 179 174 172 168 166 166 163 163 160 155 151 147 145 142 140 136 135 129 125 120 116 111 108 104 101 101 99 98 98 94 94 90 91 89 89 87 89 94 100 108 107 104 102 106 110 111 105 98 98 100 97 105 111 114 105 93 94 97 98 140 132 123 126 123 127 132 137 136 132 127 141 150 165 176 188 202 205 209 207 209 208 204 202 198 195 192 186 180 179 177 174 172 171 167 165 164 161 161 159 161 160 156 154 150 145 144 139 138 135 128 123 119 116 113 111 106 101 101 102 98 99 94 93 91 89 87 84 84 86 89 98 104 111 107 105 105 111 115 111 105 101 103 110 105 112 113 113 96 95 97 99 144 130 125 128 126 134 136 140 136 131 137 147 162 175 182 196 206 204 206 204 205 203 199 196 190 185 181 178 173 169 166 166 164 163 160 160 158 159 160 158 160 161 157 155 153 148 148 144 142 138 131 126 126 122 119 115 109 105 102 101 100 98 95 93 91 87 83 85 84 85 88 94 99 107 113 107 107 113 117 115 111 107 104 111 117 111 111 111 102 98 100 100 140 131 129 132 133 139 139 140 138 139 147 158 174 180 191 199 205 204 203 200 199 195 190 184 178 175 174 170 168 166 165 163 163 161 162 159 158 156 159 158 157 160 160 159 156 154 153 149 148 142 137 133 130 127 124 120 116 113 108 107 106 102 97 95 90 87 85 83 83 84 85 91 95 102 110 110 109 112 118 115 110 113 112 114 123 109 107 112 104 104 105 104 136 133 132 135 138 138 144 143 142 140 151 169 179 189 195 199 200 198 196 192 189 182 179 170 164 159 159 157 157 156 156 159 159 159 157 160 158 158 161 160 159 160 162 162 159 158 157 152 151 146 144 140 137 134 132 128 126 121 118 114 109 105 101 99 95 95 92 90 87 86 87 88 95 100 107 111 112 115 118 120 109 113 119 119 118 113 110 112 110 103 108 106 131 135 136 141 142 143 151 148 142 140 159 175 184 193 195 194 193 193 190 181 176 169 160 152 146 144 140 140 142 143 143 145 148 152 151 154 156 155 158 161 161 162 161 160 158 158 157 152 151 149 146 145 143 139 138 134 132 131 127 122 116 109 102 97 97 102 90 95 92 88 92 93 94 100 106 112 111 118 123 119 116 118 120 126 118 110 112 110 112 108 108 107 135 137 141 143 144 147 154 146 140 143 169 182 187 191 188 186 189 192 189 177 172 161 150 142 136 135 135 133 133 131 132 131 132 136 135 140 140 142 145 151 153 155 156 153 156 154 152 151 149 150 148 145 145 143 140 138 134 135 133 129 120 114 102 97 100 101 97 95 95 92 97 95 102 101 103 110 114 116 126 121 115 123 121 126 121 111 113 109 113 108 108 106 142 140 140 137 144 152 153 149 142 154 177 184 188 189 183 184 188 192 183 173 167 155 143 138 134 134 134 129 128 124 124 126 129 127 128 127 128 127 130 132 141 143 145 142 146 146 146 146 147 150 148 148 144 142 138 137 134 131 132 125 121 114 102 96 98 100 98 97 94 94 97 93 101 102 102 101 114 118 120 125 112 120 122 121 120 118 114 112 110 106 108 109 145 139 134 132 144 158 154 151 143 164 183 187 189 188 187 190 190 186 180 174 166 160 153 142 132 131 126 124 121 118 119 122 124 123 126 125 126 125 126 125 127 132 133 134 137 138 138 140 144 145 145 146 143 139 133 132 130 123 124 121 117 108 102 96 92 96 94 92 91 88 92 91 97 103 107 102 107 115 120 119 121 119 123 121 115 116 111 109 111 111 107 110 144 129 131 139 146 162 153 153 144 176 193 195 192 195 192 189 183 177 176 168 164 158 159 150 142 132 125 124 120 119 118 118 121 119 118 122 123 123 125 125 124 125 126 131 132 133 133 136 138 140 140 138 136 132 126 123 121 118 112 110 107 102 99 95 90 88 91 91 89 89 88 92 93 99 101 107 105 106 115 117 120 116 122 120 118 115 111 106 111 114 112 110 140 133 131 141 152 163 157 148 146 183 201 196 195 194 191 189 179 182 181 171 168 164 160 153 145 140 132 124 124 122 120 122 121 120 118 120 120 122 125 125 124 126 127 129 129 131 133 133 133 137 133 129 129 127 124 121 118 118 113 109 106 103 100 95 93 89 88 89 87 86 85 90 94 94 96 100 104 103 108 118 120 113 123 125 118 117 108 111 110 114 114 113 136 140 136 138 152 162 155 144 156 197 202 199 197 198 193 188 181 180 179 170 167 160 153 150 143 142 138 132 130 124 120 119 121 119 118 119 120 123 125 128 127 127 129 131 130 130 132 132 133 131 127 126 125 123 121 119 116 118 114 112 108 107 103 101 100 95 92 85 84 86 86 88 96 101 100 94 104 113 114 122 123 117 126 130 121 112 112 113 108 114 112 120 138 139 133 130 149 155 152 147 172 201 206 200 201 202 199 196 182 183 176 166 166 160 155 146 143 140 140 137 136 135 129 127 127 129 127 127 127 127 129 129 131 131 131 134 135 135 132 131 130 129 123 122 119 120 118 119 115 118 116 114 112 109 106 105 107 108 101 100 94 90 87 91 95 95 102 97 100 124 118 119 129 126 134 135 125 111 109 108 110 113 110 121 145 138 131 134 142 146 151 155 179 196 204 204 207 202 195 188 176 170 157 153 155 156 153 151 151 145 146 139 135 136 135 130 130 131 130 131 130 129 131 132 136 136 135 140 140 140 137 134 132 128 125 122 119 117 116 117 118 118 117 117 112 103 109 105 106 104 102 103 97 82 79 87 91 81 91 100 94 117 122 110 123 126 134 137 132 111 98 102 104 110 111 119 140 139 143 137 136 138 151 161 190 199 211 207 209 201 199 195 181 170 158 157 152 150 149 148 149 150 152 146 142 141 141 134 133 135 134 134 133 136 138 137 141 145 146 152 153 154 144 141 136 129 127 125 123 115 119 120 119 119 117 118 107 105 109 112 111 109 106 101 89 77 76 89 85 80 83 95 81 103 112 111 122 125 128 130 137 109 79 91 96 102 106 118 139 142 148 134 123 127 143 166 192 202 215 209 220 207 203 191 172 164 149 144 137 137 142 148 147 155 153 150 151 149 150 146 138 135 135 135 133 140 140 140 145 148 147 153 158 156 145 140 133 128 128 129 127 125 129 127 128 126 118 125 124 115 121 117 120 116 110 115 102 90 83 87 88 82 81 86 66 85 96 102 124 132 130 122 129 101 71 81 88 93 100 113 147 147 142 130 121 131 141 177 193 212 215 220 223 210 201 184 166 157 144 142 134 144 155 163 154 155 146 139 140 137 138 135 131 136 130 132 134 137 138 137 145 150 149 159 162 162 149 142 137 130 127 130 132 131 128 125 121 126 120 126 124 121 126 125 124 120 112 113 104 102 95 85 84 83 82 87 71 64 89 93 120 128 119 122 114 93 65 70 86 87 98 104 156 147 145 122 122 134 143 192 206 215 214 226 218 205 189 178 167 156 146 146 150 158 168 169 151 146 139 136 139 135 132 132 129 133 128 128 136 138 137 139 148 148 149 160 167 165 155 143 139 134 126 121 130 128 128 127 124 126 129 126 128 122 125 119 118 119 117 108 109 112 101 87 78 76 74 76 75 69 90 100 118 117 111 107 102 82 60 62 81 87 88 102 154 147 137 119 128 149 139 194 208 218 216 230 222 213 197 181 170 165 161 160 165 168 171 168 153 147 143 137 132 126 123 122 118 124 118 126 133 143 141 144 147 148 151 167 172 169 162 152 144 138 125 124 118 122 124 128 125 124 124 118 117 118 121 116 111 116 119 113 109 107 102 93 78 75 69 71 73 72 82 100 113 113 105 89 83 62 51 59 72 83 80 100 156 143 130 112 127 149 148 195 209 220 224 238 230 210 201 188 189 185 175 171 169 172 181 180 155 150 140 135 131 126 122 119 119 121 119 127 140 148 148 150 148 152 149 159 165 159 156 145 142 133 127 120 115 117 124 127 124 127 122 114 116 109 113 112 108 112 113 110 104 98 97 89 83 71 69 64 65 65 79 91 107 101 103 77 74 55 47 49 65 78 77 94 158 134 125 112 120 143 163 193 217 221 223 236 239 229 213 209 208 192 184 183 174 174 178 176 159 138 133 135 131 132 131 140 142 137 133 132 145 150 152 152 157 156 157 159 161 155 152 141 138 134 128 119 108 106 119 119 133 130 125 116 115 108 103 107 109 103 95 98 96 94 91 89 79 71 62 61 61 67 73 86 101 98 92 70 72 51 45 43 54 72 74 89 155 132 126 112 108 133 177 190 222 225 232 235 236 232 225 220 210 197 190 178 166 170 166 165 158 153 129 133 138 141 140 152 153 141 149 148 151 156 159 160 162 163 163 162 161 153 152 143 137 129 127 114 105 103 112 119 129 131 118 109 108 106 105 109 94 92 87 80 89 90 91 87 78 71 64 63 60 60 67 83 95 94 85 63 72 50 40 43 47 64 67 86 154 134 129 125 116 128 184 197 231 234 239 242 233 229 226 223 213 200 187 182 172 172 164 161 161 161 151 146 147 146 144 145 149 145 144 158 156 159 167 166 168 167 171 169 163 157 152 146 138 129 122 111 110 110 109 120 125 129 124 102 111 110 105 110 93 85 85 83 89 87 91 92 78 69 68 76 65 58 65 82 95 93 84 65 70 50 42 43 54 61 68 79 159 135 130 123 122 129 176 198 227 236 237 243 234 229 226 225 217 202 195 194 182 183 177 168 162 158 158 152 150 151 149 147 144 144 145 168 164 171 170 166 161 165 171 164 155 151 147 151 142 137 127 117 117 120 120 125 138 142 141 122 125 122 117 111 96 86 80 92 97 94 90 89 79 72 68 78 63 61 76 80 91 87 75 62 64 48 38 36 55 59 68 77 158 132 117 119 127 129 179 198 221 234 239 247 235 229 230 227 214 205 203 190 194 191 182 174 167 171 162 156 158 155 152 143 142 145 152 164 177 172 175 169 163 164 164 159 153 149 150 146 131 132 128 120 122 121 123 131 140 149 142 132 128 117 108 105 100 92 87 93 99 90 88 90 83 71 64 70 62 63 73 81 84 80 70 56 62 44 25 25 41 57 65 75 150 122 113 115 125 141 185 199 213 226 243 251 240 230 231 222 219 213 209 200 201 200 196 192 183 180 178 165 161 158 153 150 148 149 154 165 173 168 169 164 167 160 161 161 152 151 146 137 130 129 127 126 123 122 125 132 136 134 135 134 126 113 108 107 101 90 80 83 84 85 82 83 76 71 67 66 58 60 70 88 83 79 65 55 58 37 11 14 28 55 64 75 138 117 104 111 127 145 191 213 213 222 245 255 238 232 230 219 217 211 207 203 201 198 201 194 191 185 181 171 166 162 163 161 163 160 167 171 177 170 167 163 169 161 154 156 152 146 146 132 125 124 124 122 119 120 128 129 133 129 130 130 119 113 115 114 100 93 80 80 78 78 76 76 72 76 70 71 60 61 72 90 89 76 59 55 49 43 7 16 30 57 69 76 133 110 98 124 134 149 184 215 225 211 242 252 231 229 225 219 217 211 208 200 199 193 196 193 193 192 189 185 180 175 173 170 167 169 175 172 171 172 163 156 165 162 152 146 149 141 142 130 116 111 114 119 117 117 121 129 134 136 130 123 117 111 107 104 101 93 82 75 74 76 76 78 74 73 71 74 62 68 72 94 92 73 60 65 48 51 17 35 40 53 69 76 134 99 105 128 141 153 185 216 232 213 236 251 225 220 224 223 221 213 209 204 197 198 200 202 200 198 191 187 186 183 181 176 172 176 179 168 172 169 161 156 168 161 148 144 143 141 135 128 110 108 107 118 115 110 113 123 128 134 133 126 122 114 109 104 101 95 86 82 75 75 75 73 76 74 70 73 71 76 74 90 94 65 63 65 55 55 35 43 40 49 63 79 127 113 115 132 141 156 180 209 228 227 234 249 228 221 224 221 219 214 211 207 199 197 201 202 198 199 195 191 188 186 185 176 173 174 173 177 175 165 162 161 161 155 143 142 135 132 128 127 111 108 101 106 111 112 117 120 123 136 137 134 131 120 112 106 103 103 96 92 88 86 85 82 85 82 77 79 80 82 77 89 93 67 69 74 70 56 43 40 36 51 60 82 127 120 115 138 143 154 166 196 220 231 226 244 230 222 221 224 216 215 212 206 201 195 201 201 195 197 195 190 187 182 179 175 166 170 179 174 162 152 161 162 152 150 148 144 135 126 121 127 112 109 98 96 105 108 112 118 122 130 135 135 131 126 113 108 107 102 102 97 94 97 97 94 95 90 85 86 88 91 79 89 90 63 64 78 72 58 51 46 41 49 65 78 136 129 118 133 149 154 159 187 212 233 210 239 231 215 213 220 215 212 207 202 200 197 200 199 194 193 188 183 180 176 167 166 166 173 173 162 157 155 163 159 146 143 149 144 136 127 123 128 118 110 97 93 97 102 107 113 121 125 127 131 131 125 119 111 111 109 107 112 105 108 105 104 102 96 95 95 94 98 83 93 85 56 61 68 57 59 67 48 42 51 66 77 139 146 129 121 149 156 153 180 202 222 212 224 219 212 213 211 208 209 200 197 196 199 194 195 192 185 180 177 171 167 162 163 164 167 161 154 152 159 158 161 152 139 143 140 132 128 124 120 116 109 103 94 94 98 107 109 115 119 124 125 131 125 119 113 111 112 108 114 116 113 111 109 107 103 101 97 98 103 86 92 80 63 61 56 47 59 67 51 37 50 69 80 134 160 139 120 139 151 157 181 199 221 215 223 216 199 206 211 208 204 197 194 194 189 190 188 185 176 173 172 168 161 159 155 159 157 153 149 147 157 165 161 155 143 143 141 138 131 127 123 123 121 107 101 96 100 103 108 112 118 121 125 127 122 117 115 112 114 112 117 119 116 113 111 107 107 105 101 99 102 90 86 84 67 63 51 45 50 62 46 40 54 73 79 121 152 145 127 135 138 158 173 197 212 228 223 209 203 197 203 204 201 193 189 186 184 182 180 179 172 166 162 160 149 148 153 153 149 146 138 143 155 159 154 158 151 145 143 137 133 132 129 127 124 115 107 99 99 102 110 117 119 125 125 124 122 116 114 109 111 111 113 112 111 115 112 111 110 106 103 98 100 94 83 92 71 58 49 47 42 44 38 46 58 69 80 118 136 140 124 132 133 151 175 194 207 223 226 213 203 199 197 199 197 191 186 184 182 175 175 171 168 163 157 154 146 148 152 144 142 136 135 145 154 148 151 155 153 153 148 143 138 137 133 127 120 118 113 103 99 101 113 115 122 124 129 128 120 116 109 108 106 107 111 111 109 113 112 112 114 108 103 98 103 93 88 87 67 60 49 47 47 40 34 52 57 68 81 119 135 143 117 135 133 146 178 187 204 210 216 213 207 204 202 193 193 191 184 180 179 176 173 169 164 160 154 155 148 148 149 141 135 131 139 148 153 146 152 151 152 154 152 145 143 140 139 130 122 122 116 108 109 101 111 117 123 124 129 128 125 116 114 109 105 101 107 106 107 106 108 112 114 109 103 99 94 91 84 83 71 61 49 39 47 43 39 51 68 76 80 111 127 138 122 130 133 143 177 176 193 198 197 208 209 208 202 194 188 186 179 176 175 175 174 169 167 163 157 158 151 147 145 138 131 136 147 147 151 149 153 156 150 152 147 149 148 144 141 135 131 124 115 113 115 105 105 110 121 127 131 131 130 119 112 112 108 106 103 104 101 96 102 107 110 100 101 90 90 87 80 78 71 61 56 45 42 47 42 56 82 82 82 106 110 142 129 134 150 143 169 173 182 188 193 198 207 206 204 195 187 184 175 176 173 175 172 167 167 166 160 156 155 149 141 139 135 143 148 147 148 148 156 152 148 149 146 149 153 149 148 141 133 124 114 112 113 112 109 116 121 130 132 132 129 128 124 116 113 110 107 105 103 102 104 110 111 101 96 93 84 80 80 70 64 62 59 46 38 51 49 67 85 90 86 107 101 132 135 135 151 139 160 171 177 188 187 197 205 201 200 192 187 183 177 173 174 176 173 170 169 166 163 160 155 144 140 144 143 147 145 141 136 141 146 143 143 151 150 152 150 149 149 140 129 122 118 114 117 117 115 114 122 124 127 127 127 124 121 121 115 111 103 103 101 99 96 100 98 90 94 86 87 78 73 64 54 62 56 41 43 55 59 72 89 89 86 116 103 119 131 137 149 139 153 169 175 189 192 192 200 202 199 193 186 185 180 176 177 175 174 172 167 166 166 162 154 143 145 152 147 143 144 137 133 129 132 126 135 144 143 141 147 147 141 130 117 110 115 125 123 123 122 120 126 122 122 122 123 124 124 121 115 111 107 108 104 102 97 96 93 86 80 78 82 75 71 54 56 58 52 34 52 64 68 76 90 89 85 117 119 109 131 138 146 137 154 167 172 184 190 190 193 200 195 192 187 186 180 179 175 176 172 171 168 163 166 160 155 151 144 153 152 141 135 134 132 121 127 125 128 131 131 127 133 139 138 118 108 109 108 115 119 121 124 124 121 121 121 121 125 124 120 114 111 110 108 107 104 98 99 89 86 81 77 75 77 72 69 55 53 52 42 39 69 67 77 77 89 91 91 116 118 109 132 138 139 133 147 169 175 184 181 187 191 199 194 191 188 188 184 182 178 174 171 169 165 162 161 156 158 156 153 154 149 140 135 131 134 133 129 125 125 125 124 123 122 129 126 118 110 108 109 106 107 116 122 122 110 109 105 109 114 115 112 110 104 105 105 97 95 93 90 83 79 77 74 69 69 65 66 53 46 48 47 50 68 75 80 75 91 94 99 114 112 107 132 137 138 123 143 167 177 192 175 183 189 197 193 192 192 189 185 183 176 171 171 168 166 162 159 155 158 157 162 157 147 137 137 136 136 138 140 136 130 121 119 119 120 123 117 114 106 101 100 98 105 117 125 124 116 112 105 103 108 112 110 105 105 104 99 92 92 92 89 80 73 73 68 68 61 60 62 50 42 55 55 55 62 70 74 76 92 95 101 112 106 107 122 138 138 126 141 169 172 194 176 185 187 192 194 192 189 189 186 178 172 170 166 164 163 158 159 159 159 159 163 159 146 140 136 137 137 139 147 143 136 129 122 118 121 120 121 116 109 105 103 103 106 117 120 125 117 114 104 103 105 109 108 97 100 102 97 92 92 87 86 76 68 68 64 65 58 56 58 50 55 65 58 50 59 60 71 82 92 96 103 119 106 107 122 124 141 137 149 183 176 193 178 187 188 193 196 192 189 191 186 177 173 169 167 159 160 155 157 161 162 164 157 154 151 143 141 142 143 141 147 145 139 133 127 122 116 117 118 114 115 116 112 111 106 114 114 118 113 109 106 107 103 105 106 100 96 98 96 90 88 83 81 76 69 64 61 62 56 57 54 54 65 63 53 45 57 61 75 84 92 98 104 124 113 110 122 119 130 135 150 189 189 187 186 186 189 197 194 193 193 193 184 175 172 165 160 157 160 159 162 163 163 160 152 150 148 146 147 145 146 149 151 144 141 134 127 127 120 120 119 118 116 118 117 113 109 108 109 110 107 103 103 105 105 105 105 106 97 96 94 87 82 79 77 73 64 59 57 55 56 58 54 55 64 63 57 48 57 68 78 82 91 98 103 129 121 114 122 129 115 130 153 191 188 187 183 189 188 195 195 194 196 190 181 173 170 161 157 157 163 163 167 163 160 157 154 155 151 149 148 147 142 144 150 143 136 134 129 124 121 124 123 118 115 113 112 105 102 105 107 105 106 105 102 105 105 107 108 106 99 95 92 85 80 77 72 64 61 55 52 53 56 53 57 52 55 60 57 51 59 72 81 84 95 96 107 134 130 120 119 121 114 111 147 186 190 188 187 190 191 195 198 199 197 186 179 171 163 157 157 164 166 169 168 161 157 159 159 161 160 148 144 148 142 144 147 138 139 137 132 128 121 122 123 120 116 112 112 105 103 105 108 111 110 108 104 108 110 110 110 107 102 95 91 86 78 74 70 61 57 52 48 56 52 51 55 50 52 55 56 56 60 73 78 94 98 98 116 126 132 126 121 116 116 103 123 181 192 193 195 193 193 195 195 199 196 183 180 170 166 158 157 162 163 169 166 156 159 159 159 162 158 149 146 145 143 138 143 140 145 145 141 136 130 129 130 127 121 119 117 112 110 111 115 115 115 112 107 108 113 112 111 107 98 96 87 82 79 73 71 61 56 53 52 58 52 53 56 52 54 57 59 61 64 70 85 99 104 106 123 121 125 126 125 118 105 102 102 167 200 195 203 197 197 198 197 197 195 184 182 174 166 161 158 160 158 157 153 153 153 150 151 153 151 143 144 141 137 135 135 136 136 140 137 132 126 123 129 123 121 120 118 118 116 118 122 121 114 115 111 110 111 110 104 107 100 92 88 81 79 71 68 63 55 53 54 56 50 59 58 57 58 63 61 64 67 80 98 106 110 113 123 128 124 125 124 121 111 95 95 146 187 196 209 202 196 198 195 197 194 186 183 177 172 162 156 151 149 142 129 126 126 130 131 138 144 136 134 135 131 128 124 126 127 127 123 120 114 113 118 115 113 116 110 114 114 116 119 113 110 113 114 112 113 112 102 103 98 95 90 78 78 71 68 62 55 52 56 52 53 63 62 66 65 71 68 75 86 98 107 110 113 120 121 137 129 126 122 122 118 99 86 124 168 189 204 199 196 197 193 198 192 186 182 176 172 160 156 148 145 131 119 111 107 118 122 125 131 129 125 127 124 118 112 117 118 113 110 109 103 103 105 100 99 104 99 105 111 112 112 111 111 110 111 109 109 112 106 100 97 98 91 82 73 71 67 59 56 56 61 52 58 66 68 68 71 78 83 98 103 105 116 118 119 120 119 138 137 133 125 123 124 111 87 108 158 185 195 193 193 192 194 195 196 183 182 177 171 161 158 156 151 139 133 126 117 124 127 127 131 130 131 125 127 120 112 119 119 108 103 107 107 99 90 82 86 88 85 87 97 102 107 109 109 113 107 103 107 109 107 104 98 96 90 86 74 72 68 61 58 59 63 53 60 67 69 68 74 83 100 111 109 112 118 121 120 118 118 141 139 137 131 128 127 120 100 101 150 179 190 194 189 193 192 198 194 187 183 180 173 172 163 161 153 149 145 142 138 130 135 125 129 129 132 130 134 136 130 133 127 119 111 121 123 112 100 90 91 86 85 91 92 93 96 97 100 105 105 99 101 107 101 105 94 94 92 91 80 71 67 63 62 65 61 53 63 63 67 70 78 88 108 111 112 114 120 120 118 118 120 137 138 137 135 130 129 124 113 106 137 174 188 193 193 197 194 196 194 182 182 181 178 176 171 165 162 157 154 150 145 140 134 128 127 131 131 139 130 136 136 140 139 128 123 128 135 127 117 114 113 107 100 100 93 92 86 83 83 87 99 99 102 103 98 100 95 93 95 89 78 74 67 65 62 67 55 56 66 64 71 71 79 93 108 113 114 119 115 117 120 120 118 131 134 138 135 132 129 125 118 109 124 168 182 189 194 193 199 192 193 183 179 180 179 175 171 170 175 167 161 154 149 142 132 135 133 139 134 141 139 138 139 138 135 130 126 133 137 128 122 122 119 110 101 93 87 86 79 73 69 76 89 88 93 96 91 92 97 92 93 85 77 72 66 60 61 65 52 59 65 68 70 75 83 94 108 109 116 117 112 117 120 121 119 133 130 135 136 130 130 118 116 111 120 152 178 188 198 191 192 195 194 176 176 179 177 176 174 173 175 166 168 154 147 145 136 132 130 137 132 135 136 137 144 142 141 134 126 131 128 125 118 115 116 100 93 89 83 78 73 69 74 82 85 81 83 90 90 86 90 88 84 80 75 64 62 58 61 58 49 60 65 68 68 79 83 97 107 108 114 116 112 116 118 124 122 135 133 130 130 134 127 111 112 109 108 138 174 185 195 197 185 189 191 178 174 175 174 174 167 168 172 166 162 153 145 139 137 137 133 132 123 127 128 123 134 131 127 123 118 113 111 107 103 98 101 96 94 89 85 84 77 76 78 84 83 79 76 81 83 85 84 80 79 73 72 62 56 55 60 51 46 59 65 69 68 81 84 97 105 108 114 116 112 114 119 125 123 132 131 127 127 131 120 106 113 105 104 128 163 183 191 200 179 187 190 184 177 173 173 170 163 165 165 161 162 152 149 150 148 145 137 129 127 124 129 121 126 119 118 115 110 102 101 95 96 93 91 93 90 90 92 96 89 87 89 87 81 76 71 68 77 78 81 75 72 66 64 58 53 53 55 45 45 55 67 70 70 81 86 100 103 112 115 113 113 111 119 125 121 123 127 123 126 123 112 104 109 108 102 115 147 178 188 202 182 182 186 187 177 173 174 169 165 164 166 161 164 156 155 156 153 144 134 128 121 117 118 115 117 116 112 109 100 99 95 92 89 90 87 87 85 86 88 89 90 86 84 81 75 71 70 69 72 72 72 70 66 60 55 54 48 49 49 44 43 58 68 72 69 80 91 102 107 112 114 112 113 112 119 122 121 122 120 118 123 113 105 106 106 108 102 109 138 166 183 200 184 180 183 190 179 176 173 169 165 162 166 162 156 157 157 155 150 144 137 128 121 113 113 115 112 107 105 100 96 98 96 92 93 89 89 85 82 81 86 85 85 85 80 77 70 65 68 67 69 67 64 61 58 53 49 50 46 43 43 42 43 59 68 69 70 81 97 103 109 112 112 113 113 113 115 119 118 120 118 119 114 107 106 106 104 107 103 111 128 155 172 192 182 180 178 191 184 173 175 172 166 165 163 162 158 158 159 158 148 139 128 125 115 113 107 109 100 100 96 92 93 93 94 91 95 91 89 87 79 79 79 80 82 86 80 73 66 63 63 64 67 64 58 54 51 47 46 46 42 36 40 40 42 56 68 70 67 86 98 105 106 112 115 110 112 113 112 115 118 116 118 116 111 107 105 105 101 106 110 108 124 149 157 184 174 179 172 186 190 173 173 171 166 165 164 160 160 162 158 157 147 138 125 117 108 108 103 99 96 93 96 94 94 90 88 88 88 87 84 81 79 74 74 79 80 83 76 70 61 61 63 62 61 61 52 50 48 47 44 45 36 32 36 35 41 53 68 69 68 93 100 104 105 111 115 108 112 113 111 113 116 116 116 112 110 106 107 102 104 109 112 114 124 144 148 171 171 175 171 177 190 180 176 174 169 165 165 162 163 161 161 155 148 135 123 118 114 106 98 90 88 87 86 89 86 86 84 85 84 81 77 77 76 72 72 74 75 75 71 65 56 60 58 56 58 55 50 50 48 44 42 40 31 30 31 35 36 51 66 61 76 96 102 104 107 111 107 111 111 112 115 114 114 114 114 111 107 109 108 103 101 111 112 118 125 134 145 164 165 167 168 172 183 184 174 177 172 171 169 166 167 165 164 159 151 138 131 127 116 109 99 89 86 80 82 81 81 82 82 81 79 75 73 72 72 70 69 71 69 68 63 64 57 56 56 53 51 50 47 46 48 42 36 34 30 22 31 31 36 50 59 62 79 95 100 100 105 104 103 105 107 109 113 116 112 107 109 104 105 108 107 96 99 108 110 119 127 125 141 153 155 159 165 165 175 183 175 176 179 173 172 169 174 171 168 163 161 149 138 136 118 112 106 99 93 86 83 82 81 82 79 75 75 73 72 71 69 67 67 67 62 60 59 59 58 54 55 52 50 50 50 48 44 40 32 32 25 21 26 27 36 46 54 61 77 91 93 93 94 95 98 95 99 102 105 107 106 105 105 103 105 107 105 91 96 107 109 123 128 124 132 147 150 157 159 159 165 177 173 174 177 179 176 179 176 178 177 173 170 159 152 140 128 120 116 110 105 100 97 93 92 92 88 85 84 80 75 75 71 67 68 67 62 64 61 60 58 54 54 53 50 52 49 45 42 34 32 30 21 19 24 29 33 41 53 65 74 86 89 86 89 87 88 92 90 88 94 96 98 97 96 95 98 97 96 83 94 103 105 123 124 123 121 142 151 161 154 149 157 170 169 167 170 177 176 177 177 183 181 181 178 169 160 150 139 130 126 118 116 113 112 106 105 101 97 93 88 83 75 75 74 71 71 70 66 67 67 60 57 53 52 51 52 50 47 44 38 30 33 26 16 18 24 34 28 36 55 64 70 80 85 84 86 83 82 87 87 86 91 90 93 93 94 94 96 94 87 80 92 101 102 118 122 117 122 136 148 159 155 142 143 156 162 164 165 171 175 174 179 180 185 185 182 178 169 161 153 145 134 128 125 122 119 115 110 108 100 95 93 86 81 78 75 73 71 73 72 70 69 61 58 51 51 51 52 50 44 39 36 35 31 23 15 18 27 35 26 35 55 63 68 74 82 84 84 81 79 83 84 84 89 89 91 90 95 94 96 93 83 83 91 97 101 108 113 109 122 130 150 156 159 142 131 139 152 158 161 165 173 169 173 179 181 186 183 181 176 167 161 149 140 137 133 130 124 121 118 114 109 104 102 95 89 85 79 77 77 75 77 73 68 61 54 50 51 52 50 46 40 40 37 35 30 17 15 20 32 33 30 36 53 63 66 72 77 82 86 82 78 80 84 81 86 88 87 89 94 92 96 93 81 90 87 92 94 107 98 101 122 129 151 157 159 142 131 122 138 150 156 159 170 173 172 177 177 183 182 180 175 169 163 155 143 142 138 135 131 127 125 120 117 113 108 102 98 94 87 83 84 78 78 75 66 61 53 52 48 46 47 45 40 41 37 31 27 14 19 18 34 28 26 40 53 64 67 68 76 77 85 83 80 79 81 79 83 88 85 88 92 91 94 90 83 94 84 90 88 101 88 89 119 130 150 160 165 137 130 121 129 139 147 151 163 171 172 172 171 177 180 177 170 168 163 157 150 142 141 136 132 129 128 124 120 118 112 105 102 101 94 91 87 81 79 75 65 58 52 48 45 43 45 45 44 40 33 29 27 12 15 20 34 21 18 43 57 61 66 67 76 75 83 83 80 77 78 77 79 83 84 87 91 90 95 88 88 96 85 89 86 93 78 85 110 129 147 168 173 147 126 125 127 129 133 136 152 159 166 169 168 176 174 173 172 168 164 158 150 145 141 137 133 129 128 125 122 119 119 111 108 107 100 96 91 86 79 68 63 56 51 43 42 48 47 45 44 40 35 28 25 10 14 22 28 21 19 42 59 60 66 66 72 76 76 82 80 77 76 77 77 79 80 88 87 92 95 87 94 95 88 87 85 84 73 79 113 113 144 175 171 157 134 125 125 126 124 121 135 150 156 162 163 167 169 169 167 167 164 157 153 147 142 136 134 131 127 124 124 118 118 115 111 106 102 98 92 84 75 65 58 53 50 46 49 52 53 47 44 42 35 25 15 13 18 18 22 17 20 45 59 56 67 66 68 73 75 79 80 77 76 77 78 77 78 89 88 95 93 91 97 92 86 88 85 77 65 82 102 104 140 161 171 154 143 132 129 122 119 116 122 130 145 150 156 159 159 158 157 158 158 156 150 144 139 134 130 127 122 121 123 116 113 108 105 102 98 90 86 76 69 61 53 52 53 52 54 58 57 47 44 39 31 23 13 13 19 13 17 17 17 44 58 55 63 67 67 66 72 78 80 77 75 75 78 76 76 91 92 96 90 93 97 92 89 87 82 76 67 71 99 106 131 149 162 156 146 140 134 122 113 112 112 118 126 136 143 146 148 148 145 144 146 143 141 135 130 131 127 122 118 117 115 112 106 101 97 96 92 81 74 68 64 57 53 55 59 62 64 65 56 48 44 37 28 21 11 14 16 15 16 14 22 39 60 52 60 66 70 63 67 75 77 75 74 76 77 75 75 90 92 92 85 93 94 92 90 76 83 78 55 69 105 106 125 136 145 151 144 143 137 120 117 108 107 111 116 123 130 133 135 137 137 132 133 130 127 125 123 126 122 117 115 109 106 103 96 91 89 88 84 75 71 68 62 59 61 63 70 75 69 65 54 47 45 34 26 18 16 14 13 17 18 11 20 36 63 50 55 66 69 63 63 69 73 74 73 76 76 75 72 88 91 86 81 89 88 86 86 73 87 63 53 79 101 104 120 125 134 138 141 139 135 122 118 109 105 105 110 110 117 123 124 127 126 124 124 123 117 115 117 117 114 111 105 101 96 94 87 86 83 83 77 75 71 70 65 66 69 77 79 79 70 63 53 46 42 31 21 18 21 17 10 15 23 6 14 30 62 55 54 59 67 66 61 63 68 73 73 75 74 73 72 87 86 79 79 84 82 85 80 83 78 54 54 79 95 98 112 118 125 130 130 138 138 126 123 108 107 103 105 105 107 109 116 120 116 119 115 118 115 113 109 106 103 99 98 90 92 83 84 80 78 79 76 73 71 73 78 79 84 87 81 76 66 59 52 45 38 30 18 21 18 25 13 13 14 11 11 30 55 58 59 55 61 65 60 56 62 68 72 74 71 71 70 84 77 76 75 76 77 78 81 85 69 52 60 75 92 92 98 112 125 119 122 132 137 121 121 116 105 104 104 104 105 104 108 111 112 110 109 109 108 104 101 99 95 89 86 83 83 82 79 78 79 78 78 77 79 85 86 93 89 86 77 72 62 58 50 43 35 27 20 21 8 21 22 13 18 4 9 35 48 58 63 59 54 58 59 55 55 63 66 69 68 68 69 78 68 71 74 72 78 84 79 75 70 64 67 80 80 74 86 115 119 118 114 126 131 121 118 113 109 106 103 104 102 108 109 110 105 107 102 105 106 98 93 92 92 86 85 82 79 81 80 81 79 79 79 83 88 92 92 90 83 79 73 69 60 54 45 41 35 28 21 17 6 17 18 15 19 0 10 35 46 52 59 62 56 47 58 53 50 56 65 66 65 65 66 71 70 73 70 80 84 83 81 76 77 70 64 72 68 72 75 110 113 119 112 122 122 119 117 114 105 102 106 105 101 100 102 108 107 104 100 100 97 92 89 87 84 81 85 81 84 82 81 81 83 84 83 83 92 92 89 85 79 76 72 67 56 53 43 38 31 26 19 11 5 20 17 21 17 0 13 33 46 48 54 56 55 42 49 51 47 49 60 64 65 64 65 