P2
92
112
255
153 152 152 152 152 150 148 149 148 147 144 142 143 142 142 136 132 131 125 120 118 113 109 104 101 100 92 84 83 80 78 78 74 80 78 75 73 73 71 69 68 62 56 59 58 56 55 57 65 57 54 52 55 51 54 55 60 61 65 68 65 68 70 81 77 81 88 94 106 113 117 124 126 136 143 145 146 146 146 144 145 145 145 143 143 141 142 141 142 142 141 143 152 152 152 152 152 149 149 146 144 145 142 141 140 139 136 134 129 127 124 118 111 103 99 93 90 83 83 84 78 75 70 67 62 67 65 64 61 63 61 58 54 49 45 48 48 46 45 47 53 52 51 49 50 50 51 53 56 58 59 63 58 62 65 69 70 67 69 77 85 96 108 110 120 124 132 141 143 145 146 145 145 145 145 143 143 142 141 142 142 143 141 141 152 151 151 151 152 150 147 144 142 141 139 138 137 138 135 131 130 126 122 110 100 91 84 82 83 80 76 71 63 60 57 58 56 58 57 52 50 51 51 46 47 42 37 38 41 38 37 36 40 44 42 40 45 47 48 51 49 51 52 55 55 58 62 64 67 64 65 64 71 78 92 104 108 113 124 131 136 140 142 145 145 145 145 144 145 142 142 141 141 143 141 140 151 150 151 149 150 148 146 144 141 138 139 137 136 135 132 128 127 119 109 97 88 79 75 79 79 71 66 58 53 53 48 44 48 48 47 43 41 39 40 41 38 39 32 29 32 34 28 29 27 32 30 27 33 39 42 44 48 47 50 50 49 52 57 57 57 61 60 63 65 67 75 85 96 101 110 121 125 129 137 140 144 144 145 144 144 142 142 141 141 142 141 142 150 149 151 149 148 146 144 143 141 138 138 134 133 132 127 125 117 106 94 84 78 74 74 70 64 60 53 52 47 43 42 39 38 40 34 37 34 31 28 31 29 29 24 18 22 25 22 20 18 20 18 16 18 26 28 35 38 39 38 42 45 49 49 53 50 61 61 60 63 64 68 78 80 87 96 109 114 120 126 135 139 141 142 144 143 143 141 141 139 141 141 140 151 150 149 150 148 144 141 143 139 137 136 132 131 127 120 117 107 95 86 77 72 75 67 63 58 51 47 44 44 45 41 36 35 30 25 25 21 20 19 15 16 17 14 10 9 14 13 11 9 13 11 8 8 13 15 20 27 29 28 30 35 36 42 47 46 54 59 59 63 64 66 70 74 78 86 96 105 110 117 124 130 136 139 141 143 142 142 143 141 140 141 140 151 150 149 147 146 144 141 139 135 136 136 129 126 119 111 110 98 90 85 75 72 70 62 60 56 51 48 46 46 47 41 32 32 25 19 16 16 15 14 12 6 7 5 5 5 8 9 3 5 9 7 5 4 8 10 12 18 20 21 23 25 30 35 36 41 48 51 57 59 64 64 65 64 74 80 82 93 103 112 118 124 128 135 137 139 140 141 142 141 141 140 141 150 151 147 146 144 142 137 137 133 136 130 128 122 114 102 97 92 85 81 75 71 63 60 60 57 54 52 45 44 44 37 32 31 27 22 21 18 20 16 12 8 10 9 3 4 8 9 6 7 7 5 3 1 6 8 8 11 17 15 17 22 25 23 28 38 41 44 47 54 60 61 60 59 64 74 77 81 95 101 111 119 127 126 133 139 137 137 140 142 140 141 140 150 148 146 144 140 139 135 134 132 131 125 121 110 99 95 94 89 85 78 70 65 65 61 62 56 55 53 49 46 45 38 38 34 33 30 27 26 23 20 16 16 12 10 8 8 9 11 10 9 12 9 8 8 8 7 9 11 15 15 17 20 23 27 27 32 36 35 37 46 54 60 59 58 63 71 76 82 89 98 101 112 118 125 126 132 137 137 139 140 141 141 139 149 147 144 140 141 138 134 130 131 124 115 113 105 95 98 101 90 82 75 67 69 65 66 60 56 52 50 46 44 44 39 43 38 35 31 31 28 26 22 21 19 16 15 13 15 15 16 17 16 18 16 17 18 13 14 18 20 22 25 23 23 29 33 32 34 38 33 34 39 46 51 55 59 59 64 75 76 85 94 98 101 108 117 123 126 133 139 139 139 141 140 140 148 145 141 140 138 135 129 127 127 119 112 109 102 100 102 98 91 81 74 69 68 68 66 60 53 51 47 45 49 46 43 44 42 41 36 35 33 30 25 26 22 19 22 20 23 23 23 25 24 26 24 24 25 23 22 28 28 32 30 30 31 33 36 38 40 38 39 37 39 43 43 48 55 55 58 66 75 79 83 94 99 101 104 115 121 125 134 137 139 139 140 141 147 144 139 136 136 131 125 130 126 117 109 107 102 101 100 95 82 77 68 67 67 64 57 55 50 52 51 51 52 50 49 51 53 52 50 51 46 44 42 42 41 35 32 29 32 31 31 34 32 33 32 31 30 32 32 35 36 38 37 36 35 38 40 42 44 46 46 41 40 41 42 43 45 52 56 61 67 76 78 85 95 99 103 102 111 121 125 131 134 139 138 139 144 140 137 136 132 125 131 128 119 114 107 99 97 107 100 89 80 73 68 70 69 58 56 55 55 56 57 56 65 66 68 70 69 70 68 68 64 67 65 64 64 59 55 50 48 45 39 40 40 40 41 38 41 41 41 43 44 43 43 42 41 42 45 47 50 50 52 49 43 40 46 43 45 48 56 60 65 69 79 84 84 97 100 100 101 111 120 124 130 134 137 136 140 138 136 132 130 130 128 124 118 112 106 102 103 103 89 80 73 70 69 67 65 61 60 64 64 64 68 77 81 82 86 86 87 88 89 88 83 83 79 79 80 77 73 68 66 62 57 54 49 49 47 49 49 49 50 49 50 52 51 52 51 51 53 53 56 55 55 52 53 47 50 47 49 53 54 58 66 71 75 83 83 91 96 98 99 103 108 114 123 130 133 134 139 137 133 130 133 131 125 124 115 112 107 106 101 94 83 75 74 72 72 69 65 66 67 70 73 80 91 99 99 101 104 105 102 107 107 106 99 101 94 94 93 92 87 83 81 79 76 72 66 60 56 57 56 57 58 58 57 59 61 59 58 60 58 58 59 61 60 58 61 54 53 58 54 53 60 60 66 75 76 85 87 90 93 95 97 100 104 105 107 124 130 131 135 136 131 134 133 130 128 122 116 109 106 102 98 87 80 78 75 78 74 68 72 74 74 85 90 104 114 119 120 126 125 126 119 119 119 115 110 112 111 109 110 106 103 100 98 96 93 90 87 78 68 64 66 65 65 66 65 68 67 66 63 66 65 63 63 64 63 62 65 66 62 63 64 59 64 63 67 71 82 80 87 91 90 94 94 99 101 102 104 107 123 129 135 135 133 135 134 130 128 121 113 106 106 103 90 86 84 83 81 77 76 77 82 83 92 104 114 124 131 137 140 143 143 138 135 129 126 124 123 126 123 122 120 121 115 112 110 108 108 103 98 94 88 79 78 78 79 79 75 76 74 73 72 72 71 70 70 71 68 67 68 71 69 71 66 66 66 64 70 72 74 85 85 91 92 93 92 96 100 99 100 106 107 116 133 134 136 137 134 126 119 114 110 110 111 96 89 89 91 84 85 82 83 87 90 103 113 126 134 142 150 153 153 157 156 149 146 143 136 136 136 136 136 132 132 133 128 126 123 119 119 116 111 107 105 97 90 90 89 90 89 89 87 84 85 83 82 81 79 76 75 70 70 73 74 74 71 68 71 70 69 76 71 81 94 93 94 93 90 94 100 100 100 103 106 109 134 136 139 137 132 119 115 113 111 112 107 98 94 91 91 93 90 89 93 96 111 124 133 143 152 159 161 163 162 165 166 165 163 158 153 152 148 143 146 144 143 140 139 138 135 133 128 126 122 120 114 110 103 99 98 99 98 97 96 93 93 91 90 90 86 87 81 80 74 74 74 78 84 76 76 74 76 75 79 80 87 96 98 96 93 90 97 101 102 101 102 107 137 138 137 132 127 116 113 110 113 115 108 102 97 93 97 98 96 97 103 114 129 139 149 157 165 166 169 170 171 176 178 173 172 172 167 165 159 154 155 152 151 147 146 145 143 141 139 136 130 128 122 117 115 106 104 106 107 106 105 102 101 98 95 95 92 92 90 84 81 77 76 77 83 83 83 81 80 80 83 79 86 94 99 99 97 94 93 98 103 104 101 105 134 133 132 129 120 110 107 109 118 115 105 105 101 99 103 101 102 107 114 131 142 151 166 168 172 175 177 179 179 183 181 180 178 177 178 174 167 164 162 155 154 148 151 148 149 147 145 142 139 135 128 127 124 118 114 114 113 112 112 109 106 106 100 101 98 96 95 89 84 81 80 78 84 83 88 86 82 84 84 84 81 91 100 102 98 98 94 96 98 106 104 102 129 133 132 123 116 108 107 118 119 111 106 111 104 102 107 110 110 114 127 147 157 165 178 180 182 185 185 187 187 186 185 185 185 185 182 179 178 174 169 164 155 154 152 150 150 149 147 145 143 139 136 133 129 125 119 117 116 115 114 111 110 111 107 106 105 100 99 94 89 83 84 80 87 89 88 91 85 84 86 90 82 87 97 100 102 98 95 94 95 102 105 103 131 130 127 121 110 106 113 121 111 108 116 113 104 108 114 116 116 126 145 158 169 179 186 190 189 196 190 190 191 189 189 191 191 188 184 185 181 179 177 172 167 163 155 153 148 147 148 146 143 144 140 139 132 127 120 119 119 117 115 112 110 110 109 108 108 108 102 102 95 91 90 82 87 94 92 93 89 89 94 93 90 85 92 102 105 101 96 91 94 97 103 104 131 128 123 117 111 112 115 116 112 119 121 112 108 119 121 116 126 142 159 171 181 186 193 199 195 201 196 192 193 194 193 194 191 189 184 185 182 179 179 174 171 168 162 157 154 150 146 142 140 138 137 135 131 126 118 117 116 115 112 112 110 110 109 110 109 108 105 107 101 94 96 90 90 92 99 94 94 92 98 91 89 88 90 100 109 107 100 92 90 90 100 107 129 124 118 123 115 112 113 112 118 118 117 112 119 123 124 125 139 156 177 185 186 193 199 200 198 197 199 197 196 196 198 196 191 189 188 183 180 180 177 172 169 167 163 158 154 151 144 139 135 134 131 129 124 122 119 114 113 111 111 110 109 107 108 109 107 107 107 106 105 100 97 94 94 94 98 97 95 92 96 95 85 88 90 97 112 112 104 94 90 88 95 104 126 119 123 122 112 114 110 117 119 119 113 118 125 125 132 138 155 173 186 188 193 198 203 199 199 202 202 196 196 197 195 193 191 187 185 181 179 178 173 171 167 166 162 157 155 149 145 141 136 134 131 128 121 118 117 113 111 111 108 107 105 104 102 104 104 101 105 99 99 104 102 97 96 97 99 103 99 97 96 95 93 87 88 97 108 118 106 95 91 91 93 99 123 122 123 117 114 114 109 120 120 122 121 124 131 136 141 153 169 184 192 196 205 205 206 205 203 206 204 198 197 194 191 186 187 184 179 180 177 176 170 167 165 163 158 157 155 151 146 140 137 135 131 127 120 120 115 116 109 109 104 104 103 103 101 100 98 99 98 96 98 99 101 100 98 94 99 106 104 101 99 96 93 91 91 96 105 112 111 100 91 91 94 97 123 127 125 117 118 110 115 123 125 128 127 129 135 137 147 163 180 193 200 208 209 209 210 210 207 205 202 196 194 194 191 185 183 181 179 178 177 172 169 165 164 161 155 155 151 151 147 142 137 135 131 128 122 118 115 114 109 106 102 102 103 102 99 96 94 94 95 89 93 96 101 102 100 100 98 106 104 104 102 100 96 91 92 100 107 108 107 103 94 90 94 96 122 133 125 121 118 115 119 131 129 132 129 128 136 144 152 173 188 200 207 211 210 213 213 210 205 202 204 199 195 194 188 185 181 181 177 175 171 170 168 165 164 161 154 152 150 148 146 141 137 135 130 126 123 119 116 110 107 104 103 101 100 98 97 95 92 91 92 90 89 92 99 104 104 102 101 101 106 109 104 103 93 95 94 95 109 108 110 100 94 94 95 95 131 133 125 124 120 121 128 133 132 133 126 131 140 152 163 182 196 205 210 209 211 213 213 206 204 202 203 197 191 189 186 181 181 180 175 173 169 167 167 164 164 162 156 152 148 147 144 142 137 136 130 126 120 117 112 108 105 101 101 100 99 99 94 95 91 92 90 90 89 90 95 101 109 107 104 102 106 109 111 105 98 99 100 98 106 112 115 106 93 94 97 97 141 133 124 126 122 126 131 136 135 131 126 139 149 165 176 189 203 207 211 209 211 210 206 204 200 197 194 188 182 181 178 175 173 172 169 167 165 162 163 160 162 161 157 155 151 146 146 141 139 136 129 124 120 117 114 112 107 101 101 102 99 99 95 93 92 90 88 85 86 87 91 99 105 111 107 104 104 111 115 110 105 101 103 110 106 113 114 114 96 95 96 99 144 130 126 129 126 133 135 138 135 129 136 146 161 175 183 197 207 206 208 205 207 205 201 197 192 187 183 180 174 171 167 167 165 164 161 161 159 160 161 159 161 162 159 156 154 149 149 145 143 139 132 127 127 123 120 116 110 106 103 102 101 99 96 94 92 88 84 87 85 86 89 95 100 108 113 107 107 113 116 114 110 107 104 111 117 112 112 112 102 97 99 99 141 132 130 132 133 138 137 139 136 137 146 158 174 180 192 200 207 206 205 202 201 196 192 186 180 176 176 172 169 168 166 165 164 162 163 161 159 157 160 159 158 161 161 160 157 155 155 150 150 143 138 135 132 129 125 121 117 114 109 108 107 104 98 97 91 89 87 85 85 85 86 93 96 103 110 110 109 112 117 114 109 113 112 114 123 109 108 113 104 103 104 103 137 134 133 135 137 136 142 141 141 139 151 169 180 190 197 201 202 201 198 194 192 184 181 172 165 160 161 159 159 157 157 160 160 160 158 161 160 159 163 162 160 162 164 163 160 159 159 153 152 147 145 142 139 135 133 129 127 122 119 115 110 106 103 100 97 96 93 91 88 88 89 90 96 101 108 111 111 114 118 120 108 113 119 119 118 113 111 113 110 102 107 105 132 137 137 141 141 142 150 146 141 139 159 175 185 195 196 196 196 195 191 183 178 171 161 153 147 145 142 141 143 144 143 146 149 153 153 155 158 156 159 162 162 164 163 161 160 159 158 154 152 150 148 146 144 140 139 135 133 131 127 123 117 110 104 99 99 103 92 97 94 90 94 94 96 101 107 112 111 117 123 119 115 117 119 125 118 110 112 110 112 106 107 106 137 139 142 143 143 146 153 145 139 142 169 183 188 193 189 188 192 194 191 179 174 163 151 143 137 136 136 135 135 132 133 132 133 137 135 141 141 143 147 152 155 156 157 154 156 155 153 152 150 151 148 146 146 144 141 140 135 137 134 130 121 115 103 98 101 103 99 97 97 94 100 97 103 102 104 111 115 116 126 121 114 122 120 125 121 111 114 109 112 107 107 105 144 141 140 137 143 152 151 148 141 154 177 185 190 191 185 186 190 194 185 175 169 156 144 138 135 135 136 131 129 125 125 127 129 128 129 128 129 127 131 133 141 144 145 143 147 147 147 147 148 150 149 149 145 143 139 139 135 132 133 126 123 115 103 97 99 101 100 99 96 96 99 96 103 104 104 103 114 119 120 124 112 120 120 120 120 118 114 112 109 105 106 107 147 140 134 131 143 158 153 150 142 164 184 189 191 190 189 191 192 188 181 175 167 162 155 144 133 132 127 124 122 118 119 123 125 124 126 125 127 126 126 126 127 133 134 135 138 138 139 141 144 146 146 146 144 140 134 133 131 124 125 123 118 109 103 97 94 97 95 94 92 90 95 94 99 105 109 103 108 115 120 119 121 118 122 120 115 116 111 109 111 109 106 109 146 130 131 138 145 161 152 152 143 176 194 197 194 197 193 190 185 178 177 168 165 160 160 151 143 133 126 125 121 119 119 119 122 120 119 122 123 124 125 125 125 125 127 131 132 133 133 137 138 140 140 139 136 133 127 124 122 119 113 111 109 104 100 96 92 90 92 92 91 91 91 94 95 101 103 109 107 107 116 118 120 115 121 119 118 114 111 106 110 112 110 109 142 134 132 141 152 162 156 148 146 184 203 198 197 195 193 190 180 183 181 172 169 165 161 154 147 141 133 125 125 122 121 123 122 121 119 121 120 122 126 125 125 126 128 130 130 131 133 134 134 137 134 130 129 127 124 122 119 119 113 110 107 104 101 96 94 91 90 90 88 88 88 93 96 97 98 102 106 104 109 119 120 113 123 124 118 117 108 111 110 112 112 112 138 141 136 138 152 161 155 144 157 199 204 201 198 199 195 189 182 181 179 171 168 161 154 151 144 143 139 133 130 124 121 119 122 120 119 120 120 124 126 129 128 127 129 131 131 131 132 133 133 132 127 127 125 124 122 120 116 118 114 113 109 108 104 102 101 96 93 86 85 87 88 91 98 103 103 97 106 114 115 122 123 117 126 129 121 112 112 113 108 112 111 119 139 140 133 131 149 155 152 147 173 203 207 202 203 203 201 197 183 185 176 167 167 161 155 146 144 141 141 138 136 136 130 127 127 129 127 127 127 128 130 129 131 131 132 135 135 135 133 131 130 130 124 122 120 120 118 119 115 118 116 114 112 109 107 105 107 108 102 101 95 91 89 93 98 98 105 99 102 125 119 120 130 125 134 134 125 111 109 109 109 111 108 120 146 138 131 135 142 146 150 156 181 197 206 207 209 203 196 189 177 171 159 155 156 158 154 152 152 146 147 140 136 136 135 131 130 131 130 131 131 130 132 133 136 137 136 141 141 140 137 134 132 128 125 123 119 117 116 117 118 118 117 117 112 103 109 106 106 105 103 104 98 83 80 88 94 84 94 103 97 119 124 112 124 126 134 137 132 111 98 102 104 109 109 118 141 139 143 137 135 138 150 162 192 199 213 209 211 202 201 196 182 171 159 158 153 151 150 150 150 151 153 147 143 141 141 134 133 134 134 134 132 136 138 138 141 145 147 152 153 155 144 142 137 129 128 125 123 115 119 120 119 119 117 117 106 104 109 112 111 109 107 102 91 78 77 91 88 83 86 98 84 106 113 112 123 126 129 131 137 109 80 91 96 102 104 118 139 142 147 133 122 128 141 167 193 202 217 212 221 208 204 193 173 165 150 145 137 137 143 148 148 156 153 151 151 149 150 146 138 135 135 134 132 140 139 140 146 148 148 153 158 156 145 140 134 129 129 129 127 125 129 127 128 126 118 124 123 115 121 117 120 116 111 116 104 91 83 88 91 84 84 90 69 88 98 104 126 132 131 123 130 100 71 81 87 93 98 113 146 146 142 128 119 131 139 177 193 212 216 222 225 211 202 185 166 158 145 142 134 145 156 164 154 155 146 139 140 136 137 135 130 135 130 132 134 137 138 137 145 150 149 159 162 162 149 143 138 131 128 131 132 131 128 125 121 125 120 126 124 121 126 125 123 120 112 114 105 103 96 86 86 86 85 90 74 68 91 94 121 129 120 124 114 93 64 70 85 87 98 104 155 146 144 121 121 134 141 193 206 215 215 228 220 206 190 178 168 157 145 146 150 158 168 169 151 145 139 135 138 134 131 131 128 132 127 127 136 138 137 139 148 148 149 160 167 165 156 144 140 135 128 121 131 128 128 127 124 126 129 125 128 122 124 119 117 119 117 109 110 113 102 88 79 79 77 79 78 72 92 101 119 117 112 108 103 82 59 62 80 87 88 102 153 145 135 117 126 148 138 195 209 218 217 232 223 214 198 181 171 165 161 160 165 168 170 168 153 147 142 136 131 125 122 121 117 123 118 126 133 143 142 144 147 149 151 167 172 170 163 153 145 139 126 125 119 123 125 128 125 124 124 118 117 118 121 116 111 117 119 114 110 108 103 94 80 78 72 75 75 74 84 101 114 114 106 90 85 62 50 59 71 83 80 100 155 141 128 110 125 147 147 195 210 220 224 240 232 212 202 189 190 185 176 171 169 171 181 180 155 150 140 134 131 125 121 118 118 121 119 127 140 149 148 151 148 153 149 160 166 160 157 146 143 134 128 122 116 117 124 128 124 127 122 114 116 109 113 112 108 112 114 110 105 99 98 91 85 74 72 67 68 67 81 93 108 102 103 78 75 55 46 49 64 78 78 94 158 132 123 110 118 142 162 193 218 221 223 238 240 230 214 210 209 193 185 184 175 174 179 177 159 138 132 135 131 132 131 141 142 137 133 132 146 150 152 152 158 156 157 159 162 156 153 142 140 136 128 119 108 106 119 119 132 130 125 116 116 108 103 107 110 103 96 99 98 95 92 90 81 74 65 63 64 69 75 88 103 99 93 72 74 52 45 43 54 73 75 89 155 131 124 111 106 132 177 191 222 225 232 236 237 233 226 222 212 198 190 179 167 171 167 166 158 153 130 133 138 142 141 153 154 142 150 149 153 157 159 160 162 163 163 162 161 153 153 144 138 130 128 114 106 104 112 119 129 132 118 110 108 106 105 110 95 92 88 81 90 91 92 88 80 73 67 66 63 63 70 85 97 96 86 66 75 52 40 43 49 65 68 86 154 133 127 123 114 126 183 198 231 234 239 243 234 229 227 224 215 201 188 183 173 173 165 162 161 161 151 147 148 147 145 146 150 146 145 159 156 160 167 166 168 167 172 170 164 158 153 147 140 130 122 111 111 111 109 121 125 130 124 103 112 111 106 111 94 86 86 84 90 88 92 93 81 72 71 78 68 61 67 84 97 94 85 67 72 52 42 44 55 62 68 79 159 134 128 121 120 127 177 199 228 236 238 244 234 229 227 227 219 203 196 195 184 184 177 168 162 158 159 153 150 152 150 149 146 145 146 168 164 172 170 166 161 165 172 165 156 152 148 153 144 139 128 118 118 121 121 126 138 143 142 124 126 124 118 111 97 88 81 92 97 95 91 90 81 75 70 80 66 64 78 82 93 88 75 64 66 49 38 38 57 60 69 77 157 130 115 117 124 128 179 199 222 234 239 247 235 229 231 227 215 206 204 190 195 192 182 174 167 171 163 157 159 157 154 144 144 146 153 165 177 172 176 170 164 165 166 160 155 151 151 148 133 132 129 122 124 122 124 132 141 150 144 134 130 118 109 106 101 92 87 94 100 91 89 91 85 73 67 73 65 66 76 83 86 81 71 58 64 45 26 26 43 58 65 75 149 120 111 112 123 139 185 200 214 226 243 251 240 230 232 223 220 214 210 201 202 201 197 192 183 180 179 166 163 160 155 152 150 150 156 166 174 169 170 165 168 162 163 163 154 153 148 139 132 131 128 128 125 123 126 133 137 136 136 135 127 113 108 108 102 91 80 84 85 85 84 84 78 73 70 69 61 64 73 90 85 80 66 57 60 39 12 15 30 57 63 75 137 115 102 108 125 143 190 214 214 222 245 255 238 232 231 220 219 213 209 205 202 199 202 194 191 185 182 172 168 164 166 163 164 162 169 173 178 172 169 164 171 162 156 158 154 148 148 134 127 126 126 123 120 122 129 130 135 131 130 131 120 114 116 115 101 93 80 81 79 79 78 77 74 79 73 74 64 65 76 93 91 77 60 56 51 44 7 17 31 58 69 76 132 108 96 121 132 147 183 217 226 212 242 252 231 229 226 220 218 212 209 201 200 194 197 194 194 193 190 187 182 177 175 172 169 171 177 174 173 174 165 158 167 165 154 148 152 144 145 132 118 114 116 121 119 119 123 130 136 138 132 124 118 112 108 105 102 94 83 76 75 78 78 80 76 75 74 77 66 72 76 97 93 75 61 67 49 52 17 36 40 53 69 76 133 98 103 126 139 152 184 216 234 215 237 252 225 220 225 224 223 214 210 205 198 199 201 203 201 199 192 189 188 185 183 178 174 178 182 170 175 172 164 158 171 164 151 147 146 144 138 131 112 110 109 120 117 112 115 124 128 136 135 127 123 115 110 104 102 96 87 83 77 77 77 76 79 76 72 76 75 80 78 93 96 67 64 66 56 56 35 44 41 49 63 80 126 112 112 130 139 154 178 208 229 229 236 251 229 222 225 222 220 216 212 208 200 198 202 204 199 201 197 193 190 188 187 178 175 176 176 179 177 168 164 164 165 158 146 145 138 134 131 130 113 110 103 108 113 114 119 121 124 137 138 135 132 121 113 107 104 105 98 93 90 88 88 85 88 85 80 82 84 86 81 92 95 68 70 76 71 57 43 41 37 50 60 82 126 119 113 136 141 152 165 196 222 234 228 246 232 223 223 226 217 217 213 208 203 196 202 202 197 199 197 192 189 185 182 178 169 173 182 176 165 155 165 165 155 153 151 147 138 129 124 130 115 111 100 98 107 110 113 119 123 131 135 137 132 127 115 109 109 104 104 100 97 100 100 97 98 93 88 90 92 94 83 93 92 65 66 80 73 59 51 47 42 49 65 79 135 128 117 131 147 153 159 187 213 235 212 241 233 217 215 222 217 214 209 204 202 199 202 201 196 195 190 185 183 179 170 168 169 176 177 166 160 159 167 162 149 146 152 147 139 130 126 131 120 111 98 94 99 104 109 115 123 127 128 131 133 127 120 114 114 112 110 115 108 111 108 107 105 100 99 99 98 102 87 96 88 59 64 70 58 60 67 49 43 51 66 77 138 145 129 119 147 155 154 181 203 224 214 226 221 214 215 213 210 211 202 200 198 201 196 197 194 187 182 179 174 170 165 166 167 170 164 158 155 162 161 164 155 142 145 143 135 131 126 123 118 111 105 96 96 100 109 111 117 121 126 127 132 127 120 115 113 115 111 117 118 116 114 113 110 106 105 100 102 107 90 96 83 65 63 58 48 60 67 52 38 50 69 80 133 159 139 118 137 151 158 182 200 223 218 226 217 201 208 213 210 206 199 196 196 191 192 190 187 178 175 174 171 163 162 159 163 161 156 152 150 160 168 164 158 146 146 144 141 134 129 125 125 123 109 103 98 103 105 110 113 120 122 126 129 124 119 117 114 116 115 119 122 118 116 114 110 111 109 105 102 106 93 89 87 70 66 53 46 51 62 48 41 54 73 79 119 151 144 125 132 137 159 174 199 214 231 225 211 205 198 205 205 203 194 191 188 186 184 182 181 174 167 164 162 151 151 156 156 153 149 141 146 158 161 157 161 154 147 145 139 135 133 130 128 125 116 109 101 101 104 111 118 120 126 127 126 123 117 116 111 114 113 116 115 114 118 115 114 113 109 107 101 103 98 86 93 73 60 51 49 43 45 40 47 59 69 80 116 135 139 123 130 132 152 175 195 209 225 228 215 205 202 199 200 199 193 188 185 183 177 177 173 170 165 159 156 149 151 155 148 144 139 138 147 156 150 154 158 155 155 150 144 140 138 134 128 121 119 114 105 101 102 115 117 123 125 131 130 122 118 111 110 108 109 114 113 112 116 115 115 117 111 106 101 106 96 91 89 69 62 51 48 47 41 35 53 58 68 81 118 134 142 116 134 133 146 179 188 206 212 219 216 209 207 204 195 195 194 186 182 180 178 175 170 165 161 156 157 151 151 152 144 138 134 142 150 155 148 154 154 154 156 154 147 144 141 140 132 123 123 116 110 110 102 112 119 125 126 131 129 128 118 115 111 107 103 109 108 109 109 111 115 117 112 106 102 97 94 87 85 73 63 50 40 48 44 41 52 68 75 81 110 126 137 121 130 132 144 177 178 195 201 200 210 211 210 204 196 190 188 182 178 177 176 175 170 169 165 160 160 154 150 148 141 134 138 149 149 152 151 155 157 152 154 148 151 150 146 142 137 133 125 117 114 117 107 107 112 123 129 133 133 133 121 113 113 110 108 105 106 103 99 104 109 112 103 104 93 94 90 83 81 73 62 57 46 43 47 44 57 81 82 82 105 108 141 128 134 150 144 170 174 184 191 196 200 209 208 206 197 189 186 178 178 175 176 173 168 169 168 162 159 158 152 144 142 137 145 150 149 149 149 157 153 149 150 148 151 155 151 149 142 135 125 115 114 115 113 111 117 123 132 134 134 131 130 126 117 115 112 109 107 105 104 106 112 113 103 99 96 86 83 82 72 66 64 60 48 39 52 50 67 85 89 86 106 100 131 134 135 151 140 161 173 179 190 190 199 208 203 203 194 189 185 179 174 176 178 174 170 170 166 164 161 157 146 142 146 144 149 146 143 137 142 147 144 145 153 152 154 152 150 150 141 130 123 119 115 118 118 116 116 124 125 129 129 128 125 122 123 117 112 105 105 103 101 98 102 101 93 97 88 89 81 75 65 56 64 58 43 44 56 60 72 89 89 86 115 103 118 130 137 148 140 154 172 177 191 194 195 203 204 201 196 188 187 182 177 178 176 175 172 167 167 166 163 155 145 147 154 149 144 145 138 133 129 133 126 136 146 145 144 149 149 143 132 118 110 116 126 124 124 123 121 127 123 123 124 124 125 125 122 116 112 108 109 105 103 98 97 95 88 83 81 84 77 73 56 58 60 54 36 52 65 68 77 90 89 85 116 119 108 131 137 145 137 155 169 173 187 192 193 196 202 198 194 189 188 182 180 177 178 173 172 168 164 167 161 157 152 145 155 153 143 136 135 132 122 127 126 130 133 133 129 135 141 140 120 109 109 109 116 120 122 125 125 122 122 122 122 126 125 122 115 112 111 109 108 105 99 100 91 87 83 80 77 79 74 71 57 56 54 44 41 69 67 77 77 89 91 91 115 117 108 131 137 139 133 148 172 177 186 183 189 194 201 196 193 189 190 186 184 180 175 172 170 166 163 162 158 159 158 154 155 150 142 136 132 135 134 130 126 127 127 126 125 124 131 128 120 111 109 109 107 108 118 123 123 111 110 106 109 114 116 113 111 105 106 106 98 96 95 92 85 81 80 77 71 71 67 67 55 48 49 48 51 68 75 79 76 91 94 98 113 111 106 132 136 137 124 144 169 179 194 177 184 192 199 195 194 194 191 187 184 177 173 172 169 167 163 161 156 160 158 164 159 148 139 139 138 138 140 141 138 132 123 121 121 122 125 119 115 108 102 101 99 107 119 127 126 117 113 106 104 109 113 111 106 106 105 100 93 93 94 91 82 75 75 70 70 63 62 64 52 44 57 56 57 63 70 74 77 92 95 101 111 105 107 121 138 138 126 142 171 173 196 179 187 189 195 196 195 191 191 188 179 173 172 168 165 165 160 161 162 162 161 165 161 148 142 139 140 139 141 149 145 138 131 125 120 123 122 123 117 111 107 104 104 109 119 122 127 118 115 105 105 106 110 109 98 101 103 99 93 94 89 88 78 71 70 66 67 60 59 60 53 56 67 60 52 60 60 72 82 92 96 103 119 105 107 121 124 141 137 150 185 178 194 180 189 190 196 198 194 191 193 188 179 175 170 169 161 161 158 160 164 165 166 160 157 153 145 143 144 145 143 149 147 141 135 129 125 118 119 120 116 117 118 114 113 109 116 117 120 115 111 107 108 105 106 107 101 98 100 97 92 90 85 83 78 71 66 63 64 58 59 57 56 67 65 54 47 58 61 76 84 92 98 104 124 114 110 122 119 131 135 151 191 191 188 187 188 191 200 196 195 195 195 185 177 174 167 162 159 161 161 165 165 165 162 155 152 151 148 149 148 149 151 153 146 143 136 130 130 123 122 121 121 118 120 120 115 111 110 111 112 109 105 105 106 107 106 107 108 98 98 95 89 84 81 79 75 66 62 59 57 58 61 57 57 67 65 58 50 59 67 78 83 91 98 104 129 122 115 123 129 115 130 153 191 190 189 184 191 189 197 197 196 198 193 183 175 173 164 159 159 165 165 169 165 162 159 156 156 152 150 149 148 144 146 152 145 138 136 131 127 124 127 126 121 118 115 114 107 104 107 109 107 109 107 105 107 107 108 110 107 102 98 94 87 83 79 74 67 63 57 54 55 59 55 59 54 58 61 57 52 60 72 81 85 95 96 107 134 131 121 120 122 115 111 148 186 191 190 189 192 192 196 201 201 199 188 182 173 165 160 160 166 167 171 169 162 158 159 160 162 161 149 146 150 144 146 149 140 141 140 135 130 124 126 126 123 118 114 114 107 105 107 110 113 112 110 106 110 112 111 112 109 104 97 93 88 80 76 72 63 59 54 51 58 55 53 57 52 54 56 57 57 61 73 78 94 98 99 116 127 132 127 122 117 116 103 123 181 193 194 196 195 195 197 197 201 198 185 183 173 168 161 160 165 165 171 167 157 161 160 160 163 159 150 148 147 145 140 144 142 147 148 144 139 133 132 132 129 123 121 118 113 112 113 117 117 117 114 109 110 115 114 113 109 100 98 89 84 81 75 74 64 58 55 55 61 55 56 58 55 56 58 60 62 64 70 84 99 104 106 122 121 125 127 127 119 105 102 102 167 200 196 204 198 199 199 199 198 197 187 185 177 169 163 160 162 160 159 154 154 154 151 151 154 151 144 145 141 139 136 137 138 139 144 140 134 129 125 131 125 123 122 119 120 118 120 124 122 116 117 113 112 113 111 105 109 101 93 89 83 82 73 70 66 58 56 57 59 53 61 60 60 60 64 62 65 67 80 97 106 110 113 122 128 124 125 126 123 111 95 95 146 187 196 209 203 198 199 197 200 197 189 186 179 175 164 158 153 150 143 129 126 126 130 131 138 144 137 134 135 132 128 125 127 129 129 126 123 116 115 119 117 115 118 112 116 116 118 121 114 112 115 115 114 115 113 104 104 99 97 92 80 81 73 71 64 58 56 59 55 55 65 64 68 66 72 68 74 85 98 106 110 113 120 120 137 129 126 123 123 119 99 85 124 168 190 205 200 196 198 195 200 194 188 185 179 175 162 158 150 147 132 119 111 107 118 122 126 131 129 124 127 124 118 112 117 119 115 112 111 105 105 107 101 100 106 100 107 112 113 113 112 113 111 112 111 111 113 108 102 99 99 93 84 76 74 69 62 59 59 64 55 60 69 70 70 71 78 82 97 103 105 116 118 119 120 118 138 137 133 126 124 125 111 86 107 158 185 196 194 193 194 196 197 198 186 185 180 174 164 160 157 153 141 134 126 117 124 126 127 131 130 130 125 127 120 112 120 119 110 104 108 108 101 91 83 87 89 86 88 98 103 107 110 110 114 108 104 108 110 109 106 100 98 92 88 77 74 70 64 61 62 66 57 62 69 71 71 74 83 99 110 108 111 118 121 120 118 118 141 139 137 131 129 128 120 100 101 150 179 190 195 190 194 194 200 196 189 186 183 176 174 166 163 155 150 146 143 138 130 135 125 129 129 132 130 134 136 130 133 127 119 113 123 124 113 101 91 92 87 86 92 93 94 97 98 101 107 107 101 103 108 103 106 96 95 94 93 83 74 70 66 65 68 64 56 65 65 68 73 79 88 107 111 111 114 122 120 118 117 120 137 138 137 135 130 129 124 113 105 137 173 187 193 193 198 196 198 196 184 185 184 181 179 174 168 164 159 156 151 146 141 135 129 128 131 131 139 130 137 136 141 140 129 124 129 137 128 118 116 114 107 101 101 94 93 87 84 84 89 101 101 103 104 100 101 96 95 97 91 81 77 70 68 65 69 58 58 68 65 73 73 80 93 107 112 113 119 117 117 120 119 118 131 134 138 135 133 129 125 117 107 122 168 182 189 195 194 201 194 195 185 182 183 182 178 174 173 177 169 163 156 150 143 133 136 134 141 134 142 139 138 140 139 136 131 127 134 138 129 123 123 120 111 102 94 89 87 80 74 71 78 91 90 94 98 93 94 99 94 96 87 79 74 69 63 65 68 54 61 66 69 71 76 84 94 107 109 115 117 113 118 120 120 118 133 130 135 136 130 130 118 115 109 118 151 178 188 199 192 194 196 196 178 178 182 179 179 177 175 177 169 170 156 149 147 137 133 131 138 134 135 137 137 145 143 142 135 127 131 129 126 119 116 117 101 94 90 84 79 75 71 76 84 87 83 85 92 92 88 92 90 86 83 78 67 65 62 65 60 52 61 66 69 70 79 84 97 107 107 113 116 113 118 118 123 121 134 132 130 129 134 127 110 110 107 106 136 173 185 196 197 186 191 193 180 177 177 177 177 170 171 174 169 165 156 147 141 138 138 134 133 124 128 129 124 134 132 127 123 118 112 111 107 103 99 102 97 96 90 86 86 79 78 80 86 86 81 78 83 85 87 87 82 82 75 75 65 60 58 63 53 49 61 67 70 69 81 84 98 104 107 113 116 113 115 120 124 123 132 131 126 127 130 119 104 111 104 101 125 162 182 191 201 180 188 192 186 179 176 176 173 166 168 168 164 165 155 152 152 150 147 139 131 129 125 130 123 127 119 119 116 110 102 101 95 97 94 93 95 92 92 94 98 92 89 92 90 83 78 73 70 79 81 84 78 75 69 68 61 57 56 57 47 47 56 68 70 71 81 87 100 103 111 115 113 113 113 120 124 120 122 126 122 125 122 110 102 107 107 100 112 145 176 188 202 183 183 188 189 179 175 177 172 168 167 168 164 166 159 158 158 156 146 137 131 124 119 120 117 119 117 114 110 101 101 96 93 91 91 88 88 86 88 90 91 92 88 87 83 77 73 72 71 74 75 75 72 68 62 58 58 51 52 52 47 45 60 70 73 70 80 91 102 106 111 113 111 112 113 120 122 120 121 119 118 122 111 103 104 105 106 100 107 135 164 182 200 184 180 184 191 181 178 176 172 169 165 168 164 158 159 159 157 152 146 139 130 123 115 115 117 114 109 107 102 98 100 97 93 95 90 90 87 84 82 87 87 87 87 83 79 72 67 70 69 71 69 66 63 60 55 52 53 49 46 46 44 44 61 69 70 70 81 96 103 108 112 111 113 113 114 117 119 118 119 117 118 112 105 104 104 103 105 101 108 126 153 171 191 183 181 178 192 185 175 177 174 169 168 166 164 160 160 161 160 151 141 131 127 116 115 108 111 102 103 99 95 95 95 96 93 97 92 91 88 80 80 80 82 84 88 82 75 68 66 65 66 69 66 61 56 53 50 49 50 46 39 42 42 43 58 68 71 68 86 98 105 106 111 114 109 112 115 114 115 118 115 117 114 108 105 102 103 99 104 107 105 121 146 155 183 174 179 173 187 191 175 175 174 169 168 167 162 162 164 161 158 149 140 127 119 110 110 104 101 97 95 97 96 95 92 90 90 90 88 86 83 81 75 76 81 82 85 78 72 63 63 65 64 64 63 55 52 51 50 47 48 39 35 39 37 42 54 69 70 68 93 99 104 106 111 114 108 112 114 113 114 116 115 114 109 108 104 105 100 102 107 110 111 121 141 146 169 171 175 172 178 191 181 178 176 172 168 168 164 165 163 162 157 149 136 124 120 116 107 99 92 90 88 87 90 88 87 85 86 85 82 79 78 78 74 74 75 77 77 72 67 59 62 61 58 60 57 51 52 50 46 45 43 34 32 34 37 37 52 66 62 76 96 102 103 107 111 106 111 110 113 117 116 115 112 111 108 105 106 106 100 99 108 109 115 121 131 142 161 164 167 168 173 184 185 176 179 174 173 171 169 170 167 165 160 152 139 133 129 117 111 101 91 88 82 83 83 82 83 84 82 81 77 74 73 74 72 71 73 71 70 65 66 60 59 59 56 53 52 50 49 50 45 39 37 32 25 33 33 38 51 59 62 79 95 100 99 104 103 103 105 106 110 114 117 113 103 106 101 101 105 103 92 96 104 107 116 123 121 137 150 153 158 165 165 176 185 177 179 182 176 175 172 176 173 170 166 163 150 139 138 120 113 108 101 95 89 85 84 83 84 82 78 78 75 74 73 71 69 69 69 65 63 61 62 61 57 57 54 52 53 52 51 47 43 34 35 28 23 28 29 37 46 53 60 76 90 91 90 91 93 96 94 97 102 105 107 107 101 101 99 101 104 101 86 92 103 105 118 124 119 127 144 147 155 159 160 166 178 175 176 180 182 179 183 179 181 179 175 171 160 153 141 130 122 118 112 107 102 99 95 94 94 91 88 86 82 77 77 73 69 70 70 65 66 64 63 61 56 56 55 52 54 51 47 45 36 34 32 23 21 26 30 34 41 52 63 73 85 88 83 86 84 86 89 88 87 93 96 98 91 90 89 93 92 90 77 88 97 100 118 119 118 116 137 147 158 154 149 158 172 171 170 172 180 178 180 180 186 184 184 181 170 162 152 140 132 128 120 118 116 115 109 107 104 100 95 90 86 77 77 76 73 74 73 69 69 69 62 59 55 54 53 54 52 50 46 40 33 35 29 18 20 26 36 28 35 54 63 69 79 83 82 83 80 79 84 84 85 89 89 93 86 88 87 91 89 80 72 85 94 96 112 116 111 116 131 143 156 155 142 144 157 164 165 168 173 178 176 182 183 187 188 185 180 171 163 155 147 136 131 127 125 122 118 112 110 102 97 95 88 83 80 77 75 73 74 74 72 71 62 59 53 53 53 54 52 46 41 38 37 33 26 17 20 29 36 26 34 54 62 67 73 79 81 81 78 75 79 81 82 87 88 90 82 88 87 91 87 75 75 83 90 93 100 107 102 115 125 145 152 158 143 132 141 154 160 163 168 176 172 176 181 184 189 186 184 178 169 163 151 142 139 135 132 126 123 120 116 110 105 103 96 91 86 81 78 78 76 79 74 70 62 55 52 52 54 51 48 42 42 39 38 33 20 17 21 34 35 30 34 52 62 64 70 74 79 83 79 75 75 81 79 85 86 86 82 87 86 90 87 73 82 77 83 84 97 90 94 115 123 146 153 157 142 131 123 139 152 158 163 174 177 175 179 179 185 184 183 178 171 165 157 144 144 140 136 132 128 126 120 117 114 109 103 98 94 87 83 84 79 78 76 67 62 54 53 49 48 48 47 42 43 40 34 30 17 21 19 36 29 26 39 52 63 66 66 73 74 82 80 76 74 77 77 81 86 83 80 85 84 87 83 73 84 73 80 78 91 80 80 111 123 144 156 162 137 131 122 130 140 149 155 166 175 176 174 173 179 182 179 172 170 165 159 151 143 142 137 133 130 128 124 120 118 113 105 102 101 94 91 87 81 79 75 66 59 53 49 47 44 47 47 46 42 36 32 30 15 17 20 36 23 18 41 55 60 65 65 73 72 80 81 75 73 75 74 76 80 82 79 83 82 87 79 77 85 74 78 75 82 69 75 102 122 141 164 171 147 126 126 128 129 135 140 156 163 169 172 170 178 177 175 174 170 166 160 152 146 142 138 134 130 129 125 122 120 119 111 108 106 100 96 91 86 79 69 63 56 52 45 44 50 49 47 46 43 38 31 28 13 16 22 29 23 20 41 58 59 65 64 70 73 74 79 75 72 72 74 73 76 77 79 79 83 86 77 83 84 77 76 74 74 63 69 104 106 138 170 169 157 134 125 126 126 127 125 138 153 159 165 165 169 171 171 169 169 165 159 155 149 143 137 134 132 128 125 125 118 119 115 110 106 102 97 91 83 75 65 59 54 51 48 50 54 55 49 46 44 37 28 18 16 20 19 24 18 20 45 58 55 65 64 66 70 72 75 76 73 72 73 74 73 75 79 78 86 83 81 85 81 74 76 73 67 54 72 93 96 134 157 169 154 142 132 129 123 122 119 126 134 148 153 159 161 161 160 159 159 160 157 152 146 140 135 131 128 122 122 123 116 113 108 105 102 98 90 86 76 69 61 53 53 54 53 55 60 59 49 47 42 34 26 17 15 21 14 18 18 18 45 58 54 62 65 65 63 68 74 75 72 70 71 74 72 72 80 81 86 80 82 85 80 77 75 71 65 56 61 91 98 125 143 160 155 145 140 134 124 116 115 115 121 129 139 146 147 150 150 147 146 148 144 143 136 132 133 128 124 119 118 116 112 106 101 97 96 92 81 75 69 64 58 54 56 60 63 66 67 59 51 47 39 31 24 14 17 18 15 16 15 23 39 60 50 58 64 67 59 63 71 73 70 69 71 73 71 71 79 81 81 74 82 82 80 78 64 72 68 45 59 96 98 117 131 141 150 144 143 137 122 119 111 110 114 119 125 132 135 137 139 139 134 134 131 129 127 125 128 124 119 117 111 107 105 97 92 90 89 84 76 72 69 63 59 62 64 71 77 71 68 57 50 48 36 28 21 18 16 14 16 18 12 22 36 62 49 53 64 66 59 59 65 68 69 67 71 71 70 67 76 80 75 69 78 77 75 75 60 76 53 44 70 93 96 114 120 132 136 141 139 136 124 121 112 107 108 113 113 119 125 126 129 128 126 125 125 119 117 119 118 116 112 107 103 98 96 89 88 84 84 78 76 72 71 66 68 71 78 81 81 73 65 56 49 44 33 24 21 24 19 11 14 24 8 15 30 61 54 52 58 64 62 57 58 63 68 67 69 68 68 66 76 75 68 67 72 71 73 68 71 67 44 45 70 88 92 107 114 122 128 129 138 139 128 125 110 110 106 107 107 109 111 119 122 119 121 117 121 117 115 111 107 105 101 100 92 94 86 86 82 80 80 77 75 73 75 80 80 86 89 84 79 69 61 55 48 40 33 21 23 20 26 14 13 15 13 12 30 53 56 56 53 58 61 55 52 58 63 65 68 65 65 63 73 66 65 63 64 65 66 70 73 57 42 52 68 86 87 94 108 122 116 121 131 138 123 122 118 108 106 106 106 107 107 111 113 114 112 112 111 110 106 103 101 97 91 88 85 85 84 81 80 80 80 80 79 81 87 88 96 92 89 80 75 65 60 52 45 37 29 23 23 9 22 23 13 18 5 9 34 46 56 60 56 51 55 55 50 51 58 60 62 61 61 62 67 57 60 62 60 66 73 68 63 59 55 60 75 75 69 81 112 117 116 113 126 131 122 119 114 111 108 105 106 104 110 111 112 108 110 104 107 108 100 96 94 94 88 87 85 81 83 83 83 81 81 81 86 90 95 94 93 86 82 76 72 62 57 48 43 36 30 23 19 8 19 19 15 19 0 10 34 44 49 56 58 53 44 53 49 46 51 59 59 57 58 59 59 58 61 58 68 73 72 70 65 68 62 58 67 63 67 71 107 111 117 110 121 122 119 117 114 106 104 108 107 103 102 104 111 109 106 103 103 99 95 91 90 87 84 88 84 86 84 83 84 85 87 85 86 95 95 92 88 81 78 75 69 59 56 45 41 33 28 21 13 7 21 19 22 17 0 12 31 43 45 50 52 51 38 45 47 43 44 55 57 57 57 58 