P2
92
112
255
84 85 86 85 87 85 91 89 88 88 92 92 91 88 87 90 92 104 116 128 134 134 147 146 151 156 161 161 163 167 165 165 161 170 163 158 160 166 153 155 155 142 135 142 140 135 135 141 147 140 136 125 123 120 118 116 117 123 116 113 109 109 108 104 103 93 79 77 87 89 95 97 100 97 94 95 95 91 92 90 89 89 89 89 92 89 90 91 90 91 90 89 84 86 88 86 87 88 89 88 90 88 91 93 87 89 93 94 104 118 131 134 140 142 148 154 160 159 169 175 170 172 166 164 156 153 149 147 143 149 142 138 134 123 118 128 129 128 126 132 136 138 138 133 127 125 127 131 129 126 127 121 112 106 105 111 109 102 102 95 91 88 92 98 103 97 100 94 93 94 93 91 91 88 91 90 91 89 90 91 89 91 91 91 86 87 87 89 86 88 91 89 90 91 90 95 91 87 98 103 113 130 136 134 139 144 153 158 164 167 173 176 173 161 150 150 145 140 140 123 121 124 117 110 112 105 103 108 109 110 109 112 114 115 116 121 124 124 131 136 127 131 128 129 121 116 108 111 113 104 104 103 109 101 102 98 105 105 104 93 96 96 94 91 90 90 89 92 91 90 90 91 92 90 90 92 89 88 88 91 91 89 87 89 91 96 94 95 93 96 107 122 124 134 131 130 141 145 143 159 174 170 169 165 154 139 129 127 130 122 113 100 97 93 86 91 94 90 81 88 85 90 87 82 81 89 92 91 108 109 124 127 125 124 125 135 126 117 116 113 111 116 104 101 106 108 116 116 109 113 107 95 93 97 91 93 90 93 90 93 91 91 90 89 92 90 90 90 88 88 90 91 93 90 91 91 92 94 97 97 105 117 122 135 133 132 130 132 140 138 153 159 159 158 141 144 132 125 113 109 102 96 79 78 79 71 62 69 73 72 67 58 63 74 69 59 59 76 77 74 83 97 109 102 107 109 117 125 122 119 123 116 120 130 115 108 105 107 108 123 122 120 115 104 94 95 98 95 95 95 92 93 91 90 91 89 92 90 91 91 86 88 89 88 87 88 90 96 99 102 102 112 122 132 131 135 132 132 136 138 143 152 158 154 140 130 125 117 110 99 93 89 79 71 63 55 60 56 47 42 49 54 51 41 44 53 49 44 48 55 59 63 65 75 79 82 88 94 97 102 105 107 115 114 119 129 128 120 119 115 112 117 122 124 122 118 104 96 98 104 98 97 94 93 93 89 90 89 90 88 91 90 86 91 89 87 85 88 93 99 102 103 117 127 128 128 132 132 134 135 147 144 147 151 142 131 126 117 106 96 91 88 84 73 68 62 57 45 44 44 40 35 36 39 32 30 31 37 35 25 33 46 46 52 54 60 64 71 77 76 83 90 91 92 101 99 105 117 129 130 131 127 125 123 114 119 121 121 114 108 101 94 104 99 97 96 92 90 88 88 87 88 91 90 89 90 87 84 88 93 102 99 102 118 127 127 125 129 126 133 146 155 156 154 150 134 128 122 117 105 93 79 78 77 75 64 55 57 47 40 39 40 32 31 37 34 30 21 23 29 34 26 22 30 33 39 36 51 55 58 64 67 70 77 85 84 92 87 91 105 123 125 125 129 134 131 124 115 119 114 118 115 114 98 93 100 100 93 92 92 88 87 87 87 90 89 90 92 85 89 96 99 100 102 112 133 130 125 126 128 134 147 156 159 161 152 141 129 118 110 92 88 87 77 64 64 62 58 54 50 44 35 41 37 29 29 37 28 23 24 22 22 28 27 22 23 28 32 34 41 40 46 53 61 60 67 75 78 76 76 87 93 102 113 114 125 135 138 134 121 121 111 115 116 116 117 101 95 99 95 94 90 91 86 89 88 90 91 90 88 91 95 98 99 99 110 126 130 128 129 130 133 146 160 162 157 150 134 124 114 106 85 73 69 67 64 55 55 50 50 50 49 40 40 37 33 28 28 32 30 26 23 26 26 24 25 20 25 26 34 38 39 42 43 52 55 61 59 64 73 75 71 78 89 89 96 105 113 126 133 145 129 125 125 113 119 119 123 115 105 95 99 101 92 91 92 91 90 92 90 91 90 97 101 100 103 116 125 131 130 130 134 136 147 163 162 163 149 136 124 107 92 86 72 61 59 53 50 52 49 44 45 45 45 41 33 37 36 32 30 26 26 29 25 26 33 25 26 29 33 30 34 40 46 47 48 46 59 58 58 58 61 66 70 72 84 86 88 101 104 113 119 134 136 134 131 126 121 117 122 129 115 107 103 107 103 94 92 91 91 90 90 93 97 101 101 102 115 129 129 128 129 131 141 155 165 176 168 151 139 118 101 82 75 60 57 53 49 46 45 46 45 40 38 37 34 33 28 37 37 34 31 35 25 26 30 36 37 35 39 37 38 42 38 39 39 49 53 47 56 53 60 55 59 62 67 75 78 80 87 92 95 108 109 116 126 137 140 133 125 123 128 123 124 122 111 106 106 103 92 95 89 91 91 96 99 103 102 113 125 134 133 125 131 138 154 162 178 173 154 131 120 103 92 84 64 61 57 53 48 47 43 39 35 31 32 30 25 25 20 30 36 34 36 36 31 28 34 39 42 45 48 45 42 46 44 52 52 54 54 54 57 54 55 60 57 62 62 70 79 83 89 89 96 104 110 121 121 140 145 141 132 131 135 130 130 129 124 106 108 103 99 95 90 91 93 102 101 105 108 123 133 134 133 136 142 156 166 176 174 154 131 108 99 95 88 71 65 65 62 59 52 43 39 30 30 26 28 30 28 27 29 36 35 31 31 33 34 36 35 46 47 48 56 58 54 52 60 61 63 66 59 62 66 60 60 65 68 68 68 71 74 83 86 87 94 105 112 122 129 134 140 152 147 141 145 141 141 129 128 119 100 107 105 101 91 93 91 103 106 112 122 136 136 140 137 140 159 167 177 177 164 137 111 105 101 93 79 73 71 66 64 57 50 45 41 33 34 35 34 37 38 33 37 42 44 41 38 41 44 46 47 52 57 59 66 70 73 68 71 73 75 74 70 71 76 74 73 74 73 74 70 76 78 81 90 93 94 105 112 127 127 136 140 157 164 167 157 153 150 138 132 122 111 104 107 109 99 91 90 107 110 113 131 135 142 149 147 158 172 178 183 171 148 117 111 105 103 93 79 83 73 70 62 54 46 48 47 42 42 44 46 49 49 49 49 52 55 60 57 58 58 59 61 69 69 71 73 80 82 84 83 86 85 83 84 81 85 81 82 79 78 78 77 79 81 80 86 100 105 112 116 125 125 132 138 158 172 176 172 168 160 145 139 130 122 107 101 108 107 97 91 109 111 121 136 140 145 160 162 164 182 190 184 161 136 116 115 109 97 91 91 82 80 70 64 60 55 54 53 50 53 55 57 56 57 61 67 72 73 75 71 71 72 71 75 80 83 84 84 87 88 95 99 99 97 97 97 93 95 94 94 90 86 87 87 90 92 88 94 101 105 112 118 131 131 129 131 155 167 173 178 174 166 163 148 134 132 117 99 101 103 106 100 112 116 135 144 147 155 165 165 179 195 194 176 149 121 116 117 114 103 98 98 88 81 72 69 65 65 63 61 64 63 63 68 69 77 78 88 89 87 88 83 87 88 86 90 93 98 98 97 99 103 106 109 112 109 109 108 107 109 109 107 108 105 105 103 103 105 103 100 102 113 113 128 133 135 138 130 147 169 164 174 181 177 177 159 142 136 128 110 98 100 107 104 123 133 148 154 163 161 171 178 195 202 192 167 136 120 121 124 112 103 102 97 90 85 79 78 73 74 75 77 79 78 76 85 87 94 96 103 101 102 101 103 104 103 105 105 110 112 117 117 114 118 119 119 123 126 126 126 126 126 126 127 127 126 124 123 120 117 118 116 112 118 116 128 138 137 144 143 141 160 165 171 183 187 178 170 150 142 138 119 106 98 102 107 133 149 156 160 167 165 174 195 203 200 176 155 136 129 129 122 111 112 108 102 94 91 87 83 80 85 90 93 91 94 96 101 102 106 105 111 113 116 119 119 122 122 122 124 125 126 132 132 128 133 135 134 137 138 142 147 145 147 148 144 144 144 142 140 135 133 132 129 128 128 129 129 143 144 147 152 151 159 170 176 185 190 184 180 173 152 144 131 117 104 97 108 149 161 163 164 166 170 178 191 199 185 160 154 147 138 126 120 118 113 109 103 99 92 93 88 92 98 99 101 104 108 111 113 117 117 119 119 121 128 131 130 134 135 135 136 137 138 143 143 144 145 149 148 150 154 158 164 164 164 162 159 158 158 157 155 151 146 145 144 141 141 140 139 145 152 152 155 159 165 173 180 183 193 195 181 180 166 152 145 117 113 101 99 159 168 165 168 171 178 182 197 199 174 156 159 150 133 130 124 121 116 108 106 103 97 97 104 105 107 106 112 119 122 123 124 124 129 126 126 131 132 136 139 141 147 147 147 148 149 154 151 152 156 157 160 163 164 168 172 173 173 171 169 167 168 170 168 165 161 156 154 149 151 146 145 150 154 152 156 163 167 171 185 188 193 199 195 187 177 161 152 124 110 103 99 168 174 173 176 171 186 199 203 188 164 161 158 140 138 136 131 124 115 111 107 104 103 107 115 112 112 120 124 130 130 130 130 132 134 133 136 138 138 140 144 145 150 154 154 156 159 162 160 159 165 165 166 169 170 175 179 186 183 183 183 184 185 185 181 178 175 168 166 157 157 156 149 151 163 159 161 170 170 177 188 198 194 201 201 203 186 176 164 144 117 105 106 170 173 175 176 185 204 203 200 177 170 169 155 141 147 143 133 127 121 112 108 111 117 117 121 117 122 134 137 134 135 135 135 135 138 138 140 142 146 146 149 149 151 153 155 157 160 165 169 168 173 176 178 179 182 188 187 189 192 189 192 195 197 199 199 198 194 185 176 170 163 164 160 155 162 171 169 172 174 181 195 203 205 198 207 212 205 186 173 151 135 108 109 169 174 172 186 195 195 188 180 175 168 163 153 155 153 145 137 130 124 111 113 121 123 124 129 130 137 141 139 142 141 140 142 141 143 145 143 145 149 150 149 149 151 152 153 159 163 168 172 175 178 183 185 188 191 194 195 194 198 196 197 202 206 207 208 208 203 199 186 175 171 173 165 164 165 172 177 175 178 183 193 198 211 209 200 211 213 198 173 161 142 115 107 169 164 182 187 188 190 175 181 173 169 158 165 164 152 151 140 128 121 115 125 132 132 134 136 143 144 143 142 143 145 143 143 145 145 147 146 147 150 150 151 149 152 151 156 159 161 165 168 171 173 178 184 187 195 194 198 199 203 200 205 206 211 210 213 212 209 205 196 187 177 178 174 169 171 174 180 183 179 180 189 194 209 221 215 213 213 203 187 163 138 120 112 166 171 180 183 188 191 176 181 172 169 165 174 165 153 152 143 129 129 129 139 141 140 139 143 146 144 143 145 144 145 142 139 143 144 146 149 148 150 151 151 151 151 151 152 156 159 158 163 166 171 174 180 186 195 197 200 198 200 202 207 209 213 214 217 217 214 212 206 200 188 185 183 176 175 175 185 189 185 187 184 198 216 217 223 216 217 207 187 171 146 122 115 165 179 183 179 191 190 181 180 172 168 163 174 165 156 149 142 135 140 144 144 149 143 146 146 143 143 145 145 143 140 141 143 144 145 148 151 150 149 149 149 153 152 152 151 152 158 153 158 163 171 172 176 184 195 199 203 200 199 205 209 210 212 218 217 219 218 217 212 209 197 196 189 184 183 177 184 192 186 191 189 197 216 212 219 222 216 213 184 162 153 127 112 165 187 186 188 193 191 179 185 172 170 171 176 172 157 152 147 145 150 149 146 149 148 148 141 144 149 150 144 140 142 144 147 147 148 148 152 152 150 151 149 153 153 152 153 152 154 156 159 163 169 169 176 184 195 199 204 207 206 210 211 213 218 220 219 221 220 218 219 219 211 206 198 187 184 180 180 192 190 187 194 203 208 217 219 222 222 220 191 163 147 126 115 179 185 186 193 189 188 183 181 172 172 179 178 166 158 152 149 150 150 154 147 148 146 146 142 149 149 150 145 144 147 148 149 148 151 151 152 154 151 153 149 151 154 152 154 149 152 155 161 162 170 172 180 186 197 200 205 211 212 214 216 221 223 220 219 218 218 220 221 221 217 215 209 192 188 182 179 191 195 190 193 204 216 207 222 227 221 215 197 169 151 126 120 194 181 186 191 188 192 181 178 172 170 174 175 160 156 151 147 149 150 153 147 147 147 145 146 147 147 145 142 146 150 150 146 147 149 151 148 151 150 151 147 150 154 153 154 150 152 157 163 164 170 174 182 190 197 202 207 213 216 216 220 222 227 224 220 224 220 218 218 220 222 218 213 203 188 186 177 185 192 195 192 203 219 212 212 232 219 207 204 176 152 133 126 197 183 184 193 193 191 180 170 171 172 177 172 159 148 148 146 150 148 152 146 148 148 145 145 145 142 144 144 152 153 150 150 150 148 149 148 149 148 146 149 148 150 154 154 154 153 160 166 169 172 178 186 193 197 203 206 210 215 220 222 225 230 230 224 227 225 221 221 220 223 221 215 206 193 184 180 186 188 193 191 198 213 218 210 223 222 208 204 188 165 148 126 191 181 180 192 193 191 179 169 176 174 173 162 152 147 150 144 151 153 154 152 151 151 149 146 143 146 150 155 159 160 159 160 158 159 156 149 150 147 148 145 151 155 158 156 156 157 164 172 174 173 176 181 190 193 199 202 208 207 213 220 227 232 231 229 230 234 226 227 223 222 223 218 211 196 184 181 181 189 185 196 194 205 217 213 218 213 200 198 192 179 162 132 183 186 178 191 192 187 179 173 173 163 166 156 148 150 149 147 155 158 157 155 157 150 154 150 153 160 164 167 171 168 169 168 165 166 163 160 160 161 157 156 159 157 163 163 164 166 164 168 171 172 175 179 187 192 194 199 204 205 212 223 228 235 234 235 234 243 237 238 240 233 225 221 215 203 192 185 185 187 184 193 196 203 214 210 219 199 193 195 192 184 178 140 180 190 187 189 189 188 180 178 172 165 162 151 145 150 152 155 157 160 163 162 162 164 169 168 175 179 179 185 187 184 182 180 175 178 178 176 170 173 169 167 165 163 164 165 163 164 164 169 170 171 174 178 185 190 194 198 203 204 212 221 226 233 233 233 238 245 239 247 245 245 242 228 224 212 200 187 185 189 183 190 195 202 217 209 209 204 191 194 191 183 185 154 187 194 190 188 190 190 182 176 173 170 158 149 142 151 153 158 157 155 163 164 163 171 176 182 187 190 191 195 191 189 192 195 193 188 184 182 179 174 173 171 171 170 167 168 168 170 167 173 177 172 175 176 182 188 191 194 199 201 207 213 219 225 228 229 236 242 244 247 255 250 252 244 230 222 204 187 183 183 185 192 193 203 209 209 202 206 202 192 194 186 181 159 195 193 192 185 195 193 187 176 178 170 157 148 139 151 148 154 153 155 164 160 164 175 180 187 189 189 190 188 191 187 185 193 186 187 188 186 182 179 176 174 173 172 169 171 174 174 177 175 178 175 171 173 174 178 181 185 190 194 201 206 215 217 222 225 231 238 239 246 251 248 247 244 235 222 210 194 181 184 177 189 192 197 210 208 203 204 205 193 186 194 184 164 192 196 189 176 192 193 197 176 179 169 153 139 134 143 149 147 147 158 157 152 162 170 174 179 182 179 179 185 187 183 182 182 184 182 181 182 180 179 176 175 176 172 169 167 174 171 174 174 172 170 170 169 169 172 177 182 189 195 198 203 207 214 217 221 218 231 233 238 243 244 244 238 239 224 214 199 183 182 182 186 189 191 201 206 198 202 195 186 188 190 187 170 188 186 183 188 187 194 199 176 179 168 149 133 131 146 151 148 151 161 156 151 164 165 170 171 167 171 176 175 178 176 176 177 176 176 175 176 178 174 175 175 173 171 169 167 171 171 170 171 170 169 169 172 173 174 179 183 187 191 193 198 205 205 205 206 208 215 226 231 234 244 243 240 235 230 210 197 182 172 180 185 180 185 197 203 196 196 195 183 192 192 191 171 185 186 187 194 189 196 197 177 178 164 139 133 141 147 154 147 155 154 150 155 160 159 161 162 159 161 160 165 164 169 169 165 166 167 171 169 169 173 173 170 171 167 166 166 169 169 168 170 170 170 171 171 174 177 183 184 188 187 191 195 200 201 198 203 203 211 218 224 226 234 244 240 242 236 221 203 186 175 174 184 182 176 196 203 196 186 186 192 181 192 189 173 187 189 194 185 187 195 192 184 174 147 138 147 144 147 155 149 151 144 150 155 160 165 161 164 155 155 155 156 158 165 165 163 167 164 165 165 166 166 168 167 166 162 163 162 164 166 165 166 167 168 169 170 172 175 179 180 180 182 187 188 192 195 196 196 200 204 205 212 218 224 235 240 241 243 235 224 193 185 185 187 192 183 187 202 193 184 184 183 177 185 185 180 193 193 185 176 191 189 191 186 165 146 144 148 141 150 151 149 144 151 156 161 159 166 158 153 146 144 145 145 154 157 146 147 150 149 150 151 152 153 158 158 152 151 151 148 150 152 153 157 159 160 160 162 163 167 170 170 169 170 173 177 178 183 184 185 186 194 197 204 210 219 223 234 232 236 233 226 211 186 179 187 196 199 196 196 195 175 186 176 171 180 177 179 202 192 182 177 180 178 187 177 156 142 138 145 141 151 141 145 139 149 150 155 153 154 143 140 141 139 139 141 147 147 143 142 140 138 140 142 142 142 147 148 144 141 144 138 137 142 142 144 146 146 149 152 151 157 162 161 158 159 163 164 169 167 172 172 172 176 178 190 200 202 211 230 229 220 227 223 216 185 173 180 185 190 203 194 188 170 172 175 163 174 170 170 192 186 189 174 168 164 178 168 151 140 147 149 143 147 142 147 144 144 156 158 152 144 138 135 136 135 146 137 138 136 127 128 128 124 125 128 128 127 133 131 130 131 128 125 127 129 134 139 138 137 139 145 145 140 146 147 143 141 144 143 144 151 151 151 158 160 168 177 177 179 197 217 227 220 227 220 213 195 177 172 185 189 196 195 182 160 148 166 160 158 172 166 183 188 187 182 174 166 171 174 142 140 148 147 147 142 141 151 144 148 161 155 144 143 138 129 126 127 131 116 116 114 109 104 110 109 109 116 114 115 102 115 121 123 119 119 112 118 118 125 127 125 126 132 131 133 134 131 130 124 123 125 126 124 132 128 139 142 151 168 176 165 182 200 215 214 220 221 209 195 171 170 179 196 189 184 173 164 144 159 160 151 170 160 182 202 193 185 186 186 180 172 140 147 154 157 144 148 145 153 141 152 158 137 131 138 128 117 106 114 106 102 100 97 89 88 88 95 92 101 100 100 87 93 110 120 118 120 112 107 107 113 116 109 114 113 114 114 116 110 104 101 98 98 97 93 98 102 109 119 131 144 157 162 169 183 198 208 213 215 208 198 169 166 186 196 180 171 155 162 150 156 153 141 163 156 195 207 195 185 194 189 181 173 140 147 156 151 138 151 140 145 146 150 131 124 127 124 120 100 86 86 77 70 72 65 64 65 60 67 71 79 79 76 76 78 98 113 113 117 112 101 100 102 101 104 101 99 96 94 93 93 85 80 76 71 77 80 77 75 72 90 106 121 136 146 151 159 173 191 200 204 202 192 169 167 179 193 180 170 142 153 158 156 152 141 145 149 188 203 190 186 192 190 166 160 143 142 146 145 137 140 133 135 142 138 121 129 129 113 102 97 83 69 65 57 49 41 39 39 40 44 56 66 68 71 75 84 87 93 105 104 102 86 88 88 92 91 88 81 75 77 83 74 62 61 57 56 55 57 63 58 53 71 93 109 122 132 145 149 157 171 192 198 189 185 172 161 165 183 186 176 143 132 150 141 158 146 138 138 187 192 182 189 197 188 156 140 133 135 135 133 129 120 122 119 125 135 123 126 120 104 91 79 79 69 64 53 45 33 36 32 31 32 40 50 51 63 59 66 78 78 92 88 85 72 78 80 81 86 76 72 64 61 65 63 54 43 36 46 46 41 45 48 41 53 67 83 100 112 126 137 147 153 178 184 174 168 165 147 163 175 184 180 150 122 130 135 148 163 149 143 193 180 183 201 201 187 153 130 124 131 133 134 127 116 104 119 131 132 118 123 109 94 77 67 73 67 58 48 40 31 38 29 23 24 35 39 47 45 44 56 52 55 74 80 68 68 69 63 77 78 64 52 50 49 46 35 30 29 24 46 47 40 45 57 50 46 56 71 81 91 103 121 139 145 153 171 171 166 159 155 165 171 169 171 152 124 132 147 152 159 152 142 190 178 180 196 185 186 161 130 124 137 144 140 125 108 102 127 135 125 113 120 110 95 88 88 80 77 62 48 43 40 40 41 36 34 40 38 35 23 30 32 39 49 64 76 64 68 69 58 69 68 69 49 49 50 50 32 26 26 26 41 47 44 48 70 63 53 39 75 74 85 89 113 132 142 153 163 178 172 165 156 163 163 165 162 158 130 126 162 157 156 156 144 185 178 187 190 176 187 156 141 138 145 141 131 112 96 102 124 131 110 112 114 105 91 88 86 86 65 59 43 43 42 49 58 51 47 37 40 33 21 28 19 33 46 68 78 63 66 69 67 66 67 64 46 42 47 41 34 23 27 29 33 42 42 48 61 58 59 58 60 70 79 89 108 129 148 161 169 179 182 161 155 167 169 168 169 150 134 127 164 167 157 161 145 191 178 180 180 172 177 143 141 137 152 143 128 117 101 120 119 129 116 115 116 112 100 89 81 83 65 54 41 51 51 52 56 53 55 34 39 31 34 27 28 41 60 78 74 73 70 77 76 77 67 60 57 43 47 46 41 31 34 43 48 50 49 50 54 51 59 73 68 76 89 93 112 135 148 159 168 184 189 160 159 169 170 167 167 148 143 127 158 161 156 156 141 189 172 168 172 159 160 138 135 140 146 140 134 123 112 132 123 127 117 112 111 115 107 89 81 81 87 83 71 64 64 60 56 54 56 44 53 55 52 54 55 63 80 91 84 87 79 83 92 86 68 63 60 44 40 39 41 37 40 51 51 61 54 54 55 61 57 71 95 96 93 115 113 136 147 160 172 188 203 180 169 167 173 165 162 148 147 125 145 152 143 151 124 180 153 156 154 153 154 132 134 136 140 137 138 124 119 137 138 133 128 124 115 118 117 99 89 96 97 96 92 84 74 67 64 73 64 61 70 74 50 53 51 71 85 86 97 101 97 93 101 99 74 70 69 67 54 55 50 51 48 62 72 74 61 65 55 60 59 56 90 114 116 121 124 147 166 174 184 195 211 196 172 181 172 175 166 153 153 125 134 143 133 144 112 172 146 148 144 146 156 131 130 133 140 136 135 124 124 140 139 136 125 121 116 115 114 108 98 101 107 103 98 98 94 81 75 84 77 89 91 82 64 69 75 90 97 105 112 119 116 108 99 101 104 96 89 85 84 63 70 72 73 72 83 94 76 80 83 70 81 79 93 116 125 133 135 163 184 183 195 208 219 205 188 173 181 179 161 153 155 129 138 141 133 147 117 164 150 142 137 146 160 131 133 129 138 140 132 132 130 142 153 152 139 128 123 119 118 112 104 108 109 110 112 109 99 93 83 81 91 98 102 89 90 88 93 115 127 126 133 138 132 125 117 105 119 112 111 100 95 77 84 87 90 86 98 115 112 102 100 89 93 102 104 125 136 147 157 174 188 189 196 213 228 222 192 173 190 180 153 157 157 127 152 138 136 143 123 168 156 150 140 155 161 139 137 138 135 141 136 130 135 147 159 162 156 143 135 125 127 123 123 123 128 128 132 134 121 108 99 92 107 114 102 103 102 98 112 132 138 140 142 146 138 141 135 119 128 138 133 122 107 90 95 90 98 98 107 119 124 122 111 111 119 125 128 140 147 164 168 190 197 196 204 218 236 235 193 188 190 178 156 155 146 122 150 132 133 136 120 167 170 155 151 168 164 141 141 132 134 134 142 130 135 151 163 163 167 159 152 143 137 136 139 128 134 139 141 142 129 123 110 113 114 113 116 118 117 115 129 146 147 155 152 152 144 143 147 147 144 151 153 139 129 117 121 109 105 106 113 120 130 133 127 125 135 141 149 156 168 177 188 202 203 214 216 224 229 230 203 201 191 176 164 162 144 122 138 121 132 128 125 169 170 162 156 181 164 144 145 131 135 132 140 135 137 149 163 163 165 164 160 151 144 149 148 140 143 143 144 138 135 129 124 124 124 132 130 124 137 140 137 146 148 156 156 158 147 148 156 153 150 150 151 153 139 125 138 129 112 117 123 130 138 143 142 146 141 155 159 167 181 189 190 199 201 213 216 221 221 230 210 201 201 181 166 161 160 137 129 123 128 126 115 183 165 178 158 179 162 144 143 138 140 132 139 137 141 150 158 164 160 161 162 168 163 164 165 158 152 147 141 144 144 135 137 135 144 149 153 148 152 145 149 151 150 157 155 154 148 152 160 160 160 159 164 167 159 153 151 152 131 132 132 139 145 146 152 152 154 162 172 174 182 187 189 195 196 210 219 221 225 227 211 209 210 194 183 175 183 154 135 123 128 123 103 176 162 180 159 154 157 153 141 142 143 140 143 139 141 150 150 164 162 159 156 164 172 164 167 164 160 160 155 152 145 142 140 144 152 155 158 150 146 147 156 148 151 154 157 152 151 157 149 152 153 164 170 167 160 152 153 142 136 138 141 140 144 147 151 150 157 161 169 173 171 180 183 183 194 205 213 218 222 223 206 213 221 210 199 180 188 160 140 120 126 117 98 164 156 171 169 140 128 145 136 125 141 137 141 146 136 144 149 159 160 161 158 165 169 176 170 169 165 165 164 161 155 150 147 147 152 152 147 145 146 153 154 156 153 152 163 167 169 157 158 154 164 166 172 164 168 149 140 137 128 130 136 136 143 137 142 150 151 155 157 169 166 177 183 185 204 208 217 215 222 214 213 213 225 213 201 193 189 152 136 118 123 114 100 147 144 148 173 138 113 138 124 131 137 139 140 137 137 136 144 149 160 156 162 160 163 166 165 162 157 157 156 154 146 139 145 146 150 145 137 144 143 148 155 159 148 150 162 166 160 160 157 162 165 162 164 162 162 161 142 132 121 124 126 133 142 141 143 149 150 152 151 156 167 179 182 193 200 209 209 206 215 212 216 207 213 211 204 198 184 166 138 121 122 110 107 146 135 130 161 149 114 129 115 129 132 140 148 137 132 137 139 141 149 153 153 155 155 157 160 154 153 151 148 145 140 139 147 147 145 136 136 138 140 143 147 148 142 144 150 157 151 150 149 152 155 158 156 159 160 165 156 128 126 121 130 133 132 136 136 141 141 144 149 155 168 181 187 195 202 210 205 205 209 209 214 209 206 202 198 198 183 168 142 124 114 106 112 149 148 125 137 161 133 131 120 133 129 135 143 147 134 137 138 143 144 156 153 154 152 155 156 152 144 140 138 143 136 134 144 140 142 135 131 143 146 142 150 148 139 137 141 144 150 150 149 146 150 153 139 141 154 159 158 143 131 128 129 140 140 133 135 142 141 139 149 154 164 177 187 195 203 207 202 208 206 207 214 213 205 192 184 186 178 169 147 122 117 111 114 140 149 135 133 148 144 142 120 126 132 129 147 150 137 132 132 138 140 145 146 148 151 155 152 146 143 139 138 137 133 133 145 143 138 134 132 134 145 145 149 143 132 130 138 147 141 147 149 147 155 147 142 124 142 143 144 134 129 132 130 134 141 137 132 137 141 146 147 155 160 174 180 192 193 197 202 204 209 202 208 203 189 182 170 174 173 165 155 125 122 120 115 143 142 146 140 149 157 155 129 127 131 128 154 145 132 119 125 127 130 139 138 141 142 154 152 146 145 145 141 137 138 137 142 135 133 134 134 137 143 144 150 143 132 135 141 142 141 139 141 140 150 151 142 130 135 137 133 124 121 128 133 139 140 143 142 136 137 139 145 155 163 174 182 185 192 198 198 201 202 200 205 192 172 162 162 165 164 168 161 132 124 125 121 141 132 143 138 149 160 154 144 133 128 127 145 143 125 115 117 115 120 124 129 130 140 146 145 140 140 140 136 131 137 138 136 141 139 143 143 143 143 143 139 128 126 133 138 141 134 129 130 134 144 148 145 128 126 125 123 118 118 122 133 132 138 141 138 143 141 133 139 148 156 163 171 177 183 186 194 193 195 197 195 181 166 149 161 172 155 174 158 135 125 127 119 150 128 136 132 141 152 151 146 137 129 131 139 137 119 111 110 109 114 117 118 121 130 137 137 137 133 133 134 135 137 140 136 135 136 135 138 136 131 126 131 130 122 129 130 127 121 116 120 126 138 134 134 131 119 110 104 97 106 115 124 126 131 138 140 139 137 135 142 150 158 164 165 171 175 181 183 187 188 189 197 184 173 151 174 175 154 183 158 138 125 123 118 153 141 129 135 132 134 156 141 134 131 126 133 135 118 108 103 103 108 112 108 114 113 124 119 121 124 123 130 128 134 139 132 121 125 123 118 118 118 120 122 127 119 121 120 116 108 111 117 119 125 129 121 118 116 111 103 99 105 112 116 123 128 137 136 135 130 131 139 145 154 158 161 166 169 174 173 184 184 187 194 188 172 141 177 176 163 178 155 145 121 128 120 158 151 127 134 125 131 156 147 130 129 129 135 130 110 105 101 101 106 108 106 107 110 111 107 113 115 111 112 114 118 116 108 104 100 100 98 97 104 107 104 109 107 108 109 111 102 104 108 110 118 128 123 119 116 112 106 106 103 99 101 115 123 128 128 128 126 130 134 142 150 150 151 159 161 167 169 178 179 181 188 190 164 149 178 188 175 173 150 153 123 126 124 150 152 124 133 124 126 140 159 140 123 131 139 123 108 100 98 98 102 103 99 101 100 103 102 105 104 103 97 102 101 96 94 91 82 82 88 84 91 91 94 91 101 98 96 97 95 94 96 101 112 122 126 128 124 113 111 114 108 101 100 104 113 120 118 120 125 126 128 132 140 139 146 152 154 162 171 170 182 180 188 191 167 175 193 197 192 167 155 165 121 122 125 145 143 130 129 121 127 127 149 146 125 128 138 121 108 97 100 100 101 100 100 98 95 99 94 90 89 93 93 97 93 86 83 82 78 75 77 75 72 77 88 90 93 96 92 90 89 85 87 98 106 111 116 118 116 111 111 110 98 100 92 98 104 111 110 112 112 116 124 128 131 137 141 144 150 157 166 168 177 183 190 184 183 195 188 206 200 157 160 161 115 123 131 153 136 138 126 111 124 140 145 142 129 130 133 128 105 100 98 99 99 102 102 99 97 95 93 87 89 89 89 91 83 77 83 80 79 73 73 74 75 69 79 78 80 83 81 81 82 78 75 90 98 95 93 98 100 103 99 91 84 92 99 99 99 107 105 106 107 107 112 124 128 133 140 141 146 155 165 168 177 189 202 189 200 193 186 203 194 152 165 159 112 126 133 156 146 139 133 116 113 131 134 133 133 139 134 122 111 103 92 93 98 99 102 103 99 91 86 86 91 90 90 86 81 77 79 73 75 72 74 77 79 74 81 74 68 71 72 77 79 74 71 75 85 83 83 89 91 90 86 77 74 78 84 82 88 93 97 97 99 97 99 115 122 124 134 141 143 153 162 166 173 190 212 199 203 187 186 193 172 155 175 155 114 131 137 164 155 145 140 135 121 119 125 122 129 137 134 122 107 98 90 90 95 96 101 103 99 93 86 89 87 84 88 84 78 75 70 68 68 69 72 73 70 63 71 70 66 66 65 67 75 73 74 75 80 79 81 85 81 79 82 80 76 74 78 80 83 87 89 91 97 93 92 110 119 122 128 138 142 154 159 165 177 184 200 193 197 178 180 179 172 170 175 144 124 133 143 173 168 149 144 136 124 118 122 106 121 134 134 127 113 100 90 91 93 93 95 94 87 86 83 88 80 82 82 76 67 70 64 63 73 72 71 73 67 59 65 61 63 62 67 70 74 77 70 64 75 74 65 73 66 63 79 79 74 73 74 80 82 84 87 86 93 89 90 100 113 115 129 136 150 156 158 169 180 185 193 197 189 172 174 181 179 180 171 134 131 135 151 165 170 159 149 140 128 123 118 95 112 133 136 132 123 99 92 86 88 90 90 88 77 81 77 80 74 75 72 70 60 64 59 64 73 69 71 69 69 57 49 56 51 50 54 55 56 63 60 56 57 54 53 57 53 55 60 67 58 65 72 75 80 82 84 77 83 82 84 95 111 115 125 137 152 160 156 178 182 184 191 192 181 172 174 177 181 174 159 134 138 144 156 154 160 159 158 142 124 125 122 97 95 126 133 137 125 100 91 83 88 86 88 85 77 75 76 78 71 67 65 71 67 67 64 75 81 74 83 73 65 55 49 44 48 49 49 47 48 48 49 46 51 55 56 55 54 51 48 54 49 53 63 63 74 76 75 69 72 79 74 89 104 114 125 139 148 158 164 181 181 184 186 183 177 167 168 173 166 163 145 144 148 154 157 159 155 156 156 144 126 125 125 109 97 112 120 127 122 106 93 84 81 84 84 80 80 75 75 73 75 72 73 81 76 74 74 86 91 85 87 80 66 53 48 50 46 53 54 49 44 49 50 48 53 70 62 54 54 50 49 46 45 51 59 52 60 64 68 61 66 76 73 85 100 112 125 140 150 158 172 179 172 180 180 181 169 155 161 155 155 147 148 146 152 161 159 166 160 156 152 141 137 126 127 116 96 102 105 105 111 106 93 86 82 82 84 81 82 81 80 75 78 85 91 91 87 85 85 85 91 95 95 94 72 59 52 53 44 50 57 52 45 49 61 48 51 69 71 67 60 55 54 53 54 57 57 53 56 56 58 60 61 72 77 88 100 108 128 136 150 162 178 182 169 186 174 176 153 138 146 146 148 153 153 157 157 157 161 170 166 161 150 141 145 137 132 118 95 94 94 96 105 106 95 84 81 78 83 83 87 86 87 80 85 87 94 96 96 95 92 86 87 90 93 94 81 70 60 63 56 59 65 58 46 48 59 51 54 67 75 72 71 68 73 72 64 62 59 60 60 55 60 57 61 71 76 93 99 111 130 137 153 159 181 179 177 189 178 177 142 132 140 162 152 158 154 160 162 153 157 175 171 163 153 145 147 142 141 125 102 91 88 89 97 108 97 83 80 76 82 81 90 89 92 89 93 92 95 93 94 87 90 81 76 71 77 79 81 80 69 72 61 57 62 52 52 54 58 51 55 73 82 72 80 82 80 84 81 77 78 71 71 68 68 72 75 76 91 103 106 118 130 145 159 159 177 183 182 194 174 174 138 126 146 160 159 152 161 157 160 155 158 166 169 162 159 149 146 145 143 135 113 95 82 89 93 101 99 84 80 82 84 89 90 95 90 87 92 94 95 96 89 86 81 81 79 76 74 69 73 86 77 79 72 66 68 56 57 57 62 61 64 74 86 84 89 92 94 102 96 95 85 80 77 73 82 80 90 93 102 108 111 123 136 149 165 171 182 184 189 188 165 167 134 130 147 157 161 151 153 157 162 154 156 159 163 166 160 155 141 146 141 137 119 100 89 91 99 92 97 86 80 88 89 91 95 92 90 92 97 101 92 90 84 84 78 82 77 92 86 83 78 89 85 73 62 65 69 61 60 62 63 66 66 74 79 76 78 89 95 102 105 95 88 86 80 75 83 84 97 100 108 110 119 135 144 163 174 184 190 192 191 173 167 165 134 137 148 154 161 146 149 160 162 158 156 162 156 164 159 150 143 135 143 138 132 108 94 92 102 91 91 85 81 87 92 94 101 100 96 103 106 106 101 95 93 87 76 82 75 80 79 84 89 89 78 69 68 60 66 56 57 62 70 70 66 69 78 73 78 88 91 94 98 97 89 91 85 81 83 92 100 104 107 124 135 141 148 168 185 194 194 194 186 170 171 168 132 136 146 152 153 147 147 162 156 164 163 164 159 155 153 151 140 143 145 134 138 123 107 96 100 95 79 82 81 85 96 95 105 109 110 116 117 120 112 108 104 99 85 92 88 93 94 97 99 97 95 87 85 82 87 72 73 73 75 80 80 83 95 90 97 102 100 93 95 104 100 94 95 92 94 98 106 116 119 139 144 147 160 175 183 198 196 192 180 169 176 164 129 134 146 147 149 149 148 157 159 165 168 162 159 150 145 143 148 149 142 130 131 133 119 102 101 99 74 80 81 82 92 102 107 109 119 122 122 118 116 111 109 104 93 97 96 101 100 100 103 106 101 98 99 90 86 72 68 66 71 74 84 88 96 103 106 110 106 98 102 107 107 103 105 104 95 101 110 120 128 141 150 154 165 178 181 199 193 181 180 168 176 152 128 137 143 145 149 147 152 149 161 167 164 150 148 143 139 145 158 142 140 134 127 133 124 108 98 101 78 76 80 80 91 100 105 108 119 123 121 118 116 114 112 106 98 101 103 102 105 104 101 100 94 93 96 92 84 76 69 68 73 78 82 90 92 96 99 103 98 100 99 103 106 110 110 107 106 108 112 129 139 145 152 158 175 178 183 197 186 178 176 168 171 140 129 138 144 140 145 151 150 150 159 164 165 145 138 134 142 154 151 140 138 127 126 129 127 112 92 103 86 71 77 86 92 94 101 101 112 118 117 113 116 107 107 99 96 100 105 104 112 114 110 110 103 96 91 91 90 84 75 75 74 71 76 80 88 91 94 96 96 98 99 100 104 113 110 108 110 111 119 128 138 146 151 164 180 172 184 190 180 179 169 169 161 133 130 138 138 138 144 151 150 154 158 160 162 142 137 135 155 153 151 141 134 128 124 128 129 114 102 100 87 71 69 82 84 93 90 97 105 110 114 113 109 108 105 100 95 96 96 98 102 111 107 103 96 93 94 94 91 85 74 80 75 75 72 77 81 90 96 96 98 98 100 99 100 113 119 110 115 118 124 129 138 150 153 165 181 164 179 187 172 170 168 170 147 133 133 137 129 136 149 146 152 155 156 154 162 140 138 149 162 157 148 140 136 130 120 130 136 118 106 102 92 76 65 72 78 92 86 92 95 99 108 115 104 109 107 105 100 100 100 98 96 101 97 97 97 94 91 94 87 86 78 75 74 77 82 84 89 92 99 100 101 99 103 112 114 115 124 118 123 124 132 133 142 152 155 166 176 164 179 181 163 158 168 163 135 133 139 138 130 136 152 142 150 154 155 152 158 138 147 161 164 156 147 141 140 131 121 132 138 123 111 103 99 84 67 70 74 96 91 87 93 94 105 110 106 105 105 107 113 109 110 105 100 104 105 105 109 106 103 101 94 95 89 89 84 91 95 93 93 101 102 106 107 108 115 129 129 126 132 131 130 131 133 143 144 153 156 166 172 158 181 178 155 155 163 151 128 132 141 142 138 139 138 148 147 149 159 156 156 148 160 163 163 156 144 143 137 132 122 129 138 130 119 110 101 89 71 71 77 92 105 90 85 86 93 101 107 102 101 110 117 118 120 120 115 114 112 115 118 114 112 110 101 103 103 95 94 99 103 102 104 110 113 122 125 128 132 135 137 141 145 142 142 136 136 143 146 151 159 165 163 156 182 168 154 154 157 136 123 129 136 148 145 136 140 144 146 148 154 159 154 165 165 165 166 156 146 143 138 136 128 129 139 133 126 114 95 95 84 74 76 89 113 99 90 88 88 98 106 111 110 110 111 112 118 120 125 125 124 126 127 128 122 120 113 114 115 113 105 108 106 106 115 117 123 126 130 134 136 143 144 148 150 146 141 135 135 139 149 153 163 162 160 156 174 164 151 147 147 128 124 131 136 144 156 143 145 139 143 150 152 154 152 166 165 165 164 156 151 143 140 135 136 132 136 134 134 119 100 96 96 82 80 81 104 105 91 91 88 93 100 104 112 119 114 113 118 118 122 128 125 130 131 128 126 122 117 116 116 112 107 107 101 108 113 112 116 120 126 128 132 145 151 150 153 142 137 137 139 140 147 153 161 161 158 159 169 168 141 137 138 120 119 126 139 140 153 154 144 143 144 143 149 151 156 170 168 169 171 161 155 146 146 140 140 138 135 135 131 121 109 102 100 91 85 85 93 98 84 87 84 89 94 97 105 107 111 115 116 116 119 126 126 131 128 118 118 117 112 111 110 109 107 105 105 110 111 114 115 115 119 127 131 146 149 150 149 144 138 142 140 141 147 155 158 161 162 159 173 165 130 125 129 118 118 123 141 140 149 155 154 140 140 143 144 147 151 170 169 170 171 161 154 146 150 147 151 148 140 131 121 118 116 115 112 98 97 92 94 88 87 78 76 77 80 85 90 94 94 101 101 99 104 111 112 109 113 109 107 110 104 98 101 106 105 100 104 102 106 107 109 112 115 125 129 133 144 150 152 147 137 139 136 142 147 148 157 166 161 154 173 160 122 115 131 116 113 122 141 139 145 152 157 147 139 140 144 145 148 172 172 173 168 160 153 147 156 151 157 155 140 121 113 112 119 122 122 104 103 96 98 88 92 82 71 68 68 69 76 80 86 86 92 88 91 91 91 91 91 93 94 93 94 95 91 93 95 96 95 94 95 97 101 103 108 114 123 129 137 142 145 140 137 136 137 141 142 144 160 165 158 153 166 156 118 116 127 109 113 120 141 140 143 150 152 154 147 139 138 141 144 172 172 171 165 163 152 154 160 157 156 158 130 110 107 105 119 125 128 115 112 106 103 91 100 92 74 71 68 66 70 75 80 82 81 76 75 83 79 80 78 77 77 76 79 81 82 84 82 82 80 80 84 85 91 95 105 105 114 124 133 135 137 139 134 136 135 138 139 145 162 161 154 159 165 151 126 121 123 108 108 120 135 137 138 144 150 153 154 144 137 139 140 174 171 170 166 164 155 160 168 162 159 156 116 99 97 103 117 123 127 115 125 108 112 104 109 105 84 70 66 62 67 67 77 76 76 74 72 78 76 74 75 71 70 72 74 75 76 80 82 85 82 83 82 83 86 90 99 104 111 119 132 135 133 135 133 133 131 133 139 149 162 159 154 158 161 155 138 121 122 106 111 114 130 136 133 138 150 156 153 155 146 146 142 175 172 167 168 167 160 168 173 162 163 143 103 84 95 98 113 118 126 119 119 117 122 113 115 118 96 76 65 60 61 65 68 73 74 72 73 76 75 79 80 79 79 78 75 76 78 81 84 85 87 88 86 86 87 96 99 103 112 116 124 130 128 132 129 126 126 129 141 149 156 152 148 156 156 147 149 130 122 105 114 115 131 141 135 139 149 162 159 158 152 153 151 175 169 168 167 171 167 173 172 160 158 127 93 77 90 104 110 119 124 121 113 117 124 115 121 123 111 83 71 60 56 59 62 66 70 70 71 75 74 80 81 83 87 86 86 85 87 88 90 87 86 85 89 92 94 98 100 105 114 112 118 124 124 124 120 118 122 130 138 143 148 144 153 153 153 135 161 140 121 104 112 119 134 141 141 140 147 160 165 156 159 154 155 178 171 167 167 172 170 162 167 157 148 118 74 78 86 102 107 118 132 118 119 115 119 119 118 123 118 100 81 70 56 57 54 54 61 63 61 70 71 74 75 78 81 83 89 87 93 91 92 89 89 87 91 96 99 94 99 104 106 106 108 114 113 109 111 111 120 132 133 132 146 151 159 156 150 134 153 142 123 112 116 124 132 143 144 141 147 157 165 159 157 159 158 178 171 167 166 165 158 153 159 154 137 109 62 78 90 98 104 119 131 117 119 121 118 119 120 111 117 115 94 78 61 55 51 46 51 53 52 55 62 64 68 69 70 76 78 82 85 86 87 88 89 87 89 94 94 92 95 95 97 97 99 102 96 99 105 105 117 127 123 127 149 151 166 160 148 140 126 140 125 121 118 128 131 143 146 142 146 154 162 160 155 158 157 180 168 159 155 156 152 146 148 136 120 88 61 74 92 99 102 120 129 119 115 118 124 120 120 110 106 111 104 86 68 59 51 48 46 44 44 39 47 51 56 62 60 64 67 68 69 72 79 78 80 83 83 82 84 87 85 86 83 83 83 89 89 93 96 102 112 116 118 131 149 153 167 154 154 134 115 132 130 125 121 125 125 134 145 147 146 145 151 152 145 153 153 165 156 153 154 147 138 125 121 116 97 67 58 70 89 102 103 118 133 124 119 117 124 126 113 115 105 99 102 91 82 71 61 51 40 41 39 33 28 32 37 41 46 51 51 53 56 56 60 60 64 66 66 68 71 71 70 70 68 72 78 83 84 87 92 98 109 115 119 136 155 154 166 148 162 121 107 113 137 127 126 125 119 118 130 145 144 138 139 139 137 135 139 154 141 133 135 130 120 96 104 102 76 55 51 66 84 96 106 114 134 123 126 121 121 125 117 115 107 97 94 89 87 78 74 61 49 36 30 32 27 22 18 21 27 28 32 36 40 40 38 43 45 44 48 48 52 50 50 48 61 74 78 76 77 83 90 95 104 112 122 141 159 158 161 156 158 116 103 102 131 132 133 125 122 119 130 145 148 139 138 140 139 136 133 138 127 123 120 111 99 72 84 88 68 56 49 71 89 91 104 114 135 128 128 125 124 122 119 118 114 102 95 90 87 83 74 67 59 48 35 34 25 19 13 14 16 12 16 18 21 22 21 24 24 23 23 25 28 36 42 53 66 75 72 73 76 89 93 97 103 112 129 148 150 150 156 154 141 116 102 101 127 120 132 126 122 123 129 141 150 147 136 142 144 140 139 116 106 105 94 91 79 65 81 81 69 58 53 80 89 84 102 116 133 132 133 126 127 127 121 117 118 113 108 95 93 89 83 76 66 59 49 40 34 25 12 15 14 9 8 6 7 4 6 10 9 8 11 18 31 42 51 62 66 71 70 74 79 92 99 101 109 116 128 149 146 145 153 153 127 115 103 108 127 107 119 125 127 126 127 132 150 147 133 132 138 140 140 103 94 91 85 83 76 74 83 74 79 54 64 88 87 85 103 117 127 129 135 132 125 127 125 115 116 117 116 104 101 93 92 87 77 72 64 53 42 32 24 21 23 14 11 9 2 0 0 4 4 8 11 26 45 49 57 67 70 68 74 81 90 94 100 104 110 116 133 147 139 149 157 150 125 108 110 116 128 97 107 114 128 135 134 132 144 150 144 130 127 135 142 