P2
92
112
255
82 84 85 83 86 84 90 88 86 87 91 90 90 87 86 90 92 104 116 128 134 134 146 145 149 154 159 159 161 165 164 164 159 167 160 156 158 163 151 153 153 139 133 140 138 134 134 139 145 139 136 125 123 119 118 116 116 122 115 113 108 109 108 104 103 93 79 77 87 88 95 97 100 96 94 95 95 91 91 89 88 88 88 88 91 88 89 90 89 91 89 88 83 84 86 84 86 87 88 87 89 87 90 92 86 89 92 93 103 118 131 133 140 142 148 152 158 157 167 173 168 170 165 162 154 151 147 145 141 147 140 135 131 121 116 125 127 127 125 131 134 137 137 133 126 124 126 131 128 126 126 121 112 106 104 111 109 102 102 96 90 88 92 98 102 97 100 94 93 94 92 90 90 87 90 89 91 88 90 90 88 90 90 90 84 85 86 88 85 87 89 88 89 90 89 94 91 86 97 103 113 129 135 134 139 144 152 157 163 166 172 175 172 159 148 148 144 139 138 121 119 122 115 108 109 103 101 106 107 108 107 110 112 113 114 119 122 123 130 136 127 131 128 130 121 115 107 110 112 104 104 103 109 101 102 98 105 105 104 93 95 96 95 91 89 89 88 91 89 89 89 90 91 89 89 91 87 87 87 90 90 88 85 87 90 95 93 94 93 95 106 122 124 134 131 131 142 145 143 159 173 170 169 165 153 138 128 126 128 120 112 98 96 91 84 89 92 88 80 87 84 89 85 80 79 88 90 90 107 109 123 127 125 123 125 135 126 117 116 113 111 115 105 101 106 108 116 115 109 113 107 95 92 96 91 93 90 92 88 91 90 89 89 88 92 89 89 89 86 87 88 89 91 88 89 90 91 93 96 96 104 116 122 134 133 133 130 133 141 138 154 159 159 158 142 144 132 125 112 108 101 95 78 77 77 69 60 68 71 71 66 56 61 73 67 57 58 74 76 73 81 96 108 101 106 108 116 124 121 119 123 116 121 130 115 108 104 107 108 123 122 119 115 104 95 95 98 95 95 95 92 91 89 88 90 88 92 89 89 90 85 86 87 87 85 87 89 95 98 101 101 111 121 131 131 134 132 132 137 139 144 152 159 155 141 131 125 117 111 98 92 88 78 70 62 53 58 54 46 41 48 54 50 40 42 51 47 43 48 53 58 62 64 73 78 81 87 93 97 102 104 106 115 114 119 129 126 119 117 113 111 117 122 123 121 117 104 96 98 103 98 96 93 92 92 87 88 88 89 87 90 88 85 90 88 85 83 86 92 97 101 102 116 126 127 128 132 133 135 136 147 145 148 152 143 132 127 118 107 96 91 87 83 72 67 61 57 44 42 43 39 35 35 38 32 29 29 35 33 24 32 45 46 52 53 59 63 70 76 75 82 89 90 91 100 99 104 116 128 129 129 125 123 121 113 118 120 121 114 108 101 94 104 98 96 95 91 88 87 87 86 87 90 89 87 88 86 83 86 91 100 98 101 117 126 126 124 128 126 133 146 155 156 154 150 135 129 123 119 105 94 79 77 77 75 64 55 56 46 39 38 39 32 31 36 33 29 20 22 28 33 25 21 29 32 38 36 50 54 57 63 66 70 76 85 83 91 86 91 104 123 124 124 128 134 130 122 114 117 112 117 114 113 97 93 100 99 93 91 91 87 85 86 86 89 89 89 90 84 88 94 98 99 101 111 131 129 124 125 128 134 147 156 160 161 153 142 130 120 111 94 89 87 77 64 63 62 57 53 49 43 34 40 37 29 29 36 28 23 24 22 22 28 27 22 23 27 31 33 41 40 45 52 60 59 67 74 77 76 76 87 93 101 112 113 124 134 137 133 120 120 110 114 115 115 116 100 94 98 94 93 89 90 85 87 86 88 90 89 87 89 94 97 98 97 109 124 128 126 128 130 133 146 160 162 157 150 135 125 116 107 86 74 69 67 64 55 54 49 49 49 49 39 40 36 32 28 27 31 30 26 23 26 25 24 25 20 25 26 33 37 38 41 42 50 54 60 58 63 72 74 69 77 89 89 96 104 112 124 132 144 128 124 124 112 117 117 122 113 104 95 98 100 91 90 90 90 88 90 88 90 89 96 100 99 101 114 124 129 129 129 134 135 147 163 162 163 149 136 125 108 93 88 73 61 59 53 49 51 48 44 44 44 45 41 33 36 36 31 30 27 26 29 26 26 33 25 25 29 32 29 34 40 45 46 47 45 57 57 58 57 60 65 69 70 83 84 87 99 102 111 117 133 135 133 130 124 119 115 120 127 113 105 102 106 102 93 90 90 89 89 88 92 95 100 100 100 113 127 128 127 128 131 139 154 165 176 167 150 139 119 102 84 76 62 58 53 50 46 45 45 45 40 38 37 34 33 28 37 37 34 31 35 26 27 30 36 37 35 39 37 37 41 37 39 39 48 52 46 55 52 59 54 57 60 66 73 76 78 85 90 93 105 107 114 125 136 139 131 123 122 126 121 122 120 109 104 105 101 91 93 88 90 90 95 98 102 100 112 124 132 132 125 130 137 153 161 177 172 153 130 120 104 93 85 65 62 57 54 49 47 43 39 35 31 32 31 26 25 21 30 36 34 37 37 31 28 35 39 42 44 47 45 42 45 44 52 52 54 53 54 56 53 53 59 55 60 60 68 77 81 87 86 94 102 108 118 119 138 143 140 130 129 133 128 127 127 122 105 106 102 98 93 88 89 91 101 99 104 106 121 132 133 133 135 141 155 165 175 173 153 130 108 100 96 89 72 66 65 62 59 52 43 39 31 31 27 28 30 29 27 30 37 35 32 32 34 35 36 35 46 47 48 55 57 54 52 60 60 63 66 58 61 64 58 58 63 67 66 66 68 72 82 84 85 92 103 110 119 127 131 137 150 145 139 143 139 139 126 126 117 98 105 104 99 89 91 89 102 105 111 120 134 135 139 136 139 158 166 175 176 163 136 111 106 101 93 79 73 71 66 64 57 50 45 42 34 35 36 35 38 39 34 38 43 45 43 39 42 45 47 48 53 57 59 66 70 73 68 71 72 75 73 69 70 74 72 71 72 71 72 68 73 75 79 88 91 92 103 109 124 124 133 137 154 161 164 155 151 148 136 130 120 109 101 106 108 98 89 88 106 109 111 130 134 141 148 147 157 170 176 182 170 147 117 111 105 103 93 79 82 73 69 62 54 47 48 48 43 43 45 47 50 50 51 50 53 56 61 58 59 59 60 62 69 69 72 73 80 83 84 83 85 84 82 82 80 83 79 80 77 76 76 75 76 79 77 83 98 103 109 113 122 122 130 135 155 169 173 170 166 158 143 137 128 119 105 98 107 106 95 90 108 109 119 135 140 144 159 161 163 180 188 182 160 135 116 114 108 97 90 90 81 79 69 64 59 55 54 53 51 55 57 59 58 59 63 69 74 75 76 73 73 74 73 76 82 84 85 85 88 89 95 99 99 96 95 95 91 93 92 92 88 84 85 85 88 89 86 91 98 103 110 115 128 128 126 129 152 164 171 175 172 165 161 146 132 130 115 97 99 102 105 98 110 113 134 143 146 154 163 164 177 193 192 175 147 120 115 115 113 102 97 96 87 80 71 68 64 65 63 62 64 64 65 70 71 78 80 90 91 89 90 85 89 90 89 92 95 99 99 98 100 104 106 109 111 108 108 106 104 107 107 105 106 103 103 101 101 103 100 97 99 110 110 126 130 132 135 128 145 166 162 172 178 175 176 157 139 134 126 108 97 98 106 103 121 131 147 153 162 159 170 176 193 200 191 166 134 119 119 122 110 101 100 95 88 84 78 77 72 73 75 77 80 79 78 87 88 95 98 105 103 104 103 105 106 106 107 107 112 114 118 118 115 119 119 119 123 125 125 124 123 123 123 125 125 123 122 121 118 115 115 113 109 115 114 125 136 134 140 140 139 158 162 169 181 185 176 167 147 140 135 117 105 97 101 106 131 147 155 158 166 164 172 192 200 199 175 153 134 126 126 119 108 109 106 100 92 90 86 82 79 85 90 93 91 95 97 102 104 107 107 113 115 119 121 121 124 124 125 126 127 127 133 133 129 133 135 134 136 137 141 146 143 144 144 142 141 142 139 137 133 131 129 127 126 125 127 127 140 141 144 149 148 155 166 173 183 187 181 178 170 149 142 129 116 103 96 106 147 159 161 163 165 169 177 189 197 183 158 151 144 135 123 117 115 111 107 101 97 91 92 87 92 98 99 101 104 108 112 114 118 118 120 121 123 131 134 132 136 137 137 138 139 140 144 144 144 145 150 148 150 153 157 162 162 162 159 156 155 155 155 152 148 144 142 141 138 139 137 136 142 149 149 151 156 161 170 177 180 190 192 178 178 163 149 142 115 111 101 97 156 166 163 166 169 177 181 195 197 172 154 156 147 130 126 121 118 113 106 104 101 96 96 103 104 107 106 112 119 122 123 124 125 130 127 128 132 134 138 140 143 149 149 149 150 150 155 152 152 156 157 160 162 163 167 171 172 171 168 167 165 166 167 165 162 158 154 151 147 149 143 142 147 151 149 153 160 163 167 181 185 190 196 192 185 174 158 149 122 108 103 98 165 172 171 174 170 184 197 200 185 161 157 154 136 134 132 128 121 112 109 105 102 102 106 114 111 111 120 124 130 130 130 131 133 135 134 137 139 139 141 146 146 151 155 155 156 159 162 160 159 165 165 166 168 170 175 179 185 181 180 180 182 183 183 179 176 172 166 163 154 154 153 146 149 160 156 158 167 167 173 183 194 190 198 198 201 184 173 161 141 115 104 105 167 171 173 174 183 202 200 197 174 166 165 151 137 142 139 129 123 118 109 106 109 114 115 120 116 122 134 137 134 135 136 135 135 139 138 141 142 146 146 150 149 152 154 155 157 160 165 169 168 173 176 178 178 181 187 186 188 190 187 190 193 195 197 196 196 191 182 173 167 161 161 157 152 159 167 166 169 171 178 191 199 201 194 203 210 203 183 170 148 133 106 108 166 172 170 184 193 192 185 177 172 164 159 149 150 148 141 133 126 121 108 111 119 122 123 128 129 136 140 139 142 141 140 142 141 143 145 143 145 149 150 149 150 152 153 154 159 164 168 172 175 177 182 185 188 191 193 194 193 197 195 196 200 204 205 206 205 200 197 184 173 168 170 162 161 162 169 174 172 176 180 190 194 208 205 197 209 211 195 170 158 140 114 106 166 162 180 185 186 186 172 177 169 165 154 160 159 148 146 136 125 118 112 123 130 130 133 134 142 144 142 141 143 145 143 143 145 145 147 146 147 150 150 151 150 152 152 157 159 162 165 168 170 173 178 183 186 194 193 197 199 202 199 204 205 209 208 210 210 207 203 194 185 174 175 170 166 168 171 178 180 176 178 187 191 206 217 211 210 210 201 184 161 136 119 111 163 169 178 181 186 187 173 177 167 164 160 168 160 148 147 139 126 126 126 137 140 139 138 142 145 144 142 145 143 145 142 140 144 144 146 149 148 150 151 151 151 151 152 152 156 159 158 163 166 170 173 179 185 194 196 199 197 199 201 207 208 211 212 215 215 212 209 203 198 185 182 179 173 172 172 182 186 183 185 182 196 213 213 219 213 213 204 183 168 144 121 115 162 177 181 177 188 187 177 176 167 164 158 168 160 150 145 138 132 137 142 142 147 142 145 145 142 143 145 144 143 140 141 143 144 145 148 151 150 149 149 149 153 152 152 151 152 158 153 158 163 171 171 175 183 193 198 202 199 198 204 208 210 211 216 214 216 215 214 209 206 194 193 185 180 179 174 181 189 183 189 187 194 213 209 215 218 213 210 181 159 150 126 111 163 185 184 186 191 188 175 181 167 165 166 171 167 153 148 143 142 147 147 144 147 146 147 140 143 148 149 144 140 142 143 147 147 149 148 152 152 150 151 149 152 153 152 153 152 154 156 159 163 169 169 176 183 194 198 203 206 206 209 210 212 218 219 217 218 218 215 216 216 209 203 195 183 180 178 178 189 188 185 192 200 205 214 216 218 219 217 188 160 145 124 115 176 183 184 190 186 184 179 176 167 167 173 173 162 154 148 146 147 147 152 145 147 145 145 141 148 149 149 145 144 146 148 149 148 152 151 152 154 151 153 149 151 154 152 154 149 152 155 161 162 170 171 179 185 196 199 204 210 211 213 215 220 222 219 217 216 215 217 218 219 215 212 206 188 184 179 177 189 193 188 190 201 213 204 218 223 217 212 195 166 148 124 119 191 180 184 188 185 188 176 173 167 165 169 170 156 152 147 144 146 148 151 145 146 147 145 145 146 147 145 143 146 150 149 146 147 149 151 149 151 150 151 147 150 154 153 153 150 152 157 163 164 170 173 182 189 196 201 206 211 215 215 219 221 226 223 219 222 218 216 215 218 220 216 210 200 185 183 175 182 189 193 189 200 216 210 209 229 216 203 201 173 149 131 125 194 181 182 190 190 187 175 164 166 166 172 167 155 144 145 144 148 146 150 145 147 147 144 145 145 143 145 144 152 153 150 150 150 149 149 148 150 148 146 149 148 150 154 154 154 153 159 165 168 171 177 185 192 196 202 205 209 214 219 221 224 228 229 223 227 223 220 218 218 221 219 213 204 190 181 177 184 185 190 188 195 210 215 207 219 219 205 201 185 162 146 125 188 179 178 188 190 187 174 164 170 168 168 158 149 144 147 142 149 152 153 151 151 150 148 145 143 146 151 155 159 160 159 160 158 159 156 149 150 147 148 145 151 155 158 156 156 156 164 172 173 173 176 180 189 193 198 201 207 206 212 219 226 231 230 228 230 233 225 226 222 221 221 217 209 193 182 178 179 186 183 193 191 202 214 210 215 210 197 194 189 176 160 130 180 184 176 187 188 182 174 167 167 158 161 152 144 148 147 145 154 157 157 154 156 150 154 150 153 160 164 167 171 168 169 168 165 166 163 160 160 161 157 156 159 157 162 163 163 165 163 168 171 172 175 178 187 191 194 199 204 205 211 222 227 234 234 234 233 243 236 237 239 232 225 221 214 201 189 182 183 185 181 191 193 200 211 207 216 195 189 192 188 181 175 138 177 188 184 185 184 183 174 172 166 160 158 147 143 148 150 153 156 159 162 161 161 163 168 167 174 179 178 185 186 183 181 179 175 178 178 176 171 173 169 166 165 162 163 164 163 163 164 168 170 171 173 178 185 190 194 198 203 204 213 221 226 233 233 233 237 244 238 246 245 245 242 228 223 210 198 186 183 186 181 188 192 199 213 206 206 200 188 191 188 180 182 152 183 191 186 184 185 185 177 170 167 165 154 146 140 149 151 156 156 154 161 163 162 171 174 181 186 190 190 194 189 187 191 194 192 187 183 182 179 174 173 171 171 169 167 168 168 170 167 173 177 172 174 176 182 188 191 194 199 201 207 213 219 225 228 229 236 241 244 246 255 249 251 244 229 220 202 185 181 180 183 189 191 200 206 205 199 203 199 189 191 182 179 157 192 190 188 182 190 188 181 170 173 165 153 145 136 148 146 152 151 154 163 159 164 174 178 186 188 188 189 187 190 186 184 192 185 186 187 185 182 179 176 173 173 171 169 171 174 174 177 175 178 175 171 172 174 178 180 185 190 194 201 206 215 217 222 225 231 238 239 246 251 247 246 244 234 221 209 192 179 181 175 187 190 194 206 205 200 200 201 190 183 191 181 161 189 192 185 172 187 188 191 170 173 164 149 136 132 141 147 145 145 157 156 151 162 169 173 177 180 178 178 183 185 182 181 181 183 182 181 181 179 178 176 175 175 172 169 167 173 170 173 173 171 170 169 168 168 171 176 181 188 194 198 202 206 214 217 221 219 231 233 238 243 243 243 237 238 223 212 198 181 180 180 184 186 188 198 203 195 199 192 183 185 186 184 167 184 183 179 184 183 189 193 170 174 164 146 131 129 144 148 146 149 159 155 149 163 164 169 170 166 170 175 174 176 174 175 176 175 175 174 175 177 174 174 174 172 170 168 165 170 169 169 170 169 168 168 170 172 173 178 181 186 190 193 197 205 204 205 206 208 215 226 231 234 243 242 240 234 229 208 195 180 170 178 183 178 183 194 200 193 194 192 180 189 188 187 168 182 182 183 189 184 190 191 171 173 160 136 130 138 144 151 145 153 152 148 153 158 158 160 161 158 159 159 164 162 167 167 164 165 166 170 168 168 172 172 169 169 166 165 164 168 167 166 169 169 169 169 170 173 176 182 183 187 186 190 194 199 200 198 203 203 210 218 225 226 234 243 239 241 234 220 201 184 172 172 182 179 174 193 200 193 183 183 189 178 188 185 170 183 186 190 181 183 189 186 178 169 144 136 144 141 144 152 147 149 142 148 153 158 163 159 162 153 154 153 154 156 163 163 161 165 163 163 164 165 165 167 165 164 160 161 160 162 165 164 165 166 167 168 169 171 173 177 179 179 181 185 187 191 194 195 195 200 203 205 213 218 225 235 240 240 242 233 223 191 182 183 185 190 180 184 199 190 181 182 180 175 182 181 176 189 190 182 172 187 183 185 181 161 143 141 145 138 147 148 147 142 149 153 159 157 164 156 152 144 142 143 143 151 154 144 145 148 147 148 149 150 151 156 156 150 149 149 146 148 150 152 156 157 159 159 161 162 165 168 168 167 168 171 176 177 182 183 184 186 194 197 204 210 220 223 234 231 235 232 224 209 184 177 185 193 196 193 193 193 173 183 174 169 177 173 177 198 189 179 173 176 172 183 172 152 139 135 143 138 147 138 142 136 146 147 153 150 152 141 138 139 137 137 139 145 144 140 140 138 136 137 139 139 140 145 145 142 138 141 136 135 140 140 142 144 145 147 150 149 155 160 158 156 157 161 162 168 166 171 171 171 175 178 189 199 202 212 229 228 219 226 221 215 184 171 178 182 187 200 191 186 169 170 173 161 170 166 168 188 183 185 170 165 159 174 164 147 137 144 146 140 144 139 144 141 141 153 155 149 141 135 132 134 133 143 134 136 134 125 125 126 121 123 126 125 124 130 128 128 128 126 123 124 127 132 136 136 135 137 142 143 137 143 145 141 139 142 141 143 150 150 150 157 159 167 177 177 180 198 218 227 219 225 218 211 193 175 170 183 187 194 192 180 158 146 164 157 156 169 164 180 184 184 178 170 162 168 170 139 137 144 144 144 139 138 148 140 145 157 151 141 140 135 126 123 124 128 114 114 112 107 101 107 106 107 113 112 112 99 112 118 121 116 116 109 116 116 123 125 122 124 130 128 131 131 128 128 122 121 124 124 122 131 127 137 141 150 167 175 164 182 201 215 213 219 219 208 194 169 168 177 193 186 182 172 162 143 157 157 149 168 158 179 198 189 181 182 182 177 168 137 144 150 153 141 145 142 149 137 149 154 134 128 135 125 114 103 111 103 99 97 94 86 85 85 92 89 99 97 97 84 90 107 117 115 117 110 104 105 111 113 107 111 110 111 112 113 107 102 99 96 96 95 92 96 100 108 117 130 143 156 162 170 184 198 207 212 213 207 197 167 164 183 193 177 169 153 160 148 154 150 139 161 154 192 203 191 182 190 185 177 169 137 144 153 147 135 148 137 141 142 146 128 121 124 121 116 97 83 83 75 67 69 63 61 62 57 65 68 76 76 73 73 75 95 109 110 114 109 98 97 99 97 100 98 95 93 91 90 90 82 77 74 69 75 78 76 73 70 89 105 120 135 145 151 160 173 190 199 202 200 191 167 164 176 190 177 168 140 151 156 153 150 140 143 147 185 200 187 183 188 185 163 157 140 139 142 141 134 138 130 131 139 134 117 125 126 110 99 94 80 66 62 54 46 38 36 37 37 41 53 63 65 68 72 81 83 90 102 100 98 83 85 84 88 87 85 77 72 74 79 72 59 58 55 54 54 55 61 57 52 69 91 108 120 132 145 149 156 170 190 196 187 183 170 159 162 180 183 174 141 131 148 139 155 144 137 136 184 189 179 186 193 185 153 138 130 132 132 130 127 117 119 116 122 132 120 122 116 100 87 76 76 66 61 50 42 30 33 29 29 29 37 47 48 60 56 63 74 75 89 84 82 69 75 77 78 83 73 68 60 58 62 60 51 41 34 45 44 39 44 47 40 52 65 81 99 111 125 136 146 151 177 183 173 166 162 144 160 171 181 178 148 120 129 133 146 161 148 141 190 178 180 198 198 184 151 129 122 129 130 131 125 114 101 116 128 129 115 120 106 91 74 64 70 63 55 45 37 28 36 26 19 21 32 36 43 42 41 53 50 53 72 78 66 66 68 61 75 75 62 50 47 47 43 32 28 28 23 45 46 39 44 56 49 44 54 69 79 89 101 120 137 144 152 170 170 165 157 153 162 168 166 168 151 123 130 145 150 157 151 141 187 176 178 193 182 183 159 128 122 135 141 138 124 107 100 125 133 123 110 117 107 92 84 84 76 72 58 44 40 36 37 38 33 31 37 34 32 20 28 30 37 48 63 75 63 67 68 57 68 67 68 48 47 48 48 31 24 25 26 41 46 43 47 68 61 51 38 73 72 84 88 112 131 140 151 161 177 171 164 155 161 161 162 160 156 129 124 159 155 154 155 142 183 176 184 187 174 184 155 140 137 144 139 129 111 95 102 123 129 108 111 112 102 89 85 82 82 61 55 39 40 39 46 55 47 43 33 37 30 20 27 19 32 46 67 77 62 65 68 67 66 67 64 47 41 46 40 34 22 26 29 32 41 40 46 59 56 57 56 58 68 78 87 106 127 146 159 167 177 180 160 153 165 166 166 167 148 133 124 161 164 156 159 142 188 176 177 177 169 174 143 141 136 151 142 128 117 102 119 118 127 115 114 114 111 98 87 79 79 62 50 38 48 48 49 53 50 52 30 37 30 33 26 27 40 59 77 73 72 69 76 75 76 67 60 56 42 46 46 41 31 34 43 47 49 47 48 52 49 57 71 66 75 87 91 110 133 146 157 166 182 187 159 157 167 167 165 164 146 141 124 155 158 154 154 139 187 169 165 170 157 158 137 135 140 145 139 134 124 113 133 123 126 116 110 109 114 105 88 79 79 84 80 68 61 61 57 52 51 52 40 51 54 51 53 54 63 79 90 83 86 79 82 91 85 68 63 60 43 40 40 41 38 40 50 49 59 52 52 54 59 55 69 93 94 92 113 111 135 146 158 171 187 201 179 167 165 171 162 160 146 145 123 142 150 140 148 121 178 151 153 152 150 152 131 134 136 139 137 138 125 120 137 138 133 127 122 114 116 115 98 87 94 95 94 90 82 72 65 61 71 61 58 68 71 48 51 49 69 83 85 96 100 97 92 101 99 75 71 69 67 54 56 51 50 48 61 71 72 59 63 53 58 57 54 89 112 115 120 122 145 165 173 182 194 209 194 170 178 169 173 164 151 150 122 132 142 131 142 110 170 144 146 141 142 153 130 130 133 140 136 135 125 124 140 139 135 124 120 114 114 113 106 96 99 105 102 97 97 93 79 74 82 75 86 89 80 61 66 73 88 95 104 111 118 115 108 100 102 105 97 90 85 84 64 70 72 72 70 81 91 74 78 81 67 79 78 92 115 124 132 133 162 183 182 194 207 217 203 186 170 179 177 159 150 152 126 136 139 131 145 116 163 149 140 134 143 157 130 133 130 138 140 133 133 130 141 152 151 139 128 122 117 116 110 103 106 108 109 111 109 99 93 82 80 90 96 100 87 88 87 92 114 126 125 132 137 132 125 117 106 120 113 112 101 96 77 85 87 89 84 96 113 110 100 98 87 92 101 102 124 135 146 156 173 187 187 194 212 227 220 191 171 187 176 150 153 153 125 150 136 134 141 121 167 155 149 138 152 158 138 137 138 135 142 136 131 135 146 158 160 155 143 134 124 125 121 121 122 127 127 131 133 120 108 98 91 105 112 100 102 100 98 112 132 138 140 141 145 137 141 135 119 129 139 133 122 108 91 96 90 97 97 106 117 123 121 110 110 118 124 127 139 146 163 167 189 196 195 202 216 235 234 192 187 187 174 153 152 143 120 149 131 131 134 117 166 169 153 148 165 162 140 140 132 133 134 142 130 136 151 162 162 166 158 152 142 136 135 137 127 133 138 140 142 129 122 110 112 113 112 115 118 117 114 129 146 147 155 152 152 144 143 148 147 145 152 153 140 130 119 122 110 105 106 112 119 129 132 126 124 134 141 148 156 167 176 187 201 203 213 215 224 228 229 202 199 188 172 160 160 141 121 137 119 130 127 122 168 169 160 154 178 162 143 145 131 135 132 141 135 138 149 162 162 164 164 159 151 144 148 147 139 142 142 143 138 135 129 124 124 123 132 129 124 137 140 137 146 148 156 156 158 147 149 156 153 151 151 152 154 140 126 139 131 112 118 123 130 138 142 142 145 141 155 159 166 181 189 189 199 200 212 215 220 220 229 209 199 198 178 163 159 158 137 129 121 126 124 113 181 163 176 157 177 160 143 143 139 140 131 139 137 141 150 157 163 160 161 162 168 162 163 164 157 151 146 141 144 144 135 137 135 144 150 152 148 152 145 150 152 152 157 155 154 148 152 161 161 162 160 165 167 160 154 152 152 131 133 133 140 146 147 152 152 154 163 173 174 183 187 189 195 196 209 218 220 224 226 210 207 208 191 181 173 181 154 134 121 126 120 100 175 160 178 157 152 155 151 140 142 143 140 143 139 141 150 149 164 161 158 156 164 172 163 166 163 159 160 155 152 146 143 142 145 152 155 158 151 147 147 157 149 152 155 158 153 152 157 150 153 155 165 171 169 162 152 153 143 136 138 141 141 145 148 152 151 158 162 170 173 171 180 183 183 194 205 212 216 220 222 205 211 219 208 196 178 186 160 139 118 124 115 95 163 155 169 167 138 126 142 135 125 140 137 141 146 136 144 149 159 160 160 158 164 168 175 169 168 164 164 164 161 155 150 147 148 152 152 148 146 147 154 155 157 153 153 163 167 168 158 159 155 165 167 173 165 168 149 140 137 128 131 137 136 143 137 142 150 151 156 157 170 167 177 183 186 204 208 217 214 220 213 211 211 223 210 199 190 187 151 134 116 121 112 97 147 143 146 171 136 112 136 123 130 136 138 139 136 136 136 144 149 160 156 161 160 163 166 165 162 157 157 156 154 146 140 145 146 151 145 138 145 144 149 155 160 148 150 161 166 160 161 157 162 166 163 166 162 163 161 141 132 121 125 127 133 142 141 143 149 151 153 151 156 168 180 182 193 200 208 208 205 214 210 215 205 212 209 201 196 181 165 136 119 120 108 105 144 132 129 159 148 112 126 113 128 131 138 147 136 131 137 138 141 149 152 152 154 154 156 159 154 153 151 148 146 140 140 148 148 145 137 136 139 140 144 147 148 142 143 149 156 150 149 149 152 156 158 157 159 160 165 156 127 126 122 131 133 132 136 136 141 142 145 150 156 169 181 187 195 201 209 204 203 207 207 212 206 205 200 197 195 181 167 140 121 111 104 110 147 146 123 135 160 131 127 118 131 128 133 142 146 132 136 137 142 143 155 152 153 150 154 155 152 143 140 137 143 137 135 145 140 143 135 132 144 147 143 150 148 139 137 140 143 149 149 148 145 149 152 138 141 154 158 158 143 130 128 129 140 140 132 135 142 141 140 150 154 164 177 187 195 202 205 201 206 204 205 211 209 203 190 182 184 176 167 145 119 115 109 112 138 146 133 131 147 142 139 119 124 129 127 145 148 135 131 131 137 139 144 145 147 149 154 151 146 142 138 138 137 133 134 146 143 139 134 132 134 146 146 149 142 131 129 137 146 140 147 149 147 155 147 141 124 141 142 143 133 128 132 129 133 140 137 132 137 141 146 147 155 160 174 180 191 192 196 200 202 207 200 205 201 188 180 169 172 171 163 152 122 120 119 113 140 140 144 138 148 155 151 127 125 128 125 152 144 130 118 124 125 128 137 137 140 141 153 151 145 144 144 141 137 138 137 141 135 133 134 134 136 143 144 150 142 132 133 140 141 140 138 140 140 150 151 141 129 134 136 131 123 119 126 132 138 139 142 141 135 137 139 145 154 163 174 181 185 191 196 196 198 200 197 203 190 171 160 161 163 161 166 158 129 122 124 118 138 130 140 137 148 159 151 141 131 125 125 143 141 124 113 116 113 119 123 128 129 138 144 144 139 139 139 135 131 136 137 135 140 139 142 143 143 142 143 138 128 125 132 137 140 132 128 129 133 143 147 144 127 125 123 122 116 117 121 132 131 137 139 137 142 140 132 139 148 155 162 171 176 182 185 192 191 193 194 193 179 165 147 161 171 153 172 156 132 124 126 118 147 126 133 131 140 150 149 143 136 126 129 137 135 118 109 109 107 113 116 117 119 128 135 136 136 131 131 132 133 135 139 134 133 135 134 137 135 130 125 130 129 121 128 128 125 120 114 118 124 137 133 134 130 118 109 103 96 105 114 123 125 130 137 138 138 137 135 141 149 157 163 164 170 174 180 181 185 186 186 194 182 171 149 173 175 152 180 156 135 124 123 117 150 139 127 134 131 133 153 138 132 128 124 130 132 117 106 102 101 106 110 107 113 111 122 118 119 122 121 128 126 132 136 130 120 124 122 117 117 117 119 122 126 119 119 119 115 106 109 116 117 124 129 120 117 115 109 102 98 104 111 115 122 127 136 135 135 129 131 139 145 153 157 160 165 168 173 171 182 182 185 192 186 170 139 176 175 161 176 152 142 120 127 118 154 148 124 132 123 130 154 144 127 127 127 133 128 108 103 99 99 104 107 105 106 109 109 106 111 113 109 109 112 115 113 106 103 99 99 96 96 104 106 103 107 106 106 107 109 101 103 107 108 117 128 122 118 115 111 105 105 102 98 100 113 122 127 127 127 125 129 133 142 150 150 151 159 161 166 169 177 178 179 186 187 161 147 177 187 172 171 148 150 121 125 122 147 149 122 130 122 124 138 155 136 120 128 137 121 106 99 97 96 100 102 97 100 99 102 100 103 103 100 94 100 99 94 92 89 80 80 87 83 91 91 93 89 99 95 94 95 94 93 95 100 111 121 126 128 123 113 111 113 107 100 99 103 112 119 117 120 125 126 128 132 140 139 146 151 153 161 170 169 180 178 186 190 165 172 191 196 190 164 152 162 118 120 123 142 140 127 127 119 125 125 145 142 122 125 136 119 106 96 99 99 99 99 98 97 95 98 93 89 87 91 91 94 91 84 81 80 76 73 75 74 72 76 87 87 90 92 89 88 87 84 86 97 106 110 114 117 116 110 111 110 98 99 91 98 104 110 109 112 112 116 124 128 132 137 141 144 150 157 165 167 176 182 189 182 180 192 186 205 197 153 158 158 112 119 128 150 133 135 124 109 122 137 141 138 126 127 131 125 103 99 97 98 98 100 100 98 96 94 92 86 88 87 88 89 81 76 81 79 77 72 71 72 74 69 78 75 77 80 78 78 81 78 74 90 98 95 93 97 99 102 98 91 84 91 98 99 98 106 105 105 107 108 112 124 128 133 140 141 146 154 164 167 176 187 200 187 196 191 184 201 192 149 161 157 110 122 131 152 144 137 131 115 111 127 131 130 130 136 132 119 109 101 91 92 97 97 101 102 98 90 86 85 89 88 88 84 79 76 76 71 74 71 73 76 78 73 80 72 65 68 68 75 78 73 70 75 85 83 82 88 89 88 85 76 74 78 83 81 87 93 97 97 99 96 99 115 123 124 134 141 143 152 161 165 172 188 210 197 200 185 184 191 169 152 171 152 111 127 134 160 151 142 138 133 119 117 122 119 127 134 131 119 105 97 89 89 94 95 99 102 99 92 86 88 86 83 86 82 76 73 69 67 67 67 71 72 69 62 70 69 65 65 63 65 74 71 72 73 80 79 81 84 80 78 81 79 76 74 78 79 82 86 89 91 96 92 91 110 119 122 128 138 142 153 157 164 177 183 199 191 194 175 178 177 169 166 171 141 122 129 140 169 165 146 143 134 122 116 119 103 118 132 131 125 111 98 89 90 92 92 94 94 87 85 83 88 80 81 81 74 66 69 63 63 71 71 70 72 66 58 64 61 62 61 66 69 73 76 69 62 74 73 64 72 65 63 78 79 74 73 74 80 82 84 86 86 93 89 90 100 112 115 129 135 149 156 157 169 179 184 191 194 186 170 172 178 176 176 167 132 128 131 149 162 167 156 147 138 125 121 115 93 109 130 133 129 121 98 90 85 87 88 89 88 78 81 77 80 74 75 73 69 60 63 59 65 74 69 71 68 69 57 50 56 50 49 53 54 55 62 59 55 56 54 53 57 53 55 60 67 58 64 72 75 80 82 84 77 83 82 84 95 110 114 124 136 151 159 155 177 181 183 189 190 178 169 171 173 177 171 156 131 134 140 152 152 157 156 156 140 123 122 120 95 94 124 130 134 123 98 90 82 87 84 86 84 77 75 76 78 71 67 65 72 67 67 64 75 82 76 83 73 65 55 49 44 47 48 47 46 47 48 48 44 50 55 56 54 54 51 47 54 49 53 63 63 74 75 75 69 72 79 74 89 104 114 125 138 147 157 162 180 180 182 183 180 173 163 165 170 163 159 142 141 145 150 153 156 152 154 154 142 124 123 123 108 95 110 117 124 120 104 92 82 79 83 82 79 79 75 75 74 75 72 73 81 76 74 74 87 91 87 88 81 66 53 49 50 45 52 51 48 44 48 49 47 52 69 62 53 53 49 49 46 45 51 59 52 60 64 69 61 66 76 74 84 100 112 125 139 150 157 171 178 171 177 177 178 166 152 158 152 151 143 144 143 148 156 156 163 156 153 149 139 136 125 125 115 95 101 104 103 109 105 92 84 81 81 83 80 81 80 80 75 78 85 91 91 86 85 85 85 90 95 95 94 72 59 52 52 43 49 55 50 44 47 60 47 50 67 70 66 59 55 54 53 53 57 57 53 56 56 58 60 61 72 77 88 100 108 128 135 149 161 176 180 167 183 172 172 150 135 143 142 144 148 149 153 153 153 157 166 162 157 148 139 142 135 130 116 95 94 94 96 104 105 93 82 80 77 81 81 86 85 86 80 85 86 93 95 95 94 91 86 87 90 92 93 81 69 59 62 55 58 64 56 45 46 57 50 53 66 74 71 70 68 72 72 64 62 59 59 59 55 59 57 61 71 76 93 99 111 130 137 152 158 180 177 175 186 175 174 139 130 138 157 148 153 150 156 158 149 154 170 167 159 150 143 144 139 139 123 101 91 87 89 97 107 96 82 79 75 81 79 89 88 91 88 92 91 93 91 92 86 89 81 76 71 77 78 81 79 68 72 60 57 61 51 52 53 57 51 54 72 81 71 79 81 79 83 80 76 77 71 71 68 68 72 75 76 90 103 106 118 130 144 158 158 176 181 179 190 171 171 134 124 144 156 156 147 157 153 156 152 154 162 166 159 156 146 144 143 140 133 112 95 82 89 93 101 98 82 79 81 82 87 88 94 89 86 90 93 93 94 88 85 79 79 78 75 73 68 72 85 76 78 71 66 67 55 56 56 61 60 63 73 85 83 88 90 93 101 95 94 84 80 77 73 82 80 89 92 102 108 111 123 136 149 164 170 180 181 185 184 162 164 132 128 145 154 157 148 150 153 158 151 152 156 160 163 156 152 139 143 139 135 117 100 88 90 99 92 96 85 79 87 88 89 93 91 89 90 95 99 90 88 83 82 77 80 76 90 85 81 77 88 84 73 62 65 69 61 60 61 62 65 66 73 78 75 77 88 94 100 104 93 87 85 79 75 83 84 96 100 108 110 119 134 143 162 173 183 188 189 187 170 164 162 133 135 145 151 157 143 146 156 158 155 152 158 153 161 156 147 140 133 141 136 129 107 94 91 101 91 90 84 80 86 91 92 99 98 95 101 103 103 99 93 91 86 75 80 74 79 78 83 88 87 77 69 67 59 65 56 57 62 69 69 65 68 76 71 76 86 90 93 97 96 88 90 84 81 83 92 100 104 107 124 134 140 147 167 184 192 192 191 182 167 167 165 130 134 143 148 149 143 144 159 152 160 160 161 156 152 150 148 138 140 143 132 136 122 107 95 100 95 79 81 80 84 95 94 104 107 108 114 115 117 110 106 102 98 84 91 88 92 93 96 98 96 94 87 84 81 86 71 73 72 74 79 79 81 93 89 95 100 98 92 94 103 99 93 95 92 94 98 106 116 118 138 143 146 159 174 182 196 194 189 177 165 173 161 126 131 142 144 145 146 146 154 156 161 164 159 155 147 142 140 145 146 140 127 129 131 118 102 101 99 75 79 79 81 91 101 106 108 118 120 120 116 114 109 107 102 92 96 95 101 99 99 102 105 100 97 98 89 85 72 68 66 70 73 83 87 94 102 104 108 105 97 101 106 106 102 104 104 95 101 109 120 127 140 149 153 164 177 179 197 190 177 176 165 173 149 125 133 139 141 146 144 149 146 158 163 161 147 145 141 136 143 154 139 138 132 125 131 123 107 98 101 79 76 79 79 91 99 104 107 119 122 120 117 115 112 110 104 97 100 102 101 104 103 101 99 94 92 96 91 83 76 69 67 72 77 81 90 91 96 98 102 97 99 98 102 105 109 110 107 106 108 112 128 138 144 151 157 173 176 181 194 183 175 172 165 168 136 127 135 141 136 142 147 147 147 155 161 161 143 136 131 139 151 148 137 136 125 124 127 125 111 92 103 86 71 77 85 92 94 101 100 111 118 116 112 114 106 105 98 96 98 104 103 111 113 109 109 103 96 91 90 90 84 74 75 73 71 75 80 87 90 94 96 96 98 99 100 103 112 109 108 110 110 118 127 137 145 150 162 178 171 182 188 177 176 165 166 158 130 127 134 134 135 141 147 147 151 155 156 159 139 134 132 152 150 148 138 131 126 122 126 128 113 101 100 86 70 69 81 84 93 91 96 105 110 113 112 108 107 104 100 94 95 95 96 101 109 105 103 96 93 94 94 91 85 74 80 75 74 71 77 81 90 95 96 98 99 101 99 100 112 118 110 114 118 123 128 137 148 152 164 180 162 177 184 169 167 164 167 144 130 130 133 126 133 145 142 149 151 153 150 159 137 135 146 159 153 145 138 134 129 118 127 134 117 105 101 92 76 64 72 78 93 86 92 95 99 107 115 104 108 106 104 99 99 99 97 95 99 96 96 96 93 91 94 87 86 78 75 73 76 82 83 88 92 98 99 100 99 103 111 113 115 124 117 122 123 131 132 141 151 154 165 175 162 176 178 160 155 165 159 132 130 136 134 126 132 148 139 147 150 152 149 154 136 144 158 161 153 144 139 138 130 120 130 136 122 110 102 98 83 66 70 74 96 92 87 93 94 104 110 106 105 105 107 112 109 109 104 99 102 104 104 108 106 102 100 94 95 89 89 83 90 94 93 93 101 101 106 107 108 115 129 128 125 131 131 129 131 132 142 143 152 155 164 171 156 178 175 152 152 160 148 125 129 137 138 134 135 135 145 144 145 156 153 153 145 156 160 160 153 141 140 136 130 121 128 136 129 117 109 100 88 71 71 77 92 106 91 86 87 93 101 108 102 100 110 116 118 120 119 115 113 111 114 116 113 111 109 100 102 102 94 94 98 102 101 103 110 112 121 125 128 131 135 136 140 144 142 141 135 135 142 145 150 158 164 161 154 179 165 152 151 154 133 120 126 133 144 141 133 136 141 143 144 151 156 150 162 161 162 163 153 143 140 137 135 126 128 138 132 124 112 94 93 82 73 76 89 114 100 91 88 88 98 106 110 109 110 110 111 117 119 124 124 123 125 126 127 122 119 112 113 113 111 104 107 105 105 114 116 122 125 129 133 135 142 143 147 149 145 140 133 134 138 148 152 162 161 158 154 172 162 148 144 144 125 122 129 133 141 151 140 142 137 140 146 149 151 149 162 162 162 162 154 149 140 140 134 134 131 135 133 132 118 99 94 93 80 80 81 105 106 92 92 89 93 100 104 112 118 113 112 117 117 121 127 125 129 130 128 126 122 117 116 115 112 106 107 101 108 112 111 116 119 125 127 131 144 151 149 152 141 136 136 138 139 146 152 159 160 156 157 167 167 139 134 136 118 117 124 137 137 149 151 141 141 141 140 147 148 153 166 164 166 168 159 152 144 146 139 139 137 135 135 130 120 107 101 98 89 83 84 93 99 85 89 85 90 95 98 105 107 110 115 115 115 118 126 126 131 129 118 118 117 112 112 111 110 107 105 105 109 110 113 115 115 118 127 130 145 148 149 148 143 137 141 139 140 146 154 156 159 161 158 172 164 129 123 126 115 116 121 138 136 145 151 151 138 137 140 142 145 148 167 166 168 169 159 152 144 151 146 149 147 140 132 120 117 115 112 109 95 94 90 93 89 88 79 77 78 81 86 91 95 94 101 101 99 103 110 112 109 113 109 108 111 105 99 102 107 105 100 104 102 105 106 109 112 114 124 129 133 143 149 151 146 136 138 135 141 146 147 156 164 159 153 172 160 121 113 128 113 111 120 138 136 142 148 154 145 136 137 142 142 146 169 169 170 167 159 151 145 157 151 154 154 141 122 113 111 117 120 119 102 100 94 97 88 93 83 73 69 70 70 77 81 86 86 92 88 91 91 91 92 92 94 94 94 95 96 91 93 96 96 95 94 95 97 100 103 108 114 122 129 137 141 144 139 136 135 137 140 141 144 159 163 157 153 166 156 117 115 124 107 111 118 138 137 140 147 149 152 143 136 136 139 141 169 169 169 165 163 150 152 161 156 155 158 131 111 106 104 117 122 125 112 110 104 101 90 100 93 75 71 69 67 71 76 81 82 81 77 76 83 80 81 79 78 78 77 80 82 83 84 82 82 81 80 84 85 91 95 105 105 114 124 133 135 137 139 133 135 134 137 138 144 161 160 154 160 166 152 126 121 121 106 106 118 132 134 135 142 148 150 149 142 135 137 137 171 169 169 166 164 153 158 168 162 158 156 117 101 97 102 115 120 124 112 122 106 110 102 108 105 85 70 66 63 68 68 77 76 76 74 72 79 76 74 76 73 71 73 75 76 77 80 82 86 83 83 82 83 86 91 99 104 110 119 131 134 132 134 132 132 130 132 139 148 161 158 155 159 163 156 139 122 122 105 109 111 128 134 130 136 148 153 149 153 143 144 140 173 170 167 168 167 159 166 173 163 162 144 106 85 95 98 112 115 123 116 116 115 119 111 114 117 96 76 65 61 62 66 68 73 74 73 74 76 76 80 81 79 79 79 75 76 79 81 84 85 87 88 87 86 88 96 99 102 112 116 124 129 127 131 128 125 126 129 140 149 155 152 149 157 158 149 151 131 122 105 113 112 128 138 133 137 147 158 155 155 150 150 148 173 168 168 167 171 166 171 173 161 158 128 95 78 90 104 108 117 122 118 111 114 122 113 118 122 110 82 70 60 58 60 62 67 70 70 71 76 74 81 82 83 87 86 86 85 87 88 90 87 86 86 89 92 94 98 100 105 113 112 117 123 123 124 119 117 122 130 138 143 147 145 155 154 155 137 163 142 123 104 113 118 131 139 138 138 145 156 162 153 156 151 151 175 170 167 168 172 170 160 169 160 149 119 76 79 87 102 106 116 130 116 116 112 117 116 115 121 117 99 79 69 56 57 55 55 61 63 61 70 71 74 75 78 81 83 89 86 93 91 92 89 89 87 92 96 99 94 99 103 105 105 107 112 112 108 110 111 119 132 132 132 146 153 160 156 152 137 155 145 126 113 117 124 131 141 142 139 144 153 162 156 154 155 154 176 170 167 167 167 159 153 161 157 137 110 64 79 90 98 103 117 128 114 116 118 115 117 117 108 115 113 92 76 61 55 51 45 51 53 52 55 62 64 67 69 70 76 78 82 85 86 87 88 89 87 88 93 93 91 94 94 96 96 98 100 95 98 105 105 117 126 123 126 149 153 167 161 150 143 129 143 129 123 119 129 132 143 144 140 142 151 160 157 152 154 154 180 169 161 157 158 154 147 150 139 121 90 63 75 93 99 102 119 127 117 113 116 122 117 117 108 103 108 101 84 67 58 50 46 45 43 44 38 47 51 56 62 60 64 66 68 69 72 78 77 79 82 81 81 83 86 84 85 82 82 82 88 88 92 97 102 112 116 118 131 150 155 169 154 156 136 118 135 133 127 123 127 127 135 146 145 143 144 149 150 143 150 150 166 157 155 156 150 141 126 123 119 99 68 60 71 90 103 104 117 130 122 117 114 122 124 110 112 103 97 99 89 81 70 59 49 39 40 38 32 28 32 37 41 46 51 51 53 55 56 60 59 63 65 65 67 70 70 69 69 67 71 78 83 84 88 92 99 109 114 119 136 156 155 168 148 164 123 110 116 140 129 128 127 121 121 131 145 144 138 137 136 135 132 136 156 144 136 137 133 123 98 106 106 79 56 53 69 87 97 106 113 133 121 123 118 119 122 114 112 104 94 91 87 85 76 72 60 48 35 29 31 26 22 18 21 27 27 32 36 40 40 37 42 44 43 47 48 51 49 49 47 60 73 78 76 77 84 91 95 104 112 122 141 160 159 163 157 160 119 106 105 134 134 136 128 125 122 131 147 150 141 138 139 136 134 131 140 131 126 122 115 103 74 85 90 71 58 52 73 90 91 104 113 133 127 126 123 121 119 117 116 112 100 93 87 85 81 73 65 58 47 34 33 25 18 13 14 16 12 16 18 21 22 21 23 23 23 23 25 28 36 41 52 65 75 72 74 77 90 93 97 102 112 130 149 151 151 158 155 144 119 105 104 130 122 135 129 125 126 131 143 152 148 138 143 143 139 137 119 110 108 97 95 83 68 82 83 73 61 54 81 90 85 103 116 132 130 131 124 124 124 118 114 115 111 105 93 91 87 81 74 65 58 48 39 33 24 11 15 14 9 8 6 7 4 5 10 9 9 11 19 31 42 51 62 67 71 71 75 80 93 99 101 109 117 130 150 146 146 155 155 129 117 106 110 130 109 123 128 130 129 130 136 153 149 135 133 138 140 140 106 99 94 88 86 80 77 85 77 82 56 65 89 88 85 103 116 126 128 134 129 123 125 122 113 114 114 114 102 99 92 90 85 75 70 63 52 41 31 24 21 22 14 11 9 2 0 0 4 4 9 12 27 45 49 57 67 70 68 75 82 91 95 101 104 111 118 135 148 140 151 159 152 127 111 113 119 130 100 110 116 130 138 138 135 147 153 146 132 129 136 142 