P2
92
112
255
161 164 164 162 165 163 163 164 163 163 163 161 159 156 156 153 152 155 152 143 134 131 127 124 116 117 111 106 108 104 100 95 103 106 112 113 117 120 110 111 110 110 112 110 97 96 95 92 90 86 83 81 75 69 67 68 65 62 62 63 68 71 82 82 91 92 107 113 120 123 130 138 139 147 152 158 158 161 162 160 162 162 162 162 164 164 165 165 166 165 166 167 162 162 164 163 163 161 164 162 162 162 159 158 156 154 150 149 152 150 143 130 122 114 113 108 99 102 102 98 101 107 102 104 110 115 116 114 118 126 118 117 116 115 115 116 110 110 105 100 91 92 94 85 83 76 68 75 65 62 59 53 60 64 65 67 77 89 90 99 104 110 122 125 138 137 143 151 153 156 159 158 160 160 163 161 162 163 164 165 164 165 165 165 163 162 164 163 163 162 164 161 160 161 156 155 152 151 148 149 143 139 127 124 110 101 89 87 95 101 108 102 102 111 122 123 130 133 124 125 131 132 121 123 126 123 123 120 121 118 109 109 103 102 102 95 87 79 78 76 74 66 64 54 57 52 55 62 68 81 83 89 88 102 107 118 129 135 135 142 145 149 153 156 159 159 158 161 161 162 162 164 165 165 165 163 163 162 163 163 163 163 161 161 158 157 156 153 152 150 147 135 132 119 112 102 83 79 77 82 95 105 116 113 117 132 130 136 141 134 137 138 135 145 144 145 142 144 132 135 133 137 132 122 124 123 112 106 95 77 85 81 71 63 57 58 56 51 52 60 69 67 82 82 84 83 97 104 115 127 131 135 134 139 148 150 157 158 157 158 161 161 161 161 164 164 165 165 162 163 163 162 162 159 158 158 156 154 155 151 145 135 134 125 116 107 89 72 65 72 76 86 100 115 129 132 136 141 140 139 141 152 147 154 158 161 160 161 163 163 152 148 156 157 149 142 135 136 129 117 106 95 94 89 79 65 62 54 52 45 47 56 67 57 63 76 74 82 91 85 105 114 124 131 130 131 138 148 153 155 156 157 159 160 159 159 161 163 165 166 163 162 161 161 161 159 155 156 153 153 150 137 128 118 116 103 100 90 72 70 65 73 90 95 113 119 134 144 146 158 158 161 167 162 169 163 173 176 175 171 172 168 162 159 163 165 160 157 155 150 143 135 132 119 113 109 91 77 72 69 63 59 56 57 65 63 58 63 64 67 74 73 88 101 116 123 121 127 131 138 147 152 154 153 157 158 158 160 162 160 164 165 161 162 161 161 157 155 154 153 148 146 128 123 115 104 94 89 81 72 59 63 66 80 101 110 118 124 135 150 169 169 170 174 181 180 177 184 188 181 183 179 176 175 167 166 167 163 160 153 159 160 156 148 143 132 125 125 109 93 85 81 80 70 66 67 73 70 61 64 60 61 72 72 78 92 103 101 113 127 128 126 139 149 150 152 153 154 155 159 160 159 163 163 161 162 158 158 156 150 150 147 143 128 119 112 93 90 87 68 55 50 58 63 74 94 100 108 129 144 156 158 162 171 174 183 188 188 186 191 191 189 188 182 176 177 177 169 168 168 167 160 160 163 163 155 147 141 134 129 119 109 103 90 88 85 82 77 77 74 76 69 63 63 74 74 80 88 94 90 104 121 124 120 128 142 142 147 151 152 152 155 157 156 162 164 161 161 157 153 150 148 146 142 132 115 107 93 88 85 63 42 40 49 58 67 85 95 108 119 141 155 162 166 173 176 181 189 190 186 187 187 189 193 193 192 189 186 181 179 177 179 179 173 167 164 161 154 151 143 145 139 128 124 120 104 104 99 90 88 89 81 83 85 83 73 72 74 86 87 82 94 101 112 118 114 118 131 139 140 146 150 152 153 155 158 161 163 161 157 155 152 149 144 143 139 120 106 96 89 75 55 42 32 39 46 52 69 88 99 115 134 146 149 162 169 174 179 184 188 195 195 190 192 194 193 189 193 191 188 182 180 186 183 183 181 178 174 172 162 159 158 154 149 143 141 137 131 127 116 113 109 100 98 93 87 85 85 79 78 80 80 82 85 94 97 106 115 112 123 134 138 146 149 153 153 155 158 162 162 160 153 150 147 145 145 137 128 109 103 87 76 46 31 30 41 35 46 59 77 92 109 129 135 139 151 162 169 168 180 184 188 190 198 194 198 205 202 198 196 190 187 185 190 189 189 189 182 183 181 178 170 167 162 158 157 152 154 155 150 142 134 134 127 119 114 104 100 97 86 91 91 78 81 78 86 84 88 93 106 114 117 126 137 146 150 152 151 154 158 160 162 156 152 148 144 145 142 138 113 104 89 85 43 22 22 29 30 40 42 64 87 101 109 130 134 136 155 160 163 169 177 185 188 192 195 200 205 204 204 205 203 198 195 191 188 191 189 188 187 187 181 182 178 170 169 171 170 167 163 164 157 155 152 147 144 135 126 119 108 109 98 96 94 87 82 72 78 75 81 83 92 111 111 112 126 140 145 149 149 155 158 156 160 152 149 147 144 143 137 123 104 92 75 42 21 25 14 28 29 50 68 83 94 102 120 126 133 139 149 157 168 178 187 196 197 199 200 200 201 200 198 200 200 204 205 194 190 194 190 190 186 187 179 180 184 179 183 184 178 174 175 174 167 164 164 158 156 154 144 134 126 123 114 98 104 98 86 78 80 76 80 81 82 92 104 106 112 130 133 144 145 150 153 156 157 150 146 147 143 141 120 110 94 72 46 23 24 24 17 29 49 72 79 84 92 106 113 126 129 135 149 163 169 180 191 198 199 196 201 201 195 191 196 197 196 196 196 194 192 190 190 185 187 187 179 187 185 186 190 185 180 181 180 178 175 180 175 172 170 167 159 148 144 138 122 117 112 113 101 90 87 78 79 80 79 91 95 104 101 108 119 129 144 145 149 153 153 148 151 145 141 128 114 95 75 48 18 22 25 30 29 52 79 84 88 81 93 101 111 120 128 146 163 170 174 184 191 189 193 193 191 194 194 195 196 197 193 196 197 197 195 198 198 198 198 195 186 190 185 188 187 186 184 188 190 186 185 187 181 181 183 176 172 167 159 152 137 129 118 115 112 98 93 87 79 75 80 91 99 97 103 103 107 115 140 138 144 152 152 148 149 145 128 122 103 75 58 30 25 30 36 38 53 78 80 80 83 85 99 97 108 122 138 154 167 173 175 183 182 183 179 181 184 192 193 194 192 196 199 199 206 206 206 210 213 209 215 211 207 208 195 190 199 196 195 198 193 192 191 191 183 181 190 181 177 172 170 160 149 134 125 119 113 101 101 96 89 76 78 94 108 102 106 105 100 109 132 139 138 148 153 148 148 136 115 114 93 63 41 36 33 40 42 54 76 81 80 75 86 89 97 106 118 143 157 160 168 167 174 177 172 177 179 182 189 193 197 196 199 201 205 208 210 214 217 219 220 217 222 220 225 217 209 205 211 204 207 201 202 202 199 198 195 193 196 196 188 182 173 170 161 146 132 128 122 105 102 101 97 89 80 84 98 110 106 106 96 98 123 131 139 141 150 150 144 133 112 103 80 45 45 38 40 44 54 73 87 72 76 80 84 91 101 123 135 153 157 160 164 165 171 171 173 179 181 187 196 202 197 197 203 207 216 221 217 230 229 228 224 226 224 228 228 222 221 220 215 206 211 210 207 209 211 208 210 209 208 213 209 204 191 186 173 165 152 140 129 119 109 106 101 98 89 82 91 108 100 106 97 99 108 125 132 143 148 147 137 123 111 84 60 49 47 39 46 46 62 78 72 66 67 82 91 97 121 137 142 152 151 157 156 163 165 169 169 180 187 193 194 204 204 207 217 224 228 228 230 234 233 231 230 229 225 231 228 226 229 225 218 218 217 218 217 212 217 217 216 213 216 218 221 210 206 194 185 174 165 149 139 125 124 111 106 100 96 86 83 95 98 105 95 94 101 121 127 136 145 140 129 122 93 72 61 54 44 46 47 61 72 67 58 57 69 91 98 112 139 141 147 151 152 153 157 164 168 172 177 185 191 194 198 211 212 221 227 230 230 230 234 237 234 234 234 231 234 233 231 231 227 224 223 224 220 222 223 216 223 220 218 216 216 220 221 216 210 206 196 182 175 166 149 137 129 122 109 100 99 98 85 88 101 100 94 85 95 108 124 126 140 130 121 116 88 63 57 60 48 43 52 77 65 55 59 71 82 89 110 130 144 148 154 151 157 157 158 163 170 179 184 187 189 196 205 214 222 230 231 230 229 228 229 232 234 236 235 231 235 233 232 230 230 224 229 228 221 226 229 223 222 227 224 222 220 222 221 216 216 211 203 194 183 175 168 153 145 130 118 106 93 101 89 83 96 99 87 79 79 104 111 126 130 126 109 104 74 60 66 60 43 39 67 64 48 51 69 76 84 103 125 139 150 156 159 158 155 155 161 168 178 182 185 187 192 203 207 214 226 228 231 228 229 233 232 235 235 237 235 229 231 231 230 231 228 229 229 228 227 230 231 227 227 231 229 227 224 226 225 218 212 209 203 193 186 176 167 160 155 141 122 118 98 102 91 88 88 97 87 78 69 94 106 120 125 116 104 91 68 75 61 39 33 60 68 45 36 68 71 79 94 113 130 144 156 161 161 160 159 163 170 173 179 183 186 191 201 207 210 219 221 229 232 231 230 234 234 231 232 232 229 230 225 230 231 230 228 228 231 228 232 233 231 235 237 238 234 231 230 229 222 223 213 206 201 194 181 175 169 164 159 149 133 115 107 102 94 96 87 86 92 76 69 77 103 112 119 101 103 74 77 59 41 34 50 71 52 28 51 69 67 82 103 122 135 149 164 160 158 160 166 166 171 177 181 189 192 198 204 211 215 216 224 228 228 232 233 233 232 232 231 229 229 229 232 232 231 229 233 233 232 231 235 233 232 238 238 240 239 237 234 232 227 229 217 206 204 198 187 178 168 169 161 149 143 129 108 110 97 98 95 82 90 79 69 62 85 111 111 103 90 75 55 39 46 53 63 54 27 44 59 59 68 87 111 130 138 152 160 156 157 164 162 168 175 183 191 199 200 206 207 213 212 218 225 226 230 230 233 234 233 231 231 228 226 228 230 233 228 227 235 241 234 237 242 238 239 240 235 241 245 243 237 235 233 232 223 210 206 199 192 184 175 172 172 152 146 134 114 103 102 97 92 90 80 84 67 61 67 93 114 97 80 58 40 47 43 66 55 40 31 53 55 63 85 93 121 137 153 164 164 159 164 170 171 180 190 196 201 202 204 208 213 215 214 218 221 221 227 227 229 229 227 231 227 227 226 222 222 223 222 225 231 237 236 238 242 241 241 243 237 243 248 244 241 243 239 231 224 213 204 203 192 185 177 168 167 158 145 134 124 101 102 98 91 87 75 81 73 56 64 75 100 89 69 42 47 48 50 67 40 36 37 50 62 79 96 111 134 146 167 165 166 165 173 177 178 191 199 201 199 201 207 207 216 216 216 218 218 219 219 219 220 218 222 226 224 219 220 218 217 214 218 221 222 228 229 234 235 241 240 242 241 243 241 244 243 245 240 232 226 216 205 201 190 188 179 169 161 151 143 131 125 106 107 96 89 84 74 72 73 57 52 70 90 90 54 38 55 48 60 53 38 37 37 53 65 85 104 130 140 158 160 166 171 172 179 176 180 191 197 197 200 205 215 214 213 215 212 213 208 209 212 215 215 211 214 219 218 215 210 215 216 214 209 217 217 218 217 226 229 230 234 238 238 237 237 239 245 241 240 230 223 219 209 200 189 189 177 167 161 146 137 133 125 111 107 94 89 76 71 66 66 54 49 65 81 79 41 42 54 54 55 55 29 32 41 56 74 92 119 131 142 151 154 167 172 177 176 174 187 190 192 190 200 208 209 209 206 208 207 207 204 205 207 209 212 207 210 211 210 210 207 206 211 210 205 209 212 212 211 219 220 223 228 227 231 231 231 236 235 237 233 226 221 217 210 204 189 187 179 164 161 144 136 130 124 116 100 98 94 79 67 63 62 56 44 59 71 57 44 45 58 54 50 41 21 34 43 61 77 107 116 127 136 146 161 169 173 178 179 177 189 189 190 191 199 203 204 206 204 206 202 203 205 203 202 204 207 204 205 205 206 208 203 202 203 206 201 203 206 208 204 210 213 216 219 222 221 227 226 230 228 227 229 228 223 216 210 203 195 183 180 166 161 143 135 130 119 116 101 95 95 82 64 56 59 59 42 56 64 50 52 51 56 48 38 27 27 34 49 67 83 107 113 124 134 151 162 166 179 180 182 185 187 192 196 204 207 207 207 209 211 213 210 208 210 208 204 202 207 205 202 202 201 204 201 198 200 202 201 202 202 202 203 204 210 211 213 216 219 222 225 223 225 226 228 230 225 219 214 210 198 186 176 167 157 142 140 127 119 112 102 93 92 84 62 52 54 61 44 51 59 63 64 57 48 45 35 27 29 31 51 61 91 100 119 123 136 149 159 170 179 188 186 190 191 197 209 214 212 211 213 213 215 213 214 211 212 210 206 204 205 206 202 200 198 202 197 196 197 196 200 199 202 204 203 204 206 208 211 212 216 218 224 225 227 230 234 232 230 226 223 215 207 193 180 169 153 149 142 132 117 105 100 89 93 77 71 48 50 57 50 43 55 69 73 57 41 38 27 27 28 28 37 63 86 107 114 121 135 144 155 164 172 185 183 190 196 207 208 210 211 212 213 210 210 209 209 209 210 207 206 205 204 205 205 202 198 198 198 194 193 197 198 202 203 209 207 210 209 210 212 216 214 217 221 223 227 230 234 235 236 238 234 225 214 204 188 171 159 151 145 138 120 110 96 84 87 80 69 55 39 52 51 40 48 82 71 44 37 33 31 20 22 15 34 68 86 104 107 123 134 140 151 160 171 171 184 187 197 206 208 208 209 207 205 204 204 206 205 203 203 200 200 201 201 201 201 199 199 199 199 201 198 200 199 202 204 209 210 212 213 212 213 217 216 216 219 221 226 227 234 237 237 240 238 235 220 214 198 177 164 151 144 143 129 113 100 81 81 77 67 51 42 40 51 41 49 86 62 36 39 35 27 12 13 18 43 66 91 98 105 119 127 136 147 154 155 162 179 178 194 197 198 200 200 201 200 202 204 207 204 201 202 200 200 202 201 201 202 201 202 205 201 201 202 202 201 202 205 209 211 213 215 215 218 218 219 220 222 223 226 229 232 236 238 238 235 233 227 216 200 181 162 151 142 144 145 117 105 84 77 68 71 47 45 40 46 42 51 77 51 40 43 35 23 12 20 29 40 66 86 97 102 112 121 133 146 146 149 160 174 179 184 181 184 186 188 197 194 196 197 201 201 202 203 201 202 204 205 205 204 205 203 206 203 205 204 204 202 202 203 208 207 211 213 215 217 222 224 226 229 228 230 234 237 239 239 238 233 224 222 213 203 184 158 149 136 139 139 128 103 84 70 72 62 57 43 47 42 43 52 70 58 38 46 33 18 13 19 24 35 61 81 100 97 108 120 135 144 140 150 159 167 165 168 168 174 175 181 185 195 195 200 202 203 205 204 205 202 205 204 206 206 206 202 205 203 207 205 204 202 200 202 206 205 209 212 215 217 222 227 230 231 232 236 238 239 238 241 239 233 222 219 210 199 186 162 143 136 135 135 128 98 85 75 71 61 52 49 42 36 47 48 88 54 36 45 28 14 10 15 19 36 59 82 101 92 107 122 138 136 143 146 158 161 155 159 167 171 176 180 187 192 195 199 202 204 207 209 209 207 207 208 206 206 205 202 203 202 206 205 202 201 200 200 202 203 207 213 217 219 223 228 230 231 233 233 232 236 233 235 236 228 220 213 206 195 177 160 139 132 132 130 123 94 80 72 77 59 46 52 41 35 47 51 97 54 40 36 22 12 3 12 16 39 59 79 94 95 108 122 132 131 137 142 153 151 153 159 171 174 180 187 192 194 197 199 202 203 205 207 208 209 209 209 205 206 204 203 201 200 200 204 200 201 202 200 205 205 209 211 217 220 221 225 229 230 226 226 225 225 226 230 231 221 214 208 199 192 177 158 138 128 126 123 112 93 68 69 83 63 46 50 43 40 39 54 100 58 45 30 12 12 0 12 14 38 57 79 84 95 106 122 121 123 126 130 138 140 147 157 171 174 188 188 190 189 191 192 194 194 198 200 199 202 204 203 203 199 198 197 199 198 196 199 200 202 202 199 203 206 209 211 215 218 220 222 225 225 221 220 218 218 219 217 213 209 204 201 197 187 182 164 139 128 117 118 107 85 68 62 80 68 47 42 49 41 44 56 103 69 45 23 18 9 0 11 10 36 54 67 77 89 99 116 115 125 117 123 135 142 153 161 172 172 181 179 183 185 191 192 192 193 196 194 191 188 189 186 190 191 190 191 193 193 192 193 195 196 196 197 198 203 206 207 209 211 212 211 213 215 210 210 201 204 206 209 203 196 194 195 187 185 185 174 147 124 114 100 99 82 61 57 71 80 49 39 53 40 45 54 101 85 55 21 23 9 4 10 8 38 53 51 76 84 97 108 114 119 114 128 140 138 151 168 174 175 177 176 173 170 176 177 179 179 182 182 180 175 172 170 170 175 173 171 174 173 175 180 183 185 183 186 189 192 196 196 199 198 199 199 199 202 200 198 195 190 189 189 190 194 185 183 170 169 169 165 147 115 97 97 87 71 47 53 63 85 55 49 45 40 46 61 99 93 69 32 29 18 14 6 9 36 46 54 76 82 91 94 107 104 112 122 135 142 163 169 171 169 164 169 162 159 168 172 178 172 174 175 176 172 170 165 164 163 163 161 160 160 163 169 171 172 175 175 179 184 186 185 187 188 193 190 189 191 189 189 186 184 183 187 175 183 192 190 170 163 161 154 149 121 96 94 80 59 44 49 62 82 66 51 42 39 56 71 93 96 79 43 30 27 10 10 24 35 40 50 71 92 99 104 116 119 127 122 141 157 160 165 168 164 155 166 167 167 170 173 175 171 171 171 170 165 164 162 161 155 162 162 161 162 165 173 172 173 173 172 173 174 179 179 179 178 185 185 185 186 187 185 183 184 185 186 184 185 187 185 175 172 166 154 147 128 101 92 82 58 45 44 61 75 74 48 44 44 55 76 110 95 90 58 47 23 13 8 31 32 40 51 77 99 104 107 115 114 116 129 152 155 157 160 163 153 159 176 172 171 169 169 168 169 169 166 164 161 162 161 160 151 152 155 154 153 160 162 163 166 168 170 170 171 171 173 175 175 180 184 182 182 183 182 181 183 185 191 188 186 190 185 182 171 175 165 154 139 107 89 80 58 47 53 67 63 64 48 43 55 64 78 130 98 99 77 60 25 20 18 36 44 40 46 80 102 102 102 112 112 118 151 151 140 141 141 153 152 147 160 155 158 154 154 159 164 164 159 158 153 159 157 156 148 144 148 152 149 155 153 154 157 162 167 168 172 169 169 173 172 176 178 180 178 179 178 178 177 179 179 179 182 186 197 195 178 179 168 163 158 127 96 81 61 49 52 74 59 54 51 42 62 72 78 139 112 117 92 54 43 42 36 45 45 50 59 81 103 102 101 117 114 141 144 128 133 127 134 140 152 149 144 148 151 146 153 153 156 156 151 153 154 153 153 148 142 141 148 152 151 154 157 150 148 149 164 162 170 165 166 166 168 172 179 175 186 184 175 168 170 172 172 170 172 175 176 187 185 176 157 148 158 132 110 89 62 57 56 69 58 50 52 53 68 88 92 139 137 129 107 66 68 66 47 54 59 69 80 103 102 101 103 108 111 135 121 112 135 133 129 137 151 144 135 128 135 137 143 147 151 146 149 150 136 141 148 140 141 147 152 150 153 153 154 154 149 146 156 162 160 164 161 158 158 151 171 171 175 184 169 160 164 162 164 164 172 177 166 168 179 179 161 144 158 144 120 100 70 60 63 58 58 62 63 60 73 104 98 138 143 157 113 83 95 86 67 62 70 78 89 113 106 109 110 107 104 124 107 119 120 126 134 135 139 122 128 120 137 145 152 159 159 151 152 144 137 150 148 140 139 138 140 139 152 146 161 155 153 150 149 153 149 156 150 142 146 139 149 141 155 161 160 152 155 152 154 166 172 170 165 153 153 162 168 162 156 139 125 113 70 69 64 58 63 71 72 67 80 117 117 145 156 163 130 118 108 91 73 82 69 83 99 120 117 109 119 118 115 122 105 118 124 128 130 126 122 113 109 112 134 152 154 151 153 155 150 149 146 151 144 153 149 141 157 153 155 157 169 158 155 152 145 151 143 137 136 134 137 142 127 124 138 162 156 158 148 156 168 163 166 163 158 154 150 155 158 163 163 147 123 116 79 74 63 59 82 82 76 83 95 136 131 151 167 171 133 140 116 108 78 96 90 101 115 132 127 115 122 120 129 132 117 123 135 116 109 114 114 106 99 109 119 131 145 144 145 136 139 143 154 154 150 154 158 155 162 163 162 162 174 168 167 160 150 149 158 148 140 140 138 141 133 125 134 146 147 148 146 140 165 158 160 160 151 150 148 150 135 145 154 156 134 117 89 97 61 62 99 93 81 94 107 145 138 166 163 184 164 162 125 133 86 105 110 114 133 139 134 118 122 121 133 133 123 129 133 121 109 114 110 98 102 115 114 123 135 134 135 140 144 155 170 171 161 156 157 162 178 175 169 167 177 172 174 170 163 150 148 146 135 137 137 138 138 139 141 142 140 144 150 139 143 151 155 143 145 153 154 142 113 121 141 149 134 120 99 105 70 59 98 86 88 93 121 146 153 164 171 165 184 162 134 129 98 96 113 131 140 145 142 129 126 124 135 134 125 134 133 126 109 106 108 109 115 121 119 121 138 142 134 150 160 170 162 161 150 152 152 160 169 175 170 170 176 172 169 168 166 159 147 141 141 142 138 137 147 144 141 138 132 132 136 142 139 145 144 137 141 147 146 144 114 131 137 151 147 127 111 114 75 62 93 92 102 104 126 149 155 175 175 168 186 162 144 133 113 100 124 140 142 154 153 144 142 127 140 131 120 129 140 133 120 120 124 118 124 120 126 134 144 153 145 155 164 159 146 145 146 145 154 163 166 173 172 168 167 162 159 162 157 156 153 146 138 142 146 138 150 145 137 133 120 123 130 142 143 137 137 133 131 140 149 150 139 152 156 155 161 132 126 105 81 79 101 116 131 142 134 151 150 180 200 159 192 164 164 147 127 121 135 156 147 158 156 155 147 146 143 133 124 131 139 136 127 129 133 130 137 137 140 141 142 137 145 143 156 147 129 124 124 127 150 156 159 163 166 169 162 156 161 161 157 159 156 158 144 139 150 145 149 150 146 141 129 132 137 137 142 146 143 149 136 144 155 159 158 162 159 159 155 143 139 107 105 103 110 142 150 161 150 151 151 188 203 171 190 156 171 155 141 142 138 160 159 157 159 156 151 141 139 137 127 129 138 137 133 138 143 146 146 153 151 146 143 142 146 150 156 153 126 135 133 133 147 160 165 166 169 175 164 165 171 172 162 162 152 154 151 144 148 152 151 142 138 142 139 141 139 141 150 148 153 159 149 155 168 169 162 159 163 160 158 150 143 113 121 115 119 151 161 178 154 156 152 184 220 196 184 164 165 171 151 157 132 159 168 151 158 154 150 147 140 148 140 133 139 142 146 152 154 161 163 162 157 152 150 154 152 155 154 145 137 153 151 153 162 169 177 167 170 180 178 184 191 179 164 154 154 152 156 152 150 150 152 152 142 149 148 137 140 146 153 158 160 164 157 164 175 166 163 162 167 167 159 151 137 117 119 123 127 154 171 186 157 156 153 185 236 203 192 169 173 188 168 157 125 155 164 150 155 153 148 150 142 154 140 143 147 151 154 164 168 167 167 170 160 163 165 160 159 152 149 147 162 165 163 156 163 177 180 175 173 175 180 183 191 192 167 149 150 160 154 146 154 150 149 156 153 149 151 155 151 153 157 162 163 169 161 172 180 175 169 166 170 170 166 148 135 128 119 128 136 155 191 191 161 154 156 195 229 203 199 172 187 200 177 160 129 149 163 147 153 151 151 155 150 154 155 155 160 160 157 165 166 167 172 169 170 169 164 167 163 153 160 171 179 173 163 160 163 178 180 182 179 179 182 183 190 195 173 158 154 159 162 156 150 159 147 150 155 148 151 153 160 160 166 164 170 176 169 180 179 181 174 169 177 177 163 144 138 126 120 131 145 161 199 179 157 158 152 204 218 207 202 175 195 210 194 170 133 146 158 147 155 150 155 152 154 154 157 162 158 167 162 164 167 170 168 167 169 168 169 169 164 166 165 169 174 166 160 168 178 181 181 190 192 184 179 174 188 186 181 163 166 159 164 168 156 168 164 156 152 153 153 153 159 159 166 166 175 179 176 185 180 186 179 175 175 175 165 145 149 133 118 136 151 188 204 172 158 162 151 213 229 217 208 200 198 212 211 173 147 135 158 155 150 151 154 155 157 152 158 156 157 160 166 169 170 168 163 169 170 173 173 178 179 169 160 170 176 174 173 183 182 184 184 189 197 184 183 170 174 181 182 175 169 170 166 174 173 175 174 170 163 163 162 164 164 164 170 170 175 177 179 180 176 179 176 180 176 172 165 148 155 150 125 147 169 205 199 159 155 170 149 230 237 232 206 204 200 227 215 181 158 151 151 153 154 153 151 155 159 159 159 158 161 159 166 176 171 166 165 170 178 179 185 182 174 169 174 181 181 182 185 182 182 190 192 189 196 200 186 183 179 185 187 189 182 177 180 181 172 175 178 175 172 170 168 171 173 174 176 176 179 177 180 180 183 181 180 181 176 172 169 149 161 162 139 165 180 203 191 155 158 162 154 229 237 235 207 198 198 218 213 185 166 156 149 160 149 153 157 158 158 158 153 159 152 155 157 162 165 165 167 174 185 187 183 180 172 184 181 181 181 187 186 188 182 186 192 201 204 198 196 187 192 187 193 190 187 179 174 178 179 174 180 178 179 185 173 175 182 180 182 179 181 184 184 187 188 180 181 177 176 177 173 158 158 157 158 181 190 189 176 157 159 162 154 216 225 221 198 191 179 208 210 178 165 158 147 147 157 151 158 158 163 158 158 149 153 155 158 161 159 165 167 174 177 182 183 180 182 188 187 190 191 187 182 185 176 183 188 191 199 198 190 189 195 192 193 191 193 186 179 183 179 181 182 188 187 190 184 176 184 189 181 186 192 190 181 190 183 182 177 178 174 180 168 163 160 153 181 186 189 188 171 157 165 161 161 214 207 204 195 189 172 188 200 149 164 157 151 149 146 149 143 152 156 152 154 149 152 157 164 164 165 164 164 172 177 184 185 188 193 194 191 191 188 182 178 175 173 180 181 186 185 185 184 182 188 194 191 189 194 189 187 183 183 179 186 181 187 193 188 181 183 184 183 195 197 195 191 191 183 185 173 178 174 174 164 153 150 167 180 179 196 174 162 159 160 165 168 204 205 203 187 191 174 175 197 141 157 151 145 148 144 149 146 143 153 152 152 153 155 162 162 167 170 171 173 173 175 184 185 187 194 194 195 186 178 174 178 177 171 178 177 181 182 181 180 175 176 180 172 176 175 180 187 183 184 177 182 183 189 188 191 186 179 178 182 187 190 197 188 188 188 174 167 169 168 168 164 151 156 168 168 180 188 161 165 157 156 163 175 197 201 207 182 184 172 171 190 145 142 142 132 148 146 151 145 145 151 148 158 155 158 163 162 165 167 167 165 165 168 180 189 185 188 192 186 174 170 171 178 177 173 174 172 175 181 183 182 177 178 175 174 165 170 165 169 172 181 179 178 182 185 182 181 180 181 180 178 181 179 183 179 181 174 166 164 165 178 173 159 163 159 161 158 185 178 161 171 155 149 160 174 182 200 202 182 180 177 162 176 146 123 138 127 137 142 146 149 146 148 149 155 160 165 167 163 166 170 168 168 163 166 171 175 175 175 183 185 173 172 173 183 174 173 180 177 182 184 184 183 183 184 178 176 174 174 168 168 171 174 173 172 178 183 184 181 176 176 178 180 184 190 191 186 187 177 171 170 173 170 171 163 158 154 154 167 186 159 160 169 148 152 161 169 180 184 203 184 178 174 161 156 145 118 128 131 139 139 144 148 148 148 155 157 163 166 170 168 172 172 169 164 161 167 170 170 173 173 182 186 179 171 177 182 177 178 185 184 187 188 181 180 182 183 182 178 174 175 170 169 171 175 175 177 181 186 187 185 180 180 175 176 177 181 182 184 182 173 172 178 178 173 167 164 156 151 152 169 179 159 165 163 152 159 165 160 170 172 190 183 178 165 148 153 148 121 119 131 138 136 146 152 150 156 160 163 163 170 169 172 170 174 174 167 166 168 168 169 174 177 182 188 178 179 179 178 176 180 185 185 184 186 181 178 174 176 176 176 176 172 171 170 171 174 174 175 179 186 188 185 184 183 183 181 182 183 185 186 187 184 178 178 173 169 162 161 160 149 160 176 179 161 161 151 158 168 163 147 156 153 179 177 174 164 138 144 146 126 122 125 132 136 142 152 152 160 164 159 164 164 167 167 168 172 169 161 161 162 164 170 177 185 188 180 175 182 181 179 175 182 184 185 184 185 184 182 173 171 177 172 172 172 168 168 170 175 175 173 175 186 190 189 187 185 187 184 183 184 187 192 195 189 186 184 177 166 154 156 155 156 164 177 172 146 157 148 173 173 146 138 137 137 164 166 166 160 129 139 131 122 130 121 131 137 145 152 160 168 171 165 169 167 167 167 165 168 162 157 158 164 168 175 183 182 184 175 173 178 186 179 174 183 185 183 181 182 183 179 176 170 176 175 172 175 173 171 177 179 178 174 178 189 194 192 192 189 188 183 181 183 188 190 191 192 191 189 175 166 155 153 154 157 161 165 152 145 144 158 184 164 139 135 125 133 151 152 144 152 135 136 125 113 121 125 127 136 146 151 167 176 173 171 170 172 174 173 169 166 157 155 163 165 174 184 182 171 170 173 170 169 180 171 161 162 174 173 173 178 177 177 177 177 179 183 179 180 178 175 181 180 179 176 175 185 192 193 194 194 191 186 182 182 188 193 192 194 195 186 173 165 160 153 152 155 153 161 151 151 149 172 176 156 136 135 123 141 141 141 137 139 129 131 119 107 126 138 121 129 144 153 171 176 172 173 171 173 173 171 176 167 159 160 168 171 178 183 178 170 166 163 159 167 170 151 147 145 154 164 170 176 173 176 181 185 181 179 176 179 179 179 181 176 179 176 178 181 190 194 192 192 192 192 189 189 193 193 193 194 190 184 168 168 160 156 154 140 150 151 148 145 163 176 160 149 139 140 109 148 140 129 140 136 116 123 104 107 129 138 124 131 143 153 169 171 171 170 168 170 170 166 177 169 164 168 165 171 181 180 180 175 167 154 144 161 159 136 131 139 149 158 169 177 173 169 176 185 179 174 170 177 174 174 175 169 173 172 175 176 183 188 190 188 190 188 190 195 197 194 194 193 189 182 168 169 154 153 148 139 154 140 145 148 167 168 153 151 142 141 108 139 142 121 135 142 124 122 105 112 135 127 125 135 145 155 162 169 168 165 166 166 163 164 175 165 166 170 167 179 180 174 170 170 168 151 139 149 150 132 129 138 145 156 161 179 172 169 171 181 181 175 171 173 177 174 176 171 170 166 166 171 177 183 185 184 185 186 189 193 195 194 192 190 189 181 173 173 153 156 145 147 148 130 144 148 162 162 159 160 139 138 110 127 139 120 118 135 143 135 119 114 128 122 121 135 145 151 160 163 159 159 160 156 161 165 159 159 165 167 176 183 179 171 167 166 164 155 149 148 153 128 130 141 147 151 162 176 177 174 172 179 180 181 177 175 178 181 179 174 172 166 170 168 171 176 179 181 181 185 188 193 194 189 191 190 189 181 175 170 162 153 150 146 136 128 144 148 152 162 168 154 140 136 111 120 133 133 124 127 145 142 133 111 118 121 125 141 147 149 156 153 147 155 148 150 154 162 152 161 160 170 176 176 174 173 174 165 169 161 158 155 154 138 146 150 151 159 166 174 177 171 173 177 181 179 177 174 177 186 185 178 174 169 173 168 167 172 173 178 177 184 184 188 187 182 181 180 185 178 174 163 157 148 133 141 135 133 142 148 153 174 170 150 142 129 129 119 119 139 135 130 150 152 154 115 116 121 125 141 155 145 152 146 138 148 138 146 147 152 148 155 158 172 180 175 171 173 179 167 172 165 153 153 147 142 148 153 155 162 163 166 173 173 176 178 176 172 171 173 179 186 190 179 176 175 170 169 169 171 169 170 175 180 185 178 180 169 172 177 177 169 174 161 149 141 127 137 131 138 147 145 166 174 164 147 138 131 143 126 116 125 139 141 150 157 173 128 122 122 128 145 152 142 147 137 136 140 135 137 137 144 143 150 150 167 171 173 174 176 177 165 172 153 154 150 141 140 145 157 164 166 166 165 169 170 173 173 174 169 166 168 174 181 188 182 180 174 169 168 166 169 168 169 170 174 182 176 175 165 161 174 169 164 170 155 143 134 126 136 130 144 152 159 169 168 161 144 138 133 134 128 120 122 129 143 154 165 183 151 122 126 141 161 146 147 145 135 132 134 132 131 133 140 143 140 135 151 157 172 173 177 168 166 174 157 161 153 146 148 146 162 165 166 166 164 169 164 167 170 160 167 164 167 172 180 181 182 179 177 170 166 164 164 166 168 168 172 174 177 174 169 158 168 163 164 161 148 139 129 127 148 140 150 157 161 162 162 157 140 139 141 119 122 127 121 125 134 162 170 187 182 142 143 151 180 149 146 143 135 130 128 129 126 130 135 141 135 127 138 154 168 175 178 176 177 175 171 164 166 159 153 150 163 167 168 169 166 169 160 161 166 157 164 166 161 167 172 176 180 181 177 175 171 169 167 164 166 168 171 172 171 173 164 163 162 158 160 158 143 143 124 135 158 148 153 153 154 161 158 157 142 144 153 111 120 125 120 123 127 141 172 182 188 159 164 165 191 164 145 138 136 126 124 120 118 126 130 133 125 123 130 142 149 160 179 172 176 180 186 185 187 177 166 167 171 173 178 179 179 180 178 171 171 164 161 170 169 171 174 179 179 183 182 178 176 175 169 166 163 166 169 171 168 173 165 164 156 152 160 151 144 146 137 147 164 148 153 151 153 156 157 153 147 151 154 110 116 118 120 124 121 132 149 177 189 175 172 179 191 179 140 137 133 126 121 115 113 124 131 131 124 121 115 116 125 137 147 159 174 180 188 187 190 193 181 185 181 177 183 186 190 191 187 180 184 174 172 174 178 181 175 180 181 185 184 183 178 178 172 170 164 170 168 155 171 174 170 163 155 155 154 148 145 148 147 159 164 147 153 150 155 154 149 159 155 152 154 122 110 117 119 123 121 124 137 165 182 186 174 179 176 179 134 137 129 122 118 109 109 117 126 125 118 108 99 108 112 120 132 136 152 154 163 166 183 175 187 189 191 184 182 184 188 189 184 179 182 175 171 171 174 170 170 179 180 185 187 178 176 175 177 171 160 169 160 157 170 171 167 156 159 154 147 146 143 149 144 167 158 144 146 153 156 152 155 166 157 156 147 131 121 118 121 120 127 119 133 157 167 185 169 168 165 177 131 132 129 122 113 105 104 114 121 121 119 106 94 101 105 109 130 131 144 127 138 147 160 167 178 178 183 181 179 180 180 183 180 177 178 166 159 158 155 153 160 172 173 169 171 174 171 169 174 169 155 168 161 166 165 160 158 151 158 149 144 144 145 141 155 174 152 148 146 151 159 156 159 157 158 158 146 127 136 130 121 128 128 126 139 153 152 173 167 155 152 167 145 121 128 121 111 103 105 114 124 124 118 110 105 106 101 105 118 127 133 125 135 140 147 152 168 167 160 162 159 163 162 151 143 137 139 137 128 134 144 146 158 165 165 158 162 163 161 164 167 168 159 167 165 159 153 156 150 150 159 143 142 143 143 143 166 171 150 155 151 157 165 161 157 155 160 157 150 124 130 141 130 131 136 124 152 153 153 152 155 140 152 147 149 114 124 119 116 103 107 113 123 122 122 117 115 112 111 110 112 112 122 115 121 130 135 138 144 154 149 143 137 146 137 129 130 121 122 128 119 134 135 139 142 146 146 144 144 147 151 157 163 163 165 159 157 154 152 152 148 150 150 139 146 146 142 147 174 162 160 162 158 164 157 161 157 154 158 151 154 132 133 143 140 145 131 128 148 158 163 150 152 132 140 144 152 123 123 123 121 109 110 118 120 126 123 117 120 120 119 122 119 114 126 114 113 119 121 119 132 139 134 135 134 137 133 127 130 132 127 127 132 137 136 138 143 144 146 143 139 138 145 154 158 159 162 155 153 149 152 147 147 149 141 140 147 145 145 155 170 159 164 155 163 160 157 160 160 154 154 151 156 161 147 143 153 151 138 135 153 149 170 165 161 139 141 150 149 136 121 123 125 119 113 114 122 128 125 123 125 130 129 129 131 124 125 123 119 118 111 111 118 114 119 125 122 125 132 132 133 136 135 131 138 139 140 134 139 145 144 144 142 140 147 151 158 159 164 154 148 152 150 145 149 147 138 144 146 142 151 160 169 165 165 157 160 159 158 157 158 153 147 154 160 162 158 153 157 158 145 142 152 160 170 179 174 152 150 147 141 143 129 120 124 129 120 117 121 125 120 126 126 135 136 136 136 132 133 131 131 127 122 117 128 123 131 131 132 131 137 127 131 130 128 128 130 131 130 129 134 143 145 148 149 153 154 157 162 164 162 153 148 148 145 145 144 143 137 152 147 144 161 170 171 166 162 153 156 162 157 161 155 150 144 156 160 161 157 162 162 157 150 147 143 157 172 182 182 167 152 159 145 145 139 119 124 127 122 118 123 118 116 116 125 133 137 137 131 133 144 141 142 137 127 125 133 139 144 143 142 140 145 138 140 140 139 138 139 142 144 142 148 151 155 153 151 155 157 163 165 165 160 154 149 146 143 142 143 139 137 154 147 151 165 172 173 167 158 154 163 159 150 156 157 150 149 153 156 159 161 162 161 157 150 147 148 160 173 179 188 178 166 175 158 148 143 135 123 128 123 118 116 112 115 112 121 127 126 128 125 126 130 133 134 133 134 133 140 141 142 144 138 137 140 139 141 142 145 149 149 150 149 151 155 159 160 161 160 161 160 167 167 164 157 153 151 143 145 137 138 136 145 151 154 162 168 169 175 165 155 157 164 151 150 158 155 156 152 156 151 162 165 162 160 160 155 151 153 165 174 184 195 188 177 193 170 155 151 142 140 128 130 118 113 110 108 113 118 120 122 121 119 119 124 121 124 122 123 125 129 134 133 135 134 136 136 135 139 138 140 143 144 146 149 153 160 161 163 169 167 164 166 165 164 157 154 152 148 141 141 135 134 141 155 157 163 165 163 177 166 163 153 164 154 148 160 157 157 156 158 153 148 164 169 165 163 168 167 155 159 176 184 191 199 199 184 192 186 165 155 147 145 139 128 126 117 116 105 110 114 111 115 117 110 112 120 115 114 114 110 110 114 126 125 128 129 130 128 130 132 130 133 134 135 138 144 154 161 166 165 169 169 168 166 160 156 154 152 154 142 139 137 130 135 151 162 169 167 163 169 173 160 156 152 161 154 164 161 161 164 159 156 156 160 169 171 168 172 179 172 159 169 187 188 192 203 204 196 198 190 161 149 143 140 145 133 126 122 124 114 112 111 108 110 112 106 108 112 108 109 108 105 105 108 112 112 110 115 111 120 123 128 126 126 128 128 131 143 152 161 165 165 164 167 169 161 159 153 153 151 145 140 130 128 131 140 155 177 182 168 163 177 166 159 153 155 159 164 166 166 164 166 165 163 167 169 171 176 176 179 183 176 163 178 192 192 204 211 206 210 201 186 171 145 130 129 136 137 131 128 131 122 118 113 110 109 112 111 109 106 112 114 111 111 107 105 107 103 106 100 101 105 103 109 112 115 118 120 126 136 146 154 156 159 164 162 160 159 153 151 151 146 138 130 125 126 135 148 161 186 188 173 174 168 165 151 155 161 161 167 168 171 166 168 175 173 169 174 182 187 186 187 188 183 177 186 196 203 217 218 214 211 202 176 164 142 135 122 124 134 133 133 132 130 120 118 115 116 113 111 108 107 113 115 118 118 122 119 120 113 114 112 111 108 106 107 112 110 113 120 126 137 142 149 154 153 161 160 158 158 149 147 146 144 130 125 125 126 143 158 168 189 189 182 174 164 164 158 157 158 163 168 168 167 169 172 175 172 172 173 190 193 188 192 188 192 187 190 201 208 222 231 217 215 200 184 154 142 138 124 121 126 131 136 135 135 129 125 124 124 118 116 114 110 111 112 117 120 122 124 122 122 120 123 119 116 116 115 116 117 119 124 129 134 139 144 151 155 158 157 154 151 150 149 144 136 129 124 122 129 152 163 175 189 187 176 175 168 163 159 156 157 161 167 165 167 169 170 170 171 171 171 193 197 194 194 189 200 193 191 203 212 236 239 224 220 204 178 149 134 132 134 118 124 121 136 132 135 131 132 131 135 131 125 124 120 120 116 118 126 125 131 127 124 127 124 124 124 124 125 122 122 124 128 135 137 141 147 150 153 158 155 154 152 148 147 141 132 131 125 127 130 166 168 179 187 179 173 174 172 161 158 156 158 162 166 167 166 170 168 172 170 170 169 195 199 197 197 193 204 202 197 207 223 249 241 230 226 205 179 146 129 123 132 119 118 115 124 130 130 133 137 139 139 138 133 130 130 129 127 122 128 131 135 136 131 130 131 128 130 129 129 130 131 133 136 140 147 153 150 151 151 154 159 154 154 150 141 133 128 126 130 132 136 175 173 178 183 177 174 174 174 160 160 157 160 158 166 166 168 170 166 170 170 171 170 202 202 205 201 202 211 209 200 207 232 248 244 240 226 205 183 142 122 123 122 119 116 116 122 122 127 131 133 139 138 139 136 136 135 137 139 140 143 138 141 141 139 130 135 134 135 141 138 140 141 142 147 150 158 162 158 158 158 155 161 157 153 146 135 127 122 130 136 129 144 182 174 177 174 178 179 171 174 167 159 158 160 163 164 167 170 170 167 168 167 171 169 207 207 210 209 214 214 211 197 214 235 246 252 243 225 220 181 147 129 119 124 109 113 111 118 119 119 133 129 129 138 136 138 143 143 149 152 155 152 150 148 149 147 141 141 145 148 153 153 154 157 159 159 163 167 168 167 162 159 155 156 157 150 140 125 125 125 126 128 136 148 172 171 174 174 173 184 169 174 166 160 164 158 163 163 168 172 174 168 168 170 168 168 212 213 213 215 218 215 206 201 224 235 248 251 243 235 220 182 160 137 126 118 122 111 106 110 124 121 122 130 129 134 136 139 148 149 151 161 161 160 160 160 160 155 159 157 161 164 164 166 167 169 170 170 170 172 169 164 161 157 155 153 153 142 130 121 131 124 118 131 145 158 168 168 178 178 166 185 169 173 168 162 166 160 163 164 169 174 175 172 168 170 169 167 217 216 215 216 219 214 208 212 234 236 244 249 242 244 220 196 171 132 124 125 116 118 104 103 116 120 125 124 130 133 133 139 149 149 153 159 162 160 165 167 169 166 169 170 172 178 176 177 175 176 174 175 174 172 165 160 157 155 152 145 140 133 119 114 132 122 122 133 150 157 174 167 182 179 166 183 171 166 169 162 166 166 166 166 172 177 177 177 170 172 173 172 216 213 213 214 219 218 215 219 235 231 247 245 238 247 228 202 178 133 121 129 118 118 113 103 100 116 122 127 125 133 135 133 140 142 153 154 161 162 164 171 174 173 176 177 178 182 181 178 181 178 175 173 170 166 162 153 151 150 148 134 128 122 113 120 127 125 125 134 145 160 178 168 182 184 168 172 179 163 166 168 166 169 166 167 175 179 178 181 174 175 175 174 210 206 211 214 218 214 217 225 227 231 255 234 241 243 235 203 184 135 127 127 122 119 112 103 100 107 118 121 125 131 132 133 132 137 142 149 157 161 163 169 177 177 178 180 180 181 180 182 180 180 173 167 163 163 154 149 146 142 129 124 125 120 118 124 129 125 130 143 145 159 176 177 179 192 170 171 174 166 159 169 169 175 173 170 176 180 187 187 183 183 184 182 214 208 209 208 218 212 210 222 226 234 244 226 246 241 237 201 183 143 131 124 121 119 113 95 105 108 104 113 123 123 126 128 129 134 134 143 152 156 162 167 172 175 179 178 180 179 183 179 173 169 164 159 157 154 149 144 137 128 121 128 126 124 121 130 133 133 138 145 147 158 178 181 175 194 172 175 167 167 160 166 170 180 185 180 177 181 195 194 194 194 198 197 215 211 212 210 217 208 206 226 233 227 233 230 239 235 233 199 182 148 139 129 125 122 110 103 104 115 109 102 116 117 123 120 122 131 137 138 141 145 158 163 166 172 171 176 176 176 174 169 164 160 155 151 149 149 139 130 123 122 127 134 134 129 127 137 138 137 137 149 152 164 177 184 182 190 177 176 164 167 154 160 172 179 190 187 176 179 192 197 198 200 200 202 218 209 207 209 215 214 214 227 229 219 218 229 230 229 228 194 176 151 145 135 131 130 112 110 112 121 115 111 105 108 116 114 117 123 134 136 136 138 147 153 161 164 164 165 168 169 165 158 156 150 147 144 138 134 121 119 125 135 133 135 137 131 128 139 134 136 140 154 155 167 174 175 186 185 177 175 160 163 153 155 164 170 187 194 182 179 187 198 201 206 205 204 215 210 211 219 214 217 209 223 220 213 215 234 230 221 219 192 166 152 147 141 132 131 127 114 110 127 124 120 114 107 104 104 101 113 114 122 126 131 142 149 149 146 153 153 151 153 150 148 147 143 137 137 133 123 120 130 135 136 133 138 134 133 138 140 134 138 141 155 158 169 179 174 185 182 175 171 161 160 155 151 157 162 178 194 187 183 187 197 208 211 210 208 214 216 217 212 209 211 206 216 214 215 217 234 228 222 210 189 161 151 147 138 137 132 134 122 118 124 132 130 127 116 107 106 98 101 112 118 121 128 138 149 146 147 155 149 150 146 141 140 138 135 134 135 132 128 131 134 131 133 136 140 139 137 139 137 138 137 144 160 164 169 177 172 190 182 174 169 163 159 158 151 152 159 169 185 191 186 184 192 208 214 213 206 