P2
92
112
255
159 162 162 160 164 160 161 162 161 160 160 160 157 154 153 151 150 153 150 141 132 129 124 120 112 113 106 101 103 99 95 89 99 102 108 107 111 114 105 106 105 104 107 105 91 90 89 87 86 81 77 74 68 61 58 61 57 54 54 56 61 65 75 76 85 86 100 106 113 117 124 132 133 142 147 152 153 156 156 155 157 157 156 157 159 159 160 160 161 159 161 162 160 160 162 161 161 159 161 160 160 159 157 156 154 152 147 146 149 147 140 126 119 110 109 104 94 97 96 93 96 102 97 99 105 110 111 108 112 121 113 113 113 111 110 111 105 104 99 96 85 87 88 78 76 69 60 67 57 54 50 45 52 56 58 60 70 82 83 92 97 103 116 119 132 131 137 146 147 151 154 152 155 155 157 155 157 158 159 159 160 160 160 161 161 160 162 161 161 160 162 159 158 159 154 154 150 149 145 146 140 135 123 120 106 97 84 82 90 97 103 97 97 105 117 118 125 128 119 120 126 128 117 120 123 120 118 116 116 113 104 105 98 98 98 90 81 73 72 70 67 58 55 45 47 43 48 54 60 74 76 82 80 95 101 112 123 130 129 137 140 143 148 151 154 154 153 156 156 157 157 159 160 160 160 158 161 160 161 161 160 161 159 158 155 155 153 151 149 147 144 131 128 116 109 98 79 74 71 77 91 101 112 108 113 127 126 132 138 130 133 134 131 141 141 142 139 141 128 131 128 133 128 117 120 119 107 102 91 71 80 76 64 56 48 49 46 41 43 51 61 59 73 74 76 75 90 97 109 121 125 130 129 134 143 146 152 153 152 153 156 156 156 156 160 159 161 161 160 161 161 160 160 157 155 156 154 151 152 148 141 131 131 121 113 103 84 66 59 67 71 81 95 111 124 128 132 137 137 136 138 149 144 151 155 158 157 157 159 159 148 144 153 155 147 139 132 132 125 112 101 89 88 83 72 58 54 45 43 36 39 48 58 49 55 68 66 73 83 78 98 108 118 125 124 126 133 143 148 150 151 152 154 155 154 154 156 159 160 162 161 160 159 159 159 157 152 154 151 151 147 134 125 114 112 99 96 85 67 64 60 68 85 90 109 114 130 139 143 155 156 160 165 160 166 160 171 173 172 167 168 164 157 154 159 162 158 153 151 146 138 129 126 114 107 103 85 71 65 61 55 51 49 49 57 55 51 55 56 59 67 65 81 95 110 117 116 121 126 133 142 147 149 148 152 153 153 155 157 155 160 161 159 160 159 159 155 153 152 150 145 143 125 119 110 99 90 84 76 66 53 58 61 75 96 106 114 121 131 147 167 168 169 172 180 179 176 182 186 178 179 175 172 170 162 161 162 159 156 150 156 157 153 144 137 128 119 119 103 87 79 74 73 63 58 59 65 63 54 55 52 53 65 64 71 85 96 94 108 121 122 121 134 144 146 147 148 149 151 153 155 154 159 159 159 160 156 155 153 149 148 144 140 124 115 108 89 85 82 63 50 45 54 58 70 89 96 104 125 141 153 156 161 169 173 182 188 187 187 191 191 190 188 181 176 176 176 166 165 166 164 157 158 160 160 152 143 137 129 125 114 103 97 84 81 77 74 69 69 67 68 62 56 56 66 66 73 81 87 84 98 116 119 115 123 138 137 142 147 148 148 151 152 151 158 159 159 159 154 150 148 146 143 138 129 111 102 89 84 80 57 36 34 44 53 62 81 90 103 116 138 154 161 165 172 176 181 190 191 187 187 187 190 195 194 192 189 185 180 177 175 178 178 171 165 162 159 152 149 141 141 135 124 119 115 98 98 93 83 81 82 74 76 78 76 66 64 66 79 81 76 88 95 107 112 110 113 127 135 136 141 146 147 149 151 154 156 159 159 154 153 150 147 141 140 136 116 103 91 84 69 49 36 26 33 41 47 64 82 94 111 131 144 148 161 169 174 180 185 190 196 196 191 194 194 194 190 194 190 188 181 179 183 181 181 180 176 173 170 160 157 157 151 146 140 137 134 126 121 110 107 104 94 92 87 81 79 79 72 70 72 72 76 78 88 91 101 110 108 119 130 135 143 144 149 149 151 154 157 157 158 151 147 144 143 143 134 125 105 98 81 69 38 25 23 34 29 40 54 72 87 105 126 132 137 150 161 169 168 181 185 189 191 199 195 199 206 202 200 196 188 186 184 188 188 188 186 181 182 180 177 168 166 161 155 154 149 151 151 147 137 128 128 122 113 107 98 94 91 80 85 84 70 72 70 79 78 81 87 101 110 113 121 134 143 146 148 147 150 155 155 157 154 149 146 141 142 139 135 109 99 83 78 36 15 16 23 24 34 37 58 81 97 105 126 130 133 154 159 163 169 179 186 189 193 196 200 205 204 204 205 203 198 195 191 188 190 188 188 185 185 180 180 176 169 167 169 167 165 161 162 154 151 148 143 139 131 121 114 104 104 94 91 88 80 74 64 70 68 76 77 86 107 107 109 122 137 142 145 145 151 154 152 155 150 146 145 141 141 133 119 98 86 68 35 14 18 7 22 22 45 62 78 90 98 117 123 131 137 147 156 167 177 187 196 196 198 199 199 200 199 197 200 199 203 204 194 189 192 188 189 185 185 177 178 181 176 180 182 176 173 174 171 164 161 161 156 153 150 140 130 121 118 110 94 101 94 80 70 72 68 74 75 76 87 99 102 108 126 130 141 142 147 149 152 153 147 144 144 140 138 115 104 88 65 39 17 17 17 10 22 42 66 74 79 88 103 110 124 127 134 147 162 168 179 190 196 197 194 199 199 193 189 194 195 193 194 194 192 189 188 187 182 184 184 177 185 183 184 188 183 179 180 179 177 174 178 173 170 169 166 156 144 140 133 118 114 108 110 97 84 79 70 72 74 72 85 90 99 97 104 116 127 141 142 146 149 149 145 149 142 139 124 109 89 68 40 11 15 18 23 22 46 73 78 82 77 89 98 109 119 127 145 162 168 172 182 189 186 191 190 188 192 191 193 194 195 190 192 193 194 191 196 195 195 197 194 184 188 184 186 185 184 183 187 190 185 184 185 180 179 182 175 171 164 156 148 132 125 115 113 110 95 87 81 71 68 73 85 93 93 98 99 104 112 138 136 141 149 148 146 147 142 125 117 96 69 51 22 18 23 29 31 47 72 74 75 80 82 96 94 107 121 136 153 165 171 173 181 180 180 176 179 181 189 190 191 189 193 195 195 201 202 201 207 210 205 212 208 205 206 194 189 200 196 195 198 194 191 190 190 182 180 188 180 177 170 168 159 146 130 121 117 111 98 97 91 82 70 72 87 102 97 101 101 96 105 129 137 135 145 149 146 146 133 110 108 86 56 33 29 26 33 36 48 71 77 76 73 83 87 95 104 116 141 156 158 166 165 172 174 169 173 176 177 186 190 195 193 196 197 200 202 205 209 213 215 216 214 218 216 221 216 209 205 212 205 210 203 204 203 198 197 194 192 194 195 187 181 171 169 158 143 128 124 118 102 100 96 91 82 73 77 90 104 101 101 93 94 119 128 137 139 147 147 142 129 106 97 74 38 37 31 33 36 47 66 82 67 73 77 82 90 100 122 133 152 156 158 162 163 169 169 170 175 178 183 193 200 195 194 199 205 214 216 211 224 222 221 219 220 219 224 226 219 220 220 215 207 213 213 209 210 211 208 210 209 209 215 210 204 190 184 172 163 150 137 125 116 105 103 96 91 82 76 85 101 95 102 93 95 105 121 130 141 146 145 135 118 105 78 53 43 40 32 39 39 56 73 67 62 65 80 90 96 119 135 140 151 150 154 153 160 162 166 166 176 184 190 191 201 202 204 214 221 226 224 224 228 226 225 224 223 219 227 224 224 227 224 218 218 219 221 219 214 218 218 217 215 217 219 222 211 206 194 184 174 164 147 137 122 120 107 102 95 90 80 77 89 93 100 91 90 98 118 124 134 143 137 126 117 87 66 54 48 39 41 41 55 67 62 54 54 66 89 96 111 137 139 145 148 151 150 154 161 165 170 175 181 187 191 196 209 209 218 223 226 226 226 228 230 227 228 228 225 230 229 227 229 225 223 223 225 222 224 225 218 225 222 220 217 218 221 222 217 210 206 196 182 174 165 148 135 127 120 105 97 94 92 78 82 96 96 89 81 92 106 121 123 138 127 117 110 83 57 51 54 43 38 47 73 61 50 55 68 80 86 109 129 142 146 152 149 155 153 154 159 166 176 181 184 186 194 204 211 219 226 226 223 223 221 222 225 226 229 229 225 231 230 229 227 228 222 229 229 222 227 230 225 224 230 225 224 221 223 222 217 217 211 203 194 183 175 167 152 144 128 115 103 90 96 83 78 91 95 83 75 75 101 108 124 127 123 104 98 68 55 61 54 39 35 63 61 44 48 67 75 81 100 125 137 147 153 156 156 152 151 156 164 174 179 181 183 190 200 204 212 224 224 227 224 224 228 227 228 228 231 230 224 227 228 227 228 225 227 228 228 227 231 232 228 228 233 230 228 225 227 226 219 213 209 203 194 186 176 167 159 155 140 119 115 95 97 86 84 83 91 84 74 65 90 103 117 123 113 99 86 63 69 55 35 29 56 65 42 32 67 70 78 92 112 130 141 154 157 158 158 156 159 166 169 175 178 182 187 198 204 207 217 219 226 228 227 225 230 229 227 227 228 225 226 222 227 228 228 226 227 230 227 232 233 231 237 238 240 235 232 231 231 223 224 214 207 201 194 181 175 169 164 159 148 132 113 104 99 90 91 83 79 87 72 64 74 100 110 117 98 98 69 72 53 36 30 46 68 50 25 49 69 67 80 101 122 133 146 160 157 156 156 161 162 167 173 177 184 188 193 200 209 213 214 221 225 225 229 231 230 229 228 227 225 225 225 228 229 229 227 230 231 231 231 235 233 233 238 239 241 240 238 235 233 228 230 218 207 204 198 188 178 169 169 161 148 142 128 106 106 93 94 90 76 85 76 65 58 82 109 109 100 86 70 49 33 41 49 60 52 25 41 58 59 68 86 110 129 136 150 156 152 153 160 158 164 171 179 187 194 195 201 203 210 210 215 223 223 227 228 230 231 229 227 228 225 223 224 227 230 225 225 233 240 234 237 243 239 239 239 236 241 244 243 239 236 234 233 223 211 206 200 192 184 175 172 171 151 146 134 112 99 98 93 87 85 75 80 64 57 64 90 112 94 75 53 35 41 39 63 53 38 28 51 54 63 84 92 121 135 151 161 160 155 159 165 167 176 186 192 197 197 199 204 209 211 211 215 218 219 224 224 227 226 224 227 224 224 223 219 220 221 220 224 230 236 236 238 243 242 242 244 238 243 248 245 242 245 240 231 225 213 205 204 192 186 177 168 167 158 145 134 123 99 98 94 87 82 71 77 70 52 60 71 97 85 64 35 41 42 46 64 38 35 35 49 62 79 97 111 133 144 165 162 162 160 168 172 174 187 195 197 195 196 203 204 212 211 213 214 215 216 216 216 217 215 220 222 221 216 217 215 214 212 216 220 222 228 229 234 236 241 240 242 242 244 242 245 244 246 242 233 227 217 206 201 191 188 179 170 161 150 143 129 124 104 105 92 86 81 70 68 71 53 48 66 86 87 48 31 50 43 57 50 37 37 35 53 66 86 106 129 139 156 158 163 167 167 175 172 176 187 193 193 196 202 211 210 208 210 208 209 205 206 209 212 212 208 211 217 215 212 207 212 213 212 208 215 216 217 217 226 230 231 235 239 239 237 238 240 246 242 242 231 224 220 209 200 190 190 177 168 162 146 136 132 125 110 105 92 86 73 68 62 63 52 44 61 78 75 35 35 48 49 51 53 28 32 40 56 75 93 120 130 140 148 151 163 169 172 172 169 183 186 188 185 195 204 205 205 202 203 202 203 200 201 203 205 209 203 207 208 206 206 203 202 207 207 203 207 210 210 211 219 221 224 229 228 232 232 232 237 236 238 234 227 221 217 210 204 190 188 180 164 161 144 136 129 122 115 99 96 91 76 64 59 58 54 40 55 67 53 39 39 53 50 48 41 21 34 43 62 78 108 116 126 133 142 158 164 170 173 175 172 185 185 185 186 194 199 200 202 201 202 197 198 200 199 198 200 204 200 202 201 203 204 199 199 199 202 198 201 204 207 203 210 213 217 220 223 223 228 227 231 229 228 230 229 224 217 211 203 196 184 181 167 161 143 134 129 117 115 100 94 93 79 61 52 54 56 39 52 61 46 47 46 51 45 37 27 27 34 48 68 84 107 112 123 132 148 158 161 175 175 177 180 182 187 192 199 201 202 203 205 207 209 205 202 205 203 199 198 204 201 198 199 197 201 196 194 196 198 198 200 200 200 202 204 210 212 214 217 221 224 226 225 226 228 230 230 226 219 214 210 199 187 177 167 157 142 139 125 118 111 101 92 91 82 59 49 50 58 41 48 56 59 60 51 44 42 35 28 30 32 52 62 91 99 117 120 133 144 154 165 174 183 182 185 186 192 203 208 206 206 208 209 211 208 209 205 207 205 202 200 201 202 198 196 194 198 193 192 193 192 196 196 199 202 202 204 206 208 212 214 218 219 226 227 228 231 235 233 231 226 223 215 207 194 180 170 154 149 142 131 116 104 98 88 92 75 69 44 46 54 48 39 51 66 69 52 37 37 27 28 30 29 38 64 86 106 112 118 131 139 149 158 167 180 180 186 191 202 202 204 205 207 208 206 206 204 204 204 204 202 201 200 200 201 201 198 194 194 194 190 189 194 195 198 201 207 205 209 209 209 212 216 215 217 221 224 227 231 235 236 237 239 235 225 214 204 189 171 160 152 144 138 120 109 95 83 86 78 67 52 36 49 49 37 44 78 66 39 33 32 32 21 23 16 35 69 86 102 104 120 130 135 145 154 166 164 180 184 192 202 202 202 203 202 201 200 200 202 201 199 197 194 196 196 197 197 197 195 195 196 196 198 195 197 195 199 200 206 208 210 212 212 212 217 216 217 219 221 226 228 236 238 238 240 238 234 220 214 198 177 164 152 144 142 129 111 99 80 80 76 64 48 39 38 49 39 46 82 57 32 36 35 28 14 14 18 43 65 89 95 100 115 123 130 141 148 150 157 174 176 192 193 194 195 197 197 197 200 201 204 200 197 198 194 195 197 197 197 198 197 199 201 198 198 198 198 197 199 202 207 209 212 214 214 218 218 219 220 222 223 226 229 234 237 238 238 236 232 226 216 200 181 163 151 142 144 144 116 105 84 76 67 69 43 42 38 44 40 48 72 46 36 40 36 24 14 21 30 40 64 83 93 97 108 117 127 141 141 144 156 169 176 182 178 180 183 185 194 192 193 196 199 200 200 200 197 197 200 202 202 201 202 201 203 200 201 201 202 199 200 201 206 205 210 213 215 217 222 224 226 229 229 230 235 237 239 239 238 233 223 221 213 203 184 158 149 137 139 139 127 102 83 70 71 60 55 39 45 41 41 51 65 54 36 43 33 18 14 21 25 35 59 78 96 93 104 115 129 138 135 145 154 163 162 165 165 171 172 178 183 192 193 199 200 202 204 203 203 200 202 203 204 204 203 200 203 201 205 203 202 200 199 201 205 205 208 212 215 217 222 227 230 231 232 236 239 240 238 240 239 232 220 217 209 199 186 161 142 135 134 134 127 97 84 74 70 59 50 46 40 34 45 46 83 50 34 42 28 14 11 16 19 35 56 79 96 87 102 117 132 130 138 142 153 156 152 156 166 169 173 178 185 191 194 198 200 203 206 208 208 205 205 206 205 205 204 200 201 201 205 203 200 199 199 200 201 203 207 214 217 220 224 228 230 232 234 234 232 237 233 236 236 227 219 212 205 195 176 159 138 130 130 129 122 93 80 71 76 57 43 49 38 34 46 49 92 51 37 33 21 12 5 13 16 37 55 74 89 91 104 117 127 126 133 138 149 147 149 156 169 172 177 185 191 193 196 197 200 202 204 206 207 208 207 208 204 205 203 202 201 199 200 203 199 200 201 199 205 205 209 212 218 221 223 225 230 230 226 226 225 225 226 230 231 221 213 206 198 191 176 157 137 126 124 121 111 93 68 69 81 60 43 47 41 40 38 52 95 54 41 27 9 13 0 12 13 35 53 75 80 92 101 117 117 120 123 127 134 136 143 153 168 171 185 186 188 188 190 190 192 193 197 199 198 200 203 202 202 199 198 197 199 198 196 199 200 201 202 199 203 207 209 212 216 219 222 224 226 226 221 220 218 217 219 218 213 209 204 200 196 185 180 163 137 126 116 117 105 83 67 62 78 65 44 38 46 41 43 54 99 65 42 20 15 8 0 11 8 32 50 63 74 86 95 112 111 121 114 120 132 139 151 158 169 169 179 178 182 184 190 191 191 192 195 193 190 188 189 186 190 191 190 191 193 193 191 193 195 196 196 197 199 204 207 208 211 213 215 214 214 217 212 211 202 205 206 209 204 196 193 194 185 183 183 172 145 122 112 98 98 81 59 56 69 78 45 35 50 39 44 52 97 82 52 17 21 8 4 9 4 34 49 47 72 81 93 105 110 116 112 125 138 136 149 166 171 173 175 174 173 169 174 176 179 179 182 182 180 175 172 170 169 174 172 170 173 173 175 180 183 185 184 186 190 193 197 198 201 200 202 202 202 204 202 200 196 191 189 190 190 195 185 182 168 167 166 162 145 113 95 94 86 70 46 51 61 83 52 44 42 39 45 59 96 90 66 29 28 16 14 4 5 32 41 49 72 79 87 90 104 102 110 119 132 139 161 167 168 167 163 169 162 159 168 172 179 172 175 176 176 172 170 166 164 163 163 161 159 160 162 168 170 172 175 176 180 185 188 187 190 190 196 193 192 193 192 191 187 186 183 187 176 184 193 190 168 160 158 151 146 119 93 91 78 57 42 48 59 79 62 47 39 38 55 68 90 93 76 41 29 25 10 7 19 31 35 45 67 89 96 101 114 117 126 120 139 156 159 164 167 163 155 166 168 168 171 173 176 172 172 172 171 166 164 162 161 155 162 162 161 162 165 172 172 173 174 173 174 176 180 182 180 181 188 188 187 189 189 187 184 185 185 186 184 186 188 186 173 169 163 151 144 124 98 89 79 56 43 41 58 72 69 43 41 42 53 73 108 92 88 57 44 20 14 5 27 29 35 46 73 96 101 104 114 113 116 128 152 155 157 160 163 153 159 177 172 171 170 170 169 170 170 167 165 162 163 162 161 151 152 155 154 152 160 161 162 166 169 171 171 172 172 175 177 177 182 186 185 185 185 184 183 185 186 192 188 187 192 185 180 169 172 161 150 135 103 86 77 55 44 50 64 60 59 44 41 52 62 74 129 97 97 76 58 23 20 15 32 40 36 42 77 98 99 99 111 111 119 152 153 140 141 141 154 153 148 161 157 159 156 156 161 165 166 160 159 154 160 158 157 148 144 147 151 148 154 152 153 157 162 168 169 173 171 171 174 174 178 181 183 181 181 180 180 179 180 180 179 183 187 196 194 176 176 165 159 154 124 93 79 58 46 48 71 55 50 46 40 60 70 74 138 111 116 90 52 42 42 33 41 42 47 55 78 99 99 99 116 114 141 145 129 133 127 135 141 153 150 145 149 153 148 154 155 157 158 152 154 155 155 155 149 143 141 148 151 150 153 156 149 147 148 164 163 171 166 167 167 170 174 181 178 189 187 177 170 172 174 174 171 173 175 175 184 182 173 154 145 154 129 107 87 60 54 52 65 54 46 49 51 66 84 87 137 136 128 106 65 68 66 44 50 55 65 76 99 98 98 100 106 110 134 121 112 136 134 130 138 152 145 136 129 137 138 144 147 152 147 150 151 137 142 149 140 141 147 151 148 151 151 152 152 147 144 155 161 160 165 162 158 159 151 172 173 178 187 170 162 165 163 164 164 172 175 165 165 175 175 157 141 155 141 118 98 68 57 59 53 54 58 60 59 70 99 93 136 143 156 113 82 95 85 63 58 66 74 84 108 102 105 107 104 102 123 106 119 121 126 133 136 139 122 129 121 138 146 153 160 160 152 153 145 139 151 149 141 139 137 138 135 149 143 158 152 151 149 148 152 148 156 149 141 145 138 149 141 156 163 160 151 154 151 153 165 170 168 163 150 150 158 164 158 153 135 122 110 67 66 60 53 59 67 69 65 78 113 112 143 155 163 129 118 108 89 68 77 65 79 94 115 112 104 115 114 112 119 103 116 122 127 129 126 122 113 109 113 135 152 155 151 154 155 151 149 147 151 144 152 148 139 154 149 152 154 167 155 153 150 144 150 143 136 136 132 135 141 126 123 138 163 157 157 147 155 166 160 163 160 155 151 146 151 155 159 159 143 119 112 76 71 58 53 76 79 73 80 92 131 127 149 166 171 132 140 116 106 73 92 86 97 110 127 121 109 116 115 125 128 113 120 132 114 108 113 113 105 98 108 118 130 143 144 145 136 138 142 154 153 149 152 156 152 158 160 159 159 170 165 163 159 149 148 157 148 138 138 136 138 131 124 134 145 146 147 144 138 163 156 158 157 148 147 144 146 131 141 150 152 131 114 86 94 56 55 94 91 78 91 103 141 135 165 162 185 165 163 124 130 80 101 105 110 127 134 128 112 116 115 127 127 118 125 129 118 107 112 109 96 100 112 111 120 132 132 134 138 144 154 169 170 159 153 154 159 174 172 166 163 174 169 171 168 162 148 147 145 133 134 133 135 136 136 138 140 138 142 148 136 140 148 153 140 141 148 150 138 109 117 138 146 131 118 96 101 65 53 93 84 86 90 116 143 151 163 171 165 185 163 133 126 93 91 109 126 134 140 137 124 120 117 129 129 121 129 128 122 107 104 106 107 112 118 115 117 134 139 132 148 158 169 160 159 148 150 149 157 165 172 167 166 172 169 165 165 163 157 144 138 137 138 134 134 144 141 137 134 129 129 134 139 136 142 141 134 138 143 142 140 111 127 133 147 144 124 108 111 70 57 89 88 100 100 122 146 153 174 176 168 187 163 144 130 108 95 120 135 137 150 149 139 137 122 134 125 115 123 135 129 116 117 122 114 120 114 120 128 141 150 143 152 161 156 144 142 143 142 150 159 162 169 168 165 163 157 157 159 153 152 149 143 133 136 141 133 147 141 134 129 115 121 128 139 139 135 134 129 127 137 145 147 135 148 152 151 158 129 123 102 77 74 99 113 128 138 130 149 147 179 201 159 193 165 165 144 122 115 131 151 142 154 153 151 142 140 138 127 119 126 134 132 123 125 130 125 131 130 133 135 136 132 140 138 151 142 124 120 119 122 145 152 155 158 161 164 158 151 156 157 153 155 151 153 138 133 145 140 145 147 144 138 126 129 134 135 140 143 140 146 132 140 151 155 155 159 155 155 152 140 137 104 102 99 108 141 148 156 146 149 148 187 204 170 191 157 172 152 135 136 134 156 154 154 156 151 146 135 133 132 121 123 132 132 129 134 139 141 140 145 144 137 135 137 140 144 151 148 120 129 127 127 142 156 160 161 164 171 160 160 166 167 158 159 147 148 145 137 142 149 147 138 135 139 135 138 137 138 146 145 150 154 146 151 164 165 158 156 159 156 155 147 142 112 118 112 117 151 160 175 151 155 151 183 221 196 185 167 167 169 146 151 127 153 163 147 153 149 145 141 135 143 134 127 134 137 141 147 149 157 156 154 148 144 143 148 145 148 148 140 131 146 145 147 156 163 171 161 165 174 173 178 186 175 159 148 147 146 151 145 143 145 149 149 138 145 145 133 137 143 149 154 156 160 153 160 170 162 159 158 163 163 156 149 136 117 116 121 126 154 169 184 155 155 150 185 236 204 193 170 173 187 164 150 119 149 158 145 151 148 143 145 137 149 135 138 142 146 149 159 163 162 161 162 151 157 158 153 152 146 143 140 155 158 156 149 156 170 173 169 166 169 174 177 187 189 163 143 144 152 147 141 148 143 144 153 149 144 147 151 148 150 154 158 159 164 157 167 175 171 164 161 166 166 162 146 134 127 116 127 134 155 188 189 160 152 153 194 228 204 200 173 187 199 175 154 122 142 156 142 149 146 146 151 145 149 150 150 155 155 152 160 160 162 166 162 162 163 157 160 156 146 153 164 172 166 156 152 156 171 173 176 173 173 175 179 186 192 170 153 149 151 155 150 145 153 142 145 151 142 147 149 155 155 162 160 165 171 164 175 174 176 169 165 173 173 159 142 137 125 117 128 142 159 197 175 156 156 149 204 217 207 202 176 196 208 190 164 126 140 151 141 150 144 150 148 149 148 151 157 152 162 157 159 161 165 162 159 159 160 161 161 156 158 158 162 166 158 152 160 170 175 174 184 186 178 173 170 185 184 178 159 160 152 158 162 151 163 159 151 148 148 148 147 154 154 161 160 169 174 171 180 175 181 174 170 171 171 161 142 147 130 113 132 149 183 200 169 156 161 148 212 228 217 209 201 197 210 209 168 140 129 151 148 144 144 148 150 152 146 150 150 150 154 160 163 164 162 156 160 161 164 165 169 170 159 151 162 168 166 165 176 175 177 178 183 191 178 178 167 172 178 179 170 163 163 159 168 167 170 171 164 158 158 156 158 158 158 164 164 169 171 173 175 170 174 171 176 172 168 161 145 153 145 121 146 168 202 194 157 154 168 147 229 237 232 207 204 199 224 212 177 152 145 144 146 148 148 145 149 153 153 152 151 155 153 160 170 165 160 157 161 168 168 174 171 165 160 165 172 172 174 177 174 175 184 186 183 190 196 181 178 175 182 182 183 176 170 174 174 166 169 174 171 166 165 162 165 167 169 170 171 174 172 174 175 178 175 175 177 172 168 166 146 158 159 137 166 179 202 187 153 156 160 152 229 236 235 208 198 197 216 211 181 162 150 143 154 142 147 151 152 153 152 147 153 147 149 151 155 159 159 159 165 176 178 173 170 164 176 173 174 174 179 178 180 175 180 186 195 200 195 193 182 187 181 187 184 181 173 168 172 172 168 175 173 174 180 167 168 176 174 176 174 176 179 179 182 183 176 177 173 172 173 171 156 156 154 157 181 191 189 174 155 158 160 152 217 224 221 199 191 178 206 208 174 161 152 141 141 151 146 153 154 158 153 153 143 148 150 152 154 152 159 161 167 170 175 174 171 174 181 180 183 184 180 174 178 169 178 184 188 197 195 188 186 192 188 187 185 187 181 173 177 173 175 176 182 182 185 179 171 178 183 176 181 187 185 176 186 179 178 174 174 171 177 165 163 157 150 179 186 190 186 170 156 164 160 159 215 205 203 195 188 171 187 198 146 160 152 145 143 140 143 137 147 151 147 149 144 147 152 158 158 159 158 157 164 169 176 177 180 187 188 185 185 181 175 171 168 166 175 176 183 184 184 182 180 186 191 187 185 189 184 181 177 176 173 179 174 181 188 183 176 178 179 178 189 192 190 186 186 180 181 170 175 171 171 162 152 146 163 178 178 196 174 161 158 159 164 167 204 204 201 187 189 172 174 195 138 153 146 139 142 138 144 140 138 147 147 145 147 151 157 157 161 165 165 168 166 168 176 177 179 186 187 189 180 172 168 171 170 165 173 172 177 180 180 178 173 174 179 170 173 171 176 182 177 178 172 176 177 183 182 185 180 174 172 176 181 185 192 184 184 185 171 165 166 165 165 162 150 152 164 165 179 189 161 164 156 154 162 172 197 201 205 181 181 171 169 188 142 138 138 127 142 141 146 139 139 145 143 151 150 154 159 156 160 162 161 159 157 160 171 180 177 181 185 181 169 165 167 172 171 167 169 167 170 177 181 179 174 175 173 171 161 165 161 164 166 175 173 173 177 180 177 175 175 176 174 173 176 175 179 176 177 172 166 162 162 175 170 157 161 154 157 155 183 179 161 170 155 148 159 173 182 200 200 180 178 175 160 174 143 119 133 122 132 136 140 144 140 143 144 149 156 161 164 159 161 166 163 162 156 158 164 169 170 171 178 181 170 169 169 179 169 168 176 173 177 179 181 181 180 181 175 173 170 170 164 164 167 170 168 168 174 179 180 177 172 172 174 176 180 187 188 184 183 174 170 169 172 169 169 163 157 150 150 163 184 159 160 168 147 151 160 168 180 184 202 182 175 171 159 154 140 115 124 127 135 134 139 143 143 143 151 153 159 163 167 165 169 170 167 161 156 162 165 166 169 170 179 184 177 169 174 179 173 174 181 180 183 184 178 178 180 181 180 176 170 171 165 165 168 172 172 174 179 184 184 182 178 177 173 174 175 179 181 182 179 171 170 177 176 172 167 164 154 147 148 165 174 160 165 162 151 158 164 159 170 171 187 181 175 163 146 150 141 116 115 127 134 131 141 147 145 151 156 159 159 166 166 169 167 172 173 164 163 165 165 166 171 174 181 187 177 178 178 177 174 176 182 181 180 183 179 176 173 175 175 175 173 169 167 166 167 171 171 173 177 184 186 184 182 181 181 180 181 182 184 185 185 182 176 176 172 168 162 160 159 146 155 170 175 161 161 151 156 167 163 145 156 151 178 175 171 162 136 142 140 121 117 121 128 129 137 147 147 156 160 155 160 160 163 164 165 170 168 159 158 160 162 168 174 183 187 180 175 182 180 178 173 178 180 181 180 182 182 180 172 170 177 171 171 169 164 164 167 172 172 172 174 185 189 188 186 185 187 184 183 184 186 192 195 189 184 181 176 164 154 156 153 152 160 173 168 147 156 148 172 172 144 137 137 137 162 164 164 157 129 138 126 116 124 115 126 130 139 148 156 164 167 161 165 163 164 164 163 166 160 155 155 162 165 173 182 180 182 174 172 176 185 178 172 179 182 180 177 179 181 177 175 170 175 173 171 173 170 169 174 176 175 173 177 188 194 192 192 189 188 182 181 182 188 190 191 192 190 187 174 165 154 152 151 154 157 163 150 145 143 158 183 163 138 134 124 132 148 149 141 149 132 135 120 107 117 119 122 129 139 147 163 171 168 167 166 169 171 170 166 164 154 153 160 162 171 181 179 168 167 170 167 166 177 168 159 158 171 170 170 175 175 175 176 176 178 182 177 177 174 172 179 178 176 174 173 184 192 192 194 194 190 185 182 181 188 192 191 194 194 183 172 165 158 152 149 152 152 159 148 150 148 173 175 155 135 135 122 140 138 138 134 136 126 129 115 102 121 133 116 123 136 148 167 172 167 169 167 169 169 168 173 163 155 157 164 167 175 179 174 167 162 159 155 163 166 147 146 142 151 161 167 173 171 174 179 184 180 178 174 176 175 176 178 173 176 174 176 180 189 193 192 192 192 191 188 189 192 192 192 193 189 181 167 168 158 153 151 139 149 149 146 144 163 176 159 148 138 139 108 146 137 127 137 132 112 119 100 102 125 133 119 125 136 147 163 166 167 165 164 166 167 162 174 166 160 164 162 167 176 176 176 171 163 150 139 157 155 132 129 136 146 155 166 174 171 166 173 183 177 171 167 174 171 171 171 165 169 169 173 174 181 187 189 187 189 187 189 194 196 193 194 192 188 180 167 168 152 151 146 137 152 138 143 147 167 167 152 150 141 140 107 137 139 119 132 139 121 118 101 106 132 123 121 129 139 149 157 164 164 161 162 161 159 160 171 161 162 167 164 175 176 170 166 167 165 147 134 144 145 127 125 134 140 152 157 175 169 165 167 178 178 171 167 170 175 171 172 166 165 161 163 168 174 181 183 181 182 184 187 190 193 192 191 189 188 180 173 171 150 152 141 144 146 130 142 145 162 161 158 159 138 135 109 125 137 117 116 131 140 133 115 107 123 119 117 131 138 144 154 158 154 155 156 151 156 161 154 155 161 164 173 181 176 168 165 164 161 152 146 143 148 124 126 138 142 146 158 172 173 170 168 174 176 177 173 172 175 178 175 169 167 161 166 165 169 173 176 177 178 183 186 190 191 188 188 188 188 180 173 167 159 149 147 143 135 126 143 147 152 162 168 154 140 134 110 119 130 129 121 124 143 139 130 107 113 116 120 136 142 142 150 148 142 150 143 144 147 156 147 157 156 167 173 175 172 171 172 163 166 157 154 152 149 132 142 146 145 153 161 169 172 166 168 173 176 175 172 170 173 183 182 174 169 165 169 163 164 169 170 175 174 182 181 185 184 179 179 178 183 175 171 159 153 145 130 139 133 132 141 147 153 174 170 150 141 129 128 118 117 135 132 126 147 150 150 112 113 116 121 136 149 138 146 140 133 142 132 140 141 146 142 149 154 168 179 173 169 172 177 164 168 159 148 149 142 136 142 146 147 153 156 159 168 167 171 173 172 168 166 168 174 182 186 174 172 171 165 165 165 167 165 167 171 177 182 175 177 166 169 174 175 166 171 158 146 138 124 134 129 136 146 145 167 175 164 147 138 131 142 126 113 121 136 137 148 155 169 123 119 119 125 142 148 137 141 132 130 134 128 132 132 138 138 145 146 163 168 172 173 175 175 163 170 150 151 146 137 135 138 148 153 156 157 158 163 165 168 168 169 164 160 162 168 175 182 177 175 170 165 164 162 164 164 165 166 170 178 172 171 161 158 170 167 161 167 152 141 131 122 134 128 143 152 159 169 169 161 144 138 134 134 128 118 118 125 140 151 163 179 146 118 124 138 158 143 143 139 129 126 128 126 125 127 134 138 135 131 148 155 171 173 177 166 165 173 156 161 152 143 145 142 154 155 155 157 156 163 160 162 164 155 162 158 160 165 174 176 178 175 173 166 162 160 159 162 164 164 167 170 172 170 165 154 164 160 162 158 144 137 125 123 146 138 150 157 161 162 163 158 140 140 142 119 122 125 118 121 131 159 168 184 177 138 139 148 177 146 142 138 129 124 122 123 119 125 130 136 130 124 136 153 168 176 178 175 176 174 172 165 166 158 151 149 160 160 161 162 159 163 155 157 161 152 159 161 156 163 169 173 177 179 174 173 168 166 163 160 162 164 166 168 167 168 160 159 157 155 158 155 141 141 120 131 156 148 154 153 154 161 158 158 142 145 154 110 120 124 117 120 124 138 171 180 184 155 159 161 186 159 140 133 130 120 117 113 112 121 126 129 121 119 128 141 149 160 180 172 176 179 186 185 188 177 165 166 169 168 173 174 173 174 172 166 168 160 157 166 166 169 173 178 177 181 180 176 173 172 166 161 158 162 165 166 163 169 161 160 151 148 157 148 142 146 134 143 162 147 155 151 154 156 156 154 148 152 154 110 115 117 118 121 118 129 146 175 186 171 168 175 187 174 135 132 127 120 114 109 107 118 126 126 120 118 112 114 123 135 146 159 174 180 188 187 191 193 181 185 180 174 179 181 184 185 182 175 180 171 169 171 176 180 174 179 179 182 182 180 175 176 169 167 159 165 164 150 167 170 166 158 151 151 151 145 144 148 144 155 161 147 154 151 156 153 147 160 156 152 155 122 109 116 117 120 117 121 134 163 179 182 170 175 173 175 129 131 123 116 111 102 103 110 120 119 112 103 95 105 109 118 130 134 150 154 163 167 182 175 187 188 189 182 178 180 182 183 178 173 177 172 168 168 172 168 168 177 178 183 184 175 173 172 174 168 157 164 155 153 165 166 162 152 154 151 145 145 143 148 141 164 155 144 148 154 157 151 150 165 158 157 147 130 120 117 118 118 124 116 130 156 165 182 165 164 160 173 126 126 123 115 106 98 97 107 114 115 113 101 90 97 102 105 127 128 141 125 138 147 160 166 177 176 180 178 176 175 175 178 175 173 173 163 154 154 152 150 157 169 171 166 167 171 167 166 170 165 151 164 157 161 160 155 153 147 154 146 142 143 146 140 152 171 149 147 147 152 160 156 155 155 159 159 147 126 135 129 119 126 125 124 138 152 150 171 163 150 147 161 140 114 121 114 104 96 97 106 117 118 112 105 100 101 96 101 115 125 131 123 134 139 146 152 166 166 158 160 156 160 158 148 141 134 135 133 124 130 141 143 155 161 162 154 158 159 157 160 163 163 155 163 161 155 148 151 145 146 154 139 140 143 145 142 163 170 148 153 151 158 166 160 155 151 160 158 151 123 129 141 129 130 133 123 152 152 153 151 152 136 148 142 143 107 117 113 109 95 100 105 116 115 115 111 108 106 106 106 109 108 118 111 119 129 134 138 143 152 147 142 136 145 136 128 128 118 119 124 114 130 131 134 137 142 141 139 140 143 147 153 158 158 160 155 152 151 147 148 143 145 146 137 144 146 143 145 172 160 157 160 158 164 157 160 155 151 157 152 155 132 133 142 139 144 130 127 147 157 162 150 151 129 136 140 147 117 117 117 114 102 103 109 112 119 116 110 113 113 113 116 112 108 119 107 108 114 116 116 130 137 130 133 131 134 130 123 126 127 121 120 125 130 130 132 137 139 141 137 134 133 140 149 153 154 157 150 148 146 147 143 142 145 137 138 146 146 145 154 170 158 162 154 163 160 157 160 159 151 153 152 156 161 146 143 152 150 138 134 152 148 170 166 160 137 138 146 144 130 115 117 119 112 106 106 114 121 118 116 118 123 122 122 124 116 117 115 111 110 104 105 113 109 114 120 117 120 126 125 127 129 128 123 131 133 133 128 133 139 138 138 137 136 143 146 152 154 159 150 146 149 145 140 145 143 135 143 145 142 151 159 169 164 163 156 160 159 158 158 158 149 144 155 161 161 158 152 156 158 146 141 151 160 170 180 174 151 147 144 137 138 124 114 118 123 113 110 114 118 114 119 120 129 130 129 129 127 128 126 126 121 115 109 120 115 123 123 125 124 130 119 125 122 119 119 122 124 123 121 127 136 138 141 143 147 149 152 157 160 158 150 146 144 140 141 140 140 134 151 147 145 160 169 171 165 160 152 156 161 157 161 155 147 140 156 160 161 157 161 162 158 151 146 142 156 172 183 183 166 150 156 141 140 134 114 118 121 115 111 115 110 109 110 119 127 131 130 124 127 138 136 138 133 122 118 126 131 136 135 134 132 137 130 133 132 130 130 132 134 136 135 140 144 149 147 146 150 152 158 161 161 157 152 146 143 139 137 139 136 135 153 148 151 164 171 171 166 157 153 161 158 149 155 156 146 145 152 157 159 161 163 162 158 151 146 147 159 173 180 190 178 165 173 156 144 138 129 117 122 117 111 109 105 108 106 115 121 120 122 120 121 125 127 129 128 130 129 135 137 137 138 132 131 134 133 133 135 138 142 142 144 144 146 150 153 155 157 155 156 156 163 164 161 154 150 148 140 141 133 134 133 143 151 154 162 167 168 174 163 153 156 162 150 150 156 155 153 147 153 150 162 166 163 161 162 155 151 153 165 174 185 197 189 177 193 167 151 147 137 135 122 123 112 105 102 100 106 113 114 116 116 114 114 120 116 119 117 118 120 124 130 129 131 131 132 133 132 135 133 135 139 140 142 144 148 155 156 158 165 162 160 162 161 161 154 151 149 144 138 137 131 131 138 153 157 162 163 161 176 164 161 151 163 153 147 160 155 156 154 154 149 146 165 170 166 164 169 168 155 158 177 184 192 200 201 184 192 184 162 151 142 139 133 121 117 111 109 98 103 107 105 109 111 106 108 116 110 109 109 105 105 109 120 119 123 124 125 123 126 126 124 128 129 131 133 139 149 155 161 161 165 165 164 162 156 153 151 149 151 138 135 134 127 132 149 161 168 164 161 167 171 157 154 150 160 153 163 160 160 164 156 152 153 157 171 174 170 174 180 173 160 169 188 188 193 204 205 196 196 187 158 146 137 134 138 125 117 113 118 106 104 104 102 103 105 101 104 108 104 105 102 100 99 102 105 104 102 108 103 113 116 120 119 120 122 122 125 137 147 156 160 161 160 163 165 157 156 150 151 148 142 136 126 125 127 138 153 176 181 165 160 175 164 156 151 153 158 165 166 165 163 167 163 160 164 166 174 179 178 180 183 177 164 179 192 193 206 212 206 209 197 183 167 142 126 122 130 128 121 119 122 113 109 104 103 103 106 105 104 101 107 109 105 105 100 98 99 94 97 92 92 96 93 100 104 108 111 113 119 130 139 148 151 155 160 157 157 155 150 149 148 142 134 126 121 123 132 146 159 185 186 170 171 166 163 148 152 159 160 168 169 170 166 169 172 171 166 171 186 190 189 188 189 185 179 188 197 204 219 219 213 209 200 172 160 139 131 117 117 128 123 123 122 121 110 107 106 107 105 105 103 101 108 109 113 111 115 112 111 104 105 103 101 98 97 98 102 102 106 112 119 130 136 143 149 148 157 157 155 155 147 145 144 140 126 120 121 123 138 156 166 186 187 180 172 163 162 156 154 156 162 168 168 167 170 172 172 170 169 170 193 196 191 193 189 195 190 192 203 210 225 231 215 213 198 180 150 140 135 119 115 119 123 125 125 124 118 115 114 115 109 108 107 103 104 105 110 113 114 116 114 113 111 113 110 107 107 106 107 109 111 117 122 127 133 138 147 151 155 154 152 149 148 147 141 132 125 120 118 125 147 160 173 187 185 173 172 166 160 155 153 155 160 167 165 168 170 169 168 169 169 168 197 200 197 195 189 204 196 194 204 212 237 238 223 218 202 175 145 132 129 130 112 118 114 127 121 124 120 121 121 126 121 115 115 112 112 108 110 119 117 123 119 116 119 116 116 116 115 116 114 115 117 121 129 131 136 142 146 149 156 153 151 150 146 144 137 128 127 120 122 125 160 165 177 184 177 171 172 170 157 155 152 156 161 166 166 166 172 167 169 167 167 166 199 202 199 197 193 208 204 198 207 221 250 240 230 224 203 176 143 126 121 128 114 113 109 116 119 118 121 125 129 130 129 124 122 122 121 119 115 121 123 128 128 124 124 125 122 124 123 123 124 125 127 131 136 143 149 147 148 148 152 157 152 153 148 138 129 124 122 125 126 130 169 170 176 179 174 172 172 172 156 156 153 159 156 164 164 167 171 165 167 167 168 166 205 204 206 202 203 214 209 200 206 231 248 243 240 225 202 180 139 120 121 119 115 111 111 115 111 115 119 120 129 129 130 127 128 127 129 132 133 136 131 135 135 133 124 130 129 130 136 133 136 137 138 144 147 155 159 156 156 157 154 160 156 151 144 131 123 117 124 130 123 137 176 171 173 168 175 176 168 171 163 154 155 158 161 162 164 171 170 166 166 166 169 165 210 209 213 209 214 215 212 197 213 234 247 251 244 224 217 179 143 126 118 122 106 110 107 112 109 108 121 116 118 129 128 130 136 136 142 145 149 146 144 143 144 142 137 137 141 144 150 150 152 155 158 158 161 165 167 166 161 159 154 156 156 147 136 121 121 120 120 122 129 141 166 168 170 168 169 181 165 170 163 155 161 157 161 161 166 172 173 167 166 169 166 166 213 214 213 213 216 215 207 202 225 235 248 251 243 233 218 180 158 134 125 117 120 107 103 105 115 111 111 118 118 124 128 132 141 142 145 155 156 155 155 155 156 152 156 154 157 161 162 165 166 168 169 169 169 172 169 164 162 157 154 151 151 140 126 117 125 117 111 125 138 152 162 165 173 172 162 182 164 168 164 158 163 157 162 161 168 173 173 171 167 170 168 165 217 215 214 215 217 215 210 213 235 235 244 250 243 244 221 196 170 129 124 123 114 114 101 97 107 112 115 114 119 122 125 131 143 143 149 155 158 156 160 163 165 163 167 167 169 176 174 176 174 175 173 175 174 172 166 161 157 154 150 143 137 129 113 109 125 115 115 126 143 150 168 163 179 173 161 179 164 159 163 158 162 162 163 163 170 174 175 175 169 171 172 170 216 212 212 213 219 220 216 221 237 231 246 246 241 249 229 203 177 131 120 127 115 114 109 97 93 109 115 119 117 124 129 126 135 137 148 150 157 158 161 167 170 169 172 173 176 180 180 178 180 178 175 173 170 167 163 153 150 149 146 132 123 116 106 113 119 117 118 128 138 153 172 164 180 179 163 166 172 155 159 162 160 165 162 165 173 175 175 178 172 174 175 173 209 206 212 214 219 217 221 228 230 231 255 236 245 245 235 205 184 134 125 124 120 115 107 97 94 101 112 115 119 127 127 128 127 133 138 145 153 157 159 166 174 173 174 176 177 178 176 180 178 179 173 167 163 164 154 148 145 139 126 119 119 113 110 116 121 117 124 137 138 152 170 173 177 188 165 164 166 158 152 163 163 170 169 167 173 176 184 183 180 180 183 182 215 210 211 210 221 216 214 226 230 236 246 229 249 242 237 201 180 140 129 121 118 114 108 89 100 103 98 107 118 118 121 123 125 129 129 139 148 152 158 164 168 171 176 175 176 175 180 176 169 166 163 159 156 153 147 142 133 124 116 121 119 116 112 122 125 127 133 139 140 152 172 177 173 190 167 169 160 159 154 159 163 174 182 176 173 179 191 191 190 191 196 197 217 214 215 213 220 211 210 230 238 231 235 231 240 234 231 197 179 145 136 127 122 117 104 97 98 109 103 96 111 112 118 115 117 126 131 133 136 140 154 159 161 168 167 172 173 172 170 165 160 157 154 149 146 146 134 125 118 116 121 126 126 121 119 129 131 131 131 142 146 159 171 179 180 186 171 169 157 159 147 153 164 173 186 182 172 175 188 194 194 197 198 201 220 212 210 212 218 218 218 231 234 223 219 229 229 226 225 191 173 148 141 133 127 124 107 104 106 115 110 105 100 103 111 109 112 117 129 131 131 133 142 148 156 159 159 160 163 164 160 154 151 147 143 139 133 128 115 112 119 128 124 127 129 123 119 131 127 130 133 146 149 162 169 170 184 181 171 168 154 156 146 148 157 164 181 189 177 173 181 194 198 204 204 203 218 213 213 222 218 221 213 226 224 216 214 230 226 217 215 188 162 148 143 137 129 126 121 109 105 121 118 115 109 102 99 99 96 107 108 117 121 126 137 143 143 140 147 148 145 148 144 142 141 137 131 130 125 115 112 123 127 128 125 131 127 125 130 132 128 132 133 148 152 164 174 168 183 178 169 165 155 153 148 145 151 155 171 189 181 176 181 192 205 210 209 208 217 218 219 215 212 214 208 220 216 216 214 229 224 218 205 185 156 145 141 133 134 127 129 117 113 120 127 125 122 112 102 101 92 95 106 112 115 122 133 143 140 142 149 143 145 140 135 133 131 127 126 127 124 120 123 126 123 125 129 132 132 129 132 130 132 130 136 154 158 164 172 166 187 177 168 164 158 152 152 145 146 152 163 179 185 180 178 186 204 214 212 205 