P2
92
112
255
100 101 98 103 103 102 102 102 104 102 98 100 98 98 96 97 95 87 87 84 84 78 77 76 72 79 68 60 63 57 60 64 66 79 82 74 72 83 80 79 78 77 76 79 72 81 77 83 87 70 64 61 67 66 67 67 68 73 69 68 74 78 76 82 77 85 89 90 86 86 87 79 81 92 90 88 94 95 94 96 98 98 95 95 96 94 95 94 97 94 97 101 101 101 101 102 101 100 103 104 102 99 98 99 95 94 90 90 91 78 69 79 77 67 72 69 65 65 69 70 67 66 58 66 58 71 75 65 72 87 82 89 91 93 91 97 91 87 91 92 93 91 82 73 71 74 76 74 70 71 66 60 67 70 76 74 76 74 72 74 86 81 86 83 79 77 87 95 91 93 98 95 95 97 97 98 95 96 96 93 97 96 94 98 100 100 100 99 101 101 102 103 95 97 94 90 94 95 87 83 76 68 66 72 60 60 61 66 70 71 70 61 49 54 55 61 68 77 75 79 87 90 105 110 112 108 106 105 116 112 113 112 108 115 104 88 88 89 87 86 75 73 65 60 64 64 73 74 79 70 72 68 67 71 78 81 81 77 76 85 93 89 91 98 95 97 98 98 97 98 94 95 95 97 95 96 101 98 100 98 102 99 103 94 93 89 91 95 91 89 78 72 66 64 66 58 60 63 66 72 71 62 59 51 55 61 61 60 75 80 88 98 100 111 120 124 124 132 121 116 127 136 127 124 119 125 114 96 102 96 97 92 85 79 74 68 66 63 64 67 67 68 67 72 65 61 60 68 75 79 80 80 84 89 92 91 95 96 99 97 99 98 96 96 96 96 98 96 102 98 100 100 98 92 93 90 87 88 87 92 86 75 70 62 62 66 63 60 65 73 73 64 59 57 57 57 59 60 69 72 93 102 102 110 117 117 124 127 134 133 124 122 131 140 131 129 123 123 118 106 106 107 102 98 92 78 76 73 75 74 67 64 60 60 62 63 68 62 58 62 61 70 72 80 80 83 90 95 90 97 93 95 102 99 95 97 95 95 99 97 102 100 102 99 97 94 89 90 87 85 89 81 73 64 54 57 59 59 63 74 70 80 71 69 73 70 65 64 77 92 94 97 108 108 112 118 121 127 126 122 131 128 122 119 128 141 136 127 119 124 123 111 106 107 106 101 94 87 85 81 79 76 74 67 61 68 69 61 62 66 65 61 62 64 66 71 74 79 76 86 99 98 100 94 99 102 98 97 99 94 99 99 100 100 100 95 93 94 89 88 84 84 82 66 61 54 58 60 55 65 67 79 82 83 78 86 86 83 83 94 103 117 107 106 114 111 110 113 126 130 131 129 128 130 128 125 127 139 136 120 120 128 121 113 108 109 108 104 97 90 85 80 78 78 82 74 66 71 67 65 59 61 66 65 65 67 61 57 70 79 76 74 91 99 100 96 99 101 101 101 99 96 97 97 99 100 95 88 90 92 91 84 84 75 62 53 48 52 53 54 54 72 85 86 85 80 82 93 99 109 113 111 118 119 113 118 129 128 130 131 137 140 139 133 133 135 138 128 130 141 141 129 135 138 127 118 114 115 113 109 100 99 87 74 74 74 70 71 72 70 66 69 64 61 60 61 60 60 62 64 64 74 79 81 80 94 99 99 100 96 101 105 102 100 99 96 102 93 89 90 90 87 88 82 73 59 48 46 46 51 50 46 58 71 82 80 81 91 90 108 120 128 130 133 138 135 125 139 145 144 146 148 144 150 141 137 136 136 142 134 138 142 144 137 140 142 134 130 131 126 116 115 109 107 96 83 79 74 75 71 70 71 70 69 73 67 63 62 59 64 63 73 74 73 78 82 84 85 98 105 101 98 96 104 108 103 102 97 100 89 90 88 87 89 86 75 56 52 52 48 51 53 52 63 71 83 84 79 91 100 114 120 133 131 134 138 145 144 138 150 155 142 144 148 150 153 143 142 142 140 141 140 139 142 143 142 141 140 140 141 143 130 123 122 125 123 115 101 93 92 86 87 85 83 75 73 70 71 66 60 54 55 59 66 71 76 79 76 84 86 88 102 102 100 99 100 104 106 102 101 92 87 86 91 89 86 79 65 59 52 46 45 55 57 62 76 87 91 91 89 103 122 132 132 135 143 142 145 151 151 152 153 153 152 148 151 153 143 140 137 137 139 144 143 143 144 142 144 145 145 146 143 146 136 129 131 133 130 124 116 111 110 97 93 94 83 86 81 82 76 69 70 56 48 53 56 66 67 72 77 76 81 87 89 98 98 100 102 101 105 102 103 87 85 90 88 86 80 66 58 53 45 47 57 56 65 74 85 89 91 91 102 120 124 135 136 133 144 143 150 154 155 155 157 156 151 143 143 139 136 133 129 128 135 141 143 145 147 147 148 150 143 143 139 142 140 138 143 141 136 132 129 126 125 113 110 104 97 95 90 93 91 81 78 68 59 54 55 54 63 63 65 72 73 82 85 93 98 101 103 102 102 105 103 82 87 90 86 80 63 60 46 49 51 54 48 55 69 87 93 101 98 105 119 129 134 138 143 144 147 153 148 149 146 152 147 142 136 131 132 125 125 125 117 119 127 127 130 135 142 141 145 144 140 135 138 141 147 141 145 145 141 141 139 134 131 129 130 127 111 109 102 96 98 87 87 85 75 66 60 58 58 57 56 57 68 76 77 87 105 101 101 103 105 105 106 81 90 87 83 70 62 52 42 53 58 62 51 65 83 91 100 106 100 107 118 143 149 149 156 160 156 146 147 140 134 138 134 128 122 119 123 114 117 115 114 112 117 118 116 124 126 128 136 138 137 135 137 137 140 142 145 145 144 146 149 140 141 136 139 142 128 109 106 106 103 105 94 89 87 80 69 62 58 54 52 54 58 67 73 79 94 109 105 101 105 110 107 86 91 88 77 65 56 53 50 55 63 68 70 81 93 98 111 116 112 124 140 147 152 158 160 154 148 148 145 134 126 128 125 116 113 115 110 101 103 100 100 100 103 102 102 102 109 110 112 121 131 128 130 131 135 139 143 141 146 147 143 140 142 136 140 138 136 128 111 111 109 105 108 101 94 92 77 71 65 55 60 57 61 62 67 75 83 100 110 108 101 111 108 92 99 88 76 68 51 57 54 64 73 80 83 92 97 112 119 119 128 146 153 155 169 165 150 150 150 140 139 133 128 124 117 115 115 114 103 93 96 90 88 83 82 82 80 85 92 89 94 99 107 110 116 121 123 130 136 137 141 143 138 139 141 137 134 136 132 131 123 112 115 112 109 113 100 97 93 72 70 64 59 61 62 59 58 65 78 89 103 109 114 104 109 99 96 89 74 65 55 57 69 71 76 83 93 96 111 127 132 135 145 158 157 174 171 158 152 150 150 139 139 131 119 118 109 110 106 104 93 88 86 82 73 70 69 66 65 70 74 78 74 77 80 86 102 104 111 120 126 130 132 134 126 128 133 127 127 129 129 132 125 118 116 115 117 110 113 106 99 91 69 64 57 62 56 56 58 57 64 80 91 97 110 112 113 98 100 89 79 64 63 65 72 83 89 92 87 94 127 144 142 148 162 167 174 182 167 153 153 150 144 142 133 121 119 118 105 105 100 94 85 85 80 75 65 64 62 61 60 63 68 67 67 69 71 74 86 93 98 105 113 118 120 123 122 121 125 123 125 124 119 123 118 117 112 118 116 113 109 112 101 100 86 64 63 62 61 55 56 50 57 71 82 91 100 111 114 100 100 93 78 68 69 77 86 89 90 86 94 119 141 152 154 168 175 180 187 177 163 157 156 153 146 136 126 118 120 113 97 94 94 90 82 81 75 71 60 60 61 57 59 60 60 66 65 65 69 70 70 80 88 93 100 110 111 113 116 115 118 119 124 117 119 117 117 115 110 116 116 114 110 113 104 106 97 77 65 66 64 57 53 56 44 60 80 90 97 103 114 96 90 84 73 82 89 94 86 88 95 109 124 138 149 161 176 183 182 191 188 173 160 163 157 154 138 133 122 117 116 112 97 93 90 82 79 73 67 64 62 57 60 59 58 61 62 64 64 63 68 69 68 76 82 87 94 100 106 106 109 109 110 113 113 111 112 111 112 109 110 110 121 117 113 115 115 118 105 96 78 76 69 62 59 54 52 52 67 83 94 99 109 92 86 78 84 86 86 79 86 95 107 116 133 149 164 180 181 186 196 196 178 164 160 164 153 147 136 130 122 114 114 111 103 92 85 79 74 67 61 62 64 61 62 62 60 63 67 63 65 67 68 68 71 78 81 88 91 91 94 101 102 97 100 101 102 107 106 108 112 112 104 110 114 113 107 112 110 120 121 102 90 77 76 65 66 53 59 52 58 77 87 97 103 89 86 84 85 85 81 82 104 108 115 121 149 165 185 197 200 198 206 187 172 162 160 163 148 145 143 133 119 113 110 108 102 89 80 74 68 64 58 59 60 62 65 64 68 67 70 69 69 72 72 71 77 82 81 90 87 88 89 93 94 90 94 96 97 96 102 101 108 113 102 111 110 108 103 105 109 109 118 113 98 84 78 73 63 65 53 51 53 70 86 96 98 100 90 91 89 82 79 90 103 104 122 144 166 180 197 208 211 209 197 178 163 157 161 162 145 149 154 127 118 112 104 102 93 86 79 74 72 65 65 63 60 62 66 68 71 79 79 80 80 76 76 74 77 82 81 89 90 89 93 92 92 97 98 95 95 97 100 99 106 108 107 108 112 114 110 106 112 105 116 119 108 93 80 79 64 58 60 48 45 59 82 94 94 105 92 93 91 84 85 95 104 119 147 162 176 191 208 211 209 199 179 167 164 161 155 160 154 154 146 120 113 109 102 95 90 92 82 82 81 74 68 68 63 62 69 69 73 82 87 91 95 93 92 92 89 84 85 93 90 91 93 93 91 99 102 102 104 106 107 103 105 107 104 104 109 114 114 114 109 111 113 119 114 99 86 77 80 61 60 57 46 44 68 93 99 107 93 89 95 90 95 110 119 136 149 168 183 203 212 216 205 178 167 179 174 153 151 157 147 142 130 119 111 103 101 102 96 95 89 86 86 84 76 74 69 70 71 76 76 83 89 94 99 101 106 108 101 101 100 98 103 101 97 94 93 106 107 108 116 113 114 114 110 108 109 103 109 113 112 113 108 109 108 116 111 101 89 81 77 78 64 60 53 47 54 79 96 99 94 102 107 101 110 124 137 155 158 174 193 207 223 224 191 179 179 185 165 151 152 152 141 121 123 117 108 106 103 107 103 102 96 89 87 87 79 79 74 73 76 77 79 84 90 96 99 106 105 107 106 107 111 109 113 111 109 107 108 111 113 114 120 119 125 125 121 121 114 116 115 117 114 109 108 108 112 105 108 104 93 81 79 79 77 64 57 50 60 73 83 99 97 101 104 107 122 130 152 166 170 191 207 225 243 214 196 197 191 177 161 158 154 149 136 121 125 122 111 111 109 109 107 104 100 90 91 89 88 81 80 79 80 79 82 87 91 98 99 108 108 108 110 114 114 117 118 115 112 116 117 118 119 122 121 127 128 131 133 131 123 121 123 126 119 118 112 108 111 108 103 99 102 78 78 79 79 72 68 58 57 80 80 107 102 100 108 122 125 145 171 183 192 217 226 235 227 205 200 200 188 174 167 150 151 137 133 129 126 120 115 114 118 112 106 102 99 95 92 94 91 88 86 84 84 84 87 90 92 98 98 109 110 109 110 113 116 119 119 119 115 119 121 119 121 125 125 128 130 133 135 138 130 128 129 134 126 123 118 111 108 114 109 99 105 85 74 87 74 78 71 69 61 78 91 104 109 103 113 128 140 170 182 193 212 226 219 229 220 206 199 193 182 177 166 148 145 136 136 125 118 122 120 122 119 112 103 101 101 101 94 93 93 91 90 89 90 88 90 92 94 97 102 105 106 107 111 109 113 119 124 123 121 121 122 120 124 126 128 128 131 133 136 140 139 134 138 143 137 126 123 114 110 112 110 99 102 99 79 90 91 86 77 70 68 81 93 108 114 110 125 138 163 186 197 208 225 219 217 234 220 204 192 187 176 165 161 147 142 133 126 116 118 120 120 115 111 110 104 107 102 101 98 93 96 92 93 93 91 89 92 94 95 99 101 103 101 106 107 110 111 114 123 123 124 124 125 125 126 127 129 126 128 130 136 137 141 144 141 145 151 131 127 120 112 113 109 103 100 107 99 92 102 105 83 75 70 87 91 121 113 117 133 152 175 202 217 224 229 222 229 230 215 202 191 178 166 160 149 140 132 122 121 117 115 116 111 102 103 104 103 103 99 98 96 95 94 91 92 90 90 89 91 96 96 97 100 101 101 104 106 106 107 110 115 120 121 122 124 125 124 126 126 125 123 128 131 136 142 145 146 141 149 141 130 126 116 109 108 110 107 112 114 102 104 112 101 80 78 84 88 115 118 125 141 163 194 219 229 233 235 228 231 217 200 189 175 164 153 143 136 127 121 116 114 111 111 106 103 99 99 100 99 100 99 95 98 94 93 94 91 92 90 88 91 95 96 94 97 97 101 99 102 103 103 105 108 111 113 116 118 119 119 121 124 122 119 124 127 133 136 142 144 145 145 148 133 126 132 114 113 110 113 116 119 118 108 116 112 88 81 83 81 116 111 134 151 178 207 227 237 245 246 234 221 206 189 171 162 149 138 129 124 118 112 109 108 107 103 102 101 100 102 97 101 101 100 98 103 99 96 97 95 93 90 90 93 96 97 96 96 95 100 99 99 100 98 103 105 109 114 121 121 120 119 122 122 121 117 126 125 127 128 131 137 148 146 144 135 125 133 128 116 115 125 118 120 129 118 123 119 94 83 83 83 114 110 144 160 188 219 238 245 249 250 233 209 189 176 161 149 142 130 119 116 113 111 113 117 115 113 110 111 107 110 109 107 108 105 102 106 102 101 100 100 95 94 90 93 94 96 98 95 94 95 95 98 103 101 109 108 113 118 120 121 123 124 125 124 125 123 128 131 126 124 124 121 139 151 140 135 127 128 130 123 120 129 137 126 127 124 127 125 101 79 87 86 115 114 150 171 199 220 242 251 249 248 221 192 174 164 148 143 128 118 110 117 121 123 128 126 126 126 127 132 129 129 131 129 129 119 113 113 109 108 107 105 98 97 97 94 99 98 98 95 92 95 99 104 108 109 113 115 117 121 120 121 123 123 125 124 126 129 132 135 132 127 126 123 121 137 143 131 126 126 134 131 127 133 141 142 127 131 127 126 113 89 82 88 112 123 156 177 205 219 246 254 246 239 203 176 164 152 142 132 115 111 110 118 123 127 133 134 138 138 139 138 142 139 139 135 137 135 131 127 124 122 118 114 108 106 105 105 102 102 100 101 100 103 108 115 116 118 120 122 120 121 124 125 124 127 128 126 128 130 136 135 134 132 131 130 125 128 132 132 129 121 131 137 136 142 144 148 136 129 133 119 123 101 80 84 109 121 157 180 199 223 245 255 240 225 189 161 150 149 136 124 111 112 111 119 123 130 141 138 142 144 142 141 145 141 140 138 142 143 143 139 136 136 134 130 121 119 115 114 112 110 112 113 114 116 120 124 126 126 127 127 127 129 130 132 129 131 132 129 131 133 135 137 134 132 133 132 136 131 128 126 136 130 130 136 140 146 158 152 145 130 134 126 116 107 82 83 108 117 147 175 201 226 244 253 238 214 177 157 149 141 129 116 106 105 111 117 117 119 131 134 142 147 146 147 148 148 142 141 144 144 144 143 144 140 140 137 138 130 127 129 126 126 123 127 126 129 134 136 136 133 137 137 137 138 138 138 133 135 136 132 133 133 135 138 134 134 133 137 138 145 140 138 131 133 135 141 145 148 162 164 143 132 132 128 119 110 89 81 115 119 146 173 200 231 240 253 236 196 170 150 151 141 132 117 114 114 118 121 115 118 127 128 134 141 146 145 147 147 149 145 145 146 143 147 147 149 150 145 142 142 140 144 142 140 136 135 135 138 142 144 144 145 148 151 151 148 149 147 143 142 139 138 135 136 136 138 133 134 131 132 135 140 143 154 143 134 135 144 140 156 165 174 150 130 133 130 116 122 93 80 112 124 141 169 199 229 241 242 218 184 161 149 152 149 133 120 116 123 124 121 118 121 125 129 133 138 140 149 149 152 152 149 150 151 149 150 149 150 155 155 153 148 153 153 153 149 144 143 142 148 151 156 157 159 162 163 161 159 159 155 150 152 147 142 144 147 148 150 151 145 138 134 136 135 140 149 158 142 141 149 141 145 168 176 154 136 133 132 117 121 97 83 110 126 139 167 193 229 233 226 210 170 164 157 158 151 136 120 122 127 129 125 130 134 141 145 145 147 155 158 161 166 168 165 166 164 163 164 164 165 166 167 165 162 166 165 162 157 152 151 152 158 162 166 166 166 169 167 165 165 165 164 163 160 156 152 146 152 157 153 160 155 152 142 142 154 144 145 156 153 150 153 153 152 164 167 157 139 135 130 115 117 95 83 105 110 131 160 182 223 228 225 194 168 169 163 164 152 135 121 133 140 138 143 149 153 159 163 168 169 175 173 172 171 171 177 183 179 177 178 175 175 176 180 173 175 177 179 176 174 163 160 162 166 171 175 177 175 177 178 175 175 170 169 169 172 166 162 156 158 156 166 164 160 158 145 142 145 147 143 149 154 154 152 158 156 167 161 155 134 134 132 111 111 89 88 98 103 117 156 176 212 227 218 184 175 170 163 166 151 134 129 140 150 149 155 156 159 159 164 173 172 185 191 187 190 192 194 197 192 193 191 195 194 194 199 192 191 191 187 180 182 172 168 170 175 176 184 185 190 193 193 191 189 191 187 188 189 182 176 171 163 165 171 172 165 159 156 151 149 151 149 153 160 155 152 156 158 162 162 145 134 128 128 111 107 91 92 108 107 117 159 183 203 214 209 175 171 168 160 163 147 133 130 150 162 165 168 171 178 186 193 195 198 201 202 200 203 201 204 209 206 211 210 206 210 214 211 205 211 202 201 192 189 183 177 178 181 183 186 193 193 199 199 194 194 199 201 196 193 190 188 179 175 181 178 177 173 170 165 159 156 161 159 152 162 159 159 169 162 158 151 138 137 121 116 105 96 83 91 110 111 117 140 162 184 201 192 164 164 159 164 158 147 139 142 166 169 174 182 191 200 208 214 211 209 212 211 211 213 217 223 220 223 226 221 220 222 235 226 218 218 218 211 204 196 186 184 186 190 191 190 200 204 203 205 206 206 205 210 207 207 202 200 197 192 194 192 187 185 176 171 162 154 155 155 156 156 154 156 176 166 164 158 138 130 106 106 106 90 79 91 103 106 109 118 136 170 190 173 161 156 165 163 157 144 141 149 166 168 179 179 197 198 197 203 211 213 227 232 239 239 237 245 245 232 236 230 230 234 241 233 230 215 216 212 204 200 194 191 194 200 203 202 213 224 220 215 217 217 217 218 214 213 207 205 206 197 195 192 188 186 170 161 156 154 153 157 156 152 158 163 177 164 159 163 143 120 106 99 104 90 79 86 96 103 103 105 125 157 176 159 153 159 175 162 154 144 141 147 164 174 174 179 189 195 194 205 222 221 230 231 241 237 239 241 241 231 233 230 231 241 246 241 229 223 216 212 205 202 200 198 192 205 200 208 213 222 213 220 219 220 216 221 221 229 207 197 201 189 190 187 182 171 171 164 148 150 151 158 166 158 167 174 181 164 162 157 141 111 99 105 100 90 79 81 89 98 100 104 130 143 161 144 137 154 162 152 146 139 137 141 160 170 168 175 184 188 191 203 215 221 231 233 239 239 237 237 231 229 223 223 224 234 239 230 234 229 219 208 198 197 196 192 194 199 205 212 214 217 213 202 212 219 217 215 212 214 208 201 194 191 189 175 175 169 163 171 164 154 148 153 164 160 160 176 185 168 166 149 125 104 94 98 96 91 76 89 85 95 99 93 119 137 151 136 135 151 153 136 129 133 128 130 151 155 162 182 178 184 188 192 215 220 230 233 236 226 228 227 223 217 211 225 219 234 234 226 222 218 212 202 191 190 186 184 187 195 202 214 215 214 215 206 212 208 207 207 212 205 196 193 182 175 173 167 163 166 171 166 168 162 153 149 153 159 153 163 182 168 170 131 108 103 102 90 86 102 91 99 84 91 89 81 91 128 138 122 130 148 149 126 117 119 116 125 135 141 152 163 172 175 182 195 209 221 219 230 233 224 222 215 216 216 206 223 228 237 231 219 205 197 199 186 183 179 178 174 172 179 184 200 206 208 213 206 198 203 199 208 209 203 197 198 186 179 175 163 166 154 163 158 156 144 141 147 146 146 150 166 180 169 169 133 108 106 109 95 90 103 103 100 84 86 87 88 91 119 113 108 124 134 140 117 113 102 105 106 118 127 140 150 164 174 195 211 210 217 235 235 237 227 219 211 216 212 198 217 220 226 206 193 188 184 180 166 167 170 169 165 157 166 172 181 197 203 215 203 187 197 201 204 206 208 210 206 201 193 176 161 156 165 149 157 143 135 132 148 150 150 150 162 184 177 166 141 108 103 103 105 100 105 109 109 86 103 101 98 97 111 96 98 120 123 128 95 99 93 94 95 102 108 119 137 147 162 184 196 200 209 228 227 224 227 221 220 221 209 201 211 219 210 194 181 177 169 164 155 161 164 163 162 154 155 165 163 180 185 197 183 170 177 184 201 194 202 215 211 203 187 175 174 159 158 146 145 140 146 145 156 157 153 151 159 179 176 178 147 118 109 106 121 122 105 123 116 92 109 101 111 106 111 94 97 119 116 114 89 97 87 90 101 95 107 117 133 137 151 160 181 190 198 210 207 214 216 221 211 200 192 192 191 196 192 180 179 176 162 159 157 164 160 161 158 147 151 157 152 160 164 156 149 146 164 169 190 184 184 189 190 184 173 159 148 144 140 145 140 141 142 146 158 159 146 150 161 175 172 173 149 133 106 102 124 127 112 122 113 90 106 95 108 132 132 106 97 100 115 103 82 95 85 83 90 99 101 115 135 117 130 136 156 162 170 178 176 173 186 185 176 169 163 167 167 177 170 166 165 148 146 149 161 158 154 146 139 126 122 135 135 129 115 120 120 129 147 149 163 170 171 173 173 174 159 153 142 146 138 143 143 139 138 143 160 165 154 157 169 177 163 164 143 131 91 97 113 133 113 130 111 85 112 96 119 141 147 119 91 86 105 94 79 92 82 85 92 85 86 100 114 102 104 116 124 126 135 140 145 146 156 152 146 123 129 135 134 129 135 123 114 114 125 127 140 133 139 134 122 102 104 117 111 109 94 99 99 111 123 130 150 156 163 157 167 167 151 146 139 133 139 141 138 145 134 131 154 162 168 166 170 175 162 156 137 125 93 106 108 134 117 132 109 89 107 113 137 146 148 125 92 77 96 93 70 80 79 81 90 74 79 87 89 84 83 86 92 89 98 109 116 120 129 121 119 109 111 106 106 111 105 100 90 89 104 117 119 119 121 121 104 93 86 93 89 93 81 75 86 82 98 115 124 134 146 140 144 150 142 138 132 126 124 133 130 136 126 127 148 160 162 168 165 171 162 146 135 127 115 111 112 147 125 131 113 83 97 111 130 149 147 114 90 80 88 77 74 76 83 79 79 68 71 72 75 67 71 75 74 68 79 93 99 96 92 92 92 87 83 87 95 96 83 78 78 82 92 99 100 100 108 96 87 80 77 72 76 72 74 61 68 60 66 84 98 109 112 117 118 119 116 123 122 122 117 124 124 122 118 123 139 147 156 165 165 171 160 152 145 149 138 127 129 148 130 128 116 80 88 108 120 142 138 97 79 76 92 83 70 72 83 75 68 66 67 66 70 61 68 70 70 66 69 71 73 67 68 76 78 74 66 72 78 80 72 60 68 64 72 74 76 91 93 89 73 70 69 65 64 54 55 55 55 49 45 52 71 88 88 96 103 109 108 110 113 119 116 117 123 115 113 122 123 139 147 160 165 172 159 159 156 161 143 137 144 135 138 125 122 81 74 100 109 134 122 88 67 54 94 95 75 73 80 69 61 60 60 59 63 58 56 62 63 61 63 62 62 61 65 66 67 56 54 59 64 62 57 44 54 52 47 62 69 82 85 77 69 57 54 61 52 49 41 48 48 47 36 44 49 60 67 71 73 87 88 94 95 96 99 102 104 102 104 105 116 139 147 157 154 171 164 161 166 155 142 134 145 130 133 125 120 92 64 93 105 128 120 98 71 44 96 107 82 79 83 73 62 62 61 57 59 56 50 53 57 57 58 55 57 59 56 53 49 40 39 43 46 40 48 34 34 39 43 57 65 78 79 73 64 52 45 53 45 45 39 41 51 45 40 45 44 51 53 55 57 62 70 76 74 69 73 80 82 93 99 98 121 140 140 149 153 155 159 166 157 152 139 135 135 135 128 125 108 99 60 84 109 118 115 106 86 65 93 118 86 79 82 70 62 59 60 58 53 44 47 48 49 52 52 49 50 46 42 40 37 31 26 27 27 27 33 25 35 40 47 54 60 69 73 71 65 52 46 48 49 43 41 37 44 39 37 33 37 42 50 39 46 47 54 55 55 53 53 62 66 79 88 98 119 139 140 145 153 151 154 152 153 144 141 139 136 141 125 119 105 90 71 76 111 107 111 113 105 94 95 124 93 78 81 74 66 58 57 61 59 52 50 51 48 47 44 36 37 34 34 34 31 29 23 18 23 23 25 31 37 37 44 49 56 62 69 67 67 55 49 50 59 56 51 47 42 38 34 34 35 37 39 39 30 31 40 43 47 47 51 57 61 75 86 101 126 135 137 146 150 151 150 134 148 147 142 136 138 145 119 111 105 77 63 82 103 99 97 103 115 96 111 125 99 80 84 82 73 64 59 57 60 55 54 48 45 46 38 34 37 35 34 34 31 27 23 22 28 30 27 33 38 41 47 49 59 59 63 70 69 61 52 53 67 70 67 57 54 45 45 43 40 47 43 39 41 35 38 41 43 46 50 56 65 76 94 109 128 133 143 149 149 157 153 135 146 149 139 128 131 142 111 103 104 78 68 73 84 89 90 103 118 109 113 119 99 89 85 89 79 73 67 62 65 64 58 58 49 47 41 39 42 39 36 37 35 29 29 29 37 35 34 39 49 50 54 56 59 62 61 72 76 68 56 61 73 77 83 72 65 58 55 48 48 53 51 49 46 50 45 49 49 54 53 62 77 82 104 115 131 138 144 143 151 167 163 143 139 141 137 128 134 139 107 104 104 92 70 81 83 79 93 105 108 115 111 127 99 93 90 96 89 82 80 73 74 71 70 63 58 51 50 50 51 51 47 42 39 39 37 37 42 46 47 52 52 55 58 60 64 74 75 71 76 72 66 73 77 88 87 86 75 70 67 61 56 60 59 63 63 56 55 54 56 59 64 71 84 94 112 125 132 138 144 145 164 168 150 137 133 131 132 133 136 143 108 107 102 103 73 85 66 68 91 107 108 117 112 123 97 92 92 102 95 90 88 81 78 75 74 67 66 61 62 65 62 59 56 48 51 52 48 49 47 55 59 56 54 59 61 62 70 84 87 84 82 73 73 83 90 93 98 97 87 82 82 79 74 72 74 77 77 74 69 69 73 74 74 76 87 99 110 128 139 141 147 153 163 181 151 135 140 138 130 134 133 143 113 104 99 108 86 82 77 56 75 97 107 112 109 106 94 96 102 106 104 95 92 87 81 81 78 75 73 71 73 77 73 72 68 64 68 74 67 63 66 72 70 61 60 64 73 74 76 94 103 104 98 85 82 93 102 112 116 114 111 98 95 92 98 87 88 89 96 92 89 87 86 85 89 95 100 109 116 133 142 145 143 156 161 173 153 140 139 141 129 135 134 140 110 98 104 112 98 86 87 58 72 89 100 109 111 95 95 100 105 111 108 103 98 92 89 88 83 85 79 79 84 86 84 85 86 88 91 91 93 88 87 89 82 70 71 84 98 99 103 115 127 128 120 115 108 112 126 136 128 121 126 119 117 114 117 110 108 107 113 109 105 105 98 95 98 101 109 110 126 136 145 148 145 156 162 160 147 135 133 138 133 139 141 135 109 104 103 118 106 81 92 62 64 90 89 102 112 94 96 105 107 114 110 109 102 102 98 95 92 93 89 88 94 96 96 98 105 102 103 107 113 114 111 106 96 88 101 120 130 128 126 137 148 148 151 148 144 146 151 146 143 138 138 138 135 137 132 129 128 123 125 129 120 123 115 113 111 113 125 126 138 144 147 149 149 154 160 149 135 131 128 137 133 150 138 124 105 99 98 117 113 83 92 65 66 96 94 94 99 106 102 103 112 113 114 112 108 105 104 103 102 102 103 106 108 111 115 116 121 121 117 120 127 130 136 124 128 131 137 148 146 148 153 168 176 184 174 171 174 181 175 170 160 154 154 149 142 147 149 141 141 136 135 134 128 137 125 123 120 123 133 131 138 147 152 149 158 154 158 150 138 134 130 135 139 151 131 123 104 98 90 121 114 96 97 84 60 89 108 89 84 98 107 110 117 121 117 117 111 108 111 110 113 114 118 120 122 126 131 131 136 143 138 137 139 141 146 146 149 149 150 156 164 168 180 195 193 194 195 198 198 201 204 198 195 182 171 163 156 160 158 152 152 141 138 139 137 139 134 126 123 126 128 134 143 150 156 151 160 154 155 148 140 129 133 136 147 140 129 124 101 96 95 130 118 107 106 105 64 74 105 96 93 87 94 121 121 123 124 120 114 112 116 114 119 119 125 124 135 142 143 145 151 149 148 153 153 156 153 152 155 156 161 177 183 189 199 209 208 203 208 210 202 204 212 210 207 197 182 177 167 162 162 163 161 152 146 145 141 137 134 130 122 126 133 136 145 152 157 153 160 158 151 147 136 125 134 146 145 134 133 124 104 99 100 125 121 110 108 110 79 74 94 88 102 97 87 112 129 123 126 120 113 113 121 121 122 127 136 134 142 143 147 148 150 142 137 140 149 157 156 150 148 149 154 169 190 198 203 208 209 208 210 216 206 205 212 214 209 198 193 184 172 166 164 165 163 158 151 139 140 134 129 128 127 136 140 142 148 151 155 155 169 157 153 141 130 130 145 151 141 134 136 123 107 104 103 121 113 112 117 112 92 59 80 78 84 102 91 100 121 124 127 120 115 115 122 126 128 129 137 136 138 138 144 145 142 130 127 136 142 148 148 148 144 149 163 167 184 200 203 203 201 196 195 207 202 201 211 211 204 198 193 183 171 166 161 158 159 154 145 135 135 132 132 131 134 139 145 149 150 148 155 158 172 157 148 141 136 137 147 145 142 139 141 120 103 113 104 124 115 112 123 116 99 77 66 77 72 88 92 109 113 120 122 118 119 116 121 122 131 133 133 131 134 134 137 135 133 122 122 133 134 135 139 131 137 138 148 155 162 175 182 187 181 176 168 179 189 189 194 203 199 195 184 169 161 151 151 150 148 144 143 135 133 130 136 135 133 138 149 152 152 151 151 160 173 152 137 136 140 136 136 132 144 140 139 119 106 111 107 126 123 114 121 122 107 83 67 67 68 81 92 111 113 116 121 119 115 115 119 120 121 127 125 127 128 126 125 122 121 118 119 115 116 121 120 114 121 128 132 136 137 144 157 162 158 161 158 158 162 170 174 175 178 178 167 157 151 142 141 139 144 141 144 142 135 130 132 133 133 138 150 153 150 150 150 156 167 152 128 133 147 131 124 126 129 138 136 122 107 111 102 126 128 118 117 122 116 102 71 60 64 77 93 107 107 110 118 117 112 112 116 111 111 111 115 119 116 115 114 112 110 103 105 101 101 100 104 105 109 116 124 124 125 128 133 133 132 138 137 137 136 139 144 149 153 158 151 146 146 138 133 137 133 137 139 141 133 126 125 127 125 136 144 154 149 146 151 153 157 145 127 123 136 120 113 130 133 138 140 122 107 112 102 135 132 121 109 115 112 124 99 69 67 75 93 106 110 105 111 112 109 105 102 98 97 99 103 105 103 108 108 103 98 96 92 86 91 89 87 95 96 98 104 107 115 114 113 115 111 109 111 107 106 114 114 120 128 132 143 146 146 142 137 136 130 132 129 129 122 116 117 117 120 131 140 148 144 145 151 158 146 140 135 120 131 116 121 142 138 141 138 124 113 115 107 138 133 125 110 111 108 123 126 90 85 85 91 111 117 109 112 108 107 101 92 86 85 89 93 95 100 103 102 97 95 94 90 88 88 84 87 84 85 83 85 94 96 91 89 95 90 92 95 99 97 99 99 98 109 116 123 131 134 138 139 133 128 120 121 111 108 104 109 110 121 131 133 138 142 147 150 158 147 144 139 130 128 116 130 146 136 140 140 124 123 117 115 132 133 119 111 109 98 117 121 95 97 100 101 120 124 112 110 103 100 95 85 87 82 80 88 90 97 101 97 102 106 103 100 102 97 94 103 99 84 80 78 84 93 94 89 93 92 95 97 109 106 102 99 93 90 95 103 111 112 121 128 126 115 108 104 100 94 96 100 106 116 125 127 127 136 142 148 161 143 148 144 142 131 118 140 146 136 136 138 126 126 123 116 132 126 119 110 103 93 108 117 89 88 99 103 124 120 112 108 102 93 92 86 86 84 80 80 92 94 104 109 117 120 119 112 115 104 107 114 108 101 95 89 87 108 108 112 111 109 110 113 115 112 113 107 99 89 92 93 98 105 113 115 119 107 98 94 95 98 92 95 100 111 122 122 120 129 139 148 163 138 152 149 151 137 125 141 145 136 133 134 129 126 131 121 135 125 127 110 101 97 104 117 96 74 86 95 116 111 106 106 103 91 90 89 84 86 84 84 88 95 106 121 134 133 140 130 127 119 112 116 115 110 104 102 95 109 114 122 127 126 121 115 116 117 115 115 115 103 102 105 108 111 111 116 117 110 102 102 107 102 98 96 98 110 112 117 116 122 138 154 163 146 166 155 153 135 125 137 145 136 134 134 133 130 128 130 132 134 129 107 104 105 100 113 102 70 77 80 102 107 104 104 102 88 87 88 85 89 91 96 101 104 110 118 134 142 150 148 139 126 119 129 127 126 124 113 103 106 115 130 135 133 126 119 122 126 118 118 126 129 132 135 136 124 123 123 121 123 112 116 116 110 99 104 99 107 105 114 113 115 136 159 159 156 171 158 144 134 125 134 147 137 131 130 133 136 125 130 138 135 124 111 106 105 98 108 103 76 70 73 93 104 100 106 100 86 86 85 84 88 90 102 108 110 121 124 130 136 145 150 145 137 137 142 151 151 146 136 126 131 135 133 130 132 126 121 123 123 121 127 138 143 152 148 149 147 134 132 129 123 117 116 119 120 113 108 104 105 108 111 112 119 133 156 153 158 164 155 148 129 122 134 140 140 127 122 135 140 125 129 136 128 123 117 112 101 97 103 104 81 65 68 86 105 100 102 98 87 83 80 82 86 86 97 108 113 126 130 131 140 148 144 149 147 157 158 167 174 161 148 131 129 134 126 124 120 118 115 114 116 123 136 145 147 152 153 152 156 147 139 131 118 112 116 114 119 111 114 106 108 112 110 110 119 129 149 154 161 158 152 145 118 119 130 136 140 127 111 133 141 130 122 124 124 125 120 113 97 99 100 108 90 71 66 78 100 101 102 97 87 76 78 80 80 86 91 104 110 121 125 127 132 138 144 147 152 164 165 160 163 159 145 138 130 129 127 126 124 122 117 113 112 116 125 140 153 154 154 151 149 147 136 126 118 112 110 111 114 114 112 111 108 111 108 110 117 125 143 147 162 150 152 138 112 112 130 131 141 123 112 127 141 139 124 126 122 125 121 108 99 101 106 109 103 79 68 69 95 97 92 94 81 76 74 71 74 76 81 92 102 113 110 113 105 109 117 120 123 132 139 140 136 139 133 128 127 124 130 128 133 136 142 140 128 132 138 141 149 151 146 141 136 126 126 124 117 107 99 103 103 104 98 99 106 103 106 108 121 125 143 153 159 147 153 139 117 116 128 131 133 126 108 121 136 143 134 129 125 124 114 111 98 112 107 105 108 92 75 75 88 95 86 89 86 76 70 68 65 63 68 75 82 89 81 83 76 71 78 73 74 77 86 91 86 90 87 87 91 91 95 94 98 113 117 124 115 110 115 120 120 122 119 114 105 104 103 99 88 76 73 78 84 95 93 94 105 109 112 109 125 124 145 155 151 146 153 136 120 123 126 129 124 129 114 116 135 144 143 130 125 118 113 105 111 116 106 101 106 105 90 75 91 95 82 84 87 76 71 68 60 55 54 62 66 69 65 71 65 56 52 52 52 59 64 66 61 67 62 67 64 70 69 66 63 75 79 87 85 85 93 93 94 94 88 86 87 80 76 74 65 63 62 72 78 84 92 98 104 110 112 112 118 130 147 151 147 146 154 134 122 118 129 123 128 124 123 113 133 145 142 124 119 112 105 110 122 117 105 104 102 115 99 87 90 101 87 79 84 73 73 71 63 56 53 56 57 62 59 60 59 52 46 48 49 56 60 60 62 60 58 60 56 60 67 66 68 70 71 75 75 71 79 77 76 67 60 59 61 63 64 68 73 70 69 79 80 82 91 99 104 111 113 115 120 138 148 149 144 150 150 134 122 120 128 119 127 128 124 112 122 141 146 118 111 106 111 122 126 118 109 103 101 117 113 99 91 98 86 78 76 74 72 69 63 57 54 52 56 61 58 55 51 51 52 58 63 59 60 64 70 68 65 70 67 71 72 67 76 74 72 72 68 70 70 72 69 59 58 56 61 67 69 71 77 76 84 78 86 92 94 101 99 108 116 113 124 142 147 149 143 154 145 134 121 119 117 118 124 131 127 115 114 134 140 115 110 108 119 131 130 113 104 99 101 121 114 101 97 99 88 82 74 77 71 71 65 59 56 50 54 59 63 62 55 56 62 68 70 70 71 76 84 84 84 85 86 84 86 82 88 86 88 88 93 89 83 85 83 81 76 69 73 81 83 85 88 89 99 91 95 96 94 102 104 107 120 113 132 149 147 145 149 153 138 134 117 118 111 116 128 123 126 116 106 123 137 113 112 122 127 135 123 107 103 103 105 116 121 106 101 104 90 82 81 82 77 70 72 62 57 51 52 56 60 62 60 57 61 69 72 77 78 85 89 92 95 94 93 95 97 99 103 107 107 107 109 110 104 102 102 94 88 80 82 90 95 92 92 96 100 96 98 97 97 103 107 112 124 118 142 148 144 146 151 149 135 127 120 117 106 112 128 115 124 126 114 115 127 117 127 137 132 134 124 110 111 120 116 119 123 118 104 104 93 85 87 83 76 62 74 67 57 55 52 53 57 57 58 51 49 57 67 65 68 73 77 85 83 88 88 93 101 105 107 109 113 109 110 112 110 111 106 100 90 83 88 93 99 97 96 96 95 93 96 98 99 101 110 111 130 128 146 153 138 145 151 137 134 122 118 119 114 111 116 115 122 125 121 117 119 132 142 140 130 134 131 122 116 129 123 115 116 127 114 106 100 89 93 84 79 59 67 70 66 61 56 49 51 54 54 47 50 50 48 44 48 62 66 68 71 75 79 83 84 89 91 95 100 99 100 101 99 97 96 88 84 85 89 96 101 98 98 96 91 93 99 98 101 102 109 122 135 130 145 144 141 141 142 134 125 115 110 120 124 110 110 108 122 121 120 122 119 142 145 138 129 137 135 125 117 122 124 113 108 125 125 104 94 100 102 88 76 65 59 66 69 66 63 49 49 46 48 48 50 46 44 40 35 39 44 47 48 51 49 60 60 66 69 78 83 82 84 83 79 74 77 76 78 78 84 94 94 93 94 95 96 100 100 98 97 101 114 124 132 133 139 140 142 136 130 130 119 110 105 114 130 114 108 99 110 118 110 116 117 148 141 140 131 134 136 128 117 121 125 121 110 117 123 106 94 103 112 97 77 63 65 61 69 71 67 54 52 46 42 41 40 41 43 39 41 35 32 33 32 32 40 43 44 47 46 49 51 55 57 59 57 58 59 56 60 67 75 84 84 84 85 95 100 101 101 97 96 103 114 129 131 128 136 139 137 129 128 121 108 105 105 109 126 123 107 101 103 102 106 108 113 144 145 141 127 127 137 128 117 120 131 126 107 109 118 115 105 104 122 106 84 68 67 69 70 72 64 60 54 52 41 46 48 42 42 35 32 25 23 21 20 22 24 24 28 26 25 23 24 26 29 32 32 38 35 36 42 59 64 73 75 80 81 91 95 96 97 98 91 102 117 132 126 126 140 146 127 118 127 114 100 100 105 108 117 119 113 104 102 97 93 101 106 142 145 139 121 121 138 128 121 124 131 124 101 104 118 122 116 117 122 117 92 74 73 69 71 75 69 70 62 58 51 49 52 51 43 35 29 19 19 18 14 14 12 9 10 10 6 3 6 7 10 12 16 16 18 22 27 46 59 66 71 73 81 90 95 98 93 100 92 97 114 126 125 130 141 143 117 112 128 104 96 96 105 111 113 112 114 113 106 95 92 93 97 145 143 138 118 115 136 131 122 122 131 115 94 99 121 126 124 130 136 118 100 80 77 74 72 75 69 69 67 67 61 58 56 56 51 42 32 28 20 20 18 13 8 4 1 0 0 2 1 2 3 4 4 6 10 18 28 39 55 64 68 73 82 93 96 98 95 97 95 101 113 114 125 128 136 135 119 105 118 100 90 96 106 110 107 105 111 115 110 93 88 91 92 147 140 134 117 112 133 135 117 115 123 112 91 98 119 126 125 136 146 126 106 89 83 88 77 71 70 69 66 63 69 67 62 60 59 59 46 39 25 25 19 17 11 9 4 3 0 1 2 5 5 5 2 6 13 20 30 38 53 66 78 82 91 99 95 102 93 89 96 97 100 114 127 122 130 122 117 99 104 89 93 96 107 101 100 101 107 112 112 98 88 90 87 144 139 128 112 113 130 132 113 109 117 104 91 96 116 121 122 135 138 133 113 91 92 94 92 77 73 74 69 70 76 77 77 76 69 69 58 52 41 36 25 23 18 18 15 13 9 7 6 2 5 8 11 16 22 27 42 51 64 76 86 95 98 102 96 94 93 92 95 91 97 111 131 115 119 122 109 89 86 82 84 95 102 98 96 91 104 112 108 101 98 96 90 144 138 123 111 111 127 130 110 107 107 98 86 99 106 104 125 121 128 125 115 101 101 103 97 87 83 79 79 77 81 87 91 87 85 81 76 71 58 54 45 40 35 28 29 26 21 18 20 22 27 26 27 30 29 39 55 62 71 77 90 99 101 102 91 91 95 90 88 92 94 106 124 112 115 110 106 80 76 77 84 88 101 104 93 96 105 113 109 106 103 101 101 141 132 118 111 109 129 130 106 102 104 96 87 95 90 98 125 108 115 118 106 106 109 112 108 96 95 93 87 87 86 94 103 103 98 100 95 88 84 74 69 57 56 48 45 43 42 37 41 45 49 47 43 41 44 53 66 76 87 89 95 101 103 90 89 94 89 89 91 90 92 104 124 108 111 108 104 70 65 72 85 86 94 103 99 101 108 112 112 106 111 103 102 136 129 119 110 113 127 128 105 102 102 91 86 79 89 91 113 103 110 117 101 106 114 116 114 105 103 102 104 97 94 100 106 112 113 113 112 113 106 99 91 79 76 69 64 64 59 59 56 62 65 59 58 62 69 75 86 89 101 101 99 104 98 89 95 85 81 92 90 88 86 102 122 108 109 108 101 56 51 60 80 81 89 95 100 103 103 109 110 108 111 110 105 133 129 120 110 112 128 126 104 97 97 91 76 80 82 78 105 102 104 112 90 103 111 115 116 117 111 112 114 114 106 106 112 120 122 126 124 126 124 119 114 102 103 93 88 82 78 79 77 85 80 78 80 88 92 96 100 103 108 109 104 98 92 93 89 81 82 89 91 90 84 101 124 115 106 108 91 53 47 56 75 70 83 85 95 106 102 101 107 112 105 112 107 123 123 115 111 110 119 118 100 91 92 86 78 83 67 69 92 94 103 101 82 98 102 110 120 120 117 117 118 119 119 117 119 122 130 134 138 135 131 129 130 125 120 113 106 104 99 101 101 101 99 99 103 108 115 113 110 114 118 106 99 92 92 87 79 81 81 89 95 87 77 109 126 115 106 100 78 49 46 53 68 68 72 78 83 91 100 99 109 114 108 111 116 118 117 107 105 104 105 110 106 91 84 89 74 76 57 51 79 87 96 99 79 86 97 104 119 120 117 119 120 117 118 124 123 125 127 135 140 141 143 140 145 139 133 134 132 125 122 123 125 122 120 123 123 123 125 118 114 116 111 104 92 90 90 87 81 77 82 90 83 78 85 111 123 118 105 88 73 45 44 56 58 62 69 80 78 82 87 92 109 119 118 121 126 113 107 99 102 101 102 110 110 85 84 89 71 61 43 48 74 79 92 92 78 73 87 103 113 114 114 119 123 120 117 117 121 124 127 128 131 138 145 145 142 143 142 144 144 143 140 139 138 135 137 137 135 126 123 116 114 110 108 99 91 92 91 86 77 81 84 84 77 68 91 113 116 117 105 79 72 41 46 50 56 55 59 75 78 68 68 76 96 117 127 120 127 106 93 94 99 96 100 109 97 81 92 80 63 51 36 47 68 75 87 88 75 71 73 99 105 115 107 113 118 121 120 115 115 119 122 122 127 128 132 137 138 143 141 141 142 143 144 145 144 141 134 134 127 118 114 111 106 103 99 89 91 91 86 80 75 76 80 75 71 65 91 111 115 109 100 80 69 47 46 51 52 53 53 62 71 63 56 64 81 103 118 116 119 100 86 96 102 100 93 88 88 85 78 62 59 45 34 40 62 71 78 81 65 72 69 85 99 110 104 111 112 117 120 118 117 116 117 121 123 124 126 128 127 133 133 133 133 131 135 129 130 127 114 112 105 102 99 97 99 93 86 88 86 83 82 72 71 75 77 65 63 70 86 105 114 103 96 80 72 51 46 47 47 55 50 49 63 56 51 61 75 99 112 108 106 95 81 90 96 85 79 78 83 80 68 60 54 51 42 32 55 71 68 76 62 65 68 78 90 97 102 106 111 111 115 117 118 118 117 116 118 120 120 122 122 122 128 124 125 127 122 121 115 110 101 97 94 93 92 90 90 86 83 85 81 82 77 72 69 79 69 57 64 72 76 103 114 99 90 81 75 55 46 44 44 56 55 44 51 54 54 55 66 87 113 110 100 