P2
92
112
255
97 97 95 99 100 99 98 98 101 100 95 97 95 95 94 96 95 87 87 85 86 81 78 77 72 77 66 59 61 56 60 64 64 75 77 69 67 78 74 74 74 74 73 76 71 81 78 84 90 74 67 65 71 68 69 70 70 75 73 71 77 82 79 85 80 88 91 91 85 86 86 78 79 89 88 87 93 93 91 92 94 94 91 91 92 92 91 90 93 90 92 97 98 97 97 98 97 97 100 100 99 96 96 95 93 91 88 88 89 78 69 80 79 71 75 71 66 65 69 69 66 65 57 66 56 69 72 61 67 83 78 86 88 90 88 94 89 85 90 93 94 92 83 75 73 77 79 77 73 74 69 64 70 72 78 77 79 77 75 78 88 82 86 83 78 75 85 92 90 92 95 92 92 93 92 93 91 93 93 90 93 92 90 94 97 96 96 95 97 97 98 100 93 95 91 87 93 94 85 82 75 68 67 75 66 67 67 71 74 74 73 64 51 54 55 60 66 73 71 76 83 87 101 107 109 107 104 103 113 109 111 111 107 114 103 87 88 91 90 90 81 77 68 65 67 67 75 76 80 72 75 72 71 73 79 81 81 77 75 84 92 90 91 96 93 94 94 93 92 94 90 93 91 93 91 91 98 95 97 94 98 95 99 89 90 86 87 92 89 87 78 72 67 67 71 65 68 73 74 78 78 67 63 54 58 62 62 60 73 78 86 96 98 108 116 120 121 130 118 114 125 134 126 123 118 124 114 97 103 98 100 96 89 82 77 71 69 66 67 70 70 70 69 73 67 64 62 70 76 79 79 80 83 89 91 91 93 93 95 93 94 93 92 92 94 92 94 92 98 95 96 96 94 89 89 86 83 85 84 88 83 74 70 63 65 72 72 70 74 82 82 73 66 64 63 62 63 63 71 74 94 101 102 109 115 113 120 122 130 130 120 119 128 139 129 127 121 121 116 104 105 107 102 98 91 79 78 76 77 78 72 69 65 64 66 64 69 64 60 64 63 71 72 80 81 82 89 94 90 96 90 90 97 93 90 93 91 93 94 93 99 97 98 95 93 90 85 86 84 81 86 78 71 64 56 60 66 67 73 84 81 91 81 79 81 77 71 69 81 94 96 99 109 108 111 117 119 124 122 119 127 125 118 115 125 138 134 124 116 121 120 108 103 105 105 101 94 87 87 83 80 77 76 70 64 70 70 61 63 67 67 64 64 65 65 69 74 79 77 86 98 98 98 91 94 97 93 93 94 92 95 95 97 96 96 91 89 90 86 84 81 80 81 64 60 55 61 66 64 75 77 90 95 95 90 97 96 92 88 98 105 120 108 107 115 111 109 110 123 125 127 126 125 126 125 121 122 134 132 116 119 126 120 111 105 107 106 102 95 89 85 81 78 78 81 73 66 72 69 66 60 60 66 66 68 68 61 58 70 78 77 75 91 98 99 94 96 96 96 95 94 92 94 93 96 96 92 84 86 88 87 80 80 72 59 51 49 55 60 63 64 83 96 98 97 91 93 104 108 116 118 115 121 120 114 119 130 127 130 130 136 140 139 134 134 134 136 126 128 139 138 126 134 135 125 117 112 113 110 105 97 96 86 75 75 74 68 70 71 70 66 70 65 63 62 61 61 61 61 64 65 74 78 80 79 95 98 98 97 92 98 100 96 96 94 93 99 90 86 86 86 84 84 78 70 55 46 47 50 57 58 56 68 82 93 92 92 102 101 118 128 134 134 137 140 137 126 140 145 143 145 148 145 151 142 137 136 135 141 132 137 140 143 136 138 141 131 128 130 125 114 111 106 105 94 81 78 73 74 71 71 71 69 68 73 66 63 62 59 63 64 72 73 71 76 80 82 84 98 104 99 95 92 100 103 97 96 93 95 85 86 84 83 86 81 70 53 50 53 51 56 61 60 72 81 93 96 90 101 111 124 128 140 137 138 141 147 145 139 150 154 141 143 148 150 152 144 141 141 139 140 139 137 139 141 141 138 138 138 139 142 129 121 118 121 118 111 97 89 87 82 82 82 81 74 72 70 70 65 59 53 56 58 66 68 73 76 74 83 84 87 101 101 98 95 96 100 100 96 95 89 83 83 87 84 82 74 61 56 53 48 49 61 64 71 85 97 102 101 99 113 132 141 139 141 147 146 147 153 152 153 153 152 151 148 151 151 142 140 137 136 139 143 142 142 142 138 141 142 142 143 140 144 134 126 127 128 124 117 111 106 104 90 85 86 76 82 77 79 74 67 68 54 46 52 56 64 65 70 75 73 78 83 87 98 96 98 98 97 101 96 97 84 81 87 85 82 75 62 56 53 48 50 62 63 73 82 94 99 100 100 112 129 133 142 142 138 148 146 153 156 157 156 157 156 151 142 142 138 136 132 128 128 136 141 143 144 146 145 144 147 141 139 135 139 137 134 138 137 130 126 122 120 117 106 102 97 90 88 84 88 86 75 73 64 56 52 54 54 63 61 63 69 71 79 81 92 97 98 101 98 98 101 97 79 84 87 82 76 59 57 45 51 53 59 54 62 77 94 101 109 107 114 128 138 142 145 149 148 151 156 151 151 148 154 147 143 136 131 132 124 124 124 117 119 128 128 129 133 140 139 142 141 136 132 134 136 143 136 139 141 136 134 131 125 124 121 122 118 103 100 93 88 92 81 80 80 70 61 58 56 58 56 54 55 64 74 74 83 103 99 99 100 101 101 102 78 87 84 79 67 59 51 43 56 63 69 57 71 90 98 107 113 109 116 127 151 156 155 162 166 160 150 150 144 137 140 135 130 123 121 124 116 118 116 115 113 116 116 114 121 123 125 131 134 134 132 134 132 136 137 140 140 138 137 140 130 132 127 130 132 117 101 98 97 95 99 88 82 81 73 62 58 55 52 50 53 56 63 71 76 90 108 105 99 102 107 103 83 88 84 73 62 55 53 52 58 67 73 75 86 99 105 118 124 120 132 148 154 159 164 165 158 152 151 149 138 129 131 129 119 116 118 112 103 106 102 101 100 103 101 99 99 106 107 109 118 126 125 127 126 129 134 137 134 137 137 133 130 132 126 129 127 125 118 103 102 100 96 101 94 87 86 69 64 59 51 56 54 59 59 63 72 80 97 109 108 100 108 105 89 94 83 73 67 50 59 58 67 76 84 89 97 102 119 126 126 136 153 160 161 174 170 154 153 153 143 142 136 131 128 122 118 118 118 106 97 99 91 88 82 81 80 77 82 88 85 90 95 102 105 112 116 117 123 129 129 133 133 128 128 130 126 123 124 121 119 112 103 107 103 99 105 94 93 85 64 64 59 53 56 59 56 55 61 76 86 100 109 114 102 106 95 91 85 73 64 56 59 73 75 79 85 97 101 116 132 138 142 151 164 163 178 175 160 155 153 153 143 143 134 124 123 113 113 110 108 97 92 89 84 73 69 68 65 63 66 71 73 70 72 74 82 99 99 105 112 118 122 125 126 115 117 122 115 115 117 117 119 114 108 107 107 107 100 104 99 94 83 60 59 52 56 52 52 54 54 64 79 88 96 110 112 111 93 95 86 77 64 64 69 76 87 92 93 89 97 130 148 148 153 167 172 177 184 168 155 156 152 146 145 136 125 123 121 109 108 104 98 89 88 83 77 66 64 61 59 57 60 64 61 62 64 66 68 82 88 92 99 106 110 113 115 111 110 114 113 113 113 108 110 105 104 100 110 108 104 99 103 94 94 77 56 58 56 57 50 52 46 55 70 82 91 100 111 113 95 96 90 77 70 71 82 89 93 92 88 97 122 143 155 158 171 178 182 187 176 163 158 157 154 148 138 129 122 124 117 100 98 97 94 85 84 77 73 61 60 59 55 56 57 56 61 59 59 63 64 64 74 82 86 94 101 102 103 106 105 107 109 114 105 108 106 105 102 98 107 107 105 101 104 94 98 91 70 58 61 59 54 50 51 43 59 80 91 98 103 114 92 86 81 73 84 91 98 90 90 99 112 126 140 150 164 177 184 182 191 186 172 159 163 158 154 139 133 124 120 118 114 99 96 94 86 82 75 68 64 62 56 58 55 54 56 57 58 59 57 62 63 63 71 76 82 89 92 95 96 99 99 99 102 102 99 101 100 101 97 98 99 113 109 104 106 106 109 97 91 71 69 63 58 56 49 48 51 66 84 95 99 109 88 82 75 84 88 89 83 90 99 110 119 135 149 165 180 180 184 194 194 175 162 157 163 153 147 136 131 123 115 115 113 106 95 89 81 76 67 61 60 62 59 60 59 55 57 61 57 60 61 63 63 66 72 75 83 86 85 85 89 92 87 89 90 91 96 94 97 101 101 94 100 105 104 98 103 101 112 113 96 85 70 70 61 63 50 57 51 58 77 88 98 103 85 83 82 86 87 85 87 107 111 117 122 148 166 185 196 197 195 203 183 168 158 157 161 147 145 142 132 119 112 111 109 104 91 82 76 69 64 58 59 58 60 61 60 63 62 64 63 64 67 66 65 71 76 75 85 82 82 81 84 83 80 83 84 86 85 91 90 96 102 92 101 101 99 94 96 100 101 109 105 93 77 72 68 60 63 53 49 53 70 87 98 99 97 87 90 90 85 82 94 105 105 124 145 166 180 196 205 206 205 194 173 158 152 157 160 143 148 152 126 117 111 103 102 92 87 79 75 73 64 63 62 57 59 63 64 67 74 73 74 74 71 70 69 71 77 76 85 84 83 85 83 82 87 87 84 84 85 89 88 96 97 97 98 103 106 101 96 103 97 108 111 100 88 76 75 62 56 58 48 45 59 82 97 97 102 90 93 92 86 88 97 105 120 148 163 176 191 206 206 204 195 174 162 158 156 151 158 151 152 144 118 111 106 100 93 88 91 81 82 79 72 66 66 61 59 66 66 69 77 82 85 89 86 86 86 83 78 80 88 85 86 86 84 83 90 92 92 94 95 96 92 94 97 94 94 99 105 105 104 100 104 107 112 107 91 82 73 77 59 59 57 47 45 70 93 102 104 93 90 96 91 97 111 119 135 151 168 182 201 210 212 199 172 161 173 169 148 147 153 145 140 127 116 108 100 98 99 93 92 87 83 84 82 73 71 66 67 68 72 73 79 84 89 94 95 100 102 95 95 95 93 98 97 91 86 87 98 96 98 106 103 103 103 99 98 99 93 99 104 103 104 99 103 104 111 106 94 82 76 74 76 64 60 55 48 57 83 99 96 95 102 109 102 111 124 137 155 158 173 191 204 219 219 186 173 173 178 158 147 147 148 138 118 119 113 105 101 98 104 100 98 93 86 85 85 76 75 71 70 72 73 75 80 86 92 94 100 100 102 101 102 106 104 109 107 104 101 103 104 104 104 110 109 114 115 111 111 105 107 106 108 106 101 101 102 107 102 104 100 86 76 76 78 78 65 58 53 63 78 88 98 98 101 106 108 122 129 151 166 170 188 204 222 238 209 188 189 183 171 154 153 148 145 132 117 120 118 107 107 104 105 103 100 97 86 88 85 84 78 77 76 77 75 79 84 87 94 94 104 104 103 106 109 109 112 113 111 107 111 112 113 111 112 111 117 118 121 123 122 114 112 114 117 111 111 105 103 108 105 100 97 97 73 74 78 81 74 71 60 61 85 85 107 104 102 110 122 124 145 171 184 191 215 223 231 224 199 193 192 181 167 160 144 145 132 129 124 122 116 110 110 113 108 102 98 95 91 88 90 87 84 83 81 81 81 83 87 89 95 94 106 106 105 106 109 111 114 115 115 111 114 116 115 116 118 116 119 121 123 126 130 122 120 121 125 117 118 112 106 105 111 106 98 103 82 70 87 75 81 74 74 64 83 96 106 112 104 114 128 140 170 182 193 211 224 216 225 215 200 192 186 175 170 159 142 140 131 131 120 114 118 115 117 114 108 100 97 97 97 91 89 90 88 87 86 87 85 87 89 91 94 98 101 103 104 107 105 109 115 120 120 117 117 118 116 120 121 121 119 123 125 128 132 132 126 131 135 129 121 119 109 107 109 107 97 101 98 77 90 92 89 80 75 72 87 99 109 117 112 125 138 163 187 198 207 224 217 215 230 215 199 186 180 169 158 154 141 137 128 121 112 113 115 115 110 106 106 100 103 98 97 95 89 93 89 90 90 88 87 89 91 92 96 97 100 98 103 103 106 107 110 120 120 121 121 122 121 122 123 124 120 121 123 128 130 135 137 134 138 143 124 123 117 109 110 107 101 99 106 99 93 104 108 88 79 75 93 97 124 118 120 133 153 177 204 217 223 228 220 227 225 211 197 185 171 159 153 143 134 126 117 116 111 110 110 105 96 98 99 98 99 95 94 92 91 91 88 89 87 87 86 88 94 93 94 97 97 98 100 103 102 104 107 112 117 119 120 122 122 121 123 123 121 118 121 124 131 137 139 140 137 143 135 127 123 113 106 106 109 107 111 114 104 106 114 106 84 83 90 95 116 120 125 141 165 196 220 229 233 235 226 228 213 197 184 169 157 147 137 130 121 116 111 109 106 105 100 97 94 94 95 95 95 96 91 94 90 90 91 88 89 87 85 87 93 93 91 94 94 97 95 99 99 100 102 105 109 111 115 116 117 116 118 122 119 116 120 121 128 132 137 139 140 139 144 129 123 129 111 112 109 111 116 119 121 112 118 115 94 88 90 88 115 113 133 151 181 210 229 238 245 246 233 220 203 187 167 157 144 132 123 118 112 108 104 103 102 98 96 95 95 97 93 97 97 96 94 98 95 92 94 92 90 87 86 90 93 94 93 93 91 97 95 96 97 96 101 103 107 112 119 120 119 117 120 119 120 115 123 120 123 124 126 132 143 141 141 132 123 130 126 115 114 124 118 122 131 122 127 122 99 91 91 90 112 110 143 159 189 221 239 245 250 250 232 208 187 174 157 144 137 124 113 110 108 107 109 112 111 108 105 106 102 106 105 104 104 101 99 101 99 97 96 96 91 90 86 89 90 93 94 92 91 92 93 95 100 99 107 107 112 116 119 120 121 122 122 122 123 121 126 127 123 121 119 118 136 145 137 133 125 126 127 121 118 128 137 127 129 128 131 130 108 86 96 94 114 114 150 171 200 221 244 251 248 247 220 191 173 162 145 139 123 112 105 112 116 118 125 122 121 121 122 127 125 125 127 125 125 116 110 110 106 104 103 101 95 93 93 90 94 94 95 91 90 93 97 103 107 109 113 116 118 122 122 122 124 123 125 122 124 127 130 132 130 125 122 119 119 134 142 131 125 125 131 128 125 131 140 144 129 133 130 132 122 97 90 96 109 123 156 177 205 220 247 253 244 239 202 176 164 150 139 128 111 107 107 114 119 122 129 130 133 133 134 133 138 135 135 132 134 134 129 125 121 119 116 112 105 102 101 103 99 99 98 99 99 102 107 115 115 117 119 122 120 122 125 125 125 128 129 126 127 129 133 133 133 130 128 127 124 126 131 132 128 121 129 134 134 140 143 150 138 131 137 125 130 108 87 93 107 122 157 180 199 224 245 255 239 225 189 162 149 147 134 120 106 107 108 115 119 126 137 134 138 139 137 136 140 137 137 135 139 141 140 136 132 132 130 128 119 116 112 112 110 109 110 111 112 114 119 123 125 125 125 126 126 128 130 131 128 131 132 129 132 133 134 135 132 130 130 130 135 130 126 125 136 129 128 134 137 146 157 154 147 133 138 132 122 115 89 90 105 118 149 175 200 227 244 253 238 214 178 157 148 140 127 112 101 101 107 114 114 115 128 130 139 144 141 141 143 142 138 138 141 141 141 140 140 136 136 133 135 127 125 126 124 123 121 125 124 127 132 134 134 131 135 135 135 137 137 137 132 134 135 132 133 134 136 138 134 133 130 134 136 144 140 137 131 133 134 139 142 148 164 166 144 135 136 133 125 118 95 87 109 120 146 174 200 232 240 253 237 198 171 150 150 139 129 112 108 109 115 120 112 116 124 125 131 137 141 140 141 142 144 140 141 142 139 144 144 144 146 141 138 138 137 140 139 137 133 132 132 135 140 141 141 143 145 148 149 146 147 145 141 141 138 137 135 136 137 139 132 134 129 130 133 138 142 153 143 134 135 143 138 156 167 176 151 133 137 133 122 129 98 84 105 123 140 169 198 232 240 242 220 185 163 149 149 146 129 115 112 120 121 118 115 118 122 125 129 133 135 143 143 147 147 145 145 148 146 147 146 146 150 150 148 144 149 150 149 146 142 140 139 144 148 152 154 156 158 159 158 157 157 154 149 151 146 140 143 146 148 151 153 146 138 132 134 134 138 149 157 142 141 149 141 145 171 179 156 137 136 136 122 128 102 87 103 125 139 168 193 229 233 227 212 173 167 156 156 148 132 115 118 124 126 123 127 130 136 140 139 142 149 153 155 160 162 160 161 160 159 161 161 162 163 163 161 157 162 161 159 154 149 148 149 155 159 162 163 163 165 165 164 164 165 164 163 161 157 152 148 153 158 156 164 159 153 141 141 153 143 144 156 154 151 154 155 153 169 171 158 139 138 135 121 123 101 88 98 108 132 161 182 222 229 225 197 172 171 165 162 150 132 117 129 136 135 140 145 148 154 158 163 163 169 168 166 165 166 172 178 174 173 174 172 172 173 176 170 171 174 175 173 172 160 158 160 164 168 172 174 172 174 174 173 174 170 170 172 173 168 164 159 161 159 170 168 166 162 146 142 145 146 142 149 155 155 153 160 159 172 167 158 135 138 137 117 116 94 93 90 99 116 157 176 211 230 221 187 178 172 164 165 150 132 126 137 147 146 152 151 154 153 159 167 167 180 186 182 185 188 190 192 188 190 187 191 191 190 195 188 187 187 184 178 180 170 166 168 173 174 182 183 187 191 191 190 188 190 188 190 190 184 178 174 166 167 174 176 171 166 159 151 148 151 148 153 161 157 153 158 163 169 169 151 138 132 132 115 111 97 96 102 103 115 160 184 204 220 212 178 175 170 161 163 145 131 126 147 159 161 163 167 173 181 188 190 192 195 197 194 198 197 200 204 202 207 205 202 206 210 208 201 208 199 198 190 186 180 174 175 178 180 183 190 191 196 198 193 193 198 200 196 194 191 189 181 177 182 180 180 178 177 171 161 156 160 159 150 161 159 159 170 165 163 158 145 142 124 119 109 102 89 94 105 106 113 139 159 185 209 195 168 168 161 165 157 145 137 138 164 166 171 179 186 195 203 209 206 204 207 206 206 208 212 219 217 220 222 217 216 219 232 223 215 216 215 209 202 194 184 182 183 187 187 187 197 201 199 201 204 204 203 209 206 207 202 201 198 193 195 193 188 189 183 177 165 153 154 153 154 154 152 155 176 169 168 164 144 134 109 108 109 96 84 92 98 101 103 115 131 169 196 176 164 159 167 164 155 142 139 146 164 165 176 175 193 195 194 200 207 209 224 228 236 236 234 243 242 229 233 227 226 231 238 230 227 213 214 210 202 198 191 188 191 196 199 197 208 219 215 211 213 213 214 216 213 213 208 205 208 198 196 193 189 188 176 166 159 154 150 154 152 148 154 160 176 166 163 169 147 123 107 102 108 96 82 87 89 96 96 99 121 155 178 161 156 161 175 161 152 141 138 144 161 172 170 175 187 192 192 202 219 217 227 229 239 235 237 239 239 229 230 227 228 238 243 238 226 220 215 210 203 200 197 194 187 199 194 202 207 216 206 215 215 215 213 219 220 228 207 197 203 190 192 189 185 173 175 170 150 149 148 153 162 153 161 169 179 165 164 161 145 114 99 107 104 94 81 82 81 89 92 97 124 140 161 145 138 154 162 149 143 136 134 137 157 166 164 171 181 184 187 200 212 218 229 231 238 237 235 234 228 227 220 219 221 231 236 227 231 227 216 205 195 195 192 187 188 194 199 205 206 210 205 199 206 215 215 213 211 214 207 201 195 192 189 177 176 171 165 176 163 150 144 147 158 153 153 170 181 168 166 150 128 107 95 100 98 93 77 89 77 87 90 86 113 134 151 136 135 150 151 133 125 130 124 125 147 150 158 179 174 180 185 189 213 218 229 231 235 225 226 224 219 215 209 222 217 231 231 224 220 216 210 201 190 188 184 180 181 189 197 207 208 209 209 200 207 205 205 207 213 205 198 194 183 174 173 167 162 165 171 167 166 158 148 144 148 152 146 157 178 167 169 131 110 106 104 92 88 103 90 96 75 82 81 72 84 124 137 124 131 149 147 123 114 116 112 120 130 135 146 158 166 170 177 192 206 217 218 229 232 222 218 212 214 214 204 218 224 235 228 217 204 196 198 184 181 177 176 172 169 176 182 198 202 206 210 204 198 204 201 211 212 206 199 200 188 179 173 159 162 151 161 158 153 140 136 142 140 139 143 160 175 167 167 132 109 108 110 96 91 102 100 95 76 77 79 78 84 115 111 110 125 134 138 115 111 100 104 103 113 121 135 145 158 167 190 207 206 212 231 233 234 224 215 207 213 210 196 214 216 224 205 194 189 185 181 166 167 171 168 165 156 165 173 184 194 199 212 201 185 198 202 207 210 211 211 205 200 192 175 159 153 163 147 156 140 131 128 143 145 145 144 158 180 176 163 141 109 104 104 104 99 103 104 103 77 96 90 89 89 106 94 99 122 122 127 94 99 93 94 92 98 104 116 134 142 157 180 191 195 204 225 223 219 222 216 216 218 205 196 209 216 208 194 182 179 171 163 153 161 164 162 161 152 154 166 166 179 185 197 184 169 175 186 202 194 201 213 208 201 185 173 172 156 155 144 141 135 140 139 151 152 147 147 155 176 175 175 146 118 109 105 119 119 100 118 107 84 102 93 101 99 106 92 98 123 117 114 88 98 87 90 98 91 103 115 132 135 149 158 179 187 195 206 203 209 210 215 206 196 187 188 190 196 191 180 182 179 164 158 156 163 160 160 156 145 149 156 152 160 163 157 149 147 164 168 189 182 179 185 187 182 171 157 146 140 136 141 136 135 137 141 155 154 140 144 156 171 170 170 148 132 106 99 120 122 105 114 103 81 98 88 97 125 126 104 98 103 116 103 82 96 85 84 89 96 96 111 134 114 127 134 154 159 166 174 171 168 180 178 170 164 159 164 165 179 173 168 167 150 145 147 159 156 153 145 138 125 124 137 135 127 116 123 120 127 147 146 159 164 169 170 171 173 157 150 139 143 134 138 138 134 132 137 155 159 148 151 163 172 159 161 141 128 89 92 108 126 105 121 100 77 104 90 109 134 141 116 91 87 106 93 79 94 82 84 91 82 84 97 111 98 101 113 122 124 132 137 138 139 149 145 140 120 126 131 132 126 134 123 113 112 122 125 138 131 137 133 124 104 106 119 111 108 93 99 100 108 120 128 147 153 161 155 164 163 146 142 134 129 135 136 133 139 128 125 148 156 162 159 164 169 156 152 132 121 89 99 102 125 108 126 102 80 99 106 128 138 141 121 90 76 96 92 70 82 78 79 88 71 78 85 87 80 80 83 90 86 95 106 112 115 123 113 113 107 108 101 102 108 101 96 86 86 101 114 115 116 118 120 106 94 88 94 91 94 81 75 85 79 94 114 122 131 144 136 140 144 138 134 128 121 119 128 124 130 120 121 141 154 156 162 159 165 157 142 130 121 110 105 104 137 119 124 109 74 89 104 122 141 140 109 88 79 88 77 73 76 83 77 77 65 69 70 72 63 68 72 71 64 75 89 95 90 87 89 89 86 80 83 89 92 78 73 74 77 88 95 95 96 106 95 86 80 77 73 77 73 74 60 68 57 60 80 95 105 109 114 114 114 112 119 117 118 111 119 118 116 111 116 133 142 149 158 159 166 154 148 140 141 131 121 121 139 123 121 108 73 80 101 111 133 129 92 76 74 93 82 68 73 82 72 66 62 63 64 68 58 64 66 66 61 64 66 68 60 63 73 75 71 61 67 73 75 66 55 64 60 68 69 72 87 90 87 72 70 70 67 65 55 55 55 55 50 40 48 68 85 85 92 100 105 105 106 110 114 111 112 117 109 106 116 117 133 141 153 160 168 154 155 151 154 136 129 135 127 131 118 112 74 65 94 100 123 113 83 64 53 93 93 72 71 80 67 59 56 56 55 61 56 53 58 58 57 58 57 57 56 61 63 64 51 49 55 60 58 53 40 51 49 43 58 65 79 82 75 68 58 56 62 52 49 42 48 47 47 36 41 47 57 64 67 70 83 84 91 91 92 94 96 99 96 98 98 110 133 140 150 148 167 160 157 159 147 133 126 136 120 126 118 112 85 55 85 97 118 111 91 67 43 94 105 79 78 81 71 59 59 58 54 56 54 47 49 53 53 53 50 52 55 51 48 45 36 35 39 41 36 45 30 31 36 41 54 61 74 76 71 63 53 49 56 46 46 39 41 50 45 41 45 43 50 51 52 54 59 66 72 70 65 68 74 76 87 93 92 114 134 134 142 147 151 154 160 149 144 131 126 123 126 122 118 101 91 51 73 101 108 105 96 80 63 91 116 83 77 80 67 58 56 57 55 49 41 44 44 44 47 47 44 45 41 37 35 33 26 21 21 22 23 29 22 32 37 45 52 56 65 69 69 64 55 51 52 51 43 40 35 41 36 35 33 38 42 51 38 43 43 51 52 51 50 48 57 60 73 83 92 113 133 134 139 148 146 149 145 146 138 133 129 123 134 118 110 97 82 60 64 103 98 101 99 97 91 93 121 89 76 78 72 64 55 53 58 55 49 47 47 44 42 39 31 32 29 28 29 26 23 17 12 17 19 22 28 33 35 43 47 53 59 66 65 68 58 52 52 58 55 50 45 40 35 30 31 33 36 37 38 29 29 38 41 44 44 48 55 56 70 80 95 120 129 131 140 145 147 144 127 143 141 134 127 127 138 112 102 97 72 53 70 95 91 87 88 107 90 107 121 95 77 82 81 71 61 57 54 57 52 51 44 42 42 34 30 33 30 28 28 25 20 18 17 25 27 25 29 35 38 44 47 56 55 60 70 70 63 53 54 65 67 63 54 51 42 41 40 38 45 41 37 40 33 35 38 41 43 47 52 62 73 89 104 123 128 138 143 145 153 147 127 139 141 130 121 122 135 105 95 97 74 57 62 76 83 84 89 109 103 107 114 95 86 82 86 77 72 66 60 62 62 55 55 47 43 37 35 38 34 31 32 29 23 24 25 33 32 30 35 45 46 51 52 56 60 60 72 78 69 57 61 72 74 78 67 61 54 51 45 44 49 48 46 43 48 42 45 47 51 49 58 74 78 101 111 127 134 140 137 148 164 157 136 130 132 129 121 126 132 101 99 98 84 58 70 76 71 87 92 99 110 104 122 94 89 86 92 86 78 77 71 71 67 67 59 53 47 45 46 47 45 42 37 33 33 33 33 39 42 43 49 47 50 54 55 59 70 73 70 77 73 66 72 76 85 82 80 68 64 62 57 50 55 54 58 59 53 52 51 53 55 60 67 79 90 108 121 128 133 140 141 160 163 145 128 124 121 124 128 129 135 103 101 97 93 61 74 60 60 84 95 99 111 105 117 92 87 88 98 91 86 84 78 73 70 70 63 61 56 58 61 58 54 51 43 45 47 43 44 43 51 56 53 49 54 56 56 63 78 83 81 81 72 72 81 88 89 94 92 80 75 75 74 69 66 68 71 71 70 66 66 70 71 71 72 83 95 106 125 136 137 143 149 159 174 144 126 130 129 125 130 127 135 109 99 89 98 76 71 71 48 68 85 99 106 102 100 90 91 96 101 99 91 87 83 77 76 73 71 69 66 68 72 67 66 63 59 61 68 62 59 62 69 68 59 56 59 67 67 69 87 97 100 95 83 80 91 98 108 109 108 105 90 87 84 92 81 81 83 91 88 85 85 84 82 87 92 98 106 114 132 140 142 138 151 156 167 145 129 130 132 124 133 128 132 109 97 97 103 89 75 80 51 64 78 91 102 104 88 90 95 100 106 103 98 94 88 84 84 78 81 75 76 80 82 79 79 80 83 85 86 89 84 83 87 79 67 67 79 93 92 95 108 120 123 117 112 105 108 122 130 120 114 119 111 110 107 111 103 101 101 107 106 102 103 96 93 95 98 106 106 123 135 143 144 141 152 158 155 139 125 124 128 128 136 135 128 107 102 97 111 98 70 85 56 58 82 80 94 105 87 91 100 102 110 105 104 98 97 94 90 86 87 86 85 91 93 92 94 101 97 98 102 109 111 107 103 93 84 96 115 124 121 118 129 141 142 147 144 141 143 147 140 136 130 130 131 128 131 126 123 123 118 120 125 117 121 114 112 109 112 123 123 136 141 143 145 146 151 157 144 128 120 118 126 127 146 132 118 104 98 95 111 106 72 86 59 61 91 87 85 92 100 96 98 108 109 109 107 103 100 100 98 96 97 99 102 104 106 111 111 116 116 112 116 124 128 134 121 124 126 132 142 139 141 146 160 169 178 170 167 171 178 173 166 154 148 147 142 137 142 144 136 137 132 131 131 126 135 125 123 120 123 131 128 135 143 148 146 155 152 154 143 130 123 118 124 134 146 126 115 101 96 88 116 108 87 89 79 54 86 101 80 77 91 101 104 112 117 113 113 106 103 106 105 109 109 114 116 118 122 125 125 131 138 133 132 134 137 145 144 146 146 146 150 158 160 172 187 186 188 191 195 197 199 202 196 191 176 165 157 151 154 153 147 147 137 135 136 136 138 134 127 124 126 127 132 141 147 151 148 158 152 150 141 129 118 122 127 144 136 123 116 99 93 93 124 113 100 99 101 59 72 98 87 86 79 88 115 115 118 119 115 108 107 111 109 114 115 122 120 131 138 138 140 146 143 142 148 149 153 152 151 154 154 159 172 175 181 191 202 201 198 203 207 201 203 209 207 204 193 178 172 162 157 157 159 158 149 143 143 140 137 135 132 124 127 132 135 143 149 153 150 159 155 147 140 126 115 126 140 141 130 126 115 99 98 98 120 116 103 102 106 75 70 88 80 94 90 81 107 123 117 121 114 107 108 116 116 118 123 132 130 138 139 143 143 145 136 130 134 144 153 154 148 147 147 152 166 183 190 194 200 202 204 207 214 205 203 209 210 204 194 191 180 168 162 160 161 159 156 149 138 139 134 131 131 129 137 141 142 146 149 152 155 168 154 149 134 121 123 138 144 136 128 129 116 101 101 99 116 107 106 113 108 86 55 73 70 77 94 83 95 115 117 121 114 109 110 117 122 125 125 134 132 134 134 139 140 137 124 120 129 137 143 144 145 141 147 159 164 178 192 195 195 195 192 192 205 199 198 207 208 199 192 189 178 167 163 158 156 156 151 143 134 135 132 133 133 136 140 145 148 149 146 152 158 171 153 144 134 129 130 140 139 135 134 133 114 98 106 99 119 109 106 120 113 92 70 58 70 67 82 86 103 107 113 116 112 114 111 117 118 128 130 130 127 131 131 132 130 128 115 115 127 129 131 136 127 133 136 146 153 157 167 174 181 176 173 167 176 186 186 191 199 194 189 179 164 158 149 148 148 146 142 142 134 133 131 136 135 134 139 150 152 151 149 150 159 172 150 132 130 133 128 131 126 138 133 131 113 100 104 103 120 118 107 117 119 100 75 59 61 62 75 87 107 107 110 114 113 110 111 115 117 119 126 125 125 127 123 121 118 116 113 113 109 112 118 118 112 119 126 131 136 135 138 150 157 153 157 154 155 160 168 171 171 174 174 163 153 148 140 140 138 142 139 143 140 134 126 129 132 133 138 150 152 149 149 149 155 164 149 123 127 139 125 121 121 121 130 128 117 101 105 95 121 122 112 114 120 110 93 63 54 56 71 89 104 103 105 112 112 108 108 114 109 109 108 115 119 115 115 112 108 107 100 102 102 103 99 103 104 107 113 124 126 126 125 128 128 125 131 131 132 133 137 141 145 150 155 148 144 144 136 131 136 133 136 138 140 129 123 122 123 123 136 144 152 148 145 150 151 154 142 121 118 129 117 109 125 124 130 132 117 103 106 97 131 128 115 105 113 107 115 90 63 62 69 88 101 106 102 106 108 105 102 99 97 97 97 101 105 105 109 108 103 97 96 92 86 93 90 87 94 95 96 102 106 113 109 107 110 105 102 104 101 102 111 111 117 126 129 140 144 144 139 136 135 130 132 129 128 120 114 115 115 117 129 139 146 142 142 149 155 142 137 131 115 125 111 116 135 128 133 130 118 110 108 104 134 130 120 107 109 103 115 117 83 80 80 86 107 113 104 108 104 103 98 89 85 87 89 94 94 101 105 103 98 95 95 92 90 91 84 87 84 85 84 86 95 91 83 80 88 84 86 89 94 93 95 98 97 108 114 121 129 131 136 137 132 127 119 120 111 107 103 107 108 119 129 131 136 139 144 148 154 143 140 135 124 121 109 123 137 127 131 131 117 117 111 110 130 131 115 108 106 93 109 113 87 94 96 96 116 120 109 106 99 97 92 81 85 83 83 89 92 99 104 100 104 107 104 101 105 103 99 105 101 86 81 78 82 88 84 79 86 86 91 92 104 101 99 97 92 89 93 101 109 110 120 127 126 115 108 104 100 93 95 99 104 113 123 126 124 133 140 146 157 139 145 138 135 123 111 133 139 127 127 130 119 119 116 111 131 124 116 106 100 88 102 108 80 83 96 101 120 116 109 105 97 89 88 83 83 83 82 82 94 97 108 113 120 123 120 112 117 109 113 120 112 105 97 91 87 103 100 100 104 105 106 110 112 109 110 105 97 87 89 91 96 103 112 115 119 107 98 93 94 97 91 93 98 109 120 120 117 127 137 145 158 133 147 143 143 127 119 134 137 126 123 126 123 119 124 117 131 122 121 106 98 93 98 110 87 67 82 92 114 107 103 103 99 87 86 86 82 85 86 87 91 98 110 124 136 135 141 131 128 120 114 120 118 111 105 102 95 107 107 115 120 119 115 110 112 114 111 111 112 100 99 102 105 109 110 115 117 110 103 101 106 101 96 94 96 108 110 115 113 120 136 151 158 141 160 149 143 125 119 133 134 126 122 127 126 123 121 124 126 129 123 102 100 100 95 105 93 64 73 77 100 102 100 100 98 84 84 85 84 88 91 98 103 106 113 121 136 143 151 148 140 126 118 128 125 125 122 112 102 103 109 123 128 126 119 113 117 122 114 114 122 125 129 132 133 122 121 120 120 123 111 116 115 108 97 102 97 106 104 112 111 113 134 156 153 150 165 149 132 121 117 132 137 127 119 121 126 128 118 123 133 130 117 106 102 101 93 101 95 69 66 70 91 101 95 102 97 83 84 82 82 87 90 102 108 110 122 125 133 139 147 152 146 136 136 140 149 149 144 133 123 128 131 127 124 125 119 114 116 118 116 122 134 139 148 145 146 145 131 129 127 121 116 115 117 117 111 105 103 104 106 110 110 117 131 153 147 152 158 145 133 115 115 132 133 131 115 113 128 132 117 122 132 123 117 112 108 97 92 97 96 75 60 65 83 103 96 100 95 84 81 78 80 85 85 95 107 112 127 132 133 143 149 145 149 147 157 159 168 173 159 146 128 126 131 122 120 114 112 109 108 111 118 131 140 143 148 150 149 152 142 135 129 116 110 114 112 116 108 111 105 106 111 108 108 117 127 147 148 155 152 141 130 108 113 129 132 131 118 101 124 134 124 115 119 119 120 114 109 92 95 95 100 84 66 62 76 98 98 100 94 85 74 77 78 79 84 89 102 108 121 126 128 134 139 143 146 150 163 166 161 163 159 145 137 128 126 124 123 120 118 113 108 107 112 120 136 150 150 150 147 145 143 131 123 115 109 107 109 111 111 110 109 107 109 105 107 114 122 139 142 155 143 139 123 105 107 126 125 132 115 102 116 133 132 118 121 117 119 115 102 94 97 100 102 97 75 64 68 93 96 90 92 79 75 72 70 73 75 78 89 99 110 109 112 105 109 118 120 123 133 140 141 138 140 133 129 127 123 128 128 133 135 141 138 125 129 134 137 145 146 141 136 132 123 123 122 114 104 95 101 101 102 97 99 104 100 103 105 118 122 139 147 152 137 138 124 106 109 120 121 125 117 100 110 129 136 128 124 119 118 109 103 92 108 99 100 102 88 73 74 87 95 85 88 84 75 68 67 63 60 64 71 78 85 77 80 75 71 79 73 74 79 90 93 89 92 90 89 93 93 97 96 100 115 117 124 113 107 109 115 115 117 114 109 101 100 100 96 86 73 70 76 83 93 90 93 102 106 109 106 123 122 140 149 143 134 139 122 108 110 115 119 116 120 107 106 128 136 136 124 119 112 106 97 103 111 99 95 99 101 87 76 92 96 83 83 85 75 71 68 58 52 51 58 61 64 60 66 61 53 50 51 50 58 64 67 63 69 65 69 65 71 71 68 65 77 79 85 81 81 87 88 89 89 82 81 82 76 74 72 63 61 60 70 75 82 90 97 101 107 110 109 116 127 143 144 138 135 142 120 110 105 117 114 120 115 116 102 124 139 135 117 113 107 97 101 114 111 98 99 96 109 96 87 91 102 88 79 82 73 74 71 63 55 50 55 56 60 56 55 55 47 43 45 46 53 58 58 61 60 59 61 57 60 68 66 68 69 71 74 72 69 76 74 75 65 58 57 58 60 62 66 70 67 66 77 77 80 91 98 101 108 109 113 118 134 142 142 134 139 138 120 110 106 118 110 118 120 117 100 111 135 138 110 104 100 102 112 118 111 102 98 94 110 108 97 91 98 87 78 75 73 74 71 64 57 52 51 56 60 55 52 48 48 49 56 60 56 58 61 68 66 62 69 65 69 70 65 75 73 71 71 67 69 68 71 68 58 56 55 58 64 66 68 75 73 81 76 85 92 94 100 97 105 113 111 120 137 141 141 133 143 132 121 108 106 106 110 114 122 121 103 102 126 133 107 103 100 110 122 121 106 98 93 95 113 109 98 96 98 86 81 74 77 72 74 67 59 54 48 54 60 62 60 53 53 60 66 68 68 70 74 82 82 82 82 83 80 83 79 86 84 85 86 90 88 82 83 81 78 73 67 72 79 82 82 85 86 97 89 94 95 93 100 101 104 117 110 128 143 141 137 138 140 125 121 105 105 98 107 117 114 120 104 94 113 127 106 105 113 117 126 115 100 96 98 100 108 114 102 99 102 87 79 78 81 78 72 74 64 57 50 51 58 61 62 59 57 60 68 71 75 77 83 88 91 94 93 92 93 96 97 102 106 105 104 106 107 101 100 100 91 86 78 81 87 92 89 89 94 98 94 97 95 96 103 105 109 122 115 137 143 137 137 139 136 122 114 107 104 94 102 118 106 118 113 103 103 116 111 119 127 122 125 116 103 103 115 111 112 115 114 101 102 88 82 85 81 76 64 76 70 59 56 53 55 59 58 60 54 52 59 68 65 67 72 76 85 83 87 87 93 100 105 107 110 112 108 109 111 110 111 105 99 89 82 87 91 94 93 92 93 93 93 96 97 97 99 106 110 127 124 140 147 131 134 139 125 121 110 105 104 102 100 105 106 115 112 109 104 107 124 132 130 120 125 123 113 111 125 118 110 108 120 110 102 94 84 89 82 76 59 68 71 70 63 58 51 53 56 56 49 53 53 51 45 49 63 66 67 69 71 75 80 82 87 89 93 97 96 97 99 97 95 94 86 81 81 88 93 96 93 95 93 90 92 97 95 98 99 107 119 131 126 139 137 133 130 130 122 113 102 98 106 111 98 98 98 116 107 108 109 106 132 134 128 119 128 127 117 113 118 118 109 103 120 119 99 89 94 95 85 74 64 59 66 70 68 63 49 50 48 48 47 52 48 47 43 37 41 45 47 47 48 47 55 56 61 63 72 76 77 79 79 76 71 74 73 73 73 80 89 90 88 90 93 94 99 99 96 95 98 111 120 129 129 133 133 133 125 118 119 108 98 94 102 115 101 96 91 103 103 99 103 103 137 131 131 121 125 127 120 115 117 120 118 107 113 117 102 89 98 105 91 73 61 63 61 69 71 68 53 52 47 43 41 41 43 45 41 42 35 33 34 33 32 39 41 41 44 42 46 48 51 54 57 55 54 55 52 55 62 71 80 81 82 82 94 99 100 100 95 94 101 111 125 127 125 131 132 128 117 117 110 97 95 93 97 112 109 94 94 93 86 95 95 100 134 135 131 117 119 128 122 116 118 125 121 104 107 115 111 102 99 114 99 79 63 66 68 70 72 64 61 54 52 41 47 48 44 43 36 32 24 23 21 20 22 23 23 26 24 23 21 22 24 26 30 30 34 32 32 39 56 61 70 72 79 80 91 96 96 95 97 89 100 114 127 121 123 134 140 119 107 116 104 90 90 94 95 104 104 100 98 91 82 83 88 92 134 136 130 112 114 130 122 122 122 125 120 99 104 116 119 113 112 114 109 85 69 70 68 70 76 68 70 62 58 51 49 53 52 44 36 29 19 19 18 14 14 12 9 10 10 4 2 4 5 9 10 14 13 16 19 25 44 57 66 71 74 82 91 96 98 92 100 91 95 112 118 120 127 136 140 110 102 116 94 87 87 93 99 100 99 101 105 93 82 82 81 83 137 134 128 110 110 129 125 124 121 126 113 93 101 119 124 121 126 129 110 93 74 73 71 71 75 68 67 67 68 61 57 55 57 51 43 33 29 20 21 18 14 9 5 3 1 0 1 0 0 2 2 2 3 7 17 27 38 55 64 69 74 83 94 97 97 94 96 93 100 110 105 120 127 133 133 115 98 107 91 82 87 94 97 94 92 100 105 95 81 78 80 79 139 131 125 110 109 127 129 121 117 119 111 92 100 119 124 123 132 140 119 100 84 78 84 76 69 69 65 64 64 70 67 61 61 60 60 46 41 26 25 20 18 14 12 7 7 2 2 3 6 6 7 3 7 15 21 31 40 55 68 79 83 92 100 95 101 92 88 94 96 96 105 124 124 128 122 114 94 95 81 84 87 96 89 87 90 97 100 95 86 79 79 75 136 130 121 109 111 126 128 119 114 114 104 92 99 116 120 119 131 134 126 107 86 88 90 89 73 70 70 66 70 78 77 77 75 70 71 58 53 42 37 27 25 21 22 18 16 12 9 9 5 7 10 13 18 24 29 44 53 66 78 87 95 99 102 96 94 92 90 93 89 91 102 131 115 119 123 110 86 81 79 76 86 91 87 86 81 96 97 93 89 87 84 78 137 129 119 109 110 124 128 117 113 106 98 89 102 106 102 123 117 122 120 109 96 96 100 93 81 78 73 74 77 83 89 92 87 85 82 78 72 59 55 47 42 38 31 32 28 23 20 23 24 29 29 30 32 32 42 57 65 74 79 92 98 101 101 91 90 94 88 85 88 87 101 125 112 115 112 106 81 73 76 80 79 90 92 83 87 96 97 94 93 91 88 88 134 126 117 111 109 129 128 114 109 104 97 91 99 89 97 123 102 110 112 101 100 104 108 102 88 89 87 81 84 86 97 105 104 99 101 95 89 85 75 70 59 58 50 47 45 44 40 43 47 52 50 45 44 47 56 69 79 89 91 96 101 103 90 88 92 87 87 87 86 85 102 126 107 110 109 104 73 66 69 84 80 83 92 88 93 97 95 98 92 98 90 88 130 127 120 112 114 129 129 116 112 103 93 90 81 88 89 110 98 105 112 96 101 110 113 108 98 96 95 97 93 92 102 106 112 114 114 113 114 108 100 93 80 77 71 66 65 61 61 58 63 68 61 61 65 71 77 88 90 103 102 100 104 98 88 93 82 79 89 86 83 80 102 125 107 107 110 102 59 55 60 79 78 83 84 91 94 90 96 97 94 98 95 91 130 130 124 114 117 135 130 114 108 100 92 80 82 81 76 101 97 99 107 85 98 107 111 109 112 105 104 107 109 103 106 112 120 124 128 125 128 125 121 115 103 103 93 88 83 80 81 80 86 83 81 82 89 94 97 102 105 109 110 104 96 90 91 87 78 80 86 88 85 81 103 126 114 105 110 93 56 52 58 75 69 81 79 88 95 89 91 95 99 93 97 93 124 130 123 118 119 129 124 109 103 96 86 82 84 66 66 92 92 100 98 77 93 98 106 113 115 113 111 112 116 116 117 118 121 130 135 139 137 132 130 131 125 120 112 105 103 98 100 100 100 98 99 103 109 116 114 111 115 119 106 97 90 89 85 77 78 79 86 91 83 77 110 127 115 104 102 81 53 52 56 69 68 74 79 81 84 89 90 97 102 97 97 102 122 127 117 113 114 116 117 115 103 91 91 78 77 56 52 79 84 90 94 73 81 92 99 113 115 113 115 114 114 115 121 122 123 126 135 140 142 144 141 146 139 134 133 131 124 120 122 124 121 119 123 125 124 127 119 115 116 110 103 90 88 88 85 79 75 80 87 80 75 86 110 123 118 104 90 75 48 50 59 61 64 73 84 78 78 85 87 99 108 107 109 114 120 118 110 111 112 113 120 119 96 95 92 74 64 44 47 71 74 86 87 72 66 81 97 108 109 109 115 118 117 114 115 119 123 125 126 130 137 144 145 142 143 143 143 143 142 139 137 137 134 137 138 136 127 123 116 114 109 106 97 88 89 90 85 75 78 82 81 74 68 91 112 116 118 105 82 76 45 50 55 61 58 65 79 77 68 68 75 92 108 115 108 115 114 105 105 109 108 113 120 102 91 105 86 66 53 35 44 65 70 82 82 68 64 66 93 99 110 102 108 113 118 118 113 113 117 120 120 125 127 131 136 138 142 141 140 141 141 143 144 143 140 134 134 127 118 114 112 105 101 96 86 89 89 86 78 74 74 78 72 67 66 89 109 116 110 101 84 73 51 50 56 60 59 58 65 72 65 57 64 80 100 110 108 109 109 99 107 114 112 106 100 92 95 93 69 58 42 31 37 59 67 73 76 58 65 63 78 93 105 98 105 106 112 118 116 115 114 115 119 121 122 124 126 125 132 131 131 131 129 133 127 128 126 113 112 105 102 100 97 97 91 84 86 85 83 81 71 69 73 74 63 63 70 84 105 115 106 98 85 75 55 50 52 56 62 55 53 67 59 53 63 76 99 108 104 101 106 95 101 108 97 91 89 92 90 79 66 51 47 39 29 52 68 65 71 57 58 61 71 85 92 96 100 105 105 112 114 115 116 115 113 116 117 118 120 119 120 126 121 124 124 121 120 113 110 101 96 93 92 91 88 88 85 82 84 80 82 77 71 67 76 66 57 65 70 75 104 117 101 92 85 79 58 50 51 53 63 60 51 58 57 55 57 68 88 113 107 97 