P2
92
112
255
113 114 113 114 114 113 112 113 114 112 113 114 111 113 111 111 111 108 107 101 100 94 97 94 94 91 89 89 91 96 96 99 101 103 100 98 100 93 93 91 88 84 79 76 67 68 53 50 49 41 36 32 37 36 39 43 50 48 56 65 62 61 59 61 61 61 68 72 77 82 84 88 88 92 94 95 95 96 97 95 95 96 94 93 95 95 96 95 97 94 98 98 114 114 113 113 113 112 112 113 115 114 112 114 113 113 110 107 108 104 100 93 93 89 89 86 87 86 85 90 91 94 93 93 93 91 87 86 86 83 83 79 80 71 65 61 55 49 46 45 40 34 29 32 35 35 38 38 41 43 49 56 54 60 57 58 58 56 55 59 67 73 80 83 89 89 92 96 92 95 97 94 96 96 97 94 95 95 94 94 96 96 95 97 114 113 113 113 113 112 115 114 113 115 113 112 110 107 108 106 104 100 93 89 87 86 85 81 85 87 86 88 89 88 85 86 83 79 81 75 75 76 76 70 61 63 56 55 46 41 42 36 31 32 34 36 41 42 39 39 39 37 42 48 48 53 57 54 55 57 57 55 56 64 72 80 87 91 90 93 93 93 94 95 96 97 94 95 95 95 94 95 96 96 95 95 115 112 114 113 112 113 115 112 112 111 110 110 106 105 104 102 97 91 87 81 79 75 72 79 85 85 83 84 81 75 75 73 72 75 70 65 66 66 66 62 57 56 53 50 49 41 39 36 38 31 36 37 42 43 41 39 47 46 47 46 48 51 54 53 56 53 53 58 58 59 63 71 78 86 92 92 91 92 94 95 96 97 96 95 96 95 95 94 96 96 97 96 114 113 112 112 113 111 113 112 110 109 108 105 102 101 99 95 89 83 79 71 68 68 73 76 76 80 74 74 69 63 64 65 65 62 57 57 57 60 58 59 59 56 52 56 60 49 48 44 46 41 37 34 42 44 43 50 53 59 55 60 60 59 53 56 52 54 52 55 61 59 60 65 73 74 85 94 93 93 93 97 97 98 96 96 96 95 94 95 94 97 97 97 114 113 114 114 114 115 111 111 109 108 104 97 98 95 90 89 82 74 69 65 64 65 62 64 64 64 64 58 59 65 71 70 70 69 63 62 64 63 62 62 64 61 62 61 64 55 51 57 58 51 46 45 44 50 50 52 56 62 63 67 69 72 64 69 70 60 56 51 56 64 61 65 68 72 76 88 97 91 92 95 98 98 99 96 95 95 97 96 95 94 97 98 112 113 112 114 115 113 112 109 106 104 103 94 92 89 87 81 73 69 65 61 57 57 52 54 56 53 57 60 67 73 80 76 75 73 67 68 69 65 66 68 68 66 67 67 71 70 66 66 65 56 50 52 53 54 53 57 61 65 70 67 68 71 73 73 71 70 68 57 58 68 67 65 65 71 73 77 91 95 94 93 96 99 100 100 97 94 97 96 94 94 95 97 113 112 113 113 113 113 110 106 105 102 96 89 84 85 76 68 68 68 65 59 52 49 49 46 47 52 64 65 72 76 81 80 78 75 79 77 76 74 74 74 73 75 73 72 72 73 70 69 66 60 56 57 59 60 61 67 66 70 72 67 71 72 70 81 78 80 75 69 71 69 68 67 71 70 77 73 80 90 93 93 97 97 98 97 98 94 96 97 95 94 94 97 111 112 112 112 111 110 110 105 101 97 88 83 80 73 69 69 67 63 59 51 47 45 41 43 47 58 62 68 70 76 79 79 79 83 83 81 82 80 82 79 78 73 71 73 67 68 66 65 67 64 63 64 65 67 68 72 72 68 71 73 73 74 76 77 76 82 77 77 81 79 73 66 73 82 76 74 77 84 89 93 93 95 94 97 96 95 93 94 97 97 95 97 111 110 113 110 109 107 108 103 94 90 84 80 72 65 68 65 63 58 51 48 42 40 40 48 52 59 61 67 70 73 73 79 77 83 82 83 82 79 79 78 77 75 72 73 70 67 70 69 70 73 71 74 74 78 73 74 76 73 74 73 74 81 82 86 82 86 81 80 90 95 87 75 74 77 88 77 77 81 86 88 91 96 95 96 100 98 97 95 99 97 98 98 109 109 109 108 106 105 104 94 90 86 79 74 67 69 69 59 57 47 45 39 31 33 45 51 55 56 60 66 71 73 76 81 81 83 82 79 77 72 77 76 70 72 70 71 71 70 71 73 73 74 78 78 78 79 81 79 80 78 79 80 82 85 86 95 94 90 94 92 94 97 100 95 86 79 79 86 77 82 79 85 85 95 99 98 101 101 100 99 98 99 98 98 105 108 108 107 106 103 98 93 87 83 74 70 73 68 68 59 49 45 40 32 28 41 45 46 52 56 63 67 69 75 78 80 79 77 73 71 74 73 76 74 72 69 70 73 73 72 71 76 75 78 77 84 83 85 86 85 90 90 87 90 89 92 95 97 109 105 103 104 103 108 105 102 100 93 85 81 85 84 81 84 86 91 97 100 101 100 99 100 100 98 98 97 107 107 109 106 103 98 96 92 81 76 72 75 70 72 64 52 43 35 31 32 40 41 44 46 53 56 60 63 66 68 66 64 66 66 64 64 69 70 74 72 69 67 66 68 69 71 73 71 74 77 81 83 86 81 88 95 97 98 97 95 97 99 100 103 107 112 110 113 111 105 114 109 100 97 100 85 90 88 84 85 85 88 93 95 100 104 98 96 98 98 98 97 105 108 107 104 100 94 93 89 79 73 75 76 70 67 54 41 30 32 34 43 43 44 49 48 54 55 57 58 61 59 57 59 60 61 59 62 64 63 63 64 58 60 61 63 68 68 73 75 78 82 82 86 90 92 90 96 103 101 105 107 106 109 112 111 115 114 118 122 120 122 109 112 111 108 108 103 89 97 86 84 87 88 89 90 95 103 106 98 96 97 99 95 107 106 105 102 97 91 93 83 77 78 76 72 71 59 41 29 29 34 43 44 49 51 49 52 54 51 53 54 53 54 56 57 56 59 57 61 61 60 61 61 58 62 64 67 68 72 77 81 85 92 91 94 99 102 100 103 109 110 115 117 115 117 120 116 124 125 120 126 128 129 119 114 114 110 112 119 99 95 96 88 87 88 89 86 90 98 102 101 98 95 100 98 110 108 101 98 91 91 88 83 79 80 77 72 65 49 32 31 34 47 44 47 57 53 52 51 53 54 53 55 56 54 59 61 59 62 58 57 58 57 63 69 65 68 69 72 77 79 84 88 96 101 103 107 112 115 117 119 116 122 122 121 121 127 123 122 129 131 126 122 133 132 129 122 121 117 113 119 124 99 98 90 85 89 88 90 86 94 99 99 98 99 101 100 111 108 99 91 91 89 89 83 77 78 79 68 53 38 32 36 41 48 51 57 58 55 56 56 58 57 55 59 58 59 57 59 53 54 58 61 65 65 70 69 66 71 74 75 81 88 90 92 102 104 111 120 120 120 124 128 127 130 132 128 129 135 134 130 137 134 131 128 135 139 142 137 129 123 122 119 116 123 100 95 95 82 87 90 88 90 97 99 98 101 102 106 111 107 96 91 90 90 82 76 77 79 77 61 46 35 38 39 47 50 58 63 61 59 61 62 62 60 59 60 61 59 57 56 55 57 61 65 68 69 73 70 71 73 77 77 82 88 92 94 98 106 114 120 123 125 126 130 134 137 138 137 142 144 143 145 145 145 138 132 134 145 144 143 138 136 125 127 112 122 121 100 101 92 79 86 90 91 98 100 101 102 103 106 110 104 94 94 89 83 74 76 78 80 70 58 43 40 41 45 53 60 64 67 65 65 67 65 66 62 61 61 60 60 57 57 59 64 67 73 72 76 74 75 74 77 82 81 87 87 94 97 98 109 115 117 122 129 130 134 141 142 140 144 149 153 151 150 152 151 149 143 138 147 142 147 156 148 134 132 124 112 129 113 95 96 79 80 85 87 96 100 103 101 103 103 104 100 95 91 87 79 73 80 80 75 62 52 46 49 49 54 62 67 70 69 67 68 68 66 65 62 61 57 56 60 60 64 68 71 69 76 76 78 78 79 83 82 85 87 86 90 93 98 101 111 114 114 121 127 130 138 139 140 146 148 152 157 159 158 156 156 157 152 147 155 147 149 155 153 152 136 130 119 120 123 103 99 88 78 79 84 85 97 104 106 102 104 102 102 99 91 84 78 75 77 78 68 53 52 53 52 48 58 68 75 72 69 69 67 67 64 64 59 54 53 58 63 68 68 73 74 73 76 72 76 78 80 85 85 84 84 87 90 94 97 103 110 113 116 124 126 129 137 139 141 146 150 151 155 163 161 165 160 161 158 152 159 157 151 155 157 161 143 135 122 121 124 113 104 97 75 77 77 76 84 97 109 105 102 102 105 102 90 82 75 74 75 75 60 55 58 54 49 49 64 75 80 71 69 70 65 67 64 60 57 53 58 65 67 73 73 75 74 75 76 75 78 80 82 86 88 86 87 91 92 98 100 105 111 112 116 123 123 130 135 137 141 143 146 150 156 160 163 166 166 167 163 157 161 159 156 158 163 165 154 142 130 124 128 119 110 100 82 66 75 68 74 89 102 106 103 106 106 98 88 76 75 76 77 67 57 60 60 51 50 53 71 79 77 70 66 64 66 68 63 61 60 60 65 70 68 72 71 74 75 75 79 81 82 81 82 85 86 88 89 93 97 100 101 104 110 113 116 121 122 127 130 134 139 137 140 144 148 150 155 161 169 167 166 163 162 160 157 154 161 167 161 150 139 127 131 123 118 96 93 66 69 65 59 77 89 101 105 109 105 90 85 76 80 78 77 63 61 66 59 52 52 61 72 77 74 68 61 62 71 64 67 64 67 70 70 68 69 69 71 77 77 82 83 84 85 86 83 85 85 87 87 92 96 102 102 101 103 105 109 113 118 118 121 125 132 131 132 138 140 141 144 152 158 163 166 163 163 162 156 154 158 169 161 155 150 136 126 127 121 106 93 73 64 68 60 72 70 96 104 108 100 85 86 80 78 75 67 68 66 64 57 53 57 65 75 75 72 65 61 66 64 68 69 66 76 72 68 70 70 71 77 79 82 84 85 84 83 85 83 84 83 86 89 89 88 94 96 96 97 101 103 107 113 112 113 121 122 125 126 130 133 137 138 144 149 153 156 161 163 164 156 151 159 163 164 161 154 148 135 130 128 122 99 79 64 69 62 62 67 83 99 106 87 82 77 72 74 65 70 74 71 60 59 55 57 71 76 71 67 62 64 69 69 72 71 70 74 69 66 70 73 74 75 80 84 81 82 83 80 82 84 83 85 81 84 84 86 87 90 91 94 95 101 105 110 108 110 113 115 119 123 123 127 131 134 139 139 143 148 150 162 163 160 151 159 161 166 164 160 159 149 137 134 122 108 82 76 71 59 62 67 75 93 99 82 77 69 66 65 58 70 71 71 62 60 57 61 72 76 68 67 64 71 75 79 72 69 70 72 68 70 70 73 72 72 77 79 78 80 80 81 84 84 84 88 81 82 83 85 83 86 86 91 91 98 102 107 105 108 111 113 114 119 120 124 129 131 134 137 137 140 143 151 159 159 155 157 160 160 162 160 158 155 147 138 132 110 96 78 70 58 60 62 68 84 92 88 80 70 66 58 64 78 71 70 61 59 61 60 70 72 69 69 73 76 77 76 69 69 70 71 69 70 70 72 71 75 76 78 81 82 83 83 84 81 82 84 79 82 81 83 81 85 85 89 93 93 99 107 106 107 113 110 112 118 119 123 127 128 129 130 136 135 137 143 149 160 155 164 160 162 159 163 157 161 158 143 138 126 97 82 74 57 55 57 65 81 88 90 78 76 64 61 69 85 76 67 61 61 63 60 64 72 71 73 76 76 75 73 67 65 67 70 72 74 73 75 74 77 76 80 81 82 79 77 79 75 77 78 76 78 75 78 78 80 78 85 87 89 92 100 100 104 104 108 111 114 118 121 125 126 126 124 132 133 133 138 141 150 154 162 164 163 160 160 159 164 157 157 134 123 98 83 81 54 52 57 62 74 96 85 78 79 71 71 82 86 75 66 61 63 61 59 65 73 73 72 75 74 72 70 67 65 72 75 76 76 76 79 77 74 76 74 75 74 74 73 75 74 75 77 75 77 75 77 78 76 76 80 81 86 91 95 98 99 103 99 102 103 104 113 118 121 122 123 126 130 129 131 140 142 154 159 163 161 158 157 160 164 160 160 143 123 103 91 84 53 47 57 62 75 101 80 80 79 79 84 82 83 74 64 57 67 59 59 71 72 69 71 79 72 71 69 68 74 78 81 80 79 78 79 74 74 74 72 73 72 75 74 74 77 76 76 77 78 74 77 78 76 79 80 81 84 89 90 92 95 95 92 96 94 93 100 104 105 108 113 121 123 124 126 133 141 151 159 162 162 158 155 160 161 161 159 147 130 99 98 86 66 47 57 66 74 105 86 77 81 84 89 91 80 74 64 67 68 55 56 73 70 67 75 81 76 76 78 80 84 84 81 79 78 78 75 73 73 72 74 75 76 74 74 78 76 78 83 82 78 77 79 80 80 79 82 83 83 87 86 91 88 89 90 91 89 89 88 91 94 92 99 103 117 121 123 130 138 146 156 162 163 164 158 156 160 164 162 151 130 109 95 88 75 57 56 63 72 109 91 84 92 94 95 96 80 76 65 76 61 59 59 71 67 71 80 86 88 88 92 89 90 90 86 85 80 77 78 78 77 82 80 80 79 78 77 83 83 82 86 87 82 86 82 84 83 84 83 83 84 85 83 84 84 81 84 86 87 86 85 88 91 87 93 96 103 111 122 127 136 142 149 163 165 171 161 157 158 162 163 156 132 112 102 91 87 62 61 66 75 100 99 96 98 100 95 95 85 76 66 78 63 57 60 68 71 82 89 100 99 101 98 91 92 90 87 84 81 85 87 89 85 86 87 87 91 91 91 92 91 90 92 94 90 87 86 85 83 85 83 84 87 86 85 81 81 81 81 84 86 85 82 82 91 89 88 95 97 100 106 126 133 142 148 161 172 171 167 156 163 156 161 156 128 116 111 107 89 69 57 70 75 98 99 97 102 103 98 96 89 77 73 74 62 56 61 71 82 88 100 106 106 109 102 96 97 95 94 93 95 97 98 97 94 96 97 96 98 98 97 97 100 97 97 100 96 88 89 91 89 91 89 88 89 88 84 85 82 81 79 84 83 86 82 83 84 83 83 89 87 87 94 98 126 143 153 156 171 176 177 156 155 160 157 151 126 122 109 110 98 85 68 64 71 97 100 103 105 106 101 96 89 76 80 68 60 53 64 81 91 95 101 110 111 109 99 98 102 102 103 105 103 104 103 106 107 109 110 107 103 103 102 106 106 105 104 104 101 97 96 95 96 93 92 97 96 95 90 90 87 84 85 86 88 85 87 85 84 86 84 82 80 74 81 82 97 128 145 160 170 178 181 169 149 157 156 146 121 121 118 101 98 86 76 67 69 109 109 110 106 113 103 99 87 79 80 66 64 57 73 87 91 96 102 111 111 101 99 103 105 101 104 105 101 100 98 101 101 105 105 105 103 105 106 108 110 108 107 108 103 99 100 101 100 102 100 102 102 97 96 92 90 87 88 88 89 84 86 85 85 83 83 80 76 70 73 75 79 98 133 153 169 180 181 176 161 151 157 141 112 117 123 102 99 85 79 68 70 125 111 110 110 118 111 103 86 81 83 69 67 60 80 92 91 97 109 108 104 93 94 98 97 98 99 97 95 92 89 91 95 96 96 100 100 103 102 104 105 109 106 106 104 101 101 102 104 103 104 107 104 97 96 94 92 91 88 88 89 86 82 83 79 77 76 74 72 67 67 71 72 80 107 130 154 177 184 178 161 158 156 136 111 109 122 108 101 95 82 67 71 127 105 112 112 124 110 102 84 84 83 73 69 68 82 91 92 101 105 99 95 88 90 92 93 91 95 94 93 90 88 87 86 88 86 88 92 92 94 98 99 102 104 105 104 104 102 97 101 100 101 104 100 97 96 94 94 94 92 92 87 85 79 78 73 68 70 65 63 62 58 64 71 70 89 109 126 156 177 182 164 162 153 128 108 109 118 106 97 89 79 77 76 121 113 121 127 126 112 100 84 84 85 79 69 74 84 93 94 108 96 96 93 88 86 86 89 87 92 90 92 91 89 88 88 86 85 83 83 82 87 92 95 97 102 103 102 101 99 97 99 98 100 99 99 98 96 95 93 91 89 87 83 78 74 73 67 62 56 53 53 52 49 50 61 63 69 96 103 130 154 176 164 165 154 120 110 109 114 108 92 91 80 76 82 120 125 147 134 128 116 100 88 80 82 71 69 72 85 94 98 107 93 99 94 91 93 89 89 86 88 91 91 91 91 85 84 81 79 77 77 76 80 84 89 92 95 95 96 96 95 94 94 95 95 97 96 92 93 90 88 86 84 80 77 70 69 65 64 59 53 46 44 46 44 39 46 52 54 75 86 119 135 167 161 161 148 114 110 112 109 110 100 87 84 79 88 133 156 154 138 140 118 100 90 75 78 69 57 62 86 98 108 107 101 111 102 100 102 93 90 86 85 87 85 83 85 83 83 82 82 77 77 76 77 78 78 80 81 82 80 80 78 81 81 81 84 84 84 84 82 83 84 84 82 81 75 71 70 66 63 61 59 46 39 36 35 30 31 43 48 58 71 97 129 147 160 162 139 113 109 118 108 106 101 93 85 90 84 140 183 171 152 139 121 103 88 71 67 59 61 66 81 90 101 89 90 90 82 83 85 84 86 85 87 89 90 86 88 87 87 88 88 82 80 79 75 76 76 76 72 72 73 71 69 72 74 74 77 80 76 79 82 82 83 87 89 87 85 79 76 70 67 60 57 50 36 27 25 28 25 34 47 51 68 78 126 144 159 155 130 115 108 118 118 106 105 110 98 94 81 138 179 184 165 131 128 103 84 75 64 65 60 67 79 93 106 100 105 91 84 82 77 79 81 82 91 91 90 92 91 90 92 93 93 92 88 88 88 83 81 80 72 79 80 79 77 83 88 90 94 95 88 90 93 92 95 92 92 92 92 87 82 79 80 71 67 57 41 34 25 19 20 23 39 33 61 77 105 141 156 153 125 114 114 117 122 112 121 125 116 103 81 145 179 198 188 158 151 118 90 70 69 75 62 78 86 92 107 103 97 82 86 85 86 89 94 90 91 88 80 90 95 97 95 97 95 98 101 100 96 90 75 67 70 71 62 67 66 76 81 86 94 104 101 102 100 100 100 99 101 96 94 95 93 88 89 86 84 72 58 44 43 33 30 26 44 30 47 60 92 140 155 149 120 109 107 116 130 134 129 131 129 111 89 157 192 214 202 180 175 143 91 65 85 79 76 78 84 91 106 98 82 89 81 85 85 84 95 87 84 93 97 102 102 105 106 101 92 91 97 96 94 85 85 69 63 65 63 57 67 71 73 83 89 103 111 108 101 106 106 109 108 107 102 100 98 94 93 89 85 61 55 42 36 48 50 35 43 46 44 68 75 139 151 145 115 107 102 116 145 143 137 140 135 127 95 184 199 229 211 191 193 167 109 76 88 84 84 69 70 97 109 89 75 76 76 80 85 88 102 91 84 90 103 101 99 102 103 95 93 93 98 93 87 84 83 77 62 60 65 59 60 65 73 81 88 99 115 109 109 113 109 110 110 109 104 105 103 102 101 94 93 73 57 48 48 42 39 56 38 55 52 66 78 121 148 140 111 108 104 125 149 147 139 151 140 122 102 197 218 238 215 195 208 174 119 98 92 81 75 64 66 91 96 60 69 70 83 85 92 110 101 89 74 84 95 105 104 101 105 95 88 95 94 92 86 85 86 82 73 67 65 58 60 68 79 81 87 92 114 115 109 116 118 111 115 122 111 114 123 110 98 92 90 84 62 47 44 41 39 43 42 46 55 77 86 124 148 135 108 108 120 137 144 148 143 160 152 130 98 206 229 241 224 203 214 178 125 98 89 78 64 65 59 81 83 56 78 61 85 91 97 94 83 84 79 101 107 113 98 104 103 101 90 94 90 83 73 71 73 75 75 58 51 48 40 58 71 78 83 96 107 112 104 114 118 111 112 119 114 126 121 104 93 87 81 86 74 62 45 27 41 40 39 45 48 54 86 129 148 127 101 105 136 151 152 149 153 153 145 129 102 209 230 239 240 239 221 176 122 104 81 71 63 66 71 71 68 49 66 60 75 83 80 76 79 85 105 103 105 97 87 79 79 80 78 89 84 77 71 58 67 60 64 62 47 43 41 44 55 67 74 78 108 116 112 102 100 96 101 100 113 116 114 92 87 79 85 72 79 71 60 37 40 59 41 41 60 50 78 119 124 112 104 93 145 157 151 152 157 155 149 127 102 207 226 239 245 242 229 182 124 109 90 74 56 61 71 64 42 42 38 36 51 55 51 72 81 80 108 96 100 81 74 64 70 64 80 79 70 61 51 55 60 55 55 60 52 43 32 44 51 59 59 67 103 109 106 99 85 80 83 81 95 101 92 88 74 78 78 91 80 73 49 45 39 64 48 38 62 53 65 109 115 98 92 101 145 161 160 157 163 157 156 132 100 206 213 240 255 252 225 184 118 105 94 66 44 53 59 63 39 33 30 20 44 37 38 69 87 85 94 82 76 67 65 62 41 50 67 71 57 46 38 55 48 48 48 71 58 47 39 47 58 60 56 62 78 88 93 95 82 79 79 75 80 83 80 83 78 62 61 76 98 75 70 54 50 54 47 41 57 59 63 94 104 104 98 101 147 160 171 170 171 156 159 125 102 202 209 224 247 251 216 173 108 86 84 62 46 54 62 59 52 40 30 26 38 37 42 60 83 73 72 61 56 45 52 48 47 59 65 53 42 40 33 42 41 41 50 70 57 40 26 36 49 52 51 60 67 78 83 86 92 81 74 77 80 79 81 81 81 76 67 70 73 93 75 76 59 56 54 42 50 52 59 108 92 110 108 104 152 161 180 182 177 163 162 121 104 191 200 205 242 245 205 174 111 87 79 52 52 64 74 62 62 47 25 29 43 35 31 50 69 64 62 49 42 39 37 28 41 46 43 28 38 39 32 38 39 49 47 50 50 39 25 28 38 38 44 52 67 78 83 83 84 79 69 71 70 70 75 79 76 76 84 82 52 64 80 64 77 55 46 44 41 54 58 87 97 109 110 113 146 172 192 191 180 154 157 114 109 174 182 192 230 233 202 163 119 91 81 59 60 69 80 49 55 41 22 34 45 35 31 39 58 52 60 60 45 30 39 36 32 31 23 24 35 41 25 37 39 46 42 43 45 27 25 20 30 37 39 41 56 62 79 79 77 81 74 70 72 70 69 73 80 83 76 78 49 34 61 66 63 63 48 47 43 53 55 68 97 100 105 116 137 174 203 197 184 156 151 107 105 171 169 179 208 222 199 138 123 93 79 66 67 73 82 62 55 47 29 40 39 33 38 42 58 54 57 52 44 23 19 37 25 27 23 36 39 33 27 34 43 43 36 37 31 22 26 31 26 25 38 45 53 51 64 78 78 83 83 71 68 74 68 76 83 86 86 74 44 33 33 45 52 60 58 44 38 44 51 46 83 98 91 108 130 179 206 197 194 159 157 106 102 171 164 174 212 216 190 125 123 91 64 73 63 74 72 68 61 56 42 37 45 34 43 49 59 57 59 38 32 33 26 35 30 27 33 40 39 26 35 39 37 47 37 32 24 29 27 26 32 20 27 37 41 54 38 68 74 81 84 71 65 72 77 69 78 74 79 64 37 28 28 31 37 55 52 39 30 34 45 41 73 91 88 106 128 171 203 202 188 162 143 110 95 168 155 177 208 218 188 120 105 93 54 71 68 73 70 60 61 61 47 40 48 39 52 57 64 56 54 41 36 43 37 43 42 34 44 46 33 38 46 44 33 53 46 31 34 37 34 27 42 29 28 26 40 46 41 32 49 63 78 72 66 66 77 69 62 63 62 53 47 34 29 30 37 54 47 39 37 40 52 37 62 83 89 109 133 164 203 195 178 167 123 110 88 164 159 179 202 223 185 120 103 77 65 69 68 71 69 61 63 67 54 47 54 46 50 61 65 57 55 52 42 38 40 45 42 47 43 38 49 48 49 43 39 55 52 40 38 43 35 39 48 43 29 29 43 45 50 34 38 49 74 72 71 70 83 78 71 68 62 56 53 47 43 42 50 60 55 54 45 41 49 30 62 78 78 105 122 170 184 186 168 158 114 108 95 162 164 173 195 218 175 129 100 76 63 70 67 61 61 59 65 65 59 51 56 56 50 57 61 56 55 55 49 39 44 45 46 46 41 54 55 47 46 47 61 49 49 50 45 49 41 42 55 41 29 25 42 49 48 48 33 41 55 65 59 59 75 77 76 70 64 61 62 58 62 59 62 62 53 51 39 36 48 29 58 71 64 87 127 151 168 187 176 146 108 106 96 162 167 167 183 188 165 125 102 78 80 56 70 68 50 53 70 63 67 53 52 66 60 55 60 53 54 56 51 48 53 47 46 52 60 59 57 59 52 68 60 64 62 50 56 50 49 44 47 34 43 32 45 45 48 46 51 43 55 55 62 55 59 68 68 65 61 57 62 62 63 61 65 61 50 44 34 35 48 32 57 61 52 76 105 130 162 192 168 128 109 100 93 161 161 162 179 154 153 124 98 84 79 64 60 66 56 54 64 60 73 57 47 61 67 52 56 56 52 52 50 44 45 44 46 51 55 55 64 59 68 71 72 77 74 63 54 48 55 51 34 32 38 35 43 43 42 42 40 47 56 53 56 64 61 55 64 58 55 53 55 57 59 58 59 46 37 39 26 28 45 30 51 43 52 79 96 120 155 177 158 118 106 101 88 160 153 152 174 142 133 130 106 96 85 61 60 70 50 52 68 65 61 63 51 55 65 62 52 50 51 49 47 45 45 46 46 49 52 59 63 63 66 81 89 82 74 69 62 58 67 49 44 37 38 32 44 44 42 46 43 42 62 57 57 57 57 58 53 55 49 48 50 54 52 53 47 38 41 34 27 28 35 38 34 43 59 88 92 118 142 152 158 111 106 97 89 141 137 142 165 131 104 130 111 109 102 78 67 56 61 48 54 71 60 61 52 53 52 55 51 49 44 46 46 47 48 45 48 52 58 58 64 62 71 89 84 81 71 74 68 70 68 57 48 46 49 35 39 45 43 52 44 58 58 74 65 61 59 60 63 60 58 54 47 43 50 46 41 44 42 35 28 25 34 45 25 47 61 80 94 119 124 129 144 101 99 97 95 137 114 116 141 118 103 117 115 116 111 83 85 74 62 52 42 61 61 54 51 57 53 50 53 49 49 44 43 42 44 45 56 62 63 59 63 67 82 85 85 80 68 80 75 74 71 65 61 54 49 39 39 45 53 53 45 62 65 70 76 70 67 63 66 62 60 60 58 53 54 48 44 43 43 34 25 25 40 36 25 51 70 101 108 124 133 120 117 88 95 94 98 136 122 105 126 104 113 110 120 114 102 91 84 85 73 64 60 48 61 53 47 51 53 58 56 50 46 44 44 48 48 53 59 56 59 59 72 71 74 83 86 81 80 88 80 70 80 78 75 70 58 53 56 60 50 49 54 71 78 78 80 79 73 68 75 66 54 52 52 47 55 52 45 45 42 35 29 31 35 30 23 53 90 107 113 125 128 113 92 84 94 93 91 136 129 108 120 102 107 115 106 100 99 88 75 85 77 71 64 59 55 50 45 47 54 57 60 52 48 47 49 51 54 56 53 53 61 61 63 69 72 82 94 97 97 104 89 80 87 90 86 83 68 76 79 80 59 48 48 64 79 79 74 78 72 72 71 72 68 57 52 46 39 38 33 33 31 24 18 22 36 25 17 63 91 126 127 134 115 97 70 83 94 91 96 130 133 109 116 104 92 122 98 90 92 93 75 80 75 74 74 70 62 56 48 55 58 55 55 53 46 42 49 51 56 53 52 55 56 58 62 70 79 92 97 93 94 101 94 89 93 100 100 97 86 82 88 81 73 65 70 78 80 80 76 76 72 75 77 71 72 66 68 60 55 45 44 43 36 28 22 32 29 26 33 67 105 145 133 148 107 75 60 83 93 93 101 115 129 108 102 99 76 113 100 81 84 92 76 89 80 76 73 72 67 68 57 56 60 53 46 52 54 53 56 61 62 55 54 52 52 63 74 82 95 102 108 103 108 106 95 96 99 103 104 105 100 97 94 88 88 82 82 84 82 83 77 73 74 78 78 76 72 67 59 55 48 40 37 35 23 27 31 31 36 30 40 86 108 149 129 129 117 53 63 77 93 93 102 109 113 105 91 90 72 89 90 69 68 83 75 91 81 81 77 77 78 75 72 61 59 53 46 49 57 53 56 61 55 54 48 52 58 63 70 83 108 109 110 104 103 102 95 92 99 105 105 106 101 101 99 97 95 94 89 93 91 88 83 76 74 79 83 81 76 71 68 56 51 54 45 46 35 34 29 27 28 37 57 93 108 128 115 118 107 41 68 74 92 100 101 110 104 99 87 80 77 66 86 55 61 79 80 93 82 81 83 83 82 78 74 69 59 61 57 57 57 60 65 64 57 64 64 62 67 73 71 81 102 106 108 101 97 98 100 99 109 107 106 108 99 100 95 88 87 83 83 90 95 96 89 80 76 77 81 83 80 78 75 66 53 54 51 52 41 41 36 27 29 44 71 92 117 126 107 115 81 40 66 75 92 104 103 114 109 93 80 70 67 60 76 55 56 76 76 92 83 85 88 85 84 76 77 72 65 58 59 64 65 71 72 65 64 69 68 69 65 80 75 69 84 100 99 101 96 96 100 101 107 104 103 99 97 96 90 79 78 74 75 79 89 95 89 83 78 76 78 81 85 87 82 75 58 58 51 47 46 48 39 31 38 52 69 87 109 109 112 81 57 49 64 74 98 105 101 112 112 93 78 64 60 63 58 50 59 79 67 91 85 88 92 85 83 79 76 75 66 59 62 69 69 78 72 68 70 67 70 72 70 71 72 69 77 83 89 98 98 104 108 102 104 102 97 97 92 97 91 79 70 65 61 68 78 90 92 85 79 77 81 90 92 93 95 82 72 69 62 55 57 49 37 35 44 55 60 75 95 77 75 45 36 47 56 74 99 101 102 113 108 99 81 63 52 65 63 45 57 74 55 82 89 88 94 87 81 78 74 68 63 65 67 70 74 79 71 73 74 68 75 83 84 78 71 73 79 80 91 97 106 108 119 114 107 101 100 96 96 99 95 82 74 67 62 70 76 75 82 86 85 85 87 96 96 100 103 92 84 73 65 64 59 49 39 40 45 50 57 61 77 49 52 16 25 41 52 80 98 100 104 117 105 96 87 66 52 64 80 61 53 69 48 65 88 88 91 86 81 78 72 67 62 67 69 69 75 77 69 74 72 74 83 98 89 85 74 78 84 84 97 106 111 116 122 122 109 103 103 96 96 98 98 91 91 84 83 86 83 84 82 88 92 91 90 99 101 108 104 92 86 79 65 64 60 46 42 43 45 38 36 44 47 37 33 9 17 38 57 80 97 102 102 116 106 100 96 79 51 59 91 67 47 67 60 64 79 89 93 85 78 76 73 72 66 67 65 68 75 79 74 76 77 89 90 96 96 93 89 79 84 89 96 100 107 107 109 112 105 102 98 92 89 91 96 89 92 101 93 101 101 97 93 93 94 97 96 96 103 113 111 90 84 81 64 63 58 48 47 46 46 22 17 23 18 18 23 0 13 44 67 78 98 105 97 115 110 104 101 87 66 54 91 75 49 70 64 70 80 90 93 90 78 74 72 73 65 70 66 66 76 79 84 83 92 104 106 105 106 103 95 87 82 91 94 93 89 84 87 92 101 102 98 85 75 77 80 73 75 90 91 102 107 109 103 102 100 98 101 100 99 106 122 91 81 82 69 62 57 51 50 45 37 18 9 14 12 21 17 4 21 54 71 80 100 105 101 115 113 107 99 94 75 64 92 80 58 74 64 75 78 91 87 91 84 75 78 69 65 68 66 71 75 83 89 89 104 113 120 126 120 106 98 96 84 93 92 88 89 79 78 79 89 92 90 88 79 78 85 67 72 82 87 100 112 113 105 107 103 99 105 105 99 108 118 98 79 79 72 64 59 51 54 48 32 18 5 10 15 25 17 6 30 61 71 91 102 105 103 110 115 110 98 97 85 73 93 90 66 82 71 75 73 90 88 91 84 71 74 74 72 69 64 70 71 89 93 102 113 117 125 129 126 119 109 113 98 96 102 89 93 84 84 92 97 96 96 97 98 93 92 89 91 98 105 110 111 114 110 106 103 104 105 110 103 101 115 101 83 75 70 64 56 46 52 44 26 26 12 12 24 22 13 10 41 63 79 96 103 106 105 108 115 112 102 98 95 80 81 81 85 78 76 73 78 91 97 98 89 74 71 72 72 70 65 68 77 94 106 114 116 123 131 135 134 127 127 124 118 113 104 99 86 84 82 93 99 92 98 92 97 99 97 95 99 109 117 119 118 116 112 109 107 106 109 111 110 97 106 94 78 69 68 66 56 46 52 40 32 29 17 26 30 19 14 30 59 76 90 97 104 105 105 111 117 111 102 101 98 93 74 82 83 91 85 76 80 98 99 105 99 74 76 73 70 67 66 71 82 103 108 112 117 128 132 138 141 136 132 128 124 120 100 100 93 90 91 91 102 103 104 103 110 111 107 107 115 123 134 136 134 125 115 116 110 110 109 116 113 98 103 90 77 69 67 65 54 51 54 37 43 34 22 37 38 28 30 58 74 92 95 98 103 102 102 115 118 113 106 103 102 97 87 84 73 80 93 84 87 101 105 108 102 77 71 67 67 62 60 74 84 107 114 116 123 131 138 143 140 138 135 137 132 122 115 113 114 115 114 109 113 110 112 113 117 119 116 120 130 136 139 140 136 133 124 120 110 107 109 114 114 101 97 82 74 69 67 69 56 50 57 41 48 33 31 50 52 45 60 81 89 93 97 100 102 101 98 118 117 114 108 105 106 101 90 83 78 73 84 82 81 97 108 109 99 84 65 60 64 59 54 65 76 91 105 117 118 124 132 137 135 134 122 116 125 125 112 101 115 113 108 114 119 113 116 115 115 117 123 123 135 134 137 133 131 131 129 117 111 109 99 104 106 100 98 77 67 73 68 68 57 54 60 49 43 34 41 60 59 62 83 86 94 93 96 101 100 101 97 118 117 118 112 107 108 106 96 84 82 70 74 77 76 89 110 111 98 92 62 58 60 52 53 60 72 81 92 94 96 96 106 111 111 112 105 98 96 111 102 92 97 98 98 101 110 111 107 110 110 112 120 117 120 119 122 123 113 110 109 102 102 103 96 93 100 100 98 82 71 72 65 61 55 62 61 52 47 38 57 71 71 86 87 90 95 95 94 100 98 100 99 115 117 118 114 109 110 110 100 92 80 69 70 74 75 89 110 113 102 89 66 57 56 48 44 49 57 74 83 86 89 86 86 99 89 84 85 81 74 70 74 78 85 89 82 89 94 94 89 93 97 105 109 106 98 97 90 88 88 90 94 89 94 96 93 91 96 94 98 85 80 66 67 64 56 61 58 58 48 50 81 84 80 89 91 95 95 98 88 94 98 98 98 113 115 116 115 111 115 110 105 99 83 78 68 70 71 83 111 113 106 88 72 58 55 50 42 45 56 77 74 78 85 86 85 83 76 72 68 59 62 45 34 39 45 56 51 50 60 55 61 73 77 88 87 92 84 89 77 72 70 82 78 78 92 92 89 87 93 92 88 83 82 74 67 63 56 67 59 55 53 72 88 90 82 88 93 95 96 99 88 89 99 95 99 115 114 116 116 115 117 105 104 102 95 83 71 65 77 78 102 111 104 90 77 61 58 53 56 53 62 78 76 68 75 79 85 81 78 75 62 59 50 46 34 38 37 40 43 37 48 58 68 78 79 78 84 83 81 79 72 66 65 71 69 68 83 83 84 83 85 85 82 79 78 75 68 56 59 68 56 56 67 84 91 95 84 87 97 96 97 96 90 85 96 99 95 116 116 115 115 122 116 95 104 101 103 89 80 60 78 77 106 110 106 96 78 71 64 56 59 60 70 81 87 79 71 76 87 79 77 71 67 57 50 48 43 37 44 48 50 52 64 74 79 86 86 86 86 78 81 73 78 74 72 71 73 78 77 80 81 86 86 90 86 82 77 73 63 58 65 67 51 63 83 88 93 95 88 91 92 96 98 96 92 86 92 99 96 115 116 115 116 123 107 92 105 100 100 99 91 66 72 78 104 108 101 106 88 76 79 62 65 64 71 88 94 93 81 79 78 76 73 72 69 59 53 56 45 49 54 60 68 68 73 84 88 86 89 85 82 71 70 62 73 71 79 76 77 82 75 84 85 88 88 88 89 87 69 69 60 65 69 65 54 73 85 90 96 94 90 93 93 99 97 99 90 87 92 97 95 111 115 113 118 115 100 89 100 99 100 103 98 76 70 82 102 115 107 107 94 79 86 75 67 69 71 82 92 95 85 81 80 76 73 73 72 71 66 60 55 58 63 61 79 81 78 86 88 87 88 88 84 77 73 73 73 73 76 79 86 80 83 89 86 86 90 88 86 83 72 66 63 72 79 63 60 84 86 94 95 94 90 94 96 99 97 96 94 87 89 97 93 113 112 111 115 103 93 92 95 100 100 104 105 85 72 81 98 118 109 105 100 93 90 90 77 77 78 87 88 96 88 81 83 86 78 83 79 78 80 78 75 80 78 84 87 90 84 87 88 88 92 94 94 86 84 79 78 74 80 84 89 80 87 92 86 86 88 91 85 79 77 72 65 79 86 54 61 84 87 94 95 91 93 96 100 99 98 94 92 89 84 95 91 113 110 112 106 95 93 95 92 99 99 106 112 91 77 79 98 113 111 99 99 100 98 91 95 84 81 86 91 94 94 90 95 92 86 86 85 85 85 81 85 87 89 88 91 96 94 98 100 101 102 102 104 100 93 89 85 84 84 91 87 81 80 91 89 83 85 89 83 76 82 81 66 91 94 54 65 82 88 95 92 87 92 97 97 98 96 94 91 88 82 90 92 107 110 107 101 95 94 93 89 96 104 104 119 96 78 86 102 110 112 99 103 96 103 93 98 96 79 79 94 86 90 91 98 95 89 87 88 85 84 82 85 84 81 83 93 93 92 98 104 108 106 109 104 101 97 87 87 86 87 84 86 83 79 90 91 92 83 88 86 77 87 85 77 108 89 58 78 80 91 90 88 90 90 95 94 100 97 92 94 87 80 87 90 107 106 100 98 94 94 90 89 95 101 108 119 104 77 87 105 113 113 102 104 97 99 107 95 98 86 79 88 86 90 83 90 89 83 86 89 82 80 82 75 78 75 79 87 89 85 87 89 96 90 95 94 86 88 83 81 79 80 77 76 82 83 87 95 89 88 86 89 87 96 88 92 118 79 45 73 87 83 82 85 89 90 91 92 99 93 95 91 89 84 85 86 103 103 96 95 94 93 90 85 93 97 112 121 108 80 87 113 121 121 112 106 99 100 101 105 101 95 90 84 90 87 84 85 84 73 76 81 77 77 72 68 68 67 69 82 80 79 82 81 84 88 85 80 75 74 74 71 72 75 73 72 76 81 84 83 85 89 87 93 97 97 94 110 115 70 39 69 80 81 76 80 86 88 85 92 92 94 89 93 89 83 84 84 98 100 93 93 93 92 85 82 91 94 109 120 105 90 92 114 127 129 120 112 102 89 100 100 103 99 92 89 88 83 83 80 77 76 75 77 71 70 66 60 56 57 63 67 67 69 69 77 75 83 76 68 69 66 70 71 77 76 70 79 79 81 86 88 89 95 99 98 106 101 107 113 108 63 40 68 75 72 81 78 84 81 81 86 88 90 87 93 85 81 81 80 96 96 91 93 91 93 79 78 89 90 111 117 104 102 102 111 132 133 122 118 111 85 99 105 103 101 94 95 93 89 82 82 81 84 84 87 77 69 61 57 52 54 59 62 58 62 72 72 73 79 71 70 70 69 71 71 79 78 79 77 84 79 87 93 87 101 105 105 104 113 110 106 97 52 40 67 74 67 76 85 76 75 77 82 78 83 87 88 80 79 79 79 94 91 88 92 87 90 74 75 84 85 114 116 107 105 109 105 139 138 134 126 117 95 99 109 107 105 101 100 101 100 88 89 88 88 95 97 89 81 76 74 74 77 77 75 77 77 86 87 83 85 81 82 82 77 77 77 80 87 83 86 84 85 87 97 88 103 113 107 114 114 109 92 78 42 39 71 76 68 76 81 77 71 76 79 73 73 83 83 80 81 76 78 89 88 87 89 84 83 68 72 80 84 107 118 104 97 107 113 138 146 139 130 122 106 104 99 114 109 108 108 108 105 94 100 102 96 102 105 100 94 92 89 89 91 93 93 97 94 94 91 94 92 92 92 88 82 83 87 92 95 98 90 89 88 91 105 96 110 114 110 118 114 90 88 77 40 44 76 81 72 79 76 79 74 74 75 72 70 77 79 77 77 77 76 83 89 86 86 81 74 70 70 75 77 102 115 100 91 102 114 145 149 147 133 130 114 113 99 108 113 107 112 109 113 104 103 108 105 100 100 103 103 95 92 95 96 100 99 103 103 98 100 98 99 100 98 95 92 97 105 103 104 102 101 96 98 102 109 111 114 111 115 122 94 85 82 61 34 48 76 79 80 82 80 72 80 71 77 72 67 75 77 72 76 75 74 83 89 84 86 76 69 74 64 69 69 99 102 95 91 100 116 149 151 153 139 136 118 122 112 103 114 113 112 110 114 111 106 108 106 107 111 106 107 106 104 104 104 103 105 106 107 107 108 108 105 104 104 103 103 108 109 111 109 107 102 107 108 110 110 116 116 113 117 104 88 85 72 41 27 50 74 80 77 84 83 75 79 77 76 71 71 74 73 68 71 76 71 83 83 81 79 68 68 73 59 61 65 99 94 84 91 99 110 148 156 153 143 147 114 123 124 107 113 114 114 115 120 117 115 114 112 111 117 115 115 109 111 108 109 104 105 106 106 109 106 106 104 107 107 109 107 110 113 116 111 116 105 115 114 115 119 118 118 116 109 96 84 78 57 36 16 40 77 85 80 80 86 83 79 79 76 75 70 70 69 67 67 70 69 79 81 81 78 66 70 70 56 56 65 97 83 73 97 97 107 131 151 155 155 151 116 114 120 109 119 124 119 115 121 121 121 123 120 116 117 118 115 115 111 110 111 108 106 107 108 112 107 106 107 112 112 115 114 115 115 118 116 121 118 118 120 120 121 119 119 115 102 101 89 74 58 35 11 39 66 87 82 78 82 86 83 76 79 71 72 66 64 66 67 66 66 80 79 77 72 63 71 67 53 58 63 84 71 79 97 100 111 117 143 170 163 153 126 121 114 106 123 130 129 124 127 128 132 130 128 125 124 124 120 119 119 118 117 118 114 116 112 114 115 113 114 117 115 116 120 122 120 125 118 125 123 123 123 123 124 117 116 111 107 102 89 68 47 32 23 41 60 74 82 85 78 84 85 78 73 74 68 64 63 67 66 66 65 78 74 73 68 62 68 58 49 56 61 75 64 86 94 97 105 120 128 173 169 151 132 126 111 106 124 127 135 131 133 134 143 142 137 137 134 130 127 126 127 130 122 128 123 122 123 120 124 123 121 123 123 124 127 129 130 129 121 126 127 126 123 124 124 112 109 112 112 98 84 54 38 35 28 34 60 73 80 81 80 81 81 80 73 78 66 60 59 63 65 64 62 69 67 65 58 54 60 53 45 53 62 64 56 93 86 89 108 121 132 158 161 158 128 121 114 112 120 122 139 144 143 148 149 150 147 142 142 139 138 137 138 137 132 140 135 132 135 134 130 132 129 127 136 132 137 136 135 129 128 128 130 126 130 129 119 112 110 117 115 104 78 51 23 29 31 30 57 74 81 79 78 78 69 85 81 73 70 57 56 60 64 60 61 56 55 50 45 45 47 49 44 43 54 40 63 91 75 100 109 120 142 146 149 152 133 114 123 118 113 120 132 151 159 156 156 160 161 155 150 153 155 147 146 145 146 147 146 142 147 144 142 140 145 148 148 144 144 139 138 131 130 132 135 136 131 129 117 112 116 119 117 103 81 47 25 30 27 35 63 69 74 82 76 71 61 75 88 74 70 53 50 54 54 56 50 47 48 43 40 42 41 43 39 38 38 32 67 78 86 103 105 119 141 141 144 145 133 119 129 125 117 116 124 142 156 155 153 163 170 167 164 163 166 165 162 158 159 159 157 157 157 157 155 151 157 158 158 152 145 138 136 136 134 139 139 135 127 126 115 116 113 109 110 88 81 37 25 32 11 42 63 74 70 71 77 71 60 62 76 76 64 56 46 44 43 42 39 42 37 38 36 35 35 34 38 34 30 32 69 75 96 96 107 119 141 152 136 140 121 119 134 124 126 123 124 133 140 148 153 160 166 174 171 173 173 173 175 168 174 169 166 165 166 167 168 169 164 165 157 152 148 138 141 139 143 144 133 135 131 126 117 118 116 115 100 88 79 27 28 15 17 36 52 75 67 59 65 70 62 53 68 81 65 56 51 43 38 38 34 38 35 34 29 20 26 25 30 30 33 29 54 73 91 106 122 125 132 155 140 124 111 112 127 134 119 130 131 127 132 139 149 155 162 171 171 174 179 179 179 176 178 178 173 174 174 173 173 172 170 161 156 155 146 143 139 151 152 143 142 138 130 123 116 117 120 108 90 85 89 46 34 9 25 31 51 62 58 56 53 59 75 54 57 76 70 56 50 39 34 34 36 32 23 20 14 15 14 16 31 31 24 18 47 82 98 129 138 124 130 145 141 125 109 101 114 133 132 128 130 131 124 124 141 150 147 155 163 170 173 171 178 177 181 180 182 177 176 176 172 170 165 158 157 151 146 147 153 152 148 147 147 140 132 117 114 116 112 98 89 78 83 56 40 12 28 20 47 52 44 57 58 52 63 69 57 61 68 58 43 33 27 28 34 26 8 6 10 8 12 23 31 17 14 17 63 96 105 125 145 119 129 138 138 125 118 94 109 119 131 129 132 136 130 126 128 140 149 144 151 156 162 160 165 168 169 168 170 174 174 173 169 164 162 157 153 145 152 154 154 150 152 148 148 139 124 113 114 113 106 90 84 78 79 43 23 18 26 27 39 51 40 57 70 54 54 71 56 52 64 61 48 33 24 26 35 