P2
92
112
255
113 114 113 114 114 113 112 114 114 112 113 114 111 112 110 109 108 106 105 99 97 92 95 93 93 91 90 90 93 97 97 100 102 104 103 101 103 95 95 93 89 85 80 77 67 67 51 48 47 39 34 31 35 35 39 42 49 46 55 63 60 59 57 59 59 59 66 70 75 80 83 88 88 92 93 94 95 96 98 96 97 98 96 94 96 95 97 97 99 96 99 99 114 114 114 113 113 112 113 113 115 114 112 115 113 112 109 105 106 102 98 91 91 86 87 84 85 86 85 91 92 94 94 94 95 93 89 89 89 85 85 80 80 72 66 62 55 49 45 43 38 32 28 30 34 33 36 37 41 42 47 54 53 59 56 57 55 54 54 57 65 71 79 82 88 89 91 96 91 94 97 95 97 97 98 96 96 95 95 95 98 97 97 98 114 113 114 113 113 112 115 114 113 115 113 112 109 106 106 104 101 98 90 85 83 82 81 78 83 85 83 87 88 88 86 87 84 81 83 77 77 77 76 71 61 61 56 55 46 41 42 35 30 31 33 35 40 40 37 37 37 35 41 46 47 52 56 53 54 56 55 53 53 61 69 78 85 90 89 92 92 92 93 95 97 98 95 97 97 96 95 95 97 98 97 97 115 112 114 113 112 113 116 114 112 112 111 110 105 103 102 99 94 87 83 76 75 70 68 75 81 81 81 82 79 75 75 74 73 77 71 66 67 67 67 63 58 55 53 50 49 40 39 36 37 29 35 35 39 41 39 37 44 44 45 44 47 50 53 52 55 53 53 57 57 57 60 69 76 84 91 91 91 91 94 94 96 97 97 97 97 97 96 95 97 98 98 97 113 113 113 112 114 112 115 113 111 110 109 106 102 99 96 92 86 78 73 65 63 62 68 71 71 75 71 72 68 62 63 65 64 62 57 58 57 61 60 60 59 56 53 57 60 47 47 43 45 40 37 34 42 42 41 47 52 56 53 56 58 56 51 55 51 53 51 55 60 58 59 63 71 73 84 93 92 92 93 97 97 97 96 98 97 97 96 97 95 97 99 98 114 113 114 114 115 116 112 112 110 109 105 97 96 93 87 86 77 68 63 58 57 58 56 59 59 60 60 56 57 63 69 68 69 68 63 62 64 64 63 63 65 62 63 63 65 55 51 57 58 52 46 45 45 50 50 51 55 60 61 65 67 70 62 67 68 58 55 51 56 62 60 62 66 70 75 87 95 91 91 95 98 98 98 97 97 97 99 98 96 95 98 100 112 113 113 114 116 114 113 110 107 105 103 93 90 87 83 76 67 63 59 54 50 49 45 48 50 48 54 57 65 70 78 74 73 72 66 69 70 67 67 69 69 67 69 68 73 71 67 67 64 55 50 52 53 54 53 58 61 65 69 66 66 70 72 73 71 69 68 56 57 68 66 63 63 70 72 76 90 94 93 93 96 99 100 99 97 96 99 99 96 96 96 98 113 112 113 114 114 114 111 107 106 103 97 89 81 81 71 62 62 60 58 52 44 42 42 39 41 47 60 62 69 74 78 78 75 74 77 75 74 72 71 71 71 74 72 72 72 73 70 70 65 59 56 57 59 60 61 68 66 70 72 66 71 71 70 80 78 80 75 69 71 69 67 67 70 68 77 73 79 89 92 92 97 97 98 98 98 95 97 98 97 96 95 98 112 113 112 113 112 111 111 106 103 99 88 81 76 69 64 63 60 56 52 44 40 38 35 36 41 52 57 64 66 72 76 76 77 81 81 79 79 77 79 77 76 72 71 73 67 67 65 64 66 63 63 64 64 66 68 73 73 68 70 74 73 74 76 77 76 82 78 78 81 80 73 66 72 81 75 74 77 84 88 92 93 95 94 97 96 96 94 95 99 99 97 99 111 111 114 111 110 107 109 105 95 91 83 77 67 60 63 59 57 51 43 41 36 33 33 42 46 54 56 63 67 70 70 76 75 81 81 81 79 77 76 76 76 73 71 72 70 67 70 69 69 72 70 74 73 76 73 75 77 74 75 75 77 84 85 88 83 87 81 81 90 96 88 76 75 78 88 77 78 82 86 88 90 96 95 95 100 98 98 96 99 99 100 100 110 110 109 109 108 106 106 96 91 85 78 71 64 64 63 53 50 40 38 32 24 26 38 44 49 52 56 63 68 70 73 78 79 80 79 77 75 71 74 74 69 70 68 70 71 70 71 74 73 75 78 77 77 78 81 79 81 80 82 81 84 89 90 99 98 94 97 95 95 99 101 96 88 81 80 86 78 83 80 85 85 95 100 98 100 102 100 100 99 100 100 100 105 109 109 108 106 104 100 95 88 83 72 67 69 63 62 53 43 39 34 25 21 33 38 40 48 52 59 63 66 71 74 77 77 74 72 69 72 71 74 73 70 66 67 71 72 71 71 76 75 78 78 85 83 85 86 86 90 91 89 92 91 96 99 101 113 109 107 108 106 110 108 104 103 96 87 82 86 85 82 85 87 91 98 100 100 100 99 100 101 99 100 100 108 108 110 107 103 99 98 93 81 75 70 72 65 66 58 46 37 29 24 25 33 34 38 41 49 52 56 60 63 64 62 62 63 64 62 62 67 68 73 70 67 65 64 67 69 71 72 71 74 77 82 84 87 81 89 96 97 99 99 99 100 102 104 107 111 116 115 118 116 108 117 113 103 100 104 89 93 89 85 86 87 89 93 95 101 103 97 96 99 99 99 99 106 108 107 105 100 95 94 88 78 72 73 73 66 62 50 37 25 26 28 36 37 38 43 42 49 51 52 54 56 55 54 56 57 58 56 59 62 60 61 62 57 60 61 64 69 70 74 77 80 83 83 87 91 93 91 97 104 102 107 110 110 113 116 115 120 120 122 126 125 126 112 115 115 111 112 108 93 101 88 86 88 90 91 90 95 102 104 97 96 97 100 96 108 106 105 102 98 92 92 83 76 75 73 68 68 55 37 24 24 28 37 37 43 45 44 46 49 46 48 49 49 50 52 52 52 56 53 58 58 57 59 60 58 61 64 68 69 74 78 82 85 93 92 94 100 104 102 104 110 113 119 121 119 122 124 121 130 130 125 130 133 133 124 117 117 114 115 124 104 99 101 91 89 90 91 87 91 98 101 99 97 94 100 99 110 108 101 99 92 92 88 81 76 77 74 68 61 46 27 26 28 40 38 41 50 47 46 46 48 49 48 50 51 49 54 56 54 57 54 53 55 54 61 67 65 69 69 73 78 80 86 90 97 102 104 107 113 116 119 121 118 124 125 125 126 131 128 128 134 136 132 127 137 136 134 127 125 121 115 123 129 103 102 94 89 92 90 93 87 93 99 97 96 97 100 100 111 108 99 91 91 88 88 81 74 76 77 66 50 34 28 31 35 42 44 51 53 50 52 52 52 52 49 53 53 53 52 54 49 50 53 57 60 62 68 67 66 71 74 75 82 90 92 93 104 106 112 120 121 122 125 130 128 132 134 131 134 139 139 136 142 139 137 133 140 143 145 141 134 128 125 121 121 129 104 99 99 86 90 93 90 90 96 98 96 99 100 106 111 106 96 91 90 90 80 73 74 77 75 60 44 32 34 34 42 44 52 59 57 55 56 57 57 55 53 55 56 54 52 51 50 53 56 60 64 66 70 67 71 73 78 79 84 90 95 97 100 108 116 120 125 126 127 131 135 138 140 141 146 148 147 150 149 149 144 139 141 151 147 147 142 141 130 130 116 127 127 104 106 95 83 89 93 92 98 99 99 100 100 105 109 102 94 94 89 82 70 73 75 77 68 56 42 37 38 41 49 55 60 64 62 61 62 60 61 57 56 56 54 54 51 52 54 59 62 68 68 72 71 72 72 77 83 82 88 90 97 99 101 112 118 119 124 130 132 135 143 145 143 148 152 157 155 154 157 155 152 148 145 152 146 150 160 152 139 137 129 116 134 118 99 99 82 83 88 90 97 99 100 98 100 101 102 100 96 91 86 78 70 78 77 72 59 50 44 46 46 51 59 65 67 67 64 65 64 62 61 58 57 53 51 55 56 59 62 65 63 71 72 75 76 76 81 82 86 88 88 92 96 100 103 113 116 116 122 128 130 138 141 144 149 151 155 160 163 161 160 161 162 157 153 160 152 152 157 157 156 140 135 124 123 127 108 103 91 80 82 86 86 97 102 103 98 101 102 102 100 91 83 76 72 74 76 66 50 50 51 50 45 56 67 73 70 67 67 65 63 60 60 56 50 50 54 59 63 63 68 68 68 72 69 74 77 78 85 85 85 86 89 92 97 98 105 111 115 118 125 127 130 137 140 144 150 152 154 159 167 165 168 164 166 162 156 163 160 154 158 160 165 147 138 126 125 127 118 108 99 78 80 79 78 85 96 106 101 99 102 105 102 90 81 73 72 73 73 58 54 57 52 46 47 63 74 78 70 68 69 63 63 61 57 54 50 55 62 63 69 68 70 69 70 72 72 75 77 80 86 88 88 89 93 94 100 101 106 112 113 117 124 124 130 135 138 143 145 149 153 159 163 167 170 169 171 167 161 165 163 159 162 167 168 159 146 134 128 131 123 114 103 84 69 76 70 75 89 100 102 100 105 106 98 87 75 74 74 76 67 55 59 59 48 48 52 70 77 75 70 65 63 64 65 60 58 57 58 63 67 66 69 67 71 71 71 75 79 81 79 81 85 85 88 90 93 98 101 102 106 111 114 117 121 122 127 130 135 141 138 143 147 151 153 159 165 172 170 169 167 165 164 160 157 164 171 164 154 143 131 135 126 121 99 95 69 71 66 61 78 87 97 102 107 104 90 84 76 79 77 76 62 59 65 57 49 51 60 72 75 74 68 61 62 70 62 65 61 65 68 68 67 67 67 69 74 74 78 80 82 84 85 82 84 84 86 87 92 97 103 103 103 104 107 110 114 118 118 122 125 132 133 134 140 143 144 147 155 161 166 169 166 166 165 159 157 161 173 164 158 153 139 130 132 124 109 94 76 66 69 62 73 69 95 100 106 99 85 86 80 77 75 67 67 64 63 56 52 56 65 75 76 72 64 61 66 63 67 67 64 74 71 67 69 69 69 75 77 80 81 82 81 82 83 82 83 82 86 88 88 88 94 96 96 97 102 104 107 112 111 112 120 122 126 127 131 137 140 140 147 151 155 159 164 166 167 159 154 162 166 167 163 156 150 138 134 133 125 101 81 65 70 62 63 66 80 95 105 86 82 76 72 73 64 69 73 69 60 59 55 56 70 76 72 67 61 64 69 68 71 69 69 73 68 66 70 72 73 73 78 83 80 80 81 79 81 82 82 85 81 83 84 85 87 90 91 94 95 101 105 109 107 109 112 114 118 122 123 128 133 136 141 141 144 150 152 164 165 162 154 161 163 168 165 161 160 150 139 138 126 110 83 76 71 59 63 67 72 88 97 82 78 68 66 65 59 70 69 70 62 60 57 60 71 77 68 67 64 71 75 78 71 68 70 71 68 70 69 73 71 71 75 77 77 79 78 80 83 82 83 87 80 81 82 84 82 86 85 91 90 97 101 106 103 107 109 112 113 117 119 124 130 132 135 138 138 141 145 153 160 160 157 159 161 162 164 161 159 156 148 140 136 112 96 77 69 57 60 62 65 81 90 87 79 69 66 59 63 77 69 69 60 58 59 58 70 73 69 69 73 76 77 75 69 68 69 70 69 70 69 71 70 75 75 77 79 80 82 82 82 80 81 83 78 81 80 82 80 84 84 88 92 91 98 106 105 105 111 108 110 116 117 121 126 128 129 130 137 136 137 143 150 160 157 166 160 163 160 164 157 161 158 143 140 128 97 83 73 57 54 57 62 78 85 88 77 76 64 61 67 83 74 65 59 59 62 59 64 73 72 73 76 76 75 73 67 65 67 70 71 73 72 74 73 76 76 79 80 81 78 76 77 74 76 77 75 77 74 77 77 79 77 84 85 88 91 98 98 101 101 105 108 111 115 118 123 125 126 123 132 132 132 136 141 150 154 163 164 163 160 161 159 164 156 156 134 124 99 83 80 53 50 56 60 71 93 82 77 78 71 70 79 84 73 64 60 61 60 58 65 73 73 72 76 74 72 69 66 65 72 75 75 75 76 79 76 73 75 73 74 73 73 72 73 73 74 76 74 76 74 76 76 75 75 79 79 84 89 93 95 96 100 96 99 99 101 110 115 118 121 122 125 129 127 129 138 141 154 159 163 160 157 158 160 163 159 159 143 123 102 90 82 51 46 56 60 72 98 77 78 78 77 81 79 80 72 62 56 65 57 57 70 72 70 71 80 71 70 68 68 74 78 81 80 79 78 79 74 73 73 71 73 71 74 73 72 76 75 75 76 77 73 75 76 75 78 78 79 82 88 88 89 92 92 89 92 91 90 97 101 102 105 111 120 121 122 123 131 140 148 157 162 160 157 155 159 160 160 158 146 128 96 96 85 63 45 56 64 70 102 83 76 80 82 85 86 77 71 61 65 67 54 54 72 70 68 75 82 76 76 78 79 83 83 81 79 78 78 75 73 72 71 73 75 75 73 73 76 74 77 81 81 77 76 77 78 78 77 81 82 82 86 84 88 86 86 86 87 85 85 85 88 90 89 96 100 115 119 120 127 136 143 155 159 162 162 157 155 158 163 161 149 128 106 92 86 73 54 54 61 68 106 88 83 90 90 90 91 76 73 62 73 58 57 57 69 67 71 80 86 88 89 91 88 89 89 85 85 80 77 78 77 76 81 79 79 79 78 76 82 81 81 85 86 81 84 80 83 82 83 81 82 82 82 81 82 81 78 80 82 83 82 82 85 87 83 89 92 100 107 118 124 133 139 147 160 162 168 160 155 156 161 162 154 129 108 99 88 84 59 57 63 72 97 97 94 97 96 90 90 81 72 61 74 60 55 58 67 71 82 90 100 99 102 97 90 91 89 87 84 81 85 86 87 83 85 85 86 90 90 89 91 90 89 90 93 89 86 85 84 82 83 81 82 85 84 83 78 78 77 77 80 82 81 78 78 86 84 84 90 93 97 102 123 130 138 146 157 168 168 165 155 162 155 160 154 125 113 108 104 85 65 54 65 71 96 97 95 100 100 93 91 85 73 69 70 60 53 59 70 81 89 100 106 106 108 101 94 95 95 94 92 94 96 96 95 92 94 95 95 96 97 96 96 99 96 95 98 95 87 88 90 88 89 87 86 87 86 82 83 79 78 76 81 80 83 79 80 79 78 78 84 82 83 90 96 122 138 148 151 166 172 173 155 154 159 156 149 122 118 106 107 94 79 64 60 67 96 99 102 102 103 96 91 85 72 76 64 57 51 63 80 91 95 101 110 110 107 98 97 101 101 102 104 102 103 101 104 105 107 107 105 102 102 102 105 104 103 103 103 99 95 94 93 94 92 90 95 94 92 88 87 84 82 82 82 85 82 84 82 81 81 80 78 76 69 77 79 93 123 141 155 165 174 177 166 147 156 155 144 117 117 115 97 94 80 72 63 65 107 106 108 103 110 98 95 82 75 76 62 60 55 71 86 91 96 102 110 110 100 98 102 103 99 103 104 99 99 96 99 100 103 103 104 101 104 105 107 109 107 106 106 101 97 99 99 98 100 98 99 100 95 93 90 88 85 85 85 86 82 84 83 82 80 80 76 73 66 69 72 75 93 128 148 165 174 177 172 159 149 155 138 108 113 119 98 95 81 74 64 67 123 108 108 107 115 107 99 82 77 78 65 63 58 78 91 91 97 110 108 103 92 93 97 96 97 98 96 95 91 89 90 94 95 94 99 98 101 101 103 104 107 105 104 102 99 100 100 102 101 102 104 102 94 94 92 90 89 85 86 87 84 80 81 77 74 73 71 69 63 62 68 69 76 102 124 149 172 178 174 159 157 153 132 106 106 118 104 97 90 78 63 68 125 102 110 110 121 105 99 79 79 78 69 65 66 81 91 93 102 105 98 94 88 90 92 92 91 95 94 93 90 88 87 86 88 86 88 92 91 94 97 99 101 103 104 102 102 100 96 99 99 99 102 98 95 94 92 92 92 90 90 86 83 78 76 72 66 67 62 61 60 54 60 68 67 85 105 121 151 172 177 160 160 150 123 103 106 115 102 94 85 74 74 73 121 111 120 125 123 106 97 80 80 80 74 65 72 82 93 95 108 96 95 93 88 86 86 89 87 92 91 93 91 90 88 87 86 84 83 82 82 86 92 95 97 101 102 101 100 98 96 98 97 99 98 97 96 94 93 91 89 87 85 81 76 72 71 66 60 55 51 50 50 45 46 57 60 66 92 99 125 149 171 160 162 151 115 104 105 111 105 89 87 75 72 79 120 123 144 131 125 111 96 84 75 77 67 66 70 84 94 99 107 93 99 94 92 93 90 90 87 89 91 91 92 92 86 83 81 78 76 76 75 80 84 89 91 94 94 95 95 94 92 93 94 93 95 95 91 91 89 86 84 81 77 74 68 67 63 62 57 50 43 41 42 40 35 43 48 50 71 82 115 129 162 156 157 144 108 104 108 106 107 97 83 79 74 84 133 153 150 134 137 113 96 85 70 73 65 55 60 84 97 109 107 101 111 102 101 102 94 90 86 86 87 86 83 86 83 83 82 82 76 76 75 76 78 78 80 81 81 79 79 77 79 80 80 83 83 83 82 81 82 83 82 80 79 71 67 67 63 60 58 55 43 35 32 31 27 28 40 45 55 67 93 124 142 156 157 134 107 103 113 105 102 97 89 80 86 79 141 181 167 148 136 116 97 82 66 63 55 58 64 80 89 101 90 90 90 82 84 85 85 86 85 87 89 89 85 87 86 86 87 87 81 78 78 74 75 75 75 71 71 71 70 68 71 73 72 75 78 75 78 80 80 81 84 87 85 81 75 72 67 63 56 54 47 33 24 21 24 22 31 44 48 65 74 121 139 154 150 125 108 102 112 113 102 101 106 94 89 78 139 177 181 161 127 122 95 77 70 60 60 57 64 77 91 106 99 103 91 84 83 77 79 81 82 91 90 89 91 90 89 90 91 91 91 86 87 87 81 79 78 71 77 78 77 76 82 87 89 92 94 87 89 91 90 92 89 90 89 89 84 79 76 76 68 64 54 39 31 20 15 16 21 37 31 58 74 102 137 152 149 119 108 107 110 117 109 117 121 110 97 78 145 177 196 185 157 145 109 84 65 64 70 58 75 84 90 106 101 96 81 86 85 86 88 93 89 90 87 79 89 93 95 92 94 92 95 99 97 93 87 73 66 68 68 61 65 64 74 80 85 93 103 100 100 97 98 98 97 99 93 91 92 90 85 85 83 80 68 55 41 39 28 27 23 42 28 45 59 91 137 152 145 115 103 100 109 126 131 126 126 122 106 86 158 190 212 200 180 171 136 86 60 80 74 72 76 82 90 105 97 82 88 82 85 85 83 93 86 82 91 95 99 99 101 102 97 89 88 94 93 91 82 82 67 62 63 60 55 65 69 72 82 87 101 110 105 98 103 104 107 106 105 99 97 94 90 90 85 81 58 52 39 33 44 48 33 40 46 43 67 74 138 149 141 111 101 96 110 141 141 133 135 128 122 92 185 198 228 211 191 189 162 105 72 83 79 80 67 69 96 109 88 75 78 77 80 85 87 101 89 82 87 100 97 95 98 99 91 90 89 95 90 84 80 80 75 60 58 63 56 58 63 71 78 86 97 112 106 106 110 106 107 108 106 101 102 99 98 98 90 90 70 54 45 45 39 36 54 35 54 51 65 77 121 147 136 107 103 98 119 145 145 134 145 133 118 100 198 218 236 216 195 204 170 115 94 88 77 73 63 65 91 96 60 70 72 85 86 92 110 100 87 73 81 92 101 100 97 102 93 85 92 92 90 83 82 83 79 70 65 63 55 58 66 77 79 85 90 111 112 105 113 113 109 111 117 107 109 118 105 95 89 86 81 59 44 42 39 37 41 40 45 56 77 87 125 146 133 105 104 116 132 140 145 139 154 146 126 96 207 229 240 225 203 210 175 121 94 86 75 63 65 59 82 85 57 80 63 85 92 97 94 81 82 77 98 103 108 95 100 100 98 87 92 87 81 70 68 70 72 72 56 49 45 38 56 68 76 80 93 103 108 100 110 115 108 108 114 108 120 116 98 88 83 78 83 71 61 44 26 40 39 39 45 48 54 87 129 147 125 99 102 133 147 147 145 148 147 140 125 101 210 230 239 242 239 219 174 119 100 77 69 62 66 70 72 69 51 69 62 76 84 81 75 77 82 102 99 100 92 83 76 76 77 75 86 83 76 69 55 65 57 61 59 44 40 39 42 53 65 72 75 105 113 107 98 97 91 96 93 105 109 107 87 82 75 82 70 78 70 59 36 38 58 42 41 60 51 79 119 124 111 101 91 142 153 146 147 152 149 145 124 103 208 226 240 246 241 227 179 121 106 87 73 55 60 71 64 44 44 41 38 52 55 51 70 78 77 105 92 95 76 70 60 67 61 77 77 69 60 49 52 57 52 52 57 50 41 30 43 50 58 58 63 97 104 102 93 81 76 77 75 88 94 86 83 71 75 74 88 78 72 48 44 38 63 49 40 62 54 65 108 114 97 89 99 141 158 155 152 158 153 153 131 101 207 212 241 255 251 224 182 116 102 91 64 44 52 57 62 40 35 33 23 44 37 37 67 85 84 92 78 72 64 62 58 38 47 66 71 55 45 37 52 45 45 45 68 56 44 38 46 57 58 55 59 73 84 88 89 76 75 76 69 74 78 76 79 75 59 59 73 96 74 69 54 51 55 49 42 57 59 64 93 103 101 94 98 143 155 166 166 166 152 157 123 104 203 208 224 247 249 215 171 106 81 82 60 45 51 61 58 52 43 32 27 38 37 41 59 81 72 71 58 55 44 50 46 45 57 63 53 41 39 33 41 38 38 49 67 55 38 26 35 48 52 51 58 65 76 78 82 88 77 70 74 76 76 78 79 78 73 64 68 72 92 75 76 59 58 55 43 49 52 60 108 91 107 104 102 148 157 175 179 173 160 162 121 108 192 199 204 243 243 204 173 109 84 76 51 51 60 72 60 60 49 28 30 42 36 31 50 68 63 61 48 42 40 38 28 41 47 42 29 39 38 30 37 38 48 46 48 48 37 25 28 38 38 42 49 66 77 80 79 81 77 66 70 68 68 73 78 75 73 82 80 51 63 81 65 77 56 47 46 42 54 58 87 96 106 108 110 143 170 189 189 177 152 158 115 113 175 181 191 231 232 200 161 117 89 78 58 59 66 78 49 54 43 24 35 45 36 32 40 58 51 59 61 46 31 40 37 34 32 25 27 36 42 24 36 40 46 42 42 44 27 26 20 29 36 38 38 54 61 78 77 75 81 74 70 72 69 68 73 79 82 76 78 49 35 61 67 64 64 50 48 44 53 55 68 95 99 103 114 136 172 200 196 181 155 152 107 107 172 169 179 209 222 198 137 122 93 77 65 66 70 81 62 55 49 30 40 40 35 39 43 58 54 58 53 45 26 21 40 26 27 24 39 42 34 30 36 45 44 37 37 32 23 27 30 24 25 36 43 52 49 63 77 77 84 84 72 69 74 67 76 83 87 87 74 45 34 34 46 53 61 59 46 39 45 51 46 82 97 89 106 129 178 204 196 193 158 156 106 101 172 164 173 211 215 189 124 122 90 63 72 62 72 71 68 62 57 43 38 46 36 44 50 60 58 61 40 34 36 29 37 31 28 35 43 42 28 39 41 39 49 39 34 26 31 27 27 32 20 27 36 40 53 37 68 74 83 87 73 66 73 78 70 79 76 80 65 39 29 29 33 39 56 54 41 32 34 45 41 72 88 86 103 126 170 200 200 186 160 142 110 97 168 155 175 207 218 188 120 105 92 53 71 68 72 69 61 62 62 49 41 49 41 54 59 66 58 57 43 39 46 41 44 44 36 47 49 36 41 50 48 35 56 48 34 37 38 35 28 42 30 28 24 39 46 41 34 52 66 81 75 68 67 78 71 63 64 62 54 48 36 31 32 39 56 49 41 39 40 52 37 61 80 87 107 131 163 201 195 178 167 123 110 91 164 160 177 202 223 186 120 102 77 65 69 69 71 68 61 64 68 56 49 55 47 52 62 67 60 58 55 44 42 43 47 44 50 46 41 51 51 51 46 41 57 54 42 40 44 36 40 49 43 28 27 43 46 51 37 42 53 76 74 72 72 84 79 72 69 63 57 54 48 44 44 52 61 57 55 46 42 49 30 62 76 76 103 121 170 185 187 168 160 114 108 97 162 165 172 195 220 176 129 100 77 63 70 67 61 61 60 66 67 60 53 57 57 53 59 63 58 58 58 52 42 47 48 49 49 44 57 58 49 48 50 63 51 52 52 47 50 42 44 55 40 27 24 43 51 50 51 36 45 58 68 61 61 77 79 77 71 65 63 63 60 64 61 64 64 55 52 40 36 48 29 58 69 62 85 126 152 168 190 178 146 107 106 98 162 168 168 182 190 167 126 103 79 79 56 71 68 51 54 72 64 68 55 55 68 63 57 63 56 57 59 55 52 56 51 50 56 63 64 62 62 55 70 63 67 64 52 57 51 51 44 47 33 42 31 46 47 51 49 54 47 59 58 65 58 61 71 71 67 63 59 64 64 66 63 67 62 52 46 35 36 48 32 56 60 51 74 104 130 162 194 170 127 110 102 96 161 162 164 179 156 155 126 98 84 79 63 61 66 57 55 65 62 75 59 50 63 69 55 58 59 55 55 54 49 50 49 51 56 59 60 68 64 72 74 75 80 76 66 56 50 56 51 34 32 38 35 45 46 46 47 44 52 61 58 59 67 64 58 67 61 58 55 57 59 61 60 61 48 39 40 27 28 45 30 50 41 51 77 94 119 155 178 158 117 107 104 91 159 155 155 175 144 135 133 106 97 85 62 63 71 51 53 68 66 63 65 53 57 67 64 54 53 54 51 50 49 49 50 51 53 56 63 66 67 70 85 92 85 77 72 64 60 68 49 43 38 38 34 46 47 46 50 47 47 67 60 60 60 61 61 56 58 52 51 52 57 55 56 49 41 43 35 28 28 35 38 32 40 58 87 91 117 141 153 157 110 106 99 91 139 140 145 166 133 106 134 111 109 104 79 70 58 64 51 56 73 62 64 55 55 55 58 55 53 48 50 49 50 51 47 52 56 62 61 68 66 75 92 87 84 74 76 70 71 68 57 47 46 50 36 41 47 47 56 49 62 62 77 69 64 62 63 66 62 61 57 50 46 53 49 43 46 44 36 28 25 34 45 23 45 60 79 95 120 124 130 142 101 99 98 96 137 118 119 143 121 105 120 116 116 113 84 87 75 65 55 45 64 64 57 54 60 57 54 57 54 53 48 47 46 48 48 60 66 66 62 67 71 85 88 88 83 71 82 77 75 71 65 60 54 50 41 41 47 57 57 50 67 69 74 80 74 70 66 69 65 62 62 61 56 57 51 47 45 44 35 25 25 41 36 23 49 69 102 110 127 133 120 115 88 95 95 98 139 126 109 127 108 115 112 121 114 104 92 85 87 75 67 62 51 64 56 51 54 56 62 61 54 50 48 48 52 52 56 63 60 63 63 76 75 76 85 89 84 82 90 82 73 80 78 74 70 58 54 57 62 53 52 58 75 82 81 83 83 77 71 77 68 56 53 55 49 57 54 47 46 43 35 28 32 36 30 21 51 90 109 116 127 128 112 91 84 93 93 95 138 132 112 122 106 110 117 107 101 102 90 77 87 79 74 66 62 58 53 48 50 57 61 64 56 52 51 53 55 58 60 57 57 64 64 66 72 74 84 96 99 99 105 91 82 87 90 85 83 69 76 81 81 63 51 51 68 83 83 77 81 76 76 74 74 69 58 54 47 41 39 35 35 31 22 18 22 37 25 16 62 91 128 129 136 114 96 70 83 92 88 97 132 135 113 119 108 96 123 101 92 94 97 77 82 77 76 77 72 64 59 51 58 61 58 58 56 49 46 52 55 60 56 55 57 58 60 64 72 81 93 99 95 95 102 96 90 93 99 99 95 86 83 89 83 76 68 73 81 83 83 78 78 75 78 80 73 73 66 68 61 56 46 45 44 36 26 22 32 29 25 31 66 106 147 135 150 106 75 61 83 92 91 102 116 130 112 104 103 80 115 102 85 87 96 78 90 81 77 74 74 69 70 60 59 64 57 48 55 57 55 58 62 63 57 56 53 54 65 76 83 96 104 110 104 109 107 96 96 98 102 101 103 98 95 94 89 90 85 85 87 84 84 79 75 75 80 80 76 73 66 59 54 48 40 37 35 22 26 30 30 35 28 39 85 110 151 132 132 116 54 64 78 91 91 102 110 114 110 93 93 76 90 91 73 71 86 77 93 82 81 79 78 79 77 73 63 62 56 49 51 59 56 58 62 56 55 50 53 59 65 70 84 108 110 111 105 104 103 95 92 97 102 102 104 98 98 97 95 95 95 90 94 92 88 83 76 74 79 83 81 75 71 66 55 50 52 45 45 33 34 28 26 26 35 55 92 110 130 118 121 107 43 70 76 91 99 101 110 105 103 90 82 81 67 86 59 65 82 82 94 83 81 83 84 83 79 76 71 61 64 59 59 59 62 67 66 57 64 64 62 69 74 70 81 102 107 109 102 98 99 99 99 107 105 102 104 94 96 92 85 86 84 83 91 96 97 89 80 75 77 81 82 79 77 73 63 51 52 49 50 39 40 36 26 27 42 69 91 118 128 111 118 82 43 68 77 91 104 103 114 110 96 83 72 70 60 77 59 59 80 79 93 84 85 88 85 85 78 78 74 66 60 61 66 66 71 72 65 63 68 67 69 65 80 75 69 84 100 98 101 96 96 99 100 104 101 98 95 92 92 87 76 76 73 73 78 89 95 88 82 77 75 77 79 83 85 79 72 55 55 49 45 44 46 38 29 35 50 68 86 110 111 115 83 59 52 67 76 98 104 100 113 113 95 81 66 62 66 59 53 63 82 70 91 86 89 92 86 84 81 77 76 68 61 63 70 70 79 72 68 69 66 69 71 69 71 72 69 77 82 87 96 97 104 108 100 102 99 93 91 88 93 88 76 68 64 58 67 77 89 91 85 78 76 80 88 90 91 92 78 68 66 59 53 55 46 35 32 41 53 59 76 95 78 78 49 38 50 59 75 101 101 102 114 110 101 82 64 55 68 65 48 60 77 58 83 89 90 95 88 83 80 75 69 64 66 67 71 75 79 70 72 73 67 75 82 82 77 70 71 78 78 89 95 105 106 117 112 105 97 94 90 92 96 93 78 72 66 60 69 74 73 81 84 84 84 86 94 92 97 99 88 80 69 62 61 56 47 37 37 42 49 56 61 77 50 55 19 28 43 54 80 99 102 105 117 106 98 87 66 55 67 83 65 56 70 50 67 89 90 92 87 82 79 73 68 62 67 69 70 75 76 68 73 70 73 81 94 86 82 71 75 81 82 94 102 108 112 118 118 105 98 97 90 92 96 95 88 90 83 82 85 82 82 80 86 90 90 87 97 98 105 99 88 82 75 62 62 57 44 40 40 42 37 35 44 48 40 36 12 20 42 59 81 99 104 103 117 107 102 97 78 53 61 93 70 50 69 61 65 80 91 94 86 79 76 74 72 67 67 65 67 75 78 73 74 75 86 86 91 91 89 85 76 81 85 92 94 102 102 103 105 101 97 94 87 84 88 93 87 90 100 92 100 100 95 91 91 92 95 93 94 101 110 107 85 81 78 61 60 55 46 45 43 44 21 17 25 20 21 25 4 19 48 69 79 100 107 100 115 110 106 102 86 68 58 92 78 54 73 65 70 80 91 94 91 79 76 73 73 65 69 65 66 74 77 82 81 88 100 101 101 100 97 90 83 78 88 89 87 84 79 83 89 98 99 95 81 72 75 79 73 73 89 89 100 105 107 101 100 97 95 98 97 96 104 119 88 79 80 66 61 55 49 47 43 35 17 10 15 13 23 21 8 27 57 73 80 100 107 102 115 112 108 99 93 76 68 94 81 61 77 66 77 78 91 88 91 84 76 78 70 65 68 66 71 75 81 87 86 100 108 115 121 113 100 93 92 80 89 89 85 86 77 76 78 88 90 88 86 77 76 83 66 71 81 85 98 110 112 103 105 100 96 102 102 96 105 116 96 77 78 71 63 58 50 53 47 32 17 6 12 16 28 20 10 35 64 73 92 102 107 104 109 113 110 98 96 86 76 94 90 68 83 74 76 74 90 88 91 84 72 74 74 72 70 63 70 70 89 91 98 109 112 120 124 121 114 105 109 93 92 99 86 93 85 85 92 95 94 94 96 97 92 90 88 90 97 103 108 109 112 108 104 101 102 102 107 101 99 113 100 82 74 69 64 56 45 50 44 26 26 13 14 27 25 16 15 45 65 82 98 105 108 107 106 112 112 102 98 96 82 83 83 85 79 77 72 77 90 97 98 89 74 72 73 72 71 65 68 77 93 105 112 113 119 126 130 128 122 123 119 115 110 103 99 87 88 85 94 99 91 97 91 95 97 96 94 99 110 117 118 118 114 110 106 105 104 107 109 108 96 105 94 78 67 67 66 56 45 50 39 32 29 19 28 34 22 17 33 62 78 92 99 105 108 107 109 115 111 102 101 98 94 77 84 84 91 84 75 79 97 98 106 99 74 77 73 71 68 67 71 83 103 108 111 116 126 130 134 135 129 125 122 120 116 97 99 93 93 96 94 102 102 102 102 109 111 107 107 117 124 135 136 134 124 113 113 107 108 108 114 111 97 102 89 77 68 67 65 54 50 52 36 43 34 24 40 42 30 33 61 78 96 97 100 105 105 103 114 117 113 108 104 103 99 89 87 75 81 93 83 86 99 103 108 103 77 72 68 67 63 60 74 85 107 113 115 121 129 136 140 137 134 130 132 129 120 113 112 113 117 116 111 115 112 113 113 117 119 116 121 131 136 139 140 136 132 122 118 107 105 108 113 113 100 97 82 73 68 67 69 56 49 56 41 48 33 33 53 55 48 61 85 92 98 99 102 104 104 100 118 117 115 110 106 107 102 92 85 81 74 84 81 81 96 107 108 99 84 66 61 65 59 55 66 76 91 104 116 116 121 129 135 133 132 121 115 123 123 111 101 115 115 110 116 121 116 118 116 116 117 123 123 135 134 136 132 131 130 129 116 108 108 97 103 105 99 97 77 66 72 68 68 57 53 58 49 43 34 44 63 64 65 82 90 98 98 99 103 102 104 100 118 117 119 113 108 108 107 98 86 85 72 75 76 75 89 109 110 98 92 62 59 61 52 53 60 72 80 91 93 95 94 104 109 110 111 103 97 95 109 100 92 98 99 99 103 112 113 109 113 111 113 120 117 119 118 120 122 112 111 109 101 101 101 94 91 99 100 98 81 71 71 64 61 55 60 60 53 48 38 59 76 77 87 85 91 98 100 98 102 100 103 102 115 117 119 115 109 110 111 102 94 83 71 72 74 74 89 108 113 102 89 67 58 57 49 44 49 57 73 82 86 87 85 85 97 88 83 84 79 73 70 73 78 86 89 83 90 96 96 91 95 98 105 109 106 97 96 89 87 88 90 95 88 94 96 93 90 95 94 97 84 79 65 66 63 55 60 57 59 49 51 84 89 84 90 89 95 98 101 93 97 100 101 101 113 116 117 116 111 116 110 106 102 86 81 70 71 71 83 110 112 106 88 73 58 55 50 43 45 56 76 74 77 84 86 85 83 76 72 67 58 62 45 35 40 46 57 52 51 61 57 63 74 78 88 87 92 83 88 77 71 70 82 79 78 92 92 90 87 93 92 87 82 81 73 67 62 55 66 58 56 53 72 92 96 85 89 93 96 98 102 93 94 101 97 101 115 114 116 117 117 118 105 106 104 97 86 73 66 78 77 101 110 103 90 77 61 59 53 56 54 62 77 76 68 76 79 85 81 78 74 61 58 49 46 35 38 38 41 45 38 48 58 69 78 79 79 84 83 81 79 72 66 65 72 69 67 83 84 86 83 85 84 81 77 77 74 67 55 58 66 55 56 67 86 95 100 89 89 100 100 100 100 94 91 98 101 98 117 117 116 116 124 117 95 106 102 104 91 82 61 78 76 106 109 105 95 78 71 65 57 61 61 71 81 87 79 71 77 87 80 78 72 66 56 49 48 43 37 44 47 49 50 63 72 78 86 86 87 87 79 82 74 78 74 73 72 73 78 77 81 82 86 86 89 84 79 76 72 62 57 63 65 50 63 83 91 97 99 94 97 97 100 101 99 95 91 95 101 98 115 116 116 117 125 109 93 107 101 101 101 92 66 70 77 102 107 100 105 87 75 79 63 66 65 72 88 94 93 82 81 80 78 75 73 69 58 52 55 44 48 54 59 66 66 71 82 86 86 89 85 83 72 71 63 74 72 79 77 77 82 76 85 86 87 87 87 87 84 68 68 59 64 67 64 53 73 86 92 99 99 95 99 98 103 100 102 92 93 96 99 97 112 116 114 120 118 103 91 102 101 101 105 99 75 68 79 100 113 107 105 91 78 84 76 68 69 71 82 92 95 85 82 81 77 76 75 73 72 66 59 54 57 62 61 77 79 76 85 87 87 88 88 85 77 73 74 74 74 77 80 87 81 83 89 86 86 89 87 83 80 71 65 62 70 77 61 61 84 87 96 98 100 96 101 100 103 100 99 96 94 95 99 96 115 113 112 117 106 95 95 97 101 101 105 106 84 70 79 97 117 108 104 98 90 89 89 77 77 78 87 89 96 89 81 84 87 79 83 80 79 81 78 76 81 79 85 88 90 83 86 87 88 93 94 95 87 85 80 80 76 82 86 90 81 87 92 85 85 86 88 81 77 75 71 63 77 85 53 61 84 89 97 99 97 99 102 105 102 102 98 95 97 91 98 94 116 111 114 109 98 96 97 95 100 100 107 113 91 76 77 97 112 110 97 97 96 95 90 95 85 80 84 90 94 94 90 95 92 86 86 85 84 84 81 85 87 90 89 92 96 94 98 100 101 103 102 105 101 94 90 86 86 86 92 87 81 79 90 88 82 82 86 80 74 80 80 64 90 92 54 65 82 90 98 96 93 98 103 103 102 100 98 93 95 89 95 96 109 111 109 105 97 97 96 91 97 103 105 119 96 78 84 102 110 111 97 101 93 99 90 97 96 80 78 93 86 90 90 97 94 89 87 88 85 83 81 83 82 79 82 91 91 91 96 103 107 106 108 104 102 97 87 87 87 88 84 86 83 78 89 89 89 80 85 84 75 86 83 75 107 87 58 77 80 94 94 93 95 96 101 101 104 101 96 96 94 87 95 95 108 108 103 101 97 96 92 91 96 101 109 119 104 77 86 106 113 113 101 102 94 96 104 93 98 87 80 87 86 89 82 87 87 82 85 88 82 80 81 75 78 74 78 85 88 83 84 86 94 88 94 93 86 88 83 81 80 80 77 76 83 83 86 93 86 85 84 87 85 95 86 90 116 78 45 73 88 87 86 91 95 97 98 98 104 98 99 94 96 91 93 93 105 105 100 98 96 95 92 86 93 97 111 120 108 80 88 113 122 121 111 105 97 98 99 102 99 95 91 83 89 87 83 83 81 70 74 80 76 76 72 69 69 68 69 81 80 79 82 81 83 87 84 79 75 75 75 73 74 75 73 72 77 81 82 81 82 86 85 90 96 95 92 108 112 69 40 70 83 85 81 85 92 94 93 99 98 100 94 96 96 90 92 91 101 103 96 97 96 94 88 82 90 94 107 118 103 89 91 114 128 130 120 112 101 87 99 98 100 98 93 88 87 82 83 78 74 74 72 75 69 69 65 61 57 59 65 69 69 71 72 80 77 85 78 70 71 69 72 73 78 76 70 79 79 80 84 85 86 92 96 96 104 99 105 111 105 63 40 70 79 77 86 83 90 88 87 94 95 97 91 97 94 88 89 88 99 98 94 96 94 95 81 76 87 89 108 115 102 100 100 110 132 134 123 119 110 84 97 104 101 100 94 95 92 87 81 80 79 81 82 86 76 68 60 57 53 56 60 64 60 64 74 74 75 81 73 71 72 71 74 73 80 78 79 77 83 78 85 90 84 98 102 103 103 111 108 104 93 51 40 69 79 72 82 91 81 82 84 90 87 91 91 94 90 86 87 87 97 94 91 96 89 92 75 72 81 84 111 113 103 102 106 103 138 139 135 127 118 94 99 108 105 104 100 100 100 99 87 87 86 86 93 96 89 80 76 74 74 78 78 77 79 80 88 89 85 87 83 84 84 79 80 79 81 87 82 86 83 84 85 94 85 101 110 105 111 112 107 90 75 40 39 72 82 73 81 86 83 78 83 87 82 82 87 91 90 88 84 87 92 91 90 92 86 84 68 68 78 85 104 114 100 94 104 109 136 148 141 131 124 107 103 98 111 108 106 106 106 104 93 99 100 94 100 105 100 94 93 89 89 92 95 95 99 96 97 93 96 94 94 94 90 84 85 88 93 95 98 89 88 86 89 102 93 107 110 107 116 111 91 86 73 38 42 77 86 78 83 81 84 82 81 83 80 78 82 88 86 84 86 85 84 91 89 89 82 75 70 65 71 76 97 109 93 87 99 111 143 149 149 134 131 115 114 98 107 113 107 110 106 111 103 101 107 103 98 99 102 102 95 92 94 97 101 100 104 104 100 102 100 100 101 99 97 94 98 106 103 103 101 100 94 96 99 106 108 111 108 112 119 92 87 80 58 32 46 75 82 86 86 84 77 88 79 85 80 75 82 87 81 83 83 83 85 91 87 87 75 69 74 57 63 66 94 96 89 86 96 112 146 150 154 140 137 119 123 111 103 113 114 112 107 111 109 105 106 103 104 110 104 106 105 103 103 103 103 105 106 108 107 109 108 106 106 106 104 104 108 109 111 107 105 100 105 105 106 107 112 113 110 115 103 89 87 69 38 26 48 73 81 81 89 87 81 86 84 84 79 77 82 85 77 79 84 81 84 86 82 79 66 67 70 50 53 62 94 88 78 86 95 107 146 155 154 144 148 115 124 124 108 114 116 116 113 117 114 113 112 110 108 115 112 113 107 110 108 109 103 104 105 106 109 106 106 105 108 107 109 107 109 112 115 109 113 101 111 110 111 115 114 115 114 107 95 86 80 54 34 15 38 75 84 81 81 90 89 86 86 83 82 77 80 80 77 75 79 79 80 83 80 76 63 67 65 46 47 62 92 77 67 93 94 103 130 151 156 156 152 118 114 121 111 121 127 121 114 117 117 118 120 117 112 113 115 113 113 109 109 109 106 104 105 106 111 106 106 107 111 111 114 113 113 112 115 112 117 113 114 115 116 118 116 116 114 101 101 91 74 54 33 11 37 65 86 83 78 83 91 90 83 86 78 78 77 75 76 76 76 77 80 78 73 68 59 65 62 43 48 59 79 65 73 94 96 108 118 144 172 165 154 127 121 116 109 126 132 132 125 125 123 128 126 124 121 120 120 116 116 116 117 115 115 111 114 110 112 113 111 112 115 113 114 118 119 116 120 113 120 119 118 118 119 121 115 115 110 107 102 91 67 43 32 24 40 58 72 81 85 78 87 91 86 80 80 75 75 73 77 76 77 76 77 71 67 62 56 61 52 38 46 56 70 58 82 91 95 104 121 129 174 170 152 132 126 114 109 128 130 138 133 132 131 141 138 133 132 129 125 122 122 123 127 119 125 120 120 120 118 121 120 118 120 120 120 123 124 124 123 115 121 121 121 119 121 121 111 109 111 112 100 86 52 34 34 29 33 59 70 78 81 80 81 84 86 78 83 74 69 69 73 75 75 73 67 61 58 51 47 51 45 34 42 56 60 51 91 84 88 108 122 133 159 162 158 128 122 117 114 122 125 141 144 143 145 146 146 142 137 137 134 133 131 133 133 128 136 131 128 131 130 126 128 124 123 131 127 131 130 128 123 122 122 124 123 128 127 117 111 109 117 115 105 79 49 20 28 32 29 55 72 78 79 78 78 69 88 85 79 78 64 64 69 73 71 71 51 47 41 37 36 37 41 36 34 49 38 59 90 75 100 107 119 142 147 151 153 134 116 126 120 115 122 133 150 157 153 153 156 156 150 144 147 149 142 140 140 141 143 142 138 143 140 137 135 140 142 142 138 137 132 131 125 124 126 131 134 129 127 116 112 116 119 117 104 80 45 23 29 28 34 62 67 70 81 76 70 60 74 88 79 77 59 57 61 61 66 60 41 38 33 32 34 32 36 31 28 33 30 64 77 85 101 104 119 143 143 147 148 135 121 131 127 118 117 126 141 155 153 151 159 166 162 159 157 160 159 156 151 154 153 152 152 152 153 150 147 151 152 151 146 138 132 130 130 130 135 137 133 125 125 115 116 113 109 110 89 79 36 24 31 12 41 61 72 67 69 76 70 58 60 75 78 65 59 52 51 50 50 48 35 29 30 29 26 27 26 30 26 22 30 67 73 95 95 108 121 143 154 139 144 124 121 136 125 128 124 124 132 139 147 151 157 163 170 166 168 167 167 168 162 167 163 160 159 160 162 162 164 159 158 150 146 143 134 136 135 139 141 131 134 129 124 117 117 115 115 101 88 77 27 27 14 17 36 51 74 65 57 62 69 59 51 69 81 65 57 53 48 45 46 42 32 27 26 21 12 18 17 26 22 24 25 53 72 93 108 122 127 134 156 144 129 116 115 129 135 121 132 132 126 132 138 147 153 159 168 167 170 174 174 173 170 173 173 168 169 169 167 167 167 164 155 151 150 141 139 136 148 149 141 140 136 128 122 116 117 120 109 92 84 89 46 32 7 24 30 49 61 56 54 49 56 72 53 57 75 70 56 51 41 39 40 44 26 15 13 6 6 7 8 27 24 14 15 49 84 100 131 138 125 131 147 145 130 114 105 117 135 133 129 131 131 124 123 140 148 144 152 160 167 169 168 174 172 176 176 177 173 172 172 168 166 160 154 153 147 142 143 150 150 146 145 144 137 130 116 114 116 112 98 88 77 83 56 38 9 28 18 46 51 43 55 53 47 61 67 55 61 69 58 43 33 29 32 38 19 0 0 3 1 5 16 24 11 8 14 66 98 107 127 145 120 130 139 141 130 123 99 112 122 133 131 134 137 129 125 127 139 147 142 148 154 159 157 162 165 165 164 166 170 170 168 165 160 158 154 149 142 149 152 152 147 149 145 146 137 122 112 114 113 106 90 83 79 79 42 21 16 25 25 38 51 39 55 65 50 52 67 53 52 64 61 47 33 24 28 38 