P2
92
112
255
154 154 153 156 153 153 151 153 156 154 158 163 160 164 163 169 169 172 170 168 166 170 167 165 165 157 158 157 154 153 139 134 139 133 131 123 120 107 118 114 107 112 108 107 114 102 113 118 120 131 127 135 141 149 150 148 150 151 150 152 155 157 156 157 158 154 151 156 158 161 161 155 156 151 141 132 131 135 133 135 133 134 132 133 133 133 131 133 134 131 136 136 154 155 155 155 153 152 152 156 159 158 160 166 167 167 167 165 168 169 166 163 165 158 156 157 155 153 141 138 131 129 128 120 132 127 121 127 119 111 116 109 110 119 116 113 111 112 102 108 112 118 120 119 121 123 125 121 131 138 142 146 153 154 156 159 157 157 154 151 157 159 161 163 160 157 156 146 135 133 136 133 134 136 133 136 133 133 132 129 136 132 132 134 154 155 155 154 152 154 159 161 160 163 167 170 166 167 166 166 168 170 165 158 153 150 148 148 139 130 119 118 116 118 123 123 126 125 120 119 114 112 113 110 116 110 112 112 107 103 102 106 113 104 110 117 113 110 110 112 113 117 122 129 131 145 155 158 159 157 156 152 155 158 162 162 164 161 161 156 148 138 131 135 135 136 136 136 137 135 134 131 134 135 133 134 156 155 155 157 154 156 163 163 164 167 167 169 166 166 166 171 169 165 153 147 145 148 141 131 120 116 110 110 112 114 123 130 123 122 115 112 112 103 105 102 106 97 101 106 102 96 102 101 102 99 98 103 102 95 96 104 106 108 104 108 112 127 141 141 147 154 152 156 156 156 162 165 164 163 164 157 160 151 136 133 135 136 138 140 139 137 133 135 132 135 137 134 154 155 155 157 159 160 167 167 165 167 166 171 170 168 169 171 164 149 140 139 138 130 119 110 108 102 103 106 117 123 127 128 115 112 114 115 104 110 102 106 105 100 110 107 113 102 114 117 117 111 110 114 112 103 97 99 103 102 98 97 105 105 111 118 126 140 141 147 157 156 158 162 164 166 161 159 157 163 151 140 136 137 135 139 140 141 134 135 134 133 140 136 155 156 156 159 164 169 167 167 168 170 168 171 170 170 166 162 147 136 131 127 122 107 94 88 92 92 103 110 113 116 122 122 119 124 123 123 115 114 110 109 103 104 116 115 118 114 119 126 136 124 120 127 122 118 111 115 110 108 105 101 116 120 121 118 123 135 143 143 146 153 158 161 158 163 167 164 154 158 164 149 144 142 139 138 139 142 140 137 137 133 136 140 153 157 158 163 168 172 169 168 167 167 173 169 167 165 154 142 133 125 122 110 95 84 90 92 88 100 106 116 114 117 132 131 127 134 134 136 128 128 117 119 113 114 122 125 127 124 122 133 139 128 132 134 130 130 119 130 130 122 119 111 123 128 136 136 134 144 149 143 140 143 150 154 153 158 164 164 164 167 165 159 149 146 141 143 140 141 143 141 139 136 134 138 155 155 161 167 171 171 171 167 166 166 172 166 157 146 130 123 121 118 107 96 92 84 89 92 94 102 111 123 124 135 144 138 141 143 137 139 137 129 124 130 126 130 133 139 139 134 132 140 136 129 135 141 134 134 131 138 140 135 125 120 128 130 144 143 145 148 155 156 154 147 141 145 152 152 160 168 163 170 173 167 163 152 145 146 142 142 145 146 141 142 137 137 154 158 165 170 172 171 171 167 166 168 165 156 140 126 121 120 115 102 101 95 90 88 91 88 94 111 117 121 128 138 151 141 143 141 139 139 136 132 137 141 143 141 140 151 151 145 145 150 148 141 147 147 140 140 138 138 143 146 138 132 135 135 146 149 153 151 155 158 166 163 148 144 149 152 150 166 174 172 176 177 173 172 154 151 147 145 142 144 147 144 142 138 157 163 169 171 168 169 169 169 162 166 152 136 122 121 118 109 101 98 96 96 94 94 91 98 110 130 130 135 136 144 157 149 145 151 154 149 144 140 144 148 148 151 150 153 154 145 146 154 162 155 149 146 148 154 150 153 149 153 154 145 151 154 156 160 158 161 157 161 164 178 173 159 149 148 157 155 178 184 184 186 187 183 172 158 156 148 145 141 145 148 144 145 160 169 169 169 168 169 169 164 161 149 140 132 130 128 109 96 96 94 95 98 97 88 101 112 126 128 134 141 148 149 151 153 152 150 152 155 155 154 152 154 151 148 151 153 153 147 154 161 158 163 152 151 152 161 161 156 158 152 161 157 155 163 167 174 173 170 163 167 165 176 180 177 162 149 157 157 164 182 182 192 194 189 186 173 160 153 149 146 144 148 147 144 163 166 168 169 167 169 167 166 156 144 133 135 131 117 109 106 102 106 102 96 96 107 111 122 136 128 134 138 145 145 151 149 146 142 146 150 152 155 149 153 150 144 150 154 156 152 158 156 154 165 160 163 162 164 165 152 162 157 166 162 162 172 178 177 180 177 175 179 181 176 183 191 187 172 162 160 163 173 180 191 195 193 194 193 176 161 156 151 149 146 148 145 164 166 168 169 167 167 163 157 146 138 137 140 128 120 112 112 111 105 97 91 100 106 114 121 131 130 132 137 137 136 137 140 137 134 136 138 140 142 144 148 146 140 144 151 152 155 163 163 164 172 171 163 162 160 158 159 165 165 168 172 169 180 181 181 178 180 177 176 184 187 189 197 207 201 186 167 168 167 177 185 190 197 201 198 193 180 161 155 157 151 151 148 166 167 167 169 168 164 160 147 146 144 144 139 127 122 123 115 108 106 100 105 102 114 120 125 130 131 123 123 125 123 121 127 124 127 126 127 133 130 133 131 131 137 142 144 150 157 164 163 171 173 169 160 159 160 158 159 167 168 176 174 184 182 187 184 183 191 184 176 185 181 192 197 208 211 210 196 177 178 176 174 181 199 201 207 203 194 181 164 159 157 157 151 168 166 166 167 167 159 152 146 147 158 147 141 129 125 121 111 100 101 111 111 116 128 130 130 129 121 111 111 113 111 106 110 117 116 112 118 124 124 125 128 130 130 134 143 147 156 160 163 165 168 165 162 159 163 163 166 174 176 177 177 184 188 190 192 198 201 189 181 184 180 188 197 205 215 214 220 204 183 189 178 170 185 200 206 205 201 194 177 170 160 160 156 168 168 165 168 164 159 156 150 155 151 143 135 130 125 119 111 107 116 120 117 125 129 135 129 118 107 102 100 99 93 95 97 100 103 102 110 117 113 112 119 120 123 127 141 143 145 154 155 157 165 172 167 163 170 170 171 178 181 181 181 186 191 196 200 208 210 206 192 185 178 183 199 206 215 218 227 221 201 186 199 173 169 190 205 208 208 204 194 176 169 161 157 169 170 170 164 161 159 162 158 159 151 145 137 133 127 123 113 115 127 128 129 129 133 129 117 107 96 93 87 86 83 83 88 87 92 96 101 102 104 104 109 114 119 123 131 135 140 149 155 157 163 170 169 171 171 171 177 178 178 180 184 187 194 201 202 209 212 209 204 199 193 185 196 198 210 217 223 228 233 196 203 198 170 168 205 214 210 209 197 188 171 167 166 168 169 163 158 159 163 163 156 149 144 142 142 144 131 122 116 131 139 139 138 135 129 115 103 98 90 84 85 84 77 77 79 81 83 93 96 94 94 99 102 108 111 115 122 124 133 142 148 151 160 161 164 173 173 172 177 183 182 182 187 190 197 203 206 209 214 215 215 215 209 197 200 202 204 218 223 231 238 229 199 214 186 160 191 215 217 211 203 191 187 166 172 165 162 159 155 163 164 150 146 144 143 145 150 147 134 128 130 142 145 147 141 133 117 105 98 90 83 85 81 80 74 73 76 75 81 83 89 90 92 94 98 104 106 109 111 119 129 133 139 149 153 157 162 168 175 179 183 191 190 193 190 191 200 208 208 214 217 216 221 220 220 215 207 208 213 217 224 238 239 244 223 207 208 172 188 205 219 217 210 199 190 179 171 159 162 160 159 163 152 144 145 148 147 143 142 142 136 132 135 145 156 152 140 128 114 104 93 85 86 88 84 81 77 74 73 73 72 77 82 86 94 95 95 102 100 106 110 119 119 130 136 143 148 152 157 163 172 178 178 187 196 197 196 200 203 208 212 219 219 222 223 225 224 227 214 217 226 221 223 227 246 241 235 210 212 207 180 196 210 221 216 207 193 188 174 164 164 157 160 158 147 149 151 154 153 149 144 140 135 130 141 157 155 149 136 122 111 96 87 86 89 87 84 82 77 71 72 73 74 78 81 88 93 97 97 99 103 105 112 119 122 129 136 138 141 151 156 160 169 171 172 181 195 200 199 207 207 210 216 219 222 220 221 224 223 227 225 229 232 229 237 230 236 250 243 231 210 219 189 188 204 221 225 212 201 191 182 165 162 156 157 152 140 143 149 151 154 151 145 139 131 130 145 156 152 146 129 117 109 93 93 93 91 88 84 80 75 71 75 76 77 79 83 88 91 90 96 99 105 110 114 121 124 128 135 136 140 147 149 156 162 164 169 181 187 190 201 208 208 211 215 223 218 221 223 220 222 228 228 235 240 237 249 248 244 252 250 246 225 212 199 185 202 220 228 214 204 192 188 161 152 157 157 144 143 151 157 155 150 149 143 133 132 138 148 151 146 140 124 115 107 100 102 94 91 91 85 80 82 78 82 83 82 82 84 90 88 91 91 96 102 110 116 121 128 130 134 136 143 145 147 155 157 161 168 176 181 184 196 196 200 206 213 215 214 217 218 220 219 229 229 234 243 241 247 254 245 245 255 246 234 216 200 191 189 211 226 222 207 195 188 162 149 155 149 145 145 156 153 145 143 142 138 131 141 143 146 148 142 132 121 114 114 106 101 93 94 95 94 90 89 88 87 84 87 84 84 90 90 94 97 98 102 106 115 119 124 132 133 137 141 145 147 151 154 159 166 168 172 180 182 188 191 195 199 202 204 206 212 213 216 225 231 236 239 243 243 249 248 240 243 243 241 225 191 184 187 197 213 224 218 201 187 157 150 150 149 145 143 148 143 146 145 137 140 141 137 140 142 146 134 121 115 114 115 105 99 99 101 100 102 99 98 93 88 88 89 89 87 91 96 98 100 103 105 109 110 115 118 128 130 138 140 143 147 150 150 150 156 157 164 171 171 174 185 185 186 194 196 196 203 208 209 218 225 236 238 244 244 246 245 239 237 242 240 227 204 169 184 190 201 220 215 204 187 157 150 150 148 143 153 141 141 144 146 145 144 145 131 138 137 136 124 118 118 117 110 103 103 110 107 108 104 104 102 94 91 94 94 95 93 96 101 103 103 105 109 105 111 111 120 122 127 134 136 142 148 149 147 149 148 149 154 157 159 161 173 176 173 180 183 186 187 191 199 203 213 229 232 246 250 241 238 237 234 237 240 232 207 169 176 187 197 208 212 198 191 155 150 151 149 150 152 147 142 136 140 149 139 136 126 136 132 120 118 121 120 113 108 105 111 114 110 106 108 106 103 97 97 97 97 101 100 101 103 104 103 105 110 105 108 109 118 121 123 126 135 138 142 143 145 144 146 146 150 148 150 154 161 167 167 170 175 175 178 182 189 191 201 215 220 233 248 246 231 225 237 233 227 236 207 169 173 184 191 205 215 201 190 150 145 145 149 151 146 134 129 131 136 139 132 131 128 128 122 116 115 120 116 117 113 116 115 110 107 109 112 108 105 101 101 102 100 98 102 103 105 105 105 107 109 106 109 110 114 118 120 123 127 134 133 137 139 142 140 142 142 143 145 148 150 157 162 163 165 167 169 170 179 185 188 204 213 217 233 244 234 223 221 227 215 226 203 169 177 183 191 199 212 205 190 148 143 140 143 145 135 113 121 129 126 130 135 135 125 119 115 118 117 115 114 117 119 114 110 111 113 113 108 102 103 102 102 101 98 96 103 104 104 106 107 109 111 110 113 115 114 117 120 122 126 133 135 132 134 138 138 137 135 135 137 140 143 149 153 156 157 162 162 161 163 177 180 191 200 213 217 235 233 223 217 219 217 212 196 171 166 180 191 194 211 203 192 155 142 143 145 144 126 107 114 116 120 131 133 125 117 115 116 118 116 114 111 115 111 109 108 112 109 107 102 100 103 103 102 101 100 98 102 104 104 108 109 110 112 112 113 114 112 116 118 121 124 131 133 130 131 132 134 136 132 134 136 136 142 143 148 150 153 156 158 154 158 161 174 186 189 204 210 222 227 221 214 217 213 207 182 168 158 168 180 193 202 206 192 147 135 141 147 131 115 105 103 106 118 130 125 114 109 109 111 119 114 112 105 103 103 107 105 105 101 98 97 102 105 102 100 100 103 100 101 103 104 103 105 110 109 112 113 113 112 115 117 122 122 124 125 126 126 129 131 133 128 130 134 133 141 140 143 148 150 147 150 148 149 153 162 175 181 192 205 209 222 218 214 212 209 197 181 153 161 158 160 185 194 201 191 138 134 146 147 121 105 95 102 105 114 132 121 106 98 103 116 117 108 104 97 97 100 103 95 95 92 93 96 97 98 98 97 96 97 98 98 99 103 101 104 108 109 110 113 113 114 115 118 119 121 122 120 121 121 126 125 125 125 125 128 129 131 135 136 140 143 138 139 137 137 141 150 162 172 181 195 201 211 218 209 214 209 195 166 148 148 153 150 162 182 191 194 134 130 145 136 110 100 94 104 99 114 126 108 96 89 104 119 115 100 98 99 99 101 98 90 86 86 90 92 96 95 98 95 92 95 97 97 99 102 100 101 104 104 108 111 113 116 115 116 118 120 117 112 115 110 116 117 115 117 117 118 119 122 123 126 125 133 134 133 127 127 129 140 147 161 166 183 192 202 210 207 208 213 198 155 134 133 141 144 152 167 180 197 128 127 135 133 110 98 94 99 99 105 114 99 89 84 106 115 110 103 100 101 102 101 100 94 92 95 96 99 94 90 91 91 90 91 90 92 90 94 98 97 103 104 107 112 112 116 117 114 114 116 110 105 101 104 105 108 107 108 108 108 111 110 113 118 117 123 130 129 126 123 119 126 140 147 155 169 180 194 205 202 203 209 191 152 133 128 130 130 143 160 162 186 130 129 137 125 114 99 98 99 94 98 100 89 84 84 104 112 107 104 107 109 107 112 112 109 106 106 104 102 103 104 104 102 98 95 96 95 94 95 99 100 107 110 109 111 112 112 113 107 106 105 103 100 99 99 99 99 98 101 98 98 102 104 105 105 109 113 110 118 116 116 119 115 125 142 148 160 169 183 204 196 199 210 188 144 128 126 123 115 122 152 159 172 132 135 132 123 111 98 100 90 90 97 89 78 81 88 102 109 106 110 113 102 110 118 118 121 118 116 114 112 114 116 115 114 112 111 111 113 114 113 114 112 112 113 112 108 109 107 108 103 99 102 98 95 96 96 97 94 95 95 94 95 96 101 102 104 108 110 110 109 108 101 109 105 113 131 148 157 165 175 193 198 190 204 188 135 124 117 119 113 118 141 157 172 132 131 127 114 108 100 98 94 92 90 78 75 84 87 105 105 112 114 103 100 111 118 121 124 123 125 122 119 121 122 121 121 121 120 122 124 129 132 131 128 125 121 119 115 109 108 105 104 99 100 102 102 103 105 105 103 103 105 105 103 106 104 109 107 113 112 114 117 114 112 114 108 108 121 139 149 157 168 180 197 190 204 174 127 124 112 113 107 120 133 160 175 129 128 127 108 103 101 96 98 86 74 67 70 89 88 101 106 113 112 104 102 108 112 115 124 130 131 131 126 122 128 132 131 130 133 134 135 137 140 142 142 140 135 131 127 123 120 117 113 112 114 111 113 119 118 120 117 115 116 120 117 117 116 119 116 116 119 120 121 119 117 120 118 119 115 127 141 152 153 167 182 193 197 166 124 127 114 110 103 111 131 161 173 131 125 121 114 106 106 100 98 81 64 62 75 91 94 104 110 121 113 108 103 111 113 116 122 128 132 133 133 131 134 139 138 139 143 144 145 147 150 150 152 151 150 146 141 135 135 136 130 128 126 125 125 128 128 131 133 132 136 132 132 130 130 129 125 126 124 125 126 131 129 126 125 128 115 121 129 142 151 153 171 198 189 152 126 124 118 112 108 117 131 160 174 135 119 115 107 114 107 104 90 73 59 59 76 91 97 104 123 129 114 114 117 124 125 127 127 132 132 133 142 146 143 145 147 146 144 146 150 155 155 156 159 155 156 153 149 146 144 142 139 140 137 139 143 143 141 142 143 142 146 141 138 134 137 134 133 133 132 132 126 129 132 131 130 130 126 118 117 123 138 149 163 185 181 141 125 122 119 110 116 120 135 152 171 133 114 100 104 111 108 100 89 75 58 55 74 93 97 110 134 131 117 121 128 137 138 139 139 141 142 135 139 146 145 149 151 153 152 153 153 156 160 160 165 162 159 159 155 151 149 148 146 144 147 148 150 151 151 149 148 149 149 148 147 142 143 142 142 144 136 137 133 137 141 141 140 136 138 130 115 122 126 144 162 176 165 132 126 118 120 106 115 125 134 152 163 130 100 96 96 105 107 91 85 72 52 54 70 92 97 118 138 132 128 132 139 142 146 151 146 146 152 146 153 160 161 162 162 161 164 164 164 167 167 170 173 171 169 169 166 161 160 154 152 152 152 155 156 154 158 156 156 154 157 156 153 149 145 145 144 146 144 146 146 147 152 152 159 151 152 147 129 125 128 134 154 164 154 124 127 117 119 109 102 124 138 150 163 141 96 88 90 106 101 87 93 67 46 53 66 91 105 124 144 140 137 141 147 141 142 142 140 145 152 150 155 165 167 165 162 161 163 164 166 166 168 170 171 173 171 167 168 164 162 158 159 157 160 159 159 154 158 156 158 155 157 154 152 145 136 144 144 145 146 145 149 148 140 140 154 157 146 143 139 133 121 127 140 158 134 117 129 120 110 98 93 114 129 150 165 138 99 95 94 107 88 98 87 62 51 51 70 87 109 118 141 135 134 145 148 142 146 141 137 140 143 149 150 156 155 155 153 152 155 157 160 161 163 165 164 169 170 162 164 163 160 162 163 165 164 166 167 158 155 157 155 153 158 155 152 140 136 140 141 144 144 141 144 137 130 130 144 152 143 147 134 135 128 120 134 142 125 111 115 120 101 84 81 99 108 131 160 128 109 117 103 101 90 99 78 54 53 50 70 91 108 132 138 132 139 151 151 149 155 148 140 147 156 160 157 154 151 145 142 145 147 152 154 152 157 155 165 169 172 167 168 162 162 164 166 167 166 172 177 163 159 164 162 162 160 155 153 151 142 144 141 140 138 137 142 139 126 122 140 136 143 153 145 129 128 118 129 135 123 107 108 111 86 66 75 87 83 114 153 137 114 123 108 104 100 98 70 49 49 47 70 99 114 137 142 140 155 155 166 161 168 158 147 160 173 165 161 146 148 138 136 141 156 153 152 155 157 160 162 173 184 178 172 169 163 169 171 173 170 173 179 169 161 163 163 160 163 155 159 152 146 147 146 141 139 144 144 145 144 129 138 132 128 154 157 135 132 119 124 124 111 105 107 96 68 50 58 81 79 99 138 142 119 124 110 105 104 98 72 51 48 46 73 100 119 140 152 155 167 183 184 178 180 170 158 172 178 173 167 158 161 152 149 154 163 161 158 164 168 168 167 179 189 183 177 167 166 171 170 178 175 179 172 167 163 169 171 166 166 162 166 161 149 148 146 143 145 149 150 153 156 142 129 142 117 132 160 147 139 147 130 126 104 95 93 80 56 38 51 65 72 92 128 153 125 115 102 107 117 98 72 48 45 55 84 108 129 157 169 174 185 206 221 207 203 195 188 184 190 181 177 156 156 157 149 153 169 168 173 174 184 181 178 181 185 187 182 175 170 176 182 184 183 189 180 170 163 167 169 172 157 152 160 164 159 157 156 149 151 156 162 164 167 152 142 142 141 134 152 152 146 147 125 131 106 94 64 54 41 31 46 54 74 80 128 154 133 111 110 111 112 98 77 59 50 68 101 118 136 168 182 189 207 222 226 225 220 203 179 187 194 191 174 155 168 165 164 165 176 181 182 197 203 200 192 189 183 193 184 177 176 174 178 190 189 190 176 181 171 173 179 182 173 155 157 155 169 165 173 168 171 167 168 174 174 170 149 143 159 150 147 159 150 143 129 120 102 93 47 35 26 20 34 43 56 73 123 149 141 125 121 106 116 105 80 67 53 73 103 121 146 177 193 206 238 232 231 233 220 205 184 196 213 207 187 171 184 189 186 186 185 187 192 201 206 210 193 188 184 191 191 177 182 186 187 196 199 192 180 193 181 178 182 180 159 150 148 147 158 168 181 168 168 173 186 180 192 186 162 153 174 164 146 157 153 139 128 122 92 95 28 23 14 10 26 33 60 86 126 144 143 151 118 110 120 107 66 75 59 80 111 121 153 173 196 209 227 237 230 228 228 201 188 203 215 199 186 184 196 196 195 195 197 201 204 207 208 202 189 183 183 193 194 181 180 190 185 192 200 185 179 179 187 169 167 176 159 154 147 152 160 167 187 165 167 165 183 197 193 198 168 163 179 182 163 162 153 138 125 117 87 77 13 19 5 22 28 37 74 100 134 143 136 149 114 120 128 104 69 70 77 89 123 129 161 174 191 203 220 232 225 233 225 209 206 219 223 208 203 206 200 201 211 208 207 207 204 202 194 193 185 183 191 189 188 183 185 187 183 194 195 188 179 186 183 178 171 176 166 161 149 163 169 168 179 172 178 166 168 196 197 206 182 181 184 188 172 184 174 149 135 110 81 62 11 16 0 36 20 36 79 98 148 148 136 140 111 130 137 100 76 62 75 87 115 121 160 171 181 201 212 208 200 202 203 204 201 221 229 219 226 223 217 208 211 212 196 194 197 191 184 187 184 182 193 182 181 171 180 183 182 190 191 191 177 176 177 172 179 183 170 180 166 171 178 184 179 174 171 174 190 190 203 192 188 199 193 196 175 185 190 165 144 95 70 52 6 27 22 58 22 46 98 106 147 157 146 129 116 139 152 110 82 75 72 98 115 121 154 165 172 195 217 208 192 210 210 200 193 208 224 225 232 228 211 210 205 205 201 196 195 184 186 171 166 172 176 170 163 161 170 174 175 186 185 190 185 187 177 173 183 192 176 193 192 178 190 192 182 169 170 178 191 194 205 201 193 197 199 203 175 175 178 166 140 82 72 45 14 62 60 77 33 54 112 122 160 155 136 132 114 142 161 118 91 85 74 104 118 130 147 175 169 191 211 201 188 204 206 207 204 209 217 213 215 221 201 199 202 203 199 197 196 203 206 201 195 183 176 171 160 161 167 166 163 176 176 178 190 188 173 167 175 194 200 197 195 190 202 199 205 190 198 206 225 218 196 195 204 191 199 208 193 175 165 156 126 82 75 46 57 91 76 88 43 70 122 125 158 144 136 115 115 147 160 126 96 85 82 105 119 135 151 164 172 196 216 200 199 209 209 204 203 203 196 196 200 204 202 193 190 194 182 194 199 194 203 185 179 174 169 169 168 160 164 161 164 166 161 175 188 186 176 166 174 190 202 208 203 197 198 198 194 204 200 203 224 226 216 200 212 199 194 207 200 176 161 152 119 92 84 64 79 109 89 90 57 93 131 120 149 147 127 103 126 137 162 124 98 92 93 106 119 131 159 162 170 182 201 199 193 208 200 190 185 189 194 192 192 189 191 183 183 180 173 183 188 189 195 181 167 166 163 159 157 150 145 156 158 160 152 165 180 179 181 169 168 182 194 206 209 204 201 202 201 216 204 204 221 218 219 211 213 203 204 210 198 174 150 139 126 96 87 75 87 108 93 95 69 108 129 127 151 140 120 88 124 142 160 127 105 101 101 102 119 129 157 172 181 185 200 196 186 200 190 182 178 180 189 187 186 187 188 179 170 172 167 173 183 188 186 172 161 159 161 169 149 146 137 148 156 155 153 153 175 182 184 190 182 171 183 186 200 203 199 196 201 199 197 202 207 212 211 206 210 195 201 202 189 165 145 136 130 98 96 77 94 107 106 116 85 118 116 134 154 135 127 98 118 144 166 125 112 117 104 102 118 131 157 167 181 181 192 194 180 188 189 180 181 177 180 186 186 191 188 179 174 168 164 169 167 167 159 163 145 146 158 155 147 137 139 141 147 134 135 144 166 169 170 180 175 174 175 173 178 185 182 187 195 190 190 188 193 197 195 188 181 177 186 183 173 161 144 138 134 97 108 83 96 126 128 127 103 126 112 139 158 131 135 107 109 133 162 134 117 125 110 96 117 128 156 166 178 179 187 192 181 181 187 184 179 181 180 183 183 184 180 175 168 166 163 160 167 167 147 141 137 140 146 146 144 135 143 147 140 128 122 143 177 171 169 172 174 174 178 166 175 177 173 173 177 173 175 174 176 171 168 168 167 164 175 174 164 159 150 146 129 103 104 90 102 138 135 123 120 110 116 140 159 135 135 114 104 134 155 161 127 123 116 89 113 125 154 165 167 178 177 186 179 171 181 183 182 183 182 182 181 179 176 171 165 163 162 163 163 151 133 128 127 133 135 134 138 134 135 135 118 108 120 136 164 167 168 174 164 167 172 167 169 174 172 167 164 162 158 156 155 159 161 159 157 157 169 164 158 151 145 141 126 108 108 103 102 124 123 113 116 87 133 139 163 132 140 128 99 146 160 164 147 127 114 89 109 125 148 160 165 175 169 179 179 169 171 177 180 184 186 183 180 177 174 167 160 167 159 158 148 143 133 127 128 134 141 132 127 133 130 124 123 117 127 145 154 159 165 180 169 165 167 170 171 168 171 172 171 166 160 152 154 155 154 153 151 162 165 160 152 149 145 142 124 109 120 109 110 120 132 119 99 88 146 143 170 138 152 143 107 144 189 195 149 148 129 104 113 120 145 157 162 171 170 170 178 177 169 172 179 182 180 177 177 172 170 165 161 166 159 147 149 143 143 138 128 130 138 135 125 123 121 124 124 131 132 152 144 157 164 187 184 175 163 173 171 165 164 164 165 161 159 154 152 155 157 158 157 163 157 154 144 150 146 142 117 111 116 108 117 126 142 126 86 103 151 150 171 143 161 157 135 152 194 210 161 149 152 117 118 122 148 157 160 162 168 170 178 178 183 177 179 185 190 188 182 177 175 171 167 159 144 137 144 145 143 132 117 113 127 130 131 125 128 122 114 124 133 142 133 147 159 172 179 169 169 156 165 153 158 158 157 157 153 149 155 162 162 166 163 155 154 150 144 153 152 135 114 115 107 103 125 142 145 111 84 119 147 156 172 151 172 160 150 163 186 203 173 163 169 121 121 117 144 156 158 165 171 178 178 180 181 185 185 187 194 193 190 182 181 173 158 146 133 132 139 139 132 120 110 115 123 128 127 130 128 123 114 118 122 134 138 139 148 153 166 163 159 154 154 154 156 154 152 157 153 148 151 152 155 160 161 154 149 144 151 148 149 135 114 115 101 122 140 154 129 95 86 130 146 158 174 152 175 165 154 168 193 191 177 164 174 138 124 122 135 148 154 165 166 172 178 178 180 180 182 192 195 189 186 181 175 167 148 141 132 130 131 136 124 115 107 110 117 124 128 127 120 120 108 113 116 127 136 138 144 150 147 144 145 144 141 143 151 150 143 146 148 145 143 149 153 153 165 155 146 139 150 154 153 123 123 113 105 134 148 144 108 87 106 135 152 168 175 151 164 167 153 168 182 198 189 165 172 162 128 121 137 144 151 160 165 172 173 175 181 174 176 188 192 183 180 173 165 156 139 142 134 128 136 137 124 115 105 101 110 121 125 125 117 111 106 108 113 116 116 127 132 146 135 141 143 138 139 139 149 148 145 139 135 136 141 147 153 150 162 152 150 142 151 161 155 129 137 116 118 132 142 149 102 95 126 145 158 164 182 148 150 169 152 171 209 201 205 178 174 183 139 123 137 139 149 160 163 172 170 174 183 172 171 186 188 183 180 170 163 152 142 138 138 140 143 134 124 120 111 118 117 125 125 117 114 104 99 98 106 119 110 120 121 127 130 140 140 141 134 133 134 145 146 142 137 124 134 134 144 147 151 152 143 139 157 162 152 135 143 127 138 136 150 150 109 119 139 156 167 176 183 141 150 159 147 172 213 196 193 179 180 185 144 124 136 139 148 160 163 173 167 177 181 175 167 186 188 185 179 171 158 153 148 136 140 138 141 131 126 125 121 126 124 121 123 114 110 108 103 101 100 113 112 114 114 125 140 147 144 140 132 129 133 136 144 141 136 129 132 135 142 148 150 151 140 142 153 161 136 135 154 149 155 155 159 156 125 143 148 164 166 173 180 146 148 149 142 175 204 184 179 169 176 167 152 132 134 137 145 161 160 173 165 174 178 180 174 177 188 191 183 174 166 163 154 138 141 140 121 130 135 141 141 134 127 123 118 120 109 108 110 110 106 113 115 119 132 141 150 153 155 143 135 132 131 133 139 140 135 130 129 134 138 135 138 145 140 141 152 155 129 135 153 156 161 162 165 153 141 162 159 171 170 177 175 147 160 154 145 172 201 187 167 178 176 166 154 133 136 137 137 156 161 168 170 168 171 180 178 175 179 181 175 170 162 158 154 141 138 140 124 122 128 142 135 133 129 123 119 113 105 102 107 111 105 104 116 128 140 144 153 161 159 157 147 138 129 129 130 126 134 126 124 126 131 131 133 140 141 140 147 147 129 145 147 149 164 170 167 162 156 173 177 169 173 179 186 154 165 158 154 167 202 197 174 180 177 172 157 129 133 138 134 150 158 166 167 171 169 175 181 179 173 164 162 158 149 148 150 140 137 126 120 110 108 122 126 130 118 121 121 110 101 102 103 112 108 101 119 128 133 132 139 146 147 151 151 140 127 119 116 113 124 119 115 112 118 120 124 135 134 139 142 139 127 156 152 150 164 179 175 164 167 181 178 170 181 184 197 155 165 157 158 173 196 199 187 181 174 171 163 133 128 141 136 154 157 167 166 171 172 172 170 173 161 161 157 151 142 150 149 145 136 125 109 113 108 106 115 124 117 117 125 117 100 101 105 104 110 108 117 120 116 117 129 140 135 144 144 138 127 116 113 113 119 118 112 103 109 113 115 127 134 132 134 131 128 164 147 152 166 178 175 177 176 180 178 168 188 190 203 160 158 157 145 171 197 207 200 184 171 165 169 146 130 141 137 149 157 165 169 168 169 170 168 169 161 158 149 143 141 146 145 134 126 118 113 114 111 106 118 122 125 117 122 121 111 104 109 98 108 117 125 116 119 120 137 140 138 123 132 124 114 114 107 114 111 114 105 102 107 113 117 129 131 132 134 124 122 165 152 156 176 187 190 182 184 176 171 172 192 194 200 167 148 147 144 156 197 211 202 187 173 163 162 158 135 139 136 148 154 160 166 168 165 164 164 166 158 150 144 142 140 140 130 112 110 111 123 123 107 113 115 118 120 111 117 120 112 113 112 93 95 106 113 112 117 125 139 144 139 130 124 120 110 104 100 103 109 111 106 103 110 117 118 132 128 132 132 120 121 155 159 165 186 200 191 188 188 181 167 172 193 194 195 165 144 143 150 141 180 206 195 186 178 161 154 148 139 138 138 141 149 161 162 166 162 158 160 159 152 148 145 141 130 120 113 109 103 101 113 121 108 100 102 97 111 107 110 109 107 108 110 94 90 94 106 117 123 125 141 141 128 127 118 114 106 107 104 100 109 119 116 119 121 123 123 136 132 138 128 126 123 147 156 169 188 196 190 203 195 183 159 167 188 194 189 165 151 143 151 149 161 194 197 182 177 163 152 145 135 132 133 137 146 160 157 158 155 156 150 155 151 147 143 135 117 109 102 100 95 96 100 106 110 102 105 105 108 108 114 108 107 108 115 110 100 99 111 128 133 129 137 130 120 117 115 108 101 105 107 99 116 122 121 125 129 126 127 140 138 143 135 132 132 149 168 184 186 192 202 200 200 174 159 164 181 191 190 159 151 147 139 145 159 169 179 170 168 156 155 144 134 128 132 135 146 154 152 154 152 154 153 154 152 146 141 126 109 102 96 89 86 87 92 95 104 97 99 102 100 108 108 101 104 107 115 118 107 101 106 124 126 128 116 113 108 112 111 107 98 101 97 95 114 124 124 128 137 138 134 149 146 148 135 136 140 153 173 189 190 196 200 199 195 163 153 171 178 190 199 143 151 150 135 137 156 155 160 141 153 145 148 139 133 124 129 131 145 148 153 150 154 159 154 158 153 146 136 122 111 100 95 86 84 83 84 86 93 96 89 93 93 108 107 105 100 106 110 111 106 104 107 112 113 113 112 107 102 99 98 96 101 100 100 96 115 130 128 135 146 141 145 147 144 137 130 132 144 152 173 193 196 204 203 199 184 154 156 173 182 191 207 138 149 152 136 143 143 148 155 128 120 130 134 122 117 118 119 130 142 148 155 157 154 160 155 157 160 146 138 128 110 107 105 96 95 90 89 83 93 99 97 110 108 111 117 111 110 112 112 114 108 107 111 115 116 113 113 109 115 108 99 96 101 104 102 100 120 129 133 144 148 139 145 152 142 132 123 129 145 156 176 188 197 212 197 186 162 160 160 178 185 188 203 148 153 150 136 146 149 136 148 126 105 113 120 114 111 112 114 131 144 150 151 157 160 160 158 157 167 160 156 148 131 123 116 111 107 100 96 98 109 128 128 132 132 137 142 133 124 125 123 121 120 116 120 123 125 126 134 131 130 117 103 99 97 106 103 104 124 130 140 144 143 138 145 154 142 127 126 131 150 161 179 185 190 207 190 168 167 167 169 176 188 189 190 166 161 152 149 152 154 135 132 118 99 107 104 101 103 105 111 123 141 148 152 151 161 161 158 160 168 169 168 168 155 142 134 126 122 118 119 124 142 152 157 157 158 161 162 154 147 144 146 145 140 135 134 144 148 143 150 143 134 133 116 110 106 109 110 108 129 129 136 141 139 139 148 154 141 121 125 131 151 159 176 172 184 202 176 166 170 172 177 175 184 192 184 173 168 162 157 161 157 148 128 115 98 102 96 90 100 98 110 116 134 141 151 152 152 158 159 160 162 161 159 162 163 150 142 141 141 140 137 141 147 155 161 166 166 173 183 165 161 157 158 160 151 142 146 156 158 152 150 148 144 144 139 123 117 124 114 111 122 133 128 131 136 139 142 146 139 119 120 133 150 156 166 156 177 194 159 165 174 177 176 177 179 191 186 167 165 171 167 162 160 158 140 119 102 99 95 89 89 97 101 110 128 131 152 149 151 162 163 161 164 154 160 158 159 156 151 150 147 148 141 139 138 138 142 151 152 156 171 158 156 150 158 164 158 161 153 156 154 151 158 164 164 165 160 139 137 136 126 116 123 128 132 129 129 133 138 138 137 120 122 132 144 149 156 150 168 173 158 162 171 183 169 174 173 190 185 162 171 171 166 159 164 163 152 133 115 94 93 90 91 95 98 111 125 126 150 153 155 168 166 164 173 159 166 166 165 164 163 157 158 160 152 147 152 154 147 143 146 143 154 148 148 153 153 151 155 157 154 156 160 160 168 171 176 176 163 148 146 142 132 123 125 131 127 126 129 127 138 134 133 120 122 135 149 142 148 142 147 168 163 158 168 188 162 164 170 183 188 163 169 165 166 162 171 168 158 140 126 98 93 90 93 91 98 117 124 133 144 152 159 163 166 165 168 154 164 166 163 168 168 166 172 180 175 172 180 179 174 162 163 161 163 155 157 168 164 150 152 157 158 163 171 167 176 174 172 177 162 149 152 151 148 134 126 121 117 121 123 133 138 132 121 115 124 143 148 139 140 144 148 157 168 163 169 185 162 157 170 170 187 165 164 162 168 171 175 169 157 145 137 113 95 92 93 88 105 118 123 126 145 151 158 162 162 165 161 153 156 162 169 175 175 179 180 180 182 181 189 188 190 185 179 184 183 175 168 168 168 162 160 168 174 178 181 181 188 180 170 169 166 158 157 158 154 141 127 117 113 116 124 137 137 129 105 107 125 143 145 141 137 149 154 160 169 173 171 180 164 151 166 166 174 168 168 164 172 180 176 160 153 150 145 127 105 100 93 90 110 119 123 120 142 143 152 160 161 163 160 158 164 167 171 178 179 190 194 193 181 191 205 208 211 208 207 196 190 184 177 173 170 167 169 177 182 183 192 190 184 186 176 173 169 161 157 161 150 137 123 110 109 115 123 134 131 123 103 105 130 138 138 144 135 150 156 163 170 174 180 176 166 155 159 170 165 164 167 171 173 179 169 154 155 151 143 139 122 109 97 92 109 123 126 116 120 135 133 140 149 153 155 153 163 159 166 180 187 192 195 192 181 184 195 195 201 196 196 189 174 170 169 162 157 160 164 164 172 177 182 182 176 179 171 165 164 155 154 149 145 135 120 114 109 113 123 127 126 114 101 116 132 139 139 140 136 154 159 173 170 180 178 179 165 158 161 165 165 158 169 173 177 173 157 156 147 149 147 146 131 121 104 90 115 123 123 117 105 118 115 120 134 132 143 140 150 149 156 168 183 188 191 192 189 184 185 178 176 170 166 166 154 144 141 142 148 151 155 152 163 167 175 175 168 166 160 157 151 150 145 144 142 128 112 111 112 110 118 123 119 105 100 122 134 136 140 140 136 157 162 174 173 180 177 175 166 161 162 164 159 166 172 176 174 158 155 156 147 154 152 148 138 134 112 96 118 128 130 120 110 101 106 108 123 120 131 137 141 140 141 153 169 174 178 185 190 186 184 181 174 160 159 161 152 147 140 131 132 141 144 143 151 157 158 161 155 152 155 153 148 147 143 137 132 123 110 99 112 109 122 120 111 109 109 133 136 134 139 136 139 154 167 178 185 179 178 173 163 162 156 166 160 171 173 174 159 153 155 152 150 153 157 153 144 139 124 103 124 139 135 128 115 102 101 102 108 123 119 126 134 136 132 143 157 158 163 167 171 178 175 177 166 153 153 152 140 142 140 133 132 133 135 136 141 146 146 150 144 151 150 147 140 138 133 125 117 119 107 102 109 106 118 116 105 116 99 138 133 128 135 136 139 153 169 181 186 183 179 171 158 156 150 165 165 171 173 165 152 152 153 151 147 151 160 157 150 138 135 112 131 147 150 136 126 110 98 108 102 111 123 122 128 132 127 136 147 153 159 163 162 170 165 166 158 158 159 151 138 136 135 131 131 130 128 131 136 142 144 146 145 151 154 146 139 134 127 119 117 112 101 107 108 105 119 107 114 109 101 138 117 123 134 133 135 159 167 178 184 187 178 168 163 157 146 161 168 172 170 156 150 149 151 149 145 152 163 158 155 147 138 121 137 150 153 144 130 122 97 95 104 107 116 121 122 127 127 135 137 146 151 165 168 170 168 168 168 171 170 161 148 149 140 136 134 135 130 132 141 142 147 148 151 150 151 141 136 132 127 121 116 109 104 110 108 110 115 109 119 94 121 142 107 112 126 126 137 162 166 170 184 187 179 164 166 162 145 157 164 168 163 151 146 145 154 152 143 153 164 162 155 153 143 133 149 164 163 151 132 130 102 90 90 99 98 108 116 116 126 136 128 133 144 161 160 162 163 174 176 186 180 178 169 167 158 155 147 146 142 141 145 147 149 149 152 145 141 131 126 127 122 115 111 105 105 110 109 110 110 112 111 91 137 137 104 112 115 123 141 162 166 163 175 180 176 169 163 163 154 152 154 157 159 145 141 147 157 152 140 149 163 163 155 156 148 152 167 180 174 159 148 136 116 94 81 90 94 100 109 114 117 129 125 130 138 148 151 155 162 164 173 175 175 181 176 174 173 165 165 156 157 153 151 151 151 151 151 148 140 136 127 129 124 108 109 107 102 105 109 114 108 111 103 95 145 118 104 110 114 116 139 156 159 160 161 170 168 165 166 159 150 149 145 157 155 145 141 144 157 150 136 149 157 165 154 158 161 166 182 190 184 170 158 147 126 100 83 80 84 92 89 107 109 115 124 123 129 135 145 150 159 155 169 173 170 177 176 168 168 162 160 156 161 157 158 157 157 161 158 156 144 139 134 129 123 109 107 108 101 104 104 114 108 109 105 106 140 114 97 114 114 120 131 153 152 155 156 152 156 160 166 159 145 150 140 153 151 142 136 137 154 144 133 148 155 159 156 164 180 174 184 206 196 187 170 163 138 107 84 70 74 76 82 90 97 99 103 108 117 122 137 143 143 147 152 151 155 158 158 153 151 148 149 144 158 159 156 161 155 163 160 149 148 138 138 122 119 109 104 109 100 106 109 116 107 107 116 112 136 105 89 119 113 118 127 139 145 155 151 147 143 156 162 154 152 149 145 151 150 143 131 135 149 138 130 145 156 149 155 171 184 185 186 217 213 197 187 170 155 116 95 73 67 64 73 80 89 86 92 99 104 113 120 133 133 139 137 134 138 139 138 138 134 138 138 139 142 146 150 151 157 155 159 148 143 134 126 116 114 106 100 102 101 105 111 113 102 112 118 112 131 91 89 113 114 120 127 129 135 151 148 143 135 148 159 151 148 150 149 151 151 140 130 133 143 139 128 145 153 140 158 181 185 194 190 225 222 213 200 176 165 136 107 75 68 64 62 74 79 80 81 91 96 100 109 117 121 124 121 121 126 126 124 126 122 125 125 126 129 132 140 145 145 145 148 140 125 124 116 111 105 102 95 102 109 104 110 107 104 121 109 111 126 84 84 106 120 118 121 128 126 146 146 140 133 142 155 145 150 150 148 152 148 136 131 128 138 145 127 144 149 133 159 185 191 200 196 228 228 223 210 182 177 158 126 86 67 72 64 69 67 72 74 78 80 80 100 100 112 116 110 114 112 113 118 112 113 114 115 120 124 125 132 134 129 130 130 129 115 116 108 105 103 101 99 102 108 107 103 107 114 123 111 105 127 77 67 98 121 116 120 122 126 131 148 137 135 140 143 138 147 150 145 151 147 135 131 125 141 150 129 141 143 130 163 186 200 205 203 229 235 228 221 202 196 181 147 105 83 75 69 66 63 66 65 64 61 65 84 86 99 100 110 113 113 106 115 116 113 113 112 120 123 124 126 125 125 121 115 120 113 106 103 97 95 97 104 107 104 107 106 112 122 124 103 106 120 72 50 80 116 113 117 117 129 122 140 138 134 137 135 130 136 142 141 149 145 138 131 123 144 150 135 138 133 135 160 186 215 224 200 239 243 232 219 219 219 194 168 132 102 90 77 65 67 67 61 58 57 57 64 74 82 91 97 106 106 109 114 112 115 116 111 124 122 121 121 119 119 110 107 110 104 103 99 96 92 100 100 108 95 104 114 116 125 120 97 111 114 67 46 60 109 107 109 115 114 118 121 139 132 134 124 126 129 135 131 150 143 138 132 121 144 151 136 132 132 141 157 198 235 212 206 248 237 226 227 224 237 210 179 157 128 112 90 78 74 75 66 60 61 57 59 64 70 80 90 102 98 100 104 107 104 110 111 114 116 119 117 116 112 107 104 101 95 98 98 94 94 98 103 97 98 103 120 118 127 112 98 131 104 72 37 53 86 109 108 108 102 110 115 132 137 132 120 126 126 130 128 146 138 136 128 119 139 154 131 127 133 145 170 218 222 208 219 253 225 208 233 232 233 228 189 170 153 137 117 101 81 86 85 74 66 63 60 63 61 67 79 91 91 96 98 100 98 104 105 106 105 108 105 100 99 102 95 97 89 91 91 95 94 96 98 102 103 108 125 128 123 109 96 140 109 77 46 48 61 91 103 103 92 96 108 125 135 129 119 124 127 127 126 141 133 134 125 119 134 150 134 125 138 152 194 216 207 218 229 250 226 204 228 232 240 225 206 176 165 163 139 126 102 93 91 86 76 66 68 59 58 62 70 76 80 90 89 92 89 90 89 93 88 90 93 88 95 93 87 89 86 88 92 96 93 95 93 101 104 117 131 124 116 108 89 123 112 75 72 51 55 63 99 89 92 76 99 120 128 126 121 123 129 126 125 134 131 133 130 125 133 156 144 138 151 171 193 210 208 229 236 229 213 207 221 230 242 223 203 184 174 173 154 140 127 110 103 97 87 77 75 68 68 70 65 71 77 81 85 83 90 87 86 85 88 88 87 87 86 87 88 87 86 90 93 89 93 97 95 99 112 129 129 116 111 102 96 110 107 88 86 82 62 49 76 84 85 67 78 102 119 121 123 126 129 128 122 131 133 137 135 132 142 168 165 154 170 176 200 207 224 225 227 204 207 195 220 229 227 220 200 192 183 170 166 157 146 131 124 112 98 90 84 82 76 76 70 74 77 78 83 86 84 85 85 84 87 84 86 86 86 85 87 82 87 89 87 87 84 90 93 106 126 137 133 119 106 108 95 108 80 109 96 108 78 54 57 69 77 78 64 79 98 112 123 125 129 126 120 135 133 147 148 139 150 180 174 173 176 181 204 208 228 224 206 194 194 189 205 228 238 212 198 196 187 174 168 162 161 146 138 131 117 103 99 92 86 78 80 82 87 85 85 86 81 85 85 88 87 90 83 87 84 81 87 89 90 83 77 83 81 84 100 115 129 134 128 124 108 114 99 102 74 112 97 123 103 58 50 53 57 72 62 56 74 97 112 118 126 124 122 138 138 151 151 146 157 182 197 192 171 176 204 203 218 222 181 185 185 177 206 211 237 217 206 195 197 179 175 168 168 157 145 140 134 128 114 113 104 96 90 85 89 91 90 86 83 82 84 86 92 84 81 87 83 83 87 88 85 76 77 76 80 97 107 120 133 131 131 124 124 122 88 96 84 106 99 123 121 81 56 57 46 58 58 46 50 82 97 104 111 114 117 143 141 147 155 156 170 195 206 190 169 171 202 204 202 197 167 179 173 160 202 211 212 223 210 196 198 186 176 172 169 162 155 146 136 132 128 126 120 118 109 100 99 93 93 91 88 90 89 82 86 79 85 80 78 82 84 83 74 79 78 78 89 104 118 128 142 138 127 119 127 128 84 89 94 100 110 119 121 107 83 67 53 41 59 40 35 63 86 94 101 102 105 149 149 159 166 179 186 199 201 191 169 164 190 189 192 185 156 164 167 151 187 217 202 217 208 204 189 190 186 178 174 166 163 157 150 142 139 140 132 129 127 126 112 101 96 92 85 81 83 76 76 74 73 75 80 84 80 77 75 80 82 87 98 111 127 136 136 136 127 131 137 115 79 99 102 110 110 135 114 127 117 75 54 32 49 50 37 43 70 86 98 95 100 