P2
92
112
255
105 105 106 104 106 105 109 107 103 104 101 95 98 94 93 86 85 83 85 86 86 83 88 91 92 103 102 105 108 109 123 128 123 130 135 144 147 159 149 152 158 153 157 158 149 160 148 142 138 127 132 124 118 112 111 112 109 107 108 106 102 100 101 100 99 102 106 100 100 97 98 104 105 109 119 127 129 125 129 128 130 129 132 130 130 128 131 130 129 133 127 126 105 104 105 105 107 107 108 103 99 101 98 93 91 90 90 90 88 86 89 92 89 95 99 99 103 107 119 123 131 133 134 142 131 137 144 139 149 155 150 157 155 147 150 153 155 154 162 155 149 143 142 142 140 137 135 139 129 122 117 112 106 104 103 98 98 99 102 104 98 98 96 93 99 103 103 114 124 127 126 129 129 127 131 129 130 129 130 134 127 131 132 129 105 104 104 106 107 106 101 98 99 95 91 89 91 89 90 89 87 85 88 94 97 101 104 106 116 126 138 140 143 144 139 139 137 140 145 147 152 154 152 155 148 152 153 153 158 162 164 158 151 160 154 146 149 151 150 147 146 143 138 129 128 114 105 101 99 101 100 103 101 97 93 94 93 95 97 102 111 120 127 126 126 126 129 129 128 128 129 130 129 128 131 130 103 105 104 103 106 104 96 98 96 93 92 90 91 90 89 83 84 87 98 103 104 101 110 121 132 138 146 147 147 148 139 132 140 142 150 153 153 163 162 165 160 168 163 159 162 168 162 164 161 165 166 160 159 166 165 156 153 151 156 151 147 132 118 118 112 105 107 102 101 100 94 90 92 93 92 100 98 108 122 125 125 126 125 124 126 127 130 128 129 128 126 129 105 104 105 102 100 99 94 94 95 93 94 88 88 88 85 82 88 101 109 110 111 119 130 141 145 151 153 150 141 137 133 132 145 151 148 148 161 156 166 162 161 165 156 158 151 159 149 147 146 153 155 151 151 159 165 163 159 159 162 161 154 154 147 140 132 118 118 113 102 101 99 93 92 90 95 98 100 95 107 120 122 122 126 125 124 124 131 128 129 128 124 127 104 103 103 100 96 91 93 93 92 90 92 88 87 86 88 91 103 113 118 121 125 140 155 162 160 162 152 147 144 142 136 136 139 137 139 140 147 151 155 156 162 161 149 150 146 149 144 137 127 140 144 137 143 146 152 146 152 153 154 159 143 139 140 142 136 123 117 118 115 106 99 95 98 93 91 94 103 100 92 110 115 117 120 124 124 123 125 127 126 129 125 123 106 103 102 97 92 89 90 93 94 94 86 89 90 90 99 109 117 124 126 137 151 163 158 157 162 152 148 139 143 139 125 126 129 125 126 126 135 136 147 143 150 150 141 139 138 140 141 131 122 134 129 128 134 133 146 133 132 140 143 149 138 133 125 126 127 115 110 117 120 118 109 104 103 99 95 94 94 90 93 98 108 113 118 117 122 122 121 124 126 127 128 124 104 104 98 93 89 89 89 95 96 95 89 94 99 108 122 127 128 130 140 150 157 165 160 157 157 150 142 132 131 121 111 117 114 115 121 118 121 129 134 127 132 130 128 122 122 126 129 122 123 132 127 120 127 128 132 126 122 127 138 142 132 130 118 118 116 113 105 104 105 113 118 114 105 106 101 92 96 87 84 90 96 104 114 114 119 121 117 118 124 122 126 124 106 101 95 90 89 89 89 95 96 95 95 102 115 127 131 130 134 146 146 153 159 162 159 162 156 140 137 133 126 116 103 113 113 115 118 117 120 123 118 116 115 118 119 108 109 114 113 109 110 117 114 115 120 120 123 125 119 116 123 131 128 127 116 111 107 109 106 103 94 97 113 116 110 107 108 95 87 87 82 80 86 87 104 107 113 116 121 118 116 121 122 125 103 97 91 90 92 91 92 94 101 95 107 120 132 131 134 142 148 152 152 154 158 156 159 153 140 122 123 118 118 110 98 106 112 105 102 106 112 116 112 109 110 107 108 105 105 115 113 104 97 103 109 114 110 103 110 109 113 111 110 119 115 112 111 107 106 102 105 100 95 81 87 102 113 113 103 105 84 77 77 73 70 76 87 99 103 112 117 122 117 116 121 120 99 92 91 92 93 93 93 98 101 111 118 124 124 124 143 156 155 156 155 154 154 162 149 139 127 127 121 114 106 106 103 102 104 106 103 100 102 103 104 103 106 109 105 104 105 111 107 100 101 97 107 107 106 96 99 105 104 112 104 107 109 103 101 94 95 98 103 97 97 87 81 83 101 114 104 103 96 80 79 68 65 69 74 86 97 107 111 116 118 114 118 121 97 94 92 92 93 93 96 96 105 114 124 121 123 134 142 145 150 147 151 156 155 143 141 130 119 127 120 116 110 108 102 106 110 113 111 107 105 102 108 104 107 112 106 102 101 105 100 105 105 94 100 97 96 94 96 109 99 106 98 103 103 95 90 90 87 90 94 88 84 88 83 72 77 92 101 101 98 88 81 70 66 66 66 67 83 97 105 108 112 117 115 120 96 94 92 92 93 95 98 103 112 120 120 114 125 132 140 141 143 148 154 161 150 145 137 131 122 124 122 118 117 117 117 116 119 122 122 119 117 116 113 109 111 116 113 107 108 104 96 98 95 87 89 97 98 99 103 102 94 95 96 95 98 85 85 86 90 87 91 93 84 79 76 70 56 63 79 98 96 95 84 76 71 63 58 60 66 77 97 105 103 110 112 114 94 92 93 92 92 96 101 111 112 113 110 115 125 131 131 139 146 146 152 146 150 138 131 126 121 122 130 131 128 132 135 129 132 130 131 130 123 127 124 126 128 123 118 117 111 105 97 99 91 87 91 99 101 100 102 102 93 93 88 90 83 84 79 84 84 78 82 90 83 85 73 68 57 53 55 71 90 86 87 88 79 63 60 52 56 64 75 93 100 102 104 111 92 94 95 94 94 101 106 112 110 97 106 113 125 129 133 144 154 152 140 139 136 124 121 121 124 132 143 143 141 144 148 144 138 140 143 139 132 132 132 131 129 131 128 120 116 107 102 99 96 93 94 97 101 98 98 95 88 87 88 88 83 78 77 75 70 66 78 83 82 86 80 69 60 50 49 46 63 83 76 86 92 77 61 55 54 57 62 78 85 98 99 105 91 92 96 92 95 101 102 105 100 105 111 118 126 130 136 143 147 135 131 134 126 124 116 124 136 147 152 153 156 162 159 156 155 152 152 145 139 142 146 141 141 139 135 122 119 116 108 107 104 95 88 92 97 92 92 91 84 83 84 84 82 76 71 68 59 57 62 75 79 86 83 69 60 48 43 36 44 64 79 66 91 95 71 57 52 49 53 62 79 86 97 103 91 90 91 94 97 99 94 96 95 105 110 118 123 129 133 142 137 126 124 123 124 120 126 137 147 158 160 166 168 171 171 166 168 163 157 153 153 152 153 150 146 142 137 131 127 122 113 106 105 98 90 89 88 90 90 85 84 83 81 81 79 71 65 65 57 54 59 64 66 71 77 68 69 56 46 38 36 31 68 62 66 95 96 58 46 48 47 59 66 84 88 91 92 91 97 100 99 94 91 98 106 111 114 115 114 127 134 138 123 114 113 116 119 126 140 151 157 164 170 170 171 177 178 176 174 171 161 158 160 161 157 155 151 149 146 139 137 129 121 115 111 102 101 95 87 87 89 84 78 79 79 79 74 66 59 59 55 48 51 54 53 57 65 61 62 61 47 40 30 26 35 65 50 78 105 74 46 42 46 50 62 67 88 84 95 97 100 103 93 93 103 110 110 111 111 107 112 124 129 126 114 109 107 115 123 138 150 158 165 172 171 175 174 181 182 179 179 174 171 164 164 163 162 158 155 153 151 150 142 134 131 124 115 109 106 100 93 86 81 76 71 71 70 73 71 62 54 54 49 45 46 44 48 46 47 52 53 49 47 41 25 22 18 40 56 55 90 75 58 41 41 44 53 62 74 83 100 98 100 98 93 104 110 110 106 106 113 115 115 122 124 122 111 99 103 117 129 143 151 162 171 170 170 173 175 179 182 183 182 182 177 173 169 161 162 162 156 159 155 151 143 143 133 126 120 113 110 105 97 88 81 80 73 68 66 66 62 59 54 50 44 44 40 38 39 39 36 45 42 35 41 40 36 16 18 27 53 50 55 82 67 52 38 40 45 58 64 79 95 96 102 97 98 109 105 103 100 103 107 114 119 123 128 118 102 101 108 121 136 148 160 169 171 168 170 174 176 180 185 183 182 180 177 174 169 163 161 162 159 156 156 150 144 141 134 126 124 120 110 106 100 92 87 86 77 67 63 62 54 54 51 46 42 40 41 40 37 38 33 34 30 28 31 25 30 26 10 15 31 52 42 73 75 57 38 33 43 50 61 71 95 98 103 101 104 115 111 107 105 103 107 115 120 129 130 115 103 105 112 131 142 151 165 164 165 167 171 175 179 183 185 180 180 178 177 174 170 167 167 162 160 155 152 148 141 138 134 127 125 121 114 111 104 97 94 89 77 73 71 62 53 53 50 46 38 43 40 38 42 38 32 31 24 19 22 11 12 18 10 9 14 37 50 62 77 58 41 30 43 48 58 64 97 107 102 101 112 114 104 101 104 108 110 116 127 128 123 113 107 113 121 137 146 153 158 157 164 168 167 174 179 178 180 176 175 174 175 173 169 171 167 169 165 159 151 145 140 134 132 127 125 118 115 113 104 101 96 90 82 78 76 65 64 60 55 48 46 46 43 42 40 42 31 30 24 15 18 12 5 15 16 7 12 26 45 61 71 72 48 32 36 47 55 63 96 109 104 109 113 113 102 107 114 116 118 123 129 120 118 114 112 120 130 141 148 146 154 158 165 165 164 165 170 171 172 173 175 171 174 174 170 170 166 163 162 159 155 146 142 136 128 128 124 120 116 114 108 104 99 91 89 86 80 77 71 69 66 61 58 56 54 48 46 43 34 28 21 19 15 16 8 8 19 17 17 17 35 70 77 73 62 46 34 37 53 62 101 108 109 109 114 115 112 118 115 114 124 121 122 125 122 120 116 129 141 148 148 145 155 160 160 158 160 159 162 163 168 172 172 170 171 172 169 164 163 161 158 156 152 150 146 142 132 130 122 119 117 112 109 108 108 101 98 93 88 87 84 77 75 74 66 64 63 57 52 50 41 35 23 19 12 13 9 9 16 20 18 20 31 55 92 75 68 56 39 39 45 62 101 108 109 110 116 107 119 120 117 114 118 119 119 132 124 126 128 139 145 145 145 152 158 156 150 154 153 158 158 160 167 169 166 166 166 167 164 160 157 157 156 152 156 150 149 140 138 133 126 124 118 111 110 111 108 108 107 102 100 96 95 86 84 86 79 76 74 72 68 59 55 45 30 24 10 5 13 14 15 20 19 20 28 52 90 81 70 61 49 43 53 58 102 108 109 109 111 109 116 120 125 121 115 126 128 136 126 133 145 146 143 143 149 154 156 149 147 152 156 153 156 159 164 164 163 163 160 160 159 157 156 156 155 150 156 152 151 142 139 137 133 125 122 116 115 113 113 110 109 106 108 104 101 96 93 92 89 84 84 81 77 69 66 57 44 36 23 7 7 20 27 15 20 29 22 51 89 83 72 65 52 40 50 59 107 112 113 109 111 117 128 133 130 126 125 132 132 134 136 143 149 149 145 147 146 149 145 147 152 155 153 151 153 157 160 160 159 161 163 158 158 155 156 156 153 151 154 151 150 146 143 140 136 132 125 125 121 119 115 116 113 114 112 110 106 105 100 97 96 94 91 89 88 79 71 69 55 45 37 21 9 17 28 30 23 37 29 55 88 81 71 65 56 43 47 59 107 112 119 116 116 127 148 141 133 136 133 129 128 139 145 150 148 149 150 148 146 143 148 152 152 149 150 154 160 159 158 159 160 163 164 158 157 156 154 153 151 149 149 147 146 146 143 140 137 133 125 123 126 123 119 118 118 120 120 117 114 111 106 104 102 101 97 96 97 92 80 77 66 57 41 36 18 19 27 33 31 33 41 60 86 91 74 65 60 44 48 56 100 112 115 116 116 135 154 147 147 141 134 129 138 147 149 148 148 149 151 152 148 151 154 155 151 154 155 160 162 159 158 160 161 161 163 159 157 156 152 152 151 148 148 147 145 147 143 142 138 135 127 125 128 126 124 122 119 122 121 118 118 112 111 107 106 105 101 99 103 96 94 82 70 68 51 43 30 24 30 35 33 36 45 72 87 98 86 74 63 52 44 56 106 118 114 112 126 143 154 158 156 144 134 136 148 155 154 153 146 151 152 158 159 159 155 158 157 162 165 165 161 158 159 161 161 159 161 160 158 157 157 155 150 151 147 147 146 147 145 143 137 137 135 134 132 131 128 125 122 127 124 121 121 114 113 110 106 105 110 107 106 105 102 93 78 73 63 46 43 29 33 35 38 40 53 72 100 93 98 92 69 60 50 57 117 121 111 111 136 151 163 158 156 148 130 141 157 165 160 148 148 156 159 165 166 162 159 167 167 170 169 167 165 164 164 164 165 163 163 163 162 158 158 156 152 151 149 147 146 145 144 141 140 138 137 138 137 136 131 131 131 130 129 127 125 124 120 117 112 111 116 117 117 116 112 102 90 83 71 58 50 39 32 40 35 40 54 86 103 105 102 104 90 70 60 54 122 125 113 121 145 156 163 156 162 147 134 153 166 173 159 145 149 163 164 163 163 159 163 171 175 176 172 171 166 166 163 165 168 165 163 162 160 158 159 158 155 155 151 148 146 143 144 143 140 138 141 145 142 147 141 139 141 138 137 135 135 133 131 127 128 119 120 122 126 125 124 113 105 94 85 67 57 48 39 42 42 36 51 94 118 119 112 110 101 83 69 52 130 130 122 125 145 159 163 162 161 154 145 162 173 178 157 147 152 159 161 159 158 158 160 166 168 165 166 162 166 170 168 168 169 168 168 167 169 165 161 161 156 155 153 147 147 144 142 145 144 141 147 152 156 153 152 147 148 147 147 146 143 144 141 135 136 129 122 124 126 129 134 126 110 106 95 80 68 55 45 47 48 41 57 98 118 124 123 121 109 92 87 62 127 128 120 132 143 158 159 161 167 162 159 172 178 178 158 149 155 156 153 151 152 147 146 150 154 154 155 156 155 154 154 156 159 162 161 162 163 163 158 157 151 149 150 148 147 147 146 152 152 152 153 157 157 157 156 157 157 154 155 155 151 149 148 148 144 139 141 134 135 136 135 137 124 107 99 87 78 64 46 54 51 40 62 106 123 127 131 135 126 99 92 76 128 123 125 133 147 159 158 170 172 162 170 182 181 174 160 153 155 150 146 156 149 140 140 137 140 142 144 145 143 141 141 142 143 143 144 142 141 143 142 144 144 144 145 148 149 150 150 154 157 154 158 160 159 160 160 163 161 159 160 159 158 152 151 149 144 142 142 143 143 151 145 148 136 118 99 89 81 70 54 51 59 46 62 115 126 136 134 137 131 108 93 77 125 125 129 142 150 157 161 165 170 168 181 185 179 175 156 157 150 146 156 159 148 140 137 134 135 133 136 138 137 136 136 135 134 135 133 131 127 124 125 127 131 134 136 141 147 149 151 153 157 155 153 153 152 151 151 154 153 150 148 152 148 150 145 146 140 140 138 136 137 141 140 145 143 127 109 98 88 78 67 51 59 43 75 125 127 140 139 144 130 116 90 75 128 128 128 147 155 156 162 162 174 185 192 191 173 173 160 155 148 149 155 157 152 148 144 135 128 127 128 135 138 133 128 127 127 123 121 120 118 116 114 113 115 121 125 129 134 136 139 143 144 142 145 142 137 138 137 140 141 138 135 139 138 139 136 138 137 133 132 130 132 135 133 135 134 135 122 107 94 91 79 66 57 51 81 127 126 137 142 148 140 119 90 77 128 131 136 140 150 150 160 161 177 195 197 185 170 167 158 153 142 149 152 157 150 148 144 137 131 128 126 127 130 127 122 122 119 115 114 112 110 107 107 104 106 106 110 115 121 121 120 126 128 130 131 131 128 128 125 123 124 119 123 124 126 125 127 130 129 130 128 126 123 124 127 128 125 137 130 121 106 95 92 76 50 60 95 124 128 134 140 145 135 119 91 77 126 138 142 148 142 147 156 170 186 200 198 184 172 165 160 141 133 148 148 145 138 136 134 134 129 128 127 119 115 118 115 112 113 114 112 107 103 103 101 99 102 101 104 107 110 113 114 117 116 119 118 113 113 115 114 113 113 108 113 116 121 119 122 124 123 124 123 127 124 121 123 124 123 127 135 135 128 111 97 83 61 66 107 125 129 134 143 137 131 114 99 79 130 142 154 150 144 147 158 171 184 199 203 188 170 165 153 129 130 145 140 133 124 124 123 123 120 119 126 121 115 115 111 107 107 107 106 105 102 98 97 93 95 98 98 102 106 107 108 110 112 110 108 106 105 105 107 107 105 104 106 107 112 111 113 112 110 118 117 120 114 110 112 114 118 115 123 138 129 124 102 84 69 82 115 121 133 135 147 136 126 116 99 87 132 156 157 157 149 149 166 173 185 207 207 193 172 165 144 123 128 133 127 121 118 113 110 114 114 108 114 107 100 100 98 97 97 95 94 94 91 91 88 86 87 89 89 92 97 97 103 105 104 104 101 100 103 98 101 101 102 98 97 99 103 108 107 108 106 108 106 107 105 98 100 95 103 103 107 125 127 123 114 93 82 93 123 119 131 134 143 149 126 112 100 87 122 159 164 162 146 155 167 160 192 214 208 196 171 157 138 117 121 125 120 115 122 120 120 121 116 108 110 104 94 92 93 95 98 95 94 91 92 90 87 87 85 87 92 90 94 96 100 98 100 97 97 98 103 98 100 98 99 98 100 99 108 118 109 109 108 107 109 104 105 111 111 99 97 109 112 115 121 130 122 109 89 114 129 117 127 139 155 159 137 123 99 86 124 156 158 157 146 164 150 167 197 209 210 192 174 153 143 119 124 124 114 113 119 115 120 123 120 117 111 110 103 103 103 104 105 101 100 97 96 94 91 92 88 87 94 93 94 98 96 93 91 93 90 90 98 101 99 99 101 97 99 102 115 119 114 111 109 109 113 111 118 122 121 107 102 112 109 121 121 126 131 116 107 124 138 130 125 148 170 171 152 141 118 93 132 147 135 149 155 161 147 179 204 205 211 192 169 152 127 122 126 120 109 110 112 105 111 118 112 103 99 102 104 106 112 113 110 109 104 101 104 99 100 91 88 85 90 89 95 95 93 91 89 91 84 79 93 96 92 94 93 95 100 101 103 112 110 113 112 115 116 112 115 127 129 111 118 113 105 112 129 130 136 123 115 128 143 138 135 165 187 178 166 165 135 100 120 141 130 145 154 153 149 187 210 210 213 191 162 147 123 118 119 105 105 95 99 91 102 111 99 85 92 94 109 107 116 117 112 100 101 104 100 98 95 93 84 73 79 85 89 94 89 87 84 86 84 77 87 95 93 93 96 93 100 95 102 108 107 108 112 115 111 111 110 111 123 114 121 128 105 102 124 129 139 131 128 141 146 141 153 182 205 195 169 170 151 116 115 136 129 147 152 149 152 185 210 212 214 188 162 144 120 108 105 94 79 77 82 80 89 99 85 79 82 86 95 92 101 105 99 92 94 98 91 88 87 88 78 67 73 79 90 92 87 88 80 82 78 85 90 95 88 85 89 91 92 89 92 104 106 108 111 109 106 106 102 100 113 123 113 140 127 100 113 122 112 127 128 150 159 159 170 195 219 204 186 178 162 127 104 131 139 156 150 134 154 185 213 216 206 179 156 134 104 93 89 77 56 40 53 56 63 68 72 67 73 75 96 97 96 104 103 85 88 83 82 72 75 79 75 70 69 73 82 87 81 75 74 75 68 76 88 94 90 84 85 97 100 94 88 92 97 98 106 104 99 93 92 88 104 112 115 118 126 110 110 116 114 132 124 150 163 192 198 212 225 209 198 178 175 128 102 122 143 147 147 140 154 180 202 212 194 164 146 127 95 81 73 55 40 33 34 38 54 78 67 60 62 78 96 85 89 91 90 79 75 74 60 53 56 65 67 72 63 72 80 83 83 80 68 68 66 80 76 85 84 78 74 80 98 94 96 81 86 78 85 84 87 88 83 83 88 108 116 103 112 115 101 113 118 129 137 156 165 211 218 226 235 221 211 198 184 136 108 114 129 136 150 136 147 176 191 207 190 162 143 117 85 70 57 24 29 28 27 40 53 73 59 40 44 63 80 70 67 70 70 70 70 66 58 50 46 64 67 71 64 64 79 75 71 71 61 58 62 73 62 72 76 73 73 94 100 100 101 91 83 70 85 86 84 73 79 67 72 96 106 87 99 115 105 110 122 133 137 167 166 230 233 239 246 229 221 196 172 137 113 111 102 139 144 132 145 190 181 201 182 153 142 109 87 67 54 36 25 30 32 33 56 68 53 38 53 66 69 59 60 62 62 60 56 55 54 50 54 67 71 72 61 60 74 76 66 72 64 55 68 68 73 67 84 87 80 94 98 102 96 90 86 67 89 89 90 73 60 65 61 90 96 83 81 98 99 108 121 133 142 171 184 245 237 249 233 228 219 183 159 130 114 118 106 140 132 124 148 189 185 184 173 141 132 97 84 70 59 42 29 34 27 34 48 50 38 33 46 51 50 57 57 48 51 53 55 54 58 65 62 70 71 63 64 67 72 71 69 74 62 61 65 70 66 68 73 81 79 91 91 103 91 85 86 77 85 80 91 88 62 61 52 79 81 79 75 89 75 86 109 123 147 176 198 248 239 255 221 237 223 179 163 118 107 117 114 144 121 116 152 181 193 184 174 148 137 97 87 80 62 50 53 58 57 55 52 54 35 26 37 32 36 41 51 49 47 64 68 63 66 76 71 71 73 62 73 75 86 78 75 75 68 67 63 78 80 76 80 73 68 84 75 89 86 80 72 77 82 86 83 68 67 56 66 72 64 68 66 85 76 70 93 115 163 188 209 253 230 232 199 237 213 163 157 121 100 108 125 140 111 101 142 176 181 187 165 147 136 102 90 84 67 46 53 66 49 49 57 62 48 33 33 28 33 51 52 56 58 62 69 66 73 72 87 92 85 83 88 95 98 90 85 84 73 70 64 71 71 78 78 72 63 80 66 67 83 68 65 75 88 87 80 68 65 54 59 66 64 63 60 87 87 82 93 120 178 188 216 246 195 195 181 225 206 150 144 108 103 120 123 142 109 91 136 166 174 185 158 142 126 109 82 88 70 49 59 71 57 54 52 53 48 40 45 46 42 62 65 62 60 66 71 68 60 55 59 68 79 86 89 99 100 94 95 94 81 80 77 67 70 85 88 80 63 58 63 65 69 56 60 53 69 62 53 36 44 64 66 57 70 63 54 70 87 96 105 134 180 188 216 205 167 180 172 216 191 141 137 107 115 121 142 141 107 93 130 162 176 178 156 141 121 106 95 87 65 43 58 62 53 52 56 55 56 63 64 61 60 62 72 75 70 84 74 67 70 64 82 86 91 96 93 96 104 98 98 94 93 96 82 68 70 82 92 82 70 59 52 57 62 61 61 65 57 60 58 39 37 47 62 50 63 68 56 63 87 100 110 141 171 179 200 183 149 167 167 202 168 126 142 111 113 131 152 128 118 93 135 160 168 169 155 142 126 98 95 88 78 57 60 67 54 61 71 76 72 68 70 71 75 75 79 81 84 94 86 81 80 74 87 101 100 102 105 108 115 119 106 101 100 107 93 78 77 77 90 91 80 71 56 53 56 59 58 59 46 57 58 42 45 45 52 50 59 58 53 66 88 111 124 135 165 178 189 174 152 164 163 189 150 131 136 114 118 138 168 130 113 97 133 155 160 162 160 142 130 101 88 78 75 61 64 72 62 73 80 84 83 75 76 78 79 77 84 95 94 101 96 87 79 83 96 106 108 104 97 116 118 127 114 105 106 107 105 83 77 76 73 82 91 82 78 63 59 63 66 60 62 64 60 55 51 52 58 54 67 62 61 75 98 117 128 132 162 167 186 167 153 151 142 174 140 146 129 114 122 132 156 137 113 92 135 149 144 159 161 146 130 100 91 78 79 70 68 79 72 72 82 82 86 83 78 79 75 77 86 91 100 104 99 99 99 107 104 121 120 107 110 117 127 124 121 114 126 125 114 92 92 90 83 90 91 87 90 85 77 79 75 67 72 72 73 68 65 68 76 81 85 76 79 89 102 118 125 129 164 153 181 167 133 130 131 156 136 152 124 107 127 125 151 146 125 97 126 145 137 153 167 147 136 104 94 82 81 74 69 81 80 76 78 83 83 84 81 81 79 84 90 98 102 105 107 99 99 120 126 129 126 119 118 119 129 121 116 122 132 138 117 82 90 93 91 91 90 85 96 87 85 89 90 85 89 88 89 86 92 94 94 95 98 87 90 99 104 112 118 134 159 159 174 159 122 124 136 140 152 148 123 106 124 125 147 153 125 104 101 135 138 145 175 151 137 109 97 95 83 85 77 85 92 82 81 83 81 83 83 84 86 89 95 101 104 105 104 105 116 134 138 139 132 129 130 126 130 129 128 143 153 139 124 96 95 94 91 100 99 94 96 93 89 90 95 98 102 105 107 108 104 102 103 105 106 94 99 106 112 117 122 136 155 155 160 159 136 136 145 145 176 131 127 104 125 121 136 159 113 101 101 115 134 147 174 157 138 114 102 97 87 92 83 85 94 90 86 83 80 79 81 85 88 92 99 108 102 109 111 120 124 133 138 138 129 122 131 137 132 134 138 139 144 134 116 109 104 99 85 96 101 100 97 93 96 93 91 93 97 104 112 109 109 109 109 112 103 99 104 112 114 117 122 138 153 144 154 151 142 128 139 164 176 119 124 97 118 109 121 151 115 73 72 112 114 132 161 154 145 119 105 99 91 92 92 85 86 93 91 84 82 84 87 87 94 96 102 107 103 109 121 117 123 123 126 136 134 126 129 139 141 141 137 137 130 129 110 119 107 101 78 81 92 104 93 94 99 100 100 99 103 106 111 113 109 107 106 107 100 106 109 119 113 117 121 145 150 147 155 146 137 118 134 176 162 112 116 95 113 104 109 124 108 69 56 100 112 111 147 149 146 117 108 103 99 94 92 85 85 81 87 86 80 75 77 81 88 90 94 100 109 125 131 123 123 123 132 148 152 138 134 133 138 134 139 146 137 129 121 130 117 108 94 88 97 97 109 100 112 107 107 107 106 111 116 110 103 103 98 100 108 108 112 119 110 111 128 148 147 156 160 139 122 116 151 179 147 115 107 92 110 97 107 110 102 77 63 89 97 94 143 144 149 123 110 108 100 93 86 85 85 84 81 82 79 71 72 76 84 85 94 109 122 134 136 129 128 134 144 155 151 143 137 138 134 134 139 146 144 141 129 126 126 119 114 103 105 107 111 111 111 110 111 112 107 110 116 113 113 109 104 102 109 112 119 111 115 114 128 148 148 161 141 123 111 132 166 177 137 116 104 87 113 93 104 109 99 70 75 85 97 90 127 142 143 131 118 111 102 100 93 88 88 86 86 84 74 70 77 79 85 91 99 119 126 136 139 136 130 140 149 158 156 149 141 138 139 143 142 153 149 147 137 128 126 122 118 122 123 122 121 125 122 115 115 122 118 116 119 121 115 110 110 98 108 117 122 112 109 110 140 140 150 157 129 116 119 152 174 159 132 110 93 94 113 102 102 110 100 83 67 72 98 93 104 138 144 129 122 115 106 101 94 93 91 85 91 89 77 74 83 86 93 101 110 129 126 133 139 130 128 140 149 159 164 155 144 141 140 147 151 156 154 151 147 148 138 136 122 133 127 125 129 126 126 118 117 119 125 129 127 122 116 110 113 101 111 111 119 111 102 107 135 126 145 144 133 121 114 160 166 139 122 99 91 81 116 113 99 112 96 57 63 59 87 92 85 128 143 129 127 117 106 103 94 96 91 82 92 94 78 77 82 85 95 103 114 125 128 127 126 122 130 139 143 152 146 146 139 140 148 148 156 160 161 155 144 153 145 146 142 138 127 126 125 131 133 132 121 117 121 126 137 128 128 118 115 112 110 118 122 105 99 111 128 119 134 124 127 113 112 153 145 127 111 92 80 79 122 113 109 118 93 52 66 72 89 87 83 123 140 129 126 117 105 102 91 99 88 86 92 99 78 76 77 84 92 105 112 118 131 126 126 123 132 137 138 142 136 138 141 141 150 152 152 156 158 159 146 149 149 151 141 126 118 120 123 132 136 131 128 118 121 125 132 128 125 120 114 112 110 121 119 108 100 126 127 106 111 107 108 104 108 137 122 118 102 90 83 77 115 115 121 124 91 61 77 84 100 93 100 115 132 129 127 119 103 103 90 98 91 88 87 91 89 77 73 81 89 97 101 112 128 124 124 141 132 126 121 120 128 135 139 144 143 152 152 148 148 151 143 142 140 130 122 113 110 107 118 128 131 132 129 122 121 124 129 128 125 121 124 122 115 121 121 110 106 132 126 107 105 101 101 100 112 122 103 107 95 88 79 83 114 102 114 122 93 65 74 96 92 93 102 113 131 128 126 126 107 103 95 94 96 93 85 86 89 85 83 90 94 100 103 110 123 126 123 137 139 133 117 124 129 133 139 144 149 156 157 150 145 151 151 139 129 119 117 108 100 101 103 113 124 133 132 131 133 124 132 133 130 126 128 126 119 119 122 114 113 132 115 112 112 98 94 98 102 107 93 90 97 84 79 72 107 96 107 113 98 63 65 90 90 92 95 109 135 131 126 128 113 105 97 96 93 94 89 82 84 90 98 101 105 113 114 113 122 126 136 142 152 152 137 133 131 146 143 141 152 159 157 154 144 147 153 136 128 124 127 120 113 113 109 108 121 134 142 144 146 133 138 141 144 139 137 134 124 125 121 119 121 131 104 108 112 99 84 88 99 98 85 89 97 79 73 60 106 96 107 108 92 70 66 79 89 95 95 104 130 136 122 126 109 106 96 97 92 91 91 92 90 101 102 105 111 119 112 114 117 127 138 153 148 153 155 145 136 146 147 138 145 160 157 152 151 145 148 139 137 143 143 129 118 124 114 115 122 134 144 147 145 137 138 143 152 146 143 141 131 125 127 125 127 130 95 114 111 96 86 89 89 91 87 89 97 75 68 57 101 105 108 118 94 71 58 66 85 97 103 99 118 133 123 126 114 106 98 94 95 93 92 93 92 101 104 113 118 120 116 117 127 134 144 149 148 150 154 142 138 136 146 139 140 148 154 148 157 150 139 131 140 141 141 122 118 120 136 126 134 145 146 153 143 144 141 150 152 147 143 139 128 127 126 126 134 136 95 109 108 88 79 75 86 84 91 96 90 70 69 60 94 115 118 118 107 72 57 63 82 95 103 106 108 128 125 127 115 109 102 96 94 96 96 97 95 103 111 118 118 121 122 132 147 149 148 137 136 153 147 143 141 140 151 144 138 145 144 143 163 163 152 145 145 142 134 120 114 118 128 133 137 147 154 159 155 148 143 147 151 144 138 138 125 129 126 127 138 138 105 104 99 79 66 75 79 81 87 100 90 69 69 66 96 119 122 111 120 88 63 70 82 91 104 111 117 125 126 125 121 113 101 100 95 98 101 99 100 107 112 116 119 129 139 147 149 155 155 144 137 151 158 155 159 147 153 148 149 151 149 147 164 168 165 153 142 136 133 117 116 128 130 138 142 151 150 153 157 148 137 140 135 134 132 134 121 125 120 130 133 136 113 109 96 79 70 75 67 79 86 107 96 75 69 76 96 111 121 110 112 106 78 69 86 93 103 113 118 127 130 129 125 116 103 104 102 105 104 108 103 107 111 115 124 140 148 154 154 159 159 156 151 150 156 150 149 148 152 146 153 155 153 145 151 160 161 149 133 126 129 121 126 135 138 141 148 156 152 149 158 142 136 136 132 127 130 128 117 120 115 124 127 128 112 96 81 81 74 66 69 74 94 107 97 79 72 71 100 109 116 123 115 107 102 88 95 100 110 111 120 128 133 130 126 115 109 110 106 108 105 106 104 105 110 116 130 145 153 158 165 168 167 164 161 154 161 159 156 159 155 156 163 160 156 148 145 155 160 154 138 133 131 142 143 147 144 144 148 158 155 159 161 143 132 132 129 121 120 123 109 113 112 124 124 121 109 91 76 76 71 68 71 77 104 114 91 81 73 59 116 107 111 127 123 109 114 107 124 114 121 119 125 130 137 133 130 116 114 109 110 104 100 105 100 104 110 120 133 144 155 159 167 167 172 172 170 163 160 168 166 172 159 160 160 163 157 153 151 156 157 151 147 146 146 145 150 155 157 158 160 156 157 156 160 142 127 128 122 112 118 113 112 115 123 129 129 118 111 92 74 71 64 65 72 87 113 112 90 81 72 53 120 108 108 124 117 120 120 113 140 144 134 132 141 145 143 142 131 120 114 107 104 106 99 104 101 97 109 117 126 144 147 149 156 154 160 165 171 162 156 161 151 157 158 152 153 151 150 150 148 152 152 147 144 143 146 144 147 142 149 157 159 156 153 155 156 136 128 124 115 111 119 113 108 118 128 136 133 119 106 90 79 72 56 71 82 107 108 106 86 79 76 57 107 103 110 126 115 113 129 121 143 162 150 143 149 151 149 147 131 118 113 111 105 100 99 100 100 89 94 98 105 122 131 138 141 141 147 153 153 142 125 128 126 129 128 127 131 136 134 136 137 139 143 139 135 133 133 123 125 125 138 153 157 160 151 154 153 133 128 118 115 116 121 113 106 118 133 133 131 114 103 87 84 80 60 77 101 103 103 96 88 75 76 69 92 97 109 114 110 107 130 135 151 171 158 159 160 159 157 149 137 121 115 111 112 101 98 100 97 89 86 85 85 98 109 118 126 131 134 131 128 111 102 98 100 100 99 100 107 114 117 115 115 118 123 125 114 110 114 106 113 122 122 140 146 151 148 148 149 128 129 123 118 120 120 110 106 118 138 133 131 113 105 91 98 86 64 87 105 99 100 87 89 79 72 79 88 92 99 106 100 105 115 139 153 172 165 168 172 164 164 151 144 128 121 112 111 109 102 101 99 96 96 96 91 89 102 110 112 113 115 119 117 109 100 97 93 92 88 78 96 100 105 103 101 109 116 113 102 99 104 105 108 112 112 118 134 140 133 144 148 136 125 130 128 123 119 116 113 120 140 138 131 115 109 103 116 97 72 99 105 95 95 91 86 86 74 78 93 95 90 94 99 101 104 126 149 167 170 171 173 172 165 159 150 134 131 112 114 111 100 98 98 95 104 97 97 95 98 103 104 109 109 116 119 119 119 117 109 108 104 90 103 106 112 104 98 102 98 106 102 103 105 98 92 93 93 98 119 121 121 132 143 136 130 127 130 129 125 121 121 122 139 137 133 122 118 114 126 107 92 100 103 97 88 98 90 92 76 79 98 89 90 95 101 98 98 112 134 154 174 175 173 172 168 162 150 137 136 112 110 107 94 96 97 88 99 92 90 90 92 93 99 100 96 104 109 105 105 113 118 115 118 108 113 115 110 110 111 107 103 104 102 98 98 88 85 82 83 97 110 112 117 127 136 134 129 131 133 129 131 120 125 127 139 138 130 118 124 123 134 124 96 95 103 100 79 110 103 94 81 75 98 92 96 96 100 90 92 105 126 142 170 176 176 170 171 161 142 136 129 118 111 103 99 96 97 93 104 95 92 94 90 90 93 88 78 83 85 79 81 88 99 99 101 99 107 106 95 100 112 111 104 101 96 88 90 82 85 88 82 99 110 107 109 113 127 134 138 141 138 134 125 122 128 139 144 138 122 118 127 132 132 122 107 93 100 98 79 109 115 95 94 77 96 97 99 94 93 87 90 107 119 129 155 174 174 170 174 156 141 137 135 116 111 104 100 100 97 101 107 104 98 91 85 84 80 79 78 76 76 70 71 71 75 83 78 80 85 92 92 93 98 101 92 86 81 78 79 72 80 90 91 93 101 103 102 107 120 133 142 145 142 134 122 123 132 156 153 137 122 121 128 137 126 119 108 98 96 95 87 103 123 99 98 91 93 93 97 90 84 86 102 113 112 119 139 161 166 169 170 149 138 137 140 118 117 110 103 102 100 102 103 97 94 90 81 80 69 65 65 74 66 52 49 47 51 51 61 68 72 80 83 87 91 90 83 81 78 69 71 77 74 84 87 90 98 102 101 112 123 136 148 150 143 136 125 129 138 157 155 133 127 128 127 139 124 119 112 102 95 86 90 100 117 108 95 100 98 95 91 90 84 97 111 110 112 121 125 142 153 164 168 147 135 134 142 139 125 128 123 114 110 108 108 98 102 96 81 74 67 65 66 76 73 62 61 55 61 62 68 83 86 87 94 100 99 96 97 91 85 80 80 86 83 90 95 96 104 105 111 116 125 140 145 150 145 137 132 134 146 159 145 132 127 128 130 134 120 115 103 103 87 87 88 100 115 108 99 101 105 93 88 86 93 112 110 118 114 117 119 132 141 157 168 143 133 137 141 152 140 144 142 129 129 118 121 110 113 106 94 78 73 71 68 70 75 74 80 82 88 92 92 103 113 117 116 111 107 104 109 97 93 85 86 93 96 102 104 109 109 115 115 118 132 148 148 145 148 142 137 142 155 160 140 131 130 129 130 134 118 112 101 96 87 89 92 100 115 112 100 108 98 91 86 91 112 113 111 120 109 111 116 123 127 149 164 141 128 128 139 146 155 151 153 140 141 128 123 120 120 120 109 92 87 82 74 69 73 76 79 86 98 100 99 108 113 119 127 127 118 115 116 109 104 102 99 107 110 106 108 112 113 116 123 128 137 149 158 146 150 138 141 150 151 153 130 130 133 131 134 134 121 108 97 85 87 90 95 103 114 120 101 107 93 89 89 109 116 114 115 118 110 104 111 117 121 136 157 136 119 122 131 143 153 154 156 153 139 140 131 126 125 128 118 103 101 97 92 87 80 83 81 93 105 105 107 119 117 119 126 127 126 124 123 117 113 114 111 116 109 110 112 118 121 126 133 141 141 151 156 150 154 142 144 156 144 161 127 133 139 135 137 135 122 106 94 86 84 91 98 108 119 128 107 105 92 88 101 119 117 116 117 121 112 98 107 111 122 126 148 129 112 109 122 131 145 156 149 157 150 140 136 129 128 132 123 113 107 100 95 96 88 93 92 98 98 98 106 119 121 121 125 126 127 130 128 123 118 115 114 115 109 105 113 120 126 132 139 142 146 157 152 151 154 141 153 145 151 161 126 150 146 137 140 140 117 109 97 89 81 91 101 102 119 130 115 105 89 95 113 121 121 117 117 123 109 96 103 105 112 121 137 124 110 105 115 127 134 158 159 153 152 146 140 136 132 131 123 118 109 106 93 90 88 90 89 90 86 87 96 108 108 117 120 122 121 126 124 116 116 111 111 108 110 109 119 125 130 134 138 143 149 154 149 151 149 144 150 140 165 141 124 160 157 146 148 138 112 110 107 90 84 93 105 100 114 131 121 112 97 105 119 124 124 112 115 122 107 94 94 102 106 116 126 113 96 96 106 127 127 154 166 164 158 162 153 143 143 134 124 128 123 113 96 97 95 95 86 84 75 81 81 90 92 102 104 112 114 117 118 114 114 112 111 111 117 119 130 136 136 139 145 148 153 154 149 149 149 148 147 147 168 126 130 165 159 159 152 134 112 108 115 100 93 97 101 103 115 122 126 124 112 109 125 129 121 108 117 122 110 96 90 100 99 112 108 94 80 87 100 111 121 141 163 175 166 165 162 152 146 144 133 134 128 120 110 107 104 96 95 88 87 87 82 87 89 91 100 100 108 107 110 112 112 113 111 113 115 121 126 135 133 136 151 149 151 156 152 149 144 150 147 156 163 117 149 165 163 160 159 135 117 115 116 119 105 105 103 101 120 125 129 134 112 112 123 129 123 108 117 123 108 102 86 97 95 97 93 78 69 76 92 102 112 132 156 173 177 174 169 172 152 151 147 136 137 130 123 113 109 100 104 90 88 90 85 86 95 95 101 102 107 101 105 105 106 106 103 106 106 117 122 127 130 137 149 151 149 157 153 154 144 150 150 154 152 123 152 174 159 161 154 142 119 123 121 123 127 120 106 105 121 130 127 139 115 116 126 135 129 111 121 122 108 104 92 93 87 76 83 74 51 64 74 91 99 120 150 172 186 184 182 178 169 163 162 157 152 142 138 123 116 117 113 108 108 106 103 103 108 111 114 113 118 105 104 106 102 108 101 102 111 112 122 122 137 139 149 153 149 158 151 148 141 150 152 144 145 126 161 180 154 161 155 144 133 131 122 126 134 137 110 112 127 122 130 134 115 116 126 138 131 116 123 122 109 103 102 93 78 70 71 70 39 45 62 74 91 106 142 163 181 190 194 185 178 170 175 168 160 155 146 139 127 126 120 122 125 121 121 122 123 127 124 124 123 121 117 113 112 106 108 102 112 115 124 132 142 144 151 156 155 155 150 146 145 155 152 143 145 130 170 177 159 160 153 144 142 142 126 130 137 144 123 118 129 126 128 132 114 116 129 138 130 120 122 123 107 106 111 90 66 67 60 64 30 34 46 60 85 95 123 150 182 189 196 196 183 178 179 179 167 163 159 151 142 138 135 138 137 133 134 135 134 138 136 137 136 133 130 122 118 117 115 111 118 133 133 142 147 152 155 161 154 147 152 147 150 156 146 151 145 134 175 180 163 154 152 148 143 151 132 132 139 145 133 126 134 123 127 131 113 118 132 134 133 124 116 121 105 109 117 89 61 60 52 58 26 27 34 49 77 83 101 130 173 190 189 197 188 190 186 187 181 178 177 159 157 145 143 148 145 145 144 140 146 146 145 145 139 136 135 128 127 130 129 128 128 141 141 148 151 153 155 156 153 148 149 153 151 148 144 147 152 133 181 195 168 149 153 149 149 149 145 129 140 140 138 142 141 128 126 134 113 120 129 130 132 119 109 117 105 115 122 85 59 49 47 50 25 19 26 36 56 64 78 110 155 177 187 192 191 191 190 193 195 197 193 174 172 159 159 148 145 144 151 143 141 146 146 147 139 137 135 133 134 133 136 142 136 143 149 153 159 159 158 151 148 153 151 152 148 142 141 154 153 141 187 208 183 148 149 152 153 144 155 135 138 140 146 150 152 141 137 139 114 121 121 126 133 114 106 109 106 123 116 87 60 33 28 53 16 11 20 35 37 40 64 91 130 159 171 184 192 186 187 195 199 200 200 192 183 175 167 160 152 151 148 143 146 143 142 147 134 136 138 136 138 137 146 149 145 150 152 155 158 162 156 155 149 161 154 145 144 140 142 159 149 148 192 214 201 152 153 156 156 160 159 154 136 142 153 160 156 151 147 151 114 120 117 123 136 111 103 105 110 122 110 91 46 14 39 46 6 17 25 25 31 20 47 83 107 133 150 171 181 180 176 187 194 195 199 198 192 187 177 167 155 158 157 152 150 153 146 146 143 139 136 139 138 142 146 149 152 159 155 156 160 161 157 154 161 160 156 140 144 138 146 157 129 159 188 224 206 172 153 153 159 172 167 161 141 141 155 165 156 156 152 155 117 121 116 126 136 111 97 107 113 118 107 78 28 26 41 31 0 30 42 19 22 23 27 74 94 109 124 144 158 175 165 168 179 188 191 194 191 193 188 176 164 165 159 157 156 157 152 150 150 150 147 149 154 154 151 158 156 164 162 162 159 162 161 160 157 157 151 135 134 142 148 160 120 155 183 215 209 195 169 158 161 177 180 167 148 145 154 164 159 154 157 158 120 121 115 126 130 111 97 104 114 112 100 53 29 40 31 20 3 29 48 24 21 16 32 57 86 96 99 121 130 155 158 161 167 175 186 184 193 195 190 183 178 175 164 166 162 165 163 164 161 165 163 160 166 157 159 166 163 167 165 162 160 164 163 166 159 156 142 128 138 146 148 169 138 151 185 187 205 199 197 162 174 170 193 173 156 153 154 162 160 152 157 158 120 116 111 116 119 108 87 95 98 96 82 53 35 41 20 10 20 38 45 32 23 14 36 59 77 86 88 105 113 126 142 149 156 164 173 176 182 183 181 186 180 176 172 169 171 164 168 168 168 165 164 165 165 166 164 165 166 167 164 163 168 165 162 165 161 148 130 130 146 147 155 163 151 156 172 171 173 192 210 185 178 175 194 186 170 159 155 158 155 151 154 160 119 109 102 107 108 95 72 73 80 73 75 46 39 23 20 20 48 47 61 37 27 29 39 61 68 76 89 94 97 108 122 128 140 153 161 166 167 173 173 179 176 173 173 169 166 169 167 168 169 165 167 165 165 164 167 167 171 168 167 170 171 174 169 167 154 133 122 127 142 150 151 165 153 183 148 161 146 174 203 203 193 180 179 198 188 167 159 154 155 150 153 160 109 104 90 92 98 88 58 64 61 62 69 42 37 17 24 46 60 62 66 52 32 22 48 62 64 72 84 91 92 93 108 115 121 134 148 151 158 164 171 168 167 162 165 166 165 170 166 166 164 164 160 167 165 168 173 167 167 166 173 182 174 177 174 160 144 129 125 133 133 147 147 162 161 186 146 161 131 151 197 206 207 199 185 202 206 189 168 156 159 155 155 157 103 99 87 87 91 79 53 45 44 63 70 44 45 34 30 71 69 71 79 52 49 26 44 54 63 63 80 84 89 87 97 109 113 119 123 137 138 147 154 159 165 160 159 160 165 168 169 167 166 158 167 171 165 171 171 169 168 172 181 180 181 177 161 151 138 125 128 130 132 134 138 171 167 176 152 159 132 134 175 196 198 210 202 204 214 213 181 167 164 164 159 160 97 95 92 83 80 66 40 39 46 64 75 53 51 52 56 84 76 83 97 56 50 51 41 51 63 60 73 83 86 86 93 100 108 118 121 125 125 132 134 142 151 152 158 158 161 165 163 163 171 166 175 169 174 177 174 172 173 183 178 178 178 167 154 140 131 117 122 130 138 131 130 174 170 165 156 146 137 134 147 166 185 204 217 199 220 228 200 178 171 167 166 163 91 87 81 72 58 51 38 38 49 71 84 67 67 61 70 96 89 87 106 71 44 60 47 54 57 69 68 72 81 82 90 93 98 105 113 115 114 121 124 126 126 140 152 157 161 168 172 172 178 178 180 182 180 176 172 176 179 181 176 173 168 159 146 132 122 123 122 128 127 120 143 178 159 156 146 145 122 142 124 130 177 202 221 205 210 225 221 195 177 165 171 166 